<svg xmlns="http://www.w3.org/2000/svg" xmlns:xlink="http://www.w3.org/1999/xlink" version="1.1" class="marks" width="210" height="211" viewBox="0 0 210 211"><rect width="210" height="211" fill="white"/><g fill="none" stroke-miterlimit="10" transform="translate(5,6)"><g class="mark-group role-frame root" role="graphics-object" aria-roledescription="group mark container"><g transform="translate(0,0)"><path class="background" aria-hidden="true" d="M0,0h200v200h-200Z"/><g><g class="mark-arc role-mark marks" role="graphics-object" aria-roledescription="arc mark container"><path aria-label="segment: 1; value: 8" role="graphics-symbol" aria-roledescription="arc mark" transform="translate(100,100)" d="M86.603,-50A100,100,0,0,0,0,-100L0,-20A20,20,0,0,1,17.321,-10Z" fill="#4c78a8" stroke="#fff" opacity="0.5"/><path aria-label="segment: 2; value: 7" role="graphics-symbol" aria-roledescription="arc mark" transform="translate(100,100)" d="M0,94.833A94.833,94.833,0,0,0,82.128,-47.417L17.321,-10A20,20,0,0,1,0,20Z" fill="#4c78a8" stroke="#fff" opacity="0.5"/><path aria-label="segment: 3; value: 6" role="graphics-symbol" aria-roledescription="arc mark" transform="translate(100,100)" d="M0,-89.282A89.282,89.282,0,1,0,0,89.282L0,20A20,20,0,1,1,0,-20Z" fill="#4c78a8" stroke="#fff" opacity="0.5"/></g></g><path class="foreground" aria-hidden="true" d="" display="none"/></g></g></g></svg>