<svg xmlns="http://www.w3.org/2000/svg" xmlns:xlink="http://www.w3.org/1999/xlink" version="1.1" class="marks" width="695" height="343" viewBox="0 0 695 343"><rect width="695" height="343" fill="white"/><g fill="none" stroke-miterlimit="10" transform="translate(56,27)"><g class="mark-group role-frame root" role="graphics-object" aria-roledescription="group mark container"><g transform="translate(0,0)"><path class="background" aria-hidden="true" d="M0.5,0.5h560v240h-560Z" stroke="#ddd"/><g><g class="mark-group role-axis" aria-hidden="true"><g transform="translate(0.5,0.5)"><path class="background" aria-hidden="true" d="M0,0h0v0h0Z" pointer-events="none"/><g><g class="mark-rule role-axis-grid" pointer-events="none"><line transform="translate(0,240)" x2="560" y2="0" stroke="#ddd" stroke-width="1" opacity="1"/><line transform="translate(0,210)" x2="560" y2="0" stroke="#ddd" stroke-width="1" opacity="1"/><line transform="translate(0,180)" x2="560" y2="0" stroke="#ddd" stroke-width="1" opacity="1"/><line transform="translate(0,150)" x2="560" y2="0" stroke="#ddd" stroke-width="1" opacity="1"/><line transform="translate(0,120)" x2="560" y2="0" stroke="#ddd" stroke-width="1" opacity="1"/><line transform="translate(0,90)" x2="560" y2="0" stroke="#ddd" stroke-width="1" opacity="1"/><line transform="translate(0,60)" x2="560" y2="0" stroke="#ddd" stroke-width="1" opacity="1"/><line transform="translate(0,30)" x2="560" y2="0" stroke="#ddd" stroke-width="1" opacity="1"/><line transform="translate(0,0)" x2="560" y2="0" stroke="#ddd" stroke-width="1" opacity="1"/></g></g><path class="foreground" aria-hidden="true" d="" pointer-events="none" display="none"/></g></g><g class="mark-group role-axis" role="graphics-symbol" aria-roledescription="axis" aria-label="X-axis titled 'Species' for a discrete scale with 3 values: Adelie, Chinstrap, Gentoo"><g transform="translate(0.5,240.5)"><path class="background" aria-hidden="true" d="M0,0h0v0h0Z" pointer-events="none"/><g><g class="mark-rule role-axis-tick" pointer-events="none"><line transform="translate(104,0)" x2="0" y2="5" stroke="#888" stroke-width="1" opacity="1"/><line transform="translate(280,0)" x2="0" y2="5" stroke="#888" stroke-width="1" opacity="1"/><line transform="translate(455,0)" x2="0" y2="5" stroke="#888" stroke-width="1" opacity="1"/></g><g class="mark-text role-axis-label" pointer-events="none"><text text-anchor="end" transform="translate(104.49999999999999,7) rotate(270) translate(0,3)" font-family="sans-serif" font-size="10px" fill="#000" opacity="1">Adelie</text><text text-anchor="end" transform="translate(279.5,7) rotate(270) translate(0,3)" font-family="sans-serif" font-size="10px" fill="#000" opacity="1">Chinstrap</text><text text-anchor="end" transform="translate(454.5,7) rotate(270) translate(0,3)" font-family="sans-serif" font-size="10px" fill="#000" opacity="1">Gentoo</text></g><g class="mark-rule role-axis-domain" pointer-events="none"><line transform="translate(0,0)" x2="560" y2="0" stroke="#888" stroke-width="1" opacity="1"/></g><g class="mark-text role-axis-title" pointer-events="none"><text text-anchor="middle" transform="translate(280,68.154296875)" font-family="sans-serif" font-size="11px" font-weight="bold" fill="#000" opacity="1">Species</text></g></g><path class="foreground" aria-hidden="true" d="" pointer-events="none" display="none"/></g></g><g class="mark-group role-axis" role="graphics-symbol" aria-roledescription="axis" aria-label="Y-axis titled 'Body Mass (g)' for a linear scale with values from 2,500 to 6,500"><g transform="translate(0.5,0.5)"><path class="background" aria-hidden="true" d="M0,0h0v0h0Z" pointer-events="none"/><g><g class="mark-rule role-axis-tick" pointer-events="none"><line transform="translate(0,240)" x2="-5" y2="0" stroke="#888" stroke-width="1" opacity="1"/><line transform="translate(0,210)" x2="-5" y2="0" stroke="#888" stroke-width="1" opacity="1"/><line transform="translate(0,180)" x2="-5" y2="0" stroke="#888" stroke-width="1" opacity="1"/><line transform="translate(0,150)" x2="-5" y2="0" stroke="#888" stroke-width="1" opacity="1"/><line transform="translate(0,120)" x2="-5" y2="0" stroke="#888" stroke-width="1" opacity="1"/><line transform="translate(0,90)" x2="-5" y2="0" stroke="#888" stroke-width="1" opacity="1"/><line transform="translate(0,60)" x2="-5" y2="0" stroke="#888" stroke-width="1" opacity="1"/><line transform="translate(0,30)" x2="-5" y2="0" stroke="#888" stroke-width="1" opacity="1"/><line transform="translate(0,0)" x2="-5" y2="0" stroke="#888" stroke-width="1" opacity="1"/></g><g class="mark-text role-axis-label" pointer-events="none"><text text-anchor="end" transform="translate(-7,243)" font-family="sans-serif" font-size="10px" fill="#000" opacity="1">2,500</text><text text-anchor="end" transform="translate(-7,213)" font-family="sans-serif" font-size="10px" fill="#000" opacity="1">3,000</text><text text-anchor="end" transform="translate(-7,183)" font-family="sans-serif" font-size="10px" fill="#000" opacity="1">3,500</text><text text-anchor="end" transform="translate(-7,153)" font-family="sans-serif" font-size="10px" fill="#000" opacity="1">4,000</text><text text-anchor="end" transform="translate(-7,123)" font-family="sans-serif" font-size="10px" fill="#000" opacity="1">4,500</text><text text-anchor="end" transform="translate(-7,93)" font-family="sans-serif" font-size="10px" fill="#000" opacity="1">5,000</text><text text-anchor="end" transform="translate(-7,63)" font-family="sans-serif" font-size="10px" fill="#000" opacity="1">5,500</text><text text-anchor="end" transform="translate(-7,33)" font-family="sans-serif" font-size="10px" fill="#000" opacity="1">6,000</text><text text-anchor="end" transform="translate(-7,3)" font-family="sans-serif" font-size="10px" fill="#000" opacity="1">6,500</text></g><g class="mark-rule role-axis-domain" pointer-events="none"><line transform="translate(0,240)" x2="0" y2="-240" stroke="#888" stroke-width="1" opacity="1"/></g><g class="mark-text role-axis-title" pointer-events="none"><text text-anchor="middle" transform="translate(-39.6279296875,120) rotate(-90) translate(0,-2)" font-family="sans-serif" font-size="11px" font-weight="bold" fill="#000" opacity="1">Body Mass (g)</text></g></g><path class="foreground" aria-hidden="true" d="" pointer-events="none" display="none"/></g></g><g class="mark-group role-scope pathgroup" role="graphics-object" aria-roledescription="group mark container"><g transform="translate(0,0)"><path class="background" aria-hidden="true" d="M0,0h560v240h-560Z"/><g><g class="mark-area role-mark marks" role="graphics-object" aria-roledescription="area mark container"><path aria-label="Species: Adelie; Body Mass (g): 4775; Sex: MALE; density: 0.000228497508571" role="graphics-symbol" aria-roledescription="area mark" d="M145.221,103.5L145.771,104.37L146.295,105.24L146.543,105.675L146.78,106.11L147.004,106.545L147.215,106.98L147.412,107.415L147.594,107.85L147.761,108.285L147.913,108.72L148.051,109.155L148.174,109.59L148.283,110.025L148.38,110.46L148.466,110.895L148.543,111.33L148.612,111.765L148.674,112.2L148.909,113.94L148.973,114.375L149.045,114.81L149.125,115.245L149.214,115.68L149.316,116.115L149.43,116.55L149.559,116.985L149.701,117.42L149.859,117.855L150.033,118.29L150.221,118.725L150.425,119.16L150.644,119.595L150.877,120.03L151.123,120.465L151.381,120.9L151.931,121.77L152.518,122.64L153.766,124.38L156.3,127.86L156.886,128.73L157.43,129.6L157.683,130.035L157.922,130.47L158.145,130.905L158.35,131.34L158.538,131.775L158.706,132.21L158.855,132.645L158.983,133.08L159.092,133.515L159.181,133.95L159.251,134.385L159.303,134.82L159.337,135.255L159.357,135.69L159.364,136.125L159.36,136.56L159.347,136.995L159.329,137.43L159.289,138.3L159.273,138.735L159.264,139.17L159.264,139.605L159.278,140.04L159.308,140.475L159.356,140.91L159.425,141.345L159.517,141.78L159.633,142.215L159.776,142.65L159.944,143.085L160.14,143.52L160.363,143.955L160.611,144.39L160.885,144.825L161.182,145.26L161.501,145.695L161.839,146.13L162.559,147L164.072,148.74L164.796,149.61L165.136,150.045L165.453,150.48L165.746,150.915L166.009,151.35L166.241,151.785L166.436,152.22L166.595,152.655L166.713,153.09L166.791,153.525L166.827,153.96L166.821,154.395L166.774,154.83L166.686,155.265L166.559,155.7L166.394,156.135L166.194,156.57L165.961,157.005L165.697,157.44L165.405,157.875L165.089,158.31L164.393,159.18L162.825,160.92L161.139,162.66L157.802,166.14L156.298,167.88L155.619,168.75L154.997,169.62L154.71,170.055L154.438,170.49L154.183,170.925L153.943,171.36L153.719,171.795L153.509,172.23L153.312,172.665L153.128,173.1L152.954,173.535L152.789,173.97L152.477,174.84L151.867,176.58L151.705,177.015L151.535,177.45L151.356,177.885L151.166,178.32L150.964,178.755L150.75,179.19L150.523,179.625L150.282,180.06L150.029,180.495L149.763,180.93L149.197,181.8L147.96,183.54L145.412,187.02L144.826,187.89L144.276,188.76L143.764,189.63L143.293,190.5L136.707,190.5L136.236,189.63L135.724,188.76L135.174,187.89L134.588,187.02L132.04,183.54L130.803,181.8L130.237,180.93L129.971,180.495L129.718,180.06L129.477,179.625L129.25,179.19L129.036,178.755L128.834,178.32L128.644,177.885L128.465,177.45L128.295,177.015L128.133,176.58L127.523,174.84L127.211,173.97L127.046,173.535L126.872,173.1L126.688,172.665L126.491,172.23L126.281,171.795L126.057,171.36L125.817,170.925L125.562,170.49L125.29,170.055L125.003,169.62L124.381,168.75L123.702,167.88L122.198,166.14L118.861,162.66L117.175,160.92L115.607,159.18L114.911,158.31L114.595,157.875L114.303,157.44L114.039,157.005L113.806,156.57L113.606,156.135L113.441,155.7L113.314,155.265L113.226,154.83L113.179,154.395L113.173,153.96L113.209,153.525L113.287,153.09L113.405,152.655L113.564,152.22L113.759,151.785L113.991,151.35L114.254,150.915L114.547,150.48L114.864,150.045L115.204,149.61L115.928,148.74L117.441,147L118.161,146.13L118.499,145.695L118.818,145.26L119.115,144.825L119.389,144.39L119.637,143.955L119.86,143.52L120.056,143.085L120.224,142.65L120.367,142.215L120.483,141.78L120.575,141.345L120.644,140.91L120.692,140.475L120.722,140.04L120.736,139.605L120.736,139.17L120.727,138.735L120.711,138.3L120.671,137.43L120.653,136.995L120.64,136.56L120.636,136.125L120.643,135.69L120.663,135.255L120.697,134.82L120.749,134.385L120.819,133.95L120.908,133.515L121.017,133.08L121.145,132.645L121.294,132.21L121.462,131.775L121.65,131.34L121.855,130.905L122.078,130.47L122.317,130.035L122.57,129.6L123.114,128.73L123.7,127.86L126.234,124.38L127.482,122.64L128.069,121.77L128.619,120.9L128.877,120.465L129.123,120.03L129.356,119.595L129.575,119.16L129.779,118.725L129.967,118.29L130.141,117.855L130.299,117.42L130.441,116.985L130.57,116.55L130.684,116.115L130.786,115.68L130.875,115.245L130.955,114.81L131.027,114.375L131.091,113.94L131.326,112.2L131.388,111.765L131.457,111.33L131.534,110.895L131.62,110.46L131.717,110.025L131.826,109.59L131.949,109.155L132.087,108.72L132.239,108.285L132.406,107.85L132.588,107.415L132.785,106.98L132.996,106.545L133.22,106.11L133.457,105.675L133.705,105.24L134.229,104.37L134.779,103.5Z" fill="#f58518" opacity="0.9"/></g></g><path class="foreground" aria-hidden="true" d="" display="none"/></g><g transform="translate(0,0)"><path class="background" aria-hidden="true" d="M0,0h560v240h-560Z"/><g><g class="mark-area role-mark marks" role="graphics-object" aria-roledescription="area mark container"><path aria-label="Species: Adelie; Body Mass (g): 3900; Sex: FEMALE; density: 0.000298770053347" role="graphics-symbol" aria-roledescription="area mark" d="M76.827,156L79.833,158.52L82.855,161.04L84.228,162.3L84.861,162.93L85.453,163.56L86.005,164.19L86.516,164.82L86.988,165.45L87.425,166.08L87.833,166.71L88.217,167.34L88.942,168.6L89.66,169.86L90.035,170.49L90.427,171.12L90.843,171.75L91.285,172.38L91.755,173.01L92.253,173.64L93.323,174.9L94.463,176.16L96.734,178.68L97.253,179.31L97.736,179.94L97.962,180.255L98.176,180.57L98.378,180.885L98.568,181.2L98.744,181.515L98.906,181.83L99.053,182.145L99.186,182.46L99.304,182.775L99.407,183.09L99.495,183.405L99.568,183.72L99.626,184.035L99.668,184.35L99.697,184.665L99.71,184.98L99.71,185.295L99.697,185.61L99.67,185.925L99.631,186.24L99.58,186.555L99.518,186.87L99.446,187.185L99.363,187.5L99.272,187.815L99.173,188.13L99.065,188.445L98.952,188.76L98.832,189.075L98.706,189.39L98.442,190.02L97.879,191.28L96.713,193.8L95.552,196.32L94.942,197.58L94.62,198.21L94.282,198.84L93.925,199.47L93.547,200.1L93.147,200.73L92.725,201.36L92.28,201.99L91.813,202.62L90.822,203.88L88.693,206.4L86.555,208.92L84.557,211.44L82.664,213.96L81.698,215.22L80.683,216.48L79.606,217.74L78.468,219L61.532,219L60.394,217.74L59.317,216.48L58.302,215.22L57.336,213.96L55.443,211.44L53.445,208.92L51.307,206.4L49.178,203.88L48.187,202.62L47.72,201.99L47.275,201.36L46.853,200.73L46.453,200.1L46.075,199.47L45.718,198.84L45.38,198.21L45.058,197.58L44.448,196.32L43.287,193.8L42.121,191.28L41.558,190.02L41.294,189.39L41.168,189.075L41.048,188.76L40.935,188.445L40.827,188.13L40.728,187.815L40.637,187.5L40.554,187.185L40.482,186.87L40.42,186.555L40.369,186.24L40.33,185.925L40.303,185.61L40.29,185.295L40.29,184.98L40.303,184.665L40.332,184.35L40.374,184.035L40.432,183.72L40.505,183.405L40.593,183.09L40.696,182.775L40.814,182.46L40.947,182.145L41.094,181.83L41.256,181.515L41.432,181.2L41.622,180.885L41.824,180.57L42.038,180.255L42.264,179.94L42.747,179.31L43.266,178.68L45.537,176.16L46.677,174.9L47.747,173.64L48.245,173.01L48.715,172.38L49.157,171.75L49.573,171.12L49.965,170.49L50.34,169.86L51.058,168.6L51.783,167.34L52.167,166.71L52.575,166.08L53.012,165.45L53.484,164.82L53.995,164.19L54.547,163.56L55.139,162.93L55.772,162.3L57.145,161.04L60.167,158.52L63.173,156Z" fill="#4c78a8" opacity="0.9"/></g></g><path class="foreground" aria-hidden="true" d="" display="none"/></g><g transform="translate(0,0)"><path class="background" aria-hidden="true" d="M0,0h560v240h-560Z"/><g><g class="mark-area role-mark marks" role="graphics-object" aria-roledescription="area mark container"><path aria-label="Species: Chinstrap; Body Mass (g): 4150; Sex: FEMALE; density: 0.000140053349869" role="graphics-symbol" aria-roledescription="area mark" d="M248.2,141L248.517,142.74L248.598,143.175L248.683,143.61L248.774,144.045L248.873,144.48L248.981,144.915L249.101,145.35L249.234,145.785L249.383,146.22L249.547,146.655L249.729,147.09L249.93,147.525L250.15,147.96L250.39,148.395L250.649,148.83L250.929,149.265L251.228,149.7L251.547,150.135L251.884,150.57L252.61,151.44L253.4,152.31L254.246,153.18L256.09,154.92L258.135,156.66L260.429,158.4L263.042,160.14L266.007,161.88L272.557,165.36L275.589,167.1L276.888,167.97L277.464,168.405L277.987,168.84L278.453,169.275L278.859,169.71L279.203,170.145L279.485,170.58L279.704,171.015L279.862,171.45L279.96,171.885L280,172.32L279.986,172.755L279.921,173.19L279.81,173.625L279.658,174.06L279.469,174.495L279.248,174.93L279.002,175.365L278.735,175.8L276.413,179.28L276.152,179.715L275.904,180.15L275.671,180.585L275.452,181.02L275.247,181.455L275.055,181.89L274.874,182.325L274.703,182.76L274.068,184.5L273.907,184.935L273.739,185.37L273.562,185.805L273.371,186.24L273.163,186.675L272.936,187.11L272.686,187.545L272.412,187.98L272.111,188.415L271.781,188.85L271.419,189.285L271.026,189.72L270.6,190.155L270.14,190.59L269.646,191.025L269.119,191.46L267.967,192.33L266.693,193.2L260.734,196.68L254.617,200.16L253.268,201.03L252.037,201.9L251.471,202.335L250.941,202.77L250.446,203.205L249.99,203.64L249.571,204.075L249.191,204.51L248.849,204.945L248.544,205.38L248.277,205.815L248.047,206.25L247.851,206.685L247.688,207.12L247.558,207.555L247.457,207.99L247.383,208.425L247.335,208.86L247.311,209.295L247.306,209.73L247.32,210.165L247.348,210.6L247.39,211.035L247.442,211.47L247.502,211.905L247.567,212.34L247.843,214.08L247.907,214.515L247.966,214.95L248.02,215.385L248.069,215.82L248.111,216.255L248.147,216.69L248.177,217.125L248.2,217.56L248.219,217.995L248.233,218.43L248.242,218.865L248.248,219.3L248.254,221.04L248.245,224.52L248.238,224.955L248.227,225.39L248.212,225.825L248.192,226.26L248.166,226.695L248.133,227.13L248.093,227.565L248.044,228L241.956,228L241.907,227.565L241.867,227.13L241.834,226.695L241.808,226.26L241.788,225.825L241.773,225.39L241.762,224.955L241.755,224.52L241.746,221.04L241.752,219.3L241.758,218.865L241.767,218.43L241.781,217.995L241.8,217.56L241.823,217.125L241.853,216.69L241.889,216.255L241.931,215.82L241.98,215.385L242.034,214.95L242.093,214.515L242.157,214.08L242.433,212.34L242.498,211.905L242.558,211.47L242.61,211.035L242.652,210.6L242.68,210.165L242.694,209.73L242.689,209.295L242.665,208.86L242.617,208.425L242.543,207.99L242.442,207.555L242.312,207.12L242.149,206.685L241.953,206.25L241.723,205.815L241.456,205.38L241.151,204.945L240.809,204.51L240.429,204.075L240.01,203.64L239.554,203.205L239.059,202.77L238.529,202.335L237.963,201.9L236.732,201.03L235.383,200.16L229.266,196.68L223.307,193.2L222.033,192.33L220.881,191.46L220.354,191.025L219.86,190.59L219.4,190.155L218.974,189.72L218.581,189.285L218.219,188.85L217.889,188.415L217.588,187.98L217.314,187.545L217.064,187.11L216.837,186.675L216.629,186.24L216.438,185.805L216.261,185.37L216.093,184.935L215.932,184.5L215.297,182.76L215.126,182.325L214.945,181.89L214.753,181.455L214.548,181.02L214.329,180.585L214.096,180.15L213.848,179.715L213.587,179.28L211.265,175.8L210.998,175.365L210.752,174.93L210.531,174.495L210.342,174.06L210.19,173.625L210.079,173.19L210.014,172.755L210,172.32L210.04,171.885L210.138,171.45L210.296,171.015L210.515,170.58L210.797,170.145L211.141,169.71L211.547,169.275L212.013,168.84L212.536,168.405L213.112,167.97L214.411,167.1L217.443,165.36L223.993,161.88L226.958,160.14L229.571,158.4L231.865,156.66L233.91,154.92L235.754,153.18L236.6,152.31L237.39,151.44L238.116,150.57L238.453,150.135L238.772,149.7L239.071,149.265L239.351,148.83L239.61,148.395L239.85,147.96L240.07,147.525L240.271,147.09L240.453,146.655L240.617,146.22L240.766,145.785L240.899,145.35L241.019,144.915L241.127,144.48L241.226,144.045L241.317,143.61L241.402,143.175L241.483,142.74L241.8,141Z" fill="#4c78a8" opacity="0.9"/></g></g><path class="foreground" aria-hidden="true" d="" display="none"/></g><g transform="translate(0,0)"><path class="background" aria-hidden="true" d="M0,0h560v240h-560Z"/><g><g class="mark-area role-mark marks" role="graphics-object" aria-roledescription="area mark container"><path aria-label="Species: Chinstrap; Body Mass (g): 4800; Sex: MALE; density: 0.000124091739986" role="graphics-symbol" aria-roledescription="area mark" d="M317.836,102L317.862,102.465L317.879,102.93L317.888,103.395L317.891,103.86L317.88,105.72L317.885,106.185L317.898,106.65L317.922,107.115L317.96,107.58L318.015,108.045L318.088,108.51L318.182,108.975L318.298,109.44L318.437,109.905L318.6,110.37L318.787,110.835L318.999,111.3L319.234,111.765L319.492,112.23L319.771,112.695L320.069,113.16L322.81,116.88L323.478,117.81L323.793,118.275L324.092,118.74L324.372,119.205L324.632,119.67L324.87,120.135L325.086,120.6L325.279,121.065L325.449,121.53L325.594,121.995L325.717,122.46L325.818,122.925L325.897,123.39L325.955,123.855L325.994,124.32L326.016,124.785L326.021,125.25L326.012,125.715L325.99,126.18L325.956,126.645L325.913,127.11L325.863,127.575L325.807,128.04L325.688,128.97L325.63,129.435L325.575,129.9L325.527,130.365L325.488,130.83L325.462,131.295L325.453,131.76L325.463,132.225L325.497,132.69L325.559,133.155L325.652,133.62L325.779,134.085L325.945,134.55L326.153,135.015L326.405,135.48L326.704,135.945L327.053,136.41L327.451,136.875L327.899,137.34L328.396,137.805L328.941,138.27L330.164,139.2L336.04,142.92L337.464,143.85L338.747,144.78L339.32,145.245L339.838,145.71L340.3,146.175L340.7,146.64L341.038,147.105L341.313,147.57L341.525,148.035L341.676,148.5L341.769,148.965L341.806,149.43L341.794,149.895L341.738,150.36L341.643,150.825L341.516,151.29L341.366,151.755L341.198,152.22L340.84,153.15L340.665,153.615L340.499,154.08L340.35,154.545L340.222,155.01L340.118,155.475L340.042,155.94L339.994,156.405L339.976,156.87L339.986,157.335L340.023,157.8L340.083,158.265L340.162,158.73L340.255,159.195L340.356,159.66L340.459,160.125L340.557,160.59L340.643,161.055L340.71,161.52L340.752,161.985L340.762,162.45L340.734,162.915L340.664,163.38L340.548,163.845L340.384,164.31L340.169,164.775L339.902,165.24L339.585,165.705L339.219,166.17L338.805,166.635L338.348,167.1L337.32,168.03L336.174,168.96L331.268,172.68L330.147,173.61L329.119,174.54L328.196,175.47L327.776,175.935L327.384,176.4L327.02,176.865L326.684,177.33L326.374,177.795L326.091,178.26L325.833,178.725L325.598,179.19L325.386,179.655L325.196,180.12L325.025,180.585L324.872,181.05L324.736,181.515L324.615,181.98L324.507,182.445L324.411,182.91L324.325,183.375L324.248,183.84L324.177,184.305L324.112,184.77L323.99,185.7L323.871,186.63L323.81,187.095L323.744,187.56L323.674,188.025L323.598,188.49L323.514,188.955L323.421,189.42L323.319,189.885L323.205,190.35L323.08,190.815L322.941,191.28L322.789,191.745L322.622,192.21L322.441,192.675L322.245,193.14L322.034,193.605L321.808,194.07L321.569,194.535L321.317,195L308.683,195L308.431,194.535L308.192,194.07L307.966,193.605L307.755,193.14L307.559,192.675L307.378,192.21L307.211,191.745L307.059,191.28L306.92,190.815L306.795,190.35L306.681,189.885L306.579,189.42L306.486,188.955L306.402,188.49L306.326,188.025L306.256,187.56L306.19,187.095L306.129,186.63L306.01,185.7L305.888,184.77L305.823,184.305L305.752,183.84L305.675,183.375L305.589,182.91L305.493,182.445L305.385,181.98L305.264,181.515L305.128,181.05L304.975,180.585L304.804,180.12L304.614,179.655L304.402,179.19L304.167,178.725L303.909,178.26L303.626,177.795L303.316,177.33L302.98,176.865L302.616,176.4L302.224,175.935L301.804,175.47L300.881,174.54L299.853,173.61L298.732,172.68L293.826,168.96L292.68,168.03L291.652,167.1L291.195,166.635L290.781,166.17L290.415,165.705L290.098,165.24L289.831,164.775L289.616,164.31L289.452,163.845L289.336,163.38L289.266,162.915L289.238,162.45L289.248,161.985L289.29,161.52L289.357,161.055L289.443,160.59L289.541,160.125L289.644,159.66L289.745,159.195L289.838,158.73L289.917,158.265L289.977,157.8L290.014,157.335L290.024,156.87L290.006,156.405L289.958,155.94L289.882,155.475L289.778,155.01L289.65,154.545L289.501,154.08L289.335,153.615L289.16,153.15L288.802,152.22L288.634,151.755L288.484,151.29L288.357,150.825L288.262,150.36L288.206,149.895L288.194,149.43L288.231,148.965L288.324,148.5L288.475,148.035L288.687,147.57L288.962,147.105L289.3,146.64L289.7,146.175L290.162,145.71L290.68,145.245L291.253,144.78L292.536,143.85L293.96,142.92L299.836,139.2L301.059,138.27L301.604,137.805L302.101,137.34L302.549,136.875L302.947,136.41L303.296,135.945L303.595,135.48L303.847,135.015L304.055,134.55L304.221,134.085L304.348,133.62L304.441,133.155L304.503,132.69L304.537,132.225L304.547,131.76L304.538,131.295L304.512,130.83L304.473,130.365L304.425,129.9L304.37,129.435L304.312,128.97L304.193,128.04L304.137,127.575L304.087,127.11L304.044,126.645L304.01,126.18L303.988,125.715L303.979,125.25L303.984,124.785L304.006,124.32L304.045,123.855L304.103,123.39L304.182,122.925L304.283,122.46L304.406,121.995L304.551,121.53L304.721,121.065L304.914,120.6L305.13,120.135L305.368,119.67L305.628,119.205L305.908,118.74L306.207,118.275L306.522,117.81L307.19,116.88L309.931,113.16L310.229,112.695L310.508,112.23L310.766,111.765L311.001,111.3L311.213,110.835L311.4,110.37L311.563,109.905L311.702,109.44L311.818,108.975L311.912,108.51L311.985,108.045L312.04,107.58L312.078,107.115L312.102,106.65L312.115,106.185L312.12,105.72L312.109,103.86L312.112,103.395L312.121,102.93L312.138,102.465L312.164,102Z" fill="#f58518" opacity="0.9"/></g></g><path class="foreground" aria-hidden="true" d="" display="none"/></g><g transform="translate(0,0)"><path class="background" aria-hidden="true" d="M0,0h560v240h-560Z"/><g><g class="mark-area role-mark marks" role="graphics-object" aria-roledescription="area mark container"><path aria-label="Species: Gentoo; Body Mass (g): 5200; Sex: FEMALE; density: 0.000306216879405" role="graphics-symbol" aria-roledescription="area mark" d="M426.997,78L429.397,81L430.722,82.5L431.438,83.25L432.197,84L433.002,84.75L433.855,85.5L435.693,87L439.702,90L441.694,91.5L443.549,93L444.401,93.75L445.196,94.5L445.93,95.25L446.604,96L446.919,96.375L447.22,96.75L447.507,97.125L447.782,97.5L448.045,97.875L448.296,98.25L448.538,98.625L448.769,99L449.207,99.75L449.615,100.5L449.997,101.25L450.177,101.625L450.351,102L450.518,102.375L450.678,102.75L450.828,103.125L450.97,103.5L451.1,103.875L451.219,104.25L451.324,104.625L451.415,105L451.488,105.375L451.543,105.75L451.578,106.125L451.592,106.5L451.582,106.875L451.547,107.25L451.485,107.625L451.396,108L451.278,108.375L451.131,108.75L450.954,109.125L450.746,109.5L450.508,109.875L450.241,110.25L449.944,110.625L449.62,111L449.268,111.375L448.892,111.75L448.073,112.5L446.243,114L442.501,117L441.689,117.75L441.315,118.125L440.962,118.5L440.634,118.875L440.329,119.25L440.048,119.625L439.792,120L439.558,120.375L439.346,120.75L439.155,121.125L438.984,121.5L438.829,121.875L438.69,122.25L438.563,122.625L438.446,123L438.337,123.375L438.234,123.75L438.033,124.5L437.825,125.25L437.714,125.625L437.595,126L437.467,126.375L437.33,126.75L437.181,127.125L437.022,127.5L436.851,127.875L436.668,128.25L436.474,128.625L436.268,129L436.053,129.375L435.827,129.75L435.351,130.5L434.324,132L432.155,135L429.942,138L427.62,141L426.458,142.5L425.899,143.25L425.365,144L424.864,144.75L424.629,145.125L424.403,145.5L424.189,145.875L423.986,146.25L423.795,146.625L423.616,147L423.449,147.375L423.293,147.75L423.148,148.125L423.015,148.5L422.892,148.875L422.778,149.25L422.674,149.625L422.577,150L422.489,150.375L422.406,150.75L422.329,151.125L422.257,151.5L422.124,152.25L422,153L418,153L417.876,152.25L417.743,151.5L417.671,151.125L417.594,150.75L417.511,150.375L417.423,150L417.326,149.625L417.222,149.25L417.108,148.875L416.985,148.5L416.852,148.125L416.707,147.75L416.551,147.375L416.384,147L416.205,146.625L416.014,146.25L415.811,145.875L415.597,145.5L415.371,145.125L415.136,144.75L414.635,144L414.101,143.25L413.542,142.5L412.38,141L410.058,138L407.845,135L405.676,132L404.649,130.5L404.173,129.75L403.947,129.375L403.732,129L403.526,128.625L403.332,128.25L403.149,127.875L402.978,127.5L402.819,127.125L402.67,126.75L402.533,126.375L402.405,126L402.286,125.625L402.175,125.25L401.967,124.5L401.766,123.75L401.663,123.375L401.554,123L401.437,122.625L401.31,122.25L401.171,121.875L401.016,121.5L400.845,121.125L400.654,120.75L400.442,120.375L400.208,120L399.952,119.625L399.671,119.25L399.366,118.875L399.038,118.5L398.685,118.125L398.311,117.75L397.499,117L393.757,114L391.927,112.5L391.108,111.75L390.732,111.375L390.38,111L390.056,110.625L389.759,110.25L389.492,109.875L389.254,109.5L389.046,109.125L388.869,108.75L388.722,108.375L388.604,108L388.515,107.625L388.453,107.25L388.418,106.875L388.408,106.5L388.422,106.125L388.457,105.75L388.512,105.375L388.585,105L388.676,104.625L388.781,104.25L388.9,103.875L389.03,103.5L389.172,103.125L389.322,102.75L389.482,102.375L389.649,102L389.823,101.625L390.003,101.25L390.385,100.5L390.793,99.75L391.231,99L391.462,98.625L391.704,98.25L391.955,97.875L392.218,97.5L392.493,97.125L392.78,96.75L393.081,96.375L393.396,96L394.07,95.25L394.804,94.5L395.599,93.75L396.451,93L398.306,91.5L400.298,90L404.307,87L406.145,85.5L406.998,84.75L407.803,84L408.562,83.25L409.278,82.5L410.603,81L413.003,78Z" fill="#4c78a8" opacity="0.9"/></g></g><path class="foreground" aria-hidden="true" d="" display="none"/></g><g transform="translate(0,0)"><path class="background" aria-hidden="true" d="M0,0h560v240h-560Z"/><g><g class="mark-area role-mark marks" role="graphics-object" aria-roledescription="area mark container"><path aria-label="Species: Gentoo; Body Mass (g): 6300; Sex: MALE; density: 0.0000700214273228" role="graphics-symbol" aria-roledescription="area mark" d="M491.6,12L491.714,15.72L491.74,16.185L491.774,16.65L491.818,17.115L491.875,17.58L491.946,18.045L492.033,18.51L492.138,18.975L492.261,19.44L492.404,19.905L492.568,20.37L492.753,20.835L492.959,21.3L493.186,21.765L493.433,22.23L493.7,22.695L493.985,23.16L494.603,24.09L495.272,25.02L496.691,26.88L498.096,28.74L498.756,29.67L499.379,30.6L499.963,31.53L500.511,32.46L501.538,34.32L502.555,36.18L503.093,37.11L503.663,38.04L504.273,38.97L504.929,39.9L505.632,40.83L506.38,41.76L507.994,43.62L509.715,45.48L513.169,49.2L514.747,51.06L515.464,51.99L515.801,52.455L516.12,52.92L516.421,53.385L516.702,53.85L516.962,54.315L517.199,54.78L517.412,55.245L517.601,55.71L517.763,56.175L517.9,56.64L518.01,57.105L518.093,57.57L518.15,58.035L518.182,58.5L518.189,58.965L518.173,59.43L518.135,59.895L518.078,60.36L518.003,60.825L517.912,61.29L517.807,61.755L517.691,62.22L517.565,62.685L517.43,63.15L517.288,63.615L517.14,64.08L516.828,65.01L516.495,65.94L516.319,66.405L516.136,66.87L515.944,67.335L515.742,67.8L515.528,68.265L515.302,68.73L515.061,69.195L514.804,69.66L514.53,70.125L514.238,70.59L513.929,71.055L513.601,71.52L512.893,72.45L512.121,73.38L510.444,75.24L508.734,77.1L507.925,78.03L507.175,78.96L506.826,79.425L506.496,79.89L506.186,80.355L505.896,80.82L505.625,81.285L505.373,81.75L505.138,82.215L504.918,82.68L503.374,86.4L503.161,86.865L502.935,87.33L502.693,87.795L502.434,88.26L502.155,88.725L501.858,89.19L501.541,89.655L501.205,90.12L500.48,91.05L499.695,91.98L498.027,93.84L496.388,95.7L495.636,96.63L495.285,97.095L494.952,97.56L494.639,98.025L494.347,98.49L494.076,98.955L493.825,99.42L493.595,99.885L493.385,100.35L493.193,100.815L493.018,101.28L492.86,101.745L492.715,102.21L492.584,102.675L492.463,103.14L492.351,103.605L492.247,104.07L492.149,104.535L492.055,105L487.945,105L487.851,104.535L487.753,104.07L487.649,103.605L487.537,103.14L487.416,102.675L487.285,102.21L487.14,101.745L486.982,101.28L486.807,100.815L486.615,100.35L486.405,99.885L486.175,99.42L485.924,98.955L485.653,98.49L485.361,98.025L485.048,97.56L484.715,97.095L484.364,96.63L483.612,95.7L481.973,93.84L480.305,91.98L479.52,91.05L478.795,90.12L478.459,89.655L478.142,89.19L477.845,88.725L477.566,88.26L477.307,87.795L477.065,87.33L476.839,86.865L476.626,86.4L475.082,82.68L474.862,82.215L474.627,81.75L474.375,81.285L474.104,80.82L473.814,80.355L473.504,79.89L473.174,79.425L472.825,78.96L472.075,78.03L471.266,77.1L469.556,75.24L467.879,73.38L467.107,72.45L466.399,71.52L466.071,71.055L465.762,70.59L465.47,70.125L465.196,69.66L464.939,69.195L464.698,68.73L464.472,68.265L464.258,67.8L464.056,67.335L463.864,66.87L463.681,66.405L463.505,65.94L463.172,65.01L462.86,64.08L462.712,63.615L462.57,63.15L462.435,62.685L462.309,62.22L462.193,61.755L462.088,61.29L461.997,60.825L461.922,60.36L461.865,59.895L461.827,59.43L461.811,58.965L461.818,58.5L461.85,58.035L461.907,57.57L461.99,57.105L462.1,56.64L462.237,56.175L462.399,55.71L462.588,55.245L462.801,54.78L463.038,54.315L463.298,53.85L463.579,53.385L463.88,52.92L464.199,52.455L464.536,51.99L465.253,51.06L466.831,49.2L470.285,45.48L472.006,43.62L473.62,41.76L474.368,40.83L475.071,39.9L475.727,38.97L476.337,38.04L476.907,37.11L477.445,36.18L478.462,34.32L479.489,32.46L480.037,31.53L480.621,30.6L481.244,29.67L481.904,28.74L483.309,26.88L484.728,25.02L485.397,24.09L486.015,23.16L486.3,22.695L486.567,22.23L486.814,21.765L487.041,21.3L487.247,20.835L487.432,20.37L487.596,19.905L487.739,19.44L487.862,18.975L487.967,18.51L488.054,18.045L488.125,17.58L488.182,17.115L488.226,16.65L488.26,16.185L488.286,15.72L488.4,12Z" fill="#f58518" opacity="0.9"/></g></g><path class="foreground" aria-hidden="true" d="" display="none"/></g></g><g class="mark-group role-legend" role="graphics-symbol" aria-roledescription="legend" aria-label="Symbol legend titled 'Sex' for fill color with 2 values: FEMALE, MALE"><g transform="translate(578,0)"><path class="background" aria-hidden="true" d="M0,0h56v40h-56Z" pointer-events="none"/><g><g class="mark-group role-legend-entry"><g transform="translate(0,16)"><path class="background" aria-hidden="true" d="M0,0h0v0h0Z" pointer-events="none"/><g><g class="mark-group role-scope" role="graphics-object" aria-roledescription="group mark container"><g transform="translate(0,0)"><path class="background" aria-hidden="true" d="M0,0h55.4287109375v11h-55.4287109375Z" pointer-events="none" opacity="1"/><g><g class="mark-symbol role-legend-symbol" pointer-events="none"><path transform="translate(6,6)" d="M5,0A5,5,0,1,1,-5,0A5,5,0,1,1,5,0" fill="#4c78a8" stroke-width="1.5" opacity="0.9"/></g><g class="mark-text role-legend-label" pointer-events="none"><text text-anchor="start" transform="translate(16,9)" font-family="sans-serif" font-size="10px" fill="#000" opacity="1">FEMALE</text></g></g><path class="foreground" aria-hidden="true" d="" pointer-events="none" display="none"/></g><g transform="translate(0,13)"><path class="background" aria-hidden="true" d="M0,0h55.4287109375v11h-55.4287109375Z" pointer-events="none" opacity="1"/><g><g class="mark-symbol role-legend-symbol" pointer-events="none"><path transform="translate(6,6)" d="M5,0A5,5,0,1,1,-5,0A5,5,0,1,1,5,0" fill="#f58518" stroke-width="1.5" opacity="0.9"/></g><g class="mark-text role-legend-label" pointer-events="none"><text text-anchor="start" transform="translate(16,9)" font-family="sans-serif" font-size="10px" fill="#000" opacity="1">MALE</text></g></g><path class="foreground" aria-hidden="true" d="" pointer-events="none" display="none"/></g></g></g><path class="foreground" aria-hidden="true" d="" pointer-events="none" display="none"/></g></g><g class="mark-text role-legend-title" pointer-events="none"><text text-anchor="start" transform="translate(0,9)" font-family="sans-serif" font-size="11px" font-weight="bold" fill="#000" opacity="1">Sex</text></g></g><path class="foreground" aria-hidden="true" d="" pointer-events="none" display="none"/></g></g><g class="mark-group role-title"><g transform="translate(280,-22)"><path class="background" aria-hidden="true" d="M0,0h0v0h0Z" pointer-events="none"/><g><g class="mark-text role-title-text" role="graphics-symbol" aria-roledescription="title" aria-label="Title text 'Body Mass Violin Plot by Species and Sex'" pointer-events="none"><text text-anchor="middle" transform="translate(0,10)" font-family="sans-serif" font-size="13px" font-weight="bold" fill="#000" opacity="1">Body Mass Violin Plot by Species and Sex</text></g></g><path class="foreground" aria-hidden="true" d="" pointer-events="none" display="none"/></g></g></g><path class="foreground" aria-hidden="true" d="" display="none"/></g></g></g></svg>