<svg xmlns="http://www.w3.org/2000/svg" xmlns:xlink="http://www.w3.org/1999/xlink" version="1.1" class="marks" width="459" height="342" viewBox="0 0 459 342"><rect width="459" height="342" fill="white"/><g fill="none" stroke-miterlimit="10" transform="translate(53,5)"><g class="mark-group role-frame root" role="graphics-object" aria-roledescription="group mark container"><g transform="translate(0,0)"><path class="background" aria-hidden="true" d="M0.5,0.5h400v300h-400Z" stroke="#ddd"/><g><g class="mark-group role-axis" aria-hidden="true"><g transform="translate(0.5,300.5)"><path class="background" aria-hidden="true" d="M0,0h0v0h0Z" pointer-events="none"/><g><g class="mark-rule role-axis-grid" pointer-events="none"><line transform="translate(0,-300)" x2="0" y2="300" stroke="#ddd" stroke-width="1" opacity="1"/><line transform="translate(50,-300)" x2="0" y2="300" stroke="#ddd" stroke-width="1" opacity="1"/><line transform="translate(100,-300)" x2="0" y2="300" stroke="#ddd" stroke-width="1" opacity="1"/><line transform="translate(150,-300)" x2="0" y2="300" stroke="#ddd" stroke-width="1" opacity="1"/><line transform="translate(200,-300)" x2="0" y2="300" stroke="#ddd" stroke-width="1" opacity="1"/><line transform="translate(250,-300)" x2="0" y2="300" stroke="#ddd" stroke-width="1" opacity="1"/><line transform="translate(300,-300)" x2="0" y2="300" stroke="#ddd" stroke-width="1" opacity="1"/><line transform="translate(350,-300)" x2="0" y2="300" stroke="#ddd" stroke-width="1" opacity="1"/><line transform="translate(400,-300)" x2="0" y2="300" stroke="#ddd" stroke-width="1" opacity="1"/></g></g><path class="foreground" aria-hidden="true" d="" pointer-events="none" display="none"/></g></g><g class="mark-group role-axis" aria-hidden="true"><g transform="translate(0.5,0.5)"><path class="background" aria-hidden="true" d="M0,0h0v0h0Z" pointer-events="none"/><g><g class="mark-rule role-axis-grid" pointer-events="none"><line transform="translate(0,275)" x2="400" y2="0" stroke="#ddd" stroke-width="1" opacity="1"/><line transform="translate(0,225)" x2="400" y2="0" stroke="#ddd" stroke-width="1" opacity="1"/><line transform="translate(0,175)" x2="400" y2="0" stroke="#ddd" stroke-width="1" opacity="1"/><line transform="translate(0,125)" x2="400" y2="0" stroke="#ddd" stroke-width="1" opacity="1"/><line transform="translate(0,75)" x2="400" y2="0" stroke="#ddd" stroke-width="1" opacity="1"/><line transform="translate(0,25)" x2="400" y2="0" stroke="#ddd" stroke-width="1" opacity="1"/></g></g><path class="foreground" aria-hidden="true" d="" pointer-events="none" display="none"/></g></g><g class="mark-group role-axis" role="graphics-symbol" aria-roledescription="axis" aria-label="X-axis titled 'Sum of Weight_in_lbs' for a linear scale with values from 0 to 160,000"><g transform="translate(0.5,300.5)"><path class="background" aria-hidden="true" d="M0,0h0v0h0Z" pointer-events="none"/><g><g class="mark-rule role-axis-tick" pointer-events="none"><line transform="translate(0,0)" x2="0" y2="5" stroke="#888" stroke-width="1" opacity="1"/><line transform="translate(50,0)" x2="0" y2="5" stroke="#888" stroke-width="1" opacity="1"/><line transform="translate(100,0)" x2="0" y2="5" stroke="#888" stroke-width="1" opacity="1"/><line transform="translate(150,0)" x2="0" y2="5" stroke="#888" stroke-width="1" opacity="1"/><line transform="translate(200,0)" x2="0" y2="5" stroke="#888" stroke-width="1" opacity="1"/><line transform="translate(250,0)" x2="0" y2="5" stroke="#888" stroke-width="1" opacity="1"/><line transform="translate(300,0)" x2="0" y2="5" stroke="#888" stroke-width="1" opacity="1"/><line transform="translate(350,0)" x2="0" y2="5" stroke="#888" stroke-width="1" opacity="1"/><line transform="translate(400,0)" x2="0" y2="5" stroke="#888" stroke-width="1" opacity="1"/></g><g class="mark-text role-axis-label" pointer-events="none"><text text-anchor="start" transform="translate(0,15)" font-family="sans-serif" font-size="10px" fill="#000" opacity="1">0</text><text text-anchor="middle" transform="translate(50,15)" font-family="sans-serif" font-size="10px" fill="#000" opacity="0">20,000</text><text text-anchor="middle" transform="translate(100,15)" font-family="sans-serif" font-size="10px" fill="#000" opacity="1">40,000</text><text text-anchor="middle" transform="translate(150,15)" font-family="sans-serif" font-size="10px" fill="#000" opacity="0">60,000</text><text text-anchor="middle" transform="translate(200,15)" font-family="sans-serif" font-size="10px" fill="#000" opacity="1">80,000</text><text text-anchor="middle" transform="translate(250,15)" font-family="sans-serif" font-size="10px" fill="#000" opacity="0">100,000</text><text text-anchor="middle" transform="translate(300,15)" font-family="sans-serif" font-size="10px" fill="#000" opacity="1">120,000</text><text text-anchor="middle" transform="translate(350,15)" font-family="sans-serif" font-size="10px" fill="#000" opacity="0">140,000</text><text text-anchor="end" transform="translate(400,15)" font-family="sans-serif" font-size="10px" fill="#000" opacity="1">160,000</text></g><g class="mark-rule role-axis-domain" pointer-events="none"><line transform="translate(0,0)" x2="400" y2="0" stroke="#888" stroke-width="1" opacity="1"/></g><g class="mark-text role-axis-title" pointer-events="none"><text text-anchor="middle" transform="translate(200,30)" font-family="sans-serif" font-size="11px" font-weight="bold" fill="#000" opacity="1">Sum of Weight_in_lbs</text></g></g><path class="foreground" aria-hidden="true" d="" pointer-events="none" display="none"/></g></g><g class="mark-group role-axis" role="graphics-symbol" aria-roledescription="axis" aria-label="Y-axis titled 'Year (year)' for a time scale with values from 1969 to 1981"><g transform="translate(0.5,0.5)"><path class="background" aria-hidden="true" d="M0,0h0v0h0Z" pointer-events="none"/><g><g class="mark-rule role-axis-tick" pointer-events="none"><line transform="translate(0,275)" x2="-5" y2="0" stroke="#888" stroke-width="1" opacity="1"/><line transform="translate(0,225)" x2="-5" y2="0" stroke="#888" stroke-width="1" opacity="1"/><line transform="translate(0,175)" x2="-5" y2="0" stroke="#888" stroke-width="1" opacity="1"/><line transform="translate(0,125)" x2="-5" y2="0" stroke="#888" stroke-width="1" opacity="1"/><line transform="translate(0,75)" x2="-5" y2="0" stroke="#888" stroke-width="1" opacity="1"/><line transform="translate(0,25)" x2="-5" y2="0" stroke="#888" stroke-width="1" opacity="1"/></g><g class="mark-text role-axis-label" pointer-events="none"><text text-anchor="end" transform="translate(-7,278.0171115674196)" font-family="sans-serif" font-size="10px" fill="#000" opacity="1">1970</text><text text-anchor="end" transform="translate(-7,228.0513347022587)" font-family="sans-serif" font-size="10px" fill="#000" opacity="1">1972</text><text text-anchor="end" transform="translate(-7,178.0171115674196)" font-family="sans-serif" font-size="10px" fill="#000" opacity="1">1974</text><text text-anchor="end" transform="translate(-7,128.0513347022587)" font-family="sans-serif" font-size="10px" fill="#000" opacity="1">1976</text><text text-anchor="end" transform="translate(-7,78.01711156741958)" font-family="sans-serif" font-size="10px" fill="#000" opacity="1">1978</text><text text-anchor="end" transform="translate(-7,28.05133470225872)" font-family="sans-serif" font-size="10px" fill="#000" opacity="1">1980</text></g><g class="mark-rule role-axis-domain" pointer-events="none"><line transform="translate(0,300)" x2="0" y2="-300" stroke="#888" stroke-width="1" opacity="1"/></g><g class="mark-text role-axis-title" pointer-events="none"><text text-anchor="middle" transform="translate(-36.44921875,150) rotate(-90) translate(0,-2)" font-family="sans-serif" font-size="11px" font-weight="bold" fill="#000" opacity="1">Year (year)</text></g></g><path class="foreground" aria-hidden="true" d="" pointer-events="none" display="none"/></g></g><g class="mark-area role-mark marks" role="graphics-object" aria-roledescription="area mark container"><path aria-label="Sum of Weight_in_lbs: 152025; Year (year): 1981" role="graphics-symbol" aria-roledescription="area mark" d="M380.063,0C278.36,16.678,176.658,33.356,176.658,50.034C176.658,58.362,208.028,66.689,221.513,75.017C234.997,83.345,257.563,91.672,257.563,100C257.563,108.35,209.815,116.701,209.815,125.051C209.815,133.379,261.693,141.707,261.693,150.034C261.693,158.362,249.499,166.689,238.26,175.017C227.021,183.345,194.26,191.672,194.26,200C194.26,208.35,341.903,216.701,341.903,225.051C341.903,233.379,234.65,241.707,226.64,250.034C218.63,258.362,214.625,266.689,214.625,275.017C214.625,283.345,257.87,291.672,301.115,300L0,300C0,291.672,0,283.345,0,275.017C0,266.689,0,258.362,0,250.034C0,241.707,0,233.379,0,225.051C0,216.701,0,208.35,0,200C0,191.672,0,183.345,0,175.017C0,166.689,0,158.362,0,150.034C0,141.707,0,133.379,0,125.051C0,116.701,0,108.35,0,100C0,91.672,0,83.345,0,75.017C0,66.689,0,58.362,0,50.034C0,33.356,0,16.678,0,0Z" fill="#4c78a8"/></g></g><path class="foreground" aria-hidden="true" d="" display="none"/></g></g></g></svg>