<svg xmlns="http://www.w3.org/2000/svg" xmlns:xlink="http://www.w3.org/1999/xlink" version="1.1" class="marks" width="654" height="364" viewBox="0 0 654 364"><rect width="654" height="364" fill="white"/><g fill="none" stroke-miterlimit="10" transform="translate(49,27)"><g class="mark-group role-frame root" role="graphics-object" aria-roledescription="group mark container"><g transform="translate(0,0)"><path class="background" aria-hidden="true" d="M0.5,0.5h600v300h-600Z" stroke="#ddd"/><g><g class="mark-group role-axis" aria-hidden="true"><g transform="translate(0.5,300.5)"><path class="background" aria-hidden="true" d="M0,0h0v0h0Z" pointer-events="none"/><g><g class="mark-rule role-axis-grid" pointer-events="none"><line transform="translate(0,-300)" x2="0" y2="300" stroke="#ddd" stroke-width="1" opacity="1"/><line transform="translate(51,-300)" x2="0" y2="300" stroke="#ddd" stroke-width="1" opacity="1"/><line transform="translate(99,-300)" x2="0" y2="300" stroke="#ddd" stroke-width="1" opacity="1"/><line transform="translate(150,-300)" x2="0" y2="300" stroke="#ddd" stroke-width="1" opacity="1"/><line transform="translate(199,-300)" x2="0" y2="300" stroke="#ddd" stroke-width="1" opacity="1"/><line transform="translate(250,-300)" x2="0" y2="300" stroke="#ddd" stroke-width="1" opacity="1"/><line transform="translate(299,-300)" x2="0" y2="300" stroke="#ddd" stroke-width="1" opacity="1"/><line transform="translate(350,-300)" x2="0" y2="300" stroke="#ddd" stroke-width="1" opacity="1"/><line transform="translate(401,-300)" x2="0" y2="300" stroke="#ddd" stroke-width="1" opacity="1"/><line transform="translate(450,-300)" x2="0" y2="300" stroke="#ddd" stroke-width="1" opacity="1"/><line transform="translate(501,-300)" x2="0" y2="300" stroke="#ddd" stroke-width="1" opacity="1"/><line transform="translate(551,-300)" x2="0" y2="300" stroke="#ddd" stroke-width="1" opacity="1"/></g></g><path class="foreground" aria-hidden="true" d="" pointer-events="none" display="none"/></g></g><g class="mark-group role-axis" aria-hidden="true"><g transform="translate(0.5,0.5)"><path class="background" aria-hidden="true" d="M0,0h0v0h0Z" pointer-events="none"/><g><g class="mark-rule role-axis-grid" pointer-events="none"><line transform="translate(0,300)" x2="600" y2="0" stroke="#ddd" stroke-width="1" opacity="1"/><line transform="translate(0,270)" x2="600" y2="0" stroke="#ddd" stroke-width="1" opacity="1"/><line transform="translate(0,240)" x2="600" y2="0" stroke="#ddd" stroke-width="1" opacity="1"/><line transform="translate(0,210)" x2="600" y2="0" stroke="#ddd" stroke-width="1" opacity="1"/><line transform="translate(0,180)" x2="600" y2="0" stroke="#ddd" stroke-width="1" opacity="1"/><line transform="translate(0,150)" x2="600" y2="0" stroke="#ddd" stroke-width="1" opacity="1"/><line transform="translate(0,120)" x2="600" y2="0" stroke="#ddd" stroke-width="1" opacity="1"/><line transform="translate(0,90)" x2="600" y2="0" stroke="#ddd" stroke-width="1" opacity="1"/><line transform="translate(0,60)" x2="600" y2="0" stroke="#ddd" stroke-width="1" opacity="1"/><line transform="translate(0,30)" x2="600" y2="0" stroke="#ddd" stroke-width="1" opacity="1"/><line transform="translate(0,0)" x2="600" y2="0" stroke="#ddd" stroke-width="1" opacity="1"/></g></g><path class="foreground" aria-hidden="true" d="" pointer-events="none" display="none"/></g></g><g class="mark-group role-axis" role="graphics-symbol" aria-roledescription="axis" aria-label="X-axis titled 'Date' for a time scale with values from January to December"><g transform="translate(0.5,300.5)"><path class="background" aria-hidden="true" d="M0,0h0v0h0Z" pointer-events="none"/><g><g class="mark-rule role-axis-tick" pointer-events="none"><line transform="translate(0,0)" x2="0" y2="5" stroke="#888" stroke-width="1" opacity="1"/><line transform="translate(51,0)" x2="0" y2="5" stroke="#888" stroke-width="1" opacity="1"/><line transform="translate(99,0)" x2="0" y2="5" stroke="#888" stroke-width="1" opacity="1"/><line transform="translate(150,0)" x2="0" y2="5" stroke="#888" stroke-width="1" opacity="1"/><line transform="translate(199,0)" x2="0" y2="5" stroke="#888" stroke-width="1" opacity="1"/><line transform="translate(250,0)" x2="0" y2="5" stroke="#888" stroke-width="1" opacity="1"/><line transform="translate(299,0)" x2="0" y2="5" stroke="#888" stroke-width="1" opacity="1"/><line transform="translate(350,0)" x2="0" y2="5" stroke="#888" stroke-width="1" opacity="1"/><line transform="translate(401,0)" x2="0" y2="5" stroke="#888" stroke-width="1" opacity="1"/><line transform="translate(450,0)" x2="0" y2="5" stroke="#888" stroke-width="1" opacity="1"/><line transform="translate(501,0)" x2="0" y2="5" stroke="#888" stroke-width="1" opacity="1"/><line transform="translate(551,0)" x2="0" y2="5" stroke="#888" stroke-width="1" opacity="1"/></g><g class="mark-text role-axis-label" pointer-events="none"><text text-anchor="start" transform="translate(0,15)" font-family="sans-serif" font-size="10px" fill="#000" opacity="1">Jan</text><text text-anchor="middle" transform="translate(50.95890410958904,15)" font-family="sans-serif" font-size="10px" fill="#000" opacity="1">Feb</text><text text-anchor="middle" transform="translate(98.63013698630137,15)" font-family="sans-serif" font-size="10px" fill="#000" opacity="1">Mar</text><text text-anchor="middle" transform="translate(149.52054794520546,15)" font-family="sans-serif" font-size="10px" fill="#000" opacity="1">Apr</text><text text-anchor="middle" transform="translate(198.83561643835617,15)" font-family="sans-serif" font-size="10px" fill="#000" opacity="1">May</text><text text-anchor="middle" transform="translate(249.7945205479452,15)" font-family="sans-serif" font-size="10px" fill="#000" opacity="1">Jun</text><text text-anchor="middle" transform="translate(299.1095890410959,15)" font-family="sans-serif" font-size="10px" fill="#000" opacity="1">Jul</text><text text-anchor="middle" transform="translate(350.06849315068496,15)" font-family="sans-serif" font-size="10px" fill="#000" opacity="1">Aug</text><text text-anchor="middle" transform="translate(401.027397260274,15)" font-family="sans-serif" font-size="10px" fill="#000" opacity="1">Sep</text><text text-anchor="middle" transform="translate(450.3424657534247,15)" font-family="sans-serif" font-size="10px" fill="#000" opacity="1">Oct</text><text text-anchor="middle" transform="translate(501.3013698630137,15)" font-family="sans-serif" font-size="10px" fill="#000" opacity="1">Nov</text><text text-anchor="middle" transform="translate(550.6849315068494,15)" font-family="sans-serif" font-size="10px" fill="#000" opacity="1">Dec</text></g><g class="mark-rule role-axis-domain" pointer-events="none"><line transform="translate(0,0)" x2="600" y2="0" stroke="#888" stroke-width="1" opacity="1"/></g><g class="mark-text role-axis-title" pointer-events="none"><text text-anchor="middle" transform="translate(300,30)" font-family="sans-serif" font-size="11px" font-weight="bold" fill="#000" opacity="1">Date</text></g></g><path class="foreground" aria-hidden="true" d="" pointer-events="none" display="none"/></g></g><g class="mark-group role-axis" role="graphics-symbol" aria-roledescription="axis" aria-label="Y-axis titled 'Daily Temperature Range (C)' for a linear scale with values from −10 to 40"><g transform="translate(0.5,0.5)"><path class="background" aria-hidden="true" d="M0,0h0v0h0Z" pointer-events="none"/><g><g class="mark-rule role-axis-tick" pointer-events="none"><line transform="translate(0,300)" x2="-5" y2="0" stroke="#888" stroke-width="1" opacity="1"/><line transform="translate(0,270)" x2="-5" y2="0" stroke="#888" stroke-width="1" opacity="1"/><line transform="translate(0,240)" x2="-5" y2="0" stroke="#888" stroke-width="1" opacity="1"/><line transform="translate(0,210)" x2="-5" y2="0" stroke="#888" stroke-width="1" opacity="1"/><line transform="translate(0,180)" x2="-5" y2="0" stroke="#888" stroke-width="1" opacity="1"/><line transform="translate(0,150)" x2="-5" y2="0" stroke="#888" stroke-width="1" opacity="1"/><line transform="translate(0,120)" x2="-5" y2="0" stroke="#888" stroke-width="1" opacity="1"/><line transform="translate(0,90)" x2="-5" y2="0" stroke="#888" stroke-width="1" opacity="1"/><line transform="translate(0,60)" x2="-5" y2="0" stroke="#888" stroke-width="1" opacity="1"/><line transform="translate(0,30)" x2="-5" y2="0" stroke="#888" stroke-width="1" opacity="1"/><line transform="translate(0,0)" x2="-5" y2="0" stroke="#888" stroke-width="1" opacity="1"/></g><g class="mark-text role-axis-label" pointer-events="none"><text text-anchor="end" transform="translate(-7,303)" font-family="sans-serif" font-size="10px" fill="#000" opacity="1">−10</text><text text-anchor="end" transform="translate(-7,273)" font-family="sans-serif" font-size="10px" fill="#000" opacity="1">−5</text><text text-anchor="end" transform="translate(-7,243)" font-family="sans-serif" font-size="10px" fill="#000" opacity="1">0</text><text text-anchor="end" transform="translate(-7,213)" font-family="sans-serif" font-size="10px" fill="#000" opacity="1">5</text><text text-anchor="end" transform="translate(-7,183)" font-family="sans-serif" font-size="10px" fill="#000" opacity="1">10</text><text text-anchor="end" transform="translate(-7,153)" font-family="sans-serif" font-size="10px" fill="#000" opacity="1">15</text><text text-anchor="end" transform="translate(-7,123)" font-family="sans-serif" font-size="10px" fill="#000" opacity="1">20</text><text text-anchor="end" transform="translate(-7,93.00000000000001)" font-family="sans-serif" font-size="10px" fill="#000" opacity="1">25</text><text text-anchor="end" transform="translate(-7,62.999999999999986)" font-family="sans-serif" font-size="10px" fill="#000" opacity="1">30</text><text text-anchor="end" transform="translate(-7,32.99999999999999)" font-family="sans-serif" font-size="10px" fill="#000" opacity="1">35</text><text text-anchor="end" transform="translate(-7,3)" font-family="sans-serif" font-size="10px" fill="#000" opacity="1">40</text></g><g class="mark-rule role-axis-domain" pointer-events="none"><line transform="translate(0,300)" x2="0" y2="-300" stroke="#888" stroke-width="1" opacity="1"/></g><g class="mark-text role-axis-title" pointer-events="none"><text text-anchor="middle" transform="translate(-32.103515625,150) rotate(-90) translate(0,-2)" font-family="sans-serif" font-size="11px" font-weight="bold" fill="#000" opacity="1">Daily Temperature Range (C)</text></g></g><path class="foreground" aria-hidden="true" d="" pointer-events="none" display="none"/></g></g><g class="mark-area role-mark marks" role="graphics-object" aria-roledescription="area mark container"><path aria-label="Date: Jan; Daily Temperature Range (C): 10.6; Min of temp_min: −1.1" role="graphics-symbol" aria-roledescription="area mark" d="M0,176.4L1.644,169.8L3.288,166.8L4.932,166.8L6.575,166.8L8.219,180L9.863,169.8L11.507,180L13.151,163.2L14.795,153.6L16.438,173.4L18.082,176.4L19.726,173.4L21.37,173.4L23.014,169.8L24.658,160.2L26.301,156.6L27.945,180L29.589,180L31.233,180L32.877,183.6L34.521,166.8L36.164,153.6L37.808,136.8L39.452,143.4L41.096,173.4L42.74,166.8L44.384,166.8L46.027,186.6L47.671,183.6L49.315,169.8L50.959,173.4L52.603,153.6L54.247,146.4L55.89,156.6L57.534,143.4L59.178,146.4L60.822,150L62.466,160.2L64.11,163.2L65.753,163.2L67.397,139.8L69.041,146.4L70.685,153.6L72.329,160.2L73.973,150L75.616,143.4L77.26,166.8L78.904,176.4L80.548,173.4L82.192,166.8L83.836,169.8L85.479,163.2L87.123,173.4L88.767,166.8L90.411,156.6L92.055,163.2L93.699,153.6L95.342,150L96.986,203.4L98.63,156.6L100.274,153.6L101.918,156.6L103.562,146.4L105.205,150L106.849,139.8L108.493,136.8L110.137,150L111.781,160.2L113.425,153.6L115.068,133.2L116.644,136.8L118.288,153.6L119.932,139.8L121.575,156.6L123.219,160.2L124.863,146.4L126.507,146.4L128.151,156.6L129.795,160.2L131.438,169.8L133.082,163.2L134.726,126.6L136.37,139.8L138.014,116.4L139.658,130.2L141.301,143.4L142.945,130.2L144.589,120L146.233,116.4L147.877,136.8L149.521,139.8L151.164,139.8L152.808,153.6L154.452,139.8L156.096,156.6L157.74,113.4L159.384,113.4L161.027,120L162.671,133.2L164.315,136.8L165.959,143.4L167.603,116.4L169.247,120L170.89,143.4L172.534,133.2L174.178,126.6L175.822,126.6L177.466,113.4L179.11,103.2L180.753,120L182.397,100.2L184.041,109.8L185.685,113.4L187.329,109.8L188.973,116.4L190.616,90L192.26,143.4L193.904,90L195.548,73.2L197.192,63.6L198.836,116.4L200.479,109.8L202.123,90L203.767,66.6L205.411,56.4L207.055,96.6L208.699,96.6L210.342,79.8L211.986,83.4L213.63,76.8L215.274,93.6L216.918,79.8L218.562,73.2L220.205,79.8L221.849,109.8L223.493,120L225.137,86.4L226.781,109.8L228.425,100.2L230.068,86.4L231.712,93.6L233.356,120L235,130.2L236.644,106.8L238.288,106.8L239.932,93.6L241.575,73.2L243.219,83.4L244.863,103.2L246.507,90L248.151,103.2L249.795,100.2L251.438,106.8L253.082,83.4L254.726,79.8L256.37,63.6L258.014,53.4L259.658,56.4L261.301,66.6L262.945,86.4L264.589,93.6L266.233,109.8L267.877,96.6L269.521,73.2L271.164,60L272.808,96.6L274.452,86.4L276.096,93.6L277.74,86.4L279.384,90L281.027,86.4L282.671,86.4L284.315,83.4L285.959,86.4L287.603,56.4L289.247,49.8L290.89,40.2L292.534,56.4L294.178,60L295.822,36.6L297.466,33.6L299.11,36.6L300.753,40.2L302.397,40.2L304.041,43.2L305.685,63.6L307.329,76.8L308.973,60L310.616,60L312.26,66.6L313.904,53.4L315.548,46.8L317.192,63.6L318.836,73.2L320.479,53.4L322.123,53.4L323.767,73.2L325.411,40.2L327.055,30L328.699,79.8L330.342,96.6L331.986,83.4L333.63,53.4L335.274,53.4L336.918,53.4L338.562,53.4L340.205,70.2L341.849,56.4L343.493,46.8L345.137,33.6L346.781,33.6L348.425,40.2L350.068,56.4L351.712,49.8L353.356,36.6L355,36.6L356.644,56.4L358.288,53.4L359.932,70.2L361.575,70.2L363.219,56.4L364.863,26.4L366.507,56.4L368.151,56.4L369.795,66.6L371.438,53.4L373.082,33.6L374.726,43.2L376.37,60L378.014,49.8L379.658,86.4L381.301,73.2L382.945,66.6L384.589,73.2L386.233,90L387.877,66.6L389.521,53.4L391.164,63.6L392.808,79.8L394.452,96.6L396.096,83.4L397.74,73.2L399.384,73.2L401.027,73.2L402.671,90L404.315,93.6L405.959,73.2L407.603,46.8L409.247,46.8L410.89,79.8L412.534,83.4L414.178,79.8L415.822,36.6L417.466,79.8L419.11,70.2L420.753,60L422.397,56.4L424.041,93.6L425.685,73.2L427.329,73.2L428.973,86.4L430.616,93.6L432.26,83.4L433.904,106.8L435.548,116.4L437.192,106.8L438.836,109.8L440.479,120L442.123,103.2L443.767,90L445.411,109.8L447.055,113.4L448.699,100.2L450.342,123.6L451.986,106.8L453.63,103.2L455.274,96.6L456.918,86.4L458.562,96.6L460.205,113.4L461.849,123.6L463.493,113.4L465.137,130.2L466.781,130.2L468.425,113.4L470.068,133.2L471.712,113.4L473.356,116.4L475,123.6L476.644,123.6L478.288,106.8L479.932,133.2L481.575,143.4L483.219,143.4L484.863,153.6L486.507,150L488.151,123.6L489.795,163.2L491.438,143.4L493.082,150L494.726,139.8L496.37,136.8L498.014,146.4L499.658,133.2L501.301,150L502.945,146.4L504.589,133.2L506.233,150L507.945,139.8L509.589,153.6L511.233,160.2L512.877,160.2L514.521,173.4L516.164,143.4L517.808,146.4L519.452,156.6L521.096,173.4L522.74,176.4L524.384,180L526.027,160.2L527.671,163.2L529.315,160.2L530.959,173.4L532.603,173.4L534.247,180L535.89,163.2L537.534,169.8L539.178,156.6L540.822,150L542.466,153.6L544.11,163.2L545.753,163.2L547.397,150L549.041,160.2L550.685,176.4L552.329,146.4L553.973,169.8L555.616,163.2L557.26,163.2L558.904,153.6L560.548,146.4L562.192,143.4L563.836,126.6L565.479,153.6L567.123,173.4L568.767,180L570.411,163.2L572.055,166.8L573.699,180L575.342,186.6L576.986,183.6L578.63,173.4L580.274,163.2L581.918,163.2L583.562,176.4L585.205,166.8L586.849,190.2L588.493,193.2L590.137,199.8L591.781,183.6L593.425,183.6L595.068,196.8L596.712,186.6L598.356,190.2L600,163.2L600,259.2L598.356,256.2L596.712,252.6L595.068,236.4L593.425,229.8L591.781,240L590.137,240L588.493,229.8L586.849,226.8L585.205,223.2L583.562,223.2L581.918,250.2L580.274,236.4L578.63,240L576.986,236.4L575.342,229.8L573.699,223.2L572.055,236.4L570.411,233.4L568.767,220.2L567.123,243L565.479,249.6L563.836,236.4L562.192,269.4L560.548,279.6L558.904,282.6L557.26,265.8L555.616,269.4L553.973,252.6L552.329,243L550.685,259.2L549.041,259.2L547.397,269.4L545.753,265.8L544.11,256.2L542.466,249.6L540.822,246L539.178,240L537.534,236.4L535.89,240L534.247,240L532.603,243L530.959,236.4L529.315,226.8L527.671,243L526.027,252.6L524.384,252.6L522.74,249.6L521.096,252.6L519.452,236.4L517.808,240L516.164,233.4L514.521,243.6L512.877,233.4L511.233,233.4L509.589,216.6L507.945,199.8L506.233,196.8L504.589,220.2L502.945,213.6L501.301,196.8L499.658,196.8L498.014,190.2L496.37,206.4L494.726,220.2L493.082,196.8L491.438,199.8L489.795,196.8L488.151,199.8L486.507,203.4L484.863,206.4L483.219,220.2L481.575,213.6L479.932,203.4L478.288,193.2L476.644,199.8L475,203.4L473.356,190.2L471.712,210L470.068,216.6L468.425,199.8L466.781,186.6L465.137,196.8L463.493,190.2L461.849,206.4L460.205,193.2L458.562,193.2L456.918,193.2L455.274,190.2L453.63,206.4L451.986,193.2L450.342,183.6L448.699,186.6L447.055,193.2L445.411,186.6L443.767,183.6L442.123,196.8L440.479,196.8L438.836,183.6L437.192,180L435.548,190.2L433.904,193.2L432.26,183.6L430.616,180L428.973,180L427.329,169.8L425.685,169.8L424.041,183.6L422.397,180L420.753,176.4L419.11,180L417.466,180L415.822,186.6L414.178,169.8L412.534,160.2L410.89,160.2L409.247,160.2L407.603,169.8L405.959,186.6L404.315,180L402.671,176.4L401.027,180L399.384,176.4L397.74,176.4L396.096,163.2L394.452,160.2L392.808,166.8L391.164,160.2L389.521,166.8L387.877,169.8L386.233,180L384.589,156.6L382.945,166.8L381.301,173.4L379.658,156.6L378.014,150L376.37,153.6L374.726,156.6L373.082,153.6L371.438,156.6L369.795,156.6L368.151,150L366.507,150L364.863,160.2L363.219,166.8L361.575,153.6L359.932,160.2L358.288,160.2L356.644,156.6L355,166.8L353.356,153.6L351.712,163.2L350.068,166.8L348.425,160.2L346.781,160.2L345.137,160.2L343.493,160.2L341.849,166.8L340.205,166.8L338.562,163.2L336.918,166.8L335.274,166.8L333.63,173.4L331.986,166.8L330.342,163.2L328.699,160.2L327.055,160.2L325.411,169.8L323.767,156.6L322.123,160.2L320.479,160.2L318.836,163.2L317.192,173.4L315.548,160.2L313.904,166.8L312.26,173.4L310.616,163.2L308.973,160.2L307.329,163.2L305.685,173.4L304.041,176.4L302.397,183.6L300.753,176.4L299.11,169.8L297.466,166.8L295.822,163.2L294.178,163.2L292.534,169.8L290.89,186.6L289.247,176.4L287.603,173.4L285.959,183.6L284.315,183.6L282.671,173.4L281.027,176.4L279.384,180L277.74,180L276.096,180L274.452,180L272.808,186.6L271.164,183.6L269.521,180L267.877,183.6L266.233,169.8L264.589,180L262.945,180L261.301,190.2L259.658,190.2L258.014,186.6L256.37,203.4L254.726,190.2L253.082,186.6L251.438,183.6L249.795,176.4L248.151,176.4L246.507,180L244.863,186.6L243.219,193.2L241.575,180L239.932,180L238.288,186.6L236.644,186.6L235,186.6L233.356,199.8L231.712,196.8L230.068,190.2L228.425,183.6L226.781,196.8L225.137,193.2L223.493,199.8L221.849,183.6L220.205,186.6L218.562,193.2L216.918,183.6L215.274,199.8L213.63,213.6L211.986,216.6L210.342,199.8L208.699,190.2L207.055,203.4L205.411,210L203.767,210L202.123,203.4L200.479,196.8L198.836,206.4L197.192,220.2L195.548,213.6L193.904,199.8L192.26,213.6L190.616,203.4L188.973,213.6L187.329,206.4L185.685,203.4L184.041,216.6L182.397,210L180.753,213.6L179.11,206.4L177.466,210L175.822,206.4L174.178,216.6L172.534,220.2L170.89,220.2L169.247,223.2L167.603,220.2L165.959,213.6L164.315,210L162.671,199.8L161.027,203.4L159.384,203.4L157.74,229.8L156.096,220.2L154.452,223.2L152.808,223.2L151.164,220.2L149.521,213.6L147.877,213.6L146.233,226.8L144.589,210L142.945,203.4L141.301,196.8L139.658,199.8L138.014,206.4L136.37,226.8L134.726,236.4L133.082,236.4L131.438,236.4L129.795,233.4L128.151,229.8L126.507,246.6L124.863,243.6L123.219,236.4L121.575,216.6L119.932,213.6L118.288,233.4L116.644,236.4L115.068,236.4L113.425,223.2L111.781,216.6L110.137,233.4L108.493,236.4L106.849,250.2L105.205,240L103.562,233.4L101.918,243L100.274,240L98.63,223.2L96.986,233.4L95.342,233.4L93.699,243.6L92.055,253.2L90.411,246.6L88.767,223.2L87.123,226.8L85.479,236.4L83.836,223.2L82.192,216.6L80.548,233.4L78.904,229.8L77.26,216.6L75.616,213.6L73.973,220.2L72.329,236.4L70.685,233.4L69.041,213.6L67.397,210L65.753,213.6L64.11,229.8L62.466,240L60.822,243L59.178,269.4L57.534,276L55.89,273L54.247,252.6L52.603,240L50.959,233.4L49.315,223.2L47.671,220.2L46.027,233.4L44.384,220.2L42.74,236.4L41.096,253.2L39.452,236.4L37.808,233.4L36.164,233.4L34.521,233.4L32.877,250.2L31.233,250.2L29.589,246.6L27.945,256.8L26.301,256.8L24.658,256.8L23.014,263.4L21.37,259.8L19.726,253.2L18.082,266.4L16.438,263.4L14.795,256.8L13.151,243.6L11.507,229.8L9.863,229.8L8.219,223.2L6.575,243L4.932,243L3.288,236.4L1.644,250.2L0,246.6Z" fill="#4c78a8" opacity="0.7"/></g><g class="mark-group role-title"><g transform="translate(300,-22)"><path class="background" aria-hidden="true" d="M0,0h0v0h0Z" pointer-events="none"/><g><g class="mark-text role-title-text" role="graphics-symbol" aria-roledescription="title" aria-label="Title text 'Seattle Temperature Range, 2012-2015'" pointer-events="none"><text text-anchor="middle" transform="translate(0,10)" font-family="sans-serif" font-size="13px" font-weight="bold" fill="#000" opacity="1">Seattle Temperature Range, 2012-2015</text></g></g><path class="foreground" aria-hidden="true" d="" pointer-events="none" display="none"/></g></g></g><path class="foreground" aria-hidden="true" d="" display="none"/></g></g></g></svg>