<svg class="marks" width="669" height="369" viewBox="0 0 669 369" version="1.1" xmlns="http://www.w3.org/2000/svg" xmlns:xlink="http://www.w3.org/1999/xlink"><g transform="translate(54,29)"><g class="mark-group role-frame root"><g transform="translate(0,0)"><path class="background" d="M0.5,0.5h600v300h-600Z" style="fill: none; stroke: #ddd;"></path><g><g class="mark-group role-axis"><g transform="translate(0.5,300.5)"><path class="background" d="M0,0h0v0h0Z" style="pointer-events: none; fill: none;"></path><g><g class="mark-rule role-axis-grid" style="pointer-events: none;"><line transform="translate(5,-300)" x2="0" y2="300" style="fill: none; stroke: #ddd; stroke-width: 1; opacity: 1;"></line><line transform="translate(55,-300)" x2="0" y2="300" style="fill: none; stroke: #ddd; stroke-width: 1; opacity: 1;"></line><line transform="translate(101,-300)" x2="0" y2="300" style="fill: none; stroke: #ddd; stroke-width: 1; opacity: 1;"></line><line transform="translate(151,-300)" x2="0" y2="300" style="fill: none; stroke: #ddd; stroke-width: 1; opacity: 1;"></line><line transform="translate(200,-300)" x2="0" y2="300" style="fill: none; stroke: #ddd; stroke-width: 1; opacity: 1;"></line><line transform="translate(250,-300)" x2="0" y2="300" style="fill: none; stroke: #ddd; stroke-width: 1; opacity: 1;"></line><line transform="translate(298,-300)" x2="0" y2="300" style="fill: none; stroke: #ddd; stroke-width: 1; opacity: 1;"></line><line transform="translate(349,-300)" x2="0" y2="300" style="fill: none; stroke: #ddd; stroke-width: 1; opacity: 1;"></line><line transform="translate(399,-300)" x2="0" y2="300" style="fill: none; stroke: #ddd; stroke-width: 1; opacity: 1;"></line><line transform="translate(447,-300)" x2="0" y2="300" style="fill: none; stroke: #ddd; stroke-width: 1; opacity: 1;"></line><line transform="translate(498,-300)" x2="0" y2="300" style="fill: none; stroke: #ddd; stroke-width: 1; opacity: 1;"></line><line transform="translate(546,-300)" x2="0" y2="300" style="fill: none; stroke: #ddd; stroke-width: 1; opacity: 1;"></line><line transform="translate(597,-300)" x2="0" y2="300" style="fill: none; stroke: #ddd; stroke-width: 1; opacity: 1;"></line></g></g></g></g><g class="mark-group role-axis"><g transform="translate(0.5,0.5)"><path class="background" d="M0,0h0v0h0Z" style="pointer-events: none; fill: none;"></path><g><g class="mark-rule role-axis-grid" style="pointer-events: none;"><line transform="translate(0,300)" x2="600" y2="0" style="fill: none; stroke: #ddd; stroke-width: 1; opacity: 1;"></line><line transform="translate(0,270)" x2="600" y2="0" style="fill: none; stroke: #ddd; stroke-width: 1; opacity: 1;"></line><line transform="translate(0,240)" x2="600" y2="0" style="fill: none; stroke: #ddd; stroke-width: 1; opacity: 1;"></line><line transform="translate(0,210)" x2="600" y2="0" style="fill: none; stroke: #ddd; stroke-width: 1; opacity: 1;"></line><line transform="translate(0,180)" x2="600" y2="0" style="fill: none; stroke: #ddd; stroke-width: 1; opacity: 1;"></line><line transform="translate(0,150)" x2="600" y2="0" style="fill: none; stroke: #ddd; stroke-width: 1; opacity: 1;"></line><line transform="translate(0,120)" x2="600" y2="0" style="fill: none; stroke: #ddd; stroke-width: 1; opacity: 1;"></line><line transform="translate(0,90)" x2="600" y2="0" style="fill: none; stroke: #ddd; stroke-width: 1; opacity: 1;"></line><line transform="translate(0,60)" x2="600" y2="0" style="fill: none; stroke: #ddd; stroke-width: 1; opacity: 1;"></line><line transform="translate(0,30)" x2="600" y2="0" style="fill: none; stroke: #ddd; stroke-width: 1; opacity: 1;"></line><line transform="translate(0,0)" x2="600" y2="0" style="fill: none; stroke: #ddd; stroke-width: 1; opacity: 1;"></line></g></g></g></g><g class="mark-area role-mark marks"><path d="M594.9999999979676,190.2L593.3791208770482,186.60000000000002L591.7582417561287,196.8L590.1373626352092,183.60000000000002L588.5164835142897,183.60000000000002L586.8956043933701,199.8L585.2747252724507,193.2L583.6538461515312,190.2L582.0329670306118,166.8L580.4120879096922,176.39999999999998L578.7912087887728,163.2L577.1703296678533,163.2L575.5494505469337,173.39999999999998L573.9285714260143,183.60000000000002L572.3076923050947,186.60000000000002L570.6868131841753,180L569.0659340632558,166.8L567.4450549423362,163.2L565.8241758214167,180L564.2032967004973,173.39999999999998L562.5824175795777,153.6L560.9615384586583,126.60000000000002L559.3406593377388,143.4L557.7197802168193,146.4L556.0989010958998,153.6L554.4780219749803,163.2L552.8571428540608,163.2L551.2362637331413,169.8L549.6153846122219,146.4L547.9945054913023,176.39999999999998L546.3736263703828,160.2L544.7527472494634,150L543.1318681285438,163.2L541.5109890076244,163.2L539.8901098867049,153.6L538.2692307657854,150L536.6483516448659,156.6L535.0274725239464,169.8L533.4065934030269,163.2L531.7857142821074,180L530.164835161188,173.39999999999998L528.5439560402684,173.39999999999998L526.923076919349,160.2L525.3021977984295,163.2L523.6813186775099,160.2L522.0604395565905,180L520.439560435671,176.39999999999998L518.8186813147515,173.39999999999998L517.197802193832,156.6L515.5769230729126,146.4L513.956043951993,143.4L512.3351648310735,173.39999999999998L510.714285710154,160.2L509.0934065892345,160.2L507.47252746831504,153.6L505.85164834739555,139.79999999999998L504.230769226476,150L502.60989010555653,133.2L500.98901098463705,146.4L499.36813186371757,150L497.7472527427981,133.2L496.1263736218786,146.4L494.5054945009591,136.79999999999998L492.8846153800396,139.79999999999998L491.2637362591201,150L489.6428571382006,143.4L488.0219780172811,163.2L486.40109889636165,123.60000000000002L484.78021977544216,150L483.1593406545226,153.6L481.53846153360314,143.4L479.91758241268366,143.4L478.2967032917642,133.2L476.6758241708447,106.79999999999998L475.0549450499252,123.60000000000002L473.4340659290057,123.60000000000002L471.81318680808613,116.4L470.19230768716665,113.4L468.57142856624716,133.2L466.9505494453277,113.4L465.3296703244082,130.2L463.7087912034887,130.2L462.0879120825692,113.4L460.4670329616497,123.60000000000002L458.8461538407302,113.4L457.2252747198107,96.60000000000002L455.60439559889124,86.39999999999998L453.98351647797176,96.60000000000002L452.3626373570523,103.20000000000002L450.74175823613274,106.79999999999998L449.12087911521326,123.60000000000002L447.4999999942938,100.20000000000002L445.8791208733743,113.4L444.2582417524548,109.80000000000001L442.6373626315353,90L441.0164835106158,103.20000000000002L439.3956043896963,120L437.7747252687768,109.80000000000001L436.15384614785734,106.79999999999998L434.53296702693785,116.4L432.91208790601837,106.79999999999998L431.2912087850989,83.4L429.67032966417935,93.60000000000002L428.04945054325987,86.39999999999998L426.4285714223404,73.20000000000005L424.8076923014209,73.20000000000005L423.1868131805014,93.60000000000002L421.56593405958193,56.39999999999998L419.94505493866234,60L418.32417581774286,70.20000000000002L416.7032966968234,79.79999999999998L415.0824175759039,36.60000000000002L413.4615384549844,79.79999999999998L411.8406593340649,83.4L410.21978021314544,79.79999999999998L408.5989010922259,46.79999999999998L406.9780219713064,46.79999999999998L405.35714285038694,73.20000000000005L403.73626372946745,93.60000000000002L402.11538460854797,90L400.4945054876285,73.20000000000005L398.87362636670895,73.20000000000005L397.25274724578946,73.20000000000005L395.63186812487,83.4L394.0109890039505,96.60000000000002L392.390109883031,79.79999999999998L390.76923076211153,63.60000000000002L389.14835164119205,53.39999999999998L387.5274725202725,66.6L385.906593399353,90L384.28571427843355,73.20000000000005L382.66483515751406,66.6L381.0439560365946,73.20000000000005L379.4230769156751,86.39999999999998L377.8021977947556,49.79999999999998L376.1813186738361,60L374.5604395529166,43.19999999999999L372.9395604319971,33.60000000000002L371.3186813110776,53.39999999999998L369.69780219015814,66.6L368.07692306923866,56.39999999999998L366.4560439483191,56.39999999999998L364.83516482739964,26.399999999999977L363.21428570648015,56.39999999999998L361.5934065855607,70.20000000000002L359.9725274646412,70.20000000000002L358.3516483437217,53.39999999999998L356.7307692228022,56.39999999999998L355.1098901018826,36.60000000000002L353.48901098096314,36.60000000000002L351.86813186004366,49.79999999999998L350.2472527391242,56.39999999999998L348.6263736182047,40.19999999999999L347.0054944972852,33.60000000000002L345.3846153763657,33.60000000000002L343.7637362554462,46.79999999999998L342.1428571345267,56.39999999999998L340.5219780136072,70.20000000000002L338.90109889268774,53.39999999999998L337.28021977176826,53.39999999999998L335.6593406508488,53.39999999999998L334.03846152992924,53.39999999999998L332.41758240900975,83.4L330.79670328809027,96.60000000000002L329.1758241671708,79.79999999999998L327.5549450462513,30L325.9340659253318,40.19999999999999L324.3131868044123,73.20000000000005L322.6923076834928,53.39999999999998L321.0714285625733,53.39999999999998L319.45054944165383,73.20000000000005L317.82967032073435,63.60000000000002L316.20879119981487,46.79999999999998L314.5879120788954,53.39999999999998L312.96703295797585,66.6L311.34615383705636,60L309.7252747161369,60L308.1043955952174,76.79999999999995L306.4835164742979,63.60000000000002L304.86263735337843,43.19999999999999L303.2417582324589,40.19999999999999L301.6208791115394,40.19999999999999L299.9999999906199,36.60000000000002L298.37912086970044,33.60000000000002L296.75824174878096,36.60000000000002L295.1373626278614,60L293.51648350694194,56.39999999999998L291.89560438602246,40.19999999999999L290.2747252651029,49.79999999999998L288.65384614418343,56.39999999999998L287.03296702326395,86.39999999999998L285.41208790234447,83.4L283.791208781425,86.39999999999998L282.1703296605055,86.39999999999998L280.549450539586,90L278.9285714186665,86.39999999999998L277.307692297747,93.60000000000002L275.6868131768275,86.39999999999998L274.06593405590803,96.60000000000002L272.44505493498855,60L270.82417581406906,73.20000000000005L269.2032966931495,96.60000000000002L267.58241757223004,109.80000000000001L265.96153845131056,93.60000000000002L264.3406593303911,86.39999999999998L262.71978020947154,66.6L261.09890108855205,56.39999999999998L259.47802196763257,53.39999999999998L257.8571428467131,63.60000000000002L256.2362637257936,79.79999999999998L254.61538460487412,83.4L252.9945054839546,106.79999999999998L251.37362636303513,100.20000000000002L249.75274724211565,103.20000000000002L248.1318681211961,90L246.51098900027662,103.20000000000002L244.89010987935714,83.4L243.26923075843766,73.20000000000005L241.64835163751815,93.60000000000002L240.02747251659866,106.79999999999998L238.40659339567918,106.79999999999998L236.78571427475967,130.2L235.1648351538402,120L233.5439560329207,93.60000000000002L231.9230769120012,86.39999999999998L230.3021977910817,100.20000000000002L228.68131867016223,109.80000000000001L227.06043954924272,86.39999999999998L225.43956042832323,120L223.81868130740375,109.80000000000001L222.19780218648427,79.79999999999998L220.57692306556476,73.20000000000005L218.95604394464527,79.79999999999998L217.3351648237258,93.60000000000002L215.71428570280625,76.79999999999995L214.09340658188677,83.4L212.47252746096729,79.79999999999998L210.85164834004777,96.60000000000002L209.2307692191283,96.60000000000002L207.6098900982088,56.39999999999998L205.9890109772893,66.6L204.3681318563698,90L202.74725273545033,109.80000000000001L201.12637361453085,116.4L199.50549449361134,63.60000000000002L197.88461537269185,73.20000000000005L196.26373625177237,90L194.64285713085286,143.4L193.02197800993338,90L191.4010988890139,116.4L189.78021976809438,109.80000000000001L188.1593406471749,113.4L186.53846152625542,109.80000000000001L184.91758240533588,100.20000000000002L183.2967032844164,120L181.6758241634969,103.20000000000002L180.05494504257743,113.4L178.43406592165792,126.60000000000002L176.81318680073844,126.60000000000002L175.19230767981895,133.2L173.57142855889944,143.4L171.95054943797996,120L170.32967031706048,116.4L168.70879119614096,143.4L167.08791207522148,136.79999999999998L165.467032954302,133.2L163.8461538333825,120L162.225274712463,113.4L160.60439559154352,113.4L158.98351647062404,156.6L157.36263734970453,139.79999999999998L155.74175822878505,153.6L154.12087910786556,139.79999999999998L152.49999998694602,139.79999999999998L150.87912086602654,136.79999999999998L149.25824174510706,116.4L147.63736262418757,120L146.01648350326806,130.2L144.39560438234858,143.4L142.7747252614291,130.2L141.1538461405096,116.4L139.5329670195901,139.79999999999998L137.9120878986706,126.60000000000002L136.2912087777511,163.2L134.67032965683163,169.8L133.04945053591211,160.2L131.42857141499263,156.6L129.80769229407315,146.4L128.18681317315364,146.4L126.56593405223416,160.2L124.94505493131466,156.6L123.32417581039518,139.79999999999998L121.70329668947568,153.6L120.08241756855618,136.79999999999998L118.4615384476367,133.2L116.8406593267172,153.6L115.21978020579772,160.2L113.59890108487821,150L111.97802196395871,136.79999999999998L110.35714284303923,139.79999999999998L108.73626372211973,150L107.11538460120025,146.4L105.49450548028075,156.6L103.87362635936125,153.6L102.25274723844177,156.6L100.63186811752226,150L99.01098899660276,153.6L97.39010987568328,163.2L95.76923075476378,156.6L94.1483516338443,166.8L92.5274725129248,173.39999999999998L90.9065933920053,163.2L89.28571427108582,169.8L87.66483515016633,166.8L86.04395602924684,173.39999999999998L84.42307690832733,176.39999999999998L82.80219778740783,166.8L81.18131866648835,143.4L79.56043954556885,150L77.93956042464936,160.2L76.31868130372987,153.6L74.69780218281038,146.4L73.07692306189088,139.79999999999998L71.4560439409714,163.2L69.8351648200519,163.2L68.2142856991324,160.2L66.5934065782129,150L64.97252745729342,146.4L63.35164833637393,143.4L61.73076921545444,156.6L60.10989009453494,146.4L58.48901097361544,153.6L56.86813185269595,173.39999999999998L55.24725273177646,169.8L53.62637361085697,183.60000000000002L52.005494489937476,186.60000000000002L50.38461536901798,166.8L48.76373624809849,166.8L47.142857127179,173.39999999999998L45.5219780062595,143.4L43.90109888534001,136.79999999999998L42.280219764420515,153.6L40.659340643501025,166.8L39.03846152258153,183.60000000000002L37.41758240166204,180L35.79670328074255,180L34.17582415982305,180L32.55494503890356,156.6L30.934065917984068,160.2L29.31318679706457,169.8L27.69230767614508,173.39999999999998L26.071428555225587,173.39999999999998L24.450549434306094,176.39999999999998L22.8296703133866,173.39999999999998L21.208791192467107,153.6L19.587912071547613,163.2L17.96703295062812,180L16.34615382970863,169.8L14.725274708789135,180L13.104395587869641,166.8L11.483516466950148,166.8L9.862637346030658,166.8L8.241758225111163,169.8L6.62087910419167,176.39999999999998L4.999999983272177,163.2L4.999999983272177,259.2L6.62087910419167,246.6L8.241758225111163,250.2L9.862637346030658,236.4L11.483516466950148,243L13.104395587869641,243L14.725274708789135,223.2L16.34615382970863,229.8L17.96703295062812,229.8L19.587912071547613,243.6L21.208791192467107,256.8L22.8296703133866,263.4L24.450549434306094,266.4L26.071428555225587,253.2L27.69230767614508,259.8L29.31318679706457,263.4L30.934065917984068,256.8L32.55494503890356,256.8L34.17582415982305,256.8L35.79670328074255,246.6L37.41758240166204,250.2L39.03846152258153,250.2L40.659340643501025,233.4L42.280219764420515,233.4L43.90109888534001,233.4L45.5219780062595,236.4L47.142857127179,253.2L48.76373624809849,236.4L50.38461536901798,220.2L52.005494489937476,233.4L53.62637361085697,220.2L55.24725273177646,223.2L56.86813185269595,233.4L58.48901097361544,240L60.10989009453494,252.6L61.73076921545444,273L63.35164833637393,276L64.97252745729342,269.4L66.5934065782129,243L68.2142856991324,240L69.8351648200519,229.8L71.4560439409714,213.6L73.07692306189088,210L74.69780218281038,213.6L76.31868130372987,233.4L77.93956042464936,236.4L79.56043954556885,220.2L81.18131866648835,213.6L82.80219778740783,216.6L84.42307690832733,229.8L86.04395602924684,233.4L87.66483515016633,216.6L89.28571427108582,223.2L90.9065933920053,236.4L92.5274725129248,226.8L94.1483516338443,223.2L95.76923075476378,246.6L97.39010987568328,253.2L99.01098899660276,243.6L100.63186811752226,233.4L102.25274723844177,223.2L103.87362635936125,240L105.49450548028075,243L107.11538460120025,233.4L108.73626372211973,240L110.35714284303923,250.2L111.97802196395871,236.4L113.59890108487821,233.4L115.21978020579772,216.6L116.8406593267172,223.2L118.4615384476367,236.4L120.08241756855618,236.4L121.70329668947568,233.4L123.32417581039518,213.6L124.94505493131466,216.6L126.56593405223416,236.4L128.18681317315364,243.6L129.80769229407315,246.6L131.42857141499263,229.8L133.04945053591211,233.4L134.67032965683163,236.4L136.2912087777511,236.4L137.9120878986706,236.4L139.5329670195901,226.8L141.1538461405096,206.4L142.7747252614291,199.8L144.39560438234858,196.8L146.01648350326806,203.39999999999998L147.63736262418757,210L149.25824174510706,226.8L150.87912086602654,213.6L152.49999998694602,213.6L154.12087910786556,220.2L155.74175822878505,223.2L157.36263734970453,223.2L158.98351647062404,220.2L160.60439559154352,229.8L162.225274712463,203.39999999999998L163.8461538333825,203.39999999999998L165.467032954302,199.8L167.08791207522148,210L168.70879119614096,213.6L170.32967031706048,220.2L171.95054943797996,223.2L173.57142855889944,220.2L175.19230767981895,220.2L176.81318680073844,216.6L178.43406592165792,206.4L180.05494504257743,210L181.6758241634969,206.4L183.2967032844164,213.6L184.91758240533588,210L186.53846152625542,216.6L188.1593406471749,203.39999999999998L189.78021976809438,206.4L191.4010988890139,213.6L193.02197800993338,203.39999999999998L194.64285713085286,213.6L196.26373625177237,199.8L197.88461537269185,213.6L199.50549449361134,220.2L201.12637361453085,206.4L202.74725273545033,196.8L204.3681318563698,203.39999999999998L205.9890109772893,210L207.6098900982088,210L209.2307692191283,203.39999999999998L210.85164834004777,190.2L212.47252746096729,199.8L214.09340658188677,216.6L215.71428570280625,213.6L217.3351648237258,199.8L218.95604394464527,183.60000000000002L220.57692306556476,193.2L222.19780218648427,186.60000000000002L223.81868130740375,183.60000000000002L225.43956042832323,199.8L227.06043954924272,193.2L228.68131867016223,196.8L230.3021977910817,183.60000000000002L231.9230769120012,190.2L233.5439560329207,196.8L235.1648351538402,199.8L236.78571427475967,186.60000000000002L238.40659339567918,186.60000000000002L240.02747251659866,186.60000000000002L241.64835163751815,180L243.26923075843766,180L244.89010987935714,193.2L246.51098900027662,186.60000000000002L248.1318681211961,180L249.75274724211565,176.39999999999998L251.37362636303513,176.39999999999998L252.9945054839546,183.60000000000002L254.61538460487412,186.60000000000002L256.2362637257936,190.2L257.8571428467131,203.39999999999998L259.47802196763257,186.60000000000002L261.09890108855205,190.2L262.71978020947154,190.2L264.3406593303911,180L265.96153845131056,180L267.58241757223004,169.8L269.2032966931495,183.60000000000002L270.82417581406906,180L272.44505493498855,183.60000000000002L274.06593405590803,186.60000000000002L275.6868131768275,180L277.307692297747,180L278.9285714186665,180L280.549450539586,180L282.1703296605055,176.39999999999998L283.791208781425,173.39999999999998L285.41208790234447,183.60000000000002L287.03296702326395,183.60000000000002L288.65384614418343,173.39999999999998L290.2747252651029,176.39999999999998L291.89560438602246,186.60000000000002L293.51648350694194,169.8L295.1373626278614,163.2L296.75824174878096,163.2L298.37912086970044,166.8L299.9999999906199,169.8L301.6208791115394,176.39999999999998L303.2417582324589,183.60000000000002L304.86263735337843,176.39999999999998L306.4835164742979,173.39999999999998L308.1043955952174,163.2L309.7252747161369,160.2L311.34615383705636,163.2L312.96703295797585,173.39999999999998L314.5879120788954,166.8L316.20879119981487,160.2L317.82967032073435,173.39999999999998L319.45054944165383,163.2L321.0714285625733,160.2L322.6923076834928,160.2L324.3131868044123,156.6L325.9340659253318,169.8L327.5549450462513,160.2L329.1758241671708,160.2L330.79670328809027,163.2L332.41758240900975,166.8L334.03846152992924,173.39999999999998L335.6593406508488,166.8L337.28021977176826,166.8L338.90109889268774,163.2L340.5219780136072,166.8L342.1428571345267,166.8L343.7637362554462,160.2L345.3846153763657,160.2L347.0054944972852,160.2L348.6263736182047,160.2L350.2472527391242,166.8L351.86813186004366,163.2L353.48901098096314,153.6L355.1098901018826,166.8L356.7307692228022,156.6L358.3516483437217,160.2L359.9725274646412,160.2L361.5934065855607,153.6L363.21428570648015,166.8L364.83516482739964,160.2L366.4560439483191,150L368.07692306923866,150L369.69780219015814,156.6L371.3186813110776,156.6L372.9395604319971,153.6L374.5604395529166,156.6L376.1813186738361,153.6L377.8021977947556,150L379.4230769156751,156.6L381.0439560365946,173.39999999999998L382.66483515751406,166.8L384.28571427843355,156.6L385.906593399353,180L387.5274725202725,169.8L389.14835164119205,166.8L390.76923076211153,160.2L392.390109883031,166.8L394.0109890039505,160.2L395.63186812487,163.2L397.25274724578946,176.39999999999998L398.87362636670895,176.39999999999998L400.4945054876285,180L402.11538460854797,176.39999999999998L403.73626372946745,180L405.35714285038694,186.60000000000002L406.9780219713064,169.8L408.5989010922259,160.2L410.21978021314544,160.2L411.8406593340649,160.2L413.4615384549844,169.8L415.0824175759039,186.60000000000002L416.7032966968234,180L418.32417581774286,180L419.94505493866234,176.39999999999998L421.56593405958193,180L423.1868131805014,183.60000000000002L424.8076923014209,169.8L426.4285714223404,169.8L428.04945054325987,180L429.67032966417935,180L431.2912087850989,183.60000000000002L432.91208790601837,193.2L434.53296702693785,190.2L436.15384614785734,180L437.7747252687768,183.60000000000002L439.3956043896963,196.8L441.0164835106158,196.8L442.6373626315353,183.60000000000002L444.2582417524548,186.60000000000002L445.8791208733743,193.2L447.4999999942938,186.60000000000002L449.12087911521326,183.60000000000002L450.74175823613274,193.2L452.3626373570523,206.4L453.98351647797176,190.2L455.60439559889124,193.2L457.2252747198107,193.2L458.8461538407302,193.2L460.4670329616497,206.4L462.0879120825692,190.2L463.7087912034887,196.8L465.3296703244082,186.60000000000002L466.9505494453277,199.8L468.57142856624716,216.6L470.19230768716665,210L471.81318680808613,190.2L473.4340659290057,203.39999999999998L475.0549450499252,199.8L476.6758241708447,193.2L478.2967032917642,203.39999999999998L479.91758241268366,213.6L481.53846153360314,220.2L483.1593406545226,206.4L484.78021977544216,203.39999999999998L486.40109889636165,199.8L488.0219780172811,196.8L489.6428571382006,199.8L491.2637362591201,196.8L492.8846153800396,220.2L494.5054945009591,206.4L496.1263736218786,190.2L497.7472527427981,196.8L499.36813186371757,196.8L500.98901098463705,213.6L502.60989010555653,220.2L504.230769226476,196.8L505.85164834739555,199.8L507.47252746831504,216.6L509.0934065892345,233.4L510.714285710154,233.4L512.3351648310735,243.6L513.956043951993,233.4L515.5769230729126,240L517.197802193832,236.4L518.8186813147515,252.6L520.439560435671,249.6L522.0604395565905,252.6L523.6813186775099,252.6L525.3021977984295,243L526.923076919349,226.8L528.5439560402684,236.4L530.164835161188,243L531.7857142821074,240L533.4065934030269,240L535.0274725239464,236.4L536.6483516448659,240L538.2692307657854,246L539.8901098867049,249.6L541.5109890076244,256.2L543.1318681285438,265.8L544.7527472494634,269.4L546.3736263703828,259.2L547.9945054913023,259.2L549.6153846122219,243L551.2362637331413,252.6L552.8571428540608,269.4L554.4780219749803,265.8L556.0989010958998,282.6L557.7197802168193,279.6L559.3406593377388,269.4L560.9615384586583,236.4L562.5824175795777,249.6L564.2032967004973,243L565.8241758214167,220.2L567.4450549423362,233.4L569.0659340632558,236.4L570.6868131841753,223.2L572.3076923050947,229.8L573.9285714260143,236.4L575.5494505469337,240L577.1703296678533,236.4L578.7912087887728,250.2L580.4120879096922,223.2L582.0329670306118,223.2L583.6538461515312,226.8L585.2747252724507,229.8L586.8956043933701,240L588.5164835142897,240L590.1373626352092,229.8L591.7582417561287,236.4L593.3791208770482,252.6L594.9999999979676,256.2Z" style="fill: #4c78a8; opacity: 0.7;"></path></g><g class="mark-text role-title" style="pointer-events: none;"><text text-anchor="middle" transform="translate(300,-13)" style="font-family: sans-serif; font-size: 13px; font-weight: bold; fill: #000; opacity: 1;">Seattle Temperature Range, 2012-2015</text></g><g class="mark-group role-axis"><g transform="translate(0.5,300.5)"><path class="background" d="M0,0h0v0h0Z" style="pointer-events: none; fill: none;"></path><g><g class="mark-rule role-axis-tick" style="pointer-events: none;"><line transform="translate(5,0)" x2="0" y2="5" style="fill: none; stroke: #888; stroke-width: 1; opacity: 1;"></line><line transform="translate(55,0)" x2="0" y2="5" style="fill: none; stroke: #888; stroke-width: 1; opacity: 1;"></line><line transform="translate(101,0)" x2="0" y2="5" style="fill: none; stroke: #888; stroke-width: 1; opacity: 1;"></line><line transform="translate(151,0)" x2="0" y2="5" style="fill: none; stroke: #888; stroke-width: 1; opacity: 1;"></line><line transform="translate(200,0)" x2="0" y2="5" style="fill: none; stroke: #888; stroke-width: 1; opacity: 1;"></line><line transform="translate(250,0)" x2="0" y2="5" style="fill: none; stroke: #888; stroke-width: 1; opacity: 1;"></line><line transform="translate(298,0)" x2="0" y2="5" style="fill: none; stroke: #888; stroke-width: 1; opacity: 1;"></line><line transform="translate(349,0)" x2="0" y2="5" style="fill: none; stroke: #888; stroke-width: 1; opacity: 1;"></line><line transform="translate(399,0)" x2="0" y2="5" style="fill: none; stroke: #888; stroke-width: 1; opacity: 1;"></line><line transform="translate(447,0)" x2="0" y2="5" style="fill: none; stroke: #888; stroke-width: 1; opacity: 1;"></line><line transform="translate(498,0)" x2="0" y2="5" style="fill: none; stroke: #888; stroke-width: 1; opacity: 1;"></line><line transform="translate(546,0)" x2="0" y2="5" style="fill: none; stroke: #888; stroke-width: 1; opacity: 1;"></line><line transform="translate(597,0)" x2="0" y2="5" style="fill: none; stroke: #888; stroke-width: 1; opacity: 1;"></line></g><g class="mark-text role-axis-label" style="pointer-events: none;"><text text-anchor="middle" transform="translate(4.999999983272177,15)" style="font-family: sans-serif; font-size: 10px; fill: #000; opacity: 1;">Jan</text><text text-anchor="middle" transform="translate(55.24725273177646,15)" style="font-family: sans-serif; font-size: 10px; fill: #000; opacity: 1;">Feb</text><text text-anchor="middle" transform="translate(100.63186811752226,15)" style="font-family: sans-serif; font-size: 10px; fill: #000; opacity: 1;">Mar</text><text text-anchor="middle" transform="translate(150.87912086602654,15)" style="font-family: sans-serif; font-size: 10px; fill: #000; opacity: 1;">Apr</text><text text-anchor="middle" transform="translate(199.50549449361134,15)" style="font-family: sans-serif; font-size: 10px; fill: #000; opacity: 1;">May</text><text text-anchor="middle" transform="translate(249.75274724211565,15)" style="font-family: sans-serif; font-size: 10px; fill: #000; opacity: 1;">Jun</text><text text-anchor="middle" transform="translate(298.37912086970044,15)" style="font-family: sans-serif; font-size: 10px; fill: #000; opacity: 1;">Jul</text><text text-anchor="middle" transform="translate(348.6263736182047,15)" style="font-family: sans-serif; font-size: 10px; fill: #000; opacity: 1;">Aug</text><text text-anchor="middle" transform="translate(398.87362636670895,15)" style="font-family: sans-serif; font-size: 10px; fill: #000; opacity: 1;">Sep</text><text text-anchor="middle" transform="translate(447.4999999942938,15)" style="font-family: sans-serif; font-size: 10px; fill: #000; opacity: 1;">Oct</text><text text-anchor="middle" transform="translate(497.7472527427981,15)" style="font-family: sans-serif; font-size: 10px; fill: #000; opacity: 1;">Nov</text><text text-anchor="middle" transform="translate(546.3736263703828,15)" style="font-family: sans-serif; font-size: 10px; fill: #000; opacity: 1;">Dec</text><text text-anchor="middle" transform="translate(596.6208791188872,15)" style="font-family: sans-serif; font-size: 10px; fill: #000; opacity: 1;">Jan</text></g><g class="mark-rule role-axis-domain" style="pointer-events: none;"><line transform="translate(0,0)" x2="600" y2="0" style="fill: none; stroke: #888; stroke-width: 1; opacity: 1;"></line></g><g class="mark-text role-axis-title" style="pointer-events: none;"><text text-anchor="middle" transform="translate(300,31)" style="font-family: sans-serif; font-size: 11px; font-weight: bold; fill: #000; opacity: 1;">Date</text></g></g></g></g><g class="mark-group role-axis"><g transform="translate(0.5,0.5)"><path class="background" d="M0,0h0v0h0Z" style="pointer-events: none; fill: none;"></path><g><g class="mark-rule role-axis-tick" style="pointer-events: none;"><line transform="translate(0,300)" x2="-5" y2="0" style="fill: none; stroke: #888; stroke-width: 1; opacity: 1;"></line><line transform="translate(0,270)" x2="-5" y2="0" style="fill: none; stroke: #888; stroke-width: 1; opacity: 1;"></line><line transform="translate(0,240)" x2="-5" y2="0" style="fill: none; stroke: #888; stroke-width: 1; opacity: 1;"></line><line transform="translate(0,210)" x2="-5" y2="0" style="fill: none; stroke: #888; stroke-width: 1; opacity: 1;"></line><line transform="translate(0,180)" x2="-5" y2="0" style="fill: none; stroke: #888; stroke-width: 1; opacity: 1;"></line><line transform="translate(0,150)" x2="-5" y2="0" style="fill: none; stroke: #888; stroke-width: 1; opacity: 1;"></line><line transform="translate(0,120)" x2="-5" y2="0" style="fill: none; stroke: #888; stroke-width: 1; opacity: 1;"></line><line transform="translate(0,90)" x2="-5" y2="0" style="fill: none; stroke: #888; stroke-width: 1; opacity: 1;"></line><line transform="translate(0,60)" x2="-5" y2="0" style="fill: none; stroke: #888; stroke-width: 1; opacity: 1;"></line><line transform="translate(0,30)" x2="-5" y2="0" style="fill: none; stroke: #888; stroke-width: 1; opacity: 1;"></line><line transform="translate(0,0)" x2="-5" y2="0" style="fill: none; stroke: #888; stroke-width: 1; opacity: 1;"></line></g><g class="mark-text role-axis-label" style="pointer-events: none;"><text text-anchor="end" transform="translate(-7,303)" style="font-family: sans-serif; font-size: 10px; fill: #000; opacity: 1;">-10</text><text text-anchor="end" transform="translate(-7,273)" style="font-family: sans-serif; font-size: 10px; fill: #000; opacity: 1;">-5</text><text text-anchor="end" transform="translate(-7,243)" style="font-family: sans-serif; font-size: 10px; fill: #000; opacity: 1;">0</text><text text-anchor="end" transform="translate(-7,213)" style="font-family: sans-serif; font-size: 10px; fill: #000; opacity: 1;">5</text><text text-anchor="end" transform="translate(-7,183)" style="font-family: sans-serif; font-size: 10px; fill: #000; opacity: 1;">10</text><text text-anchor="end" transform="translate(-7,153)" style="font-family: sans-serif; font-size: 10px; fill: #000; opacity: 1;">15</text><text text-anchor="end" transform="translate(-7,123)" style="font-family: sans-serif; font-size: 10px; fill: #000; opacity: 1;">20</text><text text-anchor="end" transform="translate(-7,93)" style="font-family: sans-serif; font-size: 10px; fill: #000; opacity: 1;">25</text><text text-anchor="end" transform="translate(-7,63)" style="font-family: sans-serif; font-size: 10px; fill: #000; opacity: 1;">30</text><text text-anchor="end" transform="translate(-7,33)" style="font-family: sans-serif; font-size: 10px; fill: #000; opacity: 1;">35</text><text text-anchor="end" transform="translate(-7,3)" style="font-family: sans-serif; font-size: 10px; fill: #000; opacity: 1;">40</text></g><g class="mark-rule role-axis-domain" style="pointer-events: none;"><line transform="translate(0,300)" x2="0" y2="-300" style="fill: none; stroke: #888; stroke-width: 1; opacity: 1;"></line></g><g class="mark-text role-axis-title" style="pointer-events: none;"><text text-anchor="middle" transform="translate(-36,150) rotate(-90) translate(0,-2)" style="font-family: sans-serif; font-size: 11px; font-weight: bold; fill: #000; opacity: 1;">Daily Temperature Range (C)</text></g></g></g></g></g></g></g></g></svg>