<svg xmlns="http://www.w3.org/2000/svg" xmlns:xlink="http://www.w3.org/1999/xlink" version="1.1" class="marks" width="564" height="139" viewBox="0 0 564 139"><rect width="564" height="139" fill="white"/><g fill="none" stroke-miterlimit="10" transform="translate(76,22)"><g class="mark-group role-frame root" role="graphics-object" aria-roledescription="group mark container"><g transform="translate(0,0)"><path class="background" aria-hidden="true" d="M0.5,0.5h400v80h-400Z" stroke="#ddd"/><g><g class="mark-group role-axis" aria-hidden="true"><g transform="translate(0.5,80.5)"><path class="background" aria-hidden="true" d="M0,0h0v0h0Z" pointer-events="none"/><g><g class="mark-rule role-axis-grid" pointer-events="none"><line transform="translate(0,0)" x2="0" y2="-80" stroke="#ddd" stroke-width="1" opacity="1"/><line transform="translate(31,0)" x2="0" y2="-80" stroke="#ddd" stroke-width="1" opacity="1"/><line transform="translate(62,0)" x2="0" y2="-80" stroke="#ddd" stroke-width="1" opacity="1"/><line transform="translate(92,0)" x2="0" y2="-80" stroke="#ddd" stroke-width="1" opacity="1"/><line transform="translate(123,0)" x2="0" y2="-80" stroke="#ddd" stroke-width="1" opacity="1"/><line transform="translate(154,0)" x2="0" y2="-80" stroke="#ddd" stroke-width="1" opacity="1"/><line transform="translate(185,0)" x2="0" y2="-80" stroke="#ddd" stroke-width="1" opacity="1"/><line transform="translate(215,0)" x2="0" y2="-80" stroke="#ddd" stroke-width="1" opacity="1"/><line transform="translate(246,0)" x2="0" y2="-80" stroke="#ddd" stroke-width="1" opacity="1"/><line transform="translate(277,0)" x2="0" y2="-80" stroke="#ddd" stroke-width="1" opacity="1"/><line transform="translate(308,0)" x2="0" y2="-80" stroke="#ddd" stroke-width="1" opacity="1"/><line transform="translate(338,0)" x2="0" y2="-80" stroke="#ddd" stroke-width="1" opacity="1"/><line transform="translate(369,0)" x2="0" y2="-80" stroke="#ddd" stroke-width="1" opacity="1"/><line transform="translate(400,0)" x2="0" y2="-80" stroke="#ddd" stroke-width="1" opacity="1"/></g></g><path class="foreground" aria-hidden="true" d="" pointer-events="none" display="none"/></g></g><g class="mark-group role-axis" role="graphics-symbol" aria-roledescription="axis" aria-label="X-axis titled 'Body Mass (g)' for a linear scale with values from 0 to 6,500"><g transform="translate(0.5,80.5)"><path class="background" aria-hidden="true" d="M0,0h0v0h0Z" pointer-events="none"/><g><g class="mark-rule role-axis-tick" pointer-events="none"><line transform="translate(0,0)" x2="0" y2="5" stroke="#888" stroke-width="1" opacity="1"/><line transform="translate(31,0)" x2="0" y2="5" stroke="#888" stroke-width="1" opacity="1"/><line transform="translate(62,0)" x2="0" y2="5" stroke="#888" stroke-width="1" opacity="1"/><line transform="translate(92,0)" x2="0" y2="5" stroke="#888" stroke-width="1" opacity="1"/><line transform="translate(123,0)" x2="0" y2="5" stroke="#888" stroke-width="1" opacity="1"/><line transform="translate(154,0)" x2="0" y2="5" stroke="#888" stroke-width="1" opacity="1"/><line transform="translate(185,0)" x2="0" y2="5" stroke="#888" stroke-width="1" opacity="1"/><line transform="translate(215,0)" x2="0" y2="5" stroke="#888" stroke-width="1" opacity="1"/><line transform="translate(246,0)" x2="0" y2="5" stroke="#888" stroke-width="1" opacity="1"/><line transform="translate(277,0)" x2="0" y2="5" stroke="#888" stroke-width="1" opacity="1"/><line transform="translate(308,0)" x2="0" y2="5" stroke="#888" stroke-width="1" opacity="1"/><line transform="translate(338,0)" x2="0" y2="5" stroke="#888" stroke-width="1" opacity="1"/><line transform="translate(369,0)" x2="0" y2="5" stroke="#888" stroke-width="1" opacity="1"/><line transform="translate(400,0)" x2="0" y2="5" stroke="#888" stroke-width="1" opacity="1"/></g><g class="mark-text role-axis-label" pointer-events="none"><text text-anchor="start" transform="translate(0,15)" font-family="sans-serif" font-size="10px" fill="#000" opacity="1">0</text><text text-anchor="middle" transform="translate(30.76923076923077,15)" font-family="sans-serif" font-size="10px" fill="#000" opacity="0">500</text><text text-anchor="middle" transform="translate(61.53846153846154,15)" font-family="sans-serif" font-size="10px" fill="#000" opacity="1">1,000</text><text text-anchor="middle" transform="translate(92.3076923076923,15)" font-family="sans-serif" font-size="10px" fill="#000" opacity="0">1,500</text><text text-anchor="middle" transform="translate(123.07692307692308,15)" font-family="sans-serif" font-size="10px" fill="#000" opacity="1">2,000</text><text text-anchor="middle" transform="translate(153.84615384615387,15)" font-family="sans-serif" font-size="10px" fill="#000" opacity="0">2,500</text><text text-anchor="middle" transform="translate(184.6153846153846,15)" font-family="sans-serif" font-size="10px" fill="#000" opacity="1">3,000</text><text text-anchor="middle" transform="translate(215.3846153846154,15)" font-family="sans-serif" font-size="10px" fill="#000" opacity="0">3,500</text><text text-anchor="middle" transform="translate(246.15384615384616,15)" font-family="sans-serif" font-size="10px" fill="#000" opacity="1">4,000</text><text text-anchor="middle" transform="translate(276.9230769230769,15)" font-family="sans-serif" font-size="10px" fill="#000" opacity="0">4,500</text><text text-anchor="middle" transform="translate(307.69230769230774,15)" font-family="sans-serif" font-size="10px" fill="#000" opacity="1">5,000</text><text text-anchor="middle" transform="translate(338.46153846153845,15)" font-family="sans-serif" font-size="10px" fill="#000" opacity="0">5,500</text><text text-anchor="middle" transform="translate(369.2307692307692,15)" font-family="sans-serif" font-size="10px" fill="#000" opacity="1">6,000</text><text text-anchor="end" transform="translate(400,15)" font-family="sans-serif" font-size="10px" fill="#000" opacity="0">6,500</text></g><g class="mark-rule role-axis-domain" pointer-events="none"><line transform="translate(0,0)" x2="400" y2="0" stroke="#888" stroke-width="1" opacity="1"/></g><g class="mark-text role-axis-title" pointer-events="none"><text text-anchor="middle" transform="translate(200,30)" font-family="sans-serif" font-size="11px" font-weight="bold" fill="#000" opacity="1">Body Mass (g)</text></g></g><path class="foreground" aria-hidden="true" d="" pointer-events="none" display="none"/></g></g><g class="mark-group role-axis" role="graphics-symbol" aria-roledescription="axis" aria-label="Y-axis titled 'Species' for a discrete scale with 3 values: Adelie, Chinstrap, Gentoo"><g transform="translate(0.5,0.5)"><path class="background" aria-hidden="true" d="M0,0h0v0h0Z" pointer-events="none"/><g><g class="mark-rule role-axis-tick" pointer-events="none"><line transform="translate(0,15)" x2="-5" y2="0" stroke="#888" stroke-width="1" opacity="1"/><line transform="translate(0,40)" x2="-5" y2="0" stroke="#888" stroke-width="1" opacity="1"/><line transform="translate(0,65)" x2="-5" y2="0" stroke="#888" stroke-width="1" opacity="1"/></g><g class="mark-text role-axis-label" pointer-events="none"><text text-anchor="end" transform="translate(-7,17.5)" font-family="sans-serif" font-size="10px" fill="#000" opacity="1">Adelie</text><text text-anchor="end" transform="translate(-7,42.50000000000001)" font-family="sans-serif" font-size="10px" fill="#000" opacity="1">Chinstrap</text><text text-anchor="end" transform="translate(-7,67.50000000000001)" font-family="sans-serif" font-size="10px" fill="#000" opacity="1">Gentoo</text></g><g class="mark-rule role-axis-domain" pointer-events="none"><line transform="translate(0,0)" x2="0" y2="80" stroke="#888" stroke-width="1" opacity="1"/></g><g class="mark-text role-axis-title" pointer-events="none"><text text-anchor="middle" transform="translate(-59.154296875,40) rotate(-90) translate(0,-2)" font-family="sans-serif" font-size="11px" font-weight="bold" fill="#000" opacity="1">Species</text></g></g><path class="foreground" aria-hidden="true" d="" pointer-events="none" display="none"/></g></g><g class="mark-group role-scope pathgroup" role="graphics-object" aria-roledescription="group mark container"><g transform="translate(0,0)"><path class="background" aria-hidden="true" d="M0,0h400v80h-400Z"/><g><g class="mark-area role-mark marks" role="graphics-object" aria-roledescription="area mark container"><path aria-label="Body Mass (g): 2500; Species: Adelie; density: 0.000010403897536" role="graphics-symbol" aria-roledescription="area mark" d="M153.846,5.197L155.077,5.252L156.308,5.32L157.538,5.402L158.769,5.5L160,5.615L161.231,5.748L162.462,5.902L163.692,6.077L164.923,6.274L166.154,6.492L167.385,6.733L168.615,6.995L169.846,7.278L171.077,7.58L172.308,7.899L173.538,8.235L174.769,8.584L176,8.945L177.231,9.315L178.462,9.693L179.692,10.077L180.923,10.465L182.154,10.856L183.385,11.248L184.615,11.641L185.846,12.034L187.077,12.428L188.308,12.821L189.538,13.213L190.769,13.605L192,13.997L193.231,14.387L194.462,14.777L195.692,15.164L196.923,15.548L198.154,15.928L199.385,16.301L200.615,16.666L201.846,17.021L203.077,17.362L204.308,17.688L205.538,17.995L206.769,18.28L208,18.542L209.231,18.778L210.462,18.986L211.692,19.166L212.923,19.316L214.154,19.438L215.385,19.532L216.615,19.599L217.846,19.642L219.077,19.661L220.308,19.66L221.538,19.64L222.769,19.604L224,19.552L225.231,19.485L226.462,19.405L227.692,19.311L228.923,19.202L230.154,19.078L231.385,18.938L232.615,18.78L233.846,18.604L235.077,18.408L236.308,18.192L237.538,17.958L238.769,17.704L240,17.434L241.231,17.149L242.462,16.852L243.692,16.546L244.923,16.235L246.154,15.923L247.385,15.612L248.615,15.307L249.846,15.01L251.077,14.723L252.308,14.447L253.538,14.184L254.769,13.933L256,13.693L257.231,13.463L258.462,13.241L259.692,13.024L260.923,12.811L262.154,12.598L263.385,12.384L264.615,12.167L265.846,11.946L267.077,11.72L268.308,11.49L269.538,11.256L270.769,11.018L272,10.779L273.231,10.538L274.462,10.299L275.692,10.063L276.923,9.829L278.154,9.6L279.385,9.377L280.615,9.158L281.846,8.944L283.077,8.735L284.308,8.531L285.538,8.329L286.769,8.131L288,7.935L289.231,7.74L290.462,7.547L291.692,7.356L292.923,7.167L294.154,6.981L295.385,6.799L296.615,6.622L297.846,6.452L299.077,6.288L300.308,6.134L301.538,5.989L302.769,5.855L304,5.732L305.231,5.62L306.462,5.521L307.692,5.433L308.923,5.356L310.154,5.29L311.385,5.233L312.615,5.186L313.846,5.146L315.077,5.114L316.308,5.088L317.538,5.067L318.769,5.05L320,5.038L321.231,5.028L322.462,5.02L323.692,5.015L324.923,5.01L326.154,5.007L327.385,5.005L328.615,5.003L329.846,5.002L331.077,5.002L332.308,5.001L333.538,5.001L334.769,5L336,5L337.231,5L338.462,5L339.692,5L340.923,5L342.154,5L343.385,5L344.615,5L345.846,5L347.077,5L348.308,5L349.538,5L350.769,5L352,5L353.231,5L354.462,5L355.692,5L356.923,5L358.154,5L359.385,5L360.615,5L361.846,5L363.077,5L364.308,5L365.538,5L366.769,5L368,5L369.231,5L370.462,5L371.692,5L372.923,5L374.154,5L375.385,5L376.615,5L377.846,5L379.077,5L380.308,5L381.538,5L382.769,5L384,5L385.231,5L386.462,5L387.692,5L388.923,5L390.154,5L391.385,5L392.615,5L393.846,5L395.077,5L396.308,5L397.538,5L398.769,5L400,5L400,5L398.769,5L397.538,5L396.308,5L395.077,5L393.846,5L392.615,5L391.385,5L390.154,5L388.923,5L387.692,5L386.462,5L385.231,5L384,5L382.769,5L381.538,5L380.308,5L379.077,5L377.846,5L376.615,5L375.385,5L374.154,5L372.923,5L371.692,5L370.462,5L369.231,5L368,5L366.769,5L365.538,5L364.308,5L363.077,5L361.846,5L360.615,5L359.385,5L358.154,5L356.923,5L355.692,5L354.462,5L353.231,5L352,5L350.769,5L349.538,5L348.308,5L347.077,5L345.846,5L344.615,5L343.385,5L342.154,5L340.923,5L339.692,5L338.462,5L337.231,5L336,5L334.769,5L333.538,5.001L332.308,5.001L331.077,5.002L329.846,5.002L328.615,5.003L327.385,5.005L326.154,5.007L324.923,5.01L323.692,5.015L322.462,5.02L321.231,5.028L320,5.038L318.769,5.05L317.538,5.067L316.308,5.088L315.077,5.114L313.846,5.146L312.615,5.186L311.385,5.233L310.154,5.29L308.923,5.356L307.692,5.433L306.462,5.521L305.231,5.62L304,5.732L302.769,5.855L301.538,5.989L300.308,6.134L299.077,6.288L297.846,6.452L296.615,6.622L295.385,6.799L294.154,6.981L292.923,7.167L291.692,7.356L290.462,7.547L289.231,7.74L288,7.935L286.769,8.131L285.538,8.329L284.308,8.531L283.077,8.735L281.846,8.944L280.615,9.158L279.385,9.377L278.154,9.6L276.923,9.829L275.692,10.063L274.462,10.299L273.231,10.538L272,10.779L270.769,11.018L269.538,11.256L268.308,11.49L267.077,11.72L265.846,11.946L264.615,12.167L263.385,12.384L262.154,12.598L260.923,12.811L259.692,13.024L258.462,13.241L257.231,13.463L256,13.693L254.769,13.933L253.538,14.184L252.308,14.447L251.077,14.723L249.846,15.01L248.615,15.307L247.385,15.612L246.154,15.923L244.923,16.235L243.692,16.546L242.462,16.852L241.231,17.149L240,17.434L238.769,17.704L237.538,17.958L236.308,18.192L235.077,18.408L233.846,18.604L232.615,18.78L231.385,18.938L230.154,19.078L228.923,19.202L227.692,19.311L226.462,19.405L225.231,19.485L224,19.552L222.769,19.604L221.538,19.64L220.308,19.66L219.077,19.661L217.846,19.642L216.615,19.599L215.385,19.532L214.154,19.438L212.923,19.316L211.692,19.166L210.462,18.986L209.231,18.778L208,18.542L206.769,18.28L205.538,17.995L204.308,17.688L203.077,17.362L201.846,17.021L200.615,16.666L199.385,16.301L198.154,15.928L196.923,15.548L195.692,15.164L194.462,14.777L193.231,14.387L192,13.997L190.769,13.605L189.538,13.213L188.308,12.821L187.077,12.428L185.846,12.034L184.615,11.641L183.385,11.248L182.154,10.856L180.923,10.465L179.692,10.077L178.462,9.693L177.231,9.315L176,8.945L174.769,8.584L173.538,8.235L172.308,7.899L171.077,7.58L169.846,7.278L168.615,6.995L167.385,6.733L166.154,6.492L164.923,6.274L163.692,6.077L162.462,5.902L161.231,5.748L160,5.615L158.769,5.5L157.538,5.402L156.308,5.32L155.077,5.252L153.846,5.197Z" fill="#4c78a8"/></g></g><path class="foreground" aria-hidden="true" d="" display="none"/></g><g transform="translate(0,0)"><path class="background" aria-hidden="true" d="M0,0h400v80h-400Z"/><g><g class="mark-area role-mark marks" role="graphics-object" aria-roledescription="area mark container"><path aria-label="Body Mass (g): 2500; Species: Chinstrap; density: 0.000018097612155" role="graphics-symbol" aria-roledescription="area mark" d="M153.846,30.342L155.077,30.405L156.308,30.472L157.538,30.543L158.769,30.617L160,30.692L161.231,30.766L162.462,30.839L163.692,30.908L164.923,30.972L166.154,31.031L167.385,31.083L168.615,31.129L169.846,31.169L171.077,31.203L172.308,31.233L173.538,31.262L174.769,31.292L176,31.328L177.231,31.373L178.462,31.433L179.692,31.515L180.923,31.624L182.154,31.769L183.385,31.955L184.615,32.19L185.846,32.479L187.077,32.828L188.308,33.24L189.538,33.717L190.769,34.257L192,34.857L193.231,35.512L194.462,36.215L195.692,36.957L196.923,37.726L198.154,38.511L199.385,39.302L200.615,40.087L201.846,40.857L203.077,41.604L204.308,42.323L205.538,43.009L206.769,43.662L208,44.282L209.231,44.871L210.462,45.432L211.692,45.968L212.923,46.483L214.154,46.978L215.385,47.452L216.615,47.905L217.846,48.333L219.077,48.729L220.308,49.087L221.538,49.397L222.769,49.652L224,49.842L225.231,49.96L226.462,50L227.692,49.96L228.923,49.839L230.154,49.639L231.385,49.365L232.615,49.026L233.846,48.629L235.077,48.186L236.308,47.706L237.538,47.198L238.769,46.672L240,46.134L241.231,45.589L242.462,45.039L243.692,44.487L244.923,43.931L246.154,43.372L247.385,42.807L248.615,42.237L249.846,41.661L251.077,41.08L252.308,40.499L253.538,39.92L254.769,39.349L256,38.792L257.231,38.255L258.462,37.745L259.692,37.267L260.923,36.824L262.154,36.42L263.385,36.054L264.615,35.728L265.846,35.437L267.077,35.177L268.308,34.945L269.538,34.733L270.769,34.536L272,34.348L273.231,34.164L274.462,33.979L275.692,33.792L276.923,33.6L278.154,33.403L279.385,33.202L280.615,32.998L281.846,32.794L283.077,32.593L284.308,32.397L285.538,32.209L286.769,32.032L288,31.866L289.231,31.713L290.462,31.573L291.692,31.444L292.923,31.326L294.154,31.217L295.385,31.116L296.615,31.021L297.846,30.931L299.077,30.845L300.308,30.761L301.538,30.681L302.769,30.604L304,30.529L305.231,30.459L306.462,30.394L307.692,30.333L308.923,30.278L310.154,30.229L311.385,30.185L312.615,30.148L313.846,30.117L315.077,30.091L316.308,30.069L317.538,30.052L318.769,30.038L320,30.028L321.231,30.02L322.462,30.014L323.692,30.01L324.923,30.007L326.154,30.005L327.385,30.003L328.615,30.002L329.846,30.001L331.077,30.001L332.308,30L333.538,30L334.769,30L336,30L337.231,30L338.462,30L339.692,30L340.923,30L342.154,30L343.385,30L344.615,30L345.846,30L347.077,30L348.308,30L349.538,30L350.769,30L352,30L353.231,30L354.462,30L355.692,30L356.923,30L358.154,30L359.385,30L360.615,30L361.846,30L363.077,30L364.308,30L365.538,30L366.769,30L368,30L369.231,30L370.462,30L371.692,30L372.923,30L374.154,30L375.385,30L376.615,30L377.846,30L379.077,30L380.308,30L381.538,30L382.769,30L384,30L385.231,30L386.462,30L387.692,30L388.923,30L390.154,30L391.385,30L392.615,30L393.846,30L395.077,30L396.308,30L397.538,30L398.769,30L400,30L400,30L398.769,30L397.538,30L396.308,30L395.077,30L393.846,30L392.615,30L391.385,30L390.154,30L388.923,30L387.692,30L386.462,30L385.231,30L384,30L382.769,30L381.538,30L380.308,30L379.077,30L377.846,30L376.615,30L375.385,30L374.154,30L372.923,30L371.692,30L370.462,30L369.231,30L368,30L366.769,30L365.538,30L364.308,30L363.077,30L361.846,30L360.615,30L359.385,30L358.154,30L356.923,30L355.692,30L354.462,30L353.231,30L352,30L350.769,30L349.538,30L348.308,30L347.077,30L345.846,30L344.615,30L343.385,30L342.154,30L340.923,30L339.692,30L338.462,30L337.231,30L336,30L334.769,30L333.538,30L332.308,30L331.077,30.001L329.846,30.001L328.615,30.002L327.385,30.003L326.154,30.005L324.923,30.007L323.692,30.01L322.462,30.014L321.231,30.02L320,30.028L318.769,30.038L317.538,30.052L316.308,30.069L315.077,30.091L313.846,30.117L312.615,30.148L311.385,30.185L310.154,30.229L308.923,30.278L307.692,30.333L306.462,30.394L305.231,30.459L304,30.529L302.769,30.604L301.538,30.681L300.308,30.761L299.077,30.845L297.846,30.931L296.615,31.021L295.385,31.116L294.154,31.217L292.923,31.326L291.692,31.444L290.462,31.573L289.231,31.713L288,31.866L286.769,32.032L285.538,32.209L284.308,32.397L283.077,32.593L281.846,32.794L280.615,32.998L279.385,33.202L278.154,33.403L276.923,33.6L275.692,33.792L274.462,33.979L273.231,34.164L272,34.348L270.769,34.536L269.538,34.733L268.308,34.945L267.077,35.177L265.846,35.437L264.615,35.728L263.385,36.054L262.154,36.42L260.923,36.824L259.692,37.267L258.462,37.745L257.231,38.255L256,38.792L254.769,39.349L253.538,39.92L252.308,40.499L251.077,41.08L249.846,41.661L248.615,42.237L247.385,42.807L246.154,43.372L244.923,43.931L243.692,44.487L242.462,45.039L241.231,45.589L240,46.134L238.769,46.672L237.538,47.198L236.308,47.706L235.077,48.186L233.846,48.629L232.615,49.026L231.385,49.365L230.154,49.639L228.923,49.839L227.692,49.96L226.462,50L225.231,49.96L224,49.842L222.769,49.652L221.538,49.397L220.308,49.087L219.077,48.729L217.846,48.333L216.615,47.905L215.385,47.452L214.154,46.978L212.923,46.483L211.692,45.968L210.462,45.432L209.231,44.871L208,44.282L206.769,43.662L205.538,43.009L204.308,42.323L203.077,41.604L201.846,40.857L200.615,40.087L199.385,39.302L198.154,38.511L196.923,37.726L195.692,36.957L194.462,36.215L193.231,35.512L192,34.857L190.769,34.257L189.538,33.717L188.308,33.24L187.077,32.828L185.846,32.479L184.615,32.19L183.385,31.955L182.154,31.769L180.923,31.624L179.692,31.515L178.462,31.433L177.231,31.373L176,31.328L174.769,31.292L173.538,31.262L172.308,31.233L171.077,31.203L169.846,31.169L168.615,31.129L167.385,31.083L166.154,31.031L164.923,30.972L163.692,30.908L162.462,30.839L161.231,30.766L160,30.692L158.769,30.617L157.538,30.543L156.308,30.472L155.077,30.405L153.846,30.342Z" fill="#f58518"/></g></g><path class="foreground" aria-hidden="true" d="" display="none"/></g><g transform="translate(0,0)"><path class="background" aria-hidden="true" d="M0,0h400v80h-400Z"/><g><g class="mark-area role-mark marks" role="graphics-object" aria-roledescription="area mark container"><path aria-label="Body Mass (g): 2500; Species: Gentoo; density: 1.60574227996e-16" role="graphics-symbol" aria-roledescription="area mark" d="M153.846,55L155.077,55L156.308,55L157.538,55L158.769,55L160,55L161.231,55L162.462,55L163.692,55L164.923,55L166.154,55L167.385,55L168.615,55L169.846,55L171.077,55L172.308,55L173.538,55L174.769,55L176,55L177.231,55L178.462,55L179.692,55L180.923,55L182.154,55L183.385,55L184.615,55L185.846,55L187.077,55L188.308,55L189.538,55L190.769,55L192,55L193.231,55L194.462,55L195.692,55L196.923,55L198.154,55.001L199.385,55.001L200.615,55.001L201.846,55.002L203.077,55.002L204.308,55.003L205.538,55.004L206.769,55.005L208,55.007L209.231,55.009L210.462,55.012L211.692,55.016L212.923,55.021L214.154,55.027L215.385,55.035L216.615,55.044L217.846,55.055L219.077,55.069L220.308,55.086L221.538,55.105L222.769,55.129L224,55.157L225.231,55.189L226.462,55.226L227.692,55.27L228.923,55.319L230.154,55.376L231.385,55.44L232.615,55.512L233.846,55.592L235.077,55.682L236.308,55.781L237.538,55.89L238.769,56.009L240,56.139L241.231,56.279L242.462,56.43L243.692,56.592L244.923,56.765L246.154,56.948L247.385,57.141L248.615,57.344L249.846,57.556L251.077,57.777L252.308,58.006L253.538,58.243L254.769,58.488L256,58.739L257.231,58.996L258.462,59.26L259.692,59.529L260.923,59.804L262.154,60.084L263.385,60.371L264.615,60.663L265.846,60.962L267.077,61.267L268.308,61.578L269.538,61.897L270.769,62.222L272,62.553L273.231,62.89L274.462,63.232L275.692,63.577L276.923,63.924L278.154,64.271L279.385,64.615L280.615,64.955L281.846,65.287L283.077,65.608L284.308,65.915L285.538,66.205L286.769,66.475L288,66.723L289.231,66.946L290.462,67.143L291.692,67.311L292.923,67.45L294.154,67.56L295.385,67.64L296.615,67.69L297.846,67.713L299.077,67.709L300.308,67.68L301.538,67.628L302.769,67.556L304,67.467L305.231,67.363L306.462,67.248L307.692,67.125L308.923,66.996L310.154,66.865L311.385,66.735L312.615,66.608L313.846,66.486L315.077,66.371L316.308,66.266L317.538,66.17L318.769,66.086L320,66.012L321.231,65.95L322.462,65.898L323.692,65.856L324.923,65.822L326.154,65.794L327.385,65.771L328.615,65.749L329.846,65.728L331.077,65.704L332.308,65.674L333.538,65.637L334.769,65.59L336,65.53L337.231,65.456L338.462,65.366L339.692,65.258L340.923,65.132L342.154,64.986L343.385,64.821L344.615,64.636L345.846,64.432L347.077,64.209L348.308,63.969L349.538,63.713L350.769,63.442L352,63.159L353.231,62.864L354.462,62.56L355.692,62.249L356.923,61.933L358.154,61.613L359.385,61.291L360.615,60.969L361.846,60.648L363.077,60.33L364.308,60.017L365.538,59.708L366.769,59.406L368,59.112L369.231,58.826L370.462,58.55L371.692,58.283L372.923,58.028L374.154,57.783L375.385,57.551L376.615,57.332L377.846,57.125L379.077,56.931L380.308,56.75L381.538,56.582L382.769,56.427L384,56.284L385.231,56.153L386.462,56.033L387.692,55.923L388.923,55.824L390.154,55.734L391.385,55.652L392.615,55.578L393.846,55.511L395.077,55.451L396.308,55.397L397.538,55.348L398.769,55.304L400,55.264L400,55.264L398.769,55.304L397.538,55.348L396.308,55.397L395.077,55.451L393.846,55.511L392.615,55.578L391.385,55.652L390.154,55.734L388.923,55.824L387.692,55.923L386.462,56.033L385.231,56.153L384,56.284L382.769,56.427L381.538,56.582L380.308,56.75L379.077,56.931L377.846,57.125L376.615,57.332L375.385,57.551L374.154,57.783L372.923,58.028L371.692,58.283L370.462,58.55L369.231,58.826L368,59.112L366.769,59.406L365.538,59.708L364.308,60.017L363.077,60.33L361.846,60.648L360.615,60.969L359.385,61.291L358.154,61.613L356.923,61.933L355.692,62.249L354.462,62.56L353.231,62.864L352,63.159L350.769,63.442L349.538,63.713L348.308,63.969L347.077,64.209L345.846,64.432L344.615,64.636L343.385,64.821L342.154,64.986L340.923,65.132L339.692,65.258L338.462,65.366L337.231,65.456L336,65.53L334.769,65.59L333.538,65.637L332.308,65.674L331.077,65.704L329.846,65.728L328.615,65.749L327.385,65.771L326.154,65.794L324.923,65.822L323.692,65.856L322.462,65.898L321.231,65.95L320,66.012L318.769,66.086L317.538,66.17L316.308,66.266L315.077,66.371L313.846,66.486L312.615,66.608L311.385,66.735L310.154,66.865L308.923,66.996L307.692,67.125L306.462,67.248L305.231,67.363L304,67.467L302.769,67.556L301.538,67.628L300.308,67.68L299.077,67.709L297.846,67.713L296.615,67.69L295.385,67.64L294.154,67.56L292.923,67.45L291.692,67.311L290.462,67.143L289.231,66.946L288,66.723L286.769,66.475L285.538,66.205L284.308,65.915L283.077,65.608L281.846,65.287L280.615,64.955L279.385,64.615L278.154,64.271L276.923,63.924L275.692,63.577L274.462,63.232L273.231,62.89L272,62.553L270.769,62.222L269.538,61.897L268.308,61.578L267.077,61.267L265.846,60.962L264.615,60.663L263.385,60.371L262.154,60.084L260.923,59.804L259.692,59.529L258.462,59.26L257.231,58.996L256,58.739L254.769,58.488L253.538,58.243L252.308,58.006L251.077,57.777L249.846,57.556L248.615,57.344L247.385,57.141L246.154,56.948L244.923,56.765L243.692,56.592L242.462,56.43L241.231,56.279L240,56.139L238.769,56.009L237.538,55.89L236.308,55.781L235.077,55.682L233.846,55.592L232.615,55.512L231.385,55.44L230.154,55.376L228.923,55.319L227.692,55.27L226.462,55.226L225.231,55.189L224,55.157L222.769,55.129L221.538,55.105L220.308,55.086L219.077,55.069L217.846,55.055L216.615,55.044L215.385,55.035L214.154,55.027L212.923,55.021L211.692,55.016L210.462,55.012L209.231,55.009L208,55.007L206.769,55.005L205.538,55.004L204.308,55.003L203.077,55.002L201.846,55.002L200.615,55.001L199.385,55.001L198.154,55.001L196.923,55L195.692,55L194.462,55L193.231,55L192,55L190.769,55L189.538,55L188.308,55L187.077,55L185.846,55L184.615,55L183.385,55L182.154,55L180.923,55L179.692,55L178.462,55L177.231,55L176,55L174.769,55L173.538,55L172.308,55L171.077,55L169.846,55L168.615,55L167.385,55L166.154,55L164.923,55L163.692,55L162.462,55L161.231,55L160,55L158.769,55L157.538,55L156.308,55L155.077,55L153.846,55Z" fill="#e45756"/></g></g><path class="foreground" aria-hidden="true" d="" display="none"/></g></g><g class="mark-group role-legend" role="graphics-symbol" aria-roledescription="legend" aria-label="Symbol legend titled 'Species' for fill color with 3 values: Adelie, Chinstrap, Gentoo"><g transform="translate(418,0)"><path class="background" aria-hidden="true" d="M0,0h65v53h-65Z" pointer-events="none"/><g><g class="mark-group role-legend-entry"><g transform="translate(0,16)"><path class="background" aria-hidden="true" d="M0,0h0v0h0Z" pointer-events="none"/><g><g class="mark-group role-scope" role="graphics-object" aria-roledescription="group mark container"><g transform="translate(0,0)"><path class="background" aria-hidden="true" d="M0,0h64.154296875v11h-64.154296875Z" pointer-events="none" opacity="1"/><g><g class="mark-symbol role-legend-symbol" pointer-events="none"><path transform="translate(6,6)" d="M5,0A5,5,0,1,1,-5,0A5,5,0,1,1,5,0" fill="#4c78a8" stroke-width="1.5" opacity="1"/></g><g class="mark-text role-legend-label" pointer-events="none"><text text-anchor="start" transform="translate(16,9)" font-family="sans-serif" font-size="10px" fill="#000" opacity="1">Adelie</text></g></g><path class="foreground" aria-hidden="true" d="" pointer-events="none" display="none"/></g><g transform="translate(0,13)"><path class="background" aria-hidden="true" d="M0,0h64.154296875v11h-64.154296875Z" pointer-events="none" opacity="1"/><g><g class="mark-symbol role-legend-symbol" pointer-events="none"><path transform="translate(6,6)" d="M5,0A5,5,0,1,1,-5,0A5,5,0,1,1,5,0" fill="#f58518" stroke-width="1.5" opacity="1"/></g><g class="mark-text role-legend-label" pointer-events="none"><text text-anchor="start" transform="translate(16,9)" font-family="sans-serif" font-size="10px" fill="#000" opacity="1">Chinstrap</text></g></g><path class="foreground" aria-hidden="true" d="" pointer-events="none" display="none"/></g><g transform="translate(0,26)"><path class="background" aria-hidden="true" d="M0,0h64.154296875v11h-64.154296875Z" pointer-events="none" opacity="1"/><g><g class="mark-symbol role-legend-symbol" pointer-events="none"><path transform="translate(6,6)" d="M5,0A5,5,0,1,1,-5,0A5,5,0,1,1,5,0" fill="#e45756" stroke-width="1.5" opacity="1"/></g><g class="mark-text role-legend-label" pointer-events="none"><text text-anchor="start" transform="translate(16,9)" font-family="sans-serif" font-size="10px" fill="#000" opacity="1">Gentoo</text></g></g><path class="foreground" aria-hidden="true" d="" pointer-events="none" display="none"/></g></g></g><path class="foreground" aria-hidden="true" d="" pointer-events="none" display="none"/></g></g><g class="mark-text role-legend-title" pointer-events="none"><text text-anchor="start" transform="translate(0,9)" font-family="sans-serif" font-size="11px" font-weight="bold" fill="#000" opacity="1">Species</text></g></g><path class="foreground" aria-hidden="true" d="" pointer-events="none" display="none"/></g></g><g class="mark-group role-title"><g transform="translate(200,-17)"><path class="background" aria-hidden="true" d="M0,0h0v0h0Z" pointer-events="none"/><g><g class="mark-text role-title-text" role="graphics-symbol" aria-roledescription="title" aria-label="Title text 'Distribution of Body Mass of Penguins'" pointer-events="none"><text text-anchor="middle" transform="translate(0,10)" font-family="sans-serif" font-size="13px" font-weight="bold" fill="#000" opacity="1">Distribution of Body Mass of Penguins</text></g></g><path class="foreground" aria-hidden="true" d="" pointer-events="none" display="none"/></g></g></g><path class="foreground" aria-hidden="true" d="" display="none"/></g></g></g></svg>