<svg class="marks" width="393" height="245" viewBox="0 0 393 245" version="1.1" xmlns="http://www.w3.org/2000/svg" xmlns:xlink="http://www.w3.org/1999/xlink"><g transform="translate(78,5)"><g class="mark-group role-frame root"><g transform="translate(0,0)"><path class="background" d="M0.5,0.5h300v200h-300Z" style="fill: none; stroke: #ddd;"></path><g><g class="mark-group role-axis"><g transform="translate(0.5,200.5)"><path class="background" d="M0,0h0v0h0Z" style="pointer-events: none; fill: none;"></path><g><g class="mark-rule role-axis-grid" style="pointer-events: none;"><line transform="translate(5,-200)" x2="0" y2="200" style="fill: none; stroke: #ddd; stroke-width: 1; opacity: 1;"></line><line transform="translate(34,-200)" x2="0" y2="200" style="fill: none; stroke: #ddd; stroke-width: 1; opacity: 1;"></line><line transform="translate(63,-200)" x2="0" y2="200" style="fill: none; stroke: #ddd; stroke-width: 1; opacity: 1;"></line><line transform="translate(91,-200)" x2="0" y2="200" style="fill: none; stroke: #ddd; stroke-width: 1; opacity: 1;"></line><line transform="translate(120,-200)" x2="0" y2="200" style="fill: none; stroke: #ddd; stroke-width: 1; opacity: 1;"></line><line transform="translate(149,-200)" x2="0" y2="200" style="fill: none; stroke: #ddd; stroke-width: 1; opacity: 1;"></line><line transform="translate(178,-200)" x2="0" y2="200" style="fill: none; stroke: #ddd; stroke-width: 1; opacity: 1;"></line><line transform="translate(206,-200)" x2="0" y2="200" style="fill: none; stroke: #ddd; stroke-width: 1; opacity: 1;"></line><line transform="translate(235,-200)" x2="0" y2="200" style="fill: none; stroke: #ddd; stroke-width: 1; opacity: 1;"></line><line transform="translate(264,-200)" x2="0" y2="200" style="fill: none; stroke: #ddd; stroke-width: 1; opacity: 1;"></line><line transform="translate(293,-200)" x2="0" y2="200" style="fill: none; stroke: #ddd; stroke-width: 1; opacity: 1;"></line></g></g></g></g><g class="mark-group role-axis"><g transform="translate(0.5,0.5)"><path class="background" d="M0,0h0v0h0Z" style="pointer-events: none; fill: none;"></path><g><g class="mark-rule role-axis-grid" style="pointer-events: none;"><line transform="translate(0,200)" x2="300" y2="0" style="fill: none; stroke: #ddd; stroke-width: 1; opacity: 1;"></line><line transform="translate(0,138)" x2="300" y2="0" style="fill: none; stroke: #ddd; stroke-width: 1; opacity: 1;"></line><line transform="translate(0,75)" x2="300" y2="0" style="fill: none; stroke: #ddd; stroke-width: 1; opacity: 1;"></line><line transform="translate(0,13)" x2="300" y2="0" style="fill: none; stroke: #ddd; stroke-width: 1; opacity: 1;"></line></g></g></g></g><g class="mark-area role-mark marks"><path d="M295.00000000016706,12.650000000000006L292.5597176983261,10.9375L290.11943539648513,28.8125L287.75459192924404,34.88750000000002L285.3143096274031,31.349999999999994L282.95274610949247,32.375L280.5124638076515,29.862499999999983L278.07218150581053,27.13749999999999L275.7106179879,29.125L273.270335686059,37.27499999999998L270.9087721681484,44.23749999999998L268.47176981563786,35.625L266.26764386558796,39.125L263.827361563747,45.70000000000002L261.387079261906,70.9L259.02223579466494,83.47500000000001L256.58195349282397,91.4375L254.22038997491342,95.01250000000002L251.78010767307245,92.9L249.33982537123148,96.3875L246.97826185332084,102.53750000000001L244.53797955147988,108.96249999999999L242.17641603356927,115.71249999999999L239.73941368105875,107.19999999999999L237.4565689470785,107.375L235.01628664523753,104.5L232.57600434339653,114.8L230.21116087615553,121.3125L227.77087857431457,123.625L225.40931505640395,121.2375L222.969032754563,119.475L220.52875045272202,115.9125L218.16718693481138,120.4875L215.72690463297042,125.53750000000001L213.36534111505983,125.1L210.9283387625493,120.175L208.72421281249942,113.6875L206.28393051065845,111.08749999999999L203.84364820881748,124.7375L201.48208469090687,124.6625L199.03852243973546,128.35L196.67695892182485,124.58749999999999L194.23667661998388,120.19999999999999L191.79639431814294,116.03750000000001L189.43483080023233,120.0875L186.99454849839137,123.28750000000001L184.63626492981118,121.45L182.1959826279702,116.14999999999999L179.9918566779203,111.2125L177.55157437607934,111.575L175.11129207423838,119.27499999999999L172.74972855632774,116.975L170.30616630515638,120.35L167.94460278724577,116.475L165.5043204854048,116.9L163.06403818356384,113.03750000000001L160.70247466565323,113.575L158.26219236381226,117.7375L155.90390879523207,116.825L153.4636264933911,107.9375L151.2595005433412,100.9375L148.81921824150024,101.2125L146.37893593965927,111.8625L144.01737242174866,112.38749999999999L141.57381017057727,114.275L139.21224665266666,113.85L136.7719643508257,110.28750000000001L134.33168204898473,105.875L131.97011853107412,104.27499999999999L129.52983622923315,111.4L127.17155266065298,109.3875L124.73127035881201,96.55L122.44842562483176,97.2875L120.0081433229908,93.075L117.56786102114984,107.39999999999999L115.20629750323921,103.60000000000001L112.76273525206783,105.0625L110.40117173415722,102.51249999999999L107.96088943231625,98.475L105.52060713047528,95.35L103.15904361256469,91.625L100.71876131072372,101.47500000000001L98.36047774214353,100.94999999999999L95.92019544030256,94.30000000000001L93.71606949025266,90.2625L91.2757871884117,89.0875L88.83550488657075,102.55L86.47394136866014,104.71249999999999L84.03037911748872,108.28750000000001L81.66881559957812,108.85000000000001L79.22853329773716,104.83749999999999L76.78825099589619,101.02499999999999L74.42668747798558,100.7625L71.98640517614461,106.5125L69.62812160756444,102.7625L67.18783930572347,96.30000000000001L64.98371335567357,94.96249999999999L62.543431053832606,92.10000000000001L60.10314875199165,107.75L57.74158523408103,110.5125L55.298022982909636,115.75L52.936459464999025,120.875L50.49617716315806,118.75L48.0558948613171,122.2625L45.69433134340649,123.58749999999999L43.254049041565516,131.95L40.89576547298534,130.10000000000002L38.45548317114438,122.89999999999999L36.25135722109447,122.6375L33.81107491925351,121.7125L31.370792617412548,138.8875L29.009229099501937,138.075L26.56566684833054,140.175L24.20410333041993,137.8125L21.763821028578967,133.3L19.323538726738,132.39999999999998L16.96197520882739,133.55L14.521692906986427,137.4L12.163409338406248,139.4375L9.723127036565284,128.975L7.440282302585027,126L5.0000000007440635,125.325L5.0000000007440635,200L7.440282302585027,200L9.723127036565284,200L12.163409338406248,200L14.521692906986427,200L16.96197520882739,200L19.323538726738,200L21.763821028578967,200L24.20410333041993,200L26.56566684833054,200L29.009229099501937,200L31.370792617412548,200L33.81107491925351,200L36.25135722109447,200L38.45548317114438,200L40.89576547298534,200L43.254049041565516,200L45.69433134340649,200L48.0558948613171,200L50.49617716315806,200L52.936459464999025,200L55.298022982909636,200L57.74158523408103,200L60.10314875199165,200L62.543431053832606,200L64.98371335567357,200L67.18783930572347,200L69.62812160756444,200L71.98640517614461,200L74.42668747798558,200L76.78825099589619,200L79.22853329773716,200L81.66881559957812,200L84.03037911748872,200L86.47394136866014,200L88.83550488657075,200L91.2757871884117,200L93.71606949025266,200L95.92019544030256,200L98.36047774214353,200L100.71876131072372,200L103.15904361256469,200L105.52060713047528,200L107.96088943231625,200L110.40117173415722,200L112.76273525206783,200L115.20629750323921,200L117.56786102114984,200L120.0081433229908,200L122.44842562483176,200L124.73127035881201,200L127.17155266065298,200L129.52983622923315,200L131.97011853107412,200L134.33168204898473,200L136.7719643508257,200L139.21224665266666,200L141.57381017057727,200L144.01737242174866,200L146.37893593965927,200L148.81921824150024,200L151.2595005433412,200L153.4636264933911,200L155.90390879523207,200L158.26219236381226,200L160.70247466565323,200L163.06403818356384,200L165.5043204854048,200L167.94460278724577,200L170.30616630515638,200L172.74972855632774,200L175.11129207423838,200L177.55157437607934,200L179.9918566779203,200L182.1959826279702,200L184.63626492981118,200L186.99454849839137,200L189.43483080023233,200L191.79639431814294,200L194.23667661998388,200L196.67695892182485,200L199.03852243973546,200L201.48208469090687,200L203.84364820881748,200L206.28393051065845,200L208.72421281249942,200L210.9283387625493,200L213.36534111505983,200L215.72690463297042,200L218.16718693481138,200L220.52875045272202,200L222.969032754563,200L225.40931505640395,200L227.77087857431457,200L230.21116087615553,200L232.57600434339653,200L235.01628664523753,200L237.4565689470785,200L239.73941368105875,200L242.17641603356927,200L244.53797955147988,200L246.97826185332084,200L249.33982537123148,200L251.78010767307245,200L254.22038997491342,200L256.58195349282397,200L259.02223579466494,200L261.387079261906,200L263.827361563747,200L266.26764386558796,200L268.47176981563786,200L270.9087721681484,200L273.270335686059,200L275.7106179879,200L278.07218150581053,200L280.5124638076515,200L282.95274610949247,200L285.3143096274031,200L287.75459192924404,200L290.11943539648513,200L292.5597176983261,200L295.00000000016706,200Z" style="fill: #4c78a8;"></path></g><g class="mark-group role-axis"><g transform="translate(0.5,200.5)"><path class="background" d="M0,0h0v0h0Z" style="pointer-events: none; fill: none;"></path><g><g class="mark-rule role-axis-tick" style="pointer-events: none;"><line transform="translate(5,0)" x2="0" y2="5" style="fill: none; stroke: #888; stroke-width: 1; opacity: 1;"></line><line transform="translate(34,0)" x2="0" y2="5" style="fill: none; stroke: #888; stroke-width: 1; opacity: 1;"></line><line transform="translate(63,0)" x2="0" y2="5" style="fill: none; stroke: #888; stroke-width: 1; opacity: 1;"></line><line transform="translate(91,0)" x2="0" y2="5" style="fill: none; stroke: #888; stroke-width: 1; opacity: 1;"></line><line transform="translate(120,0)" x2="0" y2="5" style="fill: none; stroke: #888; stroke-width: 1; opacity: 1;"></line><line transform="translate(149,0)" x2="0" y2="5" style="fill: none; stroke: #888; stroke-width: 1; opacity: 1;"></line><line transform="translate(178,0)" x2="0" y2="5" style="fill: none; stroke: #888; stroke-width: 1; opacity: 1;"></line><line transform="translate(206,0)" x2="0" y2="5" style="fill: none; stroke: #888; stroke-width: 1; opacity: 1;"></line><line transform="translate(235,0)" x2="0" y2="5" style="fill: none; stroke: #888; stroke-width: 1; opacity: 1;"></line><line transform="translate(264,0)" x2="0" y2="5" style="fill: none; stroke: #888; stroke-width: 1; opacity: 1;"></line><line transform="translate(293,0)" x2="0" y2="5" style="fill: none; stroke: #888; stroke-width: 1; opacity: 1;"></line></g><g class="mark-text role-axis-label" style="pointer-events: none;"><text text-anchor="middle" transform="translate(5.0000000007440635,15)" style="font-family: sans-serif; font-size: 10px; fill: #000; opacity: 1;">2000</text><text text-anchor="middle" transform="translate(33.81107491925351,15)" style="font-family: sans-serif; font-size: 10px; fill: #000; opacity: 0;">2001</text><text text-anchor="middle" transform="translate(62.543431053832606,15)" style="font-family: sans-serif; font-size: 10px; fill: #000; opacity: 1;">2002</text><text text-anchor="middle" transform="translate(91.2757871884117,15)" style="font-family: sans-serif; font-size: 10px; fill: #000; opacity: 0;">2003</text><text text-anchor="middle" transform="translate(120.0081433229908,15)" style="font-family: sans-serif; font-size: 10px; fill: #000; opacity: 1;">2004</text><text text-anchor="middle" transform="translate(148.81921824150024,15)" style="font-family: sans-serif; font-size: 10px; fill: #000; opacity: 0;">2005</text><text text-anchor="middle" transform="translate(177.55157437607934,15)" style="font-family: sans-serif; font-size: 10px; fill: #000; opacity: 1;">2006</text><text text-anchor="middle" transform="translate(206.28393051065845,15)" style="font-family: sans-serif; font-size: 10px; fill: #000; opacity: 0;">2007</text><text text-anchor="middle" transform="translate(235.01628664523753,15)" style="font-family: sans-serif; font-size: 10px; fill: #000; opacity: 1;">2008</text><text text-anchor="middle" transform="translate(263.827361563747,15)" style="font-family: sans-serif; font-size: 10px; fill: #000; opacity: 0;">2009</text><text text-anchor="middle" transform="translate(292.5597176983261,15)" style="font-family: sans-serif; font-size: 10px; fill: #000; opacity: 1;">2010</text></g><g class="mark-rule role-axis-domain" style="pointer-events: none;"><line transform="translate(0,0)" x2="300" y2="0" style="fill: none; stroke: #888; stroke-width: 1; opacity: 1;"></line></g><g class="mark-text role-axis-title" style="pointer-events: none;"><text text-anchor="middle" transform="translate(150,31)" style="font-family: sans-serif; font-size: 11px; font-weight: bold; fill: #000; opacity: 1;">date (year-month)</text></g></g></g></g><g class="mark-group role-axis"><g transform="translate(0.5,0.5)"><path class="background" d="M0,0h0v0h0Z" style="pointer-events: none; fill: none;"></path><g><g class="mark-rule role-axis-tick" style="pointer-events: none;"><line transform="translate(0,200)" x2="-5" y2="0" style="fill: none; stroke: #888; stroke-width: 1; opacity: 1;"></line><line transform="translate(0,138)" x2="-5" y2="0" style="fill: none; stroke: #888; stroke-width: 1; opacity: 1;"></line><line transform="translate(0,75)" x2="-5" y2="0" style="fill: none; stroke: #888; stroke-width: 1; opacity: 1;"></line><line transform="translate(0,13)" x2="-5" y2="0" style="fill: none; stroke: #888; stroke-width: 1; opacity: 1;"></line></g><g class="mark-text role-axis-label" style="pointer-events: none;"><text text-anchor="end" transform="translate(-7,203)" style="font-family: sans-serif; font-size: 10px; fill: #000; opacity: 1;">0</text><text text-anchor="end" transform="translate(-7,140.5)" style="font-family: sans-serif; font-size: 10px; fill: #000; opacity: 1;">5,000</text><text text-anchor="end" transform="translate(-7,78)" style="font-family: sans-serif; font-size: 10px; fill: #000; opacity: 1;">10,000</text><text text-anchor="end" transform="translate(-7,15.5)" style="font-family: sans-serif; font-size: 10px; fill: #000; opacity: 1;">15,000</text></g><g class="mark-rule role-axis-domain" style="pointer-events: none;"><line transform="translate(0,200)" x2="0" y2="-200" style="fill: none; stroke: #888; stroke-width: 1; opacity: 1;"></line></g><g class="mark-text role-axis-title" style="pointer-events: none;"><text text-anchor="middle" transform="translate(-60,100) rotate(-90) translate(0,-2)" style="font-family: sans-serif; font-size: 11px; font-weight: bold; fill: #000; opacity: 1;">count</text></g></g></g></g></g></g></g></g></svg>