<svg xmlns="http://www.w3.org/2000/svg" xmlns:xlink="http://www.w3.org/1999/xlink" version="1.1" class="marks" width="531" height="139" viewBox="0 0 531 139"><rect width="531" height="139" fill="white"/><g fill="none" stroke-miterlimit="10" transform="translate(43,22)"><g class="mark-group role-frame root" role="graphics-object" aria-roledescription="group mark container"><g transform="translate(0,0)"><path class="background" aria-hidden="true" d="M0.5,0.5h400v80h-400Z" stroke="#ddd"/><g><g class="mark-group role-axis" aria-hidden="true"><g transform="translate(0.5,80.5)"><path class="background" aria-hidden="true" d="M0,0h0v0h0Z" pointer-events="none"/><g><g class="mark-rule role-axis-grid" pointer-events="none"><line transform="translate(0,-80)" x2="0" y2="80" stroke="#ddd" stroke-width="1" opacity="1"/><line transform="translate(50,-80)" x2="0" y2="80" stroke="#ddd" stroke-width="1" opacity="1"/><line transform="translate(100,-80)" x2="0" y2="80" stroke="#ddd" stroke-width="1" opacity="1"/><line transform="translate(150,-80)" x2="0" y2="80" stroke="#ddd" stroke-width="1" opacity="1"/><line transform="translate(200,-80)" x2="0" y2="80" stroke="#ddd" stroke-width="1" opacity="1"/><line transform="translate(250,-80)" x2="0" y2="80" stroke="#ddd" stroke-width="1" opacity="1"/><line transform="translate(300,-80)" x2="0" y2="80" stroke="#ddd" stroke-width="1" opacity="1"/><line transform="translate(350,-80)" x2="0" y2="80" stroke="#ddd" stroke-width="1" opacity="1"/><line transform="translate(400,-80)" x2="0" y2="80" stroke="#ddd" stroke-width="1" opacity="1"/></g></g><path class="foreground" aria-hidden="true" d="" pointer-events="none" display="none"/></g></g><g class="mark-group role-axis" aria-hidden="true"><g transform="translate(0.5,0.5)"><path class="background" aria-hidden="true" d="M0,0h0v0h0Z" pointer-events="none"/><g><g class="mark-rule role-axis-grid" pointer-events="none"><line transform="translate(0,80)" x2="400" y2="0" stroke="#ddd" stroke-width="1" opacity="1"/><line transform="translate(0,30)" x2="400" y2="0" stroke="#ddd" stroke-width="1" opacity="1"/></g></g><path class="foreground" aria-hidden="true" d="" pointer-events="none" display="none"/></g></g><g class="mark-group role-axis" role="graphics-symbol" aria-roledescription="axis" aria-label="X-axis titled 'Body Mass (g)' for a linear scale with values from 2,500 to 6,500"><g transform="translate(0.5,80.5)"><path class="background" aria-hidden="true" d="M0,0h0v0h0Z" pointer-events="none"/><g><g class="mark-rule role-axis-tick" pointer-events="none"><line transform="translate(0,0)" x2="0" y2="5" stroke="#888" stroke-width="1" opacity="1"/><line transform="translate(50,0)" x2="0" y2="5" stroke="#888" stroke-width="1" opacity="1"/><line transform="translate(100,0)" x2="0" y2="5" stroke="#888" stroke-width="1" opacity="1"/><line transform="translate(150,0)" x2="0" y2="5" stroke="#888" stroke-width="1" opacity="1"/><line transform="translate(200,0)" x2="0" y2="5" stroke="#888" stroke-width="1" opacity="1"/><line transform="translate(250,0)" x2="0" y2="5" stroke="#888" stroke-width="1" opacity="1"/><line transform="translate(300,0)" x2="0" y2="5" stroke="#888" stroke-width="1" opacity="1"/><line transform="translate(350,0)" x2="0" y2="5" stroke="#888" stroke-width="1" opacity="1"/><line transform="translate(400,0)" x2="0" y2="5" stroke="#888" stroke-width="1" opacity="1"/></g><g class="mark-text role-axis-label" pointer-events="none"><text text-anchor="start" transform="translate(0,15)" font-family="sans-serif" font-size="10px" fill="#000" opacity="1">2,500</text><text text-anchor="middle" transform="translate(50,15)" font-family="sans-serif" font-size="10px" fill="#000" opacity="1">3,000</text><text text-anchor="middle" transform="translate(100,15)" font-family="sans-serif" font-size="10px" fill="#000" opacity="1">3,500</text><text text-anchor="middle" transform="translate(150,15)" font-family="sans-serif" font-size="10px" fill="#000" opacity="1">4,000</text><text text-anchor="middle" transform="translate(200,15)" font-family="sans-serif" font-size="10px" fill="#000" opacity="1">4,500</text><text text-anchor="middle" transform="translate(250,15)" font-family="sans-serif" font-size="10px" fill="#000" opacity="1">5,000</text><text text-anchor="middle" transform="translate(300,15)" font-family="sans-serif" font-size="10px" fill="#000" opacity="1">5,500</text><text text-anchor="middle" transform="translate(350,15)" font-family="sans-serif" font-size="10px" fill="#000" opacity="1">6,000</text><text text-anchor="end" transform="translate(400,15)" font-family="sans-serif" font-size="10px" fill="#000" opacity="1">6,500</text></g><g class="mark-rule role-axis-domain" pointer-events="none"><line transform="translate(0,0)" x2="400" y2="0" stroke="#888" stroke-width="1" opacity="1"/></g><g class="mark-text role-axis-title" pointer-events="none"><text text-anchor="middle" transform="translate(200,30)" font-family="sans-serif" font-size="11px" font-weight="bold" fill="#000" opacity="1">Body Mass (g)</text></g></g><path class="foreground" aria-hidden="true" d="" pointer-events="none" display="none"/></g></g><g class="mark-group role-axis" role="graphics-symbol" aria-roledescription="axis" aria-label="Y-axis titled 'density' for a linear scale with values from 0.00 to 0.16"><g transform="translate(0.5,0.5)"><path class="background" aria-hidden="true" d="M0,0h0v0h0Z" pointer-events="none"/><g><g class="mark-rule role-axis-tick" pointer-events="none"><line transform="translate(0,80)" x2="-5" y2="0" stroke="#888" stroke-width="1" opacity="1"/><line transform="translate(0,30)" x2="-5" y2="0" stroke="#888" stroke-width="1" opacity="1"/></g><g class="mark-text role-axis-label" pointer-events="none"><text text-anchor="end" transform="translate(-7,83)" font-family="sans-serif" font-size="10px" fill="#000" opacity="1">0.0</text><text text-anchor="end" transform="translate(-7,33)" font-family="sans-serif" font-size="10px" fill="#000" opacity="1">0.1</text></g><g class="mark-rule role-axis-domain" pointer-events="none"><line transform="translate(0,80)" x2="0" y2="-80" stroke="#888" stroke-width="1" opacity="1"/></g><g class="mark-text role-axis-title" pointer-events="none"><text text-anchor="middle" transform="translate(-26.9033203125,40) rotate(-90) translate(0,-2)" font-family="sans-serif" font-size="11px" font-weight="bold" fill="#000" opacity="1">density</text></g></g><path class="foreground" aria-hidden="true" d="" pointer-events="none" display="none"/></g></g><g class="mark-group role-scope pathgroup" role="graphics-object" aria-roledescription="group mark container"><g transform="translate(0,0)"><path class="background" aria-hidden="true" d="M0,0h400v80h-400Z"/><g><g class="mark-area role-mark marks" role="graphics-object" aria-roledescription="area mark container"><path aria-label="Body Mass (g): 2500; density: 0.000010403897536; Species: Adelie" role="graphics-symbol" aria-roledescription="area mark" d="M0,30.269L2,30.262L4,30.253L6,30.243L8,30.23L10,30.213L12,30.194L14,30.17L16,30.141L18,30.108L20,30.068L22,30.022L24,29.97L26,29.909L28,29.841L30,29.765L32,29.679L34,29.584L36,29.48L38,29.366L40,29.242L42,29.108L44,28.963L46,28.809L48,28.643L50,28.468L52,28.282L54,28.086L56,27.879L58,27.662L60,27.434L62,27.197L64,26.948L66,26.69L68,26.421L70,26.143L72,25.854L74,25.555L76,25.247L78,24.929L80,24.602L82,24.267L84,23.923L86,23.572L88,23.214L90,22.85L92,22.481L94,22.106L96,21.728L98,21.346L100,20.962L102,20.576L104,20.189L106,19.802L108,19.414L110,19.027L112,18.641L114,18.257L116,17.874L118,17.493L120,17.115L122,16.739L124,16.367L126,15.999L128,15.635L130,15.275L132,14.921L134,14.572L136,14.229L138,13.894L140,13.565L142,13.244L144,12.931L146,12.625L148,12.329L150,12.04L152,11.759L154,11.487L156,11.222L158,10.965L160,10.716L162,10.473L164,10.237L166,10.007L168,9.783L170,9.565L172,9.353L174,9.147L176,8.946L178,8.751L180,8.561L182,8.378L184,8.2L186,8.029L188,7.863L190,7.704L192,7.552L194,7.405L196,7.265L198,7.131L200,7.004L202,6.882L204,6.766L206,6.656L208,6.552L210,6.454L212,6.36L214,6.272L216,6.189L218,6.112L220,6.039L222,5.972L224,5.91L226,5.853L228,5.8L230,5.753L232,5.71L234,5.671L236,5.637L238,5.607L240,5.581L242,5.559L244,5.539L246,5.523L248,5.509L250,5.498L252,5.488L254,5.481L256,5.474L258,5.47L260,5.466L262,5.463L264,5.46L266,5.459L268,5.457L270,5.456L272,5.456L274,5.455L276,5.455L278,5.454L280,5.454L282,5.454L284,5.454L286,5.454L288,5.454L290,5.454L292,5.454L294,5.454L296,5.454L298,5.454L300,5.454L302,5.454L304,5.454L306,5.454L308,5.454L310,5.454L312,5.454L314,5.454L316,5.454L318,5.454L320,5.454L322,5.454L324,5.454L326,5.454L328,5.454L330,5.454L332,5.454L334,5.454L336,5.454L338,5.454L340,5.454L342,5.454L344,5.454L346,5.454L348,5.454L350,5.454L352,5.454L354,5.454L356,5.454L358,5.454L360,5.454L362,5.454L364,5.454L366,5.454L368,5.454L370,5.454L372,5.454L374,5.454L376,5.454L378,5.454L380,5.454L382,5.454L384,5.454L386,5.454L388,5.454L390,5.454L392,5.454L394,5.454L396,5.454L398,5.454L400,5.454L400,5.454L398,5.454L396,5.454L394,5.454L392,5.454L390,5.454L388,5.454L386,5.454L384,5.454L382,5.454L380,5.454L378,5.454L376,5.454L374,5.454L372,5.454L370,5.454L368,5.454L366,5.454L364,5.454L362,5.454L360,5.454L358,5.454L356,5.454L354,5.454L352,5.454L350,5.454L348,5.454L346,5.454L344,5.454L342,5.454L340,5.454L338,5.454L336,5.454L334,5.454L332,5.454L330,5.454L328,5.454L326,5.454L324,5.454L322,5.454L320,5.454L318,5.454L316,5.454L314,5.454L312,5.454L310,5.454L308,5.454L306,5.454L304,5.454L302,5.454L300,5.454L298,5.454L296,5.454L294,5.454L292,5.454L290,5.454L288,5.454L286,5.454L284,5.454L282,5.454L280,5.454L278,5.455L276,5.455L274,5.456L272,5.456L270,5.457L268,5.459L266,5.46L264,5.463L262,5.466L260,5.47L258,5.474L256,5.481L254,5.488L252,5.498L250,5.509L248,5.523L246,5.539L244,5.559L242,5.581L240,5.607L238,5.637L236,5.671L234,5.71L232,5.753L230,5.8L228,5.853L226,5.91L224,5.972L222,6.039L220,6.112L218,6.189L216,6.272L214,6.36L212,6.454L210,6.552L208,6.656L206,6.766L204,6.882L202,7.004L200,7.131L198,7.265L196,7.405L194,7.552L192,7.704L190,7.863L188,8.029L186,8.2L184,8.378L182,8.561L180,8.751L178,8.946L176,9.147L174,9.353L172,9.565L170,9.783L168,10.007L166,10.237L164,10.473L162,10.716L160,10.965L158,11.222L156,11.487L154,11.759L152,12.04L150,12.329L148,12.625L146,12.931L144,13.244L142,13.565L140,13.894L138,14.229L136,14.572L134,14.921L132,15.275L130,15.635L128,15.999L126,16.367L124,16.739L122,17.115L120,17.493L118,17.874L116,18.257L114,18.641L112,19.027L110,19.414L108,19.802L106,20.189L104,20.576L102,20.962L100,21.346L98,21.728L96,22.106L94,22.481L92,22.85L90,23.214L88,23.572L86,23.923L84,24.267L82,24.602L80,24.929L78,25.247L76,25.555L74,25.854L72,26.143L70,26.421L68,26.69L66,26.948L64,27.197L62,27.434L60,27.662L58,27.879L56,28.086L54,28.282L52,28.468L50,28.643L48,28.809L46,28.963L44,29.108L42,29.242L40,29.366L38,29.48L36,29.584L34,29.679L32,29.765L30,29.841L28,29.909L26,29.97L24,30.022L22,30.068L20,30.108L18,30.141L16,30.17L14,30.194L12,30.213L10,30.23L8,30.243L6,30.253L4,30.262L2,30.269L0,30.274Z" fill="#4c78a8"/></g></g><path class="foreground" aria-hidden="true" d="" display="none"/></g><g transform="translate(0,0)"><path class="background" aria-hidden="true" d="M0,0h400v80h-400Z"/><g><g class="mark-area role-mark marks" role="graphics-object" aria-roledescription="area mark container"><path aria-label="Body Mass (g): 2500; density: 0.000018097612155; Species: Chinstrap" role="graphics-symbol" aria-roledescription="area mark" d="M0,55.23L2,55.219L4,55.206L6,55.192L8,55.176L10,55.158L12,55.137L14,55.115L16,55.091L18,55.065L20,55.038L22,55.01L24,54.98L26,54.949L28,54.917L30,54.884L32,54.851L34,54.817L36,54.782L38,54.746L40,54.708L42,54.668L44,54.625L46,54.578L48,54.526L50,54.468L52,54.403L54,54.328L56,54.242L58,54.144L60,54.032L62,53.903L64,53.758L66,53.593L68,53.409L70,53.205L72,52.98L74,52.734L76,52.468L78,52.181L80,51.874L82,51.548L84,51.205L86,50.844L88,50.466L90,50.073L92,49.665L94,49.243L96,48.807L98,48.359L100,47.897L102,47.424L104,46.939L106,46.444L108,45.94L110,45.427L112,44.908L114,44.383L116,43.856L118,43.327L120,42.8L122,42.275L124,41.756L126,41.244L128,40.741L130,40.249L132,39.768L134,39.3L136,38.846L138,38.405L140,37.979L142,37.567L144,37.169L146,36.786L148,36.418L150,36.065L152,35.726L154,35.403L156,35.094L158,34.802L160,34.524L162,34.262L164,34.015L166,33.782L168,33.564L170,33.359L172,33.167L174,32.987L176,32.817L178,32.657L180,32.506L182,32.362L184,32.225L186,32.095L188,31.97L190,31.85L192,31.735L194,31.625L196,31.52L198,31.419L200,31.324L202,31.234L204,31.15L206,31.07L208,30.997L210,30.928L212,30.865L214,30.806L216,30.753L218,30.703L220,30.658L222,30.616L224,30.578L226,30.543L228,30.511L230,30.481L232,30.454L234,30.43L236,30.408L238,30.387L240,30.369L242,30.353L244,30.339L246,30.327L248,30.317L250,30.308L252,30.301L254,30.295L256,30.29L258,30.286L260,30.283L262,30.28L264,30.279L266,30.277L268,30.276L270,30.275L272,30.275L274,30.275L276,30.274L278,30.274L280,30.274L282,30.274L284,30.274L286,30.274L288,30.274L290,30.274L292,30.274L294,30.274L296,30.274L298,30.274L300,30.274L302,30.274L304,30.274L306,30.274L308,30.274L310,30.274L312,30.274L314,30.274L316,30.274L318,30.274L320,30.274L322,30.274L324,30.274L326,30.274L328,30.274L330,30.274L332,30.274L334,30.274L336,30.274L338,30.274L340,30.274L342,30.274L344,30.274L346,30.274L348,30.274L350,30.274L352,30.274L354,30.274L356,30.274L358,30.274L360,30.274L362,30.274L364,30.274L366,30.274L368,30.274L370,30.274L372,30.274L374,30.274L376,30.274L378,30.274L380,30.274L382,30.274L384,30.274L386,30.274L388,30.274L390,30.274L392,30.274L394,30.274L396,30.274L398,30.274L400,30.274L400,30.274L398,30.274L396,30.274L394,30.274L392,30.274L390,30.274L388,30.274L386,30.274L384,30.274L382,30.274L380,30.274L378,30.274L376,30.274L374,30.274L372,30.274L370,30.274L368,30.274L366,30.274L364,30.274L362,30.274L360,30.274L358,30.274L356,30.274L354,30.274L352,30.274L350,30.274L348,30.274L346,30.274L344,30.274L342,30.274L340,30.274L338,30.274L336,30.274L334,30.274L332,30.274L330,30.274L328,30.274L326,30.274L324,30.274L322,30.274L320,30.274L318,30.274L316,30.274L314,30.274L312,30.274L310,30.274L308,30.274L306,30.274L304,30.274L302,30.274L300,30.274L298,30.274L296,30.274L294,30.274L292,30.274L290,30.274L288,30.274L286,30.274L284,30.274L282,30.274L280,30.274L278,30.274L276,30.275L274,30.275L272,30.275L270,30.276L268,30.277L266,30.279L264,30.28L262,30.283L260,30.286L258,30.29L256,30.295L254,30.301L252,30.308L250,30.317L248,30.327L246,30.339L244,30.353L242,30.369L240,30.387L238,30.408L236,30.43L234,30.454L232,30.481L230,30.511L228,30.543L226,30.578L224,30.616L222,30.658L220,30.703L218,30.753L216,30.806L214,30.865L212,30.928L210,30.997L208,31.07L206,31.15L204,31.234L202,31.324L200,31.419L198,31.52L196,31.625L194,31.735L192,31.85L190,31.97L188,32.095L186,32.225L184,32.362L182,32.506L180,32.657L178,32.817L176,32.987L174,33.167L172,33.359L170,33.564L168,33.782L166,34.015L164,34.262L162,34.524L160,34.802L158,35.094L156,35.403L154,35.726L152,36.065L150,36.418L148,36.786L146,37.169L144,37.567L142,37.979L140,38.405L138,38.846L136,39.3L134,39.768L132,40.249L130,40.741L128,41.244L126,41.756L124,42.275L122,42.8L120,43.327L118,43.856L116,44.383L114,44.908L112,45.427L110,45.94L108,46.444L106,46.939L104,47.424L102,47.897L100,48.359L98,48.807L96,49.243L94,49.665L92,50.073L90,50.466L88,50.844L86,51.205L84,51.548L82,51.874L80,52.181L78,52.468L76,52.734L74,52.98L72,53.205L70,53.409L68,53.593L66,53.758L64,53.903L62,54.032L60,54.144L58,54.242L56,54.328L54,54.403L52,54.468L50,54.526L48,54.578L46,54.625L44,54.668L42,54.708L40,54.746L38,54.782L36,54.817L34,54.851L32,54.884L30,54.917L28,54.949L26,54.98L24,55.01L22,55.038L20,55.065L18,55.091L16,55.115L14,55.137L12,55.158L10,55.176L8,55.192L6,55.206L4,55.219L2,55.23L0,55.239Z" fill="#f58518"/></g></g><path class="foreground" aria-hidden="true" d="" display="none"/></g><g transform="translate(0,0)"><path class="background" aria-hidden="true" d="M0,0h400v80h-400Z"/><g><g class="mark-area role-mark marks" role="graphics-object" aria-roledescription="area mark container"><path aria-label="Body Mass (g): 2500; density: 1.60574227996e-16; Species: Gentoo" role="graphics-symbol" aria-roledescription="area mark" d="M0,80L2,80L4,80L6,80L8,80L10,80L12,80L14,80L16,80L18,80L20,80L22,80L24,80L26,80L28,80L30,80L32,80L34,80L36,80L38,80L40,80L42,80L44,80L46,80L48,80L50,80L52,80L54,80L56,80L58,80L60,80L62,80L64,80L66,80L68,80L70,80L72,80L74,80L76,80L78,80L80,80L82,80L84,80L86,79.999L88,79.999L90,79.999L92,79.999L94,79.998L96,79.998L98,79.997L100,79.996L102,79.995L104,79.993L106,79.992L108,79.989L110,79.987L112,79.983L114,79.979L116,79.974L118,79.968L120,79.961L122,79.953L124,79.943L126,79.931L128,79.917L130,79.902L132,79.884L134,79.863L136,79.84L138,79.813L140,79.783L142,79.749L144,79.711L146,79.669L148,79.623L150,79.571L152,79.514L154,79.453L156,79.385L158,79.312L160,79.232L162,79.146L164,79.054L166,78.955L168,78.85L170,78.737L172,78.617L174,78.491L176,78.356L178,78.214L180,78.064L182,77.907L184,77.741L186,77.567L188,77.385L190,77.194L192,76.995L194,76.786L196,76.568L198,76.342L200,76.106L202,75.861L204,75.607L206,75.344L208,75.072L210,74.791L212,74.503L214,74.207L216,73.903L218,73.594L220,73.278L222,72.957L224,72.631L226,72.302L228,71.97L230,71.636L232,71.301L234,70.965L236,70.629L238,70.294L240,69.96L242,69.628L244,69.299L246,68.972L248,68.648L250,68.328L252,68.011L254,67.697L256,67.387L258,67.08L260,66.776L262,66.476L264,66.178L266,65.883L268,65.59L270,65.299L272,65.009L274,64.721L276,64.434L278,64.148L280,63.863L282,63.578L284,63.294L286,63.011L288,62.728L290,62.446L292,62.164L294,61.884L296,61.606L298,61.33L300,61.056L302,60.785L304,60.517L306,60.253L308,59.993L310,59.739L312,59.489L314,59.246L316,59.009L318,58.779L320,58.555L322,58.34L324,58.132L326,57.932L328,57.74L330,57.557L332,57.382L334,57.216L336,57.058L338,56.909L340,56.768L342,56.636L344,56.511L346,56.395L348,56.286L350,56.185L352,56.091L354,56.004L356,55.924L358,55.851L360,55.783L362,55.722L364,55.665L366,55.614L368,55.568L370,55.526L372,55.489L374,55.455L376,55.424L378,55.397L380,55.373L382,55.351L384,55.331L386,55.314L388,55.299L390,55.285L392,55.273L394,55.263L396,55.254L398,55.246L400,55.239L400,55.246L398,55.254L396,55.263L394,55.273L392,55.285L390,55.299L388,55.314L386,55.331L384,55.351L382,55.373L380,55.397L378,55.424L376,55.455L374,55.489L372,55.526L370,55.568L368,55.614L366,55.665L364,55.722L362,55.783L360,55.851L358,55.924L356,56.004L354,56.091L352,56.185L350,56.286L348,56.395L346,56.511L344,56.636L342,56.768L340,56.909L338,57.058L336,57.216L334,57.382L332,57.557L330,57.74L328,57.932L326,58.132L324,58.34L322,58.555L320,58.779L318,59.009L316,59.246L314,59.489L312,59.739L310,59.993L308,60.253L306,60.517L304,60.785L302,61.056L300,61.33L298,61.606L296,61.884L294,62.164L292,62.446L290,62.728L288,63.011L286,63.294L284,63.578L282,63.863L280,64.148L278,64.434L276,64.721L274,65.009L272,65.299L270,65.59L268,65.883L266,66.178L264,66.476L262,66.776L260,67.08L258,67.387L256,67.697L254,68.011L252,68.328L250,68.648L248,68.972L246,69.299L244,69.628L242,69.96L240,70.294L238,70.629L236,70.965L234,71.301L232,71.636L230,71.97L228,72.302L226,72.631L224,72.957L222,73.278L220,73.594L218,73.903L216,74.207L214,74.503L212,74.791L210,75.072L208,75.344L206,75.607L204,75.861L202,76.106L200,76.342L198,76.568L196,76.786L194,76.995L192,77.194L190,77.385L188,77.567L186,77.741L184,77.907L182,78.064L180,78.214L178,78.356L176,78.491L174,78.617L172,78.737L170,78.85L168,78.955L166,79.054L164,79.146L162,79.232L160,79.312L158,79.385L156,79.453L154,79.514L152,79.571L150,79.623L148,79.669L146,79.711L144,79.749L142,79.783L140,79.813L138,79.84L136,79.863L134,79.884L132,79.902L130,79.917L128,79.931L126,79.943L124,79.953L122,79.961L120,79.968L118,79.974L116,79.979L114,79.983L112,79.987L110,79.989L108,79.992L106,79.993L104,79.995L102,79.996L100,79.997L98,79.998L96,79.998L94,79.999L92,79.999L90,79.999L88,79.999L86,80L84,80L82,80L80,80L78,80L76,80L74,80L72,80L70,80L68,80L66,80L64,80L62,80L60,80L58,80L56,80L54,80L52,80L50,80L48,80L46,80L44,80L42,80L40,80L38,80L36,80L34,80L32,80L30,80L28,80L26,80L24,80L22,80L20,80L18,80L16,80L14,80L12,80L10,80L8,80L6,80L4,80L2,80L0,80Z" fill="#e45756"/></g></g><path class="foreground" aria-hidden="true" d="" display="none"/></g></g><g class="mark-group role-legend" role="graphics-symbol" aria-roledescription="legend" aria-label="Symbol legend titled 'Species' for fill color with 3 values: Adelie, Chinstrap, Gentoo"><g transform="translate(418,0)"><path class="background" aria-hidden="true" d="M0,0h65v53h-65Z" pointer-events="none"/><g><g class="mark-group role-legend-entry"><g transform="translate(0,16)"><path class="background" aria-hidden="true" d="M0,0h0v0h0Z" pointer-events="none"/><g><g class="mark-group role-scope" role="graphics-object" aria-roledescription="group mark container"><g transform="translate(0,0)"><path class="background" aria-hidden="true" d="M0,0h64.154296875v11h-64.154296875Z" pointer-events="none" opacity="1"/><g><g class="mark-symbol role-legend-symbol" pointer-events="none"><path transform="translate(6,6)" d="M5,0A5,5,0,1,1,-5,0A5,5,0,1,1,5,0" fill="#4c78a8" stroke-width="1.5" opacity="1"/></g><g class="mark-text role-legend-label" pointer-events="none"><text text-anchor="start" transform="translate(16,9)" font-family="sans-serif" font-size="10px" fill="#000" opacity="1">Adelie</text></g></g><path class="foreground" aria-hidden="true" d="" pointer-events="none" display="none"/></g><g transform="translate(0,13)"><path class="background" aria-hidden="true" d="M0,0h64.154296875v11h-64.154296875Z" pointer-events="none" opacity="1"/><g><g class="mark-symbol role-legend-symbol" pointer-events="none"><path transform="translate(6,6)" d="M5,0A5,5,0,1,1,-5,0A5,5,0,1,1,5,0" fill="#f58518" stroke-width="1.5" opacity="1"/></g><g class="mark-text role-legend-label" pointer-events="none"><text text-anchor="start" transform="translate(16,9)" font-family="sans-serif" font-size="10px" fill="#000" opacity="1">Chinstrap</text></g></g><path class="foreground" aria-hidden="true" d="" pointer-events="none" display="none"/></g><g transform="translate(0,26)"><path class="background" aria-hidden="true" d="M0,0h64.154296875v11h-64.154296875Z" pointer-events="none" opacity="1"/><g><g class="mark-symbol role-legend-symbol" pointer-events="none"><path transform="translate(6,6)" d="M5,0A5,5,0,1,1,-5,0A5,5,0,1,1,5,0" fill="#e45756" stroke-width="1.5" opacity="1"/></g><g class="mark-text role-legend-label" pointer-events="none"><text text-anchor="start" transform="translate(16,9)" font-family="sans-serif" font-size="10px" fill="#000" opacity="1">Gentoo</text></g></g><path class="foreground" aria-hidden="true" d="" pointer-events="none" display="none"/></g></g></g><path class="foreground" aria-hidden="true" d="" pointer-events="none" display="none"/></g></g><g class="mark-text role-legend-title" pointer-events="none"><text text-anchor="start" transform="translate(0,9)" font-family="sans-serif" font-size="11px" font-weight="bold" fill="#000" opacity="1">Species</text></g></g><path class="foreground" aria-hidden="true" d="" pointer-events="none" display="none"/></g></g><g class="mark-group role-title"><g transform="translate(200,-17)"><path class="background" aria-hidden="true" d="M0,0h0v0h0Z" pointer-events="none"/><g><g class="mark-text role-title-text" role="graphics-symbol" aria-roledescription="title" aria-label="Title text 'Distribution of Body Mass of Penguins'" pointer-events="none"><text text-anchor="middle" transform="translate(0,10)" font-family="sans-serif" font-size="13px" font-weight="bold" fill="#000" opacity="1">Distribution of Body Mass of Penguins</text></g></g><path class="foreground" aria-hidden="true" d="" pointer-events="none" display="none"/></g></g></g><path class="foreground" aria-hidden="true" d="" display="none"/></g></g></g></svg>