<svg xmlns="http://www.w3.org/2000/svg" xmlns:xlink="http://www.w3.org/1999/xlink" version="1.1" class="marks" width="520" height="345" viewBox="0 0 520 345"><rect width="520" height="345" fill="white"/><g fill="none" stroke-miterlimit="10" transform="translate(114,23)"><g class="mark-group role-frame root" role="graphics-object" aria-roledescription="group mark container"><g transform="translate(0,0)"><path class="background" aria-hidden="true" d="M0,0h0v0h0Z"/><g><g class="mark-group role-row-title row-title" role="graphics-object" aria-roledescription="group mark container"><g transform="translate(-88,142)"><path class="background" aria-hidden="true" d="M0,0h0v0h0Z"/><g><g class="mark-group role-title"><g transform="translate(-21.000000000000004,0)"><path class="background" aria-hidden="true" d="M0,0h0v0h0Z" pointer-events="none"/><g><g class="mark-text role-title-text" role="graphics-symbol" aria-roledescription="title" aria-label="Title text 'Species'" pointer-events="none"><text text-anchor="middle" transform="translate(0,0) rotate(-90) translate(0,9)" font-family="sans-serif" font-size="11px" font-weight="bold" fill="#000" opacity="1">Species</text></g></g><path class="foreground" aria-hidden="true" d="" pointer-events="none" display="none"/></g></g></g><path class="foreground" aria-hidden="true" d="" display="none"/></g></g><g class="mark-group role-row-header row_header" role="graphics-object" aria-roledescription="group mark container"><g transform="translate(-1,0)"><path class="background" aria-hidden="true" d="M0,0h0v80h0Z"/><g><g class="mark-group role-axis" role="graphics-symbol" aria-roledescription="axis" aria-label="Y-axis titled 'density' for a linear scale with values from 0.0000 to 0.0011"><g transform="translate(0.5,0.5)"><path class="background" aria-hidden="true" d="M0,0h0v0h0Z" pointer-events="none"/><g><g class="mark-rule role-axis-tick" pointer-events="none"><line transform="translate(0,80)" x2="-5" y2="0" stroke="#888" stroke-width="1" opacity="1"/><line transform="translate(0,44)" x2="-5" y2="0" stroke="#888" stroke-width="1" opacity="1"/><line transform="translate(0,7)" x2="-5" y2="0" stroke="#888" stroke-width="1" opacity="1"/></g><g class="mark-text role-axis-label" pointer-events="none"><text text-anchor="end" transform="translate(-7,83)" font-family="sans-serif" font-size="10px" fill="#000" opacity="1">0.0000</text><text text-anchor="end" transform="translate(-7,46.63636363636363)" font-family="sans-serif" font-size="10px" fill="#000" opacity="1">0.0005</text><text text-anchor="end" transform="translate(-7,10.272727272727275)" font-family="sans-serif" font-size="10px" fill="#000" opacity="1">0.0010</text></g><g class="mark-rule role-axis-domain" pointer-events="none"><line transform="translate(0,80)" x2="0" y2="-80" stroke="#888" stroke-width="1" opacity="1"/></g><g class="mark-text role-axis-title" pointer-events="none"><text text-anchor="middle" transform="translate(-45.990234375,40) rotate(-90) translate(0,-2)" font-family="sans-serif" font-size="11px" font-weight="bold" fill="#000" opacity="1">density</text></g></g><path class="foreground" aria-hidden="true" d="" pointer-events="none" display="none"/></g></g><g class="mark-group role-title"><g transform="translate(-76.990234375,40)"><path class="background" aria-hidden="true" d="M0,0h0v0h0Z" pointer-events="none"/><g><g class="mark-text role-title-text" role="graphics-symbol" aria-roledescription="title" aria-label="Title text 'Adelie'" pointer-events="none"><text text-anchor="middle" transform="translate(0,0) rotate(-90) translate(0,8)" font-family="sans-serif" font-size="10px" fill="#000" opacity="1">Adelie</text></g></g><path class="foreground" aria-hidden="true" d="" pointer-events="none" display="none"/></g></g></g><path class="foreground" aria-hidden="true" d="" display="none"/></g><g transform="translate(-1,102)"><path class="background" aria-hidden="true" d="M0,0h0v80h0Z"/><g><g class="mark-group role-axis" role="graphics-symbol" aria-roledescription="axis" aria-label="Y-axis titled 'density' for a linear scale with values from 0.0000 to 0.0011"><g transform="translate(0.5,0.5)"><path class="background" aria-hidden="true" d="M0,0h0v0h0Z" pointer-events="none"/><g><g class="mark-rule role-axis-tick" pointer-events="none"><line transform="translate(0,80)" x2="-5" y2="0" stroke="#888" stroke-width="1" opacity="1"/><line transform="translate(0,44)" x2="-5" y2="0" stroke="#888" stroke-width="1" opacity="1"/><line transform="translate(0,7)" x2="-5" y2="0" stroke="#888" stroke-width="1" opacity="1"/></g><g class="mark-text role-axis-label" pointer-events="none"><text text-anchor="end" transform="translate(-7,83)" font-family="sans-serif" font-size="10px" fill="#000" opacity="1">0.0000</text><text text-anchor="end" transform="translate(-7,46.63636363636363)" font-family="sans-serif" font-size="10px" fill="#000" opacity="1">0.0005</text><text text-anchor="end" transform="translate(-7,10.272727272727275)" font-family="sans-serif" font-size="10px" fill="#000" opacity="1">0.0010</text></g><g class="mark-rule role-axis-domain" pointer-events="none"><line transform="translate(0,80)" x2="0" y2="-80" stroke="#888" stroke-width="1" opacity="1"/></g><g class="mark-text role-axis-title" pointer-events="none"><text text-anchor="middle" transform="translate(-45.990234375,40) rotate(-90) translate(0,-2)" font-family="sans-serif" font-size="11px" font-weight="bold" fill="#000" opacity="1">density</text></g></g><path class="foreground" aria-hidden="true" d="" pointer-events="none" display="none"/></g></g><g class="mark-group role-title"><g transform="translate(-76.990234375,40)"><path class="background" aria-hidden="true" d="M0,0h0v0h0Z" pointer-events="none"/><g><g class="mark-text role-title-text" role="graphics-symbol" aria-roledescription="title" aria-label="Title text 'Chinstrap'" pointer-events="none"><text text-anchor="middle" transform="translate(0,0) rotate(-90) translate(0,8)" font-family="sans-serif" font-size="10px" fill="#000" opacity="1">Chinstrap</text></g></g><path class="foreground" aria-hidden="true" d="" pointer-events="none" display="none"/></g></g></g><path class="foreground" aria-hidden="true" d="" display="none"/></g><g transform="translate(-1,204)"><path class="background" aria-hidden="true" d="M0,0h0v80h0Z"/><g><g class="mark-group role-axis" role="graphics-symbol" aria-roledescription="axis" aria-label="Y-axis titled 'density' for a linear scale with values from 0.0000 to 0.0011"><g transform="translate(0.5,0.5)"><path class="background" aria-hidden="true" d="M0,0h0v0h0Z" pointer-events="none"/><g><g class="mark-rule role-axis-tick" pointer-events="none"><line transform="translate(0,80)" x2="-5" y2="0" stroke="#888" stroke-width="1" opacity="1"/><line transform="translate(0,44)" x2="-5" y2="0" stroke="#888" stroke-width="1" opacity="1"/><line transform="translate(0,7)" x2="-5" y2="0" stroke="#888" stroke-width="1" opacity="1"/></g><g class="mark-text role-axis-label" pointer-events="none"><text text-anchor="end" transform="translate(-7,83)" font-family="sans-serif" font-size="10px" fill="#000" opacity="1">0.0000</text><text text-anchor="end" transform="translate(-7,46.63636363636363)" font-family="sans-serif" font-size="10px" fill="#000" opacity="1">0.0005</text><text text-anchor="end" transform="translate(-7,10.272727272727275)" font-family="sans-serif" font-size="10px" fill="#000" opacity="1">0.0010</text></g><g class="mark-rule role-axis-domain" pointer-events="none"><line transform="translate(0,80)" x2="0" y2="-80" stroke="#888" stroke-width="1" opacity="1"/></g><g class="mark-text role-axis-title" pointer-events="none"><text text-anchor="middle" transform="translate(-45.990234375,40) rotate(-90) translate(0,-2)" font-family="sans-serif" font-size="11px" font-weight="bold" fill="#000" opacity="1">density</text></g></g><path class="foreground" aria-hidden="true" d="" pointer-events="none" display="none"/></g></g><g class="mark-group role-title"><g transform="translate(-76.990234375,40)"><path class="background" aria-hidden="true" d="M0,0h0v0h0Z" pointer-events="none"/><g><g class="mark-text role-title-text" role="graphics-symbol" aria-roledescription="title" aria-label="Title text 'Gentoo'" pointer-events="none"><text text-anchor="middle" transform="translate(0,0) rotate(-90) translate(0,8)" font-family="sans-serif" font-size="10px" fill="#000" opacity="1">Gentoo</text></g></g><path class="foreground" aria-hidden="true" d="" pointer-events="none" display="none"/></g></g></g><path class="foreground" aria-hidden="true" d="" display="none"/></g></g><g class="mark-group role-column-footer column_footer" role="graphics-object" aria-roledescription="group mark container"><g transform="translate(0,285)"><path class="background" aria-hidden="true" d="M0,0h400v0h-400Z"/><g><g class="mark-group role-axis" role="graphics-symbol" aria-roledescription="axis" aria-label="X-axis titled 'Body Mass (g)' for a linear scale with values from 2,500 to 6,500"><g transform="translate(0.5,0.5)"><path class="background" aria-hidden="true" d="M0,0h0v0h0Z" pointer-events="none"/><g><g class="mark-rule role-axis-tick" pointer-events="none"><line transform="translate(0,0)" x2="0" y2="5" stroke="#888" stroke-width="1" opacity="1"/><line transform="translate(50,0)" x2="0" y2="5" stroke="#888" stroke-width="1" opacity="1"/><line transform="translate(100,0)" x2="0" y2="5" stroke="#888" stroke-width="1" opacity="1"/><line transform="translate(150,0)" x2="0" y2="5" stroke="#888" stroke-width="1" opacity="1"/><line transform="translate(200,0)" x2="0" y2="5" stroke="#888" stroke-width="1" opacity="1"/><line transform="translate(250,0)" x2="0" y2="5" stroke="#888" stroke-width="1" opacity="1"/><line transform="translate(300,0)" x2="0" y2="5" stroke="#888" stroke-width="1" opacity="1"/><line transform="translate(350,0)" x2="0" y2="5" stroke="#888" stroke-width="1" opacity="1"/><line transform="translate(400,0)" x2="0" y2="5" stroke="#888" stroke-width="1" opacity="1"/></g><g class="mark-text role-axis-label" pointer-events="none"><text text-anchor="start" transform="translate(0,15)" font-family="sans-serif" font-size="10px" fill="#000" opacity="1">2,500</text><text text-anchor="middle" transform="translate(50,15)" font-family="sans-serif" font-size="10px" fill="#000" opacity="1">3,000</text><text text-anchor="middle" transform="translate(100,15)" font-family="sans-serif" font-size="10px" fill="#000" opacity="1">3,500</text><text text-anchor="middle" transform="translate(150,15)" font-family="sans-serif" font-size="10px" fill="#000" opacity="1">4,000</text><text text-anchor="middle" transform="translate(200,15)" font-family="sans-serif" font-size="10px" fill="#000" opacity="1">4,500</text><text text-anchor="middle" transform="translate(250,15)" font-family="sans-serif" font-size="10px" fill="#000" opacity="1">5,000</text><text text-anchor="middle" transform="translate(300,15)" font-family="sans-serif" font-size="10px" fill="#000" opacity="1">5,500</text><text text-anchor="middle" transform="translate(350,15)" font-family="sans-serif" font-size="10px" fill="#000" opacity="1">6,000</text><text text-anchor="end" transform="translate(400,15)" font-family="sans-serif" font-size="10px" fill="#000" opacity="1">6,500</text></g><g class="mark-rule role-axis-domain" pointer-events="none"><line transform="translate(0,0)" x2="400" y2="0" stroke="#888" stroke-width="1" opacity="1"/></g><g class="mark-text role-axis-title" pointer-events="none"><text text-anchor="middle" transform="translate(200,30)" font-family="sans-serif" font-size="11px" font-weight="bold" fill="#000" opacity="1">Body Mass (g)</text></g></g><path class="foreground" aria-hidden="true" d="" pointer-events="none" display="none"/></g></g></g><path class="foreground" aria-hidden="true" d="" display="none"/></g></g><g class="mark-group role-scope cell" role="graphics-object" aria-roledescription="group mark container"><g transform="translate(0,0)"><path class="background" aria-hidden="true" d="M0.5,0.5h400v80h-400Z" stroke="#ddd"/><g><g class="mark-group role-axis" aria-hidden="true"><g transform="translate(0.5,80.5)"><path class="background" aria-hidden="true" d="M0,0h0v0h0Z" pointer-events="none"/><g><g class="mark-rule role-axis-grid" pointer-events="none"><line transform="translate(0,-80)" x2="0" y2="80" stroke="#ddd" stroke-width="1" opacity="1"/><line transform="translate(50,-80)" x2="0" y2="80" stroke="#ddd" stroke-width="1" opacity="1"/><line transform="translate(100,-80)" x2="0" y2="80" stroke="#ddd" stroke-width="1" opacity="1"/><line transform="translate(150,-80)" x2="0" y2="80" stroke="#ddd" stroke-width="1" opacity="1"/><line transform="translate(200,-80)" x2="0" y2="80" stroke="#ddd" stroke-width="1" opacity="1"/><line transform="translate(250,-80)" x2="0" y2="80" stroke="#ddd" stroke-width="1" opacity="1"/><line transform="translate(300,-80)" x2="0" y2="80" stroke="#ddd" stroke-width="1" opacity="1"/><line transform="translate(350,-80)" x2="0" y2="80" stroke="#ddd" stroke-width="1" opacity="1"/><line transform="translate(400,-80)" x2="0" y2="80" stroke="#ddd" stroke-width="1" opacity="1"/></g></g><path class="foreground" aria-hidden="true" d="" pointer-events="none" display="none"/></g></g><g class="mark-group role-axis" aria-hidden="true"><g transform="translate(0.5,0.5)"><path class="background" aria-hidden="true" d="M0,0h0v0h0Z" pointer-events="none"/><g><g class="mark-rule role-axis-grid" pointer-events="none"><line transform="translate(0,80)" x2="400" y2="0" stroke="#ddd" stroke-width="1" opacity="1"/><line transform="translate(0,44)" x2="400" y2="0" stroke="#ddd" stroke-width="1" opacity="1"/><line transform="translate(0,7)" x2="400" y2="0" stroke="#ddd" stroke-width="1" opacity="1"/></g></g><path class="foreground" aria-hidden="true" d="" pointer-events="none" display="none"/></g></g><g class="mark-area role-mark child_marks" role="graphics-object" aria-roledescription="area mark container"><path aria-label="Body Mass (g): 2500; density: 0.000010403897536" role="graphics-symbol" aria-roledescription="area mark" d="M0,79.243L2,79.029L4,78.768L6,78.453L8,78.078L10,77.636L12,77.122L14,76.531L16,75.859L18,75.103L20,74.262L22,73.337L24,72.329L26,80L28,70.081L32,67.563L34,80L36,80L38,80L40,80L42,80L44,80L46,80L48,55.98L50,80L52,80L54,80L56,80L58,80L60,80L64,43.909L80,32.472L84,30.04L86,28.943L88,27.936L90,27.03L92,26.229L94,25.539L96,24.959L98,24.491L100,24.13L102,23.872L104,23.709L106,23.634L108,23.639L110,23.715L112,23.856L114,24.055L116,24.31L118,24.619L120,24.981L122,25.398L124,25.875L126,26.414L128,27.021L130,27.7L132,28.453L134,29.281L136,30.184L138,80L140,32.197L142,80L144,34.434L146,80L148,80L152,80L156,80L160,43.679L164,45.656L168,47.462L172,80L174,80L176,50.79L178,80L180,80L182,80L184,54.164L186,80L188,80L190,80L192,57.784L200,61.433L208,64.836L212,80L214,80L216,80L218,80L220,80L222,80L224,70.941L226,80L228,80L230,80L232,73.762L234,80L236,75.047L238,75.641L240,76.198L242,76.714L244,77.187L246,77.615L248,77.998L250,78.337L252,78.632L254,78.887L256,79.104L258,79.286L260,79.438L262,79.562L264,79.662L266,79.743L268,79.806L270,79.856L272,79.894L274,79.922L276,79.944L278,80L280,79.972L288,79.994L290,80L292,80L294,80L296,80L298,80L300,80L302,80L304,80L306,80L308,80L310,80L312,80L314,80L316,80L320,80L336,80L352,80L356,80L360,80L364,80L366,80L368,80L370,80L372,80L374,80L376,80L378,80L380,80L382,80L384,80L386,80L388,80L390,80L392,80L394,80L396,80L398,80L400,80L400,80L398,80L396,80L394,80L392,80L390,80L388,80L386,80L384,80L382,80L380,80L378,80L376,80L374,80L372,80L370,80L368,80L366,80L364,80L360,80L356,80L352,80L336,80L320,80L316,80L314,80L312,80L310,80L308,80L306,80L304,80L302,80L300,80L298,80L296,80L294,80L292,80L290,80L288,80L280,80L278,80L276,80L274,80L272,80L270,80L268,80L266,80L264,80L262,80L260,80L258,80L256,80L254,80L252,80L250,80L248,80L246,80L244,80L242,80L240,80L238,80L236,80L234,80L232,80L230,80L228,80L226,80L224,80L222,80L220,80L218,80L216,80L214,80L212,80L208,80L200,80L192,80L190,80L188,80L186,80L184,80L182,80L180,80L178,80L176,80L174,80L172,80L168,80L164,80L160,80L156,80L152,80L148,80L146,80L144,80L142,80L140,80L138,80L136,80L134,80L132,80L130,80L128,80L126,80L124,80L122,80L120,80L118,80L116,80L114,80L112,80L110,80L108,80L106,80L104,80L102,80L100,80L98,80L96,80L94,80L92,80L90,80L88,80L86,80L84,80L80,80L64,80L60,80L58,80L56,80L54,80L52,80L50,80L48,80L46,80L44,80L42,80L40,80L38,80L36,80L34,80L32,80L28,80L26,80L24,80L22,80L20,80L18,80L16,80L14,80L12,80L10,80L8,80L6,80L4,80L2,80L0,80Z" fill="#4c78a8"/></g></g><path class="foreground" aria-hidden="true" d="" display="none"/></g><g transform="translate(0,102)"><path class="background" aria-hidden="true" d="M0.5,0.5h400v80h-400Z" stroke="#ddd"/><g><g class="mark-group role-axis" aria-hidden="true"><g transform="translate(0.5,80.5)"><path class="background" aria-hidden="true" d="M0,0h0v0h0Z" pointer-events="none"/><g><g class="mark-rule role-axis-grid" pointer-events="none"><line transform="translate(0,-80)" x2="0" y2="80" stroke="#ddd" stroke-width="1" opacity="1"/><line transform="translate(50,-80)" x2="0" y2="80" stroke="#ddd" stroke-width="1" opacity="1"/><line transform="translate(100,-80)" x2="0" y2="80" stroke="#ddd" stroke-width="1" opacity="1"/><line transform="translate(150,-80)" x2="0" y2="80" stroke="#ddd" stroke-width="1" opacity="1"/><line transform="translate(200,-80)" x2="0" y2="80" stroke="#ddd" stroke-width="1" opacity="1"/><line transform="translate(250,-80)" x2="0" y2="80" stroke="#ddd" stroke-width="1" opacity="1"/><line transform="translate(300,-80)" x2="0" y2="80" stroke="#ddd" stroke-width="1" opacity="1"/><line transform="translate(350,-80)" x2="0" y2="80" stroke="#ddd" stroke-width="1" opacity="1"/><line transform="translate(400,-80)" x2="0" y2="80" stroke="#ddd" stroke-width="1" opacity="1"/></g></g><path class="foreground" aria-hidden="true" d="" pointer-events="none" display="none"/></g></g><g class="mark-group role-axis" aria-hidden="true"><g transform="translate(0.5,0.5)"><path class="background" aria-hidden="true" d="M0,0h0v0h0Z" pointer-events="none"/><g><g class="mark-rule role-axis-grid" pointer-events="none"><line transform="translate(0,80)" x2="400" y2="0" stroke="#ddd" stroke-width="1" opacity="1"/><line transform="translate(0,44)" x2="400" y2="0" stroke="#ddd" stroke-width="1" opacity="1"/><line transform="translate(0,7)" x2="400" y2="0" stroke="#ddd" stroke-width="1" opacity="1"/></g></g><path class="foreground" aria-hidden="true" d="" pointer-events="none" display="none"/></g></g><g class="mark-area role-mark child_marks" role="graphics-object" aria-roledescription="area mark container"><path aria-label="Body Mass (g): 2500; density: 0.000018097612155" role="graphics-symbol" aria-roledescription="area mark" d="M0,78.684L2,78.443L4,78.184L6,80L8,77.627L10,80L12,77.054L14,76.775L16,76.51L18,76.263L20,76.037L22,75.836L24,75.66L26,75.508L28,75.376L32,75.148L34,75.031L36,74.895L38,74.721L40,74.489L42,74.176L44,73.755L46,73.2L48,72.484L50,71.581L52,70.468L54,69.126L56,67.542L58,65.711L60,63.635L64,58.808L80,35.387L84,80L86,80L88,25.093L90,80L92,80L94,80L96,16.63L98,80L100,12.903L102,80L104,9.518L106,7.994L108,6.62L110,5.426L112,4.448L114,3.718L116,3.264L118,3.109L120,3.263L122,3.729L124,4.498L126,5.549L128,6.854L130,8.378L132,10.083L134,80L136,13.88L138,80L140,80L142,80L144,22.18L146,80L148,80L152,80L156,80L160,39.636L164,80L168,48.261L172,52.063L174,53.765L176,55.32L178,56.723L180,57.979L182,59.098L184,60.095L186,60.99L188,61.805L190,62.563L192,63.286L200,66.158L208,69.258L212,70.785L214,71.506L216,72.188L218,72.825L220,73.414L222,73.954L224,74.449L226,74.902L228,75.32L230,75.709L232,76.074L234,76.42L236,76.753L238,80L240,77.382L242,77.68L244,77.965L246,78.235L248,78.487L250,78.72L252,78.932L254,79.121L256,79.287L258,79.43L260,79.551L262,79.652L264,79.734L266,79.8L268,79.852L270,79.892L272,79.923L274,80L276,79.962L278,80L280,79.983L288,79.997L290,80L292,80L294,80L296,80L298,80L300,80L302,80L304,80L306,80L308,80L310,80L312,80L314,80L316,80L320,80L336,80L352,80L356,80L360,80L364,80L366,80L368,80L370,80L372,80L374,80L376,80L378,80L380,80L382,80L384,80L386,80L388,80L390,80L392,80L394,80L396,80L398,80L400,80L400,80L398,80L396,80L394,80L392,80L390,80L388,80L386,80L384,80L382,80L380,80L378,80L376,80L374,80L372,80L370,80L368,80L366,80L364,80L360,80L356,80L352,80L336,80L320,80L316,80L314,80L312,80L310,80L308,80L306,80L304,80L302,80L300,80L298,80L296,80L294,80L292,80L290,80L288,80L280,80L278,80L276,80L274,80L272,80L270,80L268,80L266,80L264,80L262,80L260,80L258,80L256,80L254,80L252,80L250,80L248,80L246,80L244,80L242,80L240,80L238,80L236,80L234,80L232,80L230,80L228,80L226,80L224,80L222,80L220,80L218,80L216,80L214,80L212,80L208,80L200,80L192,80L190,80L188,80L186,80L184,80L182,80L180,80L178,80L176,80L174,80L172,80L168,80L164,80L160,80L156,80L152,80L148,80L146,80L144,80L142,80L140,80L138,80L136,80L134,80L132,80L130,80L128,80L126,80L124,80L122,80L120,80L118,80L116,80L114,80L112,80L110,80L108,80L106,80L104,80L102,80L100,80L98,80L96,80L94,80L92,80L90,80L88,80L86,80L84,80L80,80L64,80L60,80L58,80L56,80L54,80L52,80L50,80L48,80L46,80L44,80L42,80L40,80L38,80L36,80L34,80L32,80L28,80L26,80L24,80L22,80L20,80L18,80L16,80L14,80L12,80L10,80L8,80L6,80L4,80L2,80L0,80Z" fill="#4c78a8"/></g></g><path class="foreground" aria-hidden="true" d="" display="none"/></g><g transform="translate(0,204)"><path class="background" aria-hidden="true" d="M0.5,0.5h400v80h-400Z" stroke="#ddd"/><g><g class="mark-group role-axis" aria-hidden="true"><g transform="translate(0.5,80.5)"><path class="background" aria-hidden="true" d="M0,0h0v0h0Z" pointer-events="none"/><g><g class="mark-rule role-axis-grid" pointer-events="none"><line transform="translate(0,-80)" x2="0" y2="80" stroke="#ddd" stroke-width="1" opacity="1"/><line transform="translate(50,-80)" x2="0" y2="80" stroke="#ddd" stroke-width="1" opacity="1"/><line transform="translate(100,-80)" x2="0" y2="80" stroke="#ddd" stroke-width="1" opacity="1"/><line transform="translate(150,-80)" x2="0" y2="80" stroke="#ddd" stroke-width="1" opacity="1"/><line transform="translate(200,-80)" x2="0" y2="80" stroke="#ddd" stroke-width="1" opacity="1"/><line transform="translate(250,-80)" x2="0" y2="80" stroke="#ddd" stroke-width="1" opacity="1"/><line transform="translate(300,-80)" x2="0" y2="80" stroke="#ddd" stroke-width="1" opacity="1"/><line transform="translate(350,-80)" x2="0" y2="80" stroke="#ddd" stroke-width="1" opacity="1"/><line transform="translate(400,-80)" x2="0" y2="80" stroke="#ddd" stroke-width="1" opacity="1"/></g></g><path class="foreground" aria-hidden="true" d="" pointer-events="none" display="none"/></g></g><g class="mark-group role-axis" aria-hidden="true"><g transform="translate(0.5,0.5)"><path class="background" aria-hidden="true" d="M0,0h0v0h0Z" pointer-events="none"/><g><g class="mark-rule role-axis-grid" pointer-events="none"><line transform="translate(0,80)" x2="400" y2="0" stroke="#ddd" stroke-width="1" opacity="1"/><line transform="translate(0,44)" x2="400" y2="0" stroke="#ddd" stroke-width="1" opacity="1"/><line transform="translate(0,7)" x2="400" y2="0" stroke="#ddd" stroke-width="1" opacity="1"/></g></g><path class="foreground" aria-hidden="true" d="" pointer-events="none" display="none"/></g></g><g class="mark-area role-mark child_marks" role="graphics-object" aria-roledescription="area mark container"><path aria-label="Body Mass (g): 2500; density: 1.60574227996e-16" role="graphics-symbol" aria-roledescription="area mark" d="M0,80L2,80L4,80L6,80L8,80L10,80L12,80L14,80L16,80L18,80L20,80L22,80L24,80L26,80L28,80L32,80L34,80L36,80L38,80L40,80L42,80L44,80L46,80L48,80L50,80L52,80L54,80L56,80L58,80L60,80L64,80L80,79.992L84,80L86,80L88,79.973L90,80L92,79.952L94,80L96,79.919L98,79.895L100,79.867L102,79.831L104,79.787L106,79.734L108,79.671L110,79.594L112,79.504L114,79.398L116,79.274L118,79.13L120,78.963L122,78.773L124,78.556L126,78.31L128,78.033L130,77.724L132,77.379L134,76.998L136,76.58L138,76.121L140,75.623L142,75.083L144,74.502L146,73.879L148,73.216L152,71.77L156,70.174L160,68.442L164,80L168,64.637L172,80L174,80L176,60.453L178,80L180,80L182,80L184,80L186,80L188,80L190,80L192,50.962L200,80L208,40.452L212,38.038L214,80L216,35.883L218,34.93L220,34.072L222,33.316L224,32.669L226,32.133L228,31.713L230,31.406L232,31.211L234,31.125L236,31.141L238,31.253L240,31.452L242,31.728L244,32.071L246,32.469L248,32.911L250,80L252,80L254,80L256,34.884L258,80L260,35.842L262,36.282L264,36.688L266,37.055L268,37.38L270,37.662L272,37.901L274,38.1L276,38.263L278,38.395L280,38.501L288,38.849L290,38.962L292,39.105L294,39.287L296,39.516L298,39.801L300,40.148L302,40.562L304,41.047L306,41.607L308,42.243L310,42.954L312,43.738L314,44.594L316,45.517L320,47.543L336,57.052L352,66.354L356,68.361L360,70.191L364,71.83L366,72.575L368,73.271L370,73.916L372,74.514L374,75.064L376,75.569L378,76.03L380,76.451L382,76.833L384,77.18L386,77.494L388,77.778L390,78.035L392,78.266L394,78.475L396,78.663L398,78.833L400,78.985L400,80L398,80L396,80L394,80L392,80L390,80L388,80L386,80L384,80L382,80L380,80L378,80L376,80L374,80L372,80L370,80L368,80L366,80L364,80L360,80L356,80L352,80L336,80L320,80L316,80L314,80L312,80L310,80L308,80L306,80L304,80L302,80L300,80L298,80L296,80L294,80L292,80L290,80L288,80L280,80L278,80L276,80L274,80L272,80L270,80L268,80L266,80L264,80L262,80L260,80L258,80L256,80L254,80L252,80L250,80L248,80L246,80L244,80L242,80L240,80L238,80L236,80L234,80L232,80L230,80L228,80L226,80L224,80L222,80L220,80L218,80L216,80L214,80L212,80L208,80L200,80L192,80L190,80L188,80L186,80L184,80L182,80L180,80L178,80L176,80L174,80L172,80L168,80L164,80L160,80L156,80L152,80L148,80L146,80L144,80L142,80L140,80L138,80L136,80L134,80L132,80L130,80L128,80L126,80L124,80L122,80L120,80L118,80L116,80L114,80L112,80L110,80L108,80L106,80L104,80L102,80L100,80L98,80L96,80L94,80L92,80L90,80L88,80L86,80L84,80L80,80L64,80L60,80L58,80L56,80L54,80L52,80L50,80L48,80L46,80L44,80L42,80L40,80L38,80L36,80L34,80L32,80L28,80L26,80L24,80L22,80L20,80L18,80L16,80L14,80L12,80L10,80L8,80L6,80L4,80L2,80L0,80Z" fill="#4c78a8"/></g></g><path class="foreground" aria-hidden="true" d="" display="none"/></g></g><g class="mark-group role-title"><g transform="translate(-109,-18)"><path class="background" aria-hidden="true" d="M0,0h0v0h0Z" pointer-events="none"/><g><g class="mark-text role-title-text" role="graphics-symbol" aria-roledescription="title" aria-label="Title text 'Distribution of Body Mass of Penguins'" pointer-events="none"><text text-anchor="start" transform="translate(0,10)" font-family="sans-serif" font-size="13px" font-weight="bold" fill="#000" opacity="1">Distribution of Body Mass of Penguins</text></g></g><path class="foreground" aria-hidden="true" d="" pointer-events="none" display="none"/></g></g></g><path class="foreground" aria-hidden="true" d="" display="none"/></g></g></g></svg>