<svg class="marks" width="648" height="364" viewBox="0 0 648 364" version="1.1" xmlns="http://www.w3.org/2000/svg" xmlns:xlink="http://www.w3.org/1999/xlink"><rect width="648" height="364" style="fill: white;"></rect><g transform="translate(43,27)"><g class="mark-group role-frame root" role="graphics-object" aria-roledescription="group mark container"><g transform="translate(0,0)"><path class="background" aria-hidden="true" d="M0.5,0.5h600v300h-600Z" style="fill: none; stroke: #ddd;"></path><g><g class="mark-group role-axis" aria-hidden="true"><g transform="translate(0.5,300.5)"><path class="background" aria-hidden="true" d="M0,0h0v0h0Z" style="pointer-events: none; fill: none;"></path><g><g class="mark-rule role-axis-grid" style="pointer-events: none;"><line transform="translate(0,-300)" x2="0" y2="300" style="fill: none; stroke: #ddd; stroke-width: 1; opacity: 1;"></line><line transform="translate(51,-300)" x2="0" y2="300" style="fill: none; stroke: #ddd; stroke-width: 1; opacity: 1;"></line><line transform="translate(99,-300)" x2="0" y2="300" style="fill: none; stroke: #ddd; stroke-width: 1; opacity: 1;"></line><line transform="translate(150,-300)" x2="0" y2="300" style="fill: none; stroke: #ddd; stroke-width: 1; opacity: 1;"></line><line transform="translate(199,-300)" x2="0" y2="300" style="fill: none; stroke: #ddd; stroke-width: 1; opacity: 1;"></line><line transform="translate(250,-300)" x2="0" y2="300" style="fill: none; stroke: #ddd; stroke-width: 1; opacity: 1;"></line><line transform="translate(299,-300)" x2="0" y2="300" style="fill: none; stroke: #ddd; stroke-width: 1; opacity: 1;"></line><line transform="translate(350,-300)" x2="0" y2="300" style="fill: none; stroke: #ddd; stroke-width: 1; opacity: 1;"></line><line transform="translate(401,-300)" x2="0" y2="300" style="fill: none; stroke: #ddd; stroke-width: 1; opacity: 1;"></line><line transform="translate(450,-300)" x2="0" y2="300" style="fill: none; stroke: #ddd; stroke-width: 1; opacity: 1;"></line><line transform="translate(501,-300)" x2="0" y2="300" style="fill: none; stroke: #ddd; stroke-width: 1; opacity: 1;"></line><line transform="translate(551,-300)" x2="0" y2="300" style="fill: none; stroke: #ddd; stroke-width: 1; opacity: 1;"></line></g></g><path class="foreground" aria-hidden="true" d="" style="pointer-events: none; display: none; fill: none;"></path></g></g><g class="mark-group role-axis" aria-hidden="true"><g transform="translate(0.5,0.5)"><path class="background" aria-hidden="true" d="M0,0h0v0h0Z" style="pointer-events: none; fill: none;"></path><g><g class="mark-rule role-axis-grid" style="pointer-events: none;"><line transform="translate(0,300)" x2="600" y2="0" style="fill: none; stroke: #ddd; stroke-width: 1; opacity: 1;"></line><line transform="translate(0,270)" x2="600" y2="0" style="fill: none; stroke: #ddd; stroke-width: 1; opacity: 1;"></line><line transform="translate(0,240)" x2="600" y2="0" style="fill: none; stroke: #ddd; stroke-width: 1; opacity: 1;"></line><line transform="translate(0,210)" x2="600" y2="0" style="fill: none; stroke: #ddd; stroke-width: 1; opacity: 1;"></line><line transform="translate(0,180)" x2="600" y2="0" style="fill: none; stroke: #ddd; stroke-width: 1; opacity: 1;"></line><line transform="translate(0,150)" x2="600" y2="0" style="fill: none; stroke: #ddd; stroke-width: 1; opacity: 1;"></line><line transform="translate(0,120)" x2="600" y2="0" style="fill: none; stroke: #ddd; stroke-width: 1; opacity: 1;"></line><line transform="translate(0,90)" x2="600" y2="0" style="fill: none; stroke: #ddd; stroke-width: 1; opacity: 1;"></line><line transform="translate(0,60)" x2="600" y2="0" style="fill: none; stroke: #ddd; stroke-width: 1; opacity: 1;"></line><line transform="translate(0,30)" x2="600" y2="0" style="fill: none; stroke: #ddd; stroke-width: 1; opacity: 1;"></line><line transform="translate(0,0)" x2="600" y2="0" style="fill: none; stroke: #ddd; stroke-width: 1; opacity: 1;"></line></g></g><path class="foreground" aria-hidden="true" d="" style="pointer-events: none; display: none; fill: none;"></path></g></g><g class="mark-group role-axis" role="graphics-symbol" aria-roledescription="axis" aria-label="X-axis titled 'Date' for a time scale with values from January to December"><g transform="translate(0.5,300.5)"><path class="background" aria-hidden="true" d="M0,0h0v0h0Z" style="pointer-events: none; fill: none;"></path><g><g class="mark-rule role-axis-tick" style="pointer-events: none;"><line transform="translate(0,0)" x2="0" y2="5" style="fill: none; stroke: #888; stroke-width: 1; opacity: 1;"></line><line transform="translate(51,0)" x2="0" y2="5" style="fill: none; stroke: #888; stroke-width: 1; opacity: 1;"></line><line transform="translate(99,0)" x2="0" y2="5" style="fill: none; stroke: #888; stroke-width: 1; opacity: 1;"></line><line transform="translate(150,0)" x2="0" y2="5" style="fill: none; stroke: #888; stroke-width: 1; opacity: 1;"></line><line transform="translate(199,0)" x2="0" y2="5" style="fill: none; stroke: #888; stroke-width: 1; opacity: 1;"></line><line transform="translate(250,0)" x2="0" y2="5" style="fill: none; stroke: #888; stroke-width: 1; opacity: 1;"></line><line transform="translate(299,0)" x2="0" y2="5" style="fill: none; stroke: #888; stroke-width: 1; opacity: 1;"></line><line transform="translate(350,0)" x2="0" y2="5" style="fill: none; stroke: #888; stroke-width: 1; opacity: 1;"></line><line transform="translate(401,0)" x2="0" y2="5" style="fill: none; stroke: #888; stroke-width: 1; opacity: 1;"></line><line transform="translate(450,0)" x2="0" y2="5" style="fill: none; stroke: #888; stroke-width: 1; opacity: 1;"></line><line transform="translate(501,0)" x2="0" y2="5" style="fill: none; stroke: #888; stroke-width: 1; opacity: 1;"></line><line transform="translate(551,0)" x2="0" y2="5" style="fill: none; stroke: #888; stroke-width: 1; opacity: 1;"></line></g><g class="mark-text role-axis-label" style="pointer-events: none;"><text text-anchor="start" transform="translate(0,15)" style="font-family: sans-serif; font-size: 10px; fill: #000; opacity: 1;">Jan</text><text text-anchor="middle" transform="translate(50.95890410958904,15)" style="font-family: sans-serif; font-size: 10px; fill: #000; opacity: 1;">Feb</text><text text-anchor="middle" transform="translate(98.63013698630137,15)" style="font-family: sans-serif; font-size: 10px; fill: #000; opacity: 1;">Mar</text><text text-anchor="middle" transform="translate(149.52054794520546,15)" style="font-family: sans-serif; font-size: 10px; fill: #000; opacity: 1;">Apr</text><text text-anchor="middle" transform="translate(198.83561643835617,15)" style="font-family: sans-serif; font-size: 10px; fill: #000; opacity: 1;">May</text><text text-anchor="middle" transform="translate(249.7945205479452,15)" style="font-family: sans-serif; font-size: 10px; fill: #000; opacity: 1;">Jun</text><text text-anchor="middle" transform="translate(299.1095890410959,15)" style="font-family: sans-serif; font-size: 10px; fill: #000; opacity: 1;">Jul</text><text text-anchor="middle" transform="translate(350.06849315068496,15)" style="font-family: sans-serif; font-size: 10px; fill: #000; opacity: 1;">Aug</text><text text-anchor="middle" transform="translate(401.027397260274,15)" style="font-family: sans-serif; font-size: 10px; fill: #000; opacity: 1;">Sep</text><text text-anchor="middle" transform="translate(450.3424657534247,15)" style="font-family: sans-serif; font-size: 10px; fill: #000; opacity: 1;">Oct</text><text text-anchor="middle" transform="translate(501.3013698630137,15)" style="font-family: sans-serif; font-size: 10px; fill: #000; opacity: 1;">Nov</text><text text-anchor="middle" transform="translate(550.6849315068494,15)" style="font-family: sans-serif; font-size: 10px; fill: #000; opacity: 1;">Dec</text></g><g class="mark-rule role-axis-domain" style="pointer-events: none;"><line transform="translate(0,0)" x2="600" y2="0" style="fill: none; stroke: #888; stroke-width: 1; opacity: 1;"></line></g><g class="mark-text role-axis-title" style="pointer-events: none;"><text text-anchor="middle" transform="translate(300,30)" style="font-family: sans-serif; font-size: 11px; font-weight: bold; fill: #000; opacity: 1;">Date</text></g></g><path class="foreground" aria-hidden="true" d="" style="pointer-events: none; display: none; fill: none;"></path></g></g><g class="mark-group role-axis" role="graphics-symbol" aria-roledescription="axis" aria-label="Y-axis titled 'Daily Temperature Range (C)' for a linear scale with values from -10 to 40"><g transform="translate(0.5,0.5)"><path class="background" aria-hidden="true" d="M0,0h0v0h0Z" style="pointer-events: none; fill: none;"></path><g><g class="mark-rule role-axis-tick" style="pointer-events: none;"><line transform="translate(0,300)" x2="-5" y2="0" style="fill: none; stroke: #888; stroke-width: 1; opacity: 1;"></line><line transform="translate(0,270)" x2="-5" y2="0" style="fill: none; stroke: #888; stroke-width: 1; opacity: 1;"></line><line transform="translate(0,240)" x2="-5" y2="0" style="fill: none; stroke: #888; stroke-width: 1; opacity: 1;"></line><line transform="translate(0,210)" x2="-5" y2="0" style="fill: none; stroke: #888; stroke-width: 1; opacity: 1;"></line><line transform="translate(0,180)" x2="-5" y2="0" style="fill: none; stroke: #888; stroke-width: 1; opacity: 1;"></line><line transform="translate(0,150)" x2="-5" y2="0" style="fill: none; stroke: #888; stroke-width: 1; opacity: 1;"></line><line transform="translate(0,120)" x2="-5" y2="0" style="fill: none; stroke: #888; stroke-width: 1; opacity: 1;"></line><line transform="translate(0,90)" x2="-5" y2="0" style="fill: none; stroke: #888; stroke-width: 1; opacity: 1;"></line><line transform="translate(0,60)" x2="-5" y2="0" style="fill: none; stroke: #888; stroke-width: 1; opacity: 1;"></line><line transform="translate(0,30)" x2="-5" y2="0" style="fill: none; stroke: #888; stroke-width: 1; opacity: 1;"></line><line transform="translate(0,0)" x2="-5" y2="0" style="fill: none; stroke: #888; stroke-width: 1; opacity: 1;"></line></g><g class="mark-text role-axis-label" style="pointer-events: none;"><text text-anchor="end" transform="translate(-7,303)" style="font-family: sans-serif; font-size: 10px; fill: #000; opacity: 1;">-10</text><text text-anchor="end" transform="translate(-7,273)" style="font-family: sans-serif; font-size: 10px; fill: #000; opacity: 1;">-5</text><text text-anchor="end" transform="translate(-7,243)" style="font-family: sans-serif; font-size: 10px; fill: #000; opacity: 1;">0</text><text text-anchor="end" transform="translate(-7,213)" style="font-family: sans-serif; font-size: 10px; fill: #000; opacity: 1;">5</text><text text-anchor="end" transform="translate(-7,183)" style="font-family: sans-serif; font-size: 10px; fill: #000; opacity: 1;">10</text><text text-anchor="end" transform="translate(-7,153)" style="font-family: sans-serif; font-size: 10px; fill: #000; opacity: 1;">15</text><text text-anchor="end" transform="translate(-7,123)" style="font-family: sans-serif; font-size: 10px; fill: #000; opacity: 1;">20</text><text text-anchor="end" transform="translate(-7,93.00000000000001)" style="font-family: sans-serif; font-size: 10px; fill: #000; opacity: 1;">25</text><text text-anchor="end" transform="translate(-7,62.999999999999986)" style="font-family: sans-serif; font-size: 10px; fill: #000; opacity: 1;">30</text><text text-anchor="end" transform="translate(-7,32.99999999999999)" style="font-family: sans-serif; font-size: 10px; fill: #000; opacity: 1;">35</text><text text-anchor="end" transform="translate(-7,3)" style="font-family: sans-serif; font-size: 10px; fill: #000; opacity: 1;">40</text></g><g class="mark-rule role-axis-domain" style="pointer-events: none;"><line transform="translate(0,300)" x2="0" y2="-300" style="fill: none; stroke: #888; stroke-width: 1; opacity: 1;"></line></g><g class="mark-text role-axis-title" style="pointer-events: none;"><text text-anchor="middle" transform="translate(-27,150) rotate(-90) translate(0,-2)" style="font-family: sans-serif; font-size: 11px; font-weight: bold; fill: #000; opacity: 1;">Daily Temperature Range (C)</text></g></g><path class="foreground" aria-hidden="true" d="" style="pointer-events: none; display: none; fill: none;"></path></g></g><g class="mark-area role-mark marks" role="graphics-object" aria-roledescription="area mark container"><path aria-label="Date: Jan; Daily Temperature Range (C): 12.8; Min of temp_min: -3.2" role="graphics-symbol" aria-roledescription="area mark" d="M0,163.20000000000002L1.643835616438356,176.39999999999998L3.287671232876712,169.8L4.931506849315068,166.8L6.575342465753424,166.8L8.21917808219178,166.8L9.863013698630136,180L11.506849315068493,169.8L13.150684931506849,180L14.794520547945204,163.20000000000002L16.43835616438356,153.6L18.08219178082192,173.39999999999998L19.72602739726027,176.39999999999998L21.36986301369863,173.39999999999998L23.013698630136986,173.39999999999998L24.65753424657534,169.8L26.301369863013697,160.20000000000002L27.945205479452056,156.6L29.58904109589041,180L31.232876712328768,180L32.87671232876712,180L34.52054794520548,183.60000000000002L36.16438356164384,166.8L37.8082191780822,153.6L39.45205479452054,136.79999999999998L41.0958904109589,143.4L42.73972602739726,173.39999999999998L44.38356164383562,166.8L46.02739726027397,166.8L47.67123287671233,186.60000000000002L49.31506849315068,183.60000000000002L50.95890410958904,169.8L52.602739726027394,173.39999999999998L54.24657534246575,153.6L55.89041095890411,146.4L57.534246575342465,156.6L59.17808219178082,143.4L60.821917808219176,146.4L62.465753424657535,150L64.10958904109589,160.20000000000002L65.75342465753424,163.20000000000002L67.3972602739726,163.20000000000002L69.04109589041096,139.79999999999998L70.68493150684931,146.4L72.32876712328768,153.6L73.97260273972603,160.20000000000002L75.6164383561644,150L77.26027397260273,143.4L78.90410958904108,166.8L80.54794520547945,176.39999999999998L82.1917808219178,173.39999999999998L83.83561643835617,166.8L85.47945205479452,169.8L87.12328767123287,163.20000000000002L88.76712328767124,173.39999999999998L90.41095890410958,166.8L92.05479452054794,156.6L93.6986301369863,163.20000000000002L95.34246575342466,153.6L96.98630136986301,210L98.63013698630137,150L100.27397260273973,156.6L101.91780821917808,153.6L103.56164383561645,156.6L105.20547945205479,146.4L106.84931506849314,150L108.4931506849315,139.79999999999998L110.13698630136986,136.79999999999998L111.78082191780823,150L113.42465753424658,160.20000000000002L115.06849315068493,153.6L116.64383561643835,133.2L118.2876712328767,136.79999999999998L119.93150684931507,153.6L121.57534246575342,139.79999999999998L123.21917808219179,156.6L124.86301369863014,160.20000000000002L126.5068493150685,146.4L128.15068493150685,146.4L129.7945205479452,156.6L131.43835616438358,160.20000000000002L133.08219178082192,169.8L134.72602739726025,163.20000000000002L136.36986301369862,126.60000000000001L138.013698630137,139.79999999999998L139.65753424657535,116.4L141.3013698630137,130.2L142.94520547945206,143.4L144.58904109589042,130.2L146.23287671232876,120L147.87671232876713,116.4L149.52054794520546,136.79999999999998L151.16438356164383,139.79999999999998L152.8082191780822,139.79999999999998L154.45205479452054,153.6L156.0958904109589,139.79999999999998L157.73972602739727,156.6L159.38356164383563,113.4L161.02739726027397,113.4L162.67123287671234,120L164.31506849315068,133.2L165.95890410958904,136.79999999999998L167.6027397260274,143.4L169.24657534246575,116.4L170.8904109589041,120L172.53424657534245,143.4L174.17808219178085,133.2L175.82191780821918,126.60000000000001L177.46575342465752,126.60000000000001L179.1095890410959,113.4L180.75342465753423,103.20000000000003L182.39726027397262,120L184.04109589041096,100.20000000000002L185.68493150684932,109.8L187.32876712328766,113.4L188.97260273972603,109.8L190.6164383561644,116.4L192.26027397260276,90.00000000000001L193.9041095890411,143.4L195.54794520547944,90.00000000000001L197.1917808219178,73.20000000000003L198.83561643835617,63.60000000000002L200.47945205479454,116.4L202.12328767123287,109.8L203.76712328767124,90.00000000000001L205.41095890410958,66.6L207.05479452054794,56.399999999999984L208.6986301369863,96.60000000000002L210.34246575342465,96.60000000000002L211.986301369863,79.79999999999997L213.63013698630135,83.4L215.27397260273975,76.79999999999997L216.91780821917808,93.60000000000002L218.56164383561645,79.79999999999997L220.2054794520548,73.20000000000003L221.84931506849313,79.79999999999997L223.49315068493152,109.8L225.13698630136986,120L226.78082191780823,86.39999999999998L228.42465753424656,109.8L230.06849315068493,100.20000000000002L231.7123287671233,86.39999999999998L233.35616438356166,93.60000000000002L235,120L236.64383561643834,130.2L238.2876712328767,106.8L239.93150684931507,106.8L241.57534246575344,93.60000000000002L243.21917808219177,73.20000000000003L244.86301369863014,83.4L246.50684931506848,103.20000000000003L248.15068493150687,90.00000000000001L249.7945205479452,103.20000000000003L251.43835616438355,100.20000000000002L253.08219178082192,106.8L254.72602739726025,83.4L256.36986301369865,79.79999999999997L258.013698630137,63.60000000000002L259.6575342465753,53.39999999999998L261.3013698630137,56.399999999999984L262.94520547945206,66.6L264.5890410958904,86.39999999999998L266.2328767123288,93.60000000000002L267.8767123287671,109.8L269.52054794520546,96.60000000000002L271.16438356164383,73.20000000000003L272.8082191780822,59.999999999999986L274.45205479452056,96.60000000000002L276.0958904109589,86.39999999999998L277.73972602739724,93.60000000000002L279.3835616438356,86.39999999999998L281.027397260274,90.00000000000001L282.67123287671234,86.39999999999998L284.3150684931507,86.39999999999998L285.958904109589,83.4L287.60273972602744,86.39999999999998L289.24657534246575,56.399999999999984L290.8904109589041,49.799999999999976L292.5342465753425,40.2L294.1780821917808,56.399999999999984L295.8219178082192,59.999999999999986L297.4657534246575,36.6L299.1095890410959,33.599999999999994L300.75342465753425,36.6L302.3972602739726,40.2L304.041095890411,40.2L305.6849315068493,43.2L307.32876712328766,63.60000000000002L308.972602739726,76.79999999999997L310.6164383561644,59.999999999999986L312.2602739726027,59.999999999999986L313.90410958904107,66.6L315.5479452054795,53.39999999999998L317.19178082191786,46.799999999999976L318.83561643835617,63.60000000000002L320.47945205479454,73.20000000000003L322.1232876712329,53.39999999999998L323.7671232876712,53.39999999999998L325.4109589041096,73.20000000000003L327.05479452054794,40.2L328.69863013698625,29.999999999999993L330.3424657534246,79.79999999999997L331.98630136986304,96.60000000000002L333.6301369863014,83.4L335.2739726027397,53.39999999999998L336.9178082191781,53.39999999999998L338.56164383561645,53.39999999999998L340.2054794520548,53.39999999999998L341.8493150684931,70.20000000000003L343.4931506849315,56.399999999999984L345.13698630136986,46.799999999999976L346.78082191780817,33.599999999999994L348.4246575342466,33.599999999999994L350.06849315068496,40.2L351.7123287671233,56.399999999999984L353.35616438356163,49.799999999999976L355,36.6L356.64383561643837,36.6L358.2876712328767,56.399999999999984L359.93150684931504,53.39999999999998L361.5753424657534,70.20000000000003L363.2191780821918,70.20000000000003L364.86301369863014,56.399999999999984L366.5068493150685,26.39999999999999L368.1506849315069,56.399999999999984L369.79452054794524,56.399999999999984L371.43835616438355,66.6L373.0821917808219,53.39999999999998L374.7260273972603,33.599999999999994L376.3698630136986,43.2L378.01369863013696,59.999999999999986L379.6575342465753,49.799999999999976L381.30136986301375,86.39999999999998L382.94520547945206,73.20000000000003L384.5890410958904,66.6L386.2328767123288,73.20000000000003L387.8767123287671,90.00000000000001L389.52054794520546,66.6L391.16438356164383,53.39999999999998L392.8082191780822,63.60000000000002L394.4520547945205,79.79999999999997L396.0958904109589,96.60000000000002L397.7397260273973,83.4L399.38356164383566,73.20000000000003L401.027397260274,73.20000000000003L402.67123287671234,73.20000000000003L404.3150684931507,90.00000000000001L405.958904109589,93.60000000000002L407.6027397260274,73.20000000000003L409.24657534246575,46.799999999999976L410.8904109589041,46.799999999999976L412.5342465753424,79.79999999999997L414.17808219178085,83.4L415.8219178082192,79.79999999999997L417.4657534246575,36.6L419.1095890410959,79.79999999999997L420.75342465753425,70.20000000000003L422.3972602739726,59.999999999999986L424.04109589041093,56.399999999999984L425.6849315068493,93.60000000000002L427.32876712328766,73.20000000000003L428.97260273972597,73.20000000000003L430.6164383561644,86.39999999999998L432.26027397260276,93.60000000000002L433.9041095890411,83.4L435.54794520547944,106.8L437.1917808219178,116.4L438.83561643835617,106.8L440.4794520547945,109.8L442.12328767123284,120L443.7671232876712,103.20000000000003L445.41095890410963,90.00000000000001L447.05479452054794,109.8L448.6986301369863,113.4L450.3424657534247,100.20000000000002L451.98630136986304,123.60000000000001L453.63013698630135,106.8L455.2739726027397,103.20000000000003L456.9178082191781,96.60000000000002L458.5616438356164,86.39999999999998L460.20547945205476,96.60000000000002L461.8493150684932,113.4L463.49315068493155,123.60000000000001L465.13698630136986,113.4L466.7808219178082,130.2L468.4246575342466,130.2L470.06849315068496,113.4L471.71232876712327,133.2L473.35616438356163,113.4L475,116.4L476.6438356164383,123.60000000000001L478.28767123287673,123.60000000000001L479.9315068493151,106.8L481.57534246575347,133.2L483.2191780821918,143.4L484.86301369863014,143.4L486.5068493150685,153.6L488.1506849315068,150L489.7945205479452,123.60000000000001L491.43835616438355,163.20000000000002L493.0821917808219,143.4L494.7260273972603,150L496.36986301369865,139.79999999999998L498.013698630137,136.79999999999998L499.6575342465753,146.4L501.3013698630137,133.2L502.94520547945206,150L504.5890410958904,146.4L506.23287671232873,133.2L507.94520547945206,150L509.58904109589037,139.79999999999998L511.2328767123288,153.6L512.8767123287671,160.20000000000002L514.5205479452055,160.20000000000002L516.1643835616438,173.39999999999998L517.8082191780821,143.4L519.4520547945206,146.4L521.0958904109589,156.6L522.7397260273973,173.39999999999998L524.3835616438356,176.39999999999998L526.0273972602739,180L527.6712328767123,160.20000000000002L529.3150684931508,163.20000000000002L530.9589041095891,160.20000000000002L532.6027397260274,173.39999999999998L534.2465753424658,173.39999999999998L535.8904109589041,180L537.5342465753424,163.20000000000002L539.1780821917808,169.8L540.8219178082192,156.6L542.4657534246575,150L544.1095890410959,153.6L545.7534246575343,163.20000000000002L547.3972602739726,163.20000000000002L549.0410958904109,150L550.6849315068494,160.20000000000002L552.3287671232877,176.39999999999998L553.972602739726,146.4L555.6164383561644,169.8L557.2602739726027,163.20000000000002L558.904109589041,163.20000000000002L560.5479452054794,153.6L562.1917808219179,146.4L563.8356164383562,143.4L565.4794520547945,126.60000000000001L567.1232876712329,153.6L568.7671232876712,173.39999999999998L570.4109589041095,180L572.054794520548,163.20000000000002L573.6986301369863,166.8L575.3424657534247,180L576.986301369863,186.60000000000002L578.6301369863014,183.60000000000002L580.2739726027397,173.39999999999998L581.9178082191781,163.20000000000002L583.5616438356165,163.20000000000002L585.2054794520548,176.39999999999998L586.8493150684932,166.8L588.4931506849315,190.2L590.1369863013698,193.19999999999996L591.7808219178082,199.8L593.4246575342466,183.60000000000002L595.068493150685,183.60000000000002L596.7123287671233,196.8L598.3561643835617,186.60000000000002L600,190.2L600,256.2L598.3561643835617,252.6L596.7123287671233,236.4L595.068493150685,229.8L593.4246575342466,240L591.7808219178082,240L590.1369863013698,229.8L588.4931506849315,226.8L586.8493150684932,223.2L585.2054794520548,223.2L583.5616438356165,250.2L581.9178082191781,236.4L580.2739726027397,240L578.6301369863014,236.4L576.986301369863,229.8L575.3424657534247,223.2L573.6986301369863,236.4L572.054794520548,233.4L570.4109589041095,220.2L568.7671232876712,243.00000000000003L567.1232876712329,249.6L565.4794520547945,236.4L563.8356164383562,269.40000000000003L562.1917808219179,279.59999999999997L560.5479452054794,282.59999999999997L558.904109589041,265.8L557.2602739726027,269.40000000000003L555.6164383561644,252.6L553.972602739726,243.00000000000003L552.3287671232877,259.2L550.6849315068494,259.2L549.0410958904109,269.40000000000003L547.3972602739726,265.8L545.7534246575343,256.2L544.1095890410959,249.6L542.4657534246575,246.00000000000003L540.8219178082192,240L539.1780821917808,236.4L537.5342465753424,240L535.8904109589041,240L534.2465753424658,243.00000000000003L532.6027397260274,236.4L530.9589041095891,226.8L529.3150684931508,243.00000000000003L527.6712328767123,252.6L526.0273972602739,252.6L524.3835616438356,249.6L522.7397260273973,252.6L521.0958904109589,236.4L519.4520547945206,240L517.8082191780821,233.4L516.1643835616438,243.60000000000002L514.5205479452055,233.4L512.8767123287671,233.4L511.2328767123288,216.6L509.58904109589037,199.8L507.94520547945206,196.8L506.23287671232873,220.2L504.5890410958904,213.6L502.94520547945206,196.8L501.3013698630137,196.8L499.6575342465753,190.2L498.013698630137,206.39999999999998L496.36986301369865,220.2L494.7260273972603,196.8L493.0821917808219,199.8L491.43835616438355,196.8L489.7945205479452,199.8L488.1506849315068,203.39999999999998L486.5068493150685,206.39999999999998L484.86301369863014,220.2L483.2191780821918,213.6L481.57534246575347,203.39999999999998L479.9315068493151,193.19999999999996L478.28767123287673,199.8L476.6438356164383,203.39999999999998L475,190.2L473.35616438356163,210L471.71232876712327,216.6L470.06849315068496,199.8L468.4246575342466,186.60000000000002L466.7808219178082,196.8L465.13698630136986,190.2L463.49315068493155,206.39999999999998L461.8493150684932,193.19999999999996L460.20547945205476,193.19999999999996L458.5616438356164,193.19999999999996L456.9178082191781,190.2L455.2739726027397,206.39999999999998L453.63013698630135,193.19999999999996L451.98630136986304,183.60000000000002L450.3424657534247,186.60000000000002L448.6986301369863,193.19999999999996L447.05479452054794,186.60000000000002L445.41095890410963,183.60000000000002L443.7671232876712,196.8L442.12328767123284,196.8L440.4794520547945,183.60000000000002L438.83561643835617,180L437.1917808219178,190.2L435.54794520547944,193.19999999999996L433.9041095890411,183.60000000000002L432.26027397260276,180L430.6164383561644,180L428.97260273972597,169.8L427.32876712328766,169.8L425.6849315068493,183.60000000000002L424.04109589041093,180L422.3972602739726,176.39999999999998L420.75342465753425,180L419.1095890410959,180L417.4657534246575,186.60000000000002L415.8219178082192,169.8L414.17808219178085,160.20000000000002L412.5342465753424,160.20000000000002L410.8904109589041,160.20000000000002L409.24657534246575,169.8L407.6027397260274,186.60000000000002L405.958904109589,180L404.3150684931507,176.39999999999998L402.67123287671234,180L401.027397260274,176.39999999999998L399.38356164383566,176.39999999999998L397.7397260273973,163.20000000000002L396.0958904109589,160.20000000000002L394.4520547945205,166.8L392.8082191780822,160.20000000000002L391.16438356164383,166.8L389.52054794520546,169.8L387.8767123287671,180L386.2328767123288,156.6L384.5890410958904,166.8L382.94520547945206,173.39999999999998L381.30136986301375,156.6L379.6575342465753,150L378.01369863013696,153.6L376.3698630136986,156.6L374.7260273972603,153.6L373.0821917808219,156.6L371.43835616438355,156.6L369.79452054794524,150L368.1506849315069,150L366.5068493150685,160.2L364.86301369863014,166.8L363.2191780821918,153.6L361.5753424657534,160.20000000000002L359.93150684931504,160.20000000000002L358.2876712328767,156.6L356.64383561643837,166.8L355,153.6L353.35616438356163,163.20000000000002L351.7123287671233,166.8L350.06849315068496,160.20000000000002L348.4246575342466,160.20000000000002L346.78082191780817,160.20000000000002L345.13698630136986,160.20000000000002L343.4931506849315,166.8L341.8493150684931,166.8L340.2054794520548,163.20000000000002L338.56164383561645,166.8L336.9178082191781,166.8L335.2739726027397,173.39999999999998L333.6301369863014,166.8L331.98630136986304,163.20000000000002L330.3424657534246,160.20000000000002L328.69863013698625,160.20000000000002L327.05479452054794,169.8L325.4109589041096,156.6L323.7671232876712,160.20000000000002L322.1232876712329,160.20000000000002L320.47945205479454,163.20000000000002L318.83561643835617,173.39999999999998L317.19178082191786,160.20000000000002L315.5479452054795,166.8L313.90410958904107,173.39999999999998L312.2602739726027,163.20000000000002L310.6164383561644,160.20000000000002L308.972602739726,163.20000000000002L307.32876712328766,173.39999999999998L305.6849315068493,176.39999999999998L304.041095890411,183.60000000000002L302.3972602739726,176.39999999999998L300.75342465753425,169.8L299.1095890410959,166.8L297.4657534246575,163.20000000000002L295.8219178082192,163.20000000000002L294.1780821917808,169.8L292.5342465753425,186.60000000000002L290.8904109589041,176.39999999999998L289.24657534246575,173.39999999999998L287.60273972602744,183.60000000000002L285.958904109589,183.60000000000002L284.3150684931507,173.39999999999998L282.67123287671234,176.39999999999998L281.027397260274,180L279.3835616438356,180L277.73972602739724,180L276.0958904109589,180L274.45205479452056,186.60000000000002L272.8082191780822,183.60000000000002L271.16438356164383,180L269.52054794520546,183.60000000000002L267.8767123287671,169.8L266.2328767123288,180L264.5890410958904,180L262.94520547945206,190.2L261.3013698630137,190.2L259.6575342465753,186.60000000000002L258.013698630137,203.39999999999998L256.36986301369865,190.2L254.72602739726025,186.60000000000002L253.08219178082192,183.60000000000002L251.43835616438355,176.39999999999998L249.7945205479452,176.39999999999998L248.15068493150687,180L246.50684931506848,186.60000000000002L244.86301369863014,193.19999999999996L243.21917808219177,180L241.57534246575344,180L239.93150684931507,186.60000000000002L238.2876712328767,186.60000000000002L236.64383561643834,186.60000000000002L235,199.8L233.35616438356166,196.8L231.7123287671233,190.2L230.06849315068493,183.60000000000002L228.42465753424656,196.8L226.78082191780823,193.19999999999996L225.13698630136986,199.8L223.49315068493152,183.60000000000002L221.84931506849313,186.60000000000002L220.2054794520548,193.19999999999996L218.56164383561645,183.60000000000002L216.91780821917808,199.8L215.27397260273975,213.59999999999997L213.63013698630135,216.6L211.986301369863,199.8L210.34246575342465,190.2L208.6986301369863,203.39999999999998L207.05479452054794,210L205.41095890410958,210L203.76712328767124,203.39999999999998L202.12328767123287,196.8L200.47945205479454,206.39999999999998L198.83561643835617,220.2L197.1917808219178,213.60000000000002L195.54794520547944,199.8L193.9041095890411,213.6L192.26027397260276,203.39999999999998L190.6164383561644,213.6L188.97260273972603,206.39999999999998L187.32876712328766,203.39999999999998L185.68493150684932,216.6L184.04109589041096,210L182.39726027397262,213.6L180.75342465753423,206.39999999999998L179.1095890410959,210L177.46575342465752,206.39999999999998L175.82191780821918,216.6L174.17808219178085,220.2L172.53424657534245,220.2L170.8904109589041,223.2L169.24657534246575,220.2L167.6027397260274,213.6L165.95890410958904,210L164.31506849315068,199.8L162.67123287671234,203.39999999999998L161.02739726027397,203.39999999999998L159.38356164383563,229.8L157.73972602739727,220.2L156.0958904109589,223.2L154.45205479452054,223.2L152.8082191780822,220.2L151.16438356164383,213.6L149.52054794520546,213.6L147.87671232876713,226.8L146.23287671232876,210L144.58904109589042,203.39999999999998L142.94520547945206,196.8L141.3013698630137,199.8L139.65753424657535,206.39999999999998L138.013698630137,226.8L136.36986301369862,236.4L134.72602739726025,236.4L133.08219178082192,236.4L131.43835616438358,233.4L129.7945205479452,229.8L128.15068493150685,246.6L126.5068493150685,243.60000000000002L124.86301369863014,236.4L123.21917808219179,216.6L121.57534246575342,213.6L119.93150684931507,233.4L118.2876712328767,236.4L116.64383561643835,236.4L115.06849315068493,223.2L113.42465753424658,216.6L111.78082191780823,233.4L110.13698630136986,236.4L108.4931506849315,250.2L106.84931506849314,240L105.20547945205479,233.4L103.56164383561645,243.00000000000003L101.91780821917808,240L100.27397260273973,223.2L98.63013698630137,233.4L96.98630136986301,233.4L95.34246575342466,243.60000000000002L93.6986301369863,253.2L92.05479452054794,246.6L90.41095890410958,223.2L88.76712328767124,226.8L87.12328767123287,236.4L85.47945205479452,223.2L83.83561643835617,216.6L82.1917808219178,233.4L80.54794520547945,229.8L78.90410958904108,216.6L77.26027397260273,213.6L75.6164383561644,220.2L73.97260273972603,236.4L72.32876712328768,233.4L70.68493150684931,213.6L69.04109589041096,210L67.3972602739726,213.6L65.75342465753424,229.8L64.10958904109589,240L62.465753424657535,243.00000000000003L60.821917808219176,269.40000000000003L59.17808219178082,276L57.534246575342465,273L55.89041095890411,252.6L54.24657534246575,240L52.602739726027394,233.4L50.95890410958904,223.2L49.31506849315068,220.2L47.67123287671233,233.4L46.02739726027397,220.2L44.38356164383562,236.4L42.73972602739726,253.2L41.0958904109589,236.4L39.45205479452054,233.4L37.8082191780822,233.4L36.16438356164384,233.4L34.52054794520548,250.2L32.87671232876712,250.2L31.232876712328768,246.6L29.58904109589041,256.8L27.945205479452056,256.8L26.301369863013697,256.8L24.65753424657534,263.4L23.013698630136986,259.8L21.36986301369863,253.2L19.72602739726027,266.4L18.08219178082192,263.4L16.43835616438356,256.8L14.794520547945204,243.60000000000002L13.150684931506849,229.8L11.506849315068493,229.8L9.863013698630136,223.2L8.21917808219178,243.00000000000003L6.575342465753424,243.00000000000003L4.931506849315068,236.4L3.287671232876712,250.2L1.643835616438356,246.6L0,259.2Z" style="fill: #4c78a8; opacity: 0.7;"></path></g><g class="mark-group role-title"><g transform="translate(300,-22)"><path class="background" aria-hidden="true" d="M0,0h0v0h0Z" style="pointer-events: none; fill: none;"></path><g><g class="mark-text role-title-text" role="graphics-symbol" aria-roledescription="title" aria-label="Title text 'Seattle Temperature Range, 2012-2015'" style="pointer-events: none;"><text text-anchor="middle" transform="translate(0,10)" style="font-family: sans-serif; font-size: 13px; font-weight: bold; fill: #000; opacity: 1;">Seattle Temperature Range, 2012-2015</text></g></g><path class="foreground" aria-hidden="true" d="" style="pointer-events: none; display: none; fill: none;"></path></g></g></g><path class="foreground" aria-hidden="true" d="" style="display: none; fill: none;"></path></g></g></g></svg>