<svg xmlns="http://www.w3.org/2000/svg" xmlns:xlink="http://www.w3.org/1999/xlink" version="1.1" class="marks" width="382" height="119" viewBox="0 0 382 119"><rect width="382" height="119" fill="white"/><g fill="none" stroke-miterlimit="10" transform="translate(76,22)"><g class="mark-group role-frame root" role="graphics-object" aria-roledescription="group mark container"><g transform="translate(0,0)"><path class="background" aria-hidden="true" d="M0.5,0.5h300v60h-300Z" stroke="#ddd"/><g><g class="mark-group role-axis" aria-hidden="true"><g transform="translate(0.5,60.5)"><path class="background" aria-hidden="true" d="M0,0h0v0h0Z" pointer-events="none"/><g><g class="mark-rule role-axis-grid" pointer-events="none"><line transform="translate(0,0)" x2="0" y2="-60" stroke="#ddd" stroke-width="1" opacity="1"/><line transform="translate(38,0)" x2="0" y2="-60" stroke="#ddd" stroke-width="1" opacity="1"/><line transform="translate(75,0)" x2="0" y2="-60" stroke="#ddd" stroke-width="1" opacity="1"/><line transform="translate(113,0)" x2="0" y2="-60" stroke="#ddd" stroke-width="1" opacity="1"/><line transform="translate(150,0)" x2="0" y2="-60" stroke="#ddd" stroke-width="1" opacity="1"/><line transform="translate(188,0)" x2="0" y2="-60" stroke="#ddd" stroke-width="1" opacity="1"/><line transform="translate(225,0)" x2="0" y2="-60" stroke="#ddd" stroke-width="1" opacity="1"/><line transform="translate(263,0)" x2="0" y2="-60" stroke="#ddd" stroke-width="1" opacity="1"/><line transform="translate(300,0)" x2="0" y2="-60" stroke="#ddd" stroke-width="1" opacity="1"/></g></g><path class="foreground" aria-hidden="true" d="" pointer-events="none" display="none"/></g></g><g class="mark-group role-axis" role="graphics-symbol" aria-roledescription="axis" aria-label="X-axis titled 'Body Mass (g)' for a linear scale with values from 2,500 to 6,500"><g transform="translate(0.5,60.5)"><path class="background" aria-hidden="true" d="M0,0h0v0h0Z" pointer-events="none"/><g><g class="mark-rule role-axis-tick" pointer-events="none"><line transform="translate(0,0)" x2="0" y2="5" stroke="#888" stroke-width="1" opacity="1"/><line transform="translate(38,0)" x2="0" y2="5" stroke="#888" stroke-width="1" opacity="1"/><line transform="translate(75,0)" x2="0" y2="5" stroke="#888" stroke-width="1" opacity="1"/><line transform="translate(113,0)" x2="0" y2="5" stroke="#888" stroke-width="1" opacity="1"/><line transform="translate(150,0)" x2="0" y2="5" stroke="#888" stroke-width="1" opacity="1"/><line transform="translate(188,0)" x2="0" y2="5" stroke="#888" stroke-width="1" opacity="1"/><line transform="translate(225,0)" x2="0" y2="5" stroke="#888" stroke-width="1" opacity="1"/><line transform="translate(263,0)" x2="0" y2="5" stroke="#888" stroke-width="1" opacity="1"/><line transform="translate(300,0)" x2="0" y2="5" stroke="#888" stroke-width="1" opacity="1"/></g><g class="mark-text role-axis-label" pointer-events="none"><text text-anchor="start" transform="translate(0,15)" font-family="sans-serif" font-size="10px" fill="#000" opacity="1">2,500</text><text text-anchor="middle" transform="translate(37.5,15)" font-family="sans-serif" font-size="10px" fill="#000" opacity="0">3,000</text><text text-anchor="middle" transform="translate(75,15)" font-family="sans-serif" font-size="10px" fill="#000" opacity="1">3,500</text><text text-anchor="middle" transform="translate(112.5,15)" font-family="sans-serif" font-size="10px" fill="#000" opacity="0">4,000</text><text text-anchor="middle" transform="translate(150,15)" font-family="sans-serif" font-size="10px" fill="#000" opacity="1">4,500</text><text text-anchor="middle" transform="translate(187.5,15)" font-family="sans-serif" font-size="10px" fill="#000" opacity="0">5,000</text><text text-anchor="middle" transform="translate(225,15)" font-family="sans-serif" font-size="10px" fill="#000" opacity="1">5,500</text><text text-anchor="middle" transform="translate(262.5,15)" font-family="sans-serif" font-size="10px" fill="#000" opacity="0">6,000</text><text text-anchor="end" transform="translate(300,15)" font-family="sans-serif" font-size="10px" fill="#000" opacity="1">6,500</text></g><g class="mark-rule role-axis-domain" pointer-events="none"><line transform="translate(0,0)" x2="300" y2="0" stroke="#888" stroke-width="1" opacity="1"/></g><g class="mark-text role-axis-title" pointer-events="none"><text text-anchor="middle" transform="translate(150,30)" font-family="sans-serif" font-size="11px" font-weight="bold" fill="#000" opacity="1">Body Mass (g)</text></g></g><path class="foreground" aria-hidden="true" d="" pointer-events="none" display="none"/></g></g><g class="mark-group role-axis" role="graphics-symbol" aria-roledescription="axis" aria-label="Y-axis titled 'Species' for a discrete scale with 3 values: Adelie, Chinstrap, Gentoo"><g transform="translate(0.5,0.5)"><path class="background" aria-hidden="true" d="M0,0h0v0h0Z" pointer-events="none"/><g><g class="mark-rule role-axis-tick" pointer-events="none"><line transform="translate(0,10)" x2="-5" y2="0" stroke="#888" stroke-width="1" opacity="1"/><line transform="translate(0,30)" x2="-5" y2="0" stroke="#888" stroke-width="1" opacity="1"/><line transform="translate(0,50)" x2="-5" y2="0" stroke="#888" stroke-width="1" opacity="1"/></g><g class="mark-text role-axis-label" pointer-events="none"><text text-anchor="end" transform="translate(-7,13)" font-family="sans-serif" font-size="10px" fill="#000" opacity="1">Adelie</text><text text-anchor="end" transform="translate(-7,33)" font-family="sans-serif" font-size="10px" fill="#000" opacity="1">Chinstrap</text><text text-anchor="end" transform="translate(-7,53)" font-family="sans-serif" font-size="10px" fill="#000" opacity="1">Gentoo</text></g><g class="mark-rule role-axis-domain" pointer-events="none"><line transform="translate(0,0)" x2="0" y2="60" stroke="#888" stroke-width="1" opacity="1"/></g><g class="mark-text role-axis-title" pointer-events="none"><text text-anchor="middle" transform="translate(-59.154296875,30) rotate(-90) translate(0,-2)" font-family="sans-serif" font-size="11px" font-weight="bold" fill="#000" opacity="1">Species</text></g></g><path class="foreground" aria-hidden="true" d="" pointer-events="none" display="none"/></g></g><g class="mark-group role-scope pathgroup" role="graphics-object" aria-roledescription="group mark container"><g transform="translate(0,0)"><path class="background" aria-hidden="true" d="M0,0h300v60h-300Z"/><g><g class="mark-area role-mark marks" role="graphics-object" aria-roledescription="area mark container"><path aria-label="Body Mass (g): 2850; Species: Adelie; density: 0.000198929441568" role="graphics-symbol" aria-roledescription="area mark" d="M26.25,11.882L32.025,12.606L37.8,13.36L43.575,14.117L49.35,14.869L55.125,15.605L58.012,15.954L60.9,16.28L62.344,16.432L63.788,16.574L65.231,16.706L65.953,16.768L66.675,16.826L67.397,16.882L68.119,16.934L68.841,16.983L69.563,17.029L70.284,17.071L71.006,17.11L71.728,17.146L72.45,17.178L73.172,17.208L73.894,17.233L74.616,17.256L75.337,17.275L76.059,17.292L76.781,17.305L77.503,17.316L78.225,17.323L78.947,17.329L79.669,17.332L80.391,17.332L81.113,17.33L81.834,17.326L82.556,17.32L83.278,17.312L84,17.302L84.722,17.291L85.444,17.277L86.166,17.262L86.888,17.246L87.609,17.228L88.331,17.208L89.053,17.186L89.775,17.163L90.497,17.139L91.219,17.112L91.941,17.084L92.663,17.054L93.384,17.022L94.106,16.989L94.828,16.953L95.55,16.915L96.272,16.875L96.994,16.833L97.716,16.789L98.438,16.742L99.159,16.693L99.881,16.642L100.603,16.589L101.325,16.533L102.769,16.415L104.212,16.289L105.656,16.156L107.1,16.016L112.875,15.423L115.763,15.128L118.65,14.848L121.538,14.589L122.981,14.468L124.425,14.353L127.313,14.135L130.2,13.927L135.975,13.512L141.75,13.069L147.525,12.608L153.3,12.166L156.188,11.959L159.075,11.76L164.85,11.38L170.625,11.014L170.625,8.986L164.85,8.62L159.075,8.24L156.188,8.041L153.3,7.834L147.525,7.392L141.75,6.931L135.975,6.488L130.2,6.073L127.313,5.865L124.425,5.647L122.981,5.532L121.538,5.411L118.65,5.152L115.763,4.872L112.875,4.577L107.1,3.984L105.656,3.844L104.212,3.711L102.769,3.585L101.325,3.467L100.603,3.411L99.881,3.358L99.159,3.307L98.438,3.258L97.716,3.211L96.994,3.167L96.272,3.125L95.55,3.085L94.828,3.047L94.106,3.011L93.384,2.978L92.663,2.946L91.941,2.916L91.219,2.888L90.497,2.861L89.775,2.837L89.053,2.814L88.331,2.792L87.609,2.772L86.888,2.754L86.166,2.738L85.444,2.723L84.722,2.709L84,2.698L83.278,2.688L82.556,2.68L81.834,2.674L81.113,2.67L80.391,2.668L79.669,2.668L78.947,2.671L78.225,2.677L77.503,2.684L76.781,2.695L76.059,2.708L75.337,2.725L74.616,2.744L73.894,2.767L73.172,2.792L72.45,2.822L71.728,2.854L71.006,2.89L70.284,2.929L69.563,2.971L68.841,3.017L68.119,3.066L67.397,3.118L66.675,3.174L65.953,3.232L65.231,3.294L63.788,3.426L62.344,3.568L60.9,3.72L58.012,4.046L55.125,4.395L49.35,5.131L43.575,5.883L37.8,6.64L32.025,7.394L26.25,8.118Z" fill="#4c78a8"/></g></g><path class="foreground" aria-hidden="true" d="" display="none"/></g><g transform="translate(0,0)"><path class="background" aria-hidden="true" d="M0,0h300v60h-300Z"/><g><g class="mark-area role-mark marks" role="graphics-object" aria-roledescription="area mark container"><path aria-label="Body Mass (g): 2700; Species: Chinstrap; density: 0.0000544882005518" role="graphics-symbol" aria-roledescription="area mark" d="M15,30.515L15.788,30.53L16.575,30.543L17.363,30.555L18.15,30.567L19.725,30.587L21.3,30.605L24.45,30.635L26.025,30.652L26.813,30.662L27.6,30.672L28.388,30.685L29.175,30.699L29.963,30.716L30.75,30.736L31.537,30.759L32.325,30.786L33.113,30.817L33.9,30.853L34.688,30.895L35.475,30.942L36.262,30.996L37.05,31.057L37.838,31.125L38.625,31.201L39.412,31.285L40.2,31.377L40.988,31.478L41.775,31.587L42.563,31.706L43.35,31.833L44.138,31.969L44.925,32.114L46.5,32.429L48.075,32.773L49.65,33.144L52.8,33.941L59.1,35.58L62.25,36.335L65.4,37.019L68.55,37.634L71.7,38.191L74.85,38.704L76.425,38.942L78,39.167L79.575,39.375L80.363,39.471L81.15,39.561L81.938,39.644L82.725,39.72L83.512,39.789L84.3,39.848L85.088,39.899L85.875,39.94L86.663,39.97L87.45,39.991L88.238,40L89.025,39.998L89.813,39.985L90.6,39.961L91.387,39.926L92.175,39.88L92.963,39.823L93.75,39.756L94.538,39.679L95.325,39.594L96.113,39.5L96.9,39.398L97.688,39.289L98.475,39.174L100.05,38.927L103.2,38.39L109.5,37.244L115.8,36.061L122.1,34.845L125.25,34.261L126.825,33.986L128.4,33.727L129.975,33.488L131.55,33.269L132.338,33.167L133.125,33.071L133.913,32.981L134.7,32.895L135.488,32.815L136.275,32.739L137.063,32.668L137.85,32.601L138.638,32.538L139.425,32.478L140.213,32.421L141,32.366L142.575,32.263L144.15,32.165L147.3,31.971L150.45,31.771L153.6,31.56L156.75,31.347L158.325,31.242L159.9,31.142L161.475,31.046L162.263,31.001L163.05,30.957L163.837,30.915L164.625,30.875L165.413,30.837L166.2,30.8L166.988,30.765L167.775,30.731L168.563,30.699L169.35,30.669L170.138,30.639L170.925,30.611L172.5,30.558L172.5,29.442L170.925,29.389L170.138,29.361L169.35,29.331L168.563,29.301L167.775,29.269L166.988,29.235L166.2,29.2L165.413,29.163L164.625,29.125L163.837,29.085L163.05,29.043L162.263,28.999L161.475,28.954L159.9,28.858L158.325,28.758L156.75,28.653L153.6,28.44L150.45,28.229L147.3,28.029L144.15,27.835L142.575,27.737L141,27.634L140.213,27.579L139.425,27.522L138.638,27.462L137.85,27.399L137.063,27.332L136.275,27.261L135.488,27.185L134.7,27.105L133.913,27.019L133.125,26.929L132.338,26.833L131.55,26.731L129.975,26.512L128.4,26.273L126.825,26.014L125.25,25.739L122.1,25.155L115.8,23.939L109.5,22.756L103.2,21.61L100.05,21.073L98.475,20.826L97.688,20.711L96.9,20.602L96.113,20.5L95.325,20.406L94.538,20.321L93.75,20.244L92.963,20.177L92.175,20.12L91.387,20.074L90.6,20.039L89.813,20.015L89.025,20.002L88.238,20L87.45,20.009L86.663,20.03L85.875,20.06L85.088,20.101L84.3,20.152L83.512,20.211L82.725,20.28L81.938,20.356L81.15,20.439L80.363,20.529L79.575,20.625L78,20.833L76.425,21.058L74.85,21.296L71.7,21.809L68.55,22.366L65.4,22.981L62.25,23.665L59.1,24.42L52.8,26.059L49.65,26.856L48.075,27.227L46.5,27.571L44.925,27.886L44.138,28.031L43.35,28.167L42.563,28.294L41.775,28.413L40.988,28.522L40.2,28.623L39.412,28.715L38.625,28.799L37.838,28.875L37.05,28.943L36.262,29.004L35.475,29.058L34.688,29.105L33.9,29.147L33.113,29.183L32.325,29.214L31.537,29.241L30.75,29.264L29.963,29.284L29.175,29.301L28.388,29.315L27.6,29.328L26.813,29.338L26.025,29.348L24.45,29.365L21.3,29.395L19.725,29.413L18.15,29.433L17.363,29.445L16.575,29.457L15.788,29.47L15,29.485Z" fill="#4c78a8"/></g></g><path class="foreground" aria-hidden="true" d="" display="none"/></g><g transform="translate(0,0)"><path class="background" aria-hidden="true" d="M0,0h300v60h-300Z"/><g><g class="mark-area role-mark marks" role="graphics-object" aria-roledescription="area mark container"><path aria-label="Body Mass (g): 3950; Species: Gentoo; density: 0.0000798067143888" role="graphics-symbol" aria-roledescription="area mark" d="M108.75,50.755L110.513,50.854L112.275,50.96L114.038,51.073L115.8,51.193L117.562,51.319L119.325,51.451L122.85,51.732L126.375,52.031L129.9,52.347L136.95,53.026L144,53.777L151.05,54.584L158.1,55.366L159.862,55.542L161.625,55.705L162.506,55.781L163.388,55.853L164.269,55.921L165.15,55.984L166.031,56.043L166.913,56.096L167.794,56.145L168.675,56.189L169.556,56.228L170.438,56.262L171.319,56.29L172.2,56.313L173.081,56.332L173.963,56.345L174.844,56.354L175.725,56.357L176.606,56.357L177.487,56.351L178.369,56.342L179.25,56.329L180.131,56.312L181.013,56.291L181.894,56.267L182.775,56.241L183.656,56.212L184.538,56.181L185.419,56.147L186.3,56.112L193.35,55.811L195.113,55.739L195.994,55.705L196.875,55.672L197.756,55.642L198.638,55.612L199.519,55.585L200.4,55.56L201.281,55.536L202.163,55.514L203.044,55.495L203.925,55.477L204.806,55.461L205.688,55.447L206.569,55.434L207.45,55.423L208.331,55.413L209.212,55.404L210.094,55.397L210.975,55.39L214.5,55.364L215.381,55.357L216.263,55.35L217.144,55.341L218.025,55.332L218.906,55.32L219.788,55.307L220.669,55.292L221.55,55.275L222.431,55.256L223.313,55.233L224.194,55.209L225.075,55.181L225.956,55.15L226.838,55.116L227.719,55.079L228.6,55.038L229.481,54.994L230.362,54.947L231.244,54.896L232.125,54.842L233.006,54.785L233.888,54.724L234.769,54.66L235.65,54.593L237.413,54.45L239.175,54.297L242.7,53.962L249.75,53.226L256.8,52.477L260.325,52.122L263.85,51.788L267.375,51.483L269.138,51.342L270.9,51.209L272.663,51.085L274.425,50.97L275.306,50.916L276.188,50.864L277.069,50.815L277.95,50.767L278.831,50.722L279.713,50.679L280.594,50.638L281.475,50.599L282.356,50.562L283.238,50.526L284.119,50.493L285,50.462L285,49.538L284.119,49.507L283.238,49.474L282.356,49.438L281.475,49.401L280.594,49.362L279.713,49.321L278.831,49.278L277.95,49.233L277.069,49.185L276.188,49.136L275.306,49.084L274.425,49.03L272.663,48.915L270.9,48.791L269.138,48.658L267.375,48.517L263.85,48.212L260.325,47.878L256.8,47.523L249.75,46.774L242.7,46.038L239.175,45.703L237.413,45.55L235.65,45.407L234.769,45.34L233.888,45.276L233.006,45.215L232.125,45.158L231.244,45.104L230.362,45.053L229.481,45.006L228.6,44.962L227.719,44.921L226.838,44.884L225.956,44.85L225.075,44.819L224.194,44.791L223.313,44.767L222.431,44.744L221.55,44.725L220.669,44.708L219.788,44.693L218.906,44.68L218.025,44.668L217.144,44.659L216.263,44.65L215.381,44.643L214.5,44.636L210.975,44.61L210.094,44.603L209.212,44.596L208.331,44.587L207.45,44.577L206.569,44.566L205.688,44.553L204.806,44.539L203.925,44.523L203.044,44.505L202.163,44.486L201.281,44.464L200.4,44.44L199.519,44.415L198.638,44.388L197.756,44.358L196.875,44.328L195.994,44.295L195.113,44.261L193.35,44.189L186.3,43.888L185.419,43.853L184.538,43.819L183.656,43.788L182.775,43.759L181.894,43.733L181.013,43.709L180.131,43.688L179.25,43.671L178.369,43.658L177.487,43.649L176.606,43.643L175.725,43.643L174.844,43.646L173.963,43.655L173.081,43.668L172.2,43.687L171.319,43.71L170.438,43.738L169.556,43.772L168.675,43.811L167.794,43.855L166.913,43.904L166.031,43.957L165.15,44.016L164.269,44.079L163.388,44.147L162.506,44.219L161.625,44.295L159.862,44.458L158.1,44.634L151.05,45.416L144,46.223L136.95,46.974L129.9,47.653L126.375,47.969L122.85,48.268L119.325,48.549L117.562,48.681L115.8,48.807L114.038,48.927L112.275,49.04L110.513,49.146L108.75,49.245Z" fill="#4c78a8"/></g></g><path class="foreground" aria-hidden="true" d="" display="none"/></g></g><g class="mark-group role-title"><g transform="translate(150,-17)"><path class="background" aria-hidden="true" d="M0,0h0v0h0Z" pointer-events="none"/><g><g class="mark-text role-title-text" role="graphics-symbol" aria-roledescription="title" aria-label="Title text 'Body Mass Density Ribbons by Species'" pointer-events="none"><text text-anchor="middle" transform="translate(0,10)" font-family="sans-serif" font-size="13px" font-weight="bold" fill="#000" opacity="1">Body Mass Density Ribbons by Species</text></g></g><path class="foreground" aria-hidden="true" d="" pointer-events="none" display="none"/></g></g></g><path class="foreground" aria-hidden="true" d="" display="none"/></g></g></g></svg>