<svg class="marks" width="659" height="369" viewBox="0 0 659 369" version="1.1" xmlns="http://www.w3.org/2000/svg" xmlns:xlink="http://www.w3.org/1999/xlink"><g transform="translate(54,29)"><g class="mark-group role-frame root"><g transform="translate(0,0)"><path class="background" d="M0.5,0.5h600v300h-600Z" style="fill: none; stroke: #ddd;"></path><g><g class="mark-group role-axis"><g transform="translate(0.5,300.5)"><path class="background" d="M0,0h0v0h0Z" style="pointer-events: none; fill: none;"></path><g><g class="mark-rule role-axis-grid" style="pointer-events: none;"><line transform="translate(0,-300)" x2="0" y2="300" style="fill: none; stroke: #ddd; stroke-width: 1; opacity: 1;"></line><line transform="translate(51,-300)" x2="0" y2="300" style="fill: none; stroke: #ddd; stroke-width: 1; opacity: 1;"></line><line transform="translate(97,-300)" x2="0" y2="300" style="fill: none; stroke: #ddd; stroke-width: 1; opacity: 1;"></line><line transform="translate(148,-300)" x2="0" y2="300" style="fill: none; stroke: #ddd; stroke-width: 1; opacity: 1;"></line><line transform="translate(198,-300)" x2="0" y2="300" style="fill: none; stroke: #ddd; stroke-width: 1; opacity: 1;"></line><line transform="translate(249,-300)" x2="0" y2="300" style="fill: none; stroke: #ddd; stroke-width: 1; opacity: 1;"></line><line transform="translate(298,-300)" x2="0" y2="300" style="fill: none; stroke: #ddd; stroke-width: 1; opacity: 1;"></line><line transform="translate(349,-300)" x2="0" y2="300" style="fill: none; stroke: #ddd; stroke-width: 1; opacity: 1;"></line><line transform="translate(401,-300)" x2="0" y2="300" style="fill: none; stroke: #ddd; stroke-width: 1; opacity: 1;"></line><line transform="translate(450,-300)" x2="0" y2="300" style="fill: none; stroke: #ddd; stroke-width: 1; opacity: 1;"></line><line transform="translate(501,-300)" x2="0" y2="300" style="fill: none; stroke: #ddd; stroke-width: 1; opacity: 1;"></line><line transform="translate(551,-300)" x2="0" y2="300" style="fill: none; stroke: #ddd; stroke-width: 1; opacity: 1;"></line></g></g></g></g><g class="mark-group role-axis"><g transform="translate(0.5,0.5)"><path class="background" d="M0,0h0v0h0Z" style="pointer-events: none; fill: none;"></path><g><g class="mark-rule role-axis-grid" style="pointer-events: none;"><line transform="translate(0,300)" x2="600" y2="0" style="fill: none; stroke: #ddd; stroke-width: 1; opacity: 1;"></line><line transform="translate(0,270)" x2="600" y2="0" style="fill: none; stroke: #ddd; stroke-width: 1; opacity: 1;"></line><line transform="translate(0,240)" x2="600" y2="0" style="fill: none; stroke: #ddd; stroke-width: 1; opacity: 1;"></line><line transform="translate(0,210)" x2="600" y2="0" style="fill: none; stroke: #ddd; stroke-width: 1; opacity: 1;"></line><line transform="translate(0,180)" x2="600" y2="0" style="fill: none; stroke: #ddd; stroke-width: 1; opacity: 1;"></line><line transform="translate(0,150)" x2="600" y2="0" style="fill: none; stroke: #ddd; stroke-width: 1; opacity: 1;"></line><line transform="translate(0,120)" x2="600" y2="0" style="fill: none; stroke: #ddd; stroke-width: 1; opacity: 1;"></line><line transform="translate(0,90)" x2="600" y2="0" style="fill: none; stroke: #ddd; stroke-width: 1; opacity: 1;"></line><line transform="translate(0,60)" x2="600" y2="0" style="fill: none; stroke: #ddd; stroke-width: 1; opacity: 1;"></line><line transform="translate(0,30)" x2="600" y2="0" style="fill: none; stroke: #ddd; stroke-width: 1; opacity: 1;"></line><line transform="translate(0,0)" x2="600" y2="0" style="fill: none; stroke: #ddd; stroke-width: 1; opacity: 1;"></line></g></g></g></g><g class="mark-area role-mark marks"><path d="M600,190.2L598.3516483516484,186.60000000000002L596.7032967032967,196.8L595.054945054945,183.60000000000002L593.4065934065934,183.60000000000002L591.7582417582418,199.8L590.1098901098901,193.2L588.4615384615385,190.2L586.8131868131868,166.8L585.1648351648352,176.39999999999998L583.5164835164835,163.2L581.8681318681319,163.2L580.2197802197802,173.39999999999998L578.5714285714286,183.60000000000002L576.9230769230769,186.60000000000002L575.2747252747253,180L573.6263736263736,166.8L571.978021978022,163.2L570.3296703296703,180L568.6813186813187,173.39999999999998L567.032967032967,153.6L565.3846153846154,126.60000000000002L563.7362637362637,143.4L562.0879120879121,146.4L560.4395604395604,153.6L558.7912087912088,163.2L557.1428571428571,163.2L555.4945054945056,169.8L553.8461538461539,146.4L552.1978021978022,176.39999999999998L550.5494505494505,160.2L548.9010989010989,150L547.2527472527472,163.2L545.6043956043956,163.2L543.9560439560439,153.6L542.3076923076923,150L540.6593406593406,156.6L539.0109890109891,169.8L537.3626373626374,163.2L535.7142857142858,180L534.065934065934,173.39999999999998L532.4175824175824,173.39999999999998L530.7692307692307,160.2L529.1208791208791,163.2L527.4725274725274,160.2L525.8241758241758,180L524.1758241758242,176.39999999999998L522.5274725274726,173.39999999999998L520.8791208791209,156.6L519.2307692307693,146.4L517.5824175824176,143.4L515.934065934066,173.39999999999998L514.2857142857142,160.2L512.6373626373626,160.2L510.989010989011,153.6L509.34065934065933,139.79999999999998L507.6923076923077,150L506.04395604395603,133.2L504.3956043956044,146.4L502.7472527472528,150L501.09890109890114,133.2L499.4505494505495,146.4L497.80219780219784,136.79999999999998L496.15384615384613,139.79999999999998L494.5054945054945,150L492.85714285714283,143.4L491.2087912087912,163.2L489.56043956043953,123.60000000000002L487.9120879120879,150L486.2637362637363,153.6L484.61538461538464,143.4L482.967032967033,143.4L481.31868131868134,133.2L479.6703296703297,106.79999999999998L478.021978021978,123.60000000000002L476.37362637362634,123.60000000000002L474.7252747252747,116.4L473.07692307692304,113.4L471.42857142857144,133.2L469.7802197802198,113.4L468.13186813186815,130.2L466.4835164835165,130.2L464.83516483516485,113.4L463.1868131868132,123.60000000000002L461.53846153846155,113.4L459.8901098901099,96.60000000000002L458.2417582417582,86.39999999999998L456.5934065934066,96.60000000000002L454.94505494505495,103.20000000000002L453.2967032967033,106.79999999999998L451.64835164835165,123.60000000000002L450,100.20000000000002L448.35164835164835,113.4L446.7032967032967,109.80000000000001L445.05494505494505,90L443.4065934065934,103.20000000000002L441.7582417582418,120L440.1098901098901,109.80000000000001L438.46153846153845,106.79999999999998L436.8131868131868,116.4L435.16483516483515,106.79999999999998L433.5164835164835,83.4L431.86813186813185,93.60000000000002L430.2197802197802,86.39999999999998L428.57142857142856,73.20000000000005L426.92307692307696,73.20000000000005L425.2747252747253,93.60000000000002L423.62637362637366,56.39999999999998L421.978021978022,60L420.3296703296703,70.20000000000002L418.68131868131866,79.79999999999998L417.032967032967,36.60000000000002L415.38461538461536,79.79999999999998L413.7362637362637,83.4L412.0879120879121,79.79999999999998L410.43956043956047,46.79999999999998L408.7912087912088,46.79999999999998L407.14285714285717,73.20000000000005L405.4945054945055,93.60000000000002L403.84615384615387,90L402.19780219780216,73.20000000000005L400.5494505494505,73.20000000000005L398.90109890109886,73.20000000000005L397.2527472527472,83.4L395.6043956043956,96.60000000000002L393.95604395604397,79.79999999999998L392.3076923076923,63.60000000000002L390.65934065934067,53.39999999999998L389.010989010989,66.6L387.3626373626374,90L385.7142857142857,73.20000000000005L384.065934065934,66.6L382.41758241758237,73.20000000000005L380.7692307692308,86.39999999999998L379.1208791208791,49.79999999999998L377.4725274725275,60L375.8241758241758,43.19999999999999L374.1758241758242,33.60000000000002L372.5274725274725,53.39999999999998L370.8791208791209,66.6L369.2307692307692,56.39999999999998L367.58241758241763,56.39999999999998L365.934065934066,26.399999999999977L364.2857142857143,56.39999999999998L362.6373626373626,70.20000000000002L360.989010989011,70.20000000000002L359.34065934065933,53.39999999999998L357.6923076923077,56.39999999999998L356.04395604395603,36.60000000000002L354.3956043956044,36.60000000000002L352.7472527472528,49.79999999999998L351.09890109890114,56.39999999999998L349.4505494505495,40.19999999999999L347.80219780219784,33.60000000000002L346.15384615384613,33.60000000000002L344.5054945054945,46.79999999999998L342.85714285714283,56.39999999999998L341.2087912087912,70.20000000000002L339.56043956043953,53.39999999999998L337.9120879120879,53.39999999999998L336.2637362637363,53.39999999999998L334.61538461538464,53.39999999999998L332.967032967033,83.4L331.31868131868134,96.60000000000002L329.6703296703297,79.79999999999998L328.021978021978,30L326.37362637362634,40.19999999999999L324.7252747252747,73.20000000000005L323.07692307692304,53.39999999999998L321.42857142857144,53.39999999999998L319.7802197802198,73.20000000000005L318.13186813186815,63.60000000000002L316.4835164835165,46.79999999999998L314.83516483516485,53.39999999999998L313.1868131868132,66.6L311.53846153846155,60L309.8901098901099,60L308.2417582417582,76.79999999999995L306.5934065934066,63.60000000000002L304.94505494505495,43.19999999999999L303.2967032967033,40.19999999999999L301.64835164835165,40.19999999999999L300,36.60000000000002L298.35164835164835,33.60000000000002L296.7032967032967,36.60000000000002L295.05494505494505,60L293.4065934065934,56.39999999999998L291.75824175824175,40.19999999999999L290.1098901098901,49.79999999999998L288.46153846153845,56.39999999999998L286.8131868131868,86.39999999999998L285.16483516483515,83.4L283.5164835164835,86.39999999999998L281.86813186813185,86.39999999999998L280.2197802197802,90L278.57142857142856,86.39999999999998L276.92307692307696,93.60000000000002L275.27472527472526,86.39999999999998L273.6263736263736,96.60000000000002L271.97802197802196,60L270.3296703296703,73.20000000000005L268.6813186813187,96.60000000000002L267.032967032967,109.80000000000001L265.38461538461536,93.60000000000002L263.7362637362637,86.39999999999998L262.0879120879121,66.6L260.43956043956047,56.39999999999998L258.7912087912088,53.39999999999998L257.1428571428571,63.60000000000002L255.4945054945055,79.79999999999998L253.84615384615384,83.4L252.1978021978022,106.79999999999998L250.54945054945057,100.20000000000002L248.90109890109892,103.20000000000002L247.25274725274724,90L245.6043956043956,103.20000000000002L243.95604395604394,83.4L242.30769230769232,73.20000000000005L240.65934065934067,93.60000000000002L239.010989010989,106.79999999999998L237.36263736263734,106.79999999999998L235.71428571428572,130.2L234.06593406593407,120L232.41758241758242,93.60000000000002L230.76923076923077,86.39999999999998L229.1208791208791,100.20000000000002L227.47252747252747,109.80000000000001L225.82417582417582,86.39999999999998L224.17582417582418,120L222.52747252747253,109.80000000000001L220.8791208791209,79.79999999999998L219.23076923076923,73.20000000000005L217.58241758241758,79.79999999999998L215.93406593406593,93.60000000000002L214.28571428571428,76.79999999999995L212.63736263736266,83.4L210.989010989011,79.79999999999998L209.34065934065933,96.60000000000002L207.69230769230768,96.60000000000002L206.04395604395606,56.39999999999998L204.3956043956044,66.6L202.74725274725276,90L201.09890109890108,109.80000000000001L199.45054945054943,116.4L197.8021978021978,63.60000000000002L196.15384615384616,73.20000000000005L194.5054945054945,90L192.85714285714286,143.4L191.20879120879118,90L189.56043956043956,116.4L187.9120879120879,109.80000000000001L186.26373626373626,113.4L184.6153846153846,109.80000000000001L182.967032967033,100.20000000000002L181.3186813186813,120L179.67032967032966,103.20000000000002L178.02197802197801,113.4L176.3736263736264,126.60000000000002L174.72527472527474,126.60000000000002L173.07692307692307,133.2L171.42857142857142,143.4L169.78021978021977,120L168.13186813186815,116.4L166.4835164835165,143.4L164.83516483516485,136.79999999999998L163.18681318681317,133.2L161.53846153846152,120L159.8901098901099,113.4L158.24175824175825,113.4L156.5934065934066,156.6L154.94505494505495,139.79999999999998L153.2967032967033,153.6L151.64835164835165,139.79999999999998L150,139.79999999999998L148.35164835164835,136.79999999999998L146.7032967032967,116.4L145.05494505494505,120L143.4065934065934,130.2L141.75824175824175,143.4L140.1098901098901,130.2L138.46153846153848,116.4L136.8131868131868,139.79999999999998L135.16483516483515,126.60000000000002L133.5164835164835,163.2L131.86813186813185,169.8L130.21978021978023,160.2L128.57142857142856,156.6L126.92307692307692,146.4L125.27472527472528,146.4L123.62637362637362,160.2L121.97802197802197,156.6L120.32967032967034,139.79999999999998L118.68131868131867,153.6L117.03296703296704,136.79999999999998L115.38461538461539,133.2L113.73626373626374,153.6L112.08791208791209,160.2L110.43956043956045,150L108.79120879120879,136.79999999999998L107.14285714285714,139.79999999999998L105.4945054945055,150L103.84615384615384,146.4L102.1978021978022,156.6L100.54945054945054,153.6L98.9010989010989,156.6L97.25274725274726,150L95.60439560439559,153.6L93.95604395604396,163.2L92.3076923076923,156.6L90.65934065934066,166.8L89.01098901098901,173.39999999999998L87.36263736263737,163.2L85.71428571428571,169.8L84.06593406593407,166.8L82.41758241758242,173.39999999999998L80.76923076923076,176.39999999999998L79.12087912087912,166.8L77.47252747252747,143.4L75.82417582417582,150L74.17582417582418,160.2L72.52747252747253,153.6L70.87912087912088,146.4L69.23076923076924,139.79999999999998L67.58241758241758,163.2L65.93406593406593,163.2L64.28571428571428,160.2L62.63736263736264,150L60.989010989010985,146.4L59.340659340659336,143.4L57.69230769230769,156.6L56.043956043956044,146.4L54.395604395604394,153.6L52.74725274725275,173.39999999999998L51.0989010989011,169.8L49.45054945054945,183.60000000000002L47.802197802197796,186.60000000000002L46.15384615384615,166.8L44.505494505494504,166.8L42.857142857142854,173.39999999999998L41.20879120879121,143.4L39.56043956043956,136.79999999999998L37.91208791208791,153.6L36.26373626373626,166.8L34.61538461538462,183.60000000000002L32.967032967032964,180L31.31868131868132,180L29.670329670329668,180L28.021978021978022,156.6L26.373626373626376,160.2L24.725274725274726,169.8L23.076923076923077,173.39999999999998L21.428571428571427,173.39999999999998L19.78021978021978,176.39999999999998L18.13186813186813,173.39999999999998L16.483516483516482,153.6L14.835164835164834,163.2L13.186813186813188,180L11.538461538461538,169.8L9.89010989010989,180L8.241758241758241,166.8L6.593406593406594,166.8L4.945054945054945,166.8L3.296703296703297,169.8L1.6483516483516485,176.39999999999998L0,163.2L0,259.2L1.6483516483516485,246.6L3.296703296703297,250.2L4.945054945054945,236.4L6.593406593406594,243L8.241758241758241,243L9.89010989010989,223.2L11.538461538461538,229.8L13.186813186813188,229.8L14.835164835164834,243.6L16.483516483516482,256.8L18.13186813186813,263.4L19.78021978021978,266.4L21.428571428571427,253.2L23.076923076923077,259.8L24.725274725274726,263.4L26.373626373626376,256.8L28.021978021978022,256.8L29.670329670329668,256.8L31.31868131868132,246.6L32.967032967032964,250.2L34.61538461538462,250.2L36.26373626373626,233.4L37.91208791208791,233.4L39.56043956043956,233.4L41.20879120879121,236.4L42.857142857142854,253.2L44.505494505494504,236.4L46.15384615384615,220.2L47.802197802197796,233.4L49.45054945054945,220.2L51.0989010989011,223.2L52.74725274725275,233.4L54.395604395604394,240L56.043956043956044,252.6L57.69230769230769,273L59.340659340659336,276L60.989010989010985,269.4L62.63736263736264,243L64.28571428571428,240L65.93406593406593,229.8L67.58241758241758,213.6L69.23076923076924,210L70.87912087912088,213.6L72.52747252747253,233.4L74.17582417582418,236.4L75.82417582417582,220.2L77.47252747252747,213.6L79.12087912087912,216.6L80.76923076923076,229.8L82.41758241758242,233.4L84.06593406593407,216.6L85.71428571428571,223.2L87.36263736263737,236.4L89.01098901098901,226.8L90.65934065934066,223.2L92.3076923076923,246.6L93.95604395604396,253.2L95.60439560439559,243.6L97.25274725274726,233.4L98.9010989010989,223.2L100.54945054945054,240L102.1978021978022,243L103.84615384615384,233.4L105.4945054945055,240L107.14285714285714,250.2L108.79120879120879,236.4L110.43956043956045,233.4L112.08791208791209,216.6L113.73626373626374,223.2L115.38461538461539,236.4L117.03296703296704,236.4L118.68131868131867,233.4L120.32967032967034,213.6L121.97802197802197,216.6L123.62637362637362,236.4L125.27472527472528,243.6L126.92307692307692,246.6L128.57142857142856,229.8L130.21978021978023,233.4L131.86813186813185,236.4L133.5164835164835,236.4L135.16483516483515,236.4L136.8131868131868,226.8L138.46153846153848,206.4L140.1098901098901,199.8L141.75824175824175,196.8L143.4065934065934,203.39999999999998L145.05494505494505,210L146.7032967032967,226.8L148.35164835164835,213.6L150,213.6L151.64835164835165,220.2L153.2967032967033,223.2L154.94505494505495,223.2L156.5934065934066,220.2L158.24175824175825,229.8L159.8901098901099,203.39999999999998L161.53846153846152,203.39999999999998L163.18681318681317,199.8L164.83516483516485,210L166.4835164835165,213.6L168.13186813186815,220.2L169.78021978021977,223.2L171.42857142857142,220.2L173.07692307692307,220.2L174.72527472527474,216.6L176.3736263736264,206.4L178.02197802197801,210L179.67032967032966,206.4L181.3186813186813,213.6L182.967032967033,210L184.6153846153846,216.6L186.26373626373626,203.39999999999998L187.9120879120879,206.4L189.56043956043956,213.6L191.20879120879118,203.39999999999998L192.85714285714286,213.6L194.5054945054945,199.8L196.15384615384616,213.6L197.8021978021978,220.2L199.45054945054943,206.4L201.09890109890108,196.8L202.74725274725276,203.39999999999998L204.3956043956044,210L206.04395604395606,210L207.69230769230768,203.39999999999998L209.34065934065933,190.2L210.989010989011,199.8L212.63736263736266,216.6L214.28571428571428,213.6L215.93406593406593,199.8L217.58241758241758,183.60000000000002L219.23076923076923,193.2L220.8791208791209,186.60000000000002L222.52747252747253,183.60000000000002L224.17582417582418,199.8L225.82417582417582,193.2L227.47252747252747,196.8L229.1208791208791,183.60000000000002L230.76923076923077,190.2L232.41758241758242,196.8L234.06593406593407,199.8L235.71428571428572,186.60000000000002L237.36263736263734,186.60000000000002L239.010989010989,186.60000000000002L240.65934065934067,180L242.30769230769232,180L243.95604395604394,193.2L245.6043956043956,186.60000000000002L247.25274725274724,180L248.90109890109892,176.39999999999998L250.54945054945057,176.39999999999998L252.1978021978022,183.60000000000002L253.84615384615384,186.60000000000002L255.4945054945055,190.2L257.1428571428571,203.39999999999998L258.7912087912088,186.60000000000002L260.43956043956047,190.2L262.0879120879121,190.2L263.7362637362637,180L265.38461538461536,180L267.032967032967,169.8L268.6813186813187,183.60000000000002L270.3296703296703,180L271.97802197802196,183.60000000000002L273.6263736263736,186.60000000000002L275.27472527472526,180L276.92307692307696,180L278.57142857142856,180L280.2197802197802,180L281.86813186813185,176.39999999999998L283.5164835164835,173.39999999999998L285.16483516483515,183.60000000000002L286.8131868131868,183.60000000000002L288.46153846153845,173.39999999999998L290.1098901098901,176.39999999999998L291.75824175824175,186.60000000000002L293.4065934065934,169.8L295.05494505494505,163.2L296.7032967032967,163.2L298.35164835164835,166.8L300,169.8L301.64835164835165,176.39999999999998L303.2967032967033,183.60000000000002L304.94505494505495,176.39999999999998L306.5934065934066,173.39999999999998L308.2417582417582,163.2L309.8901098901099,160.2L311.53846153846155,163.2L313.1868131868132,173.39999999999998L314.83516483516485,166.8L316.4835164835165,160.2L318.13186813186815,173.39999999999998L319.7802197802198,163.2L321.42857142857144,160.2L323.07692307692304,160.2L324.7252747252747,156.6L326.37362637362634,169.8L328.021978021978,160.2L329.6703296703297,160.2L331.31868131868134,163.2L332.967032967033,166.8L334.61538461538464,173.39999999999998L336.2637362637363,166.8L337.9120879120879,166.8L339.56043956043953,163.2L341.2087912087912,166.8L342.85714285714283,166.8L344.5054945054945,160.2L346.15384615384613,160.2L347.80219780219784,160.2L349.4505494505495,160.2L351.09890109890114,166.8L352.7472527472528,163.2L354.3956043956044,153.6L356.04395604395603,166.8L357.6923076923077,156.6L359.34065934065933,160.2L360.989010989011,160.2L362.6373626373626,153.6L364.2857142857143,166.8L365.934065934066,160.2L367.58241758241763,150L369.2307692307692,150L370.8791208791209,156.6L372.5274725274725,156.6L374.1758241758242,153.6L375.8241758241758,156.6L377.4725274725275,153.6L379.1208791208791,150L380.7692307692308,156.6L382.41758241758237,173.39999999999998L384.065934065934,166.8L385.7142857142857,156.6L387.3626373626374,180L389.010989010989,169.8L390.65934065934067,166.8L392.3076923076923,160.2L393.95604395604397,166.8L395.6043956043956,160.2L397.2527472527472,163.2L398.90109890109886,176.39999999999998L400.5494505494505,176.39999999999998L402.19780219780216,180L403.84615384615387,176.39999999999998L405.4945054945055,180L407.14285714285717,186.60000000000002L408.7912087912088,169.8L410.43956043956047,160.2L412.0879120879121,160.2L413.7362637362637,160.2L415.38461538461536,169.8L417.032967032967,186.60000000000002L418.68131868131866,180L420.3296703296703,180L421.978021978022,176.39999999999998L423.62637362637366,180L425.2747252747253,183.60000000000002L426.92307692307696,169.8L428.57142857142856,169.8L430.2197802197802,180L431.86813186813185,180L433.5164835164835,183.60000000000002L435.16483516483515,193.2L436.8131868131868,190.2L438.46153846153845,180L440.1098901098901,183.60000000000002L441.7582417582418,196.8L443.4065934065934,196.8L445.05494505494505,183.60000000000002L446.7032967032967,186.60000000000002L448.35164835164835,193.2L450,186.60000000000002L451.64835164835165,183.60000000000002L453.2967032967033,193.2L454.94505494505495,206.4L456.5934065934066,190.2L458.2417582417582,193.2L459.8901098901099,193.2L461.53846153846155,193.2L463.1868131868132,206.4L464.83516483516485,190.2L466.4835164835165,196.8L468.13186813186815,186.60000000000002L469.7802197802198,199.8L471.42857142857144,216.6L473.07692307692304,210L474.7252747252747,190.2L476.37362637362634,203.39999999999998L478.021978021978,199.8L479.6703296703297,193.2L481.31868131868134,203.39999999999998L482.967032967033,213.6L484.61538461538464,220.2L486.2637362637363,206.4L487.9120879120879,203.39999999999998L489.56043956043953,199.8L491.2087912087912,196.8L492.85714285714283,199.8L494.5054945054945,196.8L496.15384615384613,220.2L497.80219780219784,206.4L499.4505494505495,190.2L501.09890109890114,196.8L502.7472527472528,196.8L504.3956043956044,213.6L506.04395604395603,220.2L507.6923076923077,196.8L509.34065934065933,199.8L510.989010989011,216.6L512.6373626373626,233.4L514.2857142857142,233.4L515.934065934066,243.6L517.5824175824176,233.4L519.2307692307693,240L520.8791208791209,236.4L522.5274725274726,252.6L524.1758241758242,249.6L525.8241758241758,252.6L527.4725274725274,252.6L529.1208791208791,243L530.7692307692307,226.8L532.4175824175824,236.4L534.065934065934,243L535.7142857142858,240L537.3626373626374,240L539.0109890109891,236.4L540.6593406593406,240L542.3076923076923,246L543.9560439560439,249.6L545.6043956043956,256.2L547.2527472527472,265.8L548.9010989010989,269.4L550.5494505494505,259.2L552.1978021978022,259.2L553.8461538461539,243L555.4945054945056,252.6L557.1428571428571,269.4L558.7912087912088,265.8L560.4395604395604,282.6L562.0879120879121,279.6L563.7362637362637,269.4L565.3846153846154,236.4L567.032967032967,249.6L568.6813186813187,243L570.3296703296703,220.2L571.978021978022,233.4L573.6263736263736,236.4L575.2747252747253,223.2L576.9230769230769,229.8L578.5714285714286,236.4L580.2197802197802,240L581.8681318681319,236.4L583.5164835164835,250.2L585.1648351648352,223.2L586.8131868131868,223.2L588.4615384615385,226.8L590.1098901098901,229.8L591.7582417582418,240L593.4065934065934,240L595.054945054945,229.8L596.7032967032967,236.4L598.3516483516484,252.6L600,256.2Z" style="fill: #4c78a8; opacity: 0.7;"></path></g><g class="mark-text role-title" style="pointer-events: none;"><text text-anchor="middle" transform="translate(300,-13)" style="font-family: sans-serif; font-size: 13px; font-weight: bold; fill: #000; opacity: 1;">Seattle Temperature Range, 2012-2015</text></g><g class="mark-group role-axis"><g transform="translate(0.5,300.5)"><path class="background" d="M0,0h0v0h0Z" style="pointer-events: none; fill: none;"></path><g><g class="mark-rule role-axis-tick" style="pointer-events: none;"><line transform="translate(0,0)" x2="0" y2="5" style="fill: none; stroke: #888; stroke-width: 1; opacity: 1;"></line><line transform="translate(51,0)" x2="0" y2="5" style="fill: none; stroke: #888; stroke-width: 1; opacity: 1;"></line><line transform="translate(97,0)" x2="0" y2="5" style="fill: none; stroke: #888; stroke-width: 1; opacity: 1;"></line><line transform="translate(148,0)" x2="0" y2="5" style="fill: none; stroke: #888; stroke-width: 1; opacity: 1;"></line><line transform="translate(198,0)" x2="0" y2="5" style="fill: none; stroke: #888; stroke-width: 1; opacity: 1;"></line><line transform="translate(249,0)" x2="0" y2="5" style="fill: none; stroke: #888; stroke-width: 1; opacity: 1;"></line><line transform="translate(298,0)" x2="0" y2="5" style="fill: none; stroke: #888; stroke-width: 1; opacity: 1;"></line><line transform="translate(349,0)" x2="0" y2="5" style="fill: none; stroke: #888; stroke-width: 1; opacity: 1;"></line><line transform="translate(401,0)" x2="0" y2="5" style="fill: none; stroke: #888; stroke-width: 1; opacity: 1;"></line><line transform="translate(450,0)" x2="0" y2="5" style="fill: none; stroke: #888; stroke-width: 1; opacity: 1;"></line><line transform="translate(501,0)" x2="0" y2="5" style="fill: none; stroke: #888; stroke-width: 1; opacity: 1;"></line><line transform="translate(551,0)" x2="0" y2="5" style="fill: none; stroke: #888; stroke-width: 1; opacity: 1;"></line></g><g class="mark-text role-axis-label" style="pointer-events: none;"><text text-anchor="start" transform="translate(0,15)" style="font-family: sans-serif; font-size: 10px; fill: #000; opacity: 1;">Jan</text><text text-anchor="middle" transform="translate(51.0989010989011,15)" style="font-family: sans-serif; font-size: 10px; fill: #000; opacity: 1;">Feb</text><text text-anchor="middle" transform="translate(97.25274725274726,15)" style="font-family: sans-serif; font-size: 10px; fill: #000; opacity: 1;">Mar</text><text text-anchor="middle" transform="translate(148.35164835164835,15)" style="font-family: sans-serif; font-size: 10px; fill: #000; opacity: 1;">Apr</text><text text-anchor="middle" transform="translate(197.8021978021978,15)" style="font-family: sans-serif; font-size: 10px; fill: #000; opacity: 1;">May</text><text text-anchor="middle" transform="translate(248.90109890109892,15)" style="font-family: sans-serif; font-size: 10px; fill: #000; opacity: 1;">Jun</text><text text-anchor="middle" transform="translate(298.35164835164835,15)" style="font-family: sans-serif; font-size: 10px; fill: #000; opacity: 1;">Jul</text><text text-anchor="middle" transform="translate(349.4505494505495,15)" style="font-family: sans-serif; font-size: 10px; fill: #000; opacity: 1;">Aug</text><text text-anchor="middle" transform="translate(400.5494505494505,15)" style="font-family: sans-serif; font-size: 10px; fill: #000; opacity: 1;">Sep</text><text text-anchor="middle" transform="translate(450,15)" style="font-family: sans-serif; font-size: 10px; fill: #000; opacity: 1;">Oct</text><text text-anchor="middle" transform="translate(501.09890109890114,15)" style="font-family: sans-serif; font-size: 10px; fill: #000; opacity: 1;">Nov</text><text text-anchor="middle" transform="translate(550.5494505494505,15)" style="font-family: sans-serif; font-size: 10px; fill: #000; opacity: 1;">Dec</text></g><g class="mark-rule role-axis-domain" style="pointer-events: none;"><line transform="translate(0,0)" x2="600" y2="0" style="fill: none; stroke: #888; stroke-width: 1; opacity: 1;"></line></g><g class="mark-text role-axis-title" style="pointer-events: none;"><text text-anchor="middle" transform="translate(300,31)" style="font-family: sans-serif; font-size: 11px; font-weight: bold; fill: #000; opacity: 1;">Date</text></g></g></g></g><g class="mark-group role-axis"><g transform="translate(0.5,0.5)"><path class="background" d="M0,0h0v0h0Z" style="pointer-events: none; fill: none;"></path><g><g class="mark-rule role-axis-tick" style="pointer-events: none;"><line transform="translate(0,300)" x2="-5" y2="0" style="fill: none; stroke: #888; stroke-width: 1; opacity: 1;"></line><line transform="translate(0,270)" x2="-5" y2="0" style="fill: none; stroke: #888; stroke-width: 1; opacity: 1;"></line><line transform="translate(0,240)" x2="-5" y2="0" style="fill: none; stroke: #888; stroke-width: 1; opacity: 1;"></line><line transform="translate(0,210)" x2="-5" y2="0" style="fill: none; stroke: #888; stroke-width: 1; opacity: 1;"></line><line transform="translate(0,180)" x2="-5" y2="0" style="fill: none; stroke: #888; stroke-width: 1; opacity: 1;"></line><line transform="translate(0,150)" x2="-5" y2="0" style="fill: none; stroke: #888; stroke-width: 1; opacity: 1;"></line><line transform="translate(0,120)" x2="-5" y2="0" style="fill: none; stroke: #888; stroke-width: 1; opacity: 1;"></line><line transform="translate(0,90)" x2="-5" y2="0" style="fill: none; stroke: #888; stroke-width: 1; opacity: 1;"></line><line transform="translate(0,60)" x2="-5" y2="0" style="fill: none; stroke: #888; stroke-width: 1; opacity: 1;"></line><line transform="translate(0,30)" x2="-5" y2="0" style="fill: none; stroke: #888; stroke-width: 1; opacity: 1;"></line><line transform="translate(0,0)" x2="-5" y2="0" style="fill: none; stroke: #888; stroke-width: 1; opacity: 1;"></line></g><g class="mark-text role-axis-label" style="pointer-events: none;"><text text-anchor="end" transform="translate(-7,303)" style="font-family: sans-serif; font-size: 10px; fill: #000; opacity: 1;">-10</text><text text-anchor="end" transform="translate(-7,273)" style="font-family: sans-serif; font-size: 10px; fill: #000; opacity: 1;">-5</text><text text-anchor="end" transform="translate(-7,243)" style="font-family: sans-serif; font-size: 10px; fill: #000; opacity: 1;">0</text><text text-anchor="end" transform="translate(-7,213)" style="font-family: sans-serif; font-size: 10px; fill: #000; opacity: 1;">5</text><text text-anchor="end" transform="translate(-7,183)" style="font-family: sans-serif; font-size: 10px; fill: #000; opacity: 1;">10</text><text text-anchor="end" transform="translate(-7,153)" style="font-family: sans-serif; font-size: 10px; fill: #000; opacity: 1;">15</text><text text-anchor="end" transform="translate(-7,123)" style="font-family: sans-serif; font-size: 10px; fill: #000; opacity: 1;">20</text><text text-anchor="end" transform="translate(-7,93)" style="font-family: sans-serif; font-size: 10px; fill: #000; opacity: 1;">25</text><text text-anchor="end" transform="translate(-7,63)" style="font-family: sans-serif; font-size: 10px; fill: #000; opacity: 1;">30</text><text text-anchor="end" transform="translate(-7,33)" style="font-family: sans-serif; font-size: 10px; fill: #000; opacity: 1;">35</text><text text-anchor="end" transform="translate(-7,3)" style="font-family: sans-serif; font-size: 10px; fill: #000; opacity: 1;">40</text></g><g class="mark-rule role-axis-domain" style="pointer-events: none;"><line transform="translate(0,300)" x2="0" y2="-300" style="fill: none; stroke: #888; stroke-width: 1; opacity: 1;"></line></g><g class="mark-text role-axis-title" style="pointer-events: none;"><text text-anchor="middle" transform="translate(-36,150) rotate(-90) translate(0,-2)" style="font-family: sans-serif; font-size: 11px; font-weight: bold; fill: #000; opacity: 1;">Daily Temperature Range (C)</text></g></g></g></g></g></g></g></g></svg>