<svg xmlns="http://www.w3.org/2000/svg" xmlns:xlink="http://www.w3.org/1999/xlink" version="1.1" class="marks" width="562" height="305" viewBox="0 0 562 305"><rect width="562" height="305" fill="white"/><g fill="none" stroke-miterlimit="10" transform="translate(39,10)"><g class="mark-group role-frame root" role="graphics-object" aria-roledescription="group mark container"><g transform="translate(0,0)"><path class="background" aria-hidden="true" d="M0.5,0.5h420v260h-420Z" stroke="#ddd"/><g><g class="mark-group role-axis" aria-hidden="true"><g transform="translate(0.5,0.5)"><path class="background" aria-hidden="true" d="M0,0h0v0h0Z" pointer-events="none"/><g><g class="mark-rule role-axis-grid" pointer-events="none"><line transform="translate(0,260)" x2="420" y2="0" stroke="#ddd" stroke-width="1" opacity="1"/><line transform="translate(0,217)" x2="420" y2="0" stroke="#ddd" stroke-width="1" opacity="1"/><line transform="translate(0,173)" x2="420" y2="0" stroke="#ddd" stroke-width="1" opacity="1"/><line transform="translate(0,130)" x2="420" y2="0" stroke="#ddd" stroke-width="1" opacity="1"/><line transform="translate(0,87)" x2="420" y2="0" stroke="#ddd" stroke-width="1" opacity="1"/><line transform="translate(0,43)" x2="420" y2="0" stroke="#ddd" stroke-width="1" opacity="1"/><line transform="translate(0,0)" x2="420" y2="0" stroke="#ddd" stroke-width="1" opacity="1"/></g></g><path class="foreground" aria-hidden="true" d="" pointer-events="none" display="none"/></g></g><g class="mark-group role-axis" role="graphics-symbol" aria-roledescription="axis" aria-label="X-axis titled 'category' for a discrete scale with 6 values: A, B, C, D, E, F"><g transform="translate(0.5,260.5)"><path class="background" aria-hidden="true" d="M0,0h0v0h0Z" pointer-events="none"/><g><g class="mark-rule role-axis-tick" pointer-events="none"><line transform="translate(35,0)" x2="0" y2="5" stroke="#888" stroke-width="1" opacity="1"/><line transform="translate(105,0)" x2="0" y2="5" stroke="#888" stroke-width="1" opacity="1"/><line transform="translate(175,0)" x2="0" y2="5" stroke="#888" stroke-width="1" opacity="1"/><line transform="translate(245,0)" x2="0" y2="5" stroke="#888" stroke-width="1" opacity="1"/><line transform="translate(315,0)" x2="0" y2="5" stroke="#888" stroke-width="1" opacity="1"/><line transform="translate(385,0)" x2="0" y2="5" stroke="#888" stroke-width="1" opacity="1"/></g><g class="mark-text role-axis-label" pointer-events="none"><text text-anchor="end" transform="translate(34.5,7) rotate(270) translate(0,3)" font-family="sans-serif" font-size="10px" fill="#000" opacity="1">A</text><text text-anchor="end" transform="translate(104.5,7) rotate(270) translate(0,3)" font-family="sans-serif" font-size="10px" fill="#000" opacity="1">B</text><text text-anchor="end" transform="translate(174.5,7) rotate(270) translate(0,3)" font-family="sans-serif" font-size="10px" fill="#000" opacity="1">C</text><text text-anchor="end" transform="translate(244.5,7) rotate(270) translate(0,3)" font-family="sans-serif" font-size="10px" fill="#000" opacity="1">D</text><text text-anchor="end" transform="translate(314.5,7) rotate(270) translate(0,3)" font-family="sans-serif" font-size="10px" fill="#000" opacity="1">E</text><text text-anchor="end" transform="translate(384.5,7) rotate(270) translate(0,3)" font-family="sans-serif" font-size="10px" fill="#000" opacity="1">F</text></g><g class="mark-rule role-axis-domain" pointer-events="none"><line transform="translate(0,0)" x2="420" y2="0" stroke="#888" stroke-width="1" opacity="1"/></g><g class="mark-text role-axis-title" pointer-events="none"><text text-anchor="middle" transform="translate(210,27.2216796875)" font-family="sans-serif" font-size="11px" font-weight="bold" fill="#000" opacity="1">category</text></g></g><path class="foreground" aria-hidden="true" d="" pointer-events="none" display="none"/></g></g><g class="mark-group role-axis" role="graphics-symbol" aria-roledescription="axis" aria-label="Y-axis titled 'plotValue' for a linear scale with values from 0 to 12"><g transform="translate(0.5,0.5)"><path class="background" aria-hidden="true" d="M0,0h0v0h0Z" pointer-events="none"/><g><g class="mark-rule role-axis-tick" pointer-events="none"><line transform="translate(0,260)" x2="-5" y2="0" stroke="#888" stroke-width="1" opacity="1"/><line transform="translate(0,217)" x2="-5" y2="0" stroke="#888" stroke-width="1" opacity="1"/><line transform="translate(0,173)" x2="-5" y2="0" stroke="#888" stroke-width="1" opacity="1"/><line transform="translate(0,130)" x2="-5" y2="0" stroke="#888" stroke-width="1" opacity="1"/><line transform="translate(0,87)" x2="-5" y2="0" stroke="#888" stroke-width="1" opacity="1"/><line transform="translate(0,43)" x2="-5" y2="0" stroke="#888" stroke-width="1" opacity="1"/><line transform="translate(0,0)" x2="-5" y2="0" stroke="#888" stroke-width="1" opacity="1"/></g><g class="mark-text role-axis-label" pointer-events="none"><text text-anchor="end" transform="translate(-7,263)" font-family="sans-serif" font-size="10px" fill="#000" opacity="1">0</text><text text-anchor="end" transform="translate(-7,219.66666666666669)" font-family="sans-serif" font-size="10px" fill="#000" opacity="1">2</text><text text-anchor="end" transform="translate(-7,176.33333333333334)" font-family="sans-serif" font-size="10px" fill="#000" opacity="1">4</text><text text-anchor="end" transform="translate(-7,133)" font-family="sans-serif" font-size="10px" fill="#000" opacity="1">6</text><text text-anchor="end" transform="translate(-7,89.66666666666667)" font-family="sans-serif" font-size="10px" fill="#000" opacity="1">8</text><text text-anchor="end" transform="translate(-7,46.33333333333332)" font-family="sans-serif" font-size="10px" fill="#000" opacity="1">10</text><text text-anchor="end" transform="translate(-7,3)" font-family="sans-serif" font-size="10px" fill="#000" opacity="1">12</text></g><g class="mark-rule role-axis-domain" pointer-events="none"><line transform="translate(0,260)" x2="0" y2="-260" stroke="#888" stroke-width="1" opacity="1"/></g><g class="mark-text role-axis-title" pointer-events="none"><text text-anchor="middle" transform="translate(-22.123046875,130) rotate(-90) translate(0,-2)" font-family="sans-serif" font-size="11px" font-weight="bold" fill="#000" opacity="1">plotValue</text></g></g><path class="foreground" aria-hidden="true" d="" pointer-events="none" display="none"/></g></g><g class="mark-rect role-mark marks" role="graphics-object" aria-roledescription="rect mark container"><path aria-label="category: A; plotValue: 10; nonZeroTooltip: 0; validTooltip: 10" role="graphics-symbol" aria-roledescription="bar" d="M3.5,43.33333333333332h63v216.66666666666669h-63Z" fill="#4c78a8"/><path aria-label="category: B; plotValue: 7; nonZeroTooltip: 1; validTooltip: 7" role="graphics-symbol" aria-roledescription="bar" d="M73.5,108.33333333333333h63v151.66666666666669h-63Z" fill="#f58518"/><path aria-label="category: C; plotValue: 5; nonZeroTooltip: 1" role="graphics-symbol" aria-roledescription="bar" d="M143.5,151.66666666666666h63v108.33333333333334h-63Z" fill="#f58518"/><path aria-label="category: D; plotValue: 4; nonZeroTooltip: 0; validTooltip: 4" role="graphics-symbol" aria-roledescription="bar" d="M213.5,173.33333333333334h63v86.66666666666666h-63Z" fill="#4c78a8"/><path aria-label="category: E; plotValue: 12; nonZeroTooltip: 1; validTooltip: 12" role="graphics-symbol" aria-roledescription="bar" d="M283.5,0h63v260h-63Z" fill="#f58518"/><path aria-label="category: F; plotValue: 6; nonZeroTooltip: 1; validTooltip: 6" role="graphics-symbol" aria-roledescription="bar" d="M353.5,130h63v130h-63Z" fill="#f58518"/></g><g class="mark-group role-legend" role="graphics-symbol" aria-roledescription="legend" aria-label="Symbol legend titled 'nonZeroTooltip' for fill color with 2 values: 0, 1"><g transform="translate(438,0)"><path class="background" aria-hidden="true" d="M0,0h80v40h-80Z" pointer-events="none"/><g><g class="mark-group role-legend-entry"><g transform="translate(0,16)"><path class="background" aria-hidden="true" d="M0,0h0v0h0Z" pointer-events="none"/><g><g class="mark-group role-scope" role="graphics-object" aria-roledescription="group mark container"><g transform="translate(0,0)"><path class="background" aria-hidden="true" d="M0,0h21.5615234375v11h-21.5615234375Z" pointer-events="none" opacity="1"/><g><g class="mark-symbol role-legend-symbol" pointer-events="none"><path transform="translate(6,6)" d="M-5,-5h10v10h-10Z" fill="#4c78a8" stroke-width="1.5" opacity="1"/></g><g class="mark-text role-legend-label" pointer-events="none"><text text-anchor="start" transform="translate(16,9)" font-family="sans-serif" font-size="10px" fill="#000" opacity="1">0</text></g></g><path class="foreground" aria-hidden="true" d="" pointer-events="none" display="none"/></g><g transform="translate(0,13)"><path class="background" aria-hidden="true" d="M0,0h21.5615234375v11h-21.5615234375Z" pointer-events="none" opacity="1"/><g><g class="mark-symbol role-legend-symbol" pointer-events="none"><path transform="translate(6,6)" d="M-5,-5h10v10h-10Z" fill="#f58518" stroke-width="1.5" opacity="1"/></g><g class="mark-text role-legend-label" pointer-events="none"><text text-anchor="start" transform="translate(16,9)" font-family="sans-serif" font-size="10px" fill="#000" opacity="1">1</text></g></g><path class="foreground" aria-hidden="true" d="" pointer-events="none" display="none"/></g></g></g><path class="foreground" aria-hidden="true" d="" pointer-events="none" display="none"/></g></g><g class="mark-text role-legend-title" pointer-events="none"><text text-anchor="start" transform="translate(0,9)" font-family="sans-serif" font-size="11px" font-weight="bold" fill="#000" opacity="1">nonZeroTooltip</text></g></g><path class="foreground" aria-hidden="true" d="" pointer-events="none" display="none"/></g></g></g><path class="foreground" aria-hidden="true" d="" display="none"/></g></g></g></svg>