<svg class="marks" width="159" height="199" viewBox="0 0 159 199" version="1.1" xmlns="http://www.w3.org/2000/svg" xmlns:xlink="http://www.w3.org/1999/xlink"><g transform="translate(35,5)"><g class="mark-group role-frame root"><g transform="translate(0,0)"><path class="background" d="M0.5,0.5h21v189h-21Z" style="fill: none; stroke: #ddd;"></path><g><g class="mark-symbol role-mark marks"><path transform="translate(10.5,10.5)" d="M4.47213595499958,0A4.47213595499958,4.47213595499958,0,1,1,-4.47213595499958,0A4.47213595499958,4.47213595499958,0,1,1,4.47213595499958,0" style="fill: #3b528b; stroke-width: 2; opacity: 0.7;"></path><path transform="translate(10.5,31.5)" d="M7.0710678118654755,0A7.0710678118654755,7.0710678118654755,0,1,1,-7.0710678118654755,0A7.0710678118654755,7.0710678118654755,0,1,1,7.0710678118654755,0" style="fill: #21918c; stroke-width: 2; opacity: 0.7;"></path><path transform="translate(10.5,52.5)" d="M7.0710678118654755,0A7.0710678118654755,7.0710678118654755,0,1,1,-7.0710678118654755,0A7.0710678118654755,7.0710678118654755,0,1,1,7.0710678118654755,0" style="fill: #21918c; stroke-width: 2; opacity: 0.7;"></path><path transform="translate(10.5,73.5)" d="M8.94427190999916,0A8.94427190999916,8.94427190999916,0,1,1,-8.94427190999916,0A8.94427190999916,8.94427190999916,0,1,1,8.94427190999916,0" style="fill: #5ec962; stroke-width: 2; opacity: 0.7;"></path><path transform="translate(10.5,94.5)" d="M8.94427190999916,0A8.94427190999916,8.94427190999916,0,1,1,-8.94427190999916,0A8.94427190999916,8.94427190999916,0,1,1,8.94427190999916,0" style="fill: #5ec962; stroke-width: 2; opacity: 0.7;"></path><path transform="translate(10.5,115.5)" d="M7.0710678118654755,0A7.0710678118654755,7.0710678118654755,0,1,1,-7.0710678118654755,0A7.0710678118654755,7.0710678118654755,0,1,1,7.0710678118654755,0" style="fill: #21918c; stroke-width: 2; opacity: 0.7;"></path><path transform="translate(10.5,136.5)" d="M4.47213595499958,0A4.47213595499958,4.47213595499958,0,1,1,-4.47213595499958,0A4.47213595499958,4.47213595499958,0,1,1,4.47213595499958,0" style="fill: #3b528b; stroke-width: 2; opacity: 0.7;"></path><path transform="translate(10.5,157.5)" d="M8.94427190999916,0A8.94427190999916,8.94427190999916,0,1,1,-8.94427190999916,0A8.94427190999916,8.94427190999916,0,1,1,8.94427190999916,0" style="fill: #5ec962; stroke-width: 2; opacity: 0.7;"></path><path transform="translate(10.5,178.5)" d="M7.0710678118654755,0A7.0710678118654755,7.0710678118654755,0,1,1,-7.0710678118654755,0A7.0710678118654755,7.0710678118654755,0,1,1,7.0710678118654755,0" style="fill: #21918c; stroke-width: 2; opacity: 0.7;"></path></g><g class="mark-group role-legend"><g transform="translate(39,0)"><path class="background" d="M0,0h80v67h-80Z" style="pointer-events: none; fill: none;"></path><g><g class="mark-group role-legend-entry"><g transform="translate(0,16)"><path class="background" d="M0,0h0v0h0Z" style="pointer-events: none; fill: none;"></path><g><g class="mark-group role-scope"><g transform="translate(0,0)"><path class="background" d="M0,0h65v11.5h-65Z" style="pointer-events: none; fill: none; opacity: 1;"></path><g><g class="mark-symbol role-legend-symbol" style="pointer-events: none;"><path transform="translate(10,5.5)" d="M4.47213595499958,0A4.47213595499958,4.47213595499958,0,1,1,-4.47213595499958,0A4.47213595499958,4.47213595499958,0,1,1,4.47213595499958,0" style="fill: #3b528b; stroke-width: 1.5; opacity: 0.7;"></path></g><g class="mark-text role-legend-label" style="pointer-events: none;"><text text-anchor="start" transform="translate(24,8.5)" style="font-family: sans-serif; font-size: 10px; fill: #000; opacity: 1;">&lt; 30</text></g></g></g><g transform="translate(0,14)"><path class="background" d="M0,0h65v15.071067811865476h-65Z" style="pointer-events: none; fill: none; opacity: 1;"></path><g><g class="mark-symbol role-legend-symbol" style="pointer-events: none;"><path transform="translate(10,8)" d="M7.0710678118654755,0A7.0710678118654755,7.0710678118654755,0,1,1,-7.0710678118654755,0A7.0710678118654755,7.0710678118654755,0,1,1,7.0710678118654755,0" style="fill: #21918c; stroke-width: 1.5; opacity: 0.7;"></path></g><g class="mark-text role-legend-label" style="pointer-events: none;"><text text-anchor="start" transform="translate(24,11)" style="font-family: sans-serif; font-size: 10px; fill: #000; opacity: 1;">30–70</text></g></g></g><g transform="translate(0,32)"><path class="background" d="M0,0h65v18.94427190999916h-65Z" style="pointer-events: none; fill: none; opacity: 1;"></path><g><g class="mark-symbol role-legend-symbol" style="pointer-events: none;"><path transform="translate(10,10)" d="M8.94427190999916,0A8.94427190999916,8.94427190999916,0,1,1,-8.94427190999916,0A8.94427190999916,8.94427190999916,0,1,1,8.94427190999916,0" style="fill: #5ec962; stroke-width: 1.5; opacity: 0.7;"></path></g><g class="mark-text role-legend-label" style="pointer-events: none;"><text text-anchor="start" transform="translate(24,13)" style="font-family: sans-serif; font-size: 10px; fill: #000; opacity: 1;">≥ 70</text></g></g></g></g></g></g></g><g class="mark-text role-legend-title" style="pointer-events: none;"><text text-anchor="start" transform="translate(0,9)" style="font-family: sans-serif; font-size: 11px; font-weight: bold; fill: #000; opacity: 1;">Threshold</text></g></g></g></g><g class="mark-group role-axis"><g transform="translate(0.5,0.5)"><path class="background" d="M0,0h0v0h0Z" style="pointer-events: none; fill: none;"></path><g><g class="mark-text role-axis-label" style="pointer-events: none;"><text text-anchor="end" transform="translate(-2,13.5)" style="font-family: sans-serif; font-size: 10px; fill: #000; opacity: 1;">28</text><text text-anchor="end" transform="translate(-2,34.5)" style="font-family: sans-serif; font-size: 10px; fill: #000; opacity: 1;">55</text><text text-anchor="end" transform="translate(-2,55.5)" style="font-family: sans-serif; font-size: 10px; fill: #000; opacity: 1;">43</text><text text-anchor="end" transform="translate(-2,76.5)" style="font-family: sans-serif; font-size: 10px; fill: #000; opacity: 1;">91</text><text text-anchor="end" transform="translate(-2,97.5)" style="font-family: sans-serif; font-size: 10px; fill: #000; opacity: 1;">81</text><text text-anchor="end" transform="translate(-2,118.5)" style="font-family: sans-serif; font-size: 10px; fill: #000; opacity: 1;">53</text><text text-anchor="end" transform="translate(-2,139.5)" style="font-family: sans-serif; font-size: 10px; fill: #000; opacity: 1;">19</text><text text-anchor="end" transform="translate(-2,160.5)" style="font-family: sans-serif; font-size: 10px; fill: #000; opacity: 1;">87</text><text text-anchor="end" transform="translate(-2,181.5)" style="font-family: sans-serif; font-size: 10px; fill: #000; opacity: 1;">52</text></g></g></g></g></g></g></g></g></svg>