<svg xmlns="http://www.w3.org/2000/svg" xmlns:xlink="http://www.w3.org/1999/xlink" version="1.1" class="marks" width="311" height="208" viewBox="0 0 311 208"><rect width="311" height="208" fill="white"/><g fill="none" stroke-miterlimit="10" transform="translate(6,21)"><g class="mark-group role-frame root" role="graphics-object" aria-roledescription="group mark container"><g transform="translate(0,0)"><path class="background" aria-hidden="true" d="M0.5,0.5h300v150h-300Z" stroke="#ddd"/><g><g class="mark-group role-axis" aria-hidden="true"><g transform="translate(0.5,0.5)"><path class="background" aria-hidden="true" d="M0,0h0v0h0Z" pointer-events="none"/><g><g class="mark-rule role-axis-grid" pointer-events="none"><line transform="translate(0,0)" x2="300" y2="0" stroke="#ddd" stroke-width="1" opacity="1"/><line transform="translate(0,50)" x2="300" y2="0" stroke="#ddd" stroke-width="1" opacity="1"/><line transform="translate(0,100)" x2="300" y2="0" stroke="#ddd" stroke-width="1" opacity="1"/></g></g><path class="foreground" aria-hidden="true" d="" pointer-events="none" display="none"/></g></g><g class="mark-group role-axis" role="graphics-symbol" aria-roledescription="axis" aria-label="X-axis titled 'Number of Cars' for a linear scale with values from 0 to 260"><g transform="translate(0.5,150.5)"><path class="background" aria-hidden="true" d="M0,0h0v0h0Z" pointer-events="none"/><g><g class="mark-rule role-axis-tick" pointer-events="none"><line transform="translate(0,0)" x2="0" y2="5" stroke="#888" stroke-width="1" opacity="1"/><line transform="translate(58,0)" x2="0" y2="5" stroke="#888" stroke-width="1" opacity="1"/><line transform="translate(115,0)" x2="0" y2="5" stroke="#888" stroke-width="1" opacity="1"/><line transform="translate(173,0)" x2="0" y2="5" stroke="#888" stroke-width="1" opacity="1"/><line transform="translate(231,0)" x2="0" y2="5" stroke="#888" stroke-width="1" opacity="1"/><line transform="translate(288,0)" x2="0" y2="5" stroke="#888" stroke-width="1" opacity="1"/></g><g class="mark-text role-axis-label" pointer-events="none"><text text-anchor="start" transform="translate(0,15)" font-family="sans-serif" font-size="10px" fill="#000" opacity="1">0</text><text text-anchor="middle" transform="translate(57.69230769230769,15)" font-family="sans-serif" font-size="10px" fill="#000" opacity="1">50</text><text text-anchor="middle" transform="translate(115.38461538461539,15)" font-family="sans-serif" font-size="10px" fill="#000" opacity="1">100</text><text text-anchor="middle" transform="translate(173.07692307692307,15)" font-family="sans-serif" font-size="10px" fill="#000" opacity="1">150</text><text text-anchor="middle" transform="translate(230.76923076923077,15)" font-family="sans-serif" font-size="10px" fill="#000" opacity="1">200</text><text text-anchor="middle" transform="translate(288.46153846153845,15)" font-family="sans-serif" font-size="10px" fill="#000" opacity="1">250</text></g><g class="mark-rule role-axis-domain" pointer-events="none"><line transform="translate(0,0)" x2="300" y2="0" stroke="#888" stroke-width="1" opacity="1"/></g><g class="mark-text role-axis-title" pointer-events="none"><text text-anchor="middle" transform="translate(150,30)" font-family="sans-serif" font-size="11px" font-weight="bold" fill="#000" opacity="1">Number of Cars</text></g></g><path class="foreground" aria-hidden="true" d="" pointer-events="none" display="none"/></g></g><g class="mark-group role-axis" role="graphics-symbol" aria-roledescription="axis" aria-label="Y-axis titled 'Origin' for a discrete scale with 3 values: Europe, Japan, USA"><g transform="translate(0.5,0.5)"><path class="background" aria-hidden="true" d="M0,0h0v0h0Z" pointer-events="none"/><g><g class="mark-text role-axis-label" pointer-events="none"><text text-anchor="start" transform="translate(5,12.5)" font-family="sans-serif" font-size="10px" fill="#000" opacity="1">Europe</text><text text-anchor="start" transform="translate(5,62.5)" font-family="sans-serif" font-size="10px" fill="#000" opacity="1">Japan</text><text text-anchor="start" transform="translate(5,112.5)" font-family="sans-serif" font-size="10px" fill="#000" opacity="1">USA</text></g><g class="mark-text role-axis-title" pointer-events="none"><text text-anchor="start" transform="translate(5,-7)" font-family="sans-serif" font-size="11px" font-weight="bold" fill="#000" opacity="1">Origin</text></g></g><path class="foreground" aria-hidden="true" d="" pointer-events="none" display="none"/></g></g><g class="mark-rect role-mark marks" role="graphics-object" aria-roledescription="rect mark container"><path aria-label="Number of Cars: 254; Origin: USA" role="graphics-symbol" aria-roledescription="bar" d="M0,117.5L291.0769230769231,117.5C292.1807531259111,117.5,293.0769230769231,118.396169951012,293.0769230769231,119.5L293.0769230769231,140.5C293.0769230769231,141.603830048988,292.1807531259111,142.5,291.0769230769231,142.5L0,142.5C0,142.5,0,142.5,0,142.5L0,117.5C0,117.5,0,117.5,0,117.5Z" fill="#4c78a8"/><path aria-label="Number of Cars: 73; Origin: Europe" role="graphics-symbol" aria-roledescription="bar" d="M0,17.5L82.23076923076923,17.5C83.33459927975723,17.5,84.23076923076923,18.396169951012,84.23076923076923,19.5L84.23076923076923,40.5C84.23076923076923,41.603830048988,83.33459927975723,42.5,82.23076923076923,42.5L0,42.5C0,42.5,0,42.5,0,42.5L0,17.5C0,17.5,0,17.5,0,17.5Z" fill="#4c78a8"/><path aria-label="Number of Cars: 79; Origin: Japan" role="graphics-symbol" aria-roledescription="bar" d="M0,67.5L89.15384615384615,67.5C90.25767620283415,67.5,91.15384615384615,68.396169951012,91.15384615384615,69.5L91.15384615384615,90.5C91.15384615384615,91.603830048988,90.25767620283415,92.5,89.15384615384615,92.5L0,92.5C0,92.5,0,92.5,0,92.5L0,67.5C0,67.5,0,67.5,0,67.5Z" fill="#4c78a8"/></g></g><path class="foreground" aria-hidden="true" d="" display="none"/></g></g></g></svg>