<svg xmlns="http://www.w3.org/2000/svg" xmlns:xlink="http://www.w3.org/1999/xlink" version="1.1" class="marks" width="412" height="47" viewBox="0 0 412 47"><rect width="412" height="47" fill="white"/><g fill="none" stroke-miterlimit="10" transform="translate(6,5)"><g class="mark-group role-frame root" role="graphics-object" aria-roledescription="group mark container"><g transform="translate(0,0)"><path class="background" aria-hidden="true" d="M0.5,0.5h400v20h-400Z" stroke="#ddd"/><g><g class="mark-group role-axis" aria-hidden="true"><g transform="translate(0.5,20.5)"><path class="background" aria-hidden="true" d="M0,0h0v0h0Z" pointer-events="none"/><g><g class="mark-rule role-axis-grid" pointer-events="none"><line transform="translate(0,0)" x2="0" y2="-20" stroke="#ddd" stroke-width="1" opacity="1"/><line transform="translate(27,0)" x2="0" y2="-20" stroke="#ddd" stroke-width="1" opacity="1"/><line transform="translate(53,0)" x2="0" y2="-20" stroke="#ddd" stroke-width="1" opacity="1"/><line transform="translate(80,0)" x2="0" y2="-20" stroke="#ddd" stroke-width="1" opacity="1"/><line transform="translate(107,0)" x2="0" y2="-20" stroke="#ddd" stroke-width="1" opacity="1"/><line transform="translate(133,0)" x2="0" y2="-20" stroke="#ddd" stroke-width="1" opacity="1"/><line transform="translate(160,0)" x2="0" y2="-20" stroke="#ddd" stroke-width="1" opacity="1"/><line transform="translate(187,0)" x2="0" y2="-20" stroke="#ddd" stroke-width="1" opacity="1"/><line transform="translate(213,0)" x2="0" y2="-20" stroke="#ddd" stroke-width="1" opacity="1"/><line transform="translate(240,0)" x2="0" y2="-20" stroke="#ddd" stroke-width="1" opacity="1"/><line transform="translate(267,0)" x2="0" y2="-20" stroke="#ddd" stroke-width="1" opacity="1"/><line transform="translate(293,0)" x2="0" y2="-20" stroke="#ddd" stroke-width="1" opacity="1"/><line transform="translate(320,0)" x2="0" y2="-20" stroke="#ddd" stroke-width="1" opacity="1"/><line transform="translate(347,0)" x2="0" y2="-20" stroke="#ddd" stroke-width="1" opacity="1"/><line transform="translate(373,0)" x2="0" y2="-20" stroke="#ddd" stroke-width="1" opacity="1"/><line transform="translate(400,0)" x2="0" y2="-20" stroke="#ddd" stroke-width="1" opacity="1"/></g></g><path class="foreground" aria-hidden="true" d="" pointer-events="none" display="none"/></g></g><g class="mark-group role-axis" role="graphics-symbol" aria-roledescription="axis" aria-label="X-axis for a linear scale with values from 0 to 300"><g transform="translate(0.5,20.5)"><path class="background" aria-hidden="true" d="M0,0h0v0h0Z" pointer-events="none"/><g><g class="mark-rule role-axis-tick" pointer-events="none"><line transform="translate(0,0)" x2="0" y2="5" stroke="#888" stroke-width="1" opacity="1"/><line transform="translate(27,0)" x2="0" y2="5" stroke="#888" stroke-width="1" opacity="1"/><line transform="translate(53,0)" x2="0" y2="5" stroke="#888" stroke-width="1" opacity="1"/><line transform="translate(80,0)" x2="0" y2="5" stroke="#888" stroke-width="1" opacity="1"/><line transform="translate(107,0)" x2="0" y2="5" stroke="#888" stroke-width="1" opacity="1"/><line transform="translate(133,0)" x2="0" y2="5" stroke="#888" stroke-width="1" opacity="1"/><line transform="translate(160,0)" x2="0" y2="5" stroke="#888" stroke-width="1" opacity="1"/><line transform="translate(187,0)" x2="0" y2="5" stroke="#888" stroke-width="1" opacity="1"/><line transform="translate(213,0)" x2="0" y2="5" stroke="#888" stroke-width="1" opacity="1"/><line transform="translate(240,0)" x2="0" y2="5" stroke="#888" stroke-width="1" opacity="1"/><line transform="translate(267,0)" x2="0" y2="5" stroke="#888" stroke-width="1" opacity="1"/><line transform="translate(293,0)" x2="0" y2="5" stroke="#888" stroke-width="1" opacity="1"/><line transform="translate(320,0)" x2="0" y2="5" stroke="#888" stroke-width="1" opacity="1"/><line transform="translate(347,0)" x2="0" y2="5" stroke="#888" stroke-width="1" opacity="1"/><line transform="translate(373,0)" x2="0" y2="5" stroke="#888" stroke-width="1" opacity="1"/><line transform="translate(400,0)" x2="0" y2="5" stroke="#888" stroke-width="1" opacity="1"/></g><g class="mark-text role-axis-label" pointer-events="none"><text text-anchor="start" transform="translate(0,15)" font-family="sans-serif" font-size="10px" fill="#000" opacity="1">0</text><text text-anchor="middle" transform="translate(26.666666666666668,15)" font-family="sans-serif" font-size="10px" fill="#000" opacity="0">20</text><text text-anchor="middle" transform="translate(53.333333333333336,15)" font-family="sans-serif" font-size="10px" fill="#000" opacity="1">40</text><text text-anchor="middle" transform="translate(80,15)" font-family="sans-serif" font-size="10px" fill="#000" opacity="0">60</text><text text-anchor="middle" transform="translate(106.66666666666667,15)" font-family="sans-serif" font-size="10px" fill="#000" opacity="1">80</text><text text-anchor="middle" transform="translate(133.33333333333331,15)" font-family="sans-serif" font-size="10px" fill="#000" opacity="0">100</text><text text-anchor="middle" transform="translate(160,15)" font-family="sans-serif" font-size="10px" fill="#000" opacity="1">120</text><text text-anchor="middle" transform="translate(186.66666666666666,15)" font-family="sans-serif" font-size="10px" fill="#000" opacity="0">140</text><text text-anchor="middle" transform="translate(213.33333333333334,15)" font-family="sans-serif" font-size="10px" fill="#000" opacity="1">160</text><text text-anchor="middle" transform="translate(240,15)" font-family="sans-serif" font-size="10px" fill="#000" opacity="0">180</text><text text-anchor="middle" transform="translate(266.66666666666663,15)" font-family="sans-serif" font-size="10px" fill="#000" opacity="1">200</text><text text-anchor="middle" transform="translate(293.3333333333333,15)" font-family="sans-serif" font-size="10px" fill="#000" opacity="0">220</text><text text-anchor="middle" transform="translate(320,15)" font-family="sans-serif" font-size="10px" fill="#000" opacity="1">240</text><text text-anchor="middle" transform="translate(346.6666666666667,15)" font-family="sans-serif" font-size="10px" fill="#000" opacity="0">260</text><text text-anchor="middle" transform="translate(373.3333333333333,15)" font-family="sans-serif" font-size="10px" fill="#000" opacity="1">280</text><text text-anchor="end" transform="translate(400,15)" font-family="sans-serif" font-size="10px" fill="#000" opacity="0">300</text></g><g class="mark-rule role-axis-domain" pointer-events="none"><line transform="translate(0,0)" x2="400" y2="0" stroke="#888" stroke-width="1" opacity="1"/></g></g><path class="foreground" aria-hidden="true" d="" pointer-events="none" display="none"/></g></g><g class="mark-rect role-mark layer_0_marks" role="graphics-object" aria-roledescription="rect mark container"><path aria-label="ranges[2]: 300" role="graphics-symbol" aria-roledescription="bar" d="M0,0h400v20h-400Z" fill="#eee"/></g><g class="mark-rect role-mark layer_1_marks" role="graphics-object" aria-roledescription="rect mark container"><path aria-label="ranges[1]: 225" role="graphics-symbol" aria-roledescription="bar" d="M0,0h300v20h-300Z" fill="#ddd"/></g><g class="mark-rect role-mark layer_2_marks" role="graphics-object" aria-roledescription="rect mark container"><path aria-label="ranges[0]: 150" role="graphics-symbol" aria-roledescription="bar" d="M0,0h200v20h-200Z" fill="#ccc"/></g><g class="mark-rect role-mark layer_3_marks" role="graphics-object" aria-roledescription="rect mark container"><path aria-label="measures[1]: 270" role="graphics-symbol" aria-roledescription="bar" d="M0,5h360v10h-360Z" fill="lightsteelblue"/></g><g class="mark-rect role-mark layer_4_marks" role="graphics-object" aria-roledescription="rect mark container"><path aria-label="measures[0]: 220" role="graphics-symbol" aria-roledescription="bar" d="M0,5h293.3333333333333v10h-293.3333333333333Z" fill="steelblue"/></g><g class="mark-rect role-mark layer_5_marks" role="graphics-object" aria-roledescription="rect mark container"><path aria-label="markers[0]: 250" role="graphics-symbol" aria-roledescription="tick" d="M332.33333333333337,0h2v20h-2Z" fill="black" opacity="0.7"/></g></g><path class="foreground" aria-hidden="true" d="" display="none"/></g></g></g></svg>