<svg class="marks" width="329" height="501" viewBox="0 0 329 501" version="1.1" xmlns="http://www.w3.org/2000/svg" xmlns:xlink="http://www.w3.org/1999/xlink"><g transform="translate(52,6)"><g class="mark-group role-frame root"><g transform="translate(0,0)"><path class="background" d="M0,0h0v0h0Z" style="fill: none;"></path><g><g class="mark-group role-row-title row_title"><g transform="translate(-37,222)"><path class="background" d="M0,0h0v0h0Z" style="fill: none;"></path><g><g class="mark-text role-row-title-text"><text text-anchor="middle" transform="translate(0,0) rotate(270)" style="font: bold 11px sans-serif; fill: #000;">age</text></g></g></g></g><g class="mark-group role-row-header row_header"><g transform="translate(-11,0)"><path class="background" d="M0,0h0v12h0Z" style="fill: none;"></path><g><g class="mark-text role-title" style="pointer-events: none;"><text text-anchor="end" transform="translate(-10,6) rotate(-90) translate(0,3)" style="font: 10px sans-serif; fill: #000; opacity: 1;">0</text></g></g></g><g transform="translate(-11,24)"><path class="background" d="M0,0h0v12h0Z" style="fill: none;"></path><g><g class="mark-text role-title" style="pointer-events: none;"><text text-anchor="end" transform="translate(-10,6) rotate(-90) translate(0,3)" style="font: 10px sans-serif; fill: #000; opacity: 1;">5</text></g></g></g><g transform="translate(-11,48)"><path class="background" d="M0,0h0v12h0Z" style="fill: none;"></path><g><g class="mark-text role-title" style="pointer-events: none;"><text text-anchor="end" transform="translate(-10,6) rotate(-90) translate(0,3)" style="font: 10px sans-serif; fill: #000; opacity: 1;">…</text></g></g></g><g transform="translate(-11,72)"><path class="background" d="M0,0h0v12h0Z" style="fill: none;"></path><g><g class="mark-text role-title" style="pointer-events: none;"><text text-anchor="end" transform="translate(-10,6) rotate(-90) translate(0,3)" style="font: 10px sans-serif; fill: #000; opacity: 1;">…</text></g></g></g><g transform="translate(-11,96)"><path class="background" d="M0,0h0v12h0Z" style="fill: none;"></path><g><g class="mark-text role-title" style="pointer-events: none;"><text text-anchor="end" transform="translate(-10,6) rotate(-90) translate(0,3)" style="font: 10px sans-serif; fill: #000; opacity: 1;">…</text></g></g></g><g transform="translate(-11,120)"><path class="background" d="M0,0h0v12h0Z" style="fill: none;"></path><g><g class="mark-text role-title" style="pointer-events: none;"><text text-anchor="end" transform="translate(-10,6) rotate(-90) translate(0,3)" style="font: 10px sans-serif; fill: #000; opacity: 1;">…</text></g></g></g><g transform="translate(-11,144)"><path class="background" d="M0,0h0v12h0Z" style="fill: none;"></path><g><g class="mark-text role-title" style="pointer-events: none;"><text text-anchor="end" transform="translate(-10,6) rotate(-90) translate(0,3)" style="font: 10px sans-serif; fill: #000; opacity: 1;">…</text></g></g></g><g transform="translate(-11,168)"><path class="background" d="M0,0h0v12h0Z" style="fill: none;"></path><g><g class="mark-text role-title" style="pointer-events: none;"><text text-anchor="end" transform="translate(-10,6) rotate(-90) translate(0,3)" style="font: 10px sans-serif; fill: #000; opacity: 1;">…</text></g></g></g><g transform="translate(-11,192)"><path class="background" d="M0,0h0v12h0Z" style="fill: none;"></path><g><g class="mark-text role-title" style="pointer-events: none;"><text text-anchor="end" transform="translate(-10,6) rotate(-90) translate(0,3)" style="font: 10px sans-serif; fill: #000; opacity: 1;">…</text></g></g></g><g transform="translate(-11,216)"><path class="background" d="M0,0h0v12h0Z" style="fill: none;"></path><g><g class="mark-text role-title" style="pointer-events: none;"><text text-anchor="end" transform="translate(-10,6) rotate(-90) translate(0,3)" style="font: 10px sans-serif; fill: #000; opacity: 1;">…</text></g></g></g><g transform="translate(-11,240)"><path class="background" d="M0,0h0v12h0Z" style="fill: none;"></path><g><g class="mark-text role-title" style="pointer-events: none;"><text text-anchor="end" transform="translate(-10,6) rotate(-90) translate(0,3)" style="font: 10px sans-serif; fill: #000; opacity: 1;">…</text></g></g></g><g transform="translate(-11,264)"><path class="background" d="M0,0h0v12h0Z" style="fill: none;"></path><g><g class="mark-text role-title" style="pointer-events: none;"><text text-anchor="end" transform="translate(-10,6) rotate(-90) translate(0,3)" style="font: 10px sans-serif; fill: #000; opacity: 1;">…</text></g></g></g><g transform="translate(-11,288)"><path class="background" d="M0,0h0v12h0Z" style="fill: none;"></path><g><g class="mark-text role-title" style="pointer-events: none;"><text text-anchor="end" transform="translate(-10,6) rotate(-90) translate(0,3)" style="font: 10px sans-serif; fill: #000; opacity: 1;">…</text></g></g></g><g transform="translate(-11,312)"><path class="background" d="M0,0h0v12h0Z" style="fill: none;"></path><g><g class="mark-text role-title" style="pointer-events: none;"><text text-anchor="end" transform="translate(-10,6) rotate(-90) translate(0,3)" style="font: 10px sans-serif; fill: #000; opacity: 1;">…</text></g></g></g><g transform="translate(-11,336)"><path class="background" d="M0,0h0v12h0Z" style="fill: none;"></path><g><g class="mark-text role-title" style="pointer-events: none;"><text text-anchor="end" transform="translate(-10,6) rotate(-90) translate(0,3)" style="font: 10px sans-serif; fill: #000; opacity: 1;">…</text></g></g></g><g transform="translate(-11,360)"><path class="background" d="M0,0h0v12h0Z" style="fill: none;"></path><g><g class="mark-text role-title" style="pointer-events: none;"><text text-anchor="end" transform="translate(-10,6) rotate(-90) translate(0,3)" style="font: 10px sans-serif; fill: #000; opacity: 1;">…</text></g></g></g><g transform="translate(-11,384)"><path class="background" d="M0,0h0v12h0Z" style="fill: none;"></path><g><g class="mark-text role-title" style="pointer-events: none;"><text text-anchor="end" transform="translate(-10,6) rotate(-90) translate(0,3)" style="font: 10px sans-serif; fill: #000; opacity: 1;">…</text></g></g></g><g transform="translate(-11,408)"><path class="background" d="M0,0h0v12h0Z" style="fill: none;"></path><g><g class="mark-text role-title" style="pointer-events: none;"><text text-anchor="end" transform="translate(-10,6) rotate(-90) translate(0,3)" style="font: 10px sans-serif; fill: #000; opacity: 1;">…</text></g></g></g><g transform="translate(-11,432)"><path class="background" d="M0,0h0v12h0Z" style="fill: none;"></path><g><g class="mark-text role-title" style="pointer-events: none;"><text text-anchor="end" transform="translate(-10,6) rotate(-90) translate(0,3)" style="font: 10px sans-serif; fill: #000; opacity: 1;">…</text></g></g></g></g><g class="mark-group role-column-footer column_footer"><g transform="translate(0,455)"><path class="background" d="M0,0h200v0h-200Z" style="fill: none;"></path><g><g class="mark-group role-axis"><g transform="translate(0.5,0.5)"><path class="background" d="M0,0h0v0h0Z" style="pointer-events: none; fill: none;"></path><g><g class="mark-rule role-axis-tick" style="pointer-events: none;"><line transform="translate(0,0)" x2="0" y2="5" style="fill: none; stroke: #888; stroke-width: 1; opacity: 1;"></line><line transform="translate(33,0)" x2="0" y2="5" style="fill: none; stroke: #888; stroke-width: 1; opacity: 1;"></line><line transform="translate(67,0)" x2="0" y2="5" style="fill: none; stroke: #888; stroke-width: 1; opacity: 1;"></line><line transform="translate(100,0)" x2="0" y2="5" style="fill: none; stroke: #888; stroke-width: 1; opacity: 1;"></line><line transform="translate(133,0)" x2="0" y2="5" style="fill: none; stroke: #888; stroke-width: 1; opacity: 1;"></line><line transform="translate(167,0)" x2="0" y2="5" style="fill: none; stroke: #888; stroke-width: 1; opacity: 1;"></line><line transform="translate(200,0)" x2="0" y2="5" style="fill: none; stroke: #888; stroke-width: 1; opacity: 1;"></line></g><g class="mark-text role-axis-label" style="pointer-events: none;"><text text-anchor="start" transform="translate(0,15)" style="font: 10px sans-serif; fill: #000; opacity: 1;">0</text><text text-anchor="middle" transform="translate(33.33333333333333,15)" style="font: 10px sans-serif; fill: #000; opacity: 0;">2,000,000</text><text text-anchor="middle" transform="translate(66.66666666666666,15)" style="font: 10px sans-serif; fill: #000; opacity: 0;">4,000,000</text><text text-anchor="middle" transform="translate(100,15)" style="font: 10px sans-serif; fill: #000; opacity: 0;">6,000,000</text><text text-anchor="middle" transform="translate(133.33333333333331,15)" style="font: 10px sans-serif; fill: #000; opacity: 0;">8,000,000</text><text text-anchor="middle" transform="translate(166.66666666666669,15)" style="font: 10px sans-serif; fill: #000; opacity: 0;">10,000,000</text><text text-anchor="end" transform="translate(200,15)" style="font: 10px sans-serif; fill: #000; opacity: 1;">12,000,000</text></g><g class="mark-rule role-axis-domain" style="pointer-events: none;"><line transform="translate(0,0)" x2="200" y2="0" style="fill: none; stroke: #888; stroke-width: 1; opacity: 1;"></line></g><g class="mark-text role-axis-title" style="pointer-events: none;"><text text-anchor="middle" transform="translate(100,31)" style="font: bold 11px sans-serif; fill: #000; opacity: 1;">population</text></g></g></g></g></g></g></g><g class="mark-group role-scope cell"><g transform="translate(0,0)"><path class="background" d="M0.5,0.5h200v12h-200Z" style="fill: transparent; stroke: transparent;"></path><g><g class="mark-rect role-mark child_marks"><path d="M0,6.300000000000001h162.25633333333334v5.4h-162.25633333333334Z" style="fill: #659CCA;"></path><path d="M0,0.3000000000000007h155.17856666666668v5.4h-155.17856666666668Z" style="fill: #EA98D2;"></path></g></g></g><g transform="translate(0,24)"><path class="background" d="M0.5,0.5h200v12h-200Z" style="fill: transparent; stroke: transparent;"></path><g><g class="mark-rect role-mark child_marks"><path d="M0,6.300000000000001h175.8691v5.4h-175.8691Z" style="fill: #659CCA;"></path><path d="M0,0.3000000000000007h167.82606666666666v5.4h-167.82606666666666Z" style="fill: #EA98D2;"></path></g></g></g><g transform="translate(0,48)"><path class="background" d="M0.5,0.5h200v12h-200Z" style="fill: transparent; stroke: transparent;"></path><g><g class="mark-rect role-mark child_marks"><path d="M0,6.300000000000001h176.05388333333335v5.4h-176.05388333333335Z" style="fill: #659CCA;"></path><path d="M0,0.3000000000000007h167.04206666666667v5.4h-167.04206666666667Z" style="fill: #EA98D2;"></path></g></g></g><g transform="translate(0,72)"><path class="background" d="M0.5,0.5h200v12h-200Z" style="fill: transparent; stroke: transparent;"></path><g><g class="mark-rect role-mark child_marks"><path d="M0,6.300000000000001h170.62365v5.4h-170.62365Z" style="fill: #659CCA;"></path><path d="M0,0.3000000000000007h161.54448333333335v5.4h-161.54448333333335Z" style="fill: #EA98D2;"></path></g></g></g><g transform="translate(0,96)"><path class="background" d="M0.5,0.5h200v12h-200Z" style="fill: transparent; stroke: transparent;"></path><g><g class="mark-rect role-mark child_marks"><path d="M0,6.300000000000001h162.18858333333333v5.4h-162.18858333333333Z" style="fill: #659CCA;"></path><path d="M0,0.3000000000000007h155.40406666666667v5.4h-155.40406666666667Z" style="fill: #EA98D2;"></path></g></g></g><g transform="translate(0,120)"><path class="background" d="M0.5,0.5h200v12h-200Z" style="fill: transparent; stroke: transparent;"></path><g><g class="mark-rect role-mark child_marks"><path d="M0,6.300000000000001h160.99155000000002v5.4h-160.99155000000002Z" style="fill: #659CCA;"></path><path d="M0,0.3000000000000007h158.64178333333334v5.4h-158.64178333333334Z" style="fill: #EA98D2;"></path></g></g></g><g transform="translate(0,144)"><path class="background" d="M0.5,0.5h200v12h-200Z" style="fill: transparent; stroke: transparent;"></path><g><g class="mark-rect role-mark child_marks"><path d="M0,6.300000000000001h170.09798333333333v5.4h-170.09798333333333Z" style="fill: #659CCA;"></path><path d="M0,0.3000000000000007h168.65493333333333v5.4h-168.65493333333333Z" style="fill: #EA98D2;"></path></g></g></g><g transform="translate(0,168)"><path class="background" d="M0.5,0.5h200v12h-200Z" style="fill: transparent; stroke: transparent;"></path><g><g class="mark-rect role-mark child_marks"><path d="M0,6.300000000000001h191.25303333333335v5.4h-191.25303333333335Z" style="fill: #659CCA;"></path><path d="M0,0.3000000000000007h193.92745v5.4h-193.92745Z" style="fill: #EA98D2;"></path></g></g></g><g transform="translate(0,192)"><path class="background" d="M0.5,0.5h200v12h-200Z" style="fill: transparent; stroke: transparent;"></path><g><g class="mark-rect role-mark child_marks"><path d="M0,6.300000000000001h188.67086666666665v5.4h-188.67086666666665Z" style="fill: #659CCA;"></path><path d="M0,0.3000000000000007h191.4763v5.4h-191.4763Z" style="fill: #EA98D2;"></path></g></g></g><g transform="translate(0,216)"><path class="background" d="M0.5,0.5h200v12h-200Z" style="fill: transparent; stroke: transparent;"></path><g><g class="mark-rect role-mark child_marks"><path d="M0,6.300000000000001h165.41676666666666v5.4h-165.41676666666666Z" style="fill: #659CCA;"></path><path d="M0,0.3000000000000007h171.02088333333333v5.4h-171.02088333333333Z" style="fill: #EA98D2;"></path></g></g></g><g transform="translate(0,240)"><path class="background" d="M0.5,0.5h200v12h-200Z" style="fill: transparent; stroke: transparent;"></path><g><g class="mark-rect role-mark child_marks"><path d="M0,6.300000000000001h141.7989v5.4h-141.7989Z" style="fill: #659CCA;"></path><path d="M0,0.3000000000000007h148.51888333333335v5.4h-148.51888333333335Z" style="fill: #EA98D2;"></path></g></g></g><g transform="translate(0,264)"><path class="background" d="M0.5,0.5h200v12h-200Z" style="fill: transparent; stroke: transparent;"></path><g><g class="mark-rect role-mark child_marks"><path d="M0,6.300000000000001h107.65136666666666v5.4h-107.65136666666666Z" style="fill: #659CCA;"></path><path d="M0,0.3000000000000007h115.35446666666667v5.4h-115.35446666666667Z" style="fill: #EA98D2;"></path></g></g></g><g transform="translate(0,288)"><path class="background" d="M0.5,0.5h200v12h-200Z" style="fill: transparent; stroke: transparent;"></path><g><g class="mark-rect role-mark child_marks"><path d="M0,6.300000000000001h85.38998333333333v5.4h-85.38998333333333Z" style="fill: #659CCA;"></path><path d="M0,0.3000000000000007h94.48268333333333v5.4h-94.48268333333333Z" style="fill: #EA98D2;"></path></g></g></g><g transform="translate(0,312)"><path class="background" d="M0.5,0.5h200v12h-200Z" style="fill: transparent; stroke: transparent;"></path><g><g class="mark-rect role-mark child_marks"><path d="M0,6.300000000000001h74.22705v5.4h-74.22705Z" style="fill: #659CCA;"></path><path d="M0,0.3000000000000007h80.07973333333334v5.4h-80.07973333333334Z" style="fill: #EA98D2;"></path></g></g></g><g transform="translate(0,336)"><path class="background" d="M0.5,0.5h200v12h-200Z" style="fill: transparent; stroke: transparent;"></path><g><g class="mark-rect role-mark child_marks"><path d="M0,6.300000000000001h63.20241666666667v5.4h-63.20241666666667Z" style="fill: #659CCA;"></path><path d="M0,0.3000000000000007h86.41425000000001v5.4h-86.41425000000001Z" style="fill: #EA98D2;"></path></g></g></g><g transform="translate(0,360)"><path class="background" d="M0.5,0.5h200v12h-200Z" style="fill: transparent; stroke: transparent;"></path><g><g class="mark-rect role-mark child_marks"><path d="M0,6.300000000000001h48.54425v5.4h-48.54425Z" style="fill: #659CCA;"></path><path d="M0,0.3000000000000007h72.59406666666666v5.4h-72.59406666666666Z" style="fill: #EA98D2;"></path></g></g></g><g transform="translate(0,384)"><path class="background" d="M0.5,0.5h200v12h-200Z" style="fill: transparent; stroke: transparent;"></path><g><g class="mark-rect role-mark child_marks"><path d="M0,6.300000000000001h31.710633333333334v5.4h-31.710633333333334Z" style="fill: #659CCA;"></path><path d="M0,0.3000000000000007h53.698299999999996v5.4h-53.698299999999996Z" style="fill: #EA98D2;"></path></g></g></g><g transform="translate(0,408)"><path class="background" d="M0.5,0.5h200v12h-200Z" style="fill: transparent; stroke: transparent;"></path><g><g class="mark-rect role-mark child_marks"><path d="M0,6.300000000000001h16.172616666666666v5.4h-16.172616666666666Z" style="fill: #659CCA;"></path><path d="M0,0.3000000000000007h33.01926666666667v5.4h-33.01926666666667Z" style="fill: #EA98D2;"></path></g></g></g><g transform="translate(0,432)"><path class="background" d="M0.5,0.5h200v12h-200Z" style="fill: transparent; stroke: transparent;"></path><g><g class="mark-rect role-mark child_marks"><path d="M0,6.300000000000001h5.60505v5.4h-5.60505Z" style="fill: #659CCA;"></path><path d="M0,0.3000000000000007h17.743016666666666v5.4h-17.743016666666666Z" style="fill: #EA98D2;"></path></g></g></g></g><g class="mark-group role-legend"><g transform="translate(219,0)"><path class="background" d="M0,0h53v42h-53Z" style="pointer-events: none; fill: none;"></path><g><g class="mark-group role-legend-entry"><g transform="translate(0,16)"><path class="background" d="M0,0h0v0h0Z" style="pointer-events: none; fill: none;"></path><g><g class="mark-symbol role-legend-symbol" style="pointer-events: none;"><path transform="translate(5,5)" d="M-5,-5h10v10h-10Z" style="fill: #EA98D2; stroke-width: 1.5; opacity: 1;"></path><path transform="translate(5,20)" d="M-5,-5h10v10h-10Z" style="fill: #659CCA; stroke-width: 1.5; opacity: 1;"></path></g><g class="mark-text role-legend-label" style="pointer-events: none;"><text text-anchor="start" transform="translate(18,8)" style="font: 10px sans-serif; fill: #000; opacity: 1;">Female</text><text text-anchor="start" transform="translate(18,23)" style="font: 10px sans-serif; fill: #000; opacity: 1;">Male</text></g></g></g></g><g class="mark-text role-legend-title" style="pointer-events: none;"><text text-anchor="start" transform="translate(0,9)" style="font: bold 11px sans-serif; fill: #000; opacity: 1;">gender</text></g></g></g></g></g></g></g></g></svg>