<svg class="marks" width="134" height="199" viewBox="0 0 134 199" version="1.1" xmlns="http://www.w3.org/2000/svg" xmlns:xlink="http://www.w3.org/1999/xlink"><g transform="translate(35,5)"><g class="mark-group role-frame root"><g transform="translate(0,0)"><path class="background" d="M0.5,0.5h21v189h-21Z" style="fill: none; stroke: #ddd;"></path><g><g class="mark-symbol role-mark marks"><path transform="translate(10.5,10.5)" d="M4.924428900898052,0A4.924428900898052,4.924428900898052,0,1,1,-4.924428900898052,0A4.924428900898052,4.924428900898052,0,1,1,4.924428900898052,0" style="fill: #eff3ff; stroke-width: 2; opacity: 0.7;"></path><path transform="translate(10.5,31.5)" d="M8.261355820929152,0A8.261355820929152,8.261355820929152,0,1,1,-8.261355820929152,0A8.261355820929152,8.261355820929152,0,1,1,8.261355820929152,0" style="fill: #6baed6; stroke-width: 2; opacity: 0.7;"></path><path transform="translate(10.5,52.5)" d="M6.800735254367722,0A6.800735254367722,6.800735254367722,0,1,1,-6.800735254367722,0A6.800735254367722,6.800735254367722,0,1,1,6.800735254367722,0" style="fill: #bdd7e7; stroke-width: 2; opacity: 0.7;"></path><path transform="translate(10.5,73.5)" d="M9.5,0A9.5,9.5,0,1,1,-9.5,0A9.5,9.5,0,1,1,9.5,0" style="fill: #2171b5; stroke-width: 2; opacity: 0.7;"></path><path transform="translate(10.5,94.5)" d="M9.5,0A9.5,9.5,0,1,1,-9.5,0A9.5,9.5,0,1,1,9.5,0" style="fill: #2171b5; stroke-width: 2; opacity: 0.7;"></path><path transform="translate(10.5,115.5)" d="M8.261355820929152,0A8.261355820929152,8.261355820929152,0,1,1,-8.261355820929152,0A8.261355820929152,8.261355820929152,0,1,1,8.261355820929152,0" style="fill: #6baed6; stroke-width: 2; opacity: 0.7;"></path><path transform="translate(10.5,136.5)" d="M4.924428900898052,0A4.924428900898052,4.924428900898052,0,1,1,-4.924428900898052,0A4.924428900898052,4.924428900898052,0,1,1,4.924428900898052,0" style="fill: #eff3ff; stroke-width: 2; opacity: 0.7;"></path><path transform="translate(10.5,157.5)" d="M9.5,0A9.5,9.5,0,1,1,-9.5,0A9.5,9.5,0,1,1,9.5,0" style="fill: #2171b5; stroke-width: 2; opacity: 0.7;"></path><path transform="translate(10.5,178.5)" d="M6.800735254367722,0A6.800735254367722,6.800735254367722,0,1,1,-6.800735254367722,0A6.800735254367722,6.800735254367722,0,1,1,6.800735254367722,0" style="fill: #bdd7e7; stroke-width: 2; opacity: 0.7;"></path></g><g class="mark-group role-legend"><g transform="translate(39,0)"><path class="background" d="M0,0h55v87h-55Z" style="pointer-events: none; fill: none;"></path><g><g class="mark-group role-legend-entry"><g transform="translate(0,16)"><path class="background" d="M0,0h0v0h0Z" style="pointer-events: none; fill: none;"></path><g><g class="mark-group role-scope"><g transform="translate(0,0)"><path class="background" d="M0,0h55v12h-55Z" style="pointer-events: none; fill: none; opacity: 1;"></path><g><g class="mark-symbol role-legend-symbol" style="pointer-events: none;"><path transform="translate(10.5,6)" d="M4.924428900898052,0A4.924428900898052,4.924428900898052,0,1,1,-4.924428900898052,0A4.924428900898052,4.924428900898052,0,1,1,4.924428900898052,0" style="fill: #eff3ff; stroke-width: 1.5; opacity: 0.7;"></path></g><g class="mark-text role-legend-label" style="pointer-events: none;"><text text-anchor="start" transform="translate(25,9)" style="font-family: sans-serif; font-size: 10px; fill: #000; opacity: 1;">&lt; 43</text></g></g></g><g transform="translate(0,14)"><path class="background" d="M0,0h55v14.800735254367723h-55Z" style="pointer-events: none; fill: none; opacity: 1;"></path><g><g class="mark-symbol role-legend-symbol" style="pointer-events: none;"><path transform="translate(10.5,8)" d="M6.800735254367722,0A6.800735254367722,6.800735254367722,0,1,1,-6.800735254367722,0A6.800735254367722,6.800735254367722,0,1,1,6.800735254367722,0" style="fill: #bdd7e7; stroke-width: 1.5; opacity: 0.7;"></path></g><g class="mark-text role-legend-label" style="pointer-events: none;"><text text-anchor="start" transform="translate(25,11)" style="font-family: sans-serif; font-size: 10px; fill: #000; opacity: 1;">43–53</text></g></g></g><g transform="translate(0,31)"><path class="background" d="M0,0h55v17.761355820929154h-55Z" style="pointer-events: none; fill: none; opacity: 1;"></path><g><g class="mark-symbol role-legend-symbol" style="pointer-events: none;"><path transform="translate(10.5,9.5)" d="M8.261355820929152,0A8.261355820929152,8.261355820929152,0,1,1,-8.261355820929152,0A8.261355820929152,8.261355820929152,0,1,1,8.261355820929152,0" style="fill: #6baed6; stroke-width: 1.5; opacity: 0.7;"></path></g><g class="mark-text role-legend-label" style="pointer-events: none;"><text text-anchor="start" transform="translate(25,12.5)" style="font-family: sans-serif; font-size: 10px; fill: #000; opacity: 1;">53–81</text></g></g></g><g transform="translate(0,51)"><path class="background" d="M0,0h55v20h-55Z" style="pointer-events: none; fill: none; opacity: 1;"></path><g><g class="mark-symbol role-legend-symbol" style="pointer-events: none;"><path transform="translate(10.5,10.5)" d="M9.5,0A9.5,9.5,0,1,1,-9.5,0A9.5,9.5,0,1,1,9.5,0" style="fill: #2171b5; stroke-width: 1.5; opacity: 0.7;"></path></g><g class="mark-text role-legend-label" style="pointer-events: none;"><text text-anchor="start" transform="translate(25,13.5)" style="font-family: sans-serif; font-size: 10px; fill: #000; opacity: 1;">≥ 81</text></g></g></g></g></g></g></g><g class="mark-text role-legend-title" style="pointer-events: none;"><text text-anchor="start" transform="translate(0,9)" style="font-family: sans-serif; font-size: 11px; font-weight: bold; fill: #000; opacity: 1;">Quantile</text></g></g></g></g><g class="mark-group role-axis"><g transform="translate(0.5,0.5)"><path class="background" d="M0,0h0v0h0Z" style="pointer-events: none; fill: none;"></path><g><g class="mark-text role-axis-label" style="pointer-events: none;"><text text-anchor="end" transform="translate(-2,13.5)" style="font-family: sans-serif; font-size: 10px; fill: #000; opacity: 1;">28</text><text text-anchor="end" transform="translate(-2,34.5)" style="font-family: sans-serif; font-size: 10px; fill: #000; opacity: 1;">55</text><text text-anchor="end" transform="translate(-2,55.5)" style="font-family: sans-serif; font-size: 10px; fill: #000; opacity: 1;">43</text><text text-anchor="end" transform="translate(-2,76.5)" style="font-family: sans-serif; font-size: 10px; fill: #000; opacity: 1;">91</text><text text-anchor="end" transform="translate(-2,97.5)" style="font-family: sans-serif; font-size: 10px; fill: #000; opacity: 1;">81</text><text text-anchor="end" transform="translate(-2,118.5)" style="font-family: sans-serif; font-size: 10px; fill: #000; opacity: 1;">53</text><text text-anchor="end" transform="translate(-2,139.5)" style="font-family: sans-serif; font-size: 10px; fill: #000; opacity: 1;">19</text><text text-anchor="end" transform="translate(-2,160.5)" style="font-family: sans-serif; font-size: 10px; fill: #000; opacity: 1;">87</text><text text-anchor="end" transform="translate(-2,181.5)" style="font-family: sans-serif; font-size: 10px; fill: #000; opacity: 1;">52</text></g></g></g></g></g></g></g></g></svg>