<svg class="marks" width="483" height="251" viewBox="0 0 483 251" version="1.1" xmlns="http://www.w3.org/2000/svg" xmlns:xlink="http://www.w3.org/1999/xlink"><g transform="translate(79,11)"><g class="mark-group role-frame root"><g transform="translate(0,0)"><path class="background" d="M0.5,0.5h399v200h-399Z" style="fill: transparent; stroke: #ddd;"></path><g><g class="mark-group role-axis"><g transform="translate(0.5,0.5)"><path class="background" d="M0,0h0v0h0Z" style="pointer-events: none; fill: none;"></path><g><g class="mark-rule role-axis-grid" style="pointer-events: none;"><line transform="translate(0,200)" x2="399" y2="0" style="fill: none; stroke: #ddd; stroke-width: 1; stroke-dasharray: ; opacity: 1;"></line><line transform="translate(0,167)" x2="399" y2="0" style="fill: none; stroke: #ddd; stroke-width: 1; stroke-dasharray: ; opacity: 1;"></line><line transform="translate(0,133)" x2="399" y2="0" style="fill: none; stroke: #ddd; stroke-width: 1; stroke-dasharray: ; opacity: 1;"></line><line transform="translate(0,100)" x2="399" y2="0" style="fill: none; stroke: #ddd; stroke-width: 1; stroke-dasharray: ; opacity: 1;"></line><line transform="translate(0,67)" x2="399" y2="0" style="fill: none; stroke: #ddd; stroke-width: 1; stroke-dasharray: ; opacity: 1;"></line><line transform="translate(0,33)" x2="399" y2="0" style="fill: none; stroke: #ddd; stroke-width: 1; stroke-dasharray: ; opacity: 1;"></line><line transform="translate(0,0)" x2="399" y2="0" style="fill: none; stroke: #ddd; stroke-width: 1; stroke-dasharray: ; opacity: 1;"></line></g></g></g></g><g class="mark-rule role-mark layer_0_marks"><line transform="translate(10.5,176)" x2="0" y2="-39" style="fill: none; stroke: black;"></line><line transform="translate(31.5,177)" x2="0" y2="-37" style="fill: none; stroke: black;"></line><line transform="translate(52.5,180)" x2="0" y2="-33" style="fill: none; stroke: black;"></line><line transform="translate(73.5,182)" x2="0" y2="-29" style="fill: none; stroke: black;"></line><line transform="translate(94.5,183)" x2="0" y2="-30" style="fill: none; stroke: black;"></line><line transform="translate(115.5,187)" x2="0" y2="-27" style="fill: none; stroke: black;"></line><line transform="translate(136.5,189)" x2="0" y2="-22" style="fill: none; stroke: black;"></line><line transform="translate(157.5,192)" x2="0" y2="-21" style="fill: none; stroke: black;"></line><line transform="translate(178.5,193)" x2="0" y2="-17" style="fill: none; stroke: black;"></line><line transform="translate(199.5,194)" x2="0" y2="-14" style="fill: none; stroke: black;"></line><line transform="translate(220.5,195)" x2="0" y2="-13" style="fill: none; stroke: black;"></line><line transform="translate(241.5,197)" x2="0" y2="-10" style="fill: none; stroke: black;"></line><line transform="translate(262.5,197)" x2="0" y2="-8" style="fill: none; stroke: black;"></line><line transform="translate(283.5,198)" x2="0" y2="-5" style="fill: none; stroke: black;"></line><line transform="translate(304.5,199)" x2="0" y2="-4" style="fill: none; stroke: black;"></line><line transform="translate(325.5,199)" x2="0" y2="-2" style="fill: none; stroke: black;"></line><line transform="translate(346.5,200)" x2="0" y2="-1" style="fill: none; stroke: black;"></line><line transform="translate(367.5,200)" x2="0" y2="-1" style="fill: none; stroke: black;"></line><line transform="translate(388.5,200)" x2="0" y2="0" style="fill: none; stroke: black;"></line></g><g class="mark-rule role-mark layer_1_marks"><line transform="translate(10.5,60)" x2="0" y2="-33" style="fill: none; stroke: black;"></line><line transform="translate(31.5,54)" x2="0" y2="-30" style="fill: none; stroke: black;"></line><line transform="translate(52.5,58)" x2="0" y2="-37" style="fill: none; stroke: black;"></line><line transform="translate(73.5,65)" x2="0" y2="-43" style="fill: none; stroke: black;"></line><line transform="translate(94.5,79)" x2="0" y2="-56" style="fill: none; stroke: black;"></line><line transform="translate(115.5,92)" x2="0" y2="-70" style="fill: none; stroke: black;"></line><line transform="translate(136.5,102)" x2="0" y2="-87" style="fill: none; stroke: black;"></line><line transform="translate(157.5,100)" x2="0" y2="-94" style="fill: none; stroke: black;"></line><line transform="translate(178.5,105)" x2="0" y2="-96" style="fill: none; stroke: black;"></line><line transform="translate(199.5,109)" x2="0" y2="-80" style="fill: none; stroke: black;"></line><line transform="translate(220.5,113)" x2="0" y2="-62" style="fill: none; stroke: black;"></line><line transform="translate(241.5,122)" x2="0" y2="-37" style="fill: none; stroke: black;"></line><line transform="translate(262.5,134)" x2="0" y2="-28" style="fill: none; stroke: black;"></line><line transform="translate(283.5,146)" x2="0" y2="-39" style="fill: none; stroke: black;"></line><line transform="translate(304.5,159)" x2="0" y2="-45" style="fill: none; stroke: black;"></line><line transform="translate(325.5,173)" x2="0" y2="-46" style="fill: none; stroke: black;"></line><line transform="translate(346.5,185)" x2="0" y2="-39" style="fill: none; stroke: black;"></line><line transform="translate(367.5,194)" x2="0" y2="-27" style="fill: none; stroke: black;"></line><line transform="translate(388.5,197)" x2="0" y2="-15" style="fill: none; stroke: black;"></line></g><g class="mark-rect role-mark layer_2_marks"><path d="M8,60h5v77h-5Z" style="fill: #4c78a8;"></path><path d="M29,54h5v86h-5Z" style="fill: #4c78a8;"></path><path d="M50,58h5v89h-5Z" style="fill: #4c78a8;"></path><path d="M71,65h5v88h-5Z" style="fill: #4c78a8;"></path><path d="M92,79h5v74h-5Z" style="fill: #4c78a8;"></path><path d="M113,92h5v68h-5Z" style="fill: #4c78a8;"></path><path d="M134,102h5v65h-5Z" style="fill: #4c78a8;"></path><path d="M155,100h5v71h-5Z" style="fill: #4c78a8;"></path><path d="M176,105h5v71h-5Z" style="fill: #4c78a8;"></path><path d="M197,109h5v71h-5Z" style="fill: #4c78a8;"></path><path d="M218,113h5v69h-5Z" style="fill: #4c78a8;"></path><path d="M239,122h5v65h-5Z" style="fill: #4c78a8;"></path><path d="M260,134h5v55h-5Z" style="fill: #4c78a8;"></path><path d="M281,146h5v47h-5Z" style="fill: #4c78a8;"></path><path d="M302,159h5v36h-5Z" style="fill: #4c78a8;"></path><path d="M323,173h5v24h-5Z" style="fill: #4c78a8;"></path><path d="M344,185h5v14h-5Z" style="fill: #4c78a8;"></path><path d="M365,194h5v5h-5Z" style="fill: #4c78a8;"></path><path d="M386,197h5v3h-5Z" style="fill: #4c78a8;"></path></g><g class="mark-rect role-mark layer_3_marks"><path d="M8,104.5h5v1h-5Z" style="fill: #4c78a8; opacity: 0.7;"></path><path d="M29,103.5h5v1h-5Z" style="fill: #4c78a8; opacity: 0.7;"></path><path d="M50,107.5h5v1h-5Z" style="fill: #4c78a8; opacity: 0.7;"></path><path d="M71,111.5h5v1h-5Z" style="fill: #4c78a8; opacity: 0.7;"></path><path d="M92,111.5h5v1h-5Z" style="fill: #4c78a8; opacity: 0.7;"></path><path d="M113,116.5h5v1h-5Z" style="fill: #4c78a8; opacity: 0.7;"></path><path d="M134,125.5h5v1h-5Z" style="fill: #4c78a8; opacity: 0.7;"></path><path d="M155,123.5h5v1h-5Z" style="fill: #4c78a8; opacity: 0.7;"></path><path d="M176,134.5h5v1h-5Z" style="fill: #4c78a8; opacity: 0.7;"></path><path d="M197,140.5h5v1h-5Z" style="fill: #4c78a8; opacity: 0.7;"></path><path d="M218,150.5h5v1h-5Z" style="fill: #4c78a8; opacity: 0.7;"></path><path d="M239,160.5h5v1h-5Z" style="fill: #4c78a8; opacity: 0.7;"></path><path d="M260,168.5h5v1h-5Z" style="fill: #4c78a8; opacity: 0.7;"></path><path d="M281,176.5h5v1h-5Z" style="fill: #4c78a8; opacity: 0.7;"></path><path d="M302,184.5h5v1h-5Z" style="fill: #4c78a8; opacity: 0.7;"></path><path d="M323,190.5h5v1h-5Z" style="fill: #4c78a8; opacity: 0.7;"></path><path d="M344,195.5h5v1h-5Z" style="fill: #4c78a8; opacity: 0.7;"></path><path d="M365,197.5h5v1h-5Z" style="fill: #4c78a8; opacity: 0.7;"></path><path d="M386,198.5h5v1h-5Z" style="fill: #4c78a8; opacity: 0.7;"></path></g><g class="mark-group role-axis"><g transform="translate(0.5,200.5)"><path class="background" d="M0,0h0v0h0Z" style="pointer-events: none; fill: none;"></path><g><g class="mark-rule role-axis-tick" style="pointer-events: none;"><line transform="translate(10,0)" x2="0" y2="5" style="fill: none; stroke: #888; stroke-width: 1; opacity: 1;"></line><line transform="translate(31,0)" x2="0" y2="5" style="fill: none; stroke: #888; stroke-width: 1; opacity: 1;"></line><line transform="translate(52,0)" x2="0" y2="5" style="fill: none; stroke: #888; stroke-width: 1; opacity: 1;"></line><line transform="translate(73,0)" x2="0" y2="5" style="fill: none; stroke: #888; stroke-width: 1; opacity: 1;"></line><line transform="translate(94,0)" x2="0" y2="5" style="fill: none; stroke: #888; stroke-width: 1; opacity: 1;"></line><line transform="translate(115,0)" x2="0" y2="5" style="fill: none; stroke: #888; stroke-width: 1; opacity: 1;"></line><line transform="translate(136,0)" x2="0" y2="5" style="fill: none; stroke: #888; stroke-width: 1; opacity: 1;"></line><line transform="translate(157,0)" x2="0" y2="5" style="fill: none; stroke: #888; stroke-width: 1; opacity: 1;"></line><line transform="translate(178,0)" x2="0" y2="5" style="fill: none; stroke: #888; stroke-width: 1; opacity: 1;"></line><line transform="translate(199,0)" x2="0" y2="5" style="fill: none; stroke: #888; stroke-width: 1; opacity: 1;"></line><line transform="translate(220,0)" x2="0" y2="5" style="fill: none; stroke: #888; stroke-width: 1; opacity: 1;"></line><line transform="translate(241,0)" x2="0" y2="5" style="fill: none; stroke: #888; stroke-width: 1; opacity: 1;"></line><line transform="translate(262,0)" x2="0" y2="5" style="fill: none; stroke: #888; stroke-width: 1; opacity: 1;"></line><line transform="translate(283,0)" x2="0" y2="5" style="fill: none; stroke: #888; stroke-width: 1; opacity: 1;"></line><line transform="translate(304,0)" x2="0" y2="5" style="fill: none; stroke: #888; stroke-width: 1; opacity: 1;"></line><line transform="translate(325,0)" x2="0" y2="5" style="fill: none; stroke: #888; stroke-width: 1; opacity: 1;"></line><line transform="translate(346,0)" x2="0" y2="5" style="fill: none; stroke: #888; stroke-width: 1; opacity: 1;"></line><line transform="translate(367,0)" x2="0" y2="5" style="fill: none; stroke: #888; stroke-width: 1; opacity: 1;"></line><line transform="translate(388,0)" x2="0" y2="5" style="fill: none; stroke: #888; stroke-width: 1; opacity: 1;"></line></g><g class="mark-text role-axis-label" style="pointer-events: none;"><text text-anchor="end" transform="translate(9.5,7) rotate(270) translate(0,3)" style="font: 10px sans-serif; fill: #000; opacity: 1;">0</text><text text-anchor="end" transform="translate(30.5,7) rotate(270) translate(0,3)" style="font: 10px sans-serif; fill: #000; opacity: 1;">5</text><text text-anchor="end" transform="translate(51.5,7) rotate(270) translate(0,3)" style="font: 10px sans-serif; fill: #000; opacity: 1;">10</text><text text-anchor="end" transform="translate(72.5,7) rotate(270) translate(0,3)" style="font: 10px sans-serif; fill: #000; opacity: 1;">15</text><text text-anchor="end" transform="translate(93.5,7) rotate(270) translate(0,3)" style="font: 10px sans-serif; fill: #000; opacity: 1;">20</text><text text-anchor="end" transform="translate(114.5,7) rotate(270) translate(0,3)" style="font: 10px sans-serif; fill: #000; opacity: 1;">25</text><text text-anchor="end" transform="translate(135.5,7) rotate(270) translate(0,3)" style="font: 10px sans-serif; fill: #000; opacity: 1;">30</text><text text-anchor="end" transform="translate(156.5,7) rotate(270) translate(0,3)" style="font: 10px sans-serif; fill: #000; opacity: 1;">35</text><text text-anchor="end" transform="translate(177.5,7) rotate(270) translate(0,3)" style="font: 10px sans-serif; fill: #000; opacity: 1;">40</text><text text-anchor="end" transform="translate(198.5,7) rotate(270) translate(0,3)" style="font: 10px sans-serif; fill: #000; opacity: 1;">45</text><text text-anchor="end" transform="translate(219.5,7) rotate(270) translate(0,3)" style="font: 10px sans-serif; fill: #000; opacity: 1;">50</text><text text-anchor="end" transform="translate(240.5,7) rotate(270) translate(0,3)" style="font: 10px sans-serif; fill: #000; opacity: 1;">55</text><text text-anchor="end" transform="translate(261.5,7) rotate(270) translate(0,3)" style="font: 10px sans-serif; fill: #000; opacity: 1;">60</text><text text-anchor="end" transform="translate(282.5,7) rotate(270) translate(0,3)" style="font: 10px sans-serif; fill: #000; opacity: 1;">65</text><text text-anchor="end" transform="translate(303.5,7) rotate(270) translate(0,3)" style="font: 10px sans-serif; fill: #000; opacity: 1;">70</text><text text-anchor="end" transform="translate(324.5,7) rotate(270) translate(0,3)" style="font: 10px sans-serif; fill: #000; opacity: 1;">75</text><text text-anchor="end" transform="translate(345.5,7) rotate(270) translate(0,3)" style="font: 10px sans-serif; fill: #000; opacity: 1;">80</text><text text-anchor="end" transform="translate(366.5,7) rotate(270) translate(0,3)" style="font: 10px sans-serif; fill: #000; opacity: 1;">85</text><text text-anchor="end" transform="translate(387.5,7) rotate(270) translate(0,3)" style="font: 10px sans-serif; fill: #000; opacity: 1;">90</text></g><g class="mark-rule role-axis-domain" style="pointer-events: none;"><line transform="translate(0,0)" x2="399" y2="0" style="fill: none; stroke: #888; stroke-width: 1; opacity: 1;"></line></g><g class="mark-text role-axis-title" style="pointer-events: none;"><text text-anchor="middle" transform="translate(199.5,31.123046875)" style="font: bold 11px sans-serif; fill: #000; opacity: 1;">age</text></g></g></g></g><g class="mark-group role-axis"><g transform="translate(0.5,0.5)"><path class="background" d="M0,0h0v0h0Z" style="pointer-events: none; fill: none;"></path><g><g class="mark-rule role-axis-tick" style="pointer-events: none;"><line transform="translate(0,200)" x2="-5" y2="0" style="fill: none; stroke: #888; stroke-width: 1; opacity: 1;"></line><line transform="translate(0,167)" x2="-5" y2="0" style="fill: none; stroke: #888; stroke-width: 1; opacity: 1;"></line><line transform="translate(0,133)" x2="-5" y2="0" style="fill: none; stroke: #888; stroke-width: 1; opacity: 1;"></line><line transform="translate(0,100)" x2="-5" y2="0" style="fill: none; stroke: #888; stroke-width: 1; opacity: 1;"></line><line transform="translate(0,67)" x2="-5" y2="0" style="fill: none; stroke: #888; stroke-width: 1; opacity: 1;"></line><line transform="translate(0,33)" x2="-5" y2="0" style="fill: none; stroke: #888; stroke-width: 1; opacity: 1;"></line><line transform="translate(0,0)" x2="-5" y2="0" style="fill: none; stroke: #888; stroke-width: 1; opacity: 1;"></line></g><g class="mark-text role-axis-label" style="pointer-events: none;"><text text-anchor="end" transform="translate(-7,203)" style="font: 10px sans-serif; fill: #000; opacity: 1;">0</text><text text-anchor="end" transform="translate(-7,170)" style="font: 10px sans-serif; fill: #000; opacity: 1;">2,000,000</text><text text-anchor="end" transform="translate(-7,136)" style="font: 10px sans-serif; fill: #000; opacity: 1;">4,000,000</text><text text-anchor="end" transform="translate(-7,103)" style="font: 10px sans-serif; fill: #000; opacity: 1;">6,000,000</text><text text-anchor="end" transform="translate(-7,70)" style="font: 10px sans-serif; fill: #000; opacity: 1;">8,000,000</text><text text-anchor="end" transform="translate(-7,36)" style="font: 10px sans-serif; fill: #000; opacity: 1;">10,000,000</text><text text-anchor="end" transform="translate(-7,3)" style="font: 10px sans-serif; fill: #000; opacity: 1;">12,000,000</text></g><g class="mark-rule role-axis-domain" style="pointer-events: none;"><line transform="translate(0,200)" x2="0" y2="-200" style="fill: none; stroke: #888; stroke-width: 1; opacity: 1;"></line></g><g class="mark-text role-axis-title" style="pointer-events: none;"><text text-anchor="middle" transform="translate(-60.048828125,100) rotate(-90) translate(0,-2)" style="font: bold 11px sans-serif; fill: #000; opacity: 1;">population</text></g></g></g></g></g></g></g></g></svg>