<svg class="marks" width="512" height="249" viewBox="0 0 512 249" version="1.1" xmlns="http://www.w3.org/2000/svg" xmlns:xlink="http://www.w3.org/1999/xlink"><g transform="translate(108,5)"><g class="mark-group role-frame root"><g transform="translate(0,0)"><path class="background" d="M0.5,0.5h399v200h-399Z" style="fill: transparent; stroke: #ddd;"></path><g><g class="mark-group role-axis"><g transform="translate(0.5,0.5)"><path class="background" d="M0,0h0v0h0Z" style="pointer-events: none; fill: none;"></path><g><g class="mark-rule role-axis-grid" style="pointer-events: none;"><line transform="translate(0,200)" x2="399" y2="0" style="fill: none; stroke: #ddd; stroke-width: 1; stroke-dasharray: ; opacity: 1;"></line><line transform="translate(0,144)" x2="399" y2="0" style="fill: none; stroke: #ddd; stroke-width: 1; stroke-dasharray: ; opacity: 1;"></line><line transform="translate(0,89)" x2="399" y2="0" style="fill: none; stroke: #ddd; stroke-width: 1; stroke-dasharray: ; opacity: 1;"></line><line transform="translate(0,33)" x2="399" y2="0" style="fill: none; stroke: #ddd; stroke-width: 1; stroke-dasharray: ; opacity: 1;"></line></g></g></g></g><g class="mark-rule role-mark layer_0_marks"><line transform="translate(10.500000000000012,29.646695833333325)" x2="0" y2="128.15835416666667" style="fill: none; stroke: black;"></line><line transform="translate(31.500000000000014,15.897223611111116)" x2="0" y2="144.42779861111111" style="fill: none; stroke: black;"></line><line transform="translate(52.500000000000014,16.76478194444445)" x2="0" y2="147.85321527777776" style="fill: none; stroke: black;"></line><line transform="translate(73.50000000000001,22.368784722222216)" x2="0" y2="146.08038194444444" style="fill: none; stroke: black;"></line><line transform="translate(94.50000000000001,45.269575)" x2="0" y2="123.23770833333333" style="fill: none; stroke: black;"></line><line transform="translate(115.50000000000001,59.87018055555555)" x2="0" y2="113.47916666666666" style="fill: none; stroke: black;"></line><line transform="translate(136.5,69.51751388888889)" x2="0" y2="108.50333333333333" style="fill: none; stroke: black;"></line><line transform="translate(157.5,63.08904027777777)" x2="0" y2="117.5497013888889" style="fill: none; stroke: black;"></line><line transform="translate(178.5,65.1820361111111)" x2="0" y2="118.91993055555557" style="fill: none; stroke: black;"></line><line transform="translate(199.5,68.15155833333333)" x2="0" y2="118.38748611111112" style="fill: none; stroke: black;"></line><line transform="translate(220.5,73.32972083333334)" x2="0" y2="114.71074305555555" style="fill: none; stroke: black;"></line><line transform="translate(241.5,83.12245)" x2="0" y2="108.26068055555557" style="fill: none; stroke: black;"></line><line transform="translate(262.5,100.97411944444444)" x2="0" y2="91.72476388888889" style="fill: none; stroke: black;"></line><line transform="translate(283.5,117.36347638888888)" x2="0" y2="77.77984027777778" style="fill: none; stroke: black;"></line><line transform="translate(304.5,136.34375555555556)" x2="0" y2="60.305486111111094" style="fill: none; stroke: black;"></line><line transform="translate(325.5,157.60047777777777)" x2="0" y2="40.46502777777778" style="fill: none; stroke: black;"></line><line transform="translate(346.5,177.08448611111112)" x2="0" y2="21.917444444444442" style="fill: none; stroke: black;"></line><line transform="translate(367.5,189.98454444444445)" x2="0" y2="9.632986111111109" style="fill: none; stroke: black;"></line><line transform="translate(388.5,195.42559583333335)" x2="0" y2="4.405118055555533" style="fill: none; stroke: black;"></line></g><g class="mark-rule role-mark layer_1_marks"><line transform="translate(10.500000000000012,106.54170833333333)" x2="0" y2="93.45829166666667" style="fill: none; stroke: black;"></line><line transform="translate(31.500000000000014,102.55390277777778)" x2="0" y2="97.44609722222222" style="fill: none; stroke: black;"></line><line transform="translate(52.500000000000014,105.47671111111111)" x2="0" y2="94.52328888888889" style="fill: none; stroke: black;"></line><line transform="translate(73.50000000000001,110.0170138888889)" x2="0" y2="89.9829861111111" style="fill: none; stroke: black;"></line><line transform="translate(94.50000000000001,119.2122)" x2="0" y2="80.7878" style="fill: none; stroke: black;"></line><line transform="translate(115.50000000000001,127.95768055555556)" x2="0" y2="72.04231944444444" style="fill: none; stroke: black;"></line><line transform="translate(136.5,134.6195138888889)" x2="0" y2="65.38048611111111" style="fill: none; stroke: black;"></line><line transform="translate(157.5,133.61886111111113)" x2="0" y2="66.38113888888887" style="fill: none; stroke: black;"></line><line transform="translate(178.5,136.53399444444443)" x2="0" y2="63.46600555555557" style="fill: none; stroke: black;"></line><line transform="translate(199.5,139.18405)" x2="0" y2="60.81594999999999" style="fill: none; stroke: black;"></line><line transform="translate(220.5,142.15616666666665)" x2="0" y2="57.84383333333335" style="fill: none; stroke: black;"></line><line transform="translate(241.5,148.07885833333333)" x2="0" y2="51.92114166666667" style="fill: none; stroke: black;"></line><line transform="translate(262.5,156.00897777777777)" x2="0" y2="43.99102222222223" style="fill: none; stroke: black;"></line><line transform="translate(283.5,164.03138055555556)" x2="0" y2="35.96861944444444" style="fill: none; stroke: black;"></line><line transform="translate(304.5,172.52704722222222)" x2="0" y2="27.472952777777778" style="fill: none; stroke: black;"></line><line transform="translate(325.5,181.87949444444445)" x2="0" y2="18.120505555555553" style="fill: none; stroke: black;"></line><line transform="translate(346.5,190.23495277777778)" x2="0" y2="9.765047222222222" style="fill: none; stroke: black;"></line><line transform="translate(367.5,195.7643361111111)" x2="0" y2="4.235663888888894" style="fill: none; stroke: black;"></line><line transform="translate(388.5,198.06866666666667)" x2="0" y2="1.9313333333333276" style="fill: none; stroke: black;"></line></g><g class="mark-rect role-mark layer_2_marks"><path d="M8.000000000000012,106.54170833333333h5v51.26334166666666h-5Z" style="fill: #4c78a8;"></path><path d="M29.000000000000014,102.55390277777778h5v57.77111944444445h-5Z" style="fill: #4c78a8;"></path><path d="M50.000000000000014,105.47671111111111h5v59.1412861111111h-5Z" style="fill: #4c78a8;"></path><path d="M71.00000000000001,110.0170138888889h5v58.43215277777776h-5Z" style="fill: #4c78a8;"></path><path d="M92.00000000000001,119.2122h5v49.29508333333334h-5Z" style="fill: #4c78a8;"></path><path d="M113.00000000000001,127.95768055555556h5v45.39166666666665h-5Z" style="fill: #4c78a8;"></path><path d="M134,134.6195138888889h5v43.401333333333326h-5Z" style="fill: #4c78a8;"></path><path d="M155,133.61886111111113h5v47.019880555555545h-5Z" style="fill: #4c78a8;"></path><path d="M176,136.53399444444443h5v47.56797222222224h-5Z" style="fill: #4c78a8;"></path><path d="M197,139.18405h5v47.35499444444443h-5Z" style="fill: #4c78a8;"></path><path d="M218,142.15616666666665h5v45.884297222222244h-5Z" style="fill: #4c78a8;"></path><path d="M239,148.07885833333333h5v43.30427222222224h-5Z" style="fill: #4c78a8;"></path><path d="M260,156.00897777777777h5v36.689905555555555h-5Z" style="fill: #4c78a8;"></path><path d="M281,164.03138055555556h5v31.111936111111106h-5Z" style="fill: #4c78a8;"></path><path d="M302,172.52704722222222h5v24.122194444444432h-5Z" style="fill: #4c78a8;"></path><path d="M323,181.87949444444445h5v16.1860111111111h-5Z" style="fill: #4c78a8;"></path><path d="M344,190.23495277777778h5v8.766977777777782h-5Z" style="fill: #4c78a8;"></path><path d="M365,195.7643361111111h5v3.853194444444455h-5Z" style="fill: #4c78a8;"></path><path d="M386,198.06866666666667h5v1.7620472222222077h-5Z" style="fill: #4c78a8;"></path></g><g class="mark-rect role-mark layer_3_marks"><path d="M8.000000000000012,136.40681111111113h5v1h-5Z" style="fill: white; opacity: 0.7;"></path><path d="M29.000000000000014,135.70573333333334h5v1h-5Z" style="fill: white; opacity: 0.7;"></path><path d="M50.000000000000014,138.0523388888889h5v1h-5Z" style="fill: white; opacity: 0.7;"></path><path d="M71.00000000000001,140.87293888888888h5v1h-5Z" style="fill: white; opacity: 0.7;"></path><path d="M92.00000000000001,140.75346666666667h5v1h-5Z" style="fill: white; opacity: 0.7;"></path><path d="M113.00000000000001,144.0551h5v1h-5Z" style="fill: white; opacity: 0.7;"></path><path d="M134,150.16877222222223h5v1h-5Z" style="fill: white; opacity: 0.7;"></path><path d="M155,148.55385h5v1h-5Z" style="fill: white; opacity: 0.7;"></path><path d="M176,156.00466111111112h5v1h-5Z" style="fill: white; opacity: 0.7;"></path><path d="M197,160.44605555555555h5v1h-5Z" style="fill: white; opacity: 0.7;"></path><path d="M218,166.51500555555555h5v1h-5Z" style="fill: white; opacity: 0.7;"></path><path d="M239,173.20727222222223h5v1h-5Z" style="fill: white; opacity: 0.7;"></path><path d="M260,178.88289444444445h5v1h-5Z" style="fill: white; opacity: 0.7;"></path><path d="M281,184.47451666666666h5v1h-5Z" style="fill: white; opacity: 0.7;"></path><path d="M302,189.29136666666668h5v1h-5Z" style="fill: white; opacity: 0.7;"></path><path d="M323,193.6161611111111h5v1h-5Z" style="fill: white; opacity: 0.7;"></path><path d="M344,196.5539611111111h5v1h-5Z" style="fill: white; opacity: 0.7;"></path><path d="M365,198.3775611111111h5v1h-5Z" style="fill: white; opacity: 0.7;"></path><path d="M386,199.08695555555556h5v1h-5Z" style="fill: white; opacity: 0.7;"></path></g><g class="mark-group role-axis"><g transform="translate(0.5,200.5)"><path class="background" d="M0,0h0v0h0Z" style="pointer-events: none; fill: none;"></path><g><g class="mark-rule role-axis-tick" style="pointer-events: none;"><line transform="translate(10,0)" x2="0" y2="5" style="fill: none; stroke: #888; stroke-width: 1; opacity: 1;"></line><line transform="translate(31,0)" x2="0" y2="5" style="fill: none; stroke: #888; stroke-width: 1; opacity: 1;"></line><line transform="translate(52,0)" x2="0" y2="5" style="fill: none; stroke: #888; stroke-width: 1; opacity: 1;"></line><line transform="translate(73,0)" x2="0" y2="5" style="fill: none; stroke: #888; stroke-width: 1; opacity: 1;"></line><line transform="translate(94,0)" x2="0" y2="5" style="fill: none; stroke: #888; stroke-width: 1; opacity: 1;"></line><line transform="translate(115,0)" x2="0" y2="5" style="fill: none; stroke: #888; stroke-width: 1; opacity: 1;"></line><line transform="translate(136,0)" x2="0" y2="5" style="fill: none; stroke: #888; stroke-width: 1; opacity: 1;"></line><line transform="translate(157,0)" x2="0" y2="5" style="fill: none; stroke: #888; stroke-width: 1; opacity: 1;"></line><line transform="translate(178,0)" x2="0" y2="5" style="fill: none; stroke: #888; stroke-width: 1; opacity: 1;"></line><line transform="translate(199,0)" x2="0" y2="5" style="fill: none; stroke: #888; stroke-width: 1; opacity: 1;"></line><line transform="translate(220,0)" x2="0" y2="5" style="fill: none; stroke: #888; stroke-width: 1; opacity: 1;"></line><line transform="translate(241,0)" x2="0" y2="5" style="fill: none; stroke: #888; stroke-width: 1; opacity: 1;"></line><line transform="translate(262,0)" x2="0" y2="5" style="fill: none; stroke: #888; stroke-width: 1; opacity: 1;"></line><line transform="translate(283,0)" x2="0" y2="5" style="fill: none; stroke: #888; stroke-width: 1; opacity: 1;"></line><line transform="translate(304,0)" x2="0" y2="5" style="fill: none; stroke: #888; stroke-width: 1; opacity: 1;"></line><line transform="translate(325,0)" x2="0" y2="5" style="fill: none; stroke: #888; stroke-width: 1; opacity: 1;"></line><line transform="translate(346,0)" x2="0" y2="5" style="fill: none; stroke: #888; stroke-width: 1; opacity: 1;"></line><line transform="translate(367,0)" x2="0" y2="5" style="fill: none; stroke: #888; stroke-width: 1; opacity: 1;"></line><line transform="translate(388,0)" x2="0" y2="5" style="fill: none; stroke: #888; stroke-width: 1; opacity: 1;"></line></g><g class="mark-text role-axis-label" style="pointer-events: none;"><text text-anchor="end" transform="translate(9.500000000000012,7) rotate(270) translate(0,3)" style="font: 10px sans-serif; fill: #000; opacity: 1;">0</text><text text-anchor="end" transform="translate(30.500000000000014,7) rotate(270) translate(0,3)" style="font: 10px sans-serif; fill: #000; opacity: 1;">5</text><text text-anchor="end" transform="translate(51.500000000000014,7) rotate(270) translate(0,3)" style="font: 10px sans-serif; fill: #000; opacity: 1;">10</text><text text-anchor="end" transform="translate(72.50000000000001,7) rotate(270) translate(0,3)" style="font: 10px sans-serif; fill: #000; opacity: 1;">15</text><text text-anchor="end" transform="translate(93.50000000000001,7) rotate(270) translate(0,3)" style="font: 10px sans-serif; fill: #000; opacity: 1;">20</text><text text-anchor="end" transform="translate(114.50000000000001,7) rotate(270) translate(0,3)" style="font: 10px sans-serif; fill: #000; opacity: 1;">25</text><text text-anchor="end" transform="translate(135.5,7) rotate(270) translate(0,3)" style="font: 10px sans-serif; fill: #000; opacity: 1;">30</text><text text-anchor="end" transform="translate(156.5,7) rotate(270) translate(0,3)" style="font: 10px sans-serif; fill: #000; opacity: 1;">35</text><text text-anchor="end" transform="translate(177.5,7) rotate(270) translate(0,3)" style="font: 10px sans-serif; fill: #000; opacity: 1;">40</text><text text-anchor="end" transform="translate(198.5,7) rotate(270) translate(0,3)" style="font: 10px sans-serif; fill: #000; opacity: 1;">45</text><text text-anchor="end" transform="translate(219.5,7) rotate(270) translate(0,3)" style="font: 10px sans-serif; fill: #000; opacity: 1;">50</text><text text-anchor="end" transform="translate(240.5,7) rotate(270) translate(0,3)" style="font: 10px sans-serif; fill: #000; opacity: 1;">55</text><text text-anchor="end" transform="translate(261.5,7) rotate(270) translate(0,3)" style="font: 10px sans-serif; fill: #000; opacity: 1;">60</text><text text-anchor="end" transform="translate(282.5,7) rotate(270) translate(0,3)" style="font: 10px sans-serif; fill: #000; opacity: 1;">65</text><text text-anchor="end" transform="translate(303.5,7) rotate(270) translate(0,3)" style="font: 10px sans-serif; fill: #000; opacity: 1;">70</text><text text-anchor="end" transform="translate(324.5,7) rotate(270) translate(0,3)" style="font: 10px sans-serif; fill: #000; opacity: 1;">75</text><text text-anchor="end" transform="translate(345.5,7) rotate(270) translate(0,3)" style="font: 10px sans-serif; fill: #000; opacity: 1;">80</text><text text-anchor="end" transform="translate(366.5,7) rotate(270) translate(0,3)" style="font: 10px sans-serif; fill: #000; opacity: 1;">85</text><text text-anchor="end" transform="translate(387.5,7) rotate(270) translate(0,3)" style="font: 10px sans-serif; fill: #000; opacity: 1;">90</text></g><g class="mark-rule role-axis-domain" style="pointer-events: none;"><line transform="translate(0,0)" x2="399" y2="0" style="fill: none; stroke: #888; stroke-width: 1; opacity: 1;"></line></g><g class="mark-text role-axis-title" style="pointer-events: none;"><text text-anchor="middle" transform="translate(199.5,36)" style="font: bold 11px sans-serif; fill: #000; opacity: 1;">age</text></g></g></g></g><g class="mark-group role-axis"><g transform="translate(0.5,0.5)"><path class="background" d="M0,0h0v0h0Z" style="pointer-events: none; fill: none;"></path><g><g class="mark-rule role-axis-tick" style="pointer-events: none;"><line transform="translate(0,200)" x2="-5" y2="0" style="fill: none; stroke: #888; stroke-width: 1; opacity: 1;"></line><line transform="translate(0,144)" x2="-5" y2="0" style="fill: none; stroke: #888; stroke-width: 1; opacity: 1;"></line><line transform="translate(0,89)" x2="-5" y2="0" style="fill: none; stroke: #888; stroke-width: 1; opacity: 1;"></line><line transform="translate(0,33)" x2="-5" y2="0" style="fill: none; stroke: #888; stroke-width: 1; opacity: 1;"></line></g><g class="mark-text role-axis-label" style="pointer-events: none;"><text text-anchor="end" transform="translate(-7,203)" style="font: 10px sans-serif; fill: #000; opacity: 1;">0</text><text text-anchor="end" transform="translate(-7,147.44444444444446)" style="font: 10px sans-serif; fill: #000; opacity: 1;">5,000,000</text><text text-anchor="end" transform="translate(-7,91.88888888888889)" style="font: 10px sans-serif; fill: #000; opacity: 1;">10,000,000</text><text text-anchor="end" transform="translate(-7,36.333333333333314)" style="font: 10px sans-serif; fill: #000; opacity: 1;">15,000,000</text></g><g class="mark-rule role-axis-domain" style="pointer-events: none;"><line transform="translate(0,200)" x2="0" y2="-200" style="fill: none; stroke: #888; stroke-width: 1; opacity: 1;"></line></g><g class="mark-text role-axis-title" style="pointer-events: none;"><text text-anchor="middle" transform="translate(-90,100) rotate(-90) translate(0,-2)" style="font: bold 11px sans-serif; fill: #000; opacity: 1;">population</text></g></g></g></g></g></g></g></g></svg>