<svg class="marks" width="495" height="257" viewBox="0 0 495 257" version="1.1" xmlns="http://www.w3.org/2000/svg" xmlns:xlink="http://www.w3.org/1999/xlink"><g transform="translate(110,11)"><g class="mark-group role-frame root"><g transform="translate(0,0)"><path class="background" d="M0.5,0.5h380v200h-380Z" style="fill: none; stroke: #ddd;"></path><g><g class="mark-group role-axis"><g transform="translate(0.5,0.5)"><path class="background" d="M0,0h0v0h0Z" style="pointer-events: none; fill: none;"></path><g><g class="mark-rule role-axis-grid" style="pointer-events: none;"><line transform="translate(0,185)" x2="380" y2="0" style="fill: none; stroke: #ddd; stroke-width: 1; opacity: 1;"></line><line transform="translate(0,154)" x2="380" y2="0" style="fill: none; stroke: #ddd; stroke-width: 1; opacity: 1;"></line><line transform="translate(0,123)" x2="380" y2="0" style="fill: none; stroke: #ddd; stroke-width: 1; opacity: 1;"></line><line transform="translate(0,92)" x2="380" y2="0" style="fill: none; stroke: #ddd; stroke-width: 1; opacity: 1;"></line><line transform="translate(0,62)" x2="380" y2="0" style="fill: none; stroke: #ddd; stroke-width: 1; opacity: 1;"></line><line transform="translate(0,31)" x2="380" y2="0" style="fill: none; stroke: #ddd; stroke-width: 1; opacity: 1;"></line><line transform="translate(0,0)" x2="380" y2="0" style="fill: none; stroke: #ddd; stroke-width: 1; opacity: 1;"></line></g></g></g></g><g class="mark-rule role-mark layer_0_marks"><line transform="translate(10,162.30190769230768)" x2="0" y2="-36.11029999999998" style="fill: none; stroke: black;"></line><line transform="translate(30,163.6974153846154)" x2="0" y2="-34.01661538461542" style="fill: none; stroke: black;"></line><line transform="translate(50,165.90593846153845)" x2="0" y2="-30.281019230769232" style="fill: none; stroke: black;"></line><line transform="translate(70,168.0441076923077)" x2="0" y2="-27.11449230769233" style="fill: none; stroke: black;"></line><line transform="translate(90,169.17167692307692)" x2="0" y2="-28.161592307692302" style="fill: none; stroke: black;"></line><line transform="translate(110,172.31566153846154)" x2="0" y2="-24.60118076923078" style="fill: none; stroke: black;"></line><line transform="translate(130,174.77483076923076)" x2="0" y2="-20.592119230769214" style="fill: none; stroke: black;"></line><line transform="translate(150,176.84596923076924)" x2="0" y2="-19.038480769230773" style="fill: none; stroke: black;"></line><line transform="translate(170,178.0279230769231)" x2="0" y2="-15.425200000000018" style="fill: none; stroke: black;"></line><line transform="translate(190,179.36532307692306)" x2="0" y2="-13.388184615384603" style="fill: none; stroke: black;"></line><line transform="translate(210,180.20646153846155)" x2="0" y2="-12.150434615384626" style="fill: none; stroke: black;"></line><line transform="translate(230,181.73526153846154)" x2="0" y2="-9.05092692307693" style="fill: none; stroke: black;"></line><line transform="translate(250,182.11944615384616)" x2="0" y2="-7.6133000000000095" style="fill: none; stroke: black;"></line><line transform="translate(270,182.9917846153846)" x2="0" y2="-5.101038461538451" style="fill: none; stroke: black;"></line><line transform="translate(290,183.51135384615384)" x2="0" y2="-3.535480769230759" style="fill: none; stroke: black;"></line><line transform="translate(310,183.99647692307693)" x2="0" y2="-2.0596230769230885" style="fill: none; stroke: black;"></line><line transform="translate(330,184.26232307692308)" x2="0" y2="-1.028880769230767" style="fill: none; stroke: black;"></line><line transform="translate(350,184.48944615384616)" x2="0" y2="-0.4036346153846182" style="fill: none; stroke: black;"></line><line transform="translate(370,184.5344769230769)" x2="0" y2="-0.1534884615384442" style="fill: none; stroke: black;"></line></g><g class="mark-rule role-mark layer_1_marks"><line transform="translate(10,55.21159615384613)" x2="0" y2="-30.211211538461527" style="fill: none; stroke: black;"></line><line transform="translate(30,49.690019230769224)" x2="0" y2="-27.4153423076923" style="fill: none; stroke: black;"></line><line transform="translate(50,53.736984615384614)" x2="0" y2="-34.60472307692308" style="fill: none; stroke: black;"></line><line transform="translate(70,60.02355769230769)" x2="0" y2="-40.0059576923077" style="fill: none; stroke: black;"></line><line transform="translate(90,72.75535384615384)" x2="0" y2="-51.44684615384614" style="fill: none; stroke: black;"></line><line transform="translate(110,84.86448076923077)" x2="0" y2="-64.21874230769231" style="fill: none; stroke: black;"></line><line transform="translate(130,94.08855769230769)" x2="0" y2="-80.33086538461538" style="fill: none; stroke: black;"></line><line transform="translate(150,92.70303846153847)" x2="0" y2="-87.0976076923077" style="fill: none; stroke: black;"></line><line transform="translate(170,96.73937692307692)" x2="0" y2="-88.87134615384613" style="fill: none; stroke: black;"></line><line transform="translate(190,100.40868461538462)" x2="0" y2="-73.65873076923079" style="fill: none; stroke: black;"></line><line transform="translate(210,104.52392307692307)" x2="0" y2="-57.00289230769229" style="fill: none; stroke: black;"></line><line transform="translate(230,112.72457307692308)" x2="0" y2="-34.59023461538463" style="fill: none; stroke: black;"></line><line transform="translate(250,123.70473846153847)" x2="0" y2="-26.30413846153847" style="fill: none; stroke: black;"></line><line transform="translate(270,134.81268076923078)" x2="0" y2="-36.26049615384616" style="fill: none; stroke: black;"></line><line transform="translate(290,146.57591153846153)" x2="0" y2="-41.72752692307691" style="fill: none; stroke: black;"></line><line transform="translate(310,159.52545384615385)" x2="0" y2="-41.91997692307693" style="fill: none; stroke: black;"></line><line transform="translate(330,171.09455)" x2="0" y2="-36.04682692307691" style="fill: none; stroke: black;"></line><line transform="translate(350,178.75061923076925)" x2="0" y2="-24.6145576923077" style="fill: none; stroke: black;"></line><line transform="translate(370,181.94123076923077)" x2="0" y2="-13.704015384615388" style="fill: none; stroke: black;"></line></g><g class="mark-rect role-mark layer_2_marks"><path d="M3,55.21159615384613h14v70.98001153846157h-14Z" style="fill: #4c78a8;"></path><path d="M23,49.690019230769224h14v79.99078076923075h-14Z" style="fill: #4c78a8;"></path><path d="M43,53.736984615384614h14v81.88793461538461h-14Z" style="fill: #4c78a8;"></path><path d="M63,60.02355769230769h14v80.90605769230768h-14Z" style="fill: #4c78a8;"></path><path d="M83,72.75535384615384h14v68.25473076923078h-14Z" style="fill: #4c78a8;"></path><path d="M103,84.86448076923077h14v62.849999999999994h-14Z" style="fill: #4c78a8;"></path><path d="M123,94.08855769230769h14v60.09415384615386h-14Z" style="fill: #4c78a8;"></path><path d="M143,92.70303846153847h14v65.10445h-14Z" style="fill: #4c78a8;"></path><path d="M163,96.73937692307692h14v65.86334615384615h-14Z" style="fill: #4c78a8;"></path><path d="M183,100.40868461538462h14v65.56845384615384h-14Z" style="fill: #4c78a8;"></path><path d="M203,104.52392307692307h14v63.53210384615386h-14Z" style="fill: #4c78a8;"></path><path d="M223,112.72457307692308h14v59.959761538461535h-14Z" style="fill: #4c78a8;"></path><path d="M243,123.70473846153847h14v50.80140769230768h-14Z" style="fill: #4c78a8;"></path><path d="M263,134.81268076923078h14v43.07806538461537h-14Z" style="fill: #4c78a8;"></path><path d="M283,146.57591153846153h14v33.399961538461554h-14Z" style="fill: #4c78a8;"></path><path d="M303,159.52545384615385h14v22.411399999999986h-14Z" style="fill: #4c78a8;"></path><path d="M323,171.09455h14v12.138892307692316h-14Z" style="fill: #4c78a8;"></path><path d="M343,178.75061923076925h14v5.335192307692296h-14Z" style="fill: #4c78a8;"></path><path d="M363,181.94123076923077h14v2.439757692307694h-14Z" style="fill: #4c78a8;"></path></g><g class="mark-rect role-mark layer_3_marks"><path d="M3,96.75558461538462h14v1h-14Z" style="fill: white; opacity: 0.7;"></path><path d="M23,95.78486153846154h14v1h-14Z" style="fill: white; opacity: 0.7;"></path><path d="M43,99.0340076923077h14v1h-14Z" style="fill: white; opacity: 0.7;"></path><path d="M63,102.93945384615385h14v1h-14Z" style="fill: white; opacity: 0.7;"></path><path d="M83,102.77403076923078h14v1h-14Z" style="fill: white; opacity: 0.7;"></path><path d="M103,107.34552307692307h14v1h-14Z" style="fill: white; opacity: 0.7;"></path><path d="M123,115.81060769230768h14v1h-14Z" style="fill: white; opacity: 0.7;"></path><path d="M143,113.57456153846154h14v1h-14Z" style="fill: white; opacity: 0.7;"></path><path d="M163,123.89106923076923h14v1h-14Z" style="fill: white; opacity: 0.7;"></path><path d="M183,130.04069230769232h14v1h-14Z" style="fill: white; opacity: 0.7;"></path><path d="M203,138.44385384615384h14v1h-14Z" style="fill: white; opacity: 0.7;"></path><path d="M223,147.71006923076922h14v1h-14Z" style="fill: white; opacity: 0.7;"></path><path d="M243,155.56862307692307h14v1h-14Z" style="fill: white; opacity: 0.7;"></path><path d="M263,163.31086923076924h14v1h-14Z" style="fill: white; opacity: 0.7;"></path><path d="M283,169.98035384615383h14v1h-14Z" style="fill: white; opacity: 0.7;"></path><path d="M303,175.96853076923077h14v1h-14Z" style="fill: white; opacity: 0.7;"></path><path d="M323,180.03625384615384h14v1h-14Z" style="fill: white; opacity: 0.7;"></path><path d="M343,182.56123846153847h14v1h-14Z" style="fill: white; opacity: 0.7;"></path><path d="M363,183.54347692307692h14v1h-14Z" style="fill: white; opacity: 0.7;"></path></g><g class="mark-group role-axis"><g transform="translate(0.5,200.5)"><path class="background" d="M0,0h0v0h0Z" style="pointer-events: none; fill: none;"></path><g><g class="mark-rule role-axis-tick" style="pointer-events: none;"><line transform="translate(9,0)" x2="0" y2="5" style="fill: none; stroke: #888; stroke-width: 1; opacity: 1;"></line><line transform="translate(29,0)" x2="0" y2="5" style="fill: none; stroke: #888; stroke-width: 1; opacity: 1;"></line><line transform="translate(49,0)" x2="0" y2="5" style="fill: none; stroke: #888; stroke-width: 1; opacity: 1;"></line><line transform="translate(69,0)" x2="0" y2="5" style="fill: none; stroke: #888; stroke-width: 1; opacity: 1;"></line><line transform="translate(89,0)" x2="0" y2="5" style="fill: none; stroke: #888; stroke-width: 1; opacity: 1;"></line><line transform="translate(109,0)" x2="0" y2="5" style="fill: none; stroke: #888; stroke-width: 1; opacity: 1;"></line><line transform="translate(129,0)" x2="0" y2="5" style="fill: none; stroke: #888; stroke-width: 1; opacity: 1;"></line><line transform="translate(149,0)" x2="0" y2="5" style="fill: none; stroke: #888; stroke-width: 1; opacity: 1;"></line><line transform="translate(169,0)" x2="0" y2="5" style="fill: none; stroke: #888; stroke-width: 1; opacity: 1;"></line><line transform="translate(189,0)" x2="0" y2="5" style="fill: none; stroke: #888; stroke-width: 1; opacity: 1;"></line><line transform="translate(209,0)" x2="0" y2="5" style="fill: none; stroke: #888; stroke-width: 1; opacity: 1;"></line><line transform="translate(229,0)" x2="0" y2="5" style="fill: none; stroke: #888; stroke-width: 1; opacity: 1;"></line><line transform="translate(249,0)" x2="0" y2="5" style="fill: none; stroke: #888; stroke-width: 1; opacity: 1;"></line><line transform="translate(269,0)" x2="0" y2="5" style="fill: none; stroke: #888; stroke-width: 1; opacity: 1;"></line><line transform="translate(289,0)" x2="0" y2="5" style="fill: none; stroke: #888; stroke-width: 1; opacity: 1;"></line><line transform="translate(309,0)" x2="0" y2="5" style="fill: none; stroke: #888; stroke-width: 1; opacity: 1;"></line><line transform="translate(329,0)" x2="0" y2="5" style="fill: none; stroke: #888; stroke-width: 1; opacity: 1;"></line><line transform="translate(349,0)" x2="0" y2="5" style="fill: none; stroke: #888; stroke-width: 1; opacity: 1;"></line><line transform="translate(369,0)" x2="0" y2="5" style="fill: none; stroke: #888; stroke-width: 1; opacity: 1;"></line></g><g class="mark-text role-axis-label" style="pointer-events: none;"><text text-anchor="end" transform="translate(9,7) rotate(270) translate(0,3)" style="font-family: sans-serif; font-size: 10px; fill: #000; opacity: 1;">0</text><text text-anchor="end" transform="translate(29,7) rotate(270) translate(0,3)" style="font-family: sans-serif; font-size: 10px; fill: #000; opacity: 1;">5</text><text text-anchor="end" transform="translate(49,7) rotate(270) translate(0,3)" style="font-family: sans-serif; font-size: 10px; fill: #000; opacity: 1;">10</text><text text-anchor="end" transform="translate(69,7) rotate(270) translate(0,3)" style="font-family: sans-serif; font-size: 10px; fill: #000; opacity: 1;">15</text><text text-anchor="end" transform="translate(89,7) rotate(270) translate(0,3)" style="font-family: sans-serif; font-size: 10px; fill: #000; opacity: 1;">20</text><text text-anchor="end" transform="translate(109,7) rotate(270) translate(0,3)" style="font-family: sans-serif; font-size: 10px; fill: #000; opacity: 1;">25</text><text text-anchor="end" transform="translate(129,7) rotate(270) translate(0,3)" style="font-family: sans-serif; font-size: 10px; fill: #000; opacity: 1;">30</text><text text-anchor="end" transform="translate(149,7) rotate(270) translate(0,3)" style="font-family: sans-serif; font-size: 10px; fill: #000; opacity: 1;">35</text><text text-anchor="end" transform="translate(169,7) rotate(270) translate(0,3)" style="font-family: sans-serif; font-size: 10px; fill: #000; opacity: 1;">40</text><text text-anchor="end" transform="translate(189,7) rotate(270) translate(0,3)" style="font-family: sans-serif; font-size: 10px; fill: #000; opacity: 1;">45</text><text text-anchor="end" transform="translate(209,7) rotate(270) translate(0,3)" style="font-family: sans-serif; font-size: 10px; fill: #000; opacity: 1;">50</text><text text-anchor="end" transform="translate(229,7) rotate(270) translate(0,3)" style="font-family: sans-serif; font-size: 10px; fill: #000; opacity: 1;">55</text><text text-anchor="end" transform="translate(249,7) rotate(270) translate(0,3)" style="font-family: sans-serif; font-size: 10px; fill: #000; opacity: 1;">60</text><text text-anchor="end" transform="translate(269,7) rotate(270) translate(0,3)" style="font-family: sans-serif; font-size: 10px; fill: #000; opacity: 1;">65</text><text text-anchor="end" transform="translate(289,7) rotate(270) translate(0,3)" style="font-family: sans-serif; font-size: 10px; fill: #000; opacity: 1;">70</text><text text-anchor="end" transform="translate(309,7) rotate(270) translate(0,3)" style="font-family: sans-serif; font-size: 10px; fill: #000; opacity: 1;">75</text><text text-anchor="end" transform="translate(329,7) rotate(270) translate(0,3)" style="font-family: sans-serif; font-size: 10px; fill: #000; opacity: 1;">80</text><text text-anchor="end" transform="translate(349,7) rotate(270) translate(0,3)" style="font-family: sans-serif; font-size: 10px; fill: #000; opacity: 1;">85</text><text text-anchor="end" transform="translate(369,7) rotate(270) translate(0,3)" style="font-family: sans-serif; font-size: 10px; fill: #000; opacity: 1;">90</text></g><g class="mark-rule role-axis-domain" style="pointer-events: none;"><line transform="translate(0,0)" x2="380" y2="0" style="fill: none; stroke: #888; stroke-width: 1; opacity: 1;"></line></g><g class="mark-text role-axis-title" style="pointer-events: none;"><text text-anchor="middle" transform="translate(190,37)" style="font-family: sans-serif; font-size: 11px; font-weight: bold; fill: #000; opacity: 1;">age</text></g></g></g></g><g class="mark-group role-axis"><g transform="translate(0.5,0.5)"><path class="background" d="M0,0h0v0h0Z" style="pointer-events: none; fill: none;"></path><g><g class="mark-rule role-axis-tick" style="pointer-events: none;"><line transform="translate(0,185)" x2="-5" y2="0" style="fill: none; stroke: #888; stroke-width: 1; opacity: 1;"></line><line transform="translate(0,154)" x2="-5" y2="0" style="fill: none; stroke: #888; stroke-width: 1; opacity: 1;"></line><line transform="translate(0,123)" x2="-5" y2="0" style="fill: none; stroke: #888; stroke-width: 1; opacity: 1;"></line><line transform="translate(0,92)" x2="-5" y2="0" style="fill: none; stroke: #888; stroke-width: 1; opacity: 1;"></line><line transform="translate(0,62)" x2="-5" y2="0" style="fill: none; stroke: #888; stroke-width: 1; opacity: 1;"></line><line transform="translate(0,31)" x2="-5" y2="0" style="fill: none; stroke: #888; stroke-width: 1; opacity: 1;"></line><line transform="translate(0,0)" x2="-5" y2="0" style="fill: none; stroke: #888; stroke-width: 1; opacity: 1;"></line></g><g class="mark-text role-axis-label" style="pointer-events: none;"><text text-anchor="end" transform="translate(-7,187.6153846153846)" style="font-family: sans-serif; font-size: 10px; fill: #000; opacity: 1;">0</text><text text-anchor="end" transform="translate(-7,156.84615384615384)" style="font-family: sans-serif; font-size: 10px; fill: #000; opacity: 1;">2,000,000</text><text text-anchor="end" transform="translate(-7,126.07692307692307)" style="font-family: sans-serif; font-size: 10px; fill: #000; opacity: 1;">4,000,000</text><text text-anchor="end" transform="translate(-7,95.3076923076923)" style="font-family: sans-serif; font-size: 10px; fill: #000; opacity: 1;">6,000,000</text><text text-anchor="end" transform="translate(-7,64.53846153846155)" style="font-family: sans-serif; font-size: 10px; fill: #000; opacity: 1;">8,000,000</text><text text-anchor="end" transform="translate(-7,33.769230769230774)" style="font-family: sans-serif; font-size: 10px; fill: #000; opacity: 1;">10,000,000</text><text text-anchor="end" transform="translate(-7,3)" style="font-family: sans-serif; font-size: 10px; fill: #000; opacity: 1;">12,000,000</text></g><g class="mark-rule role-axis-domain" style="pointer-events: none;"><line transform="translate(0,200)" x2="0" y2="-200" style="fill: none; stroke: #888; stroke-width: 1; opacity: 1;"></line></g><g class="mark-text role-axis-title" style="pointer-events: none;"><text text-anchor="middle" transform="translate(-92,100) rotate(-90) translate(0,-2)" style="font-family: sans-serif; font-size: 11px; font-weight: bold; fill: #000; opacity: 1;">population</text></g></g></g></g></g></g></g></g></svg>