<svg class="marks" width="495" height="257" viewBox="0 0 495 257" version="1.1" xmlns="http://www.w3.org/2000/svg" xmlns:xlink="http://www.w3.org/1999/xlink"><g transform="translate(110,11)"><g class="mark-group role-frame root"><g transform="translate(0,0)"><path class="background" d="M0.5,0.5h380v200h-380Z" style="fill: none; stroke: #ddd;"></path><g><g class="mark-group role-axis"><g transform="translate(0.5,0.5)"><path class="background" d="M0,0h0v0h0Z" style="pointer-events: none; fill: none;"></path><g><g class="mark-rule role-axis-grid" style="pointer-events: none;"><line transform="translate(0,185)" x2="380" y2="0" style="fill: none; stroke: #ddd; stroke-width: 1; opacity: 1;"></line><line transform="translate(0,154)" x2="380" y2="0" style="fill: none; stroke: #ddd; stroke-width: 1; opacity: 1;"></line><line transform="translate(0,123)" x2="380" y2="0" style="fill: none; stroke: #ddd; stroke-width: 1; opacity: 1;"></line><line transform="translate(0,92)" x2="380" y2="0" style="fill: none; stroke: #ddd; stroke-width: 1; opacity: 1;"></line><line transform="translate(0,62)" x2="380" y2="0" style="fill: none; stroke: #ddd; stroke-width: 1; opacity: 1;"></line><line transform="translate(0,31)" x2="380" y2="0" style="fill: none; stroke: #ddd; stroke-width: 1; opacity: 1;"></line><line transform="translate(0,0)" x2="380" y2="0" style="fill: none; stroke: #ddd; stroke-width: 1; opacity: 1;"></line></g></g></g></g><g class="mark-rule role-mark layer_0_layer_0_marks"><line transform="translate(10,162.30190769230768)" x2="0" y2="-36.11029999999998" style="fill: none; stroke: black;"></line><line transform="translate(30,163.6974153846154)" x2="0" y2="-34.01661538461542" style="fill: none; stroke: black;"></line><line transform="translate(50,165.90593846153845)" x2="0" y2="-30.281019230769232" style="fill: none; stroke: black;"></line><line transform="translate(70,168.0441076923077)" x2="0" y2="-27.11449230769233" style="fill: none; stroke: black;"></line><line transform="translate(90,169.17167692307692)" x2="0" y2="-28.161592307692302" style="fill: none; stroke: black;"></line><line transform="translate(110,172.31566153846154)" x2="0" y2="-24.60118076923078" style="fill: none; stroke: black;"></line><line transform="translate(130,174.77483076923076)" x2="0" y2="-20.592119230769214" style="fill: none; stroke: black;"></line><line transform="translate(150,176.84596923076924)" x2="0" y2="-19.038480769230773" style="fill: none; stroke: black;"></line><line transform="translate(170,178.0279230769231)" x2="0" y2="-15.425200000000018" style="fill: none; stroke: black;"></line><line transform="translate(190,179.36532307692306)" x2="0" y2="-13.388184615384603" style="fill: none; stroke: black;"></line><line transform="translate(210,180.20646153846155)" x2="0" y2="-12.150434615384626" style="fill: none; stroke: black;"></line><line transform="translate(230,181.73526153846154)" x2="0" y2="-9.05092692307693" style="fill: none; stroke: black;"></line><line transform="translate(250,182.11944615384616)" x2="0" y2="-7.6133000000000095" style="fill: none; stroke: black;"></line><line transform="translate(270,182.9917846153846)" x2="0" y2="-5.101038461538451" style="fill: none; stroke: black;"></line><line transform="translate(290,183.51135384615384)" x2="0" y2="-3.535480769230759" style="fill: none; stroke: black;"></line><line transform="translate(310,183.99647692307693)" x2="0" y2="-2.0596230769230885" style="fill: none; stroke: black;"></line><line transform="translate(330,184.26232307692308)" x2="0" y2="-1.028880769230767" style="fill: none; stroke: black;"></line><line transform="translate(350,184.48944615384616)" x2="0" y2="-0.4036346153846182" style="fill: none; stroke: black;"></line><line transform="translate(370,184.5344769230769)" x2="0" y2="-0.1534884615384442" style="fill: none; stroke: black;"></line></g><g class="mark-rule role-mark layer_0_layer_1_marks"><line transform="translate(10,55.21159615384613)" x2="0" y2="-30.211211538461527" style="fill: none; stroke: black;"></line><line transform="translate(30,49.690019230769224)" x2="0" y2="-27.4153423076923" style="fill: none; stroke: black;"></line><line transform="translate(50,53.736984615384614)" x2="0" y2="-34.60472307692308" style="fill: none; stroke: black;"></line><line transform="translate(70,60.02355769230769)" x2="0" y2="-40.0059576923077" style="fill: none; stroke: black;"></line><line transform="translate(90,72.75535384615384)" x2="0" y2="-51.44684615384614" style="fill: none; stroke: black;"></line><line transform="translate(110,84.86448076923077)" x2="0" y2="-64.21874230769231" style="fill: none; stroke: black;"></line><line transform="translate(130,94.08855769230769)" x2="0" y2="-80.33086538461538" style="fill: none; stroke: black;"></line><line transform="translate(150,92.70303846153847)" x2="0" y2="-87.0976076923077" style="fill: none; stroke: black;"></line><line transform="translate(170,96.73937692307692)" x2="0" y2="-88.87134615384613" style="fill: none; stroke: black;"></line><line transform="translate(190,100.40868461538462)" x2="0" y2="-73.65873076923079" style="fill: none; stroke: black;"></line><line transform="translate(210,104.52392307692307)" x2="0" y2="-57.00289230769229" style="fill: none; stroke: black;"></line><line transform="translate(230,112.72457307692308)" x2="0" y2="-34.59023461538463" style="fill: none; stroke: black;"></line><line transform="translate(250,123.70473846153847)" x2="0" y2="-26.30413846153847" style="fill: none; stroke: black;"></line><line transform="translate(270,134.81268076923078)" x2="0" y2="-36.26049615384616" style="fill: none; stroke: black;"></line><line transform="translate(290,146.57591153846153)" x2="0" y2="-41.72752692307691" style="fill: none; stroke: black;"></line><line transform="translate(310,159.52545384615385)" x2="0" y2="-33.61710000000001" style="fill: none; stroke: black;"></line><line transform="translate(330,171.09455)" x2="0" y2="-18.20833846153846" style="fill: none; stroke: black;"></line><line transform="translate(350,178.75061923076925)" x2="0" y2="-8.002788461538472" style="fill: none; stroke: black;"></line><line transform="translate(370,181.94123076923077)" x2="0" y2="-3.659636538461541" style="fill: none; stroke: black;"></line></g><g class="mark-rect role-mark layer_0_layer_2_marks"><path d="M7.5,55.21159615384613h5v70.98001153846157h-5Z" style="fill: #4c78a8;"></path><path d="M27.5,49.690019230769224h5v79.99078076923075h-5Z" style="fill: #4c78a8;"></path><path d="M47.5,53.736984615384614h5v81.88793461538461h-5Z" style="fill: #4c78a8;"></path><path d="M67.5,60.02355769230769h5v80.90605769230768h-5Z" style="fill: #4c78a8;"></path><path d="M87.5,72.75535384615384h5v68.25473076923078h-5Z" style="fill: #4c78a8;"></path><path d="M107.5,84.86448076923077h5v62.849999999999994h-5Z" style="fill: #4c78a8;"></path><path d="M127.5,94.08855769230769h5v60.09415384615386h-5Z" style="fill: #4c78a8;"></path><path d="M147.5,92.70303846153847h5v65.10445h-5Z" style="fill: #4c78a8;"></path><path d="M167.5,96.73937692307692h5v65.86334615384615h-5Z" style="fill: #4c78a8;"></path><path d="M187.5,100.40868461538462h5v65.56845384615384h-5Z" style="fill: #4c78a8;"></path><path d="M207.5,104.52392307692307h5v63.53210384615386h-5Z" style="fill: #4c78a8;"></path><path d="M227.5,112.72457307692308h5v59.959761538461535h-5Z" style="fill: #4c78a8;"></path><path d="M247.5,123.70473846153847h5v50.80140769230768h-5Z" style="fill: #4c78a8;"></path><path d="M267.5,134.81268076923078h5v43.07806538461537h-5Z" style="fill: #4c78a8;"></path><path d="M287.5,146.57591153846153h5v33.399961538461554h-5Z" style="fill: #4c78a8;"></path><path d="M307.5,159.52545384615385h5v22.411399999999986h-5Z" style="fill: #4c78a8;"></path><path d="M327.5,171.09455h5v12.138892307692316h-5Z" style="fill: #4c78a8;"></path><path d="M347.5,178.75061923076925h5v5.335192307692296h-5Z" style="fill: #4c78a8;"></path><path d="M367.5,181.94123076923077h5v2.439757692307694h-5Z" style="fill: #4c78a8;"></path></g><g class="mark-rect role-mark layer_0_layer_3_marks"><path d="M7.5,96.75558461538462h5v1h-5Z" style="fill: white; opacity: 0.7;"></path><path d="M27.5,95.78486153846154h5v1h-5Z" style="fill: white; opacity: 0.7;"></path><path d="M47.5,99.0340076923077h5v1h-5Z" style="fill: white; opacity: 0.7;"></path><path d="M67.5,102.93945384615385h5v1h-5Z" style="fill: white; opacity: 0.7;"></path><path d="M87.5,102.77403076923078h5v1h-5Z" style="fill: white; opacity: 0.7;"></path><path d="M107.5,107.34552307692307h5v1h-5Z" style="fill: white; opacity: 0.7;"></path><path d="M127.5,115.81060769230768h5v1h-5Z" style="fill: white; opacity: 0.7;"></path><path d="M147.5,113.57456153846154h5v1h-5Z" style="fill: white; opacity: 0.7;"></path><path d="M167.5,123.89106923076923h5v1h-5Z" style="fill: white; opacity: 0.7;"></path><path d="M187.5,130.04069230769232h5v1h-5Z" style="fill: white; opacity: 0.7;"></path><path d="M207.5,138.44385384615384h5v1h-5Z" style="fill: white; opacity: 0.7;"></path><path d="M227.5,147.71006923076922h5v1h-5Z" style="fill: white; opacity: 0.7;"></path><path d="M247.5,155.56862307692307h5v1h-5Z" style="fill: white; opacity: 0.7;"></path><path d="M267.5,163.31086923076924h5v1h-5Z" style="fill: white; opacity: 0.7;"></path><path d="M287.5,169.98035384615383h5v1h-5Z" style="fill: white; opacity: 0.7;"></path><path d="M307.5,175.96853076923077h5v1h-5Z" style="fill: white; opacity: 0.7;"></path><path d="M327.5,180.03625384615384h5v1h-5Z" style="fill: white; opacity: 0.7;"></path><path d="M347.5,182.56123846153847h5v1h-5Z" style="fill: white; opacity: 0.7;"></path><path d="M367.5,183.54347692307692h5v1h-5Z" style="fill: white; opacity: 0.7;"></path></g><g class="mark-symbol role-mark layer_1_marks"><path transform="translate(350,168.87515384615384)" d="M2.7386127875258306,0A2.7386127875258306,2.7386127875258306,0,1,1,-2.7386127875258306,0A2.7386127875258306,2.7386127875258306,0,1,1,2.7386127875258306,0" style="fill: none; stroke: #4c78a8; stroke-width: 2; opacity: 0.7;"></path><path transform="translate(370,176.93775384615384)" d="M2.7386127875258306,0A2.7386127875258306,2.7386127875258306,0,1,1,-2.7386127875258306,0A2.7386127875258306,2.7386127875258306,0,1,1,2.7386127875258306,0" style="fill: none; stroke: #4c78a8; stroke-width: 2; opacity: 0.7;"></path><path transform="translate(330,145.4503076923077)" d="M2.7386127875258306,0A2.7386127875258306,2.7386127875258306,0,1,1,-2.7386127875258306,0A2.7386127875258306,2.7386127875258306,0,1,1,2.7386127875258306,0" style="fill: none; stroke: #4c78a8; stroke-width: 2; opacity: 0.7;"></path><path transform="translate(350,162.7770153846154)" d="M2.7386127875258306,0A2.7386127875258306,2.7386127875258306,0,1,1,-2.7386127875258306,0A2.7386127875258306,2.7386127875258306,0,1,1,2.7386127875258306,0" style="fill: none; stroke: #4c78a8; stroke-width: 2; opacity: 0.7;"></path><path transform="translate(370,173.1516)" d="M2.7386127875258306,0A2.7386127875258306,2.7386127875258306,0,1,1,-2.7386127875258306,0A2.7386127875258306,2.7386127875258306,0,1,1,2.7386127875258306,0" style="fill: none; stroke: #4c78a8; stroke-width: 2; opacity: 0.7;"></path><path transform="translate(310,117.60547692307692)" d="M2.7386127875258306,0A2.7386127875258306,2.7386127875258306,0,1,1,-2.7386127875258306,0A2.7386127875258306,2.7386127875258306,0,1,1,2.7386127875258306,0" style="fill: none; stroke: #4c78a8; stroke-width: 2; opacity: 0.7;"></path><path transform="translate(330,135.0477230769231)" d="M2.7386127875258306,0A2.7386127875258306,2.7386127875258306,0,1,1,-2.7386127875258306,0A2.7386127875258306,2.7386127875258306,0,1,1,2.7386127875258306,0" style="fill: none; stroke: #4c78a8; stroke-width: 2; opacity: 0.7;"></path><path transform="translate(350,169.6868153846154)" d="M2.7386127875258306,0A2.7386127875258306,2.7386127875258306,0,1,1,-2.7386127875258306,0A2.7386127875258306,2.7386127875258306,0,1,1,2.7386127875258306,0" style="fill: none; stroke: #4c78a8; stroke-width: 2; opacity: 0.7;"></path><path transform="translate(350,154.13606153846155)" d="M2.7386127875258306,0A2.7386127875258306,2.7386127875258306,0,1,1,-2.7386127875258306,0A2.7386127875258306,2.7386127875258306,0,1,1,2.7386127875258306,0" style="fill: none; stroke: #4c78a8; stroke-width: 2; opacity: 0.7;"></path><path transform="translate(370,168.23721538461538)" d="M2.7386127875258306,0A2.7386127875258306,2.7386127875258306,0,1,1,-2.7386127875258306,0A2.7386127875258306,2.7386127875258306,0,1,1,2.7386127875258306,0" style="fill: none; stroke: #4c78a8; stroke-width: 2; opacity: 0.7;"></path></g><g class="mark-group role-axis"><g transform="translate(0.5,200.5)"><path class="background" d="M0,0h0v0h0Z" style="pointer-events: none; fill: none;"></path><g><g class="mark-rule role-axis-tick" style="pointer-events: none;"><line transform="translate(9,0)" x2="0" y2="5" style="fill: none; stroke: #888; stroke-width: 1; opacity: 1;"></line><line transform="translate(29,0)" x2="0" y2="5" style="fill: none; stroke: #888; stroke-width: 1; opacity: 1;"></line><line transform="translate(49,0)" x2="0" y2="5" style="fill: none; stroke: #888; stroke-width: 1; opacity: 1;"></line><line transform="translate(69,0)" x2="0" y2="5" style="fill: none; stroke: #888; stroke-width: 1; opacity: 1;"></line><line transform="translate(89,0)" x2="0" y2="5" style="fill: none; stroke: #888; stroke-width: 1; opacity: 1;"></line><line transform="translate(109,0)" x2="0" y2="5" style="fill: none; stroke: #888; stroke-width: 1; opacity: 1;"></line><line transform="translate(129,0)" x2="0" y2="5" style="fill: none; stroke: #888; stroke-width: 1; opacity: 1;"></line><line transform="translate(149,0)" x2="0" y2="5" style="fill: none; stroke: #888; stroke-width: 1; opacity: 1;"></line><line transform="translate(169,0)" x2="0" y2="5" style="fill: none; stroke: #888; stroke-width: 1; opacity: 1;"></line><line transform="translate(189,0)" x2="0" y2="5" style="fill: none; stroke: #888; stroke-width: 1; opacity: 1;"></line><line transform="translate(209,0)" x2="0" y2="5" style="fill: none; stroke: #888; stroke-width: 1; opacity: 1;"></line><line transform="translate(229,0)" x2="0" y2="5" style="fill: none; stroke: #888; stroke-width: 1; opacity: 1;"></line><line transform="translate(249,0)" x2="0" y2="5" style="fill: none; stroke: #888; stroke-width: 1; opacity: 1;"></line><line transform="translate(269,0)" x2="0" y2="5" style="fill: none; stroke: #888; stroke-width: 1; opacity: 1;"></line><line transform="translate(289,0)" x2="0" y2="5" style="fill: none; stroke: #888; stroke-width: 1; opacity: 1;"></line><line transform="translate(309,0)" x2="0" y2="5" style="fill: none; stroke: #888; stroke-width: 1; opacity: 1;"></line><line transform="translate(329,0)" x2="0" y2="5" style="fill: none; stroke: #888; stroke-width: 1; opacity: 1;"></line><line transform="translate(349,0)" x2="0" y2="5" style="fill: none; stroke: #888; stroke-width: 1; opacity: 1;"></line><line transform="translate(369,0)" x2="0" y2="5" style="fill: none; stroke: #888; stroke-width: 1; opacity: 1;"></line></g><g class="mark-text role-axis-label" style="pointer-events: none;"><text text-anchor="end" transform="translate(9,7) rotate(270) translate(0,3)" style="font-family: sans-serif; font-size: 10px; fill: #000; opacity: 1;">0</text><text text-anchor="end" transform="translate(29,7) rotate(270) translate(0,3)" style="font-family: sans-serif; font-size: 10px; fill: #000; opacity: 1;">5</text><text text-anchor="end" transform="translate(49,7) rotate(270) translate(0,3)" style="font-family: sans-serif; font-size: 10px; fill: #000; opacity: 1;">10</text><text text-anchor="end" transform="translate(69,7) rotate(270) translate(0,3)" style="font-family: sans-serif; font-size: 10px; fill: #000; opacity: 1;">15</text><text text-anchor="end" transform="translate(89,7) rotate(270) translate(0,3)" style="font-family: sans-serif; font-size: 10px; fill: #000; opacity: 1;">20</text><text text-anchor="end" transform="translate(109,7) rotate(270) translate(0,3)" style="font-family: sans-serif; font-size: 10px; fill: #000; opacity: 1;">25</text><text text-anchor="end" transform="translate(129,7) rotate(270) translate(0,3)" style="font-family: sans-serif; font-size: 10px; fill: #000; opacity: 1;">30</text><text text-anchor="end" transform="translate(149,7) rotate(270) translate(0,3)" style="font-family: sans-serif; font-size: 10px; fill: #000; opacity: 1;">35</text><text text-anchor="end" transform="translate(169,7) rotate(270) translate(0,3)" style="font-family: sans-serif; font-size: 10px; fill: #000; opacity: 1;">40</text><text text-anchor="end" transform="translate(189,7) rotate(270) translate(0,3)" style="font-family: sans-serif; font-size: 10px; fill: #000; opacity: 1;">45</text><text text-anchor="end" transform="translate(209,7) rotate(270) translate(0,3)" style="font-family: sans-serif; font-size: 10px; fill: #000; opacity: 1;">50</text><text text-anchor="end" transform="translate(229,7) rotate(270) translate(0,3)" style="font-family: sans-serif; font-size: 10px; fill: #000; opacity: 1;">55</text><text text-anchor="end" transform="translate(249,7) rotate(270) translate(0,3)" style="font-family: sans-serif; font-size: 10px; fill: #000; opacity: 1;">60</text><text text-anchor="end" transform="translate(269,7) rotate(270) translate(0,3)" style="font-family: sans-serif; font-size: 10px; fill: #000; opacity: 1;">65</text><text text-anchor="end" transform="translate(289,7) rotate(270) translate(0,3)" style="font-family: sans-serif; font-size: 10px; fill: #000; opacity: 1;">70</text><text text-anchor="end" transform="translate(309,7) rotate(270) translate(0,3)" style="font-family: sans-serif; font-size: 10px; fill: #000; opacity: 1;">75</text><text text-anchor="end" transform="translate(329,7) rotate(270) translate(0,3)" style="font-family: sans-serif; font-size: 10px; fill: #000; opacity: 1;">80</text><text text-anchor="end" transform="translate(349,7) rotate(270) translate(0,3)" style="font-family: sans-serif; font-size: 10px; fill: #000; opacity: 1;">85</text><text text-anchor="end" transform="translate(369,7) rotate(270) translate(0,3)" style="font-family: sans-serif; font-size: 10px; fill: #000; opacity: 1;">90</text></g><g class="mark-rule role-axis-domain" style="pointer-events: none;"><line transform="translate(0,0)" x2="380" y2="0" style="fill: none; stroke: #888; stroke-width: 1; opacity: 1;"></line></g><g class="mark-text role-axis-title" style="pointer-events: none;"><text text-anchor="middle" transform="translate(190,37)" style="font-family: sans-serif; font-size: 11px; font-weight: bold; fill: #000; opacity: 1;">age</text></g></g></g></g><g class="mark-group role-axis"><g transform="translate(0.5,0.5)"><path class="background" d="M0,0h0v0h0Z" style="pointer-events: none; fill: none;"></path><g><g class="mark-rule role-axis-tick" style="pointer-events: none;"><line transform="translate(0,185)" x2="-5" y2="0" style="fill: none; stroke: #888; stroke-width: 1; opacity: 1;"></line><line transform="translate(0,154)" x2="-5" y2="0" style="fill: none; stroke: #888; stroke-width: 1; opacity: 1;"></line><line transform="translate(0,123)" x2="-5" y2="0" style="fill: none; stroke: #888; stroke-width: 1; opacity: 1;"></line><line transform="translate(0,92)" x2="-5" y2="0" style="fill: none; stroke: #888; stroke-width: 1; opacity: 1;"></line><line transform="translate(0,62)" x2="-5" y2="0" style="fill: none; stroke: #888; stroke-width: 1; opacity: 1;"></line><line transform="translate(0,31)" x2="-5" y2="0" style="fill: none; stroke: #888; stroke-width: 1; opacity: 1;"></line><line transform="translate(0,0)" x2="-5" y2="0" style="fill: none; stroke: #888; stroke-width: 1; opacity: 1;"></line></g><g class="mark-text role-axis-label" style="pointer-events: none;"><text text-anchor="end" transform="translate(-7,187.6153846153846)" style="font-family: sans-serif; font-size: 10px; fill: #000; opacity: 1;">0</text><text text-anchor="end" transform="translate(-7,156.84615384615384)" style="font-family: sans-serif; font-size: 10px; fill: #000; opacity: 1;">2,000,000</text><text text-anchor="end" transform="translate(-7,126.07692307692307)" style="font-family: sans-serif; font-size: 10px; fill: #000; opacity: 1;">4,000,000</text><text text-anchor="end" transform="translate(-7,95.3076923076923)" style="font-family: sans-serif; font-size: 10px; fill: #000; opacity: 1;">6,000,000</text><text text-anchor="end" transform="translate(-7,64.53846153846155)" style="font-family: sans-serif; font-size: 10px; fill: #000; opacity: 1;">8,000,000</text><text text-anchor="end" transform="translate(-7,33.769230769230774)" style="font-family: sans-serif; font-size: 10px; fill: #000; opacity: 1;">10,000,000</text><text text-anchor="end" transform="translate(-7,3)" style="font-family: sans-serif; font-size: 10px; fill: #000; opacity: 1;">12,000,000</text></g><g class="mark-rule role-axis-domain" style="pointer-events: none;"><line transform="translate(0,200)" x2="0" y2="-200" style="fill: none; stroke: #888; stroke-width: 1; opacity: 1;"></line></g><g class="mark-text role-axis-title" style="pointer-events: none;"><text text-anchor="middle" transform="translate(-92,100) rotate(-90) translate(0,-2)" style="font-family: sans-serif; font-size: 11px; font-weight: bold; fill: #000; opacity: 1;">population</text></g></g></g></g></g></g></g></g></svg>