<svg class="marks" width="419" height="284" viewBox="0 0 419 284" version="1.1" xmlns="http://www.w3.org/2000/svg" xmlns:xlink="http://www.w3.org/1999/xlink"><g transform="translate(55,42)"><g class="mark-group role-frame root"><g transform="translate(0,0)"><path class="background" d="M0.5,0.5h200v200h-200Z" style="fill: none; stroke: #ddd;"></path><g><g class="mark-symbol role-mark marks"><path transform="translate(123.52941176470588,200)" d="M7.656266783010606,0A7.656266783010606,7.656266783010606,0,1,1,-7.656266783010606,0A7.656266783010606,7.656266783010606,0,1,1,7.656266783010606,0" style="fill: none; stroke-width: 2;"></path><path transform="translate(135.29411764705884,200)" d="M7.862301792330552,0A7.862301792330552,7.862301792330552,0,1,1,-7.862301792330552,0A7.862301792330552,7.862301792330552,0,1,1,7.862301792330552,0" style="fill: none; stroke-width: 2;"></path><path transform="translate(-23.52941176470588,175)" d="M1.6323215627475263,0A1.6323215627475263,1.6323215627475263,0,1,1,-1.6323215627475263,0A1.6323215627475263,1.6323215627475263,0,1,1,1.6323215627475263,0" style="fill: none; stroke-width: 2;"></path><path transform="translate(52.94117647058824,75)" d="M0.7299963950884314,0A0.7299963950884314,0.7299963950884314,0,1,1,-0.7299963950884314,0A0.7299963950884314,0.7299963950884314,0,1,1,0.7299963950884314,0" style="fill: #4c78a8; stroke-width: 2;"></path><path transform="translate(-23.52941176470588,200)" d="M9,0A9,9,0,1,1,-9,0A9,9,0,1,1,9,0" style="fill: none; stroke-width: 2;"></path><path transform="translate(158.8235294117647,200)" d="M6.1942248145051675,0A6.1942248145051675,6.1942248145051675,0,1,1,-6.1942248145051675,0A6.1942248145051675,6.1942248145051675,0,1,1,6.1942248145051675,0" style="fill: none; stroke-width: 2;"></path><path transform="translate(64.70588235294117,200)" d="M3.4239865961370697,0A3.4239865961370697,3.4239865961370697,0,1,1,-3.4239865961370697,0A3.4239865961370697,3.4239865961370697,0,1,1,3.4239865961370697,0" style="fill: none; stroke-width: 2;"></path><path transform="translate(111.76470588235294,145)" d="M3.931150896165276,0A3.931150896165276,3.931150896165276,0,1,1,-3.931150896165276,0A3.931150896165276,3.931150896165276,0,1,1,3.931150896165276,0" style="fill: #4c78a8; stroke-width: 2;"></path><path transform="translate(147.05882352941177,25)" d="M4.5,0A4.5,4.5,0,1,1,-4.5,0A4.5,4.5,0,1,1,4.5,0" style="fill: #4c78a8; stroke-width: 2;"></path><path transform="translate(147.05882352941177,35)" d="M5.16185401208764,0A5.16185401208764,5.16185401208764,0,1,1,-5.16185401208764,0A5.16185401208764,5.16185401208764,0,1,1,5.16185401208764,0" style="fill: #4c78a8; stroke-width: 2;"></path><path transform="translate(158.8235294117647,35)" d="M4.19351002333242,0A4.19351002333242,4.19351002333242,0,1,1,-4.19351002333242,0A4.19351002333242,4.19351002333242,0,1,1,4.19351002333242,0" style="fill: #4c78a8; stroke-width: 2;"></path><path transform="translate(170.58823529411765,5)" d="M5.462792808001955,0A5.462792808001955,5.462792808001955,0,1,1,-5.462792808001955,0A5.462792808001955,5.462792808001955,0,1,1,5.462792808001955,0" style="fill: #4c78a8; stroke-width: 2;"></path><path transform="translate(135.29411764705884,25)" d="M3.345263737537627,0A3.345263737537627,3.345263737537627,0,1,1,-3.345263737537627,0A3.345263737537627,3.345263737537627,0,1,1,3.345263737537627,0" style="fill: #4c78a8; stroke-width: 2;"></path><path transform="translate(147.05882352941177,200)" d="M7.996709849747747,0A7.996709849747747,7.996709849747747,0,1,1,-7.996709849747747,0A7.996709849747747,7.996709849747747,0,1,1,7.996709849747747,0" style="fill: none; stroke-width: 2;"></path><path transform="translate(41.17647058823529,15)" d="M1.2643908456352868,0A1.2643908456352868,1.2643908456352868,0,1,1,-1.2643908456352868,0A1.2643908456352868,1.2643908456352868,0,1,1,1.2643908456352868,0" style="fill: #4c78a8; stroke-width: 2;"></path><path transform="translate(182.35294117647058,200)" d="M2.9199855803537256,0A2.9199855803537256,2.9199855803537256,0,1,1,-2.9199855803537256,0A2.9199855803537256,2.9199855803537256,0,1,1,2.9199855803537256,0" style="fill: none; stroke-width: 2;"></path><path transform="translate(170.58823529411765,200)" d="M3.649981975442157,0A3.649981975442157,3.649981975442157,0,1,1,-3.649981975442157,0A3.649981975442157,3.649981975442157,0,1,1,3.649981975442157,0" style="fill: none; stroke-width: 2;"></path><path transform="translate(147.05882352941177,85.00000000000001)" d="M2.6320394333952084,0A2.6320394333952084,2.6320394333952084,0,1,1,-2.6320394333952084,0A2.6320394333952084,2.6320394333952084,0,1,1,2.6320394333952084,0" style="fill: #4c78a8; stroke-width: 2;"></path><path transform="translate(111.76470588235294,135)" d="M4.19351002333242,0A4.19351002333242,4.19351002333242,0,1,1,-4.19351002333242,0A4.19351002333242,4.19351002333242,0,1,1,4.19351002333242,0" style="fill: #4c78a8; stroke-width: 2;"></path><path transform="translate(-23.52941176470588,15)" d="M1.788118682037809,0A1.788118682037809,1.788118682037809,0,1,1,-1.788118682037809,0A1.788118682037809,1.788118682037809,0,1,1,1.788118682037809,0" style="fill: none; stroke-width: 2;"></path><path transform="translate(147.05882352941177,45)" d="M4.674257610629341,0A4.674257610629341,4.674257610629341,0,1,1,-4.674257610629341,0A4.674257610629341,4.674257610629341,0,1,1,4.674257610629341,0" style="fill: #4c78a8; stroke-width: 2;"></path><path transform="translate(111.76470588235294,200)" d="M7.077577640913443,0A7.077577640913443,7.077577640913443,0,1,1,-7.077577640913443,0A7.077577640913443,7.077577640913443,0,1,1,7.077577640913443,0" style="fill: none; stroke-width: 2;"></path><path transform="translate(52.94117647058824,165)" d="M1.9313889193776423,0A1.9313889193776423,1.9313889193776423,0,1,1,-1.9313889193776423,0A1.9313889193776423,1.9313889193776423,0,1,1,1.9313889193776423,0" style="fill: #4c78a8; stroke-width: 2;"></path><path transform="translate(158.8235294117647,5)" d="M4.616902584383193,0A4.616902584383193,4.616902584383193,0,1,1,-4.616902584383193,0A4.616902584383193,4.616902584383193,0,1,1,4.616902584383193,0" style="fill: #4c78a8; stroke-width: 2;"></path><path transform="translate(123.52941176470588,175)" d="M2.064741604835056,0A2.064741604835056,2.064741604835056,0,1,1,-2.064741604835056,0A2.064741604835056,2.064741604835056,0,1,1,2.064741604835056,0" style="fill: #4c78a8; stroke-width: 2;"></path><path transform="translate(147.05882352941177,55)" d="M3.7931725369058604,0A3.7931725369058604,3.7931725369058604,0,1,1,-3.7931725369058604,0A3.7931725369058604,3.7931725369058604,0,1,1,3.7931725369058604,0" style="fill: #4c78a8; stroke-width: 2;"></path><path transform="translate(147.05882352941177,5)" d="M3.009852243269724,0A3.009852243269724,3.009852243269724,0,1,1,-3.009852243269724,0A3.009852243269724,3.009852243269724,0,1,1,3.009852243269724,0" style="fill: #4c78a8; stroke-width: 2;"></path><path transform="translate(135.29411764705884,85.00000000000001)" d="M4.256573863171128,0A4.256573863171128,4.256573863171128,0,1,1,-4.256573863171128,0A4.256573863171128,4.256573863171128,0,1,1,4.256573863171128,0" style="fill: #4c78a8; stroke-width: 2;"></path><path transform="translate(100,200)" d="M5.16185401208764,0A5.16185401208764,5.16185401208764,0,1,1,-5.16185401208764,0A5.16185401208764,5.16185401208764,0,1,1,5.16185401208764,0" style="fill: none; stroke-width: 2;"></path><path transform="translate(88.23529411764706,200)" d="M4.951076437981627,0A4.951076437981627,4.951076437981627,0,1,1,-4.951076437981627,0A4.951076437981627,4.951076437981627,0,1,1,4.951076437981627,0" style="fill: none; stroke-width: 2;"></path><path transform="translate(158.8235294117647,25)" d="M4.951076437981627,0A4.951076437981627,4.951076437981627,0,1,1,-4.951076437981627,0A4.951076437981627,4.951076437981627,0,1,1,4.951076437981627,0" style="fill: #4c78a8; stroke-width: 2;"></path><path transform="translate(88.23529411764706,175)" d="M3.7931725369058604,0A3.7931725369058604,3.7931725369058604,0,1,1,-3.7931725369058604,0A3.7931725369058604,3.7931725369058604,0,1,1,3.7931725369058604,0" style="fill: #4c78a8; stroke-width: 2;"></path><path transform="translate(135.29411764705884,105)" d="M4.129483209670112,0A4.129483209670112,4.129483209670112,0,1,1,-4.129483209670112,0A4.129483209670112,4.129483209670112,0,1,1,4.129483209670112,0" style="fill: #4c78a8; stroke-width: 2;"></path><path transform="translate(-23.52941176470588,135)" d="M1.6323215627475263,0A1.6323215627475263,1.6323215627475263,0,1,1,-1.6323215627475263,0A1.6323215627475263,1.6323215627475263,0,1,1,1.6323215627475263,0" style="fill: none; stroke-width: 2;"></path><path transform="translate(135.29411764705884,155)" d="M2.064741604835056,0A2.064741604835056,2.064741604835056,0,1,1,-2.064741604835056,0A2.064741604835056,2.064741604835056,0,1,1,2.064741604835056,0" style="fill: #4c78a8; stroke-width: 2;"></path><path transform="translate(111.76470588235294,95)" d="M3.345263737537627,0A3.345263737537627,3.345263737537627,0,1,1,-3.345263737537627,0A3.345263737537627,3.345263737537627,0,1,1,3.345263737537627,0" style="fill: #4c78a8; stroke-width: 2;"></path><path transform="translate(52.94117647058824,55)" d="M0.7299963950884314,0A0.7299963950884314,0.7299963950884314,0,1,1,-0.7299963950884314,0A0.7299963950884314,0.7299963950884314,0,1,1,0.7299963950884314,0" style="fill: #4c78a8; stroke-width: 2;"></path><path transform="translate(135.29411764705884,15)" d="M2.064741604835056,0A2.064741604835056,2.064741604835056,0,1,1,-2.064741604835056,0A2.064741604835056,2.064741604835056,0,1,1,2.064741604835056,0" style="fill: #4c78a8; stroke-width: 2;"></path><path transform="translate(111.76470588235294,75)" d="M2.5287816912705736,0A2.5287816912705736,2.5287816912705736,0,1,1,-2.5287816912705736,0A2.5287816912705736,2.5287816912705736,0,1,1,2.5287816912705736,0" style="fill: #4c78a8; stroke-width: 2;"></path><path transform="translate(170.58823529411765,15)" d="M4.129483209670112,0A4.129483209670112,4.129483209670112,0,1,1,-4.129483209670112,0A4.129483209670112,4.129483209670112,0,1,1,4.129483209670112,0" style="fill: #4c78a8; stroke-width: 2;"></path><path transform="translate(182.35294117647058,5)" d="M2.6320394333952084,0A2.6320394333952084,2.6320394333952084,0,1,1,-2.6320394333952084,0A2.6320394333952084,2.6320394333952084,0,1,1,2.6320394333952084,0" style="fill: #4c78a8; stroke-width: 2;"></path><path transform="translate(123.52941176470588,25)" d="M1.9313889193776423,0A1.9313889193776423,1.9313889193776423,0,1,1,-1.9313889193776423,0A1.9313889193776423,1.9313889193776423,0,1,1,1.9313889193776423,0" style="fill: #4c78a8; stroke-width: 2;"></path><path transform="translate(76.47058823529412,165)" d="M2.064741604835056,0A2.064741604835056,2.064741604835056,0,1,1,-2.064741604835056,0A2.064741604835056,2.064741604835056,0,1,1,2.064741604835056,0" style="fill: #4c78a8; stroke-width: 2;"></path><path transform="translate(111.76470588235294,55)" d="M1.2643908456352868,0A1.2643908456352868,1.2643908456352868,0,1,1,-1.2643908456352868,0A1.2643908456352868,1.2643908456352868,0,1,1,1.2643908456352868,0" style="fill: #4c78a8; stroke-width: 2;"></path><path transform="translate(100,155)" d="M3.7222658634083,0A3.7222658634083,3.7222658634083,0,1,1,-3.7222658634083,0A3.7222658634083,3.7222658634083,0,1,1,3.7222658634083,0" style="fill: #4c78a8; stroke-width: 2;"></path><path transform="translate(135.29411764705884,65)" d="M4.19351002333242,0A4.19351002333242,4.19351002333242,0,1,1,-4.19351002333242,0A4.19351002333242,4.19351002333242,0,1,1,4.19351002333242,0" style="fill: #4c78a8; stroke-width: 2;"></path><path transform="translate(158.8235294117647,75)" d="M2.4211241408203668,0A2.4211241408203668,2.4211241408203668,0,1,1,-2.4211241408203668,0A2.4211241408203668,2.4211241408203668,0,1,1,2.4211241408203668,0" style="fill: #4c78a8; stroke-width: 2;"></path><path transform="translate(135.29411764705884,125)" d="M3.181980515339464,0A3.181980515339464,3.181980515339464,0,1,1,-3.181980515339464,0A3.181980515339464,3.181980515339464,0,1,1,3.181980515339464,0" style="fill: #4c78a8; stroke-width: 2;"></path><path transform="translate(123.52941176470588,35)" d="M2.7313964040009777,0A2.7313964040009777,2.7313964040009777,0,1,1,-2.7313964040009777,0A2.7313964040009777,2.7313964040009777,0,1,1,2.7313964040009777,0" style="fill: #4c78a8; stroke-width: 2;"></path><path transform="translate(111.76470588235294,35)" d="M1.6323215627475263,0A1.6323215627475263,1.6323215627475263,0,1,1,-1.6323215627475263,0A1.6323215627475263,1.6323215627475263,0,1,1,1.6323215627475263,0" style="fill: #4c78a8; stroke-width: 2;"></path><path transform="translate(52.94117647058824,15)" d="M0.7299963950884314,0A0.7299963950884314,0.7299963950884314,0,1,1,-0.7299963950884314,0A0.7299963950884314,0.7299963950884314,0,1,1,0.7299963950884314,0" style="fill: #4c78a8; stroke-width: 2;"></path><path transform="translate(52.94117647058824,155)" d="M1.2643908456352868,0A1.2643908456352868,1.2643908456352868,0,1,1,-1.2643908456352868,0A1.2643908456352868,1.2643908456352868,0,1,1,1.2643908456352868,0" style="fill: #4c78a8; stroke-width: 2;"></path><path transform="translate(100,125)" d="M3.4239865961370697,0A3.4239865961370697,3.4239865961370697,0,1,1,-3.4239865961370697,0A3.4239865961370697,3.4239865961370697,0,1,1,3.4239865961370697,0" style="fill: #4c78a8; stroke-width: 2;"></path><path transform="translate(88.23529411764706,115)" d="M1.788118682037809,0A1.788118682037809,1.788118682037809,0,1,1,-1.788118682037809,0A1.788118682037809,1.788118682037809,0,1,1,1.788118682037809,0" style="fill: #4c78a8; stroke-width: 2;"></path><path transform="translate(123.52941176470588,105)" d="M3.9983549248738735,0A3.9983549248738735,3.9983549248738735,0,1,1,-3.9983549248738735,0A3.9983549248738735,3.9983549248738735,0,1,1,3.9983549248738735,0" style="fill: #4c78a8; stroke-width: 2;"></path><path transform="translate(100,175)" d="M3.649981975442157,0A3.649981975442157,3.649981975442157,0,1,1,-3.649981975442157,0A3.649981975442157,3.649981975442157,0,1,1,3.649981975442157,0" style="fill: #4c78a8; stroke-width: 2;"></path><path transform="translate(111.76470588235294,115)" d="M3.931150896165276,0A3.931150896165276,3.931150896165276,0,1,1,-3.931150896165276,0A3.931150896165276,3.931150896165276,0,1,1,3.931150896165276,0" style="fill: #4c78a8; stroke-width: 2;"></path><path transform="translate(76.47058823529412,200)" d="M3.7222658634083,0A3.7222658634083,3.7222658634083,0,1,1,-3.7222658634083,0A3.7222658634083,3.7222658634083,0,1,1,3.7222658634083,0" style="fill: none; stroke-width: 2;"></path><path transform="translate(135.29411764705884,75)" d="M4.5,0A4.5,4.5,0,1,1,-4.5,0A4.5,4.5,0,1,1,4.5,0" style="fill: #4c78a8; stroke-width: 2;"></path><path transform="translate(123.52941176470588,115)" d="M4.19351002333242,0A4.19351002333242,4.19351002333242,0,1,1,-4.19351002333242,0A4.19351002333242,4.19351002333242,0,1,1,4.19351002333242,0" style="fill: #4c78a8; stroke-width: 2;"></path><path transform="translate(111.76470588235294,85.00000000000001)" d="M2.4211241408203668,0A2.4211241408203668,2.4211241408203668,0,1,1,-2.4211241408203668,0A2.4211241408203668,2.4211241408203668,0,1,1,2.4211241408203668,0" style="fill: #4c78a8; stroke-width: 2;"></path><path transform="translate(147.05882352941177,15)" d="M3.8627778387552847,0A3.8627778387552847,3.8627778387552847,0,1,1,-3.8627778387552847,0A3.8627778387552847,3.8627778387552847,0,1,1,3.8627778387552847,0" style="fill: #4c78a8; stroke-width: 2;"></path><path transform="translate(158.8235294117647,55)" d="M2.3084512921915965,0A2.3084512921915965,2.3084512921915965,0,1,1,-2.3084512921915965,0A2.3084512921915965,2.3084512921915965,0,1,1,2.3084512921915965,0" style="fill: #4c78a8; stroke-width: 2;"></path><path transform="translate(111.76470588235294,125)" d="M3.576237364075618,0A3.576237364075618,3.576237364075618,0,1,1,-3.576237364075618,0A3.576237364075618,3.576237364075618,0,1,1,3.576237364075618,0" style="fill: #4c78a8; stroke-width: 2;"></path><path transform="translate(76.47058823529412,85.00000000000001)" d="M1.032370802417528,0A1.032370802417528,1.032370802417528,0,1,1,-1.032370802417528,0A1.032370802417528,1.032370802417528,0,1,1,1.032370802417528,0" style="fill: #4c78a8; stroke-width: 2;"></path><path transform="translate(123.52941176470588,15)" d="M1.9313889193776423,0A1.9313889193776423,1.9313889193776423,0,1,1,-1.9313889193776423,0A1.9313889193776423,1.9313889193776423,0,1,1,1.9313889193776423,0" style="fill: #4c78a8; stroke-width: 2;"></path><path transform="translate(123.52941176470588,75)" d="M4.616902584383193,0A4.616902584383193,4.616902584383193,0,1,1,-4.616902584383193,0A4.616902584383193,4.616902584383193,0,1,1,4.616902584383193,0" style="fill: #4c78a8; stroke-width: 2;"></path><path transform="translate(170.58823529411765,45)" d="M2.3084512921915965,0A2.3084512921915965,2.3084512921915965,0,1,1,-2.3084512921915965,0A2.3084512921915965,2.3084512921915965,0,1,1,2.3084512921915965,0" style="fill: #4c78a8; stroke-width: 2;"></path><path transform="translate(135.29411764705884,35)" d="M4.379978370530588,0A4.379978370530588,4.379978370530588,0,1,1,-4.379978370530588,0A4.379978370530588,4.379978370530588,0,1,1,4.379978370530588,0" style="fill: #4c78a8; stroke-width: 2;"></path><path transform="translate(147.05882352941177,65)" d="M3.9983549248738735,0A3.9983549248738735,3.9983549248738735,0,1,1,-3.9983549248738735,0A3.9983549248738735,3.9983549248738735,0,1,1,3.9983549248738735,0" style="fill: #4c78a8; stroke-width: 2;"></path><path transform="translate(135.29411764705884,45)" d="M4.256573863171128,0A4.256573863171128,4.256573863171128,0,1,1,-4.256573863171128,0A4.256573863171128,4.256573863171128,0,1,1,4.256573863171128,0" style="fill: #4c78a8; stroke-width: 2;"></path><path transform="translate(100,115)" d="M2.6320394333952084,0A2.6320394333952084,2.6320394333952084,0,1,1,-2.6320394333952084,0A2.6320394333952084,2.6320394333952084,0,1,1,2.6320394333952084,0" style="fill: #4c78a8; stroke-width: 2;"></path><path transform="translate(100,135)" d="M3.345263737537627,0A3.345263737537627,3.345263737537627,0,1,1,-3.345263737537627,0A3.345263737537627,3.345263737537627,0,1,1,3.345263737537627,0" style="fill: #4c78a8; stroke-width: 2;"></path><path transform="translate(111.76470588235294,65)" d="M2.5287816912705736,0A2.5287816912705736,2.5287816912705736,0,1,1,-2.5287816912705736,0A2.5287816912705736,2.5287816912705736,0,1,1,2.5287816912705736,0" style="fill: #4c78a8; stroke-width: 2;"></path><path transform="translate(170.58823529411765,135)" d="M0.7299963950884314,0A0.7299963950884314,0.7299963950884314,0,1,1,-0.7299963950884314,0A0.7299963950884314,0.7299963950884314,0,1,1,0.7299963950884314,0" style="fill: #4c78a8; stroke-width: 2;"></path><path transform="translate(123.52941176470588,55)" d="M3.345263737537627,0A3.345263737537627,3.345263737537627,0,1,1,-3.345263737537627,0A3.345263737537627,3.345263737537627,0,1,1,3.345263737537627,0" style="fill: #4c78a8; stroke-width: 2;"></path><path transform="translate(147.05882352941177,75)" d="M3.9983549248738735,0A3.9983549248738735,3.9983549248738735,0,1,1,-3.9983549248738735,0A3.9983549248738735,3.9983549248738735,0,1,1,3.9983549248738735,0" style="fill: #4c78a8; stroke-width: 2;"></path><path transform="translate(170.58823529411765,25)" d="M2.8272638809689448,0A2.8272638809689448,2.8272638809689448,0,1,1,-2.8272638809689448,0A2.8272638809689448,2.8272638809689448,0,1,1,2.8272638809689448,0" style="fill: #4c78a8; stroke-width: 2;"></path><path transform="translate(135.29411764705884,115)" d="M4.064447913567753,0A4.064447913567753,4.064447913567753,0,1,1,-4.064447913567753,0A4.064447913567753,4.064447913567753,0,1,1,4.064447913567753,0" style="fill: #4c78a8; stroke-width: 2;"></path><path transform="translate(52.94117647058824,200)" d="M2.9199855803537256,0A2.9199855803537256,2.9199855803537256,0,1,1,-2.9199855803537256,0A2.9199855803537256,2.9199855803537256,0,1,1,2.9199855803537256,0" style="fill: none; stroke-width: 2;"></path><path transform="translate(88.23529411764706,55)" d="M0.7299963950884314,0A0.7299963950884314,0.7299963950884314,0,1,1,-0.7299963950884314,0A0.7299963950884314,0.7299963950884314,0,1,1,0.7299963950884314,0" style="fill: #4c78a8; stroke-width: 2;"></path><path transform="translate(100,15)" d="M1.032370802417528,0A1.032370802417528,1.032370802417528,0,1,1,-1.032370802417528,0A1.032370802417528,1.032370802417528,0,1,1,1.032370802417528,0" style="fill: #4c78a8; stroke-width: 2;"></path><path transform="translate(88.23529411764706,155)" d="M2.7313964040009777,0A2.7313964040009777,2.7313964040009777,0,1,1,-2.7313964040009777,0A2.7313964040009777,2.7313964040009777,0,1,1,2.7313964040009777,0" style="fill: #4c78a8; stroke-width: 2;"></path><path transform="translate(100,145)" d="M3.7931725369058604,0A3.7931725369058604,3.7931725369058604,0,1,1,-3.7931725369058604,0A3.7931725369058604,3.7931725369058604,0,1,1,3.7931725369058604,0" style="fill: #4c78a8; stroke-width: 2;"></path><path transform="translate(135.29411764705884,55)" d="M4.616902584383193,0A4.616902584383193,4.616902584383193,0,1,1,-4.616902584383193,0A4.616902584383193,4.616902584383193,0,1,1,4.616902584383193,0" style="fill: #4c78a8; stroke-width: 2;"></path><path transform="translate(170.58823529411765,35)" d="M2.7313964040009777,0A2.7313964040009777,2.7313964040009777,0,1,1,-2.7313964040009777,0A2.7313964040009777,2.7313964040009777,0,1,1,2.7313964040009777,0" style="fill: #4c78a8; stroke-width: 2;"></path><path transform="translate(123.52941176470588,85.00000000000001)" d="M3.649981975442157,0A3.649981975442157,3.649981975442157,0,1,1,-3.649981975442157,0A3.649981975442157,3.649981975442157,0,1,1,3.649981975442157,0" style="fill: #4c78a8; stroke-width: 2;"></path><path transform="translate(100,105)" d="M2.064741604835056,0A2.064741604835056,2.064741604835056,0,1,1,-2.064741604835056,0A2.064741604835056,2.064741604835056,0,1,1,2.064741604835056,0" style="fill: #4c78a8; stroke-width: 2;"></path><path transform="translate(111.76470588235294,15)" d="M1.2643908456352868,0A1.2643908456352868,1.2643908456352868,0,1,1,-1.2643908456352868,0A1.2643908456352868,1.2643908456352868,0,1,1,1.2643908456352868,0" style="fill: #4c78a8; stroke-width: 2;"></path><path transform="translate(123.52941176470588,95)" d="M4.8422482816407335,0A4.8422482816407335,4.8422482816407335,0,1,1,-4.8422482816407335,0A4.8422482816407335,4.8422482816407335,0,1,1,4.8422482816407335,0" style="fill: #4c78a8; stroke-width: 2;"></path><path transform="translate(158.8235294117647,15)" d="M4.951076437981627,0A4.951076437981627,4.951076437981627,0,1,1,-4.951076437981627,0A4.951076437981627,4.951076437981627,0,1,1,4.951076437981627,0" style="fill: #4c78a8; stroke-width: 2;"></path><path transform="translate(88.23529411764706,185)" d="M3.4239865961370697,0A3.4239865961370697,3.4239865961370697,0,1,1,-3.4239865961370697,0A3.4239865961370697,3.4239865961370697,0,1,1,3.4239865961370697,0" style="fill: #4c78a8; stroke-width: 2;"></path><path transform="translate(88.23529411764706,45)" d="M0.7299963950884314,0A0.7299963950884314,0.7299963950884314,0,1,1,-0.7299963950884314,0A0.7299963950884314,0.7299963950884314,0,1,1,0.7299963950884314,0" style="fill: #4c78a8; stroke-width: 2;"></path><path transform="translate(158.8235294117647,45)" d="M3.345263737537627,0A3.345263737537627,3.345263737537627,0,1,1,-3.345263737537627,0A3.345263737537627,3.345263737537627,0,1,1,3.345263737537627,0" style="fill: #4c78a8; stroke-width: 2;"></path><path transform="translate(100,85.00000000000001)" d="M1.4599927901768628,0A1.4599927901768628,1.4599927901768628,0,1,1,-1.4599927901768628,0A1.4599927901768628,1.4599927901768628,0,1,1,1.4599927901768628,0" style="fill: #4c78a8; stroke-width: 2;"></path><path transform="translate(123.52941176470588,45)" d="M2.4211241408203668,0A2.4211241408203668,2.4211241408203668,0,1,1,-2.4211241408203668,0A2.4211241408203668,2.4211241408203668,0,1,1,2.4211241408203668,0" style="fill: #4c78a8; stroke-width: 2;"></path><path transform="translate(135.29411764705884,5)" d="M1.9313889193776423,0A1.9313889193776423,1.9313889193776423,0,1,1,-1.9313889193776423,0A1.9313889193776423,1.9313889193776423,0,1,1,1.9313889193776423,0" style="fill: #4c78a8; stroke-width: 2;"></path><path transform="translate(111.76470588235294,175)" d="M3.345263737537627,0A3.345263737537627,3.345263737537627,0,1,1,-3.345263737537627,0A3.345263737537627,3.345263737537627,0,1,1,3.345263737537627,0" style="fill: #4c78a8; stroke-width: 2;"></path><path transform="translate(111.76470588235294,185)" d="M2.4211241408203668,0A2.4211241408203668,2.4211241408203668,0,1,1,-2.4211241408203668,0A2.4211241408203668,2.4211241408203668,0,1,1,2.4211241408203668,0" style="fill: #4c78a8; stroke-width: 2;"></path><path transform="translate(135.29411764705884,175)" d="M1.6323215627475263,0A1.6323215627475263,1.6323215627475263,0,1,1,-1.6323215627475263,0A1.6323215627475263,1.6323215627475263,0,1,1,1.6323215627475263,0" style="fill: #4c78a8; stroke-width: 2;"></path><path transform="translate(-23.52941176470588,75)" d="M1.032370802417528,0A1.032370802417528,1.032370802417528,0,1,1,-1.032370802417528,0A1.032370802417528,1.032370802417528,0,1,1,1.032370802417528,0" style="fill: none; stroke-width: 2;"></path><path transform="translate(52.94117647058824,65)" d="M1.032370802417528,0A1.032370802417528,1.032370802417528,0,1,1,-1.032370802417528,0A1.032370802417528,1.032370802417528,0,1,1,1.032370802417528,0" style="fill: #4c78a8; stroke-width: 2;"></path><path transform="translate(182.35294117647058,55)" d="M0.7299963950884314,0A0.7299963950884314,0.7299963950884314,0,1,1,-0.7299963950884314,0A0.7299963950884314,0.7299963950884314,0,1,1,0.7299963950884314,0" style="fill: #4c78a8; stroke-width: 2;"></path><path transform="translate(111.76470588235294,105)" d="M3.345263737537627,0A3.345263737537627,3.345263737537627,0,1,1,-3.345263737537627,0A3.345263737537627,3.345263737537627,0,1,1,3.345263737537627,0" style="fill: #4c78a8; stroke-width: 2;"></path><path transform="translate(111.76470588235294,45)" d="M1.2643908456352868,0A1.2643908456352868,1.2643908456352868,0,1,1,-1.2643908456352868,0A1.2643908456352868,1.2643908456352868,0,1,1,1.2643908456352868,0" style="fill: #4c78a8; stroke-width: 2;"></path><path transform="translate(135.29411764705884,95)" d="M3.8627778387552847,0A3.8627778387552847,3.8627778387552847,0,1,1,-3.8627778387552847,0A3.8627778387552847,3.8627778387552847,0,1,1,3.8627778387552847,0" style="fill: #4c78a8; stroke-width: 2;"></path><path transform="translate(194.11764705882354,200)" d="M0.7299963950884314,0A0.7299963950884314,0.7299963950884314,0,1,1,-0.7299963950884314,0A0.7299963950884314,0.7299963950884314,0,1,1,0.7299963950884314,0" style="fill: none; stroke-width: 2;"></path><path transform="translate(194.11764705882354,5)" d="M0.7299963950884314,0A0.7299963950884314,0.7299963950884314,0,1,1,-0.7299963950884314,0A0.7299963950884314,0.7299963950884314,0,1,1,0.7299963950884314,0" style="fill: #4c78a8; stroke-width: 2;"></path><path transform="translate(88.23529411764706,135)" d="M1.788118682037809,0A1.788118682037809,1.788118682037809,0,1,1,-1.788118682037809,0A1.788118682037809,1.788118682037809,0,1,1,1.788118682037809,0" style="fill: #4c78a8; stroke-width: 2;"></path><path transform="translate(123.52941176470588,125)" d="M3.576237364075618,0A3.576237364075618,3.576237364075618,0,1,1,-3.576237364075618,0A3.576237364075618,3.576237364075618,0,1,1,3.576237364075618,0" style="fill: #4c78a8; stroke-width: 2;"></path><path transform="translate(17.647058823529413,200)" d="M0.7299963950884314,0A0.7299963950884314,0.7299963950884314,0,1,1,-0.7299963950884314,0A0.7299963950884314,0.7299963950884314,0,1,1,0.7299963950884314,0" style="fill: none; stroke-width: 2;"></path><path transform="translate(88.23529411764706,145)" d="M2.8272638809689448,0A2.8272638809689448,2.8272638809689448,0,1,1,-2.8272638809689448,0A2.8272638809689448,2.8272638809689448,0,1,1,2.8272638809689448,0" style="fill: #4c78a8; stroke-width: 2;"></path><path transform="translate(111.76470588235294,155)" d="M3.181980515339464,0A3.181980515339464,3.181980515339464,0,1,1,-3.181980515339464,0A3.181980515339464,3.181980515339464,0,1,1,3.181980515339464,0" style="fill: #4c78a8; stroke-width: 2;"></path><path transform="translate(147.05882352941177,105)" d="M1.9313889193776423,0A1.9313889193776423,1.9313889193776423,0,1,1,-1.9313889193776423,0A1.9313889193776423,1.9313889193776423,0,1,1,1.9313889193776423,0" style="fill: #4c78a8; stroke-width: 2;"></path><path transform="translate(123.52941176470588,155)" d="M3.345263737537627,0A3.345263737537627,3.345263737537627,0,1,1,-3.345263737537627,0A3.345263737537627,3.345263737537627,0,1,1,3.345263737537627,0" style="fill: #4c78a8; stroke-width: 2;"></path><path transform="translate(76.47058823529412,145)" d="M1.6323215627475263,0A1.6323215627475263,1.6323215627475263,0,1,1,-1.6323215627475263,0A1.6323215627475263,1.6323215627475263,0,1,1,1.6323215627475263,0" style="fill: #4c78a8; stroke-width: 2;"></path><path transform="translate(123.52941176470588,145)" d="M3.7222658634083,0A3.7222658634083,3.7222658634083,0,1,1,-3.7222658634083,0A3.7222658634083,3.7222658634083,0,1,1,3.7222658634083,0" style="fill: #4c78a8; stroke-width: 2;"></path><path transform="translate(52.94117647058824,45)" d="M0.7299963950884314,0A0.7299963950884314,0.7299963950884314,0,1,1,-0.7299963950884314,0A0.7299963950884314,0.7299963950884314,0,1,1,0.7299963950884314,0" style="fill: #4c78a8; stroke-width: 2;"></path><path transform="translate(29.411764705882355,200)" d="M1.6323215627475263,0A1.6323215627475263,1.6323215627475263,0,1,1,-1.6323215627475263,0A1.6323215627475263,1.6323215627475263,0,1,1,1.6323215627475263,0" style="fill: none; stroke-width: 2;"></path><path transform="translate(182.35294117647058,15)" d="M1.788118682037809,0A1.788118682037809,1.788118682037809,0,1,1,-1.788118682037809,0A1.788118682037809,1.788118682037809,0,1,1,1.788118682037809,0" style="fill: #4c78a8; stroke-width: 2;"></path><path transform="translate(76.47058823529412,155)" d="M1.788118682037809,0A1.788118682037809,1.788118682037809,0,1,1,-1.788118682037809,0A1.788118682037809,1.788118682037809,0,1,1,1.788118682037809,0" style="fill: #4c78a8; stroke-width: 2;"></path><path transform="translate(-23.52941176470588,5)" d="M1.032370802417528,0A1.032370802417528,1.032370802417528,0,1,1,-1.032370802417528,0A1.032370802417528,1.032370802417528,0,1,1,1.032370802417528,0" style="fill: none; stroke-width: 2;"></path><path transform="translate(100,165)" d="M3.500939723469746,0A3.500939723469746,3.500939723469746,0,1,1,-3.500939723469746,0A3.500939723469746,3.500939723469746,0,1,1,3.500939723469746,0" style="fill: #4c78a8; stroke-width: 2;"></path><path transform="translate(88.23529411764706,165)" d="M3.7222658634083,0A3.7222658634083,3.7222658634083,0,1,1,-3.7222658634083,0A3.7222658634083,3.7222658634083,0,1,1,3.7222658634083,0" style="fill: #4c78a8; stroke-width: 2;"></path><path transform="translate(64.70588235294117,175)" d="M2.189989185265294,0A2.189989185265294,2.189989185265294,0,1,1,-2.189989185265294,0A2.189989185265294,2.189989185265294,0,1,1,2.189989185265294,0" style="fill: #4c78a8; stroke-width: 2;"></path><path transform="translate(41.17647058823529,200)" d="M1.9313889193776423,0A1.9313889193776423,1.9313889193776423,0,1,1,-1.9313889193776423,0A1.9313889193776423,1.9313889193776423,0,1,1,1.9313889193776423,0" style="fill: none; stroke-width: 2;"></path><path transform="translate(158.8235294117647,105)" d="M1.4599927901768628,0A1.4599927901768628,1.4599927901768628,0,1,1,-1.4599927901768628,0A1.4599927901768628,1.4599927901768628,0,1,1,1.4599927901768628,0" style="fill: #4c78a8; stroke-width: 2;"></path><path transform="translate(158.8235294117647,65)" d="M2.7313964040009777,0A2.7313964040009777,2.7313964040009777,0,1,1,-2.7313964040009777,0A2.7313964040009777,2.7313964040009777,0,1,1,2.7313964040009777,0" style="fill: #4c78a8; stroke-width: 2;"></path><path transform="translate(123.52941176470588,5)" d="M1.032370802417528,0A1.032370802417528,1.032370802417528,0,1,1,-1.032370802417528,0A1.032370802417528,1.032370802417528,0,1,1,1.032370802417528,0" style="fill: #4c78a8; stroke-width: 2;"></path><path transform="translate(88.23529411764706,105)" d="M1.032370802417528,0A1.032370802417528,1.032370802417528,0,1,1,-1.032370802417528,0A1.032370802417528,1.032370802417528,0,1,1,1.032370802417528,0" style="fill: #4c78a8; stroke-width: 2;"></path><path transform="translate(147.05882352941177,95)" d="M2.6320394333952084,0A2.6320394333952084,2.6320394333952084,0,1,1,-2.6320394333952084,0A2.6320394333952084,2.6320394333952084,0,1,1,2.6320394333952084,0" style="fill: #4c78a8; stroke-width: 2;"></path><path transform="translate(100,5)" d="M0.7299963950884314,0A0.7299963950884314,0.7299963950884314,0,1,1,-0.7299963950884314,0A0.7299963950884314,0.7299963950884314,0,1,1,0.7299963950884314,0" style="fill: #4c78a8; stroke-width: 2;"></path><path transform="translate(-23.52941176470588,35)" d="M1.9313889193776423,0A1.9313889193776423,1.9313889193776423,0,1,1,-1.9313889193776423,0A1.9313889193776423,1.9313889193776423,0,1,1,1.9313889193776423,0" style="fill: none; stroke-width: 2;"></path><path transform="translate(123.52941176470588,65)" d="M3.181980515339464,0A3.181980515339464,3.181980515339464,0,1,1,-3.181980515339464,0A3.181980515339464,3.181980515339464,0,1,1,3.181980515339464,0" style="fill: #4c78a8; stroke-width: 2;"></path><path transform="translate(100,95)" d="M2.064741604835056,0A2.064741604835056,2.064741604835056,0,1,1,-2.064741604835056,0A2.064741604835056,2.064741604835056,0,1,1,2.064741604835056,0" style="fill: #4c78a8; stroke-width: 2;"></path><path transform="translate(100,35)" d="M1.032370802417528,0A1.032370802417528,1.032370802417528,0,1,1,-1.032370802417528,0A1.032370802417528,1.032370802417528,0,1,1,1.032370802417528,0" style="fill: #4c78a8; stroke-width: 2;"></path><path transform="translate(52.94117647058824,185)" d="M1.788118682037809,0A1.788118682037809,1.788118682037809,0,1,1,-1.788118682037809,0A1.788118682037809,1.788118682037809,0,1,1,1.788118682037809,0" style="fill: #4c78a8; stroke-width: 2;"></path><path transform="translate(88.23529411764706,125)" d="M2.4211241408203668,0A2.4211241408203668,2.4211241408203668,0,1,1,-2.4211241408203668,0A2.4211241408203668,2.4211241408203668,0,1,1,2.4211241408203668,0" style="fill: #4c78a8; stroke-width: 2;"></path><path transform="translate(88.23529411764706,85.00000000000001)" d="M0.7299963950884314,0A0.7299963950884314,0.7299963950884314,0,1,1,-0.7299963950884314,0A0.7299963950884314,0.7299963950884314,0,1,1,0.7299963950884314,0" style="fill: #4c78a8; stroke-width: 2;"></path><path transform="translate(111.76470588235294,25)" d="M1.2643908456352868,0A1.2643908456352868,1.2643908456352868,0,1,1,-1.2643908456352868,0A1.2643908456352868,1.2643908456352868,0,1,1,1.2643908456352868,0" style="fill: #4c78a8; stroke-width: 2;"></path><path transform="translate(64.70588235294117,75)" d="M0.7299963950884314,0A0.7299963950884314,0.7299963950884314,0,1,1,-0.7299963950884314,0A0.7299963950884314,0.7299963950884314,0,1,1,0.7299963950884314,0" style="fill: #4c78a8; stroke-width: 2;"></path><path transform="translate(41.17647058823529,175)" d="M1.4599927901768628,0A1.4599927901768628,1.4599927901768628,0,1,1,-1.4599927901768628,0A1.4599927901768628,1.4599927901768628,0,1,1,1.4599927901768628,0" style="fill: #4c78a8; stroke-width: 2;"></path><path transform="translate(76.47058823529412,125)" d="M1.2643908456352868,0A1.2643908456352868,1.2643908456352868,0,1,1,-1.2643908456352868,0A1.2643908456352868,1.2643908456352868,0,1,1,1.2643908456352868,0" style="fill: #4c78a8; stroke-width: 2;"></path><path transform="translate(182.35294117647058,25)" d="M1.4599927901768628,0A1.4599927901768628,1.4599927901768628,0,1,1,-1.4599927901768628,0A1.4599927901768628,1.4599927901768628,0,1,1,1.4599927901768628,0" style="fill: #4c78a8; stroke-width: 2;"></path><path transform="translate(64.70588235294117,165)" d="M1.4599927901768628,0A1.4599927901768628,1.4599927901768628,0,1,1,-1.4599927901768628,0A1.4599927901768628,1.4599927901768628,0,1,1,1.4599927901768628,0" style="fill: #4c78a8; stroke-width: 2;"></path><path transform="translate(76.47058823529412,175)" d="M2.8272638809689448,0A2.8272638809689448,2.8272638809689448,0,1,1,-2.8272638809689448,0A2.8272638809689448,2.8272638809689448,0,1,1,2.8272638809689448,0" style="fill: #4c78a8; stroke-width: 2;"></path><path transform="translate(194.11764705882354,25)" d="M1.032370802417528,0A1.032370802417528,1.032370802417528,0,1,1,-1.032370802417528,0A1.032370802417528,1.032370802417528,0,1,1,1.032370802417528,0" style="fill: #4c78a8; stroke-width: 2;"></path><path transform="translate(111.76470588235294,5)" d="M1.032370802417528,0A1.032370802417528,1.032370802417528,0,1,1,-1.032370802417528,0A1.032370802417528,1.032370802417528,0,1,1,1.032370802417528,0" style="fill: #4c78a8; stroke-width: 2;"></path><path transform="translate(111.76470588235294,165)" d="M3.4239865961370697,0A3.4239865961370697,3.4239865961370697,0,1,1,-3.4239865961370697,0A3.4239865961370697,3.4239865961370697,0,1,1,3.4239865961370697,0" style="fill: #4c78a8; stroke-width: 2;"></path><path transform="translate(88.23529411764706,15)" d="M0.7299963950884314,0A0.7299963950884314,0.7299963950884314,0,1,1,-0.7299963950884314,0A0.7299963950884314,0.7299963950884314,0,1,1,0.7299963950884314,0" style="fill: #4c78a8; stroke-width: 2;"></path><path transform="translate(88.23529411764706,195)" d="M1.6323215627475263,0A1.6323215627475263,1.6323215627475263,0,1,1,-1.6323215627475263,0A1.6323215627475263,1.6323215627475263,0,1,1,1.6323215627475263,0" style="fill: #4c78a8; stroke-width: 2;"></path><path transform="translate(52.94117647058824,175)" d="M1.2643908456352868,0A1.2643908456352868,1.2643908456352868,0,1,1,-1.2643908456352868,0A1.2643908456352868,1.2643908456352868,0,1,1,1.2643908456352868,0" style="fill: #4c78a8; stroke-width: 2;"></path><path transform="translate(76.47058823529412,135)" d="M1.032370802417528,0A1.032370802417528,1.032370802417528,0,1,1,-1.032370802417528,0A1.032370802417528,1.032370802417528,0,1,1,1.032370802417528,0" style="fill: #4c78a8; stroke-width: 2;"></path><path transform="translate(41.17647058823529,65)" d="M1.032370802417528,0A1.032370802417528,1.032370802417528,0,1,1,-1.032370802417528,0A1.032370802417528,1.032370802417528,0,1,1,1.032370802417528,0" style="fill: #4c78a8; stroke-width: 2;"></path><path transform="translate(135.29411764705884,135)" d="M2.189989185265294,0A2.189989185265294,2.189989185265294,0,1,1,-2.189989185265294,0A2.189989185265294,2.189989185265294,0,1,1,2.189989185265294,0" style="fill: #4c78a8; stroke-width: 2;"></path><path transform="translate(123.52941176470588,165)" d="M2.8272638809689448,0A2.8272638809689448,2.8272638809689448,0,1,1,-2.8272638809689448,0A2.8272638809689448,2.8272638809689448,0,1,1,2.8272638809689448,0" style="fill: #4c78a8; stroke-width: 2;"></path><path transform="translate(-23.52941176470588,65)" d="M1.032370802417528,0A1.032370802417528,1.032370802417528,0,1,1,-1.032370802417528,0A1.032370802417528,1.032370802417528,0,1,1,1.032370802417528,0" style="fill: none; stroke-width: 2;"></path><path transform="translate(123.52941176470588,135)" d="M3.2646431254950525,0A3.2646431254950525,3.2646431254950525,0,1,1,-3.2646431254950525,0A3.2646431254950525,3.2646431254950525,0,1,1,3.2646431254950525,0" style="fill: #4c78a8; stroke-width: 2;"></path><path transform="translate(158.8235294117647,145)" d="M0.7299963950884314,0A0.7299963950884314,0.7299963950884314,0,1,1,-0.7299963950884314,0A0.7299963950884314,0.7299963950884314,0,1,1,0.7299963950884314,0" style="fill: #4c78a8; stroke-width: 2;"></path><path transform="translate(100,195)" d="M1.4599927901768628,0A1.4599927901768628,1.4599927901768628,0,1,1,-1.4599927901768628,0A1.4599927901768628,1.4599927901768628,0,1,1,1.4599927901768628,0" style="fill: #4c78a8; stroke-width: 2;"></path><path transform="translate(170.58823529411765,175)" d="M0.7299963950884314,0A0.7299963950884314,0.7299963950884314,0,1,1,-0.7299963950884314,0A0.7299963950884314,0.7299963950884314,0,1,1,0.7299963950884314,0" style="fill: #4c78a8; stroke-width: 2;"></path><path transform="translate(29.411764705882355,195)" d="M1.6323215627475263,0A1.6323215627475263,1.6323215627475263,0,1,1,-1.6323215627475263,0A1.6323215627475263,1.6323215627475263,0,1,1,1.6323215627475263,0" style="fill: #4c78a8; stroke-width: 2;"></path><path transform="translate(182.35294117647058,35)" d="M1.2643908456352868,0A1.2643908456352868,1.2643908456352868,0,1,1,-1.2643908456352868,0A1.2643908456352868,1.2643908456352868,0,1,1,1.2643908456352868,0" style="fill: #4c78a8; stroke-width: 2;"></path><path transform="translate(88.23529411764706,95)" d="M0.7299963950884314,0A0.7299963950884314,0.7299963950884314,0,1,1,-0.7299963950884314,0A0.7299963950884314,0.7299963950884314,0,1,1,0.7299963950884314,0" style="fill: #4c78a8; stroke-width: 2;"></path><path transform="translate(88.23529411764706,75)" d="M0.7299963950884314,0A0.7299963950884314,0.7299963950884314,0,1,1,-0.7299963950884314,0A0.7299963950884314,0.7299963950884314,0,1,1,0.7299963950884314,0" style="fill: #4c78a8; stroke-width: 2;"></path><path transform="translate(158.8235294117647,125)" d="M1.2643908456352868,0A1.2643908456352868,1.2643908456352868,0,1,1,-1.2643908456352868,0A1.2643908456352868,1.2643908456352868,0,1,1,1.2643908456352868,0" style="fill: #4c78a8; stroke-width: 2;"></path><path transform="translate(158.8235294117647,95)" d="M1.032370802417528,0A1.032370802417528,1.032370802417528,0,1,1,-1.032370802417528,0A1.032370802417528,1.032370802417528,0,1,1,1.032370802417528,0" style="fill: #4c78a8; stroke-width: 2;"></path><path transform="translate(100,185)" d="M2.7313964040009777,0A2.7313964040009777,2.7313964040009777,0,1,1,-2.7313964040009777,0A2.7313964040009777,2.7313964040009777,0,1,1,2.7313964040009777,0" style="fill: #4c78a8; stroke-width: 2;"></path><path transform="translate(5.88235294117647,200)" d="M0.7299963950884314,0A0.7299963950884314,0.7299963950884314,0,1,1,-0.7299963950884314,0A0.7299963950884314,0.7299963950884314,0,1,1,0.7299963950884314,0" style="fill: none; stroke-width: 2;"></path><path transform="translate(-23.52941176470588,25)" d="M1.4599927901768628,0A1.4599927901768628,1.4599927901768628,0,1,1,-1.4599927901768628,0A1.4599927901768628,1.4599927901768628,0,1,1,1.4599927901768628,0" style="fill: none; stroke-width: 2;"></path><path transform="translate(64.70588235294117,185)" d="M1.788118682037809,0A1.788118682037809,1.788118682037809,0,1,1,-1.788118682037809,0A1.788118682037809,1.788118682037809,0,1,1,1.788118682037809,0" style="fill: #4c78a8; stroke-width: 2;"></path><path transform="translate(170.58823529411765,55)" d="M1.032370802417528,0A1.032370802417528,1.032370802417528,0,1,1,-1.032370802417528,0A1.032370802417528,1.032370802417528,0,1,1,1.032370802417528,0" style="fill: #4c78a8; stroke-width: 2;"></path><path transform="translate(170.58823529411765,75)" d="M0.7299963950884314,0A0.7299963950884314,0.7299963950884314,0,1,1,-0.7299963950884314,0A0.7299963950884314,0.7299963950884314,0,1,1,0.7299963950884314,0" style="fill: #4c78a8; stroke-width: 2;"></path><path transform="translate(100,45)" d="M1.032370802417528,0A1.032370802417528,1.032370802417528,0,1,1,-1.032370802417528,0A1.032370802417528,1.032370802417528,0,1,1,1.032370802417528,0" style="fill: #4c78a8; stroke-width: 2;"></path><path transform="translate(76.47058823529412,185)" d="M2.5287816912705736,0A2.5287816912705736,2.5287816912705736,0,1,1,-2.5287816912705736,0A2.5287816912705736,2.5287816912705736,0,1,1,2.5287816912705736,0" style="fill: #4c78a8; stroke-width: 2;"></path><path transform="translate(158.8235294117647,165)" d="M0.7299963950884314,0A0.7299963950884314,0.7299963950884314,0,1,1,-0.7299963950884314,0A0.7299963950884314,0.7299963950884314,0,1,1,0.7299963950884314,0" style="fill: #4c78a8; stroke-width: 2;"></path><path transform="translate(64.70588235294117,155)" d="M1.6323215627475263,0A1.6323215627475263,1.6323215627475263,0,1,1,-1.6323215627475263,0A1.6323215627475263,1.6323215627475263,0,1,1,1.6323215627475263,0" style="fill: #4c78a8; stroke-width: 2;"></path><path transform="translate(-23.52941176470588,45)" d="M1.788118682037809,0A1.788118682037809,1.788118682037809,0,1,1,-1.788118682037809,0A1.788118682037809,1.788118682037809,0,1,1,1.788118682037809,0" style="fill: none; stroke-width: 2;"></path><path transform="translate(41.17647058823529,75)" d="M0.7299963950884314,0A0.7299963950884314,0.7299963950884314,0,1,1,-0.7299963950884314,0A0.7299963950884314,0.7299963950884314,0,1,1,0.7299963950884314,0" style="fill: #4c78a8; stroke-width: 2;"></path><path transform="translate(158.8235294117647,135)" d="M0.7299963950884314,0A0.7299963950884314,0.7299963950884314,0,1,1,-0.7299963950884314,0A0.7299963950884314,0.7299963950884314,0,1,1,0.7299963950884314,0" style="fill: #4c78a8; stroke-width: 2;"></path><path transform="translate(-23.52941176470588,155)" d="M0.7299963950884314,0A0.7299963950884314,0.7299963950884314,0,1,1,-0.7299963950884314,0A0.7299963950884314,0.7299963950884314,0,1,1,0.7299963950884314,0" style="fill: none; stroke-width: 2;"></path><path transform="translate(-23.52941176470588,95)" d="M1.2643908456352868,0A1.2643908456352868,1.2643908456352868,0,1,1,-1.2643908456352868,0A1.2643908456352868,1.2643908456352868,0,1,1,1.2643908456352868,0" style="fill: none; stroke-width: 2;"></path><path transform="translate(64.70588235294117,145)" d="M1.032370802417528,0A1.032370802417528,1.032370802417528,0,1,1,-1.032370802417528,0A1.032370802417528,1.032370802417528,0,1,1,1.032370802417528,0" style="fill: #4c78a8; stroke-width: 2;"></path><path transform="translate(29.411764705882355,175)" d="M1.032370802417528,0A1.032370802417528,1.032370802417528,0,1,1,-1.032370802417528,0A1.032370802417528,1.032370802417528,0,1,1,1.032370802417528,0" style="fill: #4c78a8; stroke-width: 2;"></path><path transform="translate(147.05882352941177,135)" d="M1.4599927901768628,0A1.4599927901768628,1.4599927901768628,0,1,1,-1.4599927901768628,0A1.4599927901768628,1.4599927901768628,0,1,1,1.4599927901768628,0" style="fill: #4c78a8; stroke-width: 2;"></path><path transform="translate(76.47058823529412,195)" d="M1.4599927901768628,0A1.4599927901768628,1.4599927901768628,0,1,1,-1.4599927901768628,0A1.4599927901768628,1.4599927901768628,0,1,1,1.4599927901768628,0" style="fill: #4c78a8; stroke-width: 2;"></path><path transform="translate(17.647058823529413,195)" d="M1.032370802417528,0A1.032370802417528,1.032370802417528,0,1,1,-1.032370802417528,0A1.032370802417528,1.032370802417528,0,1,1,1.032370802417528,0" style="fill: #4c78a8; stroke-width: 2;"></path><path transform="translate(41.17647058823529,185)" d="M1.4599927901768628,0A1.4599927901768628,1.4599927901768628,0,1,1,-1.4599927901768628,0A1.4599927901768628,1.4599927901768628,0,1,1,1.4599927901768628,0" style="fill: #4c78a8; stroke-width: 2;"></path><path transform="translate(147.05882352941177,145)" d="M1.4599927901768628,0A1.4599927901768628,1.4599927901768628,0,1,1,-1.4599927901768628,0A1.4599927901768628,1.4599927901768628,0,1,1,1.4599927901768628,0" style="fill: #4c78a8; stroke-width: 2;"></path><path transform="translate(-23.52941176470588,55)" d="M1.032370802417528,0A1.032370802417528,1.032370802417528,0,1,1,-1.032370802417528,0A1.032370802417528,1.032370802417528,0,1,1,1.032370802417528,0" style="fill: none; stroke-width: 2;"></path><path transform="translate(52.94117647058824,195)" d="M1.2643908456352868,0A1.2643908456352868,1.2643908456352868,0,1,1,-1.2643908456352868,0A1.2643908456352868,1.2643908456352868,0,1,1,1.2643908456352868,0" style="fill: #4c78a8; stroke-width: 2;"></path><path transform="translate(100,75)" d="M1.032370802417528,0A1.032370802417528,1.032370802417528,0,1,1,-1.032370802417528,0A1.032370802417528,1.032370802417528,0,1,1,1.032370802417528,0" style="fill: #4c78a8; stroke-width: 2;"></path><path transform="translate(135.29411764705884,145)" d="M1.6323215627475263,0A1.6323215627475263,1.6323215627475263,0,1,1,-1.6323215627475263,0A1.6323215627475263,1.6323215627475263,0,1,1,1.6323215627475263,0" style="fill: #4c78a8; stroke-width: 2;"></path><path transform="translate(123.52941176470588,185)" d="M1.2643908456352868,0A1.2643908456352868,1.2643908456352868,0,1,1,-1.2643908456352868,0A1.2643908456352868,1.2643908456352868,0,1,1,1.2643908456352868,0" style="fill: #4c78a8; stroke-width: 2;"></path><path transform="translate(17.647058823529413,185)" d="M0.7299963950884314,0A0.7299963950884314,0.7299963950884314,0,1,1,-0.7299963950884314,0A0.7299963950884314,0.7299963950884314,0,1,1,0.7299963950884314,0" style="fill: #4c78a8; stroke-width: 2;"></path><path transform="translate(-23.52941176470588,125)" d="M1.032370802417528,0A1.032370802417528,1.032370802417528,0,1,1,-1.032370802417528,0A1.032370802417528,1.032370802417528,0,1,1,1.032370802417528,0" style="fill: none; stroke-width: 2;"></path><path transform="translate(88.23529411764706,25)" d="M0.7299963950884314,0A0.7299963950884314,0.7299963950884314,0,1,1,-0.7299963950884314,0A0.7299963950884314,0.7299963950884314,0,1,1,0.7299963950884314,0" style="fill: #4c78a8; stroke-width: 2;"></path><path transform="translate(29.411764705882355,185)" d="M1.2643908456352868,0A1.2643908456352868,1.2643908456352868,0,1,1,-1.2643908456352868,0A1.2643908456352868,1.2643908456352868,0,1,1,1.2643908456352868,0" style="fill: #4c78a8; stroke-width: 2;"></path><path transform="translate(170.58823529411765,115)" d="M0.7299963950884314,0A0.7299963950884314,0.7299963950884314,0,1,1,-0.7299963950884314,0A0.7299963950884314,0.7299963950884314,0,1,1,0.7299963950884314,0" style="fill: #4c78a8; stroke-width: 2;"></path><path transform="translate(-23.52941176470588,145)" d="M1.788118682037809,0A1.788118682037809,1.788118682037809,0,1,1,-1.788118682037809,0A1.788118682037809,1.788118682037809,0,1,1,1.788118682037809,0" style="fill: none; stroke-width: 2;"></path><path transform="translate(64.70588235294117,65)" d="M0.7299963950884314,0A0.7299963950884314,0.7299963950884314,0,1,1,-0.7299963950884314,0A0.7299963950884314,0.7299963950884314,0,1,1,0.7299963950884314,0" style="fill: #4c78a8; stroke-width: 2;"></path><path transform="translate(64.70588235294117,15)" d="M0.7299963950884314,0A0.7299963950884314,0.7299963950884314,0,1,1,-0.7299963950884314,0A0.7299963950884314,0.7299963950884314,0,1,1,0.7299963950884314,0" style="fill: #4c78a8; stroke-width: 2;"></path><path transform="translate(147.05882352941177,125)" d="M1.788118682037809,0A1.788118682037809,1.788118682037809,0,1,1,-1.788118682037809,0A1.788118682037809,1.788118682037809,0,1,1,1.788118682037809,0" style="fill: #4c78a8; stroke-width: 2;"></path><path transform="translate(-23.52941176470588,85.00000000000001)" d="M1.032370802417528,0A1.032370802417528,1.032370802417528,0,1,1,-1.032370802417528,0A1.032370802417528,1.032370802417528,0,1,1,1.032370802417528,0" style="fill: none; stroke-width: 2;"></path><path transform="translate(147.05882352941177,115)" d="M1.4599927901768628,0A1.4599927901768628,1.4599927901768628,0,1,1,-1.4599927901768628,0A1.4599927901768628,1.4599927901768628,0,1,1,1.4599927901768628,0" style="fill: #4c78a8; stroke-width: 2;"></path><path transform="translate(64.70588235294117,195)" d="M1.2643908456352868,0A1.2643908456352868,1.2643908456352868,0,1,1,-1.2643908456352868,0A1.2643908456352868,1.2643908456352868,0,1,1,1.2643908456352868,0" style="fill: #4c78a8; stroke-width: 2;"></path><path transform="translate(147.05882352941177,155)" d="M0.7299963950884314,0A0.7299963950884314,0.7299963950884314,0,1,1,-0.7299963950884314,0A0.7299963950884314,0.7299963950884314,0,1,1,0.7299963950884314,0" style="fill: #4c78a8; stroke-width: 2;"></path><path transform="translate(-23.52941176470588,105)" d="M1.032370802417528,0A1.032370802417528,1.032370802417528,0,1,1,-1.032370802417528,0A1.032370802417528,1.032370802417528,0,1,1,1.032370802417528,0" style="fill: none; stroke-width: 2;"></path><path transform="translate(52.94117647058824,135)" d="M0.7299963950884314,0A0.7299963950884314,0.7299963950884314,0,1,1,-0.7299963950884314,0A0.7299963950884314,0.7299963950884314,0,1,1,0.7299963950884314,0" style="fill: #4c78a8; stroke-width: 2;"></path><path transform="translate(52.94117647058824,145)" d="M0.7299963950884314,0A0.7299963950884314,0.7299963950884314,0,1,1,-0.7299963950884314,0A0.7299963950884314,0.7299963950884314,0,1,1,0.7299963950884314,0" style="fill: #4c78a8; stroke-width: 2;"></path><path transform="translate(-23.52941176470588,165)" d="M0.7299963950884314,0A0.7299963950884314,0.7299963950884314,0,1,1,-0.7299963950884314,0A0.7299963950884314,0.7299963950884314,0,1,1,0.7299963950884314,0" style="fill: none; stroke-width: 2;"></path><path transform="translate(170.58823529411765,95)" d="M0.7299963950884314,0A0.7299963950884314,0.7299963950884314,0,1,1,-0.7299963950884314,0A0.7299963950884314,0.7299963950884314,0,1,1,0.7299963950884314,0" style="fill: #4c78a8; stroke-width: 2;"></path><path transform="translate(88.23529411764706,65)" d="M0.7299963950884314,0A0.7299963950884314,0.7299963950884314,0,1,1,-0.7299963950884314,0A0.7299963950884314,0.7299963950884314,0,1,1,0.7299963950884314,0" style="fill: #4c78a8; stroke-width: 2;"></path><path transform="translate(29.411764705882355,155)" d="M0.7299963950884314,0A0.7299963950884314,0.7299963950884314,0,1,1,-0.7299963950884314,0A0.7299963950884314,0.7299963950884314,0,1,1,0.7299963950884314,0" style="fill: #4c78a8; stroke-width: 2;"></path><path transform="translate(158.8235294117647,85.00000000000001)" d="M0.7299963950884314,0A0.7299963950884314,0.7299963950884314,0,1,1,-0.7299963950884314,0A0.7299963950884314,0.7299963950884314,0,1,1,0.7299963950884314,0" style="fill: #4c78a8; stroke-width: 2;"></path><path transform="translate(-23.52941176470588,185)" d="M1.032370802417528,0A1.032370802417528,1.032370802417528,0,1,1,-1.032370802417528,0A1.032370802417528,1.032370802417528,0,1,1,1.032370802417528,0" style="fill: none; stroke-width: 2;"></path><path transform="translate(41.17647058823529,195)" d="M1.032370802417528,0A1.032370802417528,1.032370802417528,0,1,1,-1.032370802417528,0A1.032370802417528,1.032370802417528,0,1,1,1.032370802417528,0" style="fill: #4c78a8; stroke-width: 2;"></path><path transform="translate(76.47058823529412,115)" d="M0.7299963950884314,0A0.7299963950884314,0.7299963950884314,0,1,1,-0.7299963950884314,0A0.7299963950884314,0.7299963950884314,0,1,1,0.7299963950884314,0" style="fill: #4c78a8; stroke-width: 2;"></path><path transform="translate(182.35294117647058,45)" d="M0.7299963950884314,0A0.7299963950884314,0.7299963950884314,0,1,1,-0.7299963950884314,0A0.7299963950884314,0.7299963950884314,0,1,1,0.7299963950884314,0" style="fill: #4c78a8; stroke-width: 2;"></path><path transform="translate(29.411764705882355,125)" d="M0.7299963950884314,0A0.7299963950884314,0.7299963950884314,0,1,1,-0.7299963950884314,0A0.7299963950884314,0.7299963950884314,0,1,1,0.7299963950884314,0" style="fill: #4c78a8; stroke-width: 2;"></path><path transform="translate(158.8235294117647,115)" d="M0.7299963950884314,0A0.7299963950884314,0.7299963950884314,0,1,1,-0.7299963950884314,0A0.7299963950884314,0.7299963950884314,0,1,1,0.7299963950884314,0" style="fill: #4c78a8; stroke-width: 2;"></path><path transform="translate(41.17647058823529,35)" d="M0.7299963950884314,0A0.7299963950884314,0.7299963950884314,0,1,1,-0.7299963950884314,0A0.7299963950884314,0.7299963950884314,0,1,1,0.7299963950884314,0" style="fill: #4c78a8; stroke-width: 2;"></path><path transform="translate(41.17647058823529,165)" d="M1.032370802417528,0A1.032370802417528,1.032370802417528,0,1,1,-1.032370802417528,0A1.032370802417528,1.032370802417528,0,1,1,1.032370802417528,0" style="fill: #4c78a8; stroke-width: 2;"></path><path transform="translate(170.58823529411765,65)" d="M0.7299963950884314,0A0.7299963950884314,0.7299963950884314,0,1,1,-0.7299963950884314,0A0.7299963950884314,0.7299963950884314,0,1,1,0.7299963950884314,0" style="fill: #4c78a8; stroke-width: 2;"></path><path transform="translate(-23.52941176470588,115)" d="M0.7299963950884314,0A0.7299963950884314,0.7299963950884314,0,1,1,-0.7299963950884314,0A0.7299963950884314,0.7299963950884314,0,1,1,0.7299963950884314,0" style="fill: none; stroke-width: 2;"></path><path transform="translate(100,65)" d="M0.7299963950884314,0A0.7299963950884314,0.7299963950884314,0,1,1,-0.7299963950884314,0A0.7299963950884314,0.7299963950884314,0,1,1,0.7299963950884314,0" style="fill: #4c78a8; stroke-width: 2;"></path><path transform="translate(135.29411764705884,165)" d="M0.7299963950884314,0A0.7299963950884314,0.7299963950884314,0,1,1,-0.7299963950884314,0A0.7299963950884314,0.7299963950884314,0,1,1,0.7299963950884314,0" style="fill: #4c78a8; stroke-width: 2;"></path><path transform="translate(76.47058823529412,15)" d="M0.7299963950884314,0A0.7299963950884314,0.7299963950884314,0,1,1,-0.7299963950884314,0A0.7299963950884314,0.7299963950884314,0,1,1,0.7299963950884314,0" style="fill: #4c78a8; stroke-width: 2;"></path><path transform="translate(158.8235294117647,175)" d="M0.7299963950884314,0A0.7299963950884314,0.7299963950884314,0,1,1,-0.7299963950884314,0A0.7299963950884314,0.7299963950884314,0,1,1,0.7299963950884314,0" style="fill: #4c78a8; stroke-width: 2;"></path></g><g class="mark-group role-legend"><g transform="translate(218,0)"><path class="background" d="M0,0h141v144h-141Z" style="pointer-events: none; fill: none;"></path><g><g class="mark-group role-legend-entry"><g transform="translate(0,16)"><path class="background" d="M0,0h0v0h0Z" style="pointer-events: none; fill: none;"></path><g><g class="mark-group role-scope"><g transform="translate(0,0)"><path class="background" d="M0,0h48v11h-48Z" style="pointer-events: none; fill: none; opacity: 1;"></path><g><g class="mark-symbol role-legend-symbol" style="pointer-events: none;"><path transform="translate(9.5,5)" d="M3.2646431254950525,0A3.2646431254950525,3.2646431254950525,0,1,1,-3.2646431254950525,0A3.2646431254950525,3.2646431254950525,0,1,1,3.2646431254950525,0" style="fill: #4c78a8; stroke: none; stroke-width: 1.5; opacity: 1;"></path></g><g class="mark-text role-legend-label" style="pointer-events: none;"><text text-anchor="start" transform="translate(23,8)" style="font-family: sans-serif; font-size: 10px; fill: #000; opacity: 1;">20</text></g></g></g><g transform="translate(0,14)"><path class="background" d="M0,0h48v11.616902584383194h-48Z" style="pointer-events: none; fill: none; opacity: 1;"></path><g><g class="mark-symbol role-legend-symbol" style="pointer-events: none;"><path transform="translate(9.5,5.5)" d="M4.616902584383193,0A4.616902584383193,4.616902584383193,0,1,1,-4.616902584383193,0A4.616902584383193,4.616902584383193,0,1,1,4.616902584383193,0" style="fill: #4c78a8; stroke: none; stroke-width: 1.5; opacity: 1;"></path></g><g class="mark-text role-legend-label" style="pointer-events: none;"><text text-anchor="start" transform="translate(23,8.5)" style="font-family: sans-serif; font-size: 10px; fill: #000; opacity: 1;">40</text></g></g></g><g transform="translate(0,29)"><path class="background" d="M0,0h48v13.654527761937885h-48Z" style="pointer-events: none; fill: none; opacity: 1;"></path><g><g class="mark-symbol role-legend-symbol" style="pointer-events: none;"><path transform="translate(9.5,6.5)" d="M5.6545277619378895,0A5.6545277619378895,5.6545277619378895,0,1,1,-5.6545277619378895,0A5.6545277619378895,5.6545277619378895,0,1,1,5.6545277619378895,0" style="fill: #4c78a8; stroke: none; stroke-width: 1.5; opacity: 1;"></path></g><g class="mark-text role-legend-label" style="pointer-events: none;"><text text-anchor="start" transform="translate(23,9.5)" style="font-family: sans-serif; font-size: 10px; fill: #000; opacity: 1;">60</text></g></g></g><g transform="translate(0,46)"><path class="background" d="M0,0h48v15.529286250990104h-48Z" style="pointer-events: none; fill: none; opacity: 1;"></path><g><g class="mark-symbol role-legend-symbol" style="pointer-events: none;"><path transform="translate(9.5,7.5)" d="M6.529286250990105,0A6.529286250990105,6.529286250990105,0,1,1,-6.529286250990105,0A6.529286250990105,6.529286250990105,0,1,1,6.529286250990105,0" style="fill: #4c78a8; stroke: none; stroke-width: 1.5; opacity: 1;"></path></g><g class="mark-text role-legend-label" style="pointer-events: none;"><text text-anchor="start" transform="translate(23,10.5)" style="font-family: sans-serif; font-size: 10px; fill: #000; opacity: 1;">80</text></g></g></g><g transform="translate(0,65)"><path class="background" d="M0,0h48v17.29996395088432h-48Z" style="pointer-events: none; fill: none; opacity: 1;"></path><g><g class="mark-symbol role-legend-symbol" style="pointer-events: none;"><path transform="translate(9.5,8.5)" d="M7.299963950884314,0A7.299963950884314,7.299963950884314,0,1,1,-7.299963950884314,0A7.299963950884314,7.299963950884314,0,1,1,7.299963950884314,0" style="fill: #4c78a8; stroke: none; stroke-width: 1.5; opacity: 1;"></path></g><g class="mark-text role-legend-label" style="pointer-events: none;"><text text-anchor="start" transform="translate(23,11.5)" style="font-family: sans-serif; font-size: 10px; fill: #000; opacity: 1;">100</text></g></g></g><g transform="translate(0,86)"><path class="background" d="M0,0h48v18.496709849747745h-48Z" style="pointer-events: none; fill: none; opacity: 1;"></path><g><g class="mark-symbol role-legend-symbol" style="pointer-events: none;"><path transform="translate(9.5,9)" d="M7.996709849747747,0A7.996709849747747,7.996709849747747,0,1,1,-7.996709849747747,0A7.996709849747747,7.996709849747747,0,1,1,7.996709849747747,0" style="fill: #4c78a8; stroke: none; stroke-width: 1.5; opacity: 1;"></path></g><g class="mark-text role-legend-label" style="pointer-events: none;"><text text-anchor="start" transform="translate(23,12)" style="font-family: sans-serif; font-size: 10px; fill: #000; opacity: 1;">120</text></g></g></g><g transform="translate(0,108)"><path class="background" d="M0,0h48v19.63743382943653h-48Z" style="pointer-events: none; fill: none; opacity: 1;"></path><g><g class="mark-symbol role-legend-symbol" style="pointer-events: none;"><path transform="translate(9.5,9.5)" d="M8.637433829436539,0A8.637433829436539,8.637433829436539,0,1,1,-8.637433829436539,0A8.637433829436539,8.637433829436539,0,1,1,8.637433829436539,0" style="fill: #4c78a8; stroke: none; stroke-width: 1.5; opacity: 1;"></path></g><g class="mark-text role-legend-label" style="pointer-events: none;"><text text-anchor="start" transform="translate(23,12.5)" style="font-family: sans-serif; font-size: 10px; fill: #000; opacity: 1;">140</text></g></g></g></g></g></g></g><g class="mark-text role-legend-title" style="pointer-events: none;"><text text-anchor="start" transform="translate(0,9)" style="font-family: sans-serif; font-size: 11px; font-weight: bold; fill: #000; opacity: 1;">Count of Records</text></g></g></g></g><g class="mark-group role-axis"><g transform="translate(0.5,200.5)"><path class="background" d="M0,0h0v0h0Z" style="pointer-events: none; fill: none;"></path><g><g class="mark-rule role-axis-tick" style="pointer-events: none;"><line transform="translate(0,0)" x2="0" y2="5" style="fill: none; stroke: #888; stroke-width: 1; opacity: 1;"></line><line transform="translate(24,0)" x2="0" y2="5" style="fill: none; stroke: #888; stroke-width: 1; opacity: 1;"></line><line transform="translate(47,0)" x2="0" y2="5" style="fill: none; stroke: #888; stroke-width: 1; opacity: 1;"></line><line transform="translate(71,0)" x2="0" y2="5" style="fill: none; stroke: #888; stroke-width: 1; opacity: 1;"></line><line transform="translate(94,0)" x2="0" y2="5" style="fill: none; stroke: #888; stroke-width: 1; opacity: 1;"></line><line transform="translate(118,0)" x2="0" y2="5" style="fill: none; stroke: #888; stroke-width: 1; opacity: 1;"></line><line transform="translate(141,0)" x2="0" y2="5" style="fill: none; stroke: #888; stroke-width: 1; opacity: 1;"></line><line transform="translate(165,0)" x2="0" y2="5" style="fill: none; stroke: #888; stroke-width: 1; opacity: 1;"></line><line transform="translate(188,0)" x2="0" y2="5" style="fill: none; stroke: #888; stroke-width: 1; opacity: 1;"></line></g><g class="mark-text role-axis-label" style="pointer-events: none;"><text text-anchor="start" transform="translate(0,15)" style="font-family: sans-serif; font-size: 10px; fill: #000; opacity: 1;">1</text><text text-anchor="middle" transform="translate(23.52941176470588,15)" style="font-family: sans-serif; font-size: 10px; fill: #000; opacity: 1;">2</text><text text-anchor="middle" transform="translate(47.05882352941176,15)" style="font-family: sans-serif; font-size: 10px; fill: #000; opacity: 1;">3</text><text text-anchor="middle" transform="translate(70.58823529411765,15)" style="font-family: sans-serif; font-size: 10px; fill: #000; opacity: 1;">4</text><text text-anchor="middle" transform="translate(94.11764705882352,15)" style="font-family: sans-serif; font-size: 10px; fill: #000; opacity: 1;">5</text><text text-anchor="middle" transform="translate(117.64705882352942,15)" style="font-family: sans-serif; font-size: 10px; fill: #000; opacity: 1;">6</text><text text-anchor="middle" transform="translate(141.1764705882353,15)" style="font-family: sans-serif; font-size: 10px; fill: #000; opacity: 1;">7</text><text text-anchor="middle" transform="translate(164.70588235294116,15)" style="font-family: sans-serif; font-size: 10px; fill: #000; opacity: 1;">8</text><text text-anchor="middle" transform="translate(188.23529411764704,15)" style="font-family: sans-serif; font-size: 10px; fill: #000; opacity: 1;">9</text></g><g class="mark-rule role-axis-domain" style="pointer-events: none;"><line transform="translate(0,0)" x2="200" y2="0" style="fill: none; stroke: #888; stroke-width: 1; opacity: 1;"></line></g><g class="mark-text role-axis-title" style="pointer-events: none;"><text text-anchor="middle" transform="translate(100,31)" style="font-family: sans-serif; font-size: 11px; font-weight: bold; fill: #000; opacity: 1;">IMDB_Rating (binned)</text></g></g></g></g><g class="mark-group role-axis"><g transform="translate(0.5,0.5)"><path class="background" d="M0,0h0v0h0Z" style="pointer-events: none; fill: none;"></path><g><g class="mark-rule role-axis-tick" style="pointer-events: none;"><line transform="translate(0,200)" x2="-5" y2="0" style="fill: none; stroke: #888; stroke-width: 1; opacity: 1;"></line><line transform="translate(0,160)" x2="-5" y2="0" style="fill: none; stroke: #888; stroke-width: 1; opacity: 1;"></line><line transform="translate(0,120)" x2="-5" y2="0" style="fill: none; stroke: #888; stroke-width: 1; opacity: 1;"></line><line transform="translate(0,80)" x2="-5" y2="0" style="fill: none; stroke: #888; stroke-width: 1; opacity: 1;"></line><line transform="translate(0,40)" x2="-5" y2="0" style="fill: none; stroke: #888; stroke-width: 1; opacity: 1;"></line><line transform="translate(0,0)" x2="-5" y2="0" style="fill: none; stroke: #888; stroke-width: 1; opacity: 1;"></line></g><g class="mark-text role-axis-label" style="pointer-events: none;"><text text-anchor="end" transform="translate(-7,203)" style="font-family: sans-serif; font-size: 10px; fill: #000; opacity: 1;">0</text><text text-anchor="end" transform="translate(-7,163)" style="font-family: sans-serif; font-size: 10px; fill: #000; opacity: 1;">20</text><text text-anchor="end" transform="translate(-7,123)" style="font-family: sans-serif; font-size: 10px; fill: #000; opacity: 1;">40</text><text text-anchor="end" transform="translate(-7,83)" style="font-family: sans-serif; font-size: 10px; fill: #000; opacity: 1;">60</text><text text-anchor="end" transform="translate(-7,43)" style="font-family: sans-serif; font-size: 10px; fill: #000; opacity: 1;">80</text><text text-anchor="end" transform="translate(-7,3)" style="font-family: sans-serif; font-size: 10px; fill: #000; opacity: 1;">100</text></g><g class="mark-rule role-axis-domain" style="pointer-events: none;"><line transform="translate(0,200)" x2="0" y2="-200" style="fill: none; stroke: #888; stroke-width: 1; opacity: 1;"></line></g><g class="mark-text role-axis-title" style="pointer-events: none;"><text text-anchor="middle" transform="translate(-36,100) rotate(-90) translate(0,-2)" style="font-family: sans-serif; font-size: 11px; font-weight: bold; fill: #000; opacity: 1;">Rotten_Tomatoes_Rating (binned)</text></g></g></g></g></g></g></g></g></svg>