<svg xmlns="http://www.w3.org/2000/svg" xmlns:xlink="http://www.w3.org/1999/xlink" version="1.1" class="marks" width="125" height="190" viewBox="0 0 125 190"><rect width="125" height="190" fill="white"/><g fill="none" stroke-miterlimit="10" transform="translate(20,5)"><g class="mark-group role-frame root" role="graphics-object" aria-roledescription="group mark container"><g transform="translate(0,0)"><path class="background" aria-hidden="true" d="M0.5,0.5h20v180h-20Z" stroke="#ddd"/><g><g class="mark-group role-axis" role="graphics-symbol" aria-roledescription="axis" aria-label="Y-axis for a discrete scale with 9 values: 28, 55, 43, 91, 81, ending with 52"><g transform="translate(0.5,0.5)"><path class="background" aria-hidden="true" d="M0,0h0v0h0Z" pointer-events="none"/><g><g class="mark-text role-axis-label" pointer-events="none"><text text-anchor="end" transform="translate(-2,13)" font-family="sans-serif" font-size="10px" fill="#000" opacity="1">28</text><text text-anchor="end" transform="translate(-2,33)" font-family="sans-serif" font-size="10px" fill="#000" opacity="1">55</text><text text-anchor="end" transform="translate(-2,53)" font-family="sans-serif" font-size="10px" fill="#000" opacity="1">43</text><text text-anchor="end" transform="translate(-2,73)" font-family="sans-serif" font-size="10px" fill="#000" opacity="1">91</text><text text-anchor="end" transform="translate(-2,93)" font-family="sans-serif" font-size="10px" fill="#000" opacity="1">81</text><text text-anchor="end" transform="translate(-2,113)" font-family="sans-serif" font-size="10px" fill="#000" opacity="1">53</text><text text-anchor="end" transform="translate(-2,133)" font-family="sans-serif" font-size="10px" fill="#000" opacity="1">19</text><text text-anchor="end" transform="translate(-2,153)" font-family="sans-serif" font-size="10px" fill="#000" opacity="1">87</text><text text-anchor="end" transform="translate(-2,173)" font-family="sans-serif" font-size="10px" fill="#000" opacity="1">52</text></g></g><path class="foreground" aria-hidden="true" d="" pointer-events="none" display="none"/></g></g><g class="mark-symbol role-mark marks" role="graphics-object" aria-roledescription="symbol mark container"><path aria-label="b: 28" role="graphics-symbol" aria-roledescription="circle" transform="translate(10,10)" d="M4.472,0A4.472,4.472,0,1,1,-4.472,0A4.472,4.472,0,1,1,4.472,0" fill="rgb(59, 82, 139)" stroke-width="2" opacity="0.7"/><path aria-label="b: 55" role="graphics-symbol" aria-roledescription="circle" transform="translate(10,30)" d="M7.071,0A7.071,7.071,0,1,1,-7.071,0A7.071,7.071,0,1,1,7.071,0" fill="rgb(33, 145, 141)" stroke-width="2" opacity="0.7"/><path aria-label="b: 43" role="graphics-symbol" aria-roledescription="circle" transform="translate(10,50)" d="M7.071,0A7.071,7.071,0,1,1,-7.071,0A7.071,7.071,0,1,1,7.071,0" fill="rgb(33, 145, 141)" stroke-width="2" opacity="0.7"/><path aria-label="b: 91" role="graphics-symbol" aria-roledescription="circle" transform="translate(10,70)" d="M8.944,0A8.944,8.944,0,1,1,-8.944,0A8.944,8.944,0,1,1,8.944,0" fill="rgb(93, 201, 99)" stroke-width="2" opacity="0.7"/><path aria-label="b: 81" role="graphics-symbol" aria-roledescription="circle" transform="translate(10,90)" d="M8.944,0A8.944,8.944,0,1,1,-8.944,0A8.944,8.944,0,1,1,8.944,0" fill="rgb(93, 201, 99)" stroke-width="2" opacity="0.7"/><path aria-label="b: 53" role="graphics-symbol" aria-roledescription="circle" transform="translate(10,110)" d="M7.071,0A7.071,7.071,0,1,1,-7.071,0A7.071,7.071,0,1,1,7.071,0" fill="rgb(33, 145, 141)" stroke-width="2" opacity="0.7"/><path aria-label="b: 19" role="graphics-symbol" aria-roledescription="circle" transform="translate(10,130)" d="M4.472,0A4.472,4.472,0,1,1,-4.472,0A4.472,4.472,0,1,1,4.472,0" fill="rgb(59, 82, 139)" stroke-width="2" opacity="0.7"/><path aria-label="b: 87" role="graphics-symbol" aria-roledescription="circle" transform="translate(10,150)" d="M8.944,0A8.944,8.944,0,1,1,-8.944,0A8.944,8.944,0,1,1,8.944,0" fill="rgb(93, 201, 99)" stroke-width="2" opacity="0.7"/><path aria-label="b: 52" role="graphics-symbol" aria-roledescription="circle" transform="translate(10,170)" d="M7.071,0A7.071,7.071,0,1,1,-7.071,0A7.071,7.071,0,1,1,7.071,0" fill="rgb(33, 145, 141)" stroke-width="2" opacity="0.7"/></g><g class="mark-group role-legend" role="graphics-symbol" aria-roledescription="legend" aria-label="Symbol legend titled 'Threshold' for size and fill color with 2 boundaries: 30, 70"><g transform="translate(38,0)"><path class="background" aria-hidden="true" d="M0,0h62v66h-62Z" pointer-events="none"/><g><g class="mark-group role-legend-entry"><g transform="translate(0,16)"><path class="background" aria-hidden="true" d="M0,0h0v0h0Z" pointer-events="none"/><g><g class="mark-group role-scope" role="graphics-object" aria-roledescription="group mark container"><g transform="translate(0,0)"><path class="background" aria-hidden="true" d="M0,0h60.806640625v10.5h-60.806640625Z" pointer-events="none" opacity="1"/><g><g class="mark-symbol role-legend-symbol" pointer-events="none"><path transform="translate(10,5.5)" d="M4.472,0A4.472,4.472,0,1,1,-4.472,0A4.472,4.472,0,1,1,4.472,0" fill="rgb(59, 82, 139)" stroke-width="1.5" opacity="0.7"/></g><g class="mark-text role-legend-label" pointer-events="none"><text text-anchor="start" transform="translate(24,8.5)" font-family="sans-serif" font-size="10px" fill="#000" opacity="1">&lt; 30</text></g></g><path class="foreground" aria-hidden="true" d="" pointer-events="none" display="none"/></g><g transform="translate(0,13)"><path class="background" aria-hidden="true" d="M0,0h60.806640625v15.071067811865476h-60.806640625Z" pointer-events="none" opacity="1"/><g><g class="mark-symbol role-legend-symbol" pointer-events="none"><path transform="translate(10,8)" d="M7.071,0A7.071,7.071,0,1,1,-7.071,0A7.071,7.071,0,1,1,7.071,0" fill="rgb(33, 145, 141)" stroke-width="1.5" opacity="0.7"/></g><g class="mark-text role-legend-label" pointer-events="none"><text text-anchor="start" transform="translate(24,11)" font-family="sans-serif" font-size="10px" fill="#000" opacity="1">30 – 70</text></g></g><path class="foreground" aria-hidden="true" d="" pointer-events="none" display="none"/></g><g transform="translate(0,31)"><path class="background" aria-hidden="true" d="M0,0h60.806640625v18.94427190999916h-60.806640625Z" pointer-events="none" opacity="1"/><g><g class="mark-symbol role-legend-symbol" pointer-events="none"><path transform="translate(10,10)" d="M8.944,0A8.944,8.944,0,1,1,-8.944,0A8.944,8.944,0,1,1,8.944,0" fill="rgb(93, 201, 99)" stroke-width="1.5" opacity="0.7"/></g><g class="mark-text role-legend-label" pointer-events="none"><text text-anchor="start" transform="translate(24,13)" font-family="sans-serif" font-size="10px" fill="#000" opacity="1">≥ 70</text></g></g><path class="foreground" aria-hidden="true" d="" pointer-events="none" display="none"/></g></g></g><path class="foreground" aria-hidden="true" d="" pointer-events="none" display="none"/></g></g><g class="mark-text role-legend-title" pointer-events="none"><text text-anchor="start" transform="translate(0,9)" font-family="sans-serif" font-size="11px" font-weight="bold" fill="#000" opacity="1">Threshold</text></g></g><path class="foreground" aria-hidden="true" d="" pointer-events="none" display="none"/></g></g></g><path class="foreground" aria-hidden="true" d="" display="none"/></g></g></g></svg>