<svg class="marks" width="666" height="351" viewBox="0 0 666 351" version="1.1" xmlns="http://www.w3.org/2000/svg" xmlns:xlink="http://www.w3.org/1999/xlink"><defs><clipPath id="clip1"><rect x="0" y="0" width="500" height="300"></rect></clipPath></defs><g transform="translate(52,11)"><g class="mark-group role-frame root"><g transform="translate(0,0)"><path class="background" d="M0.5,0.5h500v300h-500Z" style="fill: none; stroke: #ddd;"></path><g><g class="mark-group role-axis"><g transform="translate(0.5,300.5)"><path class="background" d="M0,0h0v0h0Z" style="pointer-events: none; fill: none;"></path><g><g class="mark-rule role-axis-grid" style="pointer-events: none;"><line transform="translate(0,-300)" x2="0" y2="300" style="fill: none; stroke: #ddd; stroke-width: 1; opacity: 1;"></line><line transform="translate(38,-300)" x2="0" y2="300" style="fill: none; stroke: #ddd; stroke-width: 1; opacity: 1;"></line><line transform="translate(60,-300)" x2="0" y2="300" style="fill: none; stroke: #ddd; stroke-width: 1; opacity: 1;"></line><line transform="translate(75,-300)" x2="0" y2="300" style="fill: none; stroke: #ddd; stroke-width: 1; opacity: 1;"></line><line transform="translate(87,-300)" x2="0" y2="300" style="fill: none; stroke: #ddd; stroke-width: 1; opacity: 1;"></line><line transform="translate(97,-300)" x2="0" y2="300" style="fill: none; stroke: #ddd; stroke-width: 1; opacity: 1;"></line><line transform="translate(106,-300)" x2="0" y2="300" style="fill: none; stroke: #ddd; stroke-width: 1; opacity: 1;"></line><line transform="translate(113,-300)" x2="0" y2="300" style="fill: none; stroke: #ddd; stroke-width: 1; opacity: 1;"></line><line transform="translate(119,-300)" x2="0" y2="300" style="fill: none; stroke: #ddd; stroke-width: 1; opacity: 1;"></line><line transform="translate(125,-300)" x2="0" y2="300" style="fill: none; stroke: #ddd; stroke-width: 1; opacity: 1;"></line><line transform="translate(163,-300)" x2="0" y2="300" style="fill: none; stroke: #ddd; stroke-width: 1; opacity: 1;"></line><line transform="translate(185,-300)" x2="0" y2="300" style="fill: none; stroke: #ddd; stroke-width: 1; opacity: 1;"></line><line transform="translate(200,-300)" x2="0" y2="300" style="fill: none; stroke: #ddd; stroke-width: 1; opacity: 1;"></line><line transform="translate(212,-300)" x2="0" y2="300" style="fill: none; stroke: #ddd; stroke-width: 1; opacity: 1;"></line><line transform="translate(222,-300)" x2="0" y2="300" style="fill: none; stroke: #ddd; stroke-width: 1; opacity: 1;"></line><line transform="translate(231,-300)" x2="0" y2="300" style="fill: none; stroke: #ddd; stroke-width: 1; opacity: 1;"></line><line transform="translate(238,-300)" x2="0" y2="300" style="fill: none; stroke: #ddd; stroke-width: 1; opacity: 1;"></line><line transform="translate(244,-300)" x2="0" y2="300" style="fill: none; stroke: #ddd; stroke-width: 1; opacity: 1;"></line><line transform="translate(250,-300)" x2="0" y2="300" style="fill: none; stroke: #ddd; stroke-width: 1; opacity: 1;"></line><line transform="translate(288,-300)" x2="0" y2="300" style="fill: none; stroke: #ddd; stroke-width: 1; opacity: 1;"></line><line transform="translate(310,-300)" x2="0" y2="300" style="fill: none; stroke: #ddd; stroke-width: 1; opacity: 1;"></line><line transform="translate(325,-300)" x2="0" y2="300" style="fill: none; stroke: #ddd; stroke-width: 1; opacity: 1;"></line><line transform="translate(337,-300)" x2="0" y2="300" style="fill: none; stroke: #ddd; stroke-width: 1; opacity: 1;"></line><line transform="translate(347,-300)" x2="0" y2="300" style="fill: none; stroke: #ddd; stroke-width: 1; opacity: 1;"></line><line transform="translate(356,-300)" x2="0" y2="300" style="fill: none; stroke: #ddd; stroke-width: 1; opacity: 1;"></line><line transform="translate(363,-300)" x2="0" y2="300" style="fill: none; stroke: #ddd; stroke-width: 1; opacity: 1;"></line><line transform="translate(369,-300)" x2="0" y2="300" style="fill: none; stroke: #ddd; stroke-width: 1; opacity: 1;"></line><line transform="translate(375,-300)" x2="0" y2="300" style="fill: none; stroke: #ddd; stroke-width: 1; opacity: 1;"></line><line transform="translate(413,-300)" x2="0" y2="300" style="fill: none; stroke: #ddd; stroke-width: 1; opacity: 1;"></line><line transform="translate(435,-300)" x2="0" y2="300" style="fill: none; stroke: #ddd; stroke-width: 1; opacity: 1;"></line><line transform="translate(450,-300)" x2="0" y2="300" style="fill: none; stroke: #ddd; stroke-width: 1; opacity: 1;"></line><line transform="translate(462,-300)" x2="0" y2="300" style="fill: none; stroke: #ddd; stroke-width: 1; opacity: 1;"></line><line transform="translate(472,-300)" x2="0" y2="300" style="fill: none; stroke: #ddd; stroke-width: 1; opacity: 1;"></line><line transform="translate(481,-300)" x2="0" y2="300" style="fill: none; stroke: #ddd; stroke-width: 1; opacity: 1;"></line><line transform="translate(488,-300)" x2="0" y2="300" style="fill: none; stroke: #ddd; stroke-width: 1; opacity: 1;"></line><line transform="translate(494,-300)" x2="0" y2="300" style="fill: none; stroke: #ddd; stroke-width: 1; opacity: 1;"></line><line transform="translate(500,-300)" x2="0" y2="300" style="fill: none; stroke: #ddd; stroke-width: 1; opacity: 1;"></line></g></g></g></g><g class="mark-group role-axis"><g transform="translate(0.5,0.5)"><path class="background" d="M0,0h0v0h0Z" style="pointer-events: none; fill: none;"></path><g><g class="mark-rule role-axis-grid" style="pointer-events: none;"><line transform="translate(0,300)" x2="500" y2="0" style="fill: none; stroke: #ddd; stroke-width: 1; opacity: 1;"></line><line transform="translate(0,263)" x2="500" y2="0" style="fill: none; stroke: #ddd; stroke-width: 1; opacity: 1;"></line><line transform="translate(0,225)" x2="500" y2="0" style="fill: none; stroke: #ddd; stroke-width: 1; opacity: 1;"></line><line transform="translate(0,188)" x2="500" y2="0" style="fill: none; stroke: #ddd; stroke-width: 1; opacity: 1;"></line><line transform="translate(0,150)" x2="500" y2="0" style="fill: none; stroke: #ddd; stroke-width: 1; opacity: 1;"></line><line transform="translate(0,113)" x2="500" y2="0" style="fill: none; stroke: #ddd; stroke-width: 1; opacity: 1;"></line><line transform="translate(0,75)" x2="500" y2="0" style="fill: none; stroke: #ddd; stroke-width: 1; opacity: 1;"></line><line transform="translate(0,38)" x2="500" y2="0" style="fill: none; stroke: #ddd; stroke-width: 1; opacity: 1;"></line><line transform="translate(0,0)" x2="500" y2="0" style="fill: none; stroke: #ddd; stroke-width: 1; opacity: 1;"></line></g></g></g></g><g class="mark-symbol role-mark marks" clip-path="url(#clip1)"><path transform="translate(160.55384173056493,205.27499999999998)" d="M1.5418782102154527,0A1.5418782102154527,1.5418782102154527,0,1,1,-1.5418782102154527,0A1.5418782102154527,1.5418782102154527,0,1,1,1.5418782102154527,0" style="fill: #000; stroke-width: 2; opacity: 0.7;"></path><path transform="translate(253.26556459318124,67.5)" d="M0.6629149849040505,0A0.6629149849040505,0.6629149849040505,0,1,1,-0.6629149849040505,0A0.6629149849040505,0.6629149849040505,0,1,1,0.6629149849040505,0" style="fill: #000; stroke-width: 2; opacity: 0.7;"></path><path transform="translate(266.02566799533423,63.75)" d="M1.6865274401363124,0A1.6865274401363124,1.6865274401363124,0,1,1,-1.6865274401363124,0A1.6865274401363124,1.6865274401363124,0,1,1,1.6865274401363124,0" style="fill: #000; stroke-width: 2; opacity: 0.7;"></path><path transform="translate(333.52143905262403,6.750000000000057)" d="M0.5045882102517537,0A0.5045882102517537,0.5045882102517537,0,1,1,-0.5045882102517537,0A0.5045882102517537,0.5045882102517537,0,1,1,0.5045882102517537,0" style="fill: #000; stroke-width: 2; opacity: 0.7;"></path><path transform="translate(235.20873845900763,180)" d="M1.373518642347083,0A1.373518642347083,1.373518642347083,0,1,1,-1.373518642347083,0A1.373518642347083,1.373518642347083,0,1,1,1.373518642347083,0" style="fill: #000; stroke-width: 2; opacity: 0.7;"></path><path transform="translate(290.40393351434676,73.49999999999997)" d="M0.5059696870239138,0A0.5059696870239138,0.5059696870239138,0,1,1,-0.5059696870239138,0A0.5059696870239138,0.5059696870239138,0,1,1,0.5059696870239138,0" style="fill: #000; stroke-width: 2; opacity: 0.7;"></path><path transform="translate(279.8936581072866,66)" d="M1.757742211103042,0A1.757742211103042,1.757742211103042,0,1,1,-1.757742211103042,0A1.757742211103042,1.757742211103042,0,1,1,1.757742211103042,0" style="fill: #000; stroke-width: 2; opacity: 0.7;"></path><path transform="translate(236.2536982704271,79.49999999999997)" d="M0.6688590271931635,0A0.6688590271931635,0.6688590271931635,0,1,1,-0.6688590271931635,0A0.6688590271931635,0.6688590271931635,0,1,1,0.6688590271931635,0" style="fill: #000; stroke-width: 2; opacity: 0.7;"></path><path transform="translate(330.50063293415326,24)" d="M1.3482144853982032,0A1.3482144853982032,1.3482144853982032,0,1,1,-1.3482144853982032,0A1.3482144853982032,1.3482144853982032,0,1,1,1.3482144853982032,0" style="fill: #000; stroke-width: 2; opacity: 0.7;"></path><path transform="translate(330.92409392646505,30)" d="M0.8993640307633995,0A0.8993640307633995,0.8993640307633995,0,1,1,-0.8993640307633995,0A0.8993640307633995,0.8993640307633995,0,1,1,0.8993640307633995,0" style="fill: #000; stroke-width: 2; opacity: 0.7;"></path><path transform="translate(278.7613899685933,90.74999999999997)" d="M0.9423135713216265,0A0.9423135713216265,0.9423135713216265,0,1,1,-0.9423135713216265,0A0.9423135713216265,0.9423135713216265,0,1,1,0.9423135713216265,0" style="fill: #000; stroke-width: 2; opacity: 0.7;"></path><path transform="translate(294.78469697440323,95.25000000000003)" d="M0.5247649445507968,0A0.5247649445507968,0.5247649445507968,0,1,1,-0.5247649445507968,0A0.5247649445507968,0.5247649445507968,0,1,1,0.5247649445507968,0" style="fill: #000; stroke-width: 2; opacity: 0.7;"></path><path transform="translate(330.6015812916888,43.5)" d="M0.583161816696444,0A0.583161816696444,0.583161816696444,0,1,1,-0.583161816696444,0A0.583161816696444,0.583161816696444,0,1,1,0.583161816696444,0" style="fill: #000; stroke-width: 2; opacity: 0.7;"></path><path transform="translate(187.47806197994743,111.75000000000006)" d="M3.2832702714001027,0A3.2832702714001027,3.2832702714001027,0,1,1,-3.2832702714001027,0A3.2832702714001027,3.2832702714001027,0,1,1,3.2832702714001027,0" style="fill: #000; stroke-width: 2; opacity: 0.7;"></path><path transform="translate(264.1760633522719,69.00000000000003)" d="M0.5182557116936257,0A0.5182557116936257,0.5182557116936257,0,1,1,-0.5182557116936257,0A0.5182557116936257,0.5182557116936257,0,1,1,0.5182557116936257,0" style="fill: #000; stroke-width: 2; opacity: 0.7;"></path><path transform="translate(280.1154348492818,109.49999999999997)" d="M0.9333119411229985,0A0.9333119411229985,0.9333119411229985,0,1,1,-0.9333119411229985,0A0.9333119411229985,0.9333119411229985,0,1,1,0.9333119411229985,0" style="fill: #000; stroke-width: 2; opacity: 0.7;"></path><path transform="translate(326.91483207643483,34.49999999999994)" d="M0.9944946968939707,0A0.9944946968939707,0.9944946968939707,0,1,1,-0.9944946968939707,0A0.9944946968939707,0.9944946968939707,0,1,1,0.9944946968939707,0" style="fill: #000; stroke-width: 2; opacity: 0.7;"></path><path transform="translate(241.18375202218618,112.5)" d="M0.5229713573563627,0A0.5229713573563627,0.5229713573563627,0,1,1,-0.5229713573563627,0A0.5229713573563627,0.5229713573563627,0,1,1,0.5229713573563627,0" style="fill: #000; stroke-width: 2; opacity: 0.7;"></path><path transform="translate(157.80638621630368,146.25)" d="M0.9806076747404315,0A0.9806076747404315,0.9806076747404315,0,1,1,-0.9806076747404315,0A0.9806076747404315,0.9806076747404315,0,1,1,0.9806076747404315,0" style="fill: #000; stroke-width: 2; opacity: 0.7;"></path><path transform="translate(237.77076615888137,110.99999999999997)" d="M0.5483406653177956,0A0.5483406653177956,0.5483406653177956,0,1,1,-0.5483406653177956,0A0.5483406653177956,0.5483406653177956,0,1,1,0.5483406653177956,0" style="fill: #000; stroke-width: 2; opacity: 0.7;"></path><path transform="translate(224.87446680548516,95.25000000000003)" d="M0.9754207198828851,0A0.9754207198828851,0.9754207198828851,0,1,1,-0.9754207198828851,0A0.9754207198828851,0.9754207198828851,0,1,1,0.9754207198828851,0" style="fill: #000; stroke-width: 2; opacity: 0.7;"></path><path transform="translate(249.08575489526598,53.24999999999997)" d="M0.7065542627566159,0A0.7065542627566159,0.7065542627566159,0,1,1,-0.7065542627566159,0A0.7065542627566159,0.7065542627566159,0,1,1,0.7065542627566159,0" style="fill: #000; stroke-width: 2; opacity: 0.7;"></path><path transform="translate(279.42842955562116,139.49999999999994)" d="M0.6308542148370717,0A0.6308542148370717,0.6308542148370717,0,1,1,-0.6308542148370717,0A0.6308542148370717,0.6308542148370717,0,1,1,0.6308542148370717,0" style="fill: #000; stroke-width: 2; opacity: 0.7;"></path><path transform="translate(273.584427871229,70.50000000000003)" d="M3.7207788025843445,0A3.7207788025843445,3.7207788025843445,0,1,1,-3.7207788025843445,0A3.7207788025843445,3.7207788025843445,0,1,1,3.7207788025843445,0" style="fill: #000; stroke-width: 2; opacity: 0.7;"></path><path transform="translate(357.9175884340208,47.25)" d="M0.526952050169686,0A0.526952050169686,0.526952050169686,0,1,1,-0.526952050169686,0A0.526952050169686,0.526952050169686,0,1,1,0.526952050169686,0" style="fill: #000; stroke-width: 2; opacity: 0.7;"></path><path transform="translate(276.759401062851,75.74999999999994)" d="M0.8471300484037902,0A0.8471300484037902,0.8471300484037902,0,1,1,-0.8471300484037902,0A0.8471300484037902,0.8471300484037902,0,1,1,0.8471300484037902,0" style="fill: #000; stroke-width: 2; opacity: 0.7;"></path><path transform="translate(152.31693815206594,166.50000000000003)" d="M1.197576083379321,0A1.197576083379321,1.197576083379321,0,1,1,-1.197576083379321,0A1.197576083379321,1.197576083379321,0,1,1,1.197576083379321,0" style="fill: #000; stroke-width: 2; opacity: 0.7;"></path><path transform="translate(111.30262735011428,184.5)" d="M0.9905318871426404,0A0.9905318871426404,0.9905318871426404,0,1,1,-0.9905318871426404,0A0.9905318871426404,0.9905318871426404,0,1,1,0.9905318871426404,0" style="fill: #000; stroke-width: 2; opacity: 0.7;"></path><path transform="translate(189.26864180942965,124.49999999999994)" d="M1.1264399839730286,0A1.1264399839730286,1.1264399839730286,0,1,1,-1.1264399839730286,0A1.1264399839730286,1.1264399839730286,0,1,1,1.1264399839730286,0" style="fill: #000; stroke-width: 2; opacity: 0.7;"></path><path transform="translate(182.7435619004702,191.25)" d="M1.332973317631797,0A1.332973317631797,1.332973317631797,0,1,1,-1.332973317631797,0A1.332973317631797,1.332973317631797,0,1,1,1.332973317631797,0" style="fill: #000; stroke-width: 2; opacity: 0.7;"></path><path transform="translate(329.5534641011966,24.75)" d="M1.6126494843968011,0A1.6126494843968011,1.6126494843968011,0,1,1,-1.6126494843968011,0A1.6126494843968011,1.6126494843968011,0,1,1,1.6126494843968011,0" style="fill: #000; stroke-width: 2; opacity: 0.7;"></path><path transform="translate(226.73096927860675,78.00000000000003)" d="M0.5329570820652546,0A0.5329570820652546,0.5329570820652546,0,1,1,-0.5329570820652546,0A0.5329570820652546,0.5329570820652546,0,1,1,0.5329570820652546,0" style="fill: #000; stroke-width: 2; opacity: 0.7;"></path><path transform="translate(97.17835279866391,234.00000000000003)" d="M0.7553149724819609,0A0.7553149724819609,0.7553149724819609,0,1,1,-0.7553149724819609,0A0.7553149724819609,0.7553149724819609,0,1,1,0.7553149724819609,0" style="fill: #000; stroke-width: 2; opacity: 0.7;"></path><path transform="translate(167.58029719508812,204.75)" d="M1.0807941284757416,0A1.0807941284757416,1.0807941284757416,0,1,1,-1.0807941284757416,0A1.0807941284757416,1.0807941284757416,0,1,1,1.0807941284757416,0" style="fill: #000; stroke-width: 2; opacity: 0.7;"></path><path transform="translate(293.93830286613047,42.75)" d="M1.1932694108121922,0A1.1932694108121922,1.1932694108121922,0,1,1,-1.1932694108121922,0A1.1932694108121922,1.1932694108121922,0,1,1,1.1932694108121922,0" style="fill: #000; stroke-width: 2; opacity: 0.7;"></path><path transform="translate(265.62005634869314,60.74999999999997)" d="M9.5,0A9.5,9.5,0,1,1,-9.5,0A9.5,9.5,0,1,1,9.5,0" style="fill: #000; stroke-width: 2; opacity: 0.7;"></path><path transform="translate(263.2355885836541,69.00000000000003)" d="M1.8450966160625517,0A1.8450966160625517,1.8450966160625517,0,1,1,-1.8450966160625517,0A1.8450966160625517,1.8450966160625517,0,1,1,1.8450966160625517,0" style="fill: #000; stroke-width: 2; opacity: 0.7;"></path><path transform="translate(145.988476250185,156.75000000000003)" d="M0.5491537729003803,0A0.5491537729003803,0.5491537729003803,0,1,1,-0.5491537729003803,0A0.5491537729003803,0.5491537729003803,0,1,1,0.5491537729003803,0" style="fill: #000; stroke-width: 2; opacity: 0.7;"></path><path transform="translate(113.49356520153403,200.25000000000003)" d="M2.302956568060453,0A2.302956568060453,2.302956568060453,0,1,1,-2.302956568060453,0A2.302956568060453,2.302956568060453,0,1,1,2.302956568060453,0" style="fill: #000; stroke-width: 2; opacity: 0.7;"></path><path transform="translate(224.22379808635228,173.25)" d="M0.7430955983008252,0A0.7430955983008252,0.7430955983008252,0,1,1,-0.7430955983008252,0A0.7430955983008252,0.7430955983008252,0,1,1,0.7430955983008252,0" style="fill: #000; stroke-width: 2; opacity: 0.7;"></path><path transform="translate(268.77545359535094,37.5)" d="M0.7513027008138782,0A0.7513027008138782,0.7513027008138782,0,1,1,-0.7513027008138782,0A0.7513027008138782,0.7513027008138782,0,1,1,0.7513027008138782,0" style="fill: #000; stroke-width: 2; opacity: 0.7;"></path><path transform="translate(192.86873110177234,185.025)" d="M1.3171132574261661,0A1.3171132574261661,1.3171132574261661,0,1,1,-1.3171132574261661,0A1.3171132574261661,1.3171132574261661,0,1,1,1.3171132574261661,0" style="fill: #000; stroke-width: 2; opacity: 0.7;"></path><path transform="translate(288.32993012803263,52.5)" d="M0.7261793516862558,0A0.7261793516862558,0.7261793516862558,0,1,1,-0.7261793516862558,0A0.7261793516862558,0.7261793516862558,0,1,1,0.7261793516862558,0" style="fill: #000; stroke-width: 2; opacity: 0.7;"></path><path transform="translate(291.0245074935686,48.75)" d="M0.997461939325798,0A0.997461939325798,0.997461939325798,0,1,1,-0.997461939325798,0A0.997461939325798,0.997461939325798,0,1,1,0.997461939325798,0" style="fill: #000; stroke-width: 2; opacity: 0.7;"></path><path transform="translate(309.27156761929916,18.000000000000057)" d="M0.571153253574384,0A0.571153253574384,0.571153253574384,0,1,1,-0.571153253574384,0A0.571153253574384,0.571153253574384,0,1,1,0.571153253574384,0" style="fill: #000; stroke-width: 2; opacity: 0.7;"></path><path transform="translate(308.6116934823269,48.00000000000006)" d="M0.9693159412944322,0A0.9693159412944322,0.9693159412944322,0,1,1,-0.9693159412944322,0A0.9693159412944322,0.9693159412944322,0,1,1,0.9693159412944322,0" style="fill: #000; stroke-width: 2; opacity: 0.7;"></path><path transform="translate(329.80491689744355,36.75000000000006)" d="M0.7878986360487297,0A0.7878986360487297,0.7878986360487297,0,1,1,-0.7878986360487297,0A0.7878986360487297,0.7878986360487297,0,1,1,0.7878986360487297,0" style="fill: #000; stroke-width: 2; opacity: 0.7;"></path><path transform="translate(187.0989144625053,152.77500000000003)" d="M0.5550407537076906,0A0.5550407537076906,0.5550407537076906,0,1,1,-0.5550407537076906,0A0.5550407537076906,0.5550407537076906,0,1,1,0.5550407537076906,0" style="fill: #000; stroke-width: 2; opacity: 0.7;"></path><path transform="translate(252.6641706855869,78.00000000000003)" d="M0.5047312254937476,0A0.5047312254937476,0.5047312254937476,0,1,1,-0.5047312254937476,0A0.5047312254937476,0.5047312254937476,0,1,1,0.5047312254937476,0" style="fill: #000; stroke-width: 2; opacity: 0.7;"></path><path transform="translate(263.5579426504494,84)" d="M0.9688166659618231,0A0.9688166659618231,0.9688166659618231,0,1,1,-0.9688166659618231,0A0.9688166659618231,0.9688166659618231,0,1,1,0.9688166659618231,0" style="fill: #000; stroke-width: 2; opacity: 0.7;"></path><path transform="translate(255.15434139642883,73.49999999999997)" d="M1.1427670004671449,0A1.1427670004671449,1.1427670004671449,0,1,1,-1.1427670004671449,0A1.1427670004671449,1.1427670004671449,0,1,1,1.1427670004671449,0" style="fill: #000; stroke-width: 2; opacity: 0.7;"></path><path transform="translate(255.32686057356557,102.75)" d="M2.4970090587451224,0A2.4970090587451224,2.4970090587451224,0,1,1,-2.4970090587451224,0A2.4970090587451224,2.4970090587451224,0,1,1,2.4970090587451224,0" style="fill: #000; stroke-width: 2; opacity: 0.7;"></path><path transform="translate(236.34453148977724,81.75000000000006)" d="M0.8066641302537615,0A0.8066641302537615,0.8066641302537615,0,1,1,-0.8066641302537615,0A0.8066641302537615,0.8066641302537615,0,1,1,0.8066641302537615,0" style="fill: #000; stroke-width: 2; opacity: 0.7;"></path><path transform="translate(311.5723516484916,182.77499999999998)" d="M0.5525132159832852,0A0.5525132159832852,0.5525132159832852,0,1,1,-0.5525132159832852,0A0.5525132159832852,0.5525132159832852,0,1,1,0.5525132159832852,0" style="fill: #000; stroke-width: 2; opacity: 0.7;"></path><path transform="translate(131.586742740621,165.75)" d="M0.769364570622103,0A0.769364570622103,0.769364570622103,0,1,1,-0.769364570622103,0A0.769364570622103,0.769364570622103,0,1,1,0.769364570622103,0" style="fill: #000; stroke-width: 2; opacity: 0.7;"></path><path transform="translate(303.54115134021106,61.50000000000003)" d="M0.579523422366892,0A0.579523422366892,0.579523422366892,0,1,1,-0.579523422366892,0A0.579523422366892,0.579523422366892,0,1,1,0.579523422366892,0" style="fill: #000; stroke-width: 2; opacity: 0.7;"></path><path transform="translate(147.73044849309656,160.5)" d="M2.5981949990556084,0A2.5981949990556084,2.5981949990556084,0,1,1,-2.5981949990556084,0A2.5981949990556084,2.5981949990556084,0,1,1,2.5981949990556084,0" style="fill: #000; stroke-width: 2; opacity: 0.7;"></path><path transform="translate(237.37490886122364,140.25)" d="M0.5552931044039341,0A0.5552931044039341,0.5552931044039341,0,1,1,-0.5552931044039341,0A0.5552931044039341,0.5552931044039341,0,1,1,0.5552931044039341,0" style="fill: #000; stroke-width: 2; opacity: 0.7;"></path><path transform="translate(323.775788280328,31.5)" d="M0.7809940338284548,0A0.7809940338284548,0.7809940338284548,0,1,1,-0.7809940338284548,0A0.7809940338284548,0.7809940338284548,0,1,1,0.7809940338284548,0" style="fill: #000; stroke-width: 2; opacity: 0.7;"></path><path transform="translate(321.8970367986132,23.249999999999943)" d="M2.112286681481222,0A2.112286681481222,2.112286681481222,0,1,1,-2.112286681481222,0A2.112286681481222,2.112286681481222,0,1,1,2.112286681481222,0" style="fill: #000; stroke-width: 2; opacity: 0.7;"></path><path transform="translate(283.76786432070566,183.52499999999998)" d="M0.6023637771604218,0A0.6023637771604218,0.6023637771604218,0,1,1,-0.6023637771604218,0A0.6023637771604218,0.6023637771604218,0,1,1,0.6023637771604218,0" style="fill: #000; stroke-width: 2; opacity: 0.7;"></path><path transform="translate(151.98772665050396,149.25000000000006)" d="M0.6166163216460716,0A0.6166163216460716,0.6166163216460716,0,1,1,-0.6166163216460716,0A0.6166163216460716,0.6166163216460716,0,1,1,0.6166163216460716,0" style="fill: #000; stroke-width: 2; opacity: 0.7;"></path><path transform="translate(234.19413668920234,87.75000000000003)" d="M0.7152665974165112,0A0.7152665974165112,0.7152665974165112,0,1,1,-0.7152665974165112,0A0.7152665974165112,0.7152665974165112,0,1,1,0.7152665974165112,0" style="fill: #000; stroke-width: 2; opacity: 0.7;"></path><path transform="translate(330.4969361397105,29.250000000000057)" d="M2.351043613816167,0A2.351043613816167,2.351043613816167,0,1,1,-2.351043613816167,0A2.351043613816167,2.351043613816167,0,1,1,2.351043613816167,0" style="fill: #000; stroke-width: 2; opacity: 0.7;"></path><path transform="translate(201.58473978956272,146.25)" d="M1.4292426204694462,0A1.4292426204694462,1.4292426204694462,0,1,1,-1.4292426204694462,0A1.4292426204694462,1.4292426204694462,0,1,1,1.4292426204694462,0" style="fill: #000; stroke-width: 2; opacity: 0.7;"></path><path transform="translate(300.6682950219636,39.00000000000006)" d="M0.9830986190363724,0A0.9830986190363724,0.9830986190363724,0,1,1,-0.9830986190363724,0A0.9830986190363724,0.9830986190363724,0,1,1,0.9830986190363724,0" style="fill: #000; stroke-width: 2; opacity: 0.7;"></path><path transform="translate(258.0244794830803,99.74999999999997)" d="M0.5069387061322922,0A0.5069387061322922,0.5069387061322922,0,1,1,-0.5069387061322922,0A0.5069387061322922,0.5069387061322922,0,1,1,0.5069387061322922,0" style="fill: #000; stroke-width: 2; opacity: 0.7;"></path><path transform="translate(232.75896492249922,89.25000000000003)" d="M1.1484343534621146,0A1.1484343534621146,1.1484343534621146,0,1,1,-1.1484343534621146,0A1.1484343534621146,1.1484343534621146,0,1,1,1.1484343534621146,0" style="fill: #000; stroke-width: 2; opacity: 0.7;"></path><path transform="translate(136.0170110875689,181.50000000000003)" d="M1.0366582949684613,0A1.0366582949684613,1.0366582949684613,0,1,1,-1.0366582949684613,0A1.0366582949684613,1.0366582949684613,0,1,1,1.0366582949684613,0" style="fill: #000; stroke-width: 2; opacity: 0.7;"></path><path transform="translate(142.7204037844735,237)" d="M0.6087917803171218,0A0.6087917803171218,0.6087917803171218,0,1,1,-0.6087917803171218,0A0.6087917803171218,0.6087917803171218,0,1,1,0.6087917803171218,0" style="fill: #000; stroke-width: 2; opacity: 0.7;"></path><path transform="translate(229.19119771983046,154.49999999999994)" d="M0.547878568867315,0A0.547878568867315,0.547878568867315,0,1,1,-0.547878568867315,0A0.547878568867315,0.547878568867315,0,1,1,0.547878568867315,0" style="fill: #000; stroke-width: 2; opacity: 0.7;"></path><path transform="translate(154.12451379901924,147.75000000000003)" d="M0.974963379904696,0A0.974963379904696,0.974963379904696,0,1,1,-0.974963379904696,0A0.974963379904696,0.974963379904696,0,1,1,0.974963379904696,0" style="fill: #000; stroke-width: 2; opacity: 0.7;"></path><path transform="translate(203.80348437812796,94.49999999999994)" d="M0.8821261111453447,0A0.8821261111453447,0.8821261111453447,0,1,1,-0.8821261111453447,0A0.8821261111453447,0.8821261111453447,0,1,1,0.8821261111453447,0" style="fill: #000; stroke-width: 2; opacity: 0.7;"></path><path transform="translate(297.9769207475539,66)" d="M0.9458141115670685,0A0.9458141115670685,0.9458141115670685,0,1,1,-0.9458141115670685,0A0.9458141115670685,0.9458141115670685,0,1,1,0.9458141115670685,0" style="fill: #000; stroke-width: 2; opacity: 0.7;"></path><path transform="translate(328.1408959189494,16.5)" d="M0.521100687915494,0A0.521100687915494,0.521100687915494,0,1,1,-0.521100687915494,0A0.521100687915494,0.521100687915494,0,1,1,0.521100687915494,0" style="fill: #000; stroke-width: 2; opacity: 0.7;"></path><path transform="translate(221.38409790264933,136.50000000000003)" d="M9.273553867171834,0A9.273553867171834,9.273553867171834,0,1,1,-9.273553867171834,0A9.273553867171834,9.273553867171834,0,1,1,9.273553867171834,0" style="fill: #000; stroke-width: 2; opacity: 0.7;"></path><path transform="translate(252.66933913517786,105.74999999999994)" d="M4.134715379124442,0A4.134715379124442,4.134715379124442,0,1,1,-4.134715379124442,0A4.134715379124442,4.134715379124442,0,1,1,4.134715379124442,0" style="fill: #000; stroke-width: 2; opacity: 0.7;"></path><path transform="translate(274.0465354498139,48.75)" d="M2.3289727941030662,0A2.3289727941030662,2.3289727941030662,0,1,1,-2.3289727941030662,0A2.3289727941030662,2.3289727941030662,0,1,1,2.3289727941030662,0" style="fill: #000; stroke-width: 2; opacity: 0.7;"></path><path transform="translate(270.71487872510403,96.75000000000003)" d="M1.622423931969452,0A1.622423931969452,1.622423931969452,0,1,1,-1.622423931969452,0A1.622423931969452,1.622423931969452,0,1,1,1.622423931969452,0" style="fill: #000; stroke-width: 2; opacity: 0.7;"></path><path transform="translate(334.8807664005523,34.49999999999994)" d="M0.7460880739340225,0A0.7460880739340225,0.7460880739340225,0,1,1,-0.7460880739340225,0A0.7460880739340225,0.7460880739340225,0,1,1,0.7460880739340225,0" style="fill: #000; stroke-width: 2; opacity: 0.7;"></path><path transform="translate(312.4437032381436,19.499999999999943)" d="M0.8817173328787417,0A0.8817173328787417,0.8817173328787417,0,1,1,-0.8817173328787417,0A0.8817173328787417,0.8817173328787417,0,1,1,0.8817173328787417,0" style="fill: #000; stroke-width: 2; opacity: 0.7;"></path><path transform="translate(315.30063826434974,21.750000000000057)" d="M2.0398643778380543,0A2.0398643778380543,2.0398643778380543,0,1,1,-2.0398643778380543,0A2.0398643778380543,2.0398643778380543,0,1,1,2.0398643778380543,0" style="fill: #000; stroke-width: 2; opacity: 0.7;"></path><path transform="translate(241.85016771831707,71.25)" d="M0.657797156441992,0A0.657797156441992,0.657797156441992,0,1,1,-0.657797156441992,0A0.657797156441992,0.657797156441992,0,1,1,0.657797156441992,0" style="fill: #000; stroke-width: 2; opacity: 0.7;"></path><path transform="translate(319.7815552314444,11.25)" d="M2.920358585875725,0A2.920358585875725,2.920358585875725,0,1,1,-2.920358585875725,0A2.920358585875725,2.920358585875725,0,1,1,2.920358585875725,0" style="fill: #000; stroke-width: 2; opacity: 0.7;"></path><path transform="translate(258.763972847775,50.25000000000003)" d="M0.8641288626149951,0A0.8641288626149951,0.8641288626149951,0,1,1,-0.8641288626149951,0A0.8641288626149951,0.8641288626149951,0,1,1,0.8641288626149951,0" style="fill: #000; stroke-width: 2; opacity: 0.7;"></path><path transform="translate(296.30950994303674,125.99999999999997)" d="M1.184386653128083,0A1.184386653128083,1.184386653128083,0,1,1,-1.184386653128083,0A1.184386653128083,1.184386653128083,0,1,1,1.184386653128083,0" style="fill: #000; stroke-width: 2; opacity: 0.7;"></path><path transform="translate(182.76229764189443,137.77500000000003)" d="M1.8060741683121146,0A1.8060741683121146,1.8060741683121146,0,1,1,-1.8060741683121146,0A1.8060741683121146,1.8060741683121146,0,1,1,1.8060741683121146,0" style="fill: #000; stroke-width: 2; opacity: 0.7;"></path><path transform="translate(157.62810424904967,169.50000000000003)" d="M0.507299701367759,0A0.507299701367759,0.507299701367759,0,1,1,-0.507299701367759,0A0.507299701367759,0.507299701367759,0,1,1,0.507299701367759,0" style="fill: #000; stroke-width: 2; opacity: 0.7;"></path><path transform="translate(364.6441900188487,32.25)" d="M0.7103255737685318,0A0.7103255737685318,0.7103255737685318,0,1,1,-0.7103255737685318,0A0.7103255737685318,0.7103255737685318,0,1,1,0.7103255737685318,0" style="fill: #000; stroke-width: 2; opacity: 0.7;"></path><path transform="translate(188.9018376420485,120)" d="M0.7990626619875114,0A0.7990626619875114,0.7990626619875114,0,1,1,-0.7990626619875114,0A0.7990626619875114,0.7990626619875114,0,1,1,0.7990626619875114,0" style="fill: #000; stroke-width: 2; opacity: 0.7;"></path><path transform="translate(214.62555088006835,139.49999999999994)" d="M0.8335969866065919,0A0.8335969866065919,0.8335969866065919,0,1,1,-0.8335969866065919,0A0.8335969866065919,0.8335969866065919,0,1,1,0.8335969866065919,0" style="fill: #000; stroke-width: 2; opacity: 0.7;"></path><path transform="translate(295.8775356122196,69.74999999999997)" d="M0.6155323385129804,0A0.6155323385129804,0.6155323385129804,0,1,1,-0.6155323385129804,0A0.6155323385129804,0.6155323385129804,0,1,1,0.6155323385129804,0" style="fill: #000; stroke-width: 2; opacity: 0.7;"></path><path transform="translate(278.96554791606457,48.75)" d="M0.7954029169432215,0A0.7954029169432215,0.7954029169432215,0,1,1,-0.7954029169432215,0A0.7954029169432215,0.7954029169432215,0,1,1,0.7954029169432215,0" style="fill: #000; stroke-width: 2; opacity: 0.7;"></path><path transform="translate(176.8298933421261,273.75)" d="M0.624211796931469,0A0.624211796931469,0.624211796931469,0,1,1,-0.624211796931469,0A0.624211796931469,0.624211796931469,0,1,1,0.624211796931469,0" style="fill: #000; stroke-width: 2; opacity: 0.7;"></path><path transform="translate(122.67068863481806,158.25)" d="M0.7379334575852821,0A0.7379334575852821,0.7379334575852821,0,1,1,-0.7379334575852821,0A0.7379334575852821,0.7379334575852821,0,1,1,0.7379334575852821,0" style="fill: #000; stroke-width: 2; opacity: 0.7;"></path><path transform="translate(279.6332440694255,66)" d="M0.8127970486037761,0A0.8127970486037761,0.8127970486037761,0,1,1,-0.8127970486037761,0A0.8127970486037761,0.8127970486037761,0,1,1,0.8127970486037761,0" style="fill: #000; stroke-width: 2; opacity: 0.7;"></path><path transform="translate(303.2426985023619,71.99999999999997)" d="M0.6620128946097611,0A0.6620128946097611,0.6620128946097611,0,1,1,-0.6620128946097611,0A0.6620128946097611,0.6620128946097611,0,1,1,0.6620128946097611,0" style="fill: #000; stroke-width: 2; opacity: 0.7;"></path><path transform="translate(368.2536944602122,29.250000000000057)" d="M0.535809323610231,0A0.535809323610231,0.535809323610231,0,1,1,-0.535809323610231,0A0.535809323610231,0.535809323610231,0,1,1,0.535809323610231,0" style="fill: #000; stroke-width: 2; opacity: 0.7;"></path><path transform="translate(262.31748724910767,60)" d="M0.6212410898854,0A0.6212410898854,0.6212410898854,0,1,1,-0.6212410898854,0A0.6212410898854,0.6212410898854,0,1,1,0.6212410898854,0" style="fill: #000; stroke-width: 2; opacity: 0.7;"></path><path transform="translate(143.2660044597797,152.24999999999997)" d="M1.3546612895382515,0A1.3546612895382515,1.3546612895382515,0,1,1,-1.3546612895382515,0A1.3546612895382515,1.3546612895382515,0,1,1,1.3546612895382515,0" style="fill: #000; stroke-width: 2; opacity: 0.7;"></path><path transform="translate(112.81834741424892,185.85000000000002)" d="M1.1730116068849459,0A1.1730116068849459,1.1730116068849459,0,1,1,-1.1730116068849459,0A1.1730116068849459,1.1730116068849459,0,1,1,1.1730116068849459,0" style="fill: #000; stroke-width: 2; opacity: 0.7;"></path><path transform="translate(298.24544632508713,74.25000000000006)" d="M1.494586534131878,0A1.494586534131878,1.494586534131878,0,1,1,-1.494586534131878,0A1.494586534131878,1.494586534131878,0,1,1,1.494586534131878,0" style="fill: #000; stroke-width: 2; opacity: 0.7;"></path><path transform="translate(269.82546247643455,41.25)" d="M0.5232445498399815,0A0.5232445498399815,0.5232445498399815,0,1,1,-0.5232445498399815,0A0.5232445498399815,0.5232445498399815,0,1,1,0.5232445498399815,0" style="fill: #000; stroke-width: 2; opacity: 0.7;"></path><path transform="translate(153.29276089545382,205.5)" d="M1.1836814742889494,0A1.1836814742889494,1.1836814742889494,0,1,1,-1.1836814742889494,0A1.1836814742889494,1.1836814742889494,0,1,1,1.1836814742889494,0" style="fill: #000; stroke-width: 2; opacity: 0.7;"></path><path transform="translate(310.11758478107134,21.750000000000057)" d="M0.5266715911910315,0A0.5266715911910315,0.5266715911910315,0,1,1,-0.5266715911910315,0A0.5266715911910315,0.5266715911910315,0,1,1,0.5266715911910315,0" style="fill: #000; stroke-width: 2; opacity: 0.7;"></path><path transform="translate(195.44996611019135,149.25000000000006)" d="M0.5034540581192228,0A0.5034540581192228,0.5034540581192228,0,1,1,-0.5034540581192228,0A0.5034540581192228,0.5034540581192228,0,1,1,0.5034540581192228,0" style="fill: #000; stroke-width: 2; opacity: 0.7;"></path><path transform="translate(198.56197512590123,144.74999999999997)" d="M0.7183575720010352,0A0.7183575720010352,0.7183575720010352,0,1,1,-0.7183575720010352,0A0.7183575720010352,0.7183575720010352,0,1,1,0.7183575720010352,0" style="fill: #000; stroke-width: 2; opacity: 0.7;"></path><path transform="translate(282.9545085735135,83.24999999999994)" d="M0.5772988703424182,0A0.5772988703424182,0.5772988703424182,0,1,1,-0.5772988703424182,0A0.5772988703424182,0.5772988703424182,0,1,1,0.5772988703424182,0" style="fill: #000; stroke-width: 2; opacity: 0.7;"></path><path transform="translate(278.32498815091964,78.75)" d="M2.9253234224379914,0A2.9253234224379914,2.9253234224379914,0,1,1,-2.9253234224379914,0A2.9253234224379914,2.9253234224379914,0,1,1,2.9253234224379914,0" style="fill: #000; stroke-width: 2; opacity: 0.7;"></path><path transform="translate(193.16338955822798,135)" d="M0.5067861183743817,0A0.5067861183743817,0.5067861183743817,0,1,1,-0.5067861183743817,0A0.5067861183743817,0.5067861183743817,0,1,1,0.5067861183743817,0" style="fill: #000; stroke-width: 2; opacity: 0.7;"></path><path transform="translate(211.23017614218807,92.24999999999997)" d="M0.7184182525869989,0A0.7184182525869989,0.7184182525869989,0,1,1,-0.7184182525869989,0A0.7184182525869989,0.7184182525869989,0,1,1,0.7184182525869989,0" style="fill: #000; stroke-width: 2; opacity: 0.7;"></path><path transform="translate(259.07259158111873,147.75000000000003)" d="M0.665988832225279,0A0.665988832225279,0.665988832225279,0,1,1,-0.665988832225279,0A0.665988832225279,0.665988832225279,0,1,1,0.665988832225279,0" style="fill: #000; stroke-width: 2; opacity: 0.7;"></path><path transform="translate(271.4036245906314,69.00000000000003)" d="M0.5393783342971157,0A0.5393783342971157,0.5393783342971157,0,1,1,-0.5393783342971157,0A0.5393783342971157,0.5393783342971157,0,1,1,0.5393783342971157,0" style="fill: #000; stroke-width: 2; opacity: 0.7;"></path><path transform="translate(233.05646839477288,77.24999999999997)" d="M1.580648312346205,0A1.580648312346205,1.580648312346205,0,1,1,-1.580648312346205,0A1.580648312346205,1.580648312346205,0,1,1,1.580648312346205,0" style="fill: #000; stroke-width: 2; opacity: 0.7;"></path><path transform="translate(133.80091521751496,214.5)" d="M1.4421797209201548,0A1.4421797209201548,1.4421797209201548,0,1,1,-1.4421797209201548,0A1.4421797209201548,1.4421797209201548,0,1,1,1.4421797209201548,0" style="fill: #000; stroke-width: 2; opacity: 0.7;"></path><path transform="translate(200.42011554354755,128.24999999999997)" d="M1.9429679649851535,0A1.9429679649851535,1.9429679649851535,0,1,1,-1.9429679649851535,0A1.9429679649851535,1.9429679649851535,0,1,1,1.9429679649851535,0" style="fill: #000; stroke-width: 2; opacity: 0.7;"></path><path transform="translate(250.21671410112506,180)" d="M0.6409515710670524,0A0.6409515710670524,0.6409515710670524,0,1,1,-0.6409515710670524,0A0.6409515710670524,0.6409515710670524,0,1,1,0.6409515710670524,0" style="fill: #000; stroke-width: 2; opacity: 0.7;"></path><path transform="translate(171.4296646755126,103.5)" d="M1.4542794019961125,0A1.4542794019961125,1.4542794019961125,0,1,1,-1.4542794019961125,0A1.4542794019961125,1.4542794019961125,0,1,1,1.4542794019961125,0" style="fill: #000; stroke-width: 2; opacity: 0.7;"></path><path transform="translate(332.5892166125415,33.00000000000006)" d="M1.1648901509036478,0A1.1648901509036478,1.1648901509036478,0,1,1,-1.1648901509036478,0A1.1648901509036478,1.1648901509036478,0,1,1,1.1648901509036478,0" style="fill: #000; stroke-width: 2; opacity: 0.7;"></path><path transform="translate(316.73103603641766,33.00000000000006)" d="M0.7390444233549761,0A0.7390444233549761,0.7390444233549761,0,1,1,-0.7390444233549761,0A0.7390444233549761,0.7390444233549761,0,1,1,0.7390444233549761,0" style="fill: #000; stroke-width: 2; opacity: 0.7;"></path><path transform="translate(209.15066022238062,61.50000000000003)" d="M0.8048559973434457,0A0.8048559973434457,0.8048559973434457,0,1,1,-0.8048559973434457,0A0.8048559973434457,0.8048559973434457,0,1,1,0.8048559973434457,0" style="fill: #000; stroke-width: 2; opacity: 0.7;"></path><path transform="translate(121.81396159216604,170.99999999999997)" d="M1.245590215978609,0A1.245590215978609,1.245590215978609,0,1,1,-1.245590215978609,0A1.245590215978609,1.245590215978609,0,1,1,1.245590215978609,0" style="fill: #000; stroke-width: 2; opacity: 0.7;"></path><path transform="translate(219.74089788916615,177.52500000000003)" d="M3.4881020082785033,0A3.4881020082785033,3.4881020082785033,0,1,1,-3.4881020082785033,0A3.4881020082785033,3.4881020082785033,0,1,1,3.4881020082785033,0" style="fill: #000; stroke-width: 2; opacity: 0.7;"></path><path transform="translate(142.87685003176188,101.99999999999994)" d="M1.3766897664936704,0A1.3766897664936704,1.3766897664936704,0,1,1,-1.3766897664936704,0A1.3766897664936704,1.3766897664936704,0,1,1,1.3766897664936704,0" style="fill: #000; stroke-width: 2; opacity: 0.7;"></path><path transform="translate(351.02974860599494,25.500000000000057)" d="M0.768649123261594,0A0.768649123261594,0.768649123261594,0,1,1,-0.768649123261594,0A0.768649123261594,0.768649123261594,0,1,1,0.768649123261594,0" style="fill: #000; stroke-width: 2; opacity: 0.7;"></path><path transform="translate(335.4101552263206,69.74999999999997)" d="M0.7373616914703605,0A0.7373616914703605,0.7373616914703605,0,1,1,-0.7373616914703605,0A0.7373616914703605,0.7373616914703605,0,1,1,0.7373616914703605,0" style="fill: #000; stroke-width: 2; opacity: 0.7;"></path><path transform="translate(209.5066405814839,138.75)" d="M3.550572535372459,0A3.550572535372459,3.550572535372459,0,1,1,-3.550572535372459,0A3.550572535372459,3.550572535372459,0,1,1,3.550572535372459,0" style="fill: #000; stroke-width: 2; opacity: 0.7;"></path><path transform="translate(288.9294960361451,50.99999999999997)" d="M0.7120281548744779,0A0.7120281548744779,0.7120281548744779,0,1,1,-0.7120281548744779,0A0.7120281548744779,0.7120281548744779,0,1,1,0.7120281548744779,0" style="fill: #000; stroke-width: 2; opacity: 0.7;"></path><path transform="translate(175.36860366805058,183)" d="M0.8650659084788805,0A0.8650659084788805,0.8650659084788805,0,1,1,-0.8650659084788805,0A0.8650659084788805,0.8650659084788805,0,1,1,0.8650659084788805,0" style="fill: #000; stroke-width: 2; opacity: 0.7;"></path><path transform="translate(239.3523725559341,83.24999999999994)" d="M0.8271816720257852,0A0.8271816720257852,0.8271816720257852,0,1,1,-0.8271816720257852,0A0.8271816720257852,0.8271816720257852,0,1,1,0.8271816720257852,0" style="fill: #000; stroke-width: 2; opacity: 0.7;"></path><path transform="translate(259.4570541997417,56.25)" d="M1.5172936864435325,0A1.5172936864435325,1.5172936864435325,0,1,1,-1.5172936864435325,0A1.5172936864435325,1.5172936864435325,0,1,1,1.5172936864435325,0" style="fill: #000; stroke-width: 2; opacity: 0.7;"></path><path transform="translate(229.66698350187684,110.99999999999997)" d="M2.61461444993187,0A2.61461444993187,2.61461444993187,0,1,1,-2.61461444993187,0A2.61461444993187,2.61461444993187,0,1,1,2.61461444993187,0" style="fill: #000; stroke-width: 2; opacity: 0.7;"></path><path transform="translate(299.277995846546,57.75000000000003)" d="M1.665950445384881,0A1.665950445384881,1.665950445384881,0,1,1,-1.665950445384881,0A1.665950445384881,1.665950445384881,0,1,1,1.665950445384881,0" style="fill: #000; stroke-width: 2; opacity: 0.7;"></path><path transform="translate(302.77652137927794,39.00000000000006)" d="M0.9627695708456221,0A0.9627695708456221,0.9627695708456221,0,1,1,-0.9627695708456221,0A0.9627695708456221,0.9627695708456221,0,1,1,0.9627695708456221,0" style="fill: #000; stroke-width: 2; opacity: 0.7;"></path><path transform="translate(390.43122679624224,22.5)" d="M0.6294462742866432,0A0.6294462742866432,0.6294462742866432,0,1,1,-0.6294462742866432,0A0.6294462742866432,0.6294462742866432,0,1,1,0.6294462742866432,0" style="fill: #000; stroke-width: 2; opacity: 0.7;"></path><path transform="translate(285.4211352394316,61.50000000000003)" d="M1.2353668784410838,0A1.2353668784410838,1.2353668784410838,0,1,1,-1.2353668784410838,0A1.2353668784410838,1.2353668784410838,0,1,1,1.2353668784410838,0" style="fill: #000; stroke-width: 2; opacity: 0.7;"></path><path transform="translate(295.3055967426318,89.02500000000003)" d="M3.1036671155292264,0A3.1036671155292264,3.1036671155292264,0,1,1,-3.1036671155292264,0A3.1036671155292264,3.1036671155292264,0,1,1,3.1036671155292264,0" style="fill: #000; stroke-width: 2; opacity: 0.7;"></path><path transform="translate(148.75642721990073,138.525)" d="M1.004652251063617,0A1.004652251063617,1.004652251063617,0,1,1,-1.004652251063617,0A1.004652251063617,1.004652251063617,0,1,1,1.004652251063617,0" style="fill: #000; stroke-width: 2; opacity: 0.7;"></path><path transform="translate(218.1148178051691,95.99999999999997)" d="M0.5124822043548843,0A0.5124822043548843,0.5124822043548843,0,1,1,-0.5124822043548843,0A0.5124822043548843,0.5124822043548843,0,1,1,0.5124822043548843,0" style="fill: #000; stroke-width: 2; opacity: 0.7;"></path><path transform="translate(184.69441652487262,121.5)" d="M0.51229813855683,0A0.51229813855683,0.51229813855683,0,1,1,-0.51229813855683,0A0.51229813855683,0.51229813855683,0,1,1,0.51229813855683,0" style="fill: #000; stroke-width: 2; opacity: 0.7;"></path><path transform="translate(339.9878483892376,51.75000000000003)" d="M1.5208178730522641,0A1.5208178730522641,1.5208178730522641,0,1,1,-1.5208178730522641,0A1.5208178730522641,1.5208178730522641,0,1,1,1.5208178730522641,0" style="fill: #000; stroke-width: 2; opacity: 0.7;"></path><path transform="translate(169.046936875065,141.75000000000006)" d="M1.1133394858798344,0A1.1133394858798344,1.1133394858798344,0,1,1,-1.1133394858798344,0A1.1133394858798344,1.1133394858798344,0,1,1,1.1133394858798344,0" style="fill: #000; stroke-width: 2; opacity: 0.7;"></path><path transform="translate(263.85736959148335,51.75000000000003)" d="M0.9104366673477162,0A0.9104366673477162,0.9104366673477162,0,1,1,-0.9104366673477162,0A0.9104366673477162,0.9104366673477162,0,1,1,0.9104366673477162,0" style="fill: #000; stroke-width: 2; opacity: 0.7;"></path><path transform="translate(301.20783265555707,84.75)" d="M0.5062703349251452,0A0.5062703349251452,0.5062703349251452,0,1,1,-0.5062703349251452,0A0.5062703349251452,0.5062703349251452,0,1,1,0.5062703349251452,0" style="fill: #000; stroke-width: 2; opacity: 0.7;"></path><path transform="translate(164.88825741372204,198.75)" d="M0.8197976843413453,0A0.8197976843413453,0.8197976843413453,0,1,1,-0.8197976843413453,0A0.8197976843413453,0.8197976843413453,0,1,1,0.8197976843413453,0" style="fill: #000; stroke-width: 2; opacity: 0.7;"></path><path transform="translate(363.4223887483626,21.750000000000057)" d="M0.7851819250517972,0A0.7851819250517972,0.7851819250517972,0,1,1,-0.7851819250517972,0A0.7851819250517972,0.7851819250517972,0,1,1,0.7851819250517972,0" style="fill: #000; stroke-width: 2; opacity: 0.7;"></path><path transform="translate(304.32909577176775,64.49999999999994)" d="M0.77775478608121,0A0.77775478608121,0.77775478608121,0,1,1,-0.77775478608121,0A0.77775478608121,0.77775478608121,0,1,1,0.77775478608121,0" style="fill: #000; stroke-width: 2; opacity: 0.7;"></path><path transform="translate(306.95076407273336,35.99999999999994)" d="M0.6206656226564169,0A0.6206656226564169,0.6206656226564169,0,1,1,-0.6206656226564169,0A0.6206656226564169,0.6206656226564169,0,1,1,0.6206656226564169,0" style="fill: #000; stroke-width: 2; opacity: 0.7;"></path><path transform="translate(163.88973033281317,156.75000000000003)" d="M0.5368142745031045,0A0.5368142745031045,0.5368142745031045,0,1,1,-0.5368142745031045,0A0.5368142745031045,0.5368142745031045,0,1,1,0.5368142745031045,0" style="fill: #000; stroke-width: 2; opacity: 0.7;"></path><path transform="translate(99.39807371030298,197.24999999999997)" d="M0.977510493833636,0A0.977510493833636,0.977510493833636,0,1,1,-0.977510493833636,0A0.977510493833636,0.977510493833636,0,1,1,0.977510493833636,0" style="fill: #000; stroke-width: 2; opacity: 0.7;"></path><path transform="translate(262.1528240649876,159.60000000000002)" d="M1.952927533882403,0A1.952927533882403,1.952927533882403,0,1,1,-1.952927533882403,0A1.952927533882403,1.952927533882403,0,1,1,1.952927533882403,0" style="fill: #000; stroke-width: 2; opacity: 0.7;"></path><path transform="translate(317.45350374104316,32.25)" d="M1.881335906576439,0A1.881335906576439,1.881335906576439,0,1,1,-1.881335906576439,0A1.881335906576439,1.881335906576439,0,1,1,1.881335906576439,0" style="fill: #000; stroke-width: 2; opacity: 0.7;"></path><path transform="translate(185.48405677783418,202.5)" d="M1.0281444885868485,0A1.0281444885868485,1.0281444885868485,0,1,1,-1.0281444885868485,0A1.0281444885868485,1.0281444885868485,0,1,1,1.0281444885868485,0" style="fill: #000; stroke-width: 2; opacity: 0.7;"></path><path transform="translate(314.77968533614336,24.75)" d="M1.8073664811726204,0A1.8073664811726204,1.8073664811726204,0,1,1,-1.8073664811726204,0A1.8073664811726204,1.8073664811726204,0,1,1,1.8073664811726204,0" style="fill: #000; stroke-width: 2; opacity: 0.7;"></path><path transform="translate(253.28600775299276,63.75)" d="M1.2668298963660143,0A1.2668298963660143,1.2668298963660143,0,1,1,-1.2668298963660143,0A1.2668298963660143,1.2668298963660143,0,1,1,1.2668298963660143,0" style="fill: #000; stroke-width: 2; opacity: 0.7;"></path><path transform="translate(249.98371151353345,78.75)" d="M0.5119568291492945,0A0.5119568291492945,0.5119568291492945,0,1,1,-0.5119568291492945,0A0.5119568291492945,0.5119568291492945,0,1,1,0.5119568291492945,0" style="fill: #000; stroke-width: 2; opacity: 0.7;"></path><path transform="translate(252.31155667518408,90.74999999999997)" d="M0.5071087889576468,0A0.5071087889576468,0.5071087889576468,0,1,1,-0.5071087889576468,0A0.5071087889576468,0.5071087889576468,0,1,1,0.5071087889576468,0" style="fill: #000; stroke-width: 2; opacity: 0.7;"></path><path transform="translate(199.9171416240611,116.25)" d="M1.697512412215976,0A1.697512412215976,1.697512412215976,0,1,1,-1.697512412215976,0A1.697512412215976,1.697512412215976,0,1,1,1.697512412215976,0" style="fill: #000; stroke-width: 2; opacity: 0.7;"></path><path transform="translate(279.2038225205579,108.75)" d="M0.5343342493525282,0A0.5343342493525282,0.5343342493525282,0,1,1,-0.5343342493525282,0A0.5343342493525282,0.5343342493525282,0,1,1,0.5343342493525282,0" style="fill: #000; stroke-width: 2; opacity: 0.7;"></path><path transform="translate(223.12171374430008,251.25)" d="M0.5780776962297832,0A0.5780776962297832,0.5780776962297832,0,1,1,-0.5780776962297832,0A0.5780776962297832,0.5780776962297832,0,1,1,0.5780776962297832,0" style="fill: #000; stroke-width: 2; opacity: 0.7;"></path><path transform="translate(331.5211192807287,22.5)" d="M0.943196659390751,0A0.943196659390751,0.943196659390751,0,1,1,-0.943196659390751,0A0.943196659390751,0.943196659390751,0,1,1,0.943196659390751,0" style="fill: #000; stroke-width: 2; opacity: 0.7;"></path><path transform="translate(343.6377730911334,15.749999999999943)" d="M0.8903769718493635,0A0.8903769718493635,0.8903769718493635,0,1,1,-0.8903769718493635,0A0.8903769718493635,0.8903769718493635,0,1,1,0.8903769718493635,0" style="fill: #000; stroke-width: 2; opacity: 0.7;"></path><path transform="translate(208.27963698697553,110.54999999999995)" d="M1.208364122748753,0A1.208364122748753,1.208364122748753,0,1,1,-1.208364122748753,0A1.208364122748753,1.208364122748753,0,1,1,1.208364122748753,0" style="fill: #000; stroke-width: 2; opacity: 0.7;"></path><path transform="translate(176.49452974130017,105)" d="M0.8970801305953863,0A0.8970801305953863,0.8970801305953863,0,1,1,-0.8970801305953863,0A0.8970801305953863,0.8970801305953863,0,1,1,0.8970801305953863,0" style="fill: #000; stroke-width: 2; opacity: 0.7;"></path><path transform="translate(176.26275958035757,161.775)" d="M1.9357722295999402,0A1.9357722295999402,1.9357722295999402,0,1,1,-1.9357722295999402,0A1.9357722295999402,1.9357722295999402,0,1,1,1.9357722295999402,0" style="fill: #000; stroke-width: 2; opacity: 0.7;"></path><path transform="translate(270.2159087145025,74.25000000000006)" d="M2.16676212684356,0A2.16676212684356,2.16676212684356,0,1,1,-2.16676212684356,0A2.16676212684356,2.16676212684356,0,1,1,2.16676212684356,0" style="fill: #000; stroke-width: 2; opacity: 0.7;"></path><path transform="translate(164.914288011314,94.49999999999994)" d="M0.5722666691219491,0A0.5722666691219491,0.5722666691219491,0,1,1,-0.5722666691219491,0A0.5722666691219491,0.5722666691219491,0,1,1,0.5722666691219491,0" style="fill: #000; stroke-width: 2; opacity: 0.7;"></path><path transform="translate(144.53077379966805,155.77499999999998)" d="M0.8530846207399515,0A0.8530846207399515,0.8530846207399515,0,1,1,-0.8530846207399515,0A0.8530846207399515,0.8530846207399515,0,1,1,0.8530846207399515,0" style="fill: #000; stroke-width: 2; opacity: 0.7;"></path><path transform="translate(213.11528640292522,108.75)" d="M0.5068964506968799,0A0.5068964506968799,0.5068964506968799,0,1,1,-0.5068964506968799,0A0.5068964506968799,0.5068964506968799,0,1,1,0.5068964506968799,0" style="fill: #000; stroke-width: 2; opacity: 0.7;"></path><path transform="translate(309.8442530182374,101.99999999999994)" d="M0.5821993473919505,0A0.5821993473919505,0.5821993473919505,0,1,1,-0.5821993473919505,0A0.5821993473919505,0.5821993473919505,0,1,1,0.5821993473919505,0" style="fill: #000; stroke-width: 2; opacity: 0.7;"></path><path transform="translate(255.7923819506011,57.75000000000003)" d="M0.9929928321578866,0A0.9929928321578866,0.9929928321578866,0,1,1,-0.9929928321578866,0A0.9929928321578866,0.9929928321578866,0,1,1,0.9929928321578866,0" style="fill: #000; stroke-width: 2; opacity: 0.7;"></path><path transform="translate(285.86316912154683,63.75)" d="M2.322737847176419,0A2.322737847176419,2.322737847176419,0,1,1,-2.322737847176419,0A2.322737847176419,2.322737847176419,0,1,1,2.322737847176419,0" style="fill: #000; stroke-width: 2; opacity: 0.7;"></path><path transform="translate(275.05500955455386,128.24999999999997)" d="M0.7755333774491275,0A0.7755333774491275,0.7755333774491275,0,1,1,-0.7755333774491275,0A0.7755333774491275,0.7755333774491275,0,1,1,0.7755333774491275,0" style="fill: #000; stroke-width: 2; opacity: 0.7;"></path><path transform="translate(153.16366021573285,181.50000000000003)" d="M1.6741861793031934,0A1.6741861793031934,1.6741861793031934,0,1,1,-1.6741861793031934,0A1.6741861793031934,1.6741861793031934,0,1,1,1.6741861793031934,0" style="fill: #000; stroke-width: 2; opacity: 0.7;"></path><path transform="translate(240.85066376395073,96.75000000000003)" d="M1.783727187044415,0A1.783727187044415,1.783727187044415,0,1,1,-1.783727187044415,0A1.783727187044415,1.783727187044415,0,1,1,1.783727187044415,0" style="fill: #000; stroke-width: 2; opacity: 0.7;"></path><path transform="translate(347.94239166639375,63.00000000000006)" d="M0.9213620153916958,0A0.9213620153916958,0.9213620153916958,0,1,1,-0.9213620153916958,0A0.9213620153916958,0.9213620153916958,0,1,1,0.9213620153916958,0" style="fill: #000; stroke-width: 2; opacity: 0.7;"></path><path transform="translate(322.7934367605447,26.999999999999943)" d="M2.117242292710425,0A2.117242292710425,2.117242292710425,0,1,1,-2.117242292710425,0A2.117242292710425,2.117242292710425,0,1,1,2.117242292710425,0" style="fill: #000; stroke-width: 2; opacity: 0.7;"></path><path transform="translate(340.8958730563007,44.25000000000006)" d="M4.6147038725961425,0A4.6147038725961425,4.6147038725961425,0,1,1,-4.6147038725961425,0A4.6147038725961425,4.6147038725961425,0,1,1,4.6147038725961425,0" style="fill: #000; stroke-width: 2; opacity: 0.7;"></path><path transform="translate(288.804799351981,57.75000000000003)" d="M0.6887958006391831,0A0.6887958006391831,0.6887958006391831,0,1,1,-0.6887958006391831,0A0.6887958006391831,0.6887958006391831,0,1,1,0.6887958006391831,0" style="fill: #000; stroke-width: 2; opacity: 0.7;"></path><path transform="translate(218.50411176626793,111.75000000000006)" d="M1.4849825355154669,0A1.4849825355154669,1.4849825355154669,0,1,1,-1.4849825355154669,0A1.4849825355154669,1.4849825355154669,0,1,1,1.4849825355154669,0" style="fill: #000; stroke-width: 2; opacity: 0.7;"></path><path transform="translate(183.02392133012492,150)" d="M0.5170197980039112,0A0.5170197980039112,0.5170197980039112,0,1,1,-0.5170197980039112,0A0.5170197980039112,0.5170197980039112,0,1,1,0.5170197980039112,0" style="fill: #000; stroke-width: 2; opacity: 0.7;"></path><path transform="translate(274.6704091258399,69.00000000000003)" d="M1.511493728764436,0A1.511493728764436,1.511493728764436,0,1,1,-1.511493728764436,0A1.511493728764436,1.511493728764436,0,1,1,1.511493728764436,0" style="fill: #000; stroke-width: 2; opacity: 0.7;"></path><path transform="translate(218.74601043867537,63.75)" d="M2.5222822345475726,0A2.5222822345475726,2.5222822345475726,0,1,1,-2.5222822345475726,0A2.5222822345475726,2.5222822345475726,0,1,1,2.5222822345475726,0" style="fill: #000; stroke-width: 2; opacity: 0.7;"></path><path transform="translate(204.4229005059373,73.49999999999997)" d="M0.7452109677560842,0A0.7452109677560842,0.7452109677560842,0,1,1,-0.7452109677560842,0A0.7452109677560842,0.7452109677560842,0,1,1,0.7452109677560842,0" style="fill: #000; stroke-width: 2; opacity: 0.7;"></path><path transform="translate(198.70181757890828,130.50000000000006)" d="M1.4159631494335136,0A1.4159631494335136,1.4159631494335136,0,1,1,-1.4159631494335136,0A1.4159631494335136,1.4159631494335136,0,1,1,1.4159631494335136,0" style="fill: #000; stroke-width: 2; opacity: 0.7;"></path><path transform="translate(200.71698673459332,195.3)" d="M1.1446942615431326,0A1.1446942615431326,1.1446942615431326,0,1,1,-1.1446942615431326,0A1.1446942615431326,1.1446942615431326,0,1,1,1.1446942615431326,0" style="fill: #000; stroke-width: 2; opacity: 0.7;"></path><path transform="translate(156.93921410244167,187.425)" d="M1.1271612457248479,0A1.1271612457248479,1.1271612457248479,0,1,1,-1.1271612457248479,0A1.1271612457248479,1.1271612457248479,0,1,1,1.1271612457248479,0" style="fill: #000; stroke-width: 2; opacity: 0.7;"></path></g><g class="mark-group role-legend"><g transform="translate(518,0)"><path class="background" d="M0,0h91v141h-91Z" style="pointer-events: none; fill: none;"></path><g><g class="mark-group role-legend-entry"><g transform="translate(0,16)"><path class="background" d="M0,0h0v0h0Z" style="pointer-events: none; fill: none;"></path><g><g class="mark-symbol role-legend-symbol" style="pointer-events: none;"><path transform="translate(9,5)" d="M0.5,0A0.5,0.5,0,1,1,-0.5,0A0.5,0.5,0,1,1,0.5,0" style="fill: #000; stroke: none; stroke-width: 1.5; opacity: 0.7;"></path><path transform="translate(9,20)" d="M3.651154621856364,0A3.651154621856364,3.651154621856364,0,1,1,-3.651154621856364,0A3.651154621856364,3.651154621856364,0,1,1,3.651154621856364,0" style="fill: #000; stroke: none; stroke-width: 1.5; opacity: 0.7;"></path><path transform="translate(9,35.5)" d="M5.139247040706078,0A5.139247040706078,5.139247040706078,0,1,1,-5.139247040706078,0A5.139247040706078,5.139247040706078,0,1,1,5.139247040706078,0" style="fill: #000; stroke: none; stroke-width: 1.5; opacity: 0.7;"></path><path transform="translate(9,52.5)" d="M6.2843289393625215,0A6.2843289393625215,6.2843289393625215,0,1,1,-6.2843289393625215,0A6.2843289393625215,6.2843289393625215,0,1,1,6.2843289393625215,0" style="fill: #000; stroke: none; stroke-width: 1.5; opacity: 0.7;"></path><path transform="translate(9,71.5)" d="M7.250773771868238,0A7.250773771868238,7.250773771868238,0,1,1,-7.250773771868238,0A7.250773771868238,7.250773771868238,0,1,1,7.250773771868238,0" style="fill: #000; stroke: none; stroke-width: 1.5; opacity: 0.7;"></path><path transform="translate(9,92.5)" d="M8.102755726511534,0A8.102755726511534,8.102755726511534,0,1,1,-8.102755726511534,0A8.102755726511534,8.102755726511534,0,1,1,8.102755726511534,0" style="fill: #000; stroke: none; stroke-width: 1.5; opacity: 0.7;"></path><path transform="translate(9,115)" d="M8.873307187076222,0A8.873307187076222,8.873307187076222,0,1,1,-8.873307187076222,0A8.873307187076222,8.873307187076222,0,1,1,8.873307187076222,0" style="fill: #000; stroke: none; stroke-width: 1.5; opacity: 0.7;"></path></g><g class="mark-text role-legend-label" style="pointer-events: none;"><text text-anchor="start" transform="translate(26,8)" style="font: 10px sans-serif; fill: #000; opacity: 1;">0</text><text text-anchor="start" transform="translate(26,23)" style="font: 10px sans-serif; fill: #000; opacity: 1;">200,000,000</text><text text-anchor="start" transform="translate(26,38.5)" style="font: 10px sans-serif; fill: #000; opacity: 1;">400,000,000</text><text text-anchor="start" transform="translate(26,55.5)" style="font: 10px sans-serif; fill: #000; opacity: 1;">600,000,000</text><text text-anchor="start" transform="translate(26,74.5)" style="font: 10px sans-serif; fill: #000; opacity: 1;">800,000,000</text><text text-anchor="start" transform="translate(26,95.5)" style="font: 10px sans-serif; fill: #000; opacity: 1;">1,000,000,000</text><text text-anchor="start" transform="translate(26,118)" style="font: 10px sans-serif; fill: #000; opacity: 1;">1,200,000,000</text></g></g></g></g><g class="mark-text role-legend-title" style="pointer-events: none;"><text text-anchor="start" transform="translate(0,9)" style="font: bold 11px sans-serif; fill: #000; opacity: 1;">population</text></g></g></g></g><g class="mark-group role-axis"><g transform="translate(0.5,300.5)"><path class="background" d="M0,0h0v0h0Z" style="pointer-events: none; fill: none;"></path><g><g class="mark-rule role-axis-tick" style="pointer-events: none;"><line transform="translate(0,0)" x2="0" y2="5" style="fill: none; stroke: #888; stroke-width: 1; opacity: 1;"></line><line transform="translate(38,0)" x2="0" y2="5" style="fill: none; stroke: #888; stroke-width: 1; opacity: 1;"></line><line transform="translate(60,0)" x2="0" y2="5" style="fill: none; stroke: #888; stroke-width: 1; opacity: 1;"></line><line transform="translate(75,0)" x2="0" y2="5" style="fill: none; stroke: #888; stroke-width: 1; opacity: 1;"></line><line transform="translate(87,0)" x2="0" y2="5" style="fill: none; stroke: #888; stroke-width: 1; opacity: 1;"></line><line transform="translate(97,0)" x2="0" y2="5" style="fill: none; stroke: #888; stroke-width: 1; opacity: 1;"></line><line transform="translate(106,0)" x2="0" y2="5" style="fill: none; stroke: #888; stroke-width: 1; opacity: 1;"></line><line transform="translate(113,0)" x2="0" y2="5" style="fill: none; stroke: #888; stroke-width: 1; opacity: 1;"></line><line transform="translate(119,0)" x2="0" y2="5" style="fill: none; stroke: #888; stroke-width: 1; opacity: 1;"></line><line transform="translate(125,0)" x2="0" y2="5" style="fill: none; stroke: #888; stroke-width: 1; opacity: 1;"></line><line transform="translate(163,0)" x2="0" y2="5" style="fill: none; stroke: #888; stroke-width: 1; opacity: 1;"></line><line transform="translate(185,0)" x2="0" y2="5" style="fill: none; stroke: #888; stroke-width: 1; opacity: 1;"></line><line transform="translate(200,0)" x2="0" y2="5" style="fill: none; stroke: #888; stroke-width: 1; opacity: 1;"></line><line transform="translate(212,0)" x2="0" y2="5" style="fill: none; stroke: #888; stroke-width: 1; opacity: 1;"></line><line transform="translate(222,0)" x2="0" y2="5" style="fill: none; stroke: #888; stroke-width: 1; opacity: 1;"></line><line transform="translate(231,0)" x2="0" y2="5" style="fill: none; stroke: #888; stroke-width: 1; opacity: 1;"></line><line transform="translate(238,0)" x2="0" y2="5" style="fill: none; stroke: #888; stroke-width: 1; opacity: 1;"></line><line transform="translate(244,0)" x2="0" y2="5" style="fill: none; stroke: #888; stroke-width: 1; opacity: 1;"></line><line transform="translate(250,0)" x2="0" y2="5" style="fill: none; stroke: #888; stroke-width: 1; opacity: 1;"></line><line transform="translate(288,0)" x2="0" y2="5" style="fill: none; stroke: #888; stroke-width: 1; opacity: 1;"></line><line transform="translate(310,0)" x2="0" y2="5" style="fill: none; stroke: #888; stroke-width: 1; opacity: 1;"></line><line transform="translate(325,0)" x2="0" y2="5" style="fill: none; stroke: #888; stroke-width: 1; opacity: 1;"></line><line transform="translate(337,0)" x2="0" y2="5" style="fill: none; stroke: #888; stroke-width: 1; opacity: 1;"></line><line transform="translate(347,0)" x2="0" y2="5" style="fill: none; stroke: #888; stroke-width: 1; opacity: 1;"></line><line transform="translate(356,0)" x2="0" y2="5" style="fill: none; stroke: #888; stroke-width: 1; opacity: 1;"></line><line transform="translate(363,0)" x2="0" y2="5" style="fill: none; stroke: #888; stroke-width: 1; opacity: 1;"></line><line transform="translate(369,0)" x2="0" y2="5" style="fill: none; stroke: #888; stroke-width: 1; opacity: 1;"></line><line transform="translate(375,0)" x2="0" y2="5" style="fill: none; stroke: #888; stroke-width: 1; opacity: 1;"></line><line transform="translate(413,0)" x2="0" y2="5" style="fill: none; stroke: #888; stroke-width: 1; opacity: 1;"></line><line transform="translate(435,0)" x2="0" y2="5" style="fill: none; stroke: #888; stroke-width: 1; opacity: 1;"></line><line transform="translate(450,0)" x2="0" y2="5" style="fill: none; stroke: #888; stroke-width: 1; opacity: 1;"></line><line transform="translate(462,0)" x2="0" y2="5" style="fill: none; stroke: #888; stroke-width: 1; opacity: 1;"></line><line transform="translate(472,0)" x2="0" y2="5" style="fill: none; stroke: #888; stroke-width: 1; opacity: 1;"></line><line transform="translate(481,0)" x2="0" y2="5" style="fill: none; stroke: #888; stroke-width: 1; opacity: 1;"></line><line transform="translate(488,0)" x2="0" y2="5" style="fill: none; stroke: #888; stroke-width: 1; opacity: 1;"></line><line transform="translate(494,0)" x2="0" y2="5" style="fill: none; stroke: #888; stroke-width: 1; opacity: 1;"></line><line transform="translate(500,0)" x2="0" y2="5" style="fill: none; stroke: #888; stroke-width: 1; opacity: 1;"></line></g><g class="mark-text role-axis-label" style="pointer-events: none;"><text text-anchor="start" transform="translate(0,15)" style="font: 10px sans-serif; fill: #000; opacity: 1;">100</text><text text-anchor="middle" transform="translate(37.62874945799764,15)" style="font: 10px sans-serif; fill: #000; opacity: 1;">200</text><text text-anchor="middle" transform="translate(59.64015683995779,15)" style="font: 10px sans-serif; fill: #000; opacity: 1;"></text><text text-anchor="middle" transform="translate(75.25749891599528,15)" style="font: 10px sans-serif; fill: #000; opacity: 1;"></text><text text-anchor="middle" transform="translate(87.37125054200234,15)" style="font: 10px sans-serif; fill: #000; opacity: 1;"></text><text text-anchor="middle" transform="translate(97.26890629795544,15)" style="font: 10px sans-serif; fill: #000; opacity: 1;"></text><text text-anchor="middle" transform="translate(105.6372550017821,15)" style="font: 10px sans-serif; fill: #000; opacity: 1;"></text><text text-anchor="middle" transform="translate(112.88624837399293,15)" style="font: 10px sans-serif; fill: #000; opacity: 1;"></text><text text-anchor="middle" transform="translate(119.28031367991561,15)" style="font: 10px sans-serif; fill: #000; opacity: 1;"></text><text text-anchor="middle" transform="translate(125,15)" style="font: 10px sans-serif; fill: #000; opacity: 1;">1,000</text><text text-anchor="middle" transform="translate(162.62874945799763,15)" style="font: 10px sans-serif; fill: #000; opacity: 1;">2,000</text><text text-anchor="middle" transform="translate(184.6401568399578,15)" style="font: 10px sans-serif; fill: #000; opacity: 1;"></text><text text-anchor="middle" transform="translate(200.25749891599528,15)" style="font: 10px sans-serif; fill: #000; opacity: 1;"></text><text text-anchor="middle" transform="translate(212.37125054200231,15)" style="font: 10px sans-serif; fill: #000; opacity: 1;"></text><text text-anchor="middle" transform="translate(222.26890629795543,15)" style="font: 10px sans-serif; fill: #000; opacity: 1;"></text><text text-anchor="middle" transform="translate(230.6372550017821,15)" style="font: 10px sans-serif; fill: #000; opacity: 1;"></text><text text-anchor="middle" transform="translate(237.8862483739929,15)" style="font: 10px sans-serif; fill: #000; opacity: 1;"></text><text text-anchor="middle" transform="translate(244.2803136799156,15)" style="font: 10px sans-serif; fill: #000; opacity: 1;"></text><text text-anchor="middle" transform="translate(250,15)" style="font: 10px sans-serif; fill: #000; opacity: 1;">10,000</text><text text-anchor="middle" transform="translate(287.6287494579976,15)" style="font: 10px sans-serif; fill: #000; opacity: 1;">20,000</text><text text-anchor="middle" transform="translate(309.6401568399578,15)" style="font: 10px sans-serif; fill: #000; opacity: 1;"></text><text text-anchor="middle" transform="translate(325.25749891599526,15)" style="font: 10px sans-serif; fill: #000; opacity: 1;"></text><text text-anchor="middle" transform="translate(337.3712505420023,15)" style="font: 10px sans-serif; fill: #000; opacity: 1;"></text><text text-anchor="middle" transform="translate(347.2689062979554,15)" style="font: 10px sans-serif; fill: #000; opacity: 1;"></text><text text-anchor="middle" transform="translate(355.6372550017821,15)" style="font: 10px sans-serif; fill: #000; opacity: 1;"></text><text text-anchor="middle" transform="translate(362.88624837399294,15)" style="font: 10px sans-serif; fill: #000; opacity: 1;"></text><text text-anchor="middle" transform="translate(369.2803136799156,15)" style="font: 10px sans-serif; fill: #000; opacity: 1;"></text><text text-anchor="middle" transform="translate(374.99999999999994,15)" style="font: 10px sans-serif; fill: #000; opacity: 1;">100,000</text><text text-anchor="middle" transform="translate(412.6287494579976,15)" style="font: 10px sans-serif; fill: #000; opacity: 1;">200,000</text><text text-anchor="middle" transform="translate(434.64015683995774,15)" style="font: 10px sans-serif; fill: #000; opacity: 1;"></text><text text-anchor="middle" transform="translate(450.25749891599526,15)" style="font: 10px sans-serif; fill: #000; opacity: 1;"></text><text text-anchor="middle" transform="translate(462.3712505420024,15)" style="font: 10px sans-serif; fill: #000; opacity: 1;"></text><text text-anchor="middle" transform="translate(472.26890629795537,15)" style="font: 10px sans-serif; fill: #000; opacity: 1;"></text><text text-anchor="middle" transform="translate(480.6372550017821,15)" style="font: 10px sans-serif; fill: #000; opacity: 1;"></text><text text-anchor="middle" transform="translate(487.88624837399294,15)" style="font: 10px sans-serif; fill: #000; opacity: 1;"></text><text text-anchor="middle" transform="translate(494.2803136799156,15)" style="font: 10px sans-serif; fill: #000; opacity: 1;"></text><text text-anchor="end" transform="translate(500,15)" style="font: 10px sans-serif; fill: #000; opacity: 1;">1,000,000</text></g><g class="mark-rule role-axis-domain" style="pointer-events: none;"><line transform="translate(0,0)" x2="500" y2="0" style="fill: none; stroke: #888; stroke-width: 1; opacity: 1;"></line></g><g class="mark-text role-axis-title" style="pointer-events: none;"><text text-anchor="middle" transform="translate(250,31)" style="font: bold 11px sans-serif; fill: #000; opacity: 1;">income</text></g></g></g></g><g class="mark-group role-axis"><g transform="translate(0.5,0.5)"><path class="background" d="M0,0h0v0h0Z" style="pointer-events: none; fill: none;"></path><g><g class="mark-rule role-axis-tick" style="pointer-events: none;"><line transform="translate(0,300)" x2="-5" y2="0" style="fill: none; stroke: #888; stroke-width: 1; opacity: 1;"></line><line transform="translate(0,263)" x2="-5" y2="0" style="fill: none; stroke: #888; stroke-width: 1; opacity: 1;"></line><line transform="translate(0,225)" x2="-5" y2="0" style="fill: none; stroke: #888; stroke-width: 1; opacity: 1;"></line><line transform="translate(0,188)" x2="-5" y2="0" style="fill: none; stroke: #888; stroke-width: 1; opacity: 1;"></line><line transform="translate(0,150)" x2="-5" y2="0" style="fill: none; stroke: #888; stroke-width: 1; opacity: 1;"></line><line transform="translate(0,113)" x2="-5" y2="0" style="fill: none; stroke: #888; stroke-width: 1; opacity: 1;"></line><line transform="translate(0,75)" x2="-5" y2="0" style="fill: none; stroke: #888; stroke-width: 1; opacity: 1;"></line><line transform="translate(0,38)" x2="-5" y2="0" style="fill: none; stroke: #888; stroke-width: 1; opacity: 1;"></line><line transform="translate(0,0)" x2="-5" y2="0" style="fill: none; stroke: #888; stroke-width: 1; opacity: 1;"></line></g><g class="mark-text role-axis-label" style="pointer-events: none;"><text text-anchor="end" transform="translate(-7,303)" style="font: 10px sans-serif; fill: #000; opacity: 1;">45</text><text text-anchor="end" transform="translate(-7,265.5)" style="font: 10px sans-serif; fill: #000; opacity: 1;">50</text><text text-anchor="end" transform="translate(-7,228)" style="font: 10px sans-serif; fill: #000; opacity: 1;">55</text><text text-anchor="end" transform="translate(-7,190.5)" style="font: 10px sans-serif; fill: #000; opacity: 1;">60</text><text text-anchor="end" transform="translate(-7,153)" style="font: 10px sans-serif; fill: #000; opacity: 1;">65</text><text text-anchor="end" transform="translate(-7,115.5)" style="font: 10px sans-serif; fill: #000; opacity: 1;">70</text><text text-anchor="end" transform="translate(-7,78)" style="font: 10px sans-serif; fill: #000; opacity: 1;">75</text><text text-anchor="end" transform="translate(-7,40.5)" style="font: 10px sans-serif; fill: #000; opacity: 1;">80</text><text text-anchor="end" transform="translate(-7,3)" style="font: 10px sans-serif; fill: #000; opacity: 1;">85</text></g><g class="mark-rule role-axis-domain" style="pointer-events: none;"><line transform="translate(0,300)" x2="0" y2="-300" style="fill: none; stroke: #888; stroke-width: 1; opacity: 1;"></line></g><g class="mark-text role-axis-title" style="pointer-events: none;"><text text-anchor="middle" transform="translate(-34,150) rotate(-90) translate(0,-2)" style="font: bold 11px sans-serif; fill: #000; opacity: 1;">health</text></g></g></g></g></g></g></g></g></svg>