<svg class="marks" width="149" height="190" viewBox="0 0 149 190" version="1.1" xmlns="http://www.w3.org/2000/svg" xmlns:xlink="http://www.w3.org/1999/xlink"><g transform="translate(35,5)"><g class="mark-group role-frame root"><g transform="translate(0,0)"><path class="background" d="M0.5,0.5h20v180h-20Z" style="fill: none; stroke: #ddd;"></path><g><g class="mark-symbol role-mark marks"><path transform="translate(10,10)" d="M1.5,0A1.5,1.5,0,1,1,-1.5,0A1.5,1.5,0,1,1,1.5,0" style="fill: #bdd7e7; stroke-width: 2; opacity: 0.7;"></path><path transform="translate(10,30)" d="M7.399324293474371,0A7.399324293474371,7.399324293474371,0,1,1,-7.399324293474371,0A7.399324293474371,7.399324293474371,0,1,1,7.399324293474371,0" style="fill: #6baed6; stroke-width: 2; opacity: 0.7;"></path><path transform="translate(10,50)" d="M5.338539126015656,0A5.338539126015656,5.338539126015656,0,1,1,-5.338539126015656,0A5.338539126015656,5.338539126015656,0,1,1,5.338539126015656,0" style="fill: #bdd7e7; stroke-width: 2; opacity: 0.7;"></path><path transform="translate(10,70)" d="M9,0A9,9,0,1,1,-9,0A9,9,0,1,1,9,0" style="fill: #2171b5; stroke-width: 2; opacity: 0.7;"></path><path transform="translate(10,90)" d="M9,0A9,9,0,1,1,-9,0A9,9,0,1,1,9,0" style="fill: #2171b5; stroke-width: 2; opacity: 0.7;"></path><path transform="translate(10,110)" d="M5.338539126015656,0A5.338539126015656,5.338539126015656,0,1,1,-5.338539126015656,0A5.338539126015656,5.338539126015656,0,1,1,5.338539126015656,0" style="fill: #6baed6; stroke-width: 2; opacity: 0.7;"></path><path transform="translate(10,130)" d="M1.5,0A1.5,1.5,0,1,1,-1.5,0A1.5,1.5,0,1,1,1.5,0" style="fill: #eff3ff; stroke-width: 2; opacity: 0.7;"></path><path transform="translate(10,150)" d="M9,0A9,9,0,1,1,-9,0A9,9,0,1,1,9,0" style="fill: #2171b5; stroke-width: 2; opacity: 0.7;"></path><path transform="translate(10,170)" d="M5.338539126015656,0A5.338539126015656,5.338539126015656,0,1,1,-5.338539126015656,0A5.338539126015656,5.338539126015656,0,1,1,5.338539126015656,0" style="fill: #6baed6; stroke-width: 2; opacity: 0.7;"></path></g><g class="mark-group role-legend"><g transform="translate(38,0)"><path class="background" d="M0,0h71v81h-71Z" style="pointer-events: none; fill: none;"></path><g><g class="mark-group role-legend-entry"><g transform="translate(0,16)"><path class="background" d="M0,0h0v0h0Z" style="pointer-events: none; fill: none;"></path><g><g class="mark-group role-scope"><g transform="translate(0,0)"><path class="background" d="M0,0h65v11h-65Z" style="pointer-events: none; fill: none; opacity: 1;"></path><g><g class="mark-symbol role-legend-symbol" style="pointer-events: none;"><path transform="translate(10,5)" d="M1.5,0A1.5,1.5,0,1,1,-1.5,0A1.5,1.5,0,1,1,1.5,0" style="fill: #eff3ff; stroke-width: 1.5; opacity: 0.7;"></path></g><g class="mark-text role-legend-label" style="pointer-events: none;"><text text-anchor="start" transform="translate(24,8)" style="font-family: sans-serif; font-size: 10px; fill: #000; opacity: 1;">&lt; 37</text></g></g></g><g transform="translate(0,13)"><path class="background" d="M0,0h65v12.5h-65Z" style="pointer-events: none; fill: none; opacity: 1;"></path><g><g class="mark-symbol role-legend-symbol" style="pointer-events: none;"><path transform="translate(10,6.5)" d="M5.338539126015656,0A5.338539126015656,5.338539126015656,0,1,1,-5.338539126015656,0A5.338539126015656,5.338539126015656,0,1,1,5.338539126015656,0" style="fill: #bdd7e7; stroke-width: 1.5; opacity: 0.7;"></path></g><g class="mark-text role-legend-label" style="pointer-events: none;"><text text-anchor="start" transform="translate(24,9.5)" style="font-family: sans-serif; font-size: 10px; fill: #000; opacity: 1;">37–55</text></g></g></g><g transform="translate(0,28)"><path class="background" d="M0,0h65v15.899324293474372h-65Z" style="pointer-events: none; fill: none; opacity: 1;"></path><g><g class="mark-symbol role-legend-symbol" style="pointer-events: none;"><path transform="translate(10,8.5)" d="M7.399324293474371,0A7.399324293474371,7.399324293474371,0,1,1,-7.399324293474371,0A7.399324293474371,7.399324293474371,0,1,1,7.399324293474371,0" style="fill: #6baed6; stroke-width: 1.5; opacity: 0.7;"></path></g><g class="mark-text role-legend-label" style="pointer-events: none;"><text text-anchor="start" transform="translate(24,11.5)" style="font-family: sans-serif; font-size: 10px; fill: #000; opacity: 1;">55–73</text></g></g></g><g transform="translate(0,46)"><path class="background" d="M0,0h65v19h-65Z" style="pointer-events: none; fill: none; opacity: 1;"></path><g><g class="mark-symbol role-legend-symbol" style="pointer-events: none;"><path transform="translate(10,10)" d="M9,0A9,9,0,1,1,-9,0A9,9,0,1,1,9,0" style="fill: #2171b5; stroke-width: 1.5; opacity: 0.7;"></path></g><g class="mark-text role-legend-label" style="pointer-events: none;"><text text-anchor="start" transform="translate(24,13)" style="font-family: sans-serif; font-size: 10px; fill: #000; opacity: 1;">≥ 73</text></g></g></g></g></g></g></g><g class="mark-text role-legend-title" style="pointer-events: none;"><text text-anchor="start" transform="translate(0,9)" style="font-family: sans-serif; font-size: 11px; font-weight: bold; fill: #000; opacity: 1;">Quantize</text></g></g></g></g><g class="mark-group role-axis"><g transform="translate(0.5,0.5)"><path class="background" d="M0,0h0v0h0Z" style="pointer-events: none; fill: none;"></path><g><g class="mark-text role-axis-label" style="pointer-events: none;"><text text-anchor="end" transform="translate(-2,13)" style="font-family: sans-serif; font-size: 10px; fill: #000; opacity: 1;">28</text><text text-anchor="end" transform="translate(-2,33)" style="font-family: sans-serif; font-size: 10px; fill: #000; opacity: 1;">55</text><text text-anchor="end" transform="translate(-2,53)" style="font-family: sans-serif; font-size: 10px; fill: #000; opacity: 1;">43</text><text text-anchor="end" transform="translate(-2,73)" style="font-family: sans-serif; font-size: 10px; fill: #000; opacity: 1;">91</text><text text-anchor="end" transform="translate(-2,93)" style="font-family: sans-serif; font-size: 10px; fill: #000; opacity: 1;">81</text><text text-anchor="end" transform="translate(-2,113)" style="font-family: sans-serif; font-size: 10px; fill: #000; opacity: 1;">53</text><text text-anchor="end" transform="translate(-2,133)" style="font-family: sans-serif; font-size: 10px; fill: #000; opacity: 1;">19</text><text text-anchor="end" transform="translate(-2,153)" style="font-family: sans-serif; font-size: 10px; fill: #000; opacity: 1;">87</text><text text-anchor="end" transform="translate(-2,173)" style="font-family: sans-serif; font-size: 10px; fill: #000; opacity: 1;">52</text></g></g></g></g></g></g></g></g></svg>