<svg class="marks" width="149" height="190" viewBox="0 0 149 190" version="1.1" xmlns="http://www.w3.org/2000/svg" xmlns:xlink="http://www.w3.org/1999/xlink"><g transform="translate(35,5)"><g class="mark-group role-frame root"><g transform="translate(0,0)"><path class="background" d="M0.5,0.5h20v180h-20Z" style="fill: none; stroke: #ddd;"></path><g><g class="mark-symbol role-mark marks"><path transform="translate(10,10)" d="M1.5,0A1.5,1.5,0,1,1,-1.5,0A1.5,1.5,0,1,1,1.5,0" style="fill: #eff3ff; stroke-width: 2; opacity: 0.7;"></path><path transform="translate(10,30)" d="M7.804912982645397,0A7.804912982645397,7.804912982645397,0,1,1,-7.804912982645397,0A7.804912982645397,7.804912982645397,0,1,1,7.804912982645397,0" style="fill: #6baed6; stroke-width: 2; opacity: 0.7;"></path><path transform="translate(10,50)" d="M5.619905100029122,0A5.619905100029122,5.619905100029122,0,1,1,-5.619905100029122,0A5.619905100029122,5.619905100029122,0,1,1,5.619905100029122,0" style="fill: #bdd7e7; stroke-width: 2; opacity: 0.7;"></path><path transform="translate(10,70)" d="M9.5,0A9.5,9.5,0,1,1,-9.5,0A9.5,9.5,0,1,1,9.5,0" style="fill: #2171b5; stroke-width: 2; opacity: 0.7;"></path><path transform="translate(10,90)" d="M9.5,0A9.5,9.5,0,1,1,-9.5,0A9.5,9.5,0,1,1,9.5,0" style="fill: #2171b5; stroke-width: 2; opacity: 0.7;"></path><path transform="translate(10,110)" d="M7.804912982645397,0A7.804912982645397,7.804912982645397,0,1,1,-7.804912982645397,0A7.804912982645397,7.804912982645397,0,1,1,7.804912982645397,0" style="fill: #6baed6; stroke-width: 2; opacity: 0.7;"></path><path transform="translate(10,130)" d="M1.5,0A1.5,1.5,0,1,1,-1.5,0A1.5,1.5,0,1,1,1.5,0" style="fill: #eff3ff; stroke-width: 2; opacity: 0.7;"></path><path transform="translate(10,150)" d="M9.5,0A9.5,9.5,0,1,1,-9.5,0A9.5,9.5,0,1,1,9.5,0" style="fill: #2171b5; stroke-width: 2; opacity: 0.7;"></path><path transform="translate(10,170)" d="M5.619905100029122,0A5.619905100029122,5.619905100029122,0,1,1,-5.619905100029122,0A5.619905100029122,5.619905100029122,0,1,1,5.619905100029122,0" style="fill: #bdd7e7; stroke-width: 2; opacity: 0.7;"></path></g><g class="mark-group role-legend"><g transform="translate(38,0)"><path class="background" d="M0,0h71v83h-71Z" style="pointer-events: none; fill: none;"></path><g><g class="mark-group role-legend-entry"><g transform="translate(0,16)"><path class="background" d="M0,0h0v0h0Z" style="pointer-events: none; fill: none;"></path><g><g class="mark-group role-scope"><g transform="translate(0,0)"><path class="background" d="M0,0h66v11h-66Z" style="pointer-events: none; fill: none; opacity: 1;"></path><g><g class="mark-symbol role-legend-symbol" style="pointer-events: none;"><path transform="translate(10.5,5)" d="M1.5,0A1.5,1.5,0,1,1,-1.5,0A1.5,1.5,0,1,1,1.5,0" style="fill: #eff3ff; stroke-width: 1.5; opacity: 0.7;"></path></g><g class="mark-text role-legend-label" style="pointer-events: none;"><text text-anchor="start" transform="translate(25,8)" style="font-family: sans-serif; font-size: 10px; fill: #000; opacity: 1;">&lt; 43</text></g></g></g><g transform="translate(0,13)"><path class="background" d="M0,0h66v12.5h-66Z" style="pointer-events: none; fill: none; opacity: 1;"></path><g><g class="mark-symbol role-legend-symbol" style="pointer-events: none;"><path transform="translate(10.5,6.5)" d="M5.619905100029122,0A5.619905100029122,5.619905100029122,0,1,1,-5.619905100029122,0A5.619905100029122,5.619905100029122,0,1,1,5.619905100029122,0" style="fill: #bdd7e7; stroke-width: 1.5; opacity: 0.7;"></path></g><g class="mark-text role-legend-label" style="pointer-events: none;"><text text-anchor="start" transform="translate(25,9.5)" style="font-family: sans-serif; font-size: 10px; fill: #000; opacity: 1;">43–53</text></g></g></g><g transform="translate(0,28)"><path class="background" d="M0,0h66v16.804912982645398h-66Z" style="pointer-events: none; fill: none; opacity: 1;"></path><g><g class="mark-symbol role-legend-symbol" style="pointer-events: none;"><path transform="translate(10.5,9)" d="M7.804912982645397,0A7.804912982645397,7.804912982645397,0,1,1,-7.804912982645397,0A7.804912982645397,7.804912982645397,0,1,1,7.804912982645397,0" style="fill: #6baed6; stroke-width: 1.5; opacity: 0.7;"></path></g><g class="mark-text role-legend-label" style="pointer-events: none;"><text text-anchor="start" transform="translate(25,12)" style="font-family: sans-serif; font-size: 10px; fill: #000; opacity: 1;">53–81</text></g></g></g><g transform="translate(0,47)"><path class="background" d="M0,0h66v20h-66Z" style="pointer-events: none; fill: none; opacity: 1;"></path><g><g class="mark-symbol role-legend-symbol" style="pointer-events: none;"><path transform="translate(10.5,10.5)" d="M9.5,0A9.5,9.5,0,1,1,-9.5,0A9.5,9.5,0,1,1,9.5,0" style="fill: #2171b5; stroke-width: 1.5; opacity: 0.7;"></path></g><g class="mark-text role-legend-label" style="pointer-events: none;"><text text-anchor="start" transform="translate(25,13.5)" style="font-family: sans-serif; font-size: 10px; fill: #000; opacity: 1;">≥ 81</text></g></g></g></g></g></g></g><g class="mark-text role-legend-title" style="pointer-events: none;"><text text-anchor="start" transform="translate(0,9)" style="font-family: sans-serif; font-size: 11px; font-weight: bold; fill: #000; opacity: 1;">Quantile</text></g></g></g></g><g class="mark-group role-axis"><g transform="translate(0.5,0.5)"><path class="background" d="M0,0h0v0h0Z" style="pointer-events: none; fill: none;"></path><g><g class="mark-text role-axis-label" style="pointer-events: none;"><text text-anchor="end" transform="translate(-2,13)" style="font-family: sans-serif; font-size: 10px; fill: #000; opacity: 1;">28</text><text text-anchor="end" transform="translate(-2,33)" style="font-family: sans-serif; font-size: 10px; fill: #000; opacity: 1;">55</text><text text-anchor="end" transform="translate(-2,53)" style="font-family: sans-serif; font-size: 10px; fill: #000; opacity: 1;">43</text><text text-anchor="end" transform="translate(-2,73)" style="font-family: sans-serif; font-size: 10px; fill: #000; opacity: 1;">91</text><text text-anchor="end" transform="translate(-2,93)" style="font-family: sans-serif; font-size: 10px; fill: #000; opacity: 1;">81</text><text text-anchor="end" transform="translate(-2,113)" style="font-family: sans-serif; font-size: 10px; fill: #000; opacity: 1;">53</text><text text-anchor="end" transform="translate(-2,133)" style="font-family: sans-serif; font-size: 10px; fill: #000; opacity: 1;">19</text><text text-anchor="end" transform="translate(-2,153)" style="font-family: sans-serif; font-size: 10px; fill: #000; opacity: 1;">87</text><text text-anchor="end" transform="translate(-2,173)" style="font-family: sans-serif; font-size: 10px; fill: #000; opacity: 1;">52</text></g></g></g></g></g></g></g></g></svg>