<svg xmlns="http://www.w3.org/2000/svg" xmlns:xlink="http://www.w3.org/1999/xlink" version="1.1" class="marks" width="545" height="696" viewBox="0 0 545 696"><rect width="545" height="696" fill="white"/><g fill="none" stroke-miterlimit="10" transform="translate(47,10)"><g class="mark-group role-frame root" role="graphics-object" aria-roledescription="group mark container"><g transform="translate(0,0)"><path class="background" aria-hidden="true" d="M0.5,0.5h300v300h-300Z" stroke="#ddd"/><g><g class="mark-group role-axis" role="graphics-symbol" aria-roledescription="axis" aria-label="X-axis titled 'IMDB Rating (binned)' for a linear scale with values from 0 to 10"><g transform="translate(0.5,300.5)"><path class="background" aria-hidden="true" d="M0,0h0v0h0Z" pointer-events="none"/><g><g class="mark-rule role-axis-tick" pointer-events="none"><line transform="translate(0,0)" x2="0" y2="5" stroke="#888" stroke-width="1" opacity="1"/><line transform="translate(150,0)" x2="0" y2="5" stroke="#888" stroke-width="1" opacity="1"/><line transform="translate(300,0)" x2="0" y2="5" stroke="#888" stroke-width="1" opacity="1"/></g><g class="mark-text role-axis-label" pointer-events="none"><text text-anchor="start" transform="translate(0,15)" font-family="sans-serif" font-size="10px" fill="#000" opacity="1">0.0</text><text text-anchor="middle" transform="translate(150,15)" font-family="sans-serif" font-size="10px" fill="#000" opacity="1">5.0</text><text text-anchor="end" transform="translate(300,15)" font-family="sans-serif" font-size="10px" fill="#000" opacity="1">10.0</text></g><g class="mark-rule role-axis-domain" pointer-events="none"><line transform="translate(0,0)" x2="300" y2="0" stroke="#888" stroke-width="1" opacity="1"/></g><g class="mark-text role-axis-title" pointer-events="none"><text text-anchor="middle" transform="translate(150,30)" font-family="sans-serif" font-size="11px" font-weight="bold" fill="#000" opacity="1">IMDB Rating (binned)</text></g></g><path class="foreground" aria-hidden="true" d="" pointer-events="none" display="none"/></g></g><g class="mark-group role-axis" role="graphics-symbol" aria-roledescription="axis" aria-label="Y-axis titled 'Rotten Tomatoes Rating (binned)' for a linear scale with values from 0 to 100"><g transform="translate(0.5,0.5)"><path class="background" aria-hidden="true" d="M0,0h0v0h0Z" pointer-events="none"/><g><g class="mark-rule role-axis-tick" pointer-events="none"><line transform="translate(0,300)" x2="-5" y2="0" stroke="#888" stroke-width="1" opacity="1"/><line transform="translate(0,150)" x2="-5" y2="0" stroke="#888" stroke-width="1" opacity="1"/><line transform="translate(0,0)" x2="-5" y2="0" stroke="#888" stroke-width="1" opacity="1"/></g><g class="mark-text role-axis-label" pointer-events="none"><text text-anchor="end" transform="translate(-7,303)" font-family="sans-serif" font-size="10px" fill="#000" opacity="1">0</text><text text-anchor="end" transform="translate(-7,153)" font-family="sans-serif" font-size="10px" fill="#000" opacity="1">50</text><text text-anchor="end" transform="translate(-7,3)" font-family="sans-serif" font-size="10px" fill="#000" opacity="1">100</text></g><g class="mark-rule role-axis-domain" pointer-events="none"><line transform="translate(0,300)" x2="0" y2="-300" stroke="#888" stroke-width="1" opacity="1"/></g><g class="mark-text role-axis-title" pointer-events="none"><text text-anchor="middle" transform="translate(-30.0869140625,150) rotate(-90) translate(0,-2)" font-family="sans-serif" font-size="11px" font-weight="bold" fill="#000" opacity="1">Rotten Tomatoes Rating (binned)</text></g></g><path class="foreground" aria-hidden="true" d="" pointer-events="none" display="none"/></g></g><g class="mark-symbol role-mark marks" role="graphics-object" aria-roledescription="symbol mark container"><path aria-label="IMDB Rating (binned): 0 – 5; Rotten Tomatoes Rating (binned): 50 – 100; Count of Records: 27" role="graphics-symbol" aria-roledescription="circle" transform="translate(75,75)" d="M10.56,0A10.56,10.56,0,1,1,-10.56,0A10.56,10.56,0,1,1,10.56,0" fill="#4c78a8" stroke-width="2"/><path aria-label="IMDB Rating (binned): 5 – 10; Rotten Tomatoes Rating (binned): 0 – 50; Count of Records: 723" role="graphics-symbol" aria-roledescription="circle" transform="translate(225,225)" d="M54.409,0A54.409,54.409,0,1,1,-54.409,0A54.409,54.409,0,1,1,54.409,0" fill="#4c78a8" stroke-width="2"/><path aria-label="IMDB Rating (binned): 5 – 10; Rotten Tomatoes Rating (binned): 50 – 100; Count of Records: 1240" role="graphics-symbol" aria-roledescription="circle" transform="translate(225,75)" d="M71.25,0A71.25,71.25,0,1,1,-71.25,0A71.25,71.25,0,1,1,71.25,0" fill="#4c78a8" stroke-width="2"/><path aria-label="IMDB Rating (binned): 0 – 5; Rotten Tomatoes Rating (binned): 0 – 50; Count of Records: 270" role="graphics-symbol" aria-roledescription="circle" transform="translate(75,225)" d="M33.259,0A33.259,33.259,0,1,1,-33.259,0A33.259,33.259,0,1,1,33.259,0" fill="#4c78a8" stroke-width="2"/></g><g class="mark-group role-legend" role="graphics-symbol" aria-roledescription="legend" aria-label="Symbol legend titled 'Count of Records' for size with values from 0 to 1,240"><g transform="translate(318,0)"><path class="background" aria-hidden="true" d="M0,0h175v681h-175Z" pointer-events="none"/><g><g class="mark-group role-legend-entry"><g transform="translate(0,16)"><path class="background" aria-hidden="true" d="M0,0h0v0h0Z" pointer-events="none"/><g><g class="mark-group role-scope" role="graphics-object" aria-roledescription="group mark container"><g transform="translate(0,0)"><path class="background" aria-hidden="true" d="M0,0h174.6279296875v10h-174.6279296875Z" pointer-events="none" opacity="1"/><g><g class="mark-symbol role-legend-symbol" pointer-events="none"><path transform="translate(71,5)" d="M1,0A1,1,0,1,1,-1,0A1,1,0,1,1,1,0" fill="#4c78a8" stroke-width="1.5" opacity="1"/></g><g class="mark-text role-legend-label" pointer-events="none"><text text-anchor="start" transform="translate(146,8)" font-family="sans-serif" font-size="10px" fill="#000" opacity="1">0</text></g></g><path class="foreground" aria-hidden="true" d="" pointer-events="none" display="none"/></g><g transform="translate(0,13)"><path class="background" aria-hidden="true" d="M0,0h174.6279296875v59.629340071039465h-174.6279296875Z" pointer-events="none" opacity="1"/><g><g class="mark-symbol role-legend-symbol" pointer-events="none"><path transform="translate(71,29.5)" d="M28.629,0A28.629,28.629,0,1,1,-28.629,0A28.629,28.629,0,1,1,28.629,0" fill="#4c78a8" stroke-width="1.5" opacity="1"/></g><g class="mark-text role-legend-label" pointer-events="none"><text text-anchor="start" transform="translate(146,32.5)" font-family="sans-serif" font-size="10px" fill="#000" opacity="1">200</text></g></g><path class="foreground" aria-hidden="true" d="" pointer-events="none" display="none"/></g><g transform="translate(0,76)"><path class="background" aria-hidden="true" d="M0,0h174.6279296875v83.47564978856363h-174.6279296875Z" pointer-events="none" opacity="1"/><g><g class="mark-symbol role-legend-symbol" pointer-events="none"><path transform="translate(71,41.5)" d="M40.476,0A40.476,40.476,0,1,1,-40.476,0A40.476,40.476,0,1,1,40.476,0" fill="#4c78a8" stroke-width="1.5" opacity="1"/></g><g class="mark-text role-legend-label" pointer-events="none"><text text-anchor="start" transform="translate(146,44.5)" font-family="sans-serif" font-size="10px" fill="#000" opacity="1">400</text></g></g><path class="foreground" aria-hidden="true" d="" pointer-events="none" display="none"/></g><g transform="translate(0,163)"><path class="background" aria-hidden="true" d="M0,0h174.6279296875v101.5673011037486h-174.6279296875Z" pointer-events="none" opacity="1"/><g><g class="mark-symbol role-legend-symbol" pointer-events="none"><path transform="translate(71,50.5)" d="M49.567,0A49.567,49.567,0,1,1,-49.567,0A49.567,49.567,0,1,1,49.567,0" fill="#4c78a8" stroke-width="1.5" opacity="1"/></g><g class="mark-text role-legend-label" pointer-events="none"><text text-anchor="start" transform="translate(146,53.5)" font-family="sans-serif" font-size="10px" fill="#000" opacity="1">600</text></g></g><path class="foreground" aria-hidden="true" d="" pointer-events="none" display="none"/></g><g transform="translate(0,268)"><path class="background" aria-hidden="true" d="M0,0h174.6279296875v116.7324772451176h-174.6279296875Z" pointer-events="none" opacity="1"/><g><g class="mark-symbol role-legend-symbol" pointer-events="none"><path transform="translate(71,58)" d="M57.232,0A57.232,57.232,0,1,1,-57.232,0A57.232,57.232,0,1,1,57.232,0" fill="#4c78a8" stroke-width="1.5" opacity="1"/></g><g class="mark-text role-legend-label" pointer-events="none"><text text-anchor="start" transform="translate(146,61)" font-family="sans-serif" font-size="10px" fill="#000" opacity="1">800</text></g></g><path class="foreground" aria-hidden="true" d="" pointer-events="none" display="none"/></g><g transform="translate(0,388)"><path class="background" aria-hidden="true" d="M0,0h174.6279296875v130.48590129486433h-174.6279296875Z" pointer-events="none" opacity="1"/><g><g class="mark-symbol role-legend-symbol" pointer-events="none"><path transform="translate(71,65)" d="M63.986,0A63.986,63.986,0,1,1,-63.986,0A63.986,63.986,0,1,1,63.986,0" fill="#4c78a8" stroke-width="1.5" opacity="1"/></g><g class="mark-text role-legend-label" pointer-events="none"><text text-anchor="start" transform="translate(146,68)" font-family="sans-serif" font-size="10px" fill="#000" opacity="1">1,000</text></g></g><path class="foreground" aria-hidden="true" d="" pointer-events="none" display="none"/></g><g transform="translate(0,522)"><path class="background" aria-hidden="true" d="M0,0h174.6279296875v142.59161631336065h-174.6279296875Z" pointer-events="none" opacity="1"/><g><g class="mark-symbol role-legend-symbol" pointer-events="none"><path transform="translate(71,71)" d="M70.092,0A70.092,70.092,0,1,1,-70.092,0A70.092,70.092,0,1,1,70.092,0" fill="#4c78a8" stroke-width="1.5" opacity="1"/></g><g class="mark-text role-legend-label" pointer-events="none"><text text-anchor="start" transform="translate(146,74)" font-family="sans-serif" font-size="10px" fill="#000" opacity="1">1,200</text></g></g><path class="foreground" aria-hidden="true" d="" pointer-events="none" display="none"/></g></g></g><path class="foreground" aria-hidden="true" d="" pointer-events="none" display="none"/></g></g><g class="mark-text role-legend-title" pointer-events="none"><text text-anchor="start" transform="translate(0,9)" font-family="sans-serif" font-size="11px" font-weight="bold" fill="#000" opacity="1">Count of Records</text></g></g><path class="foreground" aria-hidden="true" d="" pointer-events="none" display="none"/></g></g></g><path class="foreground" aria-hidden="true" d="" display="none"/></g></g></g></svg>