<svg class="marks" width="398" height="494" viewBox="0 0 398 494" version="1.1" xmlns="http://www.w3.org/2000/svg" xmlns:xlink="http://www.w3.org/1999/xlink"><rect width="398" height="494" fill="white"></rect><g fill="none" stroke-miterlimit="10" transform="translate(46,11)"><g class="mark-group role-frame root" role="graphics-object" aria-roledescription="group mark container"><g transform="translate(0,0)"><path class="background" aria-hidden="true" d="M0,0h0v0h0Z"></path><g><g class="mark-group role-scope concat_0_group" role="graphics-object" aria-roledescription="group mark container"><g transform="translate(0,0)"><path class="background" aria-hidden="true" d="M0.5,0.5h200v200h-200Z" stroke="#ddd"></path><g><g class="mark-group role-axis" role="graphics-symbol" aria-roledescription="axis" aria-label="X-axis titled 'IMDB Rating (binned)' for a linear scale with values from 1 to 10"><g transform="translate(0.5,200.5)"><path class="background" aria-hidden="true" d="M0,0h0v0h0Z" pointer-events="none"></path><g><g class="mark-rule role-axis-tick" pointer-events="none"><line transform="translate(0,0)" x2="0" y2="5" stroke="#888" stroke-width="1" opacity="1"></line><line transform="translate(22,0)" x2="0" y2="5" stroke="#888" stroke-width="1" opacity="1"></line><line transform="translate(44,0)" x2="0" y2="5" stroke="#888" stroke-width="1" opacity="1"></line><line transform="translate(67,0)" x2="0" y2="5" stroke="#888" stroke-width="1" opacity="1"></line><line transform="translate(89,0)" x2="0" y2="5" stroke="#888" stroke-width="1" opacity="1"></line><line transform="translate(111,0)" x2="0" y2="5" stroke="#888" stroke-width="1" opacity="1"></line><line transform="translate(133,0)" x2="0" y2="5" stroke="#888" stroke-width="1" opacity="1"></line><line transform="translate(156,0)" x2="0" y2="5" stroke="#888" stroke-width="1" opacity="1"></line><line transform="translate(178,0)" x2="0" y2="5" stroke="#888" stroke-width="1" opacity="1"></line><line transform="translate(200,0)" x2="0" y2="5" stroke="#888" stroke-width="1" opacity="1"></line></g><g class="mark-text role-axis-label" pointer-events="none"><text text-anchor="start" transform="translate(0,15)" font-family="sans-serif" font-size="10px" fill="#000" opacity="1">1.0</text><text text-anchor="middle" transform="translate(22.22222222222222,15)" font-family="sans-serif" font-size="10px" fill="#000" opacity="0">2.0</text><text text-anchor="middle" transform="translate(44.44444444444444,15)" font-family="sans-serif" font-size="10px" fill="#000" opacity="1">3.0</text><text text-anchor="middle" transform="translate(66.66666666666666,15)" font-family="sans-serif" font-size="10px" fill="#000" opacity="0">4.0</text><text text-anchor="middle" transform="translate(88.88888888888889,15)" font-family="sans-serif" font-size="10px" fill="#000" opacity="1">5.0</text><text text-anchor="middle" transform="translate(111.11111111111111,15)" font-family="sans-serif" font-size="10px" fill="#000" opacity="0">6.0</text><text text-anchor="middle" transform="translate(133.33333333333331,15)" font-family="sans-serif" font-size="10px" fill="#000" opacity="1">7.0</text><text text-anchor="middle" transform="translate(155.55555555555557,15)" font-family="sans-serif" font-size="10px" fill="#000" opacity="0">8.0</text><text text-anchor="middle" transform="translate(177.77777777777777,15)" font-family="sans-serif" font-size="10px" fill="#000" opacity="1">9.0</text><text text-anchor="end" transform="translate(200,15)" font-family="sans-serif" font-size="10px" fill="#000" opacity="0">10.0</text></g><g class="mark-rule role-axis-domain" pointer-events="none"><line transform="translate(0,0)" x2="200" y2="0" stroke="#888" stroke-width="1" opacity="1"></line></g><g class="mark-text role-axis-title" pointer-events="none"><text text-anchor="middle" transform="translate(100,30)" font-family="sans-serif" font-size="11px" font-weight="bold" fill="#000" opacity="1">IMDB Rating (binned)</text></g></g><path class="foreground" aria-hidden="true" d="" pointer-events="none" display="none"></path></g></g><g class="mark-group role-axis" role="graphics-symbol" aria-roledescription="axis" aria-label="Y-axis titled 'Rotten Tomatoes Rating (binned)' for a linear scale with values from 0 to 100"><g transform="translate(0.5,0.5)"><path class="background" aria-hidden="true" d="M0,0h0v0h0Z" pointer-events="none"></path><g><g class="mark-rule role-axis-tick" pointer-events="none"><line transform="translate(0,200)" x2="-5" y2="0" stroke="#888" stroke-width="1" opacity="1"></line><line transform="translate(0,180)" x2="-5" y2="0" stroke="#888" stroke-width="1" opacity="1"></line><line transform="translate(0,160)" x2="-5" y2="0" stroke="#888" stroke-width="1" opacity="1"></line><line transform="translate(0,140)" x2="-5" y2="0" stroke="#888" stroke-width="1" opacity="1"></line><line transform="translate(0,120)" x2="-5" y2="0" stroke="#888" stroke-width="1" opacity="1"></line><line transform="translate(0,100)" x2="-5" y2="0" stroke="#888" stroke-width="1" opacity="1"></line><line transform="translate(0,80)" x2="-5" y2="0" stroke="#888" stroke-width="1" opacity="1"></line><line transform="translate(0,60)" x2="-5" y2="0" stroke="#888" stroke-width="1" opacity="1"></line><line transform="translate(0,40)" x2="-5" y2="0" stroke="#888" stroke-width="1" opacity="1"></line><line transform="translate(0,20)" x2="-5" y2="0" stroke="#888" stroke-width="1" opacity="1"></line><line transform="translate(0,0)" x2="-5" y2="0" stroke="#888" stroke-width="1" opacity="1"></line></g><g class="mark-text role-axis-label" pointer-events="none"><text text-anchor="end" transform="translate(-7,203)" font-family="sans-serif" font-size="10px" fill="#000" opacity="1">0</text><text text-anchor="end" transform="translate(-7,183)" font-family="sans-serif" font-size="10px" fill="#000" opacity="1">10</text><text text-anchor="end" transform="translate(-7,163)" font-family="sans-serif" font-size="10px" fill="#000" opacity="1">20</text><text text-anchor="end" transform="translate(-7,143)" font-family="sans-serif" font-size="10px" fill="#000" opacity="1">30</text><text text-anchor="end" transform="translate(-7,123)" font-family="sans-serif" font-size="10px" fill="#000" opacity="1">40</text><text text-anchor="end" transform="translate(-7,103)" font-family="sans-serif" font-size="10px" fill="#000" opacity="1">50</text><text text-anchor="end" transform="translate(-7,83)" font-family="sans-serif" font-size="10px" fill="#000" opacity="1">60</text><text text-anchor="end" transform="translate(-7,63.00000000000001)" font-family="sans-serif" font-size="10px" fill="#000" opacity="1">70</text><text text-anchor="end" transform="translate(-7,42.99999999999999)" font-family="sans-serif" font-size="10px" fill="#000" opacity="1">80</text><text text-anchor="end" transform="translate(-7,22.999999999999996)" font-family="sans-serif" font-size="10px" fill="#000" opacity="1">90</text><text text-anchor="end" transform="translate(-7,3)" font-family="sans-serif" font-size="10px" fill="#000" opacity="1">100</text></g><g class="mark-rule role-axis-domain" pointer-events="none"><line transform="translate(0,200)" x2="0" y2="-200" stroke="#888" stroke-width="1" opacity="1"></line></g><g class="mark-text role-axis-title" pointer-events="none"><text text-anchor="middle" transform="translate(-29,100) rotate(-90) translate(0,-2)" font-family="sans-serif" font-size="11px" font-weight="bold" fill="#000" opacity="1">Rotten Tomatoes Rating (binned)</text></g></g><path class="foreground" aria-hidden="true" d="" pointer-events="none" display="none"></path></g></g><g class="mark-symbol role-mark concat_0_layer_0_marks" role="graphics-object" aria-roledescription="symbol mark container" pointer-events="none"><path aria-label="IMDB Rating (binned): null; Rotten Tomatoes Rating (binned): null; All Movies: 275" role="graphics-symbol" aria-roledescription="circle" transform="translate(0,200)" d="M5.608561037153631,0A5.608561037153631,5.608561037153631,0,1,1,-5.608561037153631,0A5.608561037153631,5.608561037153631,0,1,1,5.608561037153631,0" fill="#4c78a8" stroke-width="2" opacity="0.4"></path><path aria-label="IMDB Rating (binned): null; Rotten Tomatoes Rating (binned): null; All Movies: 789" role="graphics-symbol" aria-roledescription="circle" transform="translate(0,200)" d="M9.5,0A9.5,9.5,0,1,1,-9.5,0A9.5,9.5,0,1,1,9.5,0" fill="#4c78a8" stroke-width="2" opacity="0.4"></path><path aria-label="IMDB Rating (binned): null; Rotten Tomatoes Rating (binned): null; All Movies: 675" role="graphics-symbol" aria-roledescription="circle" transform="translate(0,200)" d="M8.786926427689455,0A8.786926427689455,8.786926427689455,0,1,1,-8.786926427689455,0A8.786926427689455,8.786926427689455,0,1,1,8.786926427689455,0" fill="#4c78a8" stroke-width="2" opacity="0.4"></path><path aria-label="IMDB Rating (binned): null; Rotten Tomatoes Rating (binned): null; All Movies: 53" role="graphics-symbol" aria-roledescription="circle" transform="translate(0,200)" d="M2.4621983644306193,0A2.4621983644306193,2.4621983644306193,0,1,1,-2.4621983644306193,0A2.4621983644306193,2.4621983644306193,0,1,1,2.4621983644306193,0" fill="#4c78a8" stroke-width="2" opacity="0.4"></path><path aria-label="IMDB Rating (binned): null; Rotten Tomatoes Rating (binned): null; All Movies: 239" role="graphics-symbol" aria-roledescription="circle" transform="translate(0,200)" d="M5.228583573497163,0A5.228583573497163,5.228583573497163,0,1,1,-5.228583573497163,0A5.228583573497163,5.228583573497163,0,1,1,5.228583573497163,0" fill="#4c78a8" stroke-width="2" opacity="0.4"></path><path aria-label="IMDB Rating (binned): null; Rotten Tomatoes Rating (binned): null; All Movies: 274" role="graphics-symbol" aria-roledescription="circle" transform="translate(0,200)" d="M5.598354366207309,0A5.598354366207309,5.598354366207309,0,1,1,-5.598354366207309,0A5.598354366207309,5.598354366207309,0,1,1,5.598354366207309,0" fill="#4c78a8" stroke-width="2" opacity="0.4"></path><path aria-label="IMDB Rating (binned): null; Rotten Tomatoes Rating (binned): null; All Movies: 420" role="graphics-symbol" aria-roledescription="circle" transform="translate(0,200)" d="M6.931221039258309,0A6.931221039258309,6.931221039258309,0,1,1,-6.931221039258309,0A6.931221039258309,6.931221039258309,0,1,1,6.931221039258309,0" fill="#4c78a8" stroke-width="2" opacity="0.4"></path><path aria-label="IMDB Rating (binned): null; Rotten Tomatoes Rating (binned): null; All Movies: 137" role="graphics-symbol" aria-roledescription="circle" transform="translate(0,200)" d="M3.9586343358305047,0A3.9586343358305047,3.9586343358305047,0,1,1,-3.9586343358305047,0A3.9586343358305047,3.9586343358305047,0,1,1,3.9586343358305047,0" fill="#4c78a8" stroke-width="2" opacity="0.4"></path><path aria-label="IMDB Rating (binned): null; Rotten Tomatoes Rating (binned): null; All Movies: 219" role="graphics-symbol" aria-roledescription="circle" transform="translate(0,200)" d="M5.005035487200553,0A5.005035487200553,5.005035487200553,0,1,1,-5.005035487200553,0A5.005035487200553,5.005035487200553,0,1,1,5.005035487200553,0" fill="#4c78a8" stroke-width="2" opacity="0.4"></path><path aria-label="IMDB Rating (binned): null; Rotten Tomatoes Rating (binned): null; All Movies: 36" role="graphics-symbol" aria-roledescription="circle" transform="translate(0,200)" d="M2.0292537353503777,0A2.0292537353503777,2.0292537353503777,0,1,1,-2.0292537353503777,0A2.0292537353503777,2.0292537353503777,0,1,1,2.0292537353503777,0" fill="#4c78a8" stroke-width="2" opacity="0.4"></path><path aria-label="IMDB Rating (binned): null; Rotten Tomatoes Rating (binned): null; All Movies: 43" role="graphics-symbol" aria-roledescription="circle" transform="translate(0,200)" d="M2.2177844366283836,0A2.2177844366283836,2.2177844366283836,0,1,1,-2.2177844366283836,0A2.2177844366283836,2.2177844366283836,0,1,1,2.2177844366283836,0" fill="#4c78a8" stroke-width="2" opacity="0.4"></path><path aria-label="IMDB Rating (binned): null; Rotten Tomatoes Rating (binned): null; All Movies: 36" role="graphics-symbol" aria-roledescription="circle" transform="translate(0,200)" d="M2.0292537353503777,0A2.0292537353503777,2.0292537353503777,0,1,1,-2.0292537353503777,0A2.0292537353503777,2.0292537353503777,0,1,1,2.0292537353503777,0" fill="#4c78a8" stroke-width="2" opacity="0.4"></path><path aria-label="IMDB Rating (binned): null; Rotten Tomatoes Rating (binned): null; All Movies: 5" role="graphics-symbol" aria-roledescription="circle" transform="translate(0,200)" d="M0.7562582159731354,0A0.7562582159731354,0.7562582159731354,0,1,1,-0.7562582159731354,0A0.7562582159731354,0.7562582159731354,0,1,1,0.7562582159731354,0" fill="#4c78a8" stroke-width="2" opacity="0.4"></path></g><g class="mark-symbol role-mark concat_0_layer_1_marks" role="graphics-object" aria-roledescription="symbol mark container" pointer-events="none"><path aria-label="IMDB Rating (binned): null; Rotten Tomatoes Rating (binned): null; In Selected Category: 275" role="graphics-symbol" aria-roledescription="circle" transform="translate(0,200)" d="M5.608561037153631,0A5.608561037153631,5.608561037153631,0,1,1,-5.608561037153631,0A5.608561037153631,5.608561037153631,0,1,1,5.608561037153631,0" fill="#4c78a8" stroke-width="2"></path><path aria-label="IMDB Rating (binned): null; Rotten Tomatoes Rating (binned): null; In Selected Category: 789" role="graphics-symbol" aria-roledescription="circle" transform="translate(0,200)" d="M9.5,0A9.5,9.5,0,1,1,-9.5,0A9.5,9.5,0,1,1,9.5,0" fill="#4c78a8" stroke-width="2"></path><path aria-label="IMDB Rating (binned): null; Rotten Tomatoes Rating (binned): null; In Selected Category: 675" role="graphics-symbol" aria-roledescription="circle" transform="translate(0,200)" d="M8.786926427689455,0A8.786926427689455,8.786926427689455,0,1,1,-8.786926427689455,0A8.786926427689455,8.786926427689455,0,1,1,8.786926427689455,0" fill="#4c78a8" stroke-width="2"></path><path aria-label="IMDB Rating (binned): null; Rotten Tomatoes Rating (binned): null; In Selected Category: 53" role="graphics-symbol" aria-roledescription="circle" transform="translate(0,200)" d="M2.4621983644306193,0A2.4621983644306193,2.4621983644306193,0,1,1,-2.4621983644306193,0A2.4621983644306193,2.4621983644306193,0,1,1,2.4621983644306193,0" fill="#4c78a8" stroke-width="2"></path><path aria-label="IMDB Rating (binned): null; Rotten Tomatoes Rating (binned): null; In Selected Category: 239" role="graphics-symbol" aria-roledescription="circle" transform="translate(0,200)" d="M5.228583573497163,0A5.228583573497163,5.228583573497163,0,1,1,-5.228583573497163,0A5.228583573497163,5.228583573497163,0,1,1,5.228583573497163,0" fill="#4c78a8" stroke-width="2"></path><path aria-label="IMDB Rating (binned): null; Rotten Tomatoes Rating (binned): null; In Selected Category: 274" role="graphics-symbol" aria-roledescription="circle" transform="translate(0,200)" d="M5.598354366207309,0A5.598354366207309,5.598354366207309,0,1,1,-5.598354366207309,0A5.598354366207309,5.598354366207309,0,1,1,5.598354366207309,0" fill="#4c78a8" stroke-width="2"></path><path aria-label="IMDB Rating (binned): null; Rotten Tomatoes Rating (binned): null; In Selected Category: 420" role="graphics-symbol" aria-roledescription="circle" transform="translate(0,200)" d="M6.931221039258309,0A6.931221039258309,6.931221039258309,0,1,1,-6.931221039258309,0A6.931221039258309,6.931221039258309,0,1,1,6.931221039258309,0" fill="#4c78a8" stroke-width="2"></path><path aria-label="IMDB Rating (binned): null; Rotten Tomatoes Rating (binned): null; In Selected Category: 137" role="graphics-symbol" aria-roledescription="circle" transform="translate(0,200)" d="M3.9586343358305047,0A3.9586343358305047,3.9586343358305047,0,1,1,-3.9586343358305047,0A3.9586343358305047,3.9586343358305047,0,1,1,3.9586343358305047,0" fill="#4c78a8" stroke-width="2"></path><path aria-label="IMDB Rating (binned): null; Rotten Tomatoes Rating (binned): null; In Selected Category: 219" role="graphics-symbol" aria-roledescription="circle" transform="translate(0,200)" d="M5.005035487200553,0A5.005035487200553,5.005035487200553,0,1,1,-5.005035487200553,0A5.005035487200553,5.005035487200553,0,1,1,5.005035487200553,0" fill="#4c78a8" stroke-width="2"></path><path aria-label="IMDB Rating (binned): null; Rotten Tomatoes Rating (binned): null; In Selected Category: 36" role="graphics-symbol" aria-roledescription="circle" transform="translate(0,200)" d="M2.0292537353503777,0A2.0292537353503777,2.0292537353503777,0,1,1,-2.0292537353503777,0A2.0292537353503777,2.0292537353503777,0,1,1,2.0292537353503777,0" fill="#4c78a8" stroke-width="2"></path><path aria-label="IMDB Rating (binned): null; Rotten Tomatoes Rating (binned): null; In Selected Category: 43" role="graphics-symbol" aria-roledescription="circle" transform="translate(0,200)" d="M2.2177844366283836,0A2.2177844366283836,2.2177844366283836,0,1,1,-2.2177844366283836,0A2.2177844366283836,2.2177844366283836,0,1,1,2.2177844366283836,0" fill="#4c78a8" stroke-width="2"></path><path aria-label="IMDB Rating (binned): null; Rotten Tomatoes Rating (binned): null; In Selected Category: 36" role="graphics-symbol" aria-roledescription="circle" transform="translate(0,200)" d="M2.0292537353503777,0A2.0292537353503777,2.0292537353503777,0,1,1,-2.0292537353503777,0A2.0292537353503777,2.0292537353503777,0,1,1,2.0292537353503777,0" fill="#4c78a8" stroke-width="2"></path><path aria-label="IMDB Rating (binned): null; Rotten Tomatoes Rating (binned): null; In Selected Category: 5" role="graphics-symbol" aria-roledescription="circle" transform="translate(0,200)" d="M0.7562582159731354,0A0.7562582159731354,0.7562582159731354,0,1,1,-0.7562582159731354,0A0.7562582159731354,0.7562582159731354,0,1,1,0.7562582159731354,0" fill="#4c78a8" stroke-width="2"></path></g><g class="mark-group role-legend" role="graphics-symbol" aria-roledescription="legend" aria-label="Symbol legend titled 'All Movies' for size with values from 0 to 789"><g transform="translate(218,0)"><path class="background" aria-hidden="true" d="M0,0h65v72h-65Z" pointer-events="none"></path><g><g class="mark-group role-legend-entry"><g transform="translate(0,16)"><path class="background" aria-hidden="true" d="M0,0h0v0h0Z" pointer-events="none"></path><g><g class="mark-group role-scope" role="graphics-object" aria-roledescription="group mark container"><g transform="translate(0,0)"><path class="background" aria-hidden="true" d="M0,0h41v12.28299692338128h-41Z" pointer-events="none" opacity="1"></path><g><g class="mark-symbol role-legend-symbol" pointer-events="none"><path transform="translate(9.5,6)" d="M4.782996923381279,0A4.782996923381279,4.782996923381279,0,1,1,-4.782996923381279,0A4.782996923381279,4.782996923381279,0,1,1,4.782996923381279,0" fill="#4c78a8" stroke-width="1.5" opacity="0.4"></path></g><g class="mark-text role-legend-label" pointer-events="none"><text text-anchor="start" transform="translate(23,9)" font-family="sans-serif" font-size="10px" fill="#000" opacity="1">200</text></g></g><path class="foreground" aria-hidden="true" d="" pointer-events="none" display="none"></path></g><g transform="translate(0,16)"><path class="background" aria-hidden="true" d="M0,0h41v16.264179117834594h-41Z" pointer-events="none" opacity="1"></path><g><g class="mark-symbol role-legend-symbol" pointer-events="none"><path transform="translate(9.5,8)" d="M6.764179117834592,0A6.764179117834592,6.764179117834592,0,1,1,-6.764179117834592,0A6.764179117834592,6.764179117834592,0,1,1,6.764179117834592,0" fill="#4c78a8" stroke-width="1.5" opacity="0.4"></path></g><g class="mark-text role-legend-label" pointer-events="none"><text text-anchor="start" transform="translate(23,11)" font-family="sans-serif" font-size="10px" fill="#000" opacity="1">400</text></g></g><path class="foreground" aria-hidden="true" d="" pointer-events="none" display="none"></path></g><g transform="translate(0,36)"><path class="background" aria-hidden="true" d="M0,0h41v19.284393683741996h-41Z" pointer-events="none" opacity="1"></path><g><g class="mark-symbol role-legend-symbol" pointer-events="none"><path transform="translate(9.5,9.5)" d="M8.284393683742,0A8.284393683742,8.284393683742,0,1,1,-8.284393683742,0A8.284393683742,8.284393683742,0,1,1,8.284393683742,0" fill="#4c78a8" stroke-width="1.5" opacity="0.4"></path></g><g class="mark-text role-legend-label" pointer-events="none"><text text-anchor="start" transform="translate(23,12.5)" font-family="sans-serif" font-size="10px" fill="#000" opacity="1">600</text></g></g><path class="foreground" aria-hidden="true" d="" pointer-events="none" display="none"></path></g></g></g><path class="foreground" aria-hidden="true" d="" pointer-events="none" display="none"></path></g></g><g class="mark-text role-legend-title" pointer-events="none"><text text-anchor="start" transform="translate(0,9)" font-family="sans-serif" font-size="11px" font-weight="bold" fill="#000" opacity="1">All Movies</text></g></g><path class="foreground" aria-hidden="true" d="" pointer-events="none" display="none"></path></g></g><g class="mark-group role-legend" role="graphics-symbol" aria-roledescription="legend" aria-label="Symbol legend titled 'In Selected Category' for size with values from 0 to 789"><g transform="translate(218,80)"><path class="background" aria-hidden="true" d="M0,0h128v72h-128Z" pointer-events="none"></path><g><g class="mark-group role-legend-entry"><g transform="translate(0,16)"><path class="background" aria-hidden="true" d="M0,0h0v0h0Z" pointer-events="none"></path><g><g class="mark-group role-scope" role="graphics-object" aria-roledescription="group mark container"><g transform="translate(0,0)"><path class="background" aria-hidden="true" d="M0,0h41v12.28299692338128h-41Z" pointer-events="none" opacity="1"></path><g><g class="mark-symbol role-legend-symbol" pointer-events="none"><path transform="translate(9.5,6)" d="M4.782996923381279,0A4.782996923381279,4.782996923381279,0,1,1,-4.782996923381279,0A4.782996923381279,4.782996923381279,0,1,1,4.782996923381279,0" fill="#4c78a8" stroke-width="1.5" opacity="1"></path></g><g class="mark-text role-legend-label" pointer-events="none"><text text-anchor="start" transform="translate(23,9)" font-family="sans-serif" font-size="10px" fill="#000" opacity="1">200</text></g></g><path class="foreground" aria-hidden="true" d="" pointer-events="none" display="none"></path></g><g transform="translate(0,16)"><path class="background" aria-hidden="true" d="M0,0h41v16.264179117834594h-41Z" pointer-events="none" opacity="1"></path><g><g class="mark-symbol role-legend-symbol" pointer-events="none"><path transform="translate(9.5,8)" d="M6.764179117834592,0A6.764179117834592,6.764179117834592,0,1,1,-6.764179117834592,0A6.764179117834592,6.764179117834592,0,1,1,6.764179117834592,0" fill="#4c78a8" stroke-width="1.5" opacity="1"></path></g><g class="mark-text role-legend-label" pointer-events="none"><text text-anchor="start" transform="translate(23,11)" font-family="sans-serif" font-size="10px" fill="#000" opacity="1">400</text></g></g><path class="foreground" aria-hidden="true" d="" pointer-events="none" display="none"></path></g><g transform="translate(0,36)"><path class="background" aria-hidden="true" d="M0,0h41v19.284393683741996h-41Z" pointer-events="none" opacity="1"></path><g><g class="mark-symbol role-legend-symbol" pointer-events="none"><path transform="translate(9.5,9.5)" d="M8.284393683742,0A8.284393683742,8.284393683742,0,1,1,-8.284393683742,0A8.284393683742,8.284393683742,0,1,1,8.284393683742,0" fill="#4c78a8" stroke-width="1.5" opacity="1"></path></g><g class="mark-text role-legend-label" pointer-events="none"><text text-anchor="start" transform="translate(23,12.5)" font-family="sans-serif" font-size="10px" fill="#000" opacity="1">600</text></g></g><path class="foreground" aria-hidden="true" d="" pointer-events="none" display="none"></path></g></g></g><path class="foreground" aria-hidden="true" d="" pointer-events="none" display="none"></path></g></g><g class="mark-text role-legend-title" pointer-events="none"><text text-anchor="start" transform="translate(0,9)" font-family="sans-serif" font-size="11px" font-weight="bold" fill="#000" opacity="1">In Selected Category</text></g></g><path class="foreground" aria-hidden="true" d="" pointer-events="none" display="none"></path></g></g></g><path class="foreground" aria-hidden="true" d="" display="none"></path></g></g><g class="mark-group role-scope concat_1_group" role="graphics-object" aria-roledescription="group mark container"><g transform="translate(0,259)"><path class="background" aria-hidden="true" d="M0.5,0.5h330v120h-330Z" stroke="#ddd"></path><g><g class="mark-group role-axis" aria-hidden="true"><g transform="translate(0.5,0.5)"><path class="background" aria-hidden="true" d="M0,0h0v0h0Z" pointer-events="none"></path><g><g class="mark-rule role-axis-grid" pointer-events="none"><line transform="translate(0,120)" x2="330" y2="0" stroke="#ddd" stroke-width="1" opacity="1"></line><line transform="translate(0,90)" x2="330" y2="0" stroke="#ddd" stroke-width="1" opacity="1"></line><line transform="translate(0,60)" x2="330" y2="0" stroke="#ddd" stroke-width="1" opacity="1"></line><line transform="translate(0,30)" x2="330" y2="0" stroke="#ddd" stroke-width="1" opacity="1"></line><line transform="translate(0,0)" x2="330" y2="0" stroke="#ddd" stroke-width="1" opacity="1"></line></g></g><path class="foreground" aria-hidden="true" d="" pointer-events="none" display="none"></path></g></g><g class="mark-group role-axis" role="graphics-symbol" aria-roledescription="axis" aria-label="X-axis titled 'Major Genre' for a discrete scale with 13 values: null, Action, Adventure, Black Comedy, Comedy, ending with Western"><g transform="translate(0.5,120.5)"><path class="background" aria-hidden="true" d="M0,0h0v0h0Z" pointer-events="none"></path><g><g class="mark-rule role-axis-tick" pointer-events="none"><line transform="translate(12,0)" x2="0" y2="5" stroke="#888" stroke-width="1" opacity="1"></line><line transform="translate(38,0)" x2="0" y2="5" stroke="#888" stroke-width="1" opacity="1"></line><line transform="translate(63,0)" x2="0" y2="5" stroke="#888" stroke-width="1" opacity="1"></line><line transform="translate(88,0)" x2="0" y2="5" stroke="#888" stroke-width="1" opacity="1"></line><line transform="translate(114,0)" x2="0" y2="5" stroke="#888" stroke-width="1" opacity="1"></line><line transform="translate(139,0)" x2="0" y2="5" stroke="#888" stroke-width="1" opacity="1"></line><line transform="translate(165,0)" x2="0" y2="5" stroke="#888" stroke-width="1" opacity="1"></line><line transform="translate(190,0)" x2="0" y2="5" stroke="#888" stroke-width="1" opacity="1"></line><line transform="translate(215,0)" x2="0" y2="5" stroke="#888" stroke-width="1" opacity="1"></line><line transform="translate(241,0)" x2="0" y2="5" stroke="#888" stroke-width="1" opacity="1"></line><line transform="translate(266,0)" x2="0" y2="5" stroke="#888" stroke-width="1" opacity="1"></line><line transform="translate(291,0)" x2="0" y2="5" stroke="#888" stroke-width="1" opacity="1"></line><line transform="translate(317,0)" x2="0" y2="5" stroke="#888" stroke-width="1" opacity="1"></line></g><g class="mark-text role-axis-label" pointer-events="none"><text text-anchor="end" transform="translate(12.192307692307697,7) rotate(320) translate(0,8)" font-family="sans-serif" font-size="10px" fill="#000" opacity="1">null</text><text text-anchor="end" transform="translate(37.57692307692308,7) rotate(320) translate(0,8)" font-family="sans-serif" font-size="10px" fill="#000" opacity="1">Action</text><text text-anchor="end" transform="translate(62.96153846153847,7) rotate(320) translate(0,8)" font-family="sans-serif" font-size="10px" fill="#000" opacity="1">Adventure</text><text text-anchor="end" transform="translate(88.34615384615384,7) rotate(320) translate(0,8)" font-family="sans-serif" font-size="10px" fill="#000" opacity="1">Black Comedy</text><text text-anchor="end" transform="translate(113.73076923076923,7) rotate(320) translate(0,8)" font-family="sans-serif" font-size="10px" fill="#000" opacity="1">Comedy</text><text text-anchor="end" transform="translate(139.1153846153846,7) rotate(320) translate(0,8)" font-family="sans-serif" font-size="10px" fill="#000" opacity="1">Concert/Performance</text><text text-anchor="end" transform="translate(164.5,7) rotate(320) translate(0,8)" font-family="sans-serif" font-size="10px" fill="#000" opacity="1">Documentary</text><text text-anchor="end" transform="translate(189.8846153846154,7) rotate(320) translate(0,8)" font-family="sans-serif" font-size="10px" fill="#000" opacity="1">Drama</text><text text-anchor="end" transform="translate(215.26923076923077,7) rotate(320) translate(0,8)" font-family="sans-serif" font-size="10px" fill="#000" opacity="1">Horror</text><text text-anchor="end" transform="translate(240.65384615384616,7) rotate(320) translate(0,8)" font-family="sans-serif" font-size="10px" fill="#000" opacity="1">Musical</text><text text-anchor="end" transform="translate(266.03846153846155,7) rotate(320) translate(0,8)" font-family="sans-serif" font-size="10px" fill="#000" opacity="1">Romantic Comedy</text><text text-anchor="end" transform="translate(291.4230769230769,7) rotate(320) translate(0,8)" font-family="sans-serif" font-size="10px" fill="#000" opacity="1">Thriller/Suspense</text><text text-anchor="end" transform="translate(316.80769230769226,7) rotate(320) translate(0,8)" font-family="sans-serif" font-size="10px" fill="#000" opacity="1">Western</text></g><g class="mark-rule role-axis-domain" pointer-events="none"><line transform="translate(0,0)" x2="330" y2="0" stroke="#888" stroke-width="1" opacity="1"></line></g><g class="mark-text role-axis-title" pointer-events="none"><text text-anchor="middle" transform="translate(165,95.79593105796297)" font-family="sans-serif" font-size="11px" font-weight="bold" fill="#000" opacity="1">Major Genre</text></g></g><path class="foreground" aria-hidden="true" d="" pointer-events="none" display="none"></path></g></g><g class="mark-group role-axis" role="graphics-symbol" aria-roledescription="axis" aria-label="Y-axis titled 'Count of Records' for a linear scale with values from 0 to 800"><g transform="translate(0.5,0.5)"><path class="background" aria-hidden="true" d="M0,0h0v0h0Z" pointer-events="none"></path><g><g class="mark-rule role-axis-tick" pointer-events="none"><line transform="translate(0,120)" x2="-5" y2="0" stroke="#888" stroke-width="1" opacity="1"></line><line transform="translate(0,90)" x2="-5" y2="0" stroke="#888" stroke-width="1" opacity="1"></line><line transform="translate(0,60)" x2="-5" y2="0" stroke="#888" stroke-width="1" opacity="1"></line><line transform="translate(0,30)" x2="-5" y2="0" stroke="#888" stroke-width="1" opacity="1"></line><line transform="translate(0,0)" x2="-5" y2="0" stroke="#888" stroke-width="1" opacity="1"></line></g><g class="mark-text role-axis-label" pointer-events="none"><text text-anchor="end" transform="translate(-7,123)" font-family="sans-serif" font-size="10px" fill="#000" opacity="1">0</text><text text-anchor="end" transform="translate(-7,93)" font-family="sans-serif" font-size="10px" fill="#000" opacity="1">200</text><text text-anchor="end" transform="translate(-7,63)" font-family="sans-serif" font-size="10px" fill="#000" opacity="1">400</text><text text-anchor="end" transform="translate(-7,33)" font-family="sans-serif" font-size="10px" fill="#000" opacity="1">600</text><text text-anchor="end" transform="translate(-7,3)" font-family="sans-serif" font-size="10px" fill="#000" opacity="1">800</text></g><g class="mark-rule role-axis-domain" pointer-events="none"><line transform="translate(0,120)" x2="0" y2="-120" stroke="#888" stroke-width="1" opacity="1"></line></g><g class="mark-text role-axis-title" pointer-events="none"><text text-anchor="middle" transform="translate(-29,60) rotate(-90) translate(0,-2)" font-family="sans-serif" font-size="11px" font-weight="bold" fill="#000" opacity="1">Count of Records</text></g></g><path class="foreground" aria-hidden="true" d="" pointer-events="none" display="none"></path></g></g><g class="mark-rect role-mark concat_1_marks" role="graphics-object" aria-roledescription="rect mark container"><path aria-label="Major Genre: null; Count of Records: 275" role="graphics-symbol" aria-roledescription="bar" d="M1.2692307692307736,78.75h22.846153846153847v41.25h-22.846153846153847Z" fill="steelblue"></path><path aria-label="Major Genre: Drama; Count of Records: 789" role="graphics-symbol" aria-roledescription="bar" d="M178.96153846153845,1.6500000000000048h22.846153846153847v118.35h-22.846153846153847Z" fill="steelblue"></path><path aria-label="Major Genre: Comedy; Count of Records: 675" role="graphics-symbol" aria-roledescription="bar" d="M102.8076923076923,18.75h22.846153846153847v101.25h-22.846153846153847Z" fill="steelblue"></path><path aria-label="Major Genre: Musical; Count of Records: 53" role="graphics-symbol" aria-roledescription="bar" d="M229.73076923076923,112.05h22.846153846153847v7.950000000000003h-22.846153846153847Z" fill="steelblue"></path><path aria-label="Major Genre: Thriller/Suspense; Count of Records: 239" role="graphics-symbol" aria-roledescription="bar" d="M280.5,84.14999999999999h22.846153846153847v35.85000000000001h-22.846153846153847Z" fill="steelblue"></path><path aria-label="Major Genre: Adventure; Count of Records: 274" role="graphics-symbol" aria-roledescription="bar" d="M52.03846153846154,78.89999999999999h22.846153846153847v41.10000000000001h-22.846153846153847Z" fill="steelblue"></path><path aria-label="Major Genre: Action; Count of Records: 420" role="graphics-symbol" aria-roledescription="bar" d="M26.653846153846157,57h22.846153846153847v63h-22.846153846153847Z" fill="steelblue"></path><path aria-label="Major Genre: Romantic Comedy; Count of Records: 137" role="graphics-symbol" aria-roledescription="bar" d="M255.1153846153846,99.45h22.846153846153847v20.549999999999997h-22.846153846153847Z" fill="steelblue"></path><path aria-label="Major Genre: Horror; Count of Records: 219" role="graphics-symbol" aria-roledescription="bar" d="M204.34615384615384,87.15h22.846153846153847v32.849999999999994h-22.846153846153847Z" fill="steelblue"></path><path aria-label="Major Genre: Western; Count of Records: 36" role="graphics-symbol" aria-roledescription="bar" d="M305.88461538461536,114.6h22.846153846153847v5.400000000000006h-22.846153846153847Z" fill="steelblue"></path><path aria-label="Major Genre: Documentary; Count of Records: 43" role="graphics-symbol" aria-roledescription="bar" d="M153.57692307692307,113.55000000000001h22.846153846153847v6.449999999999989h-22.846153846153847Z" fill="steelblue"></path><path aria-label="Major Genre: Black Comedy; Count of Records: 36" role="graphics-symbol" aria-roledescription="bar" d="M77.42307692307692,114.6h22.846153846153847v5.400000000000006h-22.846153846153847Z" fill="steelblue"></path><path aria-label="Major Genre: Concert/Performance; Count of Records: 5" role="graphics-symbol" aria-roledescription="bar" d="M128.19230769230768,119.25h22.846153846153847v0.75h-22.846153846153847Z" fill="steelblue"></path></g></g><path class="foreground" aria-hidden="true" d="" display="none"></path></g></g></g><path class="foreground" aria-hidden="true" d="" display="none"></path></g></g></g></svg>