<svg class="marks" width="473" height="328" viewBox="0 0 473 328" version="1.1" xmlns="http://www.w3.org/2000/svg" xmlns:xlink="http://www.w3.org/1999/xlink"><defs><linearGradient id="gradient_0" x1="0" x2="0" y1="1" y2="0"><stop offset="0" stop-color="rgb(247, 252, 240)"></stop><stop offset="0.05555555555555555" stop-color="rgb(237, 248, 231)"></stop><stop offset="0.1111111111111111" stop-color="rgb(227, 244, 221)"></stop><stop offset="0.16666666666666666" stop-color="rgb(217, 240, 212)"></stop><stop offset="0.2222222222222222" stop-color="rgb(207, 236, 202)"></stop><stop offset="0.2777777777777778" stop-color="rgb(195, 231, 194)"></stop><stop offset="0.3333333333333333" stop-color="rgb(179, 225, 188)"></stop><stop offset="0.3888888888888889" stop-color="rgb(162, 219, 186)"></stop><stop offset="0.4444444444444444" stop-color="rgb(143, 211, 190)"></stop><stop offset="0.5" stop-color="rgb(123, 203, 196)"></stop><stop offset="0.5555555555555556" stop-color="rgb(103, 192, 202)"></stop><stop offset="0.6111111111111112" stop-color="rgb(84, 180, 205)"></stop><stop offset="0.6666666666666666" stop-color="rgb(67, 165, 202)"></stop><stop offset="0.7222222222222222" stop-color="rgb(51, 149, 195)"></stop><stop offset="0.7777777777777778" stop-color="rgb(35, 132, 186)"></stop><stop offset="0.8333333333333334" stop-color="rgb(21, 116, 177)"></stop><stop offset="0.8888888888888888" stop-color="rgb(12, 99, 164)"></stop><stop offset="0.9444444444444444" stop-color="rgb(9, 82, 148)"></stop><stop offset="1" stop-color="rgb(8, 64, 129)"></stop></linearGradient></defs><g transform="translate(53,12)"><g class="mark-group role-frame root"><g transform="translate(0,0)"><path class="background" d="M0,0h0v0h0Z" style="fill: none;"></path><g><g class="mark-group role-scope concat_0_group"><g transform="translate(0,0)"><path class="background" d="M0.5,0.5h200v60h-200Z" style="fill: none; stroke: none;"></path><g><g class="mark-group role-axis"><g transform="translate(0.5,0.5)"><path class="background" d="M0,0h0v0h0Z" style="pointer-events: none; fill: none;"></path><g><g class="mark-rule role-axis-grid" style="pointer-events: none;"><line transform="translate(0,60)" x2="200" y2="0" style="fill: none; stroke: #ddd; stroke-width: 1; opacity: 1;"></line><line transform="translate(0,30)" x2="200" y2="0" style="fill: none; stroke: #ddd; stroke-width: 1; opacity: 1;"></line><line transform="translate(0,0)" x2="200" y2="0" style="fill: none; stroke: #ddd; stroke-width: 1; opacity: 1;"></line></g></g></g></g><g class="mark-rect role-mark concat_0_marks"><path d="M112.11111111111111,0.8999999999999986h21.2222222222222v59.1h-21.2222222222222Z" style="fill: #4c78a8;"></path><path d="M45.44444444444444,54h21.222222222222214v6h-21.222222222222214Z" style="fill: #4c78a8;"></path><path d="M134.33333333333331,15.54h21.222222222222257v44.46h-21.222222222222257Z" style="fill: #4c78a8;"></path><path d="M89.88888888888889,22.019999999999996h21.22222222222223v37.980000000000004h-21.22222222222223Z" style="fill: #4c78a8;"></path><path d="M156.55555555555557,47.760000000000005h21.2222222222222v12.239999999999995h-21.2222222222222Z" style="fill: #4c78a8;"></path><path d="M23.22222222222222,57.42h21.22222222222222v2.5799999999999983h-21.22222222222222Z" style="fill: #4c78a8;"></path><path d="M67.66666666666666,43.62h21.22222222222223v16.380000000000003h-21.22222222222223Z" style="fill: #4c78a8;"></path><path d="M178.77777777777777,59.76h21.22222222222223v0.240000000000002h-21.22222222222223Z" style="fill: #4c78a8;"></path><path d="M1,59.7h21.22222222222222v0.29999999999999716h-21.22222222222222Z" style="fill: #4c78a8;"></path></g><g class="mark-group role-axis"><g transform="translate(0.5,0.5)"><path class="background" d="M0,0h0v0h0Z" style="pointer-events: none; fill: none;"></path><g><g class="mark-rule role-axis-tick" style="pointer-events: none;"><line transform="translate(0,60)" x2="-5" y2="0" style="fill: none; stroke: #888; stroke-width: 1; opacity: 1;"></line><line transform="translate(0,30)" x2="-5" y2="0" style="fill: none; stroke: #888; stroke-width: 1; opacity: 1;"></line><line transform="translate(0,0)" x2="-5" y2="0" style="fill: none; stroke: #888; stroke-width: 1; opacity: 1;"></line></g><g class="mark-text role-axis-label" style="pointer-events: none;"><text text-anchor="end" transform="translate(-7,63)" style="font-family: sans-serif; font-size: 10px; fill: #000; opacity: 1;">0</text><text text-anchor="end" transform="translate(-7,33)" style="font-family: sans-serif; font-size: 10px; fill: #000; opacity: 1;">500</text><text text-anchor="end" transform="translate(-7,3)" style="font-family: sans-serif; font-size: 10px; fill: #000; opacity: 1;">1,000</text></g><g class="mark-rule role-axis-domain" style="pointer-events: none;"><line transform="translate(0,60)" x2="0" y2="-60" style="fill: none; stroke: #888; stroke-width: 1; opacity: 1;"></line></g></g></g></g></g></g></g><g class="mark-group role-scope concat_1_group"><g transform="translate(0,75)"><path class="background" d="M0,0h0v0h0Z" style="fill: none;"></path><g><g class="mark-group role-scope concat_1_concat_0_group"><g transform="translate(0,0)"><path class="background" d="M0.5,0.5h200v200h-200Z" style="fill: none; stroke: none;"></path><g><g class="mark-rect role-mark concat_1_concat_0_marks"><path d="M44.44444444444444,60h22.222222222222214v20h-22.222222222222214Z" style="fill: rgb(242, 250, 235);"></path><path d="M88.88888888888889,140h22.22222222222223v20h-22.22222222222223Z" style="fill: rgb(101, 191, 203);"></path><path d="M133.33333333333331,20h22.222222222222257v20h-22.222222222222257Z" style="fill: rgb(9, 87, 153);"></path><path d="M155.55555555555557,0h22.2222222222222v20h-22.2222222222222Z" style="fill: rgb(90, 184, 205);"></path><path d="M111.11111111111111,20h22.2222222222222v20h-22.2222222222222Z" style="fill: rgb(147, 213, 189);"></path><path d="M22.22222222222222,0h22.22222222222222v20h-22.22222222222222Z" style="fill: rgb(244, 251, 237);"></path><path d="M133.33333333333331,80h22.222222222222257v20h-22.222222222222257Z" style="fill: rgb(218, 241, 213);"></path><path d="M88.88888888888889,120h22.22222222222223v20h-22.22222222222223Z" style="fill: rgb(103, 192, 202);"></path><path d="M133.33333333333331,40h22.222222222222257v20h-22.222222222222257Z" style="fill: rgb(105, 194, 202);"></path><path d="M44.44444444444444,160h22.222222222222214v20h-22.222222222222214Z" style="fill: rgb(224, 243, 218);"></path><path d="M133.33333333333331,0h22.222222222222257v20h-22.222222222222257Z" style="fill: rgb(49, 147, 194);"></path><path d="M111.11111111111111,160h22.2222222222222v20h-22.2222222222222Z" style="fill: rgb(218, 241, 213);"></path><path d="M111.11111111111111,80h22.2222222222222v20h-22.2222222222222Z" style="fill: rgb(49, 147, 194);"></path><path d="M66.66666666666666,160h22.22222222222223v20h-22.22222222222223Z" style="fill: rgb(151, 214, 188);"></path><path d="M111.11111111111111,100h22.2222222222222v20h-22.2222222222222Z" style="fill: rgb(57, 156, 198);"></path><path d="M111.11111111111111,140h22.2222222222222v20h-22.2222222222222Z" style="fill: rgb(179, 225, 188);"></path><path d="M88.88888888888889,80h22.22222222222223v20h-22.22222222222223Z" style="fill: rgb(203, 234, 199);"></path><path d="M44.44444444444444,40h22.222222222222214v20h-22.222222222222214Z" style="fill: rgb(245, 251, 238);"></path><path d="M111.11111111111111,0h22.2222222222222v20h-22.2222222222222Z" style="fill: rgb(223, 243, 217);"></path><path d="M88.88888888888889,60h22.22222222222223v20h-22.22222222222223Z" style="fill: rgb(220, 241, 215);"></path><path d="M88.88888888888889,40h22.22222222222223v20h-22.22222222222223Z" style="fill: rgb(239, 249, 233);"></path><path d="M111.11111111111111,60h22.2222222222222v20h-22.2222222222222Z" style="fill: rgb(51, 149, 195);"></path><path d="M133.33333333333331,60h22.222222222222257v20h-22.222222222222257Z" style="fill: rgb(133, 207, 193);"></path><path d="M111.11111111111111,120h22.2222222222222v20h-22.2222222222222Z" style="fill: rgb(158, 217, 187);"></path><path d="M88.88888888888889,20h22.22222222222223v20h-22.22222222222223Z" style="fill: rgb(237, 248, 231);"></path><path d="M44.44444444444444,0h22.222222222222214v20h-22.222222222222214Z" style="fill: rgb(245, 251, 238);"></path><path d="M44.44444444444444,140h22.222222222222214v20h-22.222222222222214Z" style="fill: rgb(236, 248, 230);"></path><path d="M66.66666666666666,100h22.22222222222223v20h-22.22222222222223Z" style="fill: rgb(238, 248, 232);"></path><path d="M88.88888888888889,160h22.22222222222223v20h-22.22222222222223Z" style="fill: rgb(121, 202, 197);"></path><path d="M88.88888888888889,100h22.22222222222223v20h-22.22222222222223Z" style="fill: rgb(160, 218, 186);"></path><path d="M66.66666666666666,80h22.22222222222223v20h-22.22222222222223Z" style="fill: rgb(243, 250, 236);"></path><path d="M155.55555555555557,40h22.2222222222222v20h-22.2222222222222Z" style="fill: rgb(233, 246, 227);"></path><path d="M111.11111111111111,40h22.2222222222222v20h-22.2222222222222Z" style="fill: rgb(92, 185, 205);"></path><path d="M155.55555555555557,120h22.2222222222222v20h-22.2222222222222Z" style="fill: rgb(246, 252, 239);"></path><path d="M155.55555555555557,20h22.2222222222222v20h-22.2222222222222Z" style="fill: rgb(211, 238, 206);"></path><path d="M66.66666666666666,40h22.22222222222223v20h-22.22222222222223Z" style="fill: rgb(245, 251, 238);"></path><path d="M88.88888888888889,0h22.22222222222223v20h-22.22222222222223Z" style="fill: rgb(239, 249, 233);"></path><path d="M66.66666666666666,140h22.22222222222223v20h-22.22222222222223Z" style="fill: rgb(207, 236, 202);"></path><path d="M66.66666666666666,180h22.22222222222223v20h-22.22222222222223Z" style="fill: rgb(204, 235, 200);"></path><path d="M88.88888888888889,180h22.22222222222223v20h-22.22222222222223Z" style="fill: rgb(218, 241, 213);"></path><path d="M177.77777777777777,0h22.22222222222223v20h-22.22222222222223Z" style="fill: rgb(246, 252, 239);"></path><path d="M66.66666666666666,120h22.22222222222223v20h-22.22222222222223Z" style="fill: rgb(225, 243, 219);"></path><path d="M133.33333333333331,100h22.222222222222257v20h-22.222222222222257Z" style="fill: rgb(231, 246, 225);"></path><path d="M44.44444444444444,180h22.222222222222214v20h-22.222222222222214Z" style="fill: rgb(229, 245, 223);"></path><path d="M22.22222222222222,160h22.22222222222222v20h-22.22222222222222Z" style="fill: rgb(239, 249, 233);"></path><path d="M177.77777777777777,20h22.22222222222223v20h-22.22222222222223Z" style="fill: rgb(245, 251, 238);"></path><path d="M66.66666666666666,0h22.22222222222223v20h-22.22222222222223Z" style="fill: rgb(245, 251, 238);"></path><path d="M22.22222222222222,60h22.22222222222222v20h-22.22222222222222Z" style="fill: rgb(244, 251, 237);"></path><path d="M133.33333333333331,140h22.222222222222257v20h-22.222222222222257Z" style="fill: rgb(241, 250, 234);"></path><path d="M155.55555555555557,160h22.2222222222222v20h-22.2222222222222Z" style="fill: rgb(246, 252, 239);"></path><path d="M22.22222222222222,180h22.22222222222222v20h-22.22222222222222Z" style="fill: rgb(233, 246, 227);"></path><path d="M66.66666666666666,60h22.22222222222223v20h-22.22222222222223Z" style="fill: rgb(245, 251, 238);"></path><path d="M133.33333333333331,120h22.222222222222257v20h-22.222222222222257Z" style="fill: rgb(233, 246, 227);"></path><path d="M155.55555555555557,60h22.2222222222222v20h-22.2222222222222Z" style="fill: rgb(245, 251, 238);"></path><path d="M133.33333333333331,160h22.222222222222257v20h-22.222222222222257Z" style="fill: rgb(245, 251, 238);"></path><path d="M0,180h22.22222222222222v20h-22.22222222222222Z" style="fill: rgb(244, 251, 237);"></path><path d="M111.11111111111111,180h22.2222222222222v20h-22.2222222222222Z" style="fill: rgb(244, 251, 237);"></path><path d="M66.66666666666666,20h22.22222222222223v20h-22.22222222222223Z" style="fill: rgb(246, 252, 239);"></path><path d="M155.55555555555557,100h22.2222222222222v20h-22.2222222222222Z" style="fill: rgb(246, 252, 239);"></path><path d="M44.44444444444444,120h22.222222222222214v20h-22.222222222222214Z" style="fill: rgb(246, 252, 239);"></path><path d="M155.55555555555557,80h22.2222222222222v20h-22.2222222222222Z" style="fill: rgb(246, 252, 239);"></path><path d="M22.22222222222222,140h22.22222222222222v20h-22.22222222222222Z" style="fill: rgb(246, 252, 239);"></path><path d="M22.22222222222222,120h22.22222222222222v20h-22.22222222222222Z" style="fill: rgb(246, 252, 239);"></path><path d="M22.22222222222222,20h22.22222222222222v20h-22.22222222222222Z" style="fill: rgb(246, 252, 239);"></path></g><g class="mark-group role-axis"><g transform="translate(0.5,200.5)"><path class="background" d="M0,0h0v0h0Z" style="pointer-events: none; fill: none;"></path><g><g class="mark-rule role-axis-tick" style="pointer-events: none;"><line transform="translate(0,0)" x2="0" y2="5" style="fill: none; stroke: #888; stroke-width: 1; opacity: 1;"></line><line transform="translate(22,0)" x2="0" y2="5" style="fill: none; stroke: #888; stroke-width: 1; opacity: 1;"></line><line transform="translate(44,0)" x2="0" y2="5" style="fill: none; stroke: #888; stroke-width: 1; opacity: 1;"></line><line transform="translate(67,0)" x2="0" y2="5" style="fill: none; stroke: #888; stroke-width: 1; opacity: 1;"></line><line transform="translate(89,0)" x2="0" y2="5" style="fill: none; stroke: #888; stroke-width: 1; opacity: 1;"></line><line transform="translate(111,0)" x2="0" y2="5" style="fill: none; stroke: #888; stroke-width: 1; opacity: 1;"></line><line transform="translate(133,0)" x2="0" y2="5" style="fill: none; stroke: #888; stroke-width: 1; opacity: 1;"></line><line transform="translate(156,0)" x2="0" y2="5" style="fill: none; stroke: #888; stroke-width: 1; opacity: 1;"></line><line transform="translate(178,0)" x2="0" y2="5" style="fill: none; stroke: #888; stroke-width: 1; opacity: 1;"></line><line transform="translate(200,0)" x2="0" y2="5" style="fill: none; stroke: #888; stroke-width: 1; opacity: 1;"></line></g><g class="mark-text role-axis-label" style="pointer-events: none;"><text text-anchor="start" transform="translate(0,15)" style="font-family: sans-serif; font-size: 10px; fill: #000; opacity: 1;">1</text><text text-anchor="middle" transform="translate(22.22222222222222,15)" style="font-family: sans-serif; font-size: 10px; fill: #000; opacity: 1;">2</text><text text-anchor="middle" transform="translate(44.44444444444444,15)" style="font-family: sans-serif; font-size: 10px; fill: #000; opacity: 1;">3</text><text text-anchor="middle" transform="translate(66.66666666666666,15)" style="font-family: sans-serif; font-size: 10px; fill: #000; opacity: 1;">4</text><text text-anchor="middle" transform="translate(88.88888888888889,15)" style="font-family: sans-serif; font-size: 10px; fill: #000; opacity: 1;">5</text><text text-anchor="middle" transform="translate(111.11111111111111,15)" style="font-family: sans-serif; font-size: 10px; fill: #000; opacity: 1;">6</text><text text-anchor="middle" transform="translate(133.33333333333331,15)" style="font-family: sans-serif; font-size: 10px; fill: #000; opacity: 1;">7</text><text text-anchor="middle" transform="translate(155.55555555555557,15)" style="font-family: sans-serif; font-size: 10px; fill: #000; opacity: 1;">8</text><text text-anchor="middle" transform="translate(177.77777777777777,15)" style="font-family: sans-serif; font-size: 10px; fill: #000; opacity: 1;">9</text><text text-anchor="end" transform="translate(200,15)" style="font-family: sans-serif; font-size: 10px; fill: #000; opacity: 1;">10</text></g><g class="mark-rule role-axis-domain" style="pointer-events: none;"><line transform="translate(0,0)" x2="200" y2="0" style="fill: none; stroke: #888; stroke-width: 1; opacity: 1;"></line></g><g class="mark-text role-axis-title" style="pointer-events: none;"><text text-anchor="middle" transform="translate(100,31)" style="font-family: sans-serif; font-size: 11px; font-weight: bold; fill: #000; opacity: 1;">IMDB_Rating (binned)</text></g></g></g></g><g class="mark-group role-axis"><g transform="translate(0.5,0.5)"><path class="background" d="M0,0h0v0h0Z" style="pointer-events: none; fill: none;"></path><g><g class="mark-rule role-axis-tick" style="pointer-events: none;"><line transform="translate(0,200)" x2="-5" y2="0" style="fill: none; stroke: #888; stroke-width: 1; opacity: 1;"></line><line transform="translate(0,160)" x2="-5" y2="0" style="fill: none; stroke: #888; stroke-width: 1; opacity: 1;"></line><line transform="translate(0,120)" x2="-5" y2="0" style="fill: none; stroke: #888; stroke-width: 1; opacity: 1;"></line><line transform="translate(0,80)" x2="-5" y2="0" style="fill: none; stroke: #888; stroke-width: 1; opacity: 1;"></line><line transform="translate(0,40)" x2="-5" y2="0" style="fill: none; stroke: #888; stroke-width: 1; opacity: 1;"></line><line transform="translate(0,0)" x2="-5" y2="0" style="fill: none; stroke: #888; stroke-width: 1; opacity: 1;"></line></g><g class="mark-text role-axis-label" style="pointer-events: none;"><text text-anchor="end" transform="translate(-7,203)" style="font-family: sans-serif; font-size: 10px; fill: #000; opacity: 1;">0</text><text text-anchor="end" transform="translate(-7,163)" style="font-family: sans-serif; font-size: 10px; fill: #000; opacity: 1;">20</text><text text-anchor="end" transform="translate(-7,123)" style="font-family: sans-serif; font-size: 10px; fill: #000; opacity: 1;">40</text><text text-anchor="end" transform="translate(-7,83)" style="font-family: sans-serif; font-size: 10px; fill: #000; opacity: 1;">60</text><text text-anchor="end" transform="translate(-7,43)" style="font-family: sans-serif; font-size: 10px; fill: #000; opacity: 1;">80</text><text text-anchor="end" transform="translate(-7,3)" style="font-family: sans-serif; font-size: 10px; fill: #000; opacity: 1;">100</text></g><g class="mark-rule role-axis-domain" style="pointer-events: none;"><line transform="translate(0,200)" x2="0" y2="-200" style="fill: none; stroke: #888; stroke-width: 1; opacity: 1;"></line></g><g class="mark-text role-axis-title" style="pointer-events: none;"><text text-anchor="middle" transform="translate(-34,100) rotate(-90) translate(0,-2)" style="font-family: sans-serif; font-size: 11px; font-weight: bold; fill: #000; opacity: 1;">Rotten_Tomatoes_Rating (binned)</text></g></g></g></g></g></g></g><g class="mark-group role-scope concat_1_concat_1_group"><g transform="translate(215,0)"><path class="background" d="M0.5,0.5h60v200h-60Z" style="fill: none; stroke: none;"></path><g><g class="mark-group role-axis"><g transform="translate(0.5,200.5)"><path class="background" d="M0,0h0v0h0Z" style="pointer-events: none; fill: none;"></path><g><g class="mark-rule role-axis-grid" style="pointer-events: none;"><line transform="translate(0,-200)" x2="0" y2="200" style="fill: none; stroke: #ddd; stroke-width: 1; opacity: 1;"></line><line transform="translate(30,-200)" x2="0" y2="200" style="fill: none; stroke: #ddd; stroke-width: 1; opacity: 1;"></line><line transform="translate(60,-200)" x2="0" y2="200" style="fill: none; stroke: #ddd; stroke-width: 1; opacity: 1;"></line></g></g></g></g><g class="mark-rect role-mark concat_1_concat_1_marks"><path d="M0,161h14.16v19h-14.16Z" style="fill: #4c78a8;"></path><path d="M0,61h15.48v19h-15.48Z" style="fill: #4c78a8;"></path><path d="M0,141h13.56v19h-13.56Z" style="fill: #4c78a8;"></path><path d="M0,21h18.36v19h-18.36Z" style="fill: #4c78a8;"></path><path d="M0,1h17.16v19h-17.16Z" style="fill: #4c78a8;"></path><path d="M0,81h12.84v19h-12.84Z" style="fill: #4c78a8;"></path><path d="M0,121h13.08v19h-13.08Z" style="fill: #4c78a8;"></path><path d="M0,41h14.34v19h-14.34Z" style="fill: #4c78a8;"></path><path d="M0,101h13.56v19h-13.56Z" style="fill: #4c78a8;"></path><path d="M0,181h6.72v19h-6.72Z" style="fill: #4c78a8;"></path></g><g class="mark-group role-axis"><g transform="translate(0.5,200.5)"><path class="background" d="M0,0h0v0h0Z" style="pointer-events: none; fill: none;"></path><g><g class="mark-rule role-axis-tick" style="pointer-events: none;"><line transform="translate(0,0)" x2="0" y2="5" style="fill: none; stroke: #888; stroke-width: 1; opacity: 1;"></line><line transform="translate(30,0)" x2="0" y2="5" style="fill: none; stroke: #888; stroke-width: 1; opacity: 1;"></line><line transform="translate(60,0)" x2="0" y2="5" style="fill: none; stroke: #888; stroke-width: 1; opacity: 1;"></line></g><g class="mark-text role-axis-label" style="pointer-events: none;"><text text-anchor="start" transform="translate(0,15)" style="font-family: sans-serif; font-size: 10px; fill: #000; opacity: 1;">0</text><text text-anchor="middle" transform="translate(30,15)" style="font-family: sans-serif; font-size: 10px; fill: #000; opacity: 0;">500</text><text text-anchor="end" transform="translate(60,15)" style="font-family: sans-serif; font-size: 10px; fill: #000; opacity: 1;">1,000</text></g><g class="mark-rule role-axis-domain" style="pointer-events: none;"><line transform="translate(0,0)" x2="60" y2="0" style="fill: none; stroke: #888; stroke-width: 1; opacity: 1;"></line></g></g></g></g></g></g></g></g></g></g><g class="mark-group role-legend"><g transform="translate(295,0)"><path class="background" d="M0,0h120v217h-120Z" style="pointer-events: none; fill: none;"></path><g><g class="mark-group role-legend-entry"><g transform="translate(0,16)"><path class="background" d="M0,0h0v0h0Z" style="pointer-events: none; fill: none;"></path><g><g class="mark-rect role-legend-gradient" style="pointer-events: none;"><path d="M0,0h16v200h-16Z" style="fill: url(#gradient_0); stroke: #ddd; stroke-width: 0; opacity: 1;"></path></g><g class="mark-text role-legend-label" style="pointer-events: none;"><text text-anchor="start" transform="translate(18,198)" style="font-family: sans-serif; font-size: 10px; fill: #000; opacity: 1;">0</text><text text-anchor="start" transform="translate(18,136.33333333333334)" style="font-family: sans-serif; font-size: 10px; fill: #000; opacity: 1;">50</text><text text-anchor="start" transform="translate(18,69.66666666666667)" style="font-family: sans-serif; font-size: 10px; fill: #000; opacity: 1;">100</text><text text-anchor="start" transform="translate(18,8)" style="font-family: sans-serif; font-size: 10px; fill: #000; opacity: 1;">150</text></g></g></g></g><g class="mark-text role-legend-title" style="pointer-events: none;"><text text-anchor="start" transform="translate(0,9)" style="font-family: sans-serif; font-size: 11px; font-weight: bold; fill: #000; opacity: 1;">Number of Records</text></g></g></g></g></g></g></g></g></svg>