<svg class="marks" width="389" height="485" viewBox="0 0 389 485" version="1.1" xmlns="http://www.w3.org/2000/svg" xmlns:xlink="http://www.w3.org/1999/xlink"><g transform="translate(53,12)"><g class="mark-group role-frame root"><g transform="translate(0,0)"><path class="background" d="M0,0h0v0h0Z" style="fill: none;"></path><g><g class="mark-group role-scope concat_0_group"><g transform="translate(0,0)"><path class="background" d="M0.5,0.5h200v200h-200Z" style="fill: none; stroke: #ddd;"></path><g><g class="mark-symbol role-mark concat_0_layer_0_marks"><path transform="translate(55.55555555555555,70)" d="M1.7159868235050972,0A1.7159868235050972,1.7159868235050972,0,1,1,-1.7159868235050972,0A1.7159868235050972,1.7159868235050972,0,1,1,1.7159868235050972,0" style="fill: #4c78a8; stroke-width: 2; opacity: 0.4;"></path><path transform="translate(100,150)" d="M7.394669548029236,0A7.394669548029236,7.394669548029236,0,1,1,-7.394669548029236,0A7.394669548029236,7.394669548029236,0,1,1,7.394669548029236,0" style="fill: #4c78a8; stroke-width: 2; opacity: 0.4;"></path><path transform="translate(144.44444444444446,30)" d="M9.5,0A9.5,9.5,0,1,1,-9.5,0A9.5,9.5,0,1,1,9.5,0" style="fill: #4c78a8; stroke-width: 2; opacity: 0.4;"></path><path transform="translate(166.66666666666669,10)" d="M7.610168898170568,0A7.610168898170568,7.610168898170568,0,1,1,-7.610168898170568,0A7.610168898170568,7.610168898170568,0,1,1,7.610168898170568,0" style="fill: #4c78a8; stroke-width: 2; opacity: 0.4;"></path><path transform="translate(122.22222222222221,30)" d="M6.502763116069397,0A6.502763116069397,6.502763116069397,0,1,1,-6.502763116069397,0A6.502763116069397,6.502763116069397,0,1,1,6.502763116069397,0" style="fill: #4c78a8; stroke-width: 2; opacity: 0.4;"></path><path transform="translate(33.33333333333333,10)" d="M1.3662966248461086,0A1.3662966248461086,1.3662966248461086,0,1,1,-1.3662966248461086,0A1.3662966248461086,1.3662966248461086,0,1,1,1.3662966248461086,0" style="fill: #4c78a8; stroke-width: 2; opacity: 0.4;"></path><path transform="translate(144.44444444444446,90)" d="M3.9848139874992987,0A3.9848139874992987,3.9848139874992987,0,1,1,-3.9848139874992987,0A3.9848139874992987,3.9848139874992987,0,1,1,3.9848139874992987,0" style="fill: #4c78a8; stroke-width: 2; opacity: 0.4;"></path><path transform="translate(100,130)" d="M7.358139409447355,0A7.358139409447355,7.358139409447355,0,1,1,-7.358139409447355,0A7.358139409447355,7.358139409447355,0,1,1,7.358139409447355,0" style="fill: #4c78a8; stroke-width: 2; opacity: 0.4;"></path><path transform="translate(144.44444444444446,50)" d="M7.321427006613782,0A7.321427006613782,7.321427006613782,0,1,1,-7.321427006613782,0A7.321427006613782,7.321427006613782,0,1,1,7.321427006613782,0" style="fill: #4c78a8; stroke-width: 2; opacity: 0.4;"></path><path transform="translate(55.55555555555555,170)" d="M3.556010345997087,0A3.556010345997087,3.556010345997087,0,1,1,-3.556010345997087,0A3.556010345997087,3.556010345997087,0,1,1,3.556010345997087,0" style="fill: #4c78a8; stroke-width: 2; opacity: 0.4;"></path><path transform="translate(144.44444444444446,10)" d="M8.41717306434943,0A8.41717306434943,8.41717306434943,0,1,1,-8.41717306434943,0A8.41717306434943,8.41717306434943,0,1,1,8.41717306434943,0" style="fill: #4c78a8; stroke-width: 2; opacity: 0.4;"></path><path transform="translate(122.22222222222221,170)" d="M3.9848139874992987,0A3.9848139874992987,3.9848139874992987,0,1,1,-3.9848139874992987,0A3.9848139874992987,3.9848139874992987,0,1,1,3.9848139874992987,0" style="fill: #4c78a8; stroke-width: 2; opacity: 0.4;"></path><path transform="translate(122.22222222222221,90)" d="M8.41717306434943,0A8.41717306434943,8.41717306434943,0,1,1,-8.41717306434943,0A8.41717306434943,8.41717306434943,0,1,1,8.41717306434943,0" style="fill: #4c78a8; stroke-width: 2; opacity: 0.4;"></path><path transform="translate(77.77777777777777,170)" d="M6.419352290717135,0A6.419352290717135,6.419352290717135,0,1,1,-6.419352290717135,0A6.419352290717135,6.419352290717135,0,1,1,6.419352290717135,0" style="fill: #4c78a8; stroke-width: 2; opacity: 0.4;"></path><path transform="translate(122.22222222222221,110)" d="M8.255555197366586,0A8.255555197366586,8.255555197366586,0,1,1,-8.255555197366586,0A8.255555197366586,8.255555197366586,0,1,1,8.255555197366586,0" style="fill: #4c78a8; stroke-width: 2; opacity: 0.4;"></path><path transform="translate(122.22222222222221,150)" d="M5.70835609797754,0A5.70835609797754,5.70835609797754,0,1,1,-5.70835609797754,0A5.70835609797754,5.70835609797754,0,1,1,5.70835609797754,0" style="fill: #4c78a8; stroke-width: 2; opacity: 0.4;"></path><path transform="translate(100,90)" d="M4.895158306970205,0A4.895158306970205,4.895158306970205,0,1,1,-4.895158306970205,0A4.895158306970205,4.895158306970205,0,1,1,4.895158306970205,0" style="fill: #4c78a8; stroke-width: 2; opacity: 0.4;"></path><path transform="translate(55.55555555555555,50)" d="M1.1523212709037551,0A1.1523212709037551,1.1523212709037551,0,1,1,-1.1523212709037551,0A1.1523212709037551,1.1523212709037551,0,1,1,1.1523212709037551,0" style="fill: #4c78a8; stroke-width: 2; opacity: 0.4;"></path><path transform="translate(122.22222222222221,10)" d="M3.630995970326454,0A3.630995970326454,3.630995970326454,0,1,1,-3.630995970326454,0A3.630995970326454,3.630995970326454,0,1,1,3.630995970326454,0" style="fill: #4c78a8; stroke-width: 2; opacity: 0.4;"></path><path transform="translate(100,70)" d="M3.8471935490163234,0A3.8471935490163234,3.8471935490163234,0,1,1,-3.8471935490163234,0A3.8471935490163234,3.8471935490163234,0,1,1,3.8471935490163234,0" style="fill: #4c78a8; stroke-width: 2; opacity: 0.4;"></path><path transform="translate(100,50)" d="M2.135738103211389,0A2.135738103211389,2.135738103211389,0,1,1,-2.135738103211389,0A2.135738103211389,2.135738103211389,0,1,1,2.135738103211389,0" style="fill: #4c78a8; stroke-width: 2; opacity: 0.4;"></path><path transform="translate(122.22222222222221,70)" d="M8.385098701835355,0A8.385098701835355,8.385098701835355,0,1,1,-8.385098701835355,0A8.385098701835355,8.385098701835355,0,1,1,8.385098701835355,0" style="fill: #4c78a8; stroke-width: 2; opacity: 0.4;"></path><path transform="translate(144.44444444444446,70)" d="M6.786632687388712,0A6.786632687388712,6.786632687388712,0,1,1,-6.786632687388712,0A6.786632687388712,6.786632687388712,0,1,1,6.786632687388712,0" style="fill: #4c78a8; stroke-width: 2; opacity: 0.4;"></path><path transform="translate(122.22222222222221,130)" d="M6.249191564481028,0A6.249191564481028,6.249191564481028,0,1,1,-6.249191564481028,0A6.249191564481028,6.249191564481028,0,1,1,6.249191564481028,0" style="fill: #4c78a8; stroke-width: 2; opacity: 0.4;"></path><path transform="translate(100,30)" d="M2.3747045199111043,0A2.3747045199111043,2.3747045199111043,0,1,1,-2.3747045199111043,0A2.3747045199111043,2.3747045199111043,0,1,1,2.3747045199111043,0" style="fill: #4c78a8; stroke-width: 2; opacity: 0.4;"></path><path transform="translate(55.55555555555555,10)" d="M1.1523212709037551,0A1.1523212709037551,1.1523212709037551,0,1,1,-1.1523212709037551,0A1.1523212709037551,1.1523212709037551,0,1,1,1.1523212709037551,0" style="fill: #4c78a8; stroke-width: 2; opacity: 0.4;"></path><path transform="translate(55.55555555555555,150)" d="M2.485587196735381,0A2.485587196735381,2.485587196735381,0,1,1,-2.485587196735381,0A2.485587196735381,2.485587196735381,0,1,1,2.485587196735381,0" style="fill: #4c78a8; stroke-width: 2; opacity: 0.4;"></path><path transform="translate(77.77777777777777,110)" d="M2.2583842456937226,0A2.2583842456937226,2.2583842456937226,0,1,1,-2.2583842456937226,0A2.2583842456937226,2.2583842456937226,0,1,1,2.2583842456937226,0" style="fill: #4c78a8; stroke-width: 2; opacity: 0.4;"></path><path transform="translate(100,170)" d="M7.020820191947994,0A7.020820191947994,7.020820191947994,0,1,1,-7.020820191947994,0A7.020820191947994,7.020820191947994,0,1,1,7.020820191947994,0" style="fill: #4c78a8; stroke-width: 2; opacity: 0.4;"></path><path transform="translate(100,110)" d="M6.205922417650113,0A6.205922417650113,6.205922417650113,0,1,1,-6.205922417650113,0A6.205922417650113,6.205922417650113,0,1,1,6.205922417650113,0" style="fill: #4c78a8; stroke-width: 2; opacity: 0.4;"></path><path transform="translate(77.77777777777777,90)" d="M1.5510282469234695,0A1.5510282469234695,1.5510282469234695,0,1,1,-1.5510282469234695,0A1.5510282469234695,1.5510282469234695,0,1,1,1.5510282469234695,0" style="fill: #4c78a8; stroke-width: 2; opacity: 0.4;"></path><path transform="translate(166.66666666666669,50)" d="M2.7919366360361257,0A2.7919366360361257,2.7919366360361257,0,1,1,-2.7919366360361257,0A2.7919366360361257,2.7919366360361257,0,1,1,2.7919366360361257,0" style="fill: #4c78a8; stroke-width: 2; opacity: 0.4;"></path><path transform="translate(122.22222222222221,50)" d="M7.574678112170445,0A7.574678112170445,7.574678112170445,0,1,1,-7.574678112170445,0A7.574678112170445,7.574678112170445,0,1,1,7.574678112170445,0" style="fill: #4c78a8; stroke-width: 2; opacity: 0.4;"></path><path transform="translate(166.66666666666669,130)" d="M0.8882128999787285,0A0.8882128999787285,0.8882128999787285,0,1,1,-0.8882128999787285,0A0.8882128999787285,0.8882128999787285,0,1,1,0.8882128999787285,0" style="fill: #4c78a8; stroke-width: 2; opacity: 0.4;"></path><path transform="translate(166.66666666666669,30)" d="M4.432967133285608,0A4.432967133285608,4.432967133285608,0,1,1,-4.432967133285608,0A4.432967133285608,4.432967133285608,0,1,1,4.432967133285608,0" style="fill: #4c78a8; stroke-width: 2; opacity: 0.4;"></path><path transform="translate(77.77777777777777,50)" d="M1.1523212709037551,0A1.1523212709037551,1.1523212709037551,0,1,1,-1.1523212709037551,0A1.1523212709037551,1.1523212709037551,0,1,1,1.1523212709037551,0" style="fill: #4c78a8; stroke-width: 2; opacity: 0.4;"></path><path transform="translate(100,10)" d="M2.135738103211389,0A2.135738103211389,2.135738103211389,0,1,1,-2.135738103211389,0A2.135738103211389,2.135738103211389,0,1,1,2.135738103211389,0" style="fill: #4c78a8; stroke-width: 2; opacity: 0.4;"></path><path transform="translate(77.77777777777777,150)" d="M4.669784387693388,0A4.669784387693388,4.669784387693388,0,1,1,-4.669784387693388,0A4.669784387693388,4.669784387693388,0,1,1,4.669784387693388,0" style="fill: #4c78a8; stroke-width: 2; opacity: 0.4;"></path><path transform="translate(77.77777777777777,190)" d="M4.839798827907083,0A4.839798827907083,4.839798827907083,0,1,1,-4.839798827907083,0A4.839798827907083,4.839798827907083,0,1,1,4.839798827907083,0" style="fill: #4c78a8; stroke-width: 2; opacity: 0.4;"></path><path transform="translate(100,190)" d="M3.9848139874992987,0A3.9848139874992987,3.9848139874992987,0,1,1,-3.9848139874992987,0A3.9848139874992987,3.9848139874992987,0,1,1,3.9848139874992987,0" style="fill: #4c78a8; stroke-width: 2; opacity: 0.4;"></path><path transform="translate(188.88888888888889,10)" d="M0.8882128999787285,0A0.8882128999787285,0.8882128999787285,0,1,1,-0.8882128999787285,0A0.8882128999787285,0.8882128999787285,0,1,1,0.8882128999787285,0" style="fill: #4c78a8; stroke-width: 2; opacity: 0.4;"></path><path transform="translate(77.77777777777777,130)" d="M3.47940906263545,0A3.47940906263545,3.47940906263545,0,1,1,-3.47940906263545,0A3.47940906263545,3.47940906263545,0,1,1,3.47940906263545,0" style="fill: #4c78a8; stroke-width: 2; opacity: 0.4;"></path><path transform="translate(144.44444444444446,110)" d="M2.978716920255761,0A2.978716920255761,2.978716920255761,0,1,1,-2.978716920255761,0A2.978716920255761,2.978716920255761,0,1,1,2.978716920255761,0" style="fill: #4c78a8; stroke-width: 2; opacity: 0.4;"></path><path transform="translate(55.55555555555555,190)" d="M3.154456974250118,0A3.154456974250118,3.154456974250118,0,1,1,-3.154456974250118,0A3.154456974250118,3.154456974250118,0,1,1,3.154456974250118,0" style="fill: #4c78a8; stroke-width: 2; opacity: 0.4;"></path><path transform="translate(33.33333333333333,170)" d="M2.135738103211389,0A2.135738103211389,2.135738103211389,0,1,1,-2.135738103211389,0A2.135738103211389,2.135738103211389,0,1,1,2.135738103211389,0" style="fill: #4c78a8; stroke-width: 2; opacity: 0.4;"></path><path transform="translate(188.88888888888889,30)" d="M1.1523212709037551,0A1.1523212709037551,1.1523212709037551,0,1,1,-1.1523212709037551,0A1.1523212709037551,1.1523212709037551,0,1,1,1.1523212709037551,0" style="fill: #4c78a8; stroke-width: 2; opacity: 0.4;"></path><path transform="translate(77.77777777777777,10)" d="M1.1523212709037551,0A1.1523212709037551,1.1523212709037551,0,1,1,-1.1523212709037551,0A1.1523212709037551,1.1523212709037551,0,1,1,1.1523212709037551,0" style="fill: #4c78a8; stroke-width: 2; opacity: 0.4;"></path><path transform="translate(33.33333333333333,70)" d="M1.3662966248461086,0A1.3662966248461086,1.3662966248461086,0,1,1,-1.3662966248461086,0A1.3662966248461086,1.3662966248461086,0,1,1,1.3662966248461086,0" style="fill: #4c78a8; stroke-width: 2; opacity: 0.4;"></path><path transform="translate(144.44444444444446,150)" d="M1.8664224961491802,0A1.8664224961491802,1.8664224961491802,0,1,1,-1.8664224961491802,0A1.8664224961491802,1.8664224961491802,0,1,1,1.8664224961491802,0" style="fill: #4c78a8; stroke-width: 2; opacity: 0.4;"></path><path transform="translate(166.66666666666669,170)" d="M0.8882128999787285,0A0.8882128999787285,0.8882128999787285,0,1,1,-0.8882128999787285,0A0.8882128999787285,0.8882128999787285,0,1,1,0.8882128999787285,0" style="fill: #4c78a8; stroke-width: 2; opacity: 0.4;"></path><path transform="translate(33.33333333333333,190)" d="M2.7919366360361257,0A2.7919366360361257,2.7919366360361257,0,1,1,-2.7919366360361257,0A2.7919366360361257,2.7919366360361257,0,1,1,2.7919366360361257,0" style="fill: #4c78a8; stroke-width: 2; opacity: 0.4;"></path><path transform="translate(77.77777777777777,70)" d="M1.1523212709037551,0A1.1523212709037551,1.1523212709037551,0,1,1,-1.1523212709037551,0A1.1523212709037551,1.1523212709037551,0,1,1,1.1523212709037551,0" style="fill: #4c78a8; stroke-width: 2; opacity: 0.4;"></path><path transform="translate(144.44444444444446,130)" d="M2.7919366360361257,0A2.7919366360361257,2.7919366360361257,0,1,1,-2.7919366360361257,0A2.7919366360361257,2.7919366360361257,0,1,1,2.7919366360361257,0" style="fill: #4c78a8; stroke-width: 2; opacity: 0.4;"></path><path transform="translate(166.66666666666669,70)" d="M1.1523212709037551,0A1.1523212709037551,1.1523212709037551,0,1,1,-1.1523212709037551,0A1.1523212709037551,1.1523212709037551,0,1,1,1.1523212709037551,0" style="fill: #4c78a8; stroke-width: 2; opacity: 0.4;"></path><path transform="translate(144.44444444444446,170)" d="M1.1523212709037551,0A1.1523212709037551,1.1523212709037551,0,1,1,-1.1523212709037551,0A1.1523212709037551,1.1523212709037551,0,1,1,1.1523212709037551,0" style="fill: #4c78a8; stroke-width: 2; opacity: 0.4;"></path><path transform="translate(11.11111111111111,190)" d="M1.3662966248461086,0A1.3662966248461086,1.3662966248461086,0,1,1,-1.3662966248461086,0A1.3662966248461086,1.3662966248461086,0,1,1,1.3662966248461086,0" style="fill: #4c78a8; stroke-width: 2; opacity: 0.4;"></path><path transform="translate(122.22222222222221,190)" d="M1.3662966248461086,0A1.3662966248461086,1.3662966248461086,0,1,1,-1.3662966248461086,0A1.3662966248461086,1.3662966248461086,0,1,1,1.3662966248461086,0" style="fill: #4c78a8; stroke-width: 2; opacity: 0.4;"></path><path transform="translate(77.77777777777777,30)" d="M0.8882128999787285,0A0.8882128999787285,0.8882128999787285,0,1,1,-0.8882128999787285,0A0.8882128999787285,0.8882128999787285,0,1,1,0.8882128999787285,0" style="fill: #4c78a8; stroke-width: 2; opacity: 0.4;"></path><path transform="translate(166.66666666666669,110)" d="M0.8882128999787285,0A0.8882128999787285,0.8882128999787285,0,1,1,-0.8882128999787285,0A0.8882128999787285,0.8882128999787285,0,1,1,0.8882128999787285,0" style="fill: #4c78a8; stroke-width: 2; opacity: 0.4;"></path><path transform="translate(55.55555555555555,130)" d="M0.8882128999787285,0A0.8882128999787285,0.8882128999787285,0,1,1,-0.8882128999787285,0A0.8882128999787285,0.8882128999787285,0,1,1,0.8882128999787285,0" style="fill: #4c78a8; stroke-width: 2; opacity: 0.4;"></path><path transform="translate(166.66666666666669,90)" d="M0.8882128999787285,0A0.8882128999787285,0.8882128999787285,0,1,1,-0.8882128999787285,0A0.8882128999787285,0.8882128999787285,0,1,1,0.8882128999787285,0" style="fill: #4c78a8; stroke-width: 2; opacity: 0.4;"></path><path transform="translate(33.33333333333333,150)" d="M0.8882128999787285,0A0.8882128999787285,0.8882128999787285,0,1,1,-0.8882128999787285,0A0.8882128999787285,0.8882128999787285,0,1,1,0.8882128999787285,0" style="fill: #4c78a8; stroke-width: 2; opacity: 0.4;"></path><path transform="translate(33.33333333333333,130)" d="M0.8882128999787285,0A0.8882128999787285,0.8882128999787285,0,1,1,-0.8882128999787285,0A0.8882128999787285,0.8882128999787285,0,1,1,0.8882128999787285,0" style="fill: #4c78a8; stroke-width: 2; opacity: 0.4;"></path><path transform="translate(33.33333333333333,30)" d="M0.8882128999787285,0A0.8882128999787285,0.8882128999787285,0,1,1,-0.8882128999787285,0A0.8882128999787285,0.8882128999787285,0,1,1,0.8882128999787285,0" style="fill: #4c78a8; stroke-width: 2; opacity: 0.4;"></path></g><g class="mark-symbol role-mark concat_0_layer_1_marks"><path transform="translate(55.55555555555555,70)" d="M1.7159868235050972,0A1.7159868235050972,1.7159868235050972,0,1,1,-1.7159868235050972,0A1.7159868235050972,1.7159868235050972,0,1,1,1.7159868235050972,0" style="fill: #4c78a8; stroke-width: 2;"></path><path transform="translate(100,150)" d="M7.394669548029236,0A7.394669548029236,7.394669548029236,0,1,1,-7.394669548029236,0A7.394669548029236,7.394669548029236,0,1,1,7.394669548029236,0" style="fill: #4c78a8; stroke-width: 2;"></path><path transform="translate(144.44444444444446,30)" d="M9.5,0A9.5,9.5,0,1,1,-9.5,0A9.5,9.5,0,1,1,9.5,0" style="fill: #4c78a8; stroke-width: 2;"></path><path transform="translate(166.66666666666669,10)" d="M7.610168898170568,0A7.610168898170568,7.610168898170568,0,1,1,-7.610168898170568,0A7.610168898170568,7.610168898170568,0,1,1,7.610168898170568,0" style="fill: #4c78a8; stroke-width: 2;"></path><path transform="translate(122.22222222222221,30)" d="M6.502763116069397,0A6.502763116069397,6.502763116069397,0,1,1,-6.502763116069397,0A6.502763116069397,6.502763116069397,0,1,1,6.502763116069397,0" style="fill: #4c78a8; stroke-width: 2;"></path><path transform="translate(33.33333333333333,10)" d="M1.3662966248461086,0A1.3662966248461086,1.3662966248461086,0,1,1,-1.3662966248461086,0A1.3662966248461086,1.3662966248461086,0,1,1,1.3662966248461086,0" style="fill: #4c78a8; stroke-width: 2;"></path><path transform="translate(144.44444444444446,90)" d="M3.9848139874992987,0A3.9848139874992987,3.9848139874992987,0,1,1,-3.9848139874992987,0A3.9848139874992987,3.9848139874992987,0,1,1,3.9848139874992987,0" style="fill: #4c78a8; stroke-width: 2;"></path><path transform="translate(100,130)" d="M7.358139409447355,0A7.358139409447355,7.358139409447355,0,1,1,-7.358139409447355,0A7.358139409447355,7.358139409447355,0,1,1,7.358139409447355,0" style="fill: #4c78a8; stroke-width: 2;"></path><path transform="translate(144.44444444444446,50)" d="M7.321427006613782,0A7.321427006613782,7.321427006613782,0,1,1,-7.321427006613782,0A7.321427006613782,7.321427006613782,0,1,1,7.321427006613782,0" style="fill: #4c78a8; stroke-width: 2;"></path><path transform="translate(55.55555555555555,170)" d="M3.556010345997087,0A3.556010345997087,3.556010345997087,0,1,1,-3.556010345997087,0A3.556010345997087,3.556010345997087,0,1,1,3.556010345997087,0" style="fill: #4c78a8; stroke-width: 2;"></path><path transform="translate(144.44444444444446,10)" d="M8.41717306434943,0A8.41717306434943,8.41717306434943,0,1,1,-8.41717306434943,0A8.41717306434943,8.41717306434943,0,1,1,8.41717306434943,0" style="fill: #4c78a8; stroke-width: 2;"></path><path transform="translate(122.22222222222221,170)" d="M3.9848139874992987,0A3.9848139874992987,3.9848139874992987,0,1,1,-3.9848139874992987,0A3.9848139874992987,3.9848139874992987,0,1,1,3.9848139874992987,0" style="fill: #4c78a8; stroke-width: 2;"></path><path transform="translate(122.22222222222221,90)" d="M8.41717306434943,0A8.41717306434943,8.41717306434943,0,1,1,-8.41717306434943,0A8.41717306434943,8.41717306434943,0,1,1,8.41717306434943,0" style="fill: #4c78a8; stroke-width: 2;"></path><path transform="translate(77.77777777777777,170)" d="M6.419352290717135,0A6.419352290717135,6.419352290717135,0,1,1,-6.419352290717135,0A6.419352290717135,6.419352290717135,0,1,1,6.419352290717135,0" style="fill: #4c78a8; stroke-width: 2;"></path><path transform="translate(122.22222222222221,110)" d="M8.255555197366586,0A8.255555197366586,8.255555197366586,0,1,1,-8.255555197366586,0A8.255555197366586,8.255555197366586,0,1,1,8.255555197366586,0" style="fill: #4c78a8; stroke-width: 2;"></path><path transform="translate(122.22222222222221,150)" d="M5.70835609797754,0A5.70835609797754,5.70835609797754,0,1,1,-5.70835609797754,0A5.70835609797754,5.70835609797754,0,1,1,5.70835609797754,0" style="fill: #4c78a8; stroke-width: 2;"></path><path transform="translate(100,90)" d="M4.895158306970205,0A4.895158306970205,4.895158306970205,0,1,1,-4.895158306970205,0A4.895158306970205,4.895158306970205,0,1,1,4.895158306970205,0" style="fill: #4c78a8; stroke-width: 2;"></path><path transform="translate(55.55555555555555,50)" d="M1.1523212709037551,0A1.1523212709037551,1.1523212709037551,0,1,1,-1.1523212709037551,0A1.1523212709037551,1.1523212709037551,0,1,1,1.1523212709037551,0" style="fill: #4c78a8; stroke-width: 2;"></path><path transform="translate(122.22222222222221,10)" d="M3.630995970326454,0A3.630995970326454,3.630995970326454,0,1,1,-3.630995970326454,0A3.630995970326454,3.630995970326454,0,1,1,3.630995970326454,0" style="fill: #4c78a8; stroke-width: 2;"></path><path transform="translate(100,70)" d="M3.8471935490163234,0A3.8471935490163234,3.8471935490163234,0,1,1,-3.8471935490163234,0A3.8471935490163234,3.8471935490163234,0,1,1,3.8471935490163234,0" style="fill: #4c78a8; stroke-width: 2;"></path><path transform="translate(100,50)" d="M2.135738103211389,0A2.135738103211389,2.135738103211389,0,1,1,-2.135738103211389,0A2.135738103211389,2.135738103211389,0,1,1,2.135738103211389,0" style="fill: #4c78a8; stroke-width: 2;"></path><path transform="translate(122.22222222222221,70)" d="M8.385098701835355,0A8.385098701835355,8.385098701835355,0,1,1,-8.385098701835355,0A8.385098701835355,8.385098701835355,0,1,1,8.385098701835355,0" style="fill: #4c78a8; stroke-width: 2;"></path><path transform="translate(144.44444444444446,70)" d="M6.786632687388712,0A6.786632687388712,6.786632687388712,0,1,1,-6.786632687388712,0A6.786632687388712,6.786632687388712,0,1,1,6.786632687388712,0" style="fill: #4c78a8; stroke-width: 2;"></path><path transform="translate(122.22222222222221,130)" d="M6.249191564481028,0A6.249191564481028,6.249191564481028,0,1,1,-6.249191564481028,0A6.249191564481028,6.249191564481028,0,1,1,6.249191564481028,0" style="fill: #4c78a8; stroke-width: 2;"></path><path transform="translate(100,30)" d="M2.3747045199111043,0A2.3747045199111043,2.3747045199111043,0,1,1,-2.3747045199111043,0A2.3747045199111043,2.3747045199111043,0,1,1,2.3747045199111043,0" style="fill: #4c78a8; stroke-width: 2;"></path><path transform="translate(55.55555555555555,10)" d="M1.1523212709037551,0A1.1523212709037551,1.1523212709037551,0,1,1,-1.1523212709037551,0A1.1523212709037551,1.1523212709037551,0,1,1,1.1523212709037551,0" style="fill: #4c78a8; stroke-width: 2;"></path><path transform="translate(55.55555555555555,150)" d="M2.485587196735381,0A2.485587196735381,2.485587196735381,0,1,1,-2.485587196735381,0A2.485587196735381,2.485587196735381,0,1,1,2.485587196735381,0" style="fill: #4c78a8; stroke-width: 2;"></path><path transform="translate(77.77777777777777,110)" d="M2.2583842456937226,0A2.2583842456937226,2.2583842456937226,0,1,1,-2.2583842456937226,0A2.2583842456937226,2.2583842456937226,0,1,1,2.2583842456937226,0" style="fill: #4c78a8; stroke-width: 2;"></path><path transform="translate(100,170)" d="M7.020820191947994,0A7.020820191947994,7.020820191947994,0,1,1,-7.020820191947994,0A7.020820191947994,7.020820191947994,0,1,1,7.020820191947994,0" style="fill: #4c78a8; stroke-width: 2;"></path><path transform="translate(100,110)" d="M6.205922417650113,0A6.205922417650113,6.205922417650113,0,1,1,-6.205922417650113,0A6.205922417650113,6.205922417650113,0,1,1,6.205922417650113,0" style="fill: #4c78a8; stroke-width: 2;"></path><path transform="translate(77.77777777777777,90)" d="M1.5510282469234695,0A1.5510282469234695,1.5510282469234695,0,1,1,-1.5510282469234695,0A1.5510282469234695,1.5510282469234695,0,1,1,1.5510282469234695,0" style="fill: #4c78a8; stroke-width: 2;"></path><path transform="translate(166.66666666666669,50)" d="M2.7919366360361257,0A2.7919366360361257,2.7919366360361257,0,1,1,-2.7919366360361257,0A2.7919366360361257,2.7919366360361257,0,1,1,2.7919366360361257,0" style="fill: #4c78a8; stroke-width: 2;"></path><path transform="translate(122.22222222222221,50)" d="M7.574678112170445,0A7.574678112170445,7.574678112170445,0,1,1,-7.574678112170445,0A7.574678112170445,7.574678112170445,0,1,1,7.574678112170445,0" style="fill: #4c78a8; stroke-width: 2;"></path><path transform="translate(166.66666666666669,130)" d="M0.8882128999787285,0A0.8882128999787285,0.8882128999787285,0,1,1,-0.8882128999787285,0A0.8882128999787285,0.8882128999787285,0,1,1,0.8882128999787285,0" style="fill: #4c78a8; stroke-width: 2;"></path><path transform="translate(166.66666666666669,30)" d="M4.432967133285608,0A4.432967133285608,4.432967133285608,0,1,1,-4.432967133285608,0A4.432967133285608,4.432967133285608,0,1,1,4.432967133285608,0" style="fill: #4c78a8; stroke-width: 2;"></path><path transform="translate(77.77777777777777,50)" d="M1.1523212709037551,0A1.1523212709037551,1.1523212709037551,0,1,1,-1.1523212709037551,0A1.1523212709037551,1.1523212709037551,0,1,1,1.1523212709037551,0" style="fill: #4c78a8; stroke-width: 2;"></path><path transform="translate(100,10)" d="M2.135738103211389,0A2.135738103211389,2.135738103211389,0,1,1,-2.135738103211389,0A2.135738103211389,2.135738103211389,0,1,1,2.135738103211389,0" style="fill: #4c78a8; stroke-width: 2;"></path><path transform="translate(77.77777777777777,150)" d="M4.669784387693388,0A4.669784387693388,4.669784387693388,0,1,1,-4.669784387693388,0A4.669784387693388,4.669784387693388,0,1,1,4.669784387693388,0" style="fill: #4c78a8; stroke-width: 2;"></path><path transform="translate(77.77777777777777,190)" d="M4.839798827907083,0A4.839798827907083,4.839798827907083,0,1,1,-4.839798827907083,0A4.839798827907083,4.839798827907083,0,1,1,4.839798827907083,0" style="fill: #4c78a8; stroke-width: 2;"></path><path transform="translate(100,190)" d="M3.9848139874992987,0A3.9848139874992987,3.9848139874992987,0,1,1,-3.9848139874992987,0A3.9848139874992987,3.9848139874992987,0,1,1,3.9848139874992987,0" style="fill: #4c78a8; stroke-width: 2;"></path><path transform="translate(188.88888888888889,10)" d="M0.8882128999787285,0A0.8882128999787285,0.8882128999787285,0,1,1,-0.8882128999787285,0A0.8882128999787285,0.8882128999787285,0,1,1,0.8882128999787285,0" style="fill: #4c78a8; stroke-width: 2;"></path><path transform="translate(77.77777777777777,130)" d="M3.47940906263545,0A3.47940906263545,3.47940906263545,0,1,1,-3.47940906263545,0A3.47940906263545,3.47940906263545,0,1,1,3.47940906263545,0" style="fill: #4c78a8; stroke-width: 2;"></path><path transform="translate(144.44444444444446,110)" d="M2.978716920255761,0A2.978716920255761,2.978716920255761,0,1,1,-2.978716920255761,0A2.978716920255761,2.978716920255761,0,1,1,2.978716920255761,0" style="fill: #4c78a8; stroke-width: 2;"></path><path transform="translate(55.55555555555555,190)" d="M3.154456974250118,0A3.154456974250118,3.154456974250118,0,1,1,-3.154456974250118,0A3.154456974250118,3.154456974250118,0,1,1,3.154456974250118,0" style="fill: #4c78a8; stroke-width: 2;"></path><path transform="translate(33.33333333333333,170)" d="M2.135738103211389,0A2.135738103211389,2.135738103211389,0,1,1,-2.135738103211389,0A2.135738103211389,2.135738103211389,0,1,1,2.135738103211389,0" style="fill: #4c78a8; stroke-width: 2;"></path><path transform="translate(188.88888888888889,30)" d="M1.1523212709037551,0A1.1523212709037551,1.1523212709037551,0,1,1,-1.1523212709037551,0A1.1523212709037551,1.1523212709037551,0,1,1,1.1523212709037551,0" style="fill: #4c78a8; stroke-width: 2;"></path><path transform="translate(77.77777777777777,10)" d="M1.1523212709037551,0A1.1523212709037551,1.1523212709037551,0,1,1,-1.1523212709037551,0A1.1523212709037551,1.1523212709037551,0,1,1,1.1523212709037551,0" style="fill: #4c78a8; stroke-width: 2;"></path><path transform="translate(33.33333333333333,70)" d="M1.3662966248461086,0A1.3662966248461086,1.3662966248461086,0,1,1,-1.3662966248461086,0A1.3662966248461086,1.3662966248461086,0,1,1,1.3662966248461086,0" style="fill: #4c78a8; stroke-width: 2;"></path><path transform="translate(144.44444444444446,150)" d="M1.8664224961491802,0A1.8664224961491802,1.8664224961491802,0,1,1,-1.8664224961491802,0A1.8664224961491802,1.8664224961491802,0,1,1,1.8664224961491802,0" style="fill: #4c78a8; stroke-width: 2;"></path><path transform="translate(166.66666666666669,170)" d="M0.8882128999787285,0A0.8882128999787285,0.8882128999787285,0,1,1,-0.8882128999787285,0A0.8882128999787285,0.8882128999787285,0,1,1,0.8882128999787285,0" style="fill: #4c78a8; stroke-width: 2;"></path><path transform="translate(33.33333333333333,190)" d="M2.7919366360361257,0A2.7919366360361257,2.7919366360361257,0,1,1,-2.7919366360361257,0A2.7919366360361257,2.7919366360361257,0,1,1,2.7919366360361257,0" style="fill: #4c78a8; stroke-width: 2;"></path><path transform="translate(77.77777777777777,70)" d="M1.1523212709037551,0A1.1523212709037551,1.1523212709037551,0,1,1,-1.1523212709037551,0A1.1523212709037551,1.1523212709037551,0,1,1,1.1523212709037551,0" style="fill: #4c78a8; stroke-width: 2;"></path><path transform="translate(144.44444444444446,130)" d="M2.7919366360361257,0A2.7919366360361257,2.7919366360361257,0,1,1,-2.7919366360361257,0A2.7919366360361257,2.7919366360361257,0,1,1,2.7919366360361257,0" style="fill: #4c78a8; stroke-width: 2;"></path><path transform="translate(166.66666666666669,70)" d="M1.1523212709037551,0A1.1523212709037551,1.1523212709037551,0,1,1,-1.1523212709037551,0A1.1523212709037551,1.1523212709037551,0,1,1,1.1523212709037551,0" style="fill: #4c78a8; stroke-width: 2;"></path><path transform="translate(144.44444444444446,170)" d="M1.1523212709037551,0A1.1523212709037551,1.1523212709037551,0,1,1,-1.1523212709037551,0A1.1523212709037551,1.1523212709037551,0,1,1,1.1523212709037551,0" style="fill: #4c78a8; stroke-width: 2;"></path><path transform="translate(11.11111111111111,190)" d="M1.3662966248461086,0A1.3662966248461086,1.3662966248461086,0,1,1,-1.3662966248461086,0A1.3662966248461086,1.3662966248461086,0,1,1,1.3662966248461086,0" style="fill: #4c78a8; stroke-width: 2;"></path><path transform="translate(122.22222222222221,190)" d="M1.3662966248461086,0A1.3662966248461086,1.3662966248461086,0,1,1,-1.3662966248461086,0A1.3662966248461086,1.3662966248461086,0,1,1,1.3662966248461086,0" style="fill: #4c78a8; stroke-width: 2;"></path><path transform="translate(77.77777777777777,30)" d="M0.8882128999787285,0A0.8882128999787285,0.8882128999787285,0,1,1,-0.8882128999787285,0A0.8882128999787285,0.8882128999787285,0,1,1,0.8882128999787285,0" style="fill: #4c78a8; stroke-width: 2;"></path><path transform="translate(166.66666666666669,110)" d="M0.8882128999787285,0A0.8882128999787285,0.8882128999787285,0,1,1,-0.8882128999787285,0A0.8882128999787285,0.8882128999787285,0,1,1,0.8882128999787285,0" style="fill: #4c78a8; stroke-width: 2;"></path><path transform="translate(55.55555555555555,130)" d="M0.8882128999787285,0A0.8882128999787285,0.8882128999787285,0,1,1,-0.8882128999787285,0A0.8882128999787285,0.8882128999787285,0,1,1,0.8882128999787285,0" style="fill: #4c78a8; stroke-width: 2;"></path><path transform="translate(166.66666666666669,90)" d="M0.8882128999787285,0A0.8882128999787285,0.8882128999787285,0,1,1,-0.8882128999787285,0A0.8882128999787285,0.8882128999787285,0,1,1,0.8882128999787285,0" style="fill: #4c78a8; stroke-width: 2;"></path><path transform="translate(33.33333333333333,150)" d="M0.8882128999787285,0A0.8882128999787285,0.8882128999787285,0,1,1,-0.8882128999787285,0A0.8882128999787285,0.8882128999787285,0,1,1,0.8882128999787285,0" style="fill: #4c78a8; stroke-width: 2;"></path><path transform="translate(33.33333333333333,130)" d="M0.8882128999787285,0A0.8882128999787285,0.8882128999787285,0,1,1,-0.8882128999787285,0A0.8882128999787285,0.8882128999787285,0,1,1,0.8882128999787285,0" style="fill: #4c78a8; stroke-width: 2;"></path><path transform="translate(33.33333333333333,30)" d="M0.8882128999787285,0A0.8882128999787285,0.8882128999787285,0,1,1,-0.8882128999787285,0A0.8882128999787285,0.8882128999787285,0,1,1,0.8882128999787285,0" style="fill: #4c78a8; stroke-width: 2;"></path></g><g class="mark-group role-legend"><g transform="translate(218,0)"><path class="background" d="M0,0h55v87h-55Z" style="pointer-events: none; fill: none;"></path><g><g class="mark-group role-legend-entry"><g transform="translate(0,16)"><path class="background" d="M0,0h0v0h0Z" style="pointer-events: none; fill: none;"></path><g><g class="mark-symbol role-legend-symbol" style="pointer-events: none;"><path transform="translate(9.5,5)" d="M0.5,0A0.5,0.5,0,1,1,-0.5,0A0.5,0.5,0,1,1,0.5,0" style="fill: #4c78a8; stroke: none; stroke-width: 1.5; opacity: 0.4;"></path><path transform="translate(9.5,20.5)" d="M5.214988761678316,0A5.214988761678316,5.214988761678316,0,1,1,-5.214988761678316,0A5.214988761678316,5.214988761678316,0,1,1,5.214988761678316,0" style="fill: #4c78a8; stroke: none; stroke-width: 1.5; opacity: 0.4;"></path><path transform="translate(9.5,38.5)" d="M7.358139409447355,0A7.358139409447355,7.358139409447355,0,1,1,-7.358139409447355,0A7.358139409447355,7.358139409447355,0,1,1,7.358139409447355,0" style="fill: #4c78a8; stroke: none; stroke-width: 1.5; opacity: 0.4;"></path><path transform="translate(9.5,60.5)" d="M9.004905516066973,0A9.004905516066973,9.004905516066973,0,1,1,-9.004905516066973,0A9.004905516066973,9.004905516066973,0,1,1,9.004905516066973,0" style="fill: #4c78a8; stroke: none; stroke-width: 1.5; opacity: 0.4;"></path></g><g class="mark-text role-legend-label" style="pointer-events: none;"><text text-anchor="start" transform="translate(27,8)" style="font: 10px sans-serif; fill: #000; opacity: 1;">0</text><text text-anchor="start" transform="translate(27,23.5)" style="font: 10px sans-serif; fill: #000; opacity: 1;">50</text><text text-anchor="start" transform="translate(27,41.5)" style="font: 10px sans-serif; fill: #000; opacity: 1;">100</text><text text-anchor="start" transform="translate(27,63.5)" style="font: 10px sans-serif; fill: #000; opacity: 1;">150</text></g></g></g></g><g class="mark-text role-legend-title" style="pointer-events: none;"><text text-anchor="start" transform="translate(0,9)" style="font: bold 11px sans-serif; fill: #000; opacity: 1;">All Movies</text></g></g></g></g><g class="mark-group role-legend"><g transform="translate(218,95)"><path class="background" d="M0,0h110v87h-110Z" style="pointer-events: none; fill: none;"></path><g><g class="mark-group role-legend-entry"><g transform="translate(0,16)"><path class="background" d="M0,0h0v0h0Z" style="pointer-events: none; fill: none;"></path><g><g class="mark-symbol role-legend-symbol" style="pointer-events: none;"><path transform="translate(9.5,5)" d="M0.5,0A0.5,0.5,0,1,1,-0.5,0A0.5,0.5,0,1,1,0.5,0" style="fill: #4c78a8; stroke: none; stroke-width: 1.5; opacity: 1;"></path><path transform="translate(9.5,20.5)" d="M5.214988761678316,0A5.214988761678316,5.214988761678316,0,1,1,-5.214988761678316,0A5.214988761678316,5.214988761678316,0,1,1,5.214988761678316,0" style="fill: #4c78a8; stroke: none; stroke-width: 1.5; opacity: 1;"></path><path transform="translate(9.5,38.5)" d="M7.358139409447355,0A7.358139409447355,7.358139409447355,0,1,1,-7.358139409447355,0A7.358139409447355,7.358139409447355,0,1,1,7.358139409447355,0" style="fill: #4c78a8; stroke: none; stroke-width: 1.5; opacity: 1;"></path><path transform="translate(9.5,60.5)" d="M9.004905516066973,0A9.004905516066973,9.004905516066973,0,1,1,-9.004905516066973,0A9.004905516066973,9.004905516066973,0,1,1,9.004905516066973,0" style="fill: #4c78a8; stroke: none; stroke-width: 1.5; opacity: 1;"></path></g><g class="mark-text role-legend-label" style="pointer-events: none;"><text text-anchor="start" transform="translate(27,8)" style="font: 10px sans-serif; fill: #000; opacity: 1;">0</text><text text-anchor="start" transform="translate(27,23.5)" style="font: 10px sans-serif; fill: #000; opacity: 1;">50</text><text text-anchor="start" transform="translate(27,41.5)" style="font: 10px sans-serif; fill: #000; opacity: 1;">100</text><text text-anchor="start" transform="translate(27,63.5)" style="font: 10px sans-serif; fill: #000; opacity: 1;">150</text></g></g></g></g><g class="mark-text role-legend-title" style="pointer-events: none;"><text text-anchor="start" transform="translate(0,9)" style="font: bold 11px sans-serif; fill: #000; opacity: 1;">In Selected Category</text></g></g></g></g><g class="mark-group role-axis"><g transform="translate(0.5,200.5)"><path class="background" d="M0,0h0v0h0Z" style="pointer-events: none; fill: none;"></path><g><g class="mark-rule role-axis-tick" style="pointer-events: none;"><line transform="translate(0,0)" x2="0" y2="5" style="fill: none; stroke: #888; stroke-width: 1; opacity: 1;"></line><line transform="translate(22,0)" x2="0" y2="5" style="fill: none; stroke: #888; stroke-width: 1; opacity: 1;"></line><line transform="translate(44,0)" x2="0" y2="5" style="fill: none; stroke: #888; stroke-width: 1; opacity: 1;"></line><line transform="translate(67,0)" x2="0" y2="5" style="fill: none; stroke: #888; stroke-width: 1; opacity: 1;"></line><line transform="translate(89,0)" x2="0" y2="5" style="fill: none; stroke: #888; stroke-width: 1; opacity: 1;"></line><line transform="translate(111,0)" x2="0" y2="5" style="fill: none; stroke: #888; stroke-width: 1; opacity: 1;"></line><line transform="translate(133,0)" x2="0" y2="5" style="fill: none; stroke: #888; stroke-width: 1; opacity: 1;"></line><line transform="translate(156,0)" x2="0" y2="5" style="fill: none; stroke: #888; stroke-width: 1; opacity: 1;"></line><line transform="translate(178,0)" x2="0" y2="5" style="fill: none; stroke: #888; stroke-width: 1; opacity: 1;"></line><line transform="translate(200,0)" x2="0" y2="5" style="fill: none; stroke: #888; stroke-width: 1; opacity: 1;"></line></g><g class="mark-text role-axis-label" style="pointer-events: none;"><text text-anchor="start" transform="translate(0,15)" style="font: 10px sans-serif; fill: #000; opacity: 1;">1</text><text text-anchor="middle" transform="translate(22.22222222222222,15)" style="font: 10px sans-serif; fill: #000; opacity: 1;">2</text><text text-anchor="middle" transform="translate(44.44444444444444,15)" style="font: 10px sans-serif; fill: #000; opacity: 1;">3</text><text text-anchor="middle" transform="translate(66.66666666666666,15)" style="font: 10px sans-serif; fill: #000; opacity: 1;">4</text><text text-anchor="middle" transform="translate(88.88888888888889,15)" style="font: 10px sans-serif; fill: #000; opacity: 1;">5</text><text text-anchor="middle" transform="translate(111.11111111111111,15)" style="font: 10px sans-serif; fill: #000; opacity: 1;">6</text><text text-anchor="middle" transform="translate(133.33333333333331,15)" style="font: 10px sans-serif; fill: #000; opacity: 1;">7</text><text text-anchor="middle" transform="translate(155.55555555555557,15)" style="font: 10px sans-serif; fill: #000; opacity: 1;">8</text><text text-anchor="middle" transform="translate(177.77777777777777,15)" style="font: 10px sans-serif; fill: #000; opacity: 1;">9</text><text text-anchor="end" transform="translate(200,15)" style="font: 10px sans-serif; fill: #000; opacity: 1;">10</text></g><g class="mark-rule role-axis-domain" style="pointer-events: none;"><line transform="translate(0,0)" x2="200" y2="0" style="fill: none; stroke: #888; stroke-width: 1; opacity: 1;"></line></g><g class="mark-text role-axis-title" style="pointer-events: none;"><text text-anchor="middle" transform="translate(100,31)" style="font: bold 11px sans-serif; fill: #000; opacity: 1;">IMDB_Rating (binned)</text></g></g></g></g><g class="mark-group role-axis"><g transform="translate(0.5,0.5)"><path class="background" d="M0,0h0v0h0Z" style="pointer-events: none; fill: none;"></path><g><g class="mark-rule role-axis-tick" style="pointer-events: none;"><line transform="translate(0,200)" x2="-5" y2="0" style="fill: none; stroke: #888; stroke-width: 1; opacity: 1;"></line><line transform="translate(0,160)" x2="-5" y2="0" style="fill: none; stroke: #888; stroke-width: 1; opacity: 1;"></line><line transform="translate(0,120)" x2="-5" y2="0" style="fill: none; stroke: #888; stroke-width: 1; opacity: 1;"></line><line transform="translate(0,80)" x2="-5" y2="0" style="fill: none; stroke: #888; stroke-width: 1; opacity: 1;"></line><line transform="translate(0,40)" x2="-5" y2="0" style="fill: none; stroke: #888; stroke-width: 1; opacity: 1;"></line><line transform="translate(0,0)" x2="-5" y2="0" style="fill: none; stroke: #888; stroke-width: 1; opacity: 1;"></line></g><g class="mark-text role-axis-label" style="pointer-events: none;"><text text-anchor="end" transform="translate(-7,203)" style="font: 10px sans-serif; fill: #000; opacity: 1;">0</text><text text-anchor="end" transform="translate(-7,163)" style="font: 10px sans-serif; fill: #000; opacity: 1;">20</text><text text-anchor="end" transform="translate(-7,123)" style="font: 10px sans-serif; fill: #000; opacity: 1;">40</text><text text-anchor="end" transform="translate(-7,83)" style="font: 10px sans-serif; fill: #000; opacity: 1;">60</text><text text-anchor="end" transform="translate(-7,43)" style="font: 10px sans-serif; fill: #000; opacity: 1;">80</text><text text-anchor="end" transform="translate(-7,3)" style="font: 10px sans-serif; fill: #000; opacity: 1;">100</text></g><g class="mark-rule role-axis-domain" style="pointer-events: none;"><line transform="translate(0,200)" x2="0" y2="-200" style="fill: none; stroke: #888; stroke-width: 1; opacity: 1;"></line></g><g class="mark-text role-axis-title" style="pointer-events: none;"><text text-anchor="middle" transform="translate(-34,100) rotate(-90) translate(0,-2)" style="font: bold 11px sans-serif; fill: #000; opacity: 1;">Rotten_Tomatoes_Rating (binned)</text></g></g></g></g></g></g></g><g class="mark-group role-scope concat_1_group"><g transform="translate(0,253)"><path class="background" d="M0.5,0.5h330v120h-330Z" style="fill: none; stroke: #ddd;"></path><g><g class="mark-group role-axis"><g transform="translate(0.5,0.5)"><path class="background" d="M0,0h0v0h0Z" style="pointer-events: none; fill: none;"></path><g><g class="mark-rule role-axis-grid" style="pointer-events: none;"><line transform="translate(0,120)" x2="330" y2="0" style="fill: none; stroke: #ddd; stroke-width: 1; opacity: 1;"></line><line transform="translate(0,90)" x2="330" y2="0" style="fill: none; stroke: #ddd; stroke-width: 1; opacity: 1;"></line><line transform="translate(0,60)" x2="330" y2="0" style="fill: none; stroke: #ddd; stroke-width: 1; opacity: 1;"></line><line transform="translate(0,30)" x2="330" y2="0" style="fill: none; stroke: #ddd; stroke-width: 1; opacity: 1;"></line><line transform="translate(0,0)" x2="330" y2="0" style="fill: none; stroke: #ddd; stroke-width: 1; opacity: 1;"></line></g></g></g></g><g class="mark-rect role-mark concat_1_marks"><path d="M1.2692307692307736,78.75h22.846153846153847v41.25h-22.846153846153847Z" style="fill: steelblue;"></path><path d="M178.96153846153845,1.6500000000000057h22.846153846153847v118.35h-22.846153846153847Z" style="fill: steelblue;"></path><path d="M102.8076923076923,18.75h22.846153846153847v101.25h-22.846153846153847Z" style="fill: steelblue;"></path><path d="M229.73076923076923,112.05h22.846153846153847v7.950000000000003h-22.846153846153847Z" style="fill: steelblue;"></path><path d="M280.5,84.15h22.846153846153847v35.849999999999994h-22.846153846153847Z" style="fill: steelblue;"></path><path d="M52.03846153846154,78.9h22.846153846153847v41.099999999999994h-22.846153846153847Z" style="fill: steelblue;"></path><path d="M26.653846153846157,57h22.846153846153847v63h-22.846153846153847Z" style="fill: steelblue;"></path><path d="M255.1153846153846,99.45h22.846153846153847v20.549999999999997h-22.846153846153847Z" style="fill: steelblue;"></path><path d="M204.34615384615384,87.15h22.846153846153847v32.849999999999994h-22.846153846153847Z" style="fill: steelblue;"></path><path d="M305.88461538461536,114.6h22.846153846153847v5.400000000000006h-22.846153846153847Z" style="fill: steelblue;"></path><path d="M153.57692307692307,113.55h22.846153846153847v6.450000000000003h-22.846153846153847Z" style="fill: steelblue;"></path><path d="M77.42307692307692,114.6h22.846153846153847v5.400000000000006h-22.846153846153847Z" style="fill: steelblue;"></path><path d="M128.19230769230768,119.25h22.846153846153847v0.75h-22.846153846153847Z" style="fill: steelblue;"></path></g><g class="mark-group role-axis"><g transform="translate(0.5,120.5)"><path class="background" d="M0,0h0v0h0Z" style="pointer-events: none; fill: none;"></path><g><g class="mark-rule role-axis-tick" style="pointer-events: none;"><line transform="translate(12,0)" x2="0" y2="5" style="fill: none; stroke: #888; stroke-width: 1; opacity: 1;"></line><line transform="translate(37,0)" x2="0" y2="5" style="fill: none; stroke: #888; stroke-width: 1; opacity: 1;"></line><line transform="translate(62,0)" x2="0" y2="5" style="fill: none; stroke: #888; stroke-width: 1; opacity: 1;"></line><line transform="translate(88,0)" x2="0" y2="5" style="fill: none; stroke: #888; stroke-width: 1; opacity: 1;"></line><line transform="translate(113,0)" x2="0" y2="5" style="fill: none; stroke: #888; stroke-width: 1; opacity: 1;"></line><line transform="translate(139,0)" x2="0" y2="5" style="fill: none; stroke: #888; stroke-width: 1; opacity: 1;"></line><line transform="translate(164,0)" x2="0" y2="5" style="fill: none; stroke: #888; stroke-width: 1; opacity: 1;"></line><line transform="translate(189,0)" x2="0" y2="5" style="fill: none; stroke: #888; stroke-width: 1; opacity: 1;"></line><line transform="translate(215,0)" x2="0" y2="5" style="fill: none; stroke: #888; stroke-width: 1; opacity: 1;"></line><line transform="translate(240,0)" x2="0" y2="5" style="fill: none; stroke: #888; stroke-width: 1; opacity: 1;"></line><line transform="translate(266,0)" x2="0" y2="5" style="fill: none; stroke: #888; stroke-width: 1; opacity: 1;"></line><line transform="translate(291,0)" x2="0" y2="5" style="fill: none; stroke: #888; stroke-width: 1; opacity: 1;"></line><line transform="translate(316,0)" x2="0" y2="5" style="fill: none; stroke: #888; stroke-width: 1; opacity: 1;"></line></g><g class="mark-text role-axis-label" style="pointer-events: none;"><text text-anchor="end" transform="translate(11.692307692307697,7) rotate(320) translate(0,8)" style="font: 10px sans-serif; fill: #000; opacity: 1;">null</text><text text-anchor="end" transform="translate(37.07692307692308,7) rotate(320) translate(0,8)" style="font: 10px sans-serif; fill: #000; opacity: 1;">Action</text><text text-anchor="end" transform="translate(62.46153846153847,7) rotate(320) translate(0,8)" style="font: 10px sans-serif; fill: #000; opacity: 1;">Adventure</text><text text-anchor="end" transform="translate(87.84615384615384,7) rotate(320) translate(0,8)" style="font: 10px sans-serif; fill: #000; opacity: 1;">Black Comedy</text><text text-anchor="end" transform="translate(113.23076923076923,7) rotate(320) translate(0,8)" style="font: 10px sans-serif; fill: #000; opacity: 1;">Comedy</text><text text-anchor="end" transform="translate(138.6153846153846,7) rotate(320) translate(0,8)" style="font: 10px sans-serif; fill: #000; opacity: 1;">Concert/Performance</text><text text-anchor="end" transform="translate(164,7) rotate(320) translate(0,8)" style="font: 10px sans-serif; fill: #000; opacity: 1;">Documentary</text><text text-anchor="end" transform="translate(189.3846153846154,7) rotate(320) translate(0,8)" style="font: 10px sans-serif; fill: #000; opacity: 1;">Drama</text><text text-anchor="end" transform="translate(214.76923076923077,7) rotate(320) translate(0,8)" style="font: 10px sans-serif; fill: #000; opacity: 1;">Horror</text><text text-anchor="end" transform="translate(240.15384615384616,7) rotate(320) translate(0,8)" style="font: 10px sans-serif; fill: #000; opacity: 1;">Musical</text><text text-anchor="end" transform="translate(265.53846153846155,7) rotate(320) translate(0,8)" style="font: 10px sans-serif; fill: #000; opacity: 1;">Romantic Comedy</text><text text-anchor="end" transform="translate(290.9230769230769,7) rotate(320) translate(0,8)" style="font: 10px sans-serif; fill: #000; opacity: 1;">Thriller/Suspense</text><text text-anchor="end" transform="translate(316.30769230769226,7) rotate(320) translate(0,8)" style="font: 10px sans-serif; fill: #000; opacity: 1;">Western</text></g><g class="mark-rule role-axis-domain" style="pointer-events: none;"><line transform="translate(0,0)" x2="330" y2="0" style="fill: none; stroke: #888; stroke-width: 1; opacity: 1;"></line></g><g class="mark-text role-axis-title" style="pointer-events: none;"><text text-anchor="middle" transform="translate(165,89.75037624241442)" style="font: bold 11px sans-serif; fill: #000; opacity: 1;">Major_Genre</text></g></g></g></g><g class="mark-group role-axis"><g transform="translate(0.5,0.5)"><path class="background" d="M0,0h0v0h0Z" style="pointer-events: none; fill: none;"></path><g><g class="mark-rule role-axis-tick" style="pointer-events: none;"><line transform="translate(0,120)" x2="-5" y2="0" style="fill: none; stroke: #888; stroke-width: 1; opacity: 1;"></line><line transform="translate(0,90)" x2="-5" y2="0" style="fill: none; stroke: #888; stroke-width: 1; opacity: 1;"></line><line transform="translate(0,60)" x2="-5" y2="0" style="fill: none; stroke: #888; stroke-width: 1; opacity: 1;"></line><line transform="translate(0,30)" x2="-5" y2="0" style="fill: none; stroke: #888; stroke-width: 1; opacity: 1;"></line><line transform="translate(0,0)" x2="-5" y2="0" style="fill: none; stroke: #888; stroke-width: 1; opacity: 1;"></line></g><g class="mark-text role-axis-label" style="pointer-events: none;"><text text-anchor="end" transform="translate(-7,123)" style="font: 10px sans-serif; fill: #000; opacity: 1;">0</text><text text-anchor="end" transform="translate(-7,93)" style="font: 10px sans-serif; fill: #000; opacity: 1;">200</text><text text-anchor="end" transform="translate(-7,63)" style="font: 10px sans-serif; fill: #000; opacity: 1;">400</text><text text-anchor="end" transform="translate(-7,33)" style="font: 10px sans-serif; fill: #000; opacity: 1;">600</text><text text-anchor="end" transform="translate(-7,3)" style="font: 10px sans-serif; fill: #000; opacity: 1;">800</text></g><g class="mark-rule role-axis-domain" style="pointer-events: none;"><line transform="translate(0,120)" x2="0" y2="-120" style="fill: none; stroke: #888; stroke-width: 1; opacity: 1;"></line></g><g class="mark-text role-axis-title" style="pointer-events: none;"><text text-anchor="middle" transform="translate(-34,60) rotate(-90) translate(0,-2)" style="font: bold 11px sans-serif; fill: #000; opacity: 1;">Number of Records</text></g></g></g></g></g></g></g></g></g></g></g></svg>