<svg xmlns="http://www.w3.org/2000/svg" xmlns:xlink="http://www.w3.org/1999/xlink" version="1.1" class="marks" width="252" height="242" viewBox="0 0 252 242"><rect width="252" height="242" fill="white"/><g fill="none" stroke-miterlimit="10" transform="translate(43,5)"><g class="mark-group role-frame root" role="graphics-object" aria-roledescription="group mark container"><g transform="translate(0,0)"><path class="background" aria-hidden="true" d="M0.5,0.5h200v200h-200Z" stroke="#ddd"/><g><g class="mark-group role-axis" aria-hidden="true"><g transform="translate(0.5,200.5)"><path class="background" aria-hidden="true" d="M0,0h0v0h0Z" pointer-events="none"/><g><g class="mark-rule role-axis-grid" pointer-events="none"><line transform="translate(14,-200)" x2="0" y2="200" stroke="#ddd" stroke-width="1" opacity="1"/><line transform="translate(43,-200)" x2="0" y2="200" stroke="#ddd" stroke-width="1" opacity="1"/><line transform="translate(71,-200)" x2="0" y2="200" stroke="#ddd" stroke-width="1" opacity="1"/><line transform="translate(100,-200)" x2="0" y2="200" stroke="#ddd" stroke-width="1" opacity="1"/><line transform="translate(129,-200)" x2="0" y2="200" stroke="#ddd" stroke-width="1" opacity="1"/><line transform="translate(157,-200)" x2="0" y2="200" stroke="#ddd" stroke-width="1" opacity="1"/><line transform="translate(186,-200)" x2="0" y2="200" stroke="#ddd" stroke-width="1" opacity="1"/></g></g><path class="foreground" aria-hidden="true" d="" pointer-events="none" display="none"/></g></g><g class="mark-group role-axis" aria-hidden="true"><g transform="translate(0.5,0.5)"><path class="background" aria-hidden="true" d="M0,0h0v0h0Z" pointer-events="none"/><g><g class="mark-rule role-axis-grid" pointer-events="none"><line transform="translate(0,173)" x2="200" y2="0" stroke="#ddd" stroke-width="1" opacity="1"/><line transform="translate(0,127)" x2="200" y2="0" stroke="#ddd" stroke-width="1" opacity="1"/><line transform="translate(0,82)" x2="200" y2="0" stroke="#ddd" stroke-width="1" opacity="1"/><line transform="translate(0,36)" x2="200" y2="0" stroke="#ddd" stroke-width="1" opacity="1"/></g></g><path class="foreground" aria-hidden="true" d="" pointer-events="none" display="none"/></g></g><g class="mark-group role-axis" role="graphics-symbol" aria-roledescription="axis" aria-label="X-axis titled 'miles' for a linear scale with values from 3,500 to 10,500"><g transform="translate(0.5,200.5)"><path class="background" aria-hidden="true" d="M0,0h0v0h0Z" pointer-events="none"/><g><g class="mark-rule role-axis-tick" pointer-events="none"><line transform="translate(14,0)" x2="0" y2="5" stroke="#888" stroke-width="1" opacity="1"/><line transform="translate(43,0)" x2="0" y2="5" stroke="#888" stroke-width="1" opacity="1"/><line transform="translate(71,0)" x2="0" y2="5" stroke="#888" stroke-width="1" opacity="1"/><line transform="translate(100,0)" x2="0" y2="5" stroke="#888" stroke-width="1" opacity="1"/><line transform="translate(129,0)" x2="0" y2="5" stroke="#888" stroke-width="1" opacity="1"/><line transform="translate(157,0)" x2="0" y2="5" stroke="#888" stroke-width="1" opacity="1"/><line transform="translate(186,0)" x2="0" y2="5" stroke="#888" stroke-width="1" opacity="1"/></g><g class="mark-text role-axis-label" pointer-events="none"><text text-anchor="middle" transform="translate(14.285714285714285,15)" font-family="sans-serif" font-size="10px" fill="#000" opacity="1">4,000</text><text text-anchor="middle" transform="translate(42.857142857142854,15)" font-family="sans-serif" font-size="10px" fill="#000" opacity="0">5,000</text><text text-anchor="middle" transform="translate(71.42857142857143,15)" font-family="sans-serif" font-size="10px" fill="#000" opacity="1">6,000</text><text text-anchor="middle" transform="translate(100,15)" font-family="sans-serif" font-size="10px" fill="#000" opacity="0">7,000</text><text text-anchor="middle" transform="translate(128.57142857142858,15)" font-family="sans-serif" font-size="10px" fill="#000" opacity="1">8,000</text><text text-anchor="middle" transform="translate(157.14285714285714,15)" font-family="sans-serif" font-size="10px" fill="#000" opacity="0">9,000</text><text text-anchor="middle" transform="translate(185.71428571428572,15)" font-family="sans-serif" font-size="10px" fill="#000" opacity="1">10,000</text></g><g class="mark-rule role-axis-domain" pointer-events="none"><line transform="translate(0,0)" x2="200" y2="0" stroke="#888" stroke-width="1" opacity="1"/></g><g class="mark-text role-axis-title" pointer-events="none"><text text-anchor="middle" transform="translate(100,30)" font-family="sans-serif" font-size="11px" font-weight="bold" fill="#000" opacity="1">miles</text></g></g><path class="foreground" aria-hidden="true" d="" pointer-events="none" display="none"/></g></g><g class="mark-group role-axis" role="graphics-symbol" aria-roledescription="axis" aria-label="Y-axis titled 'gas' for a linear scale with values from 1.2 to 3.4"><g transform="translate(0.5,0.5)"><path class="background" aria-hidden="true" d="M0,0h0v0h0Z" pointer-events="none"/><g><g class="mark-rule role-axis-tick" pointer-events="none"><line transform="translate(0,173)" x2="-5" y2="0" stroke="#888" stroke-width="1" opacity="1"/><line transform="translate(0,127)" x2="-5" y2="0" stroke="#888" stroke-width="1" opacity="1"/><line transform="translate(0,82)" x2="-5" y2="0" stroke="#888" stroke-width="1" opacity="1"/><line transform="translate(0,36)" x2="-5" y2="0" stroke="#888" stroke-width="1" opacity="1"/></g><g class="mark-text role-axis-label" pointer-events="none"><text text-anchor="end" transform="translate(-7,175.72727272727272)" font-family="sans-serif" font-size="10px" fill="#000" opacity="1">1.5</text><text text-anchor="end" transform="translate(-7,130.27272727272725)" font-family="sans-serif" font-size="10px" fill="#000" opacity="1">2.0</text><text text-anchor="end" transform="translate(-7,84.81818181818184)" font-family="sans-serif" font-size="10px" fill="#000" opacity="1">2.5</text><text text-anchor="end" transform="translate(-7,39.363636363636374)" font-family="sans-serif" font-size="10px" fill="#000" opacity="1">3.0</text></g><g class="mark-rule role-axis-domain" pointer-events="none"><line transform="translate(0,200)" x2="0" y2="-200" stroke="#888" stroke-width="1" opacity="1"/></g><g class="mark-text role-axis-title" pointer-events="none"><text text-anchor="middle" transform="translate(-26.9033203125,100) rotate(-90) translate(0,-2)" font-family="sans-serif" font-size="11px" font-weight="bold" fill="#000" opacity="1">gas</text></g></g><path class="foreground" aria-hidden="true" d="" pointer-events="none" display="none"/></g></g><g class="mark-line role-mark layer_0_marks" role="graphics-object" aria-roledescription="line mark container"><path aria-label="miles: 3675; gas: 2.38; year: 1956" role="graphics-symbol" aria-roledescription="line mark" d="M5,92.727L5.886,90.909L7.6,103.636L11.571,99.091L12.429,102.727L13.629,104.545L16.714,107.273L20.514,116.364L24.829,117.273L29.657,114.545L33.6,114.545L37.914,114.545L43.943,115.455L48.771,120.909L53.6,126.364L60.486,133.636L70.657,139.091L75.829,136.364L69.8,96.364L74.6,99.091L82.543,98.182L89.429,94.545L96.657,106.364L92.686,65.455L90.629,9.091L92.343,9.091L95.286,43.636L98.371,67.273L103.714,83.636L109.229,94.545L115.943,149.091L122,149.091L131.114,156.364L139.914,150L143.686,138.182L143.857,147.273L147.486,155.455L153,163.636L154.543,164.545L161.429,163.636L162.629,157.273L169.029,159.091L174,182.727L176.771,172.727L177.629,137.273L177.114,148.182L180.4,160L181.943,140L185.543,114.545L187.629,79.091L186.771,55.455L186.429,40.909L182.286,8.182L175.914,92.727L174.171,71.818" stroke="#4c78a8" stroke-width="2"/></g><g class="mark-symbol role-mark layer_1_marks" role="graphics-object" aria-roledescription="symbol mark container"><path aria-label="miles: 3675; gas: 2.38; year: 1956" role="graphics-symbol" aria-roledescription="point" transform="translate(5,92.72727272727275)" d="M2.739,0A2.739,2.739,0,1,1,-2.739,0A2.739,2.739,0,1,1,2.739,0" fill="#4c78a8" stroke-width="2" opacity="1"/><path aria-label="miles: 3706; gas: 2.4; year: 1957" role="graphics-symbol" aria-roledescription="point" transform="translate(5.885714285714286,90.90909090909092)" d="M2.739,0A2.739,2.739,0,1,1,-2.739,0A2.739,2.739,0,1,1,2.739,0" fill="#4c78a8" stroke-width="2" opacity="1"/><path aria-label="miles: 3766; gas: 2.26; year: 1958" role="graphics-symbol" aria-roledescription="point" transform="translate(7.6,103.63636363636365)" d="M2.739,0A2.739,2.739,0,1,1,-2.739,0A2.739,2.739,0,1,1,2.739,0" fill="#4c78a8" stroke-width="2" opacity="1"/><path aria-label="miles: 3905; gas: 2.31; year: 1959" role="graphics-symbol" aria-roledescription="point" transform="translate(11.571428571428571,99.0909090909091)" d="M2.739,0A2.739,2.739,0,1,1,-2.739,0A2.739,2.739,0,1,1,2.739,0" fill="#4c78a8" stroke-width="2" opacity="1"/><path aria-label="miles: 3935; gas: 2.27; year: 1960" role="graphics-symbol" aria-roledescription="point" transform="translate(12.428571428571429,102.72727272727273)" d="M2.739,0A2.739,2.739,0,1,1,-2.739,0A2.739,2.739,0,1,1,2.739,0" fill="#4c78a8" stroke-width="2" opacity="1"/><path aria-label="miles: 3977; gas: 2.25; year: 1961" role="graphics-symbol" aria-roledescription="point" transform="translate(13.628571428571428,104.54545454545455)" d="M2.739,0A2.739,2.739,0,1,1,-2.739,0A2.739,2.739,0,1,1,2.739,0" fill="#4c78a8" stroke-width="2" opacity="1"/><path aria-label="miles: 4085; gas: 2.22; year: 1962" role="graphics-symbol" aria-roledescription="point" transform="translate(16.714285714285715,107.27272727272725)" d="M2.739,0A2.739,2.739,0,1,1,-2.739,0A2.739,2.739,0,1,1,2.739,0" fill="#4c78a8" stroke-width="2" opacity="1"/><path aria-label="miles: 4218; gas: 2.12; year: 1963" role="graphics-symbol" aria-roledescription="point" transform="translate(20.514285714285716,116.36363636363636)" d="M2.739,0A2.739,2.739,0,1,1,-2.739,0A2.739,2.739,0,1,1,2.739,0" fill="#4c78a8" stroke-width="2" opacity="1"/><path aria-label="miles: 4369; gas: 2.11; year: 1964" role="graphics-symbol" aria-roledescription="point" transform="translate(24.82857142857143,117.27272727272728)" d="M2.739,0A2.739,2.739,0,1,1,-2.739,0A2.739,2.739,0,1,1,2.739,0" fill="#4c78a8" stroke-width="2" opacity="1"/><path aria-label="miles: 4538; gas: 2.14; year: 1965" role="graphics-symbol" aria-roledescription="point" transform="translate(29.65714285714286,114.54545454545455)" d="M2.739,0A2.739,2.739,0,1,1,-2.739,0A2.739,2.739,0,1,1,2.739,0" fill="#4c78a8" stroke-width="2" opacity="1"/><path aria-label="miles: 4676; gas: 2.14; year: 1966" role="graphics-symbol" aria-roledescription="point" transform="translate(33.6,114.54545454545455)" d="M2.739,0A2.739,2.739,0,1,1,-2.739,0A2.739,2.739,0,1,1,2.739,0" fill="#4c78a8" stroke-width="2" opacity="1"/><path aria-label="miles: 4827; gas: 2.14; year: 1967" role="graphics-symbol" aria-roledescription="point" transform="translate(37.91428571428572,114.54545454545455)" d="M2.739,0A2.739,2.739,0,1,1,-2.739,0A2.739,2.739,0,1,1,2.739,0" fill="#4c78a8" stroke-width="2" opacity="1"/><path aria-label="miles: 5038; gas: 2.13; year: 1968" role="graphics-symbol" aria-roledescription="point" transform="translate(43.94285714285714,115.45454545454548)" d="M2.739,0A2.739,2.739,0,1,1,-2.739,0A2.739,2.739,0,1,1,2.739,0" fill="#4c78a8" stroke-width="2" opacity="1"/><path aria-label="miles: 5207; gas: 2.07; year: 1969" role="graphics-symbol" aria-roledescription="point" transform="translate(48.77142857142857,120.90909090909092)" d="M2.739,0A2.739,2.739,0,1,1,-2.739,0A2.739,2.739,0,1,1,2.739,0" fill="#4c78a8" stroke-width="2" opacity="1"/><path aria-label="miles: 5376; gas: 2.01; year: 1970" role="graphics-symbol" aria-roledescription="point" transform="translate(53.6,126.36363636363639)" d="M2.739,0A2.739,2.739,0,1,1,-2.739,0A2.739,2.739,0,1,1,2.739,0" fill="#4c78a8" stroke-width="2" opacity="1"/><path aria-label="miles: 5617; gas: 1.93; year: 1971" role="graphics-symbol" aria-roledescription="point" transform="translate(60.48571428571429,133.63636363636365)" d="M2.739,0A2.739,2.739,0,1,1,-2.739,0A2.739,2.739,0,1,1,2.739,0" fill="#4c78a8" stroke-width="2" opacity="1"/><path aria-label="miles: 5973; gas: 1.87; year: 1972" role="graphics-symbol" aria-roledescription="point" transform="translate(70.65714285714286,139.0909090909091)" d="M2.739,0A2.739,2.739,0,1,1,-2.739,0A2.739,2.739,0,1,1,2.739,0" fill="#4c78a8" stroke-width="2" opacity="1"/><path aria-label="miles: 6154; gas: 1.9; year: 1973" role="graphics-symbol" aria-roledescription="point" transform="translate(75.82857142857144,136.36363636363637)" d="M2.739,0A2.739,2.739,0,1,1,-2.739,0A2.739,2.739,0,1,1,2.739,0" fill="#4c78a8" stroke-width="2" opacity="1"/><path aria-label="miles: 5943; gas: 2.34; year: 1974" role="graphics-symbol" aria-roledescription="point" transform="translate(69.8,96.36363636363639)" d="M2.739,0A2.739,2.739,0,1,1,-2.739,0A2.739,2.739,0,1,1,2.739,0" fill="#4c78a8" stroke-width="2" opacity="1"/><path aria-label="miles: 6111; gas: 2.31; year: 1975" role="graphics-symbol" aria-roledescription="point" transform="translate(74.6,99.0909090909091)" d="M2.739,0A2.739,2.739,0,1,1,-2.739,0A2.739,2.739,0,1,1,2.739,0" fill="#4c78a8" stroke-width="2" opacity="1"/><path aria-label="miles: 6389; gas: 2.32; year: 1976" role="graphics-symbol" aria-roledescription="point" transform="translate(82.54285714285714,98.18181818181819)" d="M2.739,0A2.739,2.739,0,1,1,-2.739,0A2.739,2.739,0,1,1,2.739,0" fill="#4c78a8" stroke-width="2" opacity="1"/><path aria-label="miles: 6630; gas: 2.36; year: 1977" role="graphics-symbol" aria-roledescription="point" transform="translate(89.42857142857143,94.54545454545456)" d="M2.739,0A2.739,2.739,0,1,1,-2.739,0A2.739,2.739,0,1,1,2.739,0" fill="#4c78a8" stroke-width="2" opacity="1"/><path aria-label="miles: 6883; gas: 2.23; year: 1978" role="graphics-symbol" aria-roledescription="point" transform="translate(96.65714285714286,106.36363636363637)" d="M2.739,0A2.739,2.739,0,1,1,-2.739,0A2.739,2.739,0,1,1,2.739,0" fill="#4c78a8" stroke-width="2" opacity="1"/><path aria-label="miles: 6744; gas: 2.68; year: 1979" role="graphics-symbol" aria-roledescription="point" transform="translate(92.68571428571428,65.45454545454545)" d="M2.739,0A2.739,2.739,0,1,1,-2.739,0A2.739,2.739,0,1,1,2.739,0" fill="#4c78a8" stroke-width="2" opacity="1"/><path aria-label="miles: 6672; gas: 3.3; year: 1980" role="graphics-symbol" aria-roledescription="point" transform="translate(90.62857142857142,9.09090909090915)" d="M2.739,0A2.739,2.739,0,1,1,-2.739,0A2.739,2.739,0,1,1,2.739,0" fill="#4c78a8" stroke-width="2" opacity="1"/><path aria-label="miles: 6732; gas: 3.3; year: 1981" role="graphics-symbol" aria-roledescription="point" transform="translate(92.34285714285714,9.09090909090915)" d="M2.739,0A2.739,2.739,0,1,1,-2.739,0A2.739,2.739,0,1,1,2.739,0" fill="#4c78a8" stroke-width="2" opacity="1"/><path aria-label="miles: 6835; gas: 2.92; year: 1982" role="graphics-symbol" aria-roledescription="point" transform="translate(95.28571428571428,43.636363636363654)" d="M2.739,0A2.739,2.739,0,1,1,-2.739,0A2.739,2.739,0,1,1,2.739,0" fill="#4c78a8" stroke-width="2" opacity="1"/><path aria-label="miles: 6943; gas: 2.66; year: 1983" role="graphics-symbol" aria-roledescription="point" transform="translate(98.37142857142858,67.27272727272727)" d="M2.739,0A2.739,2.739,0,1,1,-2.739,0A2.739,2.739,0,1,1,2.739,0" fill="#4c78a8" stroke-width="2" opacity="1"/><path aria-label="miles: 7130; gas: 2.48; year: 1984" role="graphics-symbol" aria-roledescription="point" transform="translate(103.71428571428571,83.63636363636364)" d="M2.739,0A2.739,2.739,0,1,1,-2.739,0A2.739,2.739,0,1,1,2.739,0" fill="#4c78a8" stroke-width="2" opacity="1"/><path aria-label="miles: 7323; gas: 2.36; year: 1985" role="graphics-symbol" aria-roledescription="point" transform="translate(109.22857142857143,94.54545454545456)" d="M2.739,0A2.739,2.739,0,1,1,-2.739,0A2.739,2.739,0,1,1,2.739,0" fill="#4c78a8" stroke-width="2" opacity="1"/><path aria-label="miles: 7558; gas: 1.76; year: 1986" role="graphics-symbol" aria-roledescription="point" transform="translate(115.94285714285715,149.09090909090907)" d="M2.739,0A2.739,2.739,0,1,1,-2.739,0A2.739,2.739,0,1,1,2.739,0" fill="#4c78a8" stroke-width="2" opacity="1"/><path aria-label="miles: 7770; gas: 1.76; year: 1987" role="graphics-symbol" aria-roledescription="point" transform="translate(122,149.09090909090907)" d="M2.739,0A2.739,2.739,0,1,1,-2.739,0A2.739,2.739,0,1,1,2.739,0" fill="#4c78a8" stroke-width="2" opacity="1"/><path aria-label="miles: 8089; gas: 1.68; year: 1988" role="graphics-symbol" aria-roledescription="point" transform="translate(131.11428571428573,156.36363636363637)" d="M2.739,0A2.739,2.739,0,1,1,-2.739,0A2.739,2.739,0,1,1,2.739,0" fill="#4c78a8" stroke-width="2" opacity="1"/><path aria-label="miles: 8397; gas: 1.75; year: 1989" role="graphics-symbol" aria-roledescription="point" transform="translate(139.9142857142857,150)" d="M2.739,0A2.739,2.739,0,1,1,-2.739,0A2.739,2.739,0,1,1,2.739,0" fill="#4c78a8" stroke-width="2" opacity="1"/><path aria-label="miles: 8529; gas: 1.88; year: 1990" role="graphics-symbol" aria-roledescription="point" transform="translate(143.68571428571428,138.1818181818182)" d="M2.739,0A2.739,2.739,0,1,1,-2.739,0A2.739,2.739,0,1,1,2.739,0" fill="#4c78a8" stroke-width="2" opacity="1"/><path aria-label="miles: 8535; gas: 1.78; year: 1991" role="graphics-symbol" aria-roledescription="point" transform="translate(143.85714285714286,147.27272727272725)" d="M2.739,0A2.739,2.739,0,1,1,-2.739,0A2.739,2.739,0,1,1,2.739,0" fill="#4c78a8" stroke-width="2" opacity="1"/><path aria-label="miles: 8662; gas: 1.69; year: 1992" role="graphics-symbol" aria-roledescription="point" transform="translate(147.4857142857143,155.45454545454547)" d="M2.739,0A2.739,2.739,0,1,1,-2.739,0A2.739,2.739,0,1,1,2.739,0" fill="#4c78a8" stroke-width="2" opacity="1"/><path aria-label="miles: 8855; gas: 1.6; year: 1993" role="graphics-symbol" aria-roledescription="point" transform="translate(153,163.63636363636363)" d="M2.739,0A2.739,2.739,0,1,1,-2.739,0A2.739,2.739,0,1,1,2.739,0" fill="#4c78a8" stroke-width="2" opacity="1"/><path aria-label="miles: 8909; gas: 1.59; year: 1994" role="graphics-symbol" aria-roledescription="point" transform="translate(154.54285714285714,164.54545454545456)" d="M2.739,0A2.739,2.739,0,1,1,-2.739,0A2.739,2.739,0,1,1,2.739,0" fill="#4c78a8" stroke-width="2" opacity="1"/><path aria-label="miles: 9150; gas: 1.6; year: 1995" role="graphics-symbol" aria-roledescription="point" transform="translate(161.42857142857144,163.63636363636363)" d="M2.739,0A2.739,2.739,0,1,1,-2.739,0A2.739,2.739,0,1,1,2.739,0" fill="#4c78a8" stroke-width="2" opacity="1"/><path aria-label="miles: 9192; gas: 1.67; year: 1996" role="graphics-symbol" aria-roledescription="point" transform="translate(162.62857142857143,157.27272727272728)" d="M2.739,0A2.739,2.739,0,1,1,-2.739,0A2.739,2.739,0,1,1,2.739,0" fill="#4c78a8" stroke-width="2" opacity="1"/><path aria-label="miles: 9416; gas: 1.65; year: 1997" role="graphics-symbol" aria-roledescription="point" transform="translate(169.02857142857144,159.0909090909091)" d="M2.739,0A2.739,2.739,0,1,1,-2.739,0A2.739,2.739,0,1,1,2.739,0" fill="#4c78a8" stroke-width="2" opacity="1"/><path aria-label="miles: 9590; gas: 1.39; year: 1998" role="graphics-symbol" aria-roledescription="point" transform="translate(174,182.72727272727275)" d="M2.739,0A2.739,2.739,0,1,1,-2.739,0A2.739,2.739,0,1,1,2.739,0" fill="#4c78a8" stroke-width="2" opacity="1"/><path aria-label="miles: 9687; gas: 1.5; year: 1999" role="graphics-symbol" aria-roledescription="point" transform="translate(176.77142857142857,172.72727272727272)" d="M2.739,0A2.739,2.739,0,1,1,-2.739,0A2.739,2.739,0,1,1,2.739,0" fill="#4c78a8" stroke-width="2" opacity="1"/><path aria-label="miles: 9717; gas: 1.89; year: 2000" role="graphics-symbol" aria-roledescription="point" transform="translate(177.62857142857143,137.27272727272728)" d="M2.739,0A2.739,2.739,0,1,1,-2.739,0A2.739,2.739,0,1,1,2.739,0" fill="#4c78a8" stroke-width="2" opacity="1"/><path aria-label="miles: 9699; gas: 1.77; year: 2001" role="graphics-symbol" aria-roledescription="point" transform="translate(177.1142857142857,148.1818181818182)" d="M2.739,0A2.739,2.739,0,1,1,-2.739,0A2.739,2.739,0,1,1,2.739,0" fill="#4c78a8" stroke-width="2" opacity="1"/><path aria-label="miles: 9814; gas: 1.64; year: 2002" role="graphics-symbol" aria-roledescription="point" transform="translate(180.4,160)" d="M2.739,0A2.739,2.739,0,1,1,-2.739,0A2.739,2.739,0,1,1,2.739,0" fill="#4c78a8" stroke-width="2" opacity="1"/><path aria-label="miles: 9868; gas: 1.86; year: 2003" role="graphics-symbol" aria-roledescription="point" transform="translate(181.94285714285715,140)" d="M2.739,0A2.739,2.739,0,1,1,-2.739,0A2.739,2.739,0,1,1,2.739,0" fill="#4c78a8" stroke-width="2" opacity="1"/><path aria-label="miles: 9994; gas: 2.14; year: 2004" role="graphics-symbol" aria-roledescription="point" transform="translate(185.54285714285714,114.54545454545455)" d="M2.739,0A2.739,2.739,0,1,1,-2.739,0A2.739,2.739,0,1,1,2.739,0" fill="#4c78a8" stroke-width="2" opacity="1"/><path aria-label="miles: 10067; gas: 2.53; year: 2005" role="graphics-symbol" aria-roledescription="point" transform="translate(187.62857142857143,79.09090909090912)" d="M2.739,0A2.739,2.739,0,1,1,-2.739,0A2.739,2.739,0,1,1,2.739,0" fill="#4c78a8" stroke-width="2" opacity="1"/><path aria-label="miles: 10037; gas: 2.79; year: 2006" role="graphics-symbol" aria-roledescription="point" transform="translate(186.77142857142857,55.45454545454547)" d="M2.739,0A2.739,2.739,0,1,1,-2.739,0A2.739,2.739,0,1,1,2.739,0" fill="#4c78a8" stroke-width="2" opacity="1"/><path aria-label="miles: 10025; gas: 2.95; year: 2007" role="graphics-symbol" aria-roledescription="point" transform="translate(186.42857142857144,40.90909090909089)" d="M2.739,0A2.739,2.739,0,1,1,-2.739,0A2.739,2.739,0,1,1,2.739,0" fill="#4c78a8" stroke-width="2" opacity="1"/><path aria-label="miles: 9880; gas: 3.31; year: 2008" role="graphics-symbol" aria-roledescription="point" transform="translate(182.2857142857143,8.18181818181818)" d="M2.739,0A2.739,2.739,0,1,1,-2.739,0A2.739,2.739,0,1,1,2.739,0" fill="#4c78a8" stroke-width="2" opacity="1"/><path aria-label="miles: 9657; gas: 2.38; year: 2009" role="graphics-symbol" aria-roledescription="point" transform="translate(175.9142857142857,92.72727272727275)" d="M2.739,0A2.739,2.739,0,1,1,-2.739,0A2.739,2.739,0,1,1,2.739,0" fill="#4c78a8" stroke-width="2" opacity="1"/><path aria-label="miles: 9596; gas: 2.61; year: 2010" role="graphics-symbol" aria-roledescription="point" transform="translate(174.17142857142858,71.81818181818183)" d="M2.739,0A2.739,2.739,0,1,1,-2.739,0A2.739,2.739,0,1,1,2.739,0" fill="#4c78a8" stroke-width="2" opacity="1"/></g></g><path class="foreground" aria-hidden="true" d="" display="none"/></g></g></g></svg>