<svg class="marks" width="250" height="242" viewBox="0 0 250 242" version="1.1" xmlns="http://www.w3.org/2000/svg" xmlns:xlink="http://www.w3.org/1999/xlink"><rect width="250" height="242" style="fill: white;"></rect><g transform="translate(42,5)"><g class="mark-group role-frame root" role="graphics-object" aria-roledescription="group mark container"><g transform="translate(0,0)"><path class="background" aria-hidden="true" d="M0.5,0.5h200v200h-200Z" style="fill: none; stroke: #ddd;"></path><g><g class="mark-group role-axis" aria-hidden="true"><g transform="translate(0.5,200.5)"><path class="background" aria-hidden="true" d="M0,0h0v0h0Z" style="pointer-events: none; fill: none;"></path><g><g class="mark-rule role-axis-grid" style="pointer-events: none;"><line transform="translate(14,-200)" x2="0" y2="200" style="fill: none; stroke: #ddd; stroke-width: 1; opacity: 1;"></line><line transform="translate(43,-200)" x2="0" y2="200" style="fill: none; stroke: #ddd; stroke-width: 1; opacity: 1;"></line><line transform="translate(71,-200)" x2="0" y2="200" style="fill: none; stroke: #ddd; stroke-width: 1; opacity: 1;"></line><line transform="translate(100,-200)" x2="0" y2="200" style="fill: none; stroke: #ddd; stroke-width: 1; opacity: 1;"></line><line transform="translate(129,-200)" x2="0" y2="200" style="fill: none; stroke: #ddd; stroke-width: 1; opacity: 1;"></line><line transform="translate(157,-200)" x2="0" y2="200" style="fill: none; stroke: #ddd; stroke-width: 1; opacity: 1;"></line><line transform="translate(186,-200)" x2="0" y2="200" style="fill: none; stroke: #ddd; stroke-width: 1; opacity: 1;"></line></g></g><path class="foreground" aria-hidden="true" d="" style="pointer-events: none; display: none; fill: none;"></path></g></g><g class="mark-group role-axis" aria-hidden="true"><g transform="translate(0.5,0.5)"><path class="background" aria-hidden="true" d="M0,0h0v0h0Z" style="pointer-events: none; fill: none;"></path><g><g class="mark-rule role-axis-grid" style="pointer-events: none;"><line transform="translate(0,173)" x2="200" y2="0" style="fill: none; stroke: #ddd; stroke-width: 1; opacity: 1;"></line><line transform="translate(0,127)" x2="200" y2="0" style="fill: none; stroke: #ddd; stroke-width: 1; opacity: 1;"></line><line transform="translate(0,82)" x2="200" y2="0" style="fill: none; stroke: #ddd; stroke-width: 1; opacity: 1;"></line><line transform="translate(0,36)" x2="200" y2="0" style="fill: none; stroke: #ddd; stroke-width: 1; opacity: 1;"></line></g></g><path class="foreground" aria-hidden="true" d="" style="pointer-events: none; display: none; fill: none;"></path></g></g><g class="mark-group role-axis" role="graphics-symbol" aria-roledescription="axis" aria-label="X-axis titled 'miles' for a linear scale with values from 3,500 to 10,500"><g transform="translate(0.5,200.5)"><path class="background" aria-hidden="true" d="M0,0h0v0h0Z" style="pointer-events: none; fill: none;"></path><g><g class="mark-rule role-axis-tick" style="pointer-events: none;"><line transform="translate(14,0)" x2="0" y2="5" style="fill: none; stroke: #888; stroke-width: 1; opacity: 1;"></line><line transform="translate(43,0)" x2="0" y2="5" style="fill: none; stroke: #888; stroke-width: 1; opacity: 1;"></line><line transform="translate(71,0)" x2="0" y2="5" style="fill: none; stroke: #888; stroke-width: 1; opacity: 1;"></line><line transform="translate(100,0)" x2="0" y2="5" style="fill: none; stroke: #888; stroke-width: 1; opacity: 1;"></line><line transform="translate(129,0)" x2="0" y2="5" style="fill: none; stroke: #888; stroke-width: 1; opacity: 1;"></line><line transform="translate(157,0)" x2="0" y2="5" style="fill: none; stroke: #888; stroke-width: 1; opacity: 1;"></line><line transform="translate(186,0)" x2="0" y2="5" style="fill: none; stroke: #888; stroke-width: 1; opacity: 1;"></line></g><g class="mark-text role-axis-label" style="pointer-events: none;"><text text-anchor="middle" transform="translate(14.285714285714285,15)" style="font-family: sans-serif; font-size: 10px; fill: #000; opacity: 1;">4,000</text><text text-anchor="middle" transform="translate(42.857142857142854,15)" style="font-family: sans-serif; font-size: 10px; fill: #000; opacity: 0;">5,000</text><text text-anchor="middle" transform="translate(71.42857142857143,15)" style="font-family: sans-serif; font-size: 10px; fill: #000; opacity: 1;">6,000</text><text text-anchor="middle" transform="translate(100,15)" style="font-family: sans-serif; font-size: 10px; fill: #000; opacity: 0;">7,000</text><text text-anchor="middle" transform="translate(128.57142857142858,15)" style="font-family: sans-serif; font-size: 10px; fill: #000; opacity: 1;">8,000</text><text text-anchor="middle" transform="translate(157.14285714285714,15)" style="font-family: sans-serif; font-size: 10px; fill: #000; opacity: 0;">9,000</text><text text-anchor="middle" transform="translate(185.71428571428572,15)" style="font-family: sans-serif; font-size: 10px; fill: #000; opacity: 1;">10,000</text></g><g class="mark-rule role-axis-domain" style="pointer-events: none;"><line transform="translate(0,0)" x2="200" y2="0" style="fill: none; stroke: #888; stroke-width: 1; opacity: 1;"></line></g><g class="mark-text role-axis-title" style="pointer-events: none;"><text text-anchor="middle" transform="translate(100,30)" style="font-family: sans-serif; font-size: 11px; font-weight: bold; fill: #000; opacity: 1;">miles</text></g></g><path class="foreground" aria-hidden="true" d="" style="pointer-events: none; display: none; fill: none;"></path></g></g><g class="mark-group role-axis" role="graphics-symbol" aria-roledescription="axis" aria-label="Y-axis titled 'gas' for a linear scale with values from 1.2 to 3.4"><g transform="translate(0.5,0.5)"><path class="background" aria-hidden="true" d="M0,0h0v0h0Z" style="pointer-events: none; fill: none;"></path><g><g class="mark-rule role-axis-tick" style="pointer-events: none;"><line transform="translate(0,173)" x2="-5" y2="0" style="fill: none; stroke: #888; stroke-width: 1; opacity: 1;"></line><line transform="translate(0,127)" x2="-5" y2="0" style="fill: none; stroke: #888; stroke-width: 1; opacity: 1;"></line><line transform="translate(0,82)" x2="-5" y2="0" style="fill: none; stroke: #888; stroke-width: 1; opacity: 1;"></line><line transform="translate(0,36)" x2="-5" y2="0" style="fill: none; stroke: #888; stroke-width: 1; opacity: 1;"></line></g><g class="mark-text role-axis-label" style="pointer-events: none;"><text text-anchor="end" transform="translate(-7,175.72727272727272)" style="font-family: sans-serif; font-size: 10px; fill: #000; opacity: 1;">1.5</text><text text-anchor="end" transform="translate(-7,130.27272727272725)" style="font-family: sans-serif; font-size: 10px; fill: #000; opacity: 1;">2.0</text><text text-anchor="end" transform="translate(-7,84.81818181818184)" style="font-family: sans-serif; font-size: 10px; fill: #000; opacity: 1;">2.5</text><text text-anchor="end" transform="translate(-7,39.363636363636374)" style="font-family: sans-serif; font-size: 10px; fill: #000; opacity: 1;">3.0</text></g><g class="mark-rule role-axis-domain" style="pointer-events: none;"><line transform="translate(0,200)" x2="0" y2="-200" style="fill: none; stroke: #888; stroke-width: 1; opacity: 1;"></line></g><g class="mark-text role-axis-title" style="pointer-events: none;"><text text-anchor="middle" transform="translate(-26,100) rotate(-90) translate(0,-2)" style="font-family: sans-serif; font-size: 11px; font-weight: bold; fill: #000; opacity: 1;">gas</text></g></g><path class="foreground" aria-hidden="true" d="" style="pointer-events: none; display: none; fill: none;"></path></g></g><g class="mark-line role-mark layer_0_marks" role="graphics-object" aria-roledescription="line mark container"><path aria-label="miles: 3675; gas: 2.38; year: Dec 31, 1969" role="graphics-symbol" aria-roledescription="line mark" d="M5,92.72727272727275L5.885714285714286,90.90909090909092L7.6,103.63636363636365L11.571428571428571,99.0909090909091L12.428571428571429,102.72727272727273L13.628571428571428,104.54545454545455L16.714285714285715,107.27272727272725L20.514285714285716,116.36363636363636L24.82857142857143,117.27272727272728L29.65714285714286,114.54545454545455L33.6,114.54545454545455L37.91428571428572,114.54545454545455L43.94285714285714,115.45454545454548L48.77142857142857,120.90909090909092L53.6,126.36363636363639L60.48571428571429,133.63636363636365L70.65714285714286,139.0909090909091L75.82857142857144,136.36363636363637L69.8,96.36363636363639L74.6,99.0909090909091L82.54285714285714,98.18181818181819L89.42857142857143,94.54545454545456L96.65714285714286,106.36363636363637L92.68571428571428,65.45454545454545L90.62857142857142,9.09090909090915L92.34285714285714,9.09090909090915L95.28571428571428,43.636363636363654L98.37142857142858,67.27272727272727L103.71428571428571,83.63636363636364L109.22857142857143,94.54545454545456L115.94285714285715,149.09090909090907L122,149.09090909090907L131.11428571428573,156.36363636363637L139.9142857142857,150L143.68571428571428,138.1818181818182L143.85714285714286,147.27272727272725L147.4857142857143,155.45454545454547L153,163.63636363636363L154.54285714285714,164.54545454545456L161.42857142857144,163.63636363636363L162.62857142857143,157.27272727272728L169.02857142857144,159.0909090909091L174,182.72727272727275L176.77142857142857,172.72727272727272L177.62857142857143,137.27272727272728L177.1142857142857,148.1818181818182L180.4,160L181.94285714285715,140L185.54285714285714,114.54545454545455L187.62857142857143,79.09090909090912L186.77142857142857,55.45454545454547L186.42857142857144,40.90909090909089L182.2857142857143,8.18181818181818L175.9142857142857,92.72727272727275L174.17142857142858,71.81818181818183" style="fill: none; stroke: #4c78a8; stroke-width: 2;"></path></g><g class="mark-symbol role-mark layer_1_marks" role="graphics-object" aria-roledescription="symbol mark container"><path aria-label="miles: 3675; gas: 2.38; year: Dec 31, 1969" role="graphics-symbol" aria-roledescription="point" transform="translate(5,92.72727272727275)" d="M2.7386127875258306,0A2.7386127875258306,2.7386127875258306,0,1,1,-2.7386127875258306,0A2.7386127875258306,2.7386127875258306,0,1,1,2.7386127875258306,0" style="fill: #4c78a8; stroke-width: 2; opacity: 1;"></path><path aria-label="miles: 3706; gas: 2.4; year: Dec 31, 1969" role="graphics-symbol" aria-roledescription="point" transform="translate(5.885714285714286,90.90909090909092)" d="M2.7386127875258306,0A2.7386127875258306,2.7386127875258306,0,1,1,-2.7386127875258306,0A2.7386127875258306,2.7386127875258306,0,1,1,2.7386127875258306,0" style="fill: #4c78a8; stroke-width: 2; opacity: 1;"></path><path aria-label="miles: 3766; gas: 2.26; year: Dec 31, 1969" role="graphics-symbol" aria-roledescription="point" transform="translate(7.6,103.63636363636365)" d="M2.7386127875258306,0A2.7386127875258306,2.7386127875258306,0,1,1,-2.7386127875258306,0A2.7386127875258306,2.7386127875258306,0,1,1,2.7386127875258306,0" style="fill: #4c78a8; stroke-width: 2; opacity: 1;"></path><path aria-label="miles: 3905; gas: 2.31; year: Dec 31, 1969" role="graphics-symbol" aria-roledescription="point" transform="translate(11.571428571428571,99.0909090909091)" d="M2.7386127875258306,0A2.7386127875258306,2.7386127875258306,0,1,1,-2.7386127875258306,0A2.7386127875258306,2.7386127875258306,0,1,1,2.7386127875258306,0" style="fill: #4c78a8; stroke-width: 2; opacity: 1;"></path><path aria-label="miles: 3935; gas: 2.27; year: Dec 31, 1969" role="graphics-symbol" aria-roledescription="point" transform="translate(12.428571428571429,102.72727272727273)" d="M2.7386127875258306,0A2.7386127875258306,2.7386127875258306,0,1,1,-2.7386127875258306,0A2.7386127875258306,2.7386127875258306,0,1,1,2.7386127875258306,0" style="fill: #4c78a8; stroke-width: 2; opacity: 1;"></path><path aria-label="miles: 3977; gas: 2.25; year: Dec 31, 1969" role="graphics-symbol" aria-roledescription="point" transform="translate(13.628571428571428,104.54545454545455)" d="M2.7386127875258306,0A2.7386127875258306,2.7386127875258306,0,1,1,-2.7386127875258306,0A2.7386127875258306,2.7386127875258306,0,1,1,2.7386127875258306,0" style="fill: #4c78a8; stroke-width: 2; opacity: 1;"></path><path aria-label="miles: 4085; gas: 2.22; year: Dec 31, 1969" role="graphics-symbol" aria-roledescription="point" transform="translate(16.714285714285715,107.27272727272725)" d="M2.7386127875258306,0A2.7386127875258306,2.7386127875258306,0,1,1,-2.7386127875258306,0A2.7386127875258306,2.7386127875258306,0,1,1,2.7386127875258306,0" style="fill: #4c78a8; stroke-width: 2; opacity: 1;"></path><path aria-label="miles: 4218; gas: 2.12; year: Dec 31, 1969" role="graphics-symbol" aria-roledescription="point" transform="translate(20.514285714285716,116.36363636363636)" d="M2.7386127875258306,0A2.7386127875258306,2.7386127875258306,0,1,1,-2.7386127875258306,0A2.7386127875258306,2.7386127875258306,0,1,1,2.7386127875258306,0" style="fill: #4c78a8; stroke-width: 2; opacity: 1;"></path><path aria-label="miles: 4369; gas: 2.11; year: Dec 31, 1969" role="graphics-symbol" aria-roledescription="point" transform="translate(24.82857142857143,117.27272727272728)" d="M2.7386127875258306,0A2.7386127875258306,2.7386127875258306,0,1,1,-2.7386127875258306,0A2.7386127875258306,2.7386127875258306,0,1,1,2.7386127875258306,0" style="fill: #4c78a8; stroke-width: 2; opacity: 1;"></path><path aria-label="miles: 4538; gas: 2.14; year: Dec 31, 1969" role="graphics-symbol" aria-roledescription="point" transform="translate(29.65714285714286,114.54545454545455)" d="M2.7386127875258306,0A2.7386127875258306,2.7386127875258306,0,1,1,-2.7386127875258306,0A2.7386127875258306,2.7386127875258306,0,1,1,2.7386127875258306,0" style="fill: #4c78a8; stroke-width: 2; opacity: 1;"></path><path aria-label="miles: 4676; gas: 2.14; year: Dec 31, 1969" role="graphics-symbol" aria-roledescription="point" transform="translate(33.6,114.54545454545455)" d="M2.7386127875258306,0A2.7386127875258306,2.7386127875258306,0,1,1,-2.7386127875258306,0A2.7386127875258306,2.7386127875258306,0,1,1,2.7386127875258306,0" style="fill: #4c78a8; stroke-width: 2; opacity: 1;"></path><path aria-label="miles: 4827; gas: 2.14; year: Dec 31, 1969" role="graphics-symbol" aria-roledescription="point" transform="translate(37.91428571428572,114.54545454545455)" d="M2.7386127875258306,0A2.7386127875258306,2.7386127875258306,0,1,1,-2.7386127875258306,0A2.7386127875258306,2.7386127875258306,0,1,1,2.7386127875258306,0" style="fill: #4c78a8; stroke-width: 2; opacity: 1;"></path><path aria-label="miles: 5038; gas: 2.13; year: Dec 31, 1969" role="graphics-symbol" aria-roledescription="point" transform="translate(43.94285714285714,115.45454545454548)" d="M2.7386127875258306,0A2.7386127875258306,2.7386127875258306,0,1,1,-2.7386127875258306,0A2.7386127875258306,2.7386127875258306,0,1,1,2.7386127875258306,0" style="fill: #4c78a8; stroke-width: 2; opacity: 1;"></path><path aria-label="miles: 5207; gas: 2.07; year: Dec 31, 1969" role="graphics-symbol" aria-roledescription="point" transform="translate(48.77142857142857,120.90909090909092)" d="M2.7386127875258306,0A2.7386127875258306,2.7386127875258306,0,1,1,-2.7386127875258306,0A2.7386127875258306,2.7386127875258306,0,1,1,2.7386127875258306,0" style="fill: #4c78a8; stroke-width: 2; opacity: 1;"></path><path aria-label="miles: 5376; gas: 2.01; year: Dec 31, 1969" role="graphics-symbol" aria-roledescription="point" transform="translate(53.6,126.36363636363639)" d="M2.7386127875258306,0A2.7386127875258306,2.7386127875258306,0,1,1,-2.7386127875258306,0A2.7386127875258306,2.7386127875258306,0,1,1,2.7386127875258306,0" style="fill: #4c78a8; stroke-width: 2; opacity: 1;"></path><path aria-label="miles: 5617; gas: 1.93; year: Dec 31, 1969" role="graphics-symbol" aria-roledescription="point" transform="translate(60.48571428571429,133.63636363636365)" d="M2.7386127875258306,0A2.7386127875258306,2.7386127875258306,0,1,1,-2.7386127875258306,0A2.7386127875258306,2.7386127875258306,0,1,1,2.7386127875258306,0" style="fill: #4c78a8; stroke-width: 2; opacity: 1;"></path><path aria-label="miles: 5973; gas: 1.87; year: Dec 31, 1969" role="graphics-symbol" aria-roledescription="point" transform="translate(70.65714285714286,139.0909090909091)" d="M2.7386127875258306,0A2.7386127875258306,2.7386127875258306,0,1,1,-2.7386127875258306,0A2.7386127875258306,2.7386127875258306,0,1,1,2.7386127875258306,0" style="fill: #4c78a8; stroke-width: 2; opacity: 1;"></path><path aria-label="miles: 6154; gas: 1.9; year: Dec 31, 1969" role="graphics-symbol" aria-roledescription="point" transform="translate(75.82857142857144,136.36363636363637)" d="M2.7386127875258306,0A2.7386127875258306,2.7386127875258306,0,1,1,-2.7386127875258306,0A2.7386127875258306,2.7386127875258306,0,1,1,2.7386127875258306,0" style="fill: #4c78a8; stroke-width: 2; opacity: 1;"></path><path aria-label="miles: 5943; gas: 2.34; year: Dec 31, 1969" role="graphics-symbol" aria-roledescription="point" transform="translate(69.8,96.36363636363639)" d="M2.7386127875258306,0A2.7386127875258306,2.7386127875258306,0,1,1,-2.7386127875258306,0A2.7386127875258306,2.7386127875258306,0,1,1,2.7386127875258306,0" style="fill: #4c78a8; stroke-width: 2; opacity: 1;"></path><path aria-label="miles: 6111; gas: 2.31; year: Dec 31, 1969" role="graphics-symbol" aria-roledescription="point" transform="translate(74.6,99.0909090909091)" d="M2.7386127875258306,0A2.7386127875258306,2.7386127875258306,0,1,1,-2.7386127875258306,0A2.7386127875258306,2.7386127875258306,0,1,1,2.7386127875258306,0" style="fill: #4c78a8; stroke-width: 2; opacity: 1;"></path><path aria-label="miles: 6389; gas: 2.32; year: Dec 31, 1969" role="graphics-symbol" aria-roledescription="point" transform="translate(82.54285714285714,98.18181818181819)" d="M2.7386127875258306,0A2.7386127875258306,2.7386127875258306,0,1,1,-2.7386127875258306,0A2.7386127875258306,2.7386127875258306,0,1,1,2.7386127875258306,0" style="fill: #4c78a8; stroke-width: 2; opacity: 1;"></path><path aria-label="miles: 6630; gas: 2.36; year: Dec 31, 1969" role="graphics-symbol" aria-roledescription="point" transform="translate(89.42857142857143,94.54545454545456)" d="M2.7386127875258306,0A2.7386127875258306,2.7386127875258306,0,1,1,-2.7386127875258306,0A2.7386127875258306,2.7386127875258306,0,1,1,2.7386127875258306,0" style="fill: #4c78a8; stroke-width: 2; opacity: 1;"></path><path aria-label="miles: 6883; gas: 2.23; year: Dec 31, 1969" role="graphics-symbol" aria-roledescription="point" transform="translate(96.65714285714286,106.36363636363637)" d="M2.7386127875258306,0A2.7386127875258306,2.7386127875258306,0,1,1,-2.7386127875258306,0A2.7386127875258306,2.7386127875258306,0,1,1,2.7386127875258306,0" style="fill: #4c78a8; stroke-width: 2; opacity: 1;"></path><path aria-label="miles: 6744; gas: 2.68; year: Dec 31, 1969" role="graphics-symbol" aria-roledescription="point" transform="translate(92.68571428571428,65.45454545454545)" d="M2.7386127875258306,0A2.7386127875258306,2.7386127875258306,0,1,1,-2.7386127875258306,0A2.7386127875258306,2.7386127875258306,0,1,1,2.7386127875258306,0" style="fill: #4c78a8; stroke-width: 2; opacity: 1;"></path><path aria-label="miles: 6672; gas: 3.3; year: Dec 31, 1969" role="graphics-symbol" aria-roledescription="point" transform="translate(90.62857142857142,9.09090909090915)" d="M2.7386127875258306,0A2.7386127875258306,2.7386127875258306,0,1,1,-2.7386127875258306,0A2.7386127875258306,2.7386127875258306,0,1,1,2.7386127875258306,0" style="fill: #4c78a8; stroke-width: 2; opacity: 1;"></path><path aria-label="miles: 6732; gas: 3.3; year: Dec 31, 1969" role="graphics-symbol" aria-roledescription="point" transform="translate(92.34285714285714,9.09090909090915)" d="M2.7386127875258306,0A2.7386127875258306,2.7386127875258306,0,1,1,-2.7386127875258306,0A2.7386127875258306,2.7386127875258306,0,1,1,2.7386127875258306,0" style="fill: #4c78a8; stroke-width: 2; opacity: 1;"></path><path aria-label="miles: 6835; gas: 2.92; year: Dec 31, 1969" role="graphics-symbol" aria-roledescription="point" transform="translate(95.28571428571428,43.636363636363654)" d="M2.7386127875258306,0A2.7386127875258306,2.7386127875258306,0,1,1,-2.7386127875258306,0A2.7386127875258306,2.7386127875258306,0,1,1,2.7386127875258306,0" style="fill: #4c78a8; stroke-width: 2; opacity: 1;"></path><path aria-label="miles: 6943; gas: 2.66; year: Dec 31, 1969" role="graphics-symbol" aria-roledescription="point" transform="translate(98.37142857142858,67.27272727272727)" d="M2.7386127875258306,0A2.7386127875258306,2.7386127875258306,0,1,1,-2.7386127875258306,0A2.7386127875258306,2.7386127875258306,0,1,1,2.7386127875258306,0" style="fill: #4c78a8; stroke-width: 2; opacity: 1;"></path><path aria-label="miles: 7130; gas: 2.48; year: Dec 31, 1969" role="graphics-symbol" aria-roledescription="point" transform="translate(103.71428571428571,83.63636363636364)" d="M2.7386127875258306,0A2.7386127875258306,2.7386127875258306,0,1,1,-2.7386127875258306,0A2.7386127875258306,2.7386127875258306,0,1,1,2.7386127875258306,0" style="fill: #4c78a8; stroke-width: 2; opacity: 1;"></path><path aria-label="miles: 7323; gas: 2.36; year: Dec 31, 1969" role="graphics-symbol" aria-roledescription="point" transform="translate(109.22857142857143,94.54545454545456)" d="M2.7386127875258306,0A2.7386127875258306,2.7386127875258306,0,1,1,-2.7386127875258306,0A2.7386127875258306,2.7386127875258306,0,1,1,2.7386127875258306,0" style="fill: #4c78a8; stroke-width: 2; opacity: 1;"></path><path aria-label="miles: 7558; gas: 1.76; year: Dec 31, 1969" role="graphics-symbol" aria-roledescription="point" transform="translate(115.94285714285715,149.09090909090907)" d="M2.7386127875258306,0A2.7386127875258306,2.7386127875258306,0,1,1,-2.7386127875258306,0A2.7386127875258306,2.7386127875258306,0,1,1,2.7386127875258306,0" style="fill: #4c78a8; stroke-width: 2; opacity: 1;"></path><path aria-label="miles: 7770; gas: 1.76; year: Dec 31, 1969" role="graphics-symbol" aria-roledescription="point" transform="translate(122,149.09090909090907)" d="M2.7386127875258306,0A2.7386127875258306,2.7386127875258306,0,1,1,-2.7386127875258306,0A2.7386127875258306,2.7386127875258306,0,1,1,2.7386127875258306,0" style="fill: #4c78a8; stroke-width: 2; opacity: 1;"></path><path aria-label="miles: 8089; gas: 1.68; year: Dec 31, 1969" role="graphics-symbol" aria-roledescription="point" transform="translate(131.11428571428573,156.36363636363637)" d="M2.7386127875258306,0A2.7386127875258306,2.7386127875258306,0,1,1,-2.7386127875258306,0A2.7386127875258306,2.7386127875258306,0,1,1,2.7386127875258306,0" style="fill: #4c78a8; stroke-width: 2; opacity: 1;"></path><path aria-label="miles: 8397; gas: 1.75; year: Dec 31, 1969" role="graphics-symbol" aria-roledescription="point" transform="translate(139.9142857142857,150)" d="M2.7386127875258306,0A2.7386127875258306,2.7386127875258306,0,1,1,-2.7386127875258306,0A2.7386127875258306,2.7386127875258306,0,1,1,2.7386127875258306,0" style="fill: #4c78a8; stroke-width: 2; opacity: 1;"></path><path aria-label="miles: 8529; gas: 1.88; year: Dec 31, 1969" role="graphics-symbol" aria-roledescription="point" transform="translate(143.68571428571428,138.1818181818182)" d="M2.7386127875258306,0A2.7386127875258306,2.7386127875258306,0,1,1,-2.7386127875258306,0A2.7386127875258306,2.7386127875258306,0,1,1,2.7386127875258306,0" style="fill: #4c78a8; stroke-width: 2; opacity: 1;"></path><path aria-label="miles: 8535; gas: 1.78; year: Dec 31, 1969" role="graphics-symbol" aria-roledescription="point" transform="translate(143.85714285714286,147.27272727272725)" d="M2.7386127875258306,0A2.7386127875258306,2.7386127875258306,0,1,1,-2.7386127875258306,0A2.7386127875258306,2.7386127875258306,0,1,1,2.7386127875258306,0" style="fill: #4c78a8; stroke-width: 2; opacity: 1;"></path><path aria-label="miles: 8662; gas: 1.69; year: Dec 31, 1969" role="graphics-symbol" aria-roledescription="point" transform="translate(147.4857142857143,155.45454545454547)" d="M2.7386127875258306,0A2.7386127875258306,2.7386127875258306,0,1,1,-2.7386127875258306,0A2.7386127875258306,2.7386127875258306,0,1,1,2.7386127875258306,0" style="fill: #4c78a8; stroke-width: 2; opacity: 1;"></path><path aria-label="miles: 8855; gas: 1.6; year: Dec 31, 1969" role="graphics-symbol" aria-roledescription="point" transform="translate(153,163.63636363636363)" d="M2.7386127875258306,0A2.7386127875258306,2.7386127875258306,0,1,1,-2.7386127875258306,0A2.7386127875258306,2.7386127875258306,0,1,1,2.7386127875258306,0" style="fill: #4c78a8; stroke-width: 2; opacity: 1;"></path><path aria-label="miles: 8909; gas: 1.59; year: Dec 31, 1969" role="graphics-symbol" aria-roledescription="point" transform="translate(154.54285714285714,164.54545454545456)" d="M2.7386127875258306,0A2.7386127875258306,2.7386127875258306,0,1,1,-2.7386127875258306,0A2.7386127875258306,2.7386127875258306,0,1,1,2.7386127875258306,0" style="fill: #4c78a8; stroke-width: 2; opacity: 1;"></path><path aria-label="miles: 9150; gas: 1.6; year: Dec 31, 1969" role="graphics-symbol" aria-roledescription="point" transform="translate(161.42857142857144,163.63636363636363)" d="M2.7386127875258306,0A2.7386127875258306,2.7386127875258306,0,1,1,-2.7386127875258306,0A2.7386127875258306,2.7386127875258306,0,1,1,2.7386127875258306,0" style="fill: #4c78a8; stroke-width: 2; opacity: 1;"></path><path aria-label="miles: 9192; gas: 1.67; year: Dec 31, 1969" role="graphics-symbol" aria-roledescription="point" transform="translate(162.62857142857143,157.27272727272728)" d="M2.7386127875258306,0A2.7386127875258306,2.7386127875258306,0,1,1,-2.7386127875258306,0A2.7386127875258306,2.7386127875258306,0,1,1,2.7386127875258306,0" style="fill: #4c78a8; stroke-width: 2; opacity: 1;"></path><path aria-label="miles: 9416; gas: 1.65; year: Dec 31, 1969" role="graphics-symbol" aria-roledescription="point" transform="translate(169.02857142857144,159.0909090909091)" d="M2.7386127875258306,0A2.7386127875258306,2.7386127875258306,0,1,1,-2.7386127875258306,0A2.7386127875258306,2.7386127875258306,0,1,1,2.7386127875258306,0" style="fill: #4c78a8; stroke-width: 2; opacity: 1;"></path><path aria-label="miles: 9590; gas: 1.39; year: Dec 31, 1969" role="graphics-symbol" aria-roledescription="point" transform="translate(174,182.72727272727275)" d="M2.7386127875258306,0A2.7386127875258306,2.7386127875258306,0,1,1,-2.7386127875258306,0A2.7386127875258306,2.7386127875258306,0,1,1,2.7386127875258306,0" style="fill: #4c78a8; stroke-width: 2; opacity: 1;"></path><path aria-label="miles: 9687; gas: 1.5; year: Dec 31, 1969" role="graphics-symbol" aria-roledescription="point" transform="translate(176.77142857142857,172.72727272727272)" d="M2.7386127875258306,0A2.7386127875258306,2.7386127875258306,0,1,1,-2.7386127875258306,0A2.7386127875258306,2.7386127875258306,0,1,1,2.7386127875258306,0" style="fill: #4c78a8; stroke-width: 2; opacity: 1;"></path><path aria-label="miles: 9717; gas: 1.89; year: Dec 31, 1969" role="graphics-symbol" aria-roledescription="point" transform="translate(177.62857142857143,137.27272727272728)" d="M2.7386127875258306,0A2.7386127875258306,2.7386127875258306,0,1,1,-2.7386127875258306,0A2.7386127875258306,2.7386127875258306,0,1,1,2.7386127875258306,0" style="fill: #4c78a8; stroke-width: 2; opacity: 1;"></path><path aria-label="miles: 9699; gas: 1.77; year: Dec 31, 1969" role="graphics-symbol" aria-roledescription="point" transform="translate(177.1142857142857,148.1818181818182)" d="M2.7386127875258306,0A2.7386127875258306,2.7386127875258306,0,1,1,-2.7386127875258306,0A2.7386127875258306,2.7386127875258306,0,1,1,2.7386127875258306,0" style="fill: #4c78a8; stroke-width: 2; opacity: 1;"></path><path aria-label="miles: 9814; gas: 1.64; year: Dec 31, 1969" role="graphics-symbol" aria-roledescription="point" transform="translate(180.4,160)" d="M2.7386127875258306,0A2.7386127875258306,2.7386127875258306,0,1,1,-2.7386127875258306,0A2.7386127875258306,2.7386127875258306,0,1,1,2.7386127875258306,0" style="fill: #4c78a8; stroke-width: 2; opacity: 1;"></path><path aria-label="miles: 9868; gas: 1.86; year: Dec 31, 1969" role="graphics-symbol" aria-roledescription="point" transform="translate(181.94285714285715,140)" d="M2.7386127875258306,0A2.7386127875258306,2.7386127875258306,0,1,1,-2.7386127875258306,0A2.7386127875258306,2.7386127875258306,0,1,1,2.7386127875258306,0" style="fill: #4c78a8; stroke-width: 2; opacity: 1;"></path><path aria-label="miles: 9994; gas: 2.14; year: Dec 31, 1969" role="graphics-symbol" aria-roledescription="point" transform="translate(185.54285714285714,114.54545454545455)" d="M2.7386127875258306,0A2.7386127875258306,2.7386127875258306,0,1,1,-2.7386127875258306,0A2.7386127875258306,2.7386127875258306,0,1,1,2.7386127875258306,0" style="fill: #4c78a8; stroke-width: 2; opacity: 1;"></path><path aria-label="miles: 10067; gas: 2.53; year: Dec 31, 1969" role="graphics-symbol" aria-roledescription="point" transform="translate(187.62857142857143,79.09090909090912)" d="M2.7386127875258306,0A2.7386127875258306,2.7386127875258306,0,1,1,-2.7386127875258306,0A2.7386127875258306,2.7386127875258306,0,1,1,2.7386127875258306,0" style="fill: #4c78a8; stroke-width: 2; opacity: 1;"></path><path aria-label="miles: 10037; gas: 2.79; year: Dec 31, 1969" role="graphics-symbol" aria-roledescription="point" transform="translate(186.77142857142857,55.45454545454547)" d="M2.7386127875258306,0A2.7386127875258306,2.7386127875258306,0,1,1,-2.7386127875258306,0A2.7386127875258306,2.7386127875258306,0,1,1,2.7386127875258306,0" style="fill: #4c78a8; stroke-width: 2; opacity: 1;"></path><path aria-label="miles: 10025; gas: 2.95; year: Dec 31, 1969" role="graphics-symbol" aria-roledescription="point" transform="translate(186.42857142857144,40.90909090909089)" d="M2.7386127875258306,0A2.7386127875258306,2.7386127875258306,0,1,1,-2.7386127875258306,0A2.7386127875258306,2.7386127875258306,0,1,1,2.7386127875258306,0" style="fill: #4c78a8; stroke-width: 2; opacity: 1;"></path><path aria-label="miles: 9880; gas: 3.31; year: Dec 31, 1969" role="graphics-symbol" aria-roledescription="point" transform="translate(182.2857142857143,8.18181818181818)" d="M2.7386127875258306,0A2.7386127875258306,2.7386127875258306,0,1,1,-2.7386127875258306,0A2.7386127875258306,2.7386127875258306,0,1,1,2.7386127875258306,0" style="fill: #4c78a8; stroke-width: 2; opacity: 1;"></path><path aria-label="miles: 9657; gas: 2.38; year: Dec 31, 1969" role="graphics-symbol" aria-roledescription="point" transform="translate(175.9142857142857,92.72727272727275)" d="M2.7386127875258306,0A2.7386127875258306,2.7386127875258306,0,1,1,-2.7386127875258306,0A2.7386127875258306,2.7386127875258306,0,1,1,2.7386127875258306,0" style="fill: #4c78a8; stroke-width: 2; opacity: 1;"></path><path aria-label="miles: 9596; gas: 2.61; year: Dec 31, 1969" role="graphics-symbol" aria-roledescription="point" transform="translate(174.17142857142858,71.81818181818183)" d="M2.7386127875258306,0A2.7386127875258306,2.7386127875258306,0,1,1,-2.7386127875258306,0A2.7386127875258306,2.7386127875258306,0,1,1,2.7386127875258306,0" style="fill: #4c78a8; stroke-width: 2; opacity: 1;"></path></g></g><path class="foreground" aria-hidden="true" d="" style="display: none; fill: none;"></path></g></g></g></svg>