<svg xmlns="http://www.w3.org/2000/svg" xmlns:xlink="http://www.w3.org/1999/xlink" version="1.1" class="marks" width="348" height="347" viewBox="0 0 348 347"><rect width="348" height="347" fill="white"/><g fill="none" stroke-miterlimit="10" transform="translate(43,10)"><g class="mark-group role-frame root" role="graphics-object" aria-roledescription="group mark container"><g transform="translate(0,0)"><path class="background" aria-hidden="true" d="M0.5,0.5h300v300h-300Z" stroke="#ddd"/><g><g class="mark-group role-axis" aria-hidden="true"><g transform="translate(0.5,300.5)"><path class="background" aria-hidden="true" d="M0,0h0v0h0Z" pointer-events="none"/><g><g class="mark-rule role-axis-grid" pointer-events="none"><line transform="translate(21,-300)" x2="0" y2="300" stroke="#ddd" stroke-width="1" opacity="1"/><line transform="translate(64,-300)" x2="0" y2="300" stroke="#ddd" stroke-width="1" opacity="1"/><line transform="translate(107,-300)" x2="0" y2="300" stroke="#ddd" stroke-width="1" opacity="1"/><line transform="translate(150,-300)" x2="0" y2="300" stroke="#ddd" stroke-width="1" opacity="1"/><line transform="translate(193,-300)" x2="0" y2="300" stroke="#ddd" stroke-width="1" opacity="1"/><line transform="translate(236,-300)" x2="0" y2="300" stroke="#ddd" stroke-width="1" opacity="1"/><line transform="translate(279,-300)" x2="0" y2="300" stroke="#ddd" stroke-width="1" opacity="1"/></g></g><path class="foreground" aria-hidden="true" d="" pointer-events="none" display="none"/></g></g><g class="mark-group role-axis" aria-hidden="true"><g transform="translate(0.5,0.5)"><path class="background" aria-hidden="true" d="M0,0h0v0h0Z" pointer-events="none"/><g><g class="mark-rule role-axis-grid" pointer-events="none"><line transform="translate(0,300)" x2="300" y2="0" stroke="#ddd" stroke-width="1" opacity="1"/><line transform="translate(0,273)" x2="300" y2="0" stroke="#ddd" stroke-width="1" opacity="1"/><line transform="translate(0,245)" x2="300" y2="0" stroke="#ddd" stroke-width="1" opacity="1"/><line transform="translate(0,218)" x2="300" y2="0" stroke="#ddd" stroke-width="1" opacity="1"/><line transform="translate(0,191)" x2="300" y2="0" stroke="#ddd" stroke-width="1" opacity="1"/><line transform="translate(0,164)" x2="300" y2="0" stroke="#ddd" stroke-width="1" opacity="1"/><line transform="translate(0,136)" x2="300" y2="0" stroke="#ddd" stroke-width="1" opacity="1"/><line transform="translate(0,109)" x2="300" y2="0" stroke="#ddd" stroke-width="1" opacity="1"/><line transform="translate(0,82)" x2="300" y2="0" stroke="#ddd" stroke-width="1" opacity="1"/><line transform="translate(0,55)" x2="300" y2="0" stroke="#ddd" stroke-width="1" opacity="1"/><line transform="translate(0,27)" x2="300" y2="0" stroke="#ddd" stroke-width="1" opacity="1"/><line transform="translate(0,0)" x2="300" y2="0" stroke="#ddd" stroke-width="1" opacity="1"/></g></g><path class="foreground" aria-hidden="true" d="" pointer-events="none" display="none"/></g></g><g class="mark-group role-axis" role="graphics-symbol" aria-roledescription="axis" aria-label="X-axis titled 'miles' for a linear scale with values from 3,500 to 10,500"><g transform="translate(0.5,300.5)"><path class="background" aria-hidden="true" d="M0,0h0v0h0Z" pointer-events="none"/><g><g class="mark-rule role-axis-tick" pointer-events="none"><line transform="translate(21,0)" x2="0" y2="5" stroke="#888" stroke-width="1" opacity="1"/><line transform="translate(64,0)" x2="0" y2="5" stroke="#888" stroke-width="1" opacity="1"/><line transform="translate(107,0)" x2="0" y2="5" stroke="#888" stroke-width="1" opacity="1"/><line transform="translate(150,0)" x2="0" y2="5" stroke="#888" stroke-width="1" opacity="1"/><line transform="translate(193,0)" x2="0" y2="5" stroke="#888" stroke-width="1" opacity="1"/><line transform="translate(236,0)" x2="0" y2="5" stroke="#888" stroke-width="1" opacity="1"/><line transform="translate(279,0)" x2="0" y2="5" stroke="#888" stroke-width="1" opacity="1"/></g><g class="mark-text role-axis-label" pointer-events="none"><text text-anchor="middle" transform="translate(21.428571428571427,15)" font-family="sans-serif" font-size="10px" fill="#000" opacity="1">4,000</text><text text-anchor="middle" transform="translate(64.28571428571428,15)" font-family="sans-serif" font-size="10px" fill="#000" opacity="1">5,000</text><text text-anchor="middle" transform="translate(107.14285714285714,15)" font-family="sans-serif" font-size="10px" fill="#000" opacity="1">6,000</text><text text-anchor="middle" transform="translate(150,15)" font-family="sans-serif" font-size="10px" fill="#000" opacity="1">7,000</text><text text-anchor="middle" transform="translate(192.85714285714286,15)" font-family="sans-serif" font-size="10px" fill="#000" opacity="1">8,000</text><text text-anchor="middle" transform="translate(235.71428571428572,15)" font-family="sans-serif" font-size="10px" fill="#000" opacity="1">9,000</text><text text-anchor="middle" transform="translate(278.57142857142856,15)" font-family="sans-serif" font-size="10px" fill="#000" opacity="1">10,000</text></g><g class="mark-rule role-axis-domain" pointer-events="none"><line transform="translate(0,0)" x2="300" y2="0" stroke="#888" stroke-width="1" opacity="1"/></g><g class="mark-text role-axis-title" pointer-events="none"><text text-anchor="middle" transform="translate(150,30)" font-family="sans-serif" font-size="11px" font-weight="bold" fill="#000" opacity="1">miles</text></g></g><path class="foreground" aria-hidden="true" d="" pointer-events="none" display="none"/></g></g><g class="mark-group role-axis" role="graphics-symbol" aria-roledescription="axis" aria-label="Y-axis titled 'gas' for a linear scale with values from 1.2 to 3.4"><g transform="translate(0.5,0.5)"><path class="background" aria-hidden="true" d="M0,0h0v0h0Z" pointer-events="none"/><g><g class="mark-rule role-axis-tick" pointer-events="none"><line transform="translate(0,300)" x2="-5" y2="0" stroke="#888" stroke-width="1" opacity="1"/><line transform="translate(0,273)" x2="-5" y2="0" stroke="#888" stroke-width="1" opacity="1"/><line transform="translate(0,245)" x2="-5" y2="0" stroke="#888" stroke-width="1" opacity="1"/><line transform="translate(0,218)" x2="-5" y2="0" stroke="#888" stroke-width="1" opacity="1"/><line transform="translate(0,191)" x2="-5" y2="0" stroke="#888" stroke-width="1" opacity="1"/><line transform="translate(0,164)" x2="-5" y2="0" stroke="#888" stroke-width="1" opacity="1"/><line transform="translate(0,136)" x2="-5" y2="0" stroke="#888" stroke-width="1" opacity="1"/><line transform="translate(0,109)" x2="-5" y2="0" stroke="#888" stroke-width="1" opacity="1"/><line transform="translate(0,82)" x2="-5" y2="0" stroke="#888" stroke-width="1" opacity="1"/><line transform="translate(0,55)" x2="-5" y2="0" stroke="#888" stroke-width="1" opacity="1"/><line transform="translate(0,27)" x2="-5" y2="0" stroke="#888" stroke-width="1" opacity="1"/><line transform="translate(0,0)" x2="-5" y2="0" stroke="#888" stroke-width="1" opacity="1"/></g><g class="mark-text role-axis-label" pointer-events="none"><text text-anchor="end" transform="translate(-7,303)" font-family="sans-serif" font-size="10px" fill="#000" opacity="1">1.2</text><text text-anchor="end" transform="translate(-7,275.72727272727275)" font-family="sans-serif" font-size="10px" fill="#000" opacity="1">1.4</text><text text-anchor="end" transform="translate(-7,248.45454545454544)" font-family="sans-serif" font-size="10px" fill="#000" opacity="1">1.6</text><text text-anchor="end" transform="translate(-7,221.1818181818182)" font-family="sans-serif" font-size="10px" fill="#000" opacity="1">1.8</text><text text-anchor="end" transform="translate(-7,193.9090909090909)" font-family="sans-serif" font-size="10px" fill="#000" opacity="1">2.0</text><text text-anchor="end" transform="translate(-7,166.63636363636363)" font-family="sans-serif" font-size="10px" fill="#000" opacity="1">2.2</text><text text-anchor="end" transform="translate(-7,139.36363636363637)" font-family="sans-serif" font-size="10px" fill="#000" opacity="1">2.4</text><text text-anchor="end" transform="translate(-7,112.0909090909091)" font-family="sans-serif" font-size="10px" fill="#000" opacity="1">2.6</text><text text-anchor="end" transform="translate(-7,84.81818181818184)" font-family="sans-serif" font-size="10px" fill="#000" opacity="1">2.8</text><text text-anchor="end" transform="translate(-7,57.54545454545456)" font-family="sans-serif" font-size="10px" fill="#000" opacity="1">3.0</text><text text-anchor="end" transform="translate(-7,30.27272727272728)" font-family="sans-serif" font-size="10px" fill="#000" opacity="1">3.2</text><text text-anchor="end" transform="translate(-7,3)" font-family="sans-serif" font-size="10px" fill="#000" opacity="1">3.4</text></g><g class="mark-rule role-axis-domain" pointer-events="none"><line transform="translate(0,300)" x2="0" y2="-300" stroke="#888" stroke-width="1" opacity="1"/></g><g class="mark-text role-axis-title" pointer-events="none"><text text-anchor="middle" transform="translate(-26.9033203125,150) rotate(-90) translate(0,-2)" font-family="sans-serif" font-size="11px" font-weight="bold" fill="#000" opacity="1">gas</text></g></g><path class="foreground" aria-hidden="true" d="" pointer-events="none" display="none"/></g></g><g class="mark-line role-mark layer_0_marks" role="graphics-object" aria-roledescription="line mark container"><path aria-label="miles: 3675; gas: 2.38; year: 1956" role="graphics-symbol" aria-roledescription="line mark" d="M7.5,139.091L8.829,136.364L11.4,155.455L17.357,148.636L18.643,154.091L20.443,156.818L25.071,160.909L30.771,174.545L37.243,175.909L44.486,171.818L50.4,171.818L56.871,171.818L65.914,173.182L73.157,181.364L80.4,189.545L90.729,200.455L105.986,208.636L113.743,204.545L104.7,144.545L111.9,148.636L123.814,147.273L134.143,141.818L144.986,159.545L139.029,98.182L135.943,13.636L138.514,13.636L142.929,65.455L147.557,100.909L155.571,125.455L163.843,141.818L173.914,223.636L183,223.636L196.671,234.545L209.871,225L215.529,207.273L215.786,220.909L221.229,233.182L229.5,245.455L231.814,246.818L242.143,245.455L243.943,235.909L253.543,238.636L261,274.091L265.157,259.091L266.443,205.909L265.671,222.273L270.6,240L272.914,210L278.314,171.818L281.443,118.636L280.157,83.182L279.643,61.364L273.429,12.273L263.871,139.091L261.257,107.727" stroke="#4c78a8" stroke-width="2"/></g><g class="mark-symbol role-mark layer_1_marks" role="graphics-object" aria-roledescription="symbol mark container"><path aria-label="miles: 3675; gas: 2.38; year: 1956" role="graphics-symbol" aria-roledescription="point" transform="translate(7.5,139.09090909090912)" d="M2.739,0A2.739,2.739,0,1,1,-2.739,0A2.739,2.739,0,1,1,2.739,0" fill="#4c78a8" stroke-width="2" opacity="1"/><path aria-label="miles: 3706; gas: 2.4; year: 1957" role="graphics-symbol" aria-roledescription="point" transform="translate(8.82857142857143,136.36363636363637)" d="M2.739,0A2.739,2.739,0,1,1,-2.739,0A2.739,2.739,0,1,1,2.739,0" fill="#4c78a8" stroke-width="2" opacity="1"/><path aria-label="miles: 3766; gas: 2.26; year: 1958" role="graphics-symbol" aria-roledescription="point" transform="translate(11.4,155.4545454545455)" d="M2.739,0A2.739,2.739,0,1,1,-2.739,0A2.739,2.739,0,1,1,2.739,0" fill="#4c78a8" stroke-width="2" opacity="1"/><path aria-label="miles: 3905; gas: 2.31; year: 1959" role="graphics-symbol" aria-roledescription="point" transform="translate(17.357142857142858,148.63636363636365)" d="M2.739,0A2.739,2.739,0,1,1,-2.739,0A2.739,2.739,0,1,1,2.739,0" fill="#4c78a8" stroke-width="2" opacity="1"/><path aria-label="miles: 3935; gas: 2.27; year: 1960" role="graphics-symbol" aria-roledescription="point" transform="translate(18.642857142857142,154.0909090909091)" d="M2.739,0A2.739,2.739,0,1,1,-2.739,0A2.739,2.739,0,1,1,2.739,0" fill="#4c78a8" stroke-width="2" opacity="1"/><path aria-label="miles: 3977; gas: 2.25; year: 1961" role="graphics-symbol" aria-roledescription="point" transform="translate(20.442857142857143,156.8181818181818)" d="M2.739,0A2.739,2.739,0,1,1,-2.739,0A2.739,2.739,0,1,1,2.739,0" fill="#4c78a8" stroke-width="2" opacity="1"/><path aria-label="miles: 4085; gas: 2.22; year: 1962" role="graphics-symbol" aria-roledescription="point" transform="translate(25.071428571428573,160.90909090909088)" d="M2.739,0A2.739,2.739,0,1,1,-2.739,0A2.739,2.739,0,1,1,2.739,0" fill="#4c78a8" stroke-width="2" opacity="1"/><path aria-label="miles: 4218; gas: 2.12; year: 1963" role="graphics-symbol" aria-roledescription="point" transform="translate(30.771428571428572,174.54545454545453)" d="M2.739,0A2.739,2.739,0,1,1,-2.739,0A2.739,2.739,0,1,1,2.739,0" fill="#4c78a8" stroke-width="2" opacity="1"/><path aria-label="miles: 4369; gas: 2.11; year: 1964" role="graphics-symbol" aria-roledescription="point" transform="translate(37.24285714285714,175.90909090909093)" d="M2.739,0A2.739,2.739,0,1,1,-2.739,0A2.739,2.739,0,1,1,2.739,0" fill="#4c78a8" stroke-width="2" opacity="1"/><path aria-label="miles: 4538; gas: 2.14; year: 1965" role="graphics-symbol" aria-roledescription="point" transform="translate(44.48571428571429,171.8181818181818)" d="M2.739,0A2.739,2.739,0,1,1,-2.739,0A2.739,2.739,0,1,1,2.739,0" fill="#4c78a8" stroke-width="2" opacity="1"/><path aria-label="miles: 4676; gas: 2.14; year: 1966" role="graphics-symbol" aria-roledescription="point" transform="translate(50.400000000000006,171.8181818181818)" d="M2.739,0A2.739,2.739,0,1,1,-2.739,0A2.739,2.739,0,1,1,2.739,0" fill="#4c78a8" stroke-width="2" opacity="1"/><path aria-label="miles: 4827; gas: 2.14; year: 1967" role="graphics-symbol" aria-roledescription="point" transform="translate(56.871428571428574,171.8181818181818)" d="M2.739,0A2.739,2.739,0,1,1,-2.739,0A2.739,2.739,0,1,1,2.739,0" fill="#4c78a8" stroke-width="2" opacity="1"/><path aria-label="miles: 5038; gas: 2.13; year: 1968" role="graphics-symbol" aria-roledescription="point" transform="translate(65.91428571428571,173.18181818181822)" d="M2.739,0A2.739,2.739,0,1,1,-2.739,0A2.739,2.739,0,1,1,2.739,0" fill="#4c78a8" stroke-width="2" opacity="1"/><path aria-label="miles: 5207; gas: 2.07; year: 1969" role="graphics-symbol" aria-roledescription="point" transform="translate(73.15714285714286,181.36363636363637)" d="M2.739,0A2.739,2.739,0,1,1,-2.739,0A2.739,2.739,0,1,1,2.739,0" fill="#4c78a8" stroke-width="2" opacity="1"/><path aria-label="miles: 5376; gas: 2.01; year: 1970" role="graphics-symbol" aria-roledescription="point" transform="translate(80.4,189.5454545454546)" d="M2.739,0A2.739,2.739,0,1,1,-2.739,0A2.739,2.739,0,1,1,2.739,0" fill="#4c78a8" stroke-width="2" opacity="1"/><path aria-label="miles: 5617; gas: 1.93; year: 1971" role="graphics-symbol" aria-roledescription="point" transform="translate(90.72857142857143,200.45454545454547)" d="M2.739,0A2.739,2.739,0,1,1,-2.739,0A2.739,2.739,0,1,1,2.739,0" fill="#4c78a8" stroke-width="2" opacity="1"/><path aria-label="miles: 5973; gas: 1.87; year: 1972" role="graphics-symbol" aria-roledescription="point" transform="translate(105.98571428571428,208.63636363636363)" d="M2.739,0A2.739,2.739,0,1,1,-2.739,0A2.739,2.739,0,1,1,2.739,0" fill="#4c78a8" stroke-width="2" opacity="1"/><path aria-label="miles: 6154; gas: 1.9; year: 1973" role="graphics-symbol" aria-roledescription="point" transform="translate(113.74285714285715,204.54545454545456)" d="M2.739,0A2.739,2.739,0,1,1,-2.739,0A2.739,2.739,0,1,1,2.739,0" fill="#4c78a8" stroke-width="2" opacity="1"/><path aria-label="miles: 5943; gas: 2.34; year: 1974" role="graphics-symbol" aria-roledescription="point" transform="translate(104.69999999999999,144.5454545454546)" d="M2.739,0A2.739,2.739,0,1,1,-2.739,0A2.739,2.739,0,1,1,2.739,0" fill="#4c78a8" stroke-width="2" opacity="1"/><path aria-label="miles: 6111; gas: 2.31; year: 1975" role="graphics-symbol" aria-roledescription="point" transform="translate(111.9,148.63636363636365)" d="M2.739,0A2.739,2.739,0,1,1,-2.739,0A2.739,2.739,0,1,1,2.739,0" fill="#4c78a8" stroke-width="2" opacity="1"/><path aria-label="miles: 6389; gas: 2.32; year: 1976" role="graphics-symbol" aria-roledescription="point" transform="translate(123.81428571428572,147.27272727272728)" d="M2.739,0A2.739,2.739,0,1,1,-2.739,0A2.739,2.739,0,1,1,2.739,0" fill="#4c78a8" stroke-width="2" opacity="1"/><path aria-label="miles: 6630; gas: 2.36; year: 1977" role="graphics-symbol" aria-roledescription="point" transform="translate(134.14285714285714,141.81818181818184)" d="M2.739,0A2.739,2.739,0,1,1,-2.739,0A2.739,2.739,0,1,1,2.739,0" fill="#4c78a8" stroke-width="2" opacity="1"/><path aria-label="miles: 6883; gas: 2.23; year: 1978" role="graphics-symbol" aria-roledescription="point" transform="translate(144.98571428571427,159.54545454545456)" d="M2.739,0A2.739,2.739,0,1,1,-2.739,0A2.739,2.739,0,1,1,2.739,0" fill="#4c78a8" stroke-width="2" opacity="1"/><path aria-label="miles: 6744; gas: 2.68; year: 1979" role="graphics-symbol" aria-roledescription="point" transform="translate(139.0285714285714,98.18181818181819)" d="M2.739,0A2.739,2.739,0,1,1,-2.739,0A2.739,2.739,0,1,1,2.739,0" fill="#4c78a8" stroke-width="2" opacity="1"/><path aria-label="miles: 6672; gas: 3.3; year: 1980" role="graphics-symbol" aria-roledescription="point" transform="translate(135.94285714285715,13.636363636363724)" d="M2.739,0A2.739,2.739,0,1,1,-2.739,0A2.739,2.739,0,1,1,2.739,0" fill="#4c78a8" stroke-width="2" opacity="1"/><path aria-label="miles: 6732; gas: 3.3; year: 1981" role="graphics-symbol" aria-roledescription="point" transform="translate(138.5142857142857,13.636363636363724)" d="M2.739,0A2.739,2.739,0,1,1,-2.739,0A2.739,2.739,0,1,1,2.739,0" fill="#4c78a8" stroke-width="2" opacity="1"/><path aria-label="miles: 6835; gas: 2.92; year: 1982" role="graphics-symbol" aria-roledescription="point" transform="translate(142.92857142857142,65.45454545454548)" d="M2.739,0A2.739,2.739,0,1,1,-2.739,0A2.739,2.739,0,1,1,2.739,0" fill="#4c78a8" stroke-width="2" opacity="1"/><path aria-label="miles: 6943; gas: 2.66; year: 1983" role="graphics-symbol" aria-roledescription="point" transform="translate(147.55714285714288,100.90909090909089)" d="M2.739,0A2.739,2.739,0,1,1,-2.739,0A2.739,2.739,0,1,1,2.739,0" fill="#4c78a8" stroke-width="2" opacity="1"/><path aria-label="miles: 7130; gas: 2.48; year: 1984" role="graphics-symbol" aria-roledescription="point" transform="translate(155.57142857142858,125.45454545454547)" d="M2.739,0A2.739,2.739,0,1,1,-2.739,0A2.739,2.739,0,1,1,2.739,0" fill="#4c78a8" stroke-width="2" opacity="1"/><path aria-label="miles: 7323; gas: 2.36; year: 1985" role="graphics-symbol" aria-roledescription="point" transform="translate(163.84285714285716,141.81818181818184)" d="M2.739,0A2.739,2.739,0,1,1,-2.739,0A2.739,2.739,0,1,1,2.739,0" fill="#4c78a8" stroke-width="2" opacity="1"/><path aria-label="miles: 7558; gas: 1.76; year: 1986" role="graphics-symbol" aria-roledescription="point" transform="translate(173.9142857142857,223.6363636363636)" d="M2.739,0A2.739,2.739,0,1,1,-2.739,0A2.739,2.739,0,1,1,2.739,0" fill="#4c78a8" stroke-width="2" opacity="1"/><path aria-label="miles: 7770; gas: 1.76; year: 1987" role="graphics-symbol" aria-roledescription="point" transform="translate(183,223.6363636363636)" d="M2.739,0A2.739,2.739,0,1,1,-2.739,0A2.739,2.739,0,1,1,2.739,0" fill="#4c78a8" stroke-width="2" opacity="1"/><path aria-label="miles: 8089; gas: 1.68; year: 1988" role="graphics-symbol" aria-roledescription="point" transform="translate(196.67142857142858,234.54545454545456)" d="M2.739,0A2.739,2.739,0,1,1,-2.739,0A2.739,2.739,0,1,1,2.739,0" fill="#4c78a8" stroke-width="2" opacity="1"/><path aria-label="miles: 8397; gas: 1.75; year: 1989" role="graphics-symbol" aria-roledescription="point" transform="translate(209.8714285714286,225)" d="M2.739,0A2.739,2.739,0,1,1,-2.739,0A2.739,2.739,0,1,1,2.739,0" fill="#4c78a8" stroke-width="2" opacity="1"/><path aria-label="miles: 8529; gas: 1.88; year: 1990" role="graphics-symbol" aria-roledescription="point" transform="translate(215.5285714285714,207.27272727272728)" d="M2.739,0A2.739,2.739,0,1,1,-2.739,0A2.739,2.739,0,1,1,2.739,0" fill="#4c78a8" stroke-width="2" opacity="1"/><path aria-label="miles: 8535; gas: 1.78; year: 1991" role="graphics-symbol" aria-roledescription="point" transform="translate(215.78571428571428,220.9090909090909)" d="M2.739,0A2.739,2.739,0,1,1,-2.739,0A2.739,2.739,0,1,1,2.739,0" fill="#4c78a8" stroke-width="2" opacity="1"/><path aria-label="miles: 8662; gas: 1.69; year: 1992" role="graphics-symbol" aria-roledescription="point" transform="translate(221.22857142857143,233.1818181818182)" d="M2.739,0A2.739,2.739,0,1,1,-2.739,0A2.739,2.739,0,1,1,2.739,0" fill="#4c78a8" stroke-width="2" opacity="1"/><path aria-label="miles: 8855; gas: 1.6; year: 1993" role="graphics-symbol" aria-roledescription="point" transform="translate(229.5,245.45454545454544)" d="M2.739,0A2.739,2.739,0,1,1,-2.739,0A2.739,2.739,0,1,1,2.739,0" fill="#4c78a8" stroke-width="2" opacity="1"/><path aria-label="miles: 8909; gas: 1.59; year: 1994" role="graphics-symbol" aria-roledescription="point" transform="translate(231.81428571428572,246.8181818181818)" d="M2.739,0A2.739,2.739,0,1,1,-2.739,0A2.739,2.739,0,1,1,2.739,0" fill="#4c78a8" stroke-width="2" opacity="1"/><path aria-label="miles: 9150; gas: 1.6; year: 1995" role="graphics-symbol" aria-roledescription="point" transform="translate(242.14285714285714,245.45454545454544)" d="M2.739,0A2.739,2.739,0,1,1,-2.739,0A2.739,2.739,0,1,1,2.739,0" fill="#4c78a8" stroke-width="2" opacity="1"/><path aria-label="miles: 9192; gas: 1.67; year: 1996" role="graphics-symbol" aria-roledescription="point" transform="translate(243.94285714285715,235.9090909090909)" d="M2.739,0A2.739,2.739,0,1,1,-2.739,0A2.739,2.739,0,1,1,2.739,0" fill="#4c78a8" stroke-width="2" opacity="1"/><path aria-label="miles: 9416; gas: 1.65; year: 1997" role="graphics-symbol" aria-roledescription="point" transform="translate(253.54285714285714,238.63636363636365)" d="M2.739,0A2.739,2.739,0,1,1,-2.739,0A2.739,2.739,0,1,1,2.739,0" fill="#4c78a8" stroke-width="2" opacity="1"/><path aria-label="miles: 9590; gas: 1.39; year: 1998" role="graphics-symbol" aria-roledescription="point" transform="translate(261,274.0909090909091)" d="M2.739,0A2.739,2.739,0,1,1,-2.739,0A2.739,2.739,0,1,1,2.739,0" fill="#4c78a8" stroke-width="2" opacity="1"/><path aria-label="miles: 9687; gas: 1.5; year: 1999" role="graphics-symbol" aria-roledescription="point" transform="translate(265.15714285714284,259.0909090909091)" d="M2.739,0A2.739,2.739,0,1,1,-2.739,0A2.739,2.739,0,1,1,2.739,0" fill="#4c78a8" stroke-width="2" opacity="1"/><path aria-label="miles: 9717; gas: 1.89; year: 2000" role="graphics-symbol" aria-roledescription="point" transform="translate(266.4428571428571,205.9090909090909)" d="M2.739,0A2.739,2.739,0,1,1,-2.739,0A2.739,2.739,0,1,1,2.739,0" fill="#4c78a8" stroke-width="2" opacity="1"/><path aria-label="miles: 9699; gas: 1.77; year: 2001" role="graphics-symbol" aria-roledescription="point" transform="translate(265.6714285714286,222.27272727272728)" d="M2.739,0A2.739,2.739,0,1,1,-2.739,0A2.739,2.739,0,1,1,2.739,0" fill="#4c78a8" stroke-width="2" opacity="1"/><path aria-label="miles: 9814; gas: 1.64; year: 2002" role="graphics-symbol" aria-roledescription="point" transform="translate(270.6,240)" d="M2.739,0A2.739,2.739,0,1,1,-2.739,0A2.739,2.739,0,1,1,2.739,0" fill="#4c78a8" stroke-width="2" opacity="1"/><path aria-label="miles: 9868; gas: 1.86; year: 2003" role="graphics-symbol" aria-roledescription="point" transform="translate(272.9142857142857,210)" d="M2.739,0A2.739,2.739,0,1,1,-2.739,0A2.739,2.739,0,1,1,2.739,0" fill="#4c78a8" stroke-width="2" opacity="1"/><path aria-label="miles: 9994; gas: 2.14; year: 2004" role="graphics-symbol" aria-roledescription="point" transform="translate(278.3142857142857,171.8181818181818)" d="M2.739,0A2.739,2.739,0,1,1,-2.739,0A2.739,2.739,0,1,1,2.739,0" fill="#4c78a8" stroke-width="2" opacity="1"/><path aria-label="miles: 10067; gas: 2.53; year: 2005" role="graphics-symbol" aria-roledescription="point" transform="translate(281.4428571428572,118.63636363636368)" d="M2.739,0A2.739,2.739,0,1,1,-2.739,0A2.739,2.739,0,1,1,2.739,0" fill="#4c78a8" stroke-width="2" opacity="1"/><path aria-label="miles: 10037; gas: 2.79; year: 2006" role="graphics-symbol" aria-roledescription="point" transform="translate(280.15714285714284,83.1818181818182)" d="M2.739,0A2.739,2.739,0,1,1,-2.739,0A2.739,2.739,0,1,1,2.739,0" fill="#4c78a8" stroke-width="2" opacity="1"/><path aria-label="miles: 10025; gas: 2.95; year: 2007" role="graphics-symbol" aria-roledescription="point" transform="translate(279.64285714285717,61.363636363636346)" d="M2.739,0A2.739,2.739,0,1,1,-2.739,0A2.739,2.739,0,1,1,2.739,0" fill="#4c78a8" stroke-width="2" opacity="1"/><path aria-label="miles: 9880; gas: 3.31; year: 2008" role="graphics-symbol" aria-roledescription="point" transform="translate(273.42857142857144,12.272727272727268)" d="M2.739,0A2.739,2.739,0,1,1,-2.739,0A2.739,2.739,0,1,1,2.739,0" fill="#4c78a8" stroke-width="2" opacity="1"/><path aria-label="miles: 9657; gas: 2.38; year: 2009" role="graphics-symbol" aria-roledescription="point" transform="translate(263.87142857142857,139.09090909090912)" d="M2.739,0A2.739,2.739,0,1,1,-2.739,0A2.739,2.739,0,1,1,2.739,0" fill="#4c78a8" stroke-width="2" opacity="1"/><path aria-label="miles: 9596; gas: 2.61; year: 2010" role="graphics-symbol" aria-roledescription="point" transform="translate(261.25714285714287,107.72727272727273)" d="M2.739,0A2.739,2.739,0,1,1,-2.739,0A2.739,2.739,0,1,1,2.739,0" fill="#4c78a8" stroke-width="2" opacity="1"/></g></g><path class="foreground" aria-hidden="true" d="" display="none"/></g></g></g></svg>