<svg xmlns="http://www.w3.org/2000/svg" xmlns:xlink="http://www.w3.org/1999/xlink" version="1.1" class="marks" width="551" height="244" viewBox="0 0 551 244"><rect width="551" height="244" fill="white"/><g fill="none" stroke-miterlimit="10" transform="translate(43,27)"><g class="mark-group role-frame root" role="graphics-object" aria-roledescription="group mark container"><g transform="translate(0,0)"><path class="background" aria-hidden="true" d="M0.5,0.5h420v180h-420Z" stroke="#ddd"/><g><g class="mark-group role-axis" aria-hidden="true"><g transform="translate(0.5,180.5)"><path class="background" aria-hidden="true" d="M0,0h0v0h0Z" pointer-events="none"/><g><g class="mark-rule role-axis-grid" pointer-events="none"><line transform="translate(0,-180)" x2="0" y2="180" stroke="#ddd" stroke-width="1" opacity="1"/><line transform="translate(53,-180)" x2="0" y2="180" stroke="#ddd" stroke-width="1" opacity="1"/><line transform="translate(105,-180)" x2="0" y2="180" stroke="#ddd" stroke-width="1" opacity="1"/><line transform="translate(158,-180)" x2="0" y2="180" stroke="#ddd" stroke-width="1" opacity="1"/><line transform="translate(210,-180)" x2="0" y2="180" stroke="#ddd" stroke-width="1" opacity="1"/><line transform="translate(263,-180)" x2="0" y2="180" stroke="#ddd" stroke-width="1" opacity="1"/><line transform="translate(315,-180)" x2="0" y2="180" stroke="#ddd" stroke-width="1" opacity="1"/><line transform="translate(368,-180)" x2="0" y2="180" stroke="#ddd" stroke-width="1" opacity="1"/><line transform="translate(420,-180)" x2="0" y2="180" stroke="#ddd" stroke-width="1" opacity="1"/></g></g><path class="foreground" aria-hidden="true" d="" pointer-events="none" display="none"/></g></g><g class="mark-group role-axis" aria-hidden="true"><g transform="translate(0.5,0.5)"><path class="background" aria-hidden="true" d="M0,0h0v0h0Z" pointer-events="none"/><g><g class="mark-rule role-axis-grid" pointer-events="none"><line transform="translate(0,180)" x2="420" y2="0" stroke="#ddd" stroke-width="1" opacity="1"/><line transform="translate(0,144)" x2="420" y2="0" stroke="#ddd" stroke-width="1" opacity="1"/><line transform="translate(0,108)" x2="420" y2="0" stroke="#ddd" stroke-width="1" opacity="1"/><line transform="translate(0,72)" x2="420" y2="0" stroke="#ddd" stroke-width="1" opacity="1"/><line transform="translate(0,36)" x2="420" y2="0" stroke="#ddd" stroke-width="1" opacity="1"/><line transform="translate(0,0)" x2="420" y2="0" stroke="#ddd" stroke-width="1" opacity="1"/></g></g><path class="foreground" aria-hidden="true" d="" pointer-events="none" display="none"/></g></g><g class="mark-group role-axis" role="graphics-symbol" aria-roledescription="axis" aria-label="X-axis titled 'Body Mass (g)' for a linear scale with values from 2,500 to 6,500"><g transform="translate(0.5,180.5)"><path class="background" aria-hidden="true" d="M0,0h0v0h0Z" pointer-events="none"/><g><g class="mark-rule role-axis-tick" pointer-events="none"><line transform="translate(0,0)" x2="0" y2="5" stroke="#888" stroke-width="1" opacity="1"/><line transform="translate(53,0)" x2="0" y2="5" stroke="#888" stroke-width="1" opacity="1"/><line transform="translate(105,0)" x2="0" y2="5" stroke="#888" stroke-width="1" opacity="1"/><line transform="translate(158,0)" x2="0" y2="5" stroke="#888" stroke-width="1" opacity="1"/><line transform="translate(210,0)" x2="0" y2="5" stroke="#888" stroke-width="1" opacity="1"/><line transform="translate(263,0)" x2="0" y2="5" stroke="#888" stroke-width="1" opacity="1"/><line transform="translate(315,0)" x2="0" y2="5" stroke="#888" stroke-width="1" opacity="1"/><line transform="translate(368,0)" x2="0" y2="5" stroke="#888" stroke-width="1" opacity="1"/><line transform="translate(420,0)" x2="0" y2="5" stroke="#888" stroke-width="1" opacity="1"/></g><g class="mark-text role-axis-label" pointer-events="none"><text text-anchor="start" transform="translate(0,15)" font-family="sans-serif" font-size="10px" fill="#000" opacity="1">2,500</text><text text-anchor="middle" transform="translate(52.5,15)" font-family="sans-serif" font-size="10px" fill="#000" opacity="1">3,000</text><text text-anchor="middle" transform="translate(105,15)" font-family="sans-serif" font-size="10px" fill="#000" opacity="1">3,500</text><text text-anchor="middle" transform="translate(157.5,15)" font-family="sans-serif" font-size="10px" fill="#000" opacity="1">4,000</text><text text-anchor="middle" transform="translate(210,15)" font-family="sans-serif" font-size="10px" fill="#000" opacity="1">4,500</text><text text-anchor="middle" transform="translate(262.5,15)" font-family="sans-serif" font-size="10px" fill="#000" opacity="1">5,000</text><text text-anchor="middle" transform="translate(315,15)" font-family="sans-serif" font-size="10px" fill="#000" opacity="1">5,500</text><text text-anchor="middle" transform="translate(367.5,15)" font-family="sans-serif" font-size="10px" fill="#000" opacity="1">6,000</text><text text-anchor="end" transform="translate(420,15)" font-family="sans-serif" font-size="10px" fill="#000" opacity="1">6,500</text></g><g class="mark-rule role-axis-domain" pointer-events="none"><line transform="translate(0,0)" x2="420" y2="0" stroke="#888" stroke-width="1" opacity="1"/></g><g class="mark-text role-axis-title" pointer-events="none"><text text-anchor="middle" transform="translate(210,30)" font-family="sans-serif" font-size="11px" font-weight="bold" fill="#000" opacity="1">Body Mass (g)</text></g></g><path class="foreground" aria-hidden="true" d="" pointer-events="none" display="none"/></g></g><g class="mark-group role-axis" role="graphics-symbol" aria-roledescription="axis" aria-label="Y-axis titled 'density' for a linear scale with values from 0.0 to 1.0"><g transform="translate(0.5,0.5)"><path class="background" aria-hidden="true" d="M0,0h0v0h0Z" pointer-events="none"/><g><g class="mark-rule role-axis-tick" pointer-events="none"><line transform="translate(0,180)" x2="-5" y2="0" stroke="#888" stroke-width="1" opacity="1"/><line transform="translate(0,144)" x2="-5" y2="0" stroke="#888" stroke-width="1" opacity="1"/><line transform="translate(0,108)" x2="-5" y2="0" stroke="#888" stroke-width="1" opacity="1"/><line transform="translate(0,72)" x2="-5" y2="0" stroke="#888" stroke-width="1" opacity="1"/><line transform="translate(0,36)" x2="-5" y2="0" stroke="#888" stroke-width="1" opacity="1"/><line transform="translate(0,0)" x2="-5" y2="0" stroke="#888" stroke-width="1" opacity="1"/></g><g class="mark-text role-axis-label" pointer-events="none"><text text-anchor="end" transform="translate(-7,183)" font-family="sans-serif" font-size="10px" fill="#000" opacity="1">0.0</text><text text-anchor="end" transform="translate(-7,147)" font-family="sans-serif" font-size="10px" fill="#000" opacity="1">0.2</text><text text-anchor="end" transform="translate(-7,111)" font-family="sans-serif" font-size="10px" fill="#000" opacity="1">0.4</text><text text-anchor="end" transform="translate(-7,75)" font-family="sans-serif" font-size="10px" fill="#000" opacity="1">0.6</text><text text-anchor="end" transform="translate(-7,38.99999999999999)" font-family="sans-serif" font-size="10px" fill="#000" opacity="1">0.8</text><text text-anchor="end" transform="translate(-7,3)" font-family="sans-serif" font-size="10px" fill="#000" opacity="1">1.0</text></g><g class="mark-rule role-axis-domain" pointer-events="none"><line transform="translate(0,180)" x2="0" y2="-180" stroke="#888" stroke-width="1" opacity="1"/></g><g class="mark-text role-axis-title" pointer-events="none"><text text-anchor="middle" transform="translate(-26.9033203125,90) rotate(-90) translate(0,-2)" font-family="sans-serif" font-size="11px" font-weight="bold" fill="#000" opacity="1">density</text></g></g><path class="foreground" aria-hidden="true" d="" pointer-events="none" display="none"/></g></g><g class="mark-group role-scope layer_0_pathgroup" role="graphics-object" aria-roledescription="group mark container"><g transform="translate(0,0)"><path class="background" aria-hidden="true" d="M0,0h420v180h-420Z"/><g><g class="mark-line role-mark layer_0_marks" role="graphics-object" aria-roledescription="line mark container"><path aria-label="Body Mass (g): 2850; density: 0.0347926429709; Species: Adelie" role="graphics-symbol" aria-roledescription="line mark" d="M36.75,173.737L38.771,173.016L40.793,172.229L42.814,171.376L44.835,170.455L46.856,169.466L48.878,168.409L50.899,167.282L52.92,166.086L54.941,164.82L56.963,163.485L58.984,162.081L61.005,160.608L63.026,159.065L65.048,157.453L67.069,155.773L69.09,154.023L71.111,152.205L73.133,150.32L77.175,146.346L81.218,142.111L85.26,137.628L89.303,132.917L93.345,128.005L101.43,117.719L109.515,107.071L117.6,96.339L125.685,85.728L133.77,75.399L141.855,65.529L145.898,60.829L149.94,56.32L153.983,52.019L158.025,47.936L162.068,44.072L166.11,40.419L170.153,36.964L174.195,33.689L178.238,30.581L182.28,27.628L186.323,24.827L190.365,22.176L194.408,19.683L198.45,17.351L200.471,16.248L202.493,15.187L204.514,14.169L206.535,13.192L208.556,12.258L210.578,11.364L212.599,10.511L214.62,9.698L216.641,8.924L218.663,8.188L220.684,7.488L222.705,6.826L224.726,6.199L226.748,5.607L228.769,5.05L230.79,4.527L232.811,4.039L234.832,3.584L236.854,3.163L238.875,2.775" stroke="#4c78a8" stroke-width="2"/></g></g><path class="foreground" aria-hidden="true" d="" display="none"/></g><g transform="translate(0,0)"><path class="background" aria-hidden="true" d="M0,0h420v180h-420Z"/><g><g class="mark-line role-mark layer_0_marks" role="graphics-object" aria-roledescription="line mark container"><path aria-label="Body Mass (g): 2700; density: 0.00887506716904; Species: Chinstrap" role="graphics-symbol" aria-roledescription="line mark" d="M21,178.402L29.82,177.5L38.64,176.483L43.05,175.923L47.46,175.293L49.665,174.935L51.87,174.536L54.075,174.086L55.177,173.838L56.28,173.572L57.383,173.287L58.485,172.981L59.588,172.652L60.69,172.299L61.793,171.919L62.895,171.511L63.998,171.074L65.1,170.605L66.203,170.103L67.305,169.566L68.408,168.994L69.51,168.385L70.613,167.737L71.715,167.051L72.818,166.324L73.92,165.557L75.023,164.749L76.125,163.9L77.228,163.009L78.33,162.076L79.432,161.103L80.535,160.088L81.638,159.033L82.74,157.938L84.945,155.631L87.15,153.172L89.355,150.57L91.56,147.83L93.765,144.962L95.97,141.971L100.38,135.643L104.79,128.889L109.2,121.744L118.02,106.49L126.84,90.566L135.66,75.012L140.07,67.684L144.48,60.76L148.89,54.281L153.3,48.26L155.505,45.423L157.71,42.703L159.915,40.102L162.12,37.62L164.325,35.258L166.53,33.018L168.735,30.899L170.94,28.903L173.145,27.026L175.35,25.266L177.555,23.619L179.76,22.078L181.965,20.637L184.17,19.288L186.375,18.022L188.58,16.831L190.785,15.706L192.99,14.639L195.195,13.625L197.4,12.657L199.605,11.732L201.81,10.848L204.015,10.002L206.22,9.195L208.425,8.427L210.63,7.699L212.835,7.012L215.04,6.367L217.245,5.764L219.45,5.205L221.655,4.688L223.86,4.212L226.065,3.775L228.27,3.375L232.68,2.674L237.09,2.089L241.5,1.6" stroke="#f58518" stroke-width="2"/></g></g><path class="foreground" aria-hidden="true" d="" display="none"/></g><g transform="translate(0,0)"><path class="background" aria-hidden="true" d="M0,0h420v180h-420Z"/><g><g class="mark-line role-mark layer_0_marks" role="graphics-object" aria-roledescription="line mark container"><path aria-label="Body Mass (g): 3950; density: 0.019621428749; Species: Gentoo" role="graphics-symbol" aria-roledescription="line mark" d="M152.25,176.468L154.718,176.109L157.185,175.704L159.653,175.249L162.12,174.743L164.587,174.182L167.055,173.562L169.523,172.883L171.99,172.141L174.458,171.333L176.925,170.459L179.392,169.517L181.86,168.503L184.328,167.417L186.795,166.257L189.263,165.021L191.73,163.707L194.198,162.314L196.665,160.838L199.133,159.279L201.6,157.633L204.068,155.9L206.535,154.078L209.003,152.165L211.47,150.161L213.938,148.065L216.405,145.88L218.872,143.607L221.34,141.248L226.275,136.293L231.21,131.061L241.08,120.014L250.95,108.664L260.82,97.513L270.69,86.848L280.56,76.694L290.43,66.888L300.3,57.245L310.17,47.715L320.04,38.463L324.975,34.04L329.91,29.817L334.845,25.838L337.313,23.953L339.78,22.142L342.248,20.41L344.715,18.758L347.183,17.19L349.65,15.705L352.118,14.304L354.585,12.988L357.053,11.756L359.52,10.608L361.987,9.54L364.455,8.552L366.923,7.641L369.39,6.805L371.858,6.041L374.325,5.345L376.792,4.713L379.26,4.143L381.728,3.631L384.195,3.171L386.663,2.761L389.13,2.397L391.597,2.074L394.065,1.789L399,1.317" stroke="#e45756" stroke-width="2"/></g></g><path class="foreground" aria-hidden="true" d="" display="none"/></g></g><g class="mark-group role-legend" role="graphics-symbol" aria-roledescription="legend" aria-label="Symbol legend titled 'Species' for stroke color with 3 values: Adelie, Chinstrap, Gentoo"><g transform="translate(438,0)"><path class="background" aria-hidden="true" d="M0,0h65v53h-65Z" pointer-events="none"/><g><g class="mark-group role-legend-entry"><g transform="translate(0,16)"><path class="background" aria-hidden="true" d="M0,0h0v0h0Z" pointer-events="none"/><g><g class="mark-group role-scope" role="graphics-object" aria-roledescription="group mark container"><g transform="translate(0,0)"><path class="background" aria-hidden="true" d="M0,0h64.154296875v11h-64.154296875Z" pointer-events="none" opacity="1"/><g><g class="mark-symbol role-legend-symbol" pointer-events="none"><path transform="translate(6,6)" d="M-5,0L5,0" stroke="#4c78a8" stroke-width="1.5" opacity="1"/></g><g class="mark-text role-legend-label" pointer-events="none"><text text-anchor="start" transform="translate(16,9)" font-family="sans-serif" font-size="10px" fill="#000" opacity="1">Adelie</text></g></g><path class="foreground" aria-hidden="true" d="" pointer-events="none" display="none"/></g><g transform="translate(0,13)"><path class="background" aria-hidden="true" d="M0,0h64.154296875v11h-64.154296875Z" pointer-events="none" opacity="1"/><g><g class="mark-symbol role-legend-symbol" pointer-events="none"><path transform="translate(6,6)" d="M-5,0L5,0" stroke="#f58518" stroke-width="1.5" opacity="1"/></g><g class="mark-text role-legend-label" pointer-events="none"><text text-anchor="start" transform="translate(16,9)" font-family="sans-serif" font-size="10px" fill="#000" opacity="1">Chinstrap</text></g></g><path class="foreground" aria-hidden="true" d="" pointer-events="none" display="none"/></g><g transform="translate(0,26)"><path class="background" aria-hidden="true" d="M0,0h64.154296875v11h-64.154296875Z" pointer-events="none" opacity="1"/><g><g class="mark-symbol role-legend-symbol" pointer-events="none"><path transform="translate(6,6)" d="M-5,0L5,0" stroke="#e45756" stroke-width="1.5" opacity="1"/></g><g class="mark-text role-legend-label" pointer-events="none"><text text-anchor="start" transform="translate(16,9)" font-family="sans-serif" font-size="10px" fill="#000" opacity="1">Gentoo</text></g></g><path class="foreground" aria-hidden="true" d="" pointer-events="none" display="none"/></g></g></g><path class="foreground" aria-hidden="true" d="" pointer-events="none" display="none"/></g></g><g class="mark-text role-legend-title" pointer-events="none"><text text-anchor="start" transform="translate(0,9)" font-family="sans-serif" font-size="11px" font-weight="bold" fill="#000" opacity="1">Species</text></g></g><path class="foreground" aria-hidden="true" d="" pointer-events="none" display="none"/></g></g><g class="mark-group role-title"><g transform="translate(210,-22)"><path class="background" aria-hidden="true" d="M0,0h0v0h0Z" pointer-events="none"/><g><g class="mark-text role-title-text" role="graphics-symbol" aria-roledescription="title" aria-label="Title text 'Density Mark: Cumulative'" pointer-events="none"><text text-anchor="middle" transform="translate(0,10)" font-family="sans-serif" font-size="13px" font-weight="bold" fill="#000" opacity="1">Density Mark: Cumulative</text></g></g><path class="foreground" aria-hidden="true" d="" pointer-events="none" display="none"/></g></g></g><path class="foreground" aria-hidden="true" d="" display="none"/></g></g></g></svg>