<svg xmlns="http://www.w3.org/2000/svg" xmlns:xlink="http://www.w3.org/1999/xlink" version="1.1" class="marks" width="570" height="244" viewBox="0 0 570 244"><rect width="570" height="244" fill="white"/><g fill="none" stroke-miterlimit="10" transform="translate(62,27)"><g class="mark-group role-frame root" role="graphics-object" aria-roledescription="group mark container"><g transform="translate(0,0)"><path class="background" aria-hidden="true" d="M0.5,0.5h420v180h-420Z" stroke="#ddd"/><g><g class="mark-group role-axis" aria-hidden="true"><g transform="translate(0.5,180.5)"><path class="background" aria-hidden="true" d="M0,0h0v0h0Z" pointer-events="none"/><g><g class="mark-rule role-axis-grid" pointer-events="none"><line transform="translate(0,-180)" x2="0" y2="180" stroke="#ddd" stroke-width="1" opacity="1"/><line transform="translate(53,-180)" x2="0" y2="180" stroke="#ddd" stroke-width="1" opacity="1"/><line transform="translate(105,-180)" x2="0" y2="180" stroke="#ddd" stroke-width="1" opacity="1"/><line transform="translate(158,-180)" x2="0" y2="180" stroke="#ddd" stroke-width="1" opacity="1"/><line transform="translate(210,-180)" x2="0" y2="180" stroke="#ddd" stroke-width="1" opacity="1"/><line transform="translate(263,-180)" x2="0" y2="180" stroke="#ddd" stroke-width="1" opacity="1"/><line transform="translate(315,-180)" x2="0" y2="180" stroke="#ddd" stroke-width="1" opacity="1"/><line transform="translate(368,-180)" x2="0" y2="180" stroke="#ddd" stroke-width="1" opacity="1"/><line transform="translate(420,-180)" x2="0" y2="180" stroke="#ddd" stroke-width="1" opacity="1"/></g></g><path class="foreground" aria-hidden="true" d="" pointer-events="none" display="none"/></g></g><g class="mark-group role-axis" aria-hidden="true"><g transform="translate(0.5,0.5)"><path class="background" aria-hidden="true" d="M0,0h0v0h0Z" pointer-events="none"/><g><g class="mark-rule role-axis-grid" pointer-events="none"><line transform="translate(0,180)" x2="420" y2="0" stroke="#ddd" stroke-width="1" opacity="1"/><line transform="translate(0,150)" x2="420" y2="0" stroke="#ddd" stroke-width="1" opacity="1"/><line transform="translate(0,120)" x2="420" y2="0" stroke="#ddd" stroke-width="1" opacity="1"/><line transform="translate(0,90)" x2="420" y2="0" stroke="#ddd" stroke-width="1" opacity="1"/><line transform="translate(0,60)" x2="420" y2="0" stroke="#ddd" stroke-width="1" opacity="1"/><line transform="translate(0,30)" x2="420" y2="0" stroke="#ddd" stroke-width="1" opacity="1"/><line transform="translate(0,0)" x2="420" y2="0" stroke="#ddd" stroke-width="1" opacity="1"/></g></g><path class="foreground" aria-hidden="true" d="" pointer-events="none" display="none"/></g></g><g class="mark-group role-axis" role="graphics-symbol" aria-roledescription="axis" aria-label="X-axis titled 'Body Mass (g)' for a linear scale with values from 2,500 to 6,500"><g transform="translate(0.5,180.5)"><path class="background" aria-hidden="true" d="M0,0h0v0h0Z" pointer-events="none"/><g><g class="mark-rule role-axis-tick" pointer-events="none"><line transform="translate(0,0)" x2="0" y2="5" stroke="#888" stroke-width="1" opacity="1"/><line transform="translate(53,0)" x2="0" y2="5" stroke="#888" stroke-width="1" opacity="1"/><line transform="translate(105,0)" x2="0" y2="5" stroke="#888" stroke-width="1" opacity="1"/><line transform="translate(158,0)" x2="0" y2="5" stroke="#888" stroke-width="1" opacity="1"/><line transform="translate(210,0)" x2="0" y2="5" stroke="#888" stroke-width="1" opacity="1"/><line transform="translate(263,0)" x2="0" y2="5" stroke="#888" stroke-width="1" opacity="1"/><line transform="translate(315,0)" x2="0" y2="5" stroke="#888" stroke-width="1" opacity="1"/><line transform="translate(368,0)" x2="0" y2="5" stroke="#888" stroke-width="1" opacity="1"/><line transform="translate(420,0)" x2="0" y2="5" stroke="#888" stroke-width="1" opacity="1"/></g><g class="mark-text role-axis-label" pointer-events="none"><text text-anchor="start" transform="translate(0,15)" font-family="sans-serif" font-size="10px" fill="#000" opacity="1">2,500</text><text text-anchor="middle" transform="translate(52.5,15)" font-family="sans-serif" font-size="10px" fill="#000" opacity="1">3,000</text><text text-anchor="middle" transform="translate(105,15)" font-family="sans-serif" font-size="10px" fill="#000" opacity="1">3,500</text><text text-anchor="middle" transform="translate(157.5,15)" font-family="sans-serif" font-size="10px" fill="#000" opacity="1">4,000</text><text text-anchor="middle" transform="translate(210,15)" font-family="sans-serif" font-size="10px" fill="#000" opacity="1">4,500</text><text text-anchor="middle" transform="translate(262.5,15)" font-family="sans-serif" font-size="10px" fill="#000" opacity="1">5,000</text><text text-anchor="middle" transform="translate(315,15)" font-family="sans-serif" font-size="10px" fill="#000" opacity="1">5,500</text><text text-anchor="middle" transform="translate(367.5,15)" font-family="sans-serif" font-size="10px" fill="#000" opacity="1">6,000</text><text text-anchor="end" transform="translate(420,15)" font-family="sans-serif" font-size="10px" fill="#000" opacity="1">6,500</text></g><g class="mark-rule role-axis-domain" pointer-events="none"><line transform="translate(0,0)" x2="420" y2="0" stroke="#888" stroke-width="1" opacity="1"/></g><g class="mark-text role-axis-title" pointer-events="none"><text text-anchor="middle" transform="translate(210,30)" font-family="sans-serif" font-size="11px" font-weight="bold" fill="#000" opacity="1">Body Mass (g)</text></g></g><path class="foreground" aria-hidden="true" d="" pointer-events="none" display="none"/></g></g><g class="mark-group role-axis" role="graphics-symbol" aria-roledescription="axis" aria-label="Y-axis titled 'density' for a linear scale with values from 0.0000 to 0.0012"><g transform="translate(0.5,0.5)"><path class="background" aria-hidden="true" d="M0,0h0v0h0Z" pointer-events="none"/><g><g class="mark-rule role-axis-tick" pointer-events="none"><line transform="translate(0,180)" x2="-5" y2="0" stroke="#888" stroke-width="1" opacity="1"/><line transform="translate(0,150)" x2="-5" y2="0" stroke="#888" stroke-width="1" opacity="1"/><line transform="translate(0,120)" x2="-5" y2="0" stroke="#888" stroke-width="1" opacity="1"/><line transform="translate(0,90)" x2="-5" y2="0" stroke="#888" stroke-width="1" opacity="1"/><line transform="translate(0,60)" x2="-5" y2="0" stroke="#888" stroke-width="1" opacity="1"/><line transform="translate(0,30)" x2="-5" y2="0" stroke="#888" stroke-width="1" opacity="1"/><line transform="translate(0,0)" x2="-5" y2="0" stroke="#888" stroke-width="1" opacity="1"/></g><g class="mark-text role-axis-label" pointer-events="none"><text text-anchor="end" transform="translate(-7,183)" font-family="sans-serif" font-size="10px" fill="#000" opacity="1">0.0000</text><text text-anchor="end" transform="translate(-7,153)" font-family="sans-serif" font-size="10px" fill="#000" opacity="1">0.0002</text><text text-anchor="end" transform="translate(-7,123)" font-family="sans-serif" font-size="10px" fill="#000" opacity="1">0.0004</text><text text-anchor="end" transform="translate(-7,93)" font-family="sans-serif" font-size="10px" fill="#000" opacity="1">0.0006</text><text text-anchor="end" transform="translate(-7,62.999999999999986)" font-family="sans-serif" font-size="10px" fill="#000" opacity="1">0.0008</text><text text-anchor="end" transform="translate(-7,32.99999999999999)" font-family="sans-serif" font-size="10px" fill="#000" opacity="1">0.0010</text><text text-anchor="end" transform="translate(-7,3)" font-family="sans-serif" font-size="10px" fill="#000" opacity="1">0.0012</text></g><g class="mark-rule role-axis-domain" pointer-events="none"><line transform="translate(0,180)" x2="0" y2="-180" stroke="#888" stroke-width="1" opacity="1"/></g><g class="mark-text role-axis-title" pointer-events="none"><text text-anchor="middle" transform="translate(-45.990234375,90) rotate(-90) translate(0,-2)" font-family="sans-serif" font-size="11px" font-weight="bold" fill="#000" opacity="1">density</text></g></g><path class="foreground" aria-hidden="true" d="" pointer-events="none" display="none"/></g></g><g class="mark-group role-scope layer_0_pathgroup" role="graphics-object" aria-roledescription="group mark container"><g transform="translate(0,0)"><path class="background" aria-hidden="true" d="M0,0h420v180h-420Z"/><g><g class="mark-area role-mark layer_0_marks" role="graphics-object" aria-roledescription="area mark container"><path aria-label="Body Mass (g): 2850; density: 0.000189260708584; Species: Adelie" role="graphics-symbol" aria-roledescription="area mark" d="M36.75,151.611L44.835,138.339L52.92,126.244L61.005,114.751L69.09,103.128L77.175,90.922L85.26,77.846L89.303,71.402L91.324,68.407L92.334,67.002L93.345,65.673L94.356,64.431L95.366,63.285L96.377,62.245L97.388,61.32L98.398,60.516L99.409,59.839L100.419,59.293L101.43,58.878L102.441,58.594L103.451,58.439L104.462,58.406L105.473,58.488L106.483,58.675L107.494,58.957L108.504,59.319L109.515,59.748L110.526,60.227L111.536,60.742L113.557,61.817L114.568,62.348L115.579,62.858L116.589,63.334L117.6,63.77L118.611,64.158L119.621,64.494L120.632,64.777L121.643,65.007L122.653,65.188L123.664,65.325L124.674,65.425L125.685,65.497L129.727,65.711L130.738,65.8L131.749,65.927L132.759,66.099L133.77,66.327L134.781,66.619L135.791,66.982L136.802,67.421L137.813,67.943L138.823,68.55L139.834,69.247L140.844,70.036L141.855,70.917L142.866,71.892L143.876,72.961L144.887,74.122L145.898,75.373L146.908,76.713L147.919,78.137L149.94,81.218L158.025,95.424L162.068,102.326L163.078,103.888L164.089,105.36L165.099,106.736L166.11,108.006L167.121,109.167L168.131,110.216L169.142,111.153L170.153,111.979L171.163,112.7L172.174,113.321L173.184,113.852L174.195,114.304L175.206,114.688L176.216,115.017L177.227,115.307L178.238,115.572L180.259,116.086L181.269,116.364L182.28,116.674L183.291,117.026L184.301,117.433L185.312,117.902L186.323,118.439L187.333,119.051L188.344,119.739L189.354,120.504L190.365,121.347L191.376,122.264L192.386,123.252L193.397,124.304L194.408,125.416L196.429,127.784L198.45,130.29L202.493,135.435L204.514,137.936L206.535,140.311L208.556,142.514L209.567,143.54L210.578,144.513L211.588,145.43L212.599,146.291L213.609,147.097L214.62,147.85L215.631,148.553L216.641,149.209L217.652,149.824L218.663,150.403L219.673,150.953L220.684,151.481L222.705,152.5L224.726,153.521L225.737,154.051L226.748,154.602L227.758,155.181L228.769,155.792L229.779,156.438L230.79,157.123L231.801,157.847L232.811,158.611L233.822,159.413L234.832,160.251L236.854,162.022L238.875,163.885L238.875,180L236.854,180L234.832,180L233.822,180L232.811,180L231.801,180L230.79,180L229.779,180L228.769,180L227.758,180L226.748,180L225.737,180L224.726,180L222.705,180L220.684,180L219.673,180L218.663,180L217.652,180L216.641,180L215.631,180L214.62,180L213.609,180L212.599,180L211.588,180L210.578,180L209.567,180L208.556,180L206.535,180L204.514,180L202.493,180L198.45,180L196.429,180L194.408,180L193.397,180L192.386,180L191.376,180L190.365,180L189.354,180L188.344,180L187.333,180L186.323,180L185.312,180L184.301,180L183.291,180L182.28,180L181.269,180L180.259,180L178.238,180L177.227,180L176.216,180L175.206,180L174.195,180L173.184,180L172.174,180L171.163,180L170.153,180L169.142,180L168.131,180L167.121,180L166.11,180L165.099,180L164.089,180L163.078,180L162.068,180L158.025,180L149.94,180L147.919,180L146.908,180L145.898,180L144.887,180L143.876,180L142.866,180L141.855,180L140.844,180L139.834,180L138.823,180L137.813,180L136.802,180L135.791,180L134.781,180L133.77,180L132.759,180L131.749,180L130.738,180L129.727,180L125.685,180L124.674,180L123.664,180L122.653,180L121.643,180L120.632,180L119.621,180L118.611,180L117.6,180L116.589,180L115.579,180L114.568,180L113.557,180L111.536,180L110.526,180L109.515,180L108.504,180L107.494,180L106.483,180L105.473,180L104.462,180L103.451,180L102.441,180L101.43,180L100.419,180L99.409,180L98.398,180L97.388,180L96.377,180L95.366,180L94.356,180L93.345,180L92.334,180L91.324,180L89.303,180L85.26,180L77.175,180L69.09,180L61.005,180L52.92,180L44.835,180L36.75,180Z" fill="grey" fill-opacity="0.5"/></g></g><path class="foreground" aria-hidden="true" d="" display="none"/></g><g transform="translate(0,0)"><path class="background" aria-hidden="true" d="M0,0h420v180h-420Z"/><g><g class="mark-area role-mark layer_0_marks" role="graphics-object" aria-roledescription="area mark container"><path aria-label="Body Mass (g): 2700; density: 0.0000610936174736; Species: Chinstrap" role="graphics-symbol" aria-roledescription="area mark" d="M21,170.836L22.103,170.584L23.205,170.363L24.308,170.173L25.41,170.012L26.513,169.879L27.615,169.772L28.718,169.691L29.82,169.632L30.923,169.595L32.025,169.579L33.128,169.581L34.23,169.602L35.333,169.639L36.435,169.692L38.64,169.838L43.05,170.195L44.152,170.264L45.255,170.308L46.358,170.316L47.46,170.273L48.563,170.164L49.665,169.974L50.768,169.685L51.87,169.278L52.973,168.734L54.075,168.034L55.177,167.161L56.28,166.096L57.383,164.823L58.485,163.329L59.588,161.601L60.69,159.63L61.793,157.412L62.895,154.944L63.998,152.229L65.1,149.272L67.305,142.678L69.51,135.292L73.92,118.927L82.74,86.631L84.945,79.889L87.15,73.911L88.253,71.209L89.355,68.689L90.458,66.342L91.56,64.151L92.663,62.098L93.765,60.162L95.97,56.549L100.38,49.678L102.585,46.066L104.79,42.171L106.995,37.948L109.2,33.435L113.61,24.078L115.815,19.672L116.917,17.655L118.02,15.81L119.123,14.171L120.225,12.771L121.328,11.639L122.43,10.802L123.533,10.281L124.635,10.091L125.738,10.241L126.84,10.735L127.943,11.57L129.045,12.735L130.148,14.216L131.25,15.99L132.353,18.03L133.455,20.304L134.558,22.779L135.66,25.417L144.48,47.979L146.685,52.99L148.89,57.544L151.095,61.689L153.3,65.547L157.71,73.095L159.915,77.147L162.12,81.578L164.325,86.463L166.53,91.803L170.94,103.497L175.35,115.426L177.555,120.976L179.76,126.006L180.862,128.285L181.965,130.389L183.068,132.313L184.17,134.054L185.273,135.61L186.375,136.988L187.478,138.194L188.58,139.238L189.683,140.133L190.785,140.894L191.888,141.537L192.99,142.08L194.093,142.54L195.195,142.937L196.297,143.289L197.4,143.613L199.605,144.249L200.708,144.592L201.81,144.97L202.913,145.396L204.015,145.88L205.118,146.43L206.22,147.052L207.323,147.75L208.425,148.525L209.528,149.377L210.63,150.301L211.733,151.294L212.835,152.347L215.04,154.595L219.45,159.321L221.655,161.587L222.758,162.652L223.86,163.658L224.963,164.598L226.065,165.466L227.168,166.257L228.27,166.971L229.373,167.608L230.475,168.171L231.578,168.666L232.68,169.098L233.783,169.476L234.885,169.808L235.988,170.105L237.09,170.375L241.5,171.372L241.5,180L237.09,180L235.988,180L234.885,180L233.783,180L232.68,180L231.578,180L230.475,180L229.373,180L228.27,180L227.168,180L226.065,180L224.963,180L223.86,180L222.758,180L221.655,180L219.45,180L215.04,180L212.835,180L211.733,180L210.63,180L209.528,180L208.425,180L207.323,180L206.22,180L205.118,180L204.015,180L202.913,180L201.81,180L200.708,180L199.605,180L197.4,180L196.297,180L195.195,180L194.093,180L192.99,180L191.888,180L190.785,180L189.683,180L188.58,180L187.478,180L186.375,180L185.273,180L184.17,180L183.068,180L181.965,180L180.862,180L179.76,180L177.555,180L175.35,180L170.94,180L166.53,180L164.325,180L162.12,180L159.915,180L157.71,180L153.3,180L151.095,180L148.89,180L146.685,180L144.48,180L135.66,180L134.558,180L133.455,180L132.353,180L131.25,180L130.148,180L129.045,180L127.943,180L126.84,180L125.738,180L124.635,180L123.533,180L122.43,180L121.328,180L120.225,180L119.123,180L118.02,180L116.917,180L115.815,180L113.61,180L109.2,180L106.995,180L104.79,180L102.585,180L100.38,180L95.97,180L93.765,180L92.663,180L91.56,180L90.458,180L89.355,180L88.253,180L87.15,180L84.945,180L82.74,180L73.92,180L69.51,180L67.305,180L65.1,180L63.998,180L62.895,180L61.793,180L60.69,180L59.588,180L58.485,180L57.383,180L56.28,180L55.177,180L54.075,180L52.973,180L51.87,180L50.768,180L49.665,180L48.563,180L47.46,180L46.358,180L45.255,180L44.152,180L43.05,180L38.64,180L36.435,180L35.333,180L34.23,180L33.128,180L32.025,180L30.923,180L29.82,180L28.718,180L27.615,180L26.513,180L25.41,180L24.308,180L23.205,180L22.103,180L21,180Z" fill="grey" fill-opacity="0.5"/></g></g><path class="foreground" aria-hidden="true" d="" display="none"/></g><g transform="translate(0,0)"><path class="background" aria-hidden="true" d="M0,0h420v180h-420Z"/><g><g class="mark-area role-mark layer_0_marks" role="graphics-object" aria-roledescription="area mark container"><path aria-label="Body Mass (g): 3950; density: 0.0000559742981903; Species: Gentoo" role="graphics-symbol" aria-roledescription="area mark" d="M152.25,171.604L153.484,170.865L154.718,170.077L155.951,169.238L157.185,168.347L158.419,167.4L159.653,166.398L160.886,165.34L162.12,164.23L164.587,161.861L167.055,159.328L171.99,153.959L181.86,143.115L186.795,137.904L191.73,132.968L201.6,123.893L202.834,122.67L204.068,121.371L205.301,119.975L206.535,118.462L207.769,116.815L209.003,115.022L210.236,113.073L211.47,110.966L213.938,106.296L216.405,101.117L221.34,90.126L223.808,84.894L226.275,80.227L227.509,78.178L228.743,76.345L229.976,74.742L231.21,73.374L232.444,72.24L233.677,71.334L234.911,70.642L236.145,70.149L237.379,69.835L238.612,69.679L239.846,69.659L241.08,69.754L242.314,69.945L243.548,70.215L244.781,70.552L246.015,70.945L247.249,71.39L248.483,71.883L249.716,72.426L250.95,73.023L252.184,73.679L253.418,74.401L254.651,75.196L255.885,76.069L257.119,77.025L258.353,78.066L259.586,79.19L260.82,80.394L270.69,91.336L271.924,92.59L273.158,93.752L274.391,94.808L275.625,95.745L276.859,96.554L278.093,97.229L279.326,97.768L280.56,98.174L281.794,98.451L283.028,98.606L284.261,98.65L285.495,98.595L286.729,98.453L287.963,98.238L289.196,97.961L290.43,97.637L291.664,97.274L292.898,96.885L295.365,96.053L300.3,94.319L302.768,93.464L305.235,92.648L306.469,92.265L307.703,91.908L308.936,91.586L310.17,91.308L311.404,91.086L312.638,90.93L313.871,90.854L315.105,90.868L316.339,90.985L317.573,91.215L318.806,91.567L320.04,92.047L321.274,92.661L322.508,93.412L323.741,94.3L324.975,95.322L326.209,96.476L327.443,97.754L328.676,99.149L329.91,100.652L332.378,103.939L334.845,107.521L339.78,115.178L344.715,122.866L349.65,130.018L354.585,136.421L359.52,142.266L369.39,153.914L374.325,159.903L376.792,162.748L379.26,165.372L380.494,166.575L381.728,167.693L382.961,168.722L384.195,169.656L385.429,170.495L386.663,171.24L387.896,171.894L389.13,172.464L390.364,172.956L391.597,173.379L392.831,173.744L394.065,174.06L395.299,174.338L396.532,174.588L399,175.039L399,180L396.532,180L395.299,180L394.065,180L392.831,180L391.597,180L390.364,180L389.13,180L387.896,180L386.663,180L385.429,180L384.195,180L382.961,180L381.728,180L380.494,180L379.26,180L376.792,180L374.325,180L369.39,180L359.52,180L354.585,180L349.65,180L344.715,180L339.78,180L334.845,180L332.378,180L329.91,180L328.676,180L327.443,180L326.209,180L324.975,180L323.741,180L322.508,180L321.274,180L320.04,180L318.806,180L317.573,180L316.339,180L315.105,180L313.871,180L312.638,180L311.404,180L310.17,180L308.936,180L307.703,180L306.469,180L305.235,180L302.768,180L300.3,180L295.365,180L292.898,180L291.664,180L290.43,180L289.196,180L287.963,180L286.729,180L285.495,180L284.261,180L283.028,180L281.794,180L280.56,180L279.326,180L278.093,180L276.859,180L275.625,180L274.391,180L273.158,180L271.924,180L270.69,180L260.82,180L259.586,180L258.353,180L257.119,180L255.885,180L254.651,180L253.418,180L252.184,180L250.95,180L249.716,180L248.483,180L247.249,180L246.015,180L244.781,180L243.548,180L242.314,180L241.08,180L239.846,180L238.612,180L237.379,180L236.145,180L234.911,180L233.677,180L232.444,180L231.21,180L229.976,180L228.743,180L227.509,180L226.275,180L223.808,180L221.34,180L216.405,180L213.938,180L211.47,180L210.236,180L209.003,180L207.769,180L206.535,180L205.301,180L204.068,180L202.834,180L201.6,180L191.73,180L186.795,180L181.86,180L171.99,180L167.055,180L164.587,180L162.12,180L160.886,180L159.653,180L158.419,180L157.185,180L155.951,180L154.718,180L153.484,180L152.25,180Z" fill="grey" fill-opacity="0.5"/></g></g><path class="foreground" aria-hidden="true" d="" display="none"/></g></g><g class="mark-group role-scope layer_1_pathgroup" role="graphics-object" aria-roledescription="group mark container"><g transform="translate(0,0)"><path class="background" aria-hidden="true" d="M0,0h420v180h-420Z"/><g><g class="mark-line role-mark layer_1_marks" role="graphics-object" aria-roledescription="line mark container"><path aria-label="Body Mass (g): 2850; density: 0.000189260708584; Species: Adelie" role="graphics-symbol" aria-roledescription="line mark" d="M36.75,151.611L44.835,138.339L52.92,126.244L61.005,114.751L69.09,103.128L77.175,90.922L85.26,77.846L89.303,71.402L91.324,68.407L92.334,67.002L93.345,65.673L94.356,64.431L95.366,63.285L96.377,62.245L97.388,61.32L98.398,60.516L99.409,59.839L100.419,59.293L101.43,58.878L102.441,58.594L103.451,58.439L104.462,58.406L105.473,58.488L106.483,58.675L107.494,58.957L108.504,59.319L109.515,59.748L110.526,60.227L111.536,60.742L113.557,61.817L114.568,62.348L115.579,62.858L116.589,63.334L117.6,63.77L118.611,64.158L119.621,64.494L120.632,64.777L121.643,65.007L122.653,65.188L123.664,65.325L124.674,65.425L125.685,65.497L129.727,65.711L130.738,65.8L131.749,65.927L132.759,66.099L133.77,66.327L134.781,66.619L135.791,66.982L136.802,67.421L137.813,67.943L138.823,68.55L139.834,69.247L140.844,70.036L141.855,70.917L142.866,71.892L143.876,72.961L144.887,74.122L145.898,75.373L146.908,76.713L147.919,78.137L149.94,81.218L158.025,95.424L162.068,102.326L163.078,103.888L164.089,105.36L165.099,106.736L166.11,108.006L167.121,109.167L168.131,110.216L169.142,111.153L170.153,111.979L171.163,112.7L172.174,113.321L173.184,113.852L174.195,114.304L175.206,114.688L176.216,115.017L177.227,115.307L178.238,115.572L180.259,116.086L181.269,116.364L182.28,116.674L183.291,117.026L184.301,117.433L185.312,117.902L186.323,118.439L187.333,119.051L188.344,119.739L189.354,120.504L190.365,121.347L191.376,122.264L192.386,123.252L193.397,124.304L194.408,125.416L196.429,127.784L198.45,130.29L202.493,135.435L204.514,137.936L206.535,140.311L208.556,142.514L209.567,143.54L210.578,144.513L211.588,145.43L212.599,146.291L213.609,147.097L214.62,147.85L215.631,148.553L216.641,149.209L217.652,149.824L218.663,150.403L219.673,150.953L220.684,151.481L222.705,152.5L224.726,153.521L225.737,154.051L226.748,154.602L227.758,155.181L228.769,155.792L229.779,156.438L230.79,157.123L231.801,157.847L232.811,158.611L233.822,159.413L234.832,160.251L236.854,162.022L238.875,163.885" stroke="#4c78a8" stroke-width="2"/></g></g><path class="foreground" aria-hidden="true" d="" display="none"/></g><g transform="translate(0,0)"><path class="background" aria-hidden="true" d="M0,0h420v180h-420Z"/><g><g class="mark-line role-mark layer_1_marks" role="graphics-object" aria-roledescription="line mark container"><path aria-label="Body Mass (g): 2700; density: 0.0000610936174736; Species: Chinstrap" role="graphics-symbol" aria-roledescription="line mark" d="M21,170.836L22.103,170.584L23.205,170.363L24.308,170.173L25.41,170.012L26.513,169.879L27.615,169.772L28.718,169.691L29.82,169.632L30.923,169.595L32.025,169.579L33.128,169.581L34.23,169.602L35.333,169.639L36.435,169.692L38.64,169.838L43.05,170.195L44.152,170.264L45.255,170.308L46.358,170.316L47.46,170.273L48.563,170.164L49.665,169.974L50.768,169.685L51.87,169.278L52.973,168.734L54.075,168.034L55.177,167.161L56.28,166.096L57.383,164.823L58.485,163.329L59.588,161.601L60.69,159.63L61.793,157.412L62.895,154.944L63.998,152.229L65.1,149.272L67.305,142.678L69.51,135.292L73.92,118.927L82.74,86.631L84.945,79.889L87.15,73.911L88.253,71.209L89.355,68.689L90.458,66.342L91.56,64.151L92.663,62.098L93.765,60.162L95.97,56.549L100.38,49.678L102.585,46.066L104.79,42.171L106.995,37.948L109.2,33.435L113.61,24.078L115.815,19.672L116.917,17.655L118.02,15.81L119.123,14.171L120.225,12.771L121.328,11.639L122.43,10.802L123.533,10.281L124.635,10.091L125.738,10.241L126.84,10.735L127.943,11.57L129.045,12.735L130.148,14.216L131.25,15.99L132.353,18.03L133.455,20.304L134.558,22.779L135.66,25.417L144.48,47.979L146.685,52.99L148.89,57.544L151.095,61.689L153.3,65.547L157.71,73.095L159.915,77.147L162.12,81.578L164.325,86.463L166.53,91.803L170.94,103.497L175.35,115.426L177.555,120.976L179.76,126.006L180.862,128.285L181.965,130.389L183.068,132.313L184.17,134.054L185.273,135.61L186.375,136.988L187.478,138.194L188.58,139.238L189.683,140.133L190.785,140.894L191.888,141.537L192.99,142.08L194.093,142.54L195.195,142.937L196.297,143.289L197.4,143.613L199.605,144.249L200.708,144.592L201.81,144.97L202.913,145.396L204.015,145.88L205.118,146.43L206.22,147.052L207.323,147.75L208.425,148.525L209.528,149.377L210.63,150.301L211.733,151.294L212.835,152.347L215.04,154.595L219.45,159.321L221.655,161.587L222.758,162.652L223.86,163.658L224.963,164.598L226.065,165.466L227.168,166.257L228.27,166.971L229.373,167.608L230.475,168.171L231.578,168.666L232.68,169.098L233.783,169.476L234.885,169.808L235.988,170.105L237.09,170.375L241.5,171.372" stroke="#f58518" stroke-width="2"/></g></g><path class="foreground" aria-hidden="true" d="" display="none"/></g><g transform="translate(0,0)"><path class="background" aria-hidden="true" d="M0,0h420v180h-420Z"/><g><g class="mark-line role-mark layer_1_marks" role="graphics-object" aria-roledescription="line mark container"><path aria-label="Body Mass (g): 3950; density: 0.0000559742981903; Species: Gentoo" role="graphics-symbol" aria-roledescription="line mark" d="M152.25,171.604L153.484,170.865L154.718,170.077L155.951,169.238L157.185,168.347L158.419,167.4L159.653,166.398L160.886,165.34L162.12,164.23L164.587,161.861L167.055,159.328L171.99,153.959L181.86,143.115L186.795,137.904L191.73,132.968L201.6,123.893L202.834,122.67L204.068,121.371L205.301,119.975L206.535,118.462L207.769,116.815L209.003,115.022L210.236,113.073L211.47,110.966L213.938,106.296L216.405,101.117L221.34,90.126L223.808,84.894L226.275,80.227L227.509,78.178L228.743,76.345L229.976,74.742L231.21,73.374L232.444,72.24L233.677,71.334L234.911,70.642L236.145,70.149L237.379,69.835L238.612,69.679L239.846,69.659L241.08,69.754L242.314,69.945L243.548,70.215L244.781,70.552L246.015,70.945L247.249,71.39L248.483,71.883L249.716,72.426L250.95,73.023L252.184,73.679L253.418,74.401L254.651,75.196L255.885,76.069L257.119,77.025L258.353,78.066L259.586,79.19L260.82,80.394L270.69,91.336L271.924,92.59L273.158,93.752L274.391,94.808L275.625,95.745L276.859,96.554L278.093,97.229L279.326,97.768L280.56,98.174L281.794,98.451L283.028,98.606L284.261,98.65L285.495,98.595L286.729,98.453L287.963,98.238L289.196,97.961L290.43,97.637L291.664,97.274L292.898,96.885L295.365,96.053L300.3,94.319L302.768,93.464L305.235,92.648L306.469,92.265L307.703,91.908L308.936,91.586L310.17,91.308L311.404,91.086L312.638,90.93L313.871,90.854L315.105,90.868L316.339,90.985L317.573,91.215L318.806,91.567L320.04,92.047L321.274,92.661L322.508,93.412L323.741,94.3L324.975,95.322L326.209,96.476L327.443,97.754L328.676,99.149L329.91,100.652L332.378,103.939L334.845,107.521L339.78,115.178L344.715,122.866L349.65,130.018L354.585,136.421L359.52,142.266L369.39,153.914L374.325,159.903L376.792,162.748L379.26,165.372L380.494,166.575L381.728,167.693L382.961,168.722L384.195,169.656L385.429,170.495L386.663,171.24L387.896,171.894L389.13,172.464L390.364,172.956L391.597,173.379L392.831,173.744L394.065,174.06L395.299,174.338L396.532,174.588L399,175.039" stroke="#e45756" stroke-width="2"/></g></g><path class="foreground" aria-hidden="true" d="" display="none"/></g></g><g class="mark-group role-legend" role="graphics-symbol" aria-roledescription="legend" aria-label="Symbol legend titled 'Species' for stroke color with 3 values: Adelie, Chinstrap, Gentoo"><g transform="translate(438,0)"><path class="background" aria-hidden="true" d="M0,0h65v53h-65Z" pointer-events="none"/><g><g class="mark-group role-legend-entry"><g transform="translate(0,16)"><path class="background" aria-hidden="true" d="M0,0h0v0h0Z" pointer-events="none"/><g><g class="mark-group role-scope" role="graphics-object" aria-roledescription="group mark container"><g transform="translate(0,0)"><path class="background" aria-hidden="true" d="M0,0h64.154296875v11h-64.154296875Z" pointer-events="none" opacity="1"/><g><g class="mark-symbol role-legend-symbol" pointer-events="none"><path transform="translate(6,6)" d="M-5,0L5,0" stroke="#4c78a8" stroke-width="1.5" opacity="1"/></g><g class="mark-text role-legend-label" pointer-events="none"><text text-anchor="start" transform="translate(16,9)" font-family="sans-serif" font-size="10px" fill="#000" opacity="1">Adelie</text></g></g><path class="foreground" aria-hidden="true" d="" pointer-events="none" display="none"/></g><g transform="translate(0,13)"><path class="background" aria-hidden="true" d="M0,0h64.154296875v11h-64.154296875Z" pointer-events="none" opacity="1"/><g><g class="mark-symbol role-legend-symbol" pointer-events="none"><path transform="translate(6,6)" d="M-5,0L5,0" stroke="#f58518" stroke-width="1.5" opacity="1"/></g><g class="mark-text role-legend-label" pointer-events="none"><text text-anchor="start" transform="translate(16,9)" font-family="sans-serif" font-size="10px" fill="#000" opacity="1">Chinstrap</text></g></g><path class="foreground" aria-hidden="true" d="" pointer-events="none" display="none"/></g><g transform="translate(0,26)"><path class="background" aria-hidden="true" d="M0,0h64.154296875v11h-64.154296875Z" pointer-events="none" opacity="1"/><g><g class="mark-symbol role-legend-symbol" pointer-events="none"><path transform="translate(6,6)" d="M-5,0L5,0" stroke="#e45756" stroke-width="1.5" opacity="1"/></g><g class="mark-text role-legend-label" pointer-events="none"><text text-anchor="start" transform="translate(16,9)" font-family="sans-serif" font-size="10px" fill="#000" opacity="1">Gentoo</text></g></g><path class="foreground" aria-hidden="true" d="" pointer-events="none" display="none"/></g></g></g><path class="foreground" aria-hidden="true" d="" pointer-events="none" display="none"/></g></g><g class="mark-text role-legend-title" pointer-events="none"><text text-anchor="start" transform="translate(0,9)" font-family="sans-serif" font-size="11px" font-weight="bold" fill="#000" opacity="1">Species</text></g></g><path class="foreground" aria-hidden="true" d="" pointer-events="none" display="none"/></g></g><g class="mark-group role-title"><g transform="translate(210,-22)"><path class="background" aria-hidden="true" d="M0,0h0v0h0Z" pointer-events="none"/><g><g class="mark-text role-title-text" role="graphics-symbol" aria-roledescription="title" aria-label="Title text 'Density Mark: Bandwidth'" pointer-events="none"><text text-anchor="middle" transform="translate(0,10)" font-family="sans-serif" font-size="13px" font-weight="bold" fill="#000" opacity="1">Density Mark: Bandwidth</text></g></g><path class="foreground" aria-hidden="true" d="" pointer-events="none" display="none"/></g></g></g><path class="foreground" aria-hidden="true" d="" display="none"/></g></g></g></svg>