<svg xmlns="http://www.w3.org/2000/svg" xmlns:xlink="http://www.w3.org/1999/xlink" version="1.1" class="marks" width="348" height="347" viewBox="0 0 348 347"><rect width="348" height="347" fill="white"/><g fill="none" stroke-miterlimit="10" transform="translate(40,10)"><g class="mark-group role-frame root" role="graphics-object" aria-roledescription="group mark container"><g transform="translate(0,0)"><path class="background" aria-hidden="true" d="M0.5,0.5h300v300h-300Z" stroke="#ddd"/><g><g class="mark-group role-axis" aria-hidden="true"><g transform="translate(0.5,300.5)"><path class="background" aria-hidden="true" d="M0,0h0v0h0Z" pointer-events="none"/><g><g class="mark-rule role-axis-grid" pointer-events="none"><line transform="translate(25,-300)" x2="0" y2="300" stroke="#ddd" stroke-width="1" opacity="1"/><line transform="translate(75,-300)" x2="0" y2="300" stroke="#ddd" stroke-width="1" opacity="1"/><line transform="translate(125,-300)" x2="0" y2="300" stroke="#ddd" stroke-width="1" opacity="1"/><line transform="translate(175,-300)" x2="0" y2="300" stroke="#ddd" stroke-width="1" opacity="1"/><line transform="translate(225,-300)" x2="0" y2="300" stroke="#ddd" stroke-width="1" opacity="1"/><line transform="translate(275,-300)" x2="0" y2="300" stroke="#ddd" stroke-width="1" opacity="1"/></g></g><path class="foreground" aria-hidden="true" d="" pointer-events="none" display="none"/></g></g><g class="mark-group role-axis" aria-hidden="true"><g transform="translate(0.5,0.5)"><path class="background" aria-hidden="true" d="M0,0h0v0h0Z" pointer-events="none"/><g><g class="mark-rule role-axis-grid" pointer-events="none"><line transform="translate(0,300)" x2="300" y2="0" stroke="#ddd" stroke-width="1" opacity="1"/><line transform="translate(0,275)" x2="300" y2="0" stroke="#ddd" stroke-width="1" opacity="1"/><line transform="translate(0,250)" x2="300" y2="0" stroke="#ddd" stroke-width="1" opacity="1"/><line transform="translate(0,225)" x2="300" y2="0" stroke="#ddd" stroke-width="1" opacity="1"/><line transform="translate(0,200)" x2="300" y2="0" stroke="#ddd" stroke-width="1" opacity="1"/><line transform="translate(0,175)" x2="300" y2="0" stroke="#ddd" stroke-width="1" opacity="1"/><line transform="translate(0,150)" x2="300" y2="0" stroke="#ddd" stroke-width="1" opacity="1"/><line transform="translate(0,125)" x2="300" y2="0" stroke="#ddd" stroke-width="1" opacity="1"/><line transform="translate(0,100)" x2="300" y2="0" stroke="#ddd" stroke-width="1" opacity="1"/><line transform="translate(0,75)" x2="300" y2="0" stroke="#ddd" stroke-width="1" opacity="1"/><line transform="translate(0,50)" x2="300" y2="0" stroke="#ddd" stroke-width="1" opacity="1"/><line transform="translate(0,25)" x2="300" y2="0" stroke="#ddd" stroke-width="1" opacity="1"/><line transform="translate(0,0)" x2="300" y2="0" stroke="#ddd" stroke-width="1" opacity="1"/></g></g><path class="foreground" aria-hidden="true" d="" pointer-events="none" display="none"/></g></g><g class="mark-group role-axis" role="graphics-symbol" aria-roledescription="axis" aria-label="X-axis titled 'Year (year)' for a time scale with values from Wednesday, 01 January 1969, 12:00:00 AM to Thursday, 01 January 1981, 12:00:00 AM"><g transform="translate(0.5,300.5)"><path class="background" aria-hidden="true" d="M0,0h0v0h0Z" pointer-events="none"/><g><g class="mark-rule role-axis-tick" pointer-events="none"><line transform="translate(25,0)" x2="0" y2="5" stroke="#888" stroke-width="1" opacity="1"/><line transform="translate(75,0)" x2="0" y2="5" stroke="#888" stroke-width="1" opacity="1"/><line transform="translate(125,0)" x2="0" y2="5" stroke="#888" stroke-width="1" opacity="1"/><line transform="translate(175,0)" x2="0" y2="5" stroke="#888" stroke-width="1" opacity="1"/><line transform="translate(225,0)" x2="0" y2="5" stroke="#888" stroke-width="1" opacity="1"/><line transform="translate(275,0)" x2="0" y2="5" stroke="#888" stroke-width="1" opacity="1"/></g><g class="mark-text role-axis-label" pointer-events="none"><text text-anchor="middle" transform="translate(24.982888432580427,15)" font-family="sans-serif" font-size="10px" fill="#000" opacity="1">1970</text><text text-anchor="middle" transform="translate(74.94866529774127,15)" font-family="sans-serif" font-size="10px" fill="#000" opacity="1">1972</text><text text-anchor="middle" transform="translate(124.98288843258042,15)" font-family="sans-serif" font-size="10px" fill="#000" opacity="1">1974</text><text text-anchor="middle" transform="translate(174.94866529774126,15)" font-family="sans-serif" font-size="10px" fill="#000" opacity="1">1976</text><text text-anchor="middle" transform="translate(224.9828884325804,15)" font-family="sans-serif" font-size="10px" fill="#000" opacity="1">1978</text><text text-anchor="middle" transform="translate(274.9486652977413,15)" font-family="sans-serif" font-size="10px" fill="#000" opacity="1">1980</text></g><g class="mark-rule role-axis-domain" pointer-events="none"><line transform="translate(0,0)" x2="300" y2="0" stroke="#888" stroke-width="1" opacity="1"/></g><g class="mark-text role-axis-title" pointer-events="none"><text text-anchor="middle" transform="translate(150,30)" font-family="sans-serif" font-size="11px" font-weight="bold" fill="#000" opacity="1">Year (year)</text></g></g><path class="foreground" aria-hidden="true" d="" pointer-events="none" display="none"/></g></g><g class="mark-group role-axis" role="graphics-symbol" aria-roledescription="axis" aria-label="Y-axis titled 'Miles per Gallon (95% CIs)' for a linear scale with values from 14 to 38"><g transform="translate(0.5,0.5)"><path class="background" aria-hidden="true" d="M0,0h0v0h0Z" pointer-events="none"/><g><g class="mark-rule role-axis-tick" pointer-events="none"><line transform="translate(0,300)" x2="-5" y2="0" stroke="#888" stroke-width="1" opacity="1"/><line transform="translate(0,275)" x2="-5" y2="0" stroke="#888" stroke-width="1" opacity="1"/><line transform="translate(0,250)" x2="-5" y2="0" stroke="#888" stroke-width="1" opacity="1"/><line transform="translate(0,225)" x2="-5" y2="0" stroke="#888" stroke-width="1" opacity="1"/><line transform="translate(0,200)" x2="-5" y2="0" stroke="#888" stroke-width="1" opacity="1"/><line transform="translate(0,175)" x2="-5" y2="0" stroke="#888" stroke-width="1" opacity="1"/><line transform="translate(0,150)" x2="-5" y2="0" stroke="#888" stroke-width="1" opacity="1"/><line transform="translate(0,125)" x2="-5" y2="0" stroke="#888" stroke-width="1" opacity="1"/><line transform="translate(0,100)" x2="-5" y2="0" stroke="#888" stroke-width="1" opacity="1"/><line transform="translate(0,75)" x2="-5" y2="0" stroke="#888" stroke-width="1" opacity="1"/><line transform="translate(0,50)" x2="-5" y2="0" stroke="#888" stroke-width="1" opacity="1"/><line transform="translate(0,25)" x2="-5" y2="0" stroke="#888" stroke-width="1" opacity="1"/><line transform="translate(0,0)" x2="-5" y2="0" stroke="#888" stroke-width="1" opacity="1"/></g><g class="mark-text role-axis-label" pointer-events="none"><text text-anchor="end" transform="translate(-7,303)" font-family="sans-serif" font-size="10px" fill="#000" opacity="1">14</text><text text-anchor="end" transform="translate(-7,278)" font-family="sans-serif" font-size="10px" fill="#000" opacity="1">16</text><text text-anchor="end" transform="translate(-7,253)" font-family="sans-serif" font-size="10px" fill="#000" opacity="1">18</text><text text-anchor="end" transform="translate(-7,228)" font-family="sans-serif" font-size="10px" fill="#000" opacity="1">20</text><text text-anchor="end" transform="translate(-7,203.00000000000003)" font-family="sans-serif" font-size="10px" fill="#000" opacity="1">22</text><text text-anchor="end" transform="translate(-7,177.99999999999997)" font-family="sans-serif" font-size="10px" fill="#000" opacity="1">24</text><text text-anchor="end" transform="translate(-7,153)" font-family="sans-serif" font-size="10px" fill="#000" opacity="1">26</text><text text-anchor="end" transform="translate(-7,127.99999999999999)" font-family="sans-serif" font-size="10px" fill="#000" opacity="1">28</text><text text-anchor="end" transform="translate(-7,103.00000000000001)" font-family="sans-serif" font-size="10px" fill="#000" opacity="1">30</text><text text-anchor="end" transform="translate(-7,78)" font-family="sans-serif" font-size="10px" fill="#000" opacity="1">32</text><text text-anchor="end" transform="translate(-7,52.999999999999986)" font-family="sans-serif" font-size="10px" fill="#000" opacity="1">34</text><text text-anchor="end" transform="translate(-7,28.00000000000001)" font-family="sans-serif" font-size="10px" fill="#000" opacity="1">36</text><text text-anchor="end" transform="translate(-7,3)" font-family="sans-serif" font-size="10px" fill="#000" opacity="1">38</text></g><g class="mark-rule role-axis-domain" pointer-events="none"><line transform="translate(0,300)" x2="0" y2="-300" stroke="#888" stroke-width="1" opacity="1"/></g><g class="mark-text role-axis-title" pointer-events="none"><text text-anchor="middle" transform="translate(-23.724609375,150) rotate(-90) translate(0,-2)" font-family="sans-serif" font-size="11px" font-weight="bold" fill="#000" opacity="1">Miles per Gallon (95% CIs)</text></g></g><path class="foreground" aria-hidden="true" d="" pointer-events="none" display="none"/></g></g><g class="mark-rect role-mark layer_0_marks" aria-hidden="true"><path d="M-2.5,278.39008620689657h5v1h-5Z" fill="#4c78a8" opacity="0.7"/><path d="M22.482888432580427,236.56473214285717h5v1h-5Z" fill="#4c78a8" opacity="0.7"/><path d="M47.465776865160855,265.5825892857143h5v1h-5Z" fill="#4c78a8" opacity="0.7"/><path d="M72.44866529774127,277.0078125h5v1h-5Z" fill="#4c78a8" opacity="0.7"/><path d="M97.5,223.1342592592593h5v1h-5Z" fill="#4c78a8" opacity="0.7"/><path d="M122.48288843258042,241.99999999999997h5v1h-5Z" fill="#4c78a8" opacity="0.7"/><path d="M147.46577686516085,226.89430147058823h5v1h-5Z" fill="#4c78a8" opacity="0.7"/><path d="M172.44866529774126,212.44642857142858h5v1h-5Z" fill="#4c78a8" opacity="0.7"/><path d="M197.5,199.6414930555556h5v1h-5Z" fill="#4c78a8" opacity="0.7"/><path d="M222.4828884325804,192.65840517241378h5v1h-5Z" fill="#4c78a8" opacity="0.7"/><path d="M247.46577686516085,82.13146551724135h5v1h-5Z" fill="#4c78a8" opacity="0.7"/><path d="M297.5,106.08489583333326h5v1h-5Z" fill="#4c78a8" opacity="0.7"/></g><g class="mark-rect role-mark layer_1_marks" aria-hidden="true"><path d="M-2.5,230.9655172413793h5v1h-5Z" fill="#4c78a8" opacity="0.7"/><path d="M22.482888432580427,181.19642857142856h5v1h-5Z" fill="#4c78a8" opacity="0.7"/><path d="M47.465776865160855,217.3571428571428h5v1h-5Z" fill="#4c78a8" opacity="0.7"/><path d="M72.44866529774127,241.0625h5v1h-5Z" fill="#4c78a8" opacity="0.7"/><path d="M97.5,160.14814814814815h5v1h-5Z" fill="#4c78a8" opacity="0.7"/><path d="M122.48288843258042,200.75000000000003h5v1h-5Z" fill="#4c78a8" opacity="0.7"/><path d="M147.46577686516085,179.64705882352936h5v1h-5Z" fill="#4c78a8" opacity="0.7"/><path d="M172.44866529774126,152.3850446428572h5v1h-5Z" fill="#4c78a8" opacity="0.7"/><path d="M197.5,147.61631944444446h5v1h-5Z" fill="#4c78a8" opacity="0.7"/><path d="M222.4828884325804,135.23168103448273h5v1h-5Z" fill="#4c78a8" opacity="0.7"/><path d="M247.46577686516085,21.046336206896555h5v1h-5Z" fill="#4c78a8" opacity="0.7"/><path d="M297.5,69.7276041666666h5v1h-5Z" fill="#4c78a8" opacity="0.7"/></g><g class="mark-rule role-mark layer_2_marks" role="graphics-object" aria-roledescription="rule mark container"><line aria-label="Year (year): Jan 01, 1969; Miles per Gallon (95% CIs): 15.6887931034; upper_Miles_per_Gallon: 19.4827586207; Ci1 of Miles_per_Gallon: 19.4827586207; Ci0 of Miles_per_Gallon: 15.6887931034; Mean of Miles_per_Gallon: 17.6896551724" role="graphics-symbol" aria-roledescription="errorbar" transform="translate(0,278.89008620689657)" x2="0" y2="-47.42456896551727" stroke="black"/><line aria-label="Year (year): Jan 01, 1970; Miles per Gallon (95% CIs): 19.0348214286; upper_Miles_per_Gallon: 23.4642857143; Ci1 of Miles_per_Gallon: 23.4642857143; Ci0 of Miles_per_Gallon: 19.0348214286; Mean of Miles_per_Gallon: 21.25" role="graphics-symbol" aria-roledescription="errorbar" transform="translate(24.982888432580427,237.06473214285717)" x2="0" y2="-55.36830357142861" stroke="black"/><line aria-label="Year (year): Jan 01, 1971; Miles per Gallon (95% CIs): 16.7133928571; upper_Miles_per_Gallon: 20.5714285714; Ci1 of Miles_per_Gallon: 20.5714285714; Ci0 of Miles_per_Gallon: 16.7133928571; Mean of Miles_per_Gallon: 18.7142857143" role="graphics-symbol" aria-roledescription="errorbar" transform="translate(49.965776865160855,266.0825892857143)" x2="0" y2="-48.22544642857147" stroke="black"/><line aria-label="Year (year): Jan 01, 1972; Miles per Gallon (95% CIs): 15.799375; upper_Miles_per_Gallon: 18.675; Ci1 of Miles_per_Gallon: 18.675; Ci0 of Miles_per_Gallon: 15.799375; Mean of Miles_per_Gallon: 17.1" role="graphics-symbol" aria-roledescription="errorbar" transform="translate(74.94866529774127,277.5078125)" x2="0" y2="-35.9453125" stroke="black"/><line aria-label="Year (year): Jan 01, 1973; Miles per Gallon (95% CIs): 20.1092592593; upper_Miles_per_Gallon: 25.1481481481; Ci1 of Miles_per_Gallon: 25.1481481481; Ci0 of Miles_per_Gallon: 20.1092592593; Mean of Miles_per_Gallon: 22.7037037037" role="graphics-symbol" aria-roledescription="errorbar" transform="translate(100,223.6342592592593)" x2="0" y2="-62.98611111111114" stroke="black"/><line aria-label="Year (year): Jan 01, 1974; Miles per Gallon (95% CIs): 18.6; upper_Miles_per_Gallon: 21.9; Ci1 of Miles_per_Gallon: 21.9; Ci0 of Miles_per_Gallon: 18.6; Mean of Miles_per_Gallon: 20.2666666667" role="graphics-symbol" aria-roledescription="errorbar" transform="translate(124.98288843258042,242.49999999999997)" x2="0" y2="-41.24999999999994" stroke="black"/><line aria-label="Year (year): Jan 01, 1975; Miles per Gallon (95% CIs): 19.8084558824; upper_Miles_per_Gallon: 23.5882352941; Ci1 of Miles_per_Gallon: 23.5882352941; Ci0 of Miles_per_Gallon: 19.8084558824; Mean of Miles_per_Gallon: 21.5735294118" role="graphics-symbol" aria-roledescription="errorbar" transform="translate(149.96577686516085,227.39430147058823)" x2="0" y2="-47.24724264705887" stroke="black"/><line aria-label="Year (year): Jan 01, 1976; Miles per Gallon (95% CIs): 20.9642857143; upper_Miles_per_Gallon: 25.7691964286; Ci1 of Miles_per_Gallon: 25.7691964286; Ci0 of Miles_per_Gallon: 20.9642857143; Mean of Miles_per_Gallon: 23.375" role="graphics-symbol" aria-roledescription="errorbar" transform="translate(174.94866529774126,212.94642857142858)" x2="0" y2="-60.06138392857139" stroke="black"/><line aria-label="Year (year): Jan 01, 1977; Miles per Gallon (95% CIs): 21.9886805556; upper_Miles_per_Gallon: 26.1506944444; Ci1 of Miles_per_Gallon: 26.1506944444; Ci0 of Miles_per_Gallon: 21.9886805556; Mean of Miles_per_Gallon: 24.0611111111" role="graphics-symbol" aria-roledescription="errorbar" transform="translate(200,200.1414930555556)" x2="0" y2="-52.02517361111114" stroke="black"/><line aria-label="Year (year): Jan 01, 1978; Miles per Gallon (95% CIs): 22.5473275862; upper_Miles_per_Gallon: 27.1414655172; Ci1 of Miles_per_Gallon: 27.1414655172; Ci0 of Miles_per_Gallon: 22.5473275862; Mean of Miles_per_Gallon: 25.0931034483" role="graphics-symbol" aria-roledescription="errorbar" transform="translate(224.9828884325804,193.15840517241378)" x2="0" y2="-57.426724137931046" stroke="black"/><line aria-label="Year (year): Jan 01, 1979; Miles per Gallon (95% CIs): 31.3894827586; upper_Miles_per_Gallon: 36.2762931034; Ci1 of Miles_per_Gallon: 36.2762931034; Ci0 of Miles_per_Gallon: 31.3894827586; Mean of Miles_per_Gallon: 33.6965517241" role="graphics-symbol" aria-roledescription="errorbar" transform="translate(249.96577686516085,82.63146551724135)" x2="0" y2="-61.0851293103448" stroke="black"/><line aria-label="Year (year): Jan 01, 1981; Miles per Gallon (95% CIs): 29.4732083333; upper_Miles_per_Gallon: 32.3817916667; Ci1 of Miles_per_Gallon: 32.3817916667; Ci0 of Miles_per_Gallon: 29.4732083333; Mean of Miles_per_Gallon: 31.045" role="graphics-symbol" aria-roledescription="errorbar" transform="translate(300,106.58489583333326)" x2="0" y2="-36.35729166666667" stroke="black"/></g></g><path class="foreground" aria-hidden="true" d="" display="none"/></g></g></g></svg>