<svg xmlns="http://www.w3.org/2000/svg" xmlns:xlink="http://www.w3.org/1999/xlink" version="1.1" class="marks" width="246" height="422" viewBox="0 0 246 422"><rect width="246" height="422" fill="white"/><g fill="none" stroke-miterlimit="10" transform="translate(40,5)"><g class="mark-group role-frame root" role="graphics-object" aria-roledescription="group mark container"><g transform="translate(0,0)"><path class="background" aria-hidden="true" d="M0.5,0.5h200v380h-200Z" stroke="#ddd"/><g><g class="mark-group role-axis" aria-hidden="true"><g transform="translate(0.5,380.5)"><path class="background" aria-hidden="true" d="M0,0h0v0h0Z" pointer-events="none"/><g><g class="mark-rule role-axis-grid" pointer-events="none"><line transform="translate(0,0)" x2="0" y2="-380" stroke="#ddd" stroke-width="1" opacity="1"/><line transform="translate(33,0)" x2="0" y2="-380" stroke="#ddd" stroke-width="1" opacity="1"/><line transform="translate(67,0)" x2="0" y2="-380" stroke="#ddd" stroke-width="1" opacity="1"/><line transform="translate(100,0)" x2="0" y2="-380" stroke="#ddd" stroke-width="1" opacity="1"/><line transform="translate(133,0)" x2="0" y2="-380" stroke="#ddd" stroke-width="1" opacity="1"/><line transform="translate(167,0)" x2="0" y2="-380" stroke="#ddd" stroke-width="1" opacity="1"/><line transform="translate(200,0)" x2="0" y2="-380" stroke="#ddd" stroke-width="1" opacity="1"/></g></g><path class="foreground" aria-hidden="true" d="" pointer-events="none" display="none"/></g></g><g class="mark-group role-axis" role="graphics-symbol" aria-roledescription="axis" aria-label="X-axis titled 'population' for a linear scale with values from 0 to 12,000,000"><g transform="translate(0.5,380.5)"><path class="background" aria-hidden="true" d="M0,0h0v0h0Z" pointer-events="none"/><g><g class="mark-rule role-axis-tick" pointer-events="none"><line transform="translate(0,0)" x2="0" y2="5" stroke="#888" stroke-width="1" opacity="1"/><line transform="translate(33,0)" x2="0" y2="5" stroke="#888" stroke-width="1" opacity="1"/><line transform="translate(67,0)" x2="0" y2="5" stroke="#888" stroke-width="1" opacity="1"/><line transform="translate(100,0)" x2="0" y2="5" stroke="#888" stroke-width="1" opacity="1"/><line transform="translate(133,0)" x2="0" y2="5" stroke="#888" stroke-width="1" opacity="1"/><line transform="translate(167,0)" x2="0" y2="5" stroke="#888" stroke-width="1" opacity="1"/><line transform="translate(200,0)" x2="0" y2="5" stroke="#888" stroke-width="1" opacity="1"/></g><g class="mark-text role-axis-label" pointer-events="none"><text text-anchor="start" transform="translate(0,15)" font-family="sans-serif" font-size="10px" fill="#000" opacity="1">0</text><text text-anchor="middle" transform="translate(33.33333333333333,15)" font-family="sans-serif" font-size="10px" fill="#000" opacity="0">2,000,000</text><text text-anchor="middle" transform="translate(66.66666666666666,15)" font-family="sans-serif" font-size="10px" fill="#000" opacity="0">4,000,000</text><text text-anchor="middle" transform="translate(100,15)" font-family="sans-serif" font-size="10px" fill="#000" opacity="0">6,000,000</text><text text-anchor="middle" transform="translate(133.33333333333331,15)" font-family="sans-serif" font-size="10px" fill="#000" opacity="0">8,000,000</text><text text-anchor="middle" transform="translate(166.66666666666669,15)" font-family="sans-serif" font-size="10px" fill="#000" opacity="0">10,000,000</text><text text-anchor="end" transform="translate(200,15)" font-family="sans-serif" font-size="10px" fill="#000" opacity="1">12,000,000</text></g><g class="mark-rule role-axis-domain" pointer-events="none"><line transform="translate(0,0)" x2="200" y2="0" stroke="#888" stroke-width="1" opacity="1"/></g><g class="mark-text role-axis-title" pointer-events="none"><text text-anchor="middle" transform="translate(100,30)" font-family="sans-serif" font-size="11px" font-weight="bold" fill="#000" opacity="1">population</text></g></g><path class="foreground" aria-hidden="true" d="" pointer-events="none" display="none"/></g></g><g class="mark-group role-axis" role="graphics-symbol" aria-roledescription="axis" aria-label="Y-axis titled 'age' for a discrete scale with 19 values: 0, 5, 10, 15, 20, ending with 90"><g transform="translate(0.5,0.5)"><path class="background" aria-hidden="true" d="M0,0h0v0h0Z" pointer-events="none"/><g><g class="mark-rule role-axis-tick" pointer-events="none"><line transform="translate(0,10)" x2="-5" y2="0" stroke="#888" stroke-width="1" opacity="1"/><line transform="translate(0,30)" x2="-5" y2="0" stroke="#888" stroke-width="1" opacity="1"/><line transform="translate(0,50)" x2="-5" y2="0" stroke="#888" stroke-width="1" opacity="1"/><line transform="translate(0,70)" x2="-5" y2="0" stroke="#888" stroke-width="1" opacity="1"/><line transform="translate(0,90)" x2="-5" y2="0" stroke="#888" stroke-width="1" opacity="1"/><line transform="translate(0,110)" x2="-5" y2="0" stroke="#888" stroke-width="1" opacity="1"/><line transform="translate(0,130)" x2="-5" y2="0" stroke="#888" stroke-width="1" opacity="1"/><line transform="translate(0,150)" x2="-5" y2="0" stroke="#888" stroke-width="1" opacity="1"/><line transform="translate(0,170)" x2="-5" y2="0" stroke="#888" stroke-width="1" opacity="1"/><line transform="translate(0,190)" x2="-5" y2="0" stroke="#888" stroke-width="1" opacity="1"/><line transform="translate(0,210)" x2="-5" y2="0" stroke="#888" stroke-width="1" opacity="1"/><line transform="translate(0,230)" x2="-5" y2="0" stroke="#888" stroke-width="1" opacity="1"/><line transform="translate(0,250)" x2="-5" y2="0" stroke="#888" stroke-width="1" opacity="1"/><line transform="translate(0,270)" x2="-5" y2="0" stroke="#888" stroke-width="1" opacity="1"/><line transform="translate(0,290)" x2="-5" y2="0" stroke="#888" stroke-width="1" opacity="1"/><line transform="translate(0,310)" x2="-5" y2="0" stroke="#888" stroke-width="1" opacity="1"/><line transform="translate(0,330)" x2="-5" y2="0" stroke="#888" stroke-width="1" opacity="1"/><line transform="translate(0,350)" x2="-5" y2="0" stroke="#888" stroke-width="1" opacity="1"/><line transform="translate(0,370)" x2="-5" y2="0" stroke="#888" stroke-width="1" opacity="1"/></g><g class="mark-text role-axis-label" pointer-events="none"><text text-anchor="end" transform="translate(-7,12.5)" font-family="sans-serif" font-size="10px" fill="#000" opacity="1">0</text><text text-anchor="end" transform="translate(-7,32.5)" font-family="sans-serif" font-size="10px" fill="#000" opacity="1">5</text><text text-anchor="end" transform="translate(-7,52.5)" font-family="sans-serif" font-size="10px" fill="#000" opacity="1">10</text><text text-anchor="end" transform="translate(-7,72.5)" font-family="sans-serif" font-size="10px" fill="#000" opacity="1">15</text><text text-anchor="end" transform="translate(-7,92.5)" font-family="sans-serif" font-size="10px" fill="#000" opacity="1">20</text><text text-anchor="end" transform="translate(-7,112.5)" font-family="sans-serif" font-size="10px" fill="#000" opacity="1">25</text><text text-anchor="end" transform="translate(-7,132.5)" font-family="sans-serif" font-size="10px" fill="#000" opacity="1">30</text><text text-anchor="end" transform="translate(-7,152.5)" font-family="sans-serif" font-size="10px" fill="#000" opacity="1">35</text><text text-anchor="end" transform="translate(-7,172.5)" font-family="sans-serif" font-size="10px" fill="#000" opacity="1">40</text><text text-anchor="end" transform="translate(-7,192.5)" font-family="sans-serif" font-size="10px" fill="#000" opacity="1">45</text><text text-anchor="end" transform="translate(-7,212.5)" font-family="sans-serif" font-size="10px" fill="#000" opacity="1">50</text><text text-anchor="end" transform="translate(-7,232.5)" font-family="sans-serif" font-size="10px" fill="#000" opacity="1">55</text><text text-anchor="end" transform="translate(-7,252.5)" font-family="sans-serif" font-size="10px" fill="#000" opacity="1">60</text><text text-anchor="end" transform="translate(-7,272.5)" font-family="sans-serif" font-size="10px" fill="#000" opacity="1">65</text><text text-anchor="end" transform="translate(-7,292.5)" font-family="sans-serif" font-size="10px" fill="#000" opacity="1">70</text><text text-anchor="end" transform="translate(-7,312.5)" font-family="sans-serif" font-size="10px" fill="#000" opacity="1">75</text><text text-anchor="end" transform="translate(-7,332.5)" font-family="sans-serif" font-size="10px" fill="#000" opacity="1">80</text><text text-anchor="end" transform="translate(-7,352.5)" font-family="sans-serif" font-size="10px" fill="#000" opacity="1">85</text><text text-anchor="end" transform="translate(-7,372.5)" font-family="sans-serif" font-size="10px" fill="#000" opacity="1">90</text></g><g class="mark-rule role-axis-domain" pointer-events="none"><line transform="translate(0,0)" x2="0" y2="380" stroke="#888" stroke-width="1" opacity="1"/></g><g class="mark-text role-axis-title" pointer-events="none"><text text-anchor="middle" transform="translate(-23.724609375,190) rotate(-90) translate(0,-2)" font-family="sans-serif" font-size="11px" font-weight="bold" fill="#000" opacity="1">age</text></g></g><path class="foreground" aria-hidden="true" d="" pointer-events="none" display="none"/></g></g><g class="mark-rule role-mark layer_0_marks" role="graphics-object" aria-roledescription="rule mark container"><line aria-label="population: 9310714; age: 0; Max of people: 9735380" role="graphics-symbol" aria-roledescription="rule mark" transform="translate(155.17856666666668,10)" x2="7.077766666666662" y2="0" stroke="black"/><line aria-label="population: 10069564; age: 5; Max of people: 10552146" role="graphics-symbol" aria-roledescription="rule mark" transform="translate(167.82606666666666,30)" x2="8.04303333333334" y2="0" stroke="black"/><line aria-label="population: 10022524; age: 10; Max of people: 10563233" role="graphics-symbol" aria-roledescription="rule mark" transform="translate(167.04206666666667,50)" x2="9.011816666666675" y2="0" stroke="black"/><line aria-label="population: 9692669; age: 15; Max of people: 10237419" role="graphics-symbol" aria-roledescription="rule mark" transform="translate(161.54448333333335,70)" x2="9.079166666666652" y2="0" stroke="black"/><line aria-label="population: 9324244; age: 20; Max of people: 9731315" role="graphics-symbol" aria-roledescription="rule mark" transform="translate(155.40406666666667,90)" x2="6.784516666666661" y2="0" stroke="black"/><line aria-label="population: 9518507; age: 25; Max of people: 9659493" role="graphics-symbol" aria-roledescription="rule mark" transform="translate(158.64178333333334,110)" x2="2.3497666666666817" y2="0" stroke="black"/><line aria-label="population: 10119296; age: 30; Max of people: 10205879" role="graphics-symbol" aria-roledescription="rule mark" transform="translate(168.65493333333333,130)" x2="1.4430499999999995" y2="0" stroke="black"/><line aria-label="population: 11475182; age: 35; Max of people: 11635647" role="graphics-symbol" aria-roledescription="rule mark" transform="translate(191.25303333333335,150)" x2="2.6744166666666445" y2="0" stroke="black"/><line aria-label="population: 11320252; age: 40; Max of people: 11488578" role="graphics-symbol" aria-roledescription="rule mark" transform="translate(188.67086666666665,170)" x2="2.8054333333333545" y2="0" stroke="black"/><line aria-label="population: 9925006; age: 45; Max of people: 10261253" role="graphics-symbol" aria-roledescription="rule mark" transform="translate(165.41676666666666,190)" x2="5.60411666666667" y2="0" stroke="black"/><line aria-label="population: 8507934; age: 50; Max of people: 8911133" role="graphics-symbol" aria-roledescription="rule mark" transform="translate(141.7989,210)" x2="6.719983333333346" y2="0" stroke="black"/><line aria-label="population: 6459082; age: 55; Max of people: 6921268" role="graphics-symbol" aria-roledescription="rule mark" transform="translate(107.65136666666666,230)" x2="7.703100000000006" y2="0" stroke="black"/><line aria-label="population: 5123399; age: 60; Max of people: 5668961" role="graphics-symbol" aria-roledescription="rule mark" transform="translate(85.38998333333333,250)" x2="9.092699999999994" y2="0" stroke="black"/><line aria-label="population: 4453623; age: 65; Max of people: 4804784" role="graphics-symbol" aria-roledescription="rule mark" transform="translate(74.22705,270)" x2="5.8526833333333315" y2="0" stroke="black"/><line aria-label="population: 3792145; age: 70; Max of people: 5184855" role="graphics-symbol" aria-roledescription="rule mark" transform="translate(63.20241666666667,290)" x2="23.211833333333338" y2="0" stroke="black"/><line aria-label="population: 2912655; age: 75; Max of people: 4355644" role="graphics-symbol" aria-roledescription="rule mark" transform="translate(48.54425,310)" x2="24.049816666666665" y2="0" stroke="black"/><line aria-label="population: 1902638; age: 80; Max of people: 3221898" role="graphics-symbol" aria-roledescription="rule mark" transform="translate(31.710633333333334,330)" x2="21.987666666666662" y2="0" stroke="black"/><line aria-label="population: 970357; age: 85; Max of people: 1981156" role="graphics-symbol" aria-roledescription="rule mark" transform="translate(16.172616666666666,350)" x2="16.84665" y2="0" stroke="black"/><line aria-label="population: 336303; age: 90; Max of people: 1064581" role="graphics-symbol" aria-roledescription="rule mark" transform="translate(5.60505,370)" x2="12.137966666666665" y2="0" stroke="black"/></g><g class="mark-rect role-mark layer_1_marks" role="graphics-object" aria-roledescription="rect mark container"><path aria-label="population: 9310714; age: 0" role="graphics-symbol" aria-roledescription="tick" d="M154.67856666666668,7.5h1v5h-1Z" fill="#4c78a8"/><path aria-label="population: 10069564; age: 5" role="graphics-symbol" aria-roledescription="tick" d="M167.32606666666666,27.5h1v5h-1Z" fill="#4c78a8"/><path aria-label="population: 10022524; age: 10" role="graphics-symbol" aria-roledescription="tick" d="M166.54206666666667,47.5h1v5h-1Z" fill="#4c78a8"/><path aria-label="population: 9692669; age: 15" role="graphics-symbol" aria-roledescription="tick" d="M161.04448333333335,67.5h1v5h-1Z" fill="#4c78a8"/><path aria-label="population: 9324244; age: 20" role="graphics-symbol" aria-roledescription="tick" d="M154.90406666666667,87.5h1v5h-1Z" fill="#4c78a8"/><path aria-label="population: 9518507; age: 25" role="graphics-symbol" aria-roledescription="tick" d="M158.14178333333334,107.5h1v5h-1Z" fill="#4c78a8"/><path aria-label="population: 10119296; age: 30" role="graphics-symbol" aria-roledescription="tick" d="M168.15493333333333,127.5h1v5h-1Z" fill="#4c78a8"/><path aria-label="population: 11475182; age: 35" role="graphics-symbol" aria-roledescription="tick" d="M190.75303333333335,147.5h1v5h-1Z" fill="#4c78a8"/><path aria-label="population: 11320252; age: 40" role="graphics-symbol" aria-roledescription="tick" d="M188.17086666666665,167.5h1v5h-1Z" fill="#4c78a8"/><path aria-label="population: 9925006; age: 45" role="graphics-symbol" aria-roledescription="tick" d="M164.91676666666666,187.5h1v5h-1Z" fill="#4c78a8"/><path aria-label="population: 8507934; age: 50" role="graphics-symbol" aria-roledescription="tick" d="M141.2989,207.5h1v5h-1Z" fill="#4c78a8"/><path aria-label="population: 6459082; age: 55" role="graphics-symbol" aria-roledescription="tick" d="M107.15136666666666,227.5h1v5h-1Z" fill="#4c78a8"/><path aria-label="population: 5123399; age: 60" role="graphics-symbol" aria-roledescription="tick" d="M84.88998333333333,247.5h1v5h-1Z" fill="#4c78a8"/><path aria-label="population: 4453623; age: 65" role="graphics-symbol" aria-roledescription="tick" d="M73.72705,267.5h1v5h-1Z" fill="#4c78a8"/><path aria-label="population: 3792145; age: 70" role="graphics-symbol" aria-roledescription="tick" d="M62.70241666666667,287.5h1v5h-1Z" fill="#4c78a8"/><path aria-label="population: 2912655; age: 75" role="graphics-symbol" aria-roledescription="tick" d="M48.04425,307.5h1v5h-1Z" fill="#4c78a8"/><path aria-label="population: 1902638; age: 80" role="graphics-symbol" aria-roledescription="tick" d="M31.210633333333334,327.5h1v5h-1Z" fill="#4c78a8"/><path aria-label="population: 970357; age: 85" role="graphics-symbol" aria-roledescription="tick" d="M15.672616666666666,347.5h1v5h-1Z" fill="#4c78a8"/><path aria-label="population: 336303; age: 90" role="graphics-symbol" aria-roledescription="tick" d="M5.10505,367.5h1v5h-1Z" fill="#4c78a8"/></g><g class="mark-rect role-mark layer_2_marks" role="graphics-object" aria-roledescription="rect mark container"><path aria-label="population: 9735380; age: 0" role="graphics-symbol" aria-roledescription="tick" d="M161.75633333333334,7.5h1v5h-1Z" fill="#4c78a8"/><path aria-label="population: 10552146; age: 5" role="graphics-symbol" aria-roledescription="tick" d="M175.3691,27.5h1v5h-1Z" fill="#4c78a8"/><path aria-label="population: 10563233; age: 10" role="graphics-symbol" aria-roledescription="tick" d="M175.55388333333335,47.5h1v5h-1Z" fill="#4c78a8"/><path aria-label="population: 10237419; age: 15" role="graphics-symbol" aria-roledescription="tick" d="M170.12365,67.5h1v5h-1Z" fill="#4c78a8"/><path aria-label="population: 9731315; age: 20" role="graphics-symbol" aria-roledescription="tick" d="M161.68858333333333,87.5h1v5h-1Z" fill="#4c78a8"/><path aria-label="population: 9659493; age: 25" role="graphics-symbol" aria-roledescription="tick" d="M160.49155000000002,107.5h1v5h-1Z" fill="#4c78a8"/><path aria-label="population: 10205879; age: 30" role="graphics-symbol" aria-roledescription="tick" d="M169.59798333333333,127.5h1v5h-1Z" fill="#4c78a8"/><path aria-label="population: 11635647; age: 35" role="graphics-symbol" aria-roledescription="tick" d="M193.42745,147.5h1v5h-1Z" fill="#4c78a8"/><path aria-label="population: 11488578; age: 40" role="graphics-symbol" aria-roledescription="tick" d="M190.9763,167.5h1v5h-1Z" fill="#4c78a8"/><path aria-label="population: 10261253; age: 45" role="graphics-symbol" aria-roledescription="tick" d="M170.52088333333333,187.5h1v5h-1Z" fill="#4c78a8"/><path aria-label="population: 8911133; age: 50" role="graphics-symbol" aria-roledescription="tick" d="M148.01888333333335,207.5h1v5h-1Z" fill="#4c78a8"/><path aria-label="population: 6921268; age: 55" role="graphics-symbol" aria-roledescription="tick" d="M114.85446666666667,227.5h1v5h-1Z" fill="#4c78a8"/><path aria-label="population: 5668961; age: 60" role="graphics-symbol" aria-roledescription="tick" d="M93.98268333333333,247.5h1v5h-1Z" fill="#4c78a8"/><path aria-label="population: 4804784; age: 65" role="graphics-symbol" aria-roledescription="tick" d="M79.57973333333334,267.5h1v5h-1Z" fill="#4c78a8"/><path aria-label="population: 5184855; age: 70" role="graphics-symbol" aria-roledescription="tick" d="M85.91425000000001,287.5h1v5h-1Z" fill="#4c78a8"/><path aria-label="population: 4355644; age: 75" role="graphics-symbol" aria-roledescription="tick" d="M72.09406666666666,307.5h1v5h-1Z" fill="#4c78a8"/><path aria-label="population: 3221898; age: 80" role="graphics-symbol" aria-roledescription="tick" d="M53.198299999999996,327.5h1v5h-1Z" fill="#4c78a8"/><path aria-label="population: 1981156; age: 85" role="graphics-symbol" aria-roledescription="tick" d="M32.51926666666667,347.5h1v5h-1Z" fill="#4c78a8"/><path aria-label="population: 1064581; age: 90" role="graphics-symbol" aria-roledescription="tick" d="M17.243016666666666,367.5h1v5h-1Z" fill="#4c78a8"/></g><g class="mark-symbol role-mark layer_3_marks" role="graphics-object" aria-roledescription="symbol mark container"><path aria-label="population: 9523047; age: 0" role="graphics-symbol" aria-roledescription="point" transform="translate(158.71744999999999,10)" d="M0.707,0A0.707,0.707,0,1,1,-0.707,0A0.707,0.707,0,1,1,0.707,0" stroke="#4c78a8" stroke-width="2"/><path aria-label="population: 10310855; age: 5" role="graphics-symbol" aria-roledescription="point" transform="translate(171.84758333333335,30)" d="M0.707,0A0.707,0.707,0,1,1,-0.707,0A0.707,0.707,0,1,1,0.707,0" stroke="#4c78a8" stroke-width="2"/><path aria-label="population: 10292878.5; age: 10" role="graphics-symbol" aria-roledescription="point" transform="translate(171.547975,50)" d="M0.707,0A0.707,0.707,0,1,1,-0.707,0A0.707,0.707,0,1,1,0.707,0" stroke="#4c78a8" stroke-width="2"/><path aria-label="population: 9965044; age: 15" role="graphics-symbol" aria-roledescription="point" transform="translate(166.08406666666667,70)" d="M0.707,0A0.707,0.707,0,1,1,-0.707,0A0.707,0.707,0,1,1,0.707,0" stroke="#4c78a8" stroke-width="2"/><path aria-label="population: 9527779.5; age: 20" role="graphics-symbol" aria-roledescription="point" transform="translate(158.796325,90)" d="M0.707,0A0.707,0.707,0,1,1,-0.707,0A0.707,0.707,0,1,1,0.707,0" stroke="#4c78a8" stroke-width="2"/><path aria-label="population: 9589000; age: 25" role="graphics-symbol" aria-roledescription="point" transform="translate(159.81666666666666,110)" d="M0.707,0A0.707,0.707,0,1,1,-0.707,0A0.707,0.707,0,1,1,0.707,0" stroke="#4c78a8" stroke-width="2"/><path aria-label="population: 10162587.5; age: 30" role="graphics-symbol" aria-roledescription="point" transform="translate(169.37645833333332,130)" d="M0.707,0A0.707,0.707,0,1,1,-0.707,0A0.707,0.707,0,1,1,0.707,0" stroke="#4c78a8" stroke-width="2"/><path aria-label="population: 11555414.5; age: 35" role="graphics-symbol" aria-roledescription="point" transform="translate(192.59024166666669,150)" d="M0.707,0A0.707,0.707,0,1,1,-0.707,0A0.707,0.707,0,1,1,0.707,0" stroke="#4c78a8" stroke-width="2"/><path aria-label="population: 11404415; age: 40" role="graphics-symbol" aria-roledescription="point" transform="translate(190.07358333333332,170)" d="M0.707,0A0.707,0.707,0,1,1,-0.707,0A0.707,0.707,0,1,1,0.707,0" stroke="#4c78a8" stroke-width="2"/><path aria-label="population: 10093129.5; age: 45" role="graphics-symbol" aria-roledescription="point" transform="translate(168.218825,190)" d="M0.707,0A0.707,0.707,0,1,1,-0.707,0A0.707,0.707,0,1,1,0.707,0" stroke="#4c78a8" stroke-width="2"/><path aria-label="population: 8709533.5; age: 50" role="graphics-symbol" aria-roledescription="point" transform="translate(145.15889166666668,210)" d="M0.707,0A0.707,0.707,0,1,1,-0.707,0A0.707,0.707,0,1,1,0.707,0" stroke="#4c78a8" stroke-width="2"/><path aria-label="population: 6690175; age: 55" role="graphics-symbol" aria-roledescription="point" transform="translate(111.50291666666668,230)" d="M0.707,0A0.707,0.707,0,1,1,-0.707,0A0.707,0.707,0,1,1,0.707,0" stroke="#4c78a8" stroke-width="2"/><path aria-label="population: 5396180; age: 60" role="graphics-symbol" aria-roledescription="point" transform="translate(89.93633333333332,250)" d="M0.707,0A0.707,0.707,0,1,1,-0.707,0A0.707,0.707,0,1,1,0.707,0" stroke="#4c78a8" stroke-width="2"/><path aria-label="population: 4629203.5; age: 65" role="graphics-symbol" aria-roledescription="point" transform="translate(77.15339166666666,270)" d="M0.707,0A0.707,0.707,0,1,1,-0.707,0A0.707,0.707,0,1,1,0.707,0" stroke="#4c78a8" stroke-width="2"/><path aria-label="population: 4488500; age: 70" role="graphics-symbol" aria-roledescription="point" transform="translate(74.80833333333334,290)" d="M0.707,0A0.707,0.707,0,1,1,-0.707,0A0.707,0.707,0,1,1,0.707,0" stroke="#4c78a8" stroke-width="2"/><path aria-label="population: 3634149.5; age: 75" role="graphics-symbol" aria-roledescription="point" transform="translate(60.56915833333333,310)" d="M0.707,0A0.707,0.707,0,1,1,-0.707,0A0.707,0.707,0,1,1,0.707,0" stroke="#4c78a8" stroke-width="2"/><path aria-label="population: 2562268; age: 80" role="graphics-symbol" aria-roledescription="point" transform="translate(42.70446666666667,330)" d="M0.707,0A0.707,0.707,0,1,1,-0.707,0A0.707,0.707,0,1,1,0.707,0" stroke="#4c78a8" stroke-width="2"/><path aria-label="population: 1475756.5; age: 85" role="graphics-symbol" aria-roledescription="point" transform="translate(24.59594166666667,350)" d="M0.707,0A0.707,0.707,0,1,1,-0.707,0A0.707,0.707,0,1,1,0.707,0" stroke="#4c78a8" stroke-width="2"/><path aria-label="population: 700442; age: 90" role="graphics-symbol" aria-roledescription="point" transform="translate(11.674033333333334,370)" d="M0.707,0A0.707,0.707,0,1,1,-0.707,0A0.707,0.707,0,1,1,0.707,0" stroke="#4c78a8" stroke-width="2"/></g></g><path class="foreground" aria-hidden="true" d="" display="none"/></g></g></g></svg>