<svg class="marks" width="466" height="249" viewBox="0 0 466 249" version="1.1" xmlns="http://www.w3.org/2000/svg" xmlns:xlink="http://www.w3.org/1999/xlink"><rect width="466" height="249" style="fill: white;"></rect><g transform="translate(81,10)"><g class="mark-group role-frame root" role="graphics-object" aria-roledescription="group mark container"><g transform="translate(0,0)"><path class="background" aria-hidden="true" d="M0.5,0.5h380v200h-380Z" style="fill: none; stroke: #ddd;"></path><g><g class="mark-group role-axis" aria-hidden="true"><g transform="translate(0.5,0.5)"><path class="background" aria-hidden="true" d="M0,0h0v0h0Z" style="pointer-events: none; fill: none;"></path><g><g class="mark-rule role-axis-grid" style="pointer-events: none;"><line transform="translate(0,200)" x2="380" y2="0" style="fill: none; stroke: #ddd; stroke-width: 1; opacity: 1;"></line><line transform="translate(0,167)" x2="380" y2="0" style="fill: none; stroke: #ddd; stroke-width: 1; opacity: 1;"></line><line transform="translate(0,133)" x2="380" y2="0" style="fill: none; stroke: #ddd; stroke-width: 1; opacity: 1;"></line><line transform="translate(0,100)" x2="380" y2="0" style="fill: none; stroke: #ddd; stroke-width: 1; opacity: 1;"></line><line transform="translate(0,67)" x2="380" y2="0" style="fill: none; stroke: #ddd; stroke-width: 1; opacity: 1;"></line><line transform="translate(0,33)" x2="380" y2="0" style="fill: none; stroke: #ddd; stroke-width: 1; opacity: 1;"></line><line transform="translate(0,0)" x2="380" y2="0" style="fill: none; stroke: #ddd; stroke-width: 1; opacity: 1;"></line></g></g><path class="foreground" aria-hidden="true" d="" style="pointer-events: none; display: none; fill: none;"></path></g></g><g class="mark-group role-axis" role="graphics-symbol" aria-roledescription="axis" aria-label="X-axis titled 'age' for a discrete scale with 19 values: 0, 5, 10, 15, 20, ending with 90"><g transform="translate(0.5,200.5)"><path class="background" aria-hidden="true" d="M0,0h0v0h0Z" style="pointer-events: none; fill: none;"></path><g><g class="mark-rule role-axis-tick" style="pointer-events: none;"><line transform="translate(10,0)" x2="0" y2="5" style="fill: none; stroke: #888; stroke-width: 1; opacity: 1;"></line><line transform="translate(30,0)" x2="0" y2="5" style="fill: none; stroke: #888; stroke-width: 1; opacity: 1;"></line><line transform="translate(50,0)" x2="0" y2="5" style="fill: none; stroke: #888; stroke-width: 1; opacity: 1;"></line><line transform="translate(70,0)" x2="0" y2="5" style="fill: none; stroke: #888; stroke-width: 1; opacity: 1;"></line><line transform="translate(90,0)" x2="0" y2="5" style="fill: none; stroke: #888; stroke-width: 1; opacity: 1;"></line><line transform="translate(110,0)" x2="0" y2="5" style="fill: none; stroke: #888; stroke-width: 1; opacity: 1;"></line><line transform="translate(130,0)" x2="0" y2="5" style="fill: none; stroke: #888; stroke-width: 1; opacity: 1;"></line><line transform="translate(150,0)" x2="0" y2="5" style="fill: none; stroke: #888; stroke-width: 1; opacity: 1;"></line><line transform="translate(170,0)" x2="0" y2="5" style="fill: none; stroke: #888; stroke-width: 1; opacity: 1;"></line><line transform="translate(190,0)" x2="0" y2="5" style="fill: none; stroke: #888; stroke-width: 1; opacity: 1;"></line><line transform="translate(210,0)" x2="0" y2="5" style="fill: none; stroke: #888; stroke-width: 1; opacity: 1;"></line><line transform="translate(230,0)" x2="0" y2="5" style="fill: none; stroke: #888; stroke-width: 1; opacity: 1;"></line><line transform="translate(250,0)" x2="0" y2="5" style="fill: none; stroke: #888; stroke-width: 1; opacity: 1;"></line><line transform="translate(270,0)" x2="0" y2="5" style="fill: none; stroke: #888; stroke-width: 1; opacity: 1;"></line><line transform="translate(290,0)" x2="0" y2="5" style="fill: none; stroke: #888; stroke-width: 1; opacity: 1;"></line><line transform="translate(310,0)" x2="0" y2="5" style="fill: none; stroke: #888; stroke-width: 1; opacity: 1;"></line><line transform="translate(330,0)" x2="0" y2="5" style="fill: none; stroke: #888; stroke-width: 1; opacity: 1;"></line><line transform="translate(350,0)" x2="0" y2="5" style="fill: none; stroke: #888; stroke-width: 1; opacity: 1;"></line><line transform="translate(370,0)" x2="0" y2="5" style="fill: none; stroke: #888; stroke-width: 1; opacity: 1;"></line></g><g class="mark-text role-axis-label" style="pointer-events: none;"><text text-anchor="end" transform="translate(9.5,7) rotate(270) translate(0,3)" style="font-family: sans-serif; font-size: 10px; fill: #000; opacity: 1;">0</text><text text-anchor="end" transform="translate(29.5,7) rotate(270) translate(0,3)" style="font-family: sans-serif; font-size: 10px; fill: #000; opacity: 1;">5</text><text text-anchor="end" transform="translate(49.5,7) rotate(270) translate(0,3)" style="font-family: sans-serif; font-size: 10px; fill: #000; opacity: 1;">10</text><text text-anchor="end" transform="translate(69.5,7) rotate(270) translate(0,3)" style="font-family: sans-serif; font-size: 10px; fill: #000; opacity: 1;">15</text><text text-anchor="end" transform="translate(89.5,7) rotate(270) translate(0,3)" style="font-family: sans-serif; font-size: 10px; fill: #000; opacity: 1;">20</text><text text-anchor="end" transform="translate(109.5,7) rotate(270) translate(0,3)" style="font-family: sans-serif; font-size: 10px; fill: #000; opacity: 1;">25</text><text text-anchor="end" transform="translate(129.5,7) rotate(270) translate(0,3)" style="font-family: sans-serif; font-size: 10px; fill: #000; opacity: 1;">30</text><text text-anchor="end" transform="translate(149.5,7) rotate(270) translate(0,3)" style="font-family: sans-serif; font-size: 10px; fill: #000; opacity: 1;">35</text><text text-anchor="end" transform="translate(169.5,7) rotate(270) translate(0,3)" style="font-family: sans-serif; font-size: 10px; fill: #000; opacity: 1;">40</text><text text-anchor="end" transform="translate(189.5,7) rotate(270) translate(0,3)" style="font-family: sans-serif; font-size: 10px; fill: #000; opacity: 1;">45</text><text text-anchor="end" transform="translate(209.5,7) rotate(270) translate(0,3)" style="font-family: sans-serif; font-size: 10px; fill: #000; opacity: 1;">50</text><text text-anchor="end" transform="translate(229.5,7) rotate(270) translate(0,3)" style="font-family: sans-serif; font-size: 10px; fill: #000; opacity: 1;">55</text><text text-anchor="end" transform="translate(249.5,7) rotate(270) translate(0,3)" style="font-family: sans-serif; font-size: 10px; fill: #000; opacity: 1;">60</text><text text-anchor="end" transform="translate(269.5,7) rotate(270) translate(0,3)" style="font-family: sans-serif; font-size: 10px; fill: #000; opacity: 1;">65</text><text text-anchor="end" transform="translate(289.5,7) rotate(270) translate(0,3)" style="font-family: sans-serif; font-size: 10px; fill: #000; opacity: 1;">70</text><text text-anchor="end" transform="translate(309.5,7) rotate(270) translate(0,3)" style="font-family: sans-serif; font-size: 10px; fill: #000; opacity: 1;">75</text><text text-anchor="end" transform="translate(329.5,7) rotate(270) translate(0,3)" style="font-family: sans-serif; font-size: 10px; fill: #000; opacity: 1;">80</text><text text-anchor="end" transform="translate(349.5,7) rotate(270) translate(0,3)" style="font-family: sans-serif; font-size: 10px; fill: #000; opacity: 1;">85</text><text text-anchor="end" transform="translate(369.5,7) rotate(270) translate(0,3)" style="font-family: sans-serif; font-size: 10px; fill: #000; opacity: 1;">90</text></g><g class="mark-rule role-axis-domain" style="pointer-events: none;"><line transform="translate(0,0)" x2="380" y2="0" style="fill: none; stroke: #888; stroke-width: 1; opacity: 1;"></line></g><g class="mark-text role-axis-title" style="pointer-events: none;"><text text-anchor="middle" transform="translate(190,32)" style="font-family: sans-serif; font-size: 11px; font-weight: bold; fill: #000; opacity: 1;">age</text></g></g><path class="foreground" aria-hidden="true" d="" style="pointer-events: none; display: none; fill: none;"></path></g></g><g class="mark-group role-axis" role="graphics-symbol" aria-roledescription="axis" aria-label="Y-axis titled 'population' for a linear scale with values from 0 to 12,000,000"><g transform="translate(0.5,0.5)"><path class="background" aria-hidden="true" d="M0,0h0v0h0Z" style="pointer-events: none; fill: none;"></path><g><g class="mark-rule role-axis-tick" style="pointer-events: none;"><line transform="translate(0,200)" x2="-5" y2="0" style="fill: none; stroke: #888; stroke-width: 1; opacity: 1;"></line><line transform="translate(0,167)" x2="-5" y2="0" style="fill: none; stroke: #888; stroke-width: 1; opacity: 1;"></line><line transform="translate(0,133)" x2="-5" y2="0" style="fill: none; stroke: #888; stroke-width: 1; opacity: 1;"></line><line transform="translate(0,100)" x2="-5" y2="0" style="fill: none; stroke: #888; stroke-width: 1; opacity: 1;"></line><line transform="translate(0,67)" x2="-5" y2="0" style="fill: none; stroke: #888; stroke-width: 1; opacity: 1;"></line><line transform="translate(0,33)" x2="-5" y2="0" style="fill: none; stroke: #888; stroke-width: 1; opacity: 1;"></line><line transform="translate(0,0)" x2="-5" y2="0" style="fill: none; stroke: #888; stroke-width: 1; opacity: 1;"></line></g><g class="mark-text role-axis-label" style="pointer-events: none;"><text text-anchor="end" transform="translate(-7,203)" style="font-family: sans-serif; font-size: 10px; fill: #000; opacity: 1;">0</text><text text-anchor="end" transform="translate(-7,169.66666666666669)" style="font-family: sans-serif; font-size: 10px; fill: #000; opacity: 1;">2,000,000</text><text text-anchor="end" transform="translate(-7,136.33333333333334)" style="font-family: sans-serif; font-size: 10px; fill: #000; opacity: 1;">4,000,000</text><text text-anchor="end" transform="translate(-7,103)" style="font-family: sans-serif; font-size: 10px; fill: #000; opacity: 1;">6,000,000</text><text text-anchor="end" transform="translate(-7,69.66666666666667)" style="font-family: sans-serif; font-size: 10px; fill: #000; opacity: 1;">8,000,000</text><text text-anchor="end" transform="translate(-7,36.33333333333333)" style="font-family: sans-serif; font-size: 10px; fill: #000; opacity: 1;">10,000,000</text><text text-anchor="end" transform="translate(-7,3)" style="font-family: sans-serif; font-size: 10px; fill: #000; opacity: 1;">12,000,000</text></g><g class="mark-rule role-axis-domain" style="pointer-events: none;"><line transform="translate(0,200)" x2="0" y2="-200" style="fill: none; stroke: #888; stroke-width: 1; opacity: 1;"></line></g><g class="mark-text role-axis-title" style="pointer-events: none;"><text text-anchor="middle" transform="translate(-65,100) rotate(-90) translate(0,-2)" style="font-family: sans-serif; font-size: 11px; font-weight: bold; fill: #000; opacity: 1;">population</text></g></g><path class="foreground" aria-hidden="true" d="" style="pointer-events: none; display: none; fill: none;"></path></g></g><g class="mark-rule role-mark layer_0_marks" role="graphics-object" aria-roledescription="rule mark container"><line aria-label="age: 0; population: 9310714; Max of people: 9735380" role="graphics-symbol" aria-roledescription="rule mark" transform="translate(10,44.821433333333324)" x2="0" y2="-7.077766666666662" style="fill: none; stroke: black;"></line><line aria-label="age: 5; population: 10069564; Max of people: 10552146" role="graphics-symbol" aria-roledescription="rule mark" transform="translate(30,32.17393333333334)" x2="0" y2="-8.043033333333337" style="fill: none; stroke: black;"></line><line aria-label="age: 10; population: 10022524; Max of people: 10563233" role="graphics-symbol" aria-roledescription="rule mark" transform="translate(50,32.95793333333332)" x2="0" y2="-9.011816666666661" style="fill: none; stroke: black;"></line><line aria-label="age: 15; population: 9692669; Max of people: 10237419" role="graphics-symbol" aria-roledescription="rule mark" transform="translate(70,38.45551666666667)" x2="0" y2="-9.079166666666662" style="fill: none; stroke: black;"></line><line aria-label="age: 20; population: 9324244; Max of people: 9731315" role="graphics-symbol" aria-roledescription="rule mark" transform="translate(90,44.595933333333335)" x2="0" y2="-6.784516666666661" style="fill: none; stroke: black;"></line><line aria-label="age: 25; population: 9518507; Max of people: 9659493" role="graphics-symbol" aria-roledescription="rule mark" transform="translate(110,41.35821666666666)" x2="0" y2="-2.3497666666666603" style="fill: none; stroke: black;"></line><line aria-label="age: 30; population: 10119296; Max of people: 10205879" role="graphics-symbol" aria-roledescription="rule mark" transform="translate(130,31.345066666666675)" x2="0" y2="-1.4430499999999995" style="fill: none; stroke: black;"></line><line aria-label="age: 35; population: 11475182; Max of people: 11635647" role="graphics-symbol" aria-roledescription="rule mark" transform="translate(150,8.746966666666655)" x2="0" y2="-2.674416666666656" style="fill: none; stroke: black;"></line><line aria-label="age: 40; population: 11320252; Max of people: 11488578" role="graphics-symbol" aria-roledescription="rule mark" transform="translate(170,11.329133333333342)" x2="0" y2="-2.8054333333333403" style="fill: none; stroke: black;"></line><line aria-label="age: 45; population: 9925006; Max of people: 10261253" role="graphics-symbol" aria-roledescription="rule mark" transform="translate(190,34.58323333333333)" x2="0" y2="-5.604116666666673" style="fill: none; stroke: black;"></line><line aria-label="age: 50; population: 8507934; Max of people: 8911133" role="graphics-symbol" aria-roledescription="rule mark" transform="translate(210,58.201100000000004)" x2="0" y2="-6.719983333333346" style="fill: none; stroke: black;"></line><line aria-label="age: 55; population: 6459082; Max of people: 6921268" role="graphics-symbol" aria-roledescription="rule mark" transform="translate(230,92.34863333333334)" x2="0" y2="-7.703100000000006" style="fill: none; stroke: black;"></line><line aria-label="age: 60; population: 5123399; Max of people: 5668961" role="graphics-symbol" aria-roledescription="rule mark" transform="translate(250,114.61001666666668)" x2="0" y2="-9.092700000000022" style="fill: none; stroke: black;"></line><line aria-label="age: 65; population: 4453623; Max of people: 4804784" role="graphics-symbol" aria-roledescription="rule mark" transform="translate(270,125.77295)" x2="0" y2="-5.8526833333333315" style="fill: none; stroke: black;"></line><line aria-label="age: 70; population: 3792145; Max of people: 5184855" role="graphics-symbol" aria-roledescription="rule mark" transform="translate(290,136.79758333333334)" x2="0" y2="-23.211833333333345" style="fill: none; stroke: black;"></line><line aria-label="age: 75; population: 2912655; Max of people: 4355644" role="graphics-symbol" aria-roledescription="rule mark" transform="translate(310,151.45575)" x2="0" y2="-24.049816666666672" style="fill: none; stroke: black;"></line><line aria-label="age: 80; population: 1902638; Max of people: 3221898" role="graphics-symbol" aria-roledescription="rule mark" transform="translate(330,168.28936666666667)" x2="0" y2="-21.987666666666655" style="fill: none; stroke: black;"></line><line aria-label="age: 85; population: 970357; Max of people: 1981156" role="graphics-symbol" aria-roledescription="rule mark" transform="translate(350,183.82738333333333)" x2="0" y2="-16.846649999999983" style="fill: none; stroke: black;"></line><line aria-label="age: 90; population: 336303; Max of people: 1064581" role="graphics-symbol" aria-roledescription="rule mark" transform="translate(370,194.39495)" x2="0" y2="-12.13796666666667" style="fill: none; stroke: black;"></line></g><g class="mark-rect role-mark layer_1_marks" role="graphics-object" aria-roledescription="rect mark container"><path aria-label="age: 0; population: 9310714" role="graphics-symbol" aria-roledescription="tick" d="M7.5,44.321433333333324h5v1h-5Z" style="fill: #4c78a8;"></path><path aria-label="age: 5; population: 10069564" role="graphics-symbol" aria-roledescription="tick" d="M27.5,31.673933333333338h5v1h-5Z" style="fill: #4c78a8;"></path><path aria-label="age: 10; population: 10022524" role="graphics-symbol" aria-roledescription="tick" d="M47.5,32.45793333333332h5v1h-5Z" style="fill: #4c78a8;"></path><path aria-label="age: 15; population: 9692669" role="graphics-symbol" aria-roledescription="tick" d="M67.5,37.95551666666667h5v1h-5Z" style="fill: #4c78a8;"></path><path aria-label="age: 20; population: 9324244" role="graphics-symbol" aria-roledescription="tick" d="M87.5,44.095933333333335h5v1h-5Z" style="fill: #4c78a8;"></path><path aria-label="age: 25; population: 9518507" role="graphics-symbol" aria-roledescription="tick" d="M107.5,40.85821666666666h5v1h-5Z" style="fill: #4c78a8;"></path><path aria-label="age: 30; population: 10119296" role="graphics-symbol" aria-roledescription="tick" d="M127.5,30.845066666666675h5v1h-5Z" style="fill: #4c78a8;"></path><path aria-label="age: 35; population: 11475182" role="graphics-symbol" aria-roledescription="tick" d="M147.5,8.246966666666655h5v1h-5Z" style="fill: #4c78a8;"></path><path aria-label="age: 40; population: 11320252" role="graphics-symbol" aria-roledescription="tick" d="M167.5,10.829133333333342h5v1h-5Z" style="fill: #4c78a8;"></path><path aria-label="age: 45; population: 9925006" role="graphics-symbol" aria-roledescription="tick" d="M187.5,34.08323333333333h5v1h-5Z" style="fill: #4c78a8;"></path><path aria-label="age: 50; population: 8507934" role="graphics-symbol" aria-roledescription="tick" d="M207.5,57.701100000000004h5v1h-5Z" style="fill: #4c78a8;"></path><path aria-label="age: 55; population: 6459082" role="graphics-symbol" aria-roledescription="tick" d="M227.5,91.84863333333334h5v1h-5Z" style="fill: #4c78a8;"></path><path aria-label="age: 60; population: 5123399" role="graphics-symbol" aria-roledescription="tick" d="M247.5,114.11001666666668h5v1h-5Z" style="fill: #4c78a8;"></path><path aria-label="age: 65; population: 4453623" role="graphics-symbol" aria-roledescription="tick" d="M267.5,125.27295h5v1h-5Z" style="fill: #4c78a8;"></path><path aria-label="age: 70; population: 3792145" role="graphics-symbol" aria-roledescription="tick" d="M287.5,136.29758333333334h5v1h-5Z" style="fill: #4c78a8;"></path><path aria-label="age: 75; population: 2912655" role="graphics-symbol" aria-roledescription="tick" d="M307.5,150.95575h5v1h-5Z" style="fill: #4c78a8;"></path><path aria-label="age: 80; population: 1902638" role="graphics-symbol" aria-roledescription="tick" d="M327.5,167.78936666666667h5v1h-5Z" style="fill: #4c78a8;"></path><path aria-label="age: 85; population: 970357" role="graphics-symbol" aria-roledescription="tick" d="M347.5,183.32738333333333h5v1h-5Z" style="fill: #4c78a8;"></path><path aria-label="age: 90; population: 336303" role="graphics-symbol" aria-roledescription="tick" d="M367.5,193.89495h5v1h-5Z" style="fill: #4c78a8;"></path></g><g class="mark-rect role-mark layer_2_marks" role="graphics-object" aria-roledescription="rect mark container"><path aria-label="age: 0; population: 9735380" role="graphics-symbol" aria-roledescription="tick" d="M7.5,37.24366666666666h5v1h-5Z" style="fill: #4c78a8;"></path><path aria-label="age: 5; population: 10552146" role="graphics-symbol" aria-roledescription="tick" d="M27.5,23.6309h5v1h-5Z" style="fill: #4c78a8;"></path><path aria-label="age: 10; population: 10563233" role="graphics-symbol" aria-roledescription="tick" d="M47.5,23.44611666666666h5v1h-5Z" style="fill: #4c78a8;"></path><path aria-label="age: 15; population: 10237419" role="graphics-symbol" aria-roledescription="tick" d="M67.5,28.876350000000006h5v1h-5Z" style="fill: #4c78a8;"></path><path aria-label="age: 20; population: 9731315" role="graphics-symbol" aria-roledescription="tick" d="M87.5,37.31141666666667h5v1h-5Z" style="fill: #4c78a8;"></path><path aria-label="age: 25; population: 9659493" role="graphics-symbol" aria-roledescription="tick" d="M107.5,38.508449999999996h5v1h-5Z" style="fill: #4c78a8;"></path><path aria-label="age: 30; population: 10205879" role="graphics-symbol" aria-roledescription="tick" d="M127.5,29.402016666666675h5v1h-5Z" style="fill: #4c78a8;"></path><path aria-label="age: 35; population: 11635647" role="graphics-symbol" aria-roledescription="tick" d="M147.5,5.572549999999999h5v1h-5Z" style="fill: #4c78a8;"></path><path aria-label="age: 40; population: 11488578" role="graphics-symbol" aria-roledescription="tick" d="M167.5,8.023700000000002h5v1h-5Z" style="fill: #4c78a8;"></path><path aria-label="age: 45; population: 10261253" role="graphics-symbol" aria-roledescription="tick" d="M187.5,28.47911666666666h5v1h-5Z" style="fill: #4c78a8;"></path><path aria-label="age: 50; population: 8911133" role="graphics-symbol" aria-roledescription="tick" d="M207.5,50.98111666666666h5v1h-5Z" style="fill: #4c78a8;"></path><path aria-label="age: 55; population: 6921268" role="graphics-symbol" aria-roledescription="tick" d="M227.5,84.14553333333333h5v1h-5Z" style="fill: #4c78a8;"></path><path aria-label="age: 60; population: 5668961" role="graphics-symbol" aria-roledescription="tick" d="M247.5,105.01731666666666h5v1h-5Z" style="fill: #4c78a8;"></path><path aria-label="age: 65; population: 4804784" role="graphics-symbol" aria-roledescription="tick" d="M267.5,119.42026666666666h5v1h-5Z" style="fill: #4c78a8;"></path><path aria-label="age: 70; population: 5184855" role="graphics-symbol" aria-roledescription="tick" d="M287.5,113.08574999999999h5v1h-5Z" style="fill: #4c78a8;"></path><path aria-label="age: 75; population: 4355644" role="graphics-symbol" aria-roledescription="tick" d="M307.5,126.90593333333332h5v1h-5Z" style="fill: #4c78a8;"></path><path aria-label="age: 80; population: 3221898" role="graphics-symbol" aria-roledescription="tick" d="M327.5,145.8017h5v1h-5Z" style="fill: #4c78a8;"></path><path aria-label="age: 85; population: 1981156" role="graphics-symbol" aria-roledescription="tick" d="M347.5,166.48073333333335h5v1h-5Z" style="fill: #4c78a8;"></path><path aria-label="age: 90; population: 1064581" role="graphics-symbol" aria-roledescription="tick" d="M367.5,181.75698333333332h5v1h-5Z" style="fill: #4c78a8;"></path></g><g class="mark-symbol role-mark layer_3_marks" role="graphics-object" aria-roledescription="symbol mark container"><path aria-label="age: 0; population: 9523047" role="graphics-symbol" aria-roledescription="point" transform="translate(10,41.28255000000001)" d="M0.7071067811865476,0A0.7071067811865476,0.7071067811865476,0,1,1,-0.7071067811865476,0A0.7071067811865476,0.7071067811865476,0,1,1,0.7071067811865476,0" style="fill: none; stroke: #4c78a8; stroke-width: 2;"></path><path aria-label="age: 5; population: 10310855" role="graphics-symbol" aria-roledescription="point" transform="translate(30,28.152416666666657)" d="M0.7071067811865476,0A0.7071067811865476,0.7071067811865476,0,1,1,-0.7071067811865476,0A0.7071067811865476,0.7071067811865476,0,1,1,0.7071067811865476,0" style="fill: none; stroke: #4c78a8; stroke-width: 2;"></path><path aria-label="age: 10; population: 10292878.5" role="graphics-symbol" aria-roledescription="point" transform="translate(50,28.452024999999992)" d="M0.7071067811865476,0A0.7071067811865476,0.7071067811865476,0,1,1,-0.7071067811865476,0A0.7071067811865476,0.7071067811865476,0,1,1,0.7071067811865476,0" style="fill: none; stroke: #4c78a8; stroke-width: 2;"></path><path aria-label="age: 15; population: 9965044" role="graphics-symbol" aria-roledescription="point" transform="translate(70,33.915933333333335)" d="M0.7071067811865476,0A0.7071067811865476,0.7071067811865476,0,1,1,-0.7071067811865476,0A0.7071067811865476,0.7071067811865476,0,1,1,0.7071067811865476,0" style="fill: none; stroke: #4c78a8; stroke-width: 2;"></path><path aria-label="age: 20; population: 9527779.5" role="graphics-symbol" aria-roledescription="point" transform="translate(90,41.203675)" d="M0.7071067811865476,0A0.7071067811865476,0.7071067811865476,0,1,1,-0.7071067811865476,0A0.7071067811865476,0.7071067811865476,0,1,1,0.7071067811865476,0" style="fill: none; stroke: #4c78a8; stroke-width: 2;"></path><path aria-label="age: 25; population: 9589000" role="graphics-symbol" aria-roledescription="point" transform="translate(110,40.18333333333332)" d="M0.7071067811865476,0A0.7071067811865476,0.7071067811865476,0,1,1,-0.7071067811865476,0A0.7071067811865476,0.7071067811865476,0,1,1,0.7071067811865476,0" style="fill: none; stroke: #4c78a8; stroke-width: 2;"></path><path aria-label="age: 30; population: 10162587.5" role="graphics-symbol" aria-roledescription="point" transform="translate(130,30.623541666666675)" d="M0.7071067811865476,0A0.7071067811865476,0.7071067811865476,0,1,1,-0.7071067811865476,0A0.7071067811865476,0.7071067811865476,0,1,1,0.7071067811865476,0" style="fill: none; stroke: #4c78a8; stroke-width: 2;"></path><path aria-label="age: 35; population: 11555414.5" role="graphics-symbol" aria-roledescription="point" transform="translate(150,7.409758333333327)" d="M0.7071067811865476,0A0.7071067811865476,0.7071067811865476,0,1,1,-0.7071067811865476,0A0.7071067811865476,0.7071067811865476,0,1,1,0.7071067811865476,0" style="fill: none; stroke: #4c78a8; stroke-width: 2;"></path><path aria-label="age: 40; population: 11404415" role="graphics-symbol" aria-roledescription="point" transform="translate(170,9.926416666666672)" d="M0.7071067811865476,0A0.7071067811865476,0.7071067811865476,0,1,1,-0.7071067811865476,0A0.7071067811865476,0.7071067811865476,0,1,1,0.7071067811865476,0" style="fill: none; stroke: #4c78a8; stroke-width: 2;"></path><path aria-label="age: 45; population: 10093129.5" role="graphics-symbol" aria-roledescription="point" transform="translate(190,31.781174999999994)" d="M0.7071067811865476,0A0.7071067811865476,0.7071067811865476,0,1,1,-0.7071067811865476,0A0.7071067811865476,0.7071067811865476,0,1,1,0.7071067811865476,0" style="fill: none; stroke: #4c78a8; stroke-width: 2;"></path><path aria-label="age: 50; population: 8709533.5" role="graphics-symbol" aria-roledescription="point" transform="translate(210,54.84110833333333)" d="M0.7071067811865476,0A0.7071067811865476,0.7071067811865476,0,1,1,-0.7071067811865476,0A0.7071067811865476,0.7071067811865476,0,1,1,0.7071067811865476,0" style="fill: none; stroke: #4c78a8; stroke-width: 2;"></path><path aria-label="age: 55; population: 6690175" role="graphics-symbol" aria-roledescription="point" transform="translate(230,88.49708333333332)" d="M0.7071067811865476,0A0.7071067811865476,0.7071067811865476,0,1,1,-0.7071067811865476,0A0.7071067811865476,0.7071067811865476,0,1,1,0.7071067811865476,0" style="fill: none; stroke: #4c78a8; stroke-width: 2;"></path><path aria-label="age: 60; population: 5396180" role="graphics-symbol" aria-roledescription="point" transform="translate(250,110.06366666666668)" d="M0.7071067811865476,0A0.7071067811865476,0.7071067811865476,0,1,1,-0.7071067811865476,0A0.7071067811865476,0.7071067811865476,0,1,1,0.7071067811865476,0" style="fill: none; stroke: #4c78a8; stroke-width: 2;"></path><path aria-label="age: 65; population: 4629203.5" role="graphics-symbol" aria-roledescription="point" transform="translate(270,122.84660833333332)" d="M0.7071067811865476,0A0.7071067811865476,0.7071067811865476,0,1,1,-0.7071067811865476,0A0.7071067811865476,0.7071067811865476,0,1,1,0.7071067811865476,0" style="fill: none; stroke: #4c78a8; stroke-width: 2;"></path><path aria-label="age: 70; population: 4488500" role="graphics-symbol" aria-roledescription="point" transform="translate(290,125.19166666666668)" d="M0.7071067811865476,0A0.7071067811865476,0.7071067811865476,0,1,1,-0.7071067811865476,0A0.7071067811865476,0.7071067811865476,0,1,1,0.7071067811865476,0" style="fill: none; stroke: #4c78a8; stroke-width: 2;"></path><path aria-label="age: 75; population: 3634149.5" role="graphics-symbol" aria-roledescription="point" transform="translate(310,139.43084166666665)" d="M0.7071067811865476,0A0.7071067811865476,0.7071067811865476,0,1,1,-0.7071067811865476,0A0.7071067811865476,0.7071067811865476,0,1,1,0.7071067811865476,0" style="fill: none; stroke: #4c78a8; stroke-width: 2;"></path><path aria-label="age: 80; population: 2562268" role="graphics-symbol" aria-roledescription="point" transform="translate(330,157.29553333333334)" d="M0.7071067811865476,0A0.7071067811865476,0.7071067811865476,0,1,1,-0.7071067811865476,0A0.7071067811865476,0.7071067811865476,0,1,1,0.7071067811865476,0" style="fill: none; stroke: #4c78a8; stroke-width: 2;"></path><path aria-label="age: 85; population: 1475756.5" role="graphics-symbol" aria-roledescription="point" transform="translate(350,175.40405833333332)" d="M0.7071067811865476,0A0.7071067811865476,0.7071067811865476,0,1,1,-0.7071067811865476,0A0.7071067811865476,0.7071067811865476,0,1,1,0.7071067811865476,0" style="fill: none; stroke: #4c78a8; stroke-width: 2;"></path><path aria-label="age: 90; population: 700442" role="graphics-symbol" aria-roledescription="point" transform="translate(370,188.32596666666666)" d="M0.7071067811865476,0A0.7071067811865476,0.7071067811865476,0,1,1,-0.7071067811865476,0A0.7071067811865476,0.7071067811865476,0,1,1,0.7071067811865476,0" style="fill: none; stroke: #4c78a8; stroke-width: 2;"></path></g></g><path class="foreground" aria-hidden="true" d="" style="display: none; fill: none;"></path></g></g></g></svg>