<svg class="marks" width="258" height="444" viewBox="0 0 258 444" version="1.1" xmlns="http://www.w3.org/2000/svg" xmlns:xlink="http://www.w3.org/1999/xlink"><g transform="translate(52,5)"><g class="mark-group role-frame root"><g transform="translate(0,0)"><path class="background" d="M0.5,0.5h200v399h-200Z" style="fill: none; stroke: #ddd;"></path><g><g class="mark-group role-axis"><g transform="translate(0.5,399.5)"><path class="background" d="M0,0h0v0h0Z" style="pointer-events: none; fill: none;"></path><g><g class="mark-rule role-axis-grid" style="pointer-events: none;"><line transform="translate(0,0)" x2="0" y2="-399" style="fill: none; stroke: #ddd; stroke-width: 1; opacity: 1;"></line><line transform="translate(33,0)" x2="0" y2="-399" style="fill: none; stroke: #ddd; stroke-width: 1; opacity: 1;"></line><line transform="translate(67,0)" x2="0" y2="-399" style="fill: none; stroke: #ddd; stroke-width: 1; opacity: 1;"></line><line transform="translate(100,0)" x2="0" y2="-399" style="fill: none; stroke: #ddd; stroke-width: 1; opacity: 1;"></line><line transform="translate(133,0)" x2="0" y2="-399" style="fill: none; stroke: #ddd; stroke-width: 1; opacity: 1;"></line><line transform="translate(167,0)" x2="0" y2="-399" style="fill: none; stroke: #ddd; stroke-width: 1; opacity: 1;"></line><line transform="translate(200,0)" x2="0" y2="-399" style="fill: none; stroke: #ddd; stroke-width: 1; opacity: 1;"></line></g></g></g></g><g class="mark-rule role-mark layer_0_marks"><line transform="translate(155.17856666666668,10.500000000000012)" x2="7.077766666666662" y2="0" style="fill: none; stroke: black;"></line><line transform="translate(167.82606666666666,31.500000000000014)" x2="8.04303333333334" y2="0" style="fill: none; stroke: black;"></line><line transform="translate(167.04206666666667,52.500000000000014)" x2="9.011816666666675" y2="0" style="fill: none; stroke: black;"></line><line transform="translate(161.54448333333335,73.50000000000001)" x2="9.079166666666652" y2="0" style="fill: none; stroke: black;"></line><line transform="translate(155.40406666666667,94.50000000000001)" x2="6.784516666666661" y2="0" style="fill: none; stroke: black;"></line><line transform="translate(158.64178333333334,115.50000000000001)" x2="2.3497666666666817" y2="0" style="fill: none; stroke: black;"></line><line transform="translate(168.65493333333333,136.5)" x2="1.4430499999999995" y2="0" style="fill: none; stroke: black;"></line><line transform="translate(191.25303333333335,157.5)" x2="2.6744166666666445" y2="0" style="fill: none; stroke: black;"></line><line transform="translate(188.67086666666665,178.5)" x2="2.8054333333333545" y2="0" style="fill: none; stroke: black;"></line><line transform="translate(165.41676666666666,199.5)" x2="5.60411666666667" y2="0" style="fill: none; stroke: black;"></line><line transform="translate(141.7989,220.5)" x2="6.719983333333346" y2="0" style="fill: none; stroke: black;"></line><line transform="translate(107.65136666666666,241.5)" x2="7.703100000000006" y2="0" style="fill: none; stroke: black;"></line><line transform="translate(85.38998333333333,262.5)" x2="9.092699999999994" y2="0" style="fill: none; stroke: black;"></line><line transform="translate(74.22705,283.5)" x2="5.8526833333333315" y2="0" style="fill: none; stroke: black;"></line><line transform="translate(63.20241666666667,304.5)" x2="23.211833333333338" y2="0" style="fill: none; stroke: black;"></line><line transform="translate(48.54425,325.5)" x2="24.049816666666665" y2="0" style="fill: none; stroke: black;"></line><line transform="translate(31.710633333333334,346.5)" x2="21.987666666666662" y2="0" style="fill: none; stroke: black;"></line><line transform="translate(16.172616666666666,367.5)" x2="16.84665" y2="0" style="fill: none; stroke: black;"></line><line transform="translate(5.60505,388.5)" x2="12.137966666666665" y2="0" style="fill: none; stroke: black;"></line></g><g class="mark-rect role-mark layer_1_marks"><path d="M154.67856666666668,8.000000000000012h1v5h-1Z" style="fill: #4c78a8;"></path><path d="M167.32606666666666,29.000000000000014h1v5h-1Z" style="fill: #4c78a8;"></path><path d="M166.54206666666667,50.000000000000014h1v5h-1Z" style="fill: #4c78a8;"></path><path d="M161.04448333333335,71.00000000000001h1v5h-1Z" style="fill: #4c78a8;"></path><path d="M154.90406666666667,92.00000000000001h1v5h-1Z" style="fill: #4c78a8;"></path><path d="M158.14178333333334,113.00000000000001h1v5h-1Z" style="fill: #4c78a8;"></path><path d="M168.15493333333333,134h1v5h-1Z" style="fill: #4c78a8;"></path><path d="M190.75303333333335,155h1v5h-1Z" style="fill: #4c78a8;"></path><path d="M188.17086666666665,176h1v5h-1Z" style="fill: #4c78a8;"></path><path d="M164.91676666666666,197h1v5h-1Z" style="fill: #4c78a8;"></path><path d="M141.2989,218h1v5h-1Z" style="fill: #4c78a8;"></path><path d="M107.15136666666666,239h1v5h-1Z" style="fill: #4c78a8;"></path><path d="M84.88998333333333,260h1v5h-1Z" style="fill: #4c78a8;"></path><path d="M73.72705,281h1v5h-1Z" style="fill: #4c78a8;"></path><path d="M62.70241666666667,302h1v5h-1Z" style="fill: #4c78a8;"></path><path d="M48.04425,323h1v5h-1Z" style="fill: #4c78a8;"></path><path d="M31.210633333333334,344h1v5h-1Z" style="fill: #4c78a8;"></path><path d="M15.672616666666666,365h1v5h-1Z" style="fill: #4c78a8;"></path><path d="M5.10505,386h1v5h-1Z" style="fill: #4c78a8;"></path></g><g class="mark-rect role-mark layer_2_marks"><path d="M161.75633333333334,8.000000000000012h1v5h-1Z" style="fill: #4c78a8;"></path><path d="M175.3691,29.000000000000014h1v5h-1Z" style="fill: #4c78a8;"></path><path d="M175.55388333333335,50.000000000000014h1v5h-1Z" style="fill: #4c78a8;"></path><path d="M170.12365,71.00000000000001h1v5h-1Z" style="fill: #4c78a8;"></path><path d="M161.68858333333333,92.00000000000001h1v5h-1Z" style="fill: #4c78a8;"></path><path d="M160.49155000000002,113.00000000000001h1v5h-1Z" style="fill: #4c78a8;"></path><path d="M169.59798333333333,134h1v5h-1Z" style="fill: #4c78a8;"></path><path d="M193.42745,155h1v5h-1Z" style="fill: #4c78a8;"></path><path d="M190.9763,176h1v5h-1Z" style="fill: #4c78a8;"></path><path d="M170.52088333333333,197h1v5h-1Z" style="fill: #4c78a8;"></path><path d="M148.01888333333335,218h1v5h-1Z" style="fill: #4c78a8;"></path><path d="M114.85446666666667,239h1v5h-1Z" style="fill: #4c78a8;"></path><path d="M93.98268333333333,260h1v5h-1Z" style="fill: #4c78a8;"></path><path d="M79.57973333333334,281h1v5h-1Z" style="fill: #4c78a8;"></path><path d="M85.91425000000001,302h1v5h-1Z" style="fill: #4c78a8;"></path><path d="M72.09406666666666,323h1v5h-1Z" style="fill: #4c78a8;"></path><path d="M53.198299999999996,344h1v5h-1Z" style="fill: #4c78a8;"></path><path d="M32.51926666666667,365h1v5h-1Z" style="fill: #4c78a8;"></path><path d="M17.243016666666666,386h1v5h-1Z" style="fill: #4c78a8;"></path></g><g class="mark-symbol role-mark layer_3_marks"><path transform="translate(158.71744999999999,10.500000000000012)" d="M0.7071067811865476,0A0.7071067811865476,0.7071067811865476,0,1,1,-0.7071067811865476,0A0.7071067811865476,0.7071067811865476,0,1,1,0.7071067811865476,0" style="fill: none; stroke: #4c78a8; stroke-width: 2;"></path><path transform="translate(171.84758333333335,31.500000000000014)" d="M0.7071067811865476,0A0.7071067811865476,0.7071067811865476,0,1,1,-0.7071067811865476,0A0.7071067811865476,0.7071067811865476,0,1,1,0.7071067811865476,0" style="fill: none; stroke: #4c78a8; stroke-width: 2;"></path><path transform="translate(171.547975,52.500000000000014)" d="M0.7071067811865476,0A0.7071067811865476,0.7071067811865476,0,1,1,-0.7071067811865476,0A0.7071067811865476,0.7071067811865476,0,1,1,0.7071067811865476,0" style="fill: none; stroke: #4c78a8; stroke-width: 2;"></path><path transform="translate(166.08406666666667,73.50000000000001)" d="M0.7071067811865476,0A0.7071067811865476,0.7071067811865476,0,1,1,-0.7071067811865476,0A0.7071067811865476,0.7071067811865476,0,1,1,0.7071067811865476,0" style="fill: none; stroke: #4c78a8; stroke-width: 2;"></path><path transform="translate(158.796325,94.50000000000001)" d="M0.7071067811865476,0A0.7071067811865476,0.7071067811865476,0,1,1,-0.7071067811865476,0A0.7071067811865476,0.7071067811865476,0,1,1,0.7071067811865476,0" style="fill: none; stroke: #4c78a8; stroke-width: 2;"></path><path transform="translate(159.81666666666666,115.50000000000001)" d="M0.7071067811865476,0A0.7071067811865476,0.7071067811865476,0,1,1,-0.7071067811865476,0A0.7071067811865476,0.7071067811865476,0,1,1,0.7071067811865476,0" style="fill: none; stroke: #4c78a8; stroke-width: 2;"></path><path transform="translate(169.37645833333332,136.5)" d="M0.7071067811865476,0A0.7071067811865476,0.7071067811865476,0,1,1,-0.7071067811865476,0A0.7071067811865476,0.7071067811865476,0,1,1,0.7071067811865476,0" style="fill: none; stroke: #4c78a8; stroke-width: 2;"></path><path transform="translate(192.59024166666669,157.5)" d="M0.7071067811865476,0A0.7071067811865476,0.7071067811865476,0,1,1,-0.7071067811865476,0A0.7071067811865476,0.7071067811865476,0,1,1,0.7071067811865476,0" style="fill: none; stroke: #4c78a8; stroke-width: 2;"></path><path transform="translate(190.07358333333332,178.5)" d="M0.7071067811865476,0A0.7071067811865476,0.7071067811865476,0,1,1,-0.7071067811865476,0A0.7071067811865476,0.7071067811865476,0,1,1,0.7071067811865476,0" style="fill: none; stroke: #4c78a8; stroke-width: 2;"></path><path transform="translate(168.218825,199.5)" d="M0.7071067811865476,0A0.7071067811865476,0.7071067811865476,0,1,1,-0.7071067811865476,0A0.7071067811865476,0.7071067811865476,0,1,1,0.7071067811865476,0" style="fill: none; stroke: #4c78a8; stroke-width: 2;"></path><path transform="translate(145.15889166666668,220.5)" d="M0.7071067811865476,0A0.7071067811865476,0.7071067811865476,0,1,1,-0.7071067811865476,0A0.7071067811865476,0.7071067811865476,0,1,1,0.7071067811865476,0" style="fill: none; stroke: #4c78a8; stroke-width: 2;"></path><path transform="translate(111.50291666666668,241.5)" d="M0.7071067811865476,0A0.7071067811865476,0.7071067811865476,0,1,1,-0.7071067811865476,0A0.7071067811865476,0.7071067811865476,0,1,1,0.7071067811865476,0" style="fill: none; stroke: #4c78a8; stroke-width: 2;"></path><path transform="translate(89.93633333333332,262.5)" d="M0.7071067811865476,0A0.7071067811865476,0.7071067811865476,0,1,1,-0.7071067811865476,0A0.7071067811865476,0.7071067811865476,0,1,1,0.7071067811865476,0" style="fill: none; stroke: #4c78a8; stroke-width: 2;"></path><path transform="translate(77.15339166666666,283.5)" d="M0.7071067811865476,0A0.7071067811865476,0.7071067811865476,0,1,1,-0.7071067811865476,0A0.7071067811865476,0.7071067811865476,0,1,1,0.7071067811865476,0" style="fill: none; stroke: #4c78a8; stroke-width: 2;"></path><path transform="translate(74.80833333333334,304.5)" d="M0.7071067811865476,0A0.7071067811865476,0.7071067811865476,0,1,1,-0.7071067811865476,0A0.7071067811865476,0.7071067811865476,0,1,1,0.7071067811865476,0" style="fill: none; stroke: #4c78a8; stroke-width: 2;"></path><path transform="translate(60.56915833333333,325.5)" d="M0.7071067811865476,0A0.7071067811865476,0.7071067811865476,0,1,1,-0.7071067811865476,0A0.7071067811865476,0.7071067811865476,0,1,1,0.7071067811865476,0" style="fill: none; stroke: #4c78a8; stroke-width: 2;"></path><path transform="translate(42.70446666666667,346.5)" d="M0.7071067811865476,0A0.7071067811865476,0.7071067811865476,0,1,1,-0.7071067811865476,0A0.7071067811865476,0.7071067811865476,0,1,1,0.7071067811865476,0" style="fill: none; stroke: #4c78a8; stroke-width: 2;"></path><path transform="translate(24.59594166666667,367.5)" d="M0.7071067811865476,0A0.7071067811865476,0.7071067811865476,0,1,1,-0.7071067811865476,0A0.7071067811865476,0.7071067811865476,0,1,1,0.7071067811865476,0" style="fill: none; stroke: #4c78a8; stroke-width: 2;"></path><path transform="translate(11.674033333333334,388.5)" d="M0.7071067811865476,0A0.7071067811865476,0.7071067811865476,0,1,1,-0.7071067811865476,0A0.7071067811865476,0.7071067811865476,0,1,1,0.7071067811865476,0" style="fill: none; stroke: #4c78a8; stroke-width: 2;"></path></g><g class="mark-group role-axis"><g transform="translate(0.5,399.5)"><path class="background" d="M0,0h0v0h0Z" style="pointer-events: none; fill: none;"></path><g><g class="mark-rule role-axis-tick" style="pointer-events: none;"><line transform="translate(0,0)" x2="0" y2="5" style="fill: none; stroke: #888; stroke-width: 1; opacity: 1;"></line><line transform="translate(33,0)" x2="0" y2="5" style="fill: none; stroke: #888; stroke-width: 1; opacity: 1;"></line><line transform="translate(67,0)" x2="0" y2="5" style="fill: none; stroke: #888; stroke-width: 1; opacity: 1;"></line><line transform="translate(100,0)" x2="0" y2="5" style="fill: none; stroke: #888; stroke-width: 1; opacity: 1;"></line><line transform="translate(133,0)" x2="0" y2="5" style="fill: none; stroke: #888; stroke-width: 1; opacity: 1;"></line><line transform="translate(167,0)" x2="0" y2="5" style="fill: none; stroke: #888; stroke-width: 1; opacity: 1;"></line><line transform="translate(200,0)" x2="0" y2="5" style="fill: none; stroke: #888; stroke-width: 1; opacity: 1;"></line></g><g class="mark-text role-axis-label" style="pointer-events: none;"><text text-anchor="start" transform="translate(0,15)" style="font-family: sans-serif; font-size: 10px; fill: #000; opacity: 1;">0</text><text text-anchor="middle" transform="translate(33.33333333333333,15)" style="font-family: sans-serif; font-size: 10px; fill: #000; opacity: 0;">2,000,000</text><text text-anchor="middle" transform="translate(66.66666666666666,15)" style="font-family: sans-serif; font-size: 10px; fill: #000; opacity: 0;">4,000,000</text><text text-anchor="middle" transform="translate(100,15)" style="font-family: sans-serif; font-size: 10px; fill: #000; opacity: 0;">6,000,000</text><text text-anchor="middle" transform="translate(133.33333333333331,15)" style="font-family: sans-serif; font-size: 10px; fill: #000; opacity: 0;">8,000,000</text><text text-anchor="middle" transform="translate(166.66666666666669,15)" style="font-family: sans-serif; font-size: 10px; fill: #000; opacity: 0;">10,000,000</text><text text-anchor="end" transform="translate(200,15)" style="font-family: sans-serif; font-size: 10px; fill: #000; opacity: 1;">12,000,000</text></g><g class="mark-rule role-axis-domain" style="pointer-events: none;"><line transform="translate(0,0)" x2="200" y2="0" style="fill: none; stroke: #888; stroke-width: 1; opacity: 1;"></line></g><g class="mark-text role-axis-title" style="pointer-events: none;"><text text-anchor="middle" transform="translate(100,31)" style="font-family: sans-serif; font-size: 11px; font-weight: bold; fill: #000; opacity: 1;">population</text></g></g></g></g><g class="mark-group role-axis"><g transform="translate(0.5,0.5)"><path class="background" d="M0,0h0v0h0Z" style="pointer-events: none; fill: none;"></path><g><g class="mark-rule role-axis-tick" style="pointer-events: none;"><line transform="translate(0,10)" x2="-5" y2="0" style="fill: none; stroke: #888; stroke-width: 1; opacity: 1;"></line><line transform="translate(0,31)" x2="-5" y2="0" style="fill: none; stroke: #888; stroke-width: 1; opacity: 1;"></line><line transform="translate(0,52)" x2="-5" y2="0" style="fill: none; stroke: #888; stroke-width: 1; opacity: 1;"></line><line transform="translate(0,73)" x2="-5" y2="0" style="fill: none; stroke: #888; stroke-width: 1; opacity: 1;"></line><line transform="translate(0,94)" x2="-5" y2="0" style="fill: none; stroke: #888; stroke-width: 1; opacity: 1;"></line><line transform="translate(0,115)" x2="-5" y2="0" style="fill: none; stroke: #888; stroke-width: 1; opacity: 1;"></line><line transform="translate(0,136)" x2="-5" y2="0" style="fill: none; stroke: #888; stroke-width: 1; opacity: 1;"></line><line transform="translate(0,157)" x2="-5" y2="0" style="fill: none; stroke: #888; stroke-width: 1; opacity: 1;"></line><line transform="translate(0,178)" x2="-5" y2="0" style="fill: none; stroke: #888; stroke-width: 1; opacity: 1;"></line><line transform="translate(0,199)" x2="-5" y2="0" style="fill: none; stroke: #888; stroke-width: 1; opacity: 1;"></line><line transform="translate(0,220)" x2="-5" y2="0" style="fill: none; stroke: #888; stroke-width: 1; opacity: 1;"></line><line transform="translate(0,241)" x2="-5" y2="0" style="fill: none; stroke: #888; stroke-width: 1; opacity: 1;"></line><line transform="translate(0,262)" x2="-5" y2="0" style="fill: none; stroke: #888; stroke-width: 1; opacity: 1;"></line><line transform="translate(0,283)" x2="-5" y2="0" style="fill: none; stroke: #888; stroke-width: 1; opacity: 1;"></line><line transform="translate(0,304)" x2="-5" y2="0" style="fill: none; stroke: #888; stroke-width: 1; opacity: 1;"></line><line transform="translate(0,325)" x2="-5" y2="0" style="fill: none; stroke: #888; stroke-width: 1; opacity: 1;"></line><line transform="translate(0,346)" x2="-5" y2="0" style="fill: none; stroke: #888; stroke-width: 1; opacity: 1;"></line><line transform="translate(0,367)" x2="-5" y2="0" style="fill: none; stroke: #888; stroke-width: 1; opacity: 1;"></line><line transform="translate(0,388)" x2="-5" y2="0" style="fill: none; stroke: #888; stroke-width: 1; opacity: 1;"></line></g><g class="mark-text role-axis-label" style="pointer-events: none;"><text text-anchor="end" transform="translate(-7,12.500000000000012)" style="font-family: sans-serif; font-size: 10px; fill: #000; opacity: 1;">0</text><text text-anchor="end" transform="translate(-7,33.500000000000014)" style="font-family: sans-serif; font-size: 10px; fill: #000; opacity: 1;">5</text><text text-anchor="end" transform="translate(-7,54.500000000000014)" style="font-family: sans-serif; font-size: 10px; fill: #000; opacity: 1;">10</text><text text-anchor="end" transform="translate(-7,75.50000000000001)" style="font-family: sans-serif; font-size: 10px; fill: #000; opacity: 1;">15</text><text text-anchor="end" transform="translate(-7,96.50000000000001)" style="font-family: sans-serif; font-size: 10px; fill: #000; opacity: 1;">20</text><text text-anchor="end" transform="translate(-7,117.50000000000001)" style="font-family: sans-serif; font-size: 10px; fill: #000; opacity: 1;">25</text><text text-anchor="end" transform="translate(-7,138.5)" style="font-family: sans-serif; font-size: 10px; fill: #000; opacity: 1;">30</text><text text-anchor="end" transform="translate(-7,159.5)" style="font-family: sans-serif; font-size: 10px; fill: #000; opacity: 1;">35</text><text text-anchor="end" transform="translate(-7,180.5)" style="font-family: sans-serif; font-size: 10px; fill: #000; opacity: 1;">40</text><text text-anchor="end" transform="translate(-7,201.5)" style="font-family: sans-serif; font-size: 10px; fill: #000; opacity: 1;">45</text><text text-anchor="end" transform="translate(-7,222.5)" style="font-family: sans-serif; font-size: 10px; fill: #000; opacity: 1;">50</text><text text-anchor="end" transform="translate(-7,243.5)" style="font-family: sans-serif; font-size: 10px; fill: #000; opacity: 1;">55</text><text text-anchor="end" transform="translate(-7,264.5)" style="font-family: sans-serif; font-size: 10px; fill: #000; opacity: 1;">60</text><text text-anchor="end" transform="translate(-7,285.5)" style="font-family: sans-serif; font-size: 10px; fill: #000; opacity: 1;">65</text><text text-anchor="end" transform="translate(-7,306.5)" style="font-family: sans-serif; font-size: 10px; fill: #000; opacity: 1;">70</text><text text-anchor="end" transform="translate(-7,327.5)" style="font-family: sans-serif; font-size: 10px; fill: #000; opacity: 1;">75</text><text text-anchor="end" transform="translate(-7,348.5)" style="font-family: sans-serif; font-size: 10px; fill: #000; opacity: 1;">80</text><text text-anchor="end" transform="translate(-7,369.5)" style="font-family: sans-serif; font-size: 10px; fill: #000; opacity: 1;">85</text><text text-anchor="end" transform="translate(-7,390.5)" style="font-family: sans-serif; font-size: 10px; fill: #000; opacity: 1;">90</text></g><g class="mark-rule role-axis-domain" style="pointer-events: none;"><line transform="translate(0,0)" x2="0" y2="399" style="fill: none; stroke: #888; stroke-width: 1; opacity: 1;"></line></g><g class="mark-text role-axis-title" style="pointer-events: none;"><text text-anchor="middle" transform="translate(-34,199.5) rotate(-90) translate(0,-2)" style="font-family: sans-serif; font-size: 11px; font-weight: bold; fill: #000; opacity: 1;">age</text></g></g></g></g></g></g></g></g></svg>