<svg xmlns="http://www.w3.org/2000/svg" xmlns:xlink="http://www.w3.org/1999/xlink" version="1.1" class="marks" width="666" height="249" viewBox="0 0 666 249"><rect width="666" height="249" fill="white"/><g fill="none" stroke-miterlimit="10" transform="translate(35,11)"><g class="mark-group role-frame root" role="graphics-object" aria-roledescription="group mark container"><g transform="translate(0,0)"><path class="background" aria-hidden="true" d="M0,0h0v200h0Z"/><g><g class="mark-group role-scope concat_0_group" role="graphics-object" aria-roledescription="group mark container"><g transform="translate(0,0)"><path class="background" aria-hidden="true" d="M0.5,0.5h240v200h-240Z" stroke="#ddd"/><g><g class="mark-group role-axis" aria-hidden="true"><g transform="translate(0.5,0.5)"><path class="background" aria-hidden="true" d="M0,0h0v0h0Z" pointer-events="none"/><g><g class="mark-rule role-axis-grid" pointer-events="none"><line transform="translate(0,200)" x2="240" y2="0" stroke="#ddd" stroke-width="1" opacity="1"/><line transform="translate(0,164)" x2="240" y2="0" stroke="#ddd" stroke-width="1" opacity="1"/><line transform="translate(0,127)" x2="240" y2="0" stroke="#ddd" stroke-width="1" opacity="1"/><line transform="translate(0,91)" x2="240" y2="0" stroke="#ddd" stroke-width="1" opacity="1"/><line transform="translate(0,55)" x2="240" y2="0" stroke="#ddd" stroke-width="1" opacity="1"/><line transform="translate(0,18)" x2="240" y2="0" stroke="#ddd" stroke-width="1" opacity="1"/></g></g><path class="foreground" aria-hidden="true" d="" pointer-events="none" display="none"/></g></g><g class="mark-group role-axis" role="graphics-symbol" aria-roledescription="axis" aria-label="X-axis titled 'date (month)' for a discrete scale with 12 values: January, February, March, April, May, ending with December"><g transform="translate(0.5,200.5)"><path class="background" aria-hidden="true" d="M0,0h0v0h0Z" pointer-events="none"/><g><g class="mark-rule role-axis-tick" pointer-events="none"><line transform="translate(10,0)" x2="0" y2="5" stroke="#888" stroke-width="1" opacity="1"/><line transform="translate(30,0)" x2="0" y2="5" stroke="#888" stroke-width="1" opacity="1"/><line transform="translate(50,0)" x2="0" y2="5" stroke="#888" stroke-width="1" opacity="1"/><line transform="translate(70,0)" x2="0" y2="5" stroke="#888" stroke-width="1" opacity="1"/><line transform="translate(90,0)" x2="0" y2="5" stroke="#888" stroke-width="1" opacity="1"/><line transform="translate(110,0)" x2="0" y2="5" stroke="#888" stroke-width="1" opacity="1"/><line transform="translate(130,0)" x2="0" y2="5" stroke="#888" stroke-width="1" opacity="1"/><line transform="translate(150,0)" x2="0" y2="5" stroke="#888" stroke-width="1" opacity="1"/><line transform="translate(170,0)" x2="0" y2="5" stroke="#888" stroke-width="1" opacity="1"/><line transform="translate(190,0)" x2="0" y2="5" stroke="#888" stroke-width="1" opacity="1"/><line transform="translate(210,0)" x2="0" y2="5" stroke="#888" stroke-width="1" opacity="1"/><line transform="translate(230,0)" x2="0" y2="5" stroke="#888" stroke-width="1" opacity="1"/></g><g class="mark-text role-axis-label" pointer-events="none"><text text-anchor="middle" transform="translate(9.5,15)" font-family="sans-serif" font-size="10px" fill="#000" opacity="1">Jan</text><text text-anchor="middle" transform="translate(29.5,15)" font-family="sans-serif" font-size="10px" fill="#000" opacity="1">Feb</text><text text-anchor="middle" transform="translate(49.5,15)" font-family="sans-serif" font-size="10px" fill="#000" opacity="1">Mar</text><text text-anchor="middle" transform="translate(69.5,15)" font-family="sans-serif" font-size="10px" fill="#000" opacity="1">Apr</text><text text-anchor="middle" transform="translate(89.5,15)" font-family="sans-serif" font-size="10px" fill="#000" opacity="1">May</text><text text-anchor="middle" transform="translate(109.5,15)" font-family="sans-serif" font-size="10px" fill="#000" opacity="1">Jun</text><text text-anchor="middle" transform="translate(129.5,15)" font-family="sans-serif" font-size="10px" fill="#000" opacity="1">Jul</text><text text-anchor="middle" transform="translate(149.5,15)" font-family="sans-serif" font-size="10px" fill="#000" opacity="1">Aug</text><text text-anchor="middle" transform="translate(169.5,15)" font-family="sans-serif" font-size="10px" fill="#000" opacity="1">Sep</text><text text-anchor="middle" transform="translate(189.5,15)" font-family="sans-serif" font-size="10px" fill="#000" opacity="1">Oct</text><text text-anchor="middle" transform="translate(209.5,15)" font-family="sans-serif" font-size="10px" fill="#000" opacity="1">Nov</text><text text-anchor="middle" transform="translate(229.5,15)" font-family="sans-serif" font-size="10px" fill="#000" opacity="1">Dec</text></g><g class="mark-rule role-axis-domain" pointer-events="none"><line transform="translate(0,0)" x2="240" y2="0" stroke="#888" stroke-width="1" opacity="1"/></g><g class="mark-text role-axis-title" pointer-events="none"><text text-anchor="middle" transform="translate(120,30)" font-family="sans-serif" font-size="11px" font-weight="bold" fill="#000" opacity="1">date (month)</text></g></g><path class="foreground" aria-hidden="true" d="" pointer-events="none" display="none"/></g></g><g class="mark-group role-axis" role="graphics-symbol" aria-roledescription="axis" aria-label="Y-axis titled 'Mean of precipitation' for a linear scale with values from 0 to 6"><g transform="translate(0.5,0.5)"><path class="background" aria-hidden="true" d="M0,0h0v0h0Z" pointer-events="none"/><g><g class="mark-rule role-axis-tick" pointer-events="none"><line transform="translate(0,200)" x2="-5" y2="0" stroke="#888" stroke-width="1" opacity="1"/><line transform="translate(0,164)" x2="-5" y2="0" stroke="#888" stroke-width="1" opacity="1"/><line transform="translate(0,127)" x2="-5" y2="0" stroke="#888" stroke-width="1" opacity="1"/><line transform="translate(0,91)" x2="-5" y2="0" stroke="#888" stroke-width="1" opacity="1"/><line transform="translate(0,55)" x2="-5" y2="0" stroke="#888" stroke-width="1" opacity="1"/><line transform="translate(0,18)" x2="-5" y2="0" stroke="#888" stroke-width="1" opacity="1"/></g><g class="mark-text role-axis-label" pointer-events="none"><text text-anchor="end" transform="translate(-7,203)" font-family="sans-serif" font-size="10px" fill="#000" opacity="1">0</text><text text-anchor="end" transform="translate(-7,166.63636363636363)" font-family="sans-serif" font-size="10px" fill="#000" opacity="1">1</text><text text-anchor="end" transform="translate(-7,130.27272727272725)" font-family="sans-serif" font-size="10px" fill="#000" opacity="1">2</text><text text-anchor="end" transform="translate(-7,93.90909090909092)" font-family="sans-serif" font-size="10px" fill="#000" opacity="1">3</text><text text-anchor="end" transform="translate(-7,57.54545454545454)" font-family="sans-serif" font-size="10px" fill="#000" opacity="1">4</text><text text-anchor="end" transform="translate(-7,21.181818181818187)" font-family="sans-serif" font-size="10px" fill="#000" opacity="1">5</text></g><g class="mark-rule role-axis-domain" pointer-events="none"><line transform="translate(0,200)" x2="0" y2="-200" stroke="#888" stroke-width="1" opacity="1"/></g><g class="mark-text role-axis-title" pointer-events="none"><text text-anchor="middle" transform="translate(-17.3623046875,100) rotate(-90) translate(0,-2)" font-family="sans-serif" font-size="11px" font-weight="bold" fill="#000" opacity="1">Mean of precipitation</text></g></g><path class="foreground" aria-hidden="true" d="" pointer-events="none" display="none"/></g></g><g class="mark-rect role-mark concat_0_marks" role="graphics-object" aria-roledescription="rect mark container"><path aria-label="date (month): Dec; Mean of precipitation: 4.86612903226" role="graphics-symbol" aria-roledescription="bar" d="M221,23.049853372434036h18v176.95014662756597h-18Z" fill="#4c78a8"/><path aria-label="date (month): Jan; Mean of precipitation: 3.89758064516" role="graphics-symbol" aria-roledescription="bar" d="M1,58.269794721407585h18v141.73020527859242h-18Z" fill="#4c78a8"/><path aria-label="date (month): Feb; Mean of precipitation: 3.62212389381" role="graphics-symbol" aria-roledescription="bar" d="M21,68.2864038616251h18v131.7135961383749h-18Z" fill="#4c78a8"/><path aria-label="date (month): Mar; Mean of precipitation: 4.90483870968" role="graphics-symbol" aria-roledescription="bar" d="M41,21.642228739002945h18v178.35777126099705h-18Z" fill="#4c78a8"/><path aria-label="date (month): Apr; Mean of precipitation: 3.0775" role="graphics-symbol" aria-roledescription="bar" d="M61,88.0909090909091h18v111.9090909090909h-18Z" fill="#4c78a8"/><path aria-label="date (month): May; Mean of precipitation: 1.75967741935" role="graphics-symbol" aria-roledescription="bar" d="M81,136.0117302052786h18v63.98826979472139h-18Z" fill="#4c78a8"/><path aria-label="date (month): Jun; Mean of precipitation: 1.01416666667" role="graphics-symbol" aria-roledescription="bar" d="M101,163.12121212121212h18v36.878787878787875h-18Z" fill="#4c78a8"/><path aria-label="date (month): Jul; Mean of precipitation: 0.388709677419" role="graphics-symbol" aria-roledescription="bar" d="M121,185.8651026392962h18v14.134897360703803h-18Z" fill="#4c78a8"/><path aria-label="date (month): Aug; Mean of precipitation: 1.36693548387" role="graphics-symbol" aria-roledescription="bar" d="M141,150.2932551319648h18v49.7067448680352h-18Z" fill="#4c78a8"/><path aria-label="date (month): Sep; Mean of precipitation: 1.98" role="graphics-symbol" aria-roledescription="bar" d="M161,127.99999999999999h18v72.00000000000001h-18Z" fill="#4c78a8"/><path aria-label="date (month): Oct; Mean of precipitation: 4.29596774194" role="graphics-symbol" aria-roledescription="bar" d="M181,43.782991202346075h18v156.21700879765393h-18Z" fill="#4c78a8"/><path aria-label="date (month): Nov; Mean of precipitation: 5.205" role="graphics-symbol" aria-roledescription="bar" d="M201,10.727272727272762h18v189.27272727272725h-18Z" fill="#4c78a8"/></g></g><path class="foreground" aria-hidden="true" d="" display="none"/></g></g><g class="mark-group role-scope concat_1_group" role="graphics-object" aria-roledescription="group mark container"><g transform="translate(299,0)"><path class="background" aria-hidden="true" d="M0.5,0.5h200v200h-200Z" stroke="#ddd"/><g><g class="mark-group role-axis" role="graphics-symbol" aria-roledescription="axis" aria-label="X-axis titled 'temp_min (binned)' for a linear scale with values from −10 to 20"><g transform="translate(0.5,200.5)"><path class="background" aria-hidden="true" d="M0,0h0v0h0Z" pointer-events="none"/><g><g class="mark-rule role-axis-tick" pointer-events="none"><line transform="translate(0,0)" x2="0" y2="5" stroke="#888" stroke-width="1" opacity="1"/><line transform="translate(33,0)" x2="0" y2="5" stroke="#888" stroke-width="1" opacity="1"/><line transform="translate(67,0)" x2="0" y2="5" stroke="#888" stroke-width="1" opacity="1"/><line transform="translate(100,0)" x2="0" y2="5" stroke="#888" stroke-width="1" opacity="1"/><line transform="translate(133,0)" x2="0" y2="5" stroke="#888" stroke-width="1" opacity="1"/><line transform="translate(167,0)" x2="0" y2="5" stroke="#888" stroke-width="1" opacity="1"/><line transform="translate(200,0)" x2="0" y2="5" stroke="#888" stroke-width="1" opacity="1"/></g><g class="mark-text role-axis-label" pointer-events="none"><text text-anchor="start" transform="translate(0,15)" font-family="sans-serif" font-size="10px" fill="#000" opacity="1">−10</text><text text-anchor="middle" transform="translate(33.33333333333333,15)" font-family="sans-serif" font-size="10px" fill="#000" opacity="1">−5</text><text text-anchor="middle" transform="translate(66.66666666666666,15)" font-family="sans-serif" font-size="10px" fill="#000" opacity="1">0</text><text text-anchor="middle" transform="translate(100,15)" font-family="sans-serif" font-size="10px" fill="#000" opacity="1">5</text><text text-anchor="middle" transform="translate(133.33333333333331,15)" font-family="sans-serif" font-size="10px" fill="#000" opacity="1">10</text><text text-anchor="middle" transform="translate(166.66666666666669,15)" font-family="sans-serif" font-size="10px" fill="#000" opacity="1">15</text><text text-anchor="end" transform="translate(200,15)" font-family="sans-serif" font-size="10px" fill="#000" opacity="1">20</text></g><g class="mark-rule role-axis-domain" pointer-events="none"><line transform="translate(0,0)" x2="200" y2="0" stroke="#888" stroke-width="1" opacity="1"/></g><g class="mark-text role-axis-title" pointer-events="none"><text text-anchor="middle" transform="translate(100,30)" font-family="sans-serif" font-size="11px" font-weight="bold" fill="#000" opacity="1">temp_min (binned)</text></g></g><path class="foreground" aria-hidden="true" d="" pointer-events="none" display="none"/></g></g><g class="mark-group role-axis" role="graphics-symbol" aria-roledescription="axis" aria-label="Y-axis titled 'temp_max (binned)' for a linear scale with values from −5 to 40"><g transform="translate(0.5,0.5)"><path class="background" aria-hidden="true" d="M0,0h0v0h0Z" pointer-events="none"/><g><g class="mark-rule role-axis-tick" pointer-events="none"><line transform="translate(0,200)" x2="-5" y2="0" stroke="#888" stroke-width="1" opacity="1"/><line transform="translate(0,178)" x2="-5" y2="0" stroke="#888" stroke-width="1" opacity="1"/><line transform="translate(0,156)" x2="-5" y2="0" stroke="#888" stroke-width="1" opacity="1"/><line transform="translate(0,133)" x2="-5" y2="0" stroke="#888" stroke-width="1" opacity="1"/><line transform="translate(0,111)" x2="-5" y2="0" stroke="#888" stroke-width="1" opacity="1"/><line transform="translate(0,89)" x2="-5" y2="0" stroke="#888" stroke-width="1" opacity="1"/><line transform="translate(0,67)" x2="-5" y2="0" stroke="#888" stroke-width="1" opacity="1"/><line transform="translate(0,44)" x2="-5" y2="0" stroke="#888" stroke-width="1" opacity="1"/><line transform="translate(0,22)" x2="-5" y2="0" stroke="#888" stroke-width="1" opacity="1"/><line transform="translate(0,0)" x2="-5" y2="0" stroke="#888" stroke-width="1" opacity="1"/></g><g class="mark-text role-axis-label" pointer-events="none"><text text-anchor="end" transform="translate(-7,203)" font-family="sans-serif" font-size="10px" fill="#000" opacity="1">−5</text><text text-anchor="end" transform="translate(-7,180.77777777777777)" font-family="sans-serif" font-size="10px" fill="#000" opacity="1">0</text><text text-anchor="end" transform="translate(-7,158.55555555555557)" font-family="sans-serif" font-size="10px" fill="#000" opacity="1">5</text><text text-anchor="end" transform="translate(-7,136.33333333333334)" font-family="sans-serif" font-size="10px" fill="#000" opacity="1">10</text><text text-anchor="end" transform="translate(-7,114.11111111111111)" font-family="sans-serif" font-size="10px" fill="#000" opacity="1">15</text><text text-anchor="end" transform="translate(-7,91.88888888888889)" font-family="sans-serif" font-size="10px" fill="#000" opacity="1">20</text><text text-anchor="end" transform="translate(-7,69.66666666666667)" font-family="sans-serif" font-size="10px" fill="#000" opacity="1">25</text><text text-anchor="end" transform="translate(-7,47.44444444444444)" font-family="sans-serif" font-size="10px" fill="#000" opacity="1">30</text><text text-anchor="end" transform="translate(-7,25.222222222222232)" font-family="sans-serif" font-size="10px" fill="#000" opacity="1">35</text><text text-anchor="end" transform="translate(-7,3)" font-family="sans-serif" font-size="10px" fill="#000" opacity="1">40</text></g><g class="mark-rule role-axis-domain" pointer-events="none"><line transform="translate(0,200)" x2="0" y2="-200" stroke="#888" stroke-width="1" opacity="1"/></g><g class="mark-text role-axis-title" pointer-events="none"><text text-anchor="middle" transform="translate(-25.7412109375,100) rotate(-90) translate(0,-2)" font-family="sans-serif" font-size="11px" font-weight="bold" fill="#000" opacity="1">temp_max (binned)</text></g></g><path class="foreground" aria-hidden="true" d="" pointer-events="none" display="none"/></g></g><g class="mark-symbol role-mark concat_1_marks" role="graphics-object" aria-roledescription="symbol mark container"><path aria-label="temp_min (binned): 5 – 10; temp_max (binned): 10 – 15; Count of Records: 254" role="graphics-symbol" aria-roledescription="point" transform="translate(116.66666666666667,122.22222222222223)" d="M10.556,0A10.556,10.556,0,1,1,-10.556,0A10.556,10.556,0,1,1,10.556,0" stroke="#4c78a8" stroke-width="2"/><path aria-label="temp_min (binned): 0 – 5; temp_max (binned): 10 – 15; Count of Records: 110" role="graphics-symbol" aria-roledescription="point" transform="translate(83.33333333333334,122.22222222222223)" d="M6.946,0A6.946,6.946,0,1,1,-6.946,0A6.946,6.946,0,1,1,6.946,0" stroke="#4c78a8" stroke-width="2"/><path aria-label="temp_min (binned): 0 – 5; temp_max (binned): 5 – 10; Count of Records: 168" role="graphics-symbol" aria-roledescription="point" transform="translate(83.33333333333334,144.44444444444443)" d="M8.585,0A8.585,8.585,0,1,1,-8.585,0A8.585,8.585,0,1,1,8.585,0" stroke="#4c78a8" stroke-width="2"/><path aria-label="temp_min (binned): 0 – 5; temp_max (binned): 0 – 5; Count of Records: 9" role="graphics-symbol" aria-roledescription="point" transform="translate(83.33333333333334,166.66666666666669)" d="M1.987,0A1.987,1.987,0,1,1,-1.987,0A1.987,1.987,0,1,1,1.987,0" stroke="#4c78a8" stroke-width="2"/><path aria-label="temp_min (binned): 5 – 10; temp_max (binned): 5 – 10; Count of Records: 44" role="graphics-symbol" aria-roledescription="point" transform="translate(116.66666666666667,144.44444444444443)" d="M4.393,0A4.393,4.393,0,1,1,-4.393,0A4.393,4.393,0,1,1,4.393,0" stroke="#4c78a8" stroke-width="2"/><path aria-label="temp_min (binned): −5 – 0; temp_max (binned): 5 – 10; Count of Records: 38" role="graphics-symbol" aria-roledescription="point" transform="translate(50,144.44444444444443)" d="M4.083,0A4.083,4.083,0,1,1,-4.083,0A4.083,4.083,0,1,1,4.083,0" stroke="#4c78a8" stroke-width="2"/><path aria-label="temp_min (binned): −5 – 0; temp_max (binned): 0 – 5; Count of Records: 27" role="graphics-symbol" aria-roledescription="point" transform="translate(50,166.66666666666669)" d="M3.441,0A3.441,3.441,0,1,1,-3.441,0A3.441,3.441,0,1,1,3.441,0" stroke="#4c78a8" stroke-width="2"/><path aria-label="temp_min (binned): −5 – 0; temp_max (binned): −5 – 0; Count of Records: 1" role="graphics-symbol" aria-roledescription="point" transform="translate(50,188.88888888888889)" d="M0.662,0A0.662,0.662,0,1,1,-0.662,0A0.662,0.662,0,1,1,0.662,0" stroke="#4c78a8" stroke-width="2"/><path aria-label="temp_min (binned): 5 – 10; temp_max (binned): 15 – 20; Count of Records: 113" role="graphics-symbol" aria-roledescription="point" transform="translate(116.66666666666667,100)" d="M7.04,0A7.04,7.04,0,1,1,-7.04,0A7.04,7.04,0,1,1,7.04,0" stroke="#4c78a8" stroke-width="2"/><path aria-label="temp_min (binned): 0 – 5; temp_max (binned): 15 – 20; Count of Records: 25" role="graphics-symbol" aria-roledescription="point" transform="translate(83.33333333333334,100)" d="M3.312,0A3.312,3.312,0,1,1,-3.312,0A3.312,3.312,0,1,1,3.312,0" stroke="#4c78a8" stroke-width="2"/><path aria-label="temp_min (binned): 5 – 10; temp_max (binned): 20 – 25; Count of Records: 50" role="graphics-symbol" aria-roledescription="point" transform="translate(116.66666666666667,77.77777777777777)" d="M4.683,0A4.683,4.683,0,1,1,-4.683,0A4.683,4.683,0,1,1,4.683,0" stroke="#4c78a8" stroke-width="2"/><path aria-label="temp_min (binned): 0 – 5; temp_max (binned): 20 – 25; Count of Records: 1" role="graphics-symbol" aria-roledescription="point" transform="translate(83.33333333333334,77.77777777777777)" d="M0.662,0A0.662,0.662,0,1,1,-0.662,0A0.662,0.662,0,1,1,0.662,0" stroke="#4c78a8" stroke-width="2"/><path aria-label="temp_min (binned): 10 – 15; temp_max (binned): 10 – 15; Count of Records: 27" role="graphics-symbol" aria-roledescription="point" transform="translate(150,122.22222222222223)" d="M3.441,0A3.441,3.441,0,1,1,-3.441,0A3.441,3.441,0,1,1,3.441,0" stroke="#4c78a8" stroke-width="2"/><path aria-label="temp_min (binned): 5 – 10; temp_max (binned): 25 – 30; Count of Records: 5" role="graphics-symbol" aria-roledescription="point" transform="translate(116.66666666666667,55.55555555555556)" d="M1.481,0A1.481,1.481,0,1,1,-1.481,0A1.481,1.481,0,1,1,1.481,0" stroke="#4c78a8" stroke-width="2"/><path aria-label="temp_min (binned): 10 – 15; temp_max (binned): 25 – 30; Count of Records: 111" role="graphics-symbol" aria-roledescription="point" transform="translate(150,55.55555555555556)" d="M6.978,0A6.978,6.978,0,1,1,-6.978,0A6.978,6.978,0,1,1,6.978,0" stroke="#4c78a8" stroke-width="2"/><path aria-label="temp_min (binned): 10 – 15; temp_max (binned): 15 – 20; Count of Records: 141" role="graphics-symbol" aria-roledescription="point" transform="translate(150,100)" d="M7.865,0A7.865,7.865,0,1,1,-7.865,0A7.865,7.865,0,1,1,7.865,0" stroke="#4c78a8" stroke-width="2"/><path aria-label="temp_min (binned): 10 – 15; temp_max (binned): 20 – 25; Count of Records: 169" role="graphics-symbol" aria-roledescription="point" transform="translate(150,77.77777777777777)" d="M8.61,0A8.61,8.61,0,1,1,-8.61,0A8.61,8.61,0,1,1,8.61,0" stroke="#4c78a8" stroke-width="2"/><path aria-label="temp_min (binned): 15 – 20; temp_max (binned): 20 – 25; Count of Records: 31" role="graphics-symbol" aria-roledescription="point" transform="translate(183.33333333333331,77.77777777777777)" d="M3.688,0A3.688,3.688,0,1,1,-3.688,0A3.688,3.688,0,1,1,3.688,0" stroke="#4c78a8" stroke-width="2"/><path aria-label="temp_min (binned): 15 – 20; temp_max (binned): 25 – 30; Count of Records: 62" role="graphics-symbol" aria-roledescription="point" transform="translate(183.33333333333331,55.55555555555556)" d="M5.215,0A5.215,5.215,0,1,1,-5.215,0A5.215,5.215,0,1,1,5.215,0" stroke="#4c78a8" stroke-width="2"/><path aria-label="temp_min (binned): 15 – 20; temp_max (binned): 30 – 35; Count of Records: 44" role="graphics-symbol" aria-roledescription="point" transform="translate(183.33333333333331,33.33333333333333)" d="M4.393,0A4.393,4.393,0,1,1,-4.393,0A4.393,4.393,0,1,1,4.393,0" stroke="#4c78a8" stroke-width="2"/><path aria-label="temp_min (binned): 10 – 15; temp_max (binned): 30 – 35; Count of Records: 17" role="graphics-symbol" aria-roledescription="point" transform="translate(150,33.33333333333333)" d="M2.731,0A2.731,2.731,0,1,1,-2.731,0A2.731,2.731,0,1,1,2.731,0" stroke="#4c78a8" stroke-width="2"/><path aria-label="temp_min (binned): 15 – 20; temp_max (binned): 15 – 20; Count of Records: 6" role="graphics-symbol" aria-roledescription="point" transform="translate(183.33333333333331,100)" d="M1.622,0A1.622,1.622,0,1,1,-1.622,0A1.622,1.622,0,1,1,1.622,0" stroke="#4c78a8" stroke-width="2"/><path aria-label="temp_min (binned): −10 – −5; temp_max (binned): 0 – 5; Count of Records: 2" role="graphics-symbol" aria-roledescription="point" transform="translate(16.666666666666664,166.66666666666669)" d="M0.937,0A0.937,0.937,0,1,1,-0.937,0A0.937,0.937,0,1,1,0.937,0" stroke="#4c78a8" stroke-width="2"/><path aria-label="temp_min (binned): −10 – −5; temp_max (binned): −5 – 0; Count of Records: 2" role="graphics-symbol" aria-roledescription="point" transform="translate(16.666666666666664,188.88888888888889)" d="M0.937,0A0.937,0.937,0,1,1,-0.937,0A0.937,0.937,0,1,1,0.937,0" stroke="#4c78a8" stroke-width="2"/><path aria-label="temp_min (binned): 15 – 20; temp_max (binned): 35 – 40; Count of Records: 2" role="graphics-symbol" aria-roledescription="point" transform="translate(183.33333333333331,11.111111111111116)" d="M0.937,0A0.937,0.937,0,1,1,-0.937,0A0.937,0.937,0,1,1,0.937,0" stroke="#4c78a8" stroke-width="2"/><path aria-label="temp_min (binned): −5 – 0; temp_max (binned): 10 – 15; Count of Records: 2" role="graphics-symbol" aria-roledescription="point" transform="translate(50,122.22222222222223)" d="M0.937,0A0.937,0.937,0,1,1,-0.937,0A0.937,0.937,0,1,1,0.937,0" stroke="#4c78a8" stroke-width="2"/></g></g><path class="foreground" aria-hidden="true" d="" display="none"/></g></g><g class="mark-group role-legend" role="graphics-symbol" aria-roledescription="legend" aria-label="Symbol legend titled 'Count of Records' for size with values from 0 to 254"><g transform="translate(519,0)"><path class="background" aria-hidden="true" d="M0,0h107v121h-107Z" pointer-events="none"/><g><g class="mark-group role-legend-entry"><g transform="translate(0,16)"><path class="background" aria-hidden="true" d="M0,0h0v0h0Z" pointer-events="none"/><g><g class="mark-group role-scope" role="graphics-object" aria-roledescription="group mark container"><g transform="translate(0,0)"><path class="background" aria-hidden="true" d="M0,0h46.0869140625v11.683270466362822h-46.0869140625Z" pointer-events="none" opacity="1"/><g><g class="mark-symbol role-legend-symbol" pointer-events="none"><path transform="translate(11.5,5.5)" d="M4.683,0A4.683,4.683,0,1,1,-4.683,0A4.683,4.683,0,1,1,4.683,0" stroke="#4c78a8" stroke-width="1.5" opacity="1"/></g><g class="mark-text role-legend-label" pointer-events="none"><text text-anchor="start" transform="translate(27,8.5)" font-family="sans-serif" font-size="10px" fill="#000" opacity="1">50</text></g></g><path class="foreground" aria-hidden="true" d="" pointer-events="none" display="none"/></g><g transform="translate(0,15)"><path class="background" aria-hidden="true" d="M0,0h46.0869140625v15.623144609791673h-46.0869140625Z" pointer-events="none" opacity="1"/><g><g class="mark-symbol role-legend-symbol" pointer-events="none"><path transform="translate(11.5,7.5)" d="M6.623,0A6.623,6.623,0,1,1,-6.623,0A6.623,6.623,0,1,1,6.623,0" stroke="#4c78a8" stroke-width="1.5" opacity="1"/></g><g class="mark-text role-legend-label" pointer-events="none"><text text-anchor="start" transform="translate(27,10.5)" font-family="sans-serif" font-size="10px" fill="#000" opacity="1">100</text></g></g><path class="foreground" aria-hidden="true" d="" pointer-events="none" display="none"/></g><g transform="translate(0,34)"><path class="background" aria-hidden="true" d="M0,0h46.0869140625v18.6116623933272h-46.0869140625Z" pointer-events="none" opacity="1"/><g><g class="mark-symbol role-legend-symbol" pointer-events="none"><path transform="translate(11.5,9)" d="M8.112,0A8.112,8.112,0,1,1,-8.112,0A8.112,8.112,0,1,1,8.112,0" stroke="#4c78a8" stroke-width="1.5" opacity="1"/></g><g class="mark-text role-legend-label" pointer-events="none"><text text-anchor="start" transform="translate(27,12)" font-family="sans-serif" font-size="10px" fill="#000" opacity="1">150</text></g></g><path class="foreground" aria-hidden="true" d="" pointer-events="none" display="none"/></g><g transform="translate(0,56)"><path class="background" aria-hidden="true" d="M0,0h46.0869140625v21.36654093272564h-46.0869140625Z" pointer-events="none" opacity="1"/><g><g class="mark-symbol role-legend-symbol" pointer-events="none"><path transform="translate(11.5,10.5)" d="M9.367,0A9.367,9.367,0,1,1,-9.367,0A9.367,9.367,0,1,1,9.367,0" stroke="#4c78a8" stroke-width="1.5" opacity="1"/></g><g class="mark-text role-legend-label" pointer-events="none"><text text-anchor="start" transform="translate(27,13.5)" font-family="sans-serif" font-size="10px" fill="#000" opacity="1">200</text></g></g><path class="foreground" aria-hidden="true" d="" pointer-events="none" display="none"/></g><g transform="translate(0,81)"><path class="background" aria-hidden="true" d="M0,0h46.0869140625v23.47211111980441h-46.0869140625Z" pointer-events="none" opacity="1"/><g><g class="mark-symbol role-legend-symbol" pointer-events="none"><path transform="translate(11.5,11.5)" d="M10.472,0A10.472,10.472,0,1,1,-10.472,0A10.472,10.472,0,1,1,10.472,0" stroke="#4c78a8" stroke-width="1.5" opacity="1"/></g><g class="mark-text role-legend-label" pointer-events="none"><text text-anchor="start" transform="translate(27,14.5)" font-family="sans-serif" font-size="10px" fill="#000" opacity="1">250</text></g></g><path class="foreground" aria-hidden="true" d="" pointer-events="none" display="none"/></g></g></g><path class="foreground" aria-hidden="true" d="" pointer-events="none" display="none"/></g></g><g class="mark-text role-legend-title" pointer-events="none"><text text-anchor="start" transform="translate(0,9)" font-family="sans-serif" font-size="11px" font-weight="bold" fill="#000" opacity="1">Count of Records</text></g></g><path class="foreground" aria-hidden="true" d="" pointer-events="none" display="none"/></g></g></g><path class="foreground" aria-hidden="true" d="" display="none"/></g></g></g></svg>