<svg xmlns="http://www.w3.org/2000/svg" xmlns:xlink="http://www.w3.org/1999/xlink" version="1.1" class="marks" width="535" height="298" viewBox="0 0 535 298"><rect width="535" height="298" fill="white"/><g fill="none" stroke-miterlimit="10" transform="translate(48,6)"><g class="mark-group role-frame root" role="graphics-object" aria-roledescription="group mark container"><g transform="translate(0,0)"><path class="background" aria-hidden="true" d="M0,0h480v0h-480Z"/><g><g class="mark-group role-scope concat_0_group" role="graphics-object" aria-roledescription="group mark container"><g transform="translate(0,0)"><path class="background" aria-hidden="true" d="M0.5,0.5h480v150h-480Z" stroke="#ddd"/><g><g class="mark-group role-axis" aria-hidden="true"><g transform="translate(0.5,0.5)"><path class="background" aria-hidden="true" d="M0,0h0v0h0Z" pointer-events="none"/><g><g class="mark-rule role-axis-grid" pointer-events="none"><line transform="translate(0,150)" x2="480" y2="0" stroke="#ddd" stroke-width="1" opacity="1"/><line transform="translate(0,107)" x2="480" y2="0" stroke="#ddd" stroke-width="1" opacity="1"/><line transform="translate(0,64)" x2="480" y2="0" stroke="#ddd" stroke-width="1" opacity="1"/><line transform="translate(0,21)" x2="480" y2="0" stroke="#ddd" stroke-width="1" opacity="1"/></g></g><path class="foreground" aria-hidden="true" d="" pointer-events="none" display="none"/></g></g><g class="mark-group role-axis" role="graphics-symbol" aria-roledescription="axis" aria-label="X-axis titled 'time (binned)' for a linear scale with values from 0 to 24"><g transform="translate(0.5,150.5)"><path class="background" aria-hidden="true" d="M0,0h0v0h0Z" pointer-events="none"/><g><g class="mark-rule role-axis-tick" pointer-events="none"><line transform="translate(0,0)" x2="0" y2="5" stroke="#888" stroke-width="1" opacity="1"/><line transform="translate(20,0)" x2="0" y2="5" stroke="#888" stroke-width="1" opacity="1"/><line transform="translate(40,0)" x2="0" y2="5" stroke="#888" stroke-width="1" opacity="1"/><line transform="translate(60,0)" x2="0" y2="5" stroke="#888" stroke-width="1" opacity="1"/><line transform="translate(80,0)" x2="0" y2="5" stroke="#888" stroke-width="1" opacity="1"/><line transform="translate(100,0)" x2="0" y2="5" stroke="#888" stroke-width="1" opacity="1"/><line transform="translate(120,0)" x2="0" y2="5" stroke="#888" stroke-width="1" opacity="1"/><line transform="translate(140,0)" x2="0" y2="5" stroke="#888" stroke-width="1" opacity="1"/><line transform="translate(160,0)" x2="0" y2="5" stroke="#888" stroke-width="1" opacity="1"/><line transform="translate(180,0)" x2="0" y2="5" stroke="#888" stroke-width="1" opacity="1"/><line transform="translate(200,0)" x2="0" y2="5" stroke="#888" stroke-width="1" opacity="1"/><line transform="translate(220,0)" x2="0" y2="5" stroke="#888" stroke-width="1" opacity="1"/><line transform="translate(240,0)" x2="0" y2="5" stroke="#888" stroke-width="1" opacity="1"/><line transform="translate(260,0)" x2="0" y2="5" stroke="#888" stroke-width="1" opacity="1"/><line transform="translate(280,0)" x2="0" y2="5" stroke="#888" stroke-width="1" opacity="1"/><line transform="translate(300,0)" x2="0" y2="5" stroke="#888" stroke-width="1" opacity="1"/><line transform="translate(320,0)" x2="0" y2="5" stroke="#888" stroke-width="1" opacity="1"/><line transform="translate(340,0)" x2="0" y2="5" stroke="#888" stroke-width="1" opacity="1"/><line transform="translate(360,0)" x2="0" y2="5" stroke="#888" stroke-width="1" opacity="1"/><line transform="translate(380,0)" x2="0" y2="5" stroke="#888" stroke-width="1" opacity="1"/><line transform="translate(400,0)" x2="0" y2="5" stroke="#888" stroke-width="1" opacity="1"/><line transform="translate(420,0)" x2="0" y2="5" stroke="#888" stroke-width="1" opacity="1"/><line transform="translate(440,0)" x2="0" y2="5" stroke="#888" stroke-width="1" opacity="1"/><line transform="translate(460,0)" x2="0" y2="5" stroke="#888" stroke-width="1" opacity="1"/><line transform="translate(480,0)" x2="0" y2="5" stroke="#888" stroke-width="1" opacity="1"/></g><g class="mark-text role-axis-label" pointer-events="none"><text text-anchor="start" transform="translate(0,15)" font-family="sans-serif" font-size="10px" fill="#000" opacity="1">0.0</text><text text-anchor="middle" transform="translate(20,15)" font-family="sans-serif" font-size="10px" fill="#000" opacity="0">1.0</text><text text-anchor="middle" transform="translate(40,15)" font-family="sans-serif" font-size="10px" fill="#000" opacity="1">2.0</text><text text-anchor="middle" transform="translate(60,15)" font-family="sans-serif" font-size="10px" fill="#000" opacity="0">3.0</text><text text-anchor="middle" transform="translate(80,15)" font-family="sans-serif" font-size="10px" fill="#000" opacity="1">4.0</text><text text-anchor="middle" transform="translate(100,15)" font-family="sans-serif" font-size="10px" fill="#000" opacity="0">5.0</text><text text-anchor="middle" transform="translate(120,15)" font-family="sans-serif" font-size="10px" fill="#000" opacity="1">6.0</text><text text-anchor="middle" transform="translate(140,15)" font-family="sans-serif" font-size="10px" fill="#000" opacity="0">7.0</text><text text-anchor="middle" transform="translate(160,15)" font-family="sans-serif" font-size="10px" fill="#000" opacity="1">8.0</text><text text-anchor="middle" transform="translate(180,15)" font-family="sans-serif" font-size="10px" fill="#000" opacity="0">9.0</text><text text-anchor="middle" transform="translate(200,15)" font-family="sans-serif" font-size="10px" fill="#000" opacity="1">10.0</text><text text-anchor="middle" transform="translate(220,15)" font-family="sans-serif" font-size="10px" fill="#000" opacity="0">11.0</text><text text-anchor="middle" transform="translate(240,15)" font-family="sans-serif" font-size="10px" fill="#000" opacity="1">12.0</text><text text-anchor="middle" transform="translate(260,15)" font-family="sans-serif" font-size="10px" fill="#000" opacity="0">13.0</text><text text-anchor="middle" transform="translate(280,15)" font-family="sans-serif" font-size="10px" fill="#000" opacity="1">14.0</text><text text-anchor="middle" transform="translate(300,15)" font-family="sans-serif" font-size="10px" fill="#000" opacity="0">15.0</text><text text-anchor="middle" transform="translate(320,15)" font-family="sans-serif" font-size="10px" fill="#000" opacity="1">16.0</text><text text-anchor="middle" transform="translate(340,15)" font-family="sans-serif" font-size="10px" fill="#000" opacity="0">17.0</text><text text-anchor="middle" transform="translate(360,15)" font-family="sans-serif" font-size="10px" fill="#000" opacity="1">18.0</text><text text-anchor="middle" transform="translate(380,15)" font-family="sans-serif" font-size="10px" fill="#000" opacity="0">19.0</text><text text-anchor="middle" transform="translate(400,15)" font-family="sans-serif" font-size="10px" fill="#000" opacity="1">20.0</text><text text-anchor="middle" transform="translate(420,15)" font-family="sans-serif" font-size="10px" fill="#000" opacity="0">21.0</text><text text-anchor="middle" transform="translate(440,15)" font-family="sans-serif" font-size="10px" fill="#000" opacity="1">22.0</text><text text-anchor="middle" transform="translate(460,15)" font-family="sans-serif" font-size="10px" fill="#000" opacity="0">23.0</text><text text-anchor="end" transform="translate(480,15)" font-family="sans-serif" font-size="10px" fill="#000" opacity="1">24.0</text></g><g class="mark-rule role-axis-domain" pointer-events="none"><line transform="translate(0,0)" x2="480" y2="0" stroke="#888" stroke-width="1" opacity="1"/></g><g class="mark-text role-axis-title" pointer-events="none"><text text-anchor="middle" transform="translate(240,30)" font-family="sans-serif" font-size="11px" font-weight="bold" fill="#000" opacity="1">time (binned)</text></g></g><path class="foreground" aria-hidden="true" d="" pointer-events="none" display="none"/></g></g><g class="mark-group role-axis" role="graphics-symbol" aria-roledescription="axis" aria-label="Y-axis titled 'Count of Records' for a linear scale with values from 0 to 350"><g transform="translate(0.5,0.5)"><path class="background" aria-hidden="true" d="M0,0h0v0h0Z" pointer-events="none"/><g><g class="mark-rule role-axis-tick" pointer-events="none"><line transform="translate(0,150)" x2="-5" y2="0" stroke="#888" stroke-width="1" opacity="1"/><line transform="translate(0,107)" x2="-5" y2="0" stroke="#888" stroke-width="1" opacity="1"/><line transform="translate(0,64)" x2="-5" y2="0" stroke="#888" stroke-width="1" opacity="1"/><line transform="translate(0,21)" x2="-5" y2="0" stroke="#888" stroke-width="1" opacity="1"/></g><g class="mark-text role-axis-label" pointer-events="none"><text text-anchor="end" transform="translate(-7,153)" font-family="sans-serif" font-size="10px" fill="#000" opacity="1">0</text><text text-anchor="end" transform="translate(-7,110.14285714285714)" font-family="sans-serif" font-size="10px" fill="#000" opacity="1">100</text><text text-anchor="end" transform="translate(-7,67.28571428571429)" font-family="sans-serif" font-size="10px" fill="#000" opacity="1">200</text><text text-anchor="end" transform="translate(-7,24.428571428571434)" font-family="sans-serif" font-size="10px" fill="#000" opacity="1">300</text></g><g class="mark-rule role-axis-domain" pointer-events="none"><line transform="translate(0,150)" x2="0" y2="-150" stroke="#888" stroke-width="1" opacity="1"/></g><g class="mark-text role-axis-title" pointer-events="none"><text text-anchor="middle" transform="translate(-30.0869140625,75) rotate(-90) translate(0,-2)" font-family="sans-serif" font-size="11px" font-weight="bold" fill="#000" opacity="1">Count of Records</text></g></g><path class="foreground" aria-hidden="true" d="" pointer-events="none" display="none"/></g></g><g class="mark-rect role-mark concat_0_marks" clip-path="url(#clip1)" role="graphics-object" aria-roledescription="rect mark container" pointer-events="none"><path aria-label="time (binned): 1 – 2; Count of Records: 13" role="graphics-symbol" aria-roledescription="bar" d="M21,144.42857142857142h19v5.571428571428584h-19Z" fill="#4c78a8"/><path aria-label="time (binned): 6 – 7; Count of Records: 330" role="graphics-symbol" aria-roledescription="bar" d="M121,8.571428571428575h19v141.42857142857142h-19Z" fill="#4c78a8"/><path aria-label="time (binned): 7 – 8; Count of Records: 336" role="graphics-symbol" aria-roledescription="bar" d="M141,6.000000000000005h19v144h-19Z" fill="#4c78a8"/><path aria-label="time (binned): 8 – 9; Count of Records: 319" role="graphics-symbol" aria-roledescription="bar" d="M161,13.285714285714278h19v136.71428571428572h-19Z" fill="#4c78a8"/><path aria-label="time (binned): 9 – 10; Count of Records: 312" role="graphics-symbol" aria-roledescription="bar" d="M181,16.28571428571428h19v133.71428571428572h-19Z" fill="#4c78a8"/><path aria-label="time (binned): 10 – 11; Count of Records: 259" role="graphics-symbol" aria-roledescription="bar" d="M201,39h19v111h-19Z" fill="#4c78a8"/><path aria-label="time (binned): 11 – 12; Count of Records: 303" role="graphics-symbol" aria-roledescription="bar" d="M221,20.142857142857135h19v129.85714285714286h-19Z" fill="#4c78a8"/><path aria-label="time (binned): 12 – 13; Count of Records: 309" role="graphics-symbol" aria-roledescription="bar" d="M241,17.571428571428566h19v132.42857142857144h-19Z" fill="#4c78a8"/><path aria-label="time (binned): 13 – 14; Count of Records: 347" role="graphics-symbol" aria-roledescription="bar" d="M261,1.2857142857142845h19v148.71428571428572h-19Z" fill="#4c78a8"/><path aria-label="time (binned): 14 – 15; Count of Records: 287" role="graphics-symbol" aria-roledescription="bar" d="M281,27.000000000000007h19v123h-19Z" fill="#4c78a8"/><path aria-label="time (binned): 15 – 16; Count of Records: 275" role="graphics-symbol" aria-roledescription="bar" d="M301,32.142857142857146h19v117.85714285714286h-19Z" fill="#4c78a8"/><path aria-label="time (binned): 16 – 17; Count of Records: 286" role="graphics-symbol" aria-roledescription="bar" d="M321,27.428571428571423h19v122.57142857142858h-19Z" fill="#4c78a8"/><path aria-label="time (binned): 17 – 18; Count of Records: 348" role="graphics-symbol" aria-roledescription="bar" d="M341,0.8571428571428508h19v149.14285714285714h-19Z" fill="#4c78a8"/><path aria-label="time (binned): 18 – 19; Count of Records: 314" role="graphics-symbol" aria-roledescription="bar" d="M361,15.42857142857143h19v134.57142857142856h-19Z" fill="#4c78a8"/><path aria-label="time (binned): 19 – 20; Count of Records: 305" role="graphics-symbol" aria-roledescription="bar" d="M381,19.285714285714285h19v130.71428571428572h-19Z" fill="#4c78a8"/><path aria-label="time (binned): 20 – 21; Count of Records: 221" role="graphics-symbol" aria-roledescription="bar" d="M401,55.285714285714285h19v94.71428571428572h-19Z" fill="#4c78a8"/><path aria-label="time (binned): 22 – 23; Count of Records: 120" role="graphics-symbol" aria-roledescription="bar" d="M441,98.57142857142857h19v51.42857142857143h-19Z" fill="#4c78a8"/><path aria-label="time (binned): 23 – 24; Count of Records: 42" role="graphics-symbol" aria-roledescription="bar" d="M461,132h19v18h-19Z" fill="#4c78a8"/><path aria-label="time (binned): 0 – 1; Count of Records: 19" role="graphics-symbol" aria-roledescription="bar" d="M1,141.85714285714286h19v8.142857142857139h-19Z" fill="#4c78a8"/><path aria-label="time (binned): 21 – 22; Count of Records: 199" role="graphics-symbol" aria-roledescription="bar" d="M421,64.71428571428571h19v85.28571428571429h-19Z" fill="#4c78a8"/><path aria-label="time (binned): 5 – 6; Count of Records: 53" role="graphics-symbol" aria-roledescription="bar" d="M101,127.28571428571428h19v22.714285714285722h-19Z" fill="#4c78a8"/><path aria-label="time (binned): 3 – 4; Count of Records: 1" role="graphics-symbol" aria-roledescription="bar" d="M61,149.57142857142856h19v0.4285714285714448h-19Z" fill="#4c78a8"/><path aria-label="time (binned): 2 – 3; Count of Records: 2" role="graphics-symbol" aria-roledescription="bar" d="M41,149.14285714285714h19v0.8571428571428612h-19Z" fill="#4c78a8"/></g></g><path class="foreground" aria-hidden="true" d="" display="none"/></g></g><g class="mark-group role-scope concat_1_group" role="graphics-object" aria-roledescription="group mark container"><g transform="translate(0,204)"><path class="background" aria-hidden="true" d="M0.5,0.5h480v50h-480Z" stroke="#ddd"/><g><g class="mark-group role-axis" aria-hidden="true"><g transform="translate(0.5,0.5)"><path class="background" aria-hidden="true" d="M0,0h0v0h0Z" pointer-events="none"/><g><g class="mark-rule role-axis-grid" pointer-events="none"><line transform="translate(0,50)" x2="480" y2="0" stroke="#ddd" stroke-width="1" opacity="1"/><line transform="translate(0,21)" x2="480" y2="0" stroke="#ddd" stroke-width="1" opacity="1"/></g></g><path class="foreground" aria-hidden="true" d="" pointer-events="none" display="none"/></g></g><g class="mark-group role-axis" role="graphics-symbol" aria-roledescription="axis" aria-label="X-axis titled 'time (binned)' for a linear scale with values from 0 to 24"><g transform="translate(0.5,50.5)"><path class="background" aria-hidden="true" d="M0,0h0v0h0Z" pointer-events="none"/><g><g class="mark-rule role-axis-tick" pointer-events="none"><line transform="translate(0,0)" x2="0" y2="5" stroke="#888" stroke-width="1" opacity="1"/><line transform="translate(20,0)" x2="0" y2="5" stroke="#888" stroke-width="1" opacity="1"/><line transform="translate(40,0)" x2="0" y2="5" stroke="#888" stroke-width="1" opacity="1"/><line transform="translate(60,0)" x2="0" y2="5" stroke="#888" stroke-width="1" opacity="1"/><line transform="translate(80,0)" x2="0" y2="5" stroke="#888" stroke-width="1" opacity="1"/><line transform="translate(100,0)" x2="0" y2="5" stroke="#888" stroke-width="1" opacity="1"/><line transform="translate(120,0)" x2="0" y2="5" stroke="#888" stroke-width="1" opacity="1"/><line transform="translate(140,0)" x2="0" y2="5" stroke="#888" stroke-width="1" opacity="1"/><line transform="translate(160,0)" x2="0" y2="5" stroke="#888" stroke-width="1" opacity="1"/><line transform="translate(180,0)" x2="0" y2="5" stroke="#888" stroke-width="1" opacity="1"/><line transform="translate(200,0)" x2="0" y2="5" stroke="#888" stroke-width="1" opacity="1"/><line transform="translate(220,0)" x2="0" y2="5" stroke="#888" stroke-width="1" opacity="1"/><line transform="translate(240,0)" x2="0" y2="5" stroke="#888" stroke-width="1" opacity="1"/><line transform="translate(260,0)" x2="0" y2="5" stroke="#888" stroke-width="1" opacity="1"/><line transform="translate(280,0)" x2="0" y2="5" stroke="#888" stroke-width="1" opacity="1"/><line transform="translate(300,0)" x2="0" y2="5" stroke="#888" stroke-width="1" opacity="1"/><line transform="translate(320,0)" x2="0" y2="5" stroke="#888" stroke-width="1" opacity="1"/><line transform="translate(340,0)" x2="0" y2="5" stroke="#888" stroke-width="1" opacity="1"/><line transform="translate(360,0)" x2="0" y2="5" stroke="#888" stroke-width="1" opacity="1"/><line transform="translate(380,0)" x2="0" y2="5" stroke="#888" stroke-width="1" opacity="1"/><line transform="translate(400,0)" x2="0" y2="5" stroke="#888" stroke-width="1" opacity="1"/><line transform="translate(420,0)" x2="0" y2="5" stroke="#888" stroke-width="1" opacity="1"/><line transform="translate(440,0)" x2="0" y2="5" stroke="#888" stroke-width="1" opacity="1"/><line transform="translate(460,0)" x2="0" y2="5" stroke="#888" stroke-width="1" opacity="1"/><line transform="translate(480,0)" x2="0" y2="5" stroke="#888" stroke-width="1" opacity="1"/></g><g class="mark-text role-axis-label" pointer-events="none"><text text-anchor="start" transform="translate(0,15)" font-family="sans-serif" font-size="10px" fill="#000" opacity="1">0.0</text><text text-anchor="middle" transform="translate(20,15)" font-family="sans-serif" font-size="10px" fill="#000" opacity="0">1.0</text><text text-anchor="middle" transform="translate(40,15)" font-family="sans-serif" font-size="10px" fill="#000" opacity="1">2.0</text><text text-anchor="middle" transform="translate(60,15)" font-family="sans-serif" font-size="10px" fill="#000" opacity="0">3.0</text><text text-anchor="middle" transform="translate(80,15)" font-family="sans-serif" font-size="10px" fill="#000" opacity="1">4.0</text><text text-anchor="middle" transform="translate(100,15)" font-family="sans-serif" font-size="10px" fill="#000" opacity="0">5.0</text><text text-anchor="middle" transform="translate(120,15)" font-family="sans-serif" font-size="10px" fill="#000" opacity="1">6.0</text><text text-anchor="middle" transform="translate(140,15)" font-family="sans-serif" font-size="10px" fill="#000" opacity="0">7.0</text><text text-anchor="middle" transform="translate(160,15)" font-family="sans-serif" font-size="10px" fill="#000" opacity="1">8.0</text><text text-anchor="middle" transform="translate(180,15)" font-family="sans-serif" font-size="10px" fill="#000" opacity="0">9.0</text><text text-anchor="middle" transform="translate(200,15)" font-family="sans-serif" font-size="10px" fill="#000" opacity="1">10.0</text><text text-anchor="middle" transform="translate(220,15)" font-family="sans-serif" font-size="10px" fill="#000" opacity="0">11.0</text><text text-anchor="middle" transform="translate(240,15)" font-family="sans-serif" font-size="10px" fill="#000" opacity="1">12.0</text><text text-anchor="middle" transform="translate(260,15)" font-family="sans-serif" font-size="10px" fill="#000" opacity="0">13.0</text><text text-anchor="middle" transform="translate(280,15)" font-family="sans-serif" font-size="10px" fill="#000" opacity="1">14.0</text><text text-anchor="middle" transform="translate(300,15)" font-family="sans-serif" font-size="10px" fill="#000" opacity="0">15.0</text><text text-anchor="middle" transform="translate(320,15)" font-family="sans-serif" font-size="10px" fill="#000" opacity="1">16.0</text><text text-anchor="middle" transform="translate(340,15)" font-family="sans-serif" font-size="10px" fill="#000" opacity="0">17.0</text><text text-anchor="middle" transform="translate(360,15)" font-family="sans-serif" font-size="10px" fill="#000" opacity="1">18.0</text><text text-anchor="middle" transform="translate(380,15)" font-family="sans-serif" font-size="10px" fill="#000" opacity="0">19.0</text><text text-anchor="middle" transform="translate(400,15)" font-family="sans-serif" font-size="10px" fill="#000" opacity="1">20.0</text><text text-anchor="middle" transform="translate(420,15)" font-family="sans-serif" font-size="10px" fill="#000" opacity="0">21.0</text><text text-anchor="middle" transform="translate(440,15)" font-family="sans-serif" font-size="10px" fill="#000" opacity="1">22.0</text><text text-anchor="middle" transform="translate(460,15)" font-family="sans-serif" font-size="10px" fill="#000" opacity="0">23.0</text><text text-anchor="end" transform="translate(480,15)" font-family="sans-serif" font-size="10px" fill="#000" opacity="1">24.0</text></g><g class="mark-rule role-axis-domain" pointer-events="none"><line transform="translate(0,0)" x2="480" y2="0" stroke="#888" stroke-width="1" opacity="1"/></g><g class="mark-text role-axis-title" pointer-events="none"><text text-anchor="middle" transform="translate(240,30)" font-family="sans-serif" font-size="11px" font-weight="bold" fill="#000" opacity="1">time (binned)</text></g></g><path class="foreground" aria-hidden="true" d="" pointer-events="none" display="none"/></g></g><g class="mark-group role-axis" role="graphics-symbol" aria-roledescription="axis" aria-label="Y-axis titled 'Count' for a linear scale with values from 0 to 350"><g transform="translate(0.5,0.5)"><path class="background" aria-hidden="true" d="M0,0h0v0h0Z" pointer-events="none"/><g><g class="mark-rule role-axis-tick" pointer-events="none"><line transform="translate(0,50)" x2="-5" y2="0" stroke="#888" stroke-width="1" opacity="1"/><line transform="translate(0,21)" x2="-5" y2="0" stroke="#888" stroke-width="1" opacity="1"/></g><g class="mark-text role-axis-label" pointer-events="none"><text text-anchor="end" transform="translate(-7,53)" font-family="sans-serif" font-size="10px" fill="#000" opacity="1">0</text><text text-anchor="end" transform="translate(-7,24.42857142857143)" font-family="sans-serif" font-size="10px" fill="#000" opacity="1">200</text></g><g class="mark-rule role-axis-domain" pointer-events="none"><line transform="translate(0,50)" x2="0" y2="-50" stroke="#888" stroke-width="1" opacity="1"/></g><g class="mark-text role-axis-title" pointer-events="none"><text text-anchor="middle" transform="translate(-30.0869140625,25) rotate(-90) translate(0,-2)" font-family="sans-serif" font-size="11px" font-weight="bold" fill="#000" opacity="1">Count</text></g></g><path class="foreground" aria-hidden="true" d="" pointer-events="none" display="none"/></g></g><g class="mark-rect role-mark brush_brush_bg" clip-path="url(#clip2)" role="graphics-symbol" aria-roledescription="rect mark container"><path d="M0,0h0v0h0Z" fill="#333" fill-opacity="0.125"/></g><g class="mark-rect role-mark concat_1_marks" role="graphics-object" aria-roledescription="rect mark container"><path aria-label="time (binned): 1 – 2; Count of Records: 13" role="graphics-symbol" aria-roledescription="bar" d="M21,48.142857142857146h19v1.857142857142854h-19Z" fill="#4c78a8"/><path aria-label="time (binned): 6 – 7; Count of Records: 330" role="graphics-symbol" aria-roledescription="bar" d="M121,2.857142857142858h19v47.14285714285714h-19Z" fill="#4c78a8"/><path aria-label="time (binned): 7 – 8; Count of Records: 336" role="graphics-symbol" aria-roledescription="bar" d="M141,2.0000000000000018h19v48h-19Z" fill="#4c78a8"/><path aria-label="time (binned): 8 – 9; Count of Records: 319" role="graphics-symbol" aria-roledescription="bar" d="M161,4.428571428571426h19v45.57142857142858h-19Z" fill="#4c78a8"/><path aria-label="time (binned): 9 – 10; Count of Records: 312" role="graphics-symbol" aria-roledescription="bar" d="M181,5.428571428571427h19v44.57142857142857h-19Z" fill="#4c78a8"/><path aria-label="time (binned): 10 – 11; Count of Records: 259" role="graphics-symbol" aria-roledescription="bar" d="M201,13h19v37h-19Z" fill="#4c78a8"/><path aria-label="time (binned): 11 – 12; Count of Records: 303" role="graphics-symbol" aria-roledescription="bar" d="M221,6.714285714285712h19v43.28571428571429h-19Z" fill="#4c78a8"/><path aria-label="time (binned): 12 – 13; Count of Records: 309" role="graphics-symbol" aria-roledescription="bar" d="M241,5.857142857142855h19v44.142857142857146h-19Z" fill="#4c78a8"/><path aria-label="time (binned): 13 – 14; Count of Records: 347" role="graphics-symbol" aria-roledescription="bar" d="M261,0.42857142857142816h19v49.57142857142857h-19Z" fill="#4c78a8"/><path aria-label="time (binned): 14 – 15; Count of Records: 287" role="graphics-symbol" aria-roledescription="bar" d="M281,9.000000000000002h19v41h-19Z" fill="#4c78a8"/><path aria-label="time (binned): 15 – 16; Count of Records: 275" role="graphics-symbol" aria-roledescription="bar" d="M301,10.714285714285715h19v39.285714285714285h-19Z" fill="#4c78a8"/><path aria-label="time (binned): 16 – 17; Count of Records: 286" role="graphics-symbol" aria-roledescription="bar" d="M321,9.142857142857142h19v40.85714285714286h-19Z" fill="#4c78a8"/><path aria-label="time (binned): 17 – 18; Count of Records: 348" role="graphics-symbol" aria-roledescription="bar" d="M341,0.2857142857142836h19v49.714285714285715h-19Z" fill="#4c78a8"/><path aria-label="time (binned): 18 – 19; Count of Records: 314" role="graphics-symbol" aria-roledescription="bar" d="M361,5.142857142857143h19v44.857142857142854h-19Z" fill="#4c78a8"/><path aria-label="time (binned): 19 – 20; Count of Records: 305" role="graphics-symbol" aria-roledescription="bar" d="M381,6.428571428571428h19v43.57142857142857h-19Z" fill="#4c78a8"/><path aria-label="time (binned): 20 – 21; Count of Records: 221" role="graphics-symbol" aria-roledescription="bar" d="M401,18.428571428571427h19v31.571428571428573h-19Z" fill="#4c78a8"/><path aria-label="time (binned): 22 – 23; Count of Records: 120" role="graphics-symbol" aria-roledescription="bar" d="M441,32.857142857142854h19v17.142857142857146h-19Z" fill="#4c78a8"/><path aria-label="time (binned): 23 – 24; Count of Records: 42" role="graphics-symbol" aria-roledescription="bar" d="M461,44h19v6h-19Z" fill="#4c78a8"/><path aria-label="time (binned): 0 – 1; Count of Records: 19" role="graphics-symbol" aria-roledescription="bar" d="M1,47.285714285714285h19v2.7142857142857153h-19Z" fill="#4c78a8"/><path aria-label="time (binned): 21 – 22; Count of Records: 199" role="graphics-symbol" aria-roledescription="bar" d="M421,21.57142857142857h19v28.42857142857143h-19Z" fill="#4c78a8"/><path aria-label="time (binned): 5 – 6; Count of Records: 53" role="graphics-symbol" aria-roledescription="bar" d="M101,42.42857142857142h19v7.5714285714285765h-19Z" fill="#4c78a8"/><path aria-label="time (binned): 3 – 4; Count of Records: 1" role="graphics-symbol" aria-roledescription="bar" d="M61,49.857142857142854h19v0.1428571428571459h-19Z" fill="#4c78a8"/><path aria-label="time (binned): 2 – 3; Count of Records: 2" role="graphics-symbol" aria-roledescription="bar" d="M41,49.714285714285715h19v0.2857142857142847h-19Z" fill="#4c78a8"/></g><g class="mark-rect role-mark brush_brush" clip-path="url(#clip3)" role="graphics-symbol" aria-roledescription="rect mark container"><path d="M0,0h0v0h0Z"/></g></g><path class="foreground" aria-hidden="true" d="" display="none"/></g></g></g><path class="foreground" aria-hidden="true" d="" display="none"/></g></g></g><defs><clipPath id="clip1"><rect x="0" y="0" width="480" height="150"/></clipPath><clipPath id="clip2"><rect x="0" y="0" width="480" height="50"/></clipPath><clipPath id="clip3"><rect x="0" y="0" width="480" height="50"/></clipPath></defs></svg>