<svg class="marks" width="566" height="340" viewBox="0 0 566 340" version="1.1" xmlns="http://www.w3.org/2000/svg" xmlns:xlink="http://www.w3.org/1999/xlink"><defs><clipPath id="clip1"><rect x="0" y="0" width="480" height="200"></rect></clipPath><clipPath id="clip2"><rect x="0" y="0" width="480" height="60"></rect></clipPath><clipPath id="clip3"><rect x="0" y="0" width="480" height="60"></rect></clipPath></defs><g transform="translate(57,6)"><g class="mark-group role-frame root"><g transform="translate(0,0)"><path class="background" d="M0,0h480v0h-480Z" style="fill: none;"></path><g><g class="mark-group role-scope concat_0_group"><g transform="translate(0,0)"><path class="background" d="M0.5,0.5h480v200h-480Z" style="fill: none; stroke: #ddd;"></path><g><g class="mark-group role-axis"><g transform="translate(0.5,200.5)"><path class="background" d="M0,0h0v0h0Z" style="pointer-events: none; fill: none;"></path><g><g class="mark-rule role-axis-grid" style="pointer-events: none;"><line transform="translate(0,-200)" x2="0" y2="200" style="fill: none; stroke: #ddd; stroke-width: 1; opacity: 1;"></line><line transform="translate(47,-200)" x2="0" y2="200" style="fill: none; stroke: #ddd; stroke-width: 1; opacity: 1;"></line><line transform="translate(95,-200)" x2="0" y2="200" style="fill: none; stroke: #ddd; stroke-width: 1; opacity: 1;"></line><line transform="translate(142,-200)" x2="0" y2="200" style="fill: none; stroke: #ddd; stroke-width: 1; opacity: 1;"></line><line transform="translate(189,-200)" x2="0" y2="200" style="fill: none; stroke: #ddd; stroke-width: 1; opacity: 1;"></line><line transform="translate(236,-200)" x2="0" y2="200" style="fill: none; stroke: #ddd; stroke-width: 1; opacity: 1;"></line><line transform="translate(283,-200)" x2="0" y2="200" style="fill: none; stroke: #ddd; stroke-width: 1; opacity: 1;"></line><line transform="translate(331,-200)" x2="0" y2="200" style="fill: none; stroke: #ddd; stroke-width: 1; opacity: 1;"></line><line transform="translate(378,-200)" x2="0" y2="200" style="fill: none; stroke: #ddd; stroke-width: 1; opacity: 1;"></line><line transform="translate(425,-200)" x2="0" y2="200" style="fill: none; stroke: #ddd; stroke-width: 1; opacity: 1;"></line><line transform="translate(472,-200)" x2="0" y2="200" style="fill: none; stroke: #ddd; stroke-width: 1; opacity: 1;"></line></g></g></g></g><g class="mark-group role-axis"><g transform="translate(0.5,0.5)"><path class="background" d="M0,0h0v0h0Z" style="pointer-events: none; fill: none;"></path><g><g class="mark-rule role-axis-grid" style="pointer-events: none;"><line transform="translate(0,200)" x2="480" y2="0" style="fill: none; stroke: #ddd; stroke-width: 1; opacity: 1;"></line><line transform="translate(0,138)" x2="480" y2="0" style="fill: none; stroke: #ddd; stroke-width: 1; opacity: 1;"></line><line transform="translate(0,75)" x2="480" y2="0" style="fill: none; stroke: #ddd; stroke-width: 1; opacity: 1;"></line><line transform="translate(0,13)" x2="480" y2="0" style="fill: none; stroke: #ddd; stroke-width: 1; opacity: 1;"></line></g></g></g></g><g class="mark-area role-mark concat_0_marks" clip-path="url(#clip1)"><path d="M480,57.443749999999994L476.37931034482756,61.93875L472.37068965517244,65.76625000000001L468.36206896551727,60.61250000000001L464.4773706896552,63.046249999999986L460.46875,70.47625L456.5894396551724,67.86500000000001L452.5808189655172,72.42249999999999L448.57219827586204,76.565L444.6928879310345,85.085L440.6842672413793,85.1075L436.80495689655174,90.89875L432.801724137931,100.26625L429.1810344827586,108.11375L425.17241379310343,96.76499999999999L421.16379310344826,87.09374999999999L417.2790948275862,87.97L413.27047413793105,78.90625L409.3911637931035,54.20500000000001L405.3825431034483,39.64625000000001L401.37392241379314,41.577499999999986L397.4946120689655,40L393.48599137931035,24.952499999999986L389.60668103448273,26.80125000000001L385.6034482758621,34.662499999999994L381.8534482758621,33.671249999999986L377.8448275862069,27.681250000000006L373.83620689655174,16.455000000000013L369.95150862068965,14.857499999999987L365.9428879310345,6.327499999999986L362.0635775862069,9.15625L358.05495689655174,15.751249999999999L354.04633620689657,18.091250000000002L350.16702586206895,12.081250000000011L346.1584051724138,8.672500000000014L342.2790948275862,14.703750000000014L338.2758620689655,22.392500000000013L334.6551724137931,24.147500000000008L330.6465517241379,20.22L326.63793103448273,22.712500000000006L322.7586206896552,24.921249999999986L318.7446120689655,27.757499999999993L314.8653017241379,33.01875000000001L310.85668103448273,37.02250000000001L306.84806034482756,40.41749999999999L302.96875,41.224999999999994L298.9601293103448,41.23875000000001L295.08620689655174,36.17375000000001L291.07758620689657,38.141250000000014L287.4568965517242,39.91749999999999L283.448275862069,39.99000000000001L279.43965517241384,43.963750000000005L275.56034482758616,43.815L271.54633620689657,49.12375L267.66702586206895,46.39875000000001L263.6584051724138,47.45875000000001L259.6497844827586,45.72749999999999L255.77047413793105,51.08375000000001L251.76185344827584,51.0625L247.88793103448273,55.39375000000001L243.87931034482756,52.42625000000001L240.25862068965517,49.55000000000001L236.25,52.34125L232.24137931034483,48.50999999999999L228.36206896551724,53.27250000000001L224.3480603448276,58.724999999999994L220.46875,60.67750000000001L216.46012931034483,61.97L212.45150862068965,62.285L208.57219827586206,57.39500000000001L204.5635775862069,59.91499999999999L200.68965517241378,61.587500000000006L196.68103448275863,59.223749999999995L192.93103448275863,56.88249999999999L188.92241379310346,58.608749999999986L184.91379310344828,61.00999999999999L181.0344827586207,67.725L177.02047413793105,68.66125L173.14116379310343,75.50375L169.13254310344826,73.99875L165.1239224137931,76.21124999999999L161.24461206896552,78.18750000000001L157.23599137931035,79.55125000000001L153.36206896551724,85.385L149.3534482758621,93.9775L145.73275862068965,94.85625L141.7241379310345,93.0375L137.7155172413793,90.02249999999998L133.83620689655172,82.96125L129.82219827586206,89.28L125.94288793103448,98.09L121.9342672413793,85.49125L117.92564655172414,86.04750000000001L114.04633620689656,76.2725L110.03771551724138,66.60749999999999L106.16379310344827,65.38499999999999L102.15517241379311,56.57624999999999L98.53448275862068,61.65875L94.52586206896552,58.724999999999994L90.51724137931035,56.49000000000001L86.63793103448275,57.568749999999994L82.6239224137931,67.5275L78.74461206896551,69.8825L74.73599137931035,58.30250000000001L70.72737068965517,48.59625L66.84806034482759,46.952499999999986L62.83943965517241,43.02250000000001L58.96551724137931,43.817499999999995L54.956896551724135,54.95875000000001L51.33620689655173,45.00749999999999L47.327586206896555,29.24875L43.318965517241374,34.965L39.439655172413794,35.631249999999994L35.425646551724135,21.32499999999999L31.54633620689655,20.43625L27.537715517241377,10.289999999999992L23.529094827586206,21.14625000000001L19.64978448275862,18.17500000000001L15.64116379310345,22.42500000000001L11.767241379310343,18.446249999999992L7.758620689655173,12.677500000000009L4.008620689655172,29.19749999999999L0,25.692499999999995L0,200L4.008620689655172,200L7.758620689655173,200L11.767241379310343,200L15.64116379310345,200L19.64978448275862,200L23.529094827586206,200L27.537715517241377,200L31.54633620689655,200L35.425646551724135,200L39.439655172413794,200L43.318965517241374,200L47.327586206896555,200L51.33620689655173,200L54.956896551724135,200L58.96551724137931,200L62.83943965517241,200L66.84806034482759,200L70.72737068965517,200L74.73599137931035,200L78.74461206896551,200L82.6239224137931,200L86.63793103448275,200L90.51724137931035,200L94.52586206896552,200L98.53448275862068,200L102.15517241379311,200L106.16379310344827,200L110.03771551724138,200L114.04633620689656,200L117.92564655172414,200L121.9342672413793,200L125.94288793103448,200L129.82219827586206,200L133.83620689655172,200L137.7155172413793,200L141.7241379310345,200L145.73275862068965,200L149.3534482758621,200L153.36206896551724,200L157.23599137931035,200L161.24461206896552,200L165.1239224137931,200L169.13254310344826,200L173.14116379310343,200L177.02047413793105,200L181.0344827586207,200L184.91379310344828,200L188.92241379310346,200L192.93103448275863,200L196.68103448275863,200L200.68965517241378,200L204.5635775862069,200L208.57219827586206,200L212.45150862068965,200L216.46012931034483,200L220.46875,200L224.3480603448276,200L228.36206896551724,200L232.24137931034483,200L236.25,200L240.25862068965517,200L243.87931034482756,200L247.88793103448273,200L251.76185344827584,200L255.77047413793105,200L259.6497844827586,200L263.6584051724138,200L267.66702586206895,200L271.54633620689657,200L275.56034482758616,200L279.43965517241384,200L283.448275862069,200L287.4568965517242,200L291.07758620689657,200L295.08620689655174,200L298.9601293103448,200L302.96875,200L306.84806034482756,200L310.85668103448273,200L314.8653017241379,200L318.7446120689655,200L322.7586206896552,200L326.63793103448273,200L330.6465517241379,200L334.6551724137931,200L338.2758620689655,200L342.2790948275862,200L346.1584051724138,200L350.16702586206895,200L354.04633620689657,200L358.05495689655174,200L362.0635775862069,200L365.9428879310345,200L369.95150862068965,200L373.83620689655174,200L377.8448275862069,200L381.8534482758621,200L385.6034482758621,200L389.60668103448273,200L393.48599137931035,200L397.4946120689655,200L401.37392241379314,200L405.3825431034483,200L409.3911637931035,200L413.27047413793105,200L417.2790948275862,200L421.16379310344826,200L425.17241379310343,200L429.1810344827586,200L432.801724137931,200L436.80495689655174,200L440.6842672413793,200L444.6928879310345,200L448.57219827586204,200L452.5808189655172,200L456.5894396551724,200L460.46875,200L464.4773706896552,200L468.36206896551727,200L472.37068965517244,200L476.37931034482756,200L480,200Z" style="fill: #4c78a8;"></path></g><g class="mark-group role-axis"><g transform="translate(0.5,200.5)"><path class="background" d="M0,0h0v0h0Z" style="pointer-events: none; fill: none;"></path><g><g class="mark-rule role-axis-tick" style="pointer-events: none;"><line transform="translate(0,0)" x2="0" y2="5" style="fill: none; stroke: #888; stroke-width: 1; opacity: 1;"></line><line transform="translate(47,0)" x2="0" y2="5" style="fill: none; stroke: #888; stroke-width: 1; opacity: 1;"></line><line transform="translate(95,0)" x2="0" y2="5" style="fill: none; stroke: #888; stroke-width: 1; opacity: 1;"></line><line transform="translate(142,0)" x2="0" y2="5" style="fill: none; stroke: #888; stroke-width: 1; opacity: 1;"></line><line transform="translate(189,0)" x2="0" y2="5" style="fill: none; stroke: #888; stroke-width: 1; opacity: 1;"></line><line transform="translate(236,0)" x2="0" y2="5" style="fill: none; stroke: #888; stroke-width: 1; opacity: 1;"></line><line transform="translate(283,0)" x2="0" y2="5" style="fill: none; stroke: #888; stroke-width: 1; opacity: 1;"></line><line transform="translate(331,0)" x2="0" y2="5" style="fill: none; stroke: #888; stroke-width: 1; opacity: 1;"></line><line transform="translate(378,0)" x2="0" y2="5" style="fill: none; stroke: #888; stroke-width: 1; opacity: 1;"></line><line transform="translate(425,0)" x2="0" y2="5" style="fill: none; stroke: #888; stroke-width: 1; opacity: 1;"></line><line transform="translate(472,0)" x2="0" y2="5" style="fill: none; stroke: #888; stroke-width: 1; opacity: 1;"></line></g><g class="mark-text role-axis-label" style="pointer-events: none;"><text text-anchor="start" transform="translate(0,15)" style="font: 10px sans-serif; fill: #000; opacity: 1;">Jan 01, 2000</text><text text-anchor="middle" transform="translate(47.327586206896555,15)" style="font: 10px sans-serif; fill: #000; opacity: 0;">Jan 01, 2001</text><text text-anchor="middle" transform="translate(94.52586206896552,15)" style="font: 10px sans-serif; fill: #000; opacity: 1;">Jan 01, 2002</text><text text-anchor="middle" transform="translate(141.7241379310345,15)" style="font: 10px sans-serif; fill: #000; opacity: 0;">Jan 01, 2003</text><text text-anchor="middle" transform="translate(188.92241379310346,15)" style="font: 10px sans-serif; fill: #000; opacity: 1;">Jan 01, 2004</text><text text-anchor="middle" transform="translate(236.25,15)" style="font: 10px sans-serif; fill: #000; opacity: 0;">Jan 01, 2005</text><text text-anchor="middle" transform="translate(283.448275862069,15)" style="font: 10px sans-serif; fill: #000; opacity: 1;">Jan 01, 2006</text><text text-anchor="middle" transform="translate(330.6465517241379,15)" style="font: 10px sans-serif; fill: #000; opacity: 0;">Jan 01, 2007</text><text text-anchor="middle" transform="translate(377.8448275862069,15)" style="font: 10px sans-serif; fill: #000; opacity: 1;">Jan 01, 2008</text><text text-anchor="middle" transform="translate(425.17241379310343,15)" style="font: 10px sans-serif; fill: #000; opacity: 0;">Jan 01, 2009</text><text text-anchor="middle" transform="translate(472.37068965517244,15)" style="font: 10px sans-serif; fill: #000; opacity: 1;">Jan 01, 2010</text></g><g class="mark-rule role-axis-domain" style="pointer-events: none;"><line transform="translate(0,0)" x2="480" y2="0" style="fill: none; stroke: #888; stroke-width: 1; opacity: 1;"></line></g></g></g></g><g class="mark-group role-axis"><g transform="translate(0.5,0.5)"><path class="background" d="M0,0h0v0h0Z" style="pointer-events: none; fill: none;"></path><g><g class="mark-rule role-axis-tick" style="pointer-events: none;"><line transform="translate(0,200)" x2="-5" y2="0" style="fill: none; stroke: #888; stroke-width: 1; opacity: 1;"></line><line transform="translate(0,138)" x2="-5" y2="0" style="fill: none; stroke: #888; stroke-width: 1; opacity: 1;"></line><line transform="translate(0,75)" x2="-5" y2="0" style="fill: none; stroke: #888; stroke-width: 1; opacity: 1;"></line><line transform="translate(0,13)" x2="-5" y2="0" style="fill: none; stroke: #888; stroke-width: 1; opacity: 1;"></line></g><g class="mark-text role-axis-label" style="pointer-events: none;"><text text-anchor="end" transform="translate(-7,203)" style="font: 10px sans-serif; fill: #000; opacity: 1;">0</text><text text-anchor="end" transform="translate(-7,140.5)" style="font: 10px sans-serif; fill: #000; opacity: 1;">500</text><text text-anchor="end" transform="translate(-7,78)" style="font: 10px sans-serif; fill: #000; opacity: 1;">1,000</text><text text-anchor="end" transform="translate(-7,15.5)" style="font: 10px sans-serif; fill: #000; opacity: 1;">1,500</text></g><g class="mark-rule role-axis-domain" style="pointer-events: none;"><line transform="translate(0,200)" x2="0" y2="-200" style="fill: none; stroke: #888; stroke-width: 1; opacity: 1;"></line></g><g class="mark-text role-axis-title" style="pointer-events: none;"><text text-anchor="middle" transform="translate(-37.0244140625,100) rotate(-90) translate(0,-2)" style="font: bold 11px sans-serif; fill: #000; opacity: 1;">price</text></g></g></g></g></g></g></g><g class="mark-group role-scope concat_1_group"><g transform="translate(0,233)"><path class="background" d="M0.5,0.5h480v60h-480Z" style="fill: none; stroke: #ddd;"></path><g><g class="mark-group role-axis"><g transform="translate(0.5,60.5)"><path class="background" d="M0,0h0v0h0Z" style="pointer-events: none; fill: none;"></path><g><g class="mark-rule role-axis-grid" style="pointer-events: none;"><line transform="translate(0,-60)" x2="0" y2="60" style="fill: none; stroke: #ddd; stroke-width: 1; opacity: 1;"></line><line transform="translate(47,-60)" x2="0" y2="60" style="fill: none; stroke: #ddd; stroke-width: 1; opacity: 1;"></line><line transform="translate(95,-60)" x2="0" y2="60" style="fill: none; stroke: #ddd; stroke-width: 1; opacity: 1;"></line><line transform="translate(142,-60)" x2="0" y2="60" style="fill: none; stroke: #ddd; stroke-width: 1; opacity: 1;"></line><line transform="translate(189,-60)" x2="0" y2="60" style="fill: none; stroke: #ddd; stroke-width: 1; opacity: 1;"></line><line transform="translate(236,-60)" x2="0" y2="60" style="fill: none; stroke: #ddd; stroke-width: 1; opacity: 1;"></line><line transform="translate(283,-60)" x2="0" y2="60" style="fill: none; stroke: #ddd; stroke-width: 1; opacity: 1;"></line><line transform="translate(331,-60)" x2="0" y2="60" style="fill: none; stroke: #ddd; stroke-width: 1; opacity: 1;"></line><line transform="translate(378,-60)" x2="0" y2="60" style="fill: none; stroke: #ddd; stroke-width: 1; opacity: 1;"></line><line transform="translate(425,-60)" x2="0" y2="60" style="fill: none; stroke: #ddd; stroke-width: 1; opacity: 1;"></line><line transform="translate(472,-60)" x2="0" y2="60" style="fill: none; stroke: #ddd; stroke-width: 1; opacity: 1;"></line></g></g></g></g><g class="mark-rect role-mark brush_brush_bg" clip-path="url(#clip2)"><path d="M0,0h0v0h0Z" style="fill: #333; fill-opacity: 0.125;"></path></g><g class="mark-area role-mark concat_1_marks"><path d="M480,17.233125L476.37931034482756,18.581625000000003L472.37068965517244,19.729875L468.36206896551727,18.183750000000003L464.4773706896552,18.913874999999997L460.46875,21.142874999999997L456.5894396551724,20.359500000000004L452.5808189655172,21.726749999999996L448.57219827586204,22.969499999999996L444.6928879310345,25.525499999999994L440.6842672413793,25.532249999999998L436.80495689655174,27.269625000000005L432.801724137931,30.079875L429.1810344827586,32.434124999999995L425.17241379310343,29.0295L421.16379310344826,26.128124999999997L417.2790948275862,26.391L413.27047413793105,23.671875L409.3911637931035,16.261500000000005L405.3825431034483,11.893875000000008L401.37392241379314,12.473249999999993L397.4946120689655,12L393.48599137931035,7.485749999999996L389.60668103448273,8.040375000000004L385.6034482758621,10.39875L381.8534482758621,10.101374999999997L377.8448275862069,8.304375000000007L373.83620689655174,4.936500000000009L369.95150862068965,4.457249999999995L365.9428879310345,1.8982499999999973L362.0635775862069,2.746875000000003L358.05495689655174,4.725375L354.04633620689657,5.427374999999998L350.16702586206895,3.6243750000000077L346.1584051724138,2.6017500000000027L342.2790948275862,4.4111250000000055L338.2758620689655,6.717750000000002L334.6551724137931,7.244250000000001L330.6465517241379,6.065999999999995L326.63793103448273,6.813749999999999L322.7586206896552,7.476374999999997L318.7446120689655,8.32725L314.8653017241379,9.905625L310.85668103448273,11.106749999999998L306.84806034482756,12.125250000000001L302.96875,12.3675L298.9601293103448,12.371625000000002L295.08620689655174,10.852125000000001L291.07758620689657,11.442375000000006L287.4568965517242,11.975249999999996L283.448275862069,11.997000000000007L279.43965517241384,13.189125000000004L275.56034482758616,13.1445L271.54633620689657,14.737124999999999L267.66702586206895,13.919624999999996L263.6584051724138,14.237625000000008L259.6497844827586,13.718249999999998L255.77047413793105,15.325125L251.76185344827584,15.318750000000001L247.88793103448273,16.618125000000006L243.87931034482756,15.727875000000004L240.25862068965517,14.865000000000002L236.25,15.702375000000004L232.24137931034483,14.552999999999997L228.36206896551724,15.981750000000005L224.3480603448276,17.6175L220.46875,18.203250000000004L216.46012931034483,18.590999999999994L212.45150862068965,18.685499999999998L208.57219827586206,17.218500000000006L204.5635775862069,17.974499999999992L200.68965517241378,18.47625L196.68103448275863,17.767125L192.93103448275863,17.064749999999997L188.92241379310346,17.582624999999993L184.91379310344828,18.302999999999997L181.0344827586207,20.317499999999995L177.02047413793105,20.598374999999997L173.14116379310343,22.651125L169.13254310344826,22.199624999999997L165.1239224137931,22.863374999999998L161.24461206896552,23.456250000000004L157.23599137931035,23.865375L153.36206896551724,25.615499999999997L149.3534482758621,28.19325L145.73275862068965,28.456875L141.7241379310345,27.911249999999995L137.7155172413793,27.006749999999997L133.83620689655172,24.888375000000003L129.82219827586206,26.784L125.94288793103448,29.427000000000003L121.9342672413793,25.647374999999997L117.92564655172414,25.81425L114.04633620689656,22.881749999999997L110.03771551724138,19.98225L106.16379310344827,19.615499999999997L102.15517241379311,16.972875000000002L98.53448275862068,18.497625L94.52586206896552,17.6175L90.51724137931035,16.947000000000003L86.63793103448275,17.270624999999995L82.6239224137931,20.258250000000004L78.74461206896551,20.964750000000002L74.73599137931035,17.490750000000006L70.72737068965517,14.578875000000004L66.84806034482759,14.085749999999997L62.83943965517241,12.906750000000002L58.96551724137931,13.145249999999997L54.956896551724135,16.487625L51.33620689655173,13.502250000000004L47.327586206896555,8.774625L43.318965517241374,10.4895L39.439655172413794,10.689374999999998L35.425646551724135,6.397500000000001L31.54633620689655,6.130875000000003L27.537715517241377,3.0870000000000033L23.529094827586206,6.343875000000004L19.64978448275862,5.452500000000001L15.64116379310345,6.727499999999999L11.767241379310343,5.533875000000002L7.758620689655173,3.8032500000000056L4.008620689655172,8.759249999999994L0,7.707749999999997L0,60L4.008620689655172,60L7.758620689655173,60L11.767241379310343,60L15.64116379310345,60L19.64978448275862,60L23.529094827586206,60L27.537715517241377,60L31.54633620689655,60L35.425646551724135,60L39.439655172413794,60L43.318965517241374,60L47.327586206896555,60L51.33620689655173,60L54.956896551724135,60L58.96551724137931,60L62.83943965517241,60L66.84806034482759,60L70.72737068965517,60L74.73599137931035,60L78.74461206896551,60L82.6239224137931,60L86.63793103448275,60L90.51724137931035,60L94.52586206896552,60L98.53448275862068,60L102.15517241379311,60L106.16379310344827,60L110.03771551724138,60L114.04633620689656,60L117.92564655172414,60L121.9342672413793,60L125.94288793103448,60L129.82219827586206,60L133.83620689655172,60L137.7155172413793,60L141.7241379310345,60L145.73275862068965,60L149.3534482758621,60L153.36206896551724,60L157.23599137931035,60L161.24461206896552,60L165.1239224137931,60L169.13254310344826,60L173.14116379310343,60L177.02047413793105,60L181.0344827586207,60L184.91379310344828,60L188.92241379310346,60L192.93103448275863,60L196.68103448275863,60L200.68965517241378,60L204.5635775862069,60L208.57219827586206,60L212.45150862068965,60L216.46012931034483,60L220.46875,60L224.3480603448276,60L228.36206896551724,60L232.24137931034483,60L236.25,60L240.25862068965517,60L243.87931034482756,60L247.88793103448273,60L251.76185344827584,60L255.77047413793105,60L259.6497844827586,60L263.6584051724138,60L267.66702586206895,60L271.54633620689657,60L275.56034482758616,60L279.43965517241384,60L283.448275862069,60L287.4568965517242,60L291.07758620689657,60L295.08620689655174,60L298.9601293103448,60L302.96875,60L306.84806034482756,60L310.85668103448273,60L314.8653017241379,60L318.7446120689655,60L322.7586206896552,60L326.63793103448273,60L330.6465517241379,60L334.6551724137931,60L338.2758620689655,60L342.2790948275862,60L346.1584051724138,60L350.16702586206895,60L354.04633620689657,60L358.05495689655174,60L362.0635775862069,60L365.9428879310345,60L369.95150862068965,60L373.83620689655174,60L377.8448275862069,60L381.8534482758621,60L385.6034482758621,60L389.60668103448273,60L393.48599137931035,60L397.4946120689655,60L401.37392241379314,60L405.3825431034483,60L409.3911637931035,60L413.27047413793105,60L417.2790948275862,60L421.16379310344826,60L425.17241379310343,60L429.1810344827586,60L432.801724137931,60L436.80495689655174,60L440.6842672413793,60L444.6928879310345,60L448.57219827586204,60L452.5808189655172,60L456.5894396551724,60L460.46875,60L464.4773706896552,60L468.36206896551727,60L472.37068965517244,60L476.37931034482756,60L480,60Z" style="fill: #4c78a8;"></path></g><g class="mark-rect role-mark brush_brush" clip-path="url(#clip3)"><path d="M0,0h0v0h0Z" style="fill: none; stroke: white;"></path></g><g class="mark-group role-axis"><g transform="translate(0.5,60.5)"><path class="background" d="M0,0h0v0h0Z" style="pointer-events: none; fill: none;"></path><g><g class="mark-rule role-axis-tick" style="pointer-events: none;"><line transform="translate(0,0)" x2="0" y2="5" style="fill: none; stroke: #888; stroke-width: 1; opacity: 1;"></line><line transform="translate(47,0)" x2="0" y2="5" style="fill: none; stroke: #888; stroke-width: 1; opacity: 1;"></line><line transform="translate(95,0)" x2="0" y2="5" style="fill: none; stroke: #888; stroke-width: 1; opacity: 1;"></line><line transform="translate(142,0)" x2="0" y2="5" style="fill: none; stroke: #888; stroke-width: 1; opacity: 1;"></line><line transform="translate(189,0)" x2="0" y2="5" style="fill: none; stroke: #888; stroke-width: 1; opacity: 1;"></line><line transform="translate(236,0)" x2="0" y2="5" style="fill: none; stroke: #888; stroke-width: 1; opacity: 1;"></line><line transform="translate(283,0)" x2="0" y2="5" style="fill: none; stroke: #888; stroke-width: 1; opacity: 1;"></line><line transform="translate(331,0)" x2="0" y2="5" style="fill: none; stroke: #888; stroke-width: 1; opacity: 1;"></line><line transform="translate(378,0)" x2="0" y2="5" style="fill: none; stroke: #888; stroke-width: 1; opacity: 1;"></line><line transform="translate(425,0)" x2="0" y2="5" style="fill: none; stroke: #888; stroke-width: 1; opacity: 1;"></line><line transform="translate(472,0)" x2="0" y2="5" style="fill: none; stroke: #888; stroke-width: 1; opacity: 1;"></line></g><g class="mark-text role-axis-label" style="pointer-events: none;"><text text-anchor="start" transform="translate(0,15)" style="font: 10px sans-serif; fill: #000; opacity: 1;">2000</text><text text-anchor="middle" transform="translate(47.327586206896555,15)" style="font: 10px sans-serif; fill: #000; opacity: 1;">2001</text><text text-anchor="middle" transform="translate(94.52586206896552,15)" style="font: 10px sans-serif; fill: #000; opacity: 1;">2002</text><text text-anchor="middle" transform="translate(141.7241379310345,15)" style="font: 10px sans-serif; fill: #000; opacity: 1;">2003</text><text text-anchor="middle" transform="translate(188.92241379310346,15)" style="font: 10px sans-serif; fill: #000; opacity: 1;">2004</text><text text-anchor="middle" transform="translate(236.25,15)" style="font: 10px sans-serif; fill: #000; opacity: 1;">2005</text><text text-anchor="middle" transform="translate(283.448275862069,15)" style="font: 10px sans-serif; fill: #000; opacity: 1;">2006</text><text text-anchor="middle" transform="translate(330.6465517241379,15)" style="font: 10px sans-serif; fill: #000; opacity: 1;">2007</text><text text-anchor="middle" transform="translate(377.8448275862069,15)" style="font: 10px sans-serif; fill: #000; opacity: 1;">2008</text><text text-anchor="middle" transform="translate(425.17241379310343,15)" style="font: 10px sans-serif; fill: #000; opacity: 1;">2009</text><text text-anchor="middle" transform="translate(472.37068965517244,15)" style="font: 10px sans-serif; fill: #000; opacity: 1;">2010</text></g><g class="mark-rule role-axis-domain" style="pointer-events: none;"><line transform="translate(0,0)" x2="480" y2="0" style="fill: none; stroke: #888; stroke-width: 1; opacity: 1;"></line></g><g class="mark-text role-axis-title" style="pointer-events: none;"><text text-anchor="middle" transform="translate(240,31)" style="font: bold 11px sans-serif; fill: #000; opacity: 1;">date</text></g></g></g></g><g class="mark-group role-axis"><g transform="translate(0.5,0.5)"><path class="background" d="M0,0h0v0h0Z" style="pointer-events: none; fill: none;"></path><g><g class="mark-rule role-axis-tick" style="pointer-events: none;"><line transform="translate(0,60)" x2="-5" y2="0" style="fill: none; stroke: #888; stroke-width: 1; opacity: 1;"></line><line transform="translate(0,41)" x2="-5" y2="0" style="fill: none; stroke: #888; stroke-width: 1; opacity: 1;"></line><line transform="translate(0,23)" x2="-5" y2="0" style="fill: none; stroke: #888; stroke-width: 1; opacity: 1;"></line><line transform="translate(0,4)" x2="-5" y2="0" style="fill: none; stroke: #888; stroke-width: 1; opacity: 1;"></line></g><g class="mark-text role-axis-label" style="pointer-events: none;"><text text-anchor="end" transform="translate(-7,63)" style="font: 10px sans-serif; fill: #000; opacity: 1;">0</text><text text-anchor="end" transform="translate(-7,44.25)" style="font: 10px sans-serif; fill: #000; opacity: 1;">500</text><text text-anchor="end" transform="translate(-7,25.5)" style="font: 10px sans-serif; fill: #000; opacity: 1;">1,000</text><text text-anchor="end" transform="translate(-7,6.75)" style="font: 10px sans-serif; fill: #000; opacity: 1;">1,500</text></g><g class="mark-rule role-axis-domain" style="pointer-events: none;"><line transform="translate(0,60)" x2="0" y2="-60" style="fill: none; stroke: #888; stroke-width: 1; opacity: 1;"></line></g><g class="mark-text role-axis-title" style="pointer-events: none;"><text text-anchor="middle" transform="translate(-37.0244140625,30) rotate(-90) translate(0,-2)" style="font: bold 11px sans-serif; fill: #000; opacity: 1;">price</text></g></g></g></g></g></g></g></g></g></g></g></svg>