<svg class="marks" width="546" height="345" viewBox="0 0 546 345" version="1.1" xmlns="http://www.w3.org/2000/svg" xmlns:xlink="http://www.w3.org/1999/xlink"><rect width="546" height="345" style="fill: white;"></rect><defs><clipPath id="clip1"><rect x="0" y="0" width="480" height="200"></rect></clipPath><clipPath id="clip2"><rect x="0" y="0" width="480" height="60"></rect></clipPath><clipPath id="clip3"><rect x="0" y="0" width="480" height="60"></rect></clipPath></defs><g transform="translate(55,6)"><g class="mark-group role-frame root" role="graphics-object" aria-roledescription="group mark container"><g transform="translate(0,0)"><path class="background" aria-hidden="true" d="M0,0h480v0h-480Z" style="fill: none;"></path><g><g class="mark-group role-scope concat_0_group" role="graphics-object" aria-roledescription="group mark container"><g transform="translate(0,0)"><path class="background" aria-hidden="true" d="M0.5,0.5h480v200h-480Z" style="fill: none; stroke: #ddd;"></path><g><g class="mark-group role-axis" aria-hidden="true"><g transform="translate(0.5,200.5)"><path class="background" aria-hidden="true" d="M0,0h0v0h0Z" style="pointer-events: none; fill: none;"></path><g><g class="mark-rule role-axis-grid" style="pointer-events: none;"><line transform="translate(0,-200)" x2="0" y2="200" style="fill: none; stroke: #ddd; stroke-width: 1; opacity: 1;"></line><line transform="translate(47,-200)" x2="0" y2="200" style="fill: none; stroke: #ddd; stroke-width: 1; opacity: 1;"></line><line transform="translate(95,-200)" x2="0" y2="200" style="fill: none; stroke: #ddd; stroke-width: 1; opacity: 1;"></line><line transform="translate(142,-200)" x2="0" y2="200" style="fill: none; stroke: #ddd; stroke-width: 1; opacity: 1;"></line><line transform="translate(189,-200)" x2="0" y2="200" style="fill: none; stroke: #ddd; stroke-width: 1; opacity: 1;"></line><line transform="translate(236,-200)" x2="0" y2="200" style="fill: none; stroke: #ddd; stroke-width: 1; opacity: 1;"></line><line transform="translate(283,-200)" x2="0" y2="200" style="fill: none; stroke: #ddd; stroke-width: 1; opacity: 1;"></line><line transform="translate(331,-200)" x2="0" y2="200" style="fill: none; stroke: #ddd; stroke-width: 1; opacity: 1;"></line><line transform="translate(378,-200)" x2="0" y2="200" style="fill: none; stroke: #ddd; stroke-width: 1; opacity: 1;"></line><line transform="translate(425,-200)" x2="0" y2="200" style="fill: none; stroke: #ddd; stroke-width: 1; opacity: 1;"></line><line transform="translate(472,-200)" x2="0" y2="200" style="fill: none; stroke: #ddd; stroke-width: 1; opacity: 1;"></line></g></g><path class="foreground" aria-hidden="true" d="" style="pointer-events: none; display: none; fill: none;"></path></g></g><g class="mark-group role-axis" aria-hidden="true"><g transform="translate(0.5,0.5)"><path class="background" aria-hidden="true" d="M0,0h0v0h0Z" style="pointer-events: none; fill: none;"></path><g><g class="mark-rule role-axis-grid" style="pointer-events: none;"><line transform="translate(0,200)" x2="480" y2="0" style="fill: none; stroke: #ddd; stroke-width: 1; opacity: 1;"></line><line transform="translate(0,138)" x2="480" y2="0" style="fill: none; stroke: #ddd; stroke-width: 1; opacity: 1;"></line><line transform="translate(0,75)" x2="480" y2="0" style="fill: none; stroke: #ddd; stroke-width: 1; opacity: 1;"></line><line transform="translate(0,13)" x2="480" y2="0" style="fill: none; stroke: #ddd; stroke-width: 1; opacity: 1;"></line></g></g><path class="foreground" aria-hidden="true" d="" style="pointer-events: none; display: none; fill: none;"></path></g></g><g class="mark-group role-axis" role="graphics-symbol" aria-roledescription="axis" aria-label="X-axis for a time scale with values from Saturday, 01 January 2000, 12:00:00 AM to Monday, 01 March 2010, 12:00:00 AM"><g transform="translate(0.5,200.5)"><path class="background" aria-hidden="true" d="M0,0h0v0h0Z" style="pointer-events: none; fill: none;"></path><g><g class="mark-rule role-axis-tick" style="pointer-events: none;"><line transform="translate(0,0)" x2="0" y2="5" style="fill: none; stroke: #888; stroke-width: 1; opacity: 1;"></line><line transform="translate(47,0)" x2="0" y2="5" style="fill: none; stroke: #888; stroke-width: 1; opacity: 1;"></line><line transform="translate(95,0)" x2="0" y2="5" style="fill: none; stroke: #888; stroke-width: 1; opacity: 1;"></line><line transform="translate(142,0)" x2="0" y2="5" style="fill: none; stroke: #888; stroke-width: 1; opacity: 1;"></line><line transform="translate(189,0)" x2="0" y2="5" style="fill: none; stroke: #888; stroke-width: 1; opacity: 1;"></line><line transform="translate(236,0)" x2="0" y2="5" style="fill: none; stroke: #888; stroke-width: 1; opacity: 1;"></line><line transform="translate(283,0)" x2="0" y2="5" style="fill: none; stroke: #888; stroke-width: 1; opacity: 1;"></line><line transform="translate(331,0)" x2="0" y2="5" style="fill: none; stroke: #888; stroke-width: 1; opacity: 1;"></line><line transform="translate(378,0)" x2="0" y2="5" style="fill: none; stroke: #888; stroke-width: 1; opacity: 1;"></line><line transform="translate(425,0)" x2="0" y2="5" style="fill: none; stroke: #888; stroke-width: 1; opacity: 1;"></line><line transform="translate(472,0)" x2="0" y2="5" style="fill: none; stroke: #888; stroke-width: 1; opacity: 1;"></line></g><g class="mark-text role-axis-label" style="pointer-events: none;"><text text-anchor="start" transform="translate(0,15)" style="font-family: sans-serif; font-size: 10px; fill: #000; opacity: 1;">2000</text><text text-anchor="middle" transform="translate(47.327586206896555,15)" style="font-family: sans-serif; font-size: 10px; fill: #000; opacity: 1;">2001</text><text text-anchor="middle" transform="translate(94.52586206896552,15)" style="font-family: sans-serif; font-size: 10px; fill: #000; opacity: 1;">2002</text><text text-anchor="middle" transform="translate(141.7241379310345,15)" style="font-family: sans-serif; font-size: 10px; fill: #000; opacity: 1;">2003</text><text text-anchor="middle" transform="translate(188.92241379310346,15)" style="font-family: sans-serif; font-size: 10px; fill: #000; opacity: 1;">2004</text><text text-anchor="middle" transform="translate(236.25,15)" style="font-family: sans-serif; font-size: 10px; fill: #000; opacity: 1;">2005</text><text text-anchor="middle" transform="translate(283.448275862069,15)" style="font-family: sans-serif; font-size: 10px; fill: #000; opacity: 1;">2006</text><text text-anchor="middle" transform="translate(330.6465517241379,15)" style="font-family: sans-serif; font-size: 10px; fill: #000; opacity: 1;">2007</text><text text-anchor="middle" transform="translate(377.8448275862069,15)" style="font-family: sans-serif; font-size: 10px; fill: #000; opacity: 1;">2008</text><text text-anchor="middle" transform="translate(425.17241379310343,15)" style="font-family: sans-serif; font-size: 10px; fill: #000; opacity: 1;">2009</text><text text-anchor="middle" transform="translate(472.37068965517244,15)" style="font-family: sans-serif; font-size: 10px; fill: #000; opacity: 1;">2010</text></g><g class="mark-rule role-axis-domain" style="pointer-events: none;"><line transform="translate(0,0)" x2="480" y2="0" style="fill: none; stroke: #888; stroke-width: 1; opacity: 1;"></line></g></g><path class="foreground" aria-hidden="true" d="" style="pointer-events: none; display: none; fill: none;"></path></g></g><g class="mark-group role-axis" role="graphics-symbol" aria-roledescription="axis" aria-label="Y-axis titled 'price' for a linear scale with values from 0 to 1,600"><g transform="translate(0.5,0.5)"><path class="background" aria-hidden="true" d="M0,0h0v0h0Z" style="pointer-events: none; fill: none;"></path><g><g class="mark-rule role-axis-tick" style="pointer-events: none;"><line transform="translate(0,200)" x2="-5" y2="0" style="fill: none; stroke: #888; stroke-width: 1; opacity: 1;"></line><line transform="translate(0,138)" x2="-5" y2="0" style="fill: none; stroke: #888; stroke-width: 1; opacity: 1;"></line><line transform="translate(0,75)" x2="-5" y2="0" style="fill: none; stroke: #888; stroke-width: 1; opacity: 1;"></line><line transform="translate(0,13)" x2="-5" y2="0" style="fill: none; stroke: #888; stroke-width: 1; opacity: 1;"></line></g><g class="mark-text role-axis-label" style="pointer-events: none;"><text text-anchor="end" transform="translate(-7,203)" style="font-family: sans-serif; font-size: 10px; fill: #000; opacity: 1;">0</text><text text-anchor="end" transform="translate(-7,140.5)" style="font-family: sans-serif; font-size: 10px; fill: #000; opacity: 1;">500</text><text text-anchor="end" transform="translate(-7,78)" style="font-family: sans-serif; font-size: 10px; fill: #000; opacity: 1;">1,000</text><text text-anchor="end" transform="translate(-7,15.5)" style="font-family: sans-serif; font-size: 10px; fill: #000; opacity: 1;">1,500</text></g><g class="mark-rule role-axis-domain" style="pointer-events: none;"><line transform="translate(0,200)" x2="0" y2="-200" style="fill: none; stroke: #888; stroke-width: 1; opacity: 1;"></line></g><g class="mark-text role-axis-title" style="pointer-events: none;"><text text-anchor="middle" transform="translate(-38,100) rotate(-90) translate(0,-2)" style="font-family: sans-serif; font-size: 11px; font-weight: bold; fill: #000; opacity: 1;">price</text></g></g><path class="foreground" aria-hidden="true" d="" style="pointer-events: none; display: none; fill: none;"></path></g></g><g class="mark-area role-mark concat_0_marks" clip-path="url(#clip1)" role="graphics-object" aria-roledescription="area mark container" style="pointer-events: none;"><path aria-label=": Jan 01, 2000; price: 1394.46" role="graphics-symbol" aria-roledescription="area mark" d="M0,25.692499999999985L4.008620689655172,29.197499999999987L7.758620689655173,12.677500000000009L11.767241379310343,18.44625L15.64116379310345,22.425000000000004L19.64978448275862,18.175000000000008L23.529094827586206,21.14625000000001L27.537715517241377,10.29L31.54633620689655,20.43625L35.425646551724135,21.324999999999996L39.439655172413794,35.63125L43.318965517241374,34.965L47.327586206896555,29.24875L51.33620689655173,45.0075L54.956896551724135,54.95875000000001L58.96551724137931,43.817499999999995L62.83943965517241,43.02250000000001L66.84806034482759,46.9525L70.72737068965517,48.596250000000005L74.73599137931035,58.30250000000001L78.74461206896551,69.88250000000001L82.6239224137931,67.5275L86.63793103448275,57.568749999999994L90.51724137931035,56.490000000000016L94.52586206896552,58.72500000000001L98.53448275862068,61.658750000000005L102.15517241379311,56.576249999999995L106.16379310344827,65.38499999999998L110.03771551724138,66.6075L114.04633620689656,76.2725L117.92564655172414,86.04750000000001L121.9342672413793,85.49125L125.94288793103448,98.09L129.82219827586206,89.28L133.83620689655172,82.96125L137.7155172413793,90.02249999999998L141.7241379310345,93.0375L145.73275862068965,94.85625L149.3534482758621,93.9775L153.36206896551724,85.385L157.23599137931035,79.55125000000001L161.24461206896552,78.18750000000001L165.1239224137931,76.21124999999999L169.13254310344826,73.99875L173.14116379310343,75.50375L177.02047413793105,68.66124999999998L181.0344827586207,67.725L184.91379310344828,61.009999999999984L188.92241379310346,58.608749999999986L192.93103448275863,56.88249999999999L196.68103448275863,59.223749999999995L200.68965517241378,61.58749999999999L204.5635775862069,59.914999999999985L208.57219827586206,57.39500000000002L212.45150862068965,62.28499999999999L216.46012931034483,61.96999999999999L220.46875,60.67750000000001L224.3480603448276,58.72500000000001L228.36206896551724,53.27250000000001L232.24137931034483,48.509999999999984L236.25,52.34125L240.25862068965517,49.550000000000004L243.87931034482756,52.42625000000001L247.88793103448273,55.39375000000002L251.76185344827584,51.062500000000014L255.77047413793105,51.08375000000001L259.6497844827586,45.727499999999985L263.6584051724138,47.458750000000016L267.66702586206895,46.39875L271.54633620689657,49.12375L275.56034482758616,43.815000000000005L279.43965517241384,43.96375000000001L283.448275862069,39.990000000000016L287.4568965517242,39.91749999999998L291.07758620689657,38.141250000000014L295.08620689655174,36.173750000000005L298.9601293103448,41.23875000000001L302.96875,41.225L306.84806034482756,40.4175L310.85668103448273,37.0225L314.8653017241379,33.01875000000001L318.7446120689655,27.75749999999999L322.7586206896552,24.921249999999983L326.63793103448273,22.712500000000002L330.6465517241379,20.21999999999999L334.6551724137931,24.14750000000001L338.2758620689655,22.392500000000016L342.2790948275862,14.703750000000015L346.1584051724138,8.672500000000017L350.16702586206895,12.081250000000022L354.04633620689657,18.091250000000002L358.05495689655174,15.751249999999995L362.0635775862069,9.15625L365.9428879310345,6.327499999999997L369.95150862068965,14.857499999999991L373.83620689655174,16.45500000000002L377.8448275862069,27.681250000000013L381.8534482758621,33.67125L385.6034482758621,34.662499999999994L389.60668103448273,26.80125000000002L393.48599137931035,24.95249999999998L397.4946120689655,39.99999999999999L401.37392241379314,41.57749999999998L405.3825431034483,39.646250000000016L409.3911637931035,54.20500000000001L413.27047413793105,78.90625L417.2790948275862,87.97L421.16379310344826,87.09374999999999L425.17241379310343,96.76499999999999L429.1810344827586,108.11375000000001L432.801724137931,100.26625L436.80495689655174,90.89875L440.6842672413793,85.1075L444.6928879310345,85.085L448.57219827586204,76.565L452.5808189655172,72.42249999999999L456.5894396551724,67.86500000000002L460.46875,70.47625L464.4773706896552,63.04624999999999L468.36206896551727,60.612500000000004L472.37068965517244,65.76625L476.37931034482756,61.93875L480,57.443749999999994L480,200L476.37931034482756,200L472.37068965517244,200L468.36206896551727,200L464.4773706896552,200L460.46875,200L456.5894396551724,200L452.5808189655172,200L448.57219827586204,200L444.6928879310345,200L440.6842672413793,200L436.80495689655174,200L432.801724137931,200L429.1810344827586,200L425.17241379310343,200L421.16379310344826,200L417.2790948275862,200L413.27047413793105,200L409.3911637931035,200L405.3825431034483,200L401.37392241379314,200L397.4946120689655,200L393.48599137931035,200L389.60668103448273,200L385.6034482758621,200L381.8534482758621,200L377.8448275862069,200L373.83620689655174,200L369.95150862068965,200L365.9428879310345,200L362.0635775862069,200L358.05495689655174,200L354.04633620689657,200L350.16702586206895,200L346.1584051724138,200L342.2790948275862,200L338.2758620689655,200L334.6551724137931,200L330.6465517241379,200L326.63793103448273,200L322.7586206896552,200L318.7446120689655,200L314.8653017241379,200L310.85668103448273,200L306.84806034482756,200L302.96875,200L298.9601293103448,200L295.08620689655174,200L291.07758620689657,200L287.4568965517242,200L283.448275862069,200L279.43965517241384,200L275.56034482758616,200L271.54633620689657,200L267.66702586206895,200L263.6584051724138,200L259.6497844827586,200L255.77047413793105,200L251.76185344827584,200L247.88793103448273,200L243.87931034482756,200L240.25862068965517,200L236.25,200L232.24137931034483,200L228.36206896551724,200L224.3480603448276,200L220.46875,200L216.46012931034483,200L212.45150862068965,200L208.57219827586206,200L204.5635775862069,200L200.68965517241378,200L196.68103448275863,200L192.93103448275863,200L188.92241379310346,200L184.91379310344828,200L181.0344827586207,200L177.02047413793105,200L173.14116379310343,200L169.13254310344826,200L165.1239224137931,200L161.24461206896552,200L157.23599137931035,200L153.36206896551724,200L149.3534482758621,200L145.73275862068965,200L141.7241379310345,200L137.7155172413793,200L133.83620689655172,200L129.82219827586206,200L125.94288793103448,200L121.9342672413793,200L117.92564655172414,200L114.04633620689656,200L110.03771551724138,200L106.16379310344827,200L102.15517241379311,200L98.53448275862068,200L94.52586206896552,200L90.51724137931035,200L86.63793103448275,200L82.6239224137931,200L78.74461206896551,200L74.73599137931035,200L70.72737068965517,200L66.84806034482759,200L62.83943965517241,200L58.96551724137931,200L54.956896551724135,200L51.33620689655173,200L47.327586206896555,200L43.318965517241374,200L39.439655172413794,200L35.425646551724135,200L31.54633620689655,200L27.537715517241377,200L23.529094827586206,200L19.64978448275862,200L15.64116379310345,200L11.767241379310343,200L7.758620689655173,200L4.008620689655172,200L0,200Z" style="fill: #4c78a8;"></path></g></g><path class="foreground" aria-hidden="true" d="" style="display: none; fill: none;"></path></g></g><g class="mark-group role-scope concat_1_group" role="graphics-object" aria-roledescription="group mark container"><g transform="translate(0,241)"><path class="background" aria-hidden="true" d="M0.5,0.5h480v60h-480Z" style="fill: none; stroke: #ddd;"></path><g><g class="mark-group role-axis" aria-hidden="true"><g transform="translate(0.5,60.5)"><path class="background" aria-hidden="true" d="M0,0h0v0h0Z" style="pointer-events: none; fill: none;"></path><g><g class="mark-rule role-axis-grid" style="pointer-events: none;"><line transform="translate(0,-60)" x2="0" y2="60" style="fill: none; stroke: #ddd; stroke-width: 1; opacity: 1;"></line><line transform="translate(47,-60)" x2="0" y2="60" style="fill: none; stroke: #ddd; stroke-width: 1; opacity: 1;"></line><line transform="translate(95,-60)" x2="0" y2="60" style="fill: none; stroke: #ddd; stroke-width: 1; opacity: 1;"></line><line transform="translate(142,-60)" x2="0" y2="60" style="fill: none; stroke: #ddd; stroke-width: 1; opacity: 1;"></line><line transform="translate(189,-60)" x2="0" y2="60" style="fill: none; stroke: #ddd; stroke-width: 1; opacity: 1;"></line><line transform="translate(236,-60)" x2="0" y2="60" style="fill: none; stroke: #ddd; stroke-width: 1; opacity: 1;"></line><line transform="translate(283,-60)" x2="0" y2="60" style="fill: none; stroke: #ddd; stroke-width: 1; opacity: 1;"></line><line transform="translate(331,-60)" x2="0" y2="60" style="fill: none; stroke: #ddd; stroke-width: 1; opacity: 1;"></line><line transform="translate(378,-60)" x2="0" y2="60" style="fill: none; stroke: #ddd; stroke-width: 1; opacity: 1;"></line><line transform="translate(425,-60)" x2="0" y2="60" style="fill: none; stroke: #ddd; stroke-width: 1; opacity: 1;"></line><line transform="translate(472,-60)" x2="0" y2="60" style="fill: none; stroke: #ddd; stroke-width: 1; opacity: 1;"></line></g></g><path class="foreground" aria-hidden="true" d="" style="pointer-events: none; display: none; fill: none;"></path></g></g><g class="mark-group role-axis" role="graphics-symbol" aria-roledescription="axis" aria-label="X-axis titled 'date' for a time scale with values from Saturday, 01 January 2000, 12:00:00 AM to Monday, 01 March 2010, 12:00:00 AM"><g transform="translate(0.5,60.5)"><path class="background" aria-hidden="true" d="M0,0h0v0h0Z" style="pointer-events: none; fill: none;"></path><g><g class="mark-rule role-axis-tick" style="pointer-events: none;"><line transform="translate(0,0)" x2="0" y2="5" style="fill: none; stroke: #888; stroke-width: 1; opacity: 1;"></line><line transform="translate(47,0)" x2="0" y2="5" style="fill: none; stroke: #888; stroke-width: 1; opacity: 1;"></line><line transform="translate(95,0)" x2="0" y2="5" style="fill: none; stroke: #888; stroke-width: 1; opacity: 1;"></line><line transform="translate(142,0)" x2="0" y2="5" style="fill: none; stroke: #888; stroke-width: 1; opacity: 1;"></line><line transform="translate(189,0)" x2="0" y2="5" style="fill: none; stroke: #888; stroke-width: 1; opacity: 1;"></line><line transform="translate(236,0)" x2="0" y2="5" style="fill: none; stroke: #888; stroke-width: 1; opacity: 1;"></line><line transform="translate(283,0)" x2="0" y2="5" style="fill: none; stroke: #888; stroke-width: 1; opacity: 1;"></line><line transform="translate(331,0)" x2="0" y2="5" style="fill: none; stroke: #888; stroke-width: 1; opacity: 1;"></line><line transform="translate(378,0)" x2="0" y2="5" style="fill: none; stroke: #888; stroke-width: 1; opacity: 1;"></line><line transform="translate(425,0)" x2="0" y2="5" style="fill: none; stroke: #888; stroke-width: 1; opacity: 1;"></line><line transform="translate(472,0)" x2="0" y2="5" style="fill: none; stroke: #888; stroke-width: 1; opacity: 1;"></line></g><g class="mark-text role-axis-label" style="pointer-events: none;"><text text-anchor="start" transform="translate(0,15)" style="font-family: sans-serif; font-size: 10px; fill: #000; opacity: 1;">2000</text><text text-anchor="middle" transform="translate(47.327586206896555,15)" style="font-family: sans-serif; font-size: 10px; fill: #000; opacity: 1;">2001</text><text text-anchor="middle" transform="translate(94.52586206896552,15)" style="font-family: sans-serif; font-size: 10px; fill: #000; opacity: 1;">2002</text><text text-anchor="middle" transform="translate(141.7241379310345,15)" style="font-family: sans-serif; font-size: 10px; fill: #000; opacity: 1;">2003</text><text text-anchor="middle" transform="translate(188.92241379310346,15)" style="font-family: sans-serif; font-size: 10px; fill: #000; opacity: 1;">2004</text><text text-anchor="middle" transform="translate(236.25,15)" style="font-family: sans-serif; font-size: 10px; fill: #000; opacity: 1;">2005</text><text text-anchor="middle" transform="translate(283.448275862069,15)" style="font-family: sans-serif; font-size: 10px; fill: #000; opacity: 1;">2006</text><text text-anchor="middle" transform="translate(330.6465517241379,15)" style="font-family: sans-serif; font-size: 10px; fill: #000; opacity: 1;">2007</text><text text-anchor="middle" transform="translate(377.8448275862069,15)" style="font-family: sans-serif; font-size: 10px; fill: #000; opacity: 1;">2008</text><text text-anchor="middle" transform="translate(425.17241379310343,15)" style="font-family: sans-serif; font-size: 10px; fill: #000; opacity: 1;">2009</text><text text-anchor="middle" transform="translate(472.37068965517244,15)" style="font-family: sans-serif; font-size: 10px; fill: #000; opacity: 1;">2010</text></g><g class="mark-rule role-axis-domain" style="pointer-events: none;"><line transform="translate(0,0)" x2="480" y2="0" style="fill: none; stroke: #888; stroke-width: 1; opacity: 1;"></line></g><g class="mark-text role-axis-title" style="pointer-events: none;"><text text-anchor="middle" transform="translate(240,30)" style="font-family: sans-serif; font-size: 11px; font-weight: bold; fill: #000; opacity: 1;">date</text></g></g><path class="foreground" aria-hidden="true" d="" style="pointer-events: none; display: none; fill: none;"></path></g></g><g class="mark-group role-axis" role="graphics-symbol" aria-roledescription="axis" aria-label="Y-axis titled 'price' for a linear scale with values from 0 to 1,600"><g transform="translate(0.5,0.5)"><path class="background" aria-hidden="true" d="M0,0h0v0h0Z" style="pointer-events: none; fill: none;"></path><g><g class="mark-rule role-axis-tick" style="pointer-events: none;"><line transform="translate(0,60)" x2="-5" y2="0" style="fill: none; stroke: #888; stroke-width: 1; opacity: 1;"></line><line transform="translate(0,41)" x2="-5" y2="0" style="fill: none; stroke: #888; stroke-width: 1; opacity: 1;"></line><line transform="translate(0,23)" x2="-5" y2="0" style="fill: none; stroke: #888; stroke-width: 1; opacity: 1;"></line><line transform="translate(0,4)" x2="-5" y2="0" style="fill: none; stroke: #888; stroke-width: 1; opacity: 1;"></line></g><g class="mark-text role-axis-label" style="pointer-events: none;"><text text-anchor="end" transform="translate(-7,63)" style="font-family: sans-serif; font-size: 10px; fill: #000; opacity: 1;">0</text><text text-anchor="end" transform="translate(-7,44.25)" style="font-family: sans-serif; font-size: 10px; fill: #000; opacity: 1;">500</text><text text-anchor="end" transform="translate(-7,25.5)" style="font-family: sans-serif; font-size: 10px; fill: #000; opacity: 1;">1,000</text><text text-anchor="end" transform="translate(-7,6.75)" style="font-family: sans-serif; font-size: 10px; fill: #000; opacity: 1;">1,500</text></g><g class="mark-rule role-axis-domain" style="pointer-events: none;"><line transform="translate(0,60)" x2="0" y2="-60" style="fill: none; stroke: #888; stroke-width: 1; opacity: 1;"></line></g><g class="mark-text role-axis-title" style="pointer-events: none;"><text text-anchor="middle" transform="translate(-38,30) rotate(-90) translate(0,-2)" style="font-family: sans-serif; font-size: 11px; font-weight: bold; fill: #000; opacity: 1;">price</text></g></g><path class="foreground" aria-hidden="true" d="" style="pointer-events: none; display: none; fill: none;"></path></g></g><g class="mark-rect role-mark brush_brush_bg" clip-path="url(#clip2)" role="graphics-symbol" aria-roledescription="rect mark container"><path d="M0,0h0v0h0Z" style="fill: #333; fill-opacity: 0.125;"></path></g><g class="mark-area role-mark concat_1_marks" role="graphics-object" aria-roledescription="area mark container"><path aria-label="date: Jan 01, 2000; price: 1394.46" role="graphics-symbol" aria-roledescription="area mark" d="M0,7.707749999999995L4.008620689655172,8.759249999999996L7.758620689655173,3.8032500000000025L11.767241379310343,5.533874999999999L15.64116379310345,6.727500000000002L19.64978448275862,5.452500000000002L23.529094827586206,6.343875000000003L27.537715517241377,3.0869999999999997L31.54633620689655,6.130875L35.425646551724135,6.397499999999998L39.439655172413794,10.689375000000002L43.318965517241374,10.4895L47.327586206896555,8.774625L51.33620689655173,13.50225L54.956896551724135,16.487625000000005L58.96551724137931,13.145249999999999L62.83943965517241,12.906750000000002L66.84806034482759,14.085749999999999L70.72737068965517,14.578875000000002L74.73599137931035,17.490750000000006L78.74461206896551,20.964750000000002L82.6239224137931,20.258250000000004L86.63793103448275,17.270624999999995L90.51724137931035,16.947000000000006L94.52586206896552,17.6175L98.53448275862068,18.497625000000003L102.15517241379311,16.972875L106.16379310344827,19.615499999999994L110.03771551724138,19.98225L114.04633620689656,22.881749999999997L117.92564655172414,25.81425L121.9342672413793,25.647375L125.94288793103448,29.427000000000003L129.82219827586206,26.784000000000002L133.83620689655172,24.888375000000003L137.7155172413793,27.006749999999997L141.7241379310345,27.91125L145.73275862068965,28.456875L149.3534482758621,28.19325L153.36206896551724,25.6155L157.23599137931035,23.865375L161.24461206896552,23.456250000000004L165.1239224137931,22.863374999999998L169.13254310344826,22.199625L173.14116379310343,22.651125L177.02047413793105,20.598374999999997L181.0344827586207,20.317499999999995L184.91379310344828,18.302999999999997L188.92241379310346,17.582624999999997L192.93103448275863,17.064749999999997L196.68103448275863,17.767125L200.68965517241378,18.47625L204.5635775862069,17.974499999999995L208.57219827586206,17.218500000000006L212.45150862068965,18.685499999999998L216.46012931034483,18.590999999999998L220.46875,18.20325L224.3480603448276,17.6175L228.36206896551724,15.981750000000003L232.24137931034483,14.552999999999995L236.25,15.702375000000002L240.25862068965517,14.865000000000002L243.87931034482756,15.727875000000003L247.88793103448273,16.618125000000006L251.76185344827584,15.318750000000003L255.77047413793105,15.325125000000002L259.6497844827586,13.718249999999996L263.6584051724138,14.237625000000005L267.66702586206895,13.919625L271.54633620689657,14.737124999999999L275.56034482758616,13.1445L279.43965517241384,13.189125000000004L283.448275862069,11.997000000000003L287.4568965517242,11.975249999999996L291.07758620689657,11.442375000000006L295.08620689655174,10.852125000000001L298.9601293103448,12.371625000000003L302.96875,12.3675L306.84806034482756,12.125249999999998L310.85668103448273,11.106750000000002L314.8653017241379,9.905625000000002L318.7446120689655,8.327249999999998L322.7586206896552,7.4763749999999956L326.63793103448273,6.813750000000001L330.6465517241379,6.065999999999998L334.6551724137931,7.244250000000003L338.2758620689655,6.717750000000004L342.2790948275862,4.411125000000005L346.1584051724138,2.601750000000005L350.16702586206895,3.6243750000000063L354.04633620689657,5.427375000000001L358.05495689655174,4.725374999999998L362.0635775862069,2.7468749999999997L365.9428879310345,1.898249999999999L369.95150862068965,4.457249999999997L373.83620689655174,4.936500000000006L377.8448275862069,8.304375000000004L381.8534482758621,10.101374999999999L385.6034482758621,10.39875L389.60668103448273,8.040375000000006L393.48599137931035,7.485749999999993L397.4946120689655,11.999999999999996L401.37392241379314,12.473249999999993L405.3825431034483,11.893875000000005L409.3911637931035,16.261500000000005L413.27047413793105,23.671875L417.2790948275862,26.391L421.16379310344826,26.128124999999997L425.17241379310343,29.0295L429.1810344827586,32.434125L432.801724137931,30.079875L436.80495689655174,27.269625L440.6842672413793,25.53225L444.6928879310345,25.525499999999997L448.57219827586204,22.969499999999996L452.5808189655172,21.726749999999996L456.5894396551724,20.359500000000004L460.46875,21.142875L464.4773706896552,18.913874999999997L468.36206896551727,18.18375L472.37068965517244,19.729875L476.37931034482756,18.581625L480,17.233124999999998L480,60L476.37931034482756,60L472.37068965517244,60L468.36206896551727,60L464.4773706896552,60L460.46875,60L456.5894396551724,60L452.5808189655172,60L448.57219827586204,60L444.6928879310345,60L440.6842672413793,60L436.80495689655174,60L432.801724137931,60L429.1810344827586,60L425.17241379310343,60L421.16379310344826,60L417.2790948275862,60L413.27047413793105,60L409.3911637931035,60L405.3825431034483,60L401.37392241379314,60L397.4946120689655,60L393.48599137931035,60L389.60668103448273,60L385.6034482758621,60L381.8534482758621,60L377.8448275862069,60L373.83620689655174,60L369.95150862068965,60L365.9428879310345,60L362.0635775862069,60L358.05495689655174,60L354.04633620689657,60L350.16702586206895,60L346.1584051724138,60L342.2790948275862,60L338.2758620689655,60L334.6551724137931,60L330.6465517241379,60L326.63793103448273,60L322.7586206896552,60L318.7446120689655,60L314.8653017241379,60L310.85668103448273,60L306.84806034482756,60L302.96875,60L298.9601293103448,60L295.08620689655174,60L291.07758620689657,60L287.4568965517242,60L283.448275862069,60L279.43965517241384,60L275.56034482758616,60L271.54633620689657,60L267.66702586206895,60L263.6584051724138,60L259.6497844827586,60L255.77047413793105,60L251.76185344827584,60L247.88793103448273,60L243.87931034482756,60L240.25862068965517,60L236.25,60L232.24137931034483,60L228.36206896551724,60L224.3480603448276,60L220.46875,60L216.46012931034483,60L212.45150862068965,60L208.57219827586206,60L204.5635775862069,60L200.68965517241378,60L196.68103448275863,60L192.93103448275863,60L188.92241379310346,60L184.91379310344828,60L181.0344827586207,60L177.02047413793105,60L173.14116379310343,60L169.13254310344826,60L165.1239224137931,60L161.24461206896552,60L157.23599137931035,60L153.36206896551724,60L149.3534482758621,60L145.73275862068965,60L141.7241379310345,60L137.7155172413793,60L133.83620689655172,60L129.82219827586206,60L125.94288793103448,60L121.9342672413793,60L117.92564655172414,60L114.04633620689656,60L110.03771551724138,60L106.16379310344827,60L102.15517241379311,60L98.53448275862068,60L94.52586206896552,60L90.51724137931035,60L86.63793103448275,60L82.6239224137931,60L78.74461206896551,60L74.73599137931035,60L70.72737068965517,60L66.84806034482759,60L62.83943965517241,60L58.96551724137931,60L54.956896551724135,60L51.33620689655173,60L47.327586206896555,60L43.318965517241374,60L39.439655172413794,60L35.425646551724135,60L31.54633620689655,60L27.537715517241377,60L23.529094827586206,60L19.64978448275862,60L15.64116379310345,60L11.767241379310343,60L7.758620689655173,60L4.008620689655172,60L0,60Z" style="fill: #4c78a8;"></path></g><g class="mark-rect role-mark brush_brush" clip-path="url(#clip3)" role="graphics-symbol" aria-roledescription="rect mark container"><path d="M0,0h0v0h0Z" style="fill: none;"></path></g></g><path class="foreground" aria-hidden="true" d="" style="display: none; fill: none;"></path></g></g></g><path class="foreground" aria-hidden="true" d="" style="display: none; fill: none;"></path></g></g></g></svg>