<svg xmlns="http://www.w3.org/2000/svg" xmlns:xlink="http://www.w3.org/1999/xlink" version="1.1" class="marks" width="1094" height="349" viewBox="0 0 1094 349"><rect width="1094" height="349" fill="white"/><g fill="none" stroke-miterlimit="10" transform="translate(57,11)"><g class="mark-group role-frame root" role="graphics-object" aria-roledescription="group mark container"><g transform="translate(0,0)"><path class="background" aria-hidden="true" d="M0,0h0v0h0Z"/><g><g class="mark-group role-scope child__column_distance_group" role="graphics-object" aria-roledescription="group mark container"><g transform="translate(0,0)"><path class="background" aria-hidden="true" d="M0.5,0.5h300v300h-300Z" stroke="#ddd"/><g><g class="mark-group role-axis" aria-hidden="true"><g transform="translate(0.5,0.5)"><path class="background" aria-hidden="true" d="M0,0h0v0h0Z" pointer-events="none"/><g><g class="mark-rule role-axis-grid" pointer-events="none"><line transform="translate(0,300)" x2="300" y2="0" stroke="#ddd" stroke-width="1" opacity="1"/><line transform="translate(0,270)" x2="300" y2="0" stroke="#ddd" stroke-width="1" opacity="1"/><line transform="translate(0,240)" x2="300" y2="0" stroke="#ddd" stroke-width="1" opacity="1"/><line transform="translate(0,210)" x2="300" y2="0" stroke="#ddd" stroke-width="1" opacity="1"/><line transform="translate(0,180)" x2="300" y2="0" stroke="#ddd" stroke-width="1" opacity="1"/><line transform="translate(0,150)" x2="300" y2="0" stroke="#ddd" stroke-width="1" opacity="1"/><line transform="translate(0,120)" x2="300" y2="0" stroke="#ddd" stroke-width="1" opacity="1"/><line transform="translate(0,90)" x2="300" y2="0" stroke="#ddd" stroke-width="1" opacity="1"/><line transform="translate(0,60)" x2="300" y2="0" stroke="#ddd" stroke-width="1" opacity="1"/><line transform="translate(0,30)" x2="300" y2="0" stroke="#ddd" stroke-width="1" opacity="1"/><line transform="translate(0,0)" x2="300" y2="0" stroke="#ddd" stroke-width="1" opacity="1"/></g></g><path class="foreground" aria-hidden="true" d="" pointer-events="none" display="none"/></g></g><g class="mark-group role-axis" role="graphics-symbol" aria-roledescription="axis" aria-label="X-axis titled 'distance (binned)' for a linear scale with values from 0 to 2,400"><g transform="translate(0.5,300.5)"><path class="background" aria-hidden="true" d="M0,0h0v0h0Z" pointer-events="none"/><g><g class="mark-rule role-axis-tick" pointer-events="none"><line transform="translate(0,0)" x2="0" y2="5" stroke="#888" stroke-width="1" opacity="1"/><line transform="translate(25,0)" x2="0" y2="5" stroke="#888" stroke-width="1" opacity="1"/><line transform="translate(50,0)" x2="0" y2="5" stroke="#888" stroke-width="1" opacity="1"/><line transform="translate(75,0)" x2="0" y2="5" stroke="#888" stroke-width="1" opacity="1"/><line transform="translate(100,0)" x2="0" y2="5" stroke="#888" stroke-width="1" opacity="1"/><line transform="translate(125,0)" x2="0" y2="5" stroke="#888" stroke-width="1" opacity="1"/><line transform="translate(150,0)" x2="0" y2="5" stroke="#888" stroke-width="1" opacity="1"/><line transform="translate(175,0)" x2="0" y2="5" stroke="#888" stroke-width="1" opacity="1"/><line transform="translate(200,0)" x2="0" y2="5" stroke="#888" stroke-width="1" opacity="1"/><line transform="translate(225,0)" x2="0" y2="5" stroke="#888" stroke-width="1" opacity="1"/><line transform="translate(250,0)" x2="0" y2="5" stroke="#888" stroke-width="1" opacity="1"/><line transform="translate(275,0)" x2="0" y2="5" stroke="#888" stroke-width="1" opacity="1"/><line transform="translate(300,0)" x2="0" y2="5" stroke="#888" stroke-width="1" opacity="1"/></g><g class="mark-text role-axis-label" pointer-events="none"><text text-anchor="start" transform="translate(0,15)" font-family="sans-serif" font-size="10px" fill="#000" opacity="1">0</text><text text-anchor="middle" transform="translate(25,15)" font-family="sans-serif" font-size="10px" fill="#000" opacity="0">200</text><text text-anchor="middle" transform="translate(50,15)" font-family="sans-serif" font-size="10px" fill="#000" opacity="1">400</text><text text-anchor="middle" transform="translate(75,15)" font-family="sans-serif" font-size="10px" fill="#000" opacity="0">600</text><text text-anchor="middle" transform="translate(100,15)" font-family="sans-serif" font-size="10px" fill="#000" opacity="1">800</text><text text-anchor="middle" transform="translate(125,15)" font-family="sans-serif" font-size="10px" fill="#000" opacity="0">1,000</text><text text-anchor="middle" transform="translate(150,15)" font-family="sans-serif" font-size="10px" fill="#000" opacity="1">1,200</text><text text-anchor="middle" transform="translate(175,15)" font-family="sans-serif" font-size="10px" fill="#000" opacity="0">1,400</text><text text-anchor="middle" transform="translate(200,15)" font-family="sans-serif" font-size="10px" fill="#000" opacity="1">1,600</text><text text-anchor="middle" transform="translate(225,15)" font-family="sans-serif" font-size="10px" fill="#000" opacity="0">1,800</text><text text-anchor="middle" transform="translate(250,15)" font-family="sans-serif" font-size="10px" fill="#000" opacity="1">2,000</text><text text-anchor="middle" transform="translate(275,15)" font-family="sans-serif" font-size="10px" fill="#000" opacity="0">2,200</text><text text-anchor="end" transform="translate(300,15)" font-family="sans-serif" font-size="10px" fill="#000" opacity="1">2,400</text></g><g class="mark-rule role-axis-domain" pointer-events="none"><line transform="translate(0,0)" x2="300" y2="0" stroke="#888" stroke-width="1" opacity="1"/></g><g class="mark-text role-axis-title" pointer-events="none"><text text-anchor="middle" transform="translate(150,30)" font-family="sans-serif" font-size="11px" font-weight="bold" fill="#000" opacity="1">distance (binned)</text></g></g><path class="foreground" aria-hidden="true" d="" pointer-events="none" display="none"/></g></g><g class="mark-group role-axis" role="graphics-symbol" aria-roledescription="axis" aria-label="Y-axis titled 'Count of Records' for a linear scale with values from 0 to 1,000"><g transform="translate(0.5,0.5)"><path class="background" aria-hidden="true" d="M0,0h0v0h0Z" pointer-events="none"/><g><g class="mark-rule role-axis-tick" pointer-events="none"><line transform="translate(0,300)" x2="-5" y2="0" stroke="#888" stroke-width="1" opacity="1"/><line transform="translate(0,270)" x2="-5" y2="0" stroke="#888" stroke-width="1" opacity="1"/><line transform="translate(0,240)" x2="-5" y2="0" stroke="#888" stroke-width="1" opacity="1"/><line transform="translate(0,210)" x2="-5" y2="0" stroke="#888" stroke-width="1" opacity="1"/><line transform="translate(0,180)" x2="-5" y2="0" stroke="#888" stroke-width="1" opacity="1"/><line transform="translate(0,150)" x2="-5" y2="0" stroke="#888" stroke-width="1" opacity="1"/><line transform="translate(0,120)" x2="-5" y2="0" stroke="#888" stroke-width="1" opacity="1"/><line transform="translate(0,90)" x2="-5" y2="0" stroke="#888" stroke-width="1" opacity="1"/><line transform="translate(0,60)" x2="-5" y2="0" stroke="#888" stroke-width="1" opacity="1"/><line transform="translate(0,30)" x2="-5" y2="0" stroke="#888" stroke-width="1" opacity="1"/><line transform="translate(0,0)" x2="-5" y2="0" stroke="#888" stroke-width="1" opacity="1"/></g><g class="mark-text role-axis-label" pointer-events="none"><text text-anchor="end" transform="translate(-7,303)" font-family="sans-serif" font-size="10px" fill="#000" opacity="1">0</text><text text-anchor="end" transform="translate(-7,273)" font-family="sans-serif" font-size="10px" fill="#000" opacity="1">100</text><text text-anchor="end" transform="translate(-7,243)" font-family="sans-serif" font-size="10px" fill="#000" opacity="1">200</text><text text-anchor="end" transform="translate(-7,213)" font-family="sans-serif" font-size="10px" fill="#000" opacity="1">300</text><text text-anchor="end" transform="translate(-7,183)" font-family="sans-serif" font-size="10px" fill="#000" opacity="1">400</text><text text-anchor="end" transform="translate(-7,153)" font-family="sans-serif" font-size="10px" fill="#000" opacity="1">500</text><text text-anchor="end" transform="translate(-7,123)" font-family="sans-serif" font-size="10px" fill="#000" opacity="1">600</text><text text-anchor="end" transform="translate(-7,93.00000000000001)" font-family="sans-serif" font-size="10px" fill="#000" opacity="1">700</text><text text-anchor="end" transform="translate(-7,62.999999999999986)" font-family="sans-serif" font-size="10px" fill="#000" opacity="1">800</text><text text-anchor="end" transform="translate(-7,32.99999999999999)" font-family="sans-serif" font-size="10px" fill="#000" opacity="1">900</text><text text-anchor="end" transform="translate(-7,3)" font-family="sans-serif" font-size="10px" fill="#000" opacity="1">1,000</text></g><g class="mark-rule role-axis-domain" pointer-events="none"><line transform="translate(0,300)" x2="0" y2="-300" stroke="#888" stroke-width="1" opacity="1"/></g><g class="mark-text role-axis-title" pointer-events="none"><text text-anchor="middle" transform="translate(-39.6279296875,150) rotate(-90) translate(0,-2)" font-family="sans-serif" font-size="11px" font-weight="bold" fill="#000" opacity="1">Count of Records</text></g></g><path class="foreground" aria-hidden="true" d="" pointer-events="none" display="none"/></g></g><g class="mark-rect role-mark brush_brush_bg" clip-path="url(#clip1)" role="graphics-symbol" aria-roledescription="rect mark container"><path d="M0,0h0v0h0Z" fill="#333" fill-opacity="0.125"/></g><g class="mark-rect role-mark child__column_distance_layer_0_marks" role="graphics-object" aria-roledescription="rect mark container"><path aria-label="distance (binned): 400 – 600; Count of Records: 354" role="graphics-symbol" aria-roledescription="bar" d="M51,193.8h24v106.19999999999999h-24Z" fill="#ddd"/><path aria-label="distance (binned): 600 – 800; Count of Records: 198" role="graphics-symbol" aria-roledescription="bar" d="M76,240.60000000000002h24v59.39999999999998h-24Z" fill="#ddd"/><path aria-label="distance (binned): 200 – 400; Count of Records: 967" role="graphics-symbol" aria-roledescription="bar" d="M26,9.90000000000001h24v290.09999999999997h-24Z" fill="#ddd"/><path aria-label="distance (binned): 0 – 200; Count of Records: 180" role="graphics-symbol" aria-roledescription="bar" d="M1,246.00000000000003h24v53.99999999999997h-24Z" fill="#ddd"/><path aria-label="distance (binned): 800 – 1000; Count of Records: 109" role="graphics-symbol" aria-roledescription="bar" d="M101,267.3h24v32.69999999999999h-24Z" fill="#ddd"/><path aria-label="distance (binned): 1400 – 1600; Count of Records: 40" role="graphics-symbol" aria-roledescription="bar" d="M176,288h24v12h-24Z" fill="#ddd"/><path aria-label="distance (binned): 1000 – 1200; Count of Records: 81" role="graphics-symbol" aria-roledescription="bar" d="M126,275.7h24v24.30000000000001h-24Z" fill="#ddd"/><path aria-label="distance (binned): 2000 – 2200; Count of Records: 4" role="graphics-symbol" aria-roledescription="bar" d="M251,298.8h24v1.1999999999999886h-24Z" fill="#ddd"/><path aria-label="distance (binned): 1800 – 2000; Count of Records: 15" role="graphics-symbol" aria-roledescription="bar" d="M226,295.5h24v4.5h-24Z" fill="#ddd"/><path aria-label="distance (binned): 1600 – 1800; Count of Records: 14" role="graphics-symbol" aria-roledescription="bar" d="M201,295.8h24v4.199999999999989h-24Z" fill="#ddd"/><path aria-label="distance (binned): 1200 – 1400; Count of Records: 34" role="graphics-symbol" aria-roledescription="bar" d="M151,289.8h24v10.199999999999989h-24Z" fill="#ddd"/><path aria-label="distance (binned): 2200 – 2400; Count of Records: 4" role="graphics-symbol" aria-roledescription="bar" d="M276,298.8h24v1.1999999999999886h-24Z" fill="#ddd"/></g><g class="mark-rect role-mark child__column_distance_layer_1_marks" role="graphics-object" aria-roledescription="rect mark container" pointer-events="none"><path aria-label="distance (binned): 400 – 600; Count of Records: 354" role="graphics-symbol" aria-roledescription="bar" d="M51,193.8h24v106.19999999999999h-24Z" fill="#4c78a8"/><path aria-label="distance (binned): 600 – 800; Count of Records: 198" role="graphics-symbol" aria-roledescription="bar" d="M76,240.60000000000002h24v59.39999999999998h-24Z" fill="#4c78a8"/><path aria-label="distance (binned): 200 – 400; Count of Records: 967" role="graphics-symbol" aria-roledescription="bar" d="M26,9.90000000000001h24v290.09999999999997h-24Z" fill="#4c78a8"/><path aria-label="distance (binned): 0 – 200; Count of Records: 180" role="graphics-symbol" aria-roledescription="bar" d="M1,246.00000000000003h24v53.99999999999997h-24Z" fill="#4c78a8"/><path aria-label="distance (binned): 800 – 1000; Count of Records: 109" role="graphics-symbol" aria-roledescription="bar" d="M101,267.3h24v32.69999999999999h-24Z" fill="#4c78a8"/><path aria-label="distance (binned): 1400 – 1600; Count of Records: 40" role="graphics-symbol" aria-roledescription="bar" d="M176,288h24v12h-24Z" fill="#4c78a8"/><path aria-label="distance (binned): 1000 – 1200; Count of Records: 81" role="graphics-symbol" aria-roledescription="bar" d="M126,275.7h24v24.30000000000001h-24Z" fill="#4c78a8"/><path aria-label="distance (binned): 2000 – 2200; Count of Records: 4" role="graphics-symbol" aria-roledescription="bar" d="M251,298.8h24v1.1999999999999886h-24Z" fill="#4c78a8"/><path aria-label="distance (binned): 1800 – 2000; Count of Records: 15" role="graphics-symbol" aria-roledescription="bar" d="M226,295.5h24v4.5h-24Z" fill="#4c78a8"/><path aria-label="distance (binned): 1600 – 1800; Count of Records: 14" role="graphics-symbol" aria-roledescription="bar" d="M201,295.8h24v4.199999999999989h-24Z" fill="#4c78a8"/><path aria-label="distance (binned): 1200 – 1400; Count of Records: 34" role="graphics-symbol" aria-roledescription="bar" d="M151,289.8h24v10.199999999999989h-24Z" fill="#4c78a8"/><path aria-label="distance (binned): 2200 – 2400; Count of Records: 4" role="graphics-symbol" aria-roledescription="bar" d="M276,298.8h24v1.1999999999999886h-24Z" fill="#4c78a8"/></g><g class="mark-rect role-mark brush_brush" clip-path="url(#clip2)" role="graphics-symbol" aria-roledescription="rect mark container"><path d="M0,0h0v0h0Z"/></g></g><path class="foreground" aria-hidden="true" d="" display="none"/></g></g><g class="mark-group role-scope child__column_delay_group" role="graphics-object" aria-roledescription="group mark container"><g transform="translate(365,0)"><path class="background" aria-hidden="true" d="M0.5,0.5h300v300h-300Z" stroke="#ddd"/><g><g class="mark-group role-axis" aria-hidden="true"><g transform="translate(0.5,0.5)"><path class="background" aria-hidden="true" d="M0,0h0v0h0Z" pointer-events="none"/><g><g class="mark-rule role-axis-grid" pointer-events="none"><line transform="translate(0,300)" x2="300" y2="0" stroke="#ddd" stroke-width="1" opacity="1"/><line transform="translate(0,267)" x2="300" y2="0" stroke="#ddd" stroke-width="1" opacity="1"/><line transform="translate(0,233)" x2="300" y2="0" stroke="#ddd" stroke-width="1" opacity="1"/><line transform="translate(0,200)" x2="300" y2="0" stroke="#ddd" stroke-width="1" opacity="1"/><line transform="translate(0,167)" x2="300" y2="0" stroke="#ddd" stroke-width="1" opacity="1"/><line transform="translate(0,133)" x2="300" y2="0" stroke="#ddd" stroke-width="1" opacity="1"/><line transform="translate(0,100)" x2="300" y2="0" stroke="#ddd" stroke-width="1" opacity="1"/><line transform="translate(0,67)" x2="300" y2="0" stroke="#ddd" stroke-width="1" opacity="1"/><line transform="translate(0,33)" x2="300" y2="0" stroke="#ddd" stroke-width="1" opacity="1"/><line transform="translate(0,0)" x2="300" y2="0" stroke="#ddd" stroke-width="1" opacity="1"/></g></g><path class="foreground" aria-hidden="true" d="" pointer-events="none" display="none"/></g></g><g class="mark-group role-axis" role="graphics-symbol" aria-roledescription="axis" aria-label="X-axis titled 'delay (binned)' for a linear scale with values from −40 to 260"><g transform="translate(0.5,300.5)"><path class="background" aria-hidden="true" d="M0,0h0v0h0Z" pointer-events="none"/><g><g class="mark-rule role-axis-tick" pointer-events="none"><line transform="translate(0,0)" x2="0" y2="5" stroke="#888" stroke-width="1" opacity="1"/><line transform="translate(20,0)" x2="0" y2="5" stroke="#888" stroke-width="1" opacity="1"/><line transform="translate(40,0)" x2="0" y2="5" stroke="#888" stroke-width="1" opacity="1"/><line transform="translate(60,0)" x2="0" y2="5" stroke="#888" stroke-width="1" opacity="1"/><line transform="translate(80,0)" x2="0" y2="5" stroke="#888" stroke-width="1" opacity="1"/><line transform="translate(100,0)" x2="0" y2="5" stroke="#888" stroke-width="1" opacity="1"/><line transform="translate(120,0)" x2="0" y2="5" stroke="#888" stroke-width="1" opacity="1"/><line transform="translate(140,0)" x2="0" y2="5" stroke="#888" stroke-width="1" opacity="1"/><line transform="translate(160,0)" x2="0" y2="5" stroke="#888" stroke-width="1" opacity="1"/><line transform="translate(180,0)" x2="0" y2="5" stroke="#888" stroke-width="1" opacity="1"/><line transform="translate(200,0)" x2="0" y2="5" stroke="#888" stroke-width="1" opacity="1"/><line transform="translate(220,0)" x2="0" y2="5" stroke="#888" stroke-width="1" opacity="1"/><line transform="translate(240,0)" x2="0" y2="5" stroke="#888" stroke-width="1" opacity="1"/><line transform="translate(260,0)" x2="0" y2="5" stroke="#888" stroke-width="1" opacity="1"/><line transform="translate(280,0)" x2="0" y2="5" stroke="#888" stroke-width="1" opacity="1"/><line transform="translate(300,0)" x2="0" y2="5" stroke="#888" stroke-width="1" opacity="1"/></g><g class="mark-text role-axis-label" pointer-events="none"><text text-anchor="start" transform="translate(0,15)" font-family="sans-serif" font-size="10px" fill="#000" opacity="1">−40</text><text text-anchor="middle" transform="translate(20,15)" font-family="sans-serif" font-size="10px" fill="#000" opacity="0">−20</text><text text-anchor="middle" transform="translate(40,15)" font-family="sans-serif" font-size="10px" fill="#000" opacity="1">0</text><text text-anchor="middle" transform="translate(60,15)" font-family="sans-serif" font-size="10px" fill="#000" opacity="0">20</text><text text-anchor="middle" transform="translate(80,15)" font-family="sans-serif" font-size="10px" fill="#000" opacity="1">40</text><text text-anchor="middle" transform="translate(100,15)" font-family="sans-serif" font-size="10px" fill="#000" opacity="0">60</text><text text-anchor="middle" transform="translate(120,15)" font-family="sans-serif" font-size="10px" fill="#000" opacity="1">80</text><text text-anchor="middle" transform="translate(140,15)" font-family="sans-serif" font-size="10px" fill="#000" opacity="0">100</text><text text-anchor="middle" transform="translate(160,15)" font-family="sans-serif" font-size="10px" fill="#000" opacity="1">120</text><text text-anchor="middle" transform="translate(180,15)" font-family="sans-serif" font-size="10px" fill="#000" opacity="0">140</text><text text-anchor="middle" transform="translate(200,15)" font-family="sans-serif" font-size="10px" fill="#000" opacity="1">160</text><text text-anchor="middle" transform="translate(219.99999999999997,15)" font-family="sans-serif" font-size="10px" fill="#000" opacity="0">180</text><text text-anchor="middle" transform="translate(240,15)" font-family="sans-serif" font-size="10px" fill="#000" opacity="1">200</text><text text-anchor="middle" transform="translate(260,15)" font-family="sans-serif" font-size="10px" fill="#000" opacity="0">220</text><text text-anchor="middle" transform="translate(280,15)" font-family="sans-serif" font-size="10px" fill="#000" opacity="1">240</text><text text-anchor="end" transform="translate(300,15)" font-family="sans-serif" font-size="10px" fill="#000" opacity="0">260</text></g><g class="mark-rule role-axis-domain" pointer-events="none"><line transform="translate(0,0)" x2="300" y2="0" stroke="#888" stroke-width="1" opacity="1"/></g><g class="mark-text role-axis-title" pointer-events="none"><text text-anchor="middle" transform="translate(150,30)" font-family="sans-serif" font-size="11px" font-weight="bold" fill="#000" opacity="1">delay (binned)</text></g></g><path class="foreground" aria-hidden="true" d="" pointer-events="none" display="none"/></g></g><g class="mark-group role-axis" role="graphics-symbol" aria-roledescription="axis" aria-label="Y-axis titled 'Count of Records' for a linear scale with values from 0 to 900"><g transform="translate(0.5,0.5)"><path class="background" aria-hidden="true" d="M0,0h0v0h0Z" pointer-events="none"/><g><g class="mark-rule role-axis-tick" pointer-events="none"><line transform="translate(0,300)" x2="-5" y2="0" stroke="#888" stroke-width="1" opacity="1"/><line transform="translate(0,267)" x2="-5" y2="0" stroke="#888" stroke-width="1" opacity="1"/><line transform="translate(0,233)" x2="-5" y2="0" stroke="#888" stroke-width="1" opacity="1"/><line transform="translate(0,200)" x2="-5" y2="0" stroke="#888" stroke-width="1" opacity="1"/><line transform="translate(0,167)" x2="-5" y2="0" stroke="#888" stroke-width="1" opacity="1"/><line transform="translate(0,133)" x2="-5" y2="0" stroke="#888" stroke-width="1" opacity="1"/><line transform="translate(0,100)" x2="-5" y2="0" stroke="#888" stroke-width="1" opacity="1"/><line transform="translate(0,67)" x2="-5" y2="0" stroke="#888" stroke-width="1" opacity="1"/><line transform="translate(0,33)" x2="-5" y2="0" stroke="#888" stroke-width="1" opacity="1"/><line transform="translate(0,0)" x2="-5" y2="0" stroke="#888" stroke-width="1" opacity="1"/></g><g class="mark-text role-axis-label" pointer-events="none"><text text-anchor="end" transform="translate(-7,303)" font-family="sans-serif" font-size="10px" fill="#000" opacity="1">0</text><text text-anchor="end" transform="translate(-7,269.66666666666663)" font-family="sans-serif" font-size="10px" fill="#000" opacity="1">100</text><text text-anchor="end" transform="translate(-7,236.33333333333334)" font-family="sans-serif" font-size="10px" fill="#000" opacity="1">200</text><text text-anchor="end" transform="translate(-7,203.00000000000003)" font-family="sans-serif" font-size="10px" fill="#000" opacity="1">300</text><text text-anchor="end" transform="translate(-7,169.66666666666669)" font-family="sans-serif" font-size="10px" fill="#000" opacity="1">400</text><text text-anchor="end" transform="translate(-7,136.33333333333331)" font-family="sans-serif" font-size="10px" fill="#000" opacity="1">500</text><text text-anchor="end" transform="translate(-7,103.00000000000001)" font-family="sans-serif" font-size="10px" fill="#000" opacity="1">600</text><text text-anchor="end" transform="translate(-7,69.66666666666666)" font-family="sans-serif" font-size="10px" fill="#000" opacity="1">700</text><text text-anchor="end" transform="translate(-7,36.33333333333335)" font-family="sans-serif" font-size="10px" fill="#000" opacity="1">800</text><text text-anchor="end" transform="translate(-7,3)" font-family="sans-serif" font-size="10px" fill="#000" opacity="1">900</text></g><g class="mark-rule role-axis-domain" pointer-events="none"><line transform="translate(0,300)" x2="0" y2="-300" stroke="#888" stroke-width="1" opacity="1"/></g><g class="mark-text role-axis-title" pointer-events="none"><text text-anchor="middle" transform="translate(-30.0869140625,150) rotate(-90) translate(0,-2)" font-family="sans-serif" font-size="11px" font-weight="bold" fill="#000" opacity="1">Count of Records</text></g></g><path class="foreground" aria-hidden="true" d="" pointer-events="none" display="none"/></g></g><g class="mark-rect role-mark brush_brush_bg" clip-path="url(#clip3)" role="graphics-symbol" aria-roledescription="rect mark container"><path d="M0,0h0v0h0Z" fill="#333" fill-opacity="0.125"/></g><g class="mark-rect role-mark child__column_delay_layer_0_marks" role="graphics-object" aria-roledescription="rect mark container"><path aria-label="delay (binned): 0 – 20; Count of Records: 817" role="graphics-symbol" aria-roledescription="bar" d="M41,27.66666666666666h19v272.3333333333333h-19Z" fill="#ddd"/><path aria-label="delay (binned): −20 – 0; Count of Records: 820" role="graphics-symbol" aria-roledescription="bar" d="M21,26.66666666666667h19v273.3333333333333h-19Z" fill="#ddd"/><path aria-label="delay (binned): 40 – 60; Count of Records: 73" role="graphics-symbol" aria-roledescription="bar" d="M81,275.6666666666667h19v24.333333333333314h-19Z" fill="#ddd"/><path aria-label="delay (binned): 20 – 40; Count of Records: 196" role="graphics-symbol" aria-roledescription="bar" d="M61,234.66666666666669h19v65.33333333333331h-19Z" fill="#ddd"/><path aria-label="delay (binned): 160 – 180; Count of Records: 3" role="graphics-symbol" aria-roledescription="bar" d="M201,299h18.99999999999997v1h-18.99999999999997Z" fill="#ddd"/><path aria-label="delay (binned): 100 – 120; Count of Records: 16" role="graphics-symbol" aria-roledescription="bar" d="M141,294.6666666666667h19v5.333333333333314h-19Z" fill="#ddd"/><path aria-label="delay (binned): 60 – 80; Count of Records: 31" role="graphics-symbol" aria-roledescription="bar" d="M101,289.66666666666663h19v10.333333333333371h-19Z" fill="#ddd"/><path aria-label="delay (binned): −40 – −20; Count of Records: 16" role="graphics-symbol" aria-roledescription="bar" d="M1,294.6666666666667h19v5.333333333333314h-19Z" fill="#ddd"/><path aria-label="delay (binned): 80 – 100; Count of Records: 15" role="graphics-symbol" aria-roledescription="bar" d="M121,295h19v5h-19Z" fill="#ddd"/><path aria-label="delay (binned): 180 – 200; Count of Records: 1" role="graphics-symbol" aria-roledescription="bar" d="M220.99999999999997,299.6666666666667h19.00000000000003v0.3333333333333144h-19.00000000000003Z" fill="#ddd"/><path aria-label="delay (binned): 140 – 160; Count of Records: 4" role="graphics-symbol" aria-roledescription="bar" d="M181,298.6666666666667h19v1.3333333333333144h-19Z" fill="#ddd"/><path aria-label="delay (binned): 240 – 260; Count of Records: 1" role="graphics-symbol" aria-roledescription="bar" d="M281,299.6666666666667h19v0.3333333333333144h-19Z" fill="#ddd"/><path aria-label="delay (binned): 120 – 140; Count of Records: 5" role="graphics-symbol" aria-roledescription="bar" d="M161,298.3333333333333h19v1.6666666666666856h-19Z" fill="#ddd"/><path aria-label="delay (binned): 200 – 220; Count of Records: 1" role="graphics-symbol" aria-roledescription="bar" d="M241,299.6666666666667h19v0.3333333333333144h-19Z" fill="#ddd"/><path aria-label="delay (binned): 220 – 240; Count of Records: 1" role="graphics-symbol" aria-roledescription="bar" d="M261,299.6666666666667h19v0.3333333333333144h-19Z" fill="#ddd"/></g><g class="mark-rect role-mark child__column_delay_layer_1_marks" role="graphics-object" aria-roledescription="rect mark container" pointer-events="none"><path aria-label="delay (binned): 0 – 20; Count of Records: 817" role="graphics-symbol" aria-roledescription="bar" d="M41,27.66666666666666h19v272.3333333333333h-19Z" fill="#4c78a8"/><path aria-label="delay (binned): −20 – 0; Count of Records: 820" role="graphics-symbol" aria-roledescription="bar" d="M21,26.66666666666667h19v273.3333333333333h-19Z" fill="#4c78a8"/><path aria-label="delay (binned): 40 – 60; Count of Records: 73" role="graphics-symbol" aria-roledescription="bar" d="M81,275.6666666666667h19v24.333333333333314h-19Z" fill="#4c78a8"/><path aria-label="delay (binned): 20 – 40; Count of Records: 196" role="graphics-symbol" aria-roledescription="bar" d="M61,234.66666666666669h19v65.33333333333331h-19Z" fill="#4c78a8"/><path aria-label="delay (binned): 160 – 180; Count of Records: 3" role="graphics-symbol" aria-roledescription="bar" d="M201,299h18.99999999999997v1h-18.99999999999997Z" fill="#4c78a8"/><path aria-label="delay (binned): 100 – 120; Count of Records: 16" role="graphics-symbol" aria-roledescription="bar" d="M141,294.6666666666667h19v5.333333333333314h-19Z" fill="#4c78a8"/><path aria-label="delay (binned): 60 – 80; Count of Records: 31" role="graphics-symbol" aria-roledescription="bar" d="M101,289.66666666666663h19v10.333333333333371h-19Z" fill="#4c78a8"/><path aria-label="delay (binned): −40 – −20; Count of Records: 16" role="graphics-symbol" aria-roledescription="bar" d="M1,294.6666666666667h19v5.333333333333314h-19Z" fill="#4c78a8"/><path aria-label="delay (binned): 80 – 100; Count of Records: 15" role="graphics-symbol" aria-roledescription="bar" d="M121,295h19v5h-19Z" fill="#4c78a8"/><path aria-label="delay (binned): 180 – 200; Count of Records: 1" role="graphics-symbol" aria-roledescription="bar" d="M220.99999999999997,299.6666666666667h19.00000000000003v0.3333333333333144h-19.00000000000003Z" fill="#4c78a8"/><path aria-label="delay (binned): 140 – 160; Count of Records: 4" role="graphics-symbol" aria-roledescription="bar" d="M181,298.6666666666667h19v1.3333333333333144h-19Z" fill="#4c78a8"/><path aria-label="delay (binned): 240 – 260; Count of Records: 1" role="graphics-symbol" aria-roledescription="bar" d="M281,299.6666666666667h19v0.3333333333333144h-19Z" fill="#4c78a8"/><path aria-label="delay (binned): 120 – 140; Count of Records: 5" role="graphics-symbol" aria-roledescription="bar" d="M161,298.3333333333333h19v1.6666666666666856h-19Z" fill="#4c78a8"/><path aria-label="delay (binned): 200 – 220; Count of Records: 1" role="graphics-symbol" aria-roledescription="bar" d="M241,299.6666666666667h19v0.3333333333333144h-19Z" fill="#4c78a8"/><path aria-label="delay (binned): 220 – 240; Count of Records: 1" role="graphics-symbol" aria-roledescription="bar" d="M261,299.6666666666667h19v0.3333333333333144h-19Z" fill="#4c78a8"/></g><g class="mark-rect role-mark brush_brush" clip-path="url(#clip4)" role="graphics-symbol" aria-roledescription="rect mark container"><path d="M0,0h0v0h0Z"/></g></g><path class="foreground" aria-hidden="true" d="" display="none"/></g></g><g class="mark-group role-scope child__column_time_group" role="graphics-object" aria-roledescription="group mark container"><g transform="translate(730,0)"><path class="background" aria-hidden="true" d="M0.5,0.5h300v300h-300Z" stroke="#ddd"/><g><g class="mark-group role-axis" aria-hidden="true"><g transform="translate(0.5,0.5)"><path class="background" aria-hidden="true" d="M0,0h0v0h0Z" pointer-events="none"/><g><g class="mark-rule role-axis-grid" pointer-events="none"><line transform="translate(0,300)" x2="300" y2="0" stroke="#ddd" stroke-width="1" opacity="1"/><line transform="translate(0,246)" x2="300" y2="0" stroke="#ddd" stroke-width="1" opacity="1"/><line transform="translate(0,193)" x2="300" y2="0" stroke="#ddd" stroke-width="1" opacity="1"/><line transform="translate(0,139)" x2="300" y2="0" stroke="#ddd" stroke-width="1" opacity="1"/><line transform="translate(0,86)" x2="300" y2="0" stroke="#ddd" stroke-width="1" opacity="1"/><line transform="translate(0,32)" x2="300" y2="0" stroke="#ddd" stroke-width="1" opacity="1"/></g></g><path class="foreground" aria-hidden="true" d="" pointer-events="none" display="none"/></g></g><g class="mark-group role-axis" role="graphics-symbol" aria-roledescription="axis" aria-label="X-axis titled 'time (binned)' for a linear scale with values from 0 to 24"><g transform="translate(0.5,300.5)"><path class="background" aria-hidden="true" d="M0,0h0v0h0Z" pointer-events="none"/><g><g class="mark-rule role-axis-tick" pointer-events="none"><line transform="translate(0,0)" x2="0" y2="5" stroke="#888" stroke-width="1" opacity="1"/><line transform="translate(25,0)" x2="0" y2="5" stroke="#888" stroke-width="1" opacity="1"/><line transform="translate(50,0)" x2="0" y2="5" stroke="#888" stroke-width="1" opacity="1"/><line transform="translate(75,0)" x2="0" y2="5" stroke="#888" stroke-width="1" opacity="1"/><line transform="translate(100,0)" x2="0" y2="5" stroke="#888" stroke-width="1" opacity="1"/><line transform="translate(125,0)" x2="0" y2="5" stroke="#888" stroke-width="1" opacity="1"/><line transform="translate(150,0)" x2="0" y2="5" stroke="#888" stroke-width="1" opacity="1"/><line transform="translate(175,0)" x2="0" y2="5" stroke="#888" stroke-width="1" opacity="1"/><line transform="translate(200,0)" x2="0" y2="5" stroke="#888" stroke-width="1" opacity="1"/><line transform="translate(225,0)" x2="0" y2="5" stroke="#888" stroke-width="1" opacity="1"/><line transform="translate(250,0)" x2="0" y2="5" stroke="#888" stroke-width="1" opacity="1"/><line transform="translate(275,0)" x2="0" y2="5" stroke="#888" stroke-width="1" opacity="1"/><line transform="translate(300,0)" x2="0" y2="5" stroke="#888" stroke-width="1" opacity="1"/></g><g class="mark-text role-axis-label" pointer-events="none"><text text-anchor="start" transform="translate(0,15)" font-family="sans-serif" font-size="10px" fill="#000" opacity="1">0</text><text text-anchor="middle" transform="translate(25,15)" font-family="sans-serif" font-size="10px" fill="#000" opacity="1">2</text><text text-anchor="middle" transform="translate(50,15)" font-family="sans-serif" font-size="10px" fill="#000" opacity="1">4</text><text text-anchor="middle" transform="translate(75,15)" font-family="sans-serif" font-size="10px" fill="#000" opacity="1">6</text><text text-anchor="middle" transform="translate(100,15)" font-family="sans-serif" font-size="10px" fill="#000" opacity="1">8</text><text text-anchor="middle" transform="translate(125,15)" font-family="sans-serif" font-size="10px" fill="#000" opacity="1">10</text><text text-anchor="middle" transform="translate(150,15)" font-family="sans-serif" font-size="10px" fill="#000" opacity="1">12</text><text text-anchor="middle" transform="translate(175,15)" font-family="sans-serif" font-size="10px" fill="#000" opacity="1">14</text><text text-anchor="middle" transform="translate(200,15)" font-family="sans-serif" font-size="10px" fill="#000" opacity="1">16</text><text text-anchor="middle" transform="translate(225,15)" font-family="sans-serif" font-size="10px" fill="#000" opacity="1">18</text><text text-anchor="middle" transform="translate(250,15)" font-family="sans-serif" font-size="10px" fill="#000" opacity="1">20</text><text text-anchor="middle" transform="translate(275,15)" font-family="sans-serif" font-size="10px" fill="#000" opacity="1">22</text><text text-anchor="end" transform="translate(300,15)" font-family="sans-serif" font-size="10px" fill="#000" opacity="1">24</text></g><g class="mark-rule role-axis-domain" pointer-events="none"><line transform="translate(0,0)" x2="300" y2="0" stroke="#888" stroke-width="1" opacity="1"/></g><g class="mark-text role-axis-title" pointer-events="none"><text text-anchor="middle" transform="translate(150,30)" font-family="sans-serif" font-size="11px" font-weight="bold" fill="#000" opacity="1">time (binned)</text></g></g><path class="foreground" aria-hidden="true" d="" pointer-events="none" display="none"/></g></g><g class="mark-group role-axis" role="graphics-symbol" aria-roledescription="axis" aria-label="Y-axis titled 'Count of Records' for a linear scale with values from 0 to 280"><g transform="translate(0.5,0.5)"><path class="background" aria-hidden="true" d="M0,0h0v0h0Z" pointer-events="none"/><g><g class="mark-rule role-axis-tick" pointer-events="none"><line transform="translate(0,300)" x2="-5" y2="0" stroke="#888" stroke-width="1" opacity="1"/><line transform="translate(0,246)" x2="-5" y2="0" stroke="#888" stroke-width="1" opacity="1"/><line transform="translate(0,193)" x2="-5" y2="0" stroke="#888" stroke-width="1" opacity="1"/><line transform="translate(0,139)" x2="-5" y2="0" stroke="#888" stroke-width="1" opacity="1"/><line transform="translate(0,86)" x2="-5" y2="0" stroke="#888" stroke-width="1" opacity="1"/><line transform="translate(0,32)" x2="-5" y2="0" stroke="#888" stroke-width="1" opacity="1"/></g><g class="mark-text role-axis-label" pointer-events="none"><text text-anchor="end" transform="translate(-7,303)" font-family="sans-serif" font-size="10px" fill="#000" opacity="1">0</text><text text-anchor="end" transform="translate(-7,249.42857142857142)" font-family="sans-serif" font-size="10px" fill="#000" opacity="1">50</text><text text-anchor="end" transform="translate(-7,195.85714285714283)" font-family="sans-serif" font-size="10px" fill="#000" opacity="1">100</text><text text-anchor="end" transform="translate(-7,142.28571428571428)" font-family="sans-serif" font-size="10px" fill="#000" opacity="1">150</text><text text-anchor="end" transform="translate(-7,88.71428571428571)" font-family="sans-serif" font-size="10px" fill="#000" opacity="1">200</text><text text-anchor="end" transform="translate(-7,35.14285714285713)" font-family="sans-serif" font-size="10px" fill="#000" opacity="1">250</text></g><g class="mark-rule role-axis-domain" pointer-events="none"><line transform="translate(0,300)" x2="0" y2="-300" stroke="#888" stroke-width="1" opacity="1"/></g><g class="mark-text role-axis-title" pointer-events="none"><text text-anchor="middle" transform="translate(-30.0869140625,150) rotate(-90) translate(0,-2)" font-family="sans-serif" font-size="11px" font-weight="bold" fill="#000" opacity="1">Count of Records</text></g></g><path class="foreground" aria-hidden="true" d="" pointer-events="none" display="none"/></g></g><g class="mark-rect role-mark brush_brush_bg" clip-path="url(#clip5)" role="graphics-symbol" aria-roledescription="rect mark container"><path d="M0,0h0v0h0Z" fill="#333" fill-opacity="0.125"/></g><g class="mark-rect role-mark child__column_time_layer_0_marks" role="graphics-object" aria-roledescription="rect mark container"><path aria-label="time (binned): 20 – 22; Count of Records: 187" role="graphics-symbol" aria-roledescription="bar" d="M251,99.64285714285715h24v200.35714285714283h-24Z" fill="#ddd"/><path aria-label="time (binned): 14 – 16; Count of Records: 231" role="graphics-symbol" aria-roledescription="bar" d="M176,52.500000000000014h24v247.5h-24Z" fill="#ddd"/><path aria-label="time (binned): 12 – 14; Count of Records: 264" role="graphics-symbol" aria-roledescription="bar" d="M151,17.14285714285715h24v282.85714285714283h-24Z" fill="#ddd"/><path aria-label="time (binned): 8 – 10; Count of Records: 271" role="graphics-symbol" aria-roledescription="bar" d="M101,9.642857142857142h24v290.35714285714283h-24Z" fill="#ddd"/><path aria-label="time (binned): 6 – 8; Count of Records: 242" role="graphics-symbol" aria-roledescription="bar" d="M76,40.7142857142857h24v259.2857142857143h-24Z" fill="#ddd"/><path aria-label="time (binned): 10 – 12; Count of Records: 264" role="graphics-symbol" aria-roledescription="bar" d="M126,17.14285714285715h24v282.85714285714283h-24Z" fill="#ddd"/><path aria-label="time (binned): 18 – 20; Count of Records: 238" role="graphics-symbol" aria-roledescription="bar" d="M226,45.00000000000001h24v255h-24Z" fill="#ddd"/><path aria-label="time (binned): 16 – 18; Count of Records: 260" role="graphics-symbol" aria-roledescription="bar" d="M201,21.42857142857142h24v278.57142857142856h-24Z" fill="#ddd"/><path aria-label="time (binned): 22 – 24; Count of Records: 40" role="graphics-symbol" aria-roledescription="bar" d="M276,257.14285714285717h24v42.85714285714283h-24Z" fill="#ddd"/><path aria-label="time (binned): 4 – 6; Count of Records: 2" role="graphics-symbol" aria-roledescription="bar" d="M51,297.8571428571429h24v2.1428571428571104h-24Z" fill="#ddd"/><path aria-label="time (binned): 0 – 2; Count of Records: 1" role="graphics-symbol" aria-roledescription="bar" d="M1,298.92857142857144h24v1.0714285714285552h-24Z" fill="#ddd"/></g><g class="mark-rect role-mark child__column_time_layer_1_marks" role="graphics-object" aria-roledescription="rect mark container" pointer-events="none"><path aria-label="time (binned): 20 – 22; Count of Records: 187" role="graphics-symbol" aria-roledescription="bar" d="M251,99.64285714285715h24v200.35714285714283h-24Z" fill="#4c78a8"/><path aria-label="time (binned): 14 – 16; Count of Records: 231" role="graphics-symbol" aria-roledescription="bar" d="M176,52.500000000000014h24v247.5h-24Z" fill="#4c78a8"/><path aria-label="time (binned): 12 – 14; Count of Records: 264" role="graphics-symbol" aria-roledescription="bar" d="M151,17.14285714285715h24v282.85714285714283h-24Z" fill="#4c78a8"/><path aria-label="time (binned): 8 – 10; Count of Records: 271" role="graphics-symbol" aria-roledescription="bar" d="M101,9.642857142857142h24v290.35714285714283h-24Z" fill="#4c78a8"/><path aria-label="time (binned): 6 – 8; Count of Records: 242" role="graphics-symbol" aria-roledescription="bar" d="M76,40.7142857142857h24v259.2857142857143h-24Z" fill="#4c78a8"/><path aria-label="time (binned): 10 – 12; Count of Records: 264" role="graphics-symbol" aria-roledescription="bar" d="M126,17.14285714285715h24v282.85714285714283h-24Z" fill="#4c78a8"/><path aria-label="time (binned): 18 – 20; Count of Records: 238" role="graphics-symbol" aria-roledescription="bar" d="M226,45.00000000000001h24v255h-24Z" fill="#4c78a8"/><path aria-label="time (binned): 16 – 18; Count of Records: 260" role="graphics-symbol" aria-roledescription="bar" d="M201,21.42857142857142h24v278.57142857142856h-24Z" fill="#4c78a8"/><path aria-label="time (binned): 22 – 24; Count of Records: 40" role="graphics-symbol" aria-roledescription="bar" d="M276,257.14285714285717h24v42.85714285714283h-24Z" fill="#4c78a8"/><path aria-label="time (binned): 4 – 6; Count of Records: 2" role="graphics-symbol" aria-roledescription="bar" d="M51,297.8571428571429h24v2.1428571428571104h-24Z" fill="#4c78a8"/><path aria-label="time (binned): 0 – 2; Count of Records: 1" role="graphics-symbol" aria-roledescription="bar" d="M1,298.92857142857144h24v1.0714285714285552h-24Z" fill="#4c78a8"/></g><g class="mark-rect role-mark brush_brush" clip-path="url(#clip6)" role="graphics-symbol" aria-roledescription="rect mark container"><path d="M0,0h0v0h0Z"/></g></g><path class="foreground" aria-hidden="true" d="" display="none"/></g></g></g><path class="foreground" aria-hidden="true" d="" display="none"/></g></g></g><defs><clipPath id="clip1"><rect x="0" y="0" width="300" height="300"/></clipPath><clipPath id="clip2"><rect x="0" y="0" width="300" height="300"/></clipPath><clipPath id="clip3"><rect x="0" y="0" width="300" height="300"/></clipPath><clipPath id="clip4"><rect x="0" y="0" width="300" height="300"/></clipPath><clipPath id="clip5"><rect x="0" y="0" width="300" height="300"/></clipPath><clipPath id="clip6"><rect x="0" y="0" width="300" height="300"/></clipPath></defs></svg>