<svg xmlns="http://www.w3.org/2000/svg" xmlns:xlink="http://www.w3.org/1999/xlink" version="1.1" class="marks" width="410" height="410" viewBox="0 0 410 410"><rect width="410" height="410" fill="white"/><g fill="none" stroke-miterlimit="10" transform="translate(5,5)"><g class="mark-group role-frame root" role="graphics-object" aria-roledescription="group mark container"><g transform="translate(0,0)"><path class="background" aria-hidden="true" d="M0,0h400v400h-400Z" stroke=""/><g><g class="mark-rect role-mark highlight_brush_bg" clip-path="url(#clip1)" role="graphics-symbol" aria-roledescription="rect mark container"><path d="M0,0h0v0h0Z" fill="#333" fill-opacity="0.125"/></g><g class="mark-symbol role-mark marks" role="graphics-object" aria-roledescription="symbol mark container"><path aria-label="col: 1; row: -9" role="graphics-symbol" aria-roledescription="point" transform="translate(20,20)" d="M8.064,-8.064L4.269,-8.064C5.692,-9.012,7.115,-10.436,7.115,-12.333C7.115,-15.179,5.218,-17.076,2.372,-17.076C-0.474,-17.076,-2.372,-15.179,-2.372,-12.333C-2.372,-10.436,-1.423,-9.012,0.474,-8.064L-3.32,-8.064C-5.218,-8.064,-6.641,-6.641,-6.641,-5.218L-6.641,3.795C-6.641,5.218,-5.218,6.641,-3.795,6.641L-2.846,6.641C-2.846,6.641,-2.846,7.115,-2.846,7.115L-2.846,16.128C-2.846,17.551,-1.897,18.974,-1.423,18.974L4.743,18.974C5.692,18.974,6.166,17.551,6.166,16.128L6.166,7.589C6.166,7.589,6.166,7.115,6.166,7.115L7.115,7.115C8.538,7.115,9.961,5.692,9.961,4.269L9.961,-5.218C10.91,-6.641,9.487,-8.064,8.064,-8.064Z" fill="rgb(194,81,64)" stroke-width="2" opacity="0.7"/><path aria-label="col: 1; row: -8" role="graphics-symbol" aria-roledescription="point" transform="translate(20,60)" d="M8.064,-8.064L4.269,-8.064C5.692,-9.012,7.115,-10.436,7.115,-12.333C7.115,-15.179,5.218,-17.076,2.372,-17.076C-0.474,-17.076,-2.372,-15.179,-2.372,-12.333C-2.372,-10.436,-1.423,-9.012,0.474,-8.064L-3.32,-8.064C-5.218,-8.064,-6.641,-6.641,-6.641,-5.218L-6.641,3.795C-6.641,5.218,-5.218,6.641,-3.795,6.641L-2.846,6.641C-2.846,6.641,-2.846,7.115,-2.846,7.115L-2.846,16.128C-2.846,17.551,-1.897,18.974,-1.423,18.974L4.743,18.974C5.692,18.974,6.166,17.551,6.166,16.128L6.166,7.589C6.166,7.589,6.166,7.115,6.166,7.115L7.115,7.115C8.538,7.115,9.961,5.692,9.961,4.269L9.961,-5.218C10.91,-6.641,9.487,-8.064,8.064,-8.064Z" fill="rgb(194,81,64)" stroke-width="2" opacity="0.7"/><path aria-label="col: 1; row: -7" role="graphics-symbol" aria-roledescription="point" transform="translate(20,100)" d="M8.064,-8.064L4.269,-8.064C5.692,-9.012,7.115,-10.436,7.115,-12.333C7.115,-15.179,5.218,-17.076,2.372,-17.076C-0.474,-17.076,-2.372,-15.179,-2.372,-12.333C-2.372,-10.436,-1.423,-9.012,0.474,-8.064L-3.32,-8.064C-5.218,-8.064,-6.641,-6.641,-6.641,-5.218L-6.641,3.795C-6.641,5.218,-5.218,6.641,-3.795,6.641L-2.846,6.641C-2.846,6.641,-2.846,7.115,-2.846,7.115L-2.846,16.128C-2.846,17.551,-1.897,18.974,-1.423,18.974L4.743,18.974C5.692,18.974,6.166,17.551,6.166,16.128L6.166,7.589C6.166,7.589,6.166,7.115,6.166,7.115L7.115,7.115C8.538,7.115,9.961,5.692,9.961,4.269L9.961,-5.218C10.91,-6.641,9.487,-8.064,8.064,-8.064Z" fill="rgb(194,81,64)" stroke-width="2" opacity="0.7"/><path aria-label="col: 1; row: -6" role="graphics-symbol" aria-roledescription="point" transform="translate(20,140)" d="M8.064,-8.064L4.269,-8.064C5.692,-9.012,7.115,-10.436,7.115,-12.333C7.115,-15.179,5.218,-17.076,2.372,-17.076C-0.474,-17.076,-2.372,-15.179,-2.372,-12.333C-2.372,-10.436,-1.423,-9.012,0.474,-8.064L-3.32,-8.064C-5.218,-8.064,-6.641,-6.641,-6.641,-5.218L-6.641,3.795C-6.641,5.218,-5.218,6.641,-3.795,6.641L-2.846,6.641C-2.846,6.641,-2.846,7.115,-2.846,7.115L-2.846,16.128C-2.846,17.551,-1.897,18.974,-1.423,18.974L4.743,18.974C5.692,18.974,6.166,17.551,6.166,16.128L6.166,7.589C6.166,7.589,6.166,7.115,6.166,7.115L7.115,7.115C8.538,7.115,9.961,5.692,9.961,4.269L9.961,-5.218C10.91,-6.641,9.487,-8.064,8.064,-8.064Z" fill="rgb(194,81,64)" stroke-width="2" opacity="0.7"/><path aria-label="col: 1; row: -5" role="graphics-symbol" aria-roledescription="point" transform="translate(20,180)" d="M8.064,-8.064L4.269,-8.064C5.692,-9.012,7.115,-10.436,7.115,-12.333C7.115,-15.179,5.218,-17.076,2.372,-17.076C-0.474,-17.076,-2.372,-15.179,-2.372,-12.333C-2.372,-10.436,-1.423,-9.012,0.474,-8.064L-3.32,-8.064C-5.218,-8.064,-6.641,-6.641,-6.641,-5.218L-6.641,3.795C-6.641,5.218,-5.218,6.641,-3.795,6.641L-2.846,6.641C-2.846,6.641,-2.846,7.115,-2.846,7.115L-2.846,16.128C-2.846,17.551,-1.897,18.974,-1.423,18.974L4.743,18.974C5.692,18.974,6.166,17.551,6.166,16.128L6.166,7.589C6.166,7.589,6.166,7.115,6.166,7.115L7.115,7.115C8.538,7.115,9.961,5.692,9.961,4.269L9.961,-5.218C10.91,-6.641,9.487,-8.064,8.064,-8.064Z" fill="rgb(194,81,64)" stroke-width="2" opacity="0.7"/><path aria-label="col: 1; row: -4" role="graphics-symbol" aria-roledescription="point" transform="translate(20,220)" d="M8.064,-8.064L4.269,-8.064C5.692,-9.012,7.115,-10.436,7.115,-12.333C7.115,-15.179,5.218,-17.076,2.372,-17.076C-0.474,-17.076,-2.372,-15.179,-2.372,-12.333C-2.372,-10.436,-1.423,-9.012,0.474,-8.064L-3.32,-8.064C-5.218,-8.064,-6.641,-6.641,-6.641,-5.218L-6.641,3.795C-6.641,5.218,-5.218,6.641,-3.795,6.641L-2.846,6.641C-2.846,6.641,-2.846,7.115,-2.846,7.115L-2.846,16.128C-2.846,17.551,-1.897,18.974,-1.423,18.974L4.743,18.974C5.692,18.974,6.166,17.551,6.166,16.128L6.166,7.589C6.166,7.589,6.166,7.115,6.166,7.115L7.115,7.115C8.538,7.115,9.961,5.692,9.961,4.269L9.961,-5.218C10.91,-6.641,9.487,-8.064,8.064,-8.064Z" fill="rgb(194,81,64)" stroke-width="2" opacity="0.7"/><path aria-label="col: 1; row: -3" role="graphics-symbol" aria-roledescription="point" transform="translate(20,260)" d="M8.064,-8.064L4.269,-8.064C5.692,-9.012,7.115,-10.436,7.115,-12.333C7.115,-15.179,5.218,-17.076,2.372,-17.076C-0.474,-17.076,-2.372,-15.179,-2.372,-12.333C-2.372,-10.436,-1.423,-9.012,0.474,-8.064L-3.32,-8.064C-5.218,-8.064,-6.641,-6.641,-6.641,-5.218L-6.641,3.795C-6.641,5.218,-5.218,6.641,-3.795,6.641L-2.846,6.641C-2.846,6.641,-2.846,7.115,-2.846,7.115L-2.846,16.128C-2.846,17.551,-1.897,18.974,-1.423,18.974L4.743,18.974C5.692,18.974,6.166,17.551,6.166,16.128L6.166,7.589C6.166,7.589,6.166,7.115,6.166,7.115L7.115,7.115C8.538,7.115,9.961,5.692,9.961,4.269L9.961,-5.218C10.91,-6.641,9.487,-8.064,8.064,-8.064Z" fill="rgb(194,81,64)" stroke-width="2" opacity="0.7"/><path aria-label="col: 1; row: -2" role="graphics-symbol" aria-roledescription="point" transform="translate(20,300)" d="M8.064,-8.064L4.269,-8.064C5.692,-9.012,7.115,-10.436,7.115,-12.333C7.115,-15.179,5.218,-17.076,2.372,-17.076C-0.474,-17.076,-2.372,-15.179,-2.372,-12.333C-2.372,-10.436,-1.423,-9.012,0.474,-8.064L-3.32,-8.064C-5.218,-8.064,-6.641,-6.641,-6.641,-5.218L-6.641,3.795C-6.641,5.218,-5.218,6.641,-3.795,6.641L-2.846,6.641C-2.846,6.641,-2.846,7.115,-2.846,7.115L-2.846,16.128C-2.846,17.551,-1.897,18.974,-1.423,18.974L4.743,18.974C5.692,18.974,6.166,17.551,6.166,16.128L6.166,7.589C6.166,7.589,6.166,7.115,6.166,7.115L7.115,7.115C8.538,7.115,9.961,5.692,9.961,4.269L9.961,-5.218C10.91,-6.641,9.487,-8.064,8.064,-8.064Z" fill="rgb(194,81,64)" stroke-width="2" opacity="0.7"/><path aria-label="col: 1; row: -1" role="graphics-symbol" aria-roledescription="point" transform="translate(20,340)" d="M8.064,-8.064L4.269,-8.064C5.692,-9.012,7.115,-10.436,7.115,-12.333C7.115,-15.179,5.218,-17.076,2.372,-17.076C-0.474,-17.076,-2.372,-15.179,-2.372,-12.333C-2.372,-10.436,-1.423,-9.012,0.474,-8.064L-3.32,-8.064C-5.218,-8.064,-6.641,-6.641,-6.641,-5.218L-6.641,3.795C-6.641,5.218,-5.218,6.641,-3.795,6.641L-2.846,6.641C-2.846,6.641,-2.846,7.115,-2.846,7.115L-2.846,16.128C-2.846,17.551,-1.897,18.974,-1.423,18.974L4.743,18.974C5.692,18.974,6.166,17.551,6.166,16.128L6.166,7.589C6.166,7.589,6.166,7.115,6.166,7.115L7.115,7.115C8.538,7.115,9.961,5.692,9.961,4.269L9.961,-5.218C10.91,-6.641,9.487,-8.064,8.064,-8.064Z" fill="rgb(194,81,64)" stroke-width="2" opacity="0.7"/><path aria-label="col: 1; row: 0" role="graphics-symbol" aria-roledescription="point" transform="translate(20,380)" d="M8.064,-8.064L4.269,-8.064C5.692,-9.012,7.115,-10.436,7.115,-12.333C7.115,-15.179,5.218,-17.076,2.372,-17.076C-0.474,-17.076,-2.372,-15.179,-2.372,-12.333C-2.372,-10.436,-1.423,-9.012,0.474,-8.064L-3.32,-8.064C-5.218,-8.064,-6.641,-6.641,-6.641,-5.218L-6.641,3.795C-6.641,5.218,-5.218,6.641,-3.795,6.641L-2.846,6.641C-2.846,6.641,-2.846,7.115,-2.846,7.115L-2.846,16.128C-2.846,17.551,-1.897,18.974,-1.423,18.974L4.743,18.974C5.692,18.974,6.166,17.551,6.166,16.128L6.166,7.589C6.166,7.589,6.166,7.115,6.166,7.115L7.115,7.115C8.538,7.115,9.961,5.692,9.961,4.269L9.961,-5.218C10.91,-6.641,9.487,-8.064,8.064,-8.064Z" fill="rgb(194,81,64)" stroke-width="2" opacity="0.7"/><path aria-label="col: 2; row: -9" role="graphics-symbol" aria-roledescription="point" transform="translate(60,20)" d="M8.064,-8.064L4.269,-8.064C5.692,-9.012,7.115,-10.436,7.115,-12.333C7.115,-15.179,5.218,-17.076,2.372,-17.076C-0.474,-17.076,-2.372,-15.179,-2.372,-12.333C-2.372,-10.436,-1.423,-9.012,0.474,-8.064L-3.32,-8.064C-5.218,-8.064,-6.641,-6.641,-6.641,-5.218L-6.641,3.795C-6.641,5.218,-5.218,6.641,-3.795,6.641L-2.846,6.641C-2.846,6.641,-2.846,7.115,-2.846,7.115L-2.846,16.128C-2.846,17.551,-1.897,18.974,-1.423,18.974L4.743,18.974C5.692,18.974,6.166,17.551,6.166,16.128L6.166,7.589C6.166,7.589,6.166,7.115,6.166,7.115L7.115,7.115C8.538,7.115,9.961,5.692,9.961,4.269L9.961,-5.218C10.91,-6.641,9.487,-8.064,8.064,-8.064Z" fill="rgb(194,81,64)" stroke-width="2" opacity="0.7"/><path aria-label="col: 2; row: -8" role="graphics-symbol" aria-roledescription="point" transform="translate(60,60)" d="M8.064,-8.064L4.269,-8.064C5.692,-9.012,7.115,-10.436,7.115,-12.333C7.115,-15.179,5.218,-17.076,2.372,-17.076C-0.474,-17.076,-2.372,-15.179,-2.372,-12.333C-2.372,-10.436,-1.423,-9.012,0.474,-8.064L-3.32,-8.064C-5.218,-8.064,-6.641,-6.641,-6.641,-5.218L-6.641,3.795C-6.641,5.218,-5.218,6.641,-3.795,6.641L-2.846,6.641C-2.846,6.641,-2.846,7.115,-2.846,7.115L-2.846,16.128C-2.846,17.551,-1.897,18.974,-1.423,18.974L4.743,18.974C5.692,18.974,6.166,17.551,6.166,16.128L6.166,7.589C6.166,7.589,6.166,7.115,6.166,7.115L7.115,7.115C8.538,7.115,9.961,5.692,9.961,4.269L9.961,-5.218C10.91,-6.641,9.487,-8.064,8.064,-8.064Z" fill="rgb(194,81,64)" stroke-width="2" opacity="0.7"/><path aria-label="col: 2; row: -7" role="graphics-symbol" aria-roledescription="point" transform="translate(60,100)" d="M8.064,-8.064L4.269,-8.064C5.692,-9.012,7.115,-10.436,7.115,-12.333C7.115,-15.179,5.218,-17.076,2.372,-17.076C-0.474,-17.076,-2.372,-15.179,-2.372,-12.333C-2.372,-10.436,-1.423,-9.012,0.474,-8.064L-3.32,-8.064C-5.218,-8.064,-6.641,-6.641,-6.641,-5.218L-6.641,3.795C-6.641,5.218,-5.218,6.641,-3.795,6.641L-2.846,6.641C-2.846,6.641,-2.846,7.115,-2.846,7.115L-2.846,16.128C-2.846,17.551,-1.897,18.974,-1.423,18.974L4.743,18.974C5.692,18.974,6.166,17.551,6.166,16.128L6.166,7.589C6.166,7.589,6.166,7.115,6.166,7.115L7.115,7.115C8.538,7.115,9.961,5.692,9.961,4.269L9.961,-5.218C10.91,-6.641,9.487,-8.064,8.064,-8.064Z" fill="rgb(194,81,64)" stroke-width="2" opacity="0.7"/><path aria-label="col: 2; row: -6" role="graphics-symbol" aria-roledescription="point" transform="translate(60,140)" d="M8.064,-8.064L4.269,-8.064C5.692,-9.012,7.115,-10.436,7.115,-12.333C7.115,-15.179,5.218,-17.076,2.372,-17.076C-0.474,-17.076,-2.372,-15.179,-2.372,-12.333C-2.372,-10.436,-1.423,-9.012,0.474,-8.064L-3.32,-8.064C-5.218,-8.064,-6.641,-6.641,-6.641,-5.218L-6.641,3.795C-6.641,5.218,-5.218,6.641,-3.795,6.641L-2.846,6.641C-2.846,6.641,-2.846,7.115,-2.846,7.115L-2.846,16.128C-2.846,17.551,-1.897,18.974,-1.423,18.974L4.743,18.974C5.692,18.974,6.166,17.551,6.166,16.128L6.166,7.589C6.166,7.589,6.166,7.115,6.166,7.115L7.115,7.115C8.538,7.115,9.961,5.692,9.961,4.269L9.961,-5.218C10.91,-6.641,9.487,-8.064,8.064,-8.064Z" fill="rgb(194,81,64)" stroke-width="2" opacity="0.7"/><path aria-label="col: 2; row: -5" role="graphics-symbol" aria-roledescription="point" transform="translate(60,180)" d="M8.064,-8.064L4.269,-8.064C5.692,-9.012,7.115,-10.436,7.115,-12.333C7.115,-15.179,5.218,-17.076,2.372,-17.076C-0.474,-17.076,-2.372,-15.179,-2.372,-12.333C-2.372,-10.436,-1.423,-9.012,0.474,-8.064L-3.32,-8.064C-5.218,-8.064,-6.641,-6.641,-6.641,-5.218L-6.641,3.795C-6.641,5.218,-5.218,6.641,-3.795,6.641L-2.846,6.641C-2.846,6.641,-2.846,7.115,-2.846,7.115L-2.846,16.128C-2.846,17.551,-1.897,18.974,-1.423,18.974L4.743,18.974C5.692,18.974,6.166,17.551,6.166,16.128L6.166,7.589C6.166,7.589,6.166,7.115,6.166,7.115L7.115,7.115C8.538,7.115,9.961,5.692,9.961,4.269L9.961,-5.218C10.91,-6.641,9.487,-8.064,8.064,-8.064Z" fill="rgb(194,81,64)" stroke-width="2" opacity="0.7"/><path aria-label="col: 2; row: -4" role="graphics-symbol" aria-roledescription="point" transform="translate(60,220)" d="M8.064,-8.064L4.269,-8.064C5.692,-9.012,7.115,-10.436,7.115,-12.333C7.115,-15.179,5.218,-17.076,2.372,-17.076C-0.474,-17.076,-2.372,-15.179,-2.372,-12.333C-2.372,-10.436,-1.423,-9.012,0.474,-8.064L-3.32,-8.064C-5.218,-8.064,-6.641,-6.641,-6.641,-5.218L-6.641,3.795C-6.641,5.218,-5.218,6.641,-3.795,6.641L-2.846,6.641C-2.846,6.641,-2.846,7.115,-2.846,7.115L-2.846,16.128C-2.846,17.551,-1.897,18.974,-1.423,18.974L4.743,18.974C5.692,18.974,6.166,17.551,6.166,16.128L6.166,7.589C6.166,7.589,6.166,7.115,6.166,7.115L7.115,7.115C8.538,7.115,9.961,5.692,9.961,4.269L9.961,-5.218C10.91,-6.641,9.487,-8.064,8.064,-8.064Z" fill="rgb(194,81,64)" stroke-width="2" opacity="0.7"/><path aria-label="col: 2; row: -3" role="graphics-symbol" aria-roledescription="point" transform="translate(60,260)" d="M8.064,-8.064L4.269,-8.064C5.692,-9.012,7.115,-10.436,7.115,-12.333C7.115,-15.179,5.218,-17.076,2.372,-17.076C-0.474,-17.076,-2.372,-15.179,-2.372,-12.333C-2.372,-10.436,-1.423,-9.012,0.474,-8.064L-3.32,-8.064C-5.218,-8.064,-6.641,-6.641,-6.641,-5.218L-6.641,3.795C-6.641,5.218,-5.218,6.641,-3.795,6.641L-2.846,6.641C-2.846,6.641,-2.846,7.115,-2.846,7.115L-2.846,16.128C-2.846,17.551,-1.897,18.974,-1.423,18.974L4.743,18.974C5.692,18.974,6.166,17.551,6.166,16.128L6.166,7.589C6.166,7.589,6.166,7.115,6.166,7.115L7.115,7.115C8.538,7.115,9.961,5.692,9.961,4.269L9.961,-5.218C10.91,-6.641,9.487,-8.064,8.064,-8.064Z" fill="rgb(194,81,64)" stroke-width="2" opacity="0.7"/><path aria-label="col: 2; row: -2" role="graphics-symbol" aria-roledescription="point" transform="translate(60,300)" d="M8.064,-8.064L4.269,-8.064C5.692,-9.012,7.115,-10.436,7.115,-12.333C7.115,-15.179,5.218,-17.076,2.372,-17.076C-0.474,-17.076,-2.372,-15.179,-2.372,-12.333C-2.372,-10.436,-1.423,-9.012,0.474,-8.064L-3.32,-8.064C-5.218,-8.064,-6.641,-6.641,-6.641,-5.218L-6.641,3.795C-6.641,5.218,-5.218,6.641,-3.795,6.641L-2.846,6.641C-2.846,6.641,-2.846,7.115,-2.846,7.115L-2.846,16.128C-2.846,17.551,-1.897,18.974,-1.423,18.974L4.743,18.974C5.692,18.974,6.166,17.551,6.166,16.128L6.166,7.589C6.166,7.589,6.166,7.115,6.166,7.115L7.115,7.115C8.538,7.115,9.961,5.692,9.961,4.269L9.961,-5.218C10.91,-6.641,9.487,-8.064,8.064,-8.064Z" fill="rgb(194,81,64)" stroke-width="2" opacity="0.7"/><path aria-label="col: 2; row: -1" role="graphics-symbol" aria-roledescription="point" transform="translate(60,340)" d="M8.064,-8.064L4.269,-8.064C5.692,-9.012,7.115,-10.436,7.115,-12.333C7.115,-15.179,5.218,-17.076,2.372,-17.076C-0.474,-17.076,-2.372,-15.179,-2.372,-12.333C-2.372,-10.436,-1.423,-9.012,0.474,-8.064L-3.32,-8.064C-5.218,-8.064,-6.641,-6.641,-6.641,-5.218L-6.641,3.795C-6.641,5.218,-5.218,6.641,-3.795,6.641L-2.846,6.641C-2.846,6.641,-2.846,7.115,-2.846,7.115L-2.846,16.128C-2.846,17.551,-1.897,18.974,-1.423,18.974L4.743,18.974C5.692,18.974,6.166,17.551,6.166,16.128L6.166,7.589C6.166,7.589,6.166,7.115,6.166,7.115L7.115,7.115C8.538,7.115,9.961,5.692,9.961,4.269L9.961,-5.218C10.91,-6.641,9.487,-8.064,8.064,-8.064Z" fill="rgb(194,81,64)" stroke-width="2" opacity="0.7"/><path aria-label="col: 2; row: 0" role="graphics-symbol" aria-roledescription="point" transform="translate(60,380)" d="M8.064,-8.064L4.269,-8.064C5.692,-9.012,7.115,-10.436,7.115,-12.333C7.115,-15.179,5.218,-17.076,2.372,-17.076C-0.474,-17.076,-2.372,-15.179,-2.372,-12.333C-2.372,-10.436,-1.423,-9.012,0.474,-8.064L-3.32,-8.064C-5.218,-8.064,-6.641,-6.641,-6.641,-5.218L-6.641,3.795C-6.641,5.218,-5.218,6.641,-3.795,6.641L-2.846,6.641C-2.846,6.641,-2.846,7.115,-2.846,7.115L-2.846,16.128C-2.846,17.551,-1.897,18.974,-1.423,18.974L4.743,18.974C5.692,18.974,6.166,17.551,6.166,16.128L6.166,7.589C6.166,7.589,6.166,7.115,6.166,7.115L7.115,7.115C8.538,7.115,9.961,5.692,9.961,4.269L9.961,-5.218C10.91,-6.641,9.487,-8.064,8.064,-8.064Z" fill="rgb(194,81,64)" stroke-width="2" opacity="0.7"/><path aria-label="col: 3; row: -9" role="graphics-symbol" aria-roledescription="point" transform="translate(100,20)" d="M8.064,-8.064L4.269,-8.064C5.692,-9.012,7.115,-10.436,7.115,-12.333C7.115,-15.179,5.218,-17.076,2.372,-17.076C-0.474,-17.076,-2.372,-15.179,-2.372,-12.333C-2.372,-10.436,-1.423,-9.012,0.474,-8.064L-3.32,-8.064C-5.218,-8.064,-6.641,-6.641,-6.641,-5.218L-6.641,3.795C-6.641,5.218,-5.218,6.641,-3.795,6.641L-2.846,6.641C-2.846,6.641,-2.846,7.115,-2.846,7.115L-2.846,16.128C-2.846,17.551,-1.897,18.974,-1.423,18.974L4.743,18.974C5.692,18.974,6.166,17.551,6.166,16.128L6.166,7.589C6.166,7.589,6.166,7.115,6.166,7.115L7.115,7.115C8.538,7.115,9.961,5.692,9.961,4.269L9.961,-5.218C10.91,-6.641,9.487,-8.064,8.064,-8.064Z" fill="rgb(194,81,64)" stroke-width="2" opacity="0.7"/><path aria-label="col: 3; row: -8" role="graphics-symbol" aria-roledescription="point" transform="translate(100,60)" d="M8.064,-8.064L4.269,-8.064C5.692,-9.012,7.115,-10.436,7.115,-12.333C7.115,-15.179,5.218,-17.076,2.372,-17.076C-0.474,-17.076,-2.372,-15.179,-2.372,-12.333C-2.372,-10.436,-1.423,-9.012,0.474,-8.064L-3.32,-8.064C-5.218,-8.064,-6.641,-6.641,-6.641,-5.218L-6.641,3.795C-6.641,5.218,-5.218,6.641,-3.795,6.641L-2.846,6.641C-2.846,6.641,-2.846,7.115,-2.846,7.115L-2.846,16.128C-2.846,17.551,-1.897,18.974,-1.423,18.974L4.743,18.974C5.692,18.974,6.166,17.551,6.166,16.128L6.166,7.589C6.166,7.589,6.166,7.115,6.166,7.115L7.115,7.115C8.538,7.115,9.961,5.692,9.961,4.269L9.961,-5.218C10.91,-6.641,9.487,-8.064,8.064,-8.064Z" fill="rgb(194,81,64)" stroke-width="2" opacity="0.7"/><path aria-label="col: 3; row: -7" role="graphics-symbol" aria-roledescription="point" transform="translate(100,100)" d="M8.064,-8.064L4.269,-8.064C5.692,-9.012,7.115,-10.436,7.115,-12.333C7.115,-15.179,5.218,-17.076,2.372,-17.076C-0.474,-17.076,-2.372,-15.179,-2.372,-12.333C-2.372,-10.436,-1.423,-9.012,0.474,-8.064L-3.32,-8.064C-5.218,-8.064,-6.641,-6.641,-6.641,-5.218L-6.641,3.795C-6.641,5.218,-5.218,6.641,-3.795,6.641L-2.846,6.641C-2.846,6.641,-2.846,7.115,-2.846,7.115L-2.846,16.128C-2.846,17.551,-1.897,18.974,-1.423,18.974L4.743,18.974C5.692,18.974,6.166,17.551,6.166,16.128L6.166,7.589C6.166,7.589,6.166,7.115,6.166,7.115L7.115,7.115C8.538,7.115,9.961,5.692,9.961,4.269L9.961,-5.218C10.91,-6.641,9.487,-8.064,8.064,-8.064Z" fill="rgb(194,81,64)" stroke-width="2" opacity="0.7"/><path aria-label="col: 3; row: -6" role="graphics-symbol" aria-roledescription="point" transform="translate(100,140)" d="M8.064,-8.064L4.269,-8.064C5.692,-9.012,7.115,-10.436,7.115,-12.333C7.115,-15.179,5.218,-17.076,2.372,-17.076C-0.474,-17.076,-2.372,-15.179,-2.372,-12.333C-2.372,-10.436,-1.423,-9.012,0.474,-8.064L-3.32,-8.064C-5.218,-8.064,-6.641,-6.641,-6.641,-5.218L-6.641,3.795C-6.641,5.218,-5.218,6.641,-3.795,6.641L-2.846,6.641C-2.846,6.641,-2.846,7.115,-2.846,7.115L-2.846,16.128C-2.846,17.551,-1.897,18.974,-1.423,18.974L4.743,18.974C5.692,18.974,6.166,17.551,6.166,16.128L6.166,7.589C6.166,7.589,6.166,7.115,6.166,7.115L7.115,7.115C8.538,7.115,9.961,5.692,9.961,4.269L9.961,-5.218C10.91,-6.641,9.487,-8.064,8.064,-8.064Z" fill="rgb(194,81,64)" stroke-width="2" opacity="0.7"/><path aria-label="col: 3; row: -5" role="graphics-symbol" aria-roledescription="point" transform="translate(100,180)" d="M8.064,-8.064L4.269,-8.064C5.692,-9.012,7.115,-10.436,7.115,-12.333C7.115,-15.179,5.218,-17.076,2.372,-17.076C-0.474,-17.076,-2.372,-15.179,-2.372,-12.333C-2.372,-10.436,-1.423,-9.012,0.474,-8.064L-3.32,-8.064C-5.218,-8.064,-6.641,-6.641,-6.641,-5.218L-6.641,3.795C-6.641,5.218,-5.218,6.641,-3.795,6.641L-2.846,6.641C-2.846,6.641,-2.846,7.115,-2.846,7.115L-2.846,16.128C-2.846,17.551,-1.897,18.974,-1.423,18.974L4.743,18.974C5.692,18.974,6.166,17.551,6.166,16.128L6.166,7.589C6.166,7.589,6.166,7.115,6.166,7.115L7.115,7.115C8.538,7.115,9.961,5.692,9.961,4.269L9.961,-5.218C10.91,-6.641,9.487,-8.064,8.064,-8.064Z" fill="rgb(194,81,64)" stroke-width="2" opacity="0.7"/><path aria-label="col: 3; row: -4" role="graphics-symbol" aria-roledescription="point" transform="translate(100,220)" d="M8.064,-8.064L4.269,-8.064C5.692,-9.012,7.115,-10.436,7.115,-12.333C7.115,-15.179,5.218,-17.076,2.372,-17.076C-0.474,-17.076,-2.372,-15.179,-2.372,-12.333C-2.372,-10.436,-1.423,-9.012,0.474,-8.064L-3.32,-8.064C-5.218,-8.064,-6.641,-6.641,-6.641,-5.218L-6.641,3.795C-6.641,5.218,-5.218,6.641,-3.795,6.641L-2.846,6.641C-2.846,6.641,-2.846,7.115,-2.846,7.115L-2.846,16.128C-2.846,17.551,-1.897,18.974,-1.423,18.974L4.743,18.974C5.692,18.974,6.166,17.551,6.166,16.128L6.166,7.589C6.166,7.589,6.166,7.115,6.166,7.115L7.115,7.115C8.538,7.115,9.961,5.692,9.961,4.269L9.961,-5.218C10.91,-6.641,9.487,-8.064,8.064,-8.064Z" fill="rgb(194,81,64)" stroke-width="2" opacity="0.7"/><path aria-label="col: 3; row: -3" role="graphics-symbol" aria-roledescription="point" transform="translate(100,260)" d="M8.064,-8.064L4.269,-8.064C5.692,-9.012,7.115,-10.436,7.115,-12.333C7.115,-15.179,5.218,-17.076,2.372,-17.076C-0.474,-17.076,-2.372,-15.179,-2.372,-12.333C-2.372,-10.436,-1.423,-9.012,0.474,-8.064L-3.32,-8.064C-5.218,-8.064,-6.641,-6.641,-6.641,-5.218L-6.641,3.795C-6.641,5.218,-5.218,6.641,-3.795,6.641L-2.846,6.641C-2.846,6.641,-2.846,7.115,-2.846,7.115L-2.846,16.128C-2.846,17.551,-1.897,18.974,-1.423,18.974L4.743,18.974C5.692,18.974,6.166,17.551,6.166,16.128L6.166,7.589C6.166,7.589,6.166,7.115,6.166,7.115L7.115,7.115C8.538,7.115,9.961,5.692,9.961,4.269L9.961,-5.218C10.91,-6.641,9.487,-8.064,8.064,-8.064Z" fill="rgb(194,81,64)" stroke-width="2" opacity="0.7"/><path aria-label="col: 3; row: -2" role="graphics-symbol" aria-roledescription="point" transform="translate(100,300)" d="M8.064,-8.064L4.269,-8.064C5.692,-9.012,7.115,-10.436,7.115,-12.333C7.115,-15.179,5.218,-17.076,2.372,-17.076C-0.474,-17.076,-2.372,-15.179,-2.372,-12.333C-2.372,-10.436,-1.423,-9.012,0.474,-8.064L-3.32,-8.064C-5.218,-8.064,-6.641,-6.641,-6.641,-5.218L-6.641,3.795C-6.641,5.218,-5.218,6.641,-3.795,6.641L-2.846,6.641C-2.846,6.641,-2.846,7.115,-2.846,7.115L-2.846,16.128C-2.846,17.551,-1.897,18.974,-1.423,18.974L4.743,18.974C5.692,18.974,6.166,17.551,6.166,16.128L6.166,7.589C6.166,7.589,6.166,7.115,6.166,7.115L7.115,7.115C8.538,7.115,9.961,5.692,9.961,4.269L9.961,-5.218C10.91,-6.641,9.487,-8.064,8.064,-8.064Z" fill="rgb(194,81,64)" stroke-width="2" opacity="0.7"/><path aria-label="col: 3; row: -1" role="graphics-symbol" aria-roledescription="point" transform="translate(100,340)" d="M8.064,-8.064L4.269,-8.064C5.692,-9.012,7.115,-10.436,7.115,-12.333C7.115,-15.179,5.218,-17.076,2.372,-17.076C-0.474,-17.076,-2.372,-15.179,-2.372,-12.333C-2.372,-10.436,-1.423,-9.012,0.474,-8.064L-3.32,-8.064C-5.218,-8.064,-6.641,-6.641,-6.641,-5.218L-6.641,3.795C-6.641,5.218,-5.218,6.641,-3.795,6.641L-2.846,6.641C-2.846,6.641,-2.846,7.115,-2.846,7.115L-2.846,16.128C-2.846,17.551,-1.897,18.974,-1.423,18.974L4.743,18.974C5.692,18.974,6.166,17.551,6.166,16.128L6.166,7.589C6.166,7.589,6.166,7.115,6.166,7.115L7.115,7.115C8.538,7.115,9.961,5.692,9.961,4.269L9.961,-5.218C10.91,-6.641,9.487,-8.064,8.064,-8.064Z" fill="rgb(194,81,64)" stroke-width="2" opacity="0.7"/><path aria-label="col: 3; row: 0" role="graphics-symbol" aria-roledescription="point" transform="translate(100,380)" d="M8.064,-8.064L4.269,-8.064C5.692,-9.012,7.115,-10.436,7.115,-12.333C7.115,-15.179,5.218,-17.076,2.372,-17.076C-0.474,-17.076,-2.372,-15.179,-2.372,-12.333C-2.372,-10.436,-1.423,-9.012,0.474,-8.064L-3.32,-8.064C-5.218,-8.064,-6.641,-6.641,-6.641,-5.218L-6.641,3.795C-6.641,5.218,-5.218,6.641,-3.795,6.641L-2.846,6.641C-2.846,6.641,-2.846,7.115,-2.846,7.115L-2.846,16.128C-2.846,17.551,-1.897,18.974,-1.423,18.974L4.743,18.974C5.692,18.974,6.166,17.551,6.166,16.128L6.166,7.589C6.166,7.589,6.166,7.115,6.166,7.115L7.115,7.115C8.538,7.115,9.961,5.692,9.961,4.269L9.961,-5.218C10.91,-6.641,9.487,-8.064,8.064,-8.064Z" fill="rgb(194,81,64)" stroke-width="2" opacity="0.7"/><path aria-label="col: 4; row: -9" role="graphics-symbol" aria-roledescription="point" transform="translate(140,20)" d="M8.064,-8.064L4.269,-8.064C5.692,-9.012,7.115,-10.436,7.115,-12.333C7.115,-15.179,5.218,-17.076,2.372,-17.076C-0.474,-17.076,-2.372,-15.179,-2.372,-12.333C-2.372,-10.436,-1.423,-9.012,0.474,-8.064L-3.32,-8.064C-5.218,-8.064,-6.641,-6.641,-6.641,-5.218L-6.641,3.795C-6.641,5.218,-5.218,6.641,-3.795,6.641L-2.846,6.641C-2.846,6.641,-2.846,7.115,-2.846,7.115L-2.846,16.128C-2.846,17.551,-1.897,18.974,-1.423,18.974L4.743,18.974C5.692,18.974,6.166,17.551,6.166,16.128L6.166,7.589C6.166,7.589,6.166,7.115,6.166,7.115L7.115,7.115C8.538,7.115,9.961,5.692,9.961,4.269L9.961,-5.218C10.91,-6.641,9.487,-8.064,8.064,-8.064Z" fill="rgb(194,81,64)" stroke-width="2" opacity="0.7"/><path aria-label="col: 4; row: -8" role="graphics-symbol" aria-roledescription="point" transform="translate(140,60)" d="M8.064,-8.064L4.269,-8.064C5.692,-9.012,7.115,-10.436,7.115,-12.333C7.115,-15.179,5.218,-17.076,2.372,-17.076C-0.474,-17.076,-2.372,-15.179,-2.372,-12.333C-2.372,-10.436,-1.423,-9.012,0.474,-8.064L-3.32,-8.064C-5.218,-8.064,-6.641,-6.641,-6.641,-5.218L-6.641,3.795C-6.641,5.218,-5.218,6.641,-3.795,6.641L-2.846,6.641C-2.846,6.641,-2.846,7.115,-2.846,7.115L-2.846,16.128C-2.846,17.551,-1.897,18.974,-1.423,18.974L4.743,18.974C5.692,18.974,6.166,17.551,6.166,16.128L6.166,7.589C6.166,7.589,6.166,7.115,6.166,7.115L7.115,7.115C8.538,7.115,9.961,5.692,9.961,4.269L9.961,-5.218C10.91,-6.641,9.487,-8.064,8.064,-8.064Z" fill="rgb(194,81,64)" stroke-width="2" opacity="0.7"/><path aria-label="col: 4; row: -7" role="graphics-symbol" aria-roledescription="point" transform="translate(140,100)" d="M8.064,-8.064L4.269,-8.064C5.692,-9.012,7.115,-10.436,7.115,-12.333C7.115,-15.179,5.218,-17.076,2.372,-17.076C-0.474,-17.076,-2.372,-15.179,-2.372,-12.333C-2.372,-10.436,-1.423,-9.012,0.474,-8.064L-3.32,-8.064C-5.218,-8.064,-6.641,-6.641,-6.641,-5.218L-6.641,3.795C-6.641,5.218,-5.218,6.641,-3.795,6.641L-2.846,6.641C-2.846,6.641,-2.846,7.115,-2.846,7.115L-2.846,16.128C-2.846,17.551,-1.897,18.974,-1.423,18.974L4.743,18.974C5.692,18.974,6.166,17.551,6.166,16.128L6.166,7.589C6.166,7.589,6.166,7.115,6.166,7.115L7.115,7.115C8.538,7.115,9.961,5.692,9.961,4.269L9.961,-5.218C10.91,-6.641,9.487,-8.064,8.064,-8.064Z" fill="rgb(194,81,64)" stroke-width="2" opacity="0.7"/><path aria-label="col: 4; row: -6" role="graphics-symbol" aria-roledescription="point" transform="translate(140,140)" d="M8.064,-8.064L4.269,-8.064C5.692,-9.012,7.115,-10.436,7.115,-12.333C7.115,-15.179,5.218,-17.076,2.372,-17.076C-0.474,-17.076,-2.372,-15.179,-2.372,-12.333C-2.372,-10.436,-1.423,-9.012,0.474,-8.064L-3.32,-8.064C-5.218,-8.064,-6.641,-6.641,-6.641,-5.218L-6.641,3.795C-6.641,5.218,-5.218,6.641,-3.795,6.641L-2.846,6.641C-2.846,6.641,-2.846,7.115,-2.846,7.115L-2.846,16.128C-2.846,17.551,-1.897,18.974,-1.423,18.974L4.743,18.974C5.692,18.974,6.166,17.551,6.166,16.128L6.166,7.589C6.166,7.589,6.166,7.115,6.166,7.115L7.115,7.115C8.538,7.115,9.961,5.692,9.961,4.269L9.961,-5.218C10.91,-6.641,9.487,-8.064,8.064,-8.064Z" fill="rgb(194,81,64)" stroke-width="2" opacity="0.7"/><path aria-label="col: 4; row: -5" role="graphics-symbol" aria-roledescription="point" transform="translate(140,180)" d="M8.064,-8.064L4.269,-8.064C5.692,-9.012,7.115,-10.436,7.115,-12.333C7.115,-15.179,5.218,-17.076,2.372,-17.076C-0.474,-17.076,-2.372,-15.179,-2.372,-12.333C-2.372,-10.436,-1.423,-9.012,0.474,-8.064L-3.32,-8.064C-5.218,-8.064,-6.641,-6.641,-6.641,-5.218L-6.641,3.795C-6.641,5.218,-5.218,6.641,-3.795,6.641L-2.846,6.641C-2.846,6.641,-2.846,7.115,-2.846,7.115L-2.846,16.128C-2.846,17.551,-1.897,18.974,-1.423,18.974L4.743,18.974C5.692,18.974,6.166,17.551,6.166,16.128L6.166,7.589C6.166,7.589,6.166,7.115,6.166,7.115L7.115,7.115C8.538,7.115,9.961,5.692,9.961,4.269L9.961,-5.218C10.91,-6.641,9.487,-8.064,8.064,-8.064Z" fill="rgb(194,81,64)" stroke-width="2" opacity="0.7"/><path aria-label="col: 4; row: -4" role="graphics-symbol" aria-roledescription="point" transform="translate(140,220)" d="M8.064,-8.064L4.269,-8.064C5.692,-9.012,7.115,-10.436,7.115,-12.333C7.115,-15.179,5.218,-17.076,2.372,-17.076C-0.474,-17.076,-2.372,-15.179,-2.372,-12.333C-2.372,-10.436,-1.423,-9.012,0.474,-8.064L-3.32,-8.064C-5.218,-8.064,-6.641,-6.641,-6.641,-5.218L-6.641,3.795C-6.641,5.218,-5.218,6.641,-3.795,6.641L-2.846,6.641C-2.846,6.641,-2.846,7.115,-2.846,7.115L-2.846,16.128C-2.846,17.551,-1.897,18.974,-1.423,18.974L4.743,18.974C5.692,18.974,6.166,17.551,6.166,16.128L6.166,7.589C6.166,7.589,6.166,7.115,6.166,7.115L7.115,7.115C8.538,7.115,9.961,5.692,9.961,4.269L9.961,-5.218C10.91,-6.641,9.487,-8.064,8.064,-8.064Z" fill="rgb(194,81,64)" stroke-width="2" opacity="0.7"/><path aria-label="col: 4; row: -3" role="graphics-symbol" aria-roledescription="point" transform="translate(140,260)" d="M8.064,-8.064L4.269,-8.064C5.692,-9.012,7.115,-10.436,7.115,-12.333C7.115,-15.179,5.218,-17.076,2.372,-17.076C-0.474,-17.076,-2.372,-15.179,-2.372,-12.333C-2.372,-10.436,-1.423,-9.012,0.474,-8.064L-3.32,-8.064C-5.218,-8.064,-6.641,-6.641,-6.641,-5.218L-6.641,3.795C-6.641,5.218,-5.218,6.641,-3.795,6.641L-2.846,6.641C-2.846,6.641,-2.846,7.115,-2.846,7.115L-2.846,16.128C-2.846,17.551,-1.897,18.974,-1.423,18.974L4.743,18.974C5.692,18.974,6.166,17.551,6.166,16.128L6.166,7.589C6.166,7.589,6.166,7.115,6.166,7.115L7.115,7.115C8.538,7.115,9.961,5.692,9.961,4.269L9.961,-5.218C10.91,-6.641,9.487,-8.064,8.064,-8.064Z" fill="rgb(194,81,64)" stroke-width="2" opacity="0.7"/><path aria-label="col: 4; row: -2" role="graphics-symbol" aria-roledescription="point" transform="translate(140,300)" d="M8.064,-8.064L4.269,-8.064C5.692,-9.012,7.115,-10.436,7.115,-12.333C7.115,-15.179,5.218,-17.076,2.372,-17.076C-0.474,-17.076,-2.372,-15.179,-2.372,-12.333C-2.372,-10.436,-1.423,-9.012,0.474,-8.064L-3.32,-8.064C-5.218,-8.064,-6.641,-6.641,-6.641,-5.218L-6.641,3.795C-6.641,5.218,-5.218,6.641,-3.795,6.641L-2.846,6.641C-2.846,6.641,-2.846,7.115,-2.846,7.115L-2.846,16.128C-2.846,17.551,-1.897,18.974,-1.423,18.974L4.743,18.974C5.692,18.974,6.166,17.551,6.166,16.128L6.166,7.589C6.166,7.589,6.166,7.115,6.166,7.115L7.115,7.115C8.538,7.115,9.961,5.692,9.961,4.269L9.961,-5.218C10.91,-6.641,9.487,-8.064,8.064,-8.064Z" fill="rgb(194,81,64)" stroke-width="2" opacity="0.7"/><path aria-label="col: 4; row: -1" role="graphics-symbol" aria-roledescription="point" transform="translate(140,340)" d="M8.064,-8.064L4.269,-8.064C5.692,-9.012,7.115,-10.436,7.115,-12.333C7.115,-15.179,5.218,-17.076,2.372,-17.076C-0.474,-17.076,-2.372,-15.179,-2.372,-12.333C-2.372,-10.436,-1.423,-9.012,0.474,-8.064L-3.32,-8.064C-5.218,-8.064,-6.641,-6.641,-6.641,-5.218L-6.641,3.795C-6.641,5.218,-5.218,6.641,-3.795,6.641L-2.846,6.641C-2.846,6.641,-2.846,7.115,-2.846,7.115L-2.846,16.128C-2.846,17.551,-1.897,18.974,-1.423,18.974L4.743,18.974C5.692,18.974,6.166,17.551,6.166,16.128L6.166,7.589C6.166,7.589,6.166,7.115,6.166,7.115L7.115,7.115C8.538,7.115,9.961,5.692,9.961,4.269L9.961,-5.218C10.91,-6.641,9.487,-8.064,8.064,-8.064Z" fill="rgb(194,81,64)" stroke-width="2" opacity="0.7"/><path aria-label="col: 4; row: 0" role="graphics-symbol" aria-roledescription="point" transform="translate(140,380)" d="M8.064,-8.064L4.269,-8.064C5.692,-9.012,7.115,-10.436,7.115,-12.333C7.115,-15.179,5.218,-17.076,2.372,-17.076C-0.474,-17.076,-2.372,-15.179,-2.372,-12.333C-2.372,-10.436,-1.423,-9.012,0.474,-8.064L-3.32,-8.064C-5.218,-8.064,-6.641,-6.641,-6.641,-5.218L-6.641,3.795C-6.641,5.218,-5.218,6.641,-3.795,6.641L-2.846,6.641C-2.846,6.641,-2.846,7.115,-2.846,7.115L-2.846,16.128C-2.846,17.551,-1.897,18.974,-1.423,18.974L4.743,18.974C5.692,18.974,6.166,17.551,6.166,16.128L6.166,7.589C6.166,7.589,6.166,7.115,6.166,7.115L7.115,7.115C8.538,7.115,9.961,5.692,9.961,4.269L9.961,-5.218C10.91,-6.641,9.487,-8.064,8.064,-8.064Z" fill="rgb(194,81,64)" stroke-width="2" opacity="0.7"/><path aria-label="col: 5; row: -9" role="graphics-symbol" aria-roledescription="point" transform="translate(180,20)" d="M8.064,-8.064L4.269,-8.064C5.692,-9.012,7.115,-10.436,7.115,-12.333C7.115,-15.179,5.218,-17.076,2.372,-17.076C-0.474,-17.076,-2.372,-15.179,-2.372,-12.333C-2.372,-10.436,-1.423,-9.012,0.474,-8.064L-3.32,-8.064C-5.218,-8.064,-6.641,-6.641,-6.641,-5.218L-6.641,3.795C-6.641,5.218,-5.218,6.641,-3.795,6.641L-2.846,6.641C-2.846,6.641,-2.846,7.115,-2.846,7.115L-2.846,16.128C-2.846,17.551,-1.897,18.974,-1.423,18.974L4.743,18.974C5.692,18.974,6.166,17.551,6.166,16.128L6.166,7.589C6.166,7.589,6.166,7.115,6.166,7.115L7.115,7.115C8.538,7.115,9.961,5.692,9.961,4.269L9.961,-5.218C10.91,-6.641,9.487,-8.064,8.064,-8.064Z" fill="rgb(194,81,64)" stroke-width="2" opacity="0.7"/><path aria-label="col: 5; row: -8" role="graphics-symbol" aria-roledescription="point" transform="translate(180,60)" d="M8.064,-8.064L4.269,-8.064C5.692,-9.012,7.115,-10.436,7.115,-12.333C7.115,-15.179,5.218,-17.076,2.372,-17.076C-0.474,-17.076,-2.372,-15.179,-2.372,-12.333C-2.372,-10.436,-1.423,-9.012,0.474,-8.064L-3.32,-8.064C-5.218,-8.064,-6.641,-6.641,-6.641,-5.218L-6.641,3.795C-6.641,5.218,-5.218,6.641,-3.795,6.641L-2.846,6.641C-2.846,6.641,-2.846,7.115,-2.846,7.115L-2.846,16.128C-2.846,17.551,-1.897,18.974,-1.423,18.974L4.743,18.974C5.692,18.974,6.166,17.551,6.166,16.128L6.166,7.589C6.166,7.589,6.166,7.115,6.166,7.115L7.115,7.115C8.538,7.115,9.961,5.692,9.961,4.269L9.961,-5.218C10.91,-6.641,9.487,-8.064,8.064,-8.064Z" fill="rgb(194,81,64)" stroke-width="2" opacity="0.7"/><path aria-label="col: 5; row: -7" role="graphics-symbol" aria-roledescription="point" transform="translate(180,100)" d="M8.064,-8.064L4.269,-8.064C5.692,-9.012,7.115,-10.436,7.115,-12.333C7.115,-15.179,5.218,-17.076,2.372,-17.076C-0.474,-17.076,-2.372,-15.179,-2.372,-12.333C-2.372,-10.436,-1.423,-9.012,0.474,-8.064L-3.32,-8.064C-5.218,-8.064,-6.641,-6.641,-6.641,-5.218L-6.641,3.795C-6.641,5.218,-5.218,6.641,-3.795,6.641L-2.846,6.641C-2.846,6.641,-2.846,7.115,-2.846,7.115L-2.846,16.128C-2.846,17.551,-1.897,18.974,-1.423,18.974L4.743,18.974C5.692,18.974,6.166,17.551,6.166,16.128L6.166,7.589C6.166,7.589,6.166,7.115,6.166,7.115L7.115,7.115C8.538,7.115,9.961,5.692,9.961,4.269L9.961,-5.218C10.91,-6.641,9.487,-8.064,8.064,-8.064Z" fill="rgb(194,81,64)" stroke-width="2" opacity="0.7"/><path aria-label="col: 5; row: -6" role="graphics-symbol" aria-roledescription="point" transform="translate(180,140)" d="M8.064,-8.064L4.269,-8.064C5.692,-9.012,7.115,-10.436,7.115,-12.333C7.115,-15.179,5.218,-17.076,2.372,-17.076C-0.474,-17.076,-2.372,-15.179,-2.372,-12.333C-2.372,-10.436,-1.423,-9.012,0.474,-8.064L-3.32,-8.064C-5.218,-8.064,-6.641,-6.641,-6.641,-5.218L-6.641,3.795C-6.641,5.218,-5.218,6.641,-3.795,6.641L-2.846,6.641C-2.846,6.641,-2.846,7.115,-2.846,7.115L-2.846,16.128C-2.846,17.551,-1.897,18.974,-1.423,18.974L4.743,18.974C5.692,18.974,6.166,17.551,6.166,16.128L6.166,7.589C6.166,7.589,6.166,7.115,6.166,7.115L7.115,7.115C8.538,7.115,9.961,5.692,9.961,4.269L9.961,-5.218C10.91,-6.641,9.487,-8.064,8.064,-8.064Z" fill="rgb(194,81,64)" stroke-width="2" opacity="0.7"/><path aria-label="col: 5; row: -5" role="graphics-symbol" aria-roledescription="point" transform="translate(180,180)" d="M8.064,-8.064L4.269,-8.064C5.692,-9.012,7.115,-10.436,7.115,-12.333C7.115,-15.179,5.218,-17.076,2.372,-17.076C-0.474,-17.076,-2.372,-15.179,-2.372,-12.333C-2.372,-10.436,-1.423,-9.012,0.474,-8.064L-3.32,-8.064C-5.218,-8.064,-6.641,-6.641,-6.641,-5.218L-6.641,3.795C-6.641,5.218,-5.218,6.641,-3.795,6.641L-2.846,6.641C-2.846,6.641,-2.846,7.115,-2.846,7.115L-2.846,16.128C-2.846,17.551,-1.897,18.974,-1.423,18.974L4.743,18.974C5.692,18.974,6.166,17.551,6.166,16.128L6.166,7.589C6.166,7.589,6.166,7.115,6.166,7.115L7.115,7.115C8.538,7.115,9.961,5.692,9.961,4.269L9.961,-5.218C10.91,-6.641,9.487,-8.064,8.064,-8.064Z" fill="rgb(194,81,64)" stroke-width="2" opacity="0.7"/><path aria-label="col: 5; row: -4" role="graphics-symbol" aria-roledescription="point" transform="translate(180,220)" d="M8.064,-8.064L4.269,-8.064C5.692,-9.012,7.115,-10.436,7.115,-12.333C7.115,-15.179,5.218,-17.076,2.372,-17.076C-0.474,-17.076,-2.372,-15.179,-2.372,-12.333C-2.372,-10.436,-1.423,-9.012,0.474,-8.064L-3.32,-8.064C-5.218,-8.064,-6.641,-6.641,-6.641,-5.218L-6.641,3.795C-6.641,5.218,-5.218,6.641,-3.795,6.641L-2.846,6.641C-2.846,6.641,-2.846,7.115,-2.846,7.115L-2.846,16.128C-2.846,17.551,-1.897,18.974,-1.423,18.974L4.743,18.974C5.692,18.974,6.166,17.551,6.166,16.128L6.166,7.589C6.166,7.589,6.166,7.115,6.166,7.115L7.115,7.115C8.538,7.115,9.961,5.692,9.961,4.269L9.961,-5.218C10.91,-6.641,9.487,-8.064,8.064,-8.064Z" fill="rgb(194,81,64)" stroke-width="2" opacity="0.7"/><path aria-label="col: 5; row: -3" role="graphics-symbol" aria-roledescription="point" transform="translate(180,260)" d="M8.064,-8.064L4.269,-8.064C5.692,-9.012,7.115,-10.436,7.115,-12.333C7.115,-15.179,5.218,-17.076,2.372,-17.076C-0.474,-17.076,-2.372,-15.179,-2.372,-12.333C-2.372,-10.436,-1.423,-9.012,0.474,-8.064L-3.32,-8.064C-5.218,-8.064,-6.641,-6.641,-6.641,-5.218L-6.641,3.795C-6.641,5.218,-5.218,6.641,-3.795,6.641L-2.846,6.641C-2.846,6.641,-2.846,7.115,-2.846,7.115L-2.846,16.128C-2.846,17.551,-1.897,18.974,-1.423,18.974L4.743,18.974C5.692,18.974,6.166,17.551,6.166,16.128L6.166,7.589C6.166,7.589,6.166,7.115,6.166,7.115L7.115,7.115C8.538,7.115,9.961,5.692,9.961,4.269L9.961,-5.218C10.91,-6.641,9.487,-8.064,8.064,-8.064Z" fill="rgb(194,81,64)" stroke-width="2" opacity="0.7"/><path aria-label="col: 5; row: -2" role="graphics-symbol" aria-roledescription="point" transform="translate(180,300)" d="M8.064,-8.064L4.269,-8.064C5.692,-9.012,7.115,-10.436,7.115,-12.333C7.115,-15.179,5.218,-17.076,2.372,-17.076C-0.474,-17.076,-2.372,-15.179,-2.372,-12.333C-2.372,-10.436,-1.423,-9.012,0.474,-8.064L-3.32,-8.064C-5.218,-8.064,-6.641,-6.641,-6.641,-5.218L-6.641,3.795C-6.641,5.218,-5.218,6.641,-3.795,6.641L-2.846,6.641C-2.846,6.641,-2.846,7.115,-2.846,7.115L-2.846,16.128C-2.846,17.551,-1.897,18.974,-1.423,18.974L4.743,18.974C5.692,18.974,6.166,17.551,6.166,16.128L6.166,7.589C6.166,7.589,6.166,7.115,6.166,7.115L7.115,7.115C8.538,7.115,9.961,5.692,9.961,4.269L9.961,-5.218C10.91,-6.641,9.487,-8.064,8.064,-8.064Z" fill="rgb(194,81,64)" stroke-width="2" opacity="0.7"/><path aria-label="col: 5; row: -1" role="graphics-symbol" aria-roledescription="point" transform="translate(180,340)" d="M8.064,-8.064L4.269,-8.064C5.692,-9.012,7.115,-10.436,7.115,-12.333C7.115,-15.179,5.218,-17.076,2.372,-17.076C-0.474,-17.076,-2.372,-15.179,-2.372,-12.333C-2.372,-10.436,-1.423,-9.012,0.474,-8.064L-3.32,-8.064C-5.218,-8.064,-6.641,-6.641,-6.641,-5.218L-6.641,3.795C-6.641,5.218,-5.218,6.641,-3.795,6.641L-2.846,6.641C-2.846,6.641,-2.846,7.115,-2.846,7.115L-2.846,16.128C-2.846,17.551,-1.897,18.974,-1.423,18.974L4.743,18.974C5.692,18.974,6.166,17.551,6.166,16.128L6.166,7.589C6.166,7.589,6.166,7.115,6.166,7.115L7.115,7.115C8.538,7.115,9.961,5.692,9.961,4.269L9.961,-5.218C10.91,-6.641,9.487,-8.064,8.064,-8.064Z" fill="rgb(194,81,64)" stroke-width="2" opacity="0.7"/><path aria-label="col: 5; row: 0" role="graphics-symbol" aria-roledescription="point" transform="translate(180,380)" d="M8.064,-8.064L4.269,-8.064C5.692,-9.012,7.115,-10.436,7.115,-12.333C7.115,-15.179,5.218,-17.076,2.372,-17.076C-0.474,-17.076,-2.372,-15.179,-2.372,-12.333C-2.372,-10.436,-1.423,-9.012,0.474,-8.064L-3.32,-8.064C-5.218,-8.064,-6.641,-6.641,-6.641,-5.218L-6.641,3.795C-6.641,5.218,-5.218,6.641,-3.795,6.641L-2.846,6.641C-2.846,6.641,-2.846,7.115,-2.846,7.115L-2.846,16.128C-2.846,17.551,-1.897,18.974,-1.423,18.974L4.743,18.974C5.692,18.974,6.166,17.551,6.166,16.128L6.166,7.589C6.166,7.589,6.166,7.115,6.166,7.115L7.115,7.115C8.538,7.115,9.961,5.692,9.961,4.269L9.961,-5.218C10.91,-6.641,9.487,-8.064,8.064,-8.064Z" fill="rgb(194,81,64)" stroke-width="2" opacity="0.7"/><path aria-label="col: 6; row: -9" role="graphics-symbol" aria-roledescription="point" transform="translate(220,20)" d="M8.064,-8.064L4.269,-8.064C5.692,-9.012,7.115,-10.436,7.115,-12.333C7.115,-15.179,5.218,-17.076,2.372,-17.076C-0.474,-17.076,-2.372,-15.179,-2.372,-12.333C-2.372,-10.436,-1.423,-9.012,0.474,-8.064L-3.32,-8.064C-5.218,-8.064,-6.641,-6.641,-6.641,-5.218L-6.641,3.795C-6.641,5.218,-5.218,6.641,-3.795,6.641L-2.846,6.641C-2.846,6.641,-2.846,7.115,-2.846,7.115L-2.846,16.128C-2.846,17.551,-1.897,18.974,-1.423,18.974L4.743,18.974C5.692,18.974,6.166,17.551,6.166,16.128L6.166,7.589C6.166,7.589,6.166,7.115,6.166,7.115L7.115,7.115C8.538,7.115,9.961,5.692,9.961,4.269L9.961,-5.218C10.91,-6.641,9.487,-8.064,8.064,-8.064Z" fill="rgb(194,81,64)" stroke-width="2" opacity="0.7"/><path aria-label="col: 6; row: -8" role="graphics-symbol" aria-roledescription="point" transform="translate(220,60)" d="M8.064,-8.064L4.269,-8.064C5.692,-9.012,7.115,-10.436,7.115,-12.333C7.115,-15.179,5.218,-17.076,2.372,-17.076C-0.474,-17.076,-2.372,-15.179,-2.372,-12.333C-2.372,-10.436,-1.423,-9.012,0.474,-8.064L-3.32,-8.064C-5.218,-8.064,-6.641,-6.641,-6.641,-5.218L-6.641,3.795C-6.641,5.218,-5.218,6.641,-3.795,6.641L-2.846,6.641C-2.846,6.641,-2.846,7.115,-2.846,7.115L-2.846,16.128C-2.846,17.551,-1.897,18.974,-1.423,18.974L4.743,18.974C5.692,18.974,6.166,17.551,6.166,16.128L6.166,7.589C6.166,7.589,6.166,7.115,6.166,7.115L7.115,7.115C8.538,7.115,9.961,5.692,9.961,4.269L9.961,-5.218C10.91,-6.641,9.487,-8.064,8.064,-8.064Z" fill="rgb(194,81,64)" stroke-width="2" opacity="0.7"/><path aria-label="col: 6; row: -7" role="graphics-symbol" aria-roledescription="point" transform="translate(220,100)" d="M8.064,-8.064L4.269,-8.064C5.692,-9.012,7.115,-10.436,7.115,-12.333C7.115,-15.179,5.218,-17.076,2.372,-17.076C-0.474,-17.076,-2.372,-15.179,-2.372,-12.333C-2.372,-10.436,-1.423,-9.012,0.474,-8.064L-3.32,-8.064C-5.218,-8.064,-6.641,-6.641,-6.641,-5.218L-6.641,3.795C-6.641,5.218,-5.218,6.641,-3.795,6.641L-2.846,6.641C-2.846,6.641,-2.846,7.115,-2.846,7.115L-2.846,16.128C-2.846,17.551,-1.897,18.974,-1.423,18.974L4.743,18.974C5.692,18.974,6.166,17.551,6.166,16.128L6.166,7.589C6.166,7.589,6.166,7.115,6.166,7.115L7.115,7.115C8.538,7.115,9.961,5.692,9.961,4.269L9.961,-5.218C10.91,-6.641,9.487,-8.064,8.064,-8.064Z" fill="rgb(194,81,64)" stroke-width="2" opacity="0.7"/><path aria-label="col: 6; row: -6" role="graphics-symbol" aria-roledescription="point" transform="translate(220,140)" d="M8.064,-8.064L4.269,-8.064C5.692,-9.012,7.115,-10.436,7.115,-12.333C7.115,-15.179,5.218,-17.076,2.372,-17.076C-0.474,-17.076,-2.372,-15.179,-2.372,-12.333C-2.372,-10.436,-1.423,-9.012,0.474,-8.064L-3.32,-8.064C-5.218,-8.064,-6.641,-6.641,-6.641,-5.218L-6.641,3.795C-6.641,5.218,-5.218,6.641,-3.795,6.641L-2.846,6.641C-2.846,6.641,-2.846,7.115,-2.846,7.115L-2.846,16.128C-2.846,17.551,-1.897,18.974,-1.423,18.974L4.743,18.974C5.692,18.974,6.166,17.551,6.166,16.128L6.166,7.589C6.166,7.589,6.166,7.115,6.166,7.115L7.115,7.115C8.538,7.115,9.961,5.692,9.961,4.269L9.961,-5.218C10.91,-6.641,9.487,-8.064,8.064,-8.064Z" fill="rgb(194,81,64)" stroke-width="2" opacity="0.7"/><path aria-label="col: 6; row: -5" role="graphics-symbol" aria-roledescription="point" transform="translate(220,180)" d="M8.064,-8.064L4.269,-8.064C5.692,-9.012,7.115,-10.436,7.115,-12.333C7.115,-15.179,5.218,-17.076,2.372,-17.076C-0.474,-17.076,-2.372,-15.179,-2.372,-12.333C-2.372,-10.436,-1.423,-9.012,0.474,-8.064L-3.32,-8.064C-5.218,-8.064,-6.641,-6.641,-6.641,-5.218L-6.641,3.795C-6.641,5.218,-5.218,6.641,-3.795,6.641L-2.846,6.641C-2.846,6.641,-2.846,7.115,-2.846,7.115L-2.846,16.128C-2.846,17.551,-1.897,18.974,-1.423,18.974L4.743,18.974C5.692,18.974,6.166,17.551,6.166,16.128L6.166,7.589C6.166,7.589,6.166,7.115,6.166,7.115L7.115,7.115C8.538,7.115,9.961,5.692,9.961,4.269L9.961,-5.218C10.91,-6.641,9.487,-8.064,8.064,-8.064Z" fill="rgb(194,81,64)" stroke-width="2" opacity="0.7"/><path aria-label="col: 6; row: -4" role="graphics-symbol" aria-roledescription="point" transform="translate(220,220)" d="M8.064,-8.064L4.269,-8.064C5.692,-9.012,7.115,-10.436,7.115,-12.333C7.115,-15.179,5.218,-17.076,2.372,-17.076C-0.474,-17.076,-2.372,-15.179,-2.372,-12.333C-2.372,-10.436,-1.423,-9.012,0.474,-8.064L-3.32,-8.064C-5.218,-8.064,-6.641,-6.641,-6.641,-5.218L-6.641,3.795C-6.641,5.218,-5.218,6.641,-3.795,6.641L-2.846,6.641C-2.846,6.641,-2.846,7.115,-2.846,7.115L-2.846,16.128C-2.846,17.551,-1.897,18.974,-1.423,18.974L4.743,18.974C5.692,18.974,6.166,17.551,6.166,16.128L6.166,7.589C6.166,7.589,6.166,7.115,6.166,7.115L7.115,7.115C8.538,7.115,9.961,5.692,9.961,4.269L9.961,-5.218C10.91,-6.641,9.487,-8.064,8.064,-8.064Z" fill="rgb(194,81,64)" stroke-width="2" opacity="0.7"/><path aria-label="col: 6; row: -3" role="graphics-symbol" aria-roledescription="point" transform="translate(220,260)" d="M8.064,-8.064L4.269,-8.064C5.692,-9.012,7.115,-10.436,7.115,-12.333C7.115,-15.179,5.218,-17.076,2.372,-17.076C-0.474,-17.076,-2.372,-15.179,-2.372,-12.333C-2.372,-10.436,-1.423,-9.012,0.474,-8.064L-3.32,-8.064C-5.218,-8.064,-6.641,-6.641,-6.641,-5.218L-6.641,3.795C-6.641,5.218,-5.218,6.641,-3.795,6.641L-2.846,6.641C-2.846,6.641,-2.846,7.115,-2.846,7.115L-2.846,16.128C-2.846,17.551,-1.897,18.974,-1.423,18.974L4.743,18.974C5.692,18.974,6.166,17.551,6.166,16.128L6.166,7.589C6.166,7.589,6.166,7.115,6.166,7.115L7.115,7.115C8.538,7.115,9.961,5.692,9.961,4.269L9.961,-5.218C10.91,-6.641,9.487,-8.064,8.064,-8.064Z" fill="rgb(194,81,64)" stroke-width="2" opacity="0.7"/><path aria-label="col: 6; row: -2" role="graphics-symbol" aria-roledescription="point" transform="translate(220,300)" d="M8.064,-8.064L4.269,-8.064C5.692,-9.012,7.115,-10.436,7.115,-12.333C7.115,-15.179,5.218,-17.076,2.372,-17.076C-0.474,-17.076,-2.372,-15.179,-2.372,-12.333C-2.372,-10.436,-1.423,-9.012,0.474,-8.064L-3.32,-8.064C-5.218,-8.064,-6.641,-6.641,-6.641,-5.218L-6.641,3.795C-6.641,5.218,-5.218,6.641,-3.795,6.641L-2.846,6.641C-2.846,6.641,-2.846,7.115,-2.846,7.115L-2.846,16.128C-2.846,17.551,-1.897,18.974,-1.423,18.974L4.743,18.974C5.692,18.974,6.166,17.551,6.166,16.128L6.166,7.589C6.166,7.589,6.166,7.115,6.166,7.115L7.115,7.115C8.538,7.115,9.961,5.692,9.961,4.269L9.961,-5.218C10.91,-6.641,9.487,-8.064,8.064,-8.064Z" fill="rgb(194,81,64)" stroke-width="2" opacity="0.7"/><path aria-label="col: 6; row: -1" role="graphics-symbol" aria-roledescription="point" transform="translate(220,340)" d="M8.064,-8.064L4.269,-8.064C5.692,-9.012,7.115,-10.436,7.115,-12.333C7.115,-15.179,5.218,-17.076,2.372,-17.076C-0.474,-17.076,-2.372,-15.179,-2.372,-12.333C-2.372,-10.436,-1.423,-9.012,0.474,-8.064L-3.32,-8.064C-5.218,-8.064,-6.641,-6.641,-6.641,-5.218L-6.641,3.795C-6.641,5.218,-5.218,6.641,-3.795,6.641L-2.846,6.641C-2.846,6.641,-2.846,7.115,-2.846,7.115L-2.846,16.128C-2.846,17.551,-1.897,18.974,-1.423,18.974L4.743,18.974C5.692,18.974,6.166,17.551,6.166,16.128L6.166,7.589C6.166,7.589,6.166,7.115,6.166,7.115L7.115,7.115C8.538,7.115,9.961,5.692,9.961,4.269L9.961,-5.218C10.91,-6.641,9.487,-8.064,8.064,-8.064Z" fill="rgb(194,81,64)" stroke-width="2" opacity="0.7"/><path aria-label="col: 6; row: 0" role="graphics-symbol" aria-roledescription="point" transform="translate(220,380)" d="M8.064,-8.064L4.269,-8.064C5.692,-9.012,7.115,-10.436,7.115,-12.333C7.115,-15.179,5.218,-17.076,2.372,-17.076C-0.474,-17.076,-2.372,-15.179,-2.372,-12.333C-2.372,-10.436,-1.423,-9.012,0.474,-8.064L-3.32,-8.064C-5.218,-8.064,-6.641,-6.641,-6.641,-5.218L-6.641,3.795C-6.641,5.218,-5.218,6.641,-3.795,6.641L-2.846,6.641C-2.846,6.641,-2.846,7.115,-2.846,7.115L-2.846,16.128C-2.846,17.551,-1.897,18.974,-1.423,18.974L4.743,18.974C5.692,18.974,6.166,17.551,6.166,16.128L6.166,7.589C6.166,7.589,6.166,7.115,6.166,7.115L7.115,7.115C8.538,7.115,9.961,5.692,9.961,4.269L9.961,-5.218C10.91,-6.641,9.487,-8.064,8.064,-8.064Z" fill="rgb(194,81,64)" stroke-width="2" opacity="0.7"/><path aria-label="col: 7; row: -9" role="graphics-symbol" aria-roledescription="point" transform="translate(260,20)" d="M8.064,-8.064L4.269,-8.064C5.692,-9.012,7.115,-10.436,7.115,-12.333C7.115,-15.179,5.218,-17.076,2.372,-17.076C-0.474,-17.076,-2.372,-15.179,-2.372,-12.333C-2.372,-10.436,-1.423,-9.012,0.474,-8.064L-3.32,-8.064C-5.218,-8.064,-6.641,-6.641,-6.641,-5.218L-6.641,3.795C-6.641,5.218,-5.218,6.641,-3.795,6.641L-2.846,6.641C-2.846,6.641,-2.846,7.115,-2.846,7.115L-2.846,16.128C-2.846,17.551,-1.897,18.974,-1.423,18.974L4.743,18.974C5.692,18.974,6.166,17.551,6.166,16.128L6.166,7.589C6.166,7.589,6.166,7.115,6.166,7.115L7.115,7.115C8.538,7.115,9.961,5.692,9.961,4.269L9.961,-5.218C10.91,-6.641,9.487,-8.064,8.064,-8.064Z" fill="rgb(194,81,64)" stroke-width="2" opacity="0.7"/><path aria-label="col: 7; row: -8" role="graphics-symbol" aria-roledescription="point" transform="translate(260,60)" d="M8.064,-8.064L4.269,-8.064C5.692,-9.012,7.115,-10.436,7.115,-12.333C7.115,-15.179,5.218,-17.076,2.372,-17.076C-0.474,-17.076,-2.372,-15.179,-2.372,-12.333C-2.372,-10.436,-1.423,-9.012,0.474,-8.064L-3.32,-8.064C-5.218,-8.064,-6.641,-6.641,-6.641,-5.218L-6.641,3.795C-6.641,5.218,-5.218,6.641,-3.795,6.641L-2.846,6.641C-2.846,6.641,-2.846,7.115,-2.846,7.115L-2.846,16.128C-2.846,17.551,-1.897,18.974,-1.423,18.974L4.743,18.974C5.692,18.974,6.166,17.551,6.166,16.128L6.166,7.589C6.166,7.589,6.166,7.115,6.166,7.115L7.115,7.115C8.538,7.115,9.961,5.692,9.961,4.269L9.961,-5.218C10.91,-6.641,9.487,-8.064,8.064,-8.064Z" fill="rgb(194,81,64)" stroke-width="2" opacity="0.7"/><path aria-label="col: 7; row: -7" role="graphics-symbol" aria-roledescription="point" transform="translate(260,100)" d="M8.064,-8.064L4.269,-8.064C5.692,-9.012,7.115,-10.436,7.115,-12.333C7.115,-15.179,5.218,-17.076,2.372,-17.076C-0.474,-17.076,-2.372,-15.179,-2.372,-12.333C-2.372,-10.436,-1.423,-9.012,0.474,-8.064L-3.32,-8.064C-5.218,-8.064,-6.641,-6.641,-6.641,-5.218L-6.641,3.795C-6.641,5.218,-5.218,6.641,-3.795,6.641L-2.846,6.641C-2.846,6.641,-2.846,7.115,-2.846,7.115L-2.846,16.128C-2.846,17.551,-1.897,18.974,-1.423,18.974L4.743,18.974C5.692,18.974,6.166,17.551,6.166,16.128L6.166,7.589C6.166,7.589,6.166,7.115,6.166,7.115L7.115,7.115C8.538,7.115,9.961,5.692,9.961,4.269L9.961,-5.218C10.91,-6.641,9.487,-8.064,8.064,-8.064Z" fill="rgb(194,81,64)" stroke-width="2" opacity="0.7"/><path aria-label="col: 7; row: -6" role="graphics-symbol" aria-roledescription="point" transform="translate(260,140)" d="M8.064,-8.064L4.269,-8.064C5.692,-9.012,7.115,-10.436,7.115,-12.333C7.115,-15.179,5.218,-17.076,2.372,-17.076C-0.474,-17.076,-2.372,-15.179,-2.372,-12.333C-2.372,-10.436,-1.423,-9.012,0.474,-8.064L-3.32,-8.064C-5.218,-8.064,-6.641,-6.641,-6.641,-5.218L-6.641,3.795C-6.641,5.218,-5.218,6.641,-3.795,6.641L-2.846,6.641C-2.846,6.641,-2.846,7.115,-2.846,7.115L-2.846,16.128C-2.846,17.551,-1.897,18.974,-1.423,18.974L4.743,18.974C5.692,18.974,6.166,17.551,6.166,16.128L6.166,7.589C6.166,7.589,6.166,7.115,6.166,7.115L7.115,7.115C8.538,7.115,9.961,5.692,9.961,4.269L9.961,-5.218C10.91,-6.641,9.487,-8.064,8.064,-8.064Z" fill="rgb(194,81,64)" stroke-width="2" opacity="0.7"/><path aria-label="col: 7; row: -5" role="graphics-symbol" aria-roledescription="point" transform="translate(260,180)" d="M8.064,-8.064L4.269,-8.064C5.692,-9.012,7.115,-10.436,7.115,-12.333C7.115,-15.179,5.218,-17.076,2.372,-17.076C-0.474,-17.076,-2.372,-15.179,-2.372,-12.333C-2.372,-10.436,-1.423,-9.012,0.474,-8.064L-3.32,-8.064C-5.218,-8.064,-6.641,-6.641,-6.641,-5.218L-6.641,3.795C-6.641,5.218,-5.218,6.641,-3.795,6.641L-2.846,6.641C-2.846,6.641,-2.846,7.115,-2.846,7.115L-2.846,16.128C-2.846,17.551,-1.897,18.974,-1.423,18.974L4.743,18.974C5.692,18.974,6.166,17.551,6.166,16.128L6.166,7.589C6.166,7.589,6.166,7.115,6.166,7.115L7.115,7.115C8.538,7.115,9.961,5.692,9.961,4.269L9.961,-5.218C10.91,-6.641,9.487,-8.064,8.064,-8.064Z" fill="rgb(194,81,64)" stroke-width="2" opacity="0.7"/><path aria-label="col: 7; row: -4" role="graphics-symbol" aria-roledescription="point" transform="translate(260,220)" d="M8.064,-8.064L4.269,-8.064C5.692,-9.012,7.115,-10.436,7.115,-12.333C7.115,-15.179,5.218,-17.076,2.372,-17.076C-0.474,-17.076,-2.372,-15.179,-2.372,-12.333C-2.372,-10.436,-1.423,-9.012,0.474,-8.064L-3.32,-8.064C-5.218,-8.064,-6.641,-6.641,-6.641,-5.218L-6.641,3.795C-6.641,5.218,-5.218,6.641,-3.795,6.641L-2.846,6.641C-2.846,6.641,-2.846,7.115,-2.846,7.115L-2.846,16.128C-2.846,17.551,-1.897,18.974,-1.423,18.974L4.743,18.974C5.692,18.974,6.166,17.551,6.166,16.128L6.166,7.589C6.166,7.589,6.166,7.115,6.166,7.115L7.115,7.115C8.538,7.115,9.961,5.692,9.961,4.269L9.961,-5.218C10.91,-6.641,9.487,-8.064,8.064,-8.064Z" fill="rgb(194,81,64)" stroke-width="2" opacity="0.7"/><path aria-label="col: 7; row: -3" role="graphics-symbol" aria-roledescription="point" transform="translate(260,260)" d="M8.064,-8.064L4.269,-8.064C5.692,-9.012,7.115,-10.436,7.115,-12.333C7.115,-15.179,5.218,-17.076,2.372,-17.076C-0.474,-17.076,-2.372,-15.179,-2.372,-12.333C-2.372,-10.436,-1.423,-9.012,0.474,-8.064L-3.32,-8.064C-5.218,-8.064,-6.641,-6.641,-6.641,-5.218L-6.641,3.795C-6.641,5.218,-5.218,6.641,-3.795,6.641L-2.846,6.641C-2.846,6.641,-2.846,7.115,-2.846,7.115L-2.846,16.128C-2.846,17.551,-1.897,18.974,-1.423,18.974L4.743,18.974C5.692,18.974,6.166,17.551,6.166,16.128L6.166,7.589C6.166,7.589,6.166,7.115,6.166,7.115L7.115,7.115C8.538,7.115,9.961,5.692,9.961,4.269L9.961,-5.218C10.91,-6.641,9.487,-8.064,8.064,-8.064Z" fill="rgb(194,81,64)" stroke-width="2" opacity="0.7"/><path aria-label="col: 7; row: -2" role="graphics-symbol" aria-roledescription="point" transform="translate(260,300)" d="M8.064,-8.064L4.269,-8.064C5.692,-9.012,7.115,-10.436,7.115,-12.333C7.115,-15.179,5.218,-17.076,2.372,-17.076C-0.474,-17.076,-2.372,-15.179,-2.372,-12.333C-2.372,-10.436,-1.423,-9.012,0.474,-8.064L-3.32,-8.064C-5.218,-8.064,-6.641,-6.641,-6.641,-5.218L-6.641,3.795C-6.641,5.218,-5.218,6.641,-3.795,6.641L-2.846,6.641C-2.846,6.641,-2.846,7.115,-2.846,7.115L-2.846,16.128C-2.846,17.551,-1.897,18.974,-1.423,18.974L4.743,18.974C5.692,18.974,6.166,17.551,6.166,16.128L6.166,7.589C6.166,7.589,6.166,7.115,6.166,7.115L7.115,7.115C8.538,7.115,9.961,5.692,9.961,4.269L9.961,-5.218C10.91,-6.641,9.487,-8.064,8.064,-8.064Z" fill="rgb(194,81,64)" stroke-width="2" opacity="0.7"/><path aria-label="col: 7; row: -1" role="graphics-symbol" aria-roledescription="point" transform="translate(260,340)" d="M8.064,-8.064L4.269,-8.064C5.692,-9.012,7.115,-10.436,7.115,-12.333C7.115,-15.179,5.218,-17.076,2.372,-17.076C-0.474,-17.076,-2.372,-15.179,-2.372,-12.333C-2.372,-10.436,-1.423,-9.012,0.474,-8.064L-3.32,-8.064C-5.218,-8.064,-6.641,-6.641,-6.641,-5.218L-6.641,3.795C-6.641,5.218,-5.218,6.641,-3.795,6.641L-2.846,6.641C-2.846,6.641,-2.846,7.115,-2.846,7.115L-2.846,16.128C-2.846,17.551,-1.897,18.974,-1.423,18.974L4.743,18.974C5.692,18.974,6.166,17.551,6.166,16.128L6.166,7.589C6.166,7.589,6.166,7.115,6.166,7.115L7.115,7.115C8.538,7.115,9.961,5.692,9.961,4.269L9.961,-5.218C10.91,-6.641,9.487,-8.064,8.064,-8.064Z" fill="rgb(194,81,64)" stroke-width="2" opacity="0.7"/><path aria-label="col: 7; row: 0" role="graphics-symbol" aria-roledescription="point" transform="translate(260,380)" d="M8.064,-8.064L4.269,-8.064C5.692,-9.012,7.115,-10.436,7.115,-12.333C7.115,-15.179,5.218,-17.076,2.372,-17.076C-0.474,-17.076,-2.372,-15.179,-2.372,-12.333C-2.372,-10.436,-1.423,-9.012,0.474,-8.064L-3.32,-8.064C-5.218,-8.064,-6.641,-6.641,-6.641,-5.218L-6.641,3.795C-6.641,5.218,-5.218,6.641,-3.795,6.641L-2.846,6.641C-2.846,6.641,-2.846,7.115,-2.846,7.115L-2.846,16.128C-2.846,17.551,-1.897,18.974,-1.423,18.974L4.743,18.974C5.692,18.974,6.166,17.551,6.166,16.128L6.166,7.589C6.166,7.589,6.166,7.115,6.166,7.115L7.115,7.115C8.538,7.115,9.961,5.692,9.961,4.269L9.961,-5.218C10.91,-6.641,9.487,-8.064,8.064,-8.064Z" fill="rgb(194,81,64)" stroke-width="2" opacity="0.7"/><path aria-label="col: 8; row: -9" role="graphics-symbol" aria-roledescription="point" transform="translate(300,20)" d="M8.064,-8.064L4.269,-8.064C5.692,-9.012,7.115,-10.436,7.115,-12.333C7.115,-15.179,5.218,-17.076,2.372,-17.076C-0.474,-17.076,-2.372,-15.179,-2.372,-12.333C-2.372,-10.436,-1.423,-9.012,0.474,-8.064L-3.32,-8.064C-5.218,-8.064,-6.641,-6.641,-6.641,-5.218L-6.641,3.795C-6.641,5.218,-5.218,6.641,-3.795,6.641L-2.846,6.641C-2.846,6.641,-2.846,7.115,-2.846,7.115L-2.846,16.128C-2.846,17.551,-1.897,18.974,-1.423,18.974L4.743,18.974C5.692,18.974,6.166,17.551,6.166,16.128L6.166,7.589C6.166,7.589,6.166,7.115,6.166,7.115L7.115,7.115C8.538,7.115,9.961,5.692,9.961,4.269L9.961,-5.218C10.91,-6.641,9.487,-8.064,8.064,-8.064Z" fill="rgb(194,81,64)" stroke-width="2" opacity="0.7"/><path aria-label="col: 8; row: -8" role="graphics-symbol" aria-roledescription="point" transform="translate(300,60)" d="M8.064,-8.064L4.269,-8.064C5.692,-9.012,7.115,-10.436,7.115,-12.333C7.115,-15.179,5.218,-17.076,2.372,-17.076C-0.474,-17.076,-2.372,-15.179,-2.372,-12.333C-2.372,-10.436,-1.423,-9.012,0.474,-8.064L-3.32,-8.064C-5.218,-8.064,-6.641,-6.641,-6.641,-5.218L-6.641,3.795C-6.641,5.218,-5.218,6.641,-3.795,6.641L-2.846,6.641C-2.846,6.641,-2.846,7.115,-2.846,7.115L-2.846,16.128C-2.846,17.551,-1.897,18.974,-1.423,18.974L4.743,18.974C5.692,18.974,6.166,17.551,6.166,16.128L6.166,7.589C6.166,7.589,6.166,7.115,6.166,7.115L7.115,7.115C8.538,7.115,9.961,5.692,9.961,4.269L9.961,-5.218C10.91,-6.641,9.487,-8.064,8.064,-8.064Z" fill="rgb(194,81,64)" stroke-width="2" opacity="0.7"/><path aria-label="col: 8; row: -7" role="graphics-symbol" aria-roledescription="point" transform="translate(300,100)" d="M8.064,-8.064L4.269,-8.064C5.692,-9.012,7.115,-10.436,7.115,-12.333C7.115,-15.179,5.218,-17.076,2.372,-17.076C-0.474,-17.076,-2.372,-15.179,-2.372,-12.333C-2.372,-10.436,-1.423,-9.012,0.474,-8.064L-3.32,-8.064C-5.218,-8.064,-6.641,-6.641,-6.641,-5.218L-6.641,3.795C-6.641,5.218,-5.218,6.641,-3.795,6.641L-2.846,6.641C-2.846,6.641,-2.846,7.115,-2.846,7.115L-2.846,16.128C-2.846,17.551,-1.897,18.974,-1.423,18.974L4.743,18.974C5.692,18.974,6.166,17.551,6.166,16.128L6.166,7.589C6.166,7.589,6.166,7.115,6.166,7.115L7.115,7.115C8.538,7.115,9.961,5.692,9.961,4.269L9.961,-5.218C10.91,-6.641,9.487,-8.064,8.064,-8.064Z" fill="rgb(194,81,64)" stroke-width="2" opacity="0.7"/><path aria-label="col: 8; row: -6" role="graphics-symbol" aria-roledescription="point" transform="translate(300,140)" d="M8.064,-8.064L4.269,-8.064C5.692,-9.012,7.115,-10.436,7.115,-12.333C7.115,-15.179,5.218,-17.076,2.372,-17.076C-0.474,-17.076,-2.372,-15.179,-2.372,-12.333C-2.372,-10.436,-1.423,-9.012,0.474,-8.064L-3.32,-8.064C-5.218,-8.064,-6.641,-6.641,-6.641,-5.218L-6.641,3.795C-6.641,5.218,-5.218,6.641,-3.795,6.641L-2.846,6.641C-2.846,6.641,-2.846,7.115,-2.846,7.115L-2.846,16.128C-2.846,17.551,-1.897,18.974,-1.423,18.974L4.743,18.974C5.692,18.974,6.166,17.551,6.166,16.128L6.166,7.589C6.166,7.589,6.166,7.115,6.166,7.115L7.115,7.115C8.538,7.115,9.961,5.692,9.961,4.269L9.961,-5.218C10.91,-6.641,9.487,-8.064,8.064,-8.064Z" fill="rgb(194,81,64)" stroke-width="2" opacity="0.7"/><path aria-label="col: 8; row: -5" role="graphics-symbol" aria-roledescription="point" transform="translate(300,180)" d="M8.064,-8.064L4.269,-8.064C5.692,-9.012,7.115,-10.436,7.115,-12.333C7.115,-15.179,5.218,-17.076,2.372,-17.076C-0.474,-17.076,-2.372,-15.179,-2.372,-12.333C-2.372,-10.436,-1.423,-9.012,0.474,-8.064L-3.32,-8.064C-5.218,-8.064,-6.641,-6.641,-6.641,-5.218L-6.641,3.795C-6.641,5.218,-5.218,6.641,-3.795,6.641L-2.846,6.641C-2.846,6.641,-2.846,7.115,-2.846,7.115L-2.846,16.128C-2.846,17.551,-1.897,18.974,-1.423,18.974L4.743,18.974C5.692,18.974,6.166,17.551,6.166,16.128L6.166,7.589C6.166,7.589,6.166,7.115,6.166,7.115L7.115,7.115C8.538,7.115,9.961,5.692,9.961,4.269L9.961,-5.218C10.91,-6.641,9.487,-8.064,8.064,-8.064Z" fill="rgb(194,81,64)" stroke-width="2" opacity="0.7"/><path aria-label="col: 8; row: -4" role="graphics-symbol" aria-roledescription="point" transform="translate(300,220)" d="M8.064,-8.064L4.269,-8.064C5.692,-9.012,7.115,-10.436,7.115,-12.333C7.115,-15.179,5.218,-17.076,2.372,-17.076C-0.474,-17.076,-2.372,-15.179,-2.372,-12.333C-2.372,-10.436,-1.423,-9.012,0.474,-8.064L-3.32,-8.064C-5.218,-8.064,-6.641,-6.641,-6.641,-5.218L-6.641,3.795C-6.641,5.218,-5.218,6.641,-3.795,6.641L-2.846,6.641C-2.846,6.641,-2.846,7.115,-2.846,7.115L-2.846,16.128C-2.846,17.551,-1.897,18.974,-1.423,18.974L4.743,18.974C5.692,18.974,6.166,17.551,6.166,16.128L6.166,7.589C6.166,7.589,6.166,7.115,6.166,7.115L7.115,7.115C8.538,7.115,9.961,5.692,9.961,4.269L9.961,-5.218C10.91,-6.641,9.487,-8.064,8.064,-8.064Z" fill="rgb(194,81,64)" stroke-width="2" opacity="0.7"/><path aria-label="col: 8; row: -3" role="graphics-symbol" aria-roledescription="point" transform="translate(300,260)" d="M8.064,-8.064L4.269,-8.064C5.692,-9.012,7.115,-10.436,7.115,-12.333C7.115,-15.179,5.218,-17.076,2.372,-17.076C-0.474,-17.076,-2.372,-15.179,-2.372,-12.333C-2.372,-10.436,-1.423,-9.012,0.474,-8.064L-3.32,-8.064C-5.218,-8.064,-6.641,-6.641,-6.641,-5.218L-6.641,3.795C-6.641,5.218,-5.218,6.641,-3.795,6.641L-2.846,6.641C-2.846,6.641,-2.846,7.115,-2.846,7.115L-2.846,16.128C-2.846,17.551,-1.897,18.974,-1.423,18.974L4.743,18.974C5.692,18.974,6.166,17.551,6.166,16.128L6.166,7.589C6.166,7.589,6.166,7.115,6.166,7.115L7.115,7.115C8.538,7.115,9.961,5.692,9.961,4.269L9.961,-5.218C10.91,-6.641,9.487,-8.064,8.064,-8.064Z" fill="rgb(194,81,64)" stroke-width="2" opacity="0.7"/><path aria-label="col: 8; row: -2" role="graphics-symbol" aria-roledescription="point" transform="translate(300,300)" d="M8.064,-8.064L4.269,-8.064C5.692,-9.012,7.115,-10.436,7.115,-12.333C7.115,-15.179,5.218,-17.076,2.372,-17.076C-0.474,-17.076,-2.372,-15.179,-2.372,-12.333C-2.372,-10.436,-1.423,-9.012,0.474,-8.064L-3.32,-8.064C-5.218,-8.064,-6.641,-6.641,-6.641,-5.218L-6.641,3.795C-6.641,5.218,-5.218,6.641,-3.795,6.641L-2.846,6.641C-2.846,6.641,-2.846,7.115,-2.846,7.115L-2.846,16.128C-2.846,17.551,-1.897,18.974,-1.423,18.974L4.743,18.974C5.692,18.974,6.166,17.551,6.166,16.128L6.166,7.589C6.166,7.589,6.166,7.115,6.166,7.115L7.115,7.115C8.538,7.115,9.961,5.692,9.961,4.269L9.961,-5.218C10.91,-6.641,9.487,-8.064,8.064,-8.064Z" fill="rgb(194,81,64)" stroke-width="2" opacity="0.7"/><path aria-label="col: 8; row: -1" role="graphics-symbol" aria-roledescription="point" transform="translate(300,340)" d="M8.064,-8.064L4.269,-8.064C5.692,-9.012,7.115,-10.436,7.115,-12.333C7.115,-15.179,5.218,-17.076,2.372,-17.076C-0.474,-17.076,-2.372,-15.179,-2.372,-12.333C-2.372,-10.436,-1.423,-9.012,0.474,-8.064L-3.32,-8.064C-5.218,-8.064,-6.641,-6.641,-6.641,-5.218L-6.641,3.795C-6.641,5.218,-5.218,6.641,-3.795,6.641L-2.846,6.641C-2.846,6.641,-2.846,7.115,-2.846,7.115L-2.846,16.128C-2.846,17.551,-1.897,18.974,-1.423,18.974L4.743,18.974C5.692,18.974,6.166,17.551,6.166,16.128L6.166,7.589C6.166,7.589,6.166,7.115,6.166,7.115L7.115,7.115C8.538,7.115,9.961,5.692,9.961,4.269L9.961,-5.218C10.91,-6.641,9.487,-8.064,8.064,-8.064Z" fill="rgb(194,81,64)" stroke-width="2" opacity="0.7"/><path aria-label="col: 8; row: 0" role="graphics-symbol" aria-roledescription="point" transform="translate(300,380)" d="M8.064,-8.064L4.269,-8.064C5.692,-9.012,7.115,-10.436,7.115,-12.333C7.115,-15.179,5.218,-17.076,2.372,-17.076C-0.474,-17.076,-2.372,-15.179,-2.372,-12.333C-2.372,-10.436,-1.423,-9.012,0.474,-8.064L-3.32,-8.064C-5.218,-8.064,-6.641,-6.641,-6.641,-5.218L-6.641,3.795C-6.641,5.218,-5.218,6.641,-3.795,6.641L-2.846,6.641C-2.846,6.641,-2.846,7.115,-2.846,7.115L-2.846,16.128C-2.846,17.551,-1.897,18.974,-1.423,18.974L4.743,18.974C5.692,18.974,6.166,17.551,6.166,16.128L6.166,7.589C6.166,7.589,6.166,7.115,6.166,7.115L7.115,7.115C8.538,7.115,9.961,5.692,9.961,4.269L9.961,-5.218C10.91,-6.641,9.487,-8.064,8.064,-8.064Z" fill="rgb(194,81,64)" stroke-width="2" opacity="0.7"/><path aria-label="col: 9; row: -9" role="graphics-symbol" aria-roledescription="point" transform="translate(340,20)" d="M8.064,-8.064L4.269,-8.064C5.692,-9.012,7.115,-10.436,7.115,-12.333C7.115,-15.179,5.218,-17.076,2.372,-17.076C-0.474,-17.076,-2.372,-15.179,-2.372,-12.333C-2.372,-10.436,-1.423,-9.012,0.474,-8.064L-3.32,-8.064C-5.218,-8.064,-6.641,-6.641,-6.641,-5.218L-6.641,3.795C-6.641,5.218,-5.218,6.641,-3.795,6.641L-2.846,6.641C-2.846,6.641,-2.846,7.115,-2.846,7.115L-2.846,16.128C-2.846,17.551,-1.897,18.974,-1.423,18.974L4.743,18.974C5.692,18.974,6.166,17.551,6.166,16.128L6.166,7.589C6.166,7.589,6.166,7.115,6.166,7.115L7.115,7.115C8.538,7.115,9.961,5.692,9.961,4.269L9.961,-5.218C10.91,-6.641,9.487,-8.064,8.064,-8.064Z" fill="rgb(194,81,64)" stroke-width="2" opacity="0.7"/><path aria-label="col: 9; row: -8" role="graphics-symbol" aria-roledescription="point" transform="translate(340,60)" d="M8.064,-8.064L4.269,-8.064C5.692,-9.012,7.115,-10.436,7.115,-12.333C7.115,-15.179,5.218,-17.076,2.372,-17.076C-0.474,-17.076,-2.372,-15.179,-2.372,-12.333C-2.372,-10.436,-1.423,-9.012,0.474,-8.064L-3.32,-8.064C-5.218,-8.064,-6.641,-6.641,-6.641,-5.218L-6.641,3.795C-6.641,5.218,-5.218,6.641,-3.795,6.641L-2.846,6.641C-2.846,6.641,-2.846,7.115,-2.846,7.115L-2.846,16.128C-2.846,17.551,-1.897,18.974,-1.423,18.974L4.743,18.974C5.692,18.974,6.166,17.551,6.166,16.128L6.166,7.589C6.166,7.589,6.166,7.115,6.166,7.115L7.115,7.115C8.538,7.115,9.961,5.692,9.961,4.269L9.961,-5.218C10.91,-6.641,9.487,-8.064,8.064,-8.064Z" fill="rgb(194,81,64)" stroke-width="2" opacity="0.7"/><path aria-label="col: 9; row: -7" role="graphics-symbol" aria-roledescription="point" transform="translate(340,100)" d="M8.064,-8.064L4.269,-8.064C5.692,-9.012,7.115,-10.436,7.115,-12.333C7.115,-15.179,5.218,-17.076,2.372,-17.076C-0.474,-17.076,-2.372,-15.179,-2.372,-12.333C-2.372,-10.436,-1.423,-9.012,0.474,-8.064L-3.32,-8.064C-5.218,-8.064,-6.641,-6.641,-6.641,-5.218L-6.641,3.795C-6.641,5.218,-5.218,6.641,-3.795,6.641L-2.846,6.641C-2.846,6.641,-2.846,7.115,-2.846,7.115L-2.846,16.128C-2.846,17.551,-1.897,18.974,-1.423,18.974L4.743,18.974C5.692,18.974,6.166,17.551,6.166,16.128L6.166,7.589C6.166,7.589,6.166,7.115,6.166,7.115L7.115,7.115C8.538,7.115,9.961,5.692,9.961,4.269L9.961,-5.218C10.91,-6.641,9.487,-8.064,8.064,-8.064Z" fill="rgb(194,81,64)" stroke-width="2" opacity="0.7"/><path aria-label="col: 9; row: -6" role="graphics-symbol" aria-roledescription="point" transform="translate(340,140)" d="M8.064,-8.064L4.269,-8.064C5.692,-9.012,7.115,-10.436,7.115,-12.333C7.115,-15.179,5.218,-17.076,2.372,-17.076C-0.474,-17.076,-2.372,-15.179,-2.372,-12.333C-2.372,-10.436,-1.423,-9.012,0.474,-8.064L-3.32,-8.064C-5.218,-8.064,-6.641,-6.641,-6.641,-5.218L-6.641,3.795C-6.641,5.218,-5.218,6.641,-3.795,6.641L-2.846,6.641C-2.846,6.641,-2.846,7.115,-2.846,7.115L-2.846,16.128C-2.846,17.551,-1.897,18.974,-1.423,18.974L4.743,18.974C5.692,18.974,6.166,17.551,6.166,16.128L6.166,7.589C6.166,7.589,6.166,7.115,6.166,7.115L7.115,7.115C8.538,7.115,9.961,5.692,9.961,4.269L9.961,-5.218C10.91,-6.641,9.487,-8.064,8.064,-8.064Z" fill="rgb(194,81,64)" stroke-width="2" opacity="0.7"/><path aria-label="col: 9; row: -5" role="graphics-symbol" aria-roledescription="point" transform="translate(340,180)" d="M8.064,-8.064L4.269,-8.064C5.692,-9.012,7.115,-10.436,7.115,-12.333C7.115,-15.179,5.218,-17.076,2.372,-17.076C-0.474,-17.076,-2.372,-15.179,-2.372,-12.333C-2.372,-10.436,-1.423,-9.012,0.474,-8.064L-3.32,-8.064C-5.218,-8.064,-6.641,-6.641,-6.641,-5.218L-6.641,3.795C-6.641,5.218,-5.218,6.641,-3.795,6.641L-2.846,6.641C-2.846,6.641,-2.846,7.115,-2.846,7.115L-2.846,16.128C-2.846,17.551,-1.897,18.974,-1.423,18.974L4.743,18.974C5.692,18.974,6.166,17.551,6.166,16.128L6.166,7.589C6.166,7.589,6.166,7.115,6.166,7.115L7.115,7.115C8.538,7.115,9.961,5.692,9.961,4.269L9.961,-5.218C10.91,-6.641,9.487,-8.064,8.064,-8.064Z" fill="rgb(194,81,64)" stroke-width="2" opacity="0.7"/><path aria-label="col: 9; row: -4" role="graphics-symbol" aria-roledescription="point" transform="translate(340,220)" d="M8.064,-8.064L4.269,-8.064C5.692,-9.012,7.115,-10.436,7.115,-12.333C7.115,-15.179,5.218,-17.076,2.372,-17.076C-0.474,-17.076,-2.372,-15.179,-2.372,-12.333C-2.372,-10.436,-1.423,-9.012,0.474,-8.064L-3.32,-8.064C-5.218,-8.064,-6.641,-6.641,-6.641,-5.218L-6.641,3.795C-6.641,5.218,-5.218,6.641,-3.795,6.641L-2.846,6.641C-2.846,6.641,-2.846,7.115,-2.846,7.115L-2.846,16.128C-2.846,17.551,-1.897,18.974,-1.423,18.974L4.743,18.974C5.692,18.974,6.166,17.551,6.166,16.128L6.166,7.589C6.166,7.589,6.166,7.115,6.166,7.115L7.115,7.115C8.538,7.115,9.961,5.692,9.961,4.269L9.961,-5.218C10.91,-6.641,9.487,-8.064,8.064,-8.064Z" fill="rgb(194,81,64)" stroke-width="2" opacity="0.7"/><path aria-label="col: 9; row: -3" role="graphics-symbol" aria-roledescription="point" transform="translate(340,260)" d="M8.064,-8.064L4.269,-8.064C5.692,-9.012,7.115,-10.436,7.115,-12.333C7.115,-15.179,5.218,-17.076,2.372,-17.076C-0.474,-17.076,-2.372,-15.179,-2.372,-12.333C-2.372,-10.436,-1.423,-9.012,0.474,-8.064L-3.32,-8.064C-5.218,-8.064,-6.641,-6.641,-6.641,-5.218L-6.641,3.795C-6.641,5.218,-5.218,6.641,-3.795,6.641L-2.846,6.641C-2.846,6.641,-2.846,7.115,-2.846,7.115L-2.846,16.128C-2.846,17.551,-1.897,18.974,-1.423,18.974L4.743,18.974C5.692,18.974,6.166,17.551,6.166,16.128L6.166,7.589C6.166,7.589,6.166,7.115,6.166,7.115L7.115,7.115C8.538,7.115,9.961,5.692,9.961,4.269L9.961,-5.218C10.91,-6.641,9.487,-8.064,8.064,-8.064Z" fill="rgb(194,81,64)" stroke-width="2" opacity="0.7"/><path aria-label="col: 9; row: -2" role="graphics-symbol" aria-roledescription="point" transform="translate(340,300)" d="M8.064,-8.064L4.269,-8.064C5.692,-9.012,7.115,-10.436,7.115,-12.333C7.115,-15.179,5.218,-17.076,2.372,-17.076C-0.474,-17.076,-2.372,-15.179,-2.372,-12.333C-2.372,-10.436,-1.423,-9.012,0.474,-8.064L-3.32,-8.064C-5.218,-8.064,-6.641,-6.641,-6.641,-5.218L-6.641,3.795C-6.641,5.218,-5.218,6.641,-3.795,6.641L-2.846,6.641C-2.846,6.641,-2.846,7.115,-2.846,7.115L-2.846,16.128C-2.846,17.551,-1.897,18.974,-1.423,18.974L4.743,18.974C5.692,18.974,6.166,17.551,6.166,16.128L6.166,7.589C6.166,7.589,6.166,7.115,6.166,7.115L7.115,7.115C8.538,7.115,9.961,5.692,9.961,4.269L9.961,-5.218C10.91,-6.641,9.487,-8.064,8.064,-8.064Z" fill="rgb(194,81,64)" stroke-width="2" opacity="0.7"/><path aria-label="col: 9; row: -1" role="graphics-symbol" aria-roledescription="point" transform="translate(340,340)" d="M8.064,-8.064L4.269,-8.064C5.692,-9.012,7.115,-10.436,7.115,-12.333C7.115,-15.179,5.218,-17.076,2.372,-17.076C-0.474,-17.076,-2.372,-15.179,-2.372,-12.333C-2.372,-10.436,-1.423,-9.012,0.474,-8.064L-3.32,-8.064C-5.218,-8.064,-6.641,-6.641,-6.641,-5.218L-6.641,3.795C-6.641,5.218,-5.218,6.641,-3.795,6.641L-2.846,6.641C-2.846,6.641,-2.846,7.115,-2.846,7.115L-2.846,16.128C-2.846,17.551,-1.897,18.974,-1.423,18.974L4.743,18.974C5.692,18.974,6.166,17.551,6.166,16.128L6.166,7.589C6.166,7.589,6.166,7.115,6.166,7.115L7.115,7.115C8.538,7.115,9.961,5.692,9.961,4.269L9.961,-5.218C10.91,-6.641,9.487,-8.064,8.064,-8.064Z" fill="rgb(194,81,64)" stroke-width="2" opacity="0.7"/><path aria-label="col: 9; row: 0" role="graphics-symbol" aria-roledescription="point" transform="translate(340,380)" d="M8.064,-8.064L4.269,-8.064C5.692,-9.012,7.115,-10.436,7.115,-12.333C7.115,-15.179,5.218,-17.076,2.372,-17.076C-0.474,-17.076,-2.372,-15.179,-2.372,-12.333C-2.372,-10.436,-1.423,-9.012,0.474,-8.064L-3.32,-8.064C-5.218,-8.064,-6.641,-6.641,-6.641,-5.218L-6.641,3.795C-6.641,5.218,-5.218,6.641,-3.795,6.641L-2.846,6.641C-2.846,6.641,-2.846,7.115,-2.846,7.115L-2.846,16.128C-2.846,17.551,-1.897,18.974,-1.423,18.974L4.743,18.974C5.692,18.974,6.166,17.551,6.166,16.128L6.166,7.589C6.166,7.589,6.166,7.115,6.166,7.115L7.115,7.115C8.538,7.115,9.961,5.692,9.961,4.269L9.961,-5.218C10.91,-6.641,9.487,-8.064,8.064,-8.064Z" fill="rgb(194,81,64)" stroke-width="2" opacity="0.7"/><path aria-label="col: 10; row: -9" role="graphics-symbol" aria-roledescription="point" transform="translate(380,20)" d="M8.064,-8.064L4.269,-8.064C5.692,-9.012,7.115,-10.436,7.115,-12.333C7.115,-15.179,5.218,-17.076,2.372,-17.076C-0.474,-17.076,-2.372,-15.179,-2.372,-12.333C-2.372,-10.436,-1.423,-9.012,0.474,-8.064L-3.32,-8.064C-5.218,-8.064,-6.641,-6.641,-6.641,-5.218L-6.641,3.795C-6.641,5.218,-5.218,6.641,-3.795,6.641L-2.846,6.641C-2.846,6.641,-2.846,7.115,-2.846,7.115L-2.846,16.128C-2.846,17.551,-1.897,18.974,-1.423,18.974L4.743,18.974C5.692,18.974,6.166,17.551,6.166,16.128L6.166,7.589C6.166,7.589,6.166,7.115,6.166,7.115L7.115,7.115C8.538,7.115,9.961,5.692,9.961,4.269L9.961,-5.218C10.91,-6.641,9.487,-8.064,8.064,-8.064Z" fill="rgb(194,81,64)" stroke-width="2" opacity="0.7"/><path aria-label="col: 10; row: -8" role="graphics-symbol" aria-roledescription="point" transform="translate(380,60)" d="M8.064,-8.064L4.269,-8.064C5.692,-9.012,7.115,-10.436,7.115,-12.333C7.115,-15.179,5.218,-17.076,2.372,-17.076C-0.474,-17.076,-2.372,-15.179,-2.372,-12.333C-2.372,-10.436,-1.423,-9.012,0.474,-8.064L-3.32,-8.064C-5.218,-8.064,-6.641,-6.641,-6.641,-5.218L-6.641,3.795C-6.641,5.218,-5.218,6.641,-3.795,6.641L-2.846,6.641C-2.846,6.641,-2.846,7.115,-2.846,7.115L-2.846,16.128C-2.846,17.551,-1.897,18.974,-1.423,18.974L4.743,18.974C5.692,18.974,6.166,17.551,6.166,16.128L6.166,7.589C6.166,7.589,6.166,7.115,6.166,7.115L7.115,7.115C8.538,7.115,9.961,5.692,9.961,4.269L9.961,-5.218C10.91,-6.641,9.487,-8.064,8.064,-8.064Z" fill="rgb(194,81,64)" stroke-width="2" opacity="0.7"/><path aria-label="col: 10; row: -7" role="graphics-symbol" aria-roledescription="point" transform="translate(380,100)" d="M8.064,-8.064L4.269,-8.064C5.692,-9.012,7.115,-10.436,7.115,-12.333C7.115,-15.179,5.218,-17.076,2.372,-17.076C-0.474,-17.076,-2.372,-15.179,-2.372,-12.333C-2.372,-10.436,-1.423,-9.012,0.474,-8.064L-3.32,-8.064C-5.218,-8.064,-6.641,-6.641,-6.641,-5.218L-6.641,3.795C-6.641,5.218,-5.218,6.641,-3.795,6.641L-2.846,6.641C-2.846,6.641,-2.846,7.115,-2.846,7.115L-2.846,16.128C-2.846,17.551,-1.897,18.974,-1.423,18.974L4.743,18.974C5.692,18.974,6.166,17.551,6.166,16.128L6.166,7.589C6.166,7.589,6.166,7.115,6.166,7.115L7.115,7.115C8.538,7.115,9.961,5.692,9.961,4.269L9.961,-5.218C10.91,-6.641,9.487,-8.064,8.064,-8.064Z" fill="rgb(194,81,64)" stroke-width="2" opacity="0.7"/><path aria-label="col: 10; row: -6" role="graphics-symbol" aria-roledescription="point" transform="translate(380,140)" d="M8.064,-8.064L4.269,-8.064C5.692,-9.012,7.115,-10.436,7.115,-12.333C7.115,-15.179,5.218,-17.076,2.372,-17.076C-0.474,-17.076,-2.372,-15.179,-2.372,-12.333C-2.372,-10.436,-1.423,-9.012,0.474,-8.064L-3.32,-8.064C-5.218,-8.064,-6.641,-6.641,-6.641,-5.218L-6.641,3.795C-6.641,5.218,-5.218,6.641,-3.795,6.641L-2.846,6.641C-2.846,6.641,-2.846,7.115,-2.846,7.115L-2.846,16.128C-2.846,17.551,-1.897,18.974,-1.423,18.974L4.743,18.974C5.692,18.974,6.166,17.551,6.166,16.128L6.166,7.589C6.166,7.589,6.166,7.115,6.166,7.115L7.115,7.115C8.538,7.115,9.961,5.692,9.961,4.269L9.961,-5.218C10.91,-6.641,9.487,-8.064,8.064,-8.064Z" fill="rgb(194,81,64)" stroke-width="2" opacity="0.7"/><path aria-label="col: 10; row: -5" role="graphics-symbol" aria-roledescription="point" transform="translate(380,180)" d="M8.064,-8.064L4.269,-8.064C5.692,-9.012,7.115,-10.436,7.115,-12.333C7.115,-15.179,5.218,-17.076,2.372,-17.076C-0.474,-17.076,-2.372,-15.179,-2.372,-12.333C-2.372,-10.436,-1.423,-9.012,0.474,-8.064L-3.32,-8.064C-5.218,-8.064,-6.641,-6.641,-6.641,-5.218L-6.641,3.795C-6.641,5.218,-5.218,6.641,-3.795,6.641L-2.846,6.641C-2.846,6.641,-2.846,7.115,-2.846,7.115L-2.846,16.128C-2.846,17.551,-1.897,18.974,-1.423,18.974L4.743,18.974C5.692,18.974,6.166,17.551,6.166,16.128L6.166,7.589C6.166,7.589,6.166,7.115,6.166,7.115L7.115,7.115C8.538,7.115,9.961,5.692,9.961,4.269L9.961,-5.218C10.91,-6.641,9.487,-8.064,8.064,-8.064Z" fill="rgb(194,81,64)" stroke-width="2" opacity="0.7"/><path aria-label="col: 10; row: -4" role="graphics-symbol" aria-roledescription="point" transform="translate(380,220)" d="M8.064,-8.064L4.269,-8.064C5.692,-9.012,7.115,-10.436,7.115,-12.333C7.115,-15.179,5.218,-17.076,2.372,-17.076C-0.474,-17.076,-2.372,-15.179,-2.372,-12.333C-2.372,-10.436,-1.423,-9.012,0.474,-8.064L-3.32,-8.064C-5.218,-8.064,-6.641,-6.641,-6.641,-5.218L-6.641,3.795C-6.641,5.218,-5.218,6.641,-3.795,6.641L-2.846,6.641C-2.846,6.641,-2.846,7.115,-2.846,7.115L-2.846,16.128C-2.846,17.551,-1.897,18.974,-1.423,18.974L4.743,18.974C5.692,18.974,6.166,17.551,6.166,16.128L6.166,7.589C6.166,7.589,6.166,7.115,6.166,7.115L7.115,7.115C8.538,7.115,9.961,5.692,9.961,4.269L9.961,-5.218C10.91,-6.641,9.487,-8.064,8.064,-8.064Z" fill="rgb(194,81,64)" stroke-width="2" opacity="0.7"/><path aria-label="col: 10; row: -3" role="graphics-symbol" aria-roledescription="point" transform="translate(380,260)" d="M8.064,-8.064L4.269,-8.064C5.692,-9.012,7.115,-10.436,7.115,-12.333C7.115,-15.179,5.218,-17.076,2.372,-17.076C-0.474,-17.076,-2.372,-15.179,-2.372,-12.333C-2.372,-10.436,-1.423,-9.012,0.474,-8.064L-3.32,-8.064C-5.218,-8.064,-6.641,-6.641,-6.641,-5.218L-6.641,3.795C-6.641,5.218,-5.218,6.641,-3.795,6.641L-2.846,6.641C-2.846,6.641,-2.846,7.115,-2.846,7.115L-2.846,16.128C-2.846,17.551,-1.897,18.974,-1.423,18.974L4.743,18.974C5.692,18.974,6.166,17.551,6.166,16.128L6.166,7.589C6.166,7.589,6.166,7.115,6.166,7.115L7.115,7.115C8.538,7.115,9.961,5.692,9.961,4.269L9.961,-5.218C10.91,-6.641,9.487,-8.064,8.064,-8.064Z" fill="rgb(194,81,64)" stroke-width="2" opacity="0.7"/><path aria-label="col: 10; row: -2" role="graphics-symbol" aria-roledescription="point" transform="translate(380,300)" d="M8.064,-8.064L4.269,-8.064C5.692,-9.012,7.115,-10.436,7.115,-12.333C7.115,-15.179,5.218,-17.076,2.372,-17.076C-0.474,-17.076,-2.372,-15.179,-2.372,-12.333C-2.372,-10.436,-1.423,-9.012,0.474,-8.064L-3.32,-8.064C-5.218,-8.064,-6.641,-6.641,-6.641,-5.218L-6.641,3.795C-6.641,5.218,-5.218,6.641,-3.795,6.641L-2.846,6.641C-2.846,6.641,-2.846,7.115,-2.846,7.115L-2.846,16.128C-2.846,17.551,-1.897,18.974,-1.423,18.974L4.743,18.974C5.692,18.974,6.166,17.551,6.166,16.128L6.166,7.589C6.166,7.589,6.166,7.115,6.166,7.115L7.115,7.115C8.538,7.115,9.961,5.692,9.961,4.269L9.961,-5.218C10.91,-6.641,9.487,-8.064,8.064,-8.064Z" fill="rgb(194,81,64)" stroke-width="2" opacity="0.7"/><path aria-label="col: 10; row: -1" role="graphics-symbol" aria-roledescription="point" transform="translate(380,340)" d="M8.064,-8.064L4.269,-8.064C5.692,-9.012,7.115,-10.436,7.115,-12.333C7.115,-15.179,5.218,-17.076,2.372,-17.076C-0.474,-17.076,-2.372,-15.179,-2.372,-12.333C-2.372,-10.436,-1.423,-9.012,0.474,-8.064L-3.32,-8.064C-5.218,-8.064,-6.641,-6.641,-6.641,-5.218L-6.641,3.795C-6.641,5.218,-5.218,6.641,-3.795,6.641L-2.846,6.641C-2.846,6.641,-2.846,7.115,-2.846,7.115L-2.846,16.128C-2.846,17.551,-1.897,18.974,-1.423,18.974L4.743,18.974C5.692,18.974,6.166,17.551,6.166,16.128L6.166,7.589C6.166,7.589,6.166,7.115,6.166,7.115L7.115,7.115C8.538,7.115,9.961,5.692,9.961,4.269L9.961,-5.218C10.91,-6.641,9.487,-8.064,8.064,-8.064Z" fill="rgb(194,81,64)" stroke-width="2" opacity="0.7"/><path aria-label="col: 10; row: 0" role="graphics-symbol" aria-roledescription="point" transform="translate(380,380)" d="M8.064,-8.064L4.269,-8.064C5.692,-9.012,7.115,-10.436,7.115,-12.333C7.115,-15.179,5.218,-17.076,2.372,-17.076C-0.474,-17.076,-2.372,-15.179,-2.372,-12.333C-2.372,-10.436,-1.423,-9.012,0.474,-8.064L-3.32,-8.064C-5.218,-8.064,-6.641,-6.641,-6.641,-5.218L-6.641,3.795C-6.641,5.218,-5.218,6.641,-3.795,6.641L-2.846,6.641C-2.846,6.641,-2.846,7.115,-2.846,7.115L-2.846,16.128C-2.846,17.551,-1.897,18.974,-1.423,18.974L4.743,18.974C5.692,18.974,6.166,17.551,6.166,16.128L6.166,7.589C6.166,7.589,6.166,7.115,6.166,7.115L7.115,7.115C8.538,7.115,9.961,5.692,9.961,4.269L9.961,-5.218C10.91,-6.641,9.487,-8.064,8.064,-8.064Z" fill="rgb(194,81,64)" stroke-width="2" opacity="0.7"/></g><g class="mark-rect role-mark highlight_brush" clip-path="url(#clip2)" role="graphics-symbol" aria-roledescription="rect mark container"><path d="M0,0h0v0h0Z"/></g></g><path class="foreground" aria-hidden="true" d="" display="none"/></g></g></g><defs><clipPath id="clip1"><rect x="0" y="0" width="400" height="400"/></clipPath><clipPath id="clip2"><rect x="0" y="0" width="400" height="400"/></clipPath></defs></svg>