<svg xmlns="http://www.w3.org/2000/svg" xmlns:xlink="http://www.w3.org/1999/xlink" version="1.1" class="marks" width="466" height="167" viewBox="0 0 466 167"><rect width="466" height="167" fill="white"/><g fill="none" stroke-miterlimit="10" transform="translate(60,10)"><g class="mark-group role-frame root" role="graphics-object" aria-roledescription="group mark container"><g transform="translate(0,0)"><path class="background" aria-hidden="true" d="M0.5,0.5h400v120h-400Z" stroke="#ddd"/><g><g class="mark-group role-axis" aria-hidden="true"><g transform="translate(0.5,120.5)"><path class="background" aria-hidden="true" d="M0,0h0v0h0Z" pointer-events="none"/><g><g class="mark-rule role-axis-grid" pointer-events="none"><line transform="translate(0,-120)" x2="0" y2="120" stroke="#ddd" stroke-width="1" opacity="1"/><line transform="translate(50,-120)" x2="0" y2="120" stroke="#ddd" stroke-width="1" opacity="1"/><line transform="translate(100,-120)" x2="0" y2="120" stroke="#ddd" stroke-width="1" opacity="1"/><line transform="translate(150,-120)" x2="0" y2="120" stroke="#ddd" stroke-width="1" opacity="1"/><line transform="translate(200,-120)" x2="0" y2="120" stroke="#ddd" stroke-width="1" opacity="1"/><line transform="translate(250,-120)" x2="0" y2="120" stroke="#ddd" stroke-width="1" opacity="1"/><line transform="translate(300,-120)" x2="0" y2="120" stroke="#ddd" stroke-width="1" opacity="1"/><line transform="translate(350,-120)" x2="0" y2="120" stroke="#ddd" stroke-width="1" opacity="1"/><line transform="translate(400,-120)" x2="0" y2="120" stroke="#ddd" stroke-width="1" opacity="1"/></g></g><path class="foreground" aria-hidden="true" d="" pointer-events="none" display="none"/></g></g><g class="mark-group role-axis" aria-hidden="true"><g transform="translate(0.5,0.5)"><path class="background" aria-hidden="true" d="M0,0h0v0h0Z" pointer-events="none"/><g><g class="mark-rule role-axis-grid" pointer-events="none"><line transform="translate(0,120)" x2="400" y2="0" stroke="#ddd" stroke-width="1" opacity="1"/><line transform="translate(0,90)" x2="400" y2="0" stroke="#ddd" stroke-width="1" opacity="1"/><line transform="translate(0,60)" x2="400" y2="0" stroke="#ddd" stroke-width="1" opacity="1"/><line transform="translate(0,30)" x2="400" y2="0" stroke="#ddd" stroke-width="1" opacity="1"/><line transform="translate(0,0)" x2="400" y2="0" stroke="#ddd" stroke-width="1" opacity="1"/></g></g><path class="foreground" aria-hidden="true" d="" pointer-events="none" display="none"/></g></g><g class="mark-group role-axis" role="graphics-symbol" aria-roledescription="axis" aria-label="X-axis titled 'Body Mass (g)' for a linear scale with values from 2,500 to 6,500"><g transform="translate(0.5,120.5)"><path class="background" aria-hidden="true" d="M0,0h0v0h0Z" pointer-events="none"/><g><g class="mark-rule role-axis-tick" pointer-events="none"><line transform="translate(0,0)" x2="0" y2="5" stroke="#888" stroke-width="1" opacity="1"/><line transform="translate(50,0)" x2="0" y2="5" stroke="#888" stroke-width="1" opacity="1"/><line transform="translate(100,0)" x2="0" y2="5" stroke="#888" stroke-width="1" opacity="1"/><line transform="translate(150,0)" x2="0" y2="5" stroke="#888" stroke-width="1" opacity="1"/><line transform="translate(200,0)" x2="0" y2="5" stroke="#888" stroke-width="1" opacity="1"/><line transform="translate(250,0)" x2="0" y2="5" stroke="#888" stroke-width="1" opacity="1"/><line transform="translate(300,0)" x2="0" y2="5" stroke="#888" stroke-width="1" opacity="1"/><line transform="translate(350,0)" x2="0" y2="5" stroke="#888" stroke-width="1" opacity="1"/><line transform="translate(400,0)" x2="0" y2="5" stroke="#888" stroke-width="1" opacity="1"/></g><g class="mark-text role-axis-label" pointer-events="none"><text text-anchor="start" transform="translate(0,15)" font-family="sans-serif" font-size="10px" fill="#000" opacity="1">2,500</text><text text-anchor="middle" transform="translate(50,15)" font-family="sans-serif" font-size="10px" fill="#000" opacity="1">3,000</text><text text-anchor="middle" transform="translate(100,15)" font-family="sans-serif" font-size="10px" fill="#000" opacity="1">3,500</text><text text-anchor="middle" transform="translate(150,15)" font-family="sans-serif" font-size="10px" fill="#000" opacity="1">4,000</text><text text-anchor="middle" transform="translate(200,15)" font-family="sans-serif" font-size="10px" fill="#000" opacity="1">4,500</text><text text-anchor="middle" transform="translate(250,15)" font-family="sans-serif" font-size="10px" fill="#000" opacity="1">5,000</text><text text-anchor="middle" transform="translate(300,15)" font-family="sans-serif" font-size="10px" fill="#000" opacity="1">5,500</text><text text-anchor="middle" transform="translate(350,15)" font-family="sans-serif" font-size="10px" fill="#000" opacity="1">6,000</text><text text-anchor="end" transform="translate(400,15)" font-family="sans-serif" font-size="10px" fill="#000" opacity="1">6,500</text></g><g class="mark-rule role-axis-domain" pointer-events="none"><line transform="translate(0,0)" x2="400" y2="0" stroke="#888" stroke-width="1" opacity="1"/></g><g class="mark-text role-axis-title" pointer-events="none"><text text-anchor="middle" transform="translate(200,30)" font-family="sans-serif" font-size="11px" font-weight="bold" fill="#000" opacity="1">Body Mass (g)</text></g></g><path class="foreground" aria-hidden="true" d="" pointer-events="none" display="none"/></g></g><g class="mark-group role-axis" role="graphics-symbol" aria-roledescription="axis" aria-label="Y-axis titled 'density' for a linear scale with values from 0.0000 to 0.0020"><g transform="translate(0.5,0.5)"><path class="background" aria-hidden="true" d="M0,0h0v0h0Z" pointer-events="none"/><g><g class="mark-rule role-axis-tick" pointer-events="none"><line transform="translate(0,120)" x2="-5" y2="0" stroke="#888" stroke-width="1" opacity="1"/><line transform="translate(0,90)" x2="-5" y2="0" stroke="#888" stroke-width="1" opacity="1"/><line transform="translate(0,60)" x2="-5" y2="0" stroke="#888" stroke-width="1" opacity="1"/><line transform="translate(0,30)" x2="-5" y2="0" stroke="#888" stroke-width="1" opacity="1"/><line transform="translate(0,0)" x2="-5" y2="0" stroke="#888" stroke-width="1" opacity="1"/></g><g class="mark-text role-axis-label" pointer-events="none"><text text-anchor="end" transform="translate(-7,123)" font-family="sans-serif" font-size="10px" fill="#000" opacity="1">0.0000</text><text text-anchor="end" transform="translate(-7,93)" font-family="sans-serif" font-size="10px" fill="#000" opacity="1">0.0005</text><text text-anchor="end" transform="translate(-7,63)" font-family="sans-serif" font-size="10px" fill="#000" opacity="1">0.0010</text><text text-anchor="end" transform="translate(-7,33)" font-family="sans-serif" font-size="10px" fill="#000" opacity="1">0.0015</text><text text-anchor="end" transform="translate(-7,3)" font-family="sans-serif" font-size="10px" fill="#000" opacity="1">0.0020</text></g><g class="mark-rule role-axis-domain" pointer-events="none"><line transform="translate(0,120)" x2="0" y2="-120" stroke="#888" stroke-width="1" opacity="1"/></g><g class="mark-text role-axis-title" pointer-events="none"><text text-anchor="middle" transform="translate(-44,60) rotate(-90) translate(0,-2)" font-family="sans-serif" font-size="11px" font-weight="bold" fill="#000" opacity="1">density</text></g></g><path class="foreground" aria-hidden="true" d="" pointer-events="none" display="none"/></g></g><g class="mark-group role-scope pathgroup" role="graphics-object" aria-roledescription="group mark container"><g transform="translate(0,0)"><path class="background" aria-hidden="true" d="M0,0h400v120h-400Z"/><g><g class="mark-area role-mark marks" role="graphics-object" aria-roledescription="area mark container"><path aria-label="Body Mass (g): 2500; density: 0.000010403897536; Species: Adelie" role="graphics-symbol" aria-roledescription="area mark" d="M0,118.28990941853209L16,113.70450480402602L32,105.73658743529312L48,93.98291215987695L64,72.74104765989472L80,43.977514470605435L96,22.244054952796795L112.00000000000001,10.941335058436984L128,14.324301671965456L144,30.17091135540632L160,47.20005970592905L176,59.41390855839201L192,63.92640861383619L208,66.00053683036126L224.00000000000003,68.89869766104201L240,74.65114960651407L256,81.4514420127264L272,85.11702661959323L288,86.04266753163759L304,87.86393866237293L320,93.22265976986361L336,101.06793625489773L352,108.74174178438791L368,114.44823574031278L384,117.67329786003609L400,119.16242728507898L400,119.16242728507898L384,117.67329786003609L368,114.44823574031281L352,108.7417417844131L336,101.067936264551L320,93.22266145491159L304,87.86407369591794L288,86.04768696215964L272,85.20482909191043L256,82.1908371350431L240,77.78783313914951L224.00000000000003,76.37196688567614L208,78.51067710387734L192,82.25448681148991L176,83.51256404416418L160,77.16486065532828L144,67.76253985977716L128,58.031627306267595L112.00000000000001,57.260437351326374L96,67.65254306022298L80,83.18797464761779L64,102.51594464613349L48,113.79964492108859L32,115.99683006182252L16,117.12082067446727L0,118.91414327069057Z" fill="#4c78a8"/></g></g><path class="foreground" aria-hidden="true" d="" display="none"/></g><g transform="translate(0,0)"><path class="background" aria-hidden="true" d="M0,0h400v120h-400Z"/><g><g class="mark-area role-mark marks" role="graphics-object" aria-roledescription="area mark container"><path aria-label="Body Mass (g): 2500; density: 0.000018097612155; Species: Chinstrap" role="graphics-symbol" aria-roledescription="area mark" d="M0,118.91414327069057L16,117.12082067446727L32,115.99683006182252L48,113.79964492108859L64,102.51594464613349L80,83.18797464761779L96,67.65254306022298L112.00000000000001,57.260437351326374L128,58.031627306267595L144,67.76253985977716L160,77.16486065532828L176,83.51256404416418L192,82.25448681148991L208,78.51067710387734L224.00000000000003,76.37196688567614L240,77.78783313914951L256,82.1908371350431L272,85.20482909191043L288,86.04768696215964L304,87.86407369591794L320,93.22266145491159L336,101.067936264551L352,108.7417417844131L368,114.44823574031281L384,117.67329786003609L400,119.16242728507898L400,119.16242728507898L384,117.67329786003609L368,114.44823574031281L352,108.74174178441329L336,101.067936264862L320,93.22266163025364L304,87.86410884401907L288,86.05019328361567L272,85.26858969274811L256,82.77918819731201L240,79.94768034724271L224.00000000000003,80.95160305827731L208,87.37305599011809L192,96.04380449937555L176,103.87389690795595L160,110.46481273806302L144,115.46411092819318L128,118.37726654783444L112.00000000000001,119.59103503936146L96,119.93301528051295L80,119.99338610991963L64,119.99962609623498L48,119.99998824392028L32,119.99999979747304L16,119.99999999810241L0,119.99999999999037Z" fill="#f58518"/></g></g><path class="foreground" aria-hidden="true" d="" display="none"/></g><g transform="translate(0,0)"><path class="background" aria-hidden="true" d="M0,0h400v120h-400Z"/><g><g class="mark-area role-mark marks" role="graphics-object" aria-roledescription="area mark container"><path aria-label="Body Mass (g): 2500; density: 1.60574227996e-16; Species: Gentoo" role="graphics-symbol" aria-roledescription="area mark" d="M0,119.99999999999037L16,119.99999999810241L32,119.99999979747304L48,119.99998824392028L64,119.99962609623498L80,119.99338610991963L96,119.93301528051295L112.00000000000001,119.59103503936146L128,118.37726654783444L144,115.46411092819318L160,110.46481273806302L176,103.87389690795595L192,96.04380449937555L208,87.37305599011809L224.00000000000003,80.95160305827731L240,79.94768034724271L256,82.77918819731201L272,85.26858969274811L288,86.05019328361567L304,87.86410884401907L320,93.22266163025364L336,101.067936264862L352,108.74174178441329L368,114.44823574031281L384,117.67329786003609L400,119.16242728507898L400,120L384,120L368,120L352,120L336,120L320,120L304,120L288,120L272,120L256,120L240,120L224.00000000000003,120L208,120L192,120L176,120L160,120L144,120L128,120L112.00000000000001,120L96,120L80,120L64,120L48,120L32,120L16,120L0,120Z" fill="#e45756"/></g></g><path class="foreground" aria-hidden="true" d="" display="none"/></g></g><g class="mark-text role-mark marks_label" role="graphics-object" aria-roledescription="text mark container"><text aria-label="Species: undefined" role="graphics-symbol" aria-roledescription="text mark" text-anchor="middle" transform="translate(112,50)" font-family="sans-serif" font-size="11px" fill="black" opacity="1">Adelie</text><text aria-label="Species: undefined" role="graphics-symbol" aria-roledescription="text mark" text-anchor="middle" transform="translate(128,95)" font-family="sans-serif" font-size="11px" fill="black" opacity="1">Chinstrap</text><text aria-label="Species: undefined" role="graphics-symbol" aria-roledescription="text mark" text-anchor="middle" transform="translate(256,108)" font-family="sans-serif" font-size="11px" fill="black" opacity="1">Gentoo</text></g></g><path class="foreground" aria-hidden="true" d="" display="none"/></g></g></g></svg>