<svg xmlns="http://www.w3.org/2000/svg" xmlns:xlink="http://www.w3.org/1999/xlink" version="1.1" class="marks" width="318" height="242" viewBox="0 0 318 242"><rect width="318" height="242" fill="white"/><g fill="none" stroke-miterlimit="10" transform="translate(113,5)"><g class="mark-group role-frame root" role="graphics-object" aria-roledescription="group mark container"><g transform="translate(0,0)"><path class="background" aria-hidden="true" d="M0.5,0.5h200v200h-200Z" stroke="#ddd"/><g><g class="mark-group role-axis" aria-hidden="true"><g transform="translate(0.5,200.5)"><path class="background" aria-hidden="true" d="M0,0h0v0h0Z" pointer-events="none"/><g><g class="mark-rule role-axis-grid" pointer-events="none"><line transform="translate(8,0)" x2="0" y2="-200" stroke="#ddd" stroke-width="1" opacity="1"/><line transform="translate(50,0)" x2="0" y2="-200" stroke="#ddd" stroke-width="1" opacity="1"/><line transform="translate(92,0)" x2="0" y2="-200" stroke="#ddd" stroke-width="1" opacity="1"/><line transform="translate(133,0)" x2="0" y2="-200" stroke="#ddd" stroke-width="1" opacity="1"/><line transform="translate(175,0)" x2="0" y2="-200" stroke="#ddd" stroke-width="1" opacity="1"/></g></g><path class="foreground" aria-hidden="true" d="" pointer-events="none" display="none"/></g></g><g class="mark-group role-axis" role="graphics-symbol" aria-roledescription="axis" aria-label="X-axis titled 'yield' for a linear scale with values from 24 to 48"><g transform="translate(0.5,200.5)"><path class="background" aria-hidden="true" d="M0,0h0v0h0Z" pointer-events="none"/><g><g class="mark-rule role-axis-tick" pointer-events="none"><line transform="translate(8,0)" x2="0" y2="5" stroke="#888" stroke-width="1" opacity="1"/><line transform="translate(50,0)" x2="0" y2="5" stroke="#888" stroke-width="1" opacity="1"/><line transform="translate(92,0)" x2="0" y2="5" stroke="#888" stroke-width="1" opacity="1"/><line transform="translate(133,0)" x2="0" y2="5" stroke="#888" stroke-width="1" opacity="1"/><line transform="translate(175,0)" x2="0" y2="5" stroke="#888" stroke-width="1" opacity="1"/></g><g class="mark-text role-axis-label" pointer-events="none"><text text-anchor="middle" transform="translate(8.333333333333332,15)" font-family="sans-serif" font-size="10px" fill="#000" opacity="1">25</text><text text-anchor="middle" transform="translate(50,15)" font-family="sans-serif" font-size="10px" fill="#000" opacity="1">30</text><text text-anchor="middle" transform="translate(91.66666666666666,15)" font-family="sans-serif" font-size="10px" fill="#000" opacity="1">35</text><text text-anchor="middle" transform="translate(133.33333333333331,15)" font-family="sans-serif" font-size="10px" fill="#000" opacity="1">40</text><text text-anchor="middle" transform="translate(175,15)" font-family="sans-serif" font-size="10px" fill="#000" opacity="1">45</text></g><g class="mark-rule role-axis-domain" pointer-events="none"><line transform="translate(0,0)" x2="200" y2="0" stroke="#888" stroke-width="1" opacity="1"/></g><g class="mark-text role-axis-title" pointer-events="none"><text text-anchor="middle" transform="translate(100,30)" font-family="sans-serif" font-size="11px" font-weight="bold" fill="#000" opacity="1">yield</text></g></g><path class="foreground" aria-hidden="true" d="" pointer-events="none" display="none"/></g></g><g class="mark-group role-axis" role="graphics-symbol" aria-roledescription="axis" aria-label="Y-axis titled 'variety' for a discrete scale with 10 values: Glabron, Manchuria, No. 457, No. 462, No. 475, ending with Wisconsin No. 38"><g transform="translate(0.5,0.5)"><path class="background" aria-hidden="true" d="M0,0h0v0h0Z" pointer-events="none"/><g><g class="mark-rule role-axis-tick" pointer-events="none"><line transform="translate(0,10)" x2="-5" y2="0" stroke="#888" stroke-width="1" opacity="1"/><line transform="translate(0,30)" x2="-5" y2="0" stroke="#888" stroke-width="1" opacity="1"/><line transform="translate(0,50)" x2="-5" y2="0" stroke="#888" stroke-width="1" opacity="1"/><line transform="translate(0,70)" x2="-5" y2="0" stroke="#888" stroke-width="1" opacity="1"/><line transform="translate(0,90)" x2="-5" y2="0" stroke="#888" stroke-width="1" opacity="1"/><line transform="translate(0,110)" x2="-5" y2="0" stroke="#888" stroke-width="1" opacity="1"/><line transform="translate(0,130)" x2="-5" y2="0" stroke="#888" stroke-width="1" opacity="1"/><line transform="translate(0,150)" x2="-5" y2="0" stroke="#888" stroke-width="1" opacity="1"/><line transform="translate(0,170)" x2="-5" y2="0" stroke="#888" stroke-width="1" opacity="1"/><line transform="translate(0,190)" x2="-5" y2="0" stroke="#888" stroke-width="1" opacity="1"/></g><g class="mark-text role-axis-label" pointer-events="none"><text text-anchor="end" transform="translate(-7,12.5)" font-family="sans-serif" font-size="10px" fill="#000" opacity="1">Glabron</text><text text-anchor="end" transform="translate(-7,32.5)" font-family="sans-serif" font-size="10px" fill="#000" opacity="1">Manchuria</text><text text-anchor="end" transform="translate(-7,52.5)" font-family="sans-serif" font-size="10px" fill="#000" opacity="1">No. 457</text><text text-anchor="end" transform="translate(-7,72.5)" font-family="sans-serif" font-size="10px" fill="#000" opacity="1">No. 462</text><text text-anchor="end" transform="translate(-7,92.5)" font-family="sans-serif" font-size="10px" fill="#000" opacity="1">No. 475</text><text text-anchor="end" transform="translate(-7,112.5)" font-family="sans-serif" font-size="10px" fill="#000" opacity="1">Peatland</text><text text-anchor="end" transform="translate(-7,132.5)" font-family="sans-serif" font-size="10px" fill="#000" opacity="1">Svansota</text><text text-anchor="end" transform="translate(-7,152.5)" font-family="sans-serif" font-size="10px" fill="#000" opacity="1">Trebi</text><text text-anchor="end" transform="translate(-7,172.5)" font-family="sans-serif" font-size="10px" fill="#000" opacity="1">Velvet</text><text text-anchor="end" transform="translate(-7,192.5)" font-family="sans-serif" font-size="10px" fill="#000" opacity="1">Wisconsin No. 38</text></g><g class="mark-rule role-axis-domain" pointer-events="none"><line transform="translate(0,0)" x2="0" y2="200" stroke="#888" stroke-width="1" opacity="1"/></g><g class="mark-text role-axis-title" pointer-events="none"><text text-anchor="middle" transform="translate(-96.6201171875,100) rotate(-90) translate(0,-2)" font-family="sans-serif" font-size="11px" font-weight="bold" fill="#000" opacity="1">variety</text></g></g><path class="foreground" aria-hidden="true" d="" pointer-events="none" display="none"/></g></g><g class="mark-rule role-mark layer_0_marks" role="graphics-object" aria-roledescription="rule mark container"><line aria-label="yield: 26.975; variety: Manchuria; upper_yield: 33.6916675; Q3 of yield: 33.6916675; Q1 of yield: 26.975; Median of yield: 30.96667" role="graphics-symbol" aria-roledescription="errorbar" transform="translate(24.79166666666668,30)" x2="55.97222916666667" y2="0" stroke="black"/><line aria-label="yield: 28.11667; variety: Glabron; upper_yield: 37.83333; Q3 of yield: 37.83333; Q1 of yield: 28.11667; Median of yield: 32.4" role="graphics-symbol" aria-roledescription="errorbar" transform="translate(34.30558333333333,10)" x2="80.9721666666667" y2="0" stroke="black"/><line aria-label="yield: 24.8333325; variety: Svansota; upper_yield: 35.9749975; Q3 of yield: 35.9749975; Q1 of yield: 24.8333325; Median of yield: 28.550005" role="graphics-symbol" aria-roledescription="errorbar" transform="translate(6.944437499999978,130)" x2="92.84720833333337" y2="0" stroke="black"/><line aria-label="yield: 26.2583325; variety: Velvet; upper_yield: 39.0999975; Q3 of yield: 39.0999975; Q1 of yield: 26.2583325; Median of yield: 32.149995" role="graphics-symbol" aria-roledescription="errorbar" transform="translate(18.819437500000014,170)" x2="107.01387499999998" y2="0" stroke="black"/><line aria-label="yield: 30.3916675; variety: Trebi; upper_yield: 46.70833; Q3 of yield: 46.70833; Q1 of yield: 30.3916675; Median of yield: 39.199995" role="graphics-symbol" aria-roledescription="errorbar" transform="translate(53.26389583333334,150)" x2="135.97218750000002" y2="0" stroke="black"/><line aria-label="yield: 28.133335; variety: No. 457; upper_yield: 43.3333375; Q3 of yield: 43.3333375; Q1 of yield: 28.133335; Median of yield: 33.966665" role="graphics-symbol" aria-roledescription="errorbar" transform="translate(34.44445833333332,50)" x2="126.6666875" y2="0" stroke="black"/><line aria-label="yield: 25.4083375; variety: No. 462; upper_yield: 45.275; Q3 of yield: 45.275; Q1 of yield: 25.4083375; Median of yield: 30.45" role="graphics-symbol" aria-roledescription="errorbar" transform="translate(11.736145833333318,70)" x2="165.5555208333334" y2="0" stroke="black"/><line aria-label="yield: 29.41667; variety: Peatland; upper_yield: 37.4249975; Q3 of yield: 37.4249975; Q1 of yield: 29.41667; Median of yield: 32.383335" role="graphics-symbol" aria-roledescription="errorbar" transform="translate(45.13891666666667,110)" x2="66.73606250000003" y2="0" stroke="black"/><line aria-label="yield: 24.1500025; variety: No. 475; upper_yield: 41.9750025; Q3 of yield: 41.9750025; Q1 of yield: 24.1500025; Median of yield: 31.066665" role="graphics-symbol" aria-roledescription="errorbar" transform="translate(1.2500208333333283,90)" x2="148.54166666666669" y2="0" stroke="black"/><line aria-label="yield: 31.0666675; variety: Wisconsin No. 38; upper_yield: 47.84167; Q3 of yield: 47.84167; Q1 of yield: 31.0666675; Median of yield: 36.95" role="graphics-symbol" aria-roledescription="errorbar" transform="translate(58.88889583333334,190)" x2="139.7916875" y2="0" stroke="black"/></g><g class="mark-symbol role-mark layer_1_marks" role="graphics-object" aria-roledescription="symbol mark container"><path aria-label="Median of yield: 30.96667; variety: Manchuria" role="graphics-symbol" aria-roledescription="point" transform="translate(58.05558333333334,30)" d="M2.739,0A2.739,2.739,0,1,1,-2.739,0A2.739,2.739,0,1,1,2.739,0" fill="black" stroke-width="2"/><path aria-label="Median of yield: 32.4; variety: Glabron" role="graphics-symbol" aria-roledescription="point" transform="translate(69.99999999999999,10)" d="M2.739,0A2.739,2.739,0,1,1,-2.739,0A2.739,2.739,0,1,1,2.739,0" fill="black" stroke-width="2"/><path aria-label="Median of yield: 28.550005; variety: Svansota" role="graphics-symbol" aria-roledescription="point" transform="translate(37.91670833333332,130)" d="M2.739,0A2.739,2.739,0,1,1,-2.739,0A2.739,2.739,0,1,1,2.739,0" fill="black" stroke-width="2"/><path aria-label="Median of yield: 32.149995; variety: Velvet" role="graphics-symbol" aria-roledescription="point" transform="translate(67.91662500000002,170)" d="M2.739,0A2.739,2.739,0,1,1,-2.739,0A2.739,2.739,0,1,1,2.739,0" fill="black" stroke-width="2"/><path aria-label="Median of yield: 39.199995; variety: Trebi" role="graphics-symbol" aria-roledescription="point" transform="translate(126.66662500000001,150)" d="M2.739,0A2.739,2.739,0,1,1,-2.739,0A2.739,2.739,0,1,1,2.739,0" fill="black" stroke-width="2"/><path aria-label="Median of yield: 33.966665; variety: No. 457" role="graphics-symbol" aria-roledescription="point" transform="translate(83.05554166666666,50)" d="M2.739,0A2.739,2.739,0,1,1,-2.739,0A2.739,2.739,0,1,1,2.739,0" fill="black" stroke-width="2"/><path aria-label="Median of yield: 30.45; variety: No. 462" role="graphics-symbol" aria-roledescription="point" transform="translate(53.75,70)" d="M2.739,0A2.739,2.739,0,1,1,-2.739,0A2.739,2.739,0,1,1,2.739,0" fill="black" stroke-width="2"/><path aria-label="Median of yield: 32.383335; variety: Peatland" role="graphics-symbol" aria-roledescription="point" transform="translate(69.86112500000003,110)" d="M2.739,0A2.739,2.739,0,1,1,-2.739,0A2.739,2.739,0,1,1,2.739,0" fill="black" stroke-width="2"/><path aria-label="Median of yield: 31.066665; variety: No. 475" role="graphics-symbol" aria-roledescription="point" transform="translate(58.888875000000006,90)" d="M2.739,0A2.739,2.739,0,1,1,-2.739,0A2.739,2.739,0,1,1,2.739,0" fill="black" stroke-width="2"/><path aria-label="Median of yield: 36.95; variety: Wisconsin No. 38" role="graphics-symbol" aria-roledescription="point" transform="translate(107.91666666666669,190)" d="M2.739,0A2.739,2.739,0,1,1,-2.739,0A2.739,2.739,0,1,1,2.739,0" fill="black" stroke-width="2"/></g></g><path class="foreground" aria-hidden="true" d="" display="none"/></g></g></g></svg>