<svg class="marks" width="410" height="247" viewBox="0 0 410 247" version="1.1" xmlns="http://www.w3.org/2000/svg" xmlns:xlink="http://www.w3.org/1999/xlink"><g transform="translate(54,7)"><g class="mark-group role-frame root"><g transform="translate(0,0)"><path class="background" d="M0.5,0.5h200v200h-200Z" style="fill: none; stroke: #ddd;"></path><g><g class="mark-symbol role-mark layer_0_marks"><path transform="translate(57.77777777777777,109.49999999999999)" d="M3.938354770443153,0A3.938354770443153,3.938354770443153,0,1,1,-3.938354770443153,0A3.938354770443153,3.938354770443153,0,1,1,3.938354770443153,0" style="fill: #4c78a8; stroke-width: 2;"></path><path transform="translate(36.666666666666664,71.5)" d="M3.938354770443153,0A3.938354770443153,3.938354770443153,0,1,1,-3.938354770443153,0A3.938354770443153,3.938354770443153,0,1,1,3.938354770443153,0" style="fill: #4c78a8; stroke-width: 2;"></path><path transform="translate(36.666666666666664,90.49999999999999)" d="M3.2156532045472335,0A3.2156532045472335,3.2156532045472335,0,1,1,-3.2156532045472335,0A3.2156532045472335,3.2156532045472335,0,1,1,3.2156532045472335,0" style="fill: #4c78a8; stroke-width: 2;"></path><path transform="translate(57.77777777777777,90.49999999999999)" d="M6.563924617405255,0A6.563924617405255,6.563924617405255,0,1,1,-6.563924617405255,0A6.563924617405255,6.563924617405255,0,1,1,6.563924617405255,0" style="fill: #4c78a8; stroke-width: 2;"></path><path transform="translate(36.666666666666664,52.5)" d="M2.93547632874049,0A2.93547632874049,2.93547632874049,0,1,1,-2.93547632874049,0A2.93547632874049,2.93547632874049,0,1,1,2.93547632874049,0" style="fill: #4c78a8; stroke-width: 2;"></path><path transform="translate(15.55555555555555,14.499999999999972)" d="M1.856558243265828,0A1.856558243265828,1.856558243265828,0,1,1,-1.856558243265828,0A1.856558243265828,1.856558243265828,0,1,1,1.856558243265828,0" style="fill: #4c78a8; stroke-width: 2;"></path><path transform="translate(15.55555555555555,33.5)" d="M1.312784923481051,0A1.312784923481051,1.312784923481051,0,1,1,-1.312784923481051,0A1.312784923481051,1.312784923481051,0,1,1,1.312784923481051,0" style="fill: #4c78a8; stroke-width: 2;"></path><path transform="translate(36.666666666666664,14.499999999999972)" d="M2.2738101868796012,0A2.2738101868796012,2.2738101868796012,0,1,1,-2.2738101868796012,0A2.2738101868796012,2.2738101868796012,0,1,1,2.2738101868796012,0" style="fill: #4c78a8; stroke-width: 2;"></path><path transform="translate(15.55555555555555,52.5)" d="M1.312784923481051,0A1.312784923481051,1.312784923481051,0,1,1,-1.312784923481051,0A1.312784923481051,1.312784923481051,0,1,1,1.312784923481051,0" style="fill: #4c78a8; stroke-width: 2;"></path><path transform="translate(100,128.5)" d="M5.569674729797485,0A5.569674729797485,5.569674729797485,0,1,1,-5.569674729797485,0A5.569674729797485,5.569674729797485,0,1,1,5.569674729797485,0" style="fill: #4c78a8; stroke-width: 2;"></path><path transform="translate(15.55555555555555,71.5)" d="M1.312784923481051,0A1.312784923481051,1.312784923481051,0,1,1,-1.312784923481051,0A1.312784923481051,1.312784923481051,0,1,1,1.312784923481051,0" style="fill: #4c78a8; stroke-width: 2;"></path><path transform="translate(15.55555555555555,90.49999999999999)" d="M1.856558243265828,0A1.856558243265828,1.856558243265828,0,1,1,-1.856558243265828,0A1.856558243265828,1.856558243265828,0,1,1,1.856558243265828,0" style="fill: #4c78a8; stroke-width: 2;"></path><path transform="translate(78.88888888888889,147.5)" d="M9,0A9,9,0,1,1,-9,0A9,9,0,1,1,9,0" style="fill: #4c78a8; stroke-width: 2;"></path><path transform="translate(100,147.5)" d="M8.092549765193146,0A8.092549765193146,8.092549765193146,0,1,1,-8.092549765193146,0A8.092549765193146,8.092549765193146,0,1,1,8.092549765193146,0" style="fill: #4c78a8; stroke-width: 2;"></path><path transform="translate(142.22222222222223,185.5)" d="M2.93547632874049,0A2.93547632874049,2.93547632874049,0,1,1,-2.93547632874049,0A2.93547632874049,2.93547632874049,0,1,1,2.93547632874049,0" style="fill: #4c78a8; stroke-width: 2;"></path><path transform="translate(57.77777777777777,128.5)" d="M4.354015021622071,0A4.354015021622071,4.354015021622071,0,1,1,-4.354015021622071,0A4.354015021622071,4.354015021622071,0,1,1,4.354015021622071,0" style="fill: #4c78a8; stroke-width: 2;"></path><path transform="translate(78.88888888888889,33.5)" d="M1.856558243265828,0A1.856558243265828,1.856558243265828,0,1,1,-1.856558243265828,0A1.856558243265828,1.856558243265828,0,1,1,1.856558243265828,0" style="fill: #4c78a8; stroke-width: 2;"></path><path transform="translate(57.77777777777777,33.5)" d="M1.312784923481051,0A1.312784923481051,1.312784923481051,0,1,1,-1.312784923481051,0A1.312784923481051,1.312784923481051,0,1,1,1.312784923481051,0" style="fill: #4c78a8; stroke-width: 2;"></path><path transform="translate(121.1111111111111,52.5)" d="M1.312784923481051,0A1.312784923481051,1.312784923481051,0,1,1,-1.312784923481051,0A1.312784923481051,1.312784923481051,0,1,1,1.312784923481051,0" style="fill: #4c78a8; stroke-width: 2;"></path><path transform="translate(121.1111111111111,233)" d="M1.312784923481051,0A1.312784923481051,1.312784923481051,0,1,1,-1.312784923481051,0A1.312784923481051,1.312784923481051,0,1,1,1.312784923481051,0" style="fill: none; stroke-width: 2;"></path><path transform="translate(78.88888888888889,128.5)" d="M6.431306409094467,0A6.431306409094467,6.431306409094467,0,1,1,-6.431306409094467,0A6.431306409094467,6.431306409094467,0,1,1,6.431306409094467,0" style="fill: #4c78a8; stroke-width: 2;"></path><path transform="translate(57.77777777777777,71.5)" d="M4.151390436129983,0A4.151390436129983,4.151390436129983,0,1,1,-4.151390436129983,0A4.151390436129983,4.151390436129983,0,1,1,4.151390436129983,0" style="fill: #4c78a8; stroke-width: 2;"></path><path transform="translate(121.1111111111111,166.5)" d="M6.563924617405255,0A6.563924617405255,6.563924617405255,0,1,1,-6.563924617405255,0A6.563924617405255,6.563924617405255,0,1,1,6.563924617405255,0" style="fill: #4c78a8; stroke-width: 2;"></path><path transform="translate(78.88888888888889,166.5)" d="M7.309277113018332,0A7.309277113018332,7.309277113018332,0,1,1,-7.309277113018332,0A7.309277113018332,7.309277113018332,0,1,1,7.309277113018332,0" style="fill: #4c78a8; stroke-width: 2;"></path><path transform="translate(142.22222222222223,166.5)" d="M3.4733024324458186,0A3.4733024324458186,3.4733024324458186,0,1,1,-3.4733024324458186,0A3.4733024324458186,3.4733024324458186,0,1,1,3.4733024324458186,0" style="fill: #4c78a8; stroke-width: 2;"></path><path transform="translate(163.33333333333334,185.5)" d="M2.2738101868796012,0A2.2738101868796012,2.2738101868796012,0,1,1,-2.2738101868796012,0A2.2738101868796012,2.2738101868796012,0,1,1,2.2738101868796012,0" style="fill: #4c78a8; stroke-width: 2;"></path><path transform="translate(121.1111111111111,147.5)" d="M5.251139693924204,0A5.251139693924204,5.251139693924204,0,1,1,-5.251139693924204,0A5.251139693924204,5.251139693924204,0,1,1,5.251139693924204,0" style="fill: #4c78a8; stroke-width: 2;"></path><path transform="translate(36.666666666666664,33.5)" d="M1.856558243265828,0A1.856558243265828,1.856558243265828,0,1,1,-1.856558243265828,0A1.856558243265828,1.856558243265828,0,1,1,1.856558243265828,0" style="fill: #4c78a8; stroke-width: 2;"></path><path transform="translate(57.77777777777777,52.5)" d="M2.625569846962102,0A2.625569846962102,2.625569846962102,0,1,1,-2.625569846962102,0A2.625569846962102,2.625569846962102,0,1,1,2.625569846962102,0" style="fill: #4c78a8; stroke-width: 2;"></path><path transform="translate(57.77777777777777,147.5)" d="M3.4733024324458186,0A3.4733024324458186,3.4733024324458186,0,1,1,-3.4733024324458186,0A3.4733024324458186,3.4733024324458186,0,1,1,3.4733024324458186,0" style="fill: #4c78a8; stroke-width: 2;"></path><path transform="translate(78.88888888888889,109.49999999999999)" d="M3.938354770443153,0A3.938354770443153,3.938354770443153,0,1,1,-3.938354770443153,0A3.938354770443153,3.938354770443153,0,1,1,3.938354770443153,0" style="fill: #4c78a8; stroke-width: 2;"></path><path transform="translate(100,90.49999999999999)" d="M1.856558243265828,0A1.856558243265828,1.856558243265828,0,1,1,-1.856558243265828,0A1.856558243265828,1.856558243265828,0,1,1,1.856558243265828,0" style="fill: #4c78a8; stroke-width: 2;"></path><path transform="translate(78.88888888888889,90.49999999999999)" d="M4.5476203737592025,0A4.5476203737592025,4.5476203737592025,0,1,1,-4.5476203737592025,0A4.5476203737592025,4.5476203737592025,0,1,1,4.5476203737592025,0" style="fill: #4c78a8; stroke-width: 2;"></path><path transform="translate(121.1111111111111,128.5)" d="M3.713116486531656,0A3.713116486531656,3.713116486531656,0,1,1,-3.713116486531656,0A3.713116486531656,3.713116486531656,0,1,1,3.713116486531656,0" style="fill: #4c78a8; stroke-width: 2;"></path><path transform="translate(121.1111111111111,185.5)" d="M2.2738101868796012,0A2.2738101868796012,2.2738101868796012,0,1,1,-2.2738101868796012,0A2.2738101868796012,2.2738101868796012,0,1,1,2.2738101868796012,0" style="fill: #4c78a8; stroke-width: 2;"></path><path transform="translate(100,233)" d="M1.856558243265828,0A1.856558243265828,1.856558243265828,0,1,1,-1.856558243265828,0A1.856558243265828,1.856558243265828,0,1,1,1.856558243265828,0" style="fill: none; stroke-width: 2;"></path><path transform="translate(100,166.5)" d="M6.946604864891637,0A6.946604864891637,6.946604864891637,0,1,1,-6.946604864891637,0A6.946604864891637,6.946604864891637,0,1,1,6.946604864891637,0" style="fill: #4c78a8; stroke-width: 2;"></path><path transform="translate(100,185.5)" d="M2.625569846962102,0A2.625569846962102,2.625569846962102,0,1,1,-2.625569846962102,0A2.625569846962102,2.625569846962102,0,1,1,2.625569846962102,0" style="fill: #4c78a8; stroke-width: 2;"></path><path transform="translate(142.22222222222223,128.5)" d="M1.312784923481051,0A1.312784923481051,1.312784923481051,0,1,1,-1.312784923481051,0A1.312784923481051,1.312784923481051,0,1,1,1.312784923481051,0" style="fill: #4c78a8; stroke-width: 2;"></path><path transform="translate(163.33333333333334,166.5)" d="M1.312784923481051,0A1.312784923481051,1.312784923481051,0,1,1,-1.312784923481051,0A1.312784923481051,1.312784923481051,0,1,1,1.312784923481051,0" style="fill: #4c78a8; stroke-width: 2;"></path><path transform="translate(57.77777777777777,166.5)" d="M2.625569846962102,0A2.625569846962102,2.625569846962102,0,1,1,-2.625569846962102,0A2.625569846962102,2.625569846962102,0,1,1,2.625569846962102,0" style="fill: #4c78a8; stroke-width: 2;"></path><path transform="translate(142.22222222222223,147.5)" d="M2.2738101868796012,0A2.2738101868796012,2.2738101868796012,0,1,1,-2.2738101868796012,0A2.2738101868796012,2.2738101868796012,0,1,1,2.2738101868796012,0" style="fill: #4c78a8; stroke-width: 2;"></path><path transform="translate(100,109.49999999999999)" d="M1.856558243265828,0A1.856558243265828,1.856558243265828,0,1,1,-1.856558243265828,0A1.856558243265828,1.856558243265828,0,1,1,1.856558243265828,0" style="fill: #4c78a8; stroke-width: 2;"></path><path transform="translate(36.666666666666664,109.49999999999999)" d="M1.856558243265828,0A1.856558243265828,1.856558243265828,0,1,1,-1.856558243265828,0A1.856558243265828,1.856558243265828,0,1,1,1.856558243265828,0" style="fill: #4c78a8; stroke-width: 2;"></path><path transform="translate(184.44444444444446,166.5)" d="M1.312784923481051,0A1.312784923481051,1.312784923481051,0,1,1,-1.312784923481051,0A1.312784923481051,1.312784923481051,0,1,1,1.312784923481051,0" style="fill: #4c78a8; stroke-width: 2;"></path><path transform="translate(163.33333333333334,147.5)" d="M1.312784923481051,0A1.312784923481051,1.312784923481051,0,1,1,-1.312784923481051,0A1.312784923481051,1.312784923481051,0,1,1,1.312784923481051,0" style="fill: #4c78a8; stroke-width: 2;"></path><path transform="translate(36.666666666666664,128.5)" d="M1.312784923481051,0A1.312784923481051,1.312784923481051,0,1,1,-1.312784923481051,0A1.312784923481051,1.312784923481051,0,1,1,1.312784923481051,0" style="fill: #4c78a8; stroke-width: 2;"></path><path transform="translate(78.88888888888889,233)" d="M1.856558243265828,0A1.856558243265828,1.856558243265828,0,1,1,-1.856558243265828,0A1.856558243265828,1.856558243265828,0,1,1,1.856558243265828,0" style="fill: none; stroke-width: 2;"></path><path transform="translate(142.22222222222223,233)" d="M1.312784923481051,0A1.312784923481051,1.312784923481051,0,1,1,-1.312784923481051,0A1.312784923481051,1.312784923481051,0,1,1,1.312784923481051,0" style="fill: none; stroke-width: 2;"></path><path transform="translate(184.44444444444446,185.5)" d="M1.312784923481051,0A1.312784923481051,1.312784923481051,0,1,1,-1.312784923481051,0A1.312784923481051,1.312784923481051,0,1,1,1.312784923481051,0" style="fill: #4c78a8; stroke-width: 2;"></path><path transform="translate(36.666666666666664,147.5)" d="M1.312784923481051,0A1.312784923481051,1.312784923481051,0,1,1,-1.312784923481051,0A1.312784923481051,1.312784923481051,0,1,1,1.312784923481051,0" style="fill: #4c78a8; stroke-width: 2;"></path></g><g class="mark-symbol role-mark layer_1_marks"><path transform="translate(78.88888888888889,147.5)" d="M5.251139693924204,0A5.251139693924204,5.251139693924204,0,1,1,-5.251139693924204,0A5.251139693924204,5.251139693924204,0,1,1,5.251139693924204,0" style="fill: firebrick; stroke-width: 2;"></path><path transform="translate(121.1111111111111,166.5)" d="M4.911991406188338,0A4.911991406188338,4.911991406188338,0,1,1,-4.911991406188338,0A4.911991406188338,4.911991406188338,0,1,1,4.911991406188338,0" style="fill: firebrick; stroke-width: 2;"></path><path transform="translate(57.77777777777777,147.5)" d="M2.625569846962102,0A2.625569846962102,2.625569846962102,0,1,1,-2.625569846962102,0A2.625569846962102,2.625569846962102,0,1,1,2.625569846962102,0" style="fill: firebrick; stroke-width: 2;"></path><path transform="translate(100,147.5)" d="M2.625569846962102,0A2.625569846962102,2.625569846962102,0,1,1,-2.625569846962102,0A2.625569846962102,2.625569846962102,0,1,1,2.625569846962102,0" style="fill: firebrick; stroke-width: 2;"></path><path transform="translate(121.1111111111111,147.5)" d="M1.312784923481051,0A1.312784923481051,1.312784923481051,0,1,1,-1.312784923481051,0A1.312784923481051,1.312784923481051,0,1,1,1.312784923481051,0" style="fill: firebrick; stroke-width: 2;"></path><path transform="translate(57.77777777777777,109.49999999999999)" d="M1.856558243265828,0A1.856558243265828,1.856558243265828,0,1,1,-1.856558243265828,0A1.856558243265828,1.856558243265828,0,1,1,1.856558243265828,0" style="fill: firebrick; stroke-width: 2;"></path><path transform="translate(142.22222222222223,166.5)" d="M1.312784923481051,0A1.312784923481051,1.312784923481051,0,1,1,-1.312784923481051,0A1.312784923481051,1.312784923481051,0,1,1,1.312784923481051,0" style="fill: firebrick; stroke-width: 2;"></path><path transform="translate(100,185.5)" d="M2.625569846962102,0A2.625569846962102,2.625569846962102,0,1,1,-2.625569846962102,0A2.625569846962102,2.625569846962102,0,1,1,2.625569846962102,0" style="fill: firebrick; stroke-width: 2;"></path><path transform="translate(100,166.5)" d="M5.722296816057677,0A5.722296816057677,5.722296816057677,0,1,1,-5.722296816057677,0A5.722296816057677,5.722296816057677,0,1,1,5.722296816057677,0" style="fill: firebrick; stroke-width: 2;"></path><path transform="translate(78.88888888888889,128.5)" d="M1.856558243265828,0A1.856558243265828,1.856558243265828,0,1,1,-1.856558243265828,0A1.856558243265828,1.856558243265828,0,1,1,1.856558243265828,0" style="fill: firebrick; stroke-width: 2;"></path><path transform="translate(57.77777777777777,128.5)" d="M2.2738101868796012,0A2.2738101868796012,2.2738101868796012,0,1,1,-2.2738101868796012,0A2.2738101868796012,2.2738101868796012,0,1,1,2.2738101868796012,0" style="fill: firebrick; stroke-width: 2;"></path><path transform="translate(121.1111111111111,185.5)" d="M1.312784923481051,0A1.312784923481051,1.312784923481051,0,1,1,-1.312784923481051,0A1.312784923481051,1.312784923481051,0,1,1,1.312784923481051,0" style="fill: firebrick; stroke-width: 2;"></path><path transform="translate(78.88888888888889,166.5)" d="M3.2156532045472335,0A3.2156532045472335,3.2156532045472335,0,1,1,-3.2156532045472335,0A3.2156532045472335,3.2156532045472335,0,1,1,3.2156532045472335,0" style="fill: firebrick; stroke-width: 2;"></path><path transform="translate(57.77777777777777,166.5)" d="M1.312784923481051,0A1.312784923481051,1.312784923481051,0,1,1,-1.312784923481051,0A1.312784923481051,1.312784923481051,0,1,1,1.312784923481051,0" style="fill: firebrick; stroke-width: 2;"></path><path transform="translate(36.666666666666664,109.49999999999999)" d="M1.312784923481051,0A1.312784923481051,1.312784923481051,0,1,1,-1.312784923481051,0A1.312784923481051,1.312784923481051,0,1,1,1.312784923481051,0" style="fill: firebrick; stroke-width: 2;"></path></g><g class="mark-group role-legend"><g transform="translate(218,0)"><path class="background" d="M0,0h71v88h-71Z" style="pointer-events: none; fill: none;"></path><g><g class="mark-group role-legend-entry"><g transform="translate(0,16)"><path class="background" d="M0,0h0v0h0Z" style="pointer-events: none; fill: none;"></path><g><g class="mark-group role-scope"><g transform="translate(0,0)"><path class="background" d="M0,0h40v11h-40Z" style="pointer-events: none; fill: none; opacity: 1;"></path><g><g class="mark-symbol role-legend-symbol" style="pointer-events: none;"><path transform="translate(9.5,5)" d="M4.151390436129983,0A4.151390436129983,4.151390436129983,0,1,1,-4.151390436129983,0A4.151390436129983,4.151390436129983,0,1,1,4.151390436129983,0" style="fill: #4c78a8; stroke: none; stroke-width: 1.5; opacity: 1;"></path></g><g class="mark-text role-legend-label" style="pointer-events: none;"><text text-anchor="start" transform="translate(23,8)" style="font-family: sans-serif; font-size: 10px; fill: #000; opacity: 1;">10</text></g></g></g><g transform="translate(0,14)"><path class="background" d="M0,0h40v14.37095265748098h-40Z" style="pointer-events: none; fill: none; opacity: 1;"></path><g><g class="mark-symbol role-legend-symbol" style="pointer-events: none;"><path transform="translate(9.5,7)" d="M5.87095265748098,0A5.87095265748098,5.87095265748098,0,1,1,-5.87095265748098,0A5.87095265748098,5.87095265748098,0,1,1,5.87095265748098,0" style="fill: #4c78a8; stroke: none; stroke-width: 1.5; opacity: 1;"></path></g><g class="mark-text role-legend-label" style="pointer-events: none;"><text text-anchor="start" transform="translate(23,10)" style="font-family: sans-serif; font-size: 10px; fill: #000; opacity: 1;">20</text></g></g></g><g transform="translate(0,32)"><path class="background" d="M0,0h40v16.69041915743265h-40Z" style="pointer-events: none; fill: none; opacity: 1;"></path><g><g class="mark-symbol role-legend-symbol" style="pointer-events: none;"><path transform="translate(9.5,8)" d="M7.190419157432651,0A7.190419157432651,7.190419157432651,0,1,1,-7.190419157432651,0A7.190419157432651,7.190419157432651,0,1,1,7.190419157432651,0" style="fill: #4c78a8; stroke: none; stroke-width: 1.5; opacity: 1;"></path></g><g class="mark-text role-legend-label" style="pointer-events: none;"><text text-anchor="start" transform="translate(23,11)" style="font-family: sans-serif; font-size: 10px; fill: #000; opacity: 1;">30</text></g></g></g><g transform="translate(0,52)"><path class="background" d="M0,0h40v19.302780872259973h-40Z" style="pointer-events: none; fill: none; opacity: 1;"></path><g><g class="mark-symbol role-legend-symbol" style="pointer-events: none;"><path transform="translate(9.5,9.5)" d="M8.302780872259966,0A8.302780872259966,8.302780872259966,0,1,1,-8.302780872259966,0A8.302780872259966,8.302780872259966,0,1,1,8.302780872259966,0" style="fill: #4c78a8; stroke: none; stroke-width: 1.5; opacity: 1;"></path></g><g class="mark-text role-legend-label" style="pointer-events: none;"><text text-anchor="start" transform="translate(23,12.5)" style="font-family: sans-serif; font-size: 10px; fill: #000; opacity: 1;">40</text></g></g></g></g></g></g></g><g class="mark-text role-legend-title" style="pointer-events: none;"><text text-anchor="start" transform="translate(0,9)" style="font-family: sans-serif; font-size: 11px; font-weight: bold; fill: #000; opacity: 1;">All Cars</text></g></g></g></g><g class="mark-group role-legend"><g transform="translate(218,96)"><path class="background" d="M0,0h133v88h-133Z" style="pointer-events: none; fill: none;"></path><g><g class="mark-group role-legend-entry"><g transform="translate(0,16)"><path class="background" d="M0,0h0v0h0Z" style="pointer-events: none; fill: none;"></path><g><g class="mark-group role-scope"><g transform="translate(0,0)"><path class="background" d="M0,0h40v11h-40Z" style="pointer-events: none; fill: none; opacity: 1;"></path><g><g class="mark-symbol role-legend-symbol" style="pointer-events: none;"><path transform="translate(9.5,5)" d="M4.151390436129983,0A4.151390436129983,4.151390436129983,0,1,1,-4.151390436129983,0A4.151390436129983,4.151390436129983,0,1,1,4.151390436129983,0" style="fill: firebrick; stroke: none; stroke-width: 1.5; opacity: 1;"></path></g><g class="mark-text role-legend-label" style="pointer-events: none;"><text text-anchor="start" transform="translate(23,8)" style="font-family: sans-serif; font-size: 10px; fill: #000; opacity: 1;">10</text></g></g></g><g transform="translate(0,14)"><path class="background" d="M0,0h40v14.37095265748098h-40Z" style="pointer-events: none; fill: none; opacity: 1;"></path><g><g class="mark-symbol role-legend-symbol" style="pointer-events: none;"><path transform="translate(9.5,7)" d="M5.87095265748098,0A5.87095265748098,5.87095265748098,0,1,1,-5.87095265748098,0A5.87095265748098,5.87095265748098,0,1,1,5.87095265748098,0" style="fill: firebrick; stroke: none; stroke-width: 1.5; opacity: 1;"></path></g><g class="mark-text role-legend-label" style="pointer-events: none;"><text text-anchor="start" transform="translate(23,10)" style="font-family: sans-serif; font-size: 10px; fill: #000; opacity: 1;">20</text></g></g></g><g transform="translate(0,32)"><path class="background" d="M0,0h40v16.69041915743265h-40Z" style="pointer-events: none; fill: none; opacity: 1;"></path><g><g class="mark-symbol role-legend-symbol" style="pointer-events: none;"><path transform="translate(9.5,8)" d="M7.190419157432651,0A7.190419157432651,7.190419157432651,0,1,1,-7.190419157432651,0A7.190419157432651,7.190419157432651,0,1,1,7.190419157432651,0" style="fill: firebrick; stroke: none; stroke-width: 1.5; opacity: 1;"></path></g><g class="mark-text role-legend-label" style="pointer-events: none;"><text text-anchor="start" transform="translate(23,11)" style="font-family: sans-serif; font-size: 10px; fill: #000; opacity: 1;">30</text></g></g></g><g transform="translate(0,52)"><path class="background" d="M0,0h40v19.302780872259973h-40Z" style="pointer-events: none; fill: none; opacity: 1;"></path><g><g class="mark-symbol role-legend-symbol" style="pointer-events: none;"><path transform="translate(9.5,9.5)" d="M8.302780872259966,0A8.302780872259966,8.302780872259966,0,1,1,-8.302780872259966,0A8.302780872259966,8.302780872259966,0,1,1,8.302780872259966,0" style="fill: firebrick; stroke: none; stroke-width: 1.5; opacity: 1;"></path></g><g class="mark-text role-legend-label" style="pointer-events: none;"><text text-anchor="start" transform="translate(23,12.5)" style="font-family: sans-serif; font-size: 10px; fill: #000; opacity: 1;">40</text></g></g></g></g></g></g></g><g class="mark-text role-legend-title" style="pointer-events: none;"><text text-anchor="start" transform="translate(0,9)" style="font-family: sans-serif; font-size: 11px; font-weight: bold; fill: #000; opacity: 1;">Cars from Japan</text></g></g></g></g><g class="mark-group role-axis"><g transform="translate(0.5,200.5)"><path class="background" d="M0,0h0v0h0Z" style="pointer-events: none; fill: none;"></path><g><g class="mark-rule role-axis-tick" style="pointer-events: none;"><line transform="translate(5,0)" x2="0" y2="5" style="fill: none; stroke: #888; stroke-width: 1; opacity: 1;"></line><line transform="translate(26,0)" x2="0" y2="5" style="fill: none; stroke: #888; stroke-width: 1; opacity: 1;"></line><line transform="translate(47,0)" x2="0" y2="5" style="fill: none; stroke: #888; stroke-width: 1; opacity: 1;"></line><line transform="translate(68,0)" x2="0" y2="5" style="fill: none; stroke: #888; stroke-width: 1; opacity: 1;"></line><line transform="translate(89,0)" x2="0" y2="5" style="fill: none; stroke: #888; stroke-width: 1; opacity: 1;"></line><line transform="translate(111,0)" x2="0" y2="5" style="fill: none; stroke: #888; stroke-width: 1; opacity: 1;"></line><line transform="translate(132,0)" x2="0" y2="5" style="fill: none; stroke: #888; stroke-width: 1; opacity: 1;"></line><line transform="translate(153,0)" x2="0" y2="5" style="fill: none; stroke: #888; stroke-width: 1; opacity: 1;"></line><line transform="translate(174,0)" x2="0" y2="5" style="fill: none; stroke: #888; stroke-width: 1; opacity: 1;"></line><line transform="translate(195,0)" x2="0" y2="5" style="fill: none; stroke: #888; stroke-width: 1; opacity: 1;"></line></g><g class="mark-text role-axis-label" style="pointer-events: none;"><text text-anchor="middle" transform="translate(4.999999999999993,15)" style="font-family: sans-serif; font-size: 10px; fill: #000; opacity: 1;">8</text><text text-anchor="middle" transform="translate(26.111111111111107,15)" style="font-family: sans-serif; font-size: 10px; fill: #000; opacity: 1;">10</text><text text-anchor="middle" transform="translate(47.222222222222214,15)" style="font-family: sans-serif; font-size: 10px; fill: #000; opacity: 1;">12</text><text text-anchor="middle" transform="translate(68.33333333333333,15)" style="font-family: sans-serif; font-size: 10px; fill: #000; opacity: 1;">14</text><text text-anchor="middle" transform="translate(89.44444444444444,15)" style="font-family: sans-serif; font-size: 10px; fill: #000; opacity: 1;">16</text><text text-anchor="middle" transform="translate(110.55555555555556,15)" style="font-family: sans-serif; font-size: 10px; fill: #000; opacity: 1;">18</text><text text-anchor="middle" transform="translate(131.66666666666666,15)" style="font-family: sans-serif; font-size: 10px; fill: #000; opacity: 1;">20</text><text text-anchor="middle" transform="translate(152.7777777777778,15)" style="font-family: sans-serif; font-size: 10px; fill: #000; opacity: 1;">22</text><text text-anchor="middle" transform="translate(173.88888888888889,15)" style="font-family: sans-serif; font-size: 10px; fill: #000; opacity: 1;">24</text><text text-anchor="middle" transform="translate(195.00000000000003,15)" style="font-family: sans-serif; font-size: 10px; fill: #000; opacity: 1;">26</text></g><g class="mark-rule role-axis-domain" style="pointer-events: none;"><line transform="translate(0,0)" x2="200" y2="0" style="fill: none; stroke: #888; stroke-width: 1; opacity: 1;"></line></g><g class="mark-text role-axis-title" style="pointer-events: none;"><text text-anchor="middle" transform="translate(100,31)" style="font-family: sans-serif; font-size: 11px; font-weight: bold; fill: #000; opacity: 1;">Acceleration (binned)</text></g></g></g></g><g class="mark-group role-axis"><g transform="translate(0.5,0.5)"><path class="background" d="M0,0h0v0h0Z" style="pointer-events: none; fill: none;"></path><g><g class="mark-rule role-axis-tick" style="pointer-events: none;"><line transform="translate(0,195)" x2="-5" y2="0" style="fill: none; stroke: #888; stroke-width: 1; opacity: 1;"></line><line transform="translate(0,157)" x2="-5" y2="0" style="fill: none; stroke: #888; stroke-width: 1; opacity: 1;"></line><line transform="translate(0,119)" x2="-5" y2="0" style="fill: none; stroke: #888; stroke-width: 1; opacity: 1;"></line><line transform="translate(0,81)" x2="-5" y2="0" style="fill: none; stroke: #888; stroke-width: 1; opacity: 1;"></line><line transform="translate(0,43)" x2="-5" y2="0" style="fill: none; stroke: #888; stroke-width: 1; opacity: 1;"></line><line transform="translate(0,5)" x2="-5" y2="0" style="fill: none; stroke: #888; stroke-width: 1; opacity: 1;"></line></g><g class="mark-text role-axis-label" style="pointer-events: none;"><text text-anchor="end" transform="translate(-7,198)" style="font-family: sans-serif; font-size: 10px; fill: #000; opacity: 1;">40</text><text text-anchor="end" transform="translate(-7,160)" style="font-family: sans-serif; font-size: 10px; fill: #000; opacity: 1;">80</text><text text-anchor="end" transform="translate(-7,122)" style="font-family: sans-serif; font-size: 10px; fill: #000; opacity: 1;">120</text><text text-anchor="end" transform="translate(-7,83.99999999999999)" style="font-family: sans-serif; font-size: 10px; fill: #000; opacity: 1;">160</text><text text-anchor="end" transform="translate(-7,46)" style="font-family: sans-serif; font-size: 10px; fill: #000; opacity: 1;">200</text><text text-anchor="end" transform="translate(-7,7.999999999999972)" style="font-family: sans-serif; font-size: 10px; fill: #000; opacity: 1;">240</text></g><g class="mark-rule role-axis-domain" style="pointer-events: none;"><line transform="translate(0,200)" x2="0" y2="-200" style="fill: none; stroke: #888; stroke-width: 1; opacity: 1;"></line></g><g class="mark-text role-axis-title" style="pointer-events: none;"><text text-anchor="middle" transform="translate(-36,100) rotate(-90) translate(0,-2)" style="font-family: sans-serif; font-size: 11px; font-weight: bold; fill: #000; opacity: 1;">Horsepower (binned)</text></g></g></g></g></g></g></g></g></svg>