<svg xmlns="http://www.w3.org/2000/svg" xmlns:xlink="http://www.w3.org/1999/xlink" version="1.1" class="marks" width="247" height="242" viewBox="0 0 247 242"><rect width="247" height="242" fill="white"/><g fill="none" stroke-miterlimit="10" transform="translate(40,5)"><g class="mark-group role-frame root" role="graphics-object" aria-roledescription="group mark container"><g transform="translate(0,0)"><path class="background" aria-hidden="true" d="M0.5,0.5h200v200h-200Z" stroke="#ddd"/><g><g class="mark-group role-axis" aria-hidden="true"><g transform="translate(0.5,200.5)"><path class="background" aria-hidden="true" d="M0,0h0v0h0Z" pointer-events="none"/><g><g class="mark-rule role-axis-grid" pointer-events="none"><line transform="translate(17,-200)" x2="0" y2="200" stroke="#ddd" stroke-width="1" opacity="1"/><line transform="translate(50,-200)" x2="0" y2="200" stroke="#ddd" stroke-width="1" opacity="1"/><line transform="translate(83,-200)" x2="0" y2="200" stroke="#ddd" stroke-width="1" opacity="1"/><line transform="translate(117,-200)" x2="0" y2="200" stroke="#ddd" stroke-width="1" opacity="1"/><line transform="translate(150,-200)" x2="0" y2="200" stroke="#ddd" stroke-width="1" opacity="1"/><line transform="translate(183,-200)" x2="0" y2="200" stroke="#ddd" stroke-width="1" opacity="1"/></g></g><path class="foreground" aria-hidden="true" d="" pointer-events="none" display="none"/></g></g><g class="mark-group role-axis" aria-hidden="true"><g transform="translate(0.5,0.5)"><path class="background" aria-hidden="true" d="M0,0h0v0h0Z" pointer-events="none"/><g><g class="mark-rule role-axis-grid" pointer-events="none"><line transform="translate(0,192)" x2="200" y2="0" stroke="#ddd" stroke-width="1" opacity="1"/><line transform="translate(0,150)" x2="200" y2="0" stroke="#ddd" stroke-width="1" opacity="1"/><line transform="translate(0,108)" x2="200" y2="0" stroke="#ddd" stroke-width="1" opacity="1"/><line transform="translate(0,67)" x2="200" y2="0" stroke="#ddd" stroke-width="1" opacity="1"/><line transform="translate(0,25)" x2="200" y2="0" stroke="#ddd" stroke-width="1" opacity="1"/></g></g><path class="foreground" aria-hidden="true" d="" pointer-events="none" display="none"/></g></g><g class="mark-group role-axis" role="graphics-symbol" aria-roledescription="axis" aria-label="X-axis titled 'Year (year)' for a time scale with values from 1969 to 1981"><g transform="translate(0.5,200.5)"><path class="background" aria-hidden="true" d="M0,0h0v0h0Z" pointer-events="none"/><g><g class="mark-rule role-axis-tick" pointer-events="none"><line transform="translate(17,0)" x2="0" y2="5" stroke="#888" stroke-width="1" opacity="1"/><line transform="translate(50,0)" x2="0" y2="5" stroke="#888" stroke-width="1" opacity="1"/><line transform="translate(83,0)" x2="0" y2="5" stroke="#888" stroke-width="1" opacity="1"/><line transform="translate(117,0)" x2="0" y2="5" stroke="#888" stroke-width="1" opacity="1"/><line transform="translate(150,0)" x2="0" y2="5" stroke="#888" stroke-width="1" opacity="1"/><line transform="translate(183,0)" x2="0" y2="5" stroke="#888" stroke-width="1" opacity="1"/></g><g class="mark-text role-axis-label" pointer-events="none"><text text-anchor="middle" transform="translate(16.65525895505362,15)" font-family="sans-serif" font-size="10px" fill="#000" opacity="1">1970</text><text text-anchor="middle" transform="translate(49.96577686516085,15)" font-family="sans-serif" font-size="10px" fill="#000" opacity="1">1972</text><text text-anchor="middle" transform="translate(83.32192562172028,15)" font-family="sans-serif" font-size="10px" fill="#000" opacity="1">1974</text><text text-anchor="middle" transform="translate(116.6324435318275,15)" font-family="sans-serif" font-size="10px" fill="#000" opacity="1">1976</text><text text-anchor="middle" transform="translate(149.98859228838694,15)" font-family="sans-serif" font-size="10px" fill="#000" opacity="1">1978</text><text text-anchor="middle" transform="translate(183.2991101984942,15)" font-family="sans-serif" font-size="10px" fill="#000" opacity="1">1980</text></g><g class="mark-rule role-axis-domain" pointer-events="none"><line transform="translate(0,0)" x2="200" y2="0" stroke="#888" stroke-width="1" opacity="1"/></g><g class="mark-text role-axis-title" pointer-events="none"><text text-anchor="middle" transform="translate(100,30)" font-family="sans-serif" font-size="11px" font-weight="bold" fill="#000" opacity="1">Year (year)</text></g></g><path class="foreground" aria-hidden="true" d="" pointer-events="none" display="none"/></g></g><g class="mark-group role-axis" role="graphics-symbol" aria-roledescription="axis" aria-label="Y-axis titled 'Miles per Gallon (95% CIs)' for a linear scale with values from 14 to 38"><g transform="translate(0.5,0.5)"><path class="background" aria-hidden="true" d="M0,0h0v0h0Z" pointer-events="none"/><g><g class="mark-rule role-axis-tick" pointer-events="none"><line transform="translate(0,192)" x2="-5" y2="0" stroke="#888" stroke-width="1" opacity="1"/><line transform="translate(0,150)" x2="-5" y2="0" stroke="#888" stroke-width="1" opacity="1"/><line transform="translate(0,108)" x2="-5" y2="0" stroke="#888" stroke-width="1" opacity="1"/><line transform="translate(0,67)" x2="-5" y2="0" stroke="#888" stroke-width="1" opacity="1"/><line transform="translate(0,25)" x2="-5" y2="0" stroke="#888" stroke-width="1" opacity="1"/></g><g class="mark-text role-axis-label" pointer-events="none"><text text-anchor="end" transform="translate(-7,194.66666666666669)" font-family="sans-serif" font-size="10px" fill="#000" opacity="1">15</text><text text-anchor="end" transform="translate(-7,153)" font-family="sans-serif" font-size="10px" fill="#000" opacity="1">20</text><text text-anchor="end" transform="translate(-7,111.33333333333334)" font-family="sans-serif" font-size="10px" fill="#000" opacity="1">25</text><text text-anchor="end" transform="translate(-7,69.66666666666667)" font-family="sans-serif" font-size="10px" fill="#000" opacity="1">30</text><text text-anchor="end" transform="translate(-7,28)" font-family="sans-serif" font-size="10px" fill="#000" opacity="1">35</text></g><g class="mark-rule role-axis-domain" pointer-events="none"><line transform="translate(0,200)" x2="0" y2="-200" stroke="#888" stroke-width="1" opacity="1"/></g><g class="mark-text role-axis-title" pointer-events="none"><text text-anchor="middle" transform="translate(-23.724609375,100) rotate(-90) translate(0,-2)" font-family="sans-serif" font-size="11px" font-weight="bold" fill="#000" opacity="1">Miles per Gallon (95% CIs)</text></g></g><path class="foreground" aria-hidden="true" d="" pointer-events="none" display="none"/></g></g><g class="mark-area role-mark layer_0_layer_0_marks" role="graphics-object" aria-roledescription="area mark container"><path aria-label="Year (year): Jan 01, 1969; Miles_per_Gallon: 15.6887931034; upper_Miles_per_Gallon: 19.4827586207; Ci1 of Miles_per_Gallon: 19.4827586207; Ci0 of Miles_per_Gallon: 15.6887931034; Mean of Miles_per_Gallon: 17.6896551724" role="graphics-symbol" aria-roledescription="errorband" d="M0,185.927L16.655,158.043L33.311,177.388L49.966,185.005L66.667,149.09L83.322,161.667L99.977,151.596L116.632,141.964L133.333,133.428L149.989,128.772L166.644,55.088L200,71.057L200,46.818L166.644,14.364L149.989,90.488L133.333,98.744L116.632,101.923L99.977,120.098L83.322,134.167L66.667,107.099L49.966,161.042L33.311,145.238L16.655,121.131L0,154.31Z" fill="#4c78a8" opacity="0.3"/></g><g class="mark-line role-mark layer_0_layer_1_marks" aria-hidden="true"><path d="M0,185.927L16.655,158.043L33.311,177.388L49.966,185.005L66.667,149.09L83.322,161.667L99.977,151.596L116.632,141.964L133.333,133.428L149.989,128.772L166.644,55.088L200,71.057" stroke="#4c78a8" stroke-width="2" stroke-dasharray="6,4" opacity="0.5"/></g><g class="mark-line role-mark layer_0_layer_2_marks" aria-hidden="true"><path d="M0,154.31L16.655,121.131L33.311,145.238L49.966,161.042L66.667,107.099L83.322,134.167L99.977,120.098L116.632,101.923L133.333,98.744L149.989,90.488L166.644,14.364L200,46.818" stroke="#4c78a8" stroke-width="2" stroke-dasharray="6,4" opacity="0.5"/></g><g class="mark-line role-mark layer_1_marks" role="graphics-object" aria-roledescription="line mark container"><path aria-label="Year (year): 1969; Mean of Miles_per_Gallon: 17.6896551724" role="graphics-symbol" aria-roledescription="line mark" d="M0,169.253L16.655,139.583L33.311,160.714L49.966,174.167L66.667,127.469L83.322,147.778L99.977,136.887L116.632,121.875L133.333,116.157L149.989,107.557L166.644,35.862L200,57.958" stroke="#4c78a8" stroke-width="2"/></g></g><path class="foreground" aria-hidden="true" d="" display="none"/></g></g></g></svg>