<svg class="marks" width="257" height="271" viewBox="0 0 257 271" version="1.1" xmlns="http://www.w3.org/2000/svg" xmlns:xlink="http://www.w3.org/1999/xlink"><g transform="translate(50,11)"><g class="mark-group role-frame root"><g transform="translate(0,0)"><path class="background" d="M0.5,0.5h200v200h-200Z" style="fill: transparent; stroke: #ddd;"></path><g><g class="mark-group role-axis"><g transform="translate(0.5,200.5)"><path class="background" d="M0,0h0v0h0Z" style="pointer-events: none; fill: none;"></path><g><g class="mark-rule role-axis-grid" style="pointer-events: none;"><line transform="translate(17,-200)" x2="0" y2="200" style="fill: none; stroke: #ddd; stroke-width: 1; stroke-dasharray: ; opacity: 1;"></line><line transform="translate(50,-200)" x2="0" y2="200" style="fill: none; stroke: #ddd; stroke-width: 1; stroke-dasharray: ; opacity: 1;"></line><line transform="translate(83,-200)" x2="0" y2="200" style="fill: none; stroke: #ddd; stroke-width: 1; stroke-dasharray: ; opacity: 1;"></line><line transform="translate(117,-200)" x2="0" y2="200" style="fill: none; stroke: #ddd; stroke-width: 1; stroke-dasharray: ; opacity: 1;"></line><line transform="translate(150,-200)" x2="0" y2="200" style="fill: none; stroke: #ddd; stroke-width: 1; stroke-dasharray: ; opacity: 1;"></line><line transform="translate(183,-200)" x2="0" y2="200" style="fill: none; stroke: #ddd; stroke-width: 1; stroke-dasharray: ; opacity: 1;"></line></g></g></g></g><g class="mark-group role-axis"><g transform="translate(0.5,0.5)"><path class="background" d="M0,0h0v0h0Z" style="pointer-events: none; fill: none;"></path><g><g class="mark-rule role-axis-grid" style="pointer-events: none;"><line transform="translate(0,200)" x2="200" y2="0" style="fill: none; stroke: #ddd; stroke-width: 1; stroke-dasharray: ; opacity: 1;"></line><line transform="translate(0,150)" x2="200" y2="0" style="fill: none; stroke: #ddd; stroke-width: 1; stroke-dasharray: ; opacity: 1;"></line><line transform="translate(0,100)" x2="200" y2="0" style="fill: none; stroke: #ddd; stroke-width: 1; stroke-dasharray: ; opacity: 1;"></line><line transform="translate(0,50)" x2="200" y2="0" style="fill: none; stroke: #ddd; stroke-width: 1; stroke-dasharray: ; opacity: 1;"></line><line transform="translate(0,0)" x2="200" y2="0" style="fill: none; stroke: #ddd; stroke-width: 1; stroke-dasharray: ; opacity: 1;"></line></g></g></g></g><g class="mark-area role-mark layer_0_marks"><path d="M200,51.368750000000006L166.64385124344057,44.039224137931L149.98859228838694,86.72456896551725L133.33333333333331,90.96527777777771L116.6324435318275,94.91071428571429L99.97718457677391,102.06066176470587L83.32192562172028,106.83749999999999L66.66666666666666,98.14814814814814L49.96577686516085,121.375L33.31051791010724,115.89285714285712L16.65525895505362,104.64285714285714L0,120L0,102.06034482758623L16.65525895505362,81.96428571428571L33.31051791010724,96.42857142857142L49.96577686516085,106.75000000000001L66.66666666666666,75L83.32192562172028,89.49583333333334L99.97718457677391,81.76102941176471L116.6324435318275,70.98214285714286L133.33333333333331,67.8690972222222L149.98859228838694,61.79267241379313L166.64385124344057,19.050431034482727L200,37.790833333333325Z" style="fill: #4c78a8; opacity: 0.3;"></path></g><g class="mark-line role-mark layer_1_marks"><path d="M200,44.77499999999998L166.64385124344057,31.517241379310406L149.98859228838694,74.5344827586207L133.33333333333331,79.69444444444444L116.6324435318275,83.12499999999996L99.97718457677391,92.13235294117648L83.32192562172028,98.66666666666666L66.66666666666666,86.48148148148145L49.96577686516085,114.49999999999999L33.31051791010724,106.42857142857143L16.65525895505362,93.74999999999997L0,111.55172413793103" style="fill: none; stroke: #4c78a8; stroke-width: 2;"></path></g><g class="mark-group role-axis"><g transform="translate(0.5,200.5)"><path class="background" d="M0,0h0v0h0Z" style="pointer-events: none; fill: none;"></path><g><g class="mark-rule role-axis-tick" style="pointer-events: none;"><line transform="translate(17,0)" x2="0" y2="5" style="fill: none; stroke: #888; stroke-width: 1; opacity: 1;"></line><line transform="translate(50,0)" x2="0" y2="5" style="fill: none; stroke: #888; stroke-width: 1; opacity: 1;"></line><line transform="translate(83,0)" x2="0" y2="5" style="fill: none; stroke: #888; stroke-width: 1; opacity: 1;"></line><line transform="translate(117,0)" x2="0" y2="5" style="fill: none; stroke: #888; stroke-width: 1; opacity: 1;"></line><line transform="translate(150,0)" x2="0" y2="5" style="fill: none; stroke: #888; stroke-width: 1; opacity: 1;"></line><line transform="translate(183,0)" x2="0" y2="5" style="fill: none; stroke: #888; stroke-width: 1; opacity: 1;"></line></g><g class="mark-text role-axis-label" style="pointer-events: none;"><text text-anchor="end" transform="translate(16.65525895505362,7) rotate(270) translate(0,3)" style="font: 10px sans-serif; fill: #000; opacity: 1;">1970</text><text text-anchor="end" transform="translate(49.96577686516085,7) rotate(270) translate(0,3)" style="font: 10px sans-serif; fill: #000; opacity: 1;">1972</text><text text-anchor="end" transform="translate(83.32192562172028,7) rotate(270) translate(0,3)" style="font: 10px sans-serif; fill: #000; opacity: 1;">1974</text><text text-anchor="end" transform="translate(116.6324435318275,7) rotate(270) translate(0,3)" style="font: 10px sans-serif; fill: #000; opacity: 1;">1976</text><text text-anchor="end" transform="translate(149.98859228838694,7) rotate(270) translate(0,3)" style="font: 10px sans-serif; fill: #000; opacity: 1;">1978</text><text text-anchor="end" transform="translate(183.2991101984942,7) rotate(270) translate(0,3)" style="font: 10px sans-serif; fill: #000; opacity: 1;">1980</text></g><g class="mark-rule role-axis-domain" style="pointer-events: none;"><line transform="translate(0,0)" x2="200" y2="0" style="fill: none; stroke: #888; stroke-width: 1; opacity: 1;"></line></g><g class="mark-text role-axis-title" style="pointer-events: none;"><text text-anchor="middle" transform="translate(100,52)" style="font: bold 11px sans-serif; fill: #000; opacity: 1;">YEAR(Year)</text></g></g></g></g><g class="mark-group role-axis"><g transform="translate(0.5,0.5)"><path class="background" d="M0,0h0v0h0Z" style="pointer-events: none; fill: none;"></path><g><g class="mark-rule role-axis-tick" style="pointer-events: none;"><line transform="translate(0,200)" x2="-5" y2="0" style="fill: none; stroke: #888; stroke-width: 1; opacity: 1;"></line><line transform="translate(0,150)" x2="-5" y2="0" style="fill: none; stroke: #888; stroke-width: 1; opacity: 1;"></line><line transform="translate(0,100)" x2="-5" y2="0" style="fill: none; stroke: #888; stroke-width: 1; opacity: 1;"></line><line transform="translate(0,50)" x2="-5" y2="0" style="fill: none; stroke: #888; stroke-width: 1; opacity: 1;"></line><line transform="translate(0,0)" x2="-5" y2="0" style="fill: none; stroke: #888; stroke-width: 1; opacity: 1;"></line></g><g class="mark-text role-axis-label" style="pointer-events: none;"><text text-anchor="end" transform="translate(-7,203)" style="font: 10px sans-serif; fill: #000; opacity: 1;">0</text><text text-anchor="end" transform="translate(-7,153)" style="font: 10px sans-serif; fill: #000; opacity: 1;">10</text><text text-anchor="end" transform="translate(-7,103)" style="font: 10px sans-serif; fill: #000; opacity: 1;">20</text><text text-anchor="end" transform="translate(-7,53)" style="font: 10px sans-serif; fill: #000; opacity: 1;">30</text><text text-anchor="end" transform="translate(-7,3)" style="font: 10px sans-serif; fill: #000; opacity: 1;">40</text></g><g class="mark-rule role-axis-domain" style="pointer-events: none;"><line transform="translate(0,200)" x2="0" y2="-200" style="fill: none; stroke: #888; stroke-width: 1; opacity: 1;"></line></g><g class="mark-text role-axis-title" style="pointer-events: none;"><text text-anchor="middle" transform="translate(-32,100) rotate(-90) translate(0,-2)" style="font: bold 11px sans-serif; fill: #000; opacity: 1;">Miles/Gallon</text></g></g></g></g></g></g></g></g></svg>