<svg xmlns="http://www.w3.org/2000/svg" xmlns:xlink="http://www.w3.org/1999/xlink" version="1.1" class="marks" width="457" height="347" viewBox="0 0 457 347"><rect width="457" height="347" fill="white"/><g fill="none" stroke-miterlimit="10" transform="translate(47,10)"><g class="mark-group role-frame root" role="graphics-object" aria-roledescription="group mark container"><g transform="translate(0,0)"><path class="background" aria-hidden="true" d="M0.5,0.5h400v300h-400Z" stroke="#ddd"/><g><g class="mark-group role-axis" aria-hidden="true"><g transform="translate(0.5,300.5)"><path class="background" aria-hidden="true" d="M0,0h0v0h0Z" pointer-events="none"/><g><g class="mark-rule role-axis-grid" pointer-events="none"><line transform="translate(0,-300)" x2="0" y2="300" stroke="#ddd" stroke-width="1" opacity="1"/><line transform="translate(67,-300)" x2="0" y2="300" stroke="#ddd" stroke-width="1" opacity="1"/><line transform="translate(133,-300)" x2="0" y2="300" stroke="#ddd" stroke-width="1" opacity="1"/><line transform="translate(200,-300)" x2="0" y2="300" stroke="#ddd" stroke-width="1" opacity="1"/><line transform="translate(267,-300)" x2="0" y2="300" stroke="#ddd" stroke-width="1" opacity="1"/><line transform="translate(333,-300)" x2="0" y2="300" stroke="#ddd" stroke-width="1" opacity="1"/><line transform="translate(400,-300)" x2="0" y2="300" stroke="#ddd" stroke-width="1" opacity="1"/></g></g><path class="foreground" aria-hidden="true" d="" pointer-events="none" display="none"/></g></g><g class="mark-group role-axis" aria-hidden="true"><g transform="translate(0.5,0.5)"><path class="background" aria-hidden="true" d="M0,0h0v0h0Z" pointer-events="none"/><g><g class="mark-rule role-axis-grid" pointer-events="none"><line transform="translate(0,300)" x2="400" y2="0" stroke="#ddd" stroke-width="1" opacity="1"/><line transform="translate(0,263)" x2="400" y2="0" stroke="#ddd" stroke-width="1" opacity="1"/><line transform="translate(0,225)" x2="400" y2="0" stroke="#ddd" stroke-width="1" opacity="1"/><line transform="translate(0,188)" x2="400" y2="0" stroke="#ddd" stroke-width="1" opacity="1"/><line transform="translate(0,150)" x2="400" y2="0" stroke="#ddd" stroke-width="1" opacity="1"/><line transform="translate(0,113)" x2="400" y2="0" stroke="#ddd" stroke-width="1" opacity="1"/><line transform="translate(0,75)" x2="400" y2="0" stroke="#ddd" stroke-width="1" opacity="1"/><line transform="translate(0,38)" x2="400" y2="0" stroke="#ddd" stroke-width="1" opacity="1"/><line transform="translate(0,0)" x2="400" y2="0" stroke="#ddd" stroke-width="1" opacity="1"/></g></g><path class="foreground" aria-hidden="true" d="" pointer-events="none" display="none"/></g></g><g class="mark-group role-axis" role="graphics-symbol" aria-roledescription="axis" aria-label="X-axis titled 'date (year)' for a time scale with values from 2004 to 2010"><g transform="translate(0.5,300.5)"><path class="background" aria-hidden="true" d="M0,0h0v0h0Z" pointer-events="none"/><g><g class="mark-rule role-axis-tick" pointer-events="none"><line transform="translate(0,0)" x2="0" y2="5" stroke="#888" stroke-width="1" opacity="1"/><line transform="translate(67,0)" x2="0" y2="5" stroke="#888" stroke-width="1" opacity="1"/><line transform="translate(133,0)" x2="0" y2="5" stroke="#888" stroke-width="1" opacity="1"/><line transform="translate(200,0)" x2="0" y2="5" stroke="#888" stroke-width="1" opacity="1"/><line transform="translate(267,0)" x2="0" y2="5" stroke="#888" stroke-width="1" opacity="1"/><line transform="translate(333,0)" x2="0" y2="5" stroke="#888" stroke-width="1" opacity="1"/><line transform="translate(400,0)" x2="0" y2="5" stroke="#888" stroke-width="1" opacity="1"/></g><g class="mark-text role-axis-label" pointer-events="none"><text text-anchor="start" transform="translate(0,15)" font-family="sans-serif" font-size="10px" fill="#000" opacity="1">2004</text><text text-anchor="middle" transform="translate(66.78832116788321,15)" font-family="sans-serif" font-size="10px" fill="#000" opacity="1">2005</text><text text-anchor="middle" transform="translate(133.3941605839416,15)" font-family="sans-serif" font-size="10px" fill="#000" opacity="1">2006</text><text text-anchor="middle" transform="translate(200,15)" font-family="sans-serif" font-size="10px" fill="#000" opacity="1">2007</text><text text-anchor="middle" transform="translate(266.60583941605836,15)" font-family="sans-serif" font-size="10px" fill="#000" opacity="1">2008</text><text text-anchor="middle" transform="translate(333.39416058394164,15)" font-family="sans-serif" font-size="10px" fill="#000" opacity="1">2009</text><text text-anchor="end" transform="translate(400,15)" font-family="sans-serif" font-size="10px" fill="#000" opacity="1">2010</text></g><g class="mark-rule role-axis-domain" pointer-events="none"><line transform="translate(0,0)" x2="400" y2="0" stroke="#888" stroke-width="1" opacity="1"/></g><g class="mark-text role-axis-title" pointer-events="none"><text text-anchor="middle" transform="translate(200,30)" font-family="sans-serif" font-size="11px" font-weight="bold" fill="#000" opacity="1">date (year)</text></g></g><path class="foreground" aria-hidden="true" d="" pointer-events="none" display="none"/></g></g><g class="mark-group role-axis" role="graphics-symbol" aria-roledescription="axis" aria-label="Y-axis titled 'price, Mean of price' for a linear scale with values from 0 to 800"><g transform="translate(0.5,0.5)"><path class="background" aria-hidden="true" d="M0,0h0v0h0Z" pointer-events="none"/><g><g class="mark-rule role-axis-tick" pointer-events="none"><line transform="translate(0,300)" x2="-5" y2="0" stroke="#888" stroke-width="1" opacity="1"/><line transform="translate(0,263)" x2="-5" y2="0" stroke="#888" stroke-width="1" opacity="1"/><line transform="translate(0,225)" x2="-5" y2="0" stroke="#888" stroke-width="1" opacity="1"/><line transform="translate(0,188)" x2="-5" y2="0" stroke="#888" stroke-width="1" opacity="1"/><line transform="translate(0,150)" x2="-5" y2="0" stroke="#888" stroke-width="1" opacity="1"/><line transform="translate(0,113)" x2="-5" y2="0" stroke="#888" stroke-width="1" opacity="1"/><line transform="translate(0,75)" x2="-5" y2="0" stroke="#888" stroke-width="1" opacity="1"/><line transform="translate(0,38)" x2="-5" y2="0" stroke="#888" stroke-width="1" opacity="1"/><line transform="translate(0,0)" x2="-5" y2="0" stroke="#888" stroke-width="1" opacity="1"/></g><g class="mark-text role-axis-label" pointer-events="none"><text text-anchor="end" transform="translate(-7,303)" font-family="sans-serif" font-size="10px" fill="#000" opacity="1">0</text><text text-anchor="end" transform="translate(-7,265.5)" font-family="sans-serif" font-size="10px" fill="#000" opacity="1">100</text><text text-anchor="end" transform="translate(-7,228)" font-family="sans-serif" font-size="10px" fill="#000" opacity="1">200</text><text text-anchor="end" transform="translate(-7,190.5)" font-family="sans-serif" font-size="10px" fill="#000" opacity="1">300</text><text text-anchor="end" transform="translate(-7,153)" font-family="sans-serif" font-size="10px" fill="#000" opacity="1">400</text><text text-anchor="end" transform="translate(-7,115.5)" font-family="sans-serif" font-size="10px" fill="#000" opacity="1">500</text><text text-anchor="end" transform="translate(-7,78)" font-family="sans-serif" font-size="10px" fill="#000" opacity="1">600</text><text text-anchor="end" transform="translate(-7,40.5)" font-family="sans-serif" font-size="10px" fill="#000" opacity="1">700</text><text text-anchor="end" transform="translate(-7,3)" font-family="sans-serif" font-size="10px" fill="#000" opacity="1">800</text></g><g class="mark-rule role-axis-domain" pointer-events="none"><line transform="translate(0,300)" x2="0" y2="-300" stroke="#888" stroke-width="1" opacity="1"/></g><g class="mark-text role-axis-title" pointer-events="none"><text text-anchor="middle" transform="translate(-30.0869140625,150) rotate(-90) translate(0,-2)" font-family="sans-serif" font-size="11px" font-weight="bold" fill="#000" opacity="1">price, Mean of price</text></g></g><path class="foreground" aria-hidden="true" d="" pointer-events="none" display="none"/></g></g><g class="mark-symbol role-mark layer_0_marks" role="graphics-object" aria-roledescription="symbol mark container"><path aria-label="date (year): 2004; price: 102.37" role="graphics-symbol" aria-roledescription="point" transform="translate(0,261.61125)" d="M2.739,0A2.739,2.739,0,1,1,-2.739,0A2.739,2.739,0,1,1,2.739,0" stroke="#4c78a8" stroke-width="2" opacity="0.3"/><path aria-label="date (year): 2004; price: 129.6" role="graphics-symbol" aria-roledescription="point" transform="translate(0,251.39999999999998)" d="M2.739,0A2.739,2.739,0,1,1,-2.739,0A2.739,2.739,0,1,1,2.739,0" stroke="#4c78a8" stroke-width="2" opacity="0.3"/><path aria-label="date (year): 2004; price: 190.64" role="graphics-symbol" aria-roledescription="point" transform="translate(0,228.51000000000002)" d="M2.739,0A2.739,2.739,0,1,1,-2.739,0A2.739,2.739,0,1,1,2.739,0" stroke="#4c78a8" stroke-width="2" opacity="0.3"/><path aria-label="date (year): 2004; price: 181.98" role="graphics-symbol" aria-roledescription="point" transform="translate(0,231.7575)" d="M2.739,0A2.739,2.739,0,1,1,-2.739,0A2.739,2.739,0,1,1,2.739,0" stroke="#4c78a8" stroke-width="2" opacity="0.3"/><path aria-label="date (year): 2004; price: 192.79" role="graphics-symbol" aria-roledescription="point" transform="translate(0,227.70374999999999)" d="M2.739,0A2.739,2.739,0,1,1,-2.739,0A2.739,2.739,0,1,1,2.739,0" stroke="#4c78a8" stroke-width="2" opacity="0.3"/><path aria-label="date (year): 2005; price: 195.62" role="graphics-symbol" aria-roledescription="point" transform="translate(66.78832116788321,226.6425)" d="M2.739,0A2.739,2.739,0,1,1,-2.739,0A2.739,2.739,0,1,1,2.739,0" stroke="#4c78a8" stroke-width="2" opacity="0.3"/><path aria-label="date (year): 2005; price: 187.99" role="graphics-symbol" aria-roledescription="point" transform="translate(66.78832116788321,229.50375)" d="M2.739,0A2.739,2.739,0,1,1,-2.739,0A2.739,2.739,0,1,1,2.739,0" stroke="#4c78a8" stroke-width="2" opacity="0.3"/><path aria-label="date (year): 2005; price: 180.51" role="graphics-symbol" aria-roledescription="point" transform="translate(66.78832116788321,232.30875000000003)" d="M2.739,0A2.739,2.739,0,1,1,-2.739,0A2.739,2.739,0,1,1,2.739,0" stroke="#4c78a8" stroke-width="2" opacity="0.3"/><path aria-label="date (year): 2005; price: 220" role="graphics-symbol" aria-roledescription="point" transform="translate(66.78832116788321,217.5)" d="M2.739,0A2.739,2.739,0,1,1,-2.739,0A2.739,2.739,0,1,1,2.739,0" stroke="#4c78a8" stroke-width="2" opacity="0.3"/><path aria-label="date (year): 2005; price: 277.27" role="graphics-symbol" aria-roledescription="point" transform="translate(66.78832116788321,196.02374999999998)" d="M2.739,0A2.739,2.739,0,1,1,-2.739,0A2.739,2.739,0,1,1,2.739,0" stroke="#4c78a8" stroke-width="2" opacity="0.3"/><path aria-label="date (year): 2005; price: 294.15" role="graphics-symbol" aria-roledescription="point" transform="translate(66.78832116788321,189.69375000000002)" d="M2.739,0A2.739,2.739,0,1,1,-2.739,0A2.739,2.739,0,1,1,2.739,0" stroke="#4c78a8" stroke-width="2" opacity="0.3"/><path aria-label="date (year): 2005; price: 287.76" role="graphics-symbol" aria-roledescription="point" transform="translate(66.78832116788321,192.09000000000003)" d="M2.739,0A2.739,2.739,0,1,1,-2.739,0A2.739,2.739,0,1,1,2.739,0" stroke="#4c78a8" stroke-width="2" opacity="0.3"/><path aria-label="date (year): 2005; price: 286" role="graphics-symbol" aria-roledescription="point" transform="translate(66.78832116788321,192.75000000000003)" d="M2.739,0A2.739,2.739,0,1,1,-2.739,0A2.739,2.739,0,1,1,2.739,0" stroke="#4c78a8" stroke-width="2" opacity="0.3"/><path aria-label="date (year): 2005; price: 316.46" role="graphics-symbol" aria-roledescription="point" transform="translate(66.78832116788321,181.3275)" d="M2.739,0A2.739,2.739,0,1,1,-2.739,0A2.739,2.739,0,1,1,2.739,0" stroke="#4c78a8" stroke-width="2" opacity="0.3"/><path aria-label="date (year): 2005; price: 372.14" role="graphics-symbol" aria-roledescription="point" transform="translate(66.78832116788321,160.4475)" d="M2.739,0A2.739,2.739,0,1,1,-2.739,0A2.739,2.739,0,1,1,2.739,0" stroke="#4c78a8" stroke-width="2" opacity="0.3"/><path aria-label="date (year): 2005; price: 404.91" role="graphics-symbol" aria-roledescription="point" transform="translate(66.78832116788321,148.15875)" d="M2.739,0A2.739,2.739,0,1,1,-2.739,0A2.739,2.739,0,1,1,2.739,0" stroke="#4c78a8" stroke-width="2" opacity="0.3"/><path aria-label="date (year): 2005; price: 414.86" role="graphics-symbol" aria-roledescription="point" transform="translate(66.78832116788321,144.4275)" d="M2.739,0A2.739,2.739,0,1,1,-2.739,0A2.739,2.739,0,1,1,2.739,0" stroke="#4c78a8" stroke-width="2" opacity="0.3"/><path aria-label="date (year): 2006; price: 432.66" role="graphics-symbol" aria-roledescription="point" transform="translate(133.3941605839416,137.7525)" d="M2.739,0A2.739,2.739,0,1,1,-2.739,0A2.739,2.739,0,1,1,2.739,0" stroke="#4c78a8" stroke-width="2" opacity="0.3"/><path aria-label="date (year): 2006; price: 362.62" role="graphics-symbol" aria-roledescription="point" transform="translate(133.3941605839416,164.0175)" d="M2.739,0A2.739,2.739,0,1,1,-2.739,0A2.739,2.739,0,1,1,2.739,0" stroke="#4c78a8" stroke-width="2" opacity="0.3"/><path aria-label="date (year): 2006; price: 390" role="graphics-symbol" aria-roledescription="point" transform="translate(133.3941605839416,153.75)" d="M2.739,0A2.739,2.739,0,1,1,-2.739,0A2.739,2.739,0,1,1,2.739,0" stroke="#4c78a8" stroke-width="2" opacity="0.3"/><path aria-label="date (year): 2006; price: 417.94" role="graphics-symbol" aria-roledescription="point" transform="translate(133.3941605839416,143.27249999999998)" d="M2.739,0A2.739,2.739,0,1,1,-2.739,0A2.739,2.739,0,1,1,2.739,0" stroke="#4c78a8" stroke-width="2" opacity="0.3"/><path aria-label="date (year): 2006; price: 371.82" role="graphics-symbol" aria-roledescription="point" transform="translate(133.3941605839416,160.56750000000002)" d="M2.739,0A2.739,2.739,0,1,1,-2.739,0A2.739,2.739,0,1,1,2.739,0" stroke="#4c78a8" stroke-width="2" opacity="0.3"/><path aria-label="date (year): 2006; price: 419.33" role="graphics-symbol" aria-roledescription="point" transform="translate(133.3941605839416,142.75125)" d="M2.739,0A2.739,2.739,0,1,1,-2.739,0A2.739,2.739,0,1,1,2.739,0" stroke="#4c78a8" stroke-width="2" opacity="0.3"/><path aria-label="date (year): 2006; price: 386.6" role="graphics-symbol" aria-roledescription="point" transform="translate(133.3941605839416,155.025)" d="M2.739,0A2.739,2.739,0,1,1,-2.739,0A2.739,2.739,0,1,1,2.739,0" stroke="#4c78a8" stroke-width="2" opacity="0.3"/><path aria-label="date (year): 2006; price: 378.53" role="graphics-symbol" aria-roledescription="point" transform="translate(133.3941605839416,158.05125)" d="M2.739,0A2.739,2.739,0,1,1,-2.739,0A2.739,2.739,0,1,1,2.739,0" stroke="#4c78a8" stroke-width="2" opacity="0.3"/><path aria-label="date (year): 2006; price: 401.9" role="graphics-symbol" aria-roledescription="point" transform="translate(133.3941605839416,149.2875)" d="M2.739,0A2.739,2.739,0,1,1,-2.739,0A2.739,2.739,0,1,1,2.739,0" stroke="#4c78a8" stroke-width="2" opacity="0.3"/><path aria-label="date (year): 2006; price: 476.39" role="graphics-symbol" aria-roledescription="point" transform="translate(133.3941605839416,121.35375000000002)" d="M2.739,0A2.739,2.739,0,1,1,-2.739,0A2.739,2.739,0,1,1,2.739,0" stroke="#4c78a8" stroke-width="2" opacity="0.3"/><path aria-label="date (year): 2006; price: 484.81" role="graphics-symbol" aria-roledescription="point" transform="translate(133.3941605839416,118.19625000000002)" d="M2.739,0A2.739,2.739,0,1,1,-2.739,0A2.739,2.739,0,1,1,2.739,0" stroke="#4c78a8" stroke-width="2" opacity="0.3"/><path aria-label="date (year): 2006; price: 460.48" role="graphics-symbol" aria-roledescription="point" transform="translate(133.3941605839416,127.32)" d="M2.739,0A2.739,2.739,0,1,1,-2.739,0A2.739,2.739,0,1,1,2.739,0" stroke="#4c78a8" stroke-width="2" opacity="0.3"/><path aria-label="date (year): 2007; price: 501.5" role="graphics-symbol" aria-roledescription="point" transform="translate(200,111.93750000000001)" d="M2.739,0A2.739,2.739,0,1,1,-2.739,0A2.739,2.739,0,1,1,2.739,0" stroke="#4c78a8" stroke-width="2" opacity="0.3"/><path aria-label="date (year): 2007; price: 449.45" role="graphics-symbol" aria-roledescription="point" transform="translate(200,131.45625)" d="M2.739,0A2.739,2.739,0,1,1,-2.739,0A2.739,2.739,0,1,1,2.739,0" stroke="#4c78a8" stroke-width="2" opacity="0.3"/><path aria-label="date (year): 2007; price: 458.16" role="graphics-symbol" aria-roledescription="point" transform="translate(200,128.19)" d="M2.739,0A2.739,2.739,0,1,1,-2.739,0A2.739,2.739,0,1,1,2.739,0" stroke="#4c78a8" stroke-width="2" opacity="0.3"/><path aria-label="date (year): 2007; price: 471.38" role="graphics-symbol" aria-roledescription="point" transform="translate(200,123.2325)" d="M2.739,0A2.739,2.739,0,1,1,-2.739,0A2.739,2.739,0,1,1,2.739,0" stroke="#4c78a8" stroke-width="2" opacity="0.3"/><path aria-label="date (year): 2007; price: 497.91" role="graphics-symbol" aria-roledescription="point" transform="translate(200,113.28375000000001)" d="M2.739,0A2.739,2.739,0,1,1,-2.739,0A2.739,2.739,0,1,1,2.739,0" stroke="#4c78a8" stroke-width="2" opacity="0.3"/><path aria-label="date (year): 2007; price: 522.7" role="graphics-symbol" aria-roledescription="point" transform="translate(200,103.98749999999998)" d="M2.739,0A2.739,2.739,0,1,1,-2.739,0A2.739,2.739,0,1,1,2.739,0" stroke="#4c78a8" stroke-width="2" opacity="0.3"/><path aria-label="date (year): 2007; price: 510" role="graphics-symbol" aria-roledescription="point" transform="translate(200,108.75000000000001)" d="M2.739,0A2.739,2.739,0,1,1,-2.739,0A2.739,2.739,0,1,1,2.739,0" stroke="#4c78a8" stroke-width="2" opacity="0.3"/><path aria-label="date (year): 2007; price: 515.25" role="graphics-symbol" aria-roledescription="point" transform="translate(200,106.78125)" d="M2.739,0A2.739,2.739,0,1,1,-2.739,0A2.739,2.739,0,1,1,2.739,0" stroke="#4c78a8" stroke-width="2" opacity="0.3"/><path aria-label="date (year): 2007; price: 567.27" role="graphics-symbol" aria-roledescription="point" transform="translate(200,87.27375)" d="M2.739,0A2.739,2.739,0,1,1,-2.739,0A2.739,2.739,0,1,1,2.739,0" stroke="#4c78a8" stroke-width="2" opacity="0.3"/><path aria-label="date (year): 2007; price: 707" role="graphics-symbol" aria-roledescription="point" transform="translate(200,34.874999999999986)" d="M2.739,0A2.739,2.739,0,1,1,-2.739,0A2.739,2.739,0,1,1,2.739,0" stroke="#4c78a8" stroke-width="2" opacity="0.3"/><path aria-label="date (year): 2007; price: 693" role="graphics-symbol" aria-roledescription="point" transform="translate(200,40.125000000000014)" d="M2.739,0A2.739,2.739,0,1,1,-2.739,0A2.739,2.739,0,1,1,2.739,0" stroke="#4c78a8" stroke-width="2" opacity="0.3"/><path aria-label="date (year): 2007; price: 691.48" role="graphics-symbol" aria-roledescription="point" transform="translate(200,40.69499999999998)" d="M2.739,0A2.739,2.739,0,1,1,-2.739,0A2.739,2.739,0,1,1,2.739,0" stroke="#4c78a8" stroke-width="2" opacity="0.3"/><path aria-label="date (year): 2008; price: 564.3" role="graphics-symbol" aria-roledescription="point" transform="translate(266.60583941605836,88.3875)" d="M2.739,0A2.739,2.739,0,1,1,-2.739,0A2.739,2.739,0,1,1,2.739,0" stroke="#4c78a8" stroke-width="2" opacity="0.3"/><path aria-label="date (year): 2008; price: 471.18" role="graphics-symbol" aria-roledescription="point" transform="translate(266.60583941605836,123.30749999999999)" d="M2.739,0A2.739,2.739,0,1,1,-2.739,0A2.739,2.739,0,1,1,2.739,0" stroke="#4c78a8" stroke-width="2" opacity="0.3"/><path aria-label="date (year): 2008; price: 440.47" role="graphics-symbol" aria-roledescription="point" transform="translate(266.60583941605836,134.82375)" d="M2.739,0A2.739,2.739,0,1,1,-2.739,0A2.739,2.739,0,1,1,2.739,0" stroke="#4c78a8" stroke-width="2" opacity="0.3"/><path aria-label="date (year): 2008; price: 574.29" role="graphics-symbol" aria-roledescription="point" transform="translate(266.60583941605836,84.64125000000001)" d="M2.739,0A2.739,2.739,0,1,1,-2.739,0A2.739,2.739,0,1,1,2.739,0" stroke="#4c78a8" stroke-width="2" opacity="0.3"/><path aria-label="date (year): 2008; price: 585.8" role="graphics-symbol" aria-roledescription="point" transform="translate(266.60583941605836,80.32500000000002)" d="M2.739,0A2.739,2.739,0,1,1,-2.739,0A2.739,2.739,0,1,1,2.739,0" stroke="#4c78a8" stroke-width="2" opacity="0.3"/><path aria-label="date (year): 2008; price: 526.42" role="graphics-symbol" aria-roledescription="point" transform="translate(266.60583941605836,102.59250000000002)" d="M2.739,0A2.739,2.739,0,1,1,-2.739,0A2.739,2.739,0,1,1,2.739,0" stroke="#4c78a8" stroke-width="2" opacity="0.3"/><path aria-label="date (year): 2008; price: 473.75" role="graphics-symbol" aria-roledescription="point" transform="translate(266.60583941605836,122.34375)" d="M2.739,0A2.739,2.739,0,1,1,-2.739,0A2.739,2.739,0,1,1,2.739,0" stroke="#4c78a8" stroke-width="2" opacity="0.3"/><path aria-label="date (year): 2008; price: 463.29" role="graphics-symbol" aria-roledescription="point" transform="translate(266.60583941605836,126.26624999999999)" d="M2.739,0A2.739,2.739,0,1,1,-2.739,0A2.739,2.739,0,1,1,2.739,0" stroke="#4c78a8" stroke-width="2" opacity="0.3"/><path aria-label="date (year): 2008; price: 400.52" role="graphics-symbol" aria-roledescription="point" transform="translate(266.60583941605836,149.80500000000004)" d="M2.739,0A2.739,2.739,0,1,1,-2.739,0A2.739,2.739,0,1,1,2.739,0" stroke="#4c78a8" stroke-width="2" opacity="0.3"/><path aria-label="date (year): 2008; price: 359.36" role="graphics-symbol" aria-roledescription="point" transform="translate(266.60583941605836,165.23999999999998)" d="M2.739,0A2.739,2.739,0,1,1,-2.739,0A2.739,2.739,0,1,1,2.739,0" stroke="#4c78a8" stroke-width="2" opacity="0.3"/><path aria-label="date (year): 2008; price: 292.96" role="graphics-symbol" aria-roledescription="point" transform="translate(266.60583941605836,190.14000000000001)" d="M2.739,0A2.739,2.739,0,1,1,-2.739,0A2.739,2.739,0,1,1,2.739,0" stroke="#4c78a8" stroke-width="2" opacity="0.3"/><path aria-label="date (year): 2008; price: 307.65" role="graphics-symbol" aria-roledescription="point" transform="translate(266.60583941605836,184.63125000000002)" d="M2.739,0A2.739,2.739,0,1,1,-2.739,0A2.739,2.739,0,1,1,2.739,0" stroke="#4c78a8" stroke-width="2" opacity="0.3"/><path aria-label="date (year): 2009; price: 338.53" role="graphics-symbol" aria-roledescription="point" transform="translate(333.39416058394164,173.05125000000004)" d="M2.739,0A2.739,2.739,0,1,1,-2.739,0A2.739,2.739,0,1,1,2.739,0" stroke="#4c78a8" stroke-width="2" opacity="0.3"/><path aria-label="date (year): 2009; price: 337.99" role="graphics-symbol" aria-roledescription="point" transform="translate(333.39416058394164,173.25375)" d="M2.739,0A2.739,2.739,0,1,1,-2.739,0A2.739,2.739,0,1,1,2.739,0" stroke="#4c78a8" stroke-width="2" opacity="0.3"/><path aria-label="date (year): 2009; price: 348.06" role="graphics-symbol" aria-roledescription="point" transform="translate(333.39416058394164,169.4775)" d="M2.739,0A2.739,2.739,0,1,1,-2.739,0A2.739,2.739,0,1,1,2.739,0" stroke="#4c78a8" stroke-width="2" opacity="0.3"/><path aria-label="date (year): 2009; price: 395.97" role="graphics-symbol" aria-roledescription="point" transform="translate(333.39416058394164,151.51125000000002)" d="M2.739,0A2.739,2.739,0,1,1,-2.739,0A2.739,2.739,0,1,1,2.739,0" stroke="#4c78a8" stroke-width="2" opacity="0.3"/><path aria-label="date (year): 2009; price: 417.23" role="graphics-symbol" aria-roledescription="point" transform="translate(333.39416058394164,143.53875)" d="M2.739,0A2.739,2.739,0,1,1,-2.739,0A2.739,2.739,0,1,1,2.739,0" stroke="#4c78a8" stroke-width="2" opacity="0.3"/><path aria-label="date (year): 2009; price: 421.59" role="graphics-symbol" aria-roledescription="point" transform="translate(333.39416058394164,141.90375000000003)" d="M2.739,0A2.739,2.739,0,1,1,-2.739,0A2.739,2.739,0,1,1,2.739,0" stroke="#4c78a8" stroke-width="2" opacity="0.3"/><path aria-label="date (year): 2009; price: 443.05" role="graphics-symbol" aria-roledescription="point" transform="translate(333.39416058394164,133.85625)" d="M2.739,0A2.739,2.739,0,1,1,-2.739,0A2.739,2.739,0,1,1,2.739,0" stroke="#4c78a8" stroke-width="2" opacity="0.3"/><path aria-label="date (year): 2009; price: 461.67" role="graphics-symbol" aria-roledescription="point" transform="translate(333.39416058394164,126.87375)" d="M2.739,0A2.739,2.739,0,1,1,-2.739,0A2.739,2.739,0,1,1,2.739,0" stroke="#4c78a8" stroke-width="2" opacity="0.3"/><path aria-label="date (year): 2009; price: 495.85" role="graphics-symbol" aria-roledescription="point" transform="translate(333.39416058394164,114.05625)" d="M2.739,0A2.739,2.739,0,1,1,-2.739,0A2.739,2.739,0,1,1,2.739,0" stroke="#4c78a8" stroke-width="2" opacity="0.3"/><path aria-label="date (year): 2009; price: 536.12" role="graphics-symbol" aria-roledescription="point" transform="translate(333.39416058394164,98.955)" d="M2.739,0A2.739,2.739,0,1,1,-2.739,0A2.739,2.739,0,1,1,2.739,0" stroke="#4c78a8" stroke-width="2" opacity="0.3"/><path aria-label="date (year): 2009; price: 583" role="graphics-symbol" aria-roledescription="point" transform="translate(333.39416058394164,81.375)" d="M2.739,0A2.739,2.739,0,1,1,-2.739,0A2.739,2.739,0,1,1,2.739,0" stroke="#4c78a8" stroke-width="2" opacity="0.3"/><path aria-label="date (year): 2009; price: 619.98" role="graphics-symbol" aria-roledescription="point" transform="translate(333.39416058394164,67.50750000000001)" d="M2.739,0A2.739,2.739,0,1,1,-2.739,0A2.739,2.739,0,1,1,2.739,0" stroke="#4c78a8" stroke-width="2" opacity="0.3"/><path aria-label="date (year): 2010; price: 529.94" role="graphics-symbol" aria-roledescription="point" transform="translate(400,101.2725)" d="M2.739,0A2.739,2.739,0,1,1,-2.739,0A2.739,2.739,0,1,1,2.739,0" stroke="#4c78a8" stroke-width="2" opacity="0.3"/><path aria-label="date (year): 2010; price: 526.8" role="graphics-symbol" aria-roledescription="point" transform="translate(400,102.45)" d="M2.739,0A2.739,2.739,0,1,1,-2.739,0A2.739,2.739,0,1,1,2.739,0" stroke="#4c78a8" stroke-width="2" opacity="0.3"/><path aria-label="date (year): 2010; price: 560.19" role="graphics-symbol" aria-roledescription="point" transform="translate(400,89.92874999999998)" d="M2.739,0A2.739,2.739,0,1,1,-2.739,0A2.739,2.739,0,1,1,2.739,0" stroke="#4c78a8" stroke-width="2" opacity="0.3"/></g><g class="mark-line role-mark layer_1_marks" role="graphics-object" aria-roledescription="line mark container"><path aria-label="date (year): 2004; Mean of price: 159.476" role="graphics-symbol" aria-roledescription="line mark" d="M0,240.197L66.788,192.573L133.394,144.279L200,94.216L266.606,129.375L333.394,131.28L400,97.884" stroke="#4c78a8" stroke-width="2"/></g></g><path class="foreground" aria-hidden="true" d="" display="none"/></g></g></g></svg>