<svg class="marks" width="387" height="251" viewBox="0 0 387 251" version="1.1" xmlns="http://www.w3.org/2000/svg" xmlns:xlink="http://www.w3.org/1999/xlink"><g transform="translate(52,11)"><g class="mark-group role-frame root"><g transform="translate(0,0)"><path class="background" d="M0.5,0.5h320v200h-320Z" style="fill: none; stroke: #ddd;"></path><g><g class="mark-group role-axis"><g transform="translate(0.5,200.5)"><path class="background" d="M0,0h0v0h0Z" style="pointer-events: none; fill: none;"></path><g><g class="mark-rule role-axis-grid" style="pointer-events: none;"><line transform="translate(5,-200)" x2="0" y2="200" style="fill: none; stroke: #ddd; stroke-width: 1; opacity: 1;"></line><line transform="translate(26,-200)" x2="0" y2="200" style="fill: none; stroke: #ddd; stroke-width: 1; opacity: 1;"></line><line transform="translate(48,-200)" x2="0" y2="200" style="fill: none; stroke: #ddd; stroke-width: 1; opacity: 1;"></line><line transform="translate(69,-200)" x2="0" y2="200" style="fill: none; stroke: #ddd; stroke-width: 1; opacity: 1;"></line><line transform="translate(91,-200)" x2="0" y2="200" style="fill: none; stroke: #ddd; stroke-width: 1; opacity: 1;"></line><line transform="translate(112,-200)" x2="0" y2="200" style="fill: none; stroke: #ddd; stroke-width: 1; opacity: 1;"></line><line transform="translate(133,-200)" x2="0" y2="200" style="fill: none; stroke: #ddd; stroke-width: 1; opacity: 1;"></line><line transform="translate(155,-200)" x2="0" y2="200" style="fill: none; stroke: #ddd; stroke-width: 1; opacity: 1;"></line><line transform="translate(176,-200)" x2="0" y2="200" style="fill: none; stroke: #ddd; stroke-width: 1; opacity: 1;"></line><line transform="translate(197,-200)" x2="0" y2="200" style="fill: none; stroke: #ddd; stroke-width: 1; opacity: 1;"></line><line transform="translate(219,-200)" x2="0" y2="200" style="fill: none; stroke: #ddd; stroke-width: 1; opacity: 1;"></line><line transform="translate(240,-200)" x2="0" y2="200" style="fill: none; stroke: #ddd; stroke-width: 1; opacity: 1;"></line><line transform="translate(262,-200)" x2="0" y2="200" style="fill: none; stroke: #ddd; stroke-width: 1; opacity: 1;"></line><line transform="translate(283,-200)" x2="0" y2="200" style="fill: none; stroke: #ddd; stroke-width: 1; opacity: 1;"></line><line transform="translate(304,-200)" x2="0" y2="200" style="fill: none; stroke: #ddd; stroke-width: 1; opacity: 1;"></line></g></g></g></g><g class="mark-group role-axis"><g transform="translate(0.5,0.5)"><path class="background" d="M0,0h0v0h0Z" style="pointer-events: none; fill: none;"></path><g><g class="mark-rule role-axis-grid" style="pointer-events: none;"><line transform="translate(0,200)" x2="320" y2="0" style="fill: none; stroke: #ddd; stroke-width: 1; opacity: 1;"></line><line transform="translate(0,175)" x2="320" y2="0" style="fill: none; stroke: #ddd; stroke-width: 1; opacity: 1;"></line><line transform="translate(0,150)" x2="320" y2="0" style="fill: none; stroke: #ddd; stroke-width: 1; opacity: 1;"></line><line transform="translate(0,125)" x2="320" y2="0" style="fill: none; stroke: #ddd; stroke-width: 1; opacity: 1;"></line><line transform="translate(0,100)" x2="320" y2="0" style="fill: none; stroke: #ddd; stroke-width: 1; opacity: 1;"></line><line transform="translate(0,75)" x2="320" y2="0" style="fill: none; stroke: #ddd; stroke-width: 1; opacity: 1;"></line><line transform="translate(0,50)" x2="320" y2="0" style="fill: none; stroke: #ddd; stroke-width: 1; opacity: 1;"></line><line transform="translate(0,25)" x2="320" y2="0" style="fill: none; stroke: #ddd; stroke-width: 1; opacity: 1;"></line><line transform="translate(0,0)" x2="320" y2="0" style="fill: none; stroke: #ddd; stroke-width: 1; opacity: 1;"></line></g></g></g></g><g class="mark-rule role-mark layer_0_marks"><line transform="translate(5.000000094725316,113.75000000000001)" x2="0" y2="-40.00000000000003" style="fill: none; stroke: #06982d;"></line><line transform="translate(15.689655264872632,117.49999999999999)" x2="0" y2="-45.74999999999996" style="fill: none; stroke: #ae1325;"></line><line transform="translate(26.379310435019953,84.49999999999997)" x2="0" y2="-54.24999999999994" style="fill: none; stroke: #06982d;"></line><line transform="translate(37.06896560516727,76.99999999999996)" x2="0" y2="-27.499999999999957" style="fill: none; stroke: #ae1325;"></line><line transform="translate(47.75862077531458,103.74999999999997)" x2="0" y2="-48.99999999999994" style="fill: none; stroke: #06982d;"></line><line transform="translate(79.82758628575654,164.75)" x2="0" y2="-135.25" style="fill: none; stroke: #ae1325;"></line><line transform="translate(90.51724145590386,130.25000000000003)" x2="0" y2="-49.500000000000014" style="fill: none; stroke: #ae1325;"></line><line transform="translate(101.20689662605118,152.50000000000003)" x2="0" y2="-70.99999999999999" style="fill: none; stroke: #06982d;"></line><line transform="translate(111.8965517961985,154.75000000000003)" x2="0" y2="-32.500000000000014" style="fill: none; stroke: #06982d;"></line><line transform="translate(122.58620696634581,131.75)" x2="0" y2="-19.25" style="fill: none; stroke: #06982d;"></line><line transform="translate(154.65517247678778,83.99999999999999)" x2="0" y2="-36.249999999999986" style="fill: none; stroke: #06982d;"></line><line transform="translate(165.34482764693507,73.25)" x2="0" y2="-67" style="fill: none; stroke: #06982d;"></line><line transform="translate(176.0344828170824,59)" x2="0" y2="-53.250000000000085" style="fill: none; stroke: #06982d;"></line><line transform="translate(186.7241379872297,84.99999999999997)" x2="0" y2="-48.49999999999994" style="fill: none; stroke: #ae1325;"></line><line transform="translate(197.41379315737703,136.00000000000003)" x2="0" y2="-44.00000000000003" style="fill: none; stroke: #ae1325;"></line><line transform="translate(229.48275866781898,67.49999999999997)" x2="0" y2="-43.749999999999915" style="fill: none; stroke: #06982d;"></line><line transform="translate(240.1724138379663,129.25000000000006)" x2="0" y2="-92.75000000000003" style="fill: none; stroke: #ae1325;"></line><line transform="translate(250.86206900811362,105.25000000000003)" x2="0" y2="-44.74999999999997" style="fill: none; stroke: #ae1325;"></line><line transform="translate(261.55172417826094,167.5)" x2="0" y2="-81.49999999999997" style="fill: none; stroke: #ae1325;"></line><line transform="translate(272.24137934840826,180.99999999999997)" x2="0" y2="-36.49999999999994" style="fill: none; stroke: #ae1325;"></line><line transform="translate(304.3103448588502,192.75000000000003)" x2="0" y2="-47.25000000000003" style="fill: none; stroke: #ae1325;"></line><line transform="translate(315.00000002899753,199.5)" x2="0" y2="-58.99999999999997" style="fill: none; stroke: #06982d;"></line></g><g class="mark-rect role-mark layer_1_marks"><path d="M2.5000000947253156,74.00000000000003h5v33.499999999999986h-5Z" style="fill: #06982d;"></path><path d="M13.189655264872632,74.00000000000003h5v10.25h-5Z" style="fill: #ae1325;"></path><path d="M23.879310435019953,49.5h5v34.99999999999997h-5Z" style="fill: #06982d;"></path><path d="M34.56896560516727,49.5h5v21h-5Z" style="fill: #ae1325;"></path><path d="M45.25862077531458,84.49999999999997h5v5.750000000000014h-5Z" style="fill: #06982d;"></path><path d="M77.32758628575654,54h5v26.750000000000014h-5Z" style="fill: #ae1325;"></path><path d="M88.01724145590386,80.75000000000001h5v37.5h-5Z" style="fill: #ae1325;"></path><path d="M98.70689662605118,113.49999999999997h5v39.00000000000006h-5Z" style="fill: #06982d;"></path><path d="M109.3965517961985,122.25000000000001h5v18.749999999999986h-5Z" style="fill: #06982d;"></path><path d="M120.08620696634581,121.25000000000003h5v1.7500000000000142h-5Z" style="fill: #06982d;"></path><path d="M152.15517247678778,54.75000000000003h5v27.749999999999986h-5Z" style="fill: #06982d;"></path><path d="M162.84482764693507,8h5v46.75000000000003h-5Z" style="fill: #06982d;"></path><path d="M173.5344828170824,36.50000000000003h5v8.749999999999943h-5Z" style="fill: #06982d;"></path><path d="M184.2241379872297,36.50000000000003h5v37.74999999999994h-5Z" style="fill: #ae1325;"></path><path d="M194.91379315737703,96h5v29.250000000000043h-5Z" style="fill: #ae1325;"></path><path d="M226.98275866781898,45.74999999999994h5v19.250000000000085h-5Z" style="fill: #06982d;"></path><path d="M237.6724138379663,42.49999999999997h5v18.000000000000085h-5Z" style="fill: #ae1325;"></path><path d="M248.36206900811362,60.50000000000006h5v38.24999999999993h-5Z" style="fill: #ae1325;"></path><path d="M259.05172417826094,88.75000000000001h5v77.24999999999999h-5Z" style="fill: #ae1325;"></path><path d="M269.74137934840826,147.75h5v29h-5Z" style="fill: #ae1325;"></path><path d="M301.8103448588502,176.75h5v14.499999999999972h-5Z" style="fill: #ae1325;"></path><path d="M312.50000002899753,166.24999999999997h5v24.75000000000003h-5Z" style="fill: #06982d;"></path></g><g class="mark-group role-axis"><g transform="translate(0.5,200.5)"><path class="background" d="M0,0h0v0h0Z" style="pointer-events: none; fill: none;"></path><g><g class="mark-rule role-axis-tick" style="pointer-events: none;"><line transform="translate(5,0)" x2="0" y2="5" style="fill: none; stroke: #888; stroke-width: 1; opacity: 1;"></line><line transform="translate(26,0)" x2="0" y2="5" style="fill: none; stroke: #888; stroke-width: 1; opacity: 1;"></line><line transform="translate(48,0)" x2="0" y2="5" style="fill: none; stroke: #888; stroke-width: 1; opacity: 1;"></line><line transform="translate(69,0)" x2="0" y2="5" style="fill: none; stroke: #888; stroke-width: 1; opacity: 1;"></line><line transform="translate(91,0)" x2="0" y2="5" style="fill: none; stroke: #888; stroke-width: 1; opacity: 1;"></line><line transform="translate(112,0)" x2="0" y2="5" style="fill: none; stroke: #888; stroke-width: 1; opacity: 1;"></line><line transform="translate(133,0)" x2="0" y2="5" style="fill: none; stroke: #888; stroke-width: 1; opacity: 1;"></line><line transform="translate(155,0)" x2="0" y2="5" style="fill: none; stroke: #888; stroke-width: 1; opacity: 1;"></line><line transform="translate(176,0)" x2="0" y2="5" style="fill: none; stroke: #888; stroke-width: 1; opacity: 1;"></line><line transform="translate(197,0)" x2="0" y2="5" style="fill: none; stroke: #888; stroke-width: 1; opacity: 1;"></line><line transform="translate(219,0)" x2="0" y2="5" style="fill: none; stroke: #888; stroke-width: 1; opacity: 1;"></line><line transform="translate(240,0)" x2="0" y2="5" style="fill: none; stroke: #888; stroke-width: 1; opacity: 1;"></line><line transform="translate(262,0)" x2="0" y2="5" style="fill: none; stroke: #888; stroke-width: 1; opacity: 1;"></line><line transform="translate(283,0)" x2="0" y2="5" style="fill: none; stroke: #888; stroke-width: 1; opacity: 1;"></line><line transform="translate(304,0)" x2="0" y2="5" style="fill: none; stroke: #888; stroke-width: 1; opacity: 1;"></line></g><g class="mark-text role-axis-label" style="pointer-events: none;"><text text-anchor="middle" transform="translate(5.000000094725316,15)" style="font-family: sans-serif; font-size: 10px; fill: #000; opacity: 1;">June</text><text text-anchor="middle" transform="translate(26.379310435019953,15)" style="font-family: sans-serif; font-size: 10px; fill: #000; opacity: 0;">Wed 03</text><text text-anchor="middle" transform="translate(47.75862077531458,15)" style="font-family: sans-serif; font-size: 10px; fill: #000; opacity: 0;">Fri 05</text><text text-anchor="middle" transform="translate(69.13793111560922,15)" style="font-family: sans-serif; font-size: 10px; fill: #000; opacity: 0;">Jun 07</text><text text-anchor="middle" transform="translate(90.51724145590386,15)" style="font-family: sans-serif; font-size: 10px; fill: #000; opacity: 1;">Tue 09</text><text text-anchor="middle" transform="translate(111.8965517961985,15)" style="font-family: sans-serif; font-size: 10px; fill: #000; opacity: 0;">Thu 11</text><text text-anchor="middle" transform="translate(133.27586213649315,15)" style="font-family: sans-serif; font-size: 10px; fill: #000; opacity: 0;">Sat 13</text><text text-anchor="middle" transform="translate(154.65517247678778,15)" style="font-family: sans-serif; font-size: 10px; fill: #000; opacity: 0;">Mon 15</text><text text-anchor="middle" transform="translate(176.0344828170824,15)" style="font-family: sans-serif; font-size: 10px; fill: #000; opacity: 1;">Wed 17</text><text text-anchor="middle" transform="translate(197.41379315737703,15)" style="font-family: sans-serif; font-size: 10px; fill: #000; opacity: 0;">Fri 19</text><text text-anchor="middle" transform="translate(218.79310349767167,15)" style="font-family: sans-serif; font-size: 10px; fill: #000; opacity: 0;">Jun 21</text><text text-anchor="middle" transform="translate(240.1724138379663,15)" style="font-family: sans-serif; font-size: 10px; fill: #000; opacity: 0;">Tue 23</text><text text-anchor="middle" transform="translate(261.55172417826094,15)" style="font-family: sans-serif; font-size: 10px; fill: #000; opacity: 1;">Thu 25</text><text text-anchor="middle" transform="translate(282.9310345185556,15)" style="font-family: sans-serif; font-size: 10px; fill: #000; opacity: 0;">Sat 27</text><text text-anchor="middle" transform="translate(304.3103448588502,15)" style="font-family: sans-serif; font-size: 10px; fill: #000; opacity: 0;">Mon 29</text></g><g class="mark-rule role-axis-domain" style="pointer-events: none;"><line transform="translate(0,0)" x2="320" y2="0" style="fill: none; stroke: #888; stroke-width: 1; opacity: 1;"></line></g><g class="mark-text role-axis-title" style="pointer-events: none;"><text text-anchor="middle" transform="translate(160,31)" style="font-family: sans-serif; font-size: 11px; font-weight: bold; fill: #000; opacity: 1;">Date in 2009</text></g></g></g></g><g class="mark-group role-axis"><g transform="translate(0.5,0.5)"><path class="background" d="M0,0h0v0h0Z" style="pointer-events: none; fill: none;"></path><g><g class="mark-rule role-axis-tick" style="pointer-events: none;"><line transform="translate(0,200)" x2="-5" y2="0" style="fill: none; stroke: #888; stroke-width: 1; opacity: 1;"></line><line transform="translate(0,175)" x2="-5" y2="0" style="fill: none; stroke: #888; stroke-width: 1; opacity: 1;"></line><line transform="translate(0,150)" x2="-5" y2="0" style="fill: none; stroke: #888; stroke-width: 1; opacity: 1;"></line><line transform="translate(0,125)" x2="-5" y2="0" style="fill: none; stroke: #888; stroke-width: 1; opacity: 1;"></line><line transform="translate(0,100)" x2="-5" y2="0" style="fill: none; stroke: #888; stroke-width: 1; opacity: 1;"></line><line transform="translate(0,75)" x2="-5" y2="0" style="fill: none; stroke: #888; stroke-width: 1; opacity: 1;"></line><line transform="translate(0,50)" x2="-5" y2="0" style="fill: none; stroke: #888; stroke-width: 1; opacity: 1;"></line><line transform="translate(0,25)" x2="-5" y2="0" style="fill: none; stroke: #888; stroke-width: 1; opacity: 1;"></line><line transform="translate(0,0)" x2="-5" y2="0" style="fill: none; stroke: #888; stroke-width: 1; opacity: 1;"></line></g><g class="mark-text role-axis-label" style="pointer-events: none;"><text text-anchor="end" transform="translate(-7,203)" style="font-family: sans-serif; font-size: 10px; fill: #000; opacity: 1;">25</text><text text-anchor="end" transform="translate(-7,178)" style="font-family: sans-serif; font-size: 10px; fill: #000; opacity: 1;">26</text><text text-anchor="end" transform="translate(-7,153)" style="font-family: sans-serif; font-size: 10px; fill: #000; opacity: 1;">27</text><text text-anchor="end" transform="translate(-7,128)" style="font-family: sans-serif; font-size: 10px; fill: #000; opacity: 1;">28</text><text text-anchor="end" transform="translate(-7,103)" style="font-family: sans-serif; font-size: 10px; fill: #000; opacity: 1;">29</text><text text-anchor="end" transform="translate(-7,78)" style="font-family: sans-serif; font-size: 10px; fill: #000; opacity: 1;">30</text><text text-anchor="end" transform="translate(-7,53)" style="font-family: sans-serif; font-size: 10px; fill: #000; opacity: 1;">31</text><text text-anchor="end" transform="translate(-7,28)" style="font-family: sans-serif; font-size: 10px; fill: #000; opacity: 1;">32</text><text text-anchor="end" transform="translate(-7,3)" style="font-family: sans-serif; font-size: 10px; fill: #000; opacity: 1;">33</text></g><g class="mark-rule role-axis-domain" style="pointer-events: none;"><line transform="translate(0,200)" x2="0" y2="-200" style="fill: none; stroke: #888; stroke-width: 1; opacity: 1;"></line></g><g class="mark-text role-axis-title" style="pointer-events: none;"><text text-anchor="middle" transform="translate(-34,100) rotate(-90) translate(0,-2)" style="font-family: sans-serif; font-size: 11px; font-weight: bold; fill: #000; opacity: 1;">low, high, open, close</text></g></g></g></g></g></g></g></g></svg>