<svg class="marks" width="328" height="251" viewBox="0 0 328 251" version="1.1" xmlns="http://www.w3.org/2000/svg" xmlns:xlink="http://www.w3.org/1999/xlink"><g transform="translate(52,11)"><g class="mark-group role-frame root"><g transform="translate(0,0)"><path class="background" d="M0.5,0.5h200v200h-200Z" style="fill: none; stroke: #ddd;"></path><g><g class="mark-group role-axis"><g transform="translate(0.5,200.5)"><path class="background" d="M0,0h0v0h0Z" style="pointer-events: none; fill: none;"></path><g><g class="mark-rule role-axis-grid" style="pointer-events: none;"><line transform="translate(0,-200)" x2="0" y2="200" style="fill: none; stroke: #ddd; stroke-width: 1; opacity: 1;"></line><line transform="translate(39,-200)" x2="0" y2="200" style="fill: none; stroke: #ddd; stroke-width: 1; opacity: 1;"></line><line transform="translate(79,-200)" x2="0" y2="200" style="fill: none; stroke: #ddd; stroke-width: 1; opacity: 1;"></line><line transform="translate(118,-200)" x2="0" y2="200" style="fill: none; stroke: #ddd; stroke-width: 1; opacity: 1;"></line><line transform="translate(157,-200)" x2="0" y2="200" style="fill: none; stroke: #ddd; stroke-width: 1; opacity: 1;"></line><line transform="translate(197,-200)" x2="0" y2="200" style="fill: none; stroke: #ddd; stroke-width: 1; opacity: 1;"></line></g></g></g></g><g class="mark-group role-axis"><g transform="translate(0.5,0.5)"><path class="background" d="M0,0h0v0h0Z" style="pointer-events: none; fill: none;"></path><g><g class="mark-rule role-axis-grid" style="pointer-events: none;"><line transform="translate(0,200)" x2="200" y2="0" style="fill: none; stroke: #ddd; stroke-width: 1; opacity: 1;"></line><line transform="translate(0,150)" x2="200" y2="0" style="fill: none; stroke: #ddd; stroke-width: 1; opacity: 1;"></line><line transform="translate(0,100)" x2="200" y2="0" style="fill: none; stroke: #ddd; stroke-width: 1; opacity: 1;"></line><line transform="translate(0,50)" x2="200" y2="0" style="fill: none; stroke: #ddd; stroke-width: 1; opacity: 1;"></line><line transform="translate(0,0)" x2="200" y2="0" style="fill: none; stroke: #ddd; stroke-width: 1; opacity: 1;"></line></g></g></g></g><g class="mark-group role-scope layer_0_pathgroup"><g transform="translate(0,0)"><path class="background" d="M0,0h200v200h-200Z" style="fill: none;"></path><g><g class="mark-line role-mark layer_0_marks"><path d="M200,192.8L198.49137931034483,192.8325L196.82112068965517,192.9875L195.15086206896552,192.415L193.53223778735634,192.6825L191.86197916666669,193.13L190.24559985632183,193.6275L188.57534123563218,193.8925L186.90508261494253,194.205L185.2887033045977,194.145L183.61844468390805,194.8525L182.00206537356323,195.04L180.33405172413794,195.5025L178.82543103448276,196.0475L177.1551724137931,195.8425L175.48491379310346,195.2725L173.86628951149424,195.085L172.1960308908046,194.6075L170.57965158045977,193.555L168.90939295977012,193.41L167.23913433908046,193.8125L165.6227550287356,193.3825L163.95249640804596,193.1875L162.33611709770116,193.165L160.66810344827587,193.1975L159.10560344827587,193.4825L157.43534482758622,192.2175L155.76508620689654,191.5L154.14646192528735,191.9775L152.4762033045977,191.2425L150.85982399425288,192.99L149.18956537356323,193.165L147.51930675287358,193.125L145.90292744252872,193.0125L144.23266882183907,192.7225L142.61628951149424,192.925L140.94827586206898,193.4125L139.43965517241378,193.3425L137.76939655172413,192.7325L136.09913793103448,192.9675L134.48275862068965,193.085L132.8102550287356,193.26L131.1938757183908,193.58L129.52361709770116,193.9675L127.8533584770115,194.3725L126.23697916666667,194.55L124.56672054597702,194.7025L122.95258620689656,194.375L121.28232758620689,193.66L119.77370689655173,193.74L118.10344827586208,193.465L116.43318965517241,193.9275L114.81681034482759,193.5725L113.14430675287358,194.05L111.52792744252874,194.0425L109.85766882183907,193.6625L108.18741020114942,194.09L106.5710308908046,194.2675L104.90077227011494,194.045L103.28663793103448,194.18L101.61637931034481,194.44L100.10775862068965,194.2125L98.4375,193.9725L96.76724137931035,193.87L95.15086206896551,193.85L93.4783584770115,194.245L91.86197916666666,194.31L90.19172054597702,194.3825L88.52146192528735,194.155L86.90508261494253,194.14L85.23482399425288,194.6175L83.62068965517241,194.6375L81.95043103448276,194.885L80.38793103448276,194.5575L78.71767241379311,194.3275L77.04741379310344,194.385L75.43103448275862,194.725L73.7585308908046,194.6375L72.14215158045977,194.3275L70.47189295977012,194.5875L68.80163433908046,194.61L67.18525502873564,194.7675L65.51499640804597,194.9775L63.900862068965516,194.7825L62.230603448275865,195.06L60.72198275862068,195.165L59.05172413793104,195.1725L57.38146551724138,194.7425L55.765086206896555,194.135L54.09258261494253,194.5625L52.4762033045977,195.5525L50.805944683908045,195.0075L49.135686063218394,195.12L47.51930675287356,194.4375L45.8490481321839,194.8225L44.234913793103445,194.685L42.564655172413794,193.8675L41.05603448275862,194.0675L39.38577586206897,193.52L37.71551724137931,193.2625L36.099137931034484,193.47L34.42663433908046,194.0875L32.81025502873563,194.795L31.139996408045977,194.1975L29.46973778735632,193.2675L27.85335847701149,192.575L26.18309985632184,192.965L24.568965517241377,193.11L22.898706896551722,194.4375L21.39008620689655,194L19.719827586206897,193.79L18.049568965517242,195.5875L16.433189655172413,194.165L14.76068606321839,192.995L13.144306752873563,193.8675L11.474048132183908,192.9L9.803789511494253,192.9L8.187410201149426,191.865L6.517151580459771,193.6375L4.9030172413793105,192.9075L3.2327586206896552,189.195L1.670258620689655,190.9125L0,190.0475" style="fill: none; stroke: #54a24b; stroke-width: 2;"></path></g></g></g><g transform="translate(0,0)"><path class="background" d="M0,0h200v200h-200Z" style="fill: none;"></path><g><g class="mark-line role-mark layer_0_marks"><path d="M200,167.79500000000002L198.49137931034483,170.4L196.82112068965517,168.6475L195.15086206896552,166.37L193.53223778735634,166.0225L191.86197916666669,170.2975L190.24559985632183,176.66L188.57534123563218,179.7025L186.90508261494253,178.56L185.2887033045977,179.085L183.61844468390805,180.5025L182.00206537356323,179.87L180.33405172413794,181.64L178.82543103448276,183.8025L177.1551724137931,185.295L175.48491379310346,187.18L173.86628951149424,189.325L172.1960308908046,185.69L170.57965158045977,181.81L168.90939295977012,179.7975L167.23913433908046,180.915L165.6227550287356,181.6675L163.95249640804596,179.595L162.33611709770116,180.3425L160.66810344827587,182.175L159.10560344827587,183.8825L157.43534482758622,180.575L155.76508620689654,176.84L154.14646192528735,177.36L152.4762033045977,177.7125L150.85982399425288,176.7125L149.18956537356323,180.0225L147.51930675287358,180.365L145.90292744252872,182.8975L144.23266882183907,182.715L142.61628951149424,184.6675L140.94827586206898,190.0525L139.43965517241378,190.215L137.76939655172413,190.5825L136.09913793103448,190.135L134.48275862068965,189.915L132.8102550287356,190.4775L131.1938757183908,191.97L129.52361709770116,192.2925L127.8533584770115,193.2775L126.23697916666667,190.33L124.56672054597702,191.3475L122.95258620689656,191.1975L121.28232758620689,190.8675L119.77370689655173,190.64L118.10344827586208,188.795L116.43318965517241,188.2125L114.81681034482759,187.885L113.14430675287358,190.035L111.52792744252874,188.675L109.85766882183907,189.325L108.18741020114942,188.7125L106.5710308908046,191.7275L104.90077227011494,191.1225L103.28663793103448,191.91L101.61637931034481,191.4325L100.10775862068965,191.205L98.4375,189.195L96.76724137931035,188.9275L95.15086206896551,190.08L93.4783584770115,191.4675L91.86197916666666,189.785L90.19172054597702,190.465L88.52146192528735,190.27L86.90508261494253,186.4L85.23482399425288,187.875L83.62068965517241,189.1L81.95043103448276,189.18L80.38793103448276,189.2475L78.71767241379311,187.4L77.04741379310344,186.845L75.43103448275862,186.5075L73.7585308908046,186.3925L72.14215158045977,187.8925L70.47189295977012,188.42L68.80163433908046,189.59L67.18525502873564,190.92L65.51499640804597,191.0275L63.900862068965516,192.8275L62.230603448275865,193.4925L60.72198275862068,194.4975L59.05172413793104,194.5375L57.38146551724138,195.2775L55.765086206896555,194.1625L54.09258261494253,195.16L52.4762033045977,196.0175L50.805944683908045,196.265L49.135686063218394,196.3875L47.51930675287356,195.9375L45.8490481321839,195.4425L44.234913793103445,195.8275L42.564655172413794,196.425L41.05603448275862,196.475L39.38577586206897,196.4525L37.71551724137931,197.295L36.099137931034484,197.17L34.42663433908046,198.255L32.81025502873563,198.5075L31.139996408045977,197.765L29.46973778735632,196.8775L27.85335847701149,196.4625L26.18309985632184,195.8275L24.568965517241377,196.055L22.898706896551722,197.4425L21.39008620689655,197.4525L19.719827586206897,195.6725L18.049568965517242,196.11L16.433189655172413,193.8275L14.76068606321839,190.845L13.144306752873563,190.39L11.474048132183908,189.625L9.803789511494253,192.47L8.187410201149426,190.9225L6.517151580459771,187.9225L4.9030172413793105,186.2025L3.2327586206896552,183.25L1.670258620689655,182.7825L0,183.86" style="fill: none; stroke: #f58518; stroke-width: 2;"></path></g></g></g><g transform="translate(0,0)"><path class="background" d="M0,0h200v200h-200Z" style="fill: none;"></path><g><g class="mark-line role-mark layer_0_marks"><path d="M200,168.6125L198.49137931034483,168.21L196.82112068965517,169.5375L195.15086206896552,167.42000000000002L193.53223778735634,168.5525L191.86197916666669,170.115L190.24559985632183,170.3625L188.57534123563218,170.75L186.90508261494253,170.915L185.2887033045977,174.2475L183.61844468390805,173.7875L182.00206537356323,174.6775L180.33405172413794,176.2275L178.82543103448276,177.42000000000002L177.1551724137931,177.635L175.48491379310346,179.4625L173.86628951149424,180.0875L172.1960308908046,177.44L170.57965158045977,171.6175L168.90939295977012,170.46L167.23913433908046,169.065L165.6227550287356,171.35L163.95249640804596,168.715L162.33611709770116,170.9425L160.66810344827587,172.2825L159.10560344827587,172.59L157.43534482758622,174.3125L155.76508620689654,174.075L154.14646192528735,174.775L152.4762033045977,172.25L150.85982399425288,171.85L149.18956537356323,172.115L147.51930675287358,173.65L145.90292744252872,174.9375L144.23266882183907,174.615L142.61628951149424,175.755L140.94827586206898,177.64L139.43965517241378,177.95499999999998L137.76939655172413,176.5525L136.09913793103448,177.025L134.48275862068965,178.2625L132.8102550287356,178.235L131.1938757183908,180.685L129.52361709770116,180.9125L127.8533584770115,181.825L126.23697916666667,181.9625L124.56672054597702,181.24L122.95258620689656,180.7375L121.28232758620689,180.7075L119.77370689655173,181.2275L118.10344827586208,181.0275L116.43318965517241,180.8175L114.81681034482759,179.255L113.14430675287358,180.9375L111.52792744252874,181.325L109.85766882183907,181.23250000000002L108.18741020114942,180.6175L106.5710308908046,182.76749999999998L104.90077227011494,182.45499999999998L103.28663793103448,182.3075L101.61637931034481,178.835L100.10775862068965,178.555L98.4375,178.4025L96.76724137931035,177.21L95.15086206896551,178.2125L93.4783584770115,179.29L91.86197916666666,180.2175L90.19172054597702,180.4575L88.52146192528735,179.9525L86.90508261494253,179.7025L85.23482399425288,179.6025L83.62068965517241,179.74L81.95043103448276,178.8975L80.38793103448276,177.825L78.71767241379311,177.235L77.04741379310344,178.7375L75.43103448275862,179.23L73.7585308908046,179.51L72.14215158045977,179.7725L70.47189295977012,181.22L68.80163433908046,181.43L67.18525502873564,181.145L65.51499640804597,179.88L63.900862068965516,180.6325L62.230603448275865,182.10750000000002L60.72198275862068,182.2175L59.05172413793104,182.195L57.38146551724138,182.355L55.765086206896555,180.21L54.09258261494253,182.06L52.4762033045977,186.7475L50.805944683908045,182.87L49.135686063218394,184.035L47.51930675287356,183.6725L45.8490481321839,181.7575L44.234913793103445,181.04500000000002L42.564655172413794,176.4625L41.05603448275862,177.79500000000002L39.38577586206897,175.615L37.71551724137931,172.66L36.099137931034484,173.875L34.42663433908046,175.605L32.81025502873563,179.29500000000002L31.139996408045977,177.4375L29.46973778735632,176.2825L27.85335847701149,174.4125L26.18309985632184,174.79500000000002L24.568965517241377,174.075L22.898706896551722,178.3425L21.39008620689655,177.505L19.719827586206897,174.81L18.049568965517242,180.8825L16.433189655172413,178.97L14.76068606321839,177.875L13.144306752873563,174.7025L11.474048132183908,170.345L9.803789511494253,174.815L8.187410201149426,175.4175L6.517151580459771,175.9225L4.9030172413793105,175.0125L3.2327586206896552,173.4725L1.670258620689655,176.9725L0,174.87" style="fill: none; stroke: #72b7b2; stroke-width: 2;"></path></g></g></g><g transform="translate(0,0)"><path class="background" d="M0,0h200v200h-200Z" style="fill: none;"></path><g><g class="mark-line role-mark layer_0_marks"><path d="M200,59.952499999999986L198.49137931034483,68.30000000000001L196.82112068965517,67.51499999999999L195.15086206896552,45.004999999999995L193.53223778735634,54.25L191.86197916666669,65.97L190.24559985632183,76.03750000000001L188.57534123563218,84.58250000000001L186.90508261494253,89.2375L185.2887033045977,94.6025L183.61844468390805,95.6925L182.00206537356323,101.0075L180.33405172413794,112.985L178.82543103448276,115.5025L177.1551724137931,115.3675L175.48491379310346,123.0875L173.86628951149424,126.76L172.1960308908046,110.16L170.57965158045977,99.87000000000002L168.90939295977012,84.1775L167.23913433908046,81.5625L165.6227550287356,68.39500000000001L163.95249640804596,53.55000000000001L162.33611709770116,56.42750000000001L160.66810344827587,89.8825L159.10560344827587,82.205L157.43534482758622,58.92500000000001L155.76508620689654,27.129999999999995L154.14646192528735,26.75L152.4762033045977,23.25L150.85982399425288,58.182500000000005L149.18956537356323,71.1875L147.51930675287358,72.50000000000001L145.90292744252872,69.32499999999999L144.23266882183907,75.52250000000001L142.61628951149424,82.155L140.94827586206898,85.46000000000001L139.43965517241378,87.63750000000002L137.76939655172413,74.62500000000001L136.09913793103448,84.88L134.48275862068965,78.79750000000001L132.8102550287356,80.9025L131.1938757183908,99.52499999999999L129.52361709770116,105.3675L127.8533584770115,103.35L126.23697916666667,95.1675L124.56672054597702,107.045L122.95258620689656,95.515L121.28232758620689,102.5L119.77370689655173,109.345L118.10344827586208,91.835L116.43318965517241,96.285L114.81681034482759,98.7725L113.14430675287358,106.965L111.52792744252874,120.885L109.85766882183907,128.5L108.18741020114942,128.06L106.5710308908046,126.4625L104.90077227011494,130.6825L103.28663793103448,145L101.61637931034481,154.8725L100.10775862068965,153.0025L98.4375,151.095L96.76724137931035,151.8025L95.15086206896551,154.505L93.4783584770115,152.34L91.86197916666666,167.6L90.19172054597702,174.4075" style="fill: none; stroke: #e45756; stroke-width: 2;"></path></g></g></g><g transform="translate(0,0)"><path class="background" d="M0,0h200v200h-200Z" style="fill: none;"></path><g><g class="mark-line role-mark layer_0_marks"><path d="M200,144.245L198.49137931034483,148.845L196.82112068965517,151.985L195.15086206896552,147.3175L193.53223778735634,150.0225L191.86197916666669,152.875L190.24559985632183,153.6625L188.57534123563218,157.9475L186.90508261494253,159.1525L185.2887033045977,164.39249999999998L183.61844468390805,166.0475L182.00206537356323,168.5425L180.33405172413794,173.72L178.82543103448276,177.6725L177.1551724137931,177.4675L175.48491379310346,178.6625L173.86628951149424,176.8325L172.1960308908046,173.1025L170.57965158045977,171.585L168.90939295977012,157.6175L167.23913433908046,160.2625L165.6227550287356,158.14L163.95249640804596,152.8125L162.33611709770116,156.5125L160.66810344827587,164.125L159.10560344827587,168.745L157.43534482758622,166.16L155.76508620689654,150.48L154.14646192528735,154.445L152.4762033045977,152.5125L150.85982399425288,161.6325L149.18956537356323,165.38L147.51930675287358,167.06L145.90292744252872,169.49L144.23266882183907,169.7025L142.61628951149424,175.05L140.94827586206898,176.7725L139.43965517241378,178.8475L137.76939655172413,178.5675L136.09913793103448,178.79L134.48275862068965,177.085L132.8102550287356,179.73L131.1938757183908,180.755L129.52361709770116,183.0375L127.8533584770115,183.01L126.23697916666667,185.6825L124.56672054597702,185.0575L122.95258620689656,182.4025L121.28232758620689,184.32L119.77370689655173,182.8775L118.10344827586208,181.1225L116.43318965517241,182.0275L114.81681034482759,183.04500000000002L113.14430675287358,185.6025L111.52792744252874,186.5975L109.85766882183907,188.2775L108.18741020114942,189.3375L106.5710308908046,190.7975L104.90077227011494,190.06L103.28663793103448,190.985L101.61637931034481,189.5825L100.10775862068965,188.785L98.4375,190.3875L96.76724137931035,191.95L95.15086206896551,191.6175L93.4783584770115,193.45L91.86197916666666,195.155L90.19172054597702,195.6875L88.52146192528735,195.9575L86.90508261494253,195.9325L85.23482399425288,196.4925L83.62068965517241,196.7775L81.95043103448276,196.62L80.38793103448276,197.01L78.71767241379311,197.18L77.04741379310344,197.3275L75.43103448275862,197.3875L73.7585308908046,197.14L72.14215158045977,197.41L70.47189295977012,197.1725L68.80163433908046,197.365L67.18525502873564,197.6175L65.51499640804597,197.755L63.900862068965516,198.2225L62.230603448275865,198.2325L60.72198275862068,198.1225L59.05172413793104,198.205L57.38146551724138,198.21L55.765086206896555,198.0625L54.09258261494253,197.9925L52.4762033045977,198.1875L50.805944683908045,198.155L49.135686063218394,198.0925L47.51930675287356,197.785L45.8490481321839,197.0875L44.234913793103445,196.965L42.564655172413794,197.04L41.05603448275862,197.2875L39.38577586206897,196.91L37.71551724137931,197.2625L36.099137931034484,197.3375L34.42663433908046,197.805L32.81025502873563,198.06L31.139996408045977,197.6825L29.46973778735632,197.65L27.85335847701149,197.095L26.18309985632184,197.505L24.568965517241377,196.815L22.898706896551722,197.2425L21.39008620689655,197.72L19.719827586206897,197.2975L18.049568965517242,198.14L16.433189655172413,197.9375L14.76068606321839,197.555L13.144306752873563,196.78L11.474048132183908,192.3825L9.803789511494253,193.6475L8.187410201149426,193.4525L6.517151580459771,194.75L4.9030172413793105,192.2475L3.2327586206896552,191.5125L1.670258620689655,192.835L0,193.515" style="fill: none; stroke: #4c78a8; stroke-width: 2;"></path></g></g></g></g><g class="mark-rule role-mark layer_1_marks"><line transform="translate(0,193.81581300813008)" x2="200" y2="0" style="fill: none; stroke: #54a24b; stroke-width: 2;"></line><line transform="translate(0,188.00323170731707)" x2="200" y2="0" style="fill: none; stroke: #f58518; stroke-width: 2;"></line><line transform="translate(0,177.18469512195122)" x2="200" y2="0" style="fill: none; stroke: #72b7b2; stroke-width: 2;"></line><line transform="translate(0,96.03238970588235)" x2="200" y2="0" style="fill: none; stroke: #e45756; stroke-width: 2;"></line><line transform="translate(0,183.81737804878048)" x2="200" y2="0" style="fill: none; stroke: #4c78a8; stroke-width: 2;"></line></g><g class="mark-group role-legend"><g transform="translate(220,0)"><path class="background" d="M0,0h51v88h-51Z" style="pointer-events: none; fill: none;"></path><g><g class="mark-group role-legend-entry"><g transform="translate(0,16)"><path class="background" d="M0,0h0v0h0Z" style="pointer-events: none; fill: none;"></path><g><g class="mark-symbol role-legend-symbol" style="pointer-events: none;"><path transform="translate(5,5)" d="M5,0A5,5,0,1,1,-5,0A5,5,0,1,1,5,0" style="fill: none; stroke: #4c78a8; stroke-width: 1.5; opacity: 1;"></path><path transform="translate(5,20)" d="M5,0A5,5,0,1,1,-5,0A5,5,0,1,1,5,0" style="fill: none; stroke: #f58518; stroke-width: 1.5; opacity: 1;"></path><path transform="translate(5,35)" d="M5,0A5,5,0,1,1,-5,0A5,5,0,1,1,5,0" style="fill: none; stroke: #e45756; stroke-width: 1.5; opacity: 1;"></path><path transform="translate(5,50)" d="M5,0A5,5,0,1,1,-5,0A5,5,0,1,1,5,0" style="fill: none; stroke: #72b7b2; stroke-width: 1.5; opacity: 1;"></path><path transform="translate(5,65)" d="M5,0A5,5,0,1,1,-5,0A5,5,0,1,1,5,0" style="fill: none; stroke: #54a24b; stroke-width: 1.5; opacity: 1;"></path></g><g class="mark-text role-legend-label" style="pointer-events: none;"><text text-anchor="start" transform="translate(18,8)" style="font: 10px sans-serif; fill: #000; opacity: 1;">AAPL</text><text text-anchor="start" transform="translate(18,23)" style="font: 10px sans-serif; fill: #000; opacity: 1;">AMZN</text><text text-anchor="start" transform="translate(18,38)" style="font: 10px sans-serif; fill: #000; opacity: 1;">GOOG</text><text text-anchor="start" transform="translate(18,53)" style="font: 10px sans-serif; fill: #000; opacity: 1;">IBM</text><text text-anchor="start" transform="translate(18,68)" style="font: 10px sans-serif; fill: #000; opacity: 1;">MSFT</text></g></g></g></g><g class="mark-text role-legend-title" style="pointer-events: none;"><text text-anchor="start" transform="translate(0,9)" style="font: bold 11px sans-serif; fill: #000; opacity: 1;">symbol</text></g></g></g></g><g class="mark-group role-axis"><g transform="translate(0.5,200.5)"><path class="background" d="M0,0h0v0h0Z" style="pointer-events: none; fill: none;"></path><g><g class="mark-rule role-axis-tick" style="pointer-events: none;"><line transform="translate(0,0)" x2="0" y2="5" style="fill: none; stroke: #888; stroke-width: 1; opacity: 1;"></line><line transform="translate(39,0)" x2="0" y2="5" style="fill: none; stroke: #888; stroke-width: 1; opacity: 1;"></line><line transform="translate(79,0)" x2="0" y2="5" style="fill: none; stroke: #888; stroke-width: 1; opacity: 1;"></line><line transform="translate(118,0)" x2="0" y2="5" style="fill: none; stroke: #888; stroke-width: 1; opacity: 1;"></line><line transform="translate(157,0)" x2="0" y2="5" style="fill: none; stroke: #888; stroke-width: 1; opacity: 1;"></line><line transform="translate(197,0)" x2="0" y2="5" style="fill: none; stroke: #888; stroke-width: 1; opacity: 1;"></line></g><g class="mark-text role-axis-label" style="pointer-events: none;"><text text-anchor="start" transform="translate(0,15)" style="font: 10px sans-serif; fill: #000; opacity: 1;">Jan 01, 2000</text><text text-anchor="middle" transform="translate(39.38577586206897,15)" style="font: 10px sans-serif; fill: #000; opacity: 0;">Jan 01, 2002</text><text text-anchor="middle" transform="translate(78.71767241379311,15)" style="font: 10px sans-serif; fill: #000; opacity: 0;">Jan 01, 2004</text><text text-anchor="middle" transform="translate(118.10344827586208,15)" style="font: 10px sans-serif; fill: #000; opacity: 0;">Jan 01, 2006</text><text text-anchor="middle" transform="translate(157.43534482758622,15)" style="font: 10px sans-serif; fill: #000; opacity: 0;">Jan 01, 2008</text><text text-anchor="middle" transform="translate(196.82112068965517,15)" style="font: 10px sans-serif; fill: #000; opacity: 1;">Jan 01, 2010</text></g><g class="mark-rule role-axis-domain" style="pointer-events: none;"><line transform="translate(0,0)" x2="200" y2="0" style="fill: none; stroke: #888; stroke-width: 1; opacity: 1;"></line></g><g class="mark-text role-axis-title" style="pointer-events: none;"><text text-anchor="middle" transform="translate(100,31)" style="font: bold 11px sans-serif; fill: #000; opacity: 1;">date</text></g></g></g></g><g class="mark-group role-axis"><g transform="translate(0.5,0.5)"><path class="background" d="M0,0h0v0h0Z" style="pointer-events: none; fill: none;"></path><g><g class="mark-rule role-axis-tick" style="pointer-events: none;"><line transform="translate(0,200)" x2="-5" y2="0" style="fill: none; stroke: #888; stroke-width: 1; opacity: 1;"></line><line transform="translate(0,150)" x2="-5" y2="0" style="fill: none; stroke: #888; stroke-width: 1; opacity: 1;"></line><line transform="translate(0,100)" x2="-5" y2="0" style="fill: none; stroke: #888; stroke-width: 1; opacity: 1;"></line><line transform="translate(0,50)" x2="-5" y2="0" style="fill: none; stroke: #888; stroke-width: 1; opacity: 1;"></line><line transform="translate(0,0)" x2="-5" y2="0" style="fill: none; stroke: #888; stroke-width: 1; opacity: 1;"></line></g><g class="mark-text role-axis-label" style="pointer-events: none;"><text text-anchor="end" transform="translate(-7,203)" style="font: 10px sans-serif; fill: #000; opacity: 1;">0</text><text text-anchor="end" transform="translate(-7,153)" style="font: 10px sans-serif; fill: #000; opacity: 1;">200</text><text text-anchor="end" transform="translate(-7,103)" style="font: 10px sans-serif; fill: #000; opacity: 1;">400</text><text text-anchor="end" transform="translate(-7,53)" style="font: 10px sans-serif; fill: #000; opacity: 1;">600</text><text text-anchor="end" transform="translate(-7,3)" style="font: 10px sans-serif; fill: #000; opacity: 1;">800</text></g><g class="mark-rule role-axis-domain" style="pointer-events: none;"><line transform="translate(0,200)" x2="0" y2="-200" style="fill: none; stroke: #888; stroke-width: 1; opacity: 1;"></line></g><g class="mark-text role-axis-title" style="pointer-events: none;"><text text-anchor="middle" transform="translate(-34,100) rotate(-90) translate(0,-2)" style="font: bold 11px sans-serif; fill: #000; opacity: 1;">price, Mean of price</text></g></g></g></g></g></g></g></g></svg>