<svg xmlns="http://www.w3.org/2000/svg" xmlns:xlink="http://www.w3.org/1999/xlink" version="1.1" class="marks" width="486" height="122" viewBox="0 0 486 122"><rect width="486" height="122" fill="white"/><g fill="none" stroke-miterlimit="10" transform="translate(80,5)"><g class="mark-group role-frame root" role="graphics-object" aria-roledescription="group mark container"><g transform="translate(0,0)"><path class="background" aria-hidden="true" d="M0.5,0.5h400v80h-400Z" stroke="#ddd"/><g><g class="mark-group role-axis" aria-hidden="true"><g transform="translate(0.5,80.5)"><path class="background" aria-hidden="true" d="M0,0h0v0h0Z" pointer-events="none"/><g><g class="mark-rule role-axis-grid" pointer-events="none"><line transform="translate(0,0)" x2="0" y2="-80" stroke="#ddd" stroke-width="1" opacity="1"/><line transform="translate(31,0)" x2="0" y2="-80" stroke="#ddd" stroke-width="1" opacity="1"/><line transform="translate(62,0)" x2="0" y2="-80" stroke="#ddd" stroke-width="1" opacity="1"/><line transform="translate(92,0)" x2="0" y2="-80" stroke="#ddd" stroke-width="1" opacity="1"/><line transform="translate(123,0)" x2="0" y2="-80" stroke="#ddd" stroke-width="1" opacity="1"/><line transform="translate(154,0)" x2="0" y2="-80" stroke="#ddd" stroke-width="1" opacity="1"/><line transform="translate(185,0)" x2="0" y2="-80" stroke="#ddd" stroke-width="1" opacity="1"/><line transform="translate(215,0)" x2="0" y2="-80" stroke="#ddd" stroke-width="1" opacity="1"/><line transform="translate(246,0)" x2="0" y2="-80" stroke="#ddd" stroke-width="1" opacity="1"/><line transform="translate(277,0)" x2="0" y2="-80" stroke="#ddd" stroke-width="1" opacity="1"/><line transform="translate(308,0)" x2="0" y2="-80" stroke="#ddd" stroke-width="1" opacity="1"/><line transform="translate(338,0)" x2="0" y2="-80" stroke="#ddd" stroke-width="1" opacity="1"/><line transform="translate(369,0)" x2="0" y2="-80" stroke="#ddd" stroke-width="1" opacity="1"/><line transform="translate(400,0)" x2="0" y2="-80" stroke="#ddd" stroke-width="1" opacity="1"/></g></g><path class="foreground" aria-hidden="true" d="" pointer-events="none" display="none"/></g></g><g class="mark-group role-axis" role="graphics-symbol" aria-roledescription="axis" aria-label="X-axis titled 'yield' for a linear scale with values from 18 to 44"><g transform="translate(0.5,80.5)"><path class="background" aria-hidden="true" d="M0,0h0v0h0Z" pointer-events="none"/><g><g class="mark-rule role-axis-tick" pointer-events="none"><line transform="translate(0,0)" x2="0" y2="5" stroke="#888" stroke-width="1" opacity="1"/><line transform="translate(31,0)" x2="0" y2="5" stroke="#888" stroke-width="1" opacity="1"/><line transform="translate(62,0)" x2="0" y2="5" stroke="#888" stroke-width="1" opacity="1"/><line transform="translate(92,0)" x2="0" y2="5" stroke="#888" stroke-width="1" opacity="1"/><line transform="translate(123,0)" x2="0" y2="5" stroke="#888" stroke-width="1" opacity="1"/><line transform="translate(154,0)" x2="0" y2="5" stroke="#888" stroke-width="1" opacity="1"/><line transform="translate(185,0)" x2="0" y2="5" stroke="#888" stroke-width="1" opacity="1"/><line transform="translate(215,0)" x2="0" y2="5" stroke="#888" stroke-width="1" opacity="1"/><line transform="translate(246,0)" x2="0" y2="5" stroke="#888" stroke-width="1" opacity="1"/><line transform="translate(277,0)" x2="0" y2="5" stroke="#888" stroke-width="1" opacity="1"/><line transform="translate(308,0)" x2="0" y2="5" stroke="#888" stroke-width="1" opacity="1"/><line transform="translate(338,0)" x2="0" y2="5" stroke="#888" stroke-width="1" opacity="1"/><line transform="translate(369,0)" x2="0" y2="5" stroke="#888" stroke-width="1" opacity="1"/><line transform="translate(400,0)" x2="0" y2="5" stroke="#888" stroke-width="1" opacity="1"/></g><g class="mark-text role-axis-label" pointer-events="none"><text text-anchor="start" transform="translate(0,15)" font-family="sans-serif" font-size="10px" fill="#000" opacity="1">18</text><text text-anchor="middle" transform="translate(30.76923076923077,15)" font-family="sans-serif" font-size="10px" fill="#000" opacity="1">20</text><text text-anchor="middle" transform="translate(61.53846153846154,15)" font-family="sans-serif" font-size="10px" fill="#000" opacity="1">22</text><text text-anchor="middle" transform="translate(92.3076923076923,15)" font-family="sans-serif" font-size="10px" fill="#000" opacity="1">24</text><text text-anchor="middle" transform="translate(123.07692307692308,15)" font-family="sans-serif" font-size="10px" fill="#000" opacity="1">26</text><text text-anchor="middle" transform="translate(153.84615384615387,15)" font-family="sans-serif" font-size="10px" fill="#000" opacity="1">28</text><text text-anchor="middle" transform="translate(184.6153846153846,15)" font-family="sans-serif" font-size="10px" fill="#000" opacity="1">30</text><text text-anchor="middle" transform="translate(215.3846153846154,15)" font-family="sans-serif" font-size="10px" fill="#000" opacity="1">32</text><text text-anchor="middle" transform="translate(246.15384615384616,15)" font-family="sans-serif" font-size="10px" fill="#000" opacity="1">34</text><text text-anchor="middle" transform="translate(276.9230769230769,15)" font-family="sans-serif" font-size="10px" fill="#000" opacity="1">36</text><text text-anchor="middle" transform="translate(307.69230769230774,15)" font-family="sans-serif" font-size="10px" fill="#000" opacity="1">38</text><text text-anchor="middle" transform="translate(338.46153846153845,15)" font-family="sans-serif" font-size="10px" fill="#000" opacity="1">40</text><text text-anchor="middle" transform="translate(369.2307692307692,15)" font-family="sans-serif" font-size="10px" fill="#000" opacity="1">42</text><text text-anchor="end" transform="translate(400,15)" font-family="sans-serif" font-size="10px" fill="#000" opacity="1">44</text></g><g class="mark-rule role-axis-domain" pointer-events="none"><line transform="translate(0,0)" x2="400" y2="0" stroke="#888" stroke-width="1" opacity="1"/></g><g class="mark-text role-axis-title" pointer-events="none"><text text-anchor="middle" transform="translate(200,30)" font-family="sans-serif" font-size="11px" font-weight="bold" fill="#000" opacity="1">yield</text></g></g><path class="foreground" aria-hidden="true" d="" pointer-events="none" display="none"/></g></g><g class="mark-group role-axis" role="graphics-symbol" aria-roledescription="axis" aria-label="Y-axis titled 'variety' for a discrete scale with 4 values: Glabron, Manchuria, No. 457, No. 462"><g transform="translate(0.5,0.5)"><path class="background" aria-hidden="true" d="M0,0h0v0h0Z" pointer-events="none"/><g><g class="mark-rule role-axis-tick" pointer-events="none"><line transform="translate(0,10)" x2="-5" y2="0" stroke="#888" stroke-width="1" opacity="1"/><line transform="translate(0,30)" x2="-5" y2="0" stroke="#888" stroke-width="1" opacity="1"/><line transform="translate(0,50)" x2="-5" y2="0" stroke="#888" stroke-width="1" opacity="1"/><line transform="translate(0,70)" x2="-5" y2="0" stroke="#888" stroke-width="1" opacity="1"/></g><g class="mark-text role-axis-label" pointer-events="none"><text text-anchor="end" transform="translate(-7,12.5)" font-family="sans-serif" font-size="10px" fill="#000" opacity="1">Glabron</text><text text-anchor="end" transform="translate(-7,32.5)" font-family="sans-serif" font-size="10px" fill="#000" opacity="1">Manchuria</text><text text-anchor="end" transform="translate(-7,52.5)" font-family="sans-serif" font-size="10px" fill="#000" opacity="1">No. 457</text><text text-anchor="end" transform="translate(-7,72.5)" font-family="sans-serif" font-size="10px" fill="#000" opacity="1">No. 462</text></g><g class="mark-rule role-axis-domain" pointer-events="none"><line transform="translate(0,0)" x2="0" y2="80" stroke="#888" stroke-width="1" opacity="1"/></g><g class="mark-text role-axis-title" pointer-events="none"><text text-anchor="middle" transform="translate(-63.28515625,40) rotate(-90) translate(0,-2)" font-family="sans-serif" font-size="11px" font-weight="bold" fill="#000" opacity="1">variety</text></g></g><path class="foreground" aria-hidden="true" d="" pointer-events="none" display="none"/></g></g><g class="mark-rule role-mark layer_0_marks" role="graphics-object" aria-roledescription="rule mark container"><line aria-label="yield: 24.8478; variety: Glabron; upper_yield_center: 39.9522; yield_center: 32.4; yield_center + yield_error: 39.9522; yield_center - yield_error: 24.8478" role="graphics-symbol" aria-roledescription="errorbar" transform="translate(105.35076923076923,10)" x2="232.37538461538458" y2="0" stroke="black"/><line aria-label="yield: 23.98917; variety: Manchuria; upper_yield_center: 37.94417; yield_center: 30.96667; yield_center + yield_error: 37.94417; yield_center - yield_error: 23.98917" role="graphics-symbol" aria-roledescription="errorbar" transform="translate(92.14107692307695,30)" x2="214.69230769230765" y2="0" stroke="black"/><line aria-label="yield: 30.049965; variety: No. 457; upper_yield_center: 37.883365; yield_center: 33.966665; yield_center + yield_error: 37.883365; yield_center - yield_error: 30.049965" role="graphics-symbol" aria-roledescription="errorbar" transform="translate(185.38407692307692,50)" x2="120.51384615384609" y2="0" stroke="black"/><line aria-label="yield: 18.4768; variety: No. 462; upper_yield_center: 42.4232; yield_center: 30.45; yield_center + yield_error: 42.4232; yield_center - yield_error: 18.4768" role="graphics-symbol" aria-roledescription="errorbar" transform="translate(7.335384615384573,70)" x2="368.4061538461539" y2="0" stroke="black"/></g><g class="mark-symbol role-mark layer_1_marks" role="graphics-object" aria-roledescription="symbol mark container"><path aria-label="yield_center: 32.4; variety: Glabron" role="graphics-symbol" aria-roledescription="point" transform="translate(221.53846153846152,10)" d="M2.739,0A2.739,2.739,0,1,1,-2.739,0A2.739,2.739,0,1,1,2.739,0" fill="black" stroke-width="2" opacity="0.7"/><path aria-label="yield_center: 30.96667; variety: Manchuria" role="graphics-symbol" aria-roledescription="point" transform="translate(199.4872307692308,30)" d="M2.739,0A2.739,2.739,0,1,1,-2.739,0A2.739,2.739,0,1,1,2.739,0" fill="black" stroke-width="2" opacity="0.7"/><path aria-label="yield_center: 33.966665; variety: No. 457" role="graphics-symbol" aria-roledescription="point" transform="translate(245.641,50)" d="M2.739,0A2.739,2.739,0,1,1,-2.739,0A2.739,2.739,0,1,1,2.739,0" fill="black" stroke-width="2" opacity="0.7"/><path aria-label="yield_center: 30.45; variety: No. 462" role="graphics-symbol" aria-roledescription="point" transform="translate(191.53846153846152,70)" d="M2.739,0A2.739,2.739,0,1,1,-2.739,0A2.739,2.739,0,1,1,2.739,0" fill="black" stroke-width="2" opacity="0.7"/></g></g><path class="foreground" aria-hidden="true" d="" display="none"/></g></g></g></svg>