<svg xmlns="http://www.w3.org/2000/svg" xmlns:xlink="http://www.w3.org/1999/xlink" version="1.1" class="marks" width="611" height="219" viewBox="0 0 611 219"><rect width="611" height="219" fill="white"/><g fill="none" stroke-miterlimit="10" transform="translate(164,22)"><g class="mark-group role-frame root" role="graphics-object" aria-roledescription="group mark container"><g transform="translate(0,0)"><path class="background" aria-hidden="true" d="M0,0h250v175h-250Z"/><g><g class="mark-group role-axis" aria-hidden="true"><g transform="translate(-49.5,0.5)"><path class="background" aria-hidden="true" d="M0,0h0v0h0Z" pointer-events="none"/><g><g class="mark-rule role-axis-grid" pointer-events="none"><line transform="translate(50,13)" x2="250" y2="0" stroke="#ddd" stroke-width="1" opacity="1"/><line transform="translate(50,38)" x2="250" y2="0" stroke="#ddd" stroke-width="1" opacity="1"/><line transform="translate(50,63)" x2="250" y2="0" stroke="#ddd" stroke-width="1" opacity="1"/><line transform="translate(50,88)" x2="250" y2="0" stroke="#ddd" stroke-width="1" opacity="1"/><line transform="translate(50,113)" x2="250" y2="0" stroke="#ddd" stroke-width="1" opacity="1"/><line transform="translate(50,138)" x2="250" y2="0" stroke="#ddd" stroke-width="1" opacity="1"/><line transform="translate(50,163)" x2="250" y2="0" stroke="#ddd" stroke-width="1" opacity="1"/></g></g><path class="foreground" aria-hidden="true" d="" pointer-events="none" display="none"/></g></g><g class="mark-group role-axis" role="graphics-symbol" aria-roledescription="axis" aria-label="X-axis for a linear scale with values from 0 to 6"><g transform="translate(0.5,175.5)"><path class="background" aria-hidden="true" d="M0,0h0v0h0Z" pointer-events="none"/><g><g class="mark-rule role-axis-tick" pointer-events="none"><line transform="translate(42,0)" x2="0" y2="5" stroke="#888" stroke-width="1" opacity="1"/><line transform="translate(83,0)" x2="0" y2="5" stroke="#888" stroke-width="1" opacity="1"/><line transform="translate(125,0)" x2="0" y2="5" stroke="#888" stroke-width="1" opacity="1"/><line transform="translate(167,0)" x2="0" y2="5" stroke="#888" stroke-width="1" opacity="1"/><line transform="translate(208,0)" x2="0" y2="5" stroke="#888" stroke-width="1" opacity="1"/></g><g class="mark-text role-axis-label" pointer-events="none"><text text-anchor="middle" transform="translate(41.666666666666664,15)" font-family="sans-serif" font-size="10px" fill="#000" opacity="1">1</text><text text-anchor="middle" transform="translate(83.33333333333333,15)" font-family="sans-serif" font-size="10px" fill="#000" opacity="1">2</text><text text-anchor="middle" transform="translate(125,15)" font-family="sans-serif" font-size="10px" fill="#000" opacity="1">3</text><text text-anchor="middle" transform="translate(166.66666666666666,15)" font-family="sans-serif" font-size="10px" fill="#000" opacity="1">4</text><text text-anchor="middle" transform="translate(208.33333333333334,15)" font-family="sans-serif" font-size="10px" fill="#000" opacity="1">5</text></g><g class="mark-rule role-axis-domain" pointer-events="none"><line transform="translate(0,0)" x2="250" y2="0" stroke="#888" stroke-width="1" opacity="1"/></g></g><path class="foreground" aria-hidden="true" d="" pointer-events="none" display="none"/></g></g><g class="mark-group role-axis" role="graphics-symbol" aria-roledescription="axis" aria-label="Y-axis for a discrete scale with 7 values: Identify Errors:, Fix Errors:, Easier to Fix:, Faster to Fix:, Easier on Phone:, Easier on Tablet:, Device Preference:"><g transform="translate(-49.5,0.5)"><path class="background" aria-hidden="true" d="M0,0h0v0h0Z" pointer-events="none"/><g><g class="mark-text role-axis-label" pointer-events="none"><text text-anchor="end" transform="translate(-2,15.5)" font-family="sans-serif" font-size="10px" font-weight="bold" fill="#000" opacity="1">Identify Errors:</text><text text-anchor="end" transform="translate(-2,40.5)" font-family="sans-serif" font-size="10px" font-weight="bold" fill="#000" opacity="1">Fix Errors:</text><text text-anchor="end" transform="translate(-2,65.5)" font-family="sans-serif" font-size="10px" font-weight="bold" fill="#000" opacity="1">Easier to Fix:</text><text text-anchor="end" transform="translate(-2,90.5)" font-family="sans-serif" font-size="10px" font-weight="bold" fill="#000" opacity="1">Faster to Fix:</text><text text-anchor="end" transform="translate(-2,115.5)" font-family="sans-serif" font-size="10px" font-weight="bold" fill="#000" opacity="1">Easier on Phone:</text><text text-anchor="end" transform="translate(-2,140.5)" font-family="sans-serif" font-size="10px" font-weight="bold" fill="#000" opacity="1">Easier on Tablet:</text><text text-anchor="end" transform="translate(-2,165.5)" font-family="sans-serif" font-size="10px" font-weight="bold" fill="#000" opacity="1">Device Preference:</text></g></g><path class="foreground" aria-hidden="true" d="" pointer-events="none" display="none"/></g></g><g class="mark-symbol role-mark layer_0_marks" role="graphics-object" aria-roledescription="symbol mark container"><path aria-label="value: 2; name: Identify Errors:; Number of Ratings: 9" role="graphics-symbol" aria-roledescription="circle" transform="translate(83.33333333333333,12.5)" d="M9.012,0A9.012,9.012,0,1,1,-9.012,0A9.012,9.012,0,1,1,9.012,0" fill="#6EB4FD" stroke-width="2"/><path aria-label="value: 2; name: Fix Errors:; Number of Ratings: 7" role="graphics-symbol" aria-roledescription="circle" transform="translate(83.33333333333333,37.5)" d="M7.948,0A7.948,7.948,0,1,1,-7.948,0A7.948,7.948,0,1,1,7.948,0" fill="#6EB4FD" stroke-width="2"/><path aria-label="value: 3; name: Easier to Fix:; Number of Ratings: 2" role="graphics-symbol" aria-roledescription="circle" transform="translate(125,62.5)" d="M4.249,0A4.249,4.249,0,1,1,-4.249,0A4.249,4.249,0,1,1,4.249,0" fill="#6EB4FD" stroke-width="2"/><path aria-label="value: 4; name: Faster to Fix:; Number of Ratings: 5" role="graphics-symbol" aria-roledescription="circle" transform="translate(166.66666666666666,87.5)" d="M6.718,0A6.718,6.718,0,1,1,-6.718,0A6.718,6.718,0,1,1,6.718,0" fill="#6EB4FD" stroke-width="2"/><path aria-label="value: 2; name: Easier on Phone:; Number of Ratings: 3" role="graphics-symbol" aria-roledescription="circle" transform="translate(83.33333333333333,112.5)" d="M5.203,0A5.203,5.203,0,1,1,-5.203,0A5.203,5.203,0,1,1,5.203,0" fill="#6EB4FD" stroke-width="2"/><path aria-label="value: 5; name: Easier on Tablet:; Number of Ratings: 4" role="graphics-symbol" aria-roledescription="circle" transform="translate(208.33333333333334,137.5)" d="M6.008,0A6.008,6.008,0,1,1,-6.008,0A6.008,6.008,0,1,1,6.008,0" fill="#6EB4FD" stroke-width="2"/><path aria-label="value: 5; name: Device Preference:; Number of Ratings: 10" role="graphics-symbol" aria-roledescription="circle" transform="translate(208.33333333333334,162.5)" d="M9.5,0A9.5,9.5,0,1,1,-9.5,0A9.5,9.5,0,1,1,9.5,0" fill="#6EB4FD" stroke-width="2"/><path aria-label="value: 3; name: Fix Errors:; Number of Ratings: 8" role="graphics-symbol" aria-roledescription="circle" transform="translate(125,37.5)" d="M8.497,0A8.497,8.497,0,1,1,-8.497,0A8.497,8.497,0,1,1,8.497,0" fill="#6EB4FD" stroke-width="2"/><path aria-label="value: 4; name: Easier to Fix:; Number of Ratings: 3" role="graphics-symbol" aria-roledescription="circle" transform="translate(166.66666666666666,62.5)" d="M5.203,0A5.203,5.203,0,1,1,-5.203,0A5.203,5.203,0,1,1,5.203,0" fill="#6EB4FD" stroke-width="2"/><path aria-label="value: 5; name: Faster to Fix:; Number of Ratings: 2" role="graphics-symbol" aria-roledescription="circle" transform="translate(208.33333333333334,87.5)" d="M4.249,0A4.249,4.249,0,1,1,-4.249,0A4.249,4.249,0,1,1,4.249,0" fill="#6EB4FD" stroke-width="2"/><path aria-label="value: 5; name: Easier on Phone:; Number of Ratings: 1" role="graphics-symbol" aria-roledescription="circle" transform="translate(208.33333333333334,112.5)" d="M3.004,0A3.004,3.004,0,1,1,-3.004,0A3.004,3.004,0,1,1,3.004,0" fill="#6EB4FD" stroke-width="2"/><path aria-label="value: 2; name: Easier to Fix:; Number of Ratings: 8" role="graphics-symbol" aria-roledescription="circle" transform="translate(83.33333333333333,62.5)" d="M8.497,0A8.497,8.497,0,1,1,-8.497,0A8.497,8.497,0,1,1,8.497,0" fill="#6EB4FD" stroke-width="2"/><path aria-label="value: 1; name: Faster to Fix:; Number of Ratings: 5" role="graphics-symbol" aria-roledescription="circle" transform="translate(41.666666666666664,87.5)" d="M6.718,0A6.718,6.718,0,1,1,-6.718,0A6.718,6.718,0,1,1,6.718,0" fill="#6EB4FD" stroke-width="2"/><path aria-label="value: 1; name: Easier on Tablet:; Number of Ratings: 7" role="graphics-symbol" aria-roledescription="circle" transform="translate(41.666666666666664,137.5)" d="M7.948,0A7.948,7.948,0,1,1,-7.948,0A7.948,7.948,0,1,1,7.948,0" fill="#6EB4FD" stroke-width="2"/><path aria-label="value: 3; name: Identify Errors:; Number of Ratings: 4" role="graphics-symbol" aria-roledescription="circle" transform="translate(125,12.5)" d="M6.008,0A6.008,6.008,0,1,1,-6.008,0A6.008,6.008,0,1,1,6.008,0" fill="#6EB4FD" stroke-width="2"/><path aria-label="value: 2; name: Faster to Fix:; Number of Ratings: 4" role="graphics-symbol" aria-roledescription="circle" transform="translate(83.33333333333333,87.5)" d="M6.008,0A6.008,6.008,0,1,1,-6.008,0A6.008,6.008,0,1,1,6.008,0" fill="#6EB4FD" stroke-width="2"/><path aria-label="value: 4; name: Easier on Phone:; Number of Ratings: 3" role="graphics-symbol" aria-roledescription="circle" transform="translate(166.66666666666666,112.5)" d="M5.203,0A5.203,5.203,0,1,1,-5.203,0A5.203,5.203,0,1,1,5.203,0" fill="#6EB4FD" stroke-width="2"/><path aria-label="value: 1; name: Identify Errors:; Number of Ratings: 3" role="graphics-symbol" aria-roledescription="circle" transform="translate(41.666666666666664,12.5)" d="M5.203,0A5.203,5.203,0,1,1,-5.203,0A5.203,5.203,0,1,1,5.203,0" fill="#6EB4FD" stroke-width="2"/><path aria-label="value: 4; name: Easier on Tablet:; Number of Ratings: 3" role="graphics-symbol" aria-roledescription="circle" transform="translate(166.66666666666666,137.5)" d="M5.203,0A5.203,5.203,0,1,1,-5.203,0A5.203,5.203,0,1,1,5.203,0" fill="#6EB4FD" stroke-width="2"/><path aria-label="value: 4; name: Device Preference:; Number of Ratings: 4" role="graphics-symbol" aria-roledescription="circle" transform="translate(166.66666666666666,162.5)" d="M6.008,0A6.008,6.008,0,1,1,-6.008,0A6.008,6.008,0,1,1,6.008,0" fill="#6EB4FD" stroke-width="2"/><path aria-label="value: 3; name: Easier on Phone:; Number of Ratings: 1" role="graphics-symbol" aria-roledescription="circle" transform="translate(125,112.5)" d="M3.004,0A3.004,3.004,0,1,1,-3.004,0A3.004,3.004,0,1,1,3.004,0" fill="#6EB4FD" stroke-width="2"/><path aria-label="value: 2; name: Easier on Tablet:; Number of Ratings: 1" role="graphics-symbol" aria-roledescription="circle" transform="translate(83.33333333333333,137.5)" d="M3.004,0A3.004,3.004,0,1,1,-3.004,0A3.004,3.004,0,1,1,3.004,0" fill="#6EB4FD" stroke-width="2"/><path aria-label="value: 1; name: Fix Errors:; Number of Ratings: 1" role="graphics-symbol" aria-roledescription="circle" transform="translate(41.666666666666664,37.5)" d="M3.004,0A3.004,3.004,0,1,1,-3.004,0A3.004,3.004,0,1,1,3.004,0" fill="#6EB4FD" stroke-width="2"/><path aria-label="value: 1; name: Easier on Phone:; Number of Ratings: 9" role="graphics-symbol" aria-roledescription="circle" transform="translate(41.666666666666664,112.5)" d="M9.012,0A9.012,9.012,0,1,1,-9.012,0A9.012,9.012,0,1,1,9.012,0" fill="#6EB4FD" stroke-width="2"/><path aria-label="value: 1; name: Easier to Fix:; Number of Ratings: 4" role="graphics-symbol" aria-roledescription="circle" transform="translate(41.666666666666664,62.5)" d="M6.008,0A6.008,6.008,0,1,1,-6.008,0A6.008,6.008,0,1,1,6.008,0" fill="#6EB4FD" stroke-width="2"/><path aria-label="value: 3; name: Faster to Fix:; Number of Ratings: 1" role="graphics-symbol" aria-roledescription="circle" transform="translate(125,87.5)" d="M3.004,0A3.004,3.004,0,1,1,-3.004,0A3.004,3.004,0,1,1,3.004,0" fill="#6EB4FD" stroke-width="2"/><path aria-label="value: 3; name: Easier on Tablet:; Number of Ratings: 2" role="graphics-symbol" aria-roledescription="circle" transform="translate(125,137.5)" d="M4.249,0A4.249,4.249,0,1,1,-4.249,0A4.249,4.249,0,1,1,4.249,0" fill="#6EB4FD" stroke-width="2"/><path aria-label="value: 3; name: Device Preference:; Number of Ratings: 1" role="graphics-symbol" aria-roledescription="circle" transform="translate(125,162.5)" d="M3.004,0A3.004,3.004,0,1,1,-3.004,0A3.004,3.004,0,1,1,3.004,0" fill="#6EB4FD" stroke-width="2"/><path aria-label="value: 1; name: Device Preference:; Number of Ratings: 1" role="graphics-symbol" aria-roledescription="circle" transform="translate(41.666666666666664,162.5)" d="M3.004,0A3.004,3.004,0,1,1,-3.004,0A3.004,3.004,0,1,1,3.004,0" fill="#6EB4FD" stroke-width="2"/><path aria-label="value: 4; name: Identify Errors:; Number of Ratings: 1" role="graphics-symbol" aria-roledescription="circle" transform="translate(166.66666666666666,12.5)" d="M3.004,0A3.004,3.004,0,1,1,-3.004,0A3.004,3.004,0,1,1,3.004,0" fill="#6EB4FD" stroke-width="2"/><path aria-label="value: 5; name: Fix Errors:; Number of Ratings: 1" role="graphics-symbol" aria-roledescription="circle" transform="translate(208.33333333333334,37.5)" d="M3.004,0A3.004,3.004,0,1,1,-3.004,0A3.004,3.004,0,1,1,3.004,0" fill="#6EB4FD" stroke-width="2"/><path aria-label="value: 2; name: Device Preference:; Number of Ratings: 1" role="graphics-symbol" aria-roledescription="circle" transform="translate(83.33333333333333,162.5)" d="M3.004,0A3.004,3.004,0,1,1,-3.004,0A3.004,3.004,0,1,1,3.004,0" fill="#6EB4FD" stroke-width="2"/></g><g class="mark-rect role-mark layer_1_marks" role="graphics-object" aria-roledescription="rect mark container"><path aria-label="median: 1.999976; name: Identify Errors:" role="graphics-symbol" aria-roledescription="tick" d="M82.83233333333332,5h1v15h-1Z" fill="black" opacity="0.7"/><path aria-label="median: 2; name: Fix Errors:" role="graphics-symbol" aria-roledescription="tick" d="M82.83333333333333,30h1v15h-1Z" fill="black" opacity="0.7"/><path aria-label="median: 1.999969; name: Easier to Fix:" role="graphics-symbol" aria-roledescription="tick" d="M82.83204166666667,55h1v15h-1Z" fill="black" opacity="0.7"/><path aria-label="median: 2.500045; name: Faster to Fix:" role="graphics-symbol" aria-roledescription="tick" d="M103.66854166666667,80h1v15h-1Z" fill="black" opacity="0.7"/><path aria-label="median: 1.500022; name: Easier on Phone:" role="graphics-symbol" aria-roledescription="tick" d="M62.00091666666667,105h1v15h-1Z" fill="black" opacity="0.7"/><path aria-label="median: 2.99998; name: Easier on Tablet:" role="graphics-symbol" aria-roledescription="tick" d="M124.49916666666667,130h1v15h-1Z" fill="black" opacity="0.7"/><path aria-label="median: 4.500007; name: Device Preference:" role="graphics-symbol" aria-roledescription="tick" d="M187.00029166666667,155h1v15h-1Z" fill="black" opacity="0.7"/></g><g class="mark-text role-mark layer_2_marks" role="graphics-object" aria-roledescription="text mark container"><text aria-label="name: Identify Errors:; lo: Easy" role="graphics-symbol" aria-roledescription="text mark" text-anchor="end" transform="translate(-5,15.5)" font-family="sans-serif" font-size="11px" fill="black">Easy</text><text aria-label="name: Fix Errors:; lo: Easy" role="graphics-symbol" aria-roledescription="text mark" text-anchor="end" transform="translate(-5,40.5)" font-family="sans-serif" font-size="11px" fill="black">Easy</text><text aria-label="name: Easier to Fix:; lo: Toolbar" role="graphics-symbol" aria-roledescription="text mark" text-anchor="end" transform="translate(-5,65.5)" font-family="sans-serif" font-size="11px" fill="black">Toolbar</text><text aria-label="name: Faster to Fix:; lo: Toolbar" role="graphics-symbol" aria-roledescription="text mark" text-anchor="end" transform="translate(-5,90.5)" font-family="sans-serif" font-size="11px" fill="black">Toolbar</text><text aria-label="name: Easier on Phone:; lo: Toolbar" role="graphics-symbol" aria-roledescription="text mark" text-anchor="end" transform="translate(-5,115.5)" font-family="sans-serif" font-size="11px" fill="black">Toolbar</text><text aria-label="name: Easier on Tablet:; lo: Toolbar" role="graphics-symbol" aria-roledescription="text mark" text-anchor="end" transform="translate(-5,140.5)" font-family="sans-serif" font-size="11px" fill="black">Toolbar</text><text aria-label="name: Device Preference:; lo: Phone" role="graphics-symbol" aria-roledescription="text mark" text-anchor="end" transform="translate(-5,165.5)" font-family="sans-serif" font-size="11px" fill="black">Phone</text></g><g class="mark-text role-mark layer_3_marks" role="graphics-object" aria-roledescription="text mark container"><text aria-label="name: Identify Errors:; hi: Hard" role="graphics-symbol" aria-roledescription="text mark" text-anchor="start" transform="translate(255,15.5)" font-family="sans-serif" font-size="11px" fill="black">Hard</text><text aria-label="name: Fix Errors:; hi: Hard" role="graphics-symbol" aria-roledescription="text mark" text-anchor="start" transform="translate(255,40.5)" font-family="sans-serif" font-size="11px" fill="black">Hard</text><text aria-label="name: Easier to Fix:; hi: Gesture" role="graphics-symbol" aria-roledescription="text mark" text-anchor="start" transform="translate(255,65.5)" font-family="sans-serif" font-size="11px" fill="black">Gesture</text><text aria-label="name: Faster to Fix:; hi: Gesture" role="graphics-symbol" aria-roledescription="text mark" text-anchor="start" transform="translate(255,90.5)" font-family="sans-serif" font-size="11px" fill="black">Gesture</text><text aria-label="name: Easier on Phone:; hi: Gesture" role="graphics-symbol" aria-roledescription="text mark" text-anchor="start" transform="translate(255,115.5)" font-family="sans-serif" font-size="11px" fill="black">Gesture</text><text aria-label="name: Easier on Tablet:; hi: Gesture" role="graphics-symbol" aria-roledescription="text mark" text-anchor="start" transform="translate(255,140.5)" font-family="sans-serif" font-size="11px" fill="black">Gesture</text><text aria-label="name: Device Preference:; hi: Tablet" role="graphics-symbol" aria-roledescription="text mark" text-anchor="start" transform="translate(255,165.5)" font-family="sans-serif" font-size="11px" fill="black">Tablet</text></g><g class="mark-group role-legend" role="graphics-symbol" aria-roledescription="legend" aria-label="Symbol legend titled 'Number of Ratings' for size with values from 0 to 10"><g transform="translate(325,0)"><path class="background" aria-hidden="true" d="M0,0h117v114h-117Z" pointer-events="none"/><g><g class="mark-group role-legend-entry"><g transform="translate(0,16)"><path class="background" aria-hidden="true" d="M0,0h0v0h0Z" pointer-events="none"/><g><g class="mark-group role-scope" role="graphics-object" aria-roledescription="group mark container"><g transform="translate(0,0)"><path class="background" aria-hidden="true" d="M0,0h37.724609375v10.7485291572496h-37.724609375Z" pointer-events="none" opacity="1"/><g><g class="mark-symbol role-legend-symbol" pointer-events="none"><path transform="translate(10.5,5)" d="M4.249,0A4.249,4.249,0,1,1,-4.249,0A4.249,4.249,0,1,1,4.249,0" fill="#6EB4FD" stroke-width="1.5" opacity="1"/></g><g class="mark-text role-legend-label" pointer-events="none"><text text-anchor="start" transform="translate(25,8)" font-family="sans-serif" font-size="10px" fill="#000" opacity="1">2</text></g></g><path class="foreground" aria-hidden="true" d="" pointer-events="none" display="none"/></g><g transform="translate(0,14)"><path class="background" aria-hidden="true" d="M0,0h37.724609375v14.50832755431992h-37.724609375Z" pointer-events="none" opacity="1"/><g><g class="mark-symbol role-legend-symbol" pointer-events="none"><path transform="translate(10.5,7)" d="M6.008,0A6.008,6.008,0,1,1,-6.008,0A6.008,6.008,0,1,1,6.008,0" fill="#6EB4FD" stroke-width="1.5" opacity="1"/></g><g class="mark-text role-legend-label" pointer-events="none"><text text-anchor="start" transform="translate(25,10)" font-family="sans-serif" font-size="10px" fill="#000" opacity="1">4</text></g></g><path class="foreground" aria-hidden="true" d="" pointer-events="none" display="none"/></g><g transform="translate(0,32)"><path class="background" aria-hidden="true" d="M0,0h37.724609375v17.358668357794087h-37.724609375Z" pointer-events="none" opacity="1"/><g><g class="mark-symbol role-legend-symbol" pointer-events="none"><path transform="translate(10.5,8.5)" d="M7.359,0A7.359,7.359,0,1,1,-7.359,0A7.359,7.359,0,1,1,7.359,0" fill="#6EB4FD" stroke-width="1.5" opacity="1"/></g><g class="mark-text role-legend-label" pointer-events="none"><text text-anchor="start" transform="translate(25,11.5)" font-family="sans-serif" font-size="10px" fill="#000" opacity="1">6</text></g></g><path class="foreground" aria-hidden="true" d="" pointer-events="none" display="none"/></g><g transform="translate(0,53)"><path class="background" aria-hidden="true" d="M0,0h37.724609375v19.4970583144992h-37.724609375Z" pointer-events="none" opacity="1"/><g><g class="mark-symbol role-legend-symbol" pointer-events="none"><path transform="translate(10.5,9.5)" d="M8.497,0A8.497,8.497,0,1,1,-8.497,0A8.497,8.497,0,1,1,8.497,0" fill="#6EB4FD" stroke-width="1.5" opacity="1"/></g><g class="mark-text role-legend-label" pointer-events="none"><text text-anchor="start" transform="translate(25,12.5)" font-family="sans-serif" font-size="10px" fill="#000" opacity="1">8</text></g></g><path class="foreground" aria-hidden="true" d="" pointer-events="none" display="none"/></g><g transform="translate(0,76)"><path class="background" aria-hidden="true" d="M0,0h37.724609375v21.5h-37.724609375Z" pointer-events="none" opacity="1"/><g><g class="mark-symbol role-legend-symbol" pointer-events="none"><path transform="translate(10.5,10.5)" d="M9.5,0A9.5,9.5,0,1,1,-9.5,0A9.5,9.5,0,1,1,9.5,0" fill="#6EB4FD" stroke-width="1.5" opacity="1"/></g><g class="mark-text role-legend-label" pointer-events="none"><text text-anchor="start" transform="translate(25,13.5)" font-family="sans-serif" font-size="10px" fill="#000" opacity="1">10</text></g></g><path class="foreground" aria-hidden="true" d="" pointer-events="none" display="none"/></g></g></g><path class="foreground" aria-hidden="true" d="" pointer-events="none" display="none"/></g></g><g class="mark-text role-legend-title" pointer-events="none"><text text-anchor="start" transform="translate(0,9)" font-family="sans-serif" font-size="11px" font-weight="bold" fill="#000" opacity="1">Number of Ratings</text></g></g><path class="foreground" aria-hidden="true" d="" pointer-events="none" display="none"/></g></g><g class="mark-group role-title"><g transform="translate(125,-17)"><path class="background" aria-hidden="true" d="M0,0h0v0h0Z" pointer-events="none"/><g><g class="mark-text role-title-text" role="graphics-symbol" aria-roledescription="title" aria-label="Title text 'Questionnaire Ratings'" pointer-events="none"><text text-anchor="middle" transform="translate(0,10)" font-family="sans-serif" font-size="13px" font-weight="bold" fill="#000" opacity="1">Questionnaire Ratings</text></g></g><path class="foreground" aria-hidden="true" d="" pointer-events="none" display="none"/></g></g></g><path class="foreground" aria-hidden="true" d="" display="none"/></g></g></g></svg>