<svg class="marks" width="408" height="150" viewBox="0 0 408 150" version="1.1" xmlns="http://www.w3.org/2000/svg" xmlns:xlink="http://www.w3.org/1999/xlink"><g transform="translate(134,5)"><g class="mark-group role-frame root"><g transform="translate(0,0)"><path class="background" d="M0.5,0.5h200v105h-200Z" style="fill: none; stroke: #ddd;"></path><g><g class="mark-group role-axis"><g transform="translate(0.5,105.5)"><path class="background" d="M0,0h0v0h0Z" style="pointer-events: none; fill: none;"></path><g><g class="mark-rule role-axis-grid" style="pointer-events: none;"><line transform="translate(0,0)" x2="0" y2="-105" style="fill: none; stroke: #ddd; stroke-width: 1; opacity: 1;"></line><line transform="translate(50,0)" x2="0" y2="-105" style="fill: none; stroke: #ddd; stroke-width: 1; opacity: 1;"></line><line transform="translate(100,0)" x2="0" y2="-105" style="fill: none; stroke: #ddd; stroke-width: 1; opacity: 1;"></line><line transform="translate(150,0)" x2="0" y2="-105" style="fill: none; stroke: #ddd; stroke-width: 1; opacity: 1;"></line><line transform="translate(200,0)" x2="0" y2="-105" style="fill: none; stroke: #ddd; stroke-width: 1; opacity: 1;"></line></g></g></g></g><g class="mark-group role-scope layer_0_pathgroup"><g transform="translate(0,0)"><path class="background" d="M0,0h200v105h-200Z" style="fill: none;"></path><g><g class="mark-line role-mark layer_0_marks"><path d="M133.2125,10.5L177.515,10.5" style="fill: none; stroke: #db646f; stroke-width: 2;"></path></g></g></g><g transform="translate(0,0)"><path class="background" d="M0,0h200v105h-200Z" style="fill: none;"></path><g><g class="mark-line role-mark layer_0_marks"><path d="M126.37240000000001,31.5L180.07000000000002,31.5" style="fill: none; stroke: #db646f; stroke-width: 2;"></path></g></g></g><g transform="translate(0,0)"><path class="background" d="M0,0h200v105h-200Z" style="fill: none;"></path><g><g class="mark-line role-mark layer_0_marks"><path d="M100.62250000000002,52.5L157.1975,52.5" style="fill: none; stroke: #db646f; stroke-width: 2;"></path></g></g></g><g transform="translate(0,0)"><path class="background" d="M0,0h200v105h-200Z" style="fill: none;"></path><g><g class="mark-line role-mark layer_0_marks"><path d="M99.795,73.5L171.47,73.5" style="fill: none; stroke: #db646f; stroke-width: 2;"></path></g></g></g><g transform="translate(0,0)"><path class="background" d="M0,0h200v105h-200Z" style="fill: none;"></path><g><g class="mark-line role-mark layer_0_marks"><path d="M173.725,94.5L193.275,94.5" style="fill: none; stroke: #db646f; stroke-width: 2;"></path></g></g></g></g><g class="mark-symbol role-mark layer_1_marks"><path transform="translate(133.2125,10.5)" d="M5,0A5,5,0,1,1,-5,0A5,5,0,1,1,5,0" style="fill: #e6959c; stroke-width: 2; opacity: 1;"></path><path transform="translate(177.515,10.5)" d="M5,0A5,5,0,1,1,-5,0A5,5,0,1,1,5,0" style="fill: #911a24; stroke-width: 2; opacity: 1;"></path><path transform="translate(126.37240000000001,31.5)" d="M5,0A5,5,0,1,1,-5,0A5,5,0,1,1,5,0" style="fill: #e6959c; stroke-width: 2; opacity: 1;"></path><path transform="translate(180.07000000000002,31.5)" d="M5,0A5,5,0,1,1,-5,0A5,5,0,1,1,5,0" style="fill: #911a24; stroke-width: 2; opacity: 1;"></path><path transform="translate(100.62250000000002,52.5)" d="M5,0A5,5,0,1,1,-5,0A5,5,0,1,1,5,0" style="fill: #e6959c; stroke-width: 2; opacity: 1;"></path><path transform="translate(157.1975,52.5)" d="M5,0A5,5,0,1,1,-5,0A5,5,0,1,1,5,0" style="fill: #911a24; stroke-width: 2; opacity: 1;"></path><path transform="translate(99.795,73.5)" d="M5,0A5,5,0,1,1,-5,0A5,5,0,1,1,5,0" style="fill: #e6959c; stroke-width: 2; opacity: 1;"></path><path transform="translate(171.47,73.5)" d="M5,0A5,5,0,1,1,-5,0A5,5,0,1,1,5,0" style="fill: #911a24; stroke-width: 2; opacity: 1;"></path><path transform="translate(173.725,94.5)" d="M5,0A5,5,0,1,1,-5,0A5,5,0,1,1,5,0" style="fill: #e6959c; stroke-width: 2; opacity: 1;"></path><path transform="translate(193.275,94.5)" d="M5,0A5,5,0,1,1,-5,0A5,5,0,1,1,5,0" style="fill: #911a24; stroke-width: 2; opacity: 1;"></path></g><g class="mark-group role-legend"><g transform="translate(218,0)"><path class="background" d="M0,0h51v42h-51Z" style="pointer-events: none; fill: none;"></path><g><g class="mark-group role-legend-entry"><g transform="translate(0,16)"><path class="background" d="M0,0h0v0h0Z" style="pointer-events: none; fill: none;"></path><g><g class="mark-symbol role-legend-symbol" style="pointer-events: none;"><path transform="translate(5,5)" d="M5,0A5,5,0,1,1,-5,0A5,5,0,1,1,5,0" style="fill: #e6959c; stroke-width: 1.5; opacity: 1;"></path><path transform="translate(5,20)" d="M5,0A5,5,0,1,1,-5,0A5,5,0,1,1,5,0" style="fill: #911a24; stroke-width: 1.5; opacity: 1;"></path></g><g class="mark-text role-legend-label" style="pointer-events: none;"><text text-anchor="start" transform="translate(18,8)" style="font: 10px sans-serif; fill: #000; opacity: 1;">1955</text><text text-anchor="start" transform="translate(18,23)" style="font: 10px sans-serif; fill: #000; opacity: 1;">2000</text></g></g></g></g><g class="mark-text role-legend-title" style="pointer-events: none;"><text text-anchor="start" transform="translate(0,9)" style="font: bold 11px sans-serif; fill: #000; opacity: 1;">Year</text></g></g></g></g><g class="mark-group role-axis"><g transform="translate(0.5,105.5)"><path class="background" d="M0,0h0v0h0Z" style="pointer-events: none; fill: none;"></path><g><g class="mark-rule role-axis-tick" style="pointer-events: none;"><line transform="translate(0,0)" x2="0" y2="5" style="fill: none; stroke: #888; stroke-width: 1; opacity: 1;"></line><line transform="translate(50,0)" x2="0" y2="5" style="fill: none; stroke: #888; stroke-width: 1; opacity: 1;"></line><line transform="translate(100,0)" x2="0" y2="5" style="fill: none; stroke: #888; stroke-width: 1; opacity: 1;"></line><line transform="translate(150,0)" x2="0" y2="5" style="fill: none; stroke: #888; stroke-width: 1; opacity: 1;"></line><line transform="translate(200,0)" x2="0" y2="5" style="fill: none; stroke: #888; stroke-width: 1; opacity: 1;"></line></g><g class="mark-text role-axis-label" style="pointer-events: none;"><text text-anchor="start" transform="translate(0,15)" style="font: 10px sans-serif; fill: #000; opacity: 1;">0</text><text text-anchor="middle" transform="translate(50,15)" style="font: 10px sans-serif; fill: #000; opacity: 1;">20</text><text text-anchor="middle" transform="translate(100,15)" style="font: 10px sans-serif; fill: #000; opacity: 1;">40</text><text text-anchor="middle" transform="translate(150,15)" style="font: 10px sans-serif; fill: #000; opacity: 1;">60</text><text text-anchor="end" transform="translate(200,15)" style="font: 10px sans-serif; fill: #000; opacity: 1;">80</text></g><g class="mark-rule role-axis-domain" style="pointer-events: none;"><line transform="translate(0,0)" x2="200" y2="0" style="fill: none; stroke: #888; stroke-width: 1; opacity: 1;"></line></g><g class="mark-text role-axis-title" style="pointer-events: none;"><text text-anchor="middle" transform="translate(100,31)" style="font: bold 11px sans-serif; fill: #000; opacity: 1;">Life Expectancy (years)</text></g></g></g></g><g class="mark-group role-axis"><g transform="translate(-4.5,0.5)"><path class="background" d="M0,0h0v0h0Z" style="pointer-events: none; fill: none;"></path><g><g class="mark-text role-axis-label" style="pointer-events: none;"><text text-anchor="end" transform="translate(-2,13.5)" style="font: 10px sans-serif; fill: #000; opacity: 1;">Brazil</text><text text-anchor="end" transform="translate(-2,34.5)" style="font: 10px sans-serif; fill: #000; opacity: 1;">China</text><text text-anchor="end" transform="translate(-2,55.5)" style="font: 10px sans-serif; fill: #000; opacity: 1;">India</text><text text-anchor="end" transform="translate(-2,76.5)" style="font: 10px sans-serif; fill: #000; opacity: 1;">Indonesia</text><text text-anchor="end" transform="translate(-2,97.5)" style="font: 10px sans-serif; fill: #000; opacity: 1;">United States</text></g><g class="mark-text role-axis-title" style="pointer-events: none;"><text text-anchor="middle" transform="translate(-111,52.5) rotate(-90) translate(0,-2)" style="font: bold 11px sans-serif; fill: #000; opacity: 1;">Country</text></g></g></g></g></g></g></g></g></svg>