<svg class="marks" width="375" height="244" viewBox="0 0 375 244" version="1.1" xmlns="http://www.w3.org/2000/svg" xmlns:xlink="http://www.w3.org/1999/xlink"><g transform="translate(50,5)"><g class="mark-group role-frame root"><g transform="translate(0,0)"><path class="background" d="M0.5,0.5h320v200h-320Z" style="fill: transparent; stroke: #ddd;"></path><g><g class="mark-group role-axis"><g transform="translate(0.5,200.5)"><path class="background" d="M0,0h0v0h0Z" style="pointer-events: none; fill: none;"></path><g><g class="mark-rule role-axis-grid" style="pointer-events: none;"><line transform="translate(0,-200)" x2="0" y2="200" style="fill: none; stroke: #ddd; stroke-width: 1; stroke-dasharray: ; opacity: 1;"></line><line transform="translate(72,-200)" x2="0" y2="200" style="fill: none; stroke: #ddd; stroke-width: 1; stroke-dasharray: ; opacity: 1;"></line><line transform="translate(145,-200)" x2="0" y2="200" style="fill: none; stroke: #ddd; stroke-width: 1; stroke-dasharray: ; opacity: 1;"></line><line transform="translate(217,-200)" x2="0" y2="200" style="fill: none; stroke: #ddd; stroke-width: 1; stroke-dasharray: ; opacity: 1;"></line><line transform="translate(289,-200)" x2="0" y2="200" style="fill: none; stroke: #ddd; stroke-width: 1; stroke-dasharray: ; opacity: 1;"></line></g></g></g></g><g class="mark-group role-axis"><g transform="translate(0.5,0.5)"><path class="background" d="M0,0h0v0h0Z" style="pointer-events: none; fill: none;"></path><g><g class="mark-rule role-axis-grid" style="pointer-events: none;"><line transform="translate(0,175)" x2="320" y2="0" style="fill: none; stroke: #ddd; stroke-width: 1; stroke-dasharray: ; opacity: 1;"></line><line transform="translate(0,125)" x2="320" y2="0" style="fill: none; stroke: #ddd; stroke-width: 1; stroke-dasharray: ; opacity: 1;"></line><line transform="translate(0,75)" x2="320" y2="0" style="fill: none; stroke: #ddd; stroke-width: 1; stroke-dasharray: ; opacity: 1;"></line><line transform="translate(0,25)" x2="320" y2="0" style="fill: none; stroke: #ddd; stroke-width: 1; stroke-dasharray: ; opacity: 1;"></line></g></g></g></g><g class="mark-rule role-mark layer_0_marks"><line transform="translate(10.32258064516129,113.75000000000001)" x2="0" y2="-40.00000000000003" style="fill: none; stroke: #ae1325;"></line><line transform="translate(20.64516129032258,117.49999999999999)" x2="0" y2="-45.74999999999996" style="fill: none; stroke: #06982d;"></line><line transform="translate(30.967741935483872,84.49999999999997)" x2="0" y2="-54.24999999999994" style="fill: none; stroke: #ae1325;"></line><line transform="translate(41.29032258064516,76.99999999999996)" x2="0" y2="-27.499999999999957" style="fill: none; stroke: #06982d;"></line><line transform="translate(51.61290322580645,103.74999999999997)" x2="0" y2="-48.99999999999994" style="fill: none; stroke: #ae1325;"></line><line transform="translate(82.58064516129032,164.75)" x2="0" y2="-135.25" style="fill: none; stroke: #06982d;"></line><line transform="translate(92.90322580645162,130.25000000000003)" x2="0" y2="-49.500000000000014" style="fill: none; stroke: #06982d;"></line><line transform="translate(103.2258064516129,152.50000000000003)" x2="0" y2="-70.99999999999999" style="fill: none; stroke: #ae1325;"></line><line transform="translate(113.5483870967742,154.75000000000003)" x2="0" y2="-32.500000000000014" style="fill: none; stroke: #ae1325;"></line><line transform="translate(123.87096774193549,131.75)" x2="0" y2="-19.25" style="fill: none; stroke: #ae1325;"></line><line transform="translate(154.83870967741936,83.99999999999999)" x2="0" y2="-36.249999999999986" style="fill: none; stroke: #ae1325;"></line><line transform="translate(165.16129032258064,73.25)" x2="0" y2="-67" style="fill: none; stroke: #ae1325;"></line><line transform="translate(175.48387096774192,59)" x2="0" y2="-53.250000000000085" style="fill: none; stroke: #ae1325;"></line><line transform="translate(185.80645161290323,84.99999999999997)" x2="0" y2="-48.49999999999994" style="fill: none; stroke: #06982d;"></line><line transform="translate(196.1290322580645,136.00000000000003)" x2="0" y2="-44.00000000000003" style="fill: none; stroke: #06982d;"></line><line transform="translate(227.0967741935484,67.49999999999997)" x2="0" y2="-43.749999999999915" style="fill: none; stroke: #ae1325;"></line><line transform="translate(237.4193548387097,129.25000000000006)" x2="0" y2="-92.75000000000003" style="fill: none; stroke: #06982d;"></line><line transform="translate(247.74193548387098,105.25000000000003)" x2="0" y2="-44.74999999999997" style="fill: none; stroke: #06982d;"></line><line transform="translate(258.06451612903226,167.5)" x2="0" y2="-81.49999999999997" style="fill: none; stroke: #06982d;"></line><line transform="translate(268.38709677419354,180.99999999999997)" x2="0" y2="-36.49999999999994" style="fill: none; stroke: #06982d;"></line><line transform="translate(299.3548387096774,192.75000000000003)" x2="0" y2="-47.25000000000003" style="fill: none; stroke: #06982d;"></line><line transform="translate(309.6774193548387,199.5)" x2="0" y2="-58.99999999999997" style="fill: none; stroke: #ae1325;"></line></g><g class="mark-rect role-mark layer_1_marks"><path d="M7.82258064516129,74.00000000000003h5v33.499999999999986h-5Z" style="fill: #ae1325;"></path><path d="M18.14516129032258,74.00000000000003h5v10.25h-5Z" style="fill: #06982d;"></path><path d="M28.467741935483872,49.5h5v34.99999999999997h-5Z" style="fill: #ae1325;"></path><path d="M38.79032258064516,49.5h5v21h-5Z" style="fill: #06982d;"></path><path d="M49.11290322580645,84.49999999999997h5v5.750000000000014h-5Z" style="fill: #ae1325;"></path><path d="M80.08064516129032,54h5v26.750000000000014h-5Z" style="fill: #06982d;"></path><path d="M90.40322580645162,80.75000000000001h5v37.5h-5Z" style="fill: #06982d;"></path><path d="M100.7258064516129,113.49999999999997h5v39.00000000000006h-5Z" style="fill: #ae1325;"></path><path d="M111.0483870967742,122.25000000000001h5v18.749999999999986h-5Z" style="fill: #ae1325;"></path><path d="M121.37096774193549,121.25000000000003h5v1.7500000000000142h-5Z" style="fill: #ae1325;"></path><path d="M152.33870967741936,54.75000000000003h5v27.749999999999986h-5Z" style="fill: #ae1325;"></path><path d="M162.66129032258064,8h5v46.75000000000003h-5Z" style="fill: #ae1325;"></path><path d="M172.98387096774192,36.50000000000003h5v8.749999999999943h-5Z" style="fill: #ae1325;"></path><path d="M183.30645161290323,36.50000000000003h5v37.74999999999994h-5Z" style="fill: #06982d;"></path><path d="M193.6290322580645,96h5v29.250000000000043h-5Z" style="fill: #06982d;"></path><path d="M224.5967741935484,45.74999999999994h5v19.250000000000085h-5Z" style="fill: #ae1325;"></path><path d="M234.9193548387097,42.49999999999997h5v18.000000000000085h-5Z" style="fill: #06982d;"></path><path d="M245.24193548387098,60.50000000000006h5v38.24999999999993h-5Z" style="fill: #06982d;"></path><path d="M255.56451612903226,88.75000000000001h5v77.24999999999999h-5Z" style="fill: #06982d;"></path><path d="M265.88709677419354,147.75h5v29h-5Z" style="fill: #06982d;"></path><path d="M296.8548387096774,176.75h5v14.499999999999972h-5Z" style="fill: #06982d;"></path><path d="M307.1774193548387,166.24999999999997h5v24.75000000000003h-5Z" style="fill: #ae1325;"></path></g><g class="mark-group role-axis"><g transform="translate(0.5,200.5)"><path class="background" d="M0,0h0v0h0Z" style="pointer-events: none; fill: none;"></path><g><g class="mark-rule role-axis-tick" style="pointer-events: none;"><line transform="translate(0,0)" x2="0" y2="5" style="fill: none; stroke: #888; stroke-width: 1; opacity: 1;"></line><line transform="translate(72,0)" x2="0" y2="5" style="fill: none; stroke: #888; stroke-width: 1; opacity: 1;"></line><line transform="translate(145,0)" x2="0" y2="5" style="fill: none; stroke: #888; stroke-width: 1; opacity: 1;"></line><line transform="translate(217,0)" x2="0" y2="5" style="fill: none; stroke: #888; stroke-width: 1; opacity: 1;"></line><line transform="translate(289,0)" x2="0" y2="5" style="fill: none; stroke: #888; stroke-width: 1; opacity: 1;"></line></g><g class="mark-text role-axis-label" style="pointer-events: none;"><text text-anchor="middle" transform="translate(0,16)" style="font: 10px sans-serif; fill: #000; opacity: 1;">05/31</text><text text-anchor="middle" transform="translate(72.25806451612902,16)" style="font: 10px sans-serif; fill: #000; opacity: 1;">06/07</text><text text-anchor="middle" transform="translate(144.51612903225805,16)" style="font: 10px sans-serif; fill: #000; opacity: 1;">06/14</text><text text-anchor="middle" transform="translate(216.77419354838707,16)" style="font: 10px sans-serif; fill: #000; opacity: 1;">06/21</text><text text-anchor="middle" transform="translate(289.0322580645161,16)" style="font: 10px sans-serif; fill: #000; opacity: 1;">06/28</text></g><g class="mark-rule role-axis-domain" style="pointer-events: none;"><line transform="translate(0,0)" x2="320" y2="0" style="fill: none; stroke: #888; stroke-width: 1; opacity: 1;"></line></g><g class="mark-text role-axis-title" style="pointer-events: none;"><text text-anchor="middle" transform="translate(160,31)" style="font: bold 11px sans-serif; fill: #000; opacity: 1;">Date in 2009</text></g></g></g></g><g class="mark-group role-axis"><g transform="translate(0.5,0.5)"><path class="background" d="M0,0h0v0h0Z" style="pointer-events: none; fill: none;"></path><g><g class="mark-rule role-axis-tick" style="pointer-events: none;"><line transform="translate(0,175)" x2="-5" y2="0" style="fill: none; stroke: #888; stroke-width: 1; opacity: 1;"></line><line transform="translate(0,125)" x2="-5" y2="0" style="fill: none; stroke: #888; stroke-width: 1; opacity: 1;"></line><line transform="translate(0,75)" x2="-5" y2="0" style="fill: none; stroke: #888; stroke-width: 1; opacity: 1;"></line><line transform="translate(0,25)" x2="-5" y2="0" style="fill: none; stroke: #888; stroke-width: 1; opacity: 1;"></line></g><g class="mark-text role-axis-label" style="pointer-events: none;"><text text-anchor="end" transform="translate(-7,178)" style="font: 10px sans-serif; fill: #000; opacity: 1;">26</text><text text-anchor="end" transform="translate(-7,128)" style="font: 10px sans-serif; fill: #000; opacity: 1;">28</text><text text-anchor="end" transform="translate(-7,78)" style="font: 10px sans-serif; fill: #000; opacity: 1;">30</text><text text-anchor="end" transform="translate(-7,28)" style="font: 10px sans-serif; fill: #000; opacity: 1;">32</text></g><g class="mark-rule role-axis-domain" style="pointer-events: none;"><line transform="translate(0,200)" x2="0" y2="-200" style="fill: none; stroke: #888; stroke-width: 1; opacity: 1;"></line></g><g class="mark-text role-axis-title" style="pointer-events: none;"><text text-anchor="middle" transform="translate(-32,100) rotate(-90) translate(0,-2)" style="font: bold 11px sans-serif; fill: #000; opacity: 1;">low, open</text></g></g></g></g></g></g></g></g></svg>