<svg xmlns="http://www.w3.org/2000/svg" xmlns:xlink="http://www.w3.org/1999/xlink" version="1.1" class="marks" width="510" height="347" viewBox="0 0 510 347"><rect width="510" height="347" fill="white"/><g fill="none" stroke-miterlimit="10" transform="translate(47,10)"><g class="mark-group role-frame root" role="graphics-object" aria-roledescription="group mark container"><g transform="translate(0,0)"><path class="background" aria-hidden="true" d="M0.5,0.5h300v300h-300Z" stroke="#ddd"/><g><g class="mark-group role-axis" role="graphics-symbol" aria-roledescription="axis" aria-label="X-axis titled 'Acceleration (binned)' for a linear scale with values from 8 to 26"><g transform="translate(0.5,300.5)"><path class="background" aria-hidden="true" d="M0,0h0v0h0Z" pointer-events="none"/><g><g class="mark-rule role-axis-tick" pointer-events="none"><line transform="translate(0,0)" x2="0" y2="5" stroke="#888" stroke-width="1" opacity="1"/><line transform="translate(33,0)" x2="0" y2="5" stroke="#888" stroke-width="1" opacity="1"/><line transform="translate(67,0)" x2="0" y2="5" stroke="#888" stroke-width="1" opacity="1"/><line transform="translate(100,0)" x2="0" y2="5" stroke="#888" stroke-width="1" opacity="1"/><line transform="translate(133,0)" x2="0" y2="5" stroke="#888" stroke-width="1" opacity="1"/><line transform="translate(167,0)" x2="0" y2="5" stroke="#888" stroke-width="1" opacity="1"/><line transform="translate(200,0)" x2="0" y2="5" stroke="#888" stroke-width="1" opacity="1"/><line transform="translate(233,0)" x2="0" y2="5" stroke="#888" stroke-width="1" opacity="1"/><line transform="translate(267,0)" x2="0" y2="5" stroke="#888" stroke-width="1" opacity="1"/><line transform="translate(300,0)" x2="0" y2="5" stroke="#888" stroke-width="1" opacity="1"/></g><g class="mark-text role-axis-label" pointer-events="none"><text text-anchor="start" transform="translate(0,15)" font-family="sans-serif" font-size="10px" fill="#000" opacity="1">8.0</text><text text-anchor="middle" transform="translate(33.33333333333333,15)" font-family="sans-serif" font-size="10px" fill="#000" opacity="0">10.0</text><text text-anchor="middle" transform="translate(66.66666666666666,15)" font-family="sans-serif" font-size="10px" fill="#000" opacity="1">12.0</text><text text-anchor="middle" transform="translate(100,15)" font-family="sans-serif" font-size="10px" fill="#000" opacity="0">14.0</text><text text-anchor="middle" transform="translate(133.33333333333331,15)" font-family="sans-serif" font-size="10px" fill="#000" opacity="1">16.0</text><text text-anchor="middle" transform="translate(166.66666666666669,15)" font-family="sans-serif" font-size="10px" fill="#000" opacity="0">18.0</text><text text-anchor="middle" transform="translate(200,15)" font-family="sans-serif" font-size="10px" fill="#000" opacity="1">20.0</text><text text-anchor="middle" transform="translate(233.33333333333334,15)" font-family="sans-serif" font-size="10px" fill="#000" opacity="0">22.0</text><text text-anchor="middle" transform="translate(266.66666666666663,15)" font-family="sans-serif" font-size="10px" fill="#000" opacity="1">24.0</text><text text-anchor="end" transform="translate(300,15)" font-family="sans-serif" font-size="10px" fill="#000" opacity="0">26.0</text></g><g class="mark-rule role-axis-domain" pointer-events="none"><line transform="translate(0,0)" x2="300" y2="0" stroke="#888" stroke-width="1" opacity="1"/></g><g class="mark-text role-axis-title" pointer-events="none"><text text-anchor="middle" transform="translate(150,30)" font-family="sans-serif" font-size="11px" font-weight="bold" fill="#000" opacity="1">Acceleration (binned)</text></g></g><path class="foreground" aria-hidden="true" d="" pointer-events="none" display="none"/></g></g><g class="mark-group role-axis" role="graphics-symbol" aria-roledescription="axis" aria-label="Y-axis titled 'Horsepower (binned)' for a linear scale with values from 40 to 240"><g transform="translate(0.5,0.5)"><path class="background" aria-hidden="true" d="M0,0h0v0h0Z" pointer-events="none"/><g><g class="mark-rule role-axis-tick" pointer-events="none"><line transform="translate(0,300)" x2="-5" y2="0" stroke="#888" stroke-width="1" opacity="1"/><line transform="translate(0,270)" x2="-5" y2="0" stroke="#888" stroke-width="1" opacity="1"/><line transform="translate(0,240)" x2="-5" y2="0" stroke="#888" stroke-width="1" opacity="1"/><line transform="translate(0,210)" x2="-5" y2="0" stroke="#888" stroke-width="1" opacity="1"/><line transform="translate(0,180)" x2="-5" y2="0" stroke="#888" stroke-width="1" opacity="1"/><line transform="translate(0,150)" x2="-5" y2="0" stroke="#888" stroke-width="1" opacity="1"/><line transform="translate(0,120)" x2="-5" y2="0" stroke="#888" stroke-width="1" opacity="1"/><line transform="translate(0,90)" x2="-5" y2="0" stroke="#888" stroke-width="1" opacity="1"/><line transform="translate(0,60)" x2="-5" y2="0" stroke="#888" stroke-width="1" opacity="1"/><line transform="translate(0,30)" x2="-5" y2="0" stroke="#888" stroke-width="1" opacity="1"/><line transform="translate(0,0)" x2="-5" y2="0" stroke="#888" stroke-width="1" opacity="1"/></g><g class="mark-text role-axis-label" pointer-events="none"><text text-anchor="end" transform="translate(-7,303)" font-family="sans-serif" font-size="10px" fill="#000" opacity="1">40</text><text text-anchor="end" transform="translate(-7,273)" font-family="sans-serif" font-size="10px" fill="#000" opacity="1">60</text><text text-anchor="end" transform="translate(-7,243)" font-family="sans-serif" font-size="10px" fill="#000" opacity="1">80</text><text text-anchor="end" transform="translate(-7,213)" font-family="sans-serif" font-size="10px" fill="#000" opacity="1">100</text><text text-anchor="end" transform="translate(-7,183)" font-family="sans-serif" font-size="10px" fill="#000" opacity="1">120</text><text text-anchor="end" transform="translate(-7,153)" font-family="sans-serif" font-size="10px" fill="#000" opacity="1">140</text><text text-anchor="end" transform="translate(-7,123)" font-family="sans-serif" font-size="10px" fill="#000" opacity="1">160</text><text text-anchor="end" transform="translate(-7,93.00000000000001)" font-family="sans-serif" font-size="10px" fill="#000" opacity="1">180</text><text text-anchor="end" transform="translate(-7,62.999999999999986)" font-family="sans-serif" font-size="10px" fill="#000" opacity="1">200</text><text text-anchor="end" transform="translate(-7,32.99999999999999)" font-family="sans-serif" font-size="10px" fill="#000" opacity="1">220</text><text text-anchor="end" transform="translate(-7,3)" font-family="sans-serif" font-size="10px" fill="#000" opacity="1">240</text></g><g class="mark-rule role-axis-domain" pointer-events="none"><line transform="translate(0,300)" x2="0" y2="-300" stroke="#888" stroke-width="1" opacity="1"/></g><g class="mark-text role-axis-title" pointer-events="none"><text text-anchor="middle" transform="translate(-30.0869140625,150) rotate(-90) translate(0,-2)" font-family="sans-serif" font-size="11px" font-weight="bold" fill="#000" opacity="1">Horsepower (binned)</text></g></g><path class="foreground" aria-hidden="true" d="" pointer-events="none" display="none"/></g></g><g class="mark-symbol role-mark layer_0_marks" role="graphics-object" aria-roledescription="symbol mark container"><path aria-label="Acceleration (binned): 12 – 14; Horsepower (binned): 120 – 140; All Cars Count: 9" role="graphics-symbol" aria-roledescription="circle" transform="translate(83.33333333333334,165)" d="M6.3,0A6.3,6.3,0,1,1,-6.3,0A6.3,6.3,0,1,1,6.3,0" fill="#4c78a8" stroke-width="2"/><path aria-label="Acceleration (binned): 10 – 12; Horsepower (binned): 160 – 180; All Cars Count: 9" role="graphics-symbol" aria-roledescription="circle" transform="translate(50,105)" d="M6.3,0A6.3,6.3,0,1,1,-6.3,0A6.3,6.3,0,1,1,6.3,0" fill="#4c78a8" stroke-width="2"/><path aria-label="Acceleration (binned): 10 – 12; Horsepower (binned): 140 – 160; All Cars Count: 6" role="graphics-symbol" aria-roledescription="circle" transform="translate(50,135)" d="M5.176,0A5.176,5.176,0,1,1,-5.176,0A5.176,5.176,0,1,1,5.176,0" fill="#4c78a8" stroke-width="2"/><path aria-label="Acceleration (binned): 12 – 14; Horsepower (binned): 140 – 160; All Cars Count: 25" role="graphics-symbol" aria-roledescription="circle" transform="translate(83.33333333333334,135)" d="M10.415,0A10.415,10.415,0,1,1,-10.415,0A10.415,10.415,0,1,1,10.415,0" fill="#4c78a8" stroke-width="2"/><path aria-label="Acceleration (binned): 10 – 12; Horsepower (binned): 180 – 200; All Cars Count: 5" role="graphics-symbol" aria-roledescription="circle" transform="translate(50,75)" d="M4.743,0A4.743,4.743,0,1,1,-4.743,0A4.743,4.743,0,1,1,4.743,0" fill="#4c78a8" stroke-width="2"/><path aria-label="Acceleration (binned): 8 – 10; Horsepower (binned): 220 – 240; All Cars Count: 2" role="graphics-symbol" aria-roledescription="circle" transform="translate(16.666666666666664,15.000000000000014)" d="M3.098,0A3.098,3.098,0,1,1,-3.098,0A3.098,3.098,0,1,1,3.098,0" fill="#4c78a8" stroke-width="2"/><path aria-label="Acceleration (binned): 8 – 10; Horsepower (binned): 200 – 220; All Cars Count: 1" role="graphics-symbol" aria-roledescription="circle" transform="translate(16.666666666666664,45.00000000000001)" d="M2.302,0A2.302,2.302,0,1,1,-2.302,0A2.302,2.302,0,1,1,2.302,0" fill="#4c78a8" stroke-width="2"/><path aria-label="Acceleration (binned): 10 – 12; Horsepower (binned): 220 – 240; All Cars Count: 3" role="graphics-symbol" aria-roledescription="circle" transform="translate(50,15.000000000000014)" d="M3.728,0A3.728,3.728,0,1,1,-3.728,0A3.728,3.728,0,1,1,3.728,0" fill="#4c78a8" stroke-width="2"/><path aria-label="Acceleration (binned): 8 – 10; Horsepower (binned): 180 – 200; All Cars Count: 1" role="graphics-symbol" aria-roledescription="circle" transform="translate(16.666666666666664,75)" d="M2.302,0A2.302,2.302,0,1,1,-2.302,0A2.302,2.302,0,1,1,2.302,0" fill="#4c78a8" stroke-width="2"/><path aria-label="Acceleration (binned): 16 – 18; Horsepower (binned): 100 – 120; All Cars Count: 18" role="graphics-symbol" aria-roledescription="circle" transform="translate(150,195)" d="M8.854,0A8.854,8.854,0,1,1,-8.854,0A8.854,8.854,0,1,1,8.854,0" fill="#4c78a8" stroke-width="2"/><path aria-label="Acceleration (binned): 8 – 10; Horsepower (binned): 160 – 180; All Cars Count: 1" role="graphics-symbol" aria-roledescription="circle" transform="translate(16.666666666666664,105)" d="M2.302,0A2.302,2.302,0,1,1,-2.302,0A2.302,2.302,0,1,1,2.302,0" fill="#4c78a8" stroke-width="2"/><path aria-label="Acceleration (binned): 8 – 10; Horsepower (binned): 140 – 160; All Cars Count: 2" role="graphics-symbol" aria-roledescription="circle" transform="translate(16.666666666666664,135)" d="M3.098,0A3.098,3.098,0,1,1,-3.098,0A3.098,3.098,0,1,1,3.098,0" fill="#4c78a8" stroke-width="2"/><path aria-label="Acceleration (binned): 14 – 16; Horsepower (binned): 80 – 100; All Cars Count: 47" role="graphics-symbol" aria-roledescription="circle" transform="translate(116.66666666666667,225)" d="M14.25,0A14.25,14.25,0,1,1,-14.25,0A14.25,14.25,0,1,1,14.25,0" fill="#4c78a8" stroke-width="2"/><path aria-label="Acceleration (binned): 16 – 18; Horsepower (binned): 80 – 100; All Cars Count: 38" role="graphics-symbol" aria-roledescription="circle" transform="translate(150,225)" d="M12.821,0A12.821,12.821,0,1,1,-12.821,0A12.821,12.821,0,1,1,12.821,0" fill="#4c78a8" stroke-width="2"/><path aria-label="Acceleration (binned): 20 – 22; Horsepower (binned): 40 – 60; All Cars Count: 5" role="graphics-symbol" aria-roledescription="circle" transform="translate(216.66666666666666,285)" d="M4.743,0A4.743,4.743,0,1,1,-4.743,0A4.743,4.743,0,1,1,4.743,0" fill="#4c78a8" stroke-width="2"/><path aria-label="Acceleration (binned): 12 – 14; Horsepower (binned): 100 – 120; All Cars Count: 11" role="graphics-symbol" aria-roledescription="circle" transform="translate(83.33333333333334,195)" d="M6.949,0A6.949,6.949,0,1,1,-6.949,0A6.949,6.949,0,1,1,6.949,0" fill="#4c78a8" stroke-width="2"/><path aria-label="Acceleration (binned): 14 – 16; Horsepower (binned): 200 – 220; All Cars Count: 2" role="graphics-symbol" aria-roledescription="circle" transform="translate(116.66666666666667,45.00000000000001)" d="M3.098,0A3.098,3.098,0,1,1,-3.098,0A3.098,3.098,0,1,1,3.098,0" fill="#4c78a8" stroke-width="2"/><path aria-label="Acceleration (binned): 12 – 14; Horsepower (binned): 200 – 220; All Cars Count: 1" role="graphics-symbol" aria-roledescription="circle" transform="translate(83.33333333333334,45.00000000000001)" d="M2.302,0A2.302,2.302,0,1,1,-2.302,0A2.302,2.302,0,1,1,2.302,0" fill="#4c78a8" stroke-width="2"/><path aria-label="Acceleration (binned): 18 – 20; Horsepower (binned): 180 – 200; All Cars Count: 1" role="graphics-symbol" aria-roledescription="circle" transform="translate(183.33333333333334,75)" d="M2.302,0A2.302,2.302,0,1,1,-2.302,0A2.302,2.302,0,1,1,2.302,0" fill="#4c78a8" stroke-width="2"/><path aria-label="Acceleration (binned): 14 – 16; Horsepower (binned): 100 – 120; All Cars Count: 24" role="graphics-symbol" aria-roledescription="circle" transform="translate(116.66666666666667,195)" d="M10.207,0A10.207,10.207,0,1,1,-10.207,0A10.207,10.207,0,1,1,10.207,0" fill="#4c78a8" stroke-width="2"/><path aria-label="Acceleration (binned): 12 – 14; Horsepower (binned): 160 – 180; All Cars Count: 10" role="graphics-symbol" aria-roledescription="circle" transform="translate(83.33333333333334,105)" d="M6.633,0A6.633,6.633,0,1,1,-6.633,0A6.633,6.633,0,1,1,6.633,0" fill="#4c78a8" stroke-width="2"/><path aria-label="Acceleration (binned): 18 – 20; Horsepower (binned): 60 – 80; All Cars Count: 25" role="graphics-symbol" aria-roledescription="circle" transform="translate(183.33333333333334,255)" d="M10.415,0A10.415,10.415,0,1,1,-10.415,0A10.415,10.415,0,1,1,10.415,0" fill="#4c78a8" stroke-width="2"/><path aria-label="Acceleration (binned): 14 – 16; Horsepower (binned): 60 – 80; All Cars Count: 31" role="graphics-symbol" aria-roledescription="circle" transform="translate(116.66666666666667,255)" d="M11.588,0A11.588,11.588,0,1,1,-11.588,0A11.588,11.588,0,1,1,11.588,0" fill="#4c78a8" stroke-width="2"/><path aria-label="Acceleration (binned): 20 – 22; Horsepower (binned): 60 – 80; All Cars Count: 7" role="graphics-symbol" aria-roledescription="circle" transform="translate(216.66666666666666,255)" d="M5.576,0A5.576,5.576,0,1,1,-5.576,0A5.576,5.576,0,1,1,5.576,0" fill="#4c78a8" stroke-width="2"/><path aria-label="Acceleration (binned): 22 – 24; Horsepower (binned): 40 – 60; All Cars Count: 3" role="graphics-symbol" aria-roledescription="circle" transform="translate(250,285)" d="M3.728,0A3.728,3.728,0,1,1,-3.728,0A3.728,3.728,0,1,1,3.728,0" fill="#4c78a8" stroke-width="2"/><path aria-label="Acceleration (binned): 18 – 20; Horsepower (binned): 80 – 100; All Cars Count: 16" role="graphics-symbol" aria-roledescription="circle" transform="translate(183.33333333333334,225)" d="M8.354,0A8.354,8.354,0,1,1,-8.354,0A8.354,8.354,0,1,1,8.354,0" fill="#4c78a8" stroke-width="2"/><path aria-label="Acceleration (binned): 10 – 12; Horsepower (binned): 200 – 220; All Cars Count: 2" role="graphics-symbol" aria-roledescription="circle" transform="translate(50,45.00000000000001)" d="M3.098,0A3.098,3.098,0,1,1,-3.098,0A3.098,3.098,0,1,1,3.098,0" fill="#4c78a8" stroke-width="2"/><path aria-label="Acceleration (binned): 12 – 14; Horsepower (binned): 180 – 200; All Cars Count: 4" role="graphics-symbol" aria-roledescription="circle" transform="translate(83.33333333333334,75)" d="M4.266,0A4.266,4.266,0,1,1,-4.266,0A4.266,4.266,0,1,1,4.266,0" fill="#4c78a8" stroke-width="2"/><path aria-label="Acceleration (binned): 12 – 14; Horsepower (binned): 80 – 100; All Cars Count: 7" role="graphics-symbol" aria-roledescription="circle" transform="translate(83.33333333333334,225)" d="M5.576,0A5.576,5.576,0,1,1,-5.576,0A5.576,5.576,0,1,1,5.576,0" fill="#4c78a8" stroke-width="2"/><path aria-label="Acceleration (binned): 14 – 16; Horsepower (binned): 120 – 140; All Cars Count: 9" role="graphics-symbol" aria-roledescription="circle" transform="translate(116.66666666666667,165)" d="M6.3,0A6.3,6.3,0,1,1,-6.3,0A6.3,6.3,0,1,1,6.3,0" fill="#4c78a8" stroke-width="2"/><path aria-label="Acceleration (binned): 16 – 18; Horsepower (binned): 140 – 160; All Cars Count: 2" role="graphics-symbol" aria-roledescription="circle" transform="translate(150,135)" d="M3.098,0A3.098,3.098,0,1,1,-3.098,0A3.098,3.098,0,1,1,3.098,0" fill="#4c78a8" stroke-width="2"/><path aria-label="Acceleration (binned): 14 – 16; Horsepower (binned): 140 – 160; All Cars Count: 12" role="graphics-symbol" aria-roledescription="circle" transform="translate(116.66666666666667,135)" d="M7.252,0A7.252,7.252,0,1,1,-7.252,0A7.252,7.252,0,1,1,7.252,0" fill="#4c78a8" stroke-width="2"/><path aria-label="Acceleration (binned): 18 – 20; Horsepower (binned): 100 – 120; All Cars Count: 8" role="graphics-symbol" aria-roledescription="circle" transform="translate(183.33333333333334,195)" d="M5.949,0A5.949,5.949,0,1,1,-5.949,0A5.949,5.949,0,1,1,5.949,0" fill="#4c78a8" stroke-width="2"/><path aria-label="Acceleration (binned): 18 – 20; Horsepower (binned): 40 – 60; All Cars Count: 3" role="graphics-symbol" aria-roledescription="circle" transform="translate(183.33333333333334,285)" d="M3.728,0A3.728,3.728,0,1,1,-3.728,0A3.728,3.728,0,1,1,3.728,0" fill="#4c78a8" stroke-width="2"/><path aria-label="Acceleration (binned): 16 – 18; Horsepower (binned): 60 – 80; All Cars Count: 28" role="graphics-symbol" aria-roledescription="circle" transform="translate(150,255)" d="M11.017,0A11.017,11.017,0,1,1,-11.017,0A11.017,11.017,0,1,1,11.017,0" fill="#4c78a8" stroke-width="2"/><path aria-label="Acceleration (binned): 16 – 18; Horsepower (binned): 40 – 60; All Cars Count: 4" role="graphics-symbol" aria-roledescription="circle" transform="translate(150,285)" d="M4.266,0A4.266,4.266,0,1,1,-4.266,0A4.266,4.266,0,1,1,4.266,0" fill="#4c78a8" stroke-width="2"/><path aria-label="Acceleration (binned): 20 – 22; Horsepower (binned): 100 – 120; All Cars Count: 1" role="graphics-symbol" aria-roledescription="circle" transform="translate(216.66666666666666,195)" d="M2.302,0A2.302,2.302,0,1,1,-2.302,0A2.302,2.302,0,1,1,2.302,0" fill="#4c78a8" stroke-width="2"/><path aria-label="Acceleration (binned): 22 – 24; Horsepower (binned): 60 – 80; All Cars Count: 1" role="graphics-symbol" aria-roledescription="circle" transform="translate(250,255)" d="M2.302,0A2.302,2.302,0,1,1,-2.302,0A2.302,2.302,0,1,1,2.302,0" fill="#4c78a8" stroke-width="2"/><path aria-label="Acceleration (binned): 12 – 14; Horsepower (binned): 60 – 80; All Cars Count: 4" role="graphics-symbol" aria-roledescription="circle" transform="translate(83.33333333333334,255)" d="M4.266,0A4.266,4.266,0,1,1,-4.266,0A4.266,4.266,0,1,1,4.266,0" fill="#4c78a8" stroke-width="2"/><path aria-label="Acceleration (binned): 20 – 22; Horsepower (binned): 80 – 100; All Cars Count: 3" role="graphics-symbol" aria-roledescription="circle" transform="translate(216.66666666666666,225)" d="M3.728,0A3.728,3.728,0,1,1,-3.728,0A3.728,3.728,0,1,1,3.728,0" fill="#4c78a8" stroke-width="2"/><path aria-label="Acceleration (binned): 16 – 18; Horsepower (binned): 120 – 140; All Cars Count: 2" role="graphics-symbol" aria-roledescription="circle" transform="translate(150,165)" d="M3.098,0A3.098,3.098,0,1,1,-3.098,0A3.098,3.098,0,1,1,3.098,0" fill="#4c78a8" stroke-width="2"/><path aria-label="Acceleration (binned): 10 – 12; Horsepower (binned): 120 – 140; All Cars Count: 2" role="graphics-symbol" aria-roledescription="circle" transform="translate(50,165)" d="M3.098,0A3.098,3.098,0,1,1,-3.098,0A3.098,3.098,0,1,1,3.098,0" fill="#4c78a8" stroke-width="2"/><path aria-label="Acceleration (binned): 24 – 26; Horsepower (binned): 60 – 80; All Cars Count: 1" role="graphics-symbol" aria-roledescription="circle" transform="translate(283.3333333333333,255)" d="M2.302,0A2.302,2.302,0,1,1,-2.302,0A2.302,2.302,0,1,1,2.302,0" fill="#4c78a8" stroke-width="2"/><path aria-label="Acceleration (binned): 22 – 24; Horsepower (binned): 80 – 100; All Cars Count: 1" role="graphics-symbol" aria-roledescription="circle" transform="translate(250,225)" d="M2.302,0A2.302,2.302,0,1,1,-2.302,0A2.302,2.302,0,1,1,2.302,0" fill="#4c78a8" stroke-width="2"/><path aria-label="Acceleration (binned): 10 – 12; Horsepower (binned): 100 – 120; All Cars Count: 1" role="graphics-symbol" aria-roledescription="circle" transform="translate(50,195)" d="M2.302,0A2.302,2.302,0,1,1,-2.302,0A2.302,2.302,0,1,1,2.302,0" fill="#4c78a8" stroke-width="2"/><path aria-label="Acceleration (binned): 24 – 26; Horsepower (binned): 40 – 60; All Cars Count: 1" role="graphics-symbol" aria-roledescription="circle" transform="translate(283.3333333333333,285)" d="M2.302,0A2.302,2.302,0,1,1,-2.302,0A2.302,2.302,0,1,1,2.302,0" fill="#4c78a8" stroke-width="2"/><path aria-label="Acceleration (binned): 10 – 12; Horsepower (binned): 80 – 100; All Cars Count: 1" role="graphics-symbol" aria-roledescription="circle" transform="translate(50,225)" d="M2.302,0A2.302,2.302,0,1,1,-2.302,0A2.302,2.302,0,1,1,2.302,0" fill="#4c78a8" stroke-width="2"/></g><g class="mark-symbol role-mark layer_1_marks" role="graphics-object" aria-roledescription="symbol mark container"><path aria-label="Acceleration (binned): 14 – 16; Horsepower (binned): 80 – 100; Cars from Japan Count: 16" role="graphics-symbol" aria-roledescription="circle" transform="translate(116.66666666666667,225)" d="M8.354,0A8.354,8.354,0,1,1,-8.354,0A8.354,8.354,0,1,1,8.354,0" fill="firebrick" stroke-width="2"/><path aria-label="Acceleration (binned): 18 – 20; Horsepower (binned): 60 – 80; Cars from Japan Count: 14" role="graphics-symbol" aria-roledescription="circle" transform="translate(183.33333333333334,255)" d="M7.822,0A7.822,7.822,0,1,1,-7.822,0A7.822,7.822,0,1,1,7.822,0" fill="firebrick" stroke-width="2"/><path aria-label="Acceleration (binned): 12 – 14; Horsepower (binned): 80 – 100; Cars from Japan Count: 4" role="graphics-symbol" aria-roledescription="circle" transform="translate(83.33333333333334,225)" d="M4.266,0A4.266,4.266,0,1,1,-4.266,0A4.266,4.266,0,1,1,4.266,0" fill="firebrick" stroke-width="2"/><path aria-label="Acceleration (binned): 16 – 18; Horsepower (binned): 80 – 100; Cars from Japan Count: 4" role="graphics-symbol" aria-roledescription="circle" transform="translate(150,225)" d="M4.266,0A4.266,4.266,0,1,1,-4.266,0A4.266,4.266,0,1,1,4.266,0" fill="firebrick" stroke-width="2"/><path aria-label="Acceleration (binned): 18 – 20; Horsepower (binned): 80 – 100; Cars from Japan Count: 1" role="graphics-symbol" aria-roledescription="circle" transform="translate(183.33333333333334,225)" d="M2.302,0A2.302,2.302,0,1,1,-2.302,0A2.302,2.302,0,1,1,2.302,0" fill="firebrick" stroke-width="2"/><path aria-label="Acceleration (binned): 12 – 14; Horsepower (binned): 120 – 140; Cars from Japan Count: 2" role="graphics-symbol" aria-roledescription="circle" transform="translate(83.33333333333334,165)" d="M3.098,0A3.098,3.098,0,1,1,-3.098,0A3.098,3.098,0,1,1,3.098,0" fill="firebrick" stroke-width="2"/><path aria-label="Acceleration (binned): 20 – 22; Horsepower (binned): 60 – 80; Cars from Japan Count: 1" role="graphics-symbol" aria-roledescription="circle" transform="translate(216.66666666666666,255)" d="M2.302,0A2.302,2.302,0,1,1,-2.302,0A2.302,2.302,0,1,1,2.302,0" fill="firebrick" stroke-width="2"/><path aria-label="Acceleration (binned): 16 – 18; Horsepower (binned): 40 – 60; Cars from Japan Count: 4" role="graphics-symbol" aria-roledescription="circle" transform="translate(150,285)" d="M4.266,0A4.266,4.266,0,1,1,-4.266,0A4.266,4.266,0,1,1,4.266,0" fill="firebrick" stroke-width="2"/><path aria-label="Acceleration (binned): 16 – 18; Horsepower (binned): 60 – 80; Cars from Japan Count: 19" role="graphics-symbol" aria-roledescription="circle" transform="translate(150,255)" d="M9.093,0A9.093,9.093,0,1,1,-9.093,0A9.093,9.093,0,1,1,9.093,0" fill="firebrick" stroke-width="2"/><path aria-label="Acceleration (binned): 14 – 16; Horsepower (binned): 100 – 120; Cars from Japan Count: 2" role="graphics-symbol" aria-roledescription="circle" transform="translate(116.66666666666667,195)" d="M3.098,0A3.098,3.098,0,1,1,-3.098,0A3.098,3.098,0,1,1,3.098,0" fill="firebrick" stroke-width="2"/><path aria-label="Acceleration (binned): 12 – 14; Horsepower (binned): 100 – 120; Cars from Japan Count: 3" role="graphics-symbol" aria-roledescription="circle" transform="translate(83.33333333333334,195)" d="M3.728,0A3.728,3.728,0,1,1,-3.728,0A3.728,3.728,0,1,1,3.728,0" fill="firebrick" stroke-width="2"/><path aria-label="Acceleration (binned): 18 – 20; Horsepower (binned): 40 – 60; Cars from Japan Count: 1" role="graphics-symbol" aria-roledescription="circle" transform="translate(183.33333333333334,285)" d="M2.302,0A2.302,2.302,0,1,1,-2.302,0A2.302,2.302,0,1,1,2.302,0" fill="firebrick" stroke-width="2"/><path aria-label="Acceleration (binned): 14 – 16; Horsepower (binned): 60 – 80; Cars from Japan Count: 6" role="graphics-symbol" aria-roledescription="circle" transform="translate(116.66666666666667,255)" d="M5.176,0A5.176,5.176,0,1,1,-5.176,0A5.176,5.176,0,1,1,5.176,0" fill="firebrick" stroke-width="2"/><path aria-label="Acceleration (binned): 12 – 14; Horsepower (binned): 60 – 80; Cars from Japan Count: 1" role="graphics-symbol" aria-roledescription="circle" transform="translate(83.33333333333334,255)" d="M2.302,0A2.302,2.302,0,1,1,-2.302,0A2.302,2.302,0,1,1,2.302,0" fill="firebrick" stroke-width="2"/><path aria-label="Acceleration (binned): 10 – 12; Horsepower (binned): 120 – 140; Cars from Japan Count: 1" role="graphics-symbol" aria-roledescription="circle" transform="translate(50,165)" d="M2.302,0A2.302,2.302,0,1,1,-2.302,0A2.302,2.302,0,1,1,2.302,0" fill="firebrick" stroke-width="2"/></g><g class="mark-group role-legend" role="graphics-symbol" aria-roledescription="legend" aria-label="Symbol legend titled 'All Cars Count' for size with values from 0 to 47"><g transform="translate(318,0)"><path class="background" aria-hidden="true" d="M0,0h88v131h-88Z" pointer-events="none"/><g><g class="mark-group role-legend-entry"><g transform="translate(0,16)"><path class="background" aria-hidden="true" d="M0,0h0v0h0Z" pointer-events="none"/><g><g class="mark-group role-scope" role="graphics-object" aria-roledescription="group mark container"><g transform="translate(0,0)"><path class="background" aria-hidden="true" d="M0,0h44.724609375v10h-44.724609375Z" pointer-events="none" opacity="1"/><g><g class="mark-symbol role-legend-symbol" pointer-events="none"><path transform="translate(14,5)" d="M1,0A1,1,0,1,1,-1,0A1,1,0,1,1,1,0" fill="#4c78a8" stroke-width="1.5" opacity="1"/></g><g class="mark-text role-legend-label" pointer-events="none"><text text-anchor="start" transform="translate(32,8)" font-family="sans-serif" font-size="10px" fill="#000" opacity="1">0</text></g></g><path class="foreground" aria-hidden="true" d="" pointer-events="none" display="none"/></g><g transform="translate(0,13)"><path class="background" aria-hidden="true" d="M0,0h44.724609375v15.632648134538403h-44.724609375Z" pointer-events="none" opacity="1"/><g><g class="mark-symbol role-legend-symbol" pointer-events="none"><path transform="translate(14,7.5)" d="M6.633,0A6.633,6.633,0,1,1,-6.633,0A6.633,6.633,0,1,1,6.633,0" fill="#4c78a8" stroke-width="1.5" opacity="1"/></g><g class="mark-text role-legend-label" pointer-events="none"><text text-anchor="start" transform="translate(32,10.5)" font-family="sans-serif" font-size="10px" fill="#000" opacity="1">10</text></g></g><path class="foreground" aria-hidden="true" d="" pointer-events="none" display="none"/></g><g transform="translate(0,32)"><path class="background" aria-hidden="true" d="M0,0h44.724609375v21.326523604923295h-44.724609375Z" pointer-events="none" opacity="1"/><g><g class="mark-symbol role-legend-symbol" pointer-events="none"><path transform="translate(14,10.5)" d="M9.327,0A9.327,9.327,0,1,1,-9.327,0A9.327,9.327,0,1,1,9.327,0" fill="#4c78a8" stroke-width="1.5" opacity="1"/></g><g class="mark-text role-legend-label" pointer-events="none"><text text-anchor="start" transform="translate(32,13.5)" font-family="sans-serif" font-size="10px" fill="#000" opacity="1">20</text></g></g><path class="foreground" aria-hidden="true" d="" pointer-events="none" display="none"/></g><g transform="translate(0,57)"><path class="background" aria-hidden="true" d="M0,0h44.724609375v25.400704532167623h-44.724609375Z" pointer-events="none" opacity="1"/><g><g class="mark-symbol role-legend-symbol" pointer-events="none"><path transform="translate(14,12.5)" d="M11.401,0A11.401,11.401,0,1,1,-11.401,0A11.401,11.401,0,1,1,11.401,0" fill="#4c78a8" stroke-width="1.5" opacity="1"/></g><g class="mark-text role-legend-label" pointer-events="none"><text text-anchor="start" transform="translate(32,15.5)" font-family="sans-serif" font-size="10px" fill="#000" opacity="1">30</text></g></g><path class="foreground" aria-hidden="true" d="" pointer-events="none" display="none"/></g><g transform="translate(0,86)"><path class="background" aria-hidden="true" d="M0,0h44.724609375v28.6517331597924h-44.724609375Z" pointer-events="none" opacity="1"/><g><g class="mark-symbol role-legend-symbol" pointer-events="none"><path transform="translate(14,14)" d="M13.152,0A13.152,13.152,0,1,1,-13.152,0A13.152,13.152,0,1,1,13.152,0" fill="#4c78a8" stroke-width="1.5" opacity="1"/></g><g class="mark-text role-legend-label" pointer-events="none"><text text-anchor="start" transform="translate(32,17)" font-family="sans-serif" font-size="10px" fill="#000" opacity="1">40</text></g></g><path class="foreground" aria-hidden="true" d="" pointer-events="none" display="none"/></g></g></g><path class="foreground" aria-hidden="true" d="" pointer-events="none" display="none"/></g></g><g class="mark-text role-legend-title" pointer-events="none"><text text-anchor="start" transform="translate(0,9)" font-family="sans-serif" font-size="11px" font-weight="bold" fill="#000" opacity="1">All Cars Count</text></g></g><path class="foreground" aria-hidden="true" d="" pointer-events="none" display="none"/></g></g><g class="mark-group role-legend" role="graphics-symbol" aria-roledescription="legend" aria-label="Symbol legend titled 'Cars from Japan Count' for size with values from 0 to 47"><g transform="translate(318,139)"><path class="background" aria-hidden="true" d="M0,0h140v131h-140Z" pointer-events="none"/><g><g class="mark-group role-legend-entry"><g transform="translate(0,16)"><path class="background" aria-hidden="true" d="M0,0h0v0h0Z" pointer-events="none"/><g><g class="mark-group role-scope" role="graphics-object" aria-roledescription="group mark container"><g transform="translate(0,0)"><path class="background" aria-hidden="true" d="M0,0h44.724609375v10h-44.724609375Z" pointer-events="none" opacity="1"/><g><g class="mark-symbol role-legend-symbol" pointer-events="none"><path transform="translate(14,5)" d="M1,0A1,1,0,1,1,-1,0A1,1,0,1,1,1,0" fill="firebrick" stroke-width="1.5" opacity="1"/></g><g class="mark-text role-legend-label" pointer-events="none"><text text-anchor="start" transform="translate(32,8)" font-family="sans-serif" font-size="10px" fill="#000" opacity="1">0</text></g></g><path class="foreground" aria-hidden="true" d="" pointer-events="none" display="none"/></g><g transform="translate(0,13)"><path class="background" aria-hidden="true" d="M0,0h44.724609375v15.632648134538403h-44.724609375Z" pointer-events="none" opacity="1"/><g><g class="mark-symbol role-legend-symbol" pointer-events="none"><path transform="translate(14,7.5)" d="M6.633,0A6.633,6.633,0,1,1,-6.633,0A6.633,6.633,0,1,1,6.633,0" fill="firebrick" stroke-width="1.5" opacity="1"/></g><g class="mark-text role-legend-label" pointer-events="none"><text text-anchor="start" transform="translate(32,10.5)" font-family="sans-serif" font-size="10px" fill="#000" opacity="1">10</text></g></g><path class="foreground" aria-hidden="true" d="" pointer-events="none" display="none"/></g><g transform="translate(0,32)"><path class="background" aria-hidden="true" d="M0,0h44.724609375v21.326523604923295h-44.724609375Z" pointer-events="none" opacity="1"/><g><g class="mark-symbol role-legend-symbol" pointer-events="none"><path transform="translate(14,10.5)" d="M9.327,0A9.327,9.327,0,1,1,-9.327,0A9.327,9.327,0,1,1,9.327,0" fill="firebrick" stroke-width="1.5" opacity="1"/></g><g class="mark-text role-legend-label" pointer-events="none"><text text-anchor="start" transform="translate(32,13.5)" font-family="sans-serif" font-size="10px" fill="#000" opacity="1">20</text></g></g><path class="foreground" aria-hidden="true" d="" pointer-events="none" display="none"/></g><g transform="translate(0,57)"><path class="background" aria-hidden="true" d="M0,0h44.724609375v25.400704532167623h-44.724609375Z" pointer-events="none" opacity="1"/><g><g class="mark-symbol role-legend-symbol" pointer-events="none"><path transform="translate(14,12.5)" d="M11.401,0A11.401,11.401,0,1,1,-11.401,0A11.401,11.401,0,1,1,11.401,0" fill="firebrick" stroke-width="1.5" opacity="1"/></g><g class="mark-text role-legend-label" pointer-events="none"><text text-anchor="start" transform="translate(32,15.5)" font-family="sans-serif" font-size="10px" fill="#000" opacity="1">30</text></g></g><path class="foreground" aria-hidden="true" d="" pointer-events="none" display="none"/></g><g transform="translate(0,86)"><path class="background" aria-hidden="true" d="M0,0h44.724609375v28.6517331597924h-44.724609375Z" pointer-events="none" opacity="1"/><g><g class="mark-symbol role-legend-symbol" pointer-events="none"><path transform="translate(14,14)" d="M13.152,0A13.152,13.152,0,1,1,-13.152,0A13.152,13.152,0,1,1,13.152,0" fill="firebrick" stroke-width="1.5" opacity="1"/></g><g class="mark-text role-legend-label" pointer-events="none"><text text-anchor="start" transform="translate(32,17)" font-family="sans-serif" font-size="10px" fill="#000" opacity="1">40</text></g></g><path class="foreground" aria-hidden="true" d="" pointer-events="none" display="none"/></g></g></g><path class="foreground" aria-hidden="true" d="" pointer-events="none" display="none"/></g></g><g class="mark-text role-legend-title" pointer-events="none"><text text-anchor="start" transform="translate(0,9)" font-family="sans-serif" font-size="11px" font-weight="bold" fill="#000" opacity="1">Cars from Japan Count</text></g></g><path class="foreground" aria-hidden="true" d="" pointer-events="none" display="none"/></g></g></g><path class="foreground" aria-hidden="true" d="" display="none"/></g></g></g></svg>