<svg class="marks" width="444" height="264" viewBox="0 0 444 264" version="1.1" xmlns="http://www.w3.org/2000/svg" xmlns:xlink="http://www.w3.org/1999/xlink"><rect width="444" height="264" style="fill: white;"></rect><g transform="translate(39,10)"><g class="mark-group role-frame root" role="graphics-object" aria-roledescription="group mark container"><g transform="translate(0,0)"><path class="background" aria-hidden="true" d="M0.5,0.5h400v200h-400Z" style="fill: none; stroke: #ddd;"></path><g><g class="mark-group role-axis" role="graphics-symbol" aria-roledescription="axis" aria-label="X-axis for a time scale with values from Saturday, 30 May 2009, 10:32:18 PM to Friday, 31 July 2009, 11:27:41 AM"><g transform="translate(0.5,200.5)"><path class="background" aria-hidden="true" d="M0,0h0v0h0Z" style="pointer-events: none; fill: none;"></path><g><g class="mark-rule role-axis-grid" style="pointer-events: none;"><line transform="translate(0,-200)" x2="0" y2="200" style="fill: none; stroke: #ddd; stroke-width: 1; opacity: 1;"></line><line transform="translate(46,-200)" x2="0" y2="200" style="fill: none; stroke: #ddd; stroke-width: 1; opacity: 1;"></line><line transform="translate(91,-200)" x2="0" y2="200" style="fill: none; stroke: #ddd; stroke-width: 1; opacity: 1;"></line><line transform="translate(137,-200)" x2="0" y2="200" style="fill: none; stroke: #ddd; stroke-width: 1; opacity: 1;"></line><line transform="translate(182,-200)" x2="0" y2="200" style="fill: none; stroke: #ddd; stroke-width: 1; opacity: 1;"></line><line transform="translate(228,-200)" x2="0" y2="200" style="fill: none; stroke: #ddd; stroke-width: 1; opacity: 1;"></line><line transform="translate(273,-200)" x2="0" y2="200" style="fill: none; stroke: #ddd; stroke-width: 1; opacity: 1;"></line><line transform="translate(319,-200)" x2="0" y2="200" style="fill: none; stroke: #ddd; stroke-width: 1; opacity: 1;"></line><line transform="translate(364,-200)" x2="0" y2="200" style="fill: none; stroke: #ddd; stroke-width: 1; opacity: 1;"></line></g></g><path class="foreground" aria-hidden="true" d="" style="pointer-events: none; display: none; fill: none;"></path></g></g><g class="mark-group role-axis" role="graphics-symbol" aria-roledescription="axis" aria-label="Y-axis for a linear scale with values from 23 to 34"><g transform="translate(0.5,0.5)"><path class="background" aria-hidden="true" d="M0,0h0v0h0Z" style="pointer-events: none; fill: none;"></path><g><g class="mark-rule role-axis-grid" style="pointer-events: none;"><line transform="translate(0,182)" x2="400" y2="0" style="fill: none; stroke: #ddd; stroke-width: 1; opacity: 1;"></line><line transform="translate(0,145)" x2="400" y2="0" style="fill: none; stroke: #ddd; stroke-width: 1; opacity: 1;"></line><line transform="translate(0,109)" x2="400" y2="0" style="fill: none; stroke: #ddd; stroke-width: 1; opacity: 1;"></line><line transform="translate(0,73)" x2="400" y2="0" style="fill: none; stroke: #ddd; stroke-width: 1; opacity: 1;"></line><line transform="translate(0,36)" x2="400" y2="0" style="fill: none; stroke: #ddd; stroke-width: 1; opacity: 1;"></line><line transform="translate(0,0)" x2="400" y2="0" style="fill: none; stroke: #ddd; stroke-width: 1; opacity: 1;"></line></g></g><path class="foreground" aria-hidden="true" d="" style="pointer-events: none; display: none; fill: none;"></path></g></g><g class="mark-group role-axis" role="graphics-symbol" aria-roledescription="axis" aria-label="X-axis titled 'Date in 2009' for a time scale with values from 05/30 to 07/31"><g transform="translate(0.5,200.5)"><path class="background" aria-hidden="true" d="M0,0h0v0h0Z" style="pointer-events: none; fill: none;"></path><g><g class="mark-rule role-axis-tick" style="pointer-events: none;"><line transform="translate(0,0)" x2="0" y2="5" style="fill: none; stroke: #888; stroke-width: 1; opacity: 1;"></line><line transform="translate(46,0)" x2="0" y2="5" style="fill: none; stroke: #888; stroke-width: 1; opacity: 1;"></line><line transform="translate(91,0)" x2="0" y2="5" style="fill: none; stroke: #888; stroke-width: 1; opacity: 1;"></line><line transform="translate(137,0)" x2="0" y2="5" style="fill: none; stroke: #888; stroke-width: 1; opacity: 1;"></line><line transform="translate(182,0)" x2="0" y2="5" style="fill: none; stroke: #888; stroke-width: 1; opacity: 1;"></line><line transform="translate(228,0)" x2="0" y2="5" style="fill: none; stroke: #888; stroke-width: 1; opacity: 1;"></line><line transform="translate(273,0)" x2="0" y2="5" style="fill: none; stroke: #888; stroke-width: 1; opacity: 1;"></line><line transform="translate(319,0)" x2="0" y2="5" style="fill: none; stroke: #888; stroke-width: 1; opacity: 1;"></line><line transform="translate(364,0)" x2="0" y2="5" style="fill: none; stroke: #888; stroke-width: 1; opacity: 1;"></line></g><g class="mark-text role-axis-label" style="pointer-events: none;"><text text-anchor="end" transform="translate(0.39583337383686584,7) rotate(315) translate(0,8)" style="font-family: sans-serif; font-size: 10px; fill: #000; opacity: 1;">05/31</text><text text-anchor="end" transform="translate(45.89583337317859,7) rotate(315) translate(0,8)" style="font-family: sans-serif; font-size: 10px; fill: #000; opacity: 1;">06/07</text><text text-anchor="end" transform="translate(91.39583337252031,7) rotate(315) translate(0,8)" style="font-family: sans-serif; font-size: 10px; fill: #000; opacity: 1;">06/14</text><text text-anchor="end" transform="translate(136.89583337186204,7) rotate(315) translate(0,8)" style="font-family: sans-serif; font-size: 10px; fill: #000; opacity: 1;">06/21</text><text text-anchor="end" transform="translate(182.39583337120376,7) rotate(315) translate(0,8)" style="font-family: sans-serif; font-size: 10px; fill: #000; opacity: 1;">06/28</text><text text-anchor="end" transform="translate(227.89583337054552,7) rotate(315) translate(0,8)" style="font-family: sans-serif; font-size: 10px; fill: #000; opacity: 1;">07/05</text><text text-anchor="end" transform="translate(273.3958333698872,7) rotate(315) translate(0,8)" style="font-family: sans-serif; font-size: 10px; fill: #000; opacity: 1;">07/12</text><text text-anchor="end" transform="translate(318.8958333692289,7) rotate(315) translate(0,8)" style="font-family: sans-serif; font-size: 10px; fill: #000; opacity: 1;">07/19</text><text text-anchor="end" transform="translate(364.39583336857066,7) rotate(315) translate(0,8)" style="font-family: sans-serif; font-size: 10px; fill: #000; opacity: 1;">07/26</text></g><g class="mark-rule role-axis-domain" style="pointer-events: none;"><line transform="translate(0,0)" x2="400" y2="0" style="fill: none; stroke: #888; stroke-width: 1; opacity: 1;"></line></g><g class="mark-text role-axis-title" style="pointer-events: none;"><text text-anchor="middle" transform="translate(200,46.16295090390227)" style="font-family: sans-serif; font-size: 11px; font-weight: bold; fill: #000; opacity: 1;">Date in 2009</text></g></g><path class="foreground" aria-hidden="true" d="" style="pointer-events: none; display: none; fill: none;"></path></g></g><g class="mark-group role-axis" role="graphics-symbol" aria-roledescription="axis" aria-label="Y-axis titled 'Price' for a linear scale with values from 23 to 34"><g transform="translate(0.5,0.5)"><path class="background" aria-hidden="true" d="M0,0h0v0h0Z" style="pointer-events: none; fill: none;"></path><g><g class="mark-rule role-axis-tick" style="pointer-events: none;"><line transform="translate(0,182)" x2="-5" y2="0" style="fill: none; stroke: #888; stroke-width: 1; opacity: 1;"></line><line transform="translate(0,145)" x2="-5" y2="0" style="fill: none; stroke: #888; stroke-width: 1; opacity: 1;"></line><line transform="translate(0,109)" x2="-5" y2="0" style="fill: none; stroke: #888; stroke-width: 1; opacity: 1;"></line><line transform="translate(0,73)" x2="-5" y2="0" style="fill: none; stroke: #888; stroke-width: 1; opacity: 1;"></line><line transform="translate(0,36)" x2="-5" y2="0" style="fill: none; stroke: #888; stroke-width: 1; opacity: 1;"></line><line transform="translate(0,0)" x2="-5" y2="0" style="fill: none; stroke: #888; stroke-width: 1; opacity: 1;"></line></g><g class="mark-text role-axis-label" style="pointer-events: none;"><text text-anchor="end" transform="translate(-7,184.8181818181818)" style="font-family: sans-serif; font-size: 10px; fill: #000; opacity: 1;">24</text><text text-anchor="end" transform="translate(-7,148.45454545454547)" style="font-family: sans-serif; font-size: 10px; fill: #000; opacity: 1;">26</text><text text-anchor="end" transform="translate(-7,112.09090909090908)" style="font-family: sans-serif; font-size: 10px; fill: #000; opacity: 1;">28</text><text text-anchor="end" transform="translate(-7,75.72727272727273)" style="font-family: sans-serif; font-size: 10px; fill: #000; opacity: 1;">30</text><text text-anchor="end" transform="translate(-7,39.36363636363635)" style="font-family: sans-serif; font-size: 10px; fill: #000; opacity: 1;">32</text><text text-anchor="end" transform="translate(-7,3)" style="font-family: sans-serif; font-size: 10px; fill: #000; opacity: 1;">34</text></g><g class="mark-rule role-axis-domain" style="pointer-events: none;"><line transform="translate(0,200)" x2="0" y2="-200" style="fill: none; stroke: #888; stroke-width: 1; opacity: 1;"></line></g><g class="mark-text role-axis-title" style="pointer-events: none;"><text text-anchor="middle" transform="translate(-23,100) rotate(-90) translate(0,-2)" style="font-family: sans-serif; font-size: 11px; font-weight: bold; fill: #000; opacity: 1;">Price</text></g></g><path class="foreground" aria-hidden="true" d="" style="pointer-events: none; display: none; fill: none;"></path></g></g><g class="mark-rule role-mark layer_0_marks" role="graphics-symbol" aria-roledescription="rule mark container"><line transform="translate(5.000000040436921,100.90909090909092)" x2="0" y2="-29.090909090909122" style="fill: none; stroke: #06982d;"></line><line transform="translate(11.500000040342883,103.63636363636361)" x2="0" y2="-33.272727272727224" style="fill: none; stroke: #ae1325;"></line><line transform="translate(18.000000040248842,79.63636363636361)" x2="0" y2="-39.4545454545454" style="fill: none; stroke: #06982d;"></line><line transform="translate(24.500000040154806,74.18181818181814)" x2="0" y2="-19.999999999999943" style="fill: none; stroke: #ae1325;"></line><line transform="translate(31.000000040060765,93.63636363636361)" x2="0" y2="-35.63636363636358" style="fill: none; stroke: #06982d;"></line><line transform="translate(50.50000003977865,138)" x2="0" y2="-98.36363636363637" style="fill: none; stroke: #ae1325;"></line><line transform="translate(57.00000003968461,112.90909090909093)" x2="0" y2="-36.000000000000014" style="fill: none; stroke: #ae1325;"></line><line transform="translate(63.50000003959057,129.0909090909091)" x2="0" y2="-51.63636363636361" style="fill: none; stroke: #06982d;"></line><line transform="translate(70.00000003949653,130.72727272727275)" x2="0" y2="-23.63636363636364" style="fill: none; stroke: #06982d;"></line><line transform="translate(76.5000000394025,113.99999999999999)" x2="0" y2="-13.999999999999986" style="fill: none; stroke: #06982d;"></line><line transform="translate(96.00000003912037,79.27272727272727)" x2="0" y2="-26.36363636363636" style="fill: none; stroke: #06982d;"></line><line transform="translate(102.50000003902633,71.45454545454545)" x2="0" y2="-48.72727272727272" style="fill: none; stroke: #06982d;"></line><line transform="translate(109.00000003893228,61.090909090909086)" x2="0" y2="-38.72727272727279" style="fill: none; stroke: #06982d;"></line><line transform="translate(115.50000003883825,79.99999999999999)" x2="0" y2="-35.27272727272724" style="fill: none; stroke: #ae1325;"></line><line transform="translate(122.0000000387442,117.09090909090911)" x2="0" y2="-32.00000000000003" style="fill: none; stroke: #ae1325;"></line><line transform="translate(141.5000000384621,67.27272727272727)" x2="0" y2="-31.81818181818175" style="fill: none; stroke: #06982d;"></line><line transform="translate(148.00000003836806,112.1818181818182)" x2="0" y2="-67.45454545454545" style="fill: none; stroke: #ae1325;"></line><line transform="translate(154.500000038274,94.72727272727275)" x2="0" y2="-32.54545454545455" style="fill: none; stroke: #ae1325;"></line><line transform="translate(161.00000003818,140)" x2="0" y2="-59.27272727272724" style="fill: none; stroke: #ae1325;"></line><line transform="translate(167.50000003808594,149.8181818181818)" x2="0" y2="-26.54545454545452" style="fill: none; stroke: #ae1325;"></line><line transform="translate(187.00000003780383,158.36363636363637)" x2="0" y2="-34.363636363636346" style="fill: none; stroke: #ae1325;"></line><line transform="translate(193.50000003770978,163.27272727272728)" x2="0" y2="-42.90909090909089" style="fill: none; stroke: #06982d;"></line><line transform="translate(200.00000003761573,167.27272727272725)" x2="0" y2="-27.45454545454541" style="fill: none; stroke: #06982d;"></line><line transform="translate(206.50000003752172,141.45454545454547)" x2="0" y2="-43.63636363636367" style="fill: none; stroke: #06982d;"></line><line transform="translate(232.50000003714555,91.09090909090911)" x2="0" y2="-29.272727272727316" style="fill: none; stroke: #ae1325;"></line><line transform="translate(239.00000003705148,92.72727272727275)" x2="0" y2="-37.09090909090913" style="fill: none; stroke: #06982d;"></line><line transform="translate(245.50000003695746,64.90909090909092)" x2="0" y2="-47.63636363636359" style="fill: none; stroke: #06982d;"></line><line transform="translate(252.00000003686344,85.8181818181818)" x2="0" y2="-21.999999999999957" style="fill: none; stroke: #ae1325;"></line><line transform="translate(258.5000000367694,94.18181818181817)" x2="0" y2="-27.636363636363626" style="fill: none; stroke: #ae1325;"></line><line transform="translate(278.0000000364873,155.99999999999997)" x2="0" y2="-69.4545454545454" style="fill: none; stroke: #ae1325;"></line><line transform="translate(284.5000000363932,163.81818181818184)" x2="0" y2="-33.636363636363654" style="fill: none; stroke: #ae1325;"></line><line transform="translate(291.0000000362992,184.90909090909093)" x2="0" y2="-40.54545454545456" style="fill: none; stroke: #06982d;"></line><line transform="translate(297.50000003620517,172.5454545454545)" x2="0" y2="-30.363636363636317" style="fill: none; stroke: #ae1325;"></line><line transform="translate(304.00000003611115,184.00000000000003)" x2="0" y2="-30.363636363636402" style="fill: none; stroke: #ae1325;"></line><line transform="translate(323.500000035829,177.09090909090907)" x2="0" y2="-21.090909090909093" style="fill: none; stroke: #ae1325;"></line><line transform="translate(330.00000003573496,185.2727272727273)" x2="0" y2="-24.181818181818215" style="fill: none; stroke: #ae1325;"></line><line transform="translate(336.50000003564094,195.63636363636368)" x2="0" y2="-16.36363636363643" style="fill: none; stroke: #ae1325;"></line><line transform="translate(343.00000003554686,196.18181818181816)" x2="0" y2="-15.272727272727252" style="fill: none; stroke: #ae1325;"></line><line transform="translate(349.50000003545284,200)" x2="0" y2="-15.818181818181841" style="fill: none; stroke: #ae1325;"></line><line transform="translate(369.00000003517073,181.45454545454547)" x2="0" y2="-15.27272727272728" style="fill: none; stroke: #06982d;"></line><line transform="translate(375.5000000350767,176.72727272727272)" x2="0" y2="-24.18181818181816" style="fill: none; stroke: #06982d;"></line><line transform="translate(382.00000003498263,156.1818181818182)" x2="0" y2="-14" style="fill: none; stroke: #06982d;"></line><line transform="translate(388.5000000348886,166.36363636363635)" x2="0" y2="-16.545454545454533" style="fill: none; stroke: #ae1325;"></line><line transform="translate(395.00000003479454,164.9090909090909)" x2="0" y2="-23.45454545454544" style="fill: none; stroke: #06982d;"></line></g><g class="mark-rect role-mark layer_1_marks" role="graphics-symbol" aria-roledescription="rect mark container"><path d="M2.5000000404369214,72.00000000000001h5v24.363636363636374h-5Z" style="fill: #06982d;"></path><path d="M9.000000040342883,72.00000000000001h5v7.454545454545453h-5Z" style="fill: #ae1325;"></path><path d="M15.500000040248842,54.1818181818182h5v25.45454545454541h-5Z" style="fill: #06982d;"></path><path d="M22.000000040154806,54.1818181818182h5v15.272727272727252h-5Z" style="fill: #ae1325;"></path><path d="M28.500000040060765,79.63636363636361h5v4.181818181818201h-5Z" style="fill: #06982d;"></path><path d="M48.00000003977865,57.454545454545446h5v19.454545454545475h-5Z" style="fill: #ae1325;"></path><path d="M54.50000003968461,76.90909090909092h5v27.27272727272728h-5Z" style="fill: #ae1325;"></path><path d="M61.00000003959057,100.7272727272727h5v28.363636363636388h-5Z" style="fill: #06982d;"></path><path d="M67.50000003949653,107.09090909090911h5v13.63636363636364h-5Z" style="fill: #06982d;"></path><path d="M74.0000000394025,106.36363636363639h5v1.2727272727272805h-5Z" style="fill: #06982d;"></path><path d="M93.50000003912037,58.00000000000003h5v20.181818181818173h-5Z" style="fill: #06982d;"></path><path d="M100.00000003902633,24h5v34.00000000000003h-5Z" style="fill: #06982d;"></path><path d="M106.50000003893228,44.72727272727275h5v6.363636363636331h-5Z" style="fill: #06982d;"></path><path d="M113.00000003883825,44.72727272727275h5v27.454545454545425h-5Z" style="fill: #ae1325;"></path><path d="M119.5000000387442,87.99999999999999h5v21.27272727272731h-5Z" style="fill: #ae1325;"></path><path d="M139.0000000384621,51.45454545454542h5v14.000000000000064h-5Z" style="fill: #06982d;"></path><path d="M145.50000003836806,49.09090909090907h5v13.090909090909129h-5Z" style="fill: #ae1325;"></path><path d="M152.000000038274,62.1818181818182h5v27.818181818181785h-5Z" style="fill: #ae1325;"></path><path d="M158.50000003818,82.72727272727273h5v56.18181818181817h-5Z" style="fill: #ae1325;"></path><path d="M165.00000003808594,125.63636363636364h5v21.09090909090908h-5Z" style="fill: #ae1325;"></path><path d="M184.50000003780383,146.72727272727272h5v10.545454545454533h-5Z" style="fill: #ae1325;"></path><path d="M191.00000003770978,139.09090909090907h5v18.00000000000003h-5Z" style="fill: #06982d;"></path><path d="M197.50000003761573,141.45454545454547h5v8.909090909090878h-5Z" style="fill: #06982d;"></path><path d="M204.00000003752172,110.00000000000001h5v31.454545454545453h-5Z" style="fill: #06982d;"></path><path d="M230.00000003714555,66.90909090909089h5v24.00000000000003h-5Z" style="fill: #ae1325;"></path><path d="M236.50000003705148,57.27272727272725h5v33.63636363636367h-5Z" style="fill: #06982d;"></path><path d="M243.00000003695746,49.09090909090907h5v8.18181818181818h-5Z" style="fill: #06982d;"></path><path d="M249.50000003686344,68.54545454545453h5v8.181818181818173h-5Z" style="fill: #ae1325;"></path><path d="M256.0000000367694,76.7272727272727h5v13.818181818181841h-5Z" style="fill: #ae1325;"></path><path d="M275.5000000364873,102.54545454545453h5v37.27272727272731h-5Z" style="fill: #ae1325;"></path><path d="M282.0000000363932,139.81818181818184h5v23.45454545454544h-5Z" style="fill: #ae1325;"></path><path d="M288.5000000362992,147.45454545454547h5v15.272727272727252h-5Z" style="fill: #06982d;"></path><path d="M295.00000003620517,146.18181818181816h5v9.818181818181813h-5Z" style="fill: #ae1325;"></path><path d="M301.50000003611115,155.99999999999997h5v19.636363636363654h-5Z" style="fill: #ae1325;"></path><path d="M321.000000035829,162.54545454545456h5v12h-5Z" style="fill: #ae1325;"></path><path d="M327.50000003573496,176.72727272727272h5v7.454545454545439h-5Z" style="fill: #ae1325;"></path><path d="M334.00000003564094,180.9090909090909h5v10.545454545454561h-5Z" style="fill: #ae1325;"></path><path d="M340.50000003554686,187.09090909090907h5v5.090909090909122h-5Z" style="fill: #ae1325;"></path><path d="M347.00000003545284,184.18181818181816h5v14.181818181818215h-5Z" style="fill: #ae1325;"></path><path d="M366.50000003517073,176.72727272727272h5v4.000000000000028h-5Z" style="fill: #06982d;"></path><path d="M373.0000000350767,163.45454545454544h5v13.27272727272728h-5Z" style="fill: #06982d;"></path><path d="M379.50000003498263,152.54545454545456h5v2.545454545454561h-5Z" style="fill: #06982d;"></path><path d="M386.0000000348886,156.3636363636364h5v0h-5Z" style="fill: #ae1325;"></path><path d="M392.50000003479454,146.90909090909088h5v9.454545454545524h-5Z" style="fill: #06982d;"></path></g></g><path class="foreground" aria-hidden="true" d="" style="display: none; fill: none;"></path></g></g></g></svg>