<svg xmlns="http://www.w3.org/2000/svg" xmlns:xlink="http://www.w3.org/1999/xlink" version="1.1" class="marks" width="419" height="242" viewBox="0 0 419 242"><rect width="419" height="242" fill="white"/><g fill="none" stroke-miterlimit="10" transform="translate(113,5)"><g class="mark-group role-frame root" role="graphics-object" aria-roledescription="group mark container"><g transform="translate(0,0)"><path class="background" aria-hidden="true" d="M0.5,0.5h300v200h-300Z" stroke="#ddd"/><g><g class="mark-group role-axis" aria-hidden="true"><g transform="translate(0.5,200.5)"><path class="background" aria-hidden="true" d="M0,0h0v0h0Z" pointer-events="none"/><g><g class="mark-rule role-axis-grid" pointer-events="none"><line transform="translate(0,0)" x2="0" y2="-200" stroke="#ddd" stroke-width="1" opacity="1"/><line transform="translate(33,0)" x2="0" y2="-200" stroke="#ddd" stroke-width="1" opacity="1"/><line transform="translate(67,0)" x2="0" y2="-200" stroke="#ddd" stroke-width="1" opacity="1"/><line transform="translate(100,0)" x2="0" y2="-200" stroke="#ddd" stroke-width="1" opacity="1"/><line transform="translate(133,0)" x2="0" y2="-200" stroke="#ddd" stroke-width="1" opacity="1"/><line transform="translate(167,0)" x2="0" y2="-200" stroke="#ddd" stroke-width="1" opacity="1"/><line transform="translate(200,0)" x2="0" y2="-200" stroke="#ddd" stroke-width="1" opacity="1"/><line transform="translate(233,0)" x2="0" y2="-200" stroke="#ddd" stroke-width="1" opacity="1"/><line transform="translate(267,0)" x2="0" y2="-200" stroke="#ddd" stroke-width="1" opacity="1"/><line transform="translate(300,0)" x2="0" y2="-200" stroke="#ddd" stroke-width="1" opacity="1"/></g></g><path class="foreground" aria-hidden="true" d="" pointer-events="none" display="none"/></g></g><g class="mark-group role-axis" role="graphics-symbol" aria-roledescription="axis" aria-label="X-axis titled 'yield' for a linear scale with values from 26 to 44"><g transform="translate(0.5,200.5)"><path class="background" aria-hidden="true" d="M0,0h0v0h0Z" pointer-events="none"/><g><g class="mark-rule role-axis-tick" pointer-events="none"><line transform="translate(0,0)" x2="0" y2="5" stroke="#888" stroke-width="1" opacity="1"/><line transform="translate(33,0)" x2="0" y2="5" stroke="#888" stroke-width="1" opacity="1"/><line transform="translate(67,0)" x2="0" y2="5" stroke="#888" stroke-width="1" opacity="1"/><line transform="translate(100,0)" x2="0" y2="5" stroke="#888" stroke-width="1" opacity="1"/><line transform="translate(133,0)" x2="0" y2="5" stroke="#888" stroke-width="1" opacity="1"/><line transform="translate(167,0)" x2="0" y2="5" stroke="#888" stroke-width="1" opacity="1"/><line transform="translate(200,0)" x2="0" y2="5" stroke="#888" stroke-width="1" opacity="1"/><line transform="translate(233,0)" x2="0" y2="5" stroke="#888" stroke-width="1" opacity="1"/><line transform="translate(267,0)" x2="0" y2="5" stroke="#888" stroke-width="1" opacity="1"/><line transform="translate(300,0)" x2="0" y2="5" stroke="#888" stroke-width="1" opacity="1"/></g><g class="mark-text role-axis-label" pointer-events="none"><text text-anchor="start" transform="translate(0,15)" font-family="sans-serif" font-size="10px" fill="#000" opacity="1">26</text><text text-anchor="middle" transform="translate(33.33333333333333,15)" font-family="sans-serif" font-size="10px" fill="#000" opacity="1">28</text><text text-anchor="middle" transform="translate(66.66666666666666,15)" font-family="sans-serif" font-size="10px" fill="#000" opacity="1">30</text><text text-anchor="middle" transform="translate(100,15)" font-family="sans-serif" font-size="10px" fill="#000" opacity="1">32</text><text text-anchor="middle" transform="translate(133.33333333333331,15)" font-family="sans-serif" font-size="10px" fill="#000" opacity="1">34</text><text text-anchor="middle" transform="translate(166.66666666666669,15)" font-family="sans-serif" font-size="10px" fill="#000" opacity="1">36</text><text text-anchor="middle" transform="translate(200,15)" font-family="sans-serif" font-size="10px" fill="#000" opacity="1">38</text><text text-anchor="middle" transform="translate(233.33333333333334,15)" font-family="sans-serif" font-size="10px" fill="#000" opacity="1">40</text><text text-anchor="middle" transform="translate(266.66666666666663,15)" font-family="sans-serif" font-size="10px" fill="#000" opacity="1">42</text><text text-anchor="end" transform="translate(300,15)" font-family="sans-serif" font-size="10px" fill="#000" opacity="1">44</text></g><g class="mark-rule role-axis-domain" pointer-events="none"><line transform="translate(0,0)" x2="300" y2="0" stroke="#888" stroke-width="1" opacity="1"/></g><g class="mark-text role-axis-title" pointer-events="none"><text text-anchor="middle" transform="translate(150,30)" font-family="sans-serif" font-size="11px" font-weight="bold" fill="#000" opacity="1">yield</text></g></g><path class="foreground" aria-hidden="true" d="" pointer-events="none" display="none"/></g></g><g class="mark-group role-axis" role="graphics-symbol" aria-roledescription="axis" aria-label="Y-axis titled 'variety' for a discrete scale with 10 values: Glabron, Manchuria, No. 457, No. 462, No. 475, ending with Wisconsin No. 38"><g transform="translate(0.5,0.5)"><path class="background" aria-hidden="true" d="M0,0h0v0h0Z" pointer-events="none"/><g><g class="mark-rule role-axis-tick" pointer-events="none"><line transform="translate(0,10)" x2="-5" y2="0" stroke="#888" stroke-width="1" opacity="1"/><line transform="translate(0,30)" x2="-5" y2="0" stroke="#888" stroke-width="1" opacity="1"/><line transform="translate(0,50)" x2="-5" y2="0" stroke="#888" stroke-width="1" opacity="1"/><line transform="translate(0,70)" x2="-5" y2="0" stroke="#888" stroke-width="1" opacity="1"/><line transform="translate(0,90)" x2="-5" y2="0" stroke="#888" stroke-width="1" opacity="1"/><line transform="translate(0,110)" x2="-5" y2="0" stroke="#888" stroke-width="1" opacity="1"/><line transform="translate(0,130)" x2="-5" y2="0" stroke="#888" stroke-width="1" opacity="1"/><line transform="translate(0,150)" x2="-5" y2="0" stroke="#888" stroke-width="1" opacity="1"/><line transform="translate(0,170)" x2="-5" y2="0" stroke="#888" stroke-width="1" opacity="1"/><line transform="translate(0,190)" x2="-5" y2="0" stroke="#888" stroke-width="1" opacity="1"/></g><g class="mark-text role-axis-label" pointer-events="none"><text text-anchor="end" transform="translate(-7,12.5)" font-family="sans-serif" font-size="10px" fill="#000" opacity="1">Glabron</text><text text-anchor="end" transform="translate(-7,32.5)" font-family="sans-serif" font-size="10px" fill="#000" opacity="1">Manchuria</text><text text-anchor="end" transform="translate(-7,52.5)" font-family="sans-serif" font-size="10px" fill="#000" opacity="1">No. 457</text><text text-anchor="end" transform="translate(-7,72.5)" font-family="sans-serif" font-size="10px" fill="#000" opacity="1">No. 462</text><text text-anchor="end" transform="translate(-7,92.5)" font-family="sans-serif" font-size="10px" fill="#000" opacity="1">No. 475</text><text text-anchor="end" transform="translate(-7,112.5)" font-family="sans-serif" font-size="10px" fill="#000" opacity="1">Peatland</text><text text-anchor="end" transform="translate(-7,132.5)" font-family="sans-serif" font-size="10px" fill="#000" opacity="1">Svansota</text><text text-anchor="end" transform="translate(-7,152.5)" font-family="sans-serif" font-size="10px" fill="#000" opacity="1">Trebi</text><text text-anchor="end" transform="translate(-7,172.5)" font-family="sans-serif" font-size="10px" fill="#000" opacity="1">Velvet</text><text text-anchor="end" transform="translate(-7,192.5)" font-family="sans-serif" font-size="10px" fill="#000" opacity="1">Wisconsin No. 38</text></g><g class="mark-rule role-axis-domain" pointer-events="none"><line transform="translate(0,0)" x2="0" y2="200" stroke="#888" stroke-width="1" opacity="1"/></g><g class="mark-text role-axis-title" pointer-events="none"><text text-anchor="middle" transform="translate(-96.6201171875,100) rotate(-90) translate(0,-2)" font-family="sans-serif" font-size="11px" font-weight="bold" fill="#000" opacity="1">variety</text></g></g><path class="foreground" aria-hidden="true" d="" pointer-events="none" display="none"/></g></g><g class="mark-rect role-mark layer_0_layer_0_marks" aria-hidden="true"><path d="M54.41492848049131,22.5h1v15h-1Z" fill="teal" opacity="0.7"/><path d="M72.73560635208773,2.5h1v15h-1Z" fill="teal" opacity="0.7"/><path d="M28.893963369695797,122.5h1v15h-1Z" fill="teal" opacity="0.7"/><path d="M75.90893690125624,162.5h1v15h-1Z" fill="teal" opacity="0.7"/><path d="M166.74624524334277,142.5h1v15h-1Z" fill="teal" opacity="0.7"/><path d="M110.36259798600271,42.5h1v15h-1Z" fill="teal" opacity="0.7"/><path d="M90.38525857160796,62.5h1v15h-1Z" fill="teal" opacity="0.7"/><path d="M101.73724675806476,102.5h1v15h-1Z" fill="teal" opacity="0.7"/><path d="M45.25662605920332,82.5h1v15h-1Z" fill="teal" opacity="0.7"/><path d="M165.65150179101795,182.5h1v15h-1Z" fill="teal" opacity="0.7"/></g><g class="mark-rect role-mark layer_0_layer_1_marks" aria-hidden="true"><path d="M126.71473818617532,22.5h1v15h-1Z" fill="teal" opacity="0.7"/><path d="M170.98658809235684,2.5h1v15h-1Z" fill="teal" opacity="0.7"/><path d="M116.03195329697077,122.5h1v15h-1Z" fill="teal" opacity="0.7"/><path d="M158.4613686542993,162.5h1v15h-1Z" fill="teal" opacity="0.7"/><path d="M278.9201992011017,142.5h1v15h-1Z" fill="teal" opacity="0.7"/><path d="M216.87820756955298,42.5h1v15h-1Z" fill="teal" opacity="0.7"/><path d="M221.2074358728367,62.5h1v15h-1Z" fill="teal" opacity="0.7"/><path d="M169.94794768638002,102.5h1v15h-1Z" fill="teal" opacity="0.7"/><path d="M145.78040171857452,82.5h1v15h-1Z" fill="teal" opacity="0.7"/><path d="M279.8300259867599,182.5h1v15h-1Z" fill="teal" opacity="0.7"/></g><g class="mark-rule role-mark layer_0_layer_2_marks" role="graphics-object" aria-roledescription="rule mark container"><line aria-label="yield: 29.2948957088; variety: Manchuria; upper_yield: 33.6328842912; Mean of yield: 31.46389; Mean + stderr of yield: 33.6328842912; Mean - stderr of yield: 29.2948957088" role="graphics-symbol" aria-roledescription="errorbar" transform="translate(54.91492848049131,30)" x2="72.29980970568401" y2="0" stroke="black"/><line aria-label="yield: 30.3941363811; variety: Glabron; upper_yield: 36.2891952855; Mean of yield: 33.3416658333; Mean + stderr of yield: 36.2891952855; Mean - stderr of yield: 30.3941363811" role="graphics-symbol" aria-roledescription="errorbar" transform="translate(73.23560635208773,10)" x2="98.25098174026911" y2="0" stroke="black"/><line aria-label="yield: 27.7636378022; variety: Svansota; upper_yield: 32.9919171978; Mean of yield: 30.3777775; Mean + stderr of yield: 32.9919171978; Mean - stderr of yield: 27.7636378022" role="graphics-symbol" aria-roledescription="errorbar" transform="translate(29.393963369695797,130)" x2="87.13798992727497" y2="0" stroke="black"/><line aria-label="yield: 30.5845362141; variety: Velvet; upper_yield: 35.5376821193; Mean of yield: 33.0611091667; Mean + stderr of yield: 35.5376821193; Mean - stderr of yield: 30.5845362141" role="graphics-symbol" aria-roledescription="errorbar" transform="translate(76.40893690125624,170)" x2="82.55243175304305" y2="0" stroke="black"/><line aria-label="yield: 36.0347747146; variety: Trebi; upper_yield: 42.7652119521; Mean of yield: 39.3999933333; Mean + stderr of yield: 42.7652119521; Mean - stderr of yield: 36.0347747146" role="graphics-symbol" aria-roledescription="errorbar" transform="translate(167.24624524334277,150)" x2="112.17395395775893" y2="0" stroke="black"/><line aria-label="yield: 32.6517558792; variety: No. 457; upper_yield: 39.0426924542; Mean of yield: 35.8472241667; Mean + stderr of yield: 39.0426924542; Mean - stderr of yield: 32.6517558792" role="graphics-symbol" aria-roledescription="errorbar" transform="translate(110.86259798600271,50)" x2="106.51560958355027" y2="0" stroke="black"/><line aria-label="yield: 31.4531155143; variety: No. 462; upper_yield: 39.3024461524; Mean of yield: 35.3777808333; Mean + stderr of yield: 39.3024461524; Mean - stderr of yield: 31.4531155143" role="graphics-symbol" aria-roledescription="errorbar" transform="translate(90.88525857160796,70)" x2="130.82217730122875" y2="0" stroke="black"/><line aria-label="yield: 32.1342348055; variety: Peatland; upper_yield: 36.2268768612; Mean of yield: 34.1805558333; Mean + stderr of yield: 36.2268768612; Mean - stderr of yield: 32.1342348055" role="graphics-symbol" aria-roledescription="errorbar" transform="translate(102.23724675806476,110)" x2="68.21070092831526" y2="0" stroke="black"/><line aria-label="yield: 28.7453975636; variety: No. 475; upper_yield: 34.7768241031; Mean of yield: 31.7611108333; Mean + stderr of yield: 34.7768241031; Mean - stderr of yield: 28.7453975636" role="graphics-symbol" aria-roledescription="errorbar" transform="translate(45.75662605920332,90)" x2="100.52377565937121" y2="0" stroke="black"/><line aria-label="yield: 35.9690901075; variety: Wisconsin No. 38; upper_yield: 42.8198015592; Mean of yield: 39.3944458333; Mean + stderr of yield: 42.8198015592; Mean - stderr of yield: 35.9690901075" role="graphics-symbol" aria-roledescription="errorbar" transform="translate(166.15150179101795,190)" x2="114.17852419574194" y2="0" stroke="black"/></g><g class="mark-symbol role-mark layer_1_marks" role="graphics-object" aria-roledescription="symbol mark container"><path aria-label="Mean of yield: 31.46389; variety: Manchuria" role="graphics-symbol" aria-roledescription="point" transform="translate(91.06483333333333,30)" d="M2.739,0A2.739,2.739,0,1,1,-2.739,0A2.739,2.739,0,1,1,2.739,0" fill="black" stroke-width="2"/><path aria-label="Mean of yield: 33.3416658333; variety: Glabron" role="graphics-symbol" aria-roledescription="point" transform="translate(122.3610972222223,10)" d="M2.739,0A2.739,2.739,0,1,1,-2.739,0A2.739,2.739,0,1,1,2.739,0" fill="black" stroke-width="2"/><path aria-label="Mean of yield: 30.3777775; variety: Svansota" role="graphics-symbol" aria-roledescription="point" transform="translate(72.96295833333329,130)" d="M2.739,0A2.739,2.739,0,1,1,-2.739,0A2.739,2.739,0,1,1,2.739,0" fill="black" stroke-width="2"/><path aria-label="Mean of yield: 33.0611091667; variety: Velvet" role="graphics-symbol" aria-roledescription="point" transform="translate(117.6851527777778,170)" d="M2.739,0A2.739,2.739,0,1,1,-2.739,0A2.739,2.739,0,1,1,2.739,0" fill="black" stroke-width="2"/><path aria-label="Mean of yield: 39.3999933333; variety: Trebi" role="graphics-symbol" aria-roledescription="point" transform="translate(223.33322222222222,150)" d="M2.739,0A2.739,2.739,0,1,1,-2.739,0A2.739,2.739,0,1,1,2.739,0" fill="black" stroke-width="2"/><path aria-label="Mean of yield: 35.8472241667; variety: No. 457" role="graphics-symbol" aria-roledescription="point" transform="translate(164.12040277777783,50)" d="M2.739,0A2.739,2.739,0,1,1,-2.739,0A2.739,2.739,0,1,1,2.739,0" fill="black" stroke-width="2"/><path aria-label="Mean of yield: 35.3777808333; variety: No. 462" role="graphics-symbol" aria-roledescription="point" transform="translate(156.29634722222232,70)" d="M2.739,0A2.739,2.739,0,1,1,-2.739,0A2.739,2.739,0,1,1,2.739,0" fill="black" stroke-width="2"/><path aria-label="Mean of yield: 34.1805558333; variety: Peatland" role="graphics-symbol" aria-roledescription="point" transform="translate(136.3425972222224,110)" d="M2.739,0A2.739,2.739,0,1,1,-2.739,0A2.739,2.739,0,1,1,2.739,0" fill="black" stroke-width="2"/><path aria-label="Mean of yield: 31.7611108333; variety: No. 475" role="graphics-symbol" aria-roledescription="point" transform="translate(96.01851388888889,90)" d="M2.739,0A2.739,2.739,0,1,1,-2.739,0A2.739,2.739,0,1,1,2.739,0" fill="black" stroke-width="2"/><path aria-label="Mean of yield: 39.3944458333; variety: Wisconsin No. 38" role="graphics-symbol" aria-roledescription="point" transform="translate(223.24076388888895,190)" d="M2.739,0A2.739,2.739,0,1,1,-2.739,0A2.739,2.739,0,1,1,2.739,0" fill="black" stroke-width="2"/></g></g><path class="foreground" aria-hidden="true" d="" display="none"/></g></g></g></svg>