<svg xmlns="http://www.w3.org/2000/svg" xmlns:xlink="http://www.w3.org/1999/xlink" version="1.1" class="marks" width="491" height="347" viewBox="0 0 491 347"><rect width="491" height="347" fill="white"/><g fill="none" stroke-miterlimit="10" transform="translate(47,10)"><g class="mark-group role-frame root" role="graphics-object" aria-roledescription="group mark container"><g transform="translate(0,0)"><path class="background" aria-hidden="true" d="M0,0h400v300h-400Z"/><g><g class="mark-group role-axis" aria-hidden="true"><g transform="translate(0.5,300.5)"><path class="background" aria-hidden="true" d="M0,0h0v0h0Z" pointer-events="none"/><g><g class="mark-rule role-axis-grid" pointer-events="none"><line transform="translate(0,-300)" x2="0" y2="300" stroke="#ddd" stroke-width="1" opacity="1"/><line transform="translate(39,-300)" x2="0" y2="300" stroke="#ddd" stroke-width="1" opacity="1"/><line transform="translate(79,-300)" x2="0" y2="300" stroke="#ddd" stroke-width="1" opacity="1"/><line transform="translate(118,-300)" x2="0" y2="300" stroke="#ddd" stroke-width="1" opacity="1"/><line transform="translate(157,-300)" x2="0" y2="300" stroke="#ddd" stroke-width="1" opacity="1"/><line transform="translate(197,-300)" x2="0" y2="300" stroke="#ddd" stroke-width="1" opacity="1"/><line transform="translate(236,-300)" x2="0" y2="300" stroke="#ddd" stroke-width="1" opacity="1"/><line transform="translate(276,-300)" x2="0" y2="300" stroke="#ddd" stroke-width="1" opacity="1"/><line transform="translate(315,-300)" x2="0" y2="300" stroke="#ddd" stroke-width="1" opacity="1"/><line transform="translate(354,-300)" x2="0" y2="300" stroke="#ddd" stroke-width="1" opacity="1"/><line transform="translate(394,-300)" x2="0" y2="300" stroke="#ddd" stroke-width="1" opacity="1"/></g></g><path class="foreground" aria-hidden="true" d="" pointer-events="none" display="none"/></g></g><g class="mark-group role-axis" aria-hidden="true"><g transform="translate(0.5,0.5)"><path class="background" aria-hidden="true" d="M0,0h0v0h0Z" pointer-events="none"/><g><g class="mark-rule role-axis-grid" pointer-events="none"><line transform="translate(0,300)" x2="400" y2="0" stroke="#ddd" stroke-width="1" opacity="1"/><line transform="translate(0,263)" x2="400" y2="0" stroke="#ddd" stroke-width="1" opacity="1"/><line transform="translate(0,225)" x2="400" y2="0" stroke="#ddd" stroke-width="1" opacity="1"/><line transform="translate(0,188)" x2="400" y2="0" stroke="#ddd" stroke-width="1" opacity="1"/><line transform="translate(0,150)" x2="400" y2="0" stroke="#ddd" stroke-width="1" opacity="1"/><line transform="translate(0,113)" x2="400" y2="0" stroke="#ddd" stroke-width="1" opacity="1"/><line transform="translate(0,75)" x2="400" y2="0" stroke="#ddd" stroke-width="1" opacity="1"/><line transform="translate(0,38)" x2="400" y2="0" stroke="#ddd" stroke-width="1" opacity="1"/><line transform="translate(0,0)" x2="400" y2="0" stroke="#ddd" stroke-width="1" opacity="1"/></g></g><path class="foreground" aria-hidden="true" d="" pointer-events="none" display="none"/></g></g><g class="mark-group role-axis" role="graphics-symbol" aria-roledescription="axis" aria-label="X-axis titled 'date' for a time scale with values from Saturday, 01 January 2000, 12:00:00 AM to Monday, 01 March 2010, 12:00:00 AM"><g transform="translate(0.5,300.5)"><path class="background" aria-hidden="true" d="M0,0h0v0h0Z" pointer-events="none"/><g><g class="mark-rule role-axis-tick" pointer-events="none"><line transform="translate(0,0)" x2="0" y2="5" stroke="#888" stroke-width="1" opacity="1"/><line transform="translate(39,0)" x2="0" y2="5" stroke="#888" stroke-width="1" opacity="1"/><line transform="translate(79,0)" x2="0" y2="5" stroke="#888" stroke-width="1" opacity="1"/><line transform="translate(118,0)" x2="0" y2="5" stroke="#888" stroke-width="1" opacity="1"/><line transform="translate(157,0)" x2="0" y2="5" stroke="#888" stroke-width="1" opacity="1"/><line transform="translate(197,0)" x2="0" y2="5" stroke="#888" stroke-width="1" opacity="1"/><line transform="translate(236,0)" x2="0" y2="5" stroke="#888" stroke-width="1" opacity="1"/><line transform="translate(276,0)" x2="0" y2="5" stroke="#888" stroke-width="1" opacity="1"/><line transform="translate(315,0)" x2="0" y2="5" stroke="#888" stroke-width="1" opacity="1"/><line transform="translate(354,0)" x2="0" y2="5" stroke="#888" stroke-width="1" opacity="1"/><line transform="translate(394,0)" x2="0" y2="5" stroke="#888" stroke-width="1" opacity="1"/></g><g class="mark-text role-axis-label" pointer-events="none"><text text-anchor="start" transform="translate(0,15)" font-family="sans-serif" font-size="10px" fill="#000" opacity="1">2000</text><text text-anchor="middle" transform="translate(39.439655172413794,15)" font-family="sans-serif" font-size="10px" fill="#000" opacity="1">2001</text><text text-anchor="middle" transform="translate(78.77155172413794,15)" font-family="sans-serif" font-size="10px" fill="#000" opacity="1">2002</text><text text-anchor="middle" transform="translate(118.10344827586208,15)" font-family="sans-serif" font-size="10px" fill="#000" opacity="1">2003</text><text text-anchor="middle" transform="translate(157.43534482758622,15)" font-family="sans-serif" font-size="10px" fill="#000" opacity="1">2004</text><text text-anchor="middle" transform="translate(196.875,15)" font-family="sans-serif" font-size="10px" fill="#000" opacity="1">2005</text><text text-anchor="middle" transform="translate(236.20689655172416,15)" font-family="sans-serif" font-size="10px" fill="#000" opacity="1">2006</text><text text-anchor="middle" transform="translate(275.53879310344826,15)" font-family="sans-serif" font-size="10px" fill="#000" opacity="1">2007</text><text text-anchor="middle" transform="translate(314.87068965517244,15)" font-family="sans-serif" font-size="10px" fill="#000" opacity="1">2008</text><text text-anchor="middle" transform="translate(354.3103448275862,15)" font-family="sans-serif" font-size="10px" fill="#000" opacity="1">2009</text><text text-anchor="middle" transform="translate(393.64224137931035,15)" font-family="sans-serif" font-size="10px" fill="#000" opacity="1">2010</text></g><g class="mark-rule role-axis-domain" pointer-events="none"><line transform="translate(0,0)" x2="400" y2="0" stroke="#888" stroke-width="1" opacity="1"/></g><g class="mark-text role-axis-title" pointer-events="none"><text text-anchor="middle" transform="translate(200,30)" font-family="sans-serif" font-size="11px" font-weight="bold" fill="#000" opacity="1">date</text></g></g><path class="foreground" aria-hidden="true" d="" pointer-events="none" display="none"/></g></g><g class="mark-group role-axis" role="graphics-symbol" aria-roledescription="axis" aria-label="Y-axis titled 'price' for a linear scale with values from 0 to 800"><g transform="translate(0.5,0.5)"><path class="background" aria-hidden="true" d="M0,0h0v0h0Z" pointer-events="none"/><g><g class="mark-rule role-axis-tick" pointer-events="none"><line transform="translate(0,300)" x2="-5" y2="0" stroke="#888" stroke-width="1" opacity="1"/><line transform="translate(0,263)" x2="-5" y2="0" stroke="#888" stroke-width="1" opacity="1"/><line transform="translate(0,225)" x2="-5" y2="0" stroke="#888" stroke-width="1" opacity="1"/><line transform="translate(0,188)" x2="-5" y2="0" stroke="#888" stroke-width="1" opacity="1"/><line transform="translate(0,150)" x2="-5" y2="0" stroke="#888" stroke-width="1" opacity="1"/><line transform="translate(0,113)" x2="-5" y2="0" stroke="#888" stroke-width="1" opacity="1"/><line transform="translate(0,75)" x2="-5" y2="0" stroke="#888" stroke-width="1" opacity="1"/><line transform="translate(0,38)" x2="-5" y2="0" stroke="#888" stroke-width="1" opacity="1"/><line transform="translate(0,0)" x2="-5" y2="0" stroke="#888" stroke-width="1" opacity="1"/></g><g class="mark-text role-axis-label" pointer-events="none"><text text-anchor="end" transform="translate(-7,303)" font-family="sans-serif" font-size="10px" fill="#000" opacity="1">0</text><text text-anchor="end" transform="translate(-7,265.5)" font-family="sans-serif" font-size="10px" fill="#000" opacity="1">100</text><text text-anchor="end" transform="translate(-7,228)" font-family="sans-serif" font-size="10px" fill="#000" opacity="1">200</text><text text-anchor="end" transform="translate(-7,190.5)" font-family="sans-serif" font-size="10px" fill="#000" opacity="1">300</text><text text-anchor="end" transform="translate(-7,153)" font-family="sans-serif" font-size="10px" fill="#000" opacity="1">400</text><text text-anchor="end" transform="translate(-7,115.5)" font-family="sans-serif" font-size="10px" fill="#000" opacity="1">500</text><text text-anchor="end" transform="translate(-7,78)" font-family="sans-serif" font-size="10px" fill="#000" opacity="1">600</text><text text-anchor="end" transform="translate(-7,40.5)" font-family="sans-serif" font-size="10px" fill="#000" opacity="1">700</text><text text-anchor="end" transform="translate(-7,3)" font-family="sans-serif" font-size="10px" fill="#000" opacity="1">800</text></g><g class="mark-rule role-axis-domain" pointer-events="none"><line transform="translate(0,300)" x2="0" y2="-300" stroke="#888" stroke-width="1" opacity="1"/></g><g class="mark-text role-axis-title" pointer-events="none"><text text-anchor="middle" transform="translate(-30.0869140625,150) rotate(-90) translate(0,-2)" font-family="sans-serif" font-size="11px" font-weight="bold" fill="#000" opacity="1">price</text></g></g><path class="foreground" aria-hidden="true" d="" pointer-events="none" display="none"/></g></g><g class="mark-group role-scope layer_0_pathgroup" role="graphics-object" aria-roledescription="group mark container"><g transform="translate(0,0)"><path class="background" aria-hidden="true" d="M0,0h400v300h-400Z"/><g><g class="mark-line role-mark layer_0_marks" role="graphics-object" aria-roledescription="line mark container"><path aria-label="date: Jan 01, 2000; price: 39.81; symbol: MSFT" role="graphics-symbol" aria-roledescription="line mark" d="M0,285.071L3.341,286.369L6.466,283.793L9.806,289.361L13.034,290.456L16.375,287.798L19.608,289.35L22.948,289.35L26.289,290.801L29.521,289.493L32.866,291.248L36.099,293.381L39.44,290.685L42.78,291L45.797,291.656L49.138,289.665L52.366,289.448L55.707,288.863L58.939,289.901L62.28,291.296L65.621,292.193L68.853,291.131L72.198,290.205L75.431,289.894L78.772,290.28L82.112,291.101L85.129,290.801L88.47,292.028L91.698,292.234L95.039,291.656L98.271,292.68L101.612,292.511L104.952,293.329L108.185,291.844L111.53,291.203L114.763,292.114L118.103,292.759L121.444,292.748L124.461,292.59L127.802,292.174L131.03,292.466L134.371,292.151L137.603,291.915L140.944,291.881L144.284,291.491L147.517,291.956L150.862,292.088L154.095,291.578L157.435,291.491L160.776,291.836L163.901,292.328L167.241,291.956L170.47,291.926L173.81,291.21L177.043,291.233L180.383,291.574L183.724,291.465L186.957,291.368L190.302,290.775L193.534,290.805L196.875,290.959L200.216,291.319L203.233,291.66L206.573,291.27L209.802,291.068L213.142,291.401L216.375,291.135L219.715,290.494L223.056,291.064L226.289,291.075L229.634,290.359L232.866,290.891L236.207,290.198L239.547,290.61L242.565,290.49L245.905,291.563L249.133,292.054L252.474,291.825L255.707,291.559L259.047,290.951L262.388,290.37L265.621,289.89L268.966,289.628L272.198,289.451L275.539,289.099L278.879,290.014L281.897,290.119L285.233,289.388L288.465,289.084L291.806,289.519L295.039,289.688L298.379,289.748L301.72,289.485L304.952,286.864L308.293,287.966L311.53,287.25L314.871,288.326L318.211,290.224L321.336,289.796L324.672,289.748L327.905,289.781L331.246,290.074L334.478,290.719L337.819,290.115L341.159,290.333L344.392,291.911L347.733,292.628L350.97,292.909L354.31,293.764L357.651,294.071L360.668,293.254L364.004,292.56L367.237,292.279L370.577,291.218L373.81,291.308L377.151,290.839L380.491,290.441L383.724,289.695L387.064,289.024L390.302,288.623L393.642,289.481L396.983,289.249L400,289.2" stroke="#72b7b2" stroke-width="2"/></g></g><path class="foreground" aria-hidden="true" d="" display="none"/></g><g transform="translate(0,0)"><path class="background" aria-hidden="true" d="M0,0h400v300h-400Z"/><g><g class="mark-line role-mark layer_0_marks" role="graphics-object" aria-roledescription="line mark container"><path aria-label="date: Jan 01, 2000; price: 64.56; symbol: AMZN" role="graphics-symbol" aria-roledescription="line mark" d="M0,275.79L3.341,274.174L6.466,274.875L9.806,279.304L13.034,281.884L16.375,286.384L19.608,288.705L22.948,284.438L26.289,285.585L29.521,286.268L32.866,290.741L36.099,294.165L39.44,293.509L42.78,296.179L45.797,296.164L49.138,294.083L52.366,293.741L55.707,294.694L58.939,295.316L62.28,296.648L65.621,297.761L68.853,297.383L72.198,295.755L75.431,295.943L78.772,294.679L82.112,294.713L85.129,294.638L88.47,293.741L91.698,293.164L95.039,293.906L98.271,294.581L101.612,294.398L104.952,294.026L108.185,292.74L111.53,291.244L114.763,292.916L118.103,291.806L121.444,291.746L124.461,290.239L127.802,289.241L131.03,286.541L134.371,286.38L137.603,284.385L140.944,282.63L144.284,281.839L147.517,279.589L150.862,279.761L154.095,280.268L157.435,281.1L160.776,283.871L163.901,283.77L167.241,283.65L170.47,281.813L173.81,279.6L177.043,285.405L180.383,285.698L183.724,284.678L186.957,287.201L190.302,285.12L193.534,283.391L196.875,283.793L200.216,286.808L203.233,287.149L206.573,287.865L209.802,286.684L213.142,287.591L216.375,283.069L219.715,283.988L223.056,283.013L226.289,285.053L229.634,281.828L232.866,282.319L236.207,283.193L239.547,285.96L242.565,286.301L245.905,286.796L249.133,287.021L252.474,285.495L255.707,289.916L259.047,288.439L262.388,287.955L265.621,285.716L268.966,284.873L272.198,285.203L275.539,285.874L278.879,285.323L281.897,285.079L285.233,277.001L288.465,274.073L291.806,274.346L295.039,270.548L298.379,270.034L301.72,265.069L304.952,266.569L308.293,266.04L311.53,265.26L314.871,270.863L318.211,275.824L321.336,273.263L324.672,270.514L327.905,269.393L331.246,272.501L334.478,271.373L337.819,269.696L341.159,272.715L344.392,278.535L347.733,283.988L350.97,280.77L354.31,277.943L357.651,275.704L360.668,272.46L364.004,269.805L367.237,270.754L370.577,268.628L373.81,267.84L377.151,269.554L380.491,264.99L383.724,255.446L387.064,249.034L390.302,249.555L393.642,252.971L396.983,255.6L400,251.693" stroke="#f58518" stroke-width="2"/></g></g><path class="foreground" aria-hidden="true" d="" display="none"/></g><g transform="translate(0,0)"><path class="background" aria-hidden="true" d="M0,0h400v300h-400Z"/><g><g class="mark-line role-mark layer_0_marks" role="graphics-object" aria-roledescription="line mark container"><path aria-label="date: Aug 01, 2004; price: 102.37; symbol: GOOG" role="graphics-symbol" aria-roledescription="line mark" d="M180.383,261.611L183.724,251.4L186.957,228.51L190.302,231.758L193.534,227.704L196.875,226.643L200.216,229.504L203.233,232.309L206.573,217.5L209.802,196.024L213.142,189.694L216.375,192.09L219.715,192.75L223.056,181.328L226.289,160.448L229.634,148.159L232.866,144.428L236.207,137.753L239.547,164.018L242.565,153.75L245.905,143.272L249.133,160.568L252.474,142.751L255.707,155.025L259.047,158.051L262.388,149.288L265.621,121.354L268.966,118.196L272.198,127.32L275.539,111.938L278.879,131.456L281.897,128.19L285.233,123.233L288.465,113.284L291.806,103.987L295.039,108.75L298.379,106.781L301.72,87.274L304.952,34.875L308.293,40.125L311.53,40.695L314.871,88.388L318.211,123.307L321.336,134.824L324.672,84.641L327.905,80.325L331.246,102.593L334.478,122.344L337.819,126.266L341.159,149.805L344.392,165.24L347.733,190.14L350.97,184.631L354.31,173.051L357.651,173.254L360.668,169.478L364.004,151.511L367.237,143.539L370.577,141.904L373.81,133.856L377.151,126.874L380.491,114.056L383.724,98.955L387.064,81.375L390.302,67.508L393.642,101.273L396.983,102.45L400,89.929" stroke="#e45756" stroke-width="2"/></g></g><path class="foreground" aria-hidden="true" d="" display="none"/></g><g transform="translate(0,0)"><path class="background" aria-hidden="true" d="M0,0h400v300h-400Z"/><g><g class="mark-line role-mark layer_0_marks" role="graphics-object" aria-roledescription="line mark container"><path aria-label="date: Jan 01, 2000; price: 25.94; symbol: AAPL" role="graphics-symbol" aria-roledescription="line mark" d="M0,290.273L3.341,289.253L6.466,287.269L9.806,288.371L13.034,292.125L16.375,290.179L19.608,290.471L22.948,288.574L26.289,295.17L29.521,296.333L32.866,296.906L36.099,297.21L39.44,295.946L42.78,296.58L45.797,295.864L49.138,295.223L52.366,296.258L55.707,295.643L58.939,296.475L62.28,296.524L65.621,297.09L68.853,296.708L72.198,296.006L75.431,295.894L78.772,295.365L82.112,295.931L85.129,295.56L88.47,295.448L91.698,295.631L95.039,296.678L98.271,297.139L101.612,297.233L104.952,297.281L108.185,296.989L111.53,297.094L114.763,297.315L118.103,297.308L121.444,297.184L124.461,297.349L127.802,297.334L131.03,296.633L134.371,296.426L137.603,296.048L140.944,295.759L144.284,296.115L147.517,295.71L150.862,296.081L154.095,295.991L157.435,295.77L160.776,295.515L163.901,294.93L167.241,295.166L170.47,294.739L173.81,293.899L177.043,293.936L180.383,293.531L183.724,292.732L186.957,290.175L190.302,287.426L193.534,287.925L196.875,285.581L200.216,283.178L203.233,284.374L206.573,286.478L209.802,285.09L213.142,286.196L216.375,284.006L219.715,282.416L223.056,279.896L226.289,278.404L229.634,274.568L232.866,273.041L236.207,271.684L239.547,274.316L242.565,276.48L245.905,273.604L249.133,277.586L252.474,278.524L255.707,274.515L259.047,274.556L262.388,271.133L265.621,269.595L268.966,265.628L272.198,268.185L275.539,267.851L278.879,268.271L281.897,265.159L285.233,262.575L288.465,254.554L291.806,254.235L295.039,250.59L298.379,248.07L301.72,242.449L304.952,228.769L308.293,231.668L311.53,225.72L314.871,249.24L318.211,253.118L321.336,246.187L324.672,234.769L327.905,229.219L331.246,237.21L334.478,240.394L337.819,236.426L341.159,257.378L344.392,259.654L347.733,265.249L350.97,267.994L354.31,266.201L357.651,266.509L360.668,260.58L364.004,252.814L367.237,249.071L370.577,246.589L373.81,238.729L377.151,236.921L380.491,230.494L383.724,229.313L387.064,225.034L390.302,220.976L393.642,227.978L396.983,223.267L400,216.368" stroke="#4c78a8" stroke-width="2"/></g></g><path class="foreground" aria-hidden="true" d="" display="none"/></g></g><g class="mark-symbol role-mark layer_1_layer_0_marks" role="graphics-object" aria-roledescription="symbol mark container"><path aria-label="Max of date: Mar 01, 2010; price for max date: 28.8; symbol: MSFT" role="graphics-symbol" aria-roledescription="circle" transform="translate(400,289.2)" d="M2.739,0A2.739,2.739,0,1,1,-2.739,0A2.739,2.739,0,1,1,2.739,0" fill="#72b7b2" stroke-width="2"/><path aria-label="Max of date: Mar 01, 2010; price for max date: 128.82; symbol: AMZN" role="graphics-symbol" aria-roledescription="circle" transform="translate(400,251.6925)" d="M2.739,0A2.739,2.739,0,1,1,-2.739,0A2.739,2.739,0,1,1,2.739,0" fill="#f58518" stroke-width="2"/><path aria-label="Max of date: Mar 01, 2010; price for max date: 560.19; symbol: GOOG" role="graphics-symbol" aria-roledescription="circle" transform="translate(400,89.92874999999998)" d="M2.739,0A2.739,2.739,0,1,1,-2.739,0A2.739,2.739,0,1,1,2.739,0" fill="#e45756" stroke-width="2"/><path aria-label="Max of date: Mar 01, 2010; price for max date: 223.02; symbol: AAPL" role="graphics-symbol" aria-roledescription="circle" transform="translate(400,216.3675)" d="M2.739,0A2.739,2.739,0,1,1,-2.739,0A2.739,2.739,0,1,1,2.739,0" fill="#4c78a8" stroke-width="2"/></g><g class="mark-text role-mark layer_1_layer_1_marks" role="graphics-object" aria-roledescription="text mark container"><text aria-label="Max of date: Mar 01, 2010; price for max date: 28.8; symbol: MSFT" role="graphics-symbol" aria-roledescription="text mark" text-anchor="start" transform="translate(404,292.2)" font-family="sans-serif" font-size="11px" fill="#72b7b2">MSFT</text><text aria-label="Max of date: Mar 01, 2010; price for max date: 128.82; symbol: AMZN" role="graphics-symbol" aria-roledescription="text mark" text-anchor="start" transform="translate(404,254.6925)" font-family="sans-serif" font-size="11px" fill="#f58518">AMZN</text><text aria-label="Max of date: Mar 01, 2010; price for max date: 560.19; symbol: GOOG" role="graphics-symbol" aria-roledescription="text mark" text-anchor="start" transform="translate(404,92.92874999999998)" font-family="sans-serif" font-size="11px" fill="#e45756">GOOG</text><text aria-label="Max of date: Mar 01, 2010; price for max date: 223.02; symbol: AAPL" role="graphics-symbol" aria-roledescription="text mark" text-anchor="start" transform="translate(404,219.3675)" font-family="sans-serif" font-size="11px" fill="#4c78a8">AAPL</text></g></g><path class="foreground" aria-hidden="true" d="" display="none"/></g></g></g></svg>