<svg xmlns="http://www.w3.org/2000/svg" xmlns:xlink="http://www.w3.org/1999/xlink" version="1.1" class="marks" width="420" height="347" viewBox="0 0 420 347"><rect width="420" height="347" fill="white"/><g fill="none" stroke-miterlimit="10" transform="translate(47,10)"><g class="mark-group role-frame root" role="graphics-object" aria-roledescription="group mark container"><g transform="translate(0,0)"><path class="background" aria-hidden="true" d="M0.5,0.5h300v300h-300Z" stroke="#ddd"/><g><g class="mark-group role-axis" aria-hidden="true"><g transform="translate(0.5,300.5)"><path class="background" aria-hidden="true" d="M0,0h0v0h0Z" pointer-events="none"/><g><g class="mark-rule role-axis-grid" pointer-events="none"><line transform="translate(0,-300)" x2="0" y2="300" stroke="#ddd" stroke-width="1" opacity="1"/><line transform="translate(30,-300)" x2="0" y2="300" stroke="#ddd" stroke-width="1" opacity="1"/><line transform="translate(59,-300)" x2="0" y2="300" stroke="#ddd" stroke-width="1" opacity="1"/><line transform="translate(89,-300)" x2="0" y2="300" stroke="#ddd" stroke-width="1" opacity="1"/><line transform="translate(118,-300)" x2="0" y2="300" stroke="#ddd" stroke-width="1" opacity="1"/><line transform="translate(148,-300)" x2="0" y2="300" stroke="#ddd" stroke-width="1" opacity="1"/><line transform="translate(177,-300)" x2="0" y2="300" stroke="#ddd" stroke-width="1" opacity="1"/><line transform="translate(207,-300)" x2="0" y2="300" stroke="#ddd" stroke-width="1" opacity="1"/><line transform="translate(236,-300)" x2="0" y2="300" stroke="#ddd" stroke-width="1" opacity="1"/><line transform="translate(266,-300)" x2="0" y2="300" stroke="#ddd" stroke-width="1" opacity="1"/><line transform="translate(295,-300)" x2="0" y2="300" stroke="#ddd" stroke-width="1" opacity="1"/></g></g><path class="foreground" aria-hidden="true" d="" pointer-events="none" display="none"/></g></g><g class="mark-group role-axis" aria-hidden="true"><g transform="translate(0.5,0.5)"><path class="background" aria-hidden="true" d="M0,0h0v0h0Z" pointer-events="none"/><g><g class="mark-rule role-axis-grid" pointer-events="none"><line transform="translate(0,300)" x2="300" y2="0" stroke="#ddd" stroke-width="1" opacity="1"/><line transform="translate(0,263)" x2="300" y2="0" stroke="#ddd" stroke-width="1" opacity="1"/><line transform="translate(0,225)" x2="300" y2="0" stroke="#ddd" stroke-width="1" opacity="1"/><line transform="translate(0,188)" x2="300" y2="0" stroke="#ddd" stroke-width="1" opacity="1"/><line transform="translate(0,150)" x2="300" y2="0" stroke="#ddd" stroke-width="1" opacity="1"/><line transform="translate(0,113)" x2="300" y2="0" stroke="#ddd" stroke-width="1" opacity="1"/><line transform="translate(0,75)" x2="300" y2="0" stroke="#ddd" stroke-width="1" opacity="1"/><line transform="translate(0,38)" x2="300" y2="0" stroke="#ddd" stroke-width="1" opacity="1"/><line transform="translate(0,0)" x2="300" y2="0" stroke="#ddd" stroke-width="1" opacity="1"/></g></g><path class="foreground" aria-hidden="true" d="" pointer-events="none" display="none"/></g></g><g class="mark-group role-axis" role="graphics-symbol" aria-roledescription="axis" aria-label="X-axis titled 'date' for a time scale with values from Saturday, 01 January 2000, 12:00:00 AM to Monday, 01 March 2010, 12:00:00 AM"><g transform="translate(0.5,300.5)"><path class="background" aria-hidden="true" d="M0,0h0v0h0Z" pointer-events="none"/><g><g class="mark-rule role-axis-tick" pointer-events="none"><line transform="translate(0,0)" x2="0" y2="5" stroke="#888" stroke-width="1" opacity="1"/><line transform="translate(30,0)" x2="0" y2="5" stroke="#888" stroke-width="1" opacity="1"/><line transform="translate(59,0)" x2="0" y2="5" stroke="#888" stroke-width="1" opacity="1"/><line transform="translate(89,0)" x2="0" y2="5" stroke="#888" stroke-width="1" opacity="1"/><line transform="translate(118,0)" x2="0" y2="5" stroke="#888" stroke-width="1" opacity="1"/><line transform="translate(148,0)" x2="0" y2="5" stroke="#888" stroke-width="1" opacity="1"/><line transform="translate(177,0)" x2="0" y2="5" stroke="#888" stroke-width="1" opacity="1"/><line transform="translate(207,0)" x2="0" y2="5" stroke="#888" stroke-width="1" opacity="1"/><line transform="translate(236,0)" x2="0" y2="5" stroke="#888" stroke-width="1" opacity="1"/><line transform="translate(266,0)" x2="0" y2="5" stroke="#888" stroke-width="1" opacity="1"/><line transform="translate(295,0)" x2="0" y2="5" stroke="#888" stroke-width="1" opacity="1"/></g><g class="mark-text role-axis-label" pointer-events="none"><text text-anchor="start" transform="translate(0,15)" font-family="sans-serif" font-size="10px" fill="#000" opacity="1">2000</text><text text-anchor="middle" transform="translate(29.579741379310345,15)" font-family="sans-serif" font-size="10px" fill="#000" opacity="0">2001</text><text text-anchor="middle" transform="translate(59.07866379310345,15)" font-family="sans-serif" font-size="10px" fill="#000" opacity="1">2002</text><text text-anchor="middle" transform="translate(88.57758620689656,15)" font-family="sans-serif" font-size="10px" fill="#000" opacity="0">2003</text><text text-anchor="middle" transform="translate(118.07650862068965,15)" font-family="sans-serif" font-size="10px" fill="#000" opacity="1">2004</text><text text-anchor="middle" transform="translate(147.65625,15)" font-family="sans-serif" font-size="10px" fill="#000" opacity="0">2005</text><text text-anchor="middle" transform="translate(177.1551724137931,15)" font-family="sans-serif" font-size="10px" fill="#000" opacity="1">2006</text><text text-anchor="middle" transform="translate(206.6540948275862,15)" font-family="sans-serif" font-size="10px" fill="#000" opacity="0">2007</text><text text-anchor="middle" transform="translate(236.1530172413793,15)" font-family="sans-serif" font-size="10px" fill="#000" opacity="1">2008</text><text text-anchor="middle" transform="translate(265.73275862068965,15)" font-family="sans-serif" font-size="10px" fill="#000" opacity="0">2009</text><text text-anchor="middle" transform="translate(295.2316810344828,15)" font-family="sans-serif" font-size="10px" fill="#000" opacity="1">2010</text></g><g class="mark-rule role-axis-domain" pointer-events="none"><line transform="translate(0,0)" x2="300" y2="0" stroke="#888" stroke-width="1" opacity="1"/></g><g class="mark-text role-axis-title" pointer-events="none"><text text-anchor="middle" transform="translate(150,30)" font-family="sans-serif" font-size="11px" font-weight="bold" fill="#000" opacity="1">date</text></g></g><path class="foreground" aria-hidden="true" d="" pointer-events="none" display="none"/></g></g><g class="mark-group role-axis" role="graphics-symbol" aria-roledescription="axis" aria-label="Y-axis titled 'price' for a linear scale with values from 0 to 800"><g transform="translate(0.5,0.5)"><path class="background" aria-hidden="true" d="M0,0h0v0h0Z" pointer-events="none"/><g><g class="mark-rule role-axis-tick" pointer-events="none"><line transform="translate(0,300)" x2="-5" y2="0" stroke="#888" stroke-width="1" opacity="1"/><line transform="translate(0,263)" x2="-5" y2="0" stroke="#888" stroke-width="1" opacity="1"/><line transform="translate(0,225)" x2="-5" y2="0" stroke="#888" stroke-width="1" opacity="1"/><line transform="translate(0,188)" x2="-5" y2="0" stroke="#888" stroke-width="1" opacity="1"/><line transform="translate(0,150)" x2="-5" y2="0" stroke="#888" stroke-width="1" opacity="1"/><line transform="translate(0,113)" x2="-5" y2="0" stroke="#888" stroke-width="1" opacity="1"/><line transform="translate(0,75)" x2="-5" y2="0" stroke="#888" stroke-width="1" opacity="1"/><line transform="translate(0,38)" x2="-5" y2="0" stroke="#888" stroke-width="1" opacity="1"/><line transform="translate(0,0)" x2="-5" y2="0" stroke="#888" stroke-width="1" opacity="1"/></g><g class="mark-text role-axis-label" pointer-events="none"><text text-anchor="end" transform="translate(-7,303)" font-family="sans-serif" font-size="10px" fill="#000" opacity="1">0</text><text text-anchor="end" transform="translate(-7,265.5)" font-family="sans-serif" font-size="10px" fill="#000" opacity="1">100</text><text text-anchor="end" transform="translate(-7,228)" font-family="sans-serif" font-size="10px" fill="#000" opacity="1">200</text><text text-anchor="end" transform="translate(-7,190.5)" font-family="sans-serif" font-size="10px" fill="#000" opacity="1">300</text><text text-anchor="end" transform="translate(-7,153)" font-family="sans-serif" font-size="10px" fill="#000" opacity="1">400</text><text text-anchor="end" transform="translate(-7,115.5)" font-family="sans-serif" font-size="10px" fill="#000" opacity="1">500</text><text text-anchor="end" transform="translate(-7,78)" font-family="sans-serif" font-size="10px" fill="#000" opacity="1">600</text><text text-anchor="end" transform="translate(-7,40.5)" font-family="sans-serif" font-size="10px" fill="#000" opacity="1">700</text><text text-anchor="end" transform="translate(-7,3)" font-family="sans-serif" font-size="10px" fill="#000" opacity="1">800</text></g><g class="mark-rule role-axis-domain" pointer-events="none"><line transform="translate(0,300)" x2="0" y2="-300" stroke="#888" stroke-width="1" opacity="1"/></g><g class="mark-text role-axis-title" pointer-events="none"><text text-anchor="middle" transform="translate(-30.0869140625,150) rotate(-90) translate(0,-2)" font-family="sans-serif" font-size="11px" font-weight="bold" fill="#000" opacity="1">price</text></g></g><path class="foreground" aria-hidden="true" d="" pointer-events="none" display="none"/></g></g><g class="mark-group role-scope pathgroup" role="graphics-object" aria-roledescription="group mark container"><g transform="translate(0,0)"><path class="background" aria-hidden="true" d="M0,0h300v300h-300Z"/><g><g class="mark-line role-mark marks" role="graphics-object" aria-roledescription="line mark container"><path aria-label="date: Jan 01, 2000; price: 39.81; symbol: MSFT" role="graphics-symbol" aria-roledescription="line mark" d="M0,285.071L2.505,286.369L4.849,283.793L7.355,289.361L9.776,290.456L12.281,287.798L14.706,289.35L17.211,289.35L19.716,290.801L22.141,289.493L24.65,291.248L27.074,293.381L29.58,290.685L32.085,291L34.348,291.656L36.853,289.665L39.275,289.448L41.78,288.863L44.205,289.901L46.71,291.296L49.215,292.193L51.64,291.131L54.149,290.205L56.573,289.894L59.079,290.28L61.584,291.101L63.847,290.801L66.352,292.028L68.774,292.234L71.279,291.656L73.704,292.68L76.209,292.511L78.714,293.329L81.139,291.844L83.648,291.203L86.072,292.114L88.578,292.759L91.083,292.748L93.346,292.59L95.851,292.174L98.272,292.466L100.778,292.151L103.202,291.915L105.708,291.881L108.213,291.491L110.638,291.956L113.147,292.088L115.571,291.578L118.077,291.491L120.582,291.836L122.926,292.328L125.431,291.956L127.852,291.926L130.358,291.21L132.782,291.233L135.288,291.574L137.793,291.465L140.218,291.368L142.726,290.775L145.151,290.805L147.656,290.959L150.162,291.319L152.425,291.66L154.93,291.27L157.351,291.068L159.857,291.401L162.281,291.135L164.787,290.494L167.292,291.064L169.716,291.075L172.225,290.359L174.65,290.891L177.155,290.198L179.661,290.61L181.923,290.49L184.429,291.563L186.85,292.054L189.355,291.825L191.78,291.559L194.285,290.951L196.791,290.37L199.215,289.89L201.724,289.628L204.149,289.451L206.654,289.099L209.159,290.014L211.422,290.119L213.924,289.388L216.349,289.084L218.854,289.519L221.279,289.688L223.784,289.748L226.29,289.485L228.714,286.864L231.22,287.966L233.648,287.25L236.153,288.326L238.658,290.224L241.002,289.796L243.504,289.748L245.929,289.781L248.434,290.074L250.859,290.719L253.364,290.115L255.869,290.333L258.294,291.911L260.799,292.628L263.227,292.909L265.733,293.764L268.238,294.071L270.501,293.254L273.003,292.56L275.428,292.279L277.933,291.218L280.358,291.308L282.863,290.839L285.368,290.441L287.793,289.695L290.298,289.024L292.726,288.623L295.232,289.481L297.737,289.249L300,289.2" stroke="#54a24b" stroke-width="2"/></g></g><path class="foreground" aria-hidden="true" d="" display="none"/></g><g transform="translate(0,0)"><path class="background" aria-hidden="true" d="M0,0h300v300h-300Z"/><g><g class="mark-line role-mark marks" role="graphics-object" aria-roledescription="line mark container"><path aria-label="date: Jan 01, 2000; price: 64.56; symbol: AMZN" role="graphics-symbol" aria-roledescription="line mark" d="M0,275.79L2.505,274.174L4.849,274.875L7.355,279.304L9.776,281.884L12.281,286.384L14.706,288.705L17.211,284.438L19.716,285.585L22.141,286.268L24.65,290.741L27.074,294.165L29.58,293.509L32.085,296.179L34.348,296.164L36.853,294.083L39.275,293.741L41.78,294.694L44.205,295.316L46.71,296.648L49.215,297.761L51.64,297.383L54.149,295.755L56.573,295.943L59.079,294.679L61.584,294.713L63.847,294.638L66.352,293.741L68.774,293.164L71.279,293.906L73.704,294.581L76.209,294.398L78.714,294.026L81.139,292.74L83.648,291.244L86.072,292.916L88.578,291.806L91.083,291.746L93.346,290.239L95.851,289.241L98.272,286.541L100.778,286.38L103.202,284.385L105.708,282.63L108.213,281.839L110.638,279.589L113.147,279.761L115.571,280.268L118.077,281.1L120.582,283.871L122.926,283.77L125.431,283.65L127.852,281.813L130.358,279.6L132.782,285.405L135.288,285.698L137.793,284.678L140.218,287.201L142.726,285.12L145.151,283.391L147.656,283.793L150.162,286.808L152.425,287.149L154.93,287.865L157.351,286.684L159.857,287.591L162.281,283.069L164.787,283.988L167.292,283.013L169.716,285.053L172.225,281.828L174.65,282.319L177.155,283.193L179.661,285.96L181.923,286.301L184.429,286.796L186.85,287.021L189.355,285.495L191.78,289.916L194.285,288.439L196.791,287.955L199.215,285.716L201.724,284.873L204.149,285.203L206.654,285.874L209.159,285.323L211.422,285.079L213.924,277.001L216.349,274.073L218.854,274.346L221.279,270.548L223.784,270.034L226.29,265.069L228.714,266.569L231.22,266.04L233.648,265.26L236.153,270.863L238.658,275.824L241.002,273.263L243.504,270.514L245.929,269.393L248.434,272.501L250.859,271.373L253.364,269.696L255.869,272.715L258.294,278.535L260.799,283.988L263.227,280.77L265.733,277.943L268.238,275.704L270.501,272.46L273.003,269.805L275.428,270.754L277.933,268.628L280.358,267.84L282.863,269.554L285.368,264.99L287.793,255.446L290.298,249.034L292.726,249.555L295.232,252.971L297.737,255.6L300,251.693" stroke="#f58518" stroke-width="2"/></g></g><path class="foreground" aria-hidden="true" d="" display="none"/></g><g transform="translate(0,0)"><path class="background" aria-hidden="true" d="M0,0h300v300h-300Z"/><g><g class="mark-line role-mark marks" role="graphics-object" aria-roledescription="line mark container"><path aria-label="date: Jan 01, 2000; price: 100.52; symbol: IBM" role="graphics-symbol" aria-roledescription="line mark" d="M0,262.305L2.505,265.459L4.849,260.209L7.355,262.519L9.776,263.884L12.281,263.126L14.706,262.223L17.211,255.517L19.716,262.054L22.141,266.813L24.65,268.455L27.074,271.324L29.58,262.215L32.085,266.258L34.348,267.514L36.853,261.113L39.275,262.193L41.78,261.619L44.205,264.424L46.71,266.156L49.215,268.943L51.64,263.408L54.149,260.813L56.573,258.99L59.079,263.422L61.584,266.693L63.847,264.694L66.352,271.568L68.774,272.636L71.279,275.509L73.704,276.053L76.209,274.305L78.714,280.121L81.139,273.09L83.648,270.315L86.072,273.533L88.578,273.293L91.083,273.326L93.346,273.161L95.851,270.949L98.272,269.82L100.778,271.718L103.202,272.145L105.708,271.83L108.213,269.659L110.638,269.265L113.147,268.845L115.571,268.106L118.077,265.852L120.582,266.737L122.926,268.346L125.431,269.61L127.852,269.404L130.358,269.554L132.782,269.929L135.288,270.686L137.793,270.326L140.218,268.935L142.726,267.319L145.151,265.815L147.656,267.604L150.162,267.833L152.425,268.253L154.93,273.461L157.351,273.683L159.857,274.151L162.281,270.926L164.787,271.849L167.292,271.988L169.716,271.406L172.225,268.883L174.65,271.226L177.155,271.541L179.661,271.841L181.923,271.061L184.429,271.106L186.85,271.86L189.355,272.944L191.78,272.738L194.285,271.369L196.791,271.028L199.215,267.353L201.724,267.394L204.149,265.537L206.654,264.829L209.159,266.933L211.422,266.46L213.924,263.633L216.349,261.923L218.854,262.406L221.279,260.475L223.784,258.173L226.29,257.775L228.714,258.375L231.22,262.162L233.648,261.113L236.153,261.469L238.658,258.885L241.002,258.424L243.504,256.414L245.929,253.073L248.434,257.025L250.859,253.598L253.364,255.69L255.869,257.426L258.294,266.16L260.799,270.131L263.227,269.194L265.733,266.453L268.238,266.13L270.501,264.341L273.003,262.016L275.428,260.681L277.933,261.371L280.358,256.373L282.863,256.125L285.368,255.544L287.793,255.172L290.298,252.829L292.726,251.13L295.232,254.306L297.737,252.315L300,252.919" stroke="#72b7b2" stroke-width="2"/></g></g><path class="foreground" aria-hidden="true" d="" display="none"/></g><g transform="translate(0,0)"><path class="background" aria-hidden="true" d="M0,0h300v300h-300Z"/><g><g class="mark-line role-mark marks" role="graphics-object" aria-roledescription="line mark container"><path aria-label="date: Aug 01, 2004; price: 102.37; symbol: GOOG" role="graphics-symbol" aria-roledescription="line mark" d="M135.288,261.611L137.793,251.4L140.218,228.51L142.726,231.758L145.151,227.704L147.656,226.643L150.162,229.504L152.425,232.309L154.93,217.5L157.351,196.024L159.857,189.694L162.281,192.09L164.787,192.75L167.292,181.328L169.716,160.448L172.225,148.159L174.65,144.428L177.155,137.753L179.661,164.018L181.923,153.75L184.429,143.272L186.85,160.568L189.355,142.751L191.78,155.025L194.285,158.051L196.791,149.288L199.215,121.354L201.724,118.196L204.149,127.32L206.654,111.938L209.159,131.456L211.422,128.19L213.924,123.233L216.349,113.284L218.854,103.987L221.279,108.75L223.784,106.781L226.29,87.274L228.714,34.875L231.22,40.125L233.648,40.695L236.153,88.388L238.658,123.307L241.002,134.824L243.504,84.641L245.929,80.325L248.434,102.593L250.859,122.344L253.364,126.266L255.869,149.805L258.294,165.24L260.799,190.14L263.227,184.631L265.733,173.051L268.238,173.254L270.501,169.478L273.003,151.511L275.428,143.539L277.933,141.904L280.358,133.856L282.863,126.874L285.368,114.056L287.793,98.955L290.298,81.375L292.726,67.508L295.232,101.273L297.737,102.45L300,89.929" stroke="#e45756" stroke-width="2"/></g></g><path class="foreground" aria-hidden="true" d="" display="none"/></g><g transform="translate(0,0)"><path class="background" aria-hidden="true" d="M0,0h300v300h-300Z"/><g><g class="mark-line role-mark marks" role="graphics-object" aria-roledescription="line mark container"><path aria-label="date: Jan 01, 2000; price: 25.94; symbol: AAPL" role="graphics-symbol" aria-roledescription="line mark" d="M0,290.273L2.505,289.253L4.849,287.269L7.355,288.371L9.776,292.125L12.281,290.179L14.706,290.471L17.211,288.574L19.716,295.17L22.141,296.333L24.65,296.906L27.074,297.21L29.58,295.946L32.085,296.58L34.348,295.864L36.853,295.223L39.275,296.258L41.78,295.643L44.205,296.475L46.71,296.524L49.215,297.09L51.64,296.708L54.149,296.006L56.573,295.894L59.079,295.365L61.584,295.931L63.847,295.56L66.352,295.448L68.774,295.631L71.279,296.678L73.704,297.139L76.209,297.233L78.714,297.281L81.139,296.989L83.648,297.094L86.072,297.315L88.578,297.308L91.083,297.184L93.346,297.349L95.851,297.334L98.272,296.633L100.778,296.426L103.202,296.048L105.708,295.759L108.213,296.115L110.638,295.71L113.147,296.081L115.571,295.991L118.077,295.77L120.582,295.515L122.926,294.93L125.431,295.166L127.852,294.739L130.358,293.899L132.782,293.936L135.288,293.531L137.793,292.732L140.218,290.175L142.726,287.426L145.151,287.925L147.656,285.581L150.162,283.178L152.425,284.374L154.93,286.478L157.351,285.09L159.857,286.196L162.281,284.006L164.787,282.416L167.292,279.896L169.716,278.404L172.225,274.568L174.65,273.041L177.155,271.684L179.661,274.316L181.923,276.48L184.429,273.604L186.85,277.586L189.355,278.524L191.78,274.515L194.285,274.556L196.791,271.133L199.215,269.595L201.724,265.628L204.149,268.185L206.654,267.851L209.159,268.271L211.422,265.159L213.924,262.575L216.349,254.554L218.854,254.235L221.279,250.59L223.784,248.07L226.29,242.449L228.714,228.769L231.22,231.668L233.648,225.72L236.153,249.24L238.658,253.118L241.002,246.187L243.504,234.769L245.929,229.219L248.434,237.21L250.859,240.394L253.364,236.426L255.869,257.378L258.294,259.654L260.799,265.249L263.227,267.994L265.733,266.201L268.238,266.509L270.501,260.58L273.003,252.814L275.428,249.071L277.933,246.589L280.358,238.729L282.863,236.921L285.368,230.494L287.793,229.313L290.298,225.034L292.726,220.976L295.232,227.978L297.737,223.267L300,216.368" stroke="#4c78a8" stroke-width="2"/></g></g><path class="foreground" aria-hidden="true" d="" display="none"/></g></g><g class="mark-group role-legend" role="graphics-symbol" aria-roledescription="legend" aria-label="Symbol legend titled 'symbol' for stroke color with 5 values: AAPL, AMZN, GOOG, IBM, MSFT"><g transform="translate(320,0)"><path class="background" aria-hidden="true" d="M0,0h48v79h-48Z" pointer-events="none"/><g><g class="mark-group role-legend-entry"><g transform="translate(0,16)"><path class="background" aria-hidden="true" d="M0,0h0v0h0Z" pointer-events="none"/><g><g class="mark-group role-scope" role="graphics-object" aria-roledescription="group mark container"><g transform="translate(0,0)"><path class="background" aria-hidden="true" d="M0,0h47.240234375v11h-47.240234375Z" pointer-events="none" opacity="1"/><g><g class="mark-symbol role-legend-symbol" pointer-events="none"><path transform="translate(6,6)" d="M-5,0L5,0" stroke="#4c78a8" stroke-width="1.5" opacity="1"/></g><g class="mark-text role-legend-label" pointer-events="none"><text text-anchor="start" transform="translate(16,9)" font-family="sans-serif" font-size="10px" fill="#000" opacity="1">AAPL</text></g></g><path class="foreground" aria-hidden="true" d="" pointer-events="none" display="none"/></g><g transform="translate(0,13)"><path class="background" aria-hidden="true" d="M0,0h47.240234375v11h-47.240234375Z" pointer-events="none" opacity="1"/><g><g class="mark-symbol role-legend-symbol" pointer-events="none"><path transform="translate(6,6)" d="M-5,0L5,0" stroke="#f58518" stroke-width="1.5" opacity="1"/></g><g class="mark-text role-legend-label" pointer-events="none"><text text-anchor="start" transform="translate(16,9)" font-family="sans-serif" font-size="10px" fill="#000" opacity="1">AMZN</text></g></g><path class="foreground" aria-hidden="true" d="" pointer-events="none" display="none"/></g><g transform="translate(0,26)"><path class="background" aria-hidden="true" d="M0,0h47.240234375v11h-47.240234375Z" pointer-events="none" opacity="1"/><g><g class="mark-symbol role-legend-symbol" pointer-events="none"><path transform="translate(6,6)" d="M-5,0L5,0" stroke="#e45756" stroke-width="1.5" opacity="1"/></g><g class="mark-text role-legend-label" pointer-events="none"><text text-anchor="start" transform="translate(16,9)" font-family="sans-serif" font-size="10px" fill="#000" opacity="1">GOOG</text></g></g><path class="foreground" aria-hidden="true" d="" pointer-events="none" display="none"/></g><g transform="translate(0,39)"><path class="background" aria-hidden="true" d="M0,0h47.240234375v11h-47.240234375Z" pointer-events="none" opacity="1"/><g><g class="mark-symbol role-legend-symbol" pointer-events="none"><path transform="translate(6,6)" d="M-5,0L5,0" stroke="#72b7b2" stroke-width="1.5" opacity="1"/></g><g class="mark-text role-legend-label" pointer-events="none"><text text-anchor="start" transform="translate(16,9)" font-family="sans-serif" font-size="10px" fill="#000" opacity="1">IBM</text></g></g><path class="foreground" aria-hidden="true" d="" pointer-events="none" display="none"/></g><g transform="translate(0,52)"><path class="background" aria-hidden="true" d="M0,0h47.240234375v11h-47.240234375Z" pointer-events="none" opacity="1"/><g><g class="mark-symbol role-legend-symbol" pointer-events="none"><path transform="translate(6,6)" d="M-5,0L5,0" stroke="#54a24b" stroke-width="1.5" opacity="1"/></g><g class="mark-text role-legend-label" pointer-events="none"><text text-anchor="start" transform="translate(16,9)" font-family="sans-serif" font-size="10px" fill="#000" opacity="1">MSFT</text></g></g><path class="foreground" aria-hidden="true" d="" pointer-events="none" display="none"/></g></g></g><path class="foreground" aria-hidden="true" d="" pointer-events="none" display="none"/></g></g><g class="mark-text role-legend-title" pointer-events="none"><text text-anchor="start" transform="translate(0,9)" font-family="sans-serif" font-size="11px" font-weight="bold" fill="#000" opacity="1">symbol</text></g></g><path class="foreground" aria-hidden="true" d="" pointer-events="none" display="none"/></g></g></g><path class="foreground" aria-hidden="true" d="" display="none"/></g></g></g></svg>