<svg class="marks" width="266" height="251" viewBox="0 0 266 251" version="1.1" xmlns="http://www.w3.org/2000/svg" xmlns:xlink="http://www.w3.org/1999/xlink"><g transform="translate(54,11)"><g class="mark-group role-frame root"><g transform="translate(0,0)"><path class="background" d="M0.5,0.5h200v200h-200Z" style="fill: none; stroke: #ddd;"></path><g><g class="mark-group role-axis"><g transform="translate(0.5,200.5)"><path class="background" d="M0,0h0v0h0Z" style="pointer-events: none; fill: none;"></path><g><g class="mark-rule role-axis-grid" style="pointer-events: none;"><line transform="translate(19,-200)" x2="0" y2="200" style="fill: none; stroke: #ddd; stroke-width: 1; opacity: 1;"></line><line transform="translate(53,-200)" x2="0" y2="200" style="fill: none; stroke: #ddd; stroke-width: 1; opacity: 1;"></line><line transform="translate(87,-200)" x2="0" y2="200" style="fill: none; stroke: #ddd; stroke-width: 1; opacity: 1;"></line><line transform="translate(121,-200)" x2="0" y2="200" style="fill: none; stroke: #ddd; stroke-width: 1; opacity: 1;"></line><line transform="translate(155,-200)" x2="0" y2="200" style="fill: none; stroke: #ddd; stroke-width: 1; opacity: 1;"></line><line transform="translate(189,-200)" x2="0" y2="200" style="fill: none; stroke: #ddd; stroke-width: 1; opacity: 1;"></line></g></g></g></g><g class="mark-group role-axis"><g transform="translate(0.5,0.5)"><path class="background" d="M0,0h0v0h0Z" style="pointer-events: none; fill: none;"></path><g><g class="mark-rule role-axis-grid" style="pointer-events: none;"><line transform="translate(0,200)" x2="200" y2="0" style="fill: none; stroke: #ddd; stroke-width: 1; opacity: 1;"></line><line transform="translate(0,150)" x2="200" y2="0" style="fill: none; stroke: #ddd; stroke-width: 1; opacity: 1;"></line><line transform="translate(0,100)" x2="200" y2="0" style="fill: none; stroke: #ddd; stroke-width: 1; opacity: 1;"></line><line transform="translate(0,50)" x2="200" y2="0" style="fill: none; stroke: #ddd; stroke-width: 1; opacity: 1;"></line><line transform="translate(0,0)" x2="200" y2="0" style="fill: none; stroke: #ddd; stroke-width: 1; opacity: 1;"></line></g></g></g></g><g class="mark-line role-mark marks"><path d="M195.00000000094414,59.952499999999986C194.12988367194814,64.12625,193.25976734295213,68.30000000000001,192.38965101395613,68.30000000000001C191.42630793542483,68.30000000000001,190.46296485689356,68.03833333333334,189.49962177836227,67.51499999999999C188.536278699831,66.99166666666665,187.5729356212997,45.004999999999995,186.60959254276844,45.004999999999995C185.6760302314498,45.004999999999995,184.7424679201312,50.821746718534,183.80890560881255,54.25C182.84556253028126,57.78761503663064,181.88221945175,62.28641757741346,180.9188763732187,65.97C179.98660887786585,69.53475718314823,179.054341382513,72.97644456196018,178.12207388716016,76.03750000000001C177.15873080862886,79.20059061930786,176.1953877300976,82.38250000000001,175.2320446515663,84.58250000000001C174.268701573035,86.78250000000001,173.30535849450374,87.53526593806922,172.34201541597244,89.2375C171.4097479206196,90.88482328573946,170.47748042526672,93.89927419354841,169.54521292991387,94.6025C168.58186985138258,95.32916666666667,167.6185267728513,94.96583333333334,166.65518369432002,95.6925C165.72291619896717,96.3957258064516,164.7906487036143,98.2036972608629,163.85838120826145,101.0075C162.89633294569595,103.90086865997063,161.93428468313041,111.12934275793653,160.9722364205649,112.985C160.1021200915689,114.66333333333333,159.2320037625729,115.5025,158.3618874335769,115.5025C157.39854435504563,115.5025,156.43520127651433,115.3675,155.47185819798307,115.3675C154.50851511945177,115.3675,153.5451720409205,121.17950864050846,152.5818289623892,123.0875C151.64826665107057,124.9365077556363,150.71470433975196,126.76,149.78114202843332,126.76C148.81779894990206,126.76,147.85445587137076,114.68253005464479,146.8911127928395,110.16C145.95884529748665,105.78335801163404,145.02657780213377,104.10267054468537,144.09431030678093,99.87000000000002C143.13096722824963,95.49624043715849,142.16762414971836,85.92083333333335,141.20428107118707,84.1775C140.2409379926558,82.43416666666667,139.2775949141245,83.30583333333333,138.31425183559324,81.5625C137.38198434024036,79.87540322580642,136.44971684488752,72.98066322933195,135.51744934953464,68.39500000000001C134.55410627100335,63.65648132969038,133.59076319247208,53.55000000000001,132.6274201139408,53.55000000000001C131.69515261858794,53.55000000000001,130.7628851232351,54.50916666666668,129.83061762788225,56.42750000000001C128.86856936531672,58.407113425925964,127.9065211027512,89.8825,126.94447284018568,89.8825C126.04328092801126,89.8825,125.14208901583682,87.03592428315415,124.24089710366239,82.205C123.27755402513111,77.04090852490421,122.31421094659983,68.10416666666664,121.35086786806855,58.92500000000001C120.38752478953727,49.74583333333333,119.42418171100597,27.391414701803043,118.46083863247469,27.129999999999995C117.52727632115607,26.876666666666665,116.59371400983744,27.00333333333333,115.66015169851882,26.75C114.69680861998754,26.488585298196952,113.73346554145625,23.25,112.77012246292497,23.25C111.83785496757211,23.25,110.90558747221927,50.201778600387804,109.9733199768664,58.182500000000005C109.00997689833513,66.42924544626592,108.04663381980384,70.31249999999999,107.08329074127256,71.1875C106.11994766274128,72.06250000000001,105.15660458421,72.50000000000001,104.19326150567872,72.50000000000001C103.26099401032586,72.50000000000001,102.328726514973,69.32499999999999,101.39645901962014,69.32499999999999C100.43311594108886,69.32499999999999,99.46977286255756,73.34552686703097,98.50642978402628,75.52250000000001C97.57416228867342,77.62924819319585,96.64189479332057,80.506814630023,95.70962729796771,82.155C94.7475790354022,83.85583573596237,93.7855307728367,84.51541119191346,92.82348251027118,85.46000000000001C91.95336618127517,86.31432527460858,91.08324985227918,87.63750000000002,90.21313352328318,87.63750000000002C89.2497904447519,87.63750000000002,88.2864473662206,74.62500000000001,87.32310428768932,74.62500000000001C86.35976120915804,74.62500000000001,85.39641813062676,84.88,84.43307505209548,84.88C83.50080755674261,84.88,82.56854006138977,78.79750000000001,81.63627256603691,78.79750000000001C80.67163467153985,78.79750000000001,79.7069967770428,79.49916666666668,78.74235888254574,80.9025C77.81009138719288,82.25874161073826,76.87782389184004,95.75564516129029,75.94555639648718,99.52499999999999C74.9822133179559,103.42,74.01887023942461,105.3675,73.05552716089333,105.3675C72.09218408236205,105.3675,71.12884100383076,104.69500000000001,70.16549792529948,103.35C69.23323042994662,102.04838709677418,68.30096293459377,95.1675,67.36869543924091,95.1675C66.40535236070963,95.1675,65.44200928217835,107.045,64.47866620364707,107.045C63.54769352425998,107.045,62.61672084487289,95.515,61.6857481654858,95.515C60.72240508695452,95.515,59.75906200842323,100.06773910411623,58.79571892989195,102.5C57.92560260089595,104.69688080918534,57.05548627189995,109.345,56.185369942903954,109.345C55.22202686437267,109.345,54.258683785841384,91.835,53.2953407073101,91.835C52.331997628778815,91.835,51.36865455024753,95.1200660291439,50.40531147171624,96.285C49.473043976363385,97.41235545566718,48.54077648101053,97.11416666666666,47.60850898565768,98.7725C46.64387109116063,100.48841435185184,45.679233196663574,103.18136329161926,44.71459530216652,106.965C43.78232780681367,110.62166903360287,42.85006031146081,117.31887625594923,41.917792816107955,120.885C40.954449737576674,124.56999453551913,39.991106659045386,128.5,39.027763580514105,128.5C38.06442050198282,128.5,37.101077423451535,128.35333333333332,36.137734344920254,128.06C35.205466849567394,127.77612903225807,34.27319935421454,126.4625,33.34093185886168,126.4625C32.3775887803304,126.4625,31.414245701799114,127.86916666666667,30.450902623267833,130.6825C29.519929943880747,133.40129928315412,28.588957264493658,141.01001858492148,27.657984585106572,145C26.694641506575287,149.12871512213965,25.731298428044003,154.8725,24.767955349512718,154.8725C23.89783902051672,154.8725,23.027722691520722,153.60256378713322,22.157606362524724,153.0025C21.19426328399344,152.33814366424537,20.230920205462155,151.095,19.26757712693087,151.095C18.304234048399586,151.095,17.340890969868305,151.33083333333335,16.37754789133702,151.8025C15.445280395984165,152.25895161290325,14.513012900631308,154.505,13.580745405278453,154.505C12.6161075107814,154.505,11.651469616284349,152.34,10.686831721787296,152.34C9.754564226434441,152.34,8.822296731081584,163.93498854221752,7.890029235728729,167.6C6.9266861571974445,171.38717850637522,5.963343078666161,172.89733925318762,5.000000000134876,174.4075" style="fill: none; stroke: #4c78a8; stroke-width: 2;"></path></g><g class="mark-group role-axis"><g transform="translate(0.5,200.5)"><path class="background" d="M0,0h0v0h0Z" style="pointer-events: none; fill: none;"></path><g><g class="mark-rule role-axis-tick" style="pointer-events: none;"><line transform="translate(19,0)" x2="0" y2="5" style="fill: none; stroke: #888; stroke-width: 1; opacity: 1;"></line><line transform="translate(53,0)" x2="0" y2="5" style="fill: none; stroke: #888; stroke-width: 1; opacity: 1;"></line><line transform="translate(87,0)" x2="0" y2="5" style="fill: none; stroke: #888; stroke-width: 1; opacity: 1;"></line><line transform="translate(121,0)" x2="0" y2="5" style="fill: none; stroke: #888; stroke-width: 1; opacity: 1;"></line><line transform="translate(155,0)" x2="0" y2="5" style="fill: none; stroke: #888; stroke-width: 1; opacity: 1;"></line><line transform="translate(189,0)" x2="0" y2="5" style="fill: none; stroke: #888; stroke-width: 1; opacity: 1;"></line></g><g class="mark-text role-axis-label" style="pointer-events: none;"><text text-anchor="middle" transform="translate(19.26757712693087,15)" style="font-family: sans-serif; font-size: 10px; fill: #000; opacity: 1;">2005</text><text text-anchor="middle" transform="translate(53.2953407073101,15)" style="font-family: sans-serif; font-size: 10px; fill: #000; opacity: 1;">2006</text><text text-anchor="middle" transform="translate(87.32310428768932,15)" style="font-family: sans-serif; font-size: 10px; fill: #000; opacity: 1;">2007</text><text text-anchor="middle" transform="translate(121.35086786806855,15)" style="font-family: sans-serif; font-size: 10px; fill: #000; opacity: 1;">2008</text><text text-anchor="middle" transform="translate(155.47185819798307,15)" style="font-family: sans-serif; font-size: 10px; fill: #000; opacity: 1;">2009</text><text text-anchor="middle" transform="translate(189.49962177836227,15)" style="font-family: sans-serif; font-size: 10px; fill: #000; opacity: 1;">2010</text></g><g class="mark-rule role-axis-domain" style="pointer-events: none;"><line transform="translate(0,0)" x2="200" y2="0" style="fill: none; stroke: #888; stroke-width: 1; opacity: 1;"></line></g><g class="mark-text role-axis-title" style="pointer-events: none;"><text text-anchor="middle" transform="translate(100,31)" style="font-family: sans-serif; font-size: 11px; font-weight: bold; fill: #000; opacity: 1;">date</text></g></g></g></g><g class="mark-group role-axis"><g transform="translate(0.5,0.5)"><path class="background" d="M0,0h0v0h0Z" style="pointer-events: none; fill: none;"></path><g><g class="mark-rule role-axis-tick" style="pointer-events: none;"><line transform="translate(0,200)" x2="-5" y2="0" style="fill: none; stroke: #888; stroke-width: 1; opacity: 1;"></line><line transform="translate(0,150)" x2="-5" y2="0" style="fill: none; stroke: #888; stroke-width: 1; opacity: 1;"></line><line transform="translate(0,100)" x2="-5" y2="0" style="fill: none; stroke: #888; stroke-width: 1; opacity: 1;"></line><line transform="translate(0,50)" x2="-5" y2="0" style="fill: none; stroke: #888; stroke-width: 1; opacity: 1;"></line><line transform="translate(0,0)" x2="-5" y2="0" style="fill: none; stroke: #888; stroke-width: 1; opacity: 1;"></line></g><g class="mark-text role-axis-label" style="pointer-events: none;"><text text-anchor="end" transform="translate(-7,203)" style="font-family: sans-serif; font-size: 10px; fill: #000; opacity: 1;">0</text><text text-anchor="end" transform="translate(-7,153)" style="font-family: sans-serif; font-size: 10px; fill: #000; opacity: 1;">200</text><text text-anchor="end" transform="translate(-7,103)" style="font-family: sans-serif; font-size: 10px; fill: #000; opacity: 1;">400</text><text text-anchor="end" transform="translate(-7,53)" style="font-family: sans-serif; font-size: 10px; fill: #000; opacity: 1;">600</text><text text-anchor="end" transform="translate(-7,3)" style="font-family: sans-serif; font-size: 10px; fill: #000; opacity: 1;">800</text></g><g class="mark-rule role-axis-domain" style="pointer-events: none;"><line transform="translate(0,200)" x2="0" y2="-200" style="fill: none; stroke: #888; stroke-width: 1; opacity: 1;"></line></g><g class="mark-text role-axis-title" style="pointer-events: none;"><text text-anchor="middle" transform="translate(-36,100) rotate(-90) translate(0,-2)" style="font-family: sans-serif; font-size: 11px; font-weight: bold; fill: #000; opacity: 1;">price</text></g></g></g></g></g></g></g></g></svg>