<svg xmlns="http://www.w3.org/2000/svg" xmlns:xlink="http://www.w3.org/1999/xlink" version="1.1" class="marks" width="561" height="347" viewBox="0 0 561 347"><rect width="561" height="347" fill="white"/><g fill="none" stroke-miterlimit="10" transform="translate(47,10)"><g class="mark-group role-frame root" role="graphics-object" aria-roledescription="group mark container"><g transform="translate(0,0)"><path class="background" aria-hidden="true" d="M0.5,0.5h400v300h-400Z" stroke="#ddd"/><g><g class="mark-group role-axis" aria-hidden="true"><g transform="translate(0.5,300.5)"><path class="background" aria-hidden="true" d="M0,0h0v0h0Z" pointer-events="none"/><g><g class="mark-rule role-axis-grid" pointer-events="none"><line transform="translate(0,-300)" x2="0" y2="300" stroke="#ddd" stroke-width="1" opacity="1"/><line transform="translate(40,-300)" x2="0" y2="300" stroke="#ddd" stroke-width="1" opacity="1"/><line transform="translate(80,-300)" x2="0" y2="300" stroke="#ddd" stroke-width="1" opacity="1"/><line transform="translate(120,-300)" x2="0" y2="300" stroke="#ddd" stroke-width="1" opacity="1"/><line transform="translate(160,-300)" x2="0" y2="300" stroke="#ddd" stroke-width="1" opacity="1"/><line transform="translate(200,-300)" x2="0" y2="300" stroke="#ddd" stroke-width="1" opacity="1"/><line transform="translate(240,-300)" x2="0" y2="300" stroke="#ddd" stroke-width="1" opacity="1"/><line transform="translate(280,-300)" x2="0" y2="300" stroke="#ddd" stroke-width="1" opacity="1"/><line transform="translate(320,-300)" x2="0" y2="300" stroke="#ddd" stroke-width="1" opacity="1"/><line transform="translate(360,-300)" x2="0" y2="300" stroke="#ddd" stroke-width="1" opacity="1"/><line transform="translate(400,-300)" x2="0" y2="300" stroke="#ddd" stroke-width="1" opacity="1"/></g></g><path class="foreground" aria-hidden="true" d="" pointer-events="none" display="none"/></g></g><g class="mark-group role-axis" aria-hidden="true"><g transform="translate(0.5,0.5)"><path class="background" aria-hidden="true" d="M0,0h0v0h0Z" pointer-events="none"/><g><g class="mark-rule role-axis-grid" pointer-events="none"><line transform="translate(0,300)" x2="400" y2="0" stroke="#ddd" stroke-width="1" opacity="1"/><line transform="translate(0,275)" x2="400" y2="0" stroke="#ddd" stroke-width="1" opacity="1"/><line transform="translate(0,250)" x2="400" y2="0" stroke="#ddd" stroke-width="1" opacity="1"/><line transform="translate(0,225)" x2="400" y2="0" stroke="#ddd" stroke-width="1" opacity="1"/><line transform="translate(0,200)" x2="400" y2="0" stroke="#ddd" stroke-width="1" opacity="1"/><line transform="translate(0,175)" x2="400" y2="0" stroke="#ddd" stroke-width="1" opacity="1"/><line transform="translate(0,150)" x2="400" y2="0" stroke="#ddd" stroke-width="1" opacity="1"/><line transform="translate(0,125)" x2="400" y2="0" stroke="#ddd" stroke-width="1" opacity="1"/><line transform="translate(0,100)" x2="400" y2="0" stroke="#ddd" stroke-width="1" opacity="1"/><line transform="translate(0,75)" x2="400" y2="0" stroke="#ddd" stroke-width="1" opacity="1"/><line transform="translate(0,50)" x2="400" y2="0" stroke="#ddd" stroke-width="1" opacity="1"/><line transform="translate(0,25)" x2="400" y2="0" stroke="#ddd" stroke-width="1" opacity="1"/><line transform="translate(0,0)" x2="400" y2="0" stroke="#ddd" stroke-width="1" opacity="1"/></g></g><path class="foreground" aria-hidden="true" d="" pointer-events="none" display="none"/></g></g><g class="mark-group role-axis" role="graphics-symbol" aria-roledescription="axis" aria-label="X-axis titled 'date (year)' for a time scale with values from 2000 to 2010"><g transform="translate(0.5,300.5)"><path class="background" aria-hidden="true" d="M0,0h0v0h0Z" pointer-events="none"/><g><g class="mark-rule role-axis-tick" pointer-events="none"><line transform="translate(0,0)" x2="0" y2="5" stroke="#888" stroke-width="1" opacity="1"/><line transform="translate(40,0)" x2="0" y2="5" stroke="#888" stroke-width="1" opacity="1"/><line transform="translate(80,0)" x2="0" y2="5" stroke="#888" stroke-width="1" opacity="1"/><line transform="translate(120,0)" x2="0" y2="5" stroke="#888" stroke-width="1" opacity="1"/><line transform="translate(160,0)" x2="0" y2="5" stroke="#888" stroke-width="1" opacity="1"/><line transform="translate(200,0)" x2="0" y2="5" stroke="#888" stroke-width="1" opacity="1"/><line transform="translate(240,0)" x2="0" y2="5" stroke="#888" stroke-width="1" opacity="1"/><line transform="translate(280,0)" x2="0" y2="5" stroke="#888" stroke-width="1" opacity="1"/><line transform="translate(320,0)" x2="0" y2="5" stroke="#888" stroke-width="1" opacity="1"/><line transform="translate(360,0)" x2="0" y2="5" stroke="#888" stroke-width="1" opacity="1"/><line transform="translate(400,0)" x2="0" y2="5" stroke="#888" stroke-width="1" opacity="1"/></g><g class="mark-text role-axis-label" pointer-events="none"><text text-anchor="start" transform="translate(0,15)" font-family="sans-serif" font-size="10px" fill="#000" opacity="1">2000</text><text text-anchor="middle" transform="translate(40.07664932931837,15)" font-family="sans-serif" font-size="10px" fill="#000" opacity="1">2001</text><text text-anchor="middle" transform="translate(80.04379961675335,15)" font-family="sans-serif" font-size="10px" fill="#000" opacity="1">2002</text><text text-anchor="middle" transform="translate(120.01094990418835,15)" font-family="sans-serif" font-size="10px" fill="#000" opacity="1">2003</text><text text-anchor="middle" transform="translate(159.97810019162333,15)" font-family="sans-serif" font-size="10px" fill="#000" opacity="1">2004</text><text text-anchor="middle" transform="translate(200.0547495209417,15)" font-family="sans-serif" font-size="10px" fill="#000" opacity="1">2005</text><text text-anchor="middle" transform="translate(240.0218998083767,15)" font-family="sans-serif" font-size="10px" fill="#000" opacity="1">2006</text><text text-anchor="middle" transform="translate(279.98905009581165,15)" font-family="sans-serif" font-size="10px" fill="#000" opacity="1">2007</text><text text-anchor="middle" transform="translate(319.95620038324665,15)" font-family="sans-serif" font-size="10px" fill="#000" opacity="1">2008</text><text text-anchor="middle" transform="translate(360.032849712565,15)" font-family="sans-serif" font-size="10px" fill="#000" opacity="1">2009</text><text text-anchor="end" transform="translate(400,15)" font-family="sans-serif" font-size="10px" fill="#000" opacity="1">2010</text></g><g class="mark-rule role-axis-domain" pointer-events="none"><line transform="translate(0,0)" x2="400" y2="0" stroke="#888" stroke-width="1" opacity="1"/></g><g class="mark-text role-axis-title" pointer-events="none"><text text-anchor="middle" transform="translate(200,30)" font-family="sans-serif" font-size="11px" font-weight="bold" fill="#000" opacity="1">date (year)</text></g></g><path class="foreground" aria-hidden="true" d="" pointer-events="none" display="none"/></g></g><g class="mark-group role-axis" role="graphics-symbol" aria-roledescription="axis" aria-label="Y-axis titled 'Mean of price' for a linear scale with values from 0 to 240"><g transform="translate(0.5,0.5)"><path class="background" aria-hidden="true" d="M0,0h0v0h0Z" pointer-events="none"/><g><g class="mark-rule role-axis-tick" pointer-events="none"><line transform="translate(0,300)" x2="-5" y2="0" stroke="#888" stroke-width="1" opacity="1"/><line transform="translate(0,275)" x2="-5" y2="0" stroke="#888" stroke-width="1" opacity="1"/><line transform="translate(0,250)" x2="-5" y2="0" stroke="#888" stroke-width="1" opacity="1"/><line transform="translate(0,225)" x2="-5" y2="0" stroke="#888" stroke-width="1" opacity="1"/><line transform="translate(0,200)" x2="-5" y2="0" stroke="#888" stroke-width="1" opacity="1"/><line transform="translate(0,175)" x2="-5" y2="0" stroke="#888" stroke-width="1" opacity="1"/><line transform="translate(0,150)" x2="-5" y2="0" stroke="#888" stroke-width="1" opacity="1"/><line transform="translate(0,125)" x2="-5" y2="0" stroke="#888" stroke-width="1" opacity="1"/><line transform="translate(0,100)" x2="-5" y2="0" stroke="#888" stroke-width="1" opacity="1"/><line transform="translate(0,75)" x2="-5" y2="0" stroke="#888" stroke-width="1" opacity="1"/><line transform="translate(0,50)" x2="-5" y2="0" stroke="#888" stroke-width="1" opacity="1"/><line transform="translate(0,25)" x2="-5" y2="0" stroke="#888" stroke-width="1" opacity="1"/><line transform="translate(0,0)" x2="-5" y2="0" stroke="#888" stroke-width="1" opacity="1"/></g><g class="mark-text role-axis-label" pointer-events="none"><text text-anchor="end" transform="translate(-7,303)" font-family="sans-serif" font-size="10px" fill="#000" opacity="1">0</text><text text-anchor="end" transform="translate(-7,278)" font-family="sans-serif" font-size="10px" fill="#000" opacity="1">20</text><text text-anchor="end" transform="translate(-7,253)" font-family="sans-serif" font-size="10px" fill="#000" opacity="1">40</text><text text-anchor="end" transform="translate(-7,228)" font-family="sans-serif" font-size="10px" fill="#000" opacity="1">60</text><text text-anchor="end" transform="translate(-7,203.00000000000003)" font-family="sans-serif" font-size="10px" fill="#000" opacity="1">80</text><text text-anchor="end" transform="translate(-7,177.99999999999997)" font-family="sans-serif" font-size="10px" fill="#000" opacity="1">100</text><text text-anchor="end" transform="translate(-7,153)" font-family="sans-serif" font-size="10px" fill="#000" opacity="1">120</text><text text-anchor="end" transform="translate(-7,127.99999999999999)" font-family="sans-serif" font-size="10px" fill="#000" opacity="1">140</text><text text-anchor="end" transform="translate(-7,103.00000000000001)" font-family="sans-serif" font-size="10px" fill="#000" opacity="1">160</text><text text-anchor="end" transform="translate(-7,78)" font-family="sans-serif" font-size="10px" fill="#000" opacity="1">180</text><text text-anchor="end" transform="translate(-7,52.999999999999986)" font-family="sans-serif" font-size="10px" fill="#000" opacity="1">200</text><text text-anchor="end" transform="translate(-7,28.00000000000001)" font-family="sans-serif" font-size="10px" fill="#000" opacity="1">220</text><text text-anchor="end" transform="translate(-7,3)" font-family="sans-serif" font-size="10px" fill="#000" opacity="1">240</text></g><g class="mark-rule role-axis-domain" pointer-events="none"><line transform="translate(0,300)" x2="0" y2="-300" stroke="#888" stroke-width="1" opacity="1"/></g><g class="mark-text role-axis-title" pointer-events="none"><text text-anchor="middle" transform="translate(-30.0869140625,150) rotate(-90) translate(0,-2)" font-family="sans-serif" font-size="11px" font-weight="bold" fill="#000" opacity="1">Mean of price</text></g></g><path class="foreground" aria-hidden="true" d="" pointer-events="none" display="none"/></g></g><g class="mark-group role-scope pathgroup" role="graphics-object" aria-roledescription="group mark container"><g transform="translate(0,0)"><path class="background" aria-hidden="true" d="M0,0h400v300h-400Z"/><g><g class="mark-line role-mark marks" role="graphics-object" aria-roledescription="line mark container"><path aria-label="date (year): 2000; Mean of price: 58.925; date (quarter): Q1" role="graphics-symbol" aria-roledescription="line mark" d="M0,226.344L40.077,256.547L80.044,254.966L120.011,262.085L159.978,247.652L200.055,205.992L240.022,148.71L279.989,121.465L319.956,91.586L360.033,147.376L400,44.222" stroke="rgb(134, 188, 220)" stroke-width="2"/></g></g><path class="foreground" aria-hidden="true" d="" display="none"/></g><g transform="translate(0,0)"><path class="background" aria-hidden="true" d="M0,0h400v300h-400Z"/><g><g class="mark-line role-mark marks" role="graphics-object" aria-roledescription="line mark container"><path aria-label="date (year): 2000; Mean of price: 49.9133333333; date (quarter): Q2" role="graphics-symbol" aria-roledescription="line mark" d="M0,237.608L40.077,250.705L80.044,262.277L120.011,256.065L159.978,247.924L200.055,192.923L240.022,150.438L279.989,98.497L319.956,59.395L360.033,112.164" stroke="rgb(109, 170, 211)" stroke-width="2"/></g></g><path class="foreground" aria-hidden="true" d="" display="none"/></g><g transform="translate(0,0)"><path class="background" aria-hidden="true" d="M0,0h400v300h-400Z"/><g><g class="mark-line role-mark marks" role="graphics-object" aria-roledescription="line mark container"><path aria-label="date (year): 2000; Mean of price: 48.3916666667; date (quarter): Q3" role="graphics-symbol" aria-roledescription="line mark" d="M0,239.51L40.077,259.091L80.044,267.682L120.011,251.582L159.978,236.715L200.055,177.78L240.022,152.642L279.989,76.646L319.956,96.506L360.033,83.098" stroke="rgb(83, 153, 201)" stroke-width="2"/></g></g><path class="foreground" aria-hidden="true" d="" display="none"/></g><g transform="translate(0,0)"><path class="background" aria-hidden="true" d="M0,0h400v300h-400Z"/><g><g class="mark-line role-mark marks" role="graphics-object" aria-roledescription="line mark container"><path aria-label="date (year): 2000; Mean of price: 35.0366666667; date (quarter): Q4" role="graphics-symbol" aria-roledescription="line mark" d="M0,256.204L40.077,253.369L80.044,261.221L120.011,247.01L159.978,207.606L200.055,147.13L240.022,121.182L279.989,20.767L319.956,157.585L360.033,34.148" stroke="rgb(56, 135, 192)" stroke-width="2"/></g></g><path class="foreground" aria-hidden="true" d="" display="none"/></g></g><g class="mark-group role-legend" role="graphics-symbol" aria-roledescription="legend" aria-label="Symbol legend titled 'date (quarter)' for stroke color with values from Q1 to Q4"><g transform="translate(420,0)"><path class="background" aria-hidden="true" d="M0,0h89v66h-89Z" pointer-events="none"/><g><g class="mark-group role-legend-entry"><g transform="translate(0,16)"><path class="background" aria-hidden="true" d="M0,0h0v0h0Z" pointer-events="none"/><g><g class="mark-group role-scope" role="graphics-object" aria-roledescription="group mark container"><g transform="translate(0,0)"><path class="background" aria-hidden="true" d="M0,0h30.2333984375v11h-30.2333984375Z" pointer-events="none" opacity="1"/><g><g class="mark-symbol role-legend-symbol" pointer-events="none"><path transform="translate(6,6)" d="M-5,0L5,0" stroke="rgb(134, 188, 220)" stroke-width="1.5" opacity="1"/></g><g class="mark-text role-legend-label" pointer-events="none"><text text-anchor="start" transform="translate(16,9)" font-family="sans-serif" font-size="10px" fill="#000" opacity="1">Q1</text></g></g><path class="foreground" aria-hidden="true" d="" pointer-events="none" display="none"/></g><g transform="translate(0,13)"><path class="background" aria-hidden="true" d="M0,0h30.2333984375v11h-30.2333984375Z" pointer-events="none" opacity="1"/><g><g class="mark-symbol role-legend-symbol" pointer-events="none"><path transform="translate(6,6)" d="M-5,0L5,0" stroke="rgb(109, 170, 211)" stroke-width="1.5" opacity="1"/></g><g class="mark-text role-legend-label" pointer-events="none"><text text-anchor="start" transform="translate(16,9)" font-family="sans-serif" font-size="10px" fill="#000" opacity="1">Q2</text></g></g><path class="foreground" aria-hidden="true" d="" pointer-events="none" display="none"/></g><g transform="translate(0,26)"><path class="background" aria-hidden="true" d="M0,0h30.2333984375v11h-30.2333984375Z" pointer-events="none" opacity="1"/><g><g class="mark-symbol role-legend-symbol" pointer-events="none"><path transform="translate(6,6)" d="M-5,0L5,0" stroke="rgb(83, 153, 201)" stroke-width="1.5" opacity="1"/></g><g class="mark-text role-legend-label" pointer-events="none"><text text-anchor="start" transform="translate(16,9)" font-family="sans-serif" font-size="10px" fill="#000" opacity="1">Q3</text></g></g><path class="foreground" aria-hidden="true" d="" pointer-events="none" display="none"/></g><g transform="translate(0,39)"><path class="background" aria-hidden="true" d="M0,0h30.2333984375v11h-30.2333984375Z" pointer-events="none" opacity="1"/><g><g class="mark-symbol role-legend-symbol" pointer-events="none"><path transform="translate(6,6)" d="M-5,0L5,0" stroke="rgb(56, 135, 192)" stroke-width="1.5" opacity="1"/></g><g class="mark-text role-legend-label" pointer-events="none"><text text-anchor="start" transform="translate(16,9)" font-family="sans-serif" font-size="10px" fill="#000" opacity="1">Q4</text></g></g><path class="foreground" aria-hidden="true" d="" pointer-events="none" display="none"/></g></g></g><path class="foreground" aria-hidden="true" d="" pointer-events="none" display="none"/></g></g><g class="mark-text role-legend-title" pointer-events="none"><text text-anchor="start" transform="translate(0,9)" font-family="sans-serif" font-size="11px" font-weight="bold" fill="#000" opacity="1">date (quarter)</text></g></g><path class="foreground" aria-hidden="true" d="" pointer-events="none" display="none"/></g></g></g><path class="foreground" aria-hidden="true" d="" display="none"/></g></g></g></svg>