<svg class="marks" width="390" height="250" viewBox="0 0 390 250" version="1.1" xmlns="http://www.w3.org/2000/svg" xmlns:xlink="http://www.w3.org/1999/xlink"><g transform="translate(50,11)"><g class="mark-group role-frame root"><g transform="translate(0,0)"><path class="background" d="M0.5,0.5h200v200h-200Z" style="fill: transparent; stroke: #ddd;"></path><g><g class="mark-group role-axis"><g transform="translate(0.5,200.5)"><path class="background" d="M0,0h0v0h0Z" style="pointer-events: none; fill: none;"></path><g><g class="mark-rule role-axis-grid" style="pointer-events: none;"><line transform="translate(0,-200)" x2="0" y2="200" style="fill: none; stroke: #ddd; stroke-width: 1; stroke-dasharray: ; opacity: 1;"></line><line transform="translate(33,-200)" x2="0" y2="200" style="fill: none; stroke: #ddd; stroke-width: 1; stroke-dasharray: ; opacity: 1;"></line><line transform="translate(67,-200)" x2="0" y2="200" style="fill: none; stroke: #ddd; stroke-width: 1; stroke-dasharray: ; opacity: 1;"></line><line transform="translate(100,-200)" x2="0" y2="200" style="fill: none; stroke: #ddd; stroke-width: 1; stroke-dasharray: ; opacity: 1;"></line><line transform="translate(133,-200)" x2="0" y2="200" style="fill: none; stroke: #ddd; stroke-width: 1; stroke-dasharray: ; opacity: 1;"></line><line transform="translate(167,-200)" x2="0" y2="200" style="fill: none; stroke: #ddd; stroke-width: 1; stroke-dasharray: ; opacity: 1;"></line></g></g></g></g><g class="mark-group role-axis"><g transform="translate(0.5,0.5)"><path class="background" d="M0,0h0v0h0Z" style="pointer-events: none; fill: none;"></path><g><g class="mark-rule role-axis-grid" style="pointer-events: none;"><line transform="translate(0,200)" x2="200" y2="0" style="fill: none; stroke: #ddd; stroke-width: 1; stroke-dasharray: ; opacity: 1;"></line><line transform="translate(0,183)" x2="200" y2="0" style="fill: none; stroke: #ddd; stroke-width: 1; stroke-dasharray: ; opacity: 1;"></line><line transform="translate(0,167)" x2="200" y2="0" style="fill: none; stroke: #ddd; stroke-width: 1; stroke-dasharray: ; opacity: 1;"></line><line transform="translate(0,150)" x2="200" y2="0" style="fill: none; stroke: #ddd; stroke-width: 1; stroke-dasharray: ; opacity: 1;"></line><line transform="translate(0,133)" x2="200" y2="0" style="fill: none; stroke: #ddd; stroke-width: 1; stroke-dasharray: ; opacity: 1;"></line><line transform="translate(0,117)" x2="200" y2="0" style="fill: none; stroke: #ddd; stroke-width: 1; stroke-dasharray: ; opacity: 1;"></line><line transform="translate(0,100)" x2="200" y2="0" style="fill: none; stroke: #ddd; stroke-width: 1; stroke-dasharray: ; opacity: 1;"></line><line transform="translate(0,83)" x2="200" y2="0" style="fill: none; stroke: #ddd; stroke-width: 1; stroke-dasharray: ; opacity: 1;"></line><line transform="translate(0,67)" x2="200" y2="0" style="fill: none; stroke: #ddd; stroke-width: 1; stroke-dasharray: ; opacity: 1;"></line><line transform="translate(0,50)" x2="200" y2="0" style="fill: none; stroke: #ddd; stroke-width: 1; stroke-dasharray: ; opacity: 1;"></line><line transform="translate(0,33)" x2="200" y2="0" style="fill: none; stroke: #ddd; stroke-width: 1; stroke-dasharray: ; opacity: 1;"></line><line transform="translate(0,17)" x2="200" y2="0" style="fill: none; stroke: #ddd; stroke-width: 1; stroke-dasharray: ; opacity: 1;"></line><line transform="translate(0,0)" x2="200" y2="0" style="fill: none; stroke: #ddd; stroke-width: 1; stroke-dasharray: ; opacity: 1;"></line></g></g></g></g><g class="mark-group role-scope pathgroup"><g transform="translate(0,0)"><path class="background" d="M0,0h200v200h-200Z" style="fill: none;"></path><g><g class="mark-line role-mark marks"><path d="M200,125.09803921568628L166.64385124344057,120L149.98859228838694,110.64102564102562L133.33333333333331,105.41666666666667L116.67807437827973,93.46153846153847L99.97718457677391,97.62820512820511L83.32192562172028,99.39393939393939L66.66666666666666,107.22222222222223L50.01140771161305,71.875L33.31051791010724,75.44444444444443L16.65525895505362,94.38888888888887L0,64.0277777777778" style="fill: none; stroke: rgb(121, 181, 217); stroke-width: 2;"></path></g></g></g><g transform="translate(0,0)"><path class="background" d="M0,0h200v200h-200Z" style="fill: none;"></path><g><g class="mark-line role-mark marks"><path d="M50.01140771161305,8.333333333333314L0,50.69444444444443" style="fill: none; stroke: rgb(207, 225, 242); stroke-width: 2;"></path></g></g></g><g transform="translate(0,0)"><path class="background" d="M0,0h200v200h-200Z" style="fill: none;"></path><g><g class="mark-line role-mark marks"><path d="M200,133.8034188034188L166.64385124344057,137.08333333333334L149.98859228838694,116.47435897435898L133.33333333333331,122.53968253968256L116.67807437827973,128.88888888888889L99.97718457677391,123.38235294117645L83.32192562172028,125.39215686274508L66.66666666666666,124.69298245614033L50.01140771161305,125.41666666666667L33.31051791010724,125.7638888888889L16.65525895505362,130.37878787878788L0,103.99999999999999" style="fill: none; stroke: rgb(38, 118, 182); stroke-width: 2;"></path></g></g></g><g transform="translate(0,0)"><path class="background" d="M0,0h200v200h-200Z" style="fill: none;"></path><g><g class="mark-line role-mark marks"><path d="M200,145.27777777777777L166.64385124344057,147.29166666666666L149.98859228838694,133.88888888888889L133.33333333333331,160L99.97718457677391,142.08333333333331L83.32192562172028,124.16666666666667L66.66666666666666,145.83333333333334L50.01140771161305,161.66666666666666L33.31051791010724,155L16.65525895505362,150.83333333333334L0,161.66666666666666" style="fill: none; stroke: rgb(8, 48, 107); stroke-width: 2;"></path></g></g></g></g><g class="mark-group role-legend"><g transform="translate(220,0)"><path class="background" d="M0,0h115v72h-115Z" style="pointer-events: none; fill: none;"></path><g><g class="mark-group role-legend-entry"><g transform="translate(0,16)"><path class="background" d="M0,0h0v0h0Z" style="pointer-events: none; fill: none;"></path><g><g class="mark-symbol role-legend-symbol" style="pointer-events: none;"><path transform="translate(5,5)" d="M5,0A5,5,0,1,1,-5,0A5,5,0,1,1,5,0" style="fill: transparent; stroke: rgb(207, 225, 242); stroke-width: 1.5; opacity: 1;"></path><path transform="translate(5,20)" d="M5,0A5,5,0,1,1,-5,0A5,5,0,1,1,5,0" style="fill: transparent; stroke: rgb(121, 181, 217); stroke-width: 1.5; opacity: 1;"></path><path transform="translate(5,35)" d="M5,0A5,5,0,1,1,-5,0A5,5,0,1,1,5,0" style="fill: transparent; stroke: rgb(38, 118, 182); stroke-width: 1.5; opacity: 1;"></path><path transform="translate(5,50)" d="M5,0A5,5,0,1,1,-5,0A5,5,0,1,1,5,0" style="fill: transparent; stroke: rgb(8, 48, 107); stroke-width: 1.5; opacity: 1;"></path></g><g class="mark-text role-legend-label" style="pointer-events: none;"><text text-anchor="start" transform="translate(18,8)" style="font: 10px sans-serif; fill: #000; opacity: 1;">5–10</text><text text-anchor="start" transform="translate(18,23)" style="font: 10px sans-serif; fill: #000; opacity: 1;">10–15</text><text text-anchor="start" transform="translate(18,38)" style="font: 10px sans-serif; fill: #000; opacity: 1;">15–20</text><text text-anchor="start" transform="translate(18,53)" style="font: 10px sans-serif; fill: #000; opacity: 1;">20–25</text></g></g></g></g><g class="mark-text role-legend-title" style="pointer-events: none;"><text text-anchor="start" transform="translate(0,10)" style="font: bold 11px sans-serif; fill: #000; opacity: 1;">Acceleration (binned)</text></g></g></g></g><g class="mark-group role-axis"><g transform="translate(0.5,200.5)"><path class="background" d="M0,0h0v0h0Z" style="pointer-events: none; fill: none;"></path><g><g class="mark-rule role-axis-tick" style="pointer-events: none;"><line transform="translate(0,0)" x2="0" y2="5" style="fill: none; stroke: #888; stroke-width: 1; opacity: 1;"></line><line transform="translate(33,0)" x2="0" y2="5" style="fill: none; stroke: #888; stroke-width: 1; opacity: 1;"></line><line transform="translate(67,0)" x2="0" y2="5" style="fill: none; stroke: #888; stroke-width: 1; opacity: 1;"></line><line transform="translate(100,0)" x2="0" y2="5" style="fill: none; stroke: #888; stroke-width: 1; opacity: 1;"></line><line transform="translate(133,0)" x2="0" y2="5" style="fill: none; stroke: #888; stroke-width: 1; opacity: 1;"></line><line transform="translate(167,0)" x2="0" y2="5" style="fill: none; stroke: #888; stroke-width: 1; opacity: 1;"></line></g><g class="mark-text role-axis-label" style="pointer-events: none;"><text text-anchor="middle" transform="translate(0.015210282150733894,16)" style="font: 10px sans-serif; fill: #000; opacity: 1;">Jan 01, 1970</text><text text-anchor="middle" transform="translate(33.32572819225796,16)" style="font: 10px sans-serif; fill: #000; opacity: 0;">Jan 01, 1972</text><text text-anchor="middle" transform="translate(66.6818769488174,16)" style="font: 10px sans-serif; fill: #000; opacity: 1;">Jan 01, 1974</text><text text-anchor="middle" transform="translate(99.99239485892464,16)" style="font: 10px sans-serif; fill: #000; opacity: 0;">Jan 01, 1976</text><text text-anchor="middle" transform="translate(133.34854361548406,16)" style="font: 10px sans-serif; fill: #000; opacity: 1;">Jan 01, 1978</text><text text-anchor="middle" transform="translate(166.65906152559128,16)" style="font: 10px sans-serif; fill: #000; opacity: 0;">Jan 01, 1980</text></g><g class="mark-rule role-axis-domain" style="pointer-events: none;"><line transform="translate(0,0)" x2="200" y2="0" style="fill: none; stroke: #888; stroke-width: 1; opacity: 1;"></line></g><g class="mark-text role-axis-title" style="pointer-events: none;"><text text-anchor="middle" transform="translate(100,31)" style="font: bold 11px sans-serif; fill: #000; opacity: 1;">Year</text></g></g></g></g><g class="mark-group role-axis"><g transform="translate(0.5,0.5)"><path class="background" d="M0,0h0v0h0Z" style="pointer-events: none; fill: none;"></path><g><g class="mark-rule role-axis-tick" style="pointer-events: none;"><line transform="translate(0,200)" x2="-5" y2="0" style="fill: none; stroke: #888; stroke-width: 1; opacity: 1;"></line><line transform="translate(0,183)" x2="-5" y2="0" style="fill: none; stroke: #888; stroke-width: 1; opacity: 1;"></line><line transform="translate(0,167)" x2="-5" y2="0" style="fill: none; stroke: #888; stroke-width: 1; opacity: 1;"></line><line transform="translate(0,150)" x2="-5" y2="0" style="fill: none; stroke: #888; stroke-width: 1; opacity: 1;"></line><line transform="translate(0,133)" x2="-5" y2="0" style="fill: none; stroke: #888; stroke-width: 1; opacity: 1;"></line><line transform="translate(0,117)" x2="-5" y2="0" style="fill: none; stroke: #888; stroke-width: 1; opacity: 1;"></line><line transform="translate(0,100)" x2="-5" y2="0" style="fill: none; stroke: #888; stroke-width: 1; opacity: 1;"></line><line transform="translate(0,83)" x2="-5" y2="0" style="fill: none; stroke: #888; stroke-width: 1; opacity: 1;"></line><line transform="translate(0,67)" x2="-5" y2="0" style="fill: none; stroke: #888; stroke-width: 1; opacity: 1;"></line><line transform="translate(0,50)" x2="-5" y2="0" style="fill: none; stroke: #888; stroke-width: 1; opacity: 1;"></line><line transform="translate(0,33)" x2="-5" y2="0" style="fill: none; stroke: #888; stroke-width: 1; opacity: 1;"></line><line transform="translate(0,17)" x2="-5" y2="0" style="fill: none; stroke: #888; stroke-width: 1; opacity: 1;"></line><line transform="translate(0,0)" x2="-5" y2="0" style="fill: none; stroke: #888; stroke-width: 1; opacity: 1;"></line></g><g class="mark-text role-axis-label" style="pointer-events: none;"><text text-anchor="end" transform="translate(-7,203)" style="font: 10px sans-serif; fill: #000; opacity: 1;">0</text><text text-anchor="end" transform="translate(-7,186.33333333333334)" style="font: 10px sans-serif; fill: #000; opacity: 1;">20</text><text text-anchor="end" transform="translate(-7,169.66666666666669)" style="font: 10px sans-serif; fill: #000; opacity: 1;">40</text><text text-anchor="end" transform="translate(-7,153)" style="font: 10px sans-serif; fill: #000; opacity: 1;">60</text><text text-anchor="end" transform="translate(-7,136.33333333333334)" style="font: 10px sans-serif; fill: #000; opacity: 1;">80</text><text text-anchor="end" transform="translate(-7,119.66666666666666)" style="font: 10px sans-serif; fill: #000; opacity: 1;">100</text><text text-anchor="end" transform="translate(-7,103)" style="font: 10px sans-serif; fill: #000; opacity: 1;">120</text><text text-anchor="end" transform="translate(-7,86.33333333333333)" style="font: 10px sans-serif; fill: #000; opacity: 1;">140</text><text text-anchor="end" transform="translate(-7,69.66666666666669)" style="font: 10px sans-serif; fill: #000; opacity: 1;">160</text><text text-anchor="end" transform="translate(-7,53)" style="font: 10px sans-serif; fill: #000; opacity: 1;">180</text><text text-anchor="end" transform="translate(-7,36.333333333333314)" style="font: 10px sans-serif; fill: #000; opacity: 1;">200</text><text text-anchor="end" transform="translate(-7,19.666666666666686)" style="font: 10px sans-serif; fill: #000; opacity: 1;">220</text><text text-anchor="end" transform="translate(-7,3)" style="font: 10px sans-serif; fill: #000; opacity: 1;">240</text></g><g class="mark-rule role-axis-domain" style="pointer-events: none;"><line transform="translate(0,200)" x2="0" y2="-200" style="fill: none; stroke: #888; stroke-width: 1; opacity: 1;"></line></g><g class="mark-text role-axis-title" style="pointer-events: none;"><text text-anchor="middle" transform="translate(-32,100) rotate(-90) translate(0,-2)" style="font: bold 11px sans-serif; fill: #000; opacity: 1;">Mean of Horsepower</text></g></g></g></g></g></g></g></g></svg>