<svg class="marks" width="554" height="245" viewBox="0 0 554 245" version="1.1" xmlns="http://www.w3.org/2000/svg" xmlns:xlink="http://www.w3.org/1999/xlink"><g transform="translate(79,5)"><g class="mark-group role-frame root"><g transform="translate(0,0)"><path class="background" d="M0.5,0.5h399v200h-399Z" style="fill: transparent; stroke: #ddd;"></path><g><g class="mark-group role-axis"><g transform="translate(0.5,0.5)"><path class="background" d="M0,0h0v0h0Z" style="pointer-events: none; fill: none;"></path><g><g class="mark-rule role-axis-grid" style="pointer-events: none;"><line transform="translate(0,200)" x2="399" y2="0" style="fill: none; stroke: #ddd; stroke-width: 1; stroke-dasharray: ; opacity: 1;"></line><line transform="translate(0,158)" x2="399" y2="0" style="fill: none; stroke: #ddd; stroke-width: 1; stroke-dasharray: ; opacity: 1;"></line><line transform="translate(0,117)" x2="399" y2="0" style="fill: none; stroke: #ddd; stroke-width: 1; stroke-dasharray: ; opacity: 1;"></line><line transform="translate(0,75)" x2="399" y2="0" style="fill: none; stroke: #ddd; stroke-width: 1; stroke-dasharray: ; opacity: 1;"></line><line transform="translate(0,33)" x2="399" y2="0" style="fill: none; stroke: #ddd; stroke-width: 1; stroke-dasharray: ; opacity: 1;"></line></g></g></g></g><g class="mark-group role-scope layer_0_pathgroup"><g transform="translate(0,0)"><path class="background" d="M0,0h399v200h-399Z" style="fill: none;"></path><g><g class="mark-area role-mark layer_0_marks"><path d="M389,197L368,192L347,184L326,176L305,168L284,163L263,157L242,146L221,129L200,117L179,106L158,104L137,115L116,120L95,119L74,115L53,112L32,112L11,119L11,200L32,200L53,200L74,200L95,200L116,200L137,200L158,200L179,200L200,200L221,200L242,200L263,200L284,200L305,200L326,200L347,200L368,200L389,200Z" style="fill: #659CCA; opacity: 0.7;"></path></g></g></g><g transform="translate(0,0)"><path class="background" d="M0,0h399v200h-399Z" style="fill: none;"></path><g><g class="mark-area role-mark layer_0_marks"><path d="M389,188L368,175L347,157L326,139L305,125L284,123L263,110L242,88L221,55L200,32L179,10L158,7L137,31L116,40L95,41L74,34L53,28L32,28L11,41L11,119L32,112L53,112L74,115L95,119L116,120L137,115L158,104L179,106L200,117L221,129L242,146L263,157L284,163L305,168L326,176L347,184L368,192L389,197Z" style="fill: #EA98D2; opacity: 0.7;"></path></g></g></g></g><g class="mark-group role-scope layer_1_pathgroup"><g transform="translate(0,0)"><path class="background" d="M0,0h399v200h-399Z" style="fill: none;"></path><g><g class="mark-line role-mark layer_1_marks"><path d="M389,197L368,192L347,184L326,176L305,168L284,163L263,157L242,146L221,129L200,117L179,106L158,104L137,115L116,120L95,119L74,115L53,112L32,112L11,119" style="fill: none; stroke: #659CCA; stroke-width: 2; opacity: 0.7;"></path></g></g></g><g transform="translate(0,0)"><path class="background" d="M0,0h399v200h-399Z" style="fill: none;"></path><g><g class="mark-line role-mark layer_1_marks"><path d="M389,188L368,175L347,157L326,139L305,125L284,123L263,110L242,88L221,55L200,32L179,10L158,7L137,31L116,40L95,41L74,34L53,28L32,28L11,41" style="fill: none; stroke: #EA98D2; stroke-width: 2; opacity: 0.7;"></path></g></g></g></g><g class="mark-group role-legend"><g transform="translate(417,0)"><path class="background" d="M0,0h53v42h-53Z" style="pointer-events: none; fill: none;"></path><g><g class="mark-group role-legend-entry"><g transform="translate(0,16)"><path class="background" d="M0,0h0v0h0Z" style="pointer-events: none; fill: none;"></path><g><g class="mark-symbol role-legend-symbol" style="pointer-events: none;"><path transform="translate(5,5)" d="M5,0A5,5,0,1,1,-5,0A5,5,0,1,1,5,0" style="fill: #EA98D2; stroke: #EA98D2; stroke-width: 1.5; opacity: 1;"></path><path transform="translate(5,20)" d="M5,0A5,5,0,1,1,-5,0A5,5,0,1,1,5,0" style="fill: #659CCA; stroke: #659CCA; stroke-width: 1.5; opacity: 1;"></path></g><g class="mark-text role-legend-label" style="pointer-events: none;"><text text-anchor="start" transform="translate(18,8)" style="font: 10px sans-serif; fill: #000; opacity: 1;">Female</text><text text-anchor="start" transform="translate(18,23)" style="font: 10px sans-serif; fill: #000; opacity: 1;">Male</text></g></g></g></g><g class="mark-text role-legend-title" style="pointer-events: none;"><text text-anchor="start" transform="translate(0,10)" style="font: bold 11px sans-serif; fill: #000; opacity: 1;">gender</text></g></g></g></g><g class="mark-group role-axis"><g transform="translate(0.5,200.5)"><path class="background" d="M0,0h0v0h0Z" style="pointer-events: none; fill: none;"></path><g><g class="mark-rule role-axis-tick" style="pointer-events: none;"><line transform="translate(11,0)" x2="0" y2="5" style="fill: none; stroke: #888; stroke-width: 1; opacity: 1;"></line><line transform="translate(32,0)" x2="0" y2="5" style="fill: none; stroke: #888; stroke-width: 1; opacity: 1;"></line><line transform="translate(53,0)" x2="0" y2="5" style="fill: none; stroke: #888; stroke-width: 1; opacity: 1;"></line><line transform="translate(74,0)" x2="0" y2="5" style="fill: none; stroke: #888; stroke-width: 1; opacity: 1;"></line><line transform="translate(95,0)" x2="0" y2="5" style="fill: none; stroke: #888; stroke-width: 1; opacity: 1;"></line><line transform="translate(116,0)" x2="0" y2="5" style="fill: none; stroke: #888; stroke-width: 1; opacity: 1;"></line><line transform="translate(137,0)" x2="0" y2="5" style="fill: none; stroke: #888; stroke-width: 1; opacity: 1;"></line><line transform="translate(158,0)" x2="0" y2="5" style="fill: none; stroke: #888; stroke-width: 1; opacity: 1;"></line><line transform="translate(179,0)" x2="0" y2="5" style="fill: none; stroke: #888; stroke-width: 1; opacity: 1;"></line><line transform="translate(200,0)" x2="0" y2="5" style="fill: none; stroke: #888; stroke-width: 1; opacity: 1;"></line><line transform="translate(221,0)" x2="0" y2="5" style="fill: none; stroke: #888; stroke-width: 1; opacity: 1;"></line><line transform="translate(242,0)" x2="0" y2="5" style="fill: none; stroke: #888; stroke-width: 1; opacity: 1;"></line><line transform="translate(263,0)" x2="0" y2="5" style="fill: none; stroke: #888; stroke-width: 1; opacity: 1;"></line><line transform="translate(284,0)" x2="0" y2="5" style="fill: none; stroke: #888; stroke-width: 1; opacity: 1;"></line><line transform="translate(305,0)" x2="0" y2="5" style="fill: none; stroke: #888; stroke-width: 1; opacity: 1;"></line><line transform="translate(326,0)" x2="0" y2="5" style="fill: none; stroke: #888; stroke-width: 1; opacity: 1;"></line><line transform="translate(347,0)" x2="0" y2="5" style="fill: none; stroke: #888; stroke-width: 1; opacity: 1;"></line><line transform="translate(368,0)" x2="0" y2="5" style="fill: none; stroke: #888; stroke-width: 1; opacity: 1;"></line><line transform="translate(389,0)" x2="0" y2="5" style="fill: none; stroke: #888; stroke-width: 1; opacity: 1;"></line></g><g class="mark-text role-axis-label" style="pointer-events: none;"><text text-anchor="end" transform="translate(11,7) rotate(270) translate(0,3)" style="font: 10px sans-serif; fill: #000; opacity: 1;">0</text><text text-anchor="end" transform="translate(32,7) rotate(270) translate(0,3)" style="font: 10px sans-serif; fill: #000; opacity: 1;">5</text><text text-anchor="end" transform="translate(53,7) rotate(270) translate(0,3)" style="font: 10px sans-serif; fill: #000; opacity: 1;">10</text><text text-anchor="end" transform="translate(74,7) rotate(270) translate(0,3)" style="font: 10px sans-serif; fill: #000; opacity: 1;">15</text><text text-anchor="end" transform="translate(95,7) rotate(270) translate(0,3)" style="font: 10px sans-serif; fill: #000; opacity: 1;">20</text><text text-anchor="end" transform="translate(116,7) rotate(270) translate(0,3)" style="font: 10px sans-serif; fill: #000; opacity: 1;">25</text><text text-anchor="end" transform="translate(137,7) rotate(270) translate(0,3)" style="font: 10px sans-serif; fill: #000; opacity: 1;">30</text><text text-anchor="end" transform="translate(158,7) rotate(270) translate(0,3)" style="font: 10px sans-serif; fill: #000; opacity: 1;">35</text><text text-anchor="end" transform="translate(179,7) rotate(270) translate(0,3)" style="font: 10px sans-serif; fill: #000; opacity: 1;">40</text><text text-anchor="end" transform="translate(200,7) rotate(270) translate(0,3)" style="font: 10px sans-serif; fill: #000; opacity: 1;">45</text><text text-anchor="end" transform="translate(221,7) rotate(270) translate(0,3)" style="font: 10px sans-serif; fill: #000; opacity: 1;">50</text><text text-anchor="end" transform="translate(242,7) rotate(270) translate(0,3)" style="font: 10px sans-serif; fill: #000; opacity: 1;">55</text><text text-anchor="end" transform="translate(263,7) rotate(270) translate(0,3)" style="font: 10px sans-serif; fill: #000; opacity: 1;">60</text><text text-anchor="end" transform="translate(284,7) rotate(270) translate(0,3)" style="font: 10px sans-serif; fill: #000; opacity: 1;">65</text><text text-anchor="end" transform="translate(305,7) rotate(270) translate(0,3)" style="font: 10px sans-serif; fill: #000; opacity: 1;">70</text><text text-anchor="end" transform="translate(326,7) rotate(270) translate(0,3)" style="font: 10px sans-serif; fill: #000; opacity: 1;">75</text><text text-anchor="end" transform="translate(347,7) rotate(270) translate(0,3)" style="font: 10px sans-serif; fill: #000; opacity: 1;">80</text><text text-anchor="end" transform="translate(368,7) rotate(270) translate(0,3)" style="font: 10px sans-serif; fill: #000; opacity: 1;">85</text><text text-anchor="end" transform="translate(389,7) rotate(270) translate(0,3)" style="font: 10px sans-serif; fill: #000; opacity: 1;">90</text></g><g class="mark-rule role-axis-domain" style="pointer-events: none;"><line transform="translate(0,0)" x2="399" y2="0" style="fill: none; stroke: #888; stroke-width: 1; opacity: 1;"></line></g><g class="mark-text role-axis-title" style="pointer-events: none;"><text text-anchor="middle" transform="translate(199.5,31.123046875)" style="font: bold 11px sans-serif; fill: #000; opacity: 1;">age</text></g></g></g></g><g class="mark-group role-axis"><g transform="translate(0.5,0.5)"><path class="background" d="M0,0h0v0h0Z" style="pointer-events: none; fill: none;"></path><g><g class="mark-rule role-axis-tick" style="pointer-events: none;"><line transform="translate(0,200)" x2="-5" y2="0" style="fill: none; stroke: #888; stroke-width: 1; opacity: 1;"></line><line transform="translate(0,158)" x2="-5" y2="0" style="fill: none; stroke: #888; stroke-width: 1; opacity: 1;"></line><line transform="translate(0,117)" x2="-5" y2="0" style="fill: none; stroke: #888; stroke-width: 1; opacity: 1;"></line><line transform="translate(0,75)" x2="-5" y2="0" style="fill: none; stroke: #888; stroke-width: 1; opacity: 1;"></line><line transform="translate(0,33)" x2="-5" y2="0" style="fill: none; stroke: #888; stroke-width: 1; opacity: 1;"></line></g><g class="mark-text role-axis-label" style="pointer-events: none;"><text text-anchor="end" transform="translate(-7,203)" style="font: 10px sans-serif; fill: #000; opacity: 1;">0</text><text text-anchor="end" transform="translate(-7,161)" style="font: 10px sans-serif; fill: #000; opacity: 1;">5,000,000</text><text text-anchor="end" transform="translate(-7,120)" style="font: 10px sans-serif; fill: #000; opacity: 1;">10,000,000</text><text text-anchor="end" transform="translate(-7,78)" style="font: 10px sans-serif; fill: #000; opacity: 1;">15,000,000</text><text text-anchor="end" transform="translate(-7,36)" style="font: 10px sans-serif; fill: #000; opacity: 1;">20,000,000</text></g><g class="mark-rule role-axis-domain" style="pointer-events: none;"><line transform="translate(0,200)" x2="0" y2="-200" style="fill: none; stroke: #888; stroke-width: 1; opacity: 1;"></line></g><g class="mark-text role-axis-title" style="pointer-events: none;"><text text-anchor="middle" transform="translate(-60.048828125,100) rotate(-90) translate(0,-2)" style="font: bold 11px sans-serif; fill: #000; opacity: 1;">SUM(people)</text></g></g></g></g></g></g></g></g></svg>