<svg xmlns="http://www.w3.org/2000/svg" xmlns:xlink="http://www.w3.org/1999/xlink" version="1.1" class="marks" width="543" height="90" viewBox="0 0 543 90"><rect width="543" height="90" fill="white"/><g fill="none" stroke-miterlimit="10" transform="translate(6,5)"><g class="mark-group role-frame root" role="graphics-object" aria-roledescription="group mark container"><g transform="translate(0,0)"><path class="background" aria-hidden="true" d="M0.5,0.5h400v20h-400Z" stroke="#ddd"/><g><g class="mark-group role-axis" aria-hidden="true"><g transform="translate(0.5,20.5)"><path class="background" aria-hidden="true" d="M0,0h0v0h0Z" pointer-events="none"/><g><g class="mark-rule role-axis-grid" pointer-events="none"><line transform="translate(0,0)" x2="0" y2="-20" stroke="#ddd" stroke-width="1" opacity="1"/><line transform="translate(27,0)" x2="0" y2="-20" stroke="#ddd" stroke-width="1" opacity="1"/><line transform="translate(53,0)" x2="0" y2="-20" stroke="#ddd" stroke-width="1" opacity="1"/><line transform="translate(80,0)" x2="0" y2="-20" stroke="#ddd" stroke-width="1" opacity="1"/><line transform="translate(107,0)" x2="0" y2="-20" stroke="#ddd" stroke-width="1" opacity="1"/><line transform="translate(133,0)" x2="0" y2="-20" stroke="#ddd" stroke-width="1" opacity="1"/><line transform="translate(160,0)" x2="0" y2="-20" stroke="#ddd" stroke-width="1" opacity="1"/><line transform="translate(187,0)" x2="0" y2="-20" stroke="#ddd" stroke-width="1" opacity="1"/><line transform="translate(213,0)" x2="0" y2="-20" stroke="#ddd" stroke-width="1" opacity="1"/><line transform="translate(240,0)" x2="0" y2="-20" stroke="#ddd" stroke-width="1" opacity="1"/><line transform="translate(267,0)" x2="0" y2="-20" stroke="#ddd" stroke-width="1" opacity="1"/><line transform="translate(293,0)" x2="0" y2="-20" stroke="#ddd" stroke-width="1" opacity="1"/><line transform="translate(320,0)" x2="0" y2="-20" stroke="#ddd" stroke-width="1" opacity="1"/><line transform="translate(347,0)" x2="0" y2="-20" stroke="#ddd" stroke-width="1" opacity="1"/><line transform="translate(373,0)" x2="0" y2="-20" stroke="#ddd" stroke-width="1" opacity="1"/><line transform="translate(400,0)" x2="0" y2="-20" stroke="#ddd" stroke-width="1" opacity="1"/></g></g><path class="foreground" aria-hidden="true" d="" pointer-events="none" display="none"/></g></g><g class="mark-group role-axis" role="graphics-symbol" aria-roledescription="axis" aria-label="X-axis titled 'Mean of temp_max' for a linear scale with values from 0 to 30"><g transform="translate(0.5,20.5)"><path class="background" aria-hidden="true" d="M0,0h0v0h0Z" pointer-events="none"/><g><g class="mark-rule role-axis-tick" pointer-events="none"><line transform="translate(0,0)" x2="0" y2="5" stroke="#888" stroke-width="1" opacity="1"/><line transform="translate(27,0)" x2="0" y2="5" stroke="#888" stroke-width="1" opacity="1"/><line transform="translate(53,0)" x2="0" y2="5" stroke="#888" stroke-width="1" opacity="1"/><line transform="translate(80,0)" x2="0" y2="5" stroke="#888" stroke-width="1" opacity="1"/><line transform="translate(107,0)" x2="0" y2="5" stroke="#888" stroke-width="1" opacity="1"/><line transform="translate(133,0)" x2="0" y2="5" stroke="#888" stroke-width="1" opacity="1"/><line transform="translate(160,0)" x2="0" y2="5" stroke="#888" stroke-width="1" opacity="1"/><line transform="translate(187,0)" x2="0" y2="5" stroke="#888" stroke-width="1" opacity="1"/><line transform="translate(213,0)" x2="0" y2="5" stroke="#888" stroke-width="1" opacity="1"/><line transform="translate(240,0)" x2="0" y2="5" stroke="#888" stroke-width="1" opacity="1"/><line transform="translate(267,0)" x2="0" y2="5" stroke="#888" stroke-width="1" opacity="1"/><line transform="translate(293,0)" x2="0" y2="5" stroke="#888" stroke-width="1" opacity="1"/><line transform="translate(320,0)" x2="0" y2="5" stroke="#888" stroke-width="1" opacity="1"/><line transform="translate(347,0)" x2="0" y2="5" stroke="#888" stroke-width="1" opacity="1"/><line transform="translate(373,0)" x2="0" y2="5" stroke="#888" stroke-width="1" opacity="1"/><line transform="translate(400,0)" x2="0" y2="5" stroke="#888" stroke-width="1" opacity="1"/></g><g class="mark-text role-axis-label" pointer-events="none"><text text-anchor="start" transform="translate(0,15)" font-family="sans-serif" font-size="10px" fill="#000" opacity="1">0</text><text text-anchor="middle" transform="translate(26.666666666666668,15)" font-family="sans-serif" font-size="10px" fill="#000" opacity="1">2</text><text text-anchor="middle" transform="translate(53.333333333333336,15)" font-family="sans-serif" font-size="10px" fill="#000" opacity="1">4</text><text text-anchor="middle" transform="translate(80,15)" font-family="sans-serif" font-size="10px" fill="#000" opacity="1">6</text><text text-anchor="middle" transform="translate(106.66666666666667,15)" font-family="sans-serif" font-size="10px" fill="#000" opacity="1">8</text><text text-anchor="middle" transform="translate(133.33333333333331,15)" font-family="sans-serif" font-size="10px" fill="#000" opacity="1">10</text><text text-anchor="middle" transform="translate(160,15)" font-family="sans-serif" font-size="10px" fill="#000" opacity="1">12</text><text text-anchor="middle" transform="translate(186.66666666666666,15)" font-family="sans-serif" font-size="10px" fill="#000" opacity="1">14</text><text text-anchor="middle" transform="translate(213.33333333333334,15)" font-family="sans-serif" font-size="10px" fill="#000" opacity="1">16</text><text text-anchor="middle" transform="translate(240,15)" font-family="sans-serif" font-size="10px" fill="#000" opacity="1">18</text><text text-anchor="middle" transform="translate(266.66666666666663,15)" font-family="sans-serif" font-size="10px" fill="#000" opacity="1">20</text><text text-anchor="middle" transform="translate(293.3333333333333,15)" font-family="sans-serif" font-size="10px" fill="#000" opacity="1">22</text><text text-anchor="middle" transform="translate(320,15)" font-family="sans-serif" font-size="10px" fill="#000" opacity="1">24</text><text text-anchor="middle" transform="translate(346.6666666666667,15)" font-family="sans-serif" font-size="10px" fill="#000" opacity="1">26</text><text text-anchor="middle" transform="translate(373.3333333333333,15)" font-family="sans-serif" font-size="10px" fill="#000" opacity="1">28</text><text text-anchor="end" transform="translate(400,15)" font-family="sans-serif" font-size="10px" fill="#000" opacity="1">30</text></g><g class="mark-rule role-axis-domain" pointer-events="none"><line transform="translate(0,0)" x2="400" y2="0" stroke="#888" stroke-width="1" opacity="1"/></g><g class="mark-text role-axis-title" pointer-events="none"><text text-anchor="middle" transform="translate(200,30)" font-family="sans-serif" font-size="11px" font-weight="bold" fill="#000" opacity="1">Mean of temp_max</text></g></g><path class="foreground" aria-hidden="true" d="" pointer-events="none" display="none"/></g></g><g class="mark-symbol role-mark marks" role="graphics-object" aria-roledescription="symbol mark container"><path aria-label="Mean of temp_max: 12.8; date (year-month): Dec 2011" role="graphics-symbol" aria-roledescription="point" transform="translate(170.66666666666669,10)" d="M2.739,0A2.739,2.739,0,1,1,-2.739,0A2.739,2.739,0,1,1,2.739,0" stroke="rgb(134, 188, 220)" stroke-width="2"/><path aria-label="Mean of temp_max: 6.92903225806; date (year-month): Jan 2012" role="graphics-symbol" aria-roledescription="point" transform="translate(92.38709677419354,10)" d="M2.739,0A2.739,2.739,0,1,1,-2.739,0A2.739,2.739,0,1,1,2.739,0" stroke="rgb(132, 187, 219)" stroke-width="2"/><path aria-label="Mean of temp_max: 9.17931034483; date (year-month): Feb 2012" role="graphics-symbol" aria-roledescription="point" transform="translate(122.39080459770118,10)" d="M2.739,0A2.739,2.739,0,1,1,-2.739,0A2.739,2.739,0,1,1,2.739,0" stroke="rgb(131, 186, 219)" stroke-width="2"/><path aria-label="Mean of temp_max: 9.64516129032; date (year-month): Mar 2012" role="graphics-symbol" aria-roledescription="point" transform="translate(128.6021505376344,10)" d="M2.739,0A2.739,2.739,0,1,1,-2.739,0A2.739,2.739,0,1,1,2.739,0" stroke="rgb(129, 185, 218)" stroke-width="2"/><path aria-label="Mean of temp_max: 14.9666666667; date (year-month): Apr 2012" role="graphics-symbol" aria-roledescription="point" transform="translate(199.55555555555554,10)" d="M2.739,0A2.739,2.739,0,1,1,-2.739,0A2.739,2.739,0,1,1,2.739,0" stroke="rgb(128, 184, 218)" stroke-width="2"/><path aria-label="Mean of temp_max: 17.9290322581; date (year-month): May 2012" role="graphics-symbol" aria-roledescription="point" transform="translate(239.05376344086017,10)" d="M2.739,0A2.739,2.739,0,1,1,-2.739,0A2.739,2.739,0,1,1,2.739,0" stroke="rgb(126, 182, 217)" stroke-width="2"/><path aria-label="Mean of temp_max: 18.6933333333; date (year-month): Jun 2012" role="graphics-symbol" aria-roledescription="point" transform="translate(249.2444444444444,10)" d="M2.739,0A2.739,2.739,0,1,1,-2.739,0A2.739,2.739,0,1,1,2.739,0" stroke="rgb(124, 181, 216)" stroke-width="2"/><path aria-label="Mean of temp_max: 23.0322580645; date (year-month): Jul 2012" role="graphics-symbol" aria-roledescription="point" transform="translate(307.0967741935484,10)" d="M2.739,0A2.739,2.739,0,1,1,-2.739,0A2.739,2.739,0,1,1,2.739,0" stroke="rgb(123, 180, 216)" stroke-width="2"/><path aria-label="Mean of temp_max: 25.7870967742; date (year-month): Aug 2012" role="graphics-symbol" aria-roledescription="point" transform="translate(343.8279569892473,10)" d="M2.739,0A2.739,2.739,0,1,1,-2.739,0A2.739,2.739,0,1,1,2.739,0" stroke="rgb(121, 179, 215)" stroke-width="2"/><path aria-label="Mean of temp_max: 22.9333333333; date (year-month): Sep 2012" role="graphics-symbol" aria-roledescription="point" transform="translate(305.7777777777778,10)" d="M2.739,0A2.739,2.739,0,1,1,-2.739,0A2.739,2.739,0,1,1,2.739,0" stroke="rgb(120, 178, 215)" stroke-width="2"/><path aria-label="Mean of temp_max: 15.5612903226; date (year-month): Oct 2012" role="graphics-symbol" aria-roledescription="point" transform="translate(207.4838709677419,10)" d="M2.739,0A2.739,2.739,0,1,1,-2.739,0A2.739,2.739,0,1,1,2.739,0" stroke="rgb(118, 177, 214)" stroke-width="2"/><path aria-label="Mean of temp_max: 11.27; date (year-month): Nov 2012" role="graphics-symbol" aria-roledescription="point" transform="translate(150.2666666666667,10)" d="M2.739,0A2.739,2.739,0,1,1,-2.739,0A2.739,2.739,0,1,1,2.739,0" stroke="rgb(117, 176, 213)" stroke-width="2"/><path aria-label="Mean of temp_max: 6.96774193548; date (year-month): Dec 2012" role="graphics-symbol" aria-roledescription="point" transform="translate(92.90322580645163,10)" d="M2.739,0A2.739,2.739,0,1,1,-2.739,0A2.739,2.739,0,1,1,2.739,0" stroke="rgb(115, 175, 213)" stroke-width="2"/><path aria-label="Mean of temp_max: 6.32258064516; date (year-month): Jan 2013" role="graphics-symbol" aria-roledescription="point" transform="translate(84.3010752688172,10)" d="M2.739,0A2.739,2.739,0,1,1,-2.739,0A2.739,2.739,0,1,1,2.739,0" stroke="rgb(113, 174, 212)" stroke-width="2"/><path aria-label="Mean of temp_max: 9.58571428571; date (year-month): Feb 2013" role="graphics-symbol" aria-roledescription="point" transform="translate(127.80952380952384,10)" d="M2.739,0A2.739,2.739,0,1,1,-2.739,0A2.739,2.739,0,1,1,2.739,0" stroke="rgb(112, 172, 212)" stroke-width="2"/><path aria-label="Mean of temp_max: 12.7806451613; date (year-month): Mar 2013" role="graphics-symbol" aria-roledescription="point" transform="translate(170.4086021505376,10)" d="M2.739,0A2.739,2.739,0,1,1,-2.739,0A2.739,2.739,0,1,1,2.739,0" stroke="rgb(110, 171, 211)" stroke-width="2"/><path aria-label="Mean of temp_max: 14.28; date (year-month): Apr 2013" role="graphics-symbol" aria-roledescription="point" transform="translate(190.4,10)" d="M2.739,0A2.739,2.739,0,1,1,-2.739,0A2.739,2.739,0,1,1,2.739,0" stroke="rgb(109, 170, 210)" stroke-width="2"/><path aria-label="Mean of temp_max: 19.7709677419; date (year-month): May 2013" role="graphics-symbol" aria-roledescription="point" transform="translate(263.6129032258064,10)" d="M2.739,0A2.739,2.739,0,1,1,-2.739,0A2.739,2.739,0,1,1,2.739,0" stroke="rgb(107, 169, 210)" stroke-width="2"/><path aria-label="Mean of temp_max: 23.55; date (year-month): Jun 2013" role="graphics-symbol" aria-roledescription="point" transform="translate(313.99999999999994,10)" d="M2.739,0A2.739,2.739,0,1,1,-2.739,0A2.739,2.739,0,1,1,2.739,0" stroke="rgb(106, 168, 209)" stroke-width="2"/><path aria-label="Mean of temp_max: 25.735483871; date (year-month): Jul 2013" role="graphics-symbol" aria-roledescription="point" transform="translate(343.1397849462365,10)" d="M2.739,0A2.739,2.739,0,1,1,-2.739,0A2.739,2.739,0,1,1,2.739,0" stroke="rgb(104, 167, 209)" stroke-width="2"/><path aria-label="Mean of temp_max: 26.3516129032; date (year-month): Aug 2013" role="graphics-symbol" aria-roledescription="point" transform="translate(351.35483870967744,10)" d="M2.739,0A2.739,2.739,0,1,1,-2.739,0A2.739,2.739,0,1,1,2.739,0" stroke="rgb(102, 166, 208)" stroke-width="2"/><path aria-label="Mean of temp_max: 20.9133333333; date (year-month): Sep 2013" role="graphics-symbol" aria-roledescription="point" transform="translate(278.84444444444443,10)" d="M2.739,0A2.739,2.739,0,1,1,-2.739,0A2.739,2.739,0,1,1,2.739,0" stroke="rgb(101, 165, 208)" stroke-width="2"/><path aria-label="Mean of temp_max: 14.3387096774; date (year-month): Oct 2013" role="graphics-symbol" aria-roledescription="point" transform="translate(191.18279569892474,10)" d="M2.739,0A2.739,2.739,0,1,1,-2.739,0A2.739,2.739,0,1,1,2.739,0" stroke="rgb(99, 164, 207)" stroke-width="2"/><path aria-label="Mean of temp_max: 11.9033333333; date (year-month): Nov 2013" role="graphics-symbol" aria-roledescription="point" transform="translate(158.7111111111111,10)" d="M2.739,0A2.739,2.739,0,1,1,-2.739,0A2.739,2.739,0,1,1,2.739,0" stroke="rgb(98, 163, 206)" stroke-width="2"/><path aria-label="Mean of temp_max: 6.82580645161; date (year-month): Dec 2013" role="graphics-symbol" aria-roledescription="point" transform="translate(91.01075268817205,10)" d="M2.739,0A2.739,2.739,0,1,1,-2.739,0A2.739,2.739,0,1,1,2.739,0" stroke="rgb(96, 161, 206)" stroke-width="2"/><path aria-label="Mean of temp_max: 9.61935483871; date (year-month): Jan 2014" role="graphics-symbol" aria-roledescription="point" transform="translate(128.25806451612902,10)" d="M2.739,0A2.739,2.739,0,1,1,-2.739,0A2.739,2.739,0,1,1,2.739,0" stroke="rgb(94, 160, 205)" stroke-width="2"/><path aria-label="Mean of temp_max: 8.17857142857; date (year-month): Feb 2014" role="graphics-symbol" aria-roledescription="point" transform="translate(109.04761904761907,10)" d="M2.739,0A2.739,2.739,0,1,1,-2.739,0A2.739,2.739,0,1,1,2.739,0" stroke="rgb(93, 159, 205)" stroke-width="2"/><path aria-label="Mean of temp_max: 13.1387096774; date (year-month): Mar 2014" role="graphics-symbol" aria-roledescription="point" transform="translate(175.18279569892476,10)" d="M2.739,0A2.739,2.739,0,1,1,-2.739,0A2.739,2.739,0,1,1,2.739,0" stroke="rgb(91, 158, 204)" stroke-width="2"/><path aria-label="Mean of temp_max: 15.96; date (year-month): Apr 2014" role="graphics-symbol" aria-roledescription="point" transform="translate(212.8,10)" d="M2.739,0A2.739,2.739,0,1,1,-2.739,0A2.739,2.739,0,1,1,2.739,0" stroke="rgb(90, 157, 204)" stroke-width="2"/><path aria-label="Mean of temp_max: 19.6387096774; date (year-month): May 2014" role="graphics-symbol" aria-roledescription="point" transform="translate(261.84946236559136,10)" d="M2.739,0A2.739,2.739,0,1,1,-2.739,0A2.739,2.739,0,1,1,2.739,0" stroke="rgb(88, 156, 203)" stroke-width="2"/><path aria-label="Mean of temp_max: 21.9966666667; date (year-month): Jun 2014" role="graphics-symbol" aria-roledescription="point" transform="translate(293.28888888888895,10)" d="M2.739,0A2.739,2.739,0,1,1,-2.739,0A2.739,2.739,0,1,1,2.739,0" stroke="rgb(87, 155, 202)" stroke-width="2"/><path aria-label="Mean of temp_max: 26.7225806452; date (year-month): Jul 2014" role="graphics-symbol" aria-roledescription="point" transform="translate(356.3010752688172,10)" d="M2.739,0A2.739,2.739,0,1,1,-2.739,0A2.739,2.739,0,1,1,2.739,0" stroke="rgb(85, 154, 202)" stroke-width="2"/><path aria-label="Mean of temp_max: 26.2032258065; date (year-month): Aug 2014" role="graphics-symbol" aria-roledescription="point" transform="translate(349.37634408602145,10)" d="M2.739,0A2.739,2.739,0,1,1,-2.739,0A2.739,2.739,0,1,1,2.739,0" stroke="rgb(83, 153, 201)" stroke-width="2"/><path aria-label="Mean of temp_max: 22.9966666667; date (year-month): Sep 2014" role="graphics-symbol" aria-roledescription="point" transform="translate(306.62222222222215,10)" d="M2.739,0A2.739,2.739,0,1,1,-2.739,0A2.739,2.739,0,1,1,2.739,0" stroke="rgb(82, 152, 201)" stroke-width="2"/><path aria-label="Mean of temp_max: 17.7290322581; date (year-month): Oct 2014" role="graphics-symbol" aria-roledescription="point" transform="translate(236.3870967741936,10)" d="M2.739,0A2.739,2.739,0,1,1,-2.739,0A2.739,2.739,0,1,1,2.739,0" stroke="rgb(80, 150, 200)" stroke-width="2"/><path aria-label="Mean of temp_max: 10.8066666667; date (year-month): Nov 2014" role="graphics-symbol" aria-roledescription="point" transform="translate(144.0888888888889,10)" d="M2.739,0A2.739,2.739,0,1,1,-2.739,0A2.739,2.739,0,1,1,2.739,0" stroke="rgb(78, 149, 199)" stroke-width="2"/><path aria-label="Mean of temp_max: 10.1774193548; date (year-month): Dec 2014" role="graphics-symbol" aria-roledescription="point" transform="translate(135.69892473118279,10)" d="M2.739,0A2.739,2.739,0,1,1,-2.739,0A2.739,2.739,0,1,1,2.739,0" stroke="rgb(77, 148, 199)" stroke-width="2"/><path aria-label="Mean of temp_max: 10.2774193548; date (year-month): Jan 2015" role="graphics-symbol" aria-roledescription="point" transform="translate(137.03225806451613,10)" d="M2.739,0A2.739,2.739,0,1,1,-2.739,0A2.739,2.739,0,1,1,2.739,0" stroke="rgb(75, 147, 198)" stroke-width="2"/><path aria-label="Mean of temp_max: 12.5785714286; date (year-month): Feb 2015" role="graphics-symbol" aria-roledescription="point" transform="translate(167.7142857142857,10)" d="M2.739,0A2.739,2.739,0,1,1,-2.739,0A2.739,2.739,0,1,1,2.739,0" stroke="rgb(73, 146, 198)" stroke-width="2"/><path aria-label="Mean of temp_max: 14.4322580645; date (year-month): Mar 2015" role="graphics-symbol" aria-roledescription="point" transform="translate(192.43010752688173,10)" d="M2.739,0A2.739,2.739,0,1,1,-2.739,0A2.739,2.739,0,1,1,2.739,0" stroke="rgb(72, 145, 197)" stroke-width="2"/><path aria-label="Mean of temp_max: 15.6866666667; date (year-month): Apr 2015" role="graphics-symbol" aria-roledescription="point" transform="translate(209.1555555555556,10)" d="M2.739,0A2.739,2.739,0,1,1,-2.739,0A2.739,2.739,0,1,1,2.739,0" stroke="rgb(70, 144, 197)" stroke-width="2"/><path aria-label="Mean of temp_max: 19.9548387097; date (year-month): May 2015" role="graphics-symbol" aria-roledescription="point" transform="translate(266.0645161290323,10)" d="M2.739,0A2.739,2.739,0,1,1,-2.739,0A2.739,2.739,0,1,1,2.739,0" stroke="rgb(68, 143, 196)" stroke-width="2"/><path aria-label="Mean of temp_max: 26.6; date (year-month): Jun 2015" role="graphics-symbol" aria-roledescription="point" transform="translate(354.66666666666674,10)" d="M2.739,0A2.739,2.739,0,1,1,-2.739,0A2.739,2.739,0,1,1,2.739,0" stroke="rgb(67, 142, 195)" stroke-width="2"/><path aria-label="Mean of temp_max: 28.1290322581; date (year-month): Jul 2015" role="graphics-symbol" aria-roledescription="point" transform="translate(375.05376344086017,10)" d="M2.739,0A2.739,2.739,0,1,1,-2.739,0A2.739,2.739,0,1,1,2.739,0" stroke="rgb(65, 141, 195)" stroke-width="2"/><path aria-label="Mean of temp_max: 25.6387096774; date (year-month): Aug 2015" role="graphics-symbol" aria-roledescription="point" transform="translate(341.8494623655914,10)" d="M2.739,0A2.739,2.739,0,1,1,-2.739,0A2.739,2.739,0,1,1,2.739,0" stroke="rgb(63, 139, 194)" stroke-width="2"/><path aria-label="Mean of temp_max: 20.35; date (year-month): Sep 2015" role="graphics-symbol" aria-roledescription="point" transform="translate(271.3333333333333,10)" d="M2.739,0A2.739,2.739,0,1,1,-2.739,0A2.739,2.739,0,1,1,2.739,0" stroke="rgb(61, 138, 194)" stroke-width="2"/><path aria-label="Mean of temp_max: 17.2516129032; date (year-month): Oct 2015" role="graphics-symbol" aria-roledescription="point" transform="translate(230.021505376344,10)" d="M2.739,0A2.739,2.739,0,1,1,-2.739,0A2.739,2.739,0,1,1,2.739,0" stroke="rgb(60, 137, 193)" stroke-width="2"/><path aria-label="Mean of temp_max: 9.61; date (year-month): Nov 2015" role="graphics-symbol" aria-roledescription="point" transform="translate(128.13333333333333,10)" d="M2.739,0A2.739,2.739,0,1,1,-2.739,0A2.739,2.739,0,1,1,2.739,0" stroke="rgb(58, 136, 193)" stroke-width="2"/><path aria-label="Mean of temp_max: 8.32666666667; date (year-month): Dec 2015" role="graphics-symbol" aria-roledescription="point" transform="translate(111.0222222222222,10)" d="M2.739,0A2.739,2.739,0,1,1,-2.739,0A2.739,2.739,0,1,1,2.739,0" stroke="rgb(56, 135, 192)" stroke-width="2"/></g><g class="mark-group role-legend" role="graphics-symbol" aria-roledescription="legend" aria-label="Gradient legend titled 'date (year-month)' for stroke color with values from December 2011 to December 2015"><g transform="translate(418,0)"><path class="background" aria-hidden="true" d="M0,0h114v80h-114Z" pointer-events="none"/><g><g class="mark-group role-legend-entry"><g transform="translate(0,16)"><path class="background" aria-hidden="true" d="M0,0h0v0h0Z" pointer-events="none"/><g><g class="mark-rect role-legend-gradient" pointer-events="none"><path d="M0,0h16v64h-16Z" fill="url(#gradient_0)" stroke="#ddd" stroke-width="0" opacity="1"/></g><g class="mark-text role-legend-label" pointer-events="none"><text text-anchor="start" transform="translate(18,62)" font-family="sans-serif" font-size="10px" fill="#000" opacity="1">Dec 2011</text><text text-anchor="start" transform="translate(18,8)" font-family="sans-serif" font-size="10px" fill="#000" opacity="1">Dec 2015</text></g></g><path class="foreground" aria-hidden="true" d="" pointer-events="none" display="none"/></g></g><g class="mark-text role-legend-title" pointer-events="none"><text text-anchor="start" transform="translate(0,9)" font-family="sans-serif" font-size="11px" font-weight="bold" fill="#000" opacity="1">date (year-month)</text></g></g><path class="foreground" aria-hidden="true" d="" pointer-events="none" display="none"/></g></g></g><path class="foreground" aria-hidden="true" d="" display="none"/></g></g></g><defs><linearGradient id="gradient_0" x1="0" x2="0" y1="1" y2="0"><stop offset="0" stop-color="rgb(134, 188, 220)"/><stop offset="0.021218343600273786" stop-color="rgb(132, 187, 219)"/><stop offset="0.08347592972849646" stop-color="rgb(128, 184, 218)"/><stop offset="0.14576203513575176" stop-color="rgb(123, 180, 216)"/><stop offset="0.2087326032397901" stop-color="rgb(118, 177, 214)"/><stop offset="0.27173169062286107" stop-color="rgb(113, 174, 212)"/><stop offset="0.3333048140543007" stop-color="rgb(109, 170, 210)"/><stop offset="0.395590919461556" stop-color="rgb(104, 167, 209)"/><stop offset="0.45856148756559434" stop-color="rgb(99, 164, 207)"/><stop offset="0.5215605749486653" stop-color="rgb(94, 160, 205)"/><stop offset="0.583133698380105" stop-color="rgb(90, 157, 204)"/><stop offset="0.6454198037873603" stop-color="rgb(85, 154, 202)"/><stop offset="0.7083903718913986" stop-color="rgb(80, 150, 200)"/><stop offset="0.7713894592744696" stop-color="rgb(75, 147, 198)"/><stop offset="0.8329625827059092" stop-color="rgb(70, 144, 197)"/><stop offset="0.8952486881131645" stop-color="rgb(65, 141, 195)"/><stop offset="0.9582192562172028" stop-color="rgb(60, 137, 193)"/><stop offset="1" stop-color="rgb(56, 135, 192)"/></linearGradient></defs></svg>