<svg class="marks" width="379" height="91" viewBox="0 0 379 91" version="1.1" xmlns="http://www.w3.org/2000/svg" xmlns:xlink="http://www.w3.org/1999/xlink"><defs><linearGradient id="gradient_0" x1="0" x2="0" y1="1" y2="0"><stop offset="0" stop-color="rgb(247, 251, 255)"></stop><stop offset="0" stop-color="rgb(247, 251, 255)"></stop><stop offset="0.09281437125748503" stop-color="rgb(224, 233, 242)"></stop><stop offset="0.17664670658682635" stop-color="rgb(204, 217, 231)"></stop><stop offset="0.2693363273453094" stop-color="rgb(182, 199, 219)"></stop><stop offset="0.3591566866267465" stop-color="rgb(161, 182, 208)"></stop><stop offset="0.45197105788423153" stop-color="rgb(140, 164, 196)"></stop><stop offset="0.5417914171656687" stop-color="rgb(121, 147, 184)"></stop><stop offset="0.6346057884231537" stop-color="rgb(101, 130, 173)"></stop><stop offset="0.7274201596806387" stop-color="rgb(82, 113, 161)"></stop><stop offset="0.8172405189620758" stop-color="rgb(62, 97, 150)"></stop><stop offset="0.9100548902195609" stop-color="rgb(41, 81, 138)"></stop><stop offset="1" stop-color="rgb(14, 66, 127)"></stop><stop offset="1" stop-color="rgb(14, 66, 127)"></stop></linearGradient></defs><g transform="translate(6,5)"><g class="mark-group role-frame root"><g transform="translate(0,0)"><path class="background" d="M0.5,0.5h200v20h-200Z" style="fill: none; stroke: #ddd;"></path><g><g class="mark-group role-axis"><g transform="translate(0.5,20.5)"><path class="background" d="M0,0h0v0h0Z" style="pointer-events: none; fill: none;"></path><g><g class="mark-rule role-axis-grid" style="pointer-events: none;"><line transform="translate(0,0)" x2="0" y2="-20" style="fill: none; stroke: #ddd; stroke-width: 1; opacity: 1;"></line><line transform="translate(29,0)" x2="0" y2="-20" style="fill: none; stroke: #ddd; stroke-width: 1; opacity: 1;"></line><line transform="translate(57,0)" x2="0" y2="-20" style="fill: none; stroke: #ddd; stroke-width: 1; opacity: 1;"></line><line transform="translate(86,0)" x2="0" y2="-20" style="fill: none; stroke: #ddd; stroke-width: 1; opacity: 1;"></line><line transform="translate(114,0)" x2="0" y2="-20" style="fill: none; stroke: #ddd; stroke-width: 1; opacity: 1;"></line><line transform="translate(143,0)" x2="0" y2="-20" style="fill: none; stroke: #ddd; stroke-width: 1; opacity: 1;"></line><line transform="translate(171,0)" x2="0" y2="-20" style="fill: none; stroke: #ddd; stroke-width: 1; opacity: 1;"></line><line transform="translate(200,0)" x2="0" y2="-20" style="fill: none; stroke: #ddd; stroke-width: 1; opacity: 1;"></line></g></g></g></g><g class="mark-symbol role-mark marks"><path transform="translate(119.1543778801843,10)" d="M2.7386127875258306,0A2.7386127875258306,2.7386127875258306,0,1,1,-2.7386127875258306,0A2.7386127875258306,2.7386127875258306,0,1,1,2.7386127875258306,0" style="fill: none; stroke: rgb(247, 251, 255); stroke-width: 2;"></path><path transform="translate(122.84566326530621,10)" d="M2.7386127875258306,0A2.7386127875258306,2.7386127875258306,0,1,1,-2.7386127875258306,0A2.7386127875258306,2.7386127875258306,0,1,1,2.7386127875258306,0" style="fill: none; stroke: rgb(224, 233, 242); stroke-width: 2;"></path><path transform="translate(131.23745433570468,10)" d="M2.7386127875258306,0A2.7386127875258306,2.7386127875258306,0,1,1,-2.7386127875258306,0A2.7386127875258306,2.7386127875258306,0,1,1,2.7386127875258306,0" style="fill: none; stroke: rgb(204, 217, 231); stroke-width: 2;"></path><path transform="translate(141.8742063492063,10)" d="M2.7386127875258306,0A2.7386127875258306,2.7386127875258306,0,1,1,-2.7386127875258306,0A2.7386127875258306,2.7386127875258306,0,1,1,2.7386127875258306,0" style="fill: none; stroke: rgb(182, 199, 219); stroke-width: 2;"></path><path transform="translate(157.73233486943178,10)" d="M2.7386127875258306,0A2.7386127875258306,2.7386127875258306,0,1,1,-2.7386127875258306,0A2.7386127875258306,2.7386127875258306,0,1,1,2.7386127875258306,0" style="fill: none; stroke: rgb(161, 182, 208); stroke-width: 2;"></path><path transform="translate(171.46230158730148,10)" d="M2.7386127875258306,0A2.7386127875258306,2.7386127875258306,0,1,1,-2.7386127875258306,0A2.7386127875258306,2.7386127875258306,0,1,1,2.7386127875258306,0" style="fill: none; stroke: rgb(140, 164, 196); stroke-width: 2;"></path><path transform="translate(185.3932411674346,10)" d="M2.7386127875258306,0A2.7386127875258306,2.7386127875258306,0,1,1,-2.7386127875258306,0A2.7386127875258306,2.7386127875258306,0,1,1,2.7386127875258306,0" style="fill: none; stroke: rgb(121, 147, 184); stroke-width: 2;"></path><path transform="translate(186.08909370199726,10)" d="M2.7386127875258306,0A2.7386127875258306,2.7386127875258306,0,1,1,-2.7386127875258306,0A2.7386127875258306,2.7386127875258306,0,1,1,2.7386127875258306,0" style="fill: none; stroke: rgb(101, 130, 173); stroke-width: 2;"></path><path transform="translate(172.03214285714276,10)" d="M2.7386127875258306,0A2.7386127875258306,2.7386127875258306,0,1,1,-2.7386127875258306,0A2.7386127875258306,2.7386127875258306,0,1,1,2.7386127875258306,0" style="fill: none; stroke: rgb(82, 113, 161); stroke-width: 2;"></path><path transform="translate(149.2331029185868,10)" d="M2.7386127875258306,0A2.7386127875258306,2.7386127875258306,0,1,1,-2.7386127875258306,0A2.7386127875258306,2.7386127875258306,0,1,1,2.7386127875258306,0" style="fill: none; stroke: rgb(62, 97, 150); stroke-width: 2;"></path><path transform="translate(129.07817460317443,10)" d="M2.7386127875258306,0A2.7386127875258306,2.7386127875258306,0,1,1,-2.7386127875258306,0A2.7386127875258306,2.7386127875258306,0,1,1,2.7386127875258306,0" style="fill: none; stroke: rgb(41, 81, 138); stroke-width: 2;"></path><path transform="translate(115.80529953917036,10)" d="M2.7386127875258306,0A2.7386127875258306,2.7386127875258306,0,1,1,-2.7386127875258306,0A2.7386127875258306,2.7386127875258306,0,1,1,2.7386127875258306,0" style="fill: none; stroke: rgb(14, 66, 127); stroke-width: 2;"></path></g><g class="mark-group role-legend"><g transform="translate(218,0)"><path class="background" d="M0,0h150v81h-150Z" style="pointer-events: none; fill: none;"></path><g><g class="mark-group role-legend-entry"><g transform="translate(0,16)"><path class="background" d="M0,0h0v0h0Z" style="pointer-events: none; fill: none;"></path><g><g class="mark-rect role-legend-gradient" style="pointer-events: none;"><path d="M0,0h16v64h-16Z" style="fill: url(#gradient_0); stroke: #ddd; stroke-width: 0; opacity: 1;"></path></g><g class="mark-text role-legend-label" style="pointer-events: none;"><text text-anchor="start" transform="translate(18,62)" style="font-family: sans-serif; font-size: 10px; fill: #000; opacity: 1;">Jan 2010</text><text text-anchor="start" transform="translate(18,49.7624750499002)" style="font-family: sans-serif; font-size: 10px; fill: #000; opacity: 1;">Apr 2010</text><text text-anchor="start" transform="translate(18,32.3253493013972)" style="font-family: sans-serif; font-size: 10px; fill: #000; opacity: 1;">Jul 2010</text><text text-anchor="start" transform="translate(18,14.696606786427147)" style="font-family: sans-serif; font-size: 10px; fill: #000; opacity: 1;">Oct 2010</text></g></g></g></g><g class="mark-text role-legend-title" style="pointer-events: none;"><text text-anchor="start" transform="translate(0,9)" style="font-family: sans-serif; font-size: 11px; font-weight: bold; fill: #000; opacity: 1;">date (year-month)</text></g></g></g></g><g class="mark-group role-axis"><g transform="translate(0.5,20.5)"><path class="background" d="M0,0h0v0h0Z" style="pointer-events: none; fill: none;"></path><g><g class="mark-rule role-axis-tick" style="pointer-events: none;"><line transform="translate(0,0)" x2="0" y2="5" style="fill: none; stroke: #888; stroke-width: 1; opacity: 1;"></line><line transform="translate(29,0)" x2="0" y2="5" style="fill: none; stroke: #888; stroke-width: 1; opacity: 1;"></line><line transform="translate(57,0)" x2="0" y2="5" style="fill: none; stroke: #888; stroke-width: 1; opacity: 1;"></line><line transform="translate(86,0)" x2="0" y2="5" style="fill: none; stroke: #888; stroke-width: 1; opacity: 1;"></line><line transform="translate(114,0)" x2="0" y2="5" style="fill: none; stroke: #888; stroke-width: 1; opacity: 1;"></line><line transform="translate(143,0)" x2="0" y2="5" style="fill: none; stroke: #888; stroke-width: 1; opacity: 1;"></line><line transform="translate(171,0)" x2="0" y2="5" style="fill: none; stroke: #888; stroke-width: 1; opacity: 1;"></line><line transform="translate(200,0)" x2="0" y2="5" style="fill: none; stroke: #888; stroke-width: 1; opacity: 1;"></line></g><g class="mark-text role-axis-label" style="pointer-events: none;"><text text-anchor="start" transform="translate(0,15)" style="font-family: sans-serif; font-size: 10px; fill: #000; opacity: 1;">0</text><text text-anchor="middle" transform="translate(28.57142857142857,15)" style="font-family: sans-serif; font-size: 10px; fill: #000; opacity: 1;">10</text><text text-anchor="middle" transform="translate(57.14285714285714,15)" style="font-family: sans-serif; font-size: 10px; fill: #000; opacity: 1;">20</text><text text-anchor="middle" transform="translate(85.71428571428571,15)" style="font-family: sans-serif; font-size: 10px; fill: #000; opacity: 1;">30</text><text text-anchor="middle" transform="translate(114.28571428571428,15)" style="font-family: sans-serif; font-size: 10px; fill: #000; opacity: 1;">40</text><text text-anchor="middle" transform="translate(142.85714285714286,15)" style="font-family: sans-serif; font-size: 10px; fill: #000; opacity: 1;">50</text><text text-anchor="middle" transform="translate(171.42857142857142,15)" style="font-family: sans-serif; font-size: 10px; fill: #000; opacity: 1;">60</text><text text-anchor="end" transform="translate(200,15)" style="font-family: sans-serif; font-size: 10px; fill: #000; opacity: 1;">70</text></g><g class="mark-rule role-axis-domain" style="pointer-events: none;"><line transform="translate(0,0)" x2="200" y2="0" style="fill: none; stroke: #888; stroke-width: 1; opacity: 1;"></line></g><g class="mark-text role-axis-title" style="pointer-events: none;"><text text-anchor="middle" transform="translate(100,31)" style="font-family: sans-serif; font-size: 11px; font-weight: bold; fill: #000; opacity: 1;">Mean of temp</text></g></g></g></g></g></g></g></g></svg>