<svg class="marks" width="474" height="251" viewBox="0 0 474 251" version="1.1" xmlns="http://www.w3.org/2000/svg" xmlns:xlink="http://www.w3.org/1999/xlink"><defs><linearGradient id="gradient_0" x1="0" x2="0" y1="1" y2="0"><stop offset="0" stop-color="#440154"></stop><stop offset="0.04210526315789459" stop-color="#471063"></stop><stop offset="0.09473684210526301" stop-color="#482374"></stop><stop offset="0.14736842105263143" stop-color="#46337f"></stop><stop offset="0.19999999999999984" stop-color="#414487"></stop><stop offset="0.25263157894736826" stop-color="#3b528b"></stop><stop offset="0.3052631578947367" stop-color="#34618d"></stop><stop offset="0.3578947368421051" stop-color="#2e6e8e"></stop><stop offset="0.4105263157894735" stop-color="#297b8e"></stop><stop offset="0.46315789473684194" stop-color="#24878e"></stop><stop offset="0.5157894736842104" stop-color="#1f948c"></stop><stop offset="0.5684210526315788" stop-color="#1fa188"></stop><stop offset="0.6210526315789472" stop-color="#26ad81"></stop><stop offset="0.6736842105263157" stop-color="#38b977"></stop><stop offset="0.726315789473684" stop-color="#50c46a"></stop><stop offset="0.7789473684210525" stop-color="#6ece58"></stop><stop offset="0.8315789473684209" stop-color="#8ed645"></stop><stop offset="0.8842105263157893" stop-color="#b2dd2d"></stop><stop offset="0.9368421052631577" stop-color="#d5e21a"></stop><stop offset="0.9894736842105262" stop-color="#f8e621"></stop><stop offset="1" stop-color="#fde725"></stop></linearGradient></defs><g transform="translate(54,5)"><g class="mark-group role-frame root"><g transform="translate(0,0)"><path class="background" d="M0.5,0.5h300v200h-300Z" style="fill: none; stroke: #ddd;"></path><g><g class="mark-rect role-mark marks"><path d="M0.48387096774195015,0.8333333333333286h8.70967741935484v15.000000000000002h-8.70967741935484Z" style="fill: #440256;"></path><path d="M10.16129032258066,0.8333333333333286h8.70967741935484v15.000000000000002h-8.70967741935484Z" style="fill: #450457;"></path><path d="M19.83870967741937,0.8333333333333286h8.70967741935484v15.000000000000002h-8.70967741935484Z" style="fill: #46075a;"></path><path d="M29.51612903225808,0.8333333333333286h8.70967741935484v15.000000000000002h-8.70967741935484Z" style="fill: #46085c;"></path><path d="M39.19354838709679,0.8333333333333286h8.70967741935484v15.000000000000002h-8.70967741935484Z" style="fill: #470d60;"></path><path d="M48.8709677419355,0.8333333333333286h8.70967741935484v15.000000000000002h-8.70967741935484Z" style="fill: #470d60;"></path><path d="M58.548387096774206,0.8333333333333286h8.70967741935484v15.000000000000002h-8.70967741935484Z" style="fill: #470d60;"></path><path d="M68.22580645161293,0.8333333333333286h8.70967741935484v15.000000000000002h-8.70967741935484Z" style="fill: #470e61;"></path><path d="M77.90322580645163,0.8333333333333286h8.70967741935484v15.000000000000002h-8.70967741935484Z" style="fill: #471063;"></path><path d="M87.58064516129033,0.8333333333333286h8.70967741935484v15.000000000000002h-8.70967741935484Z" style="fill: #471365;"></path><path d="M97.25806451612905,0.8333333333333286h8.70967741935484v15.000000000000002h-8.70967741935484Z" style="fill: #481467;"></path><path d="M106.93548387096776,0.8333333333333286h8.70967741935484v15.000000000000002h-8.70967741935484Z" style="fill: #481668;"></path><path d="M116.61290322580646,0.8333333333333286h8.70967741935484v15.000000000000002h-8.70967741935484Z" style="fill: #48186a;"></path><path d="M126.29032258064518,0.8333333333333286h8.70967741935484v15.000000000000002h-8.70967741935484Z" style="fill: #481a6c;"></path><path d="M135.9677419354839,0.8333333333333286h8.70967741935484v15.000000000000002h-8.70967741935484Z" style="fill: #481b6d;"></path><path d="M145.6451612903226,0.8333333333333286h8.70967741935484v15.000000000000002h-8.70967741935484Z" style="fill: #481b6d;"></path><path d="M155.3225806451613,0.8333333333333286h8.70967741935484v15.000000000000002h-8.70967741935484Z" style="fill: #481d6f;"></path><path d="M165.00000000000003,0.8333333333333286h8.70967741935484v15.000000000000002h-8.70967741935484Z" style="fill: #481d6f;"></path><path d="M174.67741935483872,0.8333333333333286h8.70967741935484v15.000000000000002h-8.70967741935484Z" style="fill: #481f70;"></path><path d="M184.35483870967744,0.8333333333333286h8.70967741935484v15.000000000000002h-8.70967741935484Z" style="fill: #482071;"></path><path d="M194.03225806451616,0.8333333333333286h8.70967741935484v15.000000000000002h-8.70967741935484Z" style="fill: #482071;"></path><path d="M203.70967741935485,0.8333333333333286h8.70967741935484v15.000000000000002h-8.70967741935484Z" style="fill: #482576;"></path><path d="M213.38709677419357,0.8333333333333286h8.70967741935484v15.000000000000002h-8.70967741935484Z" style="fill: #482878;"></path><path d="M223.06451612903228,0.8333333333333286h8.70967741935484v15.000000000000002h-8.70967741935484Z" style="fill: #482878;"></path><path d="M232.74193548387098,0.8333333333333286h8.70967741935484v15.000000000000002h-8.70967741935484Z" style="fill: #482979;"></path><path d="M242.4193548387097,0.8333333333333286h8.70967741935484v15.000000000000002h-8.70967741935484Z" style="fill: #472a7a;"></path><path d="M252.0967741935484,0.8333333333333286h8.70967741935484v15.000000000000002h-8.70967741935484Z" style="fill: #472d7b;"></path><path d="M261.77419354838713,0.8333333333333286h8.70967741935484v15.000000000000002h-8.70967741935484Z" style="fill: #46307e;"></path><path d="M271.45161290322585,0.8333333333333286h8.70967741935484v15.000000000000002h-8.70967741935484Z" style="fill: #46337f;"></path><path d="M281.1290322580645,0.8333333333333286h8.70967741935484v15.000000000000002h-8.70967741935484Z" style="fill: #453581;"></path><path d="M290.80645161290323,0.8333333333333286h8.70967741935484v15.000000000000002h-8.70967741935484Z" style="fill: #453781;"></path><path d="M0.48387096774195015,17.499999999999996h8.70967741935484v15.000000000000002h-8.70967741935484Z" style="fill: #453882;"></path><path d="M10.16129032258066,17.499999999999996h8.70967741935484v15.000000000000002h-8.70967741935484Z" style="fill: #443a83;"></path><path d="M19.83870967741937,17.499999999999996h8.70967741935484v15.000000000000002h-8.70967741935484Z" style="fill: #443b84;"></path><path d="M29.51612903225808,17.499999999999996h8.70967741935484v15.000000000000002h-8.70967741935484Z" style="fill: #433d84;"></path><path d="M39.19354838709679,17.499999999999996h8.70967741935484v15.000000000000002h-8.70967741935484Z" style="fill: #424086;"></path><path d="M48.8709677419355,17.499999999999996h8.70967741935484v15.000000000000002h-8.70967741935484Z" style="fill: #424186;"></path><path d="M58.548387096774206,17.499999999999996h8.70967741935484v15.000000000000002h-8.70967741935484Z" style="fill: #414487;"></path><path d="M68.22580645161293,17.499999999999996h8.70967741935484v15.000000000000002h-8.70967741935484Z" style="fill: #404588;"></path><path d="M77.90322580645163,17.499999999999996h8.70967741935484v15.000000000000002h-8.70967741935484Z" style="fill: #404688;"></path><path d="M87.58064516129033,17.499999999999996h8.70967741935484v15.000000000000002h-8.70967741935484Z" style="fill: #404688;"></path><path d="M97.25806451612905,17.499999999999996h8.70967741935484v15.000000000000002h-8.70967741935484Z" style="fill: #404688;"></path><path d="M106.93548387096776,17.499999999999996h8.70967741935484v15.000000000000002h-8.70967741935484Z" style="fill: #404688;"></path><path d="M116.61290322580646,17.499999999999996h8.70967741935484v15.000000000000002h-8.70967741935484Z" style="fill: #3f4889;"></path><path d="M126.29032258064518,17.499999999999996h8.70967741935484v15.000000000000002h-8.70967741935484Z" style="fill: #3e4a89;"></path><path d="M135.9677419354839,17.499999999999996h8.70967741935484v15.000000000000002h-8.70967741935484Z" style="fill: #3d4d8a;"></path><path d="M145.6451612903226,17.499999999999996h8.70967741935484v15.000000000000002h-8.70967741935484Z" style="fill: #3d4e8a;"></path><path d="M155.3225806451613,17.499999999999996h8.70967741935484v15.000000000000002h-8.70967741935484Z" style="fill: #3c4f8a;"></path><path d="M165.00000000000003,17.499999999999996h8.70967741935484v15.000000000000002h-8.70967741935484Z" style="fill: #3b518b;"></path><path d="M174.67741935483872,17.499999999999996h8.70967741935484v15.000000000000002h-8.70967741935484Z" style="fill: #3b528b;"></path><path d="M184.35483870967744,17.499999999999996h8.70967741935484v15.000000000000002h-8.70967741935484Z" style="fill: #3a548c;"></path><path d="M194.03225806451616,17.499999999999996h8.70967741935484v15.000000000000002h-8.70967741935484Z" style="fill: #39558c;"></path><path d="M203.70967741935485,17.499999999999996h8.70967741935484v15.000000000000002h-8.70967741935484Z" style="fill: #39558c;"></path><path d="M213.38709677419357,17.499999999999996h8.70967741935484v15.000000000000002h-8.70967741935484Z" style="fill: #39568c;"></path><path d="M223.06451612903228,17.499999999999996h8.70967741935484v15.000000000000002h-8.70967741935484Z" style="fill: #38598c;"></path><path d="M232.74193548387098,17.499999999999996h8.70967741935484v15.000000000000002h-8.70967741935484Z" style="fill: #38598c;"></path><path d="M242.4193548387097,17.499999999999996h8.70967741935484v15.000000000000002h-8.70967741935484Z" style="fill: #375a8c;"></path><path d="M252.0967741935484,17.499999999999996h8.70967741935484v15.000000000000002h-8.70967741935484Z" style="fill: #375a8c;"></path><path d="M261.77419354838713,17.499999999999996h8.70967741935484v15.000000000000002h-8.70967741935484Z" style="fill: #375b8d;"></path><path d="M0.48387096774195015,34.166666666666664h8.70967741935484v15.000000000000002h-8.70967741935484Z" style="fill: #355e8d;"></path><path d="M10.16129032258066,34.166666666666664h8.70967741935484v15.000000000000002h-8.70967741935484Z" style="fill: #355e8d;"></path><path d="M19.83870967741937,34.166666666666664h8.70967741935484v15.000000000000002h-8.70967741935484Z" style="fill: #34618d;"></path><path d="M29.51612903225808,34.166666666666664h8.70967741935484v15.000000000000002h-8.70967741935484Z" style="fill: #33628d;"></path><path d="M39.19354838709679,34.166666666666664h8.70967741935484v15.000000000000002h-8.70967741935484Z" style="fill: #33628d;"></path><path d="M48.8709677419355,34.166666666666664h8.70967741935484v15.000000000000002h-8.70967741935484Z" style="fill: #33638d;"></path><path d="M58.548387096774206,34.166666666666664h8.70967741935484v15.000000000000002h-8.70967741935484Z" style="fill: #33638d;"></path><path d="M68.22580645161293,34.166666666666664h8.70967741935484v15.000000000000002h-8.70967741935484Z" style="fill: #32658e;"></path><path d="M77.90322580645163,34.166666666666664h8.70967741935484v15.000000000000002h-8.70967741935484Z" style="fill: #31668e;"></path><path d="M87.58064516129033,34.166666666666664h8.70967741935484v15.000000000000002h-8.70967741935484Z" style="fill: #31678e;"></path><path d="M97.25806451612905,34.166666666666664h8.70967741935484v15.000000000000002h-8.70967741935484Z" style="fill: #306a8e;"></path><path d="M106.93548387096776,34.166666666666664h8.70967741935484v15.000000000000002h-8.70967741935484Z" style="fill: #2e6d8e;"></path><path d="M116.61290322580646,34.166666666666664h8.70967741935484v15.000000000000002h-8.70967741935484Z" style="fill: #2d718e;"></path><path d="M126.29032258064518,34.166666666666664h8.70967741935484v15.000000000000002h-8.70967741935484Z" style="fill: #2d718e;"></path><path d="M135.9677419354839,34.166666666666664h8.70967741935484v15.000000000000002h-8.70967741935484Z" style="fill: #2d718e;"></path><path d="M145.6451612903226,34.166666666666664h8.70967741935484v15.000000000000002h-8.70967741935484Z" style="fill: #2d718e;"></path><path d="M155.3225806451613,34.166666666666664h8.70967741935484v15.000000000000002h-8.70967741935484Z" style="fill: #2c718e;"></path><path d="M165.00000000000003,34.166666666666664h8.70967741935484v15.000000000000002h-8.70967741935484Z" style="fill: #2c718e;"></path><path d="M174.67741935483872,34.166666666666664h8.70967741935484v15.000000000000002h-8.70967741935484Z" style="fill: #2d718e;"></path><path d="M184.35483870967744,34.166666666666664h8.70967741935484v15.000000000000002h-8.70967741935484Z" style="fill: #2c738e;"></path><path d="M194.03225806451616,34.166666666666664h8.70967741935484v15.000000000000002h-8.70967741935484Z" style="fill: #2b748e;"></path><path d="M203.70967741935485,34.166666666666664h8.70967741935484v15.000000000000002h-8.70967741935484Z" style="fill: #2b758e;"></path><path d="M213.38709677419357,34.166666666666664h8.70967741935484v15.000000000000002h-8.70967741935484Z" style="fill: #2a788e;"></path><path d="M223.06451612903228,34.166666666666664h8.70967741935484v15.000000000000002h-8.70967741935484Z" style="fill: #29798e;"></path><path d="M232.74193548387098,34.166666666666664h8.70967741935484v15.000000000000002h-8.70967741935484Z" style="fill: #29798e;"></path><path d="M242.4193548387097,34.166666666666664h8.70967741935484v15.000000000000002h-8.70967741935484Z" style="fill: #29798e;"></path><path d="M252.0967741935484,34.166666666666664h8.70967741935484v15.000000000000002h-8.70967741935484Z" style="fill: #29798e;"></path><path d="M261.77419354838713,34.166666666666664h8.70967741935484v15.000000000000002h-8.70967741935484Z" style="fill: #29798e;"></path><path d="M271.45161290322585,34.166666666666664h8.70967741935484v15.000000000000002h-8.70967741935484Z" style="fill: #297b8e;"></path><path d="M281.1290322580645,34.166666666666664h8.70967741935484v15.000000000000002h-8.70967741935484Z" style="fill: #287d8e;"></path><path d="M290.80645161290323,34.166666666666664h8.70967741935484v15.000000000000002h-8.70967741935484Z" style="fill: #277f8e;"></path><path d="M0.48387096774195015,50.83333333333333h8.70967741935484v15.000000000000002h-8.70967741935484Z" style="fill: #27808e;"></path><path d="M10.16129032258066,50.83333333333333h8.70967741935484v15.000000000000002h-8.70967741935484Z" style="fill: #26828e;"></path><path d="M19.83870967741937,50.83333333333333h8.70967741935484v15.000000000000002h-8.70967741935484Z" style="fill: #26828e;"></path><path d="M29.51612903225808,50.83333333333333h8.70967741935484v15.000000000000002h-8.70967741935484Z" style="fill: #26828e;"></path><path d="M39.19354838709679,50.83333333333333h8.70967741935484v15.000000000000002h-8.70967741935484Z" style="fill: #25838e;"></path><path d="M48.8709677419355,50.83333333333333h8.70967741935484v15.000000000000002h-8.70967741935484Z" style="fill: #25848e;"></path><path d="M58.548387096774206,50.83333333333333h8.70967741935484v15.000000000000002h-8.70967741935484Z" style="fill: #24868e;"></path><path d="M68.22580645161293,50.83333333333333h8.70967741935484v15.000000000000002h-8.70967741935484Z" style="fill: #24868e;"></path><path d="M77.90322580645163,50.83333333333333h8.70967741935484v15.000000000000002h-8.70967741935484Z" style="fill: #24868e;"></path><path d="M87.58064516129033,50.83333333333333h8.70967741935484v15.000000000000002h-8.70967741935484Z" style="fill: #24868e;"></path><path d="M97.25806451612905,50.83333333333333h8.70967741935484v15.000000000000002h-8.70967741935484Z" style="fill: #24878e;"></path><path d="M106.93548387096776,50.83333333333333h8.70967741935484v15.000000000000002h-8.70967741935484Z" style="fill: #238a8d;"></path><path d="M116.61290322580646,50.83333333333333h8.70967741935484v15.000000000000002h-8.70967741935484Z" style="fill: #238a8d;"></path><path d="M126.29032258064518,50.83333333333333h8.70967741935484v15.000000000000002h-8.70967741935484Z" style="fill: #228b8d;"></path><path d="M135.9677419354839,50.83333333333333h8.70967741935484v15.000000000000002h-8.70967741935484Z" style="fill: #218e8d;"></path><path d="M145.6451612903226,50.83333333333333h8.70967741935484v15.000000000000002h-8.70967741935484Z" style="fill: #218f8d;"></path><path d="M155.3225806451613,50.83333333333333h8.70967741935484v15.000000000000002h-8.70967741935484Z" style="fill: #218f8d;"></path><path d="M165.00000000000003,50.83333333333333h8.70967741935484v15.000000000000002h-8.70967741935484Z" style="fill: #20928c;"></path><path d="M174.67741935483872,50.83333333333333h8.70967741935484v15.000000000000002h-8.70967741935484Z" style="fill: #20928c;"></path><path d="M184.35483870967744,50.83333333333333h8.70967741935484v15.000000000000002h-8.70967741935484Z" style="fill: #1f948c;"></path><path d="M194.03225806451616,50.83333333333333h8.70967741935484v15.000000000000002h-8.70967741935484Z" style="fill: #1f948c;"></path><path d="M203.70967741935485,50.83333333333333h8.70967741935484v15.000000000000002h-8.70967741935484Z" style="fill: #1f958b;"></path><path d="M213.38709677419357,50.83333333333333h8.70967741935484v15.000000000000002h-8.70967741935484Z" style="fill: #1f998a;"></path><path d="M223.06451612903228,50.83333333333333h8.70967741935484v15.000000000000002h-8.70967741935484Z" style="fill: #1f9a8a;"></path><path d="M232.74193548387098,50.83333333333333h8.70967741935484v15.000000000000002h-8.70967741935484Z" style="fill: #1e9d89;"></path><path d="M242.4193548387097,50.83333333333333h8.70967741935484v15.000000000000002h-8.70967741935484Z" style="fill: #1f9e89;"></path><path d="M252.0967741935484,50.83333333333333h8.70967741935484v15.000000000000002h-8.70967741935484Z" style="fill: #1fa088;"></path><path d="M261.77419354838713,50.83333333333333h8.70967741935484v15.000000000000002h-8.70967741935484Z" style="fill: #1fa187;"></path><path d="M271.45161290322585,50.83333333333333h8.70967741935484v15.000000000000002h-8.70967741935484Z" style="fill: #20a386;"></path><path d="M281.1290322580645,50.83333333333333h8.70967741935484v15.000000000000002h-8.70967741935484Z" style="fill: #20a486;"></path><path d="M0.48387096774195015,67.5h8.70967741935484v15.000000000000002h-8.70967741935484Z" style="fill: #21a585;"></path><path d="M10.16129032258066,67.5h8.70967741935484v15.000000000000002h-8.70967741935484Z" style="fill: #22a785;"></path><path d="M19.83870967741937,67.5h8.70967741935484v15.000000000000002h-8.70967741935484Z" style="fill: #22a785;"></path><path d="M29.51612903225808,67.5h8.70967741935484v15.000000000000002h-8.70967741935484Z" style="fill: #22a884;"></path><path d="M39.19354838709679,67.5h8.70967741935484v15.000000000000002h-8.70967741935484Z" style="fill: #22a785;"></path><path d="M48.8709677419355,67.5h8.70967741935484v15.000000000000002h-8.70967741935484Z" style="fill: #22a785;"></path><path d="M58.548387096774206,67.5h8.70967741935484v15.000000000000002h-8.70967741935484Z" style="fill: #22a785;"></path><path d="M68.22580645161293,67.5h8.70967741935484v15.000000000000002h-8.70967741935484Z" style="fill: #22a884;"></path><path d="M77.90322580645163,67.5h8.70967741935484v15.000000000000002h-8.70967741935484Z" style="fill: #22a884;"></path><path d="M87.58064516129033,67.5h8.70967741935484v15.000000000000002h-8.70967741935484Z" style="fill: #23a983;"></path><path d="M97.25806451612905,67.5h8.70967741935484v15.000000000000002h-8.70967741935484Z" style="fill: #23a983;"></path><path d="M106.93548387096776,67.5h8.70967741935484v15.000000000000002h-8.70967741935484Z" style="fill: #25ab82;"></path><path d="M116.61290322580646,67.5h8.70967741935484v15.000000000000002h-8.70967741935484Z" style="fill: #25ac82;"></path><path d="M126.29032258064518,67.5h8.70967741935484v15.000000000000002h-8.70967741935484Z" style="fill: #26ad81;"></path><path d="M135.9677419354839,67.5h8.70967741935484v15.000000000000002h-8.70967741935484Z" style="fill: #28ae80;"></path><path d="M145.6451612903226,67.5h8.70967741935484v15.000000000000002h-8.70967741935484Z" style="fill: #29af7f;"></path><path d="M155.3225806451613,67.5h8.70967741935484v15.000000000000002h-8.70967741935484Z" style="fill: #2db27d;"></path><path d="M165.00000000000003,67.5h8.70967741935484v15.000000000000002h-8.70967741935484Z" style="fill: #2eb37c;"></path><path d="M174.67741935483872,67.5h8.70967741935484v15.000000000000002h-8.70967741935484Z" style="fill: #2eb37c;"></path><path d="M184.35483870967744,67.5h8.70967741935484v15.000000000000002h-8.70967741935484Z" style="fill: #31b57b;"></path><path d="M194.03225806451616,67.5h8.70967741935484v15.000000000000002h-8.70967741935484Z" style="fill: #32b67a;"></path><path d="M203.70967741935485,67.5h8.70967741935484v15.000000000000002h-8.70967741935484Z" style="fill: #34b679;"></path><path d="M213.38709677419357,67.5h8.70967741935484v15.000000000000002h-8.70967741935484Z" style="fill: #37b878;"></path><path d="M223.06451612903228,67.5h8.70967741935484v15.000000000000002h-8.70967741935484Z" style="fill: #3aba76;"></path><path d="M232.74193548387098,67.5h8.70967741935484v15.000000000000002h-8.70967741935484Z" style="fill: #3dbc74;"></path><path d="M242.4193548387097,67.5h8.70967741935484v15.000000000000002h-8.70967741935484Z" style="fill: #3fbc73;"></path><path d="M252.0967741935484,67.5h8.70967741935484v15.000000000000002h-8.70967741935484Z" style="fill: #3dbc74;"></path><path d="M261.77419354838713,67.5h8.70967741935484v15.000000000000002h-8.70967741935484Z" style="fill: #3fbc73;"></path><path d="M271.45161290322585,67.5h8.70967741935484v15.000000000000002h-8.70967741935484Z" style="fill: #40bd72;"></path><path d="M281.1290322580645,67.5h8.70967741935484v15.000000000000002h-8.70967741935484Z" style="fill: #40bd72;"></path><path d="M290.80645161290323,67.5h8.70967741935484v15.000000000000002h-8.70967741935484Z" style="fill: #3fbc73;"></path><path d="M0.48387096774195015,84.16666666666667h8.70967741935484v15.000000000000002h-8.70967741935484Z" style="fill: #40bd72;"></path><path d="M10.16129032258066,84.16666666666667h8.70967741935484v15.000000000000002h-8.70967741935484Z" style="fill: #46c06f;"></path><path d="M19.83870967741937,84.16666666666667h8.70967741935484v15.000000000000002h-8.70967741935484Z" style="fill: #48c16e;"></path><path d="M29.51612903225808,84.16666666666667h8.70967741935484v15.000000000000002h-8.70967741935484Z" style="fill: #4cc26c;"></path><path d="M39.19354838709679,84.16666666666667h8.70967741935484v15.000000000000002h-8.70967741935484Z" style="fill: #4ec36b;"></path><path d="M48.8709677419355,84.16666666666667h8.70967741935484v15.000000000000002h-8.70967741935484Z" style="fill: #54c568;"></path><path d="M58.548387096774206,84.16666666666667h8.70967741935484v15.000000000000002h-8.70967741935484Z" style="fill: #58c765;"></path><path d="M68.22580645161293,84.16666666666667h8.70967741935484v15.000000000000002h-8.70967741935484Z" style="fill: #58c765;"></path><path d="M77.90322580645163,84.16666666666667h8.70967741935484v15.000000000000002h-8.70967741935484Z" style="fill: #5cc863;"></path><path d="M87.58064516129033,84.16666666666667h8.70967741935484v15.000000000000002h-8.70967741935484Z" style="fill: #63cb5f;"></path><path d="M97.25806451612905,84.16666666666667h8.70967741935484v15.000000000000002h-8.70967741935484Z" style="fill: #6ccd5a;"></path><path d="M106.93548387096776,84.16666666666667h8.70967741935484v15.000000000000002h-8.70967741935484Z" style="fill: #6ece58;"></path><path d="M116.61290322580646,84.16666666666667h8.70967741935484v15.000000000000002h-8.70967741935484Z" style="fill: #70cf57;"></path><path d="M126.29032258064518,84.16666666666667h8.70967741935484v15.000000000000002h-8.70967741935484Z" style="fill: #77d153;"></path><path d="M135.9677419354839,84.16666666666667h8.70967741935484v15.000000000000002h-8.70967741935484Z" style="fill: #84d44b;"></path><path d="M145.6451612903226,84.16666666666667h8.70967741935484v15.000000000000002h-8.70967741935484Z" style="fill: #89d548;"></path><path d="M155.3225806451613,84.16666666666667h8.70967741935484v15.000000000000002h-8.70967741935484Z" style="fill: #8bd646;"></path><path d="M165.00000000000003,84.16666666666667h8.70967741935484v15.000000000000002h-8.70967741935484Z" style="fill: #93d741;"></path><path d="M174.67741935483872,84.16666666666667h8.70967741935484v15.000000000000002h-8.70967741935484Z" style="fill: #98d83e;"></path><path d="M184.35483870967744,84.16666666666667h8.70967741935484v15.000000000000002h-8.70967741935484Z" style="fill: #a0da39;"></path><path d="M194.03225806451616,84.16666666666667h8.70967741935484v15.000000000000002h-8.70967741935484Z" style="fill: #a0da39;"></path><path d="M203.70967741935485,84.16666666666667h8.70967741935484v15.000000000000002h-8.70967741935484Z" style="fill: #a0da39;"></path><path d="M213.38709677419357,84.16666666666667h8.70967741935484v15.000000000000002h-8.70967741935484Z" style="fill: #a2da37;"></path><path d="M223.06451612903228,84.16666666666667h8.70967741935484v15.000000000000002h-8.70967741935484Z" style="fill: #a8db34;"></path><path d="M232.74193548387098,84.16666666666667h8.70967741935484v15.000000000000002h-8.70967741935484Z" style="fill: #a8db34;"></path><path d="M242.4193548387097,84.16666666666667h8.70967741935484v15.000000000000002h-8.70967741935484Z" style="fill: #a2da37;"></path><path d="M252.0967741935484,84.16666666666667h8.70967741935484v15.000000000000002h-8.70967741935484Z" style="fill: #a8db34;"></path><path d="M261.77419354838713,84.16666666666667h8.70967741935484v15.000000000000002h-8.70967741935484Z" style="fill: #a8db34;"></path><path d="M271.45161290322585,84.16666666666667h8.70967741935484v15.000000000000002h-8.70967741935484Z" style="fill: #a2da37;"></path><path d="M281.1290322580645,84.16666666666667h8.70967741935484v15.000000000000002h-8.70967741935484Z" style="fill: #a2da37;"></path><path d="M0.48387096774195015,100.83333333333333h8.70967741935484v15.000000000000002h-8.70967741935484Z" style="fill: #aadc32;"></path><path d="M10.16129032258066,100.83333333333333h8.70967741935484v15.000000000000002h-8.70967741935484Z" style="fill: #b0dd2f;"></path><path d="M19.83870967741937,100.83333333333333h8.70967741935484v15.000000000000002h-8.70967741935484Z" style="fill: #aadc32;"></path><path d="M29.51612903225808,100.83333333333333h8.70967741935484v15.000000000000002h-8.70967741935484Z" style="fill: #b0dd2f;"></path><path d="M39.19354838709679,100.83333333333333h8.70967741935484v15.000000000000002h-8.70967741935484Z" style="fill: #b2dd2d;"></path><path d="M48.8709677419355,100.83333333333333h8.70967741935484v15.000000000000002h-8.70967741935484Z" style="fill: #bade28;"></path><path d="M58.548387096774206,100.83333333333333h8.70967741935484v15.000000000000002h-8.70967741935484Z" style="fill: #bddf26;"></path><path d="M68.22580645161293,100.83333333333333h8.70967741935484v15.000000000000002h-8.70967741935484Z" style="fill: #bddf26;"></path><path d="M77.90322580645163,100.83333333333333h8.70967741935484v15.000000000000002h-8.70967741935484Z" style="fill: #b5de2b;"></path><path d="M87.58064516129033,100.83333333333333h8.70967741935484v15.000000000000002h-8.70967741935484Z" style="fill: #bddf26;"></path><path d="M97.25806451612905,100.83333333333333h8.70967741935484v15.000000000000002h-8.70967741935484Z" style="fill: #c0df25;"></path><path d="M106.93548387096776,100.83333333333333h8.70967741935484v15.000000000000002h-8.70967741935484Z" style="fill: #c0df25;"></path><path d="M116.61290322580646,100.83333333333333h8.70967741935484v15.000000000000002h-8.70967741935484Z" style="fill: #c0df25;"></path><path d="M126.29032258064518,100.83333333333333h8.70967741935484v15.000000000000002h-8.70967741935484Z" style="fill: #c0df25;"></path><path d="M135.9677419354839,100.83333333333333h8.70967741935484v15.000000000000002h-8.70967741935484Z" style="fill: #c0df25;"></path><path d="M145.6451612903226,100.83333333333333h8.70967741935484v15.000000000000002h-8.70967741935484Z" style="fill: #bddf26;"></path><path d="M155.3225806451613,100.83333333333333h8.70967741935484v15.000000000000002h-8.70967741935484Z" style="fill: #bade28;"></path><path d="M165.00000000000003,100.83333333333333h8.70967741935484v15.000000000000002h-8.70967741935484Z" style="fill: #bade28;"></path><path d="M174.67741935483872,100.83333333333333h8.70967741935484v15.000000000000002h-8.70967741935484Z" style="fill: #bade28;"></path><path d="M184.35483870967744,100.83333333333333h8.70967741935484v15.000000000000002h-8.70967741935484Z" style="fill: #b2dd2d;"></path><path d="M194.03225806451616,100.83333333333333h8.70967741935484v15.000000000000002h-8.70967741935484Z" style="fill: #a8db34;"></path><path d="M203.70967741935485,100.83333333333333h8.70967741935484v15.000000000000002h-8.70967741935484Z" style="fill: #a2da37;"></path><path d="M213.38709677419357,100.83333333333333h8.70967741935484v15.000000000000002h-8.70967741935484Z" style="fill: #a2da37;"></path><path d="M223.06451612903228,100.83333333333333h8.70967741935484v15.000000000000002h-8.70967741935484Z" style="fill: #a8db34;"></path><path d="M232.74193548387098,100.83333333333333h8.70967741935484v15.000000000000002h-8.70967741935484Z" style="fill: #aadc32;"></path><path d="M242.4193548387097,100.83333333333333h8.70967741935484v15.000000000000002h-8.70967741935484Z" style="fill: #a8db34;"></path><path d="M252.0967741935484,100.83333333333333h8.70967741935484v15.000000000000002h-8.70967741935484Z" style="fill: #a8db34;"></path><path d="M261.77419354838713,100.83333333333333h8.70967741935484v15.000000000000002h-8.70967741935484Z" style="fill: #a8db34;"></path><path d="M271.45161290322585,100.83333333333333h8.70967741935484v15.000000000000002h-8.70967741935484Z" style="fill: #aadc32;"></path><path d="M281.1290322580645,100.83333333333333h8.70967741935484v15.000000000000002h-8.70967741935484Z" style="fill: #b0dd2f;"></path><path d="M290.80645161290323,100.83333333333333h8.70967741935484v15.000000000000002h-8.70967741935484Z" style="fill: #b2dd2d;"></path><path d="M0.48387096774195015,117.5h8.70967741935484v15.000000000000002h-8.70967741935484Z" style="fill: #b5de2b;"></path><path d="M10.16129032258066,117.5h8.70967741935484v15.000000000000002h-8.70967741935484Z" style="fill: #bddf26;"></path><path d="M19.83870967741937,117.5h8.70967741935484v15.000000000000002h-8.70967741935484Z" style="fill: #bddf26;"></path><path d="M29.51612903225808,117.5h8.70967741935484v15.000000000000002h-8.70967741935484Z" style="fill: #c0df25;"></path><path d="M39.19354838709679,117.5h8.70967741935484v15.000000000000002h-8.70967741935484Z" style="fill: #cae11f;"></path><path d="M48.8709677419355,117.5h8.70967741935484v15.000000000000002h-8.70967741935484Z" style="fill: #d0e11c;"></path><path d="M58.548387096774206,117.5h8.70967741935484v15.000000000000002h-8.70967741935484Z" style="fill: #cae11f;"></path><path d="M68.22580645161293,117.5h8.70967741935484v15.000000000000002h-8.70967741935484Z" style="fill: #cae11f;"></path><path d="M77.90322580645163,117.5h8.70967741935484v15.000000000000002h-8.70967741935484Z" style="fill: #cae11f;"></path><path d="M87.58064516129033,117.5h8.70967741935484v15.000000000000002h-8.70967741935484Z" style="fill: #cae11f;"></path><path d="M97.25806451612905,117.5h8.70967741935484v15.000000000000002h-8.70967741935484Z" style="fill: #cae11f;"></path><path d="M106.93548387096776,117.5h8.70967741935484v15.000000000000002h-8.70967741935484Z" style="fill: #c8e020;"></path><path d="M116.61290322580646,117.5h8.70967741935484v15.000000000000002h-8.70967741935484Z" style="fill: #c8e020;"></path><path d="M126.29032258064518,117.5h8.70967741935484v15.000000000000002h-8.70967741935484Z" style="fill: #c5e021;"></path><path d="M135.9677419354839,117.5h8.70967741935484v15.000000000000002h-8.70967741935484Z" style="fill: #c5e021;"></path><path d="M145.6451612903226,117.5h8.70967741935484v15.000000000000002h-8.70967741935484Z" style="fill: #c5e021;"></path><path d="M155.3225806451613,117.5h8.70967741935484v15.000000000000002h-8.70967741935484Z" style="fill: #c0df25;"></path><path d="M165.00000000000003,117.5h8.70967741935484v15.000000000000002h-8.70967741935484Z" style="fill: #c0df25;"></path><path d="M174.67741935483872,117.5h8.70967741935484v15.000000000000002h-8.70967741935484Z" style="fill: #c5e021;"></path><path d="M184.35483870967744,117.5h8.70967741935484v15.000000000000002h-8.70967741935484Z" style="fill: #c8e020;"></path><path d="M194.03225806451616,117.5h8.70967741935484v15.000000000000002h-8.70967741935484Z" style="fill: #c8e020;"></path><path d="M203.70967741935485,117.5h8.70967741935484v15.000000000000002h-8.70967741935484Z" style="fill: #cae11f;"></path><path d="M213.38709677419357,117.5h8.70967741935484v15.000000000000002h-8.70967741935484Z" style="fill: #cae11f;"></path><path d="M223.06451612903228,117.5h8.70967741935484v15.000000000000002h-8.70967741935484Z" style="fill: #d0e11c;"></path><path d="M232.74193548387098,117.5h8.70967741935484v15.000000000000002h-8.70967741935484Z" style="fill: #d5e21a;"></path><path d="M242.4193548387097,117.5h8.70967741935484v15.000000000000002h-8.70967741935484Z" style="fill: #dfe318;"></path><path d="M252.0967741935484,117.5h8.70967741935484v15.000000000000002h-8.70967741935484Z" style="fill: #e7e419;"></path><path d="M261.77419354838713,117.5h8.70967741935484v15.000000000000002h-8.70967741935484Z" style="fill: #efe51c;"></path><path d="M271.45161290322585,117.5h8.70967741935484v15.000000000000002h-8.70967741935484Z" style="fill: #f4e61e;"></path><path d="M281.1290322580645,117.5h8.70967741935484v15.000000000000002h-8.70967741935484Z" style="fill: #fbe723;"></path><path d="M290.80645161290323,117.5h8.70967741935484v15.000000000000002h-8.70967741935484Z" style="fill: #fde725;"></path><path d="M0.48387096774195015,134.16666666666669h8.70967741935484v15.000000000000002h-8.70967741935484Z" style="fill: #fde725;"></path><path d="M10.16129032258066,134.16666666666669h8.70967741935484v15.000000000000002h-8.70967741935484Z" style="fill: #f8e621;"></path><path d="M19.83870967741937,134.16666666666669h8.70967741935484v15.000000000000002h-8.70967741935484Z" style="fill: #f8e621;"></path><path d="M29.51612903225808,134.16666666666669h8.70967741935484v15.000000000000002h-8.70967741935484Z" style="fill: #f8e621;"></path><path d="M39.19354838709679,134.16666666666669h8.70967741935484v15.000000000000002h-8.70967741935484Z" style="fill: #f4e61e;"></path><path d="M48.8709677419355,134.16666666666669h8.70967741935484v15.000000000000002h-8.70967741935484Z" style="fill: #f8e621;"></path><path d="M58.548387096774206,134.16666666666669h8.70967741935484v15.000000000000002h-8.70967741935484Z" style="fill: #f1e51d;"></path><path d="M68.22580645161293,134.16666666666669h8.70967741935484v15.000000000000002h-8.70967741935484Z" style="fill: #efe51c;"></path><path d="M77.90322580645163,134.16666666666669h8.70967741935484v15.000000000000002h-8.70967741935484Z" style="fill: #e7e419;"></path><path d="M87.58064516129033,134.16666666666669h8.70967741935484v15.000000000000002h-8.70967741935484Z" style="fill: #dfe318;"></path><path d="M97.25806451612905,134.16666666666669h8.70967741935484v15.000000000000002h-8.70967741935484Z" style="fill: #dfe318;"></path><path d="M106.93548387096776,134.16666666666669h8.70967741935484v15.000000000000002h-8.70967741935484Z" style="fill: #dfe318;"></path><path d="M116.61290322580646,134.16666666666669h8.70967741935484v15.000000000000002h-8.70967741935484Z" style="fill: #dfe318;"></path><path d="M126.29032258064518,134.16666666666669h8.70967741935484v15.000000000000002h-8.70967741935484Z" style="fill: #dde318;"></path><path d="M135.9677419354839,134.16666666666669h8.70967741935484v15.000000000000002h-8.70967741935484Z" style="fill: #dae319;"></path><path d="M145.6451612903226,134.16666666666669h8.70967741935484v15.000000000000002h-8.70967741935484Z" style="fill: #d2e21b;"></path><path d="M155.3225806451613,134.16666666666669h8.70967741935484v15.000000000000002h-8.70967741935484Z" style="fill: #dae319;"></path><path d="M165.00000000000003,134.16666666666669h8.70967741935484v15.000000000000002h-8.70967741935484Z" style="fill: #dae319;"></path><path d="M174.67741935483872,134.16666666666669h8.70967741935484v15.000000000000002h-8.70967741935484Z" style="fill: #dae319;"></path><path d="M184.35483870967744,134.16666666666669h8.70967741935484v15.000000000000002h-8.70967741935484Z" style="fill: #dae319;"></path><path d="M194.03225806451616,134.16666666666669h8.70967741935484v15.000000000000002h-8.70967741935484Z" style="fill: #dae319;"></path><path d="M203.70967741935485,134.16666666666669h8.70967741935484v15.000000000000002h-8.70967741935484Z" style="fill: #dde318;"></path><path d="M213.38709677419357,134.16666666666669h8.70967741935484v15.000000000000002h-8.70967741935484Z" style="fill: #e5e419;"></path><path d="M223.06451612903228,134.16666666666669h8.70967741935484v15.000000000000002h-8.70967741935484Z" style="fill: #dfe318;"></path><path d="M232.74193548387098,134.16666666666669h8.70967741935484v15.000000000000002h-8.70967741935484Z" style="fill: #dae319;"></path><path d="M242.4193548387097,134.16666666666669h8.70967741935484v15.000000000000002h-8.70967741935484Z" style="fill: #d2e21b;"></path><path d="M252.0967741935484,134.16666666666669h8.70967741935484v15.000000000000002h-8.70967741935484Z" style="fill: #cae11f;"></path><path d="M261.77419354838713,134.16666666666669h8.70967741935484v15.000000000000002h-8.70967741935484Z" style="fill: #c8e020;"></path><path d="M271.45161290322585,134.16666666666669h8.70967741935484v15.000000000000002h-8.70967741935484Z" style="fill: #c5e021;"></path><path d="M281.1290322580645,134.16666666666669h8.70967741935484v15.000000000000002h-8.70967741935484Z" style="fill: #c5e021;"></path><path d="M0.48387096774195015,150.83333333333331h8.70967741935484v15.000000000000002h-8.70967741935484Z" style="fill: #c8e020;"></path><path d="M10.16129032258066,150.83333333333331h8.70967741935484v15.000000000000002h-8.70967741935484Z" style="fill: #c8e020;"></path><path d="M19.83870967741937,150.83333333333331h8.70967741935484v15.000000000000002h-8.70967741935484Z" style="fill: #c5e021;"></path><path d="M29.51612903225808,150.83333333333331h8.70967741935484v15.000000000000002h-8.70967741935484Z" style="fill: #bddf26;"></path><path d="M39.19354838709679,150.83333333333331h8.70967741935484v15.000000000000002h-8.70967741935484Z" style="fill: #b5de2b;"></path><path d="M48.8709677419355,150.83333333333331h8.70967741935484v15.000000000000002h-8.70967741935484Z" style="fill: #b5de2b;"></path><path d="M58.548387096774206,150.83333333333331h8.70967741935484v15.000000000000002h-8.70967741935484Z" style="fill: #b2dd2d;"></path><path d="M68.22580645161293,150.83333333333331h8.70967741935484v15.000000000000002h-8.70967741935484Z" style="fill: #a8db34;"></path><path d="M77.90322580645163,150.83333333333331h8.70967741935484v15.000000000000002h-8.70967741935484Z" style="fill: #aadc32;"></path><path d="M87.58064516129033,150.83333333333331h8.70967741935484v15.000000000000002h-8.70967741935484Z" style="fill: #aadc32;"></path><path d="M97.25806451612905,150.83333333333331h8.70967741935484v15.000000000000002h-8.70967741935484Z" style="fill: #a8db34;"></path><path d="M106.93548387096776,150.83333333333331h8.70967741935484v15.000000000000002h-8.70967741935484Z" style="fill: #a0da39;"></path><path d="M116.61290322580646,150.83333333333331h8.70967741935484v15.000000000000002h-8.70967741935484Z" style="fill: #95d840;"></path><path d="M126.29032258064518,150.83333333333331h8.70967741935484v15.000000000000002h-8.70967741935484Z" style="fill: #8ed645;"></path><path d="M135.9677419354839,150.83333333333331h8.70967741935484v15.000000000000002h-8.70967741935484Z" style="fill: #89d548;"></path><path d="M145.6451612903226,150.83333333333331h8.70967741935484v15.000000000000002h-8.70967741935484Z" style="fill: #81d34d;"></path><path d="M155.3225806451613,150.83333333333331h8.70967741935484v15.000000000000002h-8.70967741935484Z" style="fill: #7ad151;"></path><path d="M165.00000000000003,150.83333333333331h8.70967741935484v15.000000000000002h-8.70967741935484Z" style="fill: #75d054;"></path><path d="M174.67741935483872,150.83333333333331h8.70967741935484v15.000000000000002h-8.70967741935484Z" style="fill: #70cf57;"></path><path d="M184.35483870967744,150.83333333333331h8.70967741935484v15.000000000000002h-8.70967741935484Z" style="fill: #6ccd5a;"></path><path d="M194.03225806451616,150.83333333333331h8.70967741935484v15.000000000000002h-8.70967741935484Z" style="fill: #5ec962;"></path><path d="M203.70967741935485,150.83333333333331h8.70967741935484v15.000000000000002h-8.70967741935484Z" style="fill: #56c667;"></path><path d="M213.38709677419357,150.83333333333331h8.70967741935484v15.000000000000002h-8.70967741935484Z" style="fill: #4ec36b;"></path><path d="M223.06451612903228,150.83333333333331h8.70967741935484v15.000000000000002h-8.70967741935484Z" style="fill: #48c16e;"></path><path d="M232.74193548387098,150.83333333333331h8.70967741935484v15.000000000000002h-8.70967741935484Z" style="fill: #40bd72;"></path><path d="M242.4193548387097,150.83333333333331h8.70967741935484v15.000000000000002h-8.70967741935484Z" style="fill: #3fbc73;"></path><path d="M252.0967741935484,150.83333333333331h8.70967741935484v15.000000000000002h-8.70967741935484Z" style="fill: #3fbc73;"></path><path d="M261.77419354838713,150.83333333333331h8.70967741935484v15.000000000000002h-8.70967741935484Z" style="fill: #3aba76;"></path><path d="M271.45161290322585,150.83333333333331h8.70967741935484v15.000000000000002h-8.70967741935484Z" style="fill: #37b878;"></path><path d="M281.1290322580645,150.83333333333331h8.70967741935484v15.000000000000002h-8.70967741935484Z" style="fill: #32b67a;"></path><path d="M290.80645161290323,150.83333333333331h8.70967741935484v15.000000000000002h-8.70967741935484Z" style="fill: #2db27d;"></path><path d="M0.48387096774195015,167.5h8.70967741935484v15.000000000000002h-8.70967741935484Z" style="fill: #26ad81;"></path><path d="M10.16129032258066,167.5h8.70967741935484v15.000000000000002h-8.70967741935484Z" style="fill: #22a884;"></path><path d="M19.83870967741937,167.5h8.70967741935484v15.000000000000002h-8.70967741935484Z" style="fill: #20a486;"></path><path d="M29.51612903225808,167.5h8.70967741935484v15.000000000000002h-8.70967741935484Z" style="fill: #1fa187;"></path><path d="M39.19354838709679,167.5h8.70967741935484v15.000000000000002h-8.70967741935484Z" style="fill: #1f9e89;"></path><path d="M48.8709677419355,167.5h8.70967741935484v15.000000000000002h-8.70967741935484Z" style="fill: #1e9d89;"></path><path d="M58.548387096774206,167.5h8.70967741935484v15.000000000000002h-8.70967741935484Z" style="fill: #1f9a8a;"></path><path d="M68.22580645161293,167.5h8.70967741935484v15.000000000000002h-8.70967741935484Z" style="fill: #1f988b;"></path><path d="M77.90322580645163,167.5h8.70967741935484v15.000000000000002h-8.70967741935484Z" style="fill: #20928c;"></path><path d="M87.58064516129033,167.5h8.70967741935484v15.000000000000002h-8.70967741935484Z" style="fill: #218f8d;"></path><path d="M97.25806451612905,167.5h8.70967741935484v15.000000000000002h-8.70967741935484Z" style="fill: #238a8d;"></path><path d="M106.93548387096776,167.5h8.70967741935484v15.000000000000002h-8.70967741935484Z" style="fill: #24868e;"></path><path d="M116.61290322580646,167.5h8.70967741935484v15.000000000000002h-8.70967741935484Z" style="fill: #26828e;"></path><path d="M126.29032258064518,167.5h8.70967741935484v15.000000000000002h-8.70967741935484Z" style="fill: #277f8e;"></path><path d="M135.9677419354839,167.5h8.70967741935484v15.000000000000002h-8.70967741935484Z" style="fill: #297b8e;"></path><path d="M145.6451612903226,167.5h8.70967741935484v15.000000000000002h-8.70967741935484Z" style="fill: #2a778e;"></path><path d="M155.3225806451613,167.5h8.70967741935484v15.000000000000002h-8.70967741935484Z" style="fill: #2b748e;"></path><path d="M165.00000000000003,167.5h8.70967741935484v15.000000000000002h-8.70967741935484Z" style="fill: #2c718e;"></path><path d="M174.67741935483872,167.5h8.70967741935484v15.000000000000002h-8.70967741935484Z" style="fill: #2e6d8e;"></path><path d="M184.35483870967744,167.5h8.70967741935484v15.000000000000002h-8.70967741935484Z" style="fill: #30698e;"></path><path d="M194.03225806451616,167.5h8.70967741935484v15.000000000000002h-8.70967741935484Z" style="fill: #31668e;"></path><path d="M203.70967741935485,167.5h8.70967741935484v15.000000000000002h-8.70967741935484Z" style="fill: #33628d;"></path><path d="M213.38709677419357,167.5h8.70967741935484v15.000000000000002h-8.70967741935484Z" style="fill: #355e8d;"></path><path d="M223.06451612903228,167.5h8.70967741935484v15.000000000000002h-8.70967741935484Z" style="fill: #365d8d;"></path><path d="M232.74193548387098,167.5h8.70967741935484v15.000000000000002h-8.70967741935484Z" style="fill: #38598c;"></path><path d="M242.4193548387097,167.5h8.70967741935484v15.000000000000002h-8.70967741935484Z" style="fill: #39558c;"></path><path d="M252.0967741935484,167.5h8.70967741935484v15.000000000000002h-8.70967741935484Z" style="fill: #3b518b;"></path><path d="M261.77419354838713,167.5h8.70967741935484v15.000000000000002h-8.70967741935484Z" style="fill: #3c4f8a;"></path><path d="M271.45161290322585,167.5h8.70967741935484v15.000000000000002h-8.70967741935484Z" style="fill: #3d4e8a;"></path><path d="M281.1290322580645,167.5h8.70967741935484v15.000000000000002h-8.70967741935484Z" style="fill: #3d4d8a;"></path><path d="M0.48387096774195015,184.16666666666669h8.70967741935484v15.000000000000002h-8.70967741935484Z" style="fill: #3e4a89;"></path><path d="M10.16129032258066,184.16666666666669h8.70967741935484v15.000000000000002h-8.70967741935484Z" style="fill: #3e4989;"></path><path d="M19.83870967741937,184.16666666666669h8.70967741935484v15.000000000000002h-8.70967741935484Z" style="fill: #3f4889;"></path><path d="M29.51612903225808,184.16666666666669h8.70967741935484v15.000000000000002h-8.70967741935484Z" style="fill: #404688;"></path><path d="M39.19354838709679,184.16666666666669h8.70967741935484v15.000000000000002h-8.70967741935484Z" style="fill: #414487;"></path><path d="M48.8709677419355,184.16666666666669h8.70967741935484v15.000000000000002h-8.70967741935484Z" style="fill: #424086;"></path><path d="M58.548387096774206,184.16666666666669h8.70967741935484v15.000000000000002h-8.70967741935484Z" style="fill: #423f85;"></path><path d="M68.22580645161293,184.16666666666669h8.70967741935484v15.000000000000002h-8.70967741935484Z" style="fill: #443b84;"></path><path d="M77.90322580645163,184.16666666666669h8.70967741935484v15.000000000000002h-8.70967741935484Z" style="fill: #453882;"></path><path d="M87.58064516129033,184.16666666666669h8.70967741935484v15.000000000000002h-8.70967741935484Z" style="fill: #453581;"></path><path d="M97.25806451612905,184.16666666666669h8.70967741935484v15.000000000000002h-8.70967741935484Z" style="fill: #46327e;"></path><path d="M106.93548387096776,184.16666666666669h8.70967741935484v15.000000000000002h-8.70967741935484Z" style="fill: #46307e;"></path><path d="M116.61290322580646,184.16666666666669h8.70967741935484v15.000000000000002h-8.70967741935484Z" style="fill: #472a7a;"></path><path d="M126.29032258064518,184.16666666666669h8.70967741935484v15.000000000000002h-8.70967741935484Z" style="fill: #482576;"></path><path d="M135.9677419354839,184.16666666666669h8.70967741935484v15.000000000000002h-8.70967741935484Z" style="fill: #482071;"></path><path d="M145.6451612903226,184.16666666666669h8.70967741935484v15.000000000000002h-8.70967741935484Z" style="fill: #481d6f;"></path><path d="M155.3225806451613,184.16666666666669h8.70967741935484v15.000000000000002h-8.70967741935484Z" style="fill: #48186a;"></path><path d="M165.00000000000003,184.16666666666669h8.70967741935484v15.000000000000002h-8.70967741935484Z" style="fill: #481467;"></path><path d="M174.67741935483872,184.16666666666669h8.70967741935484v15.000000000000002h-8.70967741935484Z" style="fill: #471063;"></path><path d="M184.35483870967744,184.16666666666669h8.70967741935484v15.000000000000002h-8.70967741935484Z" style="fill: #470d60;"></path><path d="M194.03225806451616,184.16666666666669h8.70967741935484v15.000000000000002h-8.70967741935484Z" style="fill: #46085c;"></path><path d="M203.70967741935485,184.16666666666669h8.70967741935484v15.000000000000002h-8.70967741935484Z" style="fill: #46075a;"></path><path d="M213.38709677419357,184.16666666666669h8.70967741935484v15.000000000000002h-8.70967741935484Z" style="fill: #450457;"></path><path d="M223.06451612903228,184.16666666666669h8.70967741935484v15.000000000000002h-8.70967741935484Z" style="fill: #440256;"></path><path d="M232.74193548387098,184.16666666666669h8.70967741935484v15.000000000000002h-8.70967741935484Z" style="fill: #440256;"></path><path d="M242.4193548387097,184.16666666666669h8.70967741935484v15.000000000000002h-8.70967741935484Z" style="fill: #440154;"></path><path d="M252.0967741935484,184.16666666666669h8.70967741935484v15.000000000000002h-8.70967741935484Z" style="fill: #440154;"></path><path d="M261.77419354838713,184.16666666666669h8.70967741935484v15.000000000000002h-8.70967741935484Z" style="fill: #440154;"></path><path d="M271.45161290322585,184.16666666666669h8.70967741935484v15.000000000000002h-8.70967741935484Z" style="fill: #440154;"></path><path d="M281.1290322580645,184.16666666666669h8.70967741935484v15.000000000000002h-8.70967741935484Z" style="fill: #440154;"></path><path d="M290.80645161290323,184.16666666666669h8.70967741935484v15.000000000000002h-8.70967741935484Z" style="fill: #440154;"></path></g><g class="mark-group role-legend"><g transform="translate(318,0)"><path class="background" d="M0,0h97v217h-97Z" style="pointer-events: none; fill: none;"></path><g><g class="mark-group role-legend-entry"><g transform="translate(0,16)"><path class="background" d="M0,0h0v0h0Z" style="pointer-events: none; fill: none;"></path><g><g class="mark-rect role-legend-gradient" style="pointer-events: none;"><path d="M0,0h16v200h-16Z" style="fill: url(#gradient_0); stroke: #ddd; stroke-width: 0; opacity: 1;"></path></g><g class="mark-text role-legend-label" style="pointer-events: none;"><text text-anchor="start" transform="translate(18,198)" style="font: 10px sans-serif; fill: #000; opacity: 1;">55</text><text text-anchor="start" transform="translate(18,136.33333333333334)" style="font: 10px sans-serif; fill: #000; opacity: 1;">60</text><text text-anchor="start" transform="translate(18,69.66666666666667)" style="font: 10px sans-serif; fill: #000; opacity: 1;">65</text><text text-anchor="start" transform="translate(18,8)" style="font: 10px sans-serif; fill: #000; opacity: 1;">70</text></g></g></g></g><g class="mark-text role-legend-title" style="pointer-events: none;"><text text-anchor="start" transform="translate(0,9)" style="font: bold 11px sans-serif; fill: #000; opacity: 1;">Max of temp</text></g></g></g></g><g class="mark-group role-axis"><g transform="translate(0.5,200.5)"><path class="background" d="M0,0h0v0h0Z" style="pointer-events: none; fill: none;"></path><g><g class="mark-rule role-axis-tick" style="pointer-events: none;"><line transform="translate(4,0)" x2="0" y2="5" style="fill: none; stroke: #888; stroke-width: 1; opacity: 1;"></line><line transform="translate(14,0)" x2="0" y2="5" style="fill: none; stroke: #888; stroke-width: 1; opacity: 1;"></line><line transform="translate(23,0)" x2="0" y2="5" style="fill: none; stroke: #888; stroke-width: 1; opacity: 1;"></line><line transform="translate(33,0)" x2="0" y2="5" style="fill: none; stroke: #888; stroke-width: 1; opacity: 1;"></line><line transform="translate(43,0)" x2="0" y2="5" style="fill: none; stroke: #888; stroke-width: 1; opacity: 1;"></line><line transform="translate(52,0)" x2="0" y2="5" style="fill: none; stroke: #888; stroke-width: 1; opacity: 1;"></line><line transform="translate(62,0)" x2="0" y2="5" style="fill: none; stroke: #888; stroke-width: 1; opacity: 1;"></line><line transform="translate(72,0)" x2="0" y2="5" style="fill: none; stroke: #888; stroke-width: 1; opacity: 1;"></line><line transform="translate(81,0)" x2="0" y2="5" style="fill: none; stroke: #888; stroke-width: 1; opacity: 1;"></line><line transform="translate(91,0)" x2="0" y2="5" style="fill: none; stroke: #888; stroke-width: 1; opacity: 1;"></line><line transform="translate(101,0)" x2="0" y2="5" style="fill: none; stroke: #888; stroke-width: 1; opacity: 1;"></line><line transform="translate(110,0)" x2="0" y2="5" style="fill: none; stroke: #888; stroke-width: 1; opacity: 1;"></line><line transform="translate(120,0)" x2="0" y2="5" style="fill: none; stroke: #888; stroke-width: 1; opacity: 1;"></line><line transform="translate(130,0)" x2="0" y2="5" style="fill: none; stroke: #888; stroke-width: 1; opacity: 1;"></line><line transform="translate(139,0)" x2="0" y2="5" style="fill: none; stroke: #888; stroke-width: 1; opacity: 1;"></line><line transform="translate(149,0)" x2="0" y2="5" style="fill: none; stroke: #888; stroke-width: 1; opacity: 1;"></line><line transform="translate(159,0)" x2="0" y2="5" style="fill: none; stroke: #888; stroke-width: 1; opacity: 1;"></line><line transform="translate(168,0)" x2="0" y2="5" style="fill: none; stroke: #888; stroke-width: 1; opacity: 1;"></line><line transform="translate(178,0)" x2="0" y2="5" style="fill: none; stroke: #888; stroke-width: 1; opacity: 1;"></line><line transform="translate(188,0)" x2="0" y2="5" style="fill: none; stroke: #888; stroke-width: 1; opacity: 1;"></line><line transform="translate(197,0)" x2="0" y2="5" style="fill: none; stroke: #888; stroke-width: 1; opacity: 1;"></line><line transform="translate(207,0)" x2="0" y2="5" style="fill: none; stroke: #888; stroke-width: 1; opacity: 1;"></line><line transform="translate(217,0)" x2="0" y2="5" style="fill: none; stroke: #888; stroke-width: 1; opacity: 1;"></line><line transform="translate(226,0)" x2="0" y2="5" style="fill: none; stroke: #888; stroke-width: 1; opacity: 1;"></line><line transform="translate(236,0)" x2="0" y2="5" style="fill: none; stroke: #888; stroke-width: 1; opacity: 1;"></line><line transform="translate(246,0)" x2="0" y2="5" style="fill: none; stroke: #888; stroke-width: 1; opacity: 1;"></line><line transform="translate(255,0)" x2="0" y2="5" style="fill: none; stroke: #888; stroke-width: 1; opacity: 1;"></line><line transform="translate(265,0)" x2="0" y2="5" style="fill: none; stroke: #888; stroke-width: 1; opacity: 1;"></line><line transform="translate(275,0)" x2="0" y2="5" style="fill: none; stroke: #888; stroke-width: 1; opacity: 1;"></line><line transform="translate(284,0)" x2="0" y2="5" style="fill: none; stroke: #888; stroke-width: 1; opacity: 1;"></line><line transform="translate(294,0)" x2="0" y2="5" style="fill: none; stroke: #888; stroke-width: 1; opacity: 1;"></line></g><g class="mark-text role-axis-label" style="pointer-events: none;"><text text-anchor="end" transform="translate(3.83870967741937,7) rotate(270) translate(0,3)" style="font: 10px sans-serif; fill: #000; opacity: 1;">01</text><text text-anchor="end" transform="translate(13.51612903225808,7) rotate(270) translate(0,3)" style="font: 10px sans-serif; fill: #000; opacity: 0;">02</text><text text-anchor="end" transform="translate(23.19354838709679,7) rotate(270) translate(0,3)" style="font: 10px sans-serif; fill: #000; opacity: 1;">03</text><text text-anchor="end" transform="translate(32.8709677419355,7) rotate(270) translate(0,3)" style="font: 10px sans-serif; fill: #000; opacity: 0;">04</text><text text-anchor="end" transform="translate(42.548387096774206,7) rotate(270) translate(0,3)" style="font: 10px sans-serif; fill: #000; opacity: 1;">05</text><text text-anchor="end" transform="translate(52.225806451612925,7) rotate(270) translate(0,3)" style="font: 10px sans-serif; fill: #000; opacity: 0;">06</text><text text-anchor="end" transform="translate(61.90322580645163,7) rotate(270) translate(0,3)" style="font: 10px sans-serif; fill: #000; opacity: 1;">07</text><text text-anchor="end" transform="translate(71.58064516129035,7) rotate(270) translate(0,3)" style="font: 10px sans-serif; fill: #000; opacity: 0;">08</text><text text-anchor="end" transform="translate(81.25806451612905,7) rotate(270) translate(0,3)" style="font: 10px sans-serif; fill: #000; opacity: 1;">09</text><text text-anchor="end" transform="translate(90.93548387096776,7) rotate(270) translate(0,3)" style="font: 10px sans-serif; fill: #000; opacity: 0;">10</text><text text-anchor="end" transform="translate(100.61290322580648,7) rotate(270) translate(0,3)" style="font: 10px sans-serif; fill: #000; opacity: 1;">11</text><text text-anchor="end" transform="translate(110.29032258064518,7) rotate(270) translate(0,3)" style="font: 10px sans-serif; fill: #000; opacity: 0;">12</text><text text-anchor="end" transform="translate(119.96774193548389,7) rotate(270) translate(0,3)" style="font: 10px sans-serif; fill: #000; opacity: 1;">13</text><text text-anchor="end" transform="translate(129.6451612903226,7) rotate(270) translate(0,3)" style="font: 10px sans-serif; fill: #000; opacity: 0;">14</text><text text-anchor="end" transform="translate(139.3225806451613,7) rotate(270) translate(0,3)" style="font: 10px sans-serif; fill: #000; opacity: 1;">15</text><text text-anchor="end" transform="translate(149,7) rotate(270) translate(0,3)" style="font: 10px sans-serif; fill: #000; opacity: 0;">16</text><text text-anchor="end" transform="translate(158.67741935483872,7) rotate(270) translate(0,3)" style="font: 10px sans-serif; fill: #000; opacity: 1;">17</text><text text-anchor="end" transform="translate(168.35483870967744,7) rotate(270) translate(0,3)" style="font: 10px sans-serif; fill: #000; opacity: 0;">18</text><text text-anchor="end" transform="translate(178.03225806451613,7) rotate(270) translate(0,3)" style="font: 10px sans-serif; fill: #000; opacity: 1;">19</text><text text-anchor="end" transform="translate(187.70967741935485,7) rotate(270) translate(0,3)" style="font: 10px sans-serif; fill: #000; opacity: 0;">20</text><text text-anchor="end" transform="translate(197.38709677419357,7) rotate(270) translate(0,3)" style="font: 10px sans-serif; fill: #000; opacity: 1;">21</text><text text-anchor="end" transform="translate(207.06451612903226,7) rotate(270) translate(0,3)" style="font: 10px sans-serif; fill: #000; opacity: 0;">22</text><text text-anchor="end" transform="translate(216.74193548387098,7) rotate(270) translate(0,3)" style="font: 10px sans-serif; fill: #000; opacity: 1;">23</text><text text-anchor="end" transform="translate(226.4193548387097,7) rotate(270) translate(0,3)" style="font: 10px sans-serif; fill: #000; opacity: 0;">24</text><text text-anchor="end" transform="translate(236.09677419354838,7) rotate(270) translate(0,3)" style="font: 10px sans-serif; fill: #000; opacity: 1;">25</text><text text-anchor="end" transform="translate(245.7741935483871,7) rotate(270) translate(0,3)" style="font: 10px sans-serif; fill: #000; opacity: 0;">26</text><text text-anchor="end" transform="translate(255.45161290322585,7) rotate(270) translate(0,3)" style="font: 10px sans-serif; fill: #000; opacity: 1;">27</text><text text-anchor="end" transform="translate(265.12903225806457,7) rotate(270) translate(0,3)" style="font: 10px sans-serif; fill: #000; opacity: 0;">28</text><text text-anchor="end" transform="translate(274.8064516129033,7) rotate(270) translate(0,3)" style="font: 10px sans-serif; fill: #000; opacity: 1;">29</text><text text-anchor="end" transform="translate(284.48387096774195,7) rotate(270) translate(0,3)" style="font: 10px sans-serif; fill: #000; opacity: 0;">30</text><text text-anchor="end" transform="translate(294.16129032258067,7) rotate(270) translate(0,3)" style="font: 10px sans-serif; fill: #000; opacity: 1;">31</text></g><g class="mark-rule role-axis-domain" style="pointer-events: none;"><line transform="translate(0,0)" x2="300" y2="0" style="fill: none; stroke: #888; stroke-width: 1; opacity: 1;"></line></g><g class="mark-text role-axis-title" style="pointer-events: none;"><text text-anchor="middle" transform="translate(150,37)" style="font: bold 11px sans-serif; fill: #000; opacity: 1;">day</text></g></g></g></g><g class="mark-group role-axis"><g transform="translate(0.5,0.5)"><path class="background" d="M0,0h0v0h0Z" style="pointer-events: none; fill: none;"></path><g><g class="mark-rule role-axis-tick" style="pointer-events: none;"><line transform="translate(0,7)" x2="-5" y2="0" style="fill: none; stroke: #888; stroke-width: 1; opacity: 1;"></line><line transform="translate(0,24)" x2="-5" y2="0" style="fill: none; stroke: #888; stroke-width: 1; opacity: 1;"></line><line transform="translate(0,41)" x2="-5" y2="0" style="fill: none; stroke: #888; stroke-width: 1; opacity: 1;"></line><line transform="translate(0,57)" x2="-5" y2="0" style="fill: none; stroke: #888; stroke-width: 1; opacity: 1;"></line><line transform="translate(0,74)" x2="-5" y2="0" style="fill: none; stroke: #888; stroke-width: 1; opacity: 1;"></line><line transform="translate(0,91)" x2="-5" y2="0" style="fill: none; stroke: #888; stroke-width: 1; opacity: 1;"></line><line transform="translate(0,107)" x2="-5" y2="0" style="fill: none; stroke: #888; stroke-width: 1; opacity: 1;"></line><line transform="translate(0,124)" x2="-5" y2="0" style="fill: none; stroke: #888; stroke-width: 1; opacity: 1;"></line><line transform="translate(0,141)" x2="-5" y2="0" style="fill: none; stroke: #888; stroke-width: 1; opacity: 1;"></line><line transform="translate(0,157)" x2="-5" y2="0" style="fill: none; stroke: #888; stroke-width: 1; opacity: 1;"></line><line transform="translate(0,174)" x2="-5" y2="0" style="fill: none; stroke: #888; stroke-width: 1; opacity: 1;"></line><line transform="translate(0,191)" x2="-5" y2="0" style="fill: none; stroke: #888; stroke-width: 1; opacity: 1;"></line></g><g class="mark-text role-axis-label" style="pointer-events: none;"><text text-anchor="end" transform="translate(-7,10.333333333333329)" style="font: 10px sans-serif; fill: #000; opacity: 1;">Jan</text><text text-anchor="end" transform="translate(-7,26.999999999999996)" style="font: 10px sans-serif; fill: #000; opacity: 1;">Feb</text><text text-anchor="end" transform="translate(-7,43.666666666666664)" style="font: 10px sans-serif; fill: #000; opacity: 1;">Mar</text><text text-anchor="end" transform="translate(-7,60.33333333333333)" style="font: 10px sans-serif; fill: #000; opacity: 1;">Apr</text><text text-anchor="end" transform="translate(-7,77)" style="font: 10px sans-serif; fill: #000; opacity: 1;">May</text><text text-anchor="end" transform="translate(-7,93.66666666666667)" style="font: 10px sans-serif; fill: #000; opacity: 1;">Jun</text><text text-anchor="end" transform="translate(-7,110.33333333333333)" style="font: 10px sans-serif; fill: #000; opacity: 1;">Jul</text><text text-anchor="end" transform="translate(-7,127)" style="font: 10px sans-serif; fill: #000; opacity: 1;">Aug</text><text text-anchor="end" transform="translate(-7,143.66666666666669)" style="font: 10px sans-serif; fill: #000; opacity: 1;">Sep</text><text text-anchor="end" transform="translate(-7,160.33333333333331)" style="font: 10px sans-serif; fill: #000; opacity: 1;">Oct</text><text text-anchor="end" transform="translate(-7,177)" style="font: 10px sans-serif; fill: #000; opacity: 1;">Nov</text><text text-anchor="end" transform="translate(-7,193.66666666666669)" style="font: 10px sans-serif; fill: #000; opacity: 1;">Dec</text></g><g class="mark-rule role-axis-domain" style="pointer-events: none;"><line transform="translate(0,0)" x2="0" y2="200" style="fill: none; stroke: #888; stroke-width: 1; opacity: 1;"></line></g><g class="mark-text role-axis-title" style="pointer-events: none;"><text text-anchor="middle" transform="translate(-36,100) rotate(-90) translate(0,-2)" style="font: bold 11px sans-serif; fill: #000; opacity: 1;">month</text></g></g></g></g></g></g></g></g></svg>