<svg class="marks" width="479" height="251" viewBox="0 0 479 251" version="1.1" xmlns="http://www.w3.org/2000/svg" xmlns:xlink="http://www.w3.org/1999/xlink"><defs><linearGradient id="gradient_0" x1="0" x2="0" y1="1" y2="0"><stop offset="0" stop-color="rgb(247, 252, 240)"></stop><stop offset="0.027777777777777776" stop-color="rgb(242, 250, 235)"></stop><stop offset="0.08333333333333333" stop-color="rgb(232, 246, 226)"></stop><stop offset="0.1388888888888889" stop-color="rgb(222, 242, 216)"></stop><stop offset="0.19444444444444445" stop-color="rgb(212, 238, 207)"></stop><stop offset="0.25" stop-color="rgb(201, 234, 198)"></stop><stop offset="0.3055555555555556" stop-color="rgb(187, 229, 191)"></stop><stop offset="0.3611111111111111" stop-color="rgb(171, 222, 186)"></stop><stop offset="0.4166666666666667" stop-color="rgb(153, 215, 188)"></stop><stop offset="0.4722222222222222" stop-color="rgb(133, 207, 193)"></stop><stop offset="0.5277777777777778" stop-color="rgb(113, 198, 199)"></stop><stop offset="0.5833333333333334" stop-color="rgb(93, 187, 204)"></stop><stop offset="0.6388888888888888" stop-color="rgb(75, 173, 204)"></stop><stop offset="0.6944444444444444" stop-color="rgb(59, 157, 199)"></stop><stop offset="0.75" stop-color="rgb(43, 141, 191)"></stop><stop offset="0.8055555555555556" stop-color="rgb(28, 124, 182)"></stop><stop offset="0.8611111111111112" stop-color="rgb(16, 108, 171)"></stop><stop offset="0.9166666666666666" stop-color="rgb(10, 90, 156)"></stop><stop offset="0.9722222222222222" stop-color="rgb(8, 73, 139)"></stop><stop offset="1" stop-color="rgb(8, 64, 129)"></stop></linearGradient></defs><g transform="translate(52,11)"><g class="mark-group role-frame root"><g transform="translate(0,0)"><path class="background" d="M0.5,0.5h300v200h-300Z" style="fill: none; stroke: none;"></path><g><g class="mark-rect role-mark marks"><path d="M96,70h6.000000000000014v10h-6.000000000000014Z" style="fill: rgb(247, 252, 240);"></path><path d="M167.99999999999997,140h5.999999999999972v10h-5.999999999999972Z" style="fill: rgb(195, 231, 194);"></path><path d="M210,20h6.000000000000028v10h-6.000000000000028Z" style="fill: rgb(67, 165, 202);"></path><path d="M210,30h6.000000000000028v10h-6.000000000000028Z" style="fill: rgb(16, 108, 171);"></path><path d="M222,30h6.000000000000028v10h-6.000000000000028Z" style="fill: rgb(133, 207, 193);"></path><path d="M252.00000000000003,0h5.999999999999972v10h-5.999999999999972Z" style="fill: rgb(143, 211, 190);"></path><path d="M197.99999999999997,20h6.000000000000057v10h-6.000000000000057Z" style="fill: rgb(201, 234, 198);"></path><path d="M72.00000000000001,10h6v10h-6Z" style="fill: rgb(247, 252, 240);"></path><path d="M210,80h6.000000000000028v9.999999999999986h-6.000000000000028Z" style="fill: rgb(201, 234, 198);"></path><path d="M162,130h5.999999999999972v10h-5.999999999999972Z" style="fill: rgb(133, 207, 193);"></path><path d="M210,40h6.000000000000028v10h-6.000000000000028Z" style="fill: rgb(75, 173, 204);"></path><path d="M96,160h6.000000000000014v10h-6.000000000000014Z" style="fill: rgb(217, 240, 212);"></path><path d="M228,0h6v10h-6Z" style="fill: rgb(67, 165, 202);"></path><path d="M192,170h6.000000000000057v10h-6.000000000000057Z" style="fill: rgb(242, 250, 235);"></path><path d="M210,50h6.000000000000028v10h-6.000000000000028Z" style="fill: rgb(133, 207, 193);"></path><path d="M210,0h6.000000000000028v10h-6.000000000000028Z" style="fill: rgb(212, 238, 207);"></path><path d="M222,0h6.000000000000028v10h-6.000000000000028Z" style="fill: rgb(201, 234, 198);"></path><path d="M197.99999999999997,80h6.000000000000057v9.999999999999986h-6.000000000000057Z" style="fill: rgb(67, 165, 202);"></path><path d="M228,20h6v10h-6Z" style="fill: rgb(16, 108, 171);"></path><path d="M132.00000000000003,170h5.999999999999972v10h-5.999999999999972Z" style="fill: rgb(201, 234, 198);"></path><path d="M197.99999999999997,100h6.000000000000057v10h-6.000000000000057Z" style="fill: rgb(123, 203, 196);"></path><path d="M197.99999999999997,150h6.000000000000057v10h-6.000000000000057Z" style="fill: rgb(237, 248, 231);"></path><path d="M174.00000000000003,89.99999999999999h6.000000000000028v10.000000000000014h-6.000000000000028Z" style="fill: rgb(227, 244, 221);"></path><path d="M96,50h6.000000000000014v10h-6.000000000000014Z" style="fill: rgb(247, 252, 240);"></path><path d="M197.99999999999997,10h6.000000000000057v10h-6.000000000000057Z" style="fill: rgb(227, 244, 221);"></path><path d="M240,0h6.000000000000028v10h-6.000000000000028Z" style="fill: rgb(8, 64, 129);"></path><path d="M167.99999999999997,70h5.999999999999972v10h-5.999999999999972Z" style="fill: rgb(227, 244, 221);"></path><path d="M252.00000000000003,10h5.999999999999972v10h-5.999999999999972Z" style="fill: rgb(217, 240, 212);"></path><path d="M258,0h6.000000000000057v10h-6.000000000000057Z" style="fill: rgb(232, 246, 226);"></path><path d="M180,20h6.000000000000028v10h-6.000000000000028Z" style="fill: rgb(227, 244, 221);"></path><path d="M132.00000000000003,160h5.999999999999972v10h-5.999999999999972Z" style="fill: rgb(187, 229, 191);"></path><path d="M162,50h5.999999999999972v10h-5.999999999999972Z" style="fill: rgb(242, 250, 235);"></path><path d="M167.99999999999997,50h5.999999999999972v10h-5.999999999999972Z" style="fill: rgb(247, 252, 240);"></path><path d="M240,10h6.000000000000028v10h-6.000000000000028Z" style="fill: rgb(93, 187, 204);"></path><path d="M216.00000000000003,0h6.000000000000028v10h-6.000000000000028Z" style="fill: rgb(227, 244, 221);"></path><path d="M150,150h6v10h-6Z" style="fill: rgb(201, 234, 198);"></path><path d="M204.00000000000003,60h6.000000000000028v10h-6.000000000000028Z" style="fill: rgb(212, 238, 207);"></path><path d="M222,70h6.000000000000028v10h-6.000000000000028Z" style="fill: rgb(232, 246, 226);"></path><path d="M197.99999999999997,120h6.000000000000057v10h-6.000000000000057Z" style="fill: rgb(171, 222, 186);"></path><path d="M192,30h6.000000000000057v10h-6.000000000000057Z" style="fill: rgb(212, 238, 207);"></path><path d="M167.99999999999997,89.99999999999999h5.999999999999972v10.000000000000014h-5.999999999999972Z" style="fill: rgb(195, 231, 194);"></path><path d="M167.99999999999997,30h5.999999999999972v10h-5.999999999999972Z" style="fill: rgb(247, 252, 240);"></path><path d="M96,10h6.000000000000014v10h-6.000000000000014Z" style="fill: rgb(247, 252, 240);"></path><path d="M96,150h6.000000000000014v10h-6.000000000000014Z" style="fill: rgb(237, 248, 231);"></path><path d="M150,120h6v10h-6Z" style="fill: rgb(212, 238, 207);"></path><path d="M138,110h5.999999999999972v10h-5.999999999999972Z" style="fill: rgb(222, 242, 216);"></path><path d="M216.00000000000003,30h6.000000000000028v10h-6.000000000000028Z" style="fill: rgb(212, 238, 207);"></path><path d="M180,100h6.000000000000028v10h-6.000000000000028Z" style="fill: rgb(143, 211, 190);"></path><path d="M150,170h6v10h-6Z" style="fill: rgb(201, 234, 198);"></path><path d="M162,110h5.999999999999972v10h-5.999999999999972Z" style="fill: rgb(187, 229, 191);"></path><path d="M197.99999999999997,70h6.000000000000057v10h-6.000000000000057Z" style="fill: rgb(84, 180, 205);"></path><path d="M180,110h6.000000000000028v10h-6.000000000000028Z" style="fill: rgb(123, 203, 196);"></path><path d="M246.00000000000003,10h6.000000000000028v10h-6.000000000000028Z" style="fill: rgb(222, 242, 216);"></path><path d="M234,30h6v10h-6Z" style="fill: rgb(212, 238, 207);"></path><path d="M222,20h6.000000000000028v10h-6.000000000000028Z" style="fill: rgb(143, 211, 190);"></path><path d="M167.99999999999997,80h5.999999999999972v9.999999999999986h-5.999999999999972Z" style="fill: rgb(232, 246, 226);"></path><path d="M216.00000000000003,10h6.000000000000028v10h-6.000000000000028Z" style="fill: rgb(227, 244, 221);"></path><path d="M228,50h6v10h-6Z" style="fill: rgb(212, 238, 207);"></path><path d="M174.00000000000003,120h6.000000000000028v10h-6.000000000000028Z" style="fill: rgb(207, 236, 202);"></path><path d="M197.99999999999997,60h6.000000000000057v10h-6.000000000000057Z" style="fill: rgb(123, 203, 196);"></path><path d="M120,80h5.999999999999972v9.999999999999986h-5.999999999999972Z" style="fill: rgb(247, 252, 240);"></path><path d="M210,10h6.000000000000028v10h-6.000000000000028Z" style="fill: rgb(179, 225, 188);"></path><path d="M192,10h6.000000000000057v10h-6.000000000000057Z" style="fill: rgb(247, 252, 240);"></path><path d="M186.00000000000003,70h6.000000000000028v10h-6.000000000000028Z" style="fill: rgb(227, 244, 221);"></path><path d="M252.00000000000003,40h5.999999999999972v10h-5.999999999999972Z" style="fill: rgb(232, 246, 226);"></path><path d="M197.99999999999997,30h6.000000000000057v10h-6.000000000000057Z" style="fill: rgb(67, 165, 202);"></path><path d="M216.00000000000003,60h6.000000000000028v10h-6.000000000000028Z" style="fill: rgb(217, 240, 212);"></path><path d="M204.00000000000003,40h6.000000000000028v10h-6.000000000000028Z" style="fill: rgb(187, 229, 191);"></path><path d="M156,130h6v10h-6Z" style="fill: rgb(201, 234, 198);"></path><path d="M167.99999999999997,60h5.999999999999972v10h-5.999999999999972Z" style="fill: rgb(227, 244, 221);"></path><path d="M210,60h6.000000000000028v10h-6.000000000000028Z" style="fill: rgb(103, 192, 202);"></path><path d="M216.00000000000003,40h6.000000000000028v10h-6.000000000000028Z" style="fill: rgb(207, 236, 202);"></path><path d="M197.99999999999997,40h6.000000000000057v10h-6.000000000000057Z" style="fill: rgb(143, 211, 190);"></path><path d="M222,10h6.000000000000028v10h-6.000000000000028Z" style="fill: rgb(123, 203, 196);"></path><path d="M240,130h6.000000000000028v10h-6.000000000000028Z" style="fill: rgb(247, 252, 240);"></path><path d="M186.00000000000003,50h6.000000000000028v10h-6.000000000000028Z" style="fill: rgb(217, 240, 212);"></path><path d="M210,70h6.000000000000028v10h-6.000000000000028Z" style="fill: rgb(103, 192, 202);"></path><path d="M156,170h6v10h-6Z" style="fill: rgb(207, 236, 202);"></path><path d="M216.00000000000003,20h6.000000000000028v10h-6.000000000000028Z" style="fill: rgb(232, 246, 226);"></path><path d="M240,20h6.000000000000028v10h-6.000000000000028Z" style="fill: rgb(179, 225, 188);"></path><path d="M192,40h6.000000000000057v10h-6.000000000000057Z" style="fill: rgb(207, 236, 202);"></path><path d="M197.99999999999997,110h6.000000000000057v10h-6.000000000000057Z" style="fill: rgb(84, 180, 205);"></path><path d="M180,30h6.000000000000028v10h-6.000000000000028Z" style="fill: rgb(227, 244, 221);"></path><path d="M234,20h6v10h-6Z" style="fill: rgb(222, 242, 216);"></path><path d="M174.00000000000003,60h6.000000000000028v10h-6.000000000000028Z" style="fill: rgb(237, 248, 231);"></path><path d="M132.00000000000003,50h5.999999999999972v10h-5.999999999999972Z" style="fill: rgb(247, 252, 240);"></path><path d="M204.00000000000003,10h6.000000000000028v10h-6.000000000000028Z" style="fill: rgb(237, 248, 231);"></path><path d="M150,10h6v10h-6Z" style="fill: rgb(247, 252, 240);"></path><path d="M132.00000000000003,150h5.999999999999972v10h-5.999999999999972Z" style="fill: rgb(207, 236, 202);"></path><path d="M162,140h5.999999999999972v10h-5.999999999999972Z" style="fill: rgb(67, 165, 202);"></path><path d="M144.00000000000003,170h6v10h-6Z" style="fill: rgb(212, 238, 207);"></path><path d="M192,50h6.000000000000057v10h-6.000000000000057Z" style="fill: rgb(212, 238, 207);"></path><path d="M167.99999999999997,110h5.999999999999972v10h-5.999999999999972Z" style="fill: rgb(143, 211, 190);"></path><path d="M192,20h6.000000000000057v10h-6.000000000000057Z" style="fill: rgb(232, 246, 226);"></path><path d="M192,60h6.000000000000057v10h-6.000000000000057Z" style="fill: rgb(217, 240, 212);"></path><path d="M264.00000000000006,0h5.999999999999943v10h-5.999999999999943Z" style="fill: rgb(227, 244, 221);"></path><path d="M240,30h6.000000000000028v10h-6.000000000000028Z" style="fill: rgb(195, 231, 194);"></path><path d="M180,80h6.000000000000028v9.999999999999986h-6.000000000000028Z" style="fill: rgb(162, 219, 186);"></path><path d="M156,100h6v10h-6Z" style="fill: rgb(242, 250, 235);"></path><path d="M174.00000000000003,10h6.000000000000028v10h-6.000000000000028Z" style="fill: rgb(247, 252, 240);"></path><path d="M162,150h5.999999999999972v10h-5.999999999999972Z" style="fill: rgb(195, 231, 194);"></path><path d="M180,89.99999999999999h6.000000000000028v10.000000000000014h-6.000000000000028Z" style="fill: rgb(75, 173, 204);"></path><path d="M162,10h5.999999999999972v10h-5.999999999999972Z" style="fill: rgb(242, 250, 235);"></path><path d="M197.99999999999997,50h6.000000000000057v10h-6.000000000000057Z" style="fill: rgb(43, 141, 191);"></path><path d="M228,10h6v10h-6Z" style="fill: rgb(67, 165, 202);"></path><path d="M240,40h6.000000000000028v10h-6.000000000000028Z" style="fill: rgb(227, 244, 221);"></path><path d="M138,180h5.999999999999972v10h-5.999999999999972Z" style="fill: rgb(179, 225, 188);"></path><path d="M132.00000000000003,40h5.999999999999972v10h-5.999999999999972Z" style="fill: rgb(247, 252, 240);"></path><path d="M222,40h6.000000000000028v10h-6.000000000000028Z" style="fill: rgb(179, 225, 188);"></path><path d="M234,0h6v10h-6Z" style="fill: rgb(207, 236, 202);"></path><path d="M192,70h6.000000000000057v10h-6.000000000000057Z" style="fill: rgb(84, 180, 205);"></path><path d="M162,89.99999999999999h5.999999999999972v10.000000000000014h-5.999999999999972Z" style="fill: rgb(217, 240, 212);"></path><path d="M156,80h6v9.999999999999986h-6Z" style="fill: rgb(242, 250, 235);"></path><path d="M180,40h6.000000000000028v10h-6.000000000000028Z" style="fill: rgb(227, 244, 221);"></path><path d="M174.00000000000003,130h6.000000000000028v10h-6.000000000000028Z" style="fill: rgb(217, 240, 212);"></path><path d="M180,70h6.000000000000028v10h-6.000000000000028Z" style="fill: rgb(93, 187, 204);"></path><path d="M197.99999999999997,0h6.000000000000057v10h-6.000000000000057Z" style="fill: rgb(217, 240, 212);"></path><path d="M162,70h5.999999999999972v10h-5.999999999999972Z" style="fill: rgb(232, 246, 226);"></path><path d="M162,170h5.999999999999972v10h-5.999999999999972Z" style="fill: rgb(103, 192, 202);"></path><path d="M167.99999999999997,180h5.999999999999972v10h-5.999999999999972Z" style="fill: rgb(222, 242, 216);"></path><path d="M197.99999999999997,170h6.000000000000057v10h-6.000000000000057Z" style="fill: rgb(227, 244, 221);"></path><path d="M228,30h6v10h-6Z" style="fill: rgb(143, 211, 190);"></path><path d="M192,89.99999999999999h6.000000000000057v10.000000000000014h-6.000000000000057Z" style="fill: rgb(162, 219, 186);"></path><path d="M96,60h6.000000000000014v10h-6.000000000000014Z" style="fill: rgb(242, 250, 235);"></path><path d="M258,50h6.000000000000057v10h-6.000000000000057Z" style="fill: rgb(247, 252, 240);"></path><path d="M162,120h5.999999999999972v10h-5.999999999999972Z" style="fill: rgb(162, 219, 186);"></path><path d="M186.00000000000003,30h6.000000000000028v10h-6.000000000000028Z" style="fill: rgb(237, 248, 231);"></path><path d="M162,100h5.999999999999972v10h-5.999999999999972Z" style="fill: rgb(201, 234, 198);"></path><path d="M162,40h5.999999999999972v10h-5.999999999999972Z" style="fill: rgb(242, 250, 235);"></path><path d="M197.99999999999997,89.99999999999999h6.000000000000057v10.000000000000014h-6.000000000000057Z" style="fill: rgb(143, 211, 190);"></path><path d="M270,0h6.000000000000057v10h-6.000000000000057Z" style="fill: rgb(247, 252, 240);"></path><path d="M204.00000000000003,30h6.000000000000028v10h-6.000000000000028Z" style="fill: rgb(207, 236, 202);"></path><path d="M144.00000000000003,130h6v10h-6Z" style="fill: rgb(242, 250, 235);"></path><path d="M186.00000000000003,120h6.000000000000028v10h-6.000000000000028Z" style="fill: rgb(227, 244, 221);"></path><path d="M204.00000000000003,20h6.000000000000028v10h-6.000000000000028Z" style="fill: rgb(212, 238, 207);"></path><path d="M156,140h6v10h-6Z" style="fill: rgb(195, 231, 194);"></path><path d="M234,10h6v10h-6Z" style="fill: rgb(187, 229, 191);"></path><path d="M246.00000000000003,0h6.000000000000028v10h-6.000000000000028Z" style="fill: rgb(222, 242, 216);"></path><path d="M144.00000000000003,140h6v10h-6Z" style="fill: rgb(227, 244, 221);"></path><path d="M180,10h6.000000000000028v10h-6.000000000000028Z" style="fill: rgb(227, 244, 221);"></path><path d="M167.99999999999997,150h5.999999999999972v10h-5.999999999999972Z" style="fill: rgb(195, 231, 194);"></path><path d="M210,100h6.000000000000028v10h-6.000000000000028Z" style="fill: rgb(222, 242, 216);"></path><path d="M180,150h6.000000000000028v10h-6.000000000000028Z" style="fill: rgb(162, 219, 186);"></path><path d="M126.00000000000001,140h6.000000000000014v10h-6.000000000000014Z" style="fill: rgb(237, 248, 231);"></path><path d="M180,140h6.000000000000028v10h-6.000000000000028Z" style="fill: rgb(171, 222, 186);"></path><path d="M204.00000000000003,80h6.000000000000028v9.999999999999986h-6.000000000000028Z" style="fill: rgb(232, 246, 226);"></path><path d="M222,80h6.000000000000028v9.999999999999986h-6.000000000000028Z" style="fill: rgb(237, 248, 231);"></path><path d="M167.99999999999997,100h5.999999999999972v10h-5.999999999999972Z" style="fill: rgb(222, 242, 216);"></path><path d="M96,40h6.000000000000014v10h-6.000000000000014Z" style="fill: rgb(247, 252, 240);"></path><path d="M156,150h6v10h-6Z" style="fill: rgb(179, 225, 188);"></path><path d="M120,160h5.999999999999972v10h-5.999999999999972Z" style="fill: rgb(247, 252, 240);"></path><path d="M258,10h6.000000000000057v10h-6.000000000000057Z" style="fill: rgb(247, 252, 240);"></path><path d="M120,150h5.999999999999972v10h-5.999999999999972Z" style="fill: rgb(247, 252, 240);"></path><path d="M150,140h6v10h-6Z" style="fill: rgb(217, 240, 212);"></path><path d="M156,160h6v10h-6Z" style="fill: rgb(179, 225, 188);"></path><path d="M138,160h5.999999999999972v10h-5.999999999999972Z" style="fill: rgb(187, 229, 191);"></path><path d="M144.00000000000003,160h6v10h-6Z" style="fill: rgb(227, 244, 221);"></path><path d="M114,170h6v10h-6Z" style="fill: rgb(227, 244, 221);"></path><path d="M192,100h6.000000000000057v10h-6.000000000000057Z" style="fill: rgb(187, 229, 191);"></path><path d="M162,80h5.999999999999972v9.999999999999986h-5.999999999999972Z" style="fill: rgb(227, 244, 221);"></path><path d="M162,60h5.999999999999972v10h-5.999999999999972Z" style="fill: rgb(232, 246, 226);"></path><path d="M228,100h6v10h-6Z" style="fill: rgb(237, 248, 231);"></path><path d="M228,60h6v10h-6Z" style="fill: rgb(207, 236, 202);"></path><path d="M180,0h6.000000000000028v10h-6.000000000000028Z" style="fill: rgb(247, 252, 240);"></path><path d="M204.00000000000003,50h6.000000000000028v10h-6.000000000000028Z" style="fill: rgb(207, 236, 202);"></path><path d="M144.00000000000003,100h6v10h-6Z" style="fill: rgb(247, 252, 240);"></path><path d="M192,80h6.000000000000057v9.999999999999986h-6.000000000000057Z" style="fill: rgb(195, 231, 194);"></path><path d="M150,100h6v10h-6Z" style="fill: rgb(237, 248, 231);"></path><path d="M186.00000000000003,89.99999999999999h6.000000000000028v10.000000000000014h-6.000000000000028Z" style="fill: rgb(179, 225, 188);"></path><path d="M222,60h6.000000000000028v10h-6.000000000000028Z" style="fill: rgb(222, 242, 216);"></path><path d="M174.00000000000003,180h6.000000000000028v10h-6.000000000000028Z" style="fill: rgb(237, 248, 231);"></path><path d="M150,130h6v10h-6Z" style="fill: rgb(217, 240, 212);"></path><path d="M234,60h6v10h-6Z" style="fill: rgb(247, 252, 240);"></path><path d="M186.00000000000003,80h6.000000000000028v9.999999999999986h-6.000000000000028Z" style="fill: rgb(232, 246, 226);"></path><path d="M210,89.99999999999999h6.000000000000028v10.000000000000014h-6.000000000000028Z" style="fill: rgb(207, 236, 202);"></path><path d="M138,170h5.999999999999972v10h-5.999999999999972Z" style="fill: rgb(187, 229, 191);"></path><path d="M174.00000000000003,30h6.000000000000028v10h-6.000000000000028Z" style="fill: rgb(242, 250, 235);"></path><path d="M246.00000000000003,20h6.000000000000028v10h-6.000000000000028Z" style="fill: rgb(247, 252, 240);"></path><path d="M167.99999999999997,120h5.999999999999972v10h-5.999999999999972Z" style="fill: rgb(217, 240, 212);"></path><path d="M156,0h6v10h-6Z" style="fill: rgb(247, 252, 240);"></path><path d="M186.00000000000003,0h6.000000000000028v10h-6.000000000000028Z" style="fill: rgb(247, 252, 240);"></path><path d="M180,60h6.000000000000028v10h-6.000000000000028Z" style="fill: rgb(153, 215, 188);"></path><path d="M156,89.99999999999999h6v10.000000000000014h-6Z" style="fill: rgb(227, 244, 221);"></path><path d="M180,50h6.000000000000028v10h-6.000000000000028Z" style="fill: rgb(207, 236, 202);"></path><path d="M162,30h5.999999999999972v10h-5.999999999999972Z" style="fill: rgb(237, 248, 231);"></path><path d="M96,180h6.000000000000014v10h-6.000000000000014Z" style="fill: rgb(222, 242, 216);"></path><path d="M180,170h6.000000000000028v10h-6.000000000000028Z" style="fill: rgb(222, 242, 216);"></path><path d="M186.00000000000003,100h6.000000000000028v10h-6.000000000000028Z" style="fill: rgb(207, 236, 202);"></path><path d="M216.00000000000003,70h6.000000000000028v10h-6.000000000000028Z" style="fill: rgb(217, 240, 212);"></path><path d="M138,120h5.999999999999972v10h-5.999999999999972Z" style="fill: rgb(232, 246, 226);"></path><path d="M108,170h6v10h-6Z" style="fill: rgb(232, 246, 226);"></path><path d="M186.00000000000003,140h6.000000000000028v10h-6.000000000000028Z" style="fill: rgb(212, 238, 207);"></path><path d="M78,10h6.000000000000014v10h-6.000000000000014Z" style="fill: rgb(242, 250, 235);"></path><path d="M144.00000000000003,80h6v9.999999999999986h-6Z" style="fill: rgb(247, 252, 240);"></path><path d="M228,40h6v10h-6Z" style="fill: rgb(187, 229, 191);"></path><path d="M138,140h5.999999999999972v10h-5.999999999999972Z" style="fill: rgb(217, 240, 212);"></path><path d="M186.00000000000003,20h6.000000000000028v10h-6.000000000000028Z" style="fill: rgb(247, 252, 240);"></path><path d="M264.00000000000006,10h5.999999999999943v10h-5.999999999999943Z" style="fill: rgb(242, 250, 235);"></path><path d="M192,150h6.000000000000057v10h-6.000000000000057Z" style="fill: rgb(227, 244, 221);"></path><path d="M167.99999999999997,20h5.999999999999972v10h-5.999999999999972Z" style="fill: rgb(247, 252, 240);"></path><path d="M192,110h6.000000000000057v10h-6.000000000000057Z" style="fill: rgb(171, 222, 186);"></path><path d="M186.00000000000003,150h6.000000000000028v10h-6.000000000000028Z" style="fill: rgb(227, 244, 221);"></path><path d="M167.99999999999997,130h5.999999999999972v10h-5.999999999999972Z" style="fill: rgb(187, 229, 191);"></path><path d="M144.00000000000003,120h6v10h-6Z" style="fill: rgb(242, 250, 235);"></path><path d="M114,70h6v10h-6Z" style="fill: rgb(247, 252, 240);"></path><path d="M174.00000000000003,80h6.000000000000028v9.999999999999986h-6.000000000000028Z" style="fill: rgb(232, 246, 226);"></path><path d="M167.99999999999997,170h5.999999999999972v10h-5.999999999999972Z" style="fill: rgb(227, 244, 221);"></path><path d="M78,170h6.000000000000014v10h-6.000000000000014Z" style="fill: rgb(232, 246, 226);"></path><path d="M126.00000000000001,120h6.000000000000014v10h-6.000000000000014Z" style="fill: rgb(242, 250, 235);"></path><path d="M252.00000000000003,20h5.999999999999972v10h-5.999999999999972Z" style="fill: rgb(242, 250, 235);"></path><path d="M108,160h6v10h-6Z" style="fill: rgb(242, 250, 235);"></path><path d="M120,170h5.999999999999972v10h-5.999999999999972Z" style="fill: rgb(247, 252, 240);"></path><path d="M270,20h6.000000000000057v10h-6.000000000000057Z" style="fill: rgb(242, 250, 235);"></path><path d="M216.00000000000003,50h6.000000000000028v10h-6.000000000000028Z" style="fill: rgb(222, 242, 216);"></path><path d="M258,20h6.000000000000057v10h-6.000000000000057Z" style="fill: rgb(237, 248, 231);"></path><path d="M162,0h5.999999999999972v10h-5.999999999999972Z" style="fill: rgb(247, 252, 240);"></path><path d="M138,150h5.999999999999972v10h-5.999999999999972Z" style="fill: rgb(232, 246, 226);"></path><path d="M162,160h5.999999999999972v10h-5.999999999999972Z" style="fill: rgb(195, 231, 194);"></path><path d="M144.00000000000003,10h6v10h-6Z" style="fill: rgb(247, 252, 240);"></path><path d="M144.00000000000003,190h6v10h-6Z" style="fill: rgb(247, 252, 240);"></path><path d="M132.00000000000003,140h5.999999999999972v10h-5.999999999999972Z" style="fill: rgb(232, 246, 226);"></path><path d="M96,170h6.000000000000014v10h-6.000000000000014Z" style="fill: rgb(237, 248, 231);"></path><path d="M150,110h6v10h-6Z" style="fill: rgb(237, 248, 231);"></path><path d="M156,120h6v10h-6Z" style="fill: rgb(217, 240, 212);"></path><path d="M174.00000000000003,100h6.000000000000028v10h-6.000000000000028Z" style="fill: rgb(212, 238, 207);"></path><path d="M126.00000000000001,130h6.000000000000014v10h-6.000000000000014Z" style="fill: rgb(247, 252, 240);"></path><path d="M84.00000000000001,60h6v10h-6Z" style="fill: rgb(242, 250, 235);"></path><path d="M197.99999999999997,130h6.000000000000057v10h-6.000000000000057Z" style="fill: rgb(217, 240, 212);"></path><path d="M186.00000000000003,60h6.000000000000028v10h-6.000000000000028Z" style="fill: rgb(242, 250, 235);"></path><path d="M126.00000000000001,170h6.000000000000014v10h-6.000000000000014Z" style="fill: rgb(207, 236, 202);"></path><path d="M180,120h6.000000000000028v10h-6.000000000000028Z" style="fill: rgb(162, 219, 186);"></path><path d="M180,160h6.000000000000028v10h-6.000000000000028Z" style="fill: rgb(171, 222, 186);"></path><path d="M132.00000000000003,120h5.999999999999972v10h-5.999999999999972Z" style="fill: rgb(227, 244, 221);"></path><path d="M132.00000000000003,130h5.999999999999972v10h-5.999999999999972Z" style="fill: rgb(242, 250, 235);"></path><path d="M186.00000000000003,160h6.000000000000028v10h-6.000000000000028Z" style="fill: rgb(247, 252, 240);"></path><path d="M180,130h6.000000000000028v10h-6.000000000000028Z" style="fill: rgb(179, 225, 188);"></path><path d="M234,40h6v10h-6Z" style="fill: rgb(232, 246, 226);"></path><path d="M167.99999999999997,160h5.999999999999972v10h-5.999999999999972Z" style="fill: rgb(179, 225, 188);"></path><path d="M228,70h6v10h-6Z" style="fill: rgb(217, 240, 212);"></path><path d="M186.00000000000003,110h6.000000000000028v10h-6.000000000000028Z" style="fill: rgb(227, 244, 221);"></path><path d="M228,140h6v10h-6Z" style="fill: rgb(247, 252, 240);"></path><path d="M150,190h6v10h-6Z" style="fill: rgb(242, 250, 235);"></path><path d="M240,170h6.000000000000028v10h-6.000000000000028Z" style="fill: rgb(247, 252, 240);"></path><path d="M132.00000000000003,100h5.999999999999972v10h-5.999999999999972Z" style="fill: rgb(247, 252, 240);"></path><path d="M186.00000000000003,40h6.000000000000028v10h-6.000000000000028Z" style="fill: rgb(242, 250, 235);"></path><path d="M114,150h6v10h-6Z" style="fill: rgb(237, 248, 231);"></path><path d="M66.00000000000001,190h6v10h-6Z" style="fill: rgb(227, 244, 221);"></path><path d="M258,30h6.000000000000057v10h-6.000000000000057Z" style="fill: rgb(242, 250, 235);"></path><path d="M174.00000000000003,70h6.000000000000028v10h-6.000000000000028Z" style="fill: rgb(237, 248, 231);"></path><path d="M234,70h6v10h-6Z" style="fill: rgb(242, 250, 235);"></path><path d="M132.00000000000003,89.99999999999999h5.999999999999972v10.000000000000014h-5.999999999999972Z" style="fill: rgb(247, 252, 240);"></path><path d="M138,70h5.999999999999972v10h-5.999999999999972Z" style="fill: rgb(247, 252, 240);"></path><path d="M222,120h6.000000000000028v10h-6.000000000000028Z" style="fill: rgb(247, 252, 240);"></path><path d="M222,89.99999999999999h6.000000000000028v10.000000000000014h-6.000000000000028Z" style="fill: rgb(232, 246, 226);"></path><path d="M246.00000000000003,30h6.000000000000028v10h-6.000000000000028Z" style="fill: rgb(237, 248, 231);"></path><path d="M156,180h6v10h-6Z" style="fill: rgb(227, 244, 221);"></path><path d="M162,180h5.999999999999972v10h-5.999999999999972Z" style="fill: rgb(232, 246, 226);"></path><path d="M114,180h6v10h-6Z" style="fill: rgb(237, 248, 231);"></path><path d="M240,50h6.000000000000028v10h-6.000000000000028Z" style="fill: rgb(242, 250, 235);"></path><path d="M138,190h5.999999999999972v10h-5.999999999999972Z" style="fill: rgb(232, 246, 226);"></path><path d="M240,70h6.000000000000028v10h-6.000000000000028Z" style="fill: rgb(247, 252, 240);"></path><path d="M156,40h6v10h-6Z" style="fill: rgb(247, 252, 240);"></path><path d="M132.00000000000003,180h5.999999999999972v10h-5.999999999999972Z" style="fill: rgb(207, 236, 202);"></path><path d="M156,110h6v10h-6Z" style="fill: rgb(222, 242, 216);"></path><path d="M138,130h5.999999999999972v10h-5.999999999999972Z" style="fill: rgb(237, 248, 231);"></path><path d="M192,120h6.000000000000057v10h-6.000000000000057Z" style="fill: rgb(222, 242, 216);"></path><path d="M126.00000000000001,160h6.000000000000014v10h-6.000000000000014Z" style="fill: rgb(242, 250, 235);"></path><path d="M228,160h6v10h-6Z" style="fill: rgb(247, 252, 240);"></path><path d="M204.00000000000003,100h6.000000000000028v10h-6.000000000000028Z" style="fill: rgb(227, 244, 221);"></path><path d="M126.00000000000001,180h6.000000000000014v10h-6.000000000000014Z" style="fill: rgb(227, 244, 221);"></path><path d="M78,70h6.000000000000014v10h-6.000000000000014Z" style="fill: rgb(247, 252, 240);"></path><path d="M228,130h6v10h-6Z" style="fill: rgb(247, 252, 240);"></path><path d="M102.00000000000001,170h5.999999999999986v10h-5.999999999999986Z" style="fill: rgb(242, 250, 235);"></path><path d="M222,50h6.000000000000028v10h-6.000000000000028Z" style="fill: rgb(227, 244, 221);"></path><path d="M167.99999999999997,0h5.999999999999972v10h-5.999999999999972Z" style="fill: rgb(247, 252, 240);"></path><path d="M108,140h6v10h-6Z" style="fill: rgb(247, 252, 240);"></path><path d="M144.00000000000003,180h6v10h-6Z" style="fill: rgb(247, 252, 240);"></path><path d="M204.00000000000003,130h6.000000000000028v10h-6.000000000000028Z" style="fill: rgb(247, 252, 240);"></path><path d="M60,170h6.000000000000014v10h-6.000000000000014Z" style="fill: rgb(247, 252, 240);"></path><path d="M210,130h6.000000000000028v10h-6.000000000000028Z" style="fill: rgb(237, 248, 231);"></path><path d="M114,190h6v10h-6Z" style="fill: rgb(242, 250, 235);"></path><path d="M126.00000000000001,190h6.000000000000014v10h-6.000000000000014Z" style="fill: rgb(247, 252, 240);"></path><path d="M48,190h6v10h-6Z" style="fill: rgb(242, 250, 235);"></path><path d="M78,180h6.000000000000014v10h-6.000000000000014Z" style="fill: rgb(237, 248, 231);"></path><path d="M210,140h6.000000000000028v10h-6.000000000000028Z" style="fill: rgb(232, 246, 226);"></path><path d="M174.00000000000003,160h6.000000000000028v10h-6.000000000000028Z" style="fill: rgb(237, 248, 231);"></path><path d="M114,140h6v10h-6Z" style="fill: rgb(247, 252, 240);"></path><path d="M174.00000000000003,140h6.000000000000028v10h-6.000000000000028Z" style="fill: rgb(242, 250, 235);"></path><path d="M156,190h6v10h-6Z" style="fill: rgb(242, 250, 235);"></path><path d="M156,30h6v10h-6Z" style="fill: rgb(247, 252, 240);"></path><path d="M174.00000000000003,110h6.000000000000028v10h-6.000000000000028Z" style="fill: rgb(232, 246, 226);"></path><path d="M84.00000000000001,190h6v10h-6Z" style="fill: rgb(247, 252, 240);"></path><path d="M150,70h6v10h-6Z" style="fill: rgb(242, 250, 235);"></path><path d="M192,140h6.000000000000057v10h-6.000000000000057Z" style="fill: rgb(227, 244, 221);"></path><path d="M150,160h6v10h-6Z" style="fill: rgb(227, 244, 221);"></path><path d="M132.00000000000003,190h5.999999999999972v10h-5.999999999999972Z" style="fill: rgb(247, 252, 240);"></path><path d="M197.99999999999997,140h6.000000000000057v10h-6.000000000000057Z" style="fill: rgb(237, 248, 231);"></path><path d="M167.99999999999997,40h5.999999999999972v10h-5.999999999999972Z" style="fill: rgb(242, 250, 235);"></path><path d="M120,180h5.999999999999972v10h-5.999999999999972Z" style="fill: rgb(232, 246, 226);"></path><path d="M180,180h6.000000000000028v10h-6.000000000000028Z" style="fill: rgb(237, 248, 231);"></path><path d="M264.00000000000006,30h5.999999999999943v10h-5.999999999999943Z" style="fill: rgb(247, 252, 240);"></path><path d="M48,180h6v10h-6Z" style="fill: rgb(247, 252, 240);"></path><path d="M192,130h6.000000000000057v10h-6.000000000000057Z" style="fill: rgb(217, 240, 212);"></path><path d="M150,180h6v10h-6Z" style="fill: rgb(217, 240, 212);"></path><path d="M138,20h5.999999999999972v10h-5.999999999999972Z" style="fill: rgb(247, 252, 240);"></path><path d="M66.00000000000001,180h6v10h-6Z" style="fill: rgb(247, 252, 240);"></path><path d="M246.00000000000003,40h6.000000000000028v10h-6.000000000000028Z" style="fill: rgb(242, 250, 235);"></path><path d="M54,180h6v10h-6Z" style="fill: rgb(242, 250, 235);"></path><path d="M240,110h6.000000000000028v10h-6.000000000000028Z" style="fill: rgb(247, 252, 240);"></path><path d="M114,160h6v10h-6Z" style="fill: rgb(232, 246, 226);"></path><path d="M204.00000000000003,89.99999999999999h6.000000000000028v10.000000000000014h-6.000000000000028Z" style="fill: rgb(237, 248, 231);"></path><path d="M108,60h6v10h-6Z" style="fill: rgb(247, 252, 240);"></path><path d="M120,190h5.999999999999972v10h-5.999999999999972Z" style="fill: rgb(247, 252, 240);"></path><path d="M108,10h6v10h-6Z" style="fill: rgb(247, 252, 240);"></path><path d="M222,100h6.000000000000028v10h-6.000000000000028Z" style="fill: rgb(242, 250, 235);"></path><path d="M120,120h5.999999999999972v10h-5.999999999999972Z" style="fill: rgb(247, 252, 240);"></path><path d="M210,120h6.000000000000028v10h-6.000000000000028Z" style="fill: rgb(222, 242, 216);"></path><path d="M186.00000000000003,10h6.000000000000028v10h-6.000000000000028Z" style="fill: rgb(247, 252, 240);"></path><path d="M204.00000000000003,110h6.000000000000028v10h-6.000000000000028Z" style="fill: rgb(237, 248, 231);"></path><path d="M210,110h6.000000000000028v10h-6.000000000000028Z" style="fill: rgb(237, 248, 231);"></path><path d="M108,180h6v10h-6Z" style="fill: rgb(227, 244, 221);"></path><path d="M150,89.99999999999999h6v10.000000000000014h-6Z" style="fill: rgb(247, 252, 240);"></path><path d="M216.00000000000003,110h6.000000000000028v10h-6.000000000000028Z" style="fill: rgb(247, 252, 240);"></path><path d="M102.00000000000001,190h5.999999999999986v10h-5.999999999999986Z" style="fill: rgb(247, 252, 240);"></path><path d="M228,120h6v10h-6Z" style="fill: rgb(242, 250, 235);"></path><path d="M216.00000000000003,150h6.000000000000028v10h-6.000000000000028Z" style="fill: rgb(247, 252, 240);"></path><path d="M132.00000000000003,80h5.999999999999972v9.999999999999986h-5.999999999999972Z" style="fill: rgb(247, 252, 240);"></path><path d="M66.00000000000001,170h6v10h-6Z" style="fill: rgb(247, 252, 240);"></path><path d="M90,130h6v10h-6Z" style="fill: rgb(247, 252, 240);"></path><path d="M90,140h6v10h-6Z" style="fill: rgb(247, 252, 240);"></path><path d="M96,190h6.000000000000014v10h-6.000000000000014Z" style="fill: rgb(242, 250, 235);"></path><path d="M144.00000000000003,150h6v10h-6Z" style="fill: rgb(232, 246, 226);"></path><path d="M240,89.99999999999999h6.000000000000028v10.000000000000014h-6.000000000000028Z" style="fill: rgb(247, 252, 240);"></path><path d="M204.00000000000003,70h6.000000000000028v10h-6.000000000000028Z" style="fill: rgb(227, 244, 221);"></path><path d="M144.00000000000003,60h6v10h-6Z" style="fill: rgb(247, 252, 240);"></path><path d="M66.00000000000001,150h6v10h-6Z" style="fill: rgb(247, 252, 240);"></path><path d="M216.00000000000003,89.99999999999999h6.000000000000028v10.000000000000014h-6.000000000000028Z" style="fill: rgb(247, 252, 240);"></path><path d="M204.00000000000003,140h6.000000000000028v10h-6.000000000000028Z" style="fill: rgb(247, 252, 240);"></path><path d="M102.00000000000001,150h5.999999999999986v10h-5.999999999999986Z" style="fill: rgb(242, 250, 235);"></path><path d="M162,20h5.999999999999972v10h-5.999999999999972Z" style="fill: rgb(247, 252, 240);"></path><path d="M204.00000000000003,120h6.000000000000028v10h-6.000000000000028Z" style="fill: rgb(237, 248, 231);"></path><path d="M78,190h6.000000000000014v10h-6.000000000000014Z" style="fill: rgb(242, 250, 235);"></path><path d="M120,110h5.999999999999972v10h-5.999999999999972Z" style="fill: rgb(247, 252, 240);"></path><path d="M66.00000000000001,120h6v10h-6Z" style="fill: rgb(247, 252, 240);"></path><path d="M222,110h6.000000000000028v10h-6.000000000000028Z" style="fill: rgb(247, 252, 240);"></path><path d="M222,130h6.000000000000028v10h-6.000000000000028Z" style="fill: rgb(247, 252, 240);"></path><path d="M108,150h6v10h-6Z" style="fill: rgb(247, 252, 240);"></path><path d="M84.00000000000001,30h6v10h-6Z" style="fill: rgb(247, 252, 240);"></path><path d="M78,160h6.000000000000014v10h-6.000000000000014Z" style="fill: rgb(242, 250, 235);"></path><path d="M120,140h5.999999999999972v10h-5.999999999999972Z" style="fill: rgb(247, 252, 240);"></path><path d="M240,60h6.000000000000028v10h-6.000000000000028Z" style="fill: rgb(247, 252, 240);"></path><path d="M228,89.99999999999999h6v10.000000000000014h-6Z" style="fill: rgb(247, 252, 240);"></path><path d="M174.00000000000003,170h6.000000000000028v10h-6.000000000000028Z" style="fill: rgb(247, 252, 240);"></path><path d="M167.99999999999997,10h5.999999999999972v10h-5.999999999999972Z" style="fill: rgb(247, 252, 240);"></path><path d="M108,190h6v10h-6Z" style="fill: rgb(247, 252, 240);"></path><path d="M84.00000000000001,180h6v10h-6Z" style="fill: rgb(247, 252, 240);"></path><path d="M216.00000000000003,80h6.000000000000028v9.999999999999986h-6.000000000000028Z" style="fill: rgb(247, 252, 240);"></path><path d="M186.00000000000003,130h6.000000000000028v10h-6.000000000000028Z" style="fill: rgb(247, 252, 240);"></path><path d="M150,60h6v10h-6Z" style="fill: rgb(247, 252, 240);"></path><path d="M197.99999999999997,160h6.000000000000057v10h-6.000000000000057Z" style="fill: rgb(247, 252, 240);"></path><path d="M132.00000000000003,10h5.999999999999972v10h-5.999999999999972Z" style="fill: rgb(247, 252, 240);"></path><path d="M204.00000000000003,150h6.000000000000028v10h-6.000000000000028Z" style="fill: rgb(247, 252, 240);"></path><path d="M126.00000000000001,150h6.000000000000014v10h-6.000000000000014Z" style="fill: rgb(247, 252, 240);"></path><path d="M174.00000000000003,20h6.000000000000028v10h-6.000000000000028Z" style="fill: rgb(247, 252, 240);"></path><path d="M234,170h6v10h-6Z" style="fill: rgb(247, 252, 240);"></path></g><g class="mark-group role-legend"><g transform="translate(318,0)"><path class="background" d="M0,0h104v216h-104Z" style="pointer-events: none; fill: none;"></path><g><g class="mark-group role-legend-entry"><g transform="translate(0,16)"><path class="background" d="M0,0h0v0h0Z" style="pointer-events: none; fill: none;"></path><g><g class="mark-rect role-legend-gradient" style="pointer-events: none;"><path d="M0,0h16v200h-16Z" style="fill: url(#gradient_0); stroke: #ddd; stroke-width: 0; opacity: 1;"></path></g><g class="mark-text role-legend-label" style="pointer-events: none;"><text text-anchor="start" transform="translate(18,153)" style="font-family: sans-serif; font-size: 10px; fill: #000; opacity: 1;">10</text><text text-anchor="start" transform="translate(18,97.44444444444444)" style="font-family: sans-serif; font-size: 10px; fill: #000; opacity: 1;">20</text><text text-anchor="start" transform="translate(18,41.888888888888886)" style="font-family: sans-serif; font-size: 10px; fill: #000; opacity: 1;">30</text></g></g></g></g><g class="mark-text role-legend-title" style="pointer-events: none;"><text text-anchor="start" transform="translate(0,9)" style="font-family: sans-serif; font-size: 11px; font-weight: bold; fill: #000; opacity: 1;">Number of Records</text></g></g></g></g><g class="mark-group role-axis"><g transform="translate(0.5,200.5)"><path class="background" d="M0,0h0v0h0Z" style="pointer-events: none; fill: none;"></path><g><g class="mark-rule role-axis-tick" style="pointer-events: none;"><line transform="translate(0,0)" x2="0" y2="5" style="fill: none; stroke: #888; stroke-width: 1; opacity: 1;"></line><line transform="translate(15,0)" x2="0" y2="5" style="fill: none; stroke: #888; stroke-width: 1; opacity: 1;"></line><line transform="translate(30,0)" x2="0" y2="5" style="fill: none; stroke: #888; stroke-width: 1; opacity: 1;"></line><line transform="translate(45,0)" x2="0" y2="5" style="fill: none; stroke: #888; stroke-width: 1; opacity: 1;"></line><line transform="translate(60,0)" x2="0" y2="5" style="fill: none; stroke: #888; stroke-width: 1; opacity: 1;"></line><line transform="translate(75,0)" x2="0" y2="5" style="fill: none; stroke: #888; stroke-width: 1; opacity: 1;"></line><line transform="translate(90,0)" x2="0" y2="5" style="fill: none; stroke: #888; stroke-width: 1; opacity: 1;"></line><line transform="translate(105,0)" x2="0" y2="5" style="fill: none; stroke: #888; stroke-width: 1; opacity: 1;"></line><line transform="translate(120,0)" x2="0" y2="5" style="fill: none; stroke: #888; stroke-width: 1; opacity: 1;"></line><line transform="translate(135,0)" x2="0" y2="5" style="fill: none; stroke: #888; stroke-width: 1; opacity: 1;"></line><line transform="translate(150,0)" x2="0" y2="5" style="fill: none; stroke: #888; stroke-width: 1; opacity: 1;"></line><line transform="translate(165,0)" x2="0" y2="5" style="fill: none; stroke: #888; stroke-width: 1; opacity: 1;"></line><line transform="translate(180,0)" x2="0" y2="5" style="fill: none; stroke: #888; stroke-width: 1; opacity: 1;"></line><line transform="translate(195,0)" x2="0" y2="5" style="fill: none; stroke: #888; stroke-width: 1; opacity: 1;"></line><line transform="translate(210,0)" x2="0" y2="5" style="fill: none; stroke: #888; stroke-width: 1; opacity: 1;"></line><line transform="translate(225,0)" x2="0" y2="5" style="fill: none; stroke: #888; stroke-width: 1; opacity: 1;"></line><line transform="translate(240,0)" x2="0" y2="5" style="fill: none; stroke: #888; stroke-width: 1; opacity: 1;"></line><line transform="translate(255,0)" x2="0" y2="5" style="fill: none; stroke: #888; stroke-width: 1; opacity: 1;"></line><line transform="translate(270,0)" x2="0" y2="5" style="fill: none; stroke: #888; stroke-width: 1; opacity: 1;"></line><line transform="translate(285,0)" x2="0" y2="5" style="fill: none; stroke: #888; stroke-width: 1; opacity: 1;"></line><line transform="translate(300,0)" x2="0" y2="5" style="fill: none; stroke: #888; stroke-width: 1; opacity: 1;"></line></g><g class="mark-text role-axis-label" style="pointer-events: none;"><text text-anchor="start" transform="translate(0,15)" style="font-family: sans-serif; font-size: 10px; fill: #000; opacity: 1;">0.0</text><text text-anchor="middle" transform="translate(15,15)" style="font-family: sans-serif; font-size: 10px; fill: #000; opacity: 0;">0.5</text><text text-anchor="middle" transform="translate(30,15)" style="font-family: sans-serif; font-size: 10px; fill: #000; opacity: 1;">1.0</text><text text-anchor="middle" transform="translate(45,15)" style="font-family: sans-serif; font-size: 10px; fill: #000; opacity: 0;">1.5</text><text text-anchor="middle" transform="translate(60,15)" style="font-family: sans-serif; font-size: 10px; fill: #000; opacity: 1;">2.0</text><text text-anchor="middle" transform="translate(75,15)" style="font-family: sans-serif; font-size: 10px; fill: #000; opacity: 0;">2.5</text><text text-anchor="middle" transform="translate(90,15)" style="font-family: sans-serif; font-size: 10px; fill: #000; opacity: 1;">3.0</text><text text-anchor="middle" transform="translate(105,15)" style="font-family: sans-serif; font-size: 10px; fill: #000; opacity: 0;">3.5</text><text text-anchor="middle" transform="translate(120,15)" style="font-family: sans-serif; font-size: 10px; fill: #000; opacity: 1;">4.0</text><text text-anchor="middle" transform="translate(135,15)" style="font-family: sans-serif; font-size: 10px; fill: #000; opacity: 0;">4.5</text><text text-anchor="middle" transform="translate(150,15)" style="font-family: sans-serif; font-size: 10px; fill: #000; opacity: 1;">5.0</text><text text-anchor="middle" transform="translate(165,15)" style="font-family: sans-serif; font-size: 10px; fill: #000; opacity: 0;">5.5</text><text text-anchor="middle" transform="translate(180,15)" style="font-family: sans-serif; font-size: 10px; fill: #000; opacity: 1;">6.0</text><text text-anchor="middle" transform="translate(195,15)" style="font-family: sans-serif; font-size: 10px; fill: #000; opacity: 0;">6.5</text><text text-anchor="middle" transform="translate(210,15)" style="font-family: sans-serif; font-size: 10px; fill: #000; opacity: 1;">7.0</text><text text-anchor="middle" transform="translate(225,15)" style="font-family: sans-serif; font-size: 10px; fill: #000; opacity: 0;">7.5</text><text text-anchor="middle" transform="translate(240,15)" style="font-family: sans-serif; font-size: 10px; fill: #000; opacity: 1;">8.0</text><text text-anchor="middle" transform="translate(255,15)" style="font-family: sans-serif; font-size: 10px; fill: #000; opacity: 0;">8.5</text><text text-anchor="middle" transform="translate(270,15)" style="font-family: sans-serif; font-size: 10px; fill: #000; opacity: 1;">9.0</text><text text-anchor="middle" transform="translate(285,15)" style="font-family: sans-serif; font-size: 10px; fill: #000; opacity: 0;">9.5</text><text text-anchor="end" transform="translate(300,15)" style="font-family: sans-serif; font-size: 10px; fill: #000; opacity: 1;">10.0</text></g><g class="mark-rule role-axis-domain" style="pointer-events: none;"><line transform="translate(0,0)" x2="300" y2="0" style="fill: none; stroke: #888; stroke-width: 1; opacity: 1;"></line></g><g class="mark-text role-axis-title" style="pointer-events: none;"><text text-anchor="middle" transform="translate(150,31)" style="font-family: sans-serif; font-size: 11px; font-weight: bold; fill: #000; opacity: 1;">IMDB_Rating (binned)</text></g></g></g></g><g class="mark-group role-axis"><g transform="translate(0.5,0.5)"><path class="background" d="M0,0h0v0h0Z" style="pointer-events: none; fill: none;"></path><g><g class="mark-rule role-axis-tick" style="pointer-events: none;"><line transform="translate(0,200)" x2="-5" y2="0" style="fill: none; stroke: #888; stroke-width: 1; opacity: 1;"></line><line transform="translate(0,160)" x2="-5" y2="0" style="fill: none; stroke: #888; stroke-width: 1; opacity: 1;"></line><line transform="translate(0,120)" x2="-5" y2="0" style="fill: none; stroke: #888; stroke-width: 1; opacity: 1;"></line><line transform="translate(0,80)" x2="-5" y2="0" style="fill: none; stroke: #888; stroke-width: 1; opacity: 1;"></line><line transform="translate(0,40)" x2="-5" y2="0" style="fill: none; stroke: #888; stroke-width: 1; opacity: 1;"></line><line transform="translate(0,0)" x2="-5" y2="0" style="fill: none; stroke: #888; stroke-width: 1; opacity: 1;"></line></g><g class="mark-text role-axis-label" style="pointer-events: none;"><text text-anchor="end" transform="translate(-7,203)" style="font-family: sans-serif; font-size: 10px; fill: #000; opacity: 1;">0</text><text text-anchor="end" transform="translate(-7,163)" style="font-family: sans-serif; font-size: 10px; fill: #000; opacity: 1;">20</text><text text-anchor="end" transform="translate(-7,123)" style="font-family: sans-serif; font-size: 10px; fill: #000; opacity: 1;">40</text><text text-anchor="end" transform="translate(-7,83)" style="font-family: sans-serif; font-size: 10px; fill: #000; opacity: 1;">60</text><text text-anchor="end" transform="translate(-7,43)" style="font-family: sans-serif; font-size: 10px; fill: #000; opacity: 1;">80</text><text text-anchor="end" transform="translate(-7,3)" style="font-family: sans-serif; font-size: 10px; fill: #000; opacity: 1;">100</text></g><g class="mark-rule role-axis-domain" style="pointer-events: none;"><line transform="translate(0,200)" x2="0" y2="-200" style="fill: none; stroke: #888; stroke-width: 1; opacity: 1;"></line></g><g class="mark-text role-axis-title" style="pointer-events: none;"><text text-anchor="middle" transform="translate(-34,100) rotate(-90) translate(0,-2)" style="font-family: sans-serif; font-size: 11px; font-weight: bold; fill: #000; opacity: 1;">Rotten_Tomatoes_Rating (binned)</text></g></g></g></g></g></g></g></g></svg>