<svg xmlns="http://www.w3.org/2000/svg" xmlns:xlink="http://www.w3.org/1999/xlink" version="1.1" class="marks" width="961" height="249" viewBox="0 0 961 249"><rect width="961" height="249" fill="white"/><g fill="none" stroke-miterlimit="10" transform="translate(41,11)"><g class="mark-group role-frame root" role="graphics-object" aria-roledescription="group mark container"><g transform="translate(0,0)"><path class="background" aria-hidden="true" d="M0,0h0v0h0Z"/><g><g class="mark-group role-scope child__column_temp_max_group" role="graphics-object" aria-roledescription="group mark container"><g transform="translate(0,0)"><path class="background" aria-hidden="true" d="M0.5,0.5h240v200h-240Z" stroke="#ddd"/><g><g class="mark-group role-axis" aria-hidden="true"><g transform="translate(0.5,0.5)"><path class="background" aria-hidden="true" d="M0,0h0v0h0Z" pointer-events="none"/><g><g class="mark-rule role-axis-grid" pointer-events="none"><line transform="translate(0,200)" x2="240" y2="0" stroke="#ddd" stroke-width="1" opacity="1"/><line transform="translate(0,171)" x2="240" y2="0" stroke="#ddd" stroke-width="1" opacity="1"/><line transform="translate(0,143)" x2="240" y2="0" stroke="#ddd" stroke-width="1" opacity="1"/><line transform="translate(0,114)" x2="240" y2="0" stroke="#ddd" stroke-width="1" opacity="1"/><line transform="translate(0,86)" x2="240" y2="0" stroke="#ddd" stroke-width="1" opacity="1"/><line transform="translate(0,57)" x2="240" y2="0" stroke="#ddd" stroke-width="1" opacity="1"/><line transform="translate(0,29)" x2="240" y2="0" stroke="#ddd" stroke-width="1" opacity="1"/><line transform="translate(0,0)" x2="240" y2="0" stroke="#ddd" stroke-width="1" opacity="1"/></g></g><path class="foreground" aria-hidden="true" d="" pointer-events="none" display="none"/></g></g><g class="mark-group role-axis" role="graphics-symbol" aria-roledescription="axis" aria-label="X-axis titled 'date (month)' for a discrete scale with 12 values: January, February, March, April, May, ending with December"><g transform="translate(0.5,200.5)"><path class="background" aria-hidden="true" d="M0,0h0v0h0Z" pointer-events="none"/><g><g class="mark-rule role-axis-tick" pointer-events="none"><line transform="translate(10,0)" x2="0" y2="5" stroke="#888" stroke-width="1" opacity="1"/><line transform="translate(30,0)" x2="0" y2="5" stroke="#888" stroke-width="1" opacity="1"/><line transform="translate(50,0)" x2="0" y2="5" stroke="#888" stroke-width="1" opacity="1"/><line transform="translate(70,0)" x2="0" y2="5" stroke="#888" stroke-width="1" opacity="1"/><line transform="translate(90,0)" x2="0" y2="5" stroke="#888" stroke-width="1" opacity="1"/><line transform="translate(110,0)" x2="0" y2="5" stroke="#888" stroke-width="1" opacity="1"/><line transform="translate(130,0)" x2="0" y2="5" stroke="#888" stroke-width="1" opacity="1"/><line transform="translate(150,0)" x2="0" y2="5" stroke="#888" stroke-width="1" opacity="1"/><line transform="translate(170,0)" x2="0" y2="5" stroke="#888" stroke-width="1" opacity="1"/><line transform="translate(190,0)" x2="0" y2="5" stroke="#888" stroke-width="1" opacity="1"/><line transform="translate(210,0)" x2="0" y2="5" stroke="#888" stroke-width="1" opacity="1"/><line transform="translate(230,0)" x2="0" y2="5" stroke="#888" stroke-width="1" opacity="1"/></g><g class="mark-text role-axis-label" pointer-events="none"><text text-anchor="middle" transform="translate(10,15)" font-family="sans-serif" font-size="10px" fill="#000" opacity="1">Jan</text><text text-anchor="middle" transform="translate(30,15)" font-family="sans-serif" font-size="10px" fill="#000" opacity="1">Feb</text><text text-anchor="middle" transform="translate(50,15)" font-family="sans-serif" font-size="10px" fill="#000" opacity="1">Mar</text><text text-anchor="middle" transform="translate(70,15)" font-family="sans-serif" font-size="10px" fill="#000" opacity="1">Apr</text><text text-anchor="middle" transform="translate(90,15)" font-family="sans-serif" font-size="10px" fill="#000" opacity="1">May</text><text text-anchor="middle" transform="translate(110,15)" font-family="sans-serif" font-size="10px" fill="#000" opacity="1">Jun</text><text text-anchor="middle" transform="translate(130,15)" font-family="sans-serif" font-size="10px" fill="#000" opacity="1">Jul</text><text text-anchor="middle" transform="translate(150,15)" font-family="sans-serif" font-size="10px" fill="#000" opacity="1">Aug</text><text text-anchor="middle" transform="translate(170,15)" font-family="sans-serif" font-size="10px" fill="#000" opacity="1">Sep</text><text text-anchor="middle" transform="translate(190,15)" font-family="sans-serif" font-size="10px" fill="#000" opacity="1">Oct</text><text text-anchor="middle" transform="translate(210,15)" font-family="sans-serif" font-size="10px" fill="#000" opacity="1">Nov</text><text text-anchor="middle" transform="translate(230,15)" font-family="sans-serif" font-size="10px" fill="#000" opacity="1">Dec</text></g><g class="mark-rule role-axis-domain" pointer-events="none"><line transform="translate(0,0)" x2="240" y2="0" stroke="#888" stroke-width="1" opacity="1"/></g><g class="mark-text role-axis-title" pointer-events="none"><text text-anchor="middle" transform="translate(120,30)" font-family="sans-serif" font-size="11px" font-weight="bold" fill="#000" opacity="1">date (month)</text></g></g><path class="foreground" aria-hidden="true" d="" pointer-events="none" display="none"/></g></g><g class="mark-group role-axis" role="graphics-symbol" aria-roledescription="axis" aria-label="Y-axis titled 'Mean of temp_max' for a linear scale with values from 0 to 35"><g transform="translate(0.5,0.5)"><path class="background" aria-hidden="true" d="M0,0h0v0h0Z" pointer-events="none"/><g><g class="mark-rule role-axis-tick" pointer-events="none"><line transform="translate(0,200)" x2="-5" y2="0" stroke="#888" stroke-width="1" opacity="1"/><line transform="translate(0,171)" x2="-5" y2="0" stroke="#888" stroke-width="1" opacity="1"/><line transform="translate(0,143)" x2="-5" y2="0" stroke="#888" stroke-width="1" opacity="1"/><line transform="translate(0,114)" x2="-5" y2="0" stroke="#888" stroke-width="1" opacity="1"/><line transform="translate(0,86)" x2="-5" y2="0" stroke="#888" stroke-width="1" opacity="1"/><line transform="translate(0,57)" x2="-5" y2="0" stroke="#888" stroke-width="1" opacity="1"/><line transform="translate(0,29)" x2="-5" y2="0" stroke="#888" stroke-width="1" opacity="1"/><line transform="translate(0,0)" x2="-5" y2="0" stroke="#888" stroke-width="1" opacity="1"/></g><g class="mark-text role-axis-label" pointer-events="none"><text text-anchor="end" transform="translate(-7,203)" font-family="sans-serif" font-size="10px" fill="#000" opacity="1">0</text><text text-anchor="end" transform="translate(-7,174.42857142857144)" font-family="sans-serif" font-size="10px" fill="#000" opacity="1">5</text><text text-anchor="end" transform="translate(-7,145.85714285714286)" font-family="sans-serif" font-size="10px" fill="#000" opacity="1">10</text><text text-anchor="end" transform="translate(-7,117.28571428571428)" font-family="sans-serif" font-size="10px" fill="#000" opacity="1">15</text><text text-anchor="end" transform="translate(-7,88.71428571428572)" font-family="sans-serif" font-size="10px" fill="#000" opacity="1">20</text><text text-anchor="end" transform="translate(-7,60.14285714285714)" font-family="sans-serif" font-size="10px" fill="#000" opacity="1">25</text><text text-anchor="end" transform="translate(-7,31.57142857142858)" font-family="sans-serif" font-size="10px" fill="#000" opacity="1">30</text><text text-anchor="end" transform="translate(-7,3)" font-family="sans-serif" font-size="10px" fill="#000" opacity="1">35</text></g><g class="mark-rule role-axis-domain" pointer-events="none"><line transform="translate(0,200)" x2="0" y2="-200" stroke="#888" stroke-width="1" opacity="1"/></g><g class="mark-text role-axis-title" pointer-events="none"><text text-anchor="middle" transform="translate(-23.724609375,100) rotate(-90) translate(0,-2)" font-family="sans-serif" font-size="11px" font-weight="bold" fill="#000" opacity="1">Mean of temp_max</text></g></g><path class="foreground" aria-hidden="true" d="" pointer-events="none" display="none"/></g></g><g class="mark-group role-scope child__column_temp_max_layer_0_pathgroup" role="graphics-object" aria-roledescription="group mark container"><g transform="translate(0,0)"><path class="background" aria-hidden="true" d="M0,0h240v200h-240Z"/><g><g class="mark-line role-mark child__column_temp_max_layer_0_marks" role="graphics-object" aria-roledescription="line mark container"><path aria-label="date (month): Dec; Mean of temp_max: 12.8; location: Seattle; date (year): 2011" role="graphics-symbol" aria-roledescription="line mark" d="M230,126.857Z" stroke="#f58518" stroke-width="2" opacity="0.2"/></g></g><path class="foreground" aria-hidden="true" d="" display="none"/></g><g transform="translate(0,0)"><path class="background" aria-hidden="true" d="M0,0h240v200h-240Z"/><g><g class="mark-line role-mark child__column_temp_max_layer_0_marks" role="graphics-object" aria-roledescription="line mark container"><path aria-label="date (month): Jan; Mean of temp_max: 6.92903225806; location: Seattle; date (year): 2012" role="graphics-symbol" aria-roledescription="line mark" d="M10,160.406L30,147.547L50,144.885L70,114.476L90,97.548L110,93.181L130,68.387L150,52.645L170,68.952L190,111.078L210,135.6L230,160.184" stroke="#f58518" stroke-width="2" opacity="0.2"/></g></g><path class="foreground" aria-hidden="true" d="" display="none"/></g><g transform="translate(0,0)"><path class="background" aria-hidden="true" d="M0,0h240v200h-240Z"/><g><g class="mark-line role-mark child__column_temp_max_layer_0_marks" role="graphics-object" aria-roledescription="line mark container"><path aria-label="date (month): Jan; Mean of temp_max: 6.32258064516; location: Seattle; date (year): 2013" role="graphics-symbol" aria-roledescription="line mark" d="M10,163.871L30,145.224L50,126.968L70,118.4L90,87.023L110,65.429L130,52.94L150,49.419L170,80.495L190,118.065L210,131.981L230,160.995" stroke="#f58518" stroke-width="2" opacity="0.2"/></g></g><path class="foreground" aria-hidden="true" d="" display="none"/></g><g transform="translate(0,0)"><path class="background" aria-hidden="true" d="M0,0h240v200h-240Z"/><g><g class="mark-line role-mark child__column_temp_max_layer_0_marks" role="graphics-object" aria-roledescription="line mark container"><path aria-label="date (month): Jan; Mean of temp_max: 9.61935483871; location: Seattle; date (year): 2014" role="graphics-symbol" aria-roledescription="line mark" d="M10,145.032L30,153.265L50,124.922L70,108.8L90,87.779L110,74.305L130,47.3L150,50.267L170,68.59L190,98.691L210,138.248L230,141.843" stroke="#f58518" stroke-width="2" opacity="0.2"/></g></g><path class="foreground" aria-hidden="true" d="" display="none"/></g><g transform="translate(0,0)"><path class="background" aria-hidden="true" d="M0,0h240v200h-240Z"/><g><g class="mark-line role-mark child__column_temp_max_layer_0_marks" role="graphics-object" aria-roledescription="line mark container"><path aria-label="date (month): Jan; Mean of temp_max: 10.2774193548; location: Seattle; date (year): 2015" role="graphics-symbol" aria-roledescription="line mark" d="M10,141.272L30,128.122L50,117.53L70,110.362L90,85.972L110,48L130,39.263L150,53.493L170,83.714L190,101.419L210,145.086L230,152.419" stroke="#f58518" stroke-width="2" opacity="0.2"/></g></g><path class="foreground" aria-hidden="true" d="" display="none"/></g><g transform="translate(0,0)"><path class="background" aria-hidden="true" d="M0,0h240v200h-240Z"/><g><g class="mark-line role-mark child__column_temp_max_layer_0_marks" role="graphics-object" aria-roledescription="line mark container"><path aria-label="date (month): Dec; Mean of temp_max: 10; location: New York; date (year): 2011" role="graphics-symbol" aria-roledescription="line mark" d="M230,142.857Z" stroke="#4c78a8" stroke-width="2" opacity="0.2"/></g></g><path class="foreground" aria-hidden="true" d="" display="none"/></g><g transform="translate(0,0)"><path class="background" aria-hidden="true" d="M0,0h240v200h-240Z"/><g><g class="mark-line role-mark child__column_temp_max_layer_0_marks" role="graphics-object" aria-roledescription="line mark container"><path aria-label="date (month): Jan; Mean of temp_max: 7.26129032258; location: New York; date (year): 2012" role="graphics-symbol" aria-roledescription="line mark" d="M10,158.507L30,153.32L50,123.078L70,99.6L90,77.585L110,49.41L130,29.475L150,34.028L170,61.943L190,96.129L210,143.181L230,151.023" stroke="#4c78a8" stroke-width="2" opacity="0.2"/></g></g><path class="foreground" aria-hidden="true" d="" display="none"/></g><g transform="translate(0,0)"><path class="background" aria-hidden="true" d="M0,0h240v200h-240Z"/><g><g class="mark-line role-mark child__column_temp_max_layer_0_marks" role="graphics-object" aria-roledescription="line mark container"><path aria-label="date (month): Jan; Mean of temp_max: 5.1064516129; location: New York; date (year): 2013" role="graphics-symbol" aria-roledescription="line mark" d="M10,170.82L30,172.837L50,152.074L70,114.324L90,84.498L110,55.105L130,27.005L150,42.82L170,60.857L190,88.7L210,135.562L230,161.899" stroke="#4c78a8" stroke-width="2" opacity="0.2"/></g></g><path class="foreground" aria-hidden="true" d="" display="none"/></g><g transform="translate(0,0)"><path class="background" aria-hidden="true" d="M0,0h240v200h-240Z"/><g><g class="mark-line role-mark child__column_temp_max_layer_0_marks" role="graphics-object" aria-roledescription="line mark container"><path aria-label="date (month): Jan; Mean of temp_max: 2.45483870968; location: New York; date (year): 2014" role="graphics-symbol" aria-roledescription="line mark" d="M10,185.972L30,183.612L50,153.899L70,114.286L90,77.493L110,48.476L130,39.576L150,41.972L170,58.514L190,92.332L210,135.638L230,155.576" stroke="#4c78a8" stroke-width="2" opacity="0.2"/></g></g><path class="foreground" aria-hidden="true" d="" display="none"/></g><g transform="translate(0,0)"><path class="background" aria-hidden="true" d="M0,0h240v200h-240Z"/><g><g class="mark-line role-mark child__column_temp_max_layer_0_marks" role="graphics-object" aria-roledescription="line mark container"><path aria-label="date (month): Jan; Mean of temp_max: 2.88064516129; location: New York; date (year): 2015" role="graphics-symbol" aria-roledescription="line mark" d="M10,183.539L30,198.163L50,155.631L70,107.638L90,69.53L110,49.962L130,30.359L150,27.926L170,47.143L190,93.825L210,111.79L230,122.057" stroke="#4c78a8" stroke-width="2" opacity="0.2"/></g></g><path class="foreground" aria-hidden="true" d="" display="none"/></g></g><g class="mark-group role-scope child__column_temp_max_layer_1_pathgroup" role="graphics-object" aria-roledescription="group mark container"><g transform="translate(0,0)"><path class="background" aria-hidden="true" d="M0,0h240v200h-240Z"/><g><g class="mark-line role-mark child__column_temp_max_layer_1_marks" role="graphics-object" aria-roledescription="line mark container"><path aria-label="date (month): Jan; Mean of temp_max: 8.28709677419; location: Seattle" role="graphics-symbol" aria-roledescription="line mark" d="M10,152.645L30,143.575L50,128.576L70,113.01L90,89.581L110,70.229L130,51.972L150,51.456L170,75.438L190,107.313L210,137.729L230,153.654" stroke="#f58518" stroke-width="2"/></g></g><path class="foreground" aria-hidden="true" d="" display="none"/></g><g transform="translate(0,0)"><path class="background" aria-hidden="true" d="M0,0h240v200h-240Z"/><g><g class="mark-line role-mark child__column_temp_max_layer_1_marks" role="graphics-object" aria-roledescription="line mark container"><path aria-label="date (month): Jan; Mean of temp_max: 4.42580645161; location: New York" role="graphics-symbol" aria-roledescription="line mark" d="M10,174.71L30,176.774L50,146.171L70,108.962L90,77.276L110,50.738L130,31.604L150,36.687L170,57.114L190,92.747L210,131.543L230,147.806" stroke="#4c78a8" stroke-width="2"/></g></g><path class="foreground" aria-hidden="true" d="" display="none"/></g></g></g><path class="foreground" aria-hidden="true" d="" display="none"/></g></g><g class="mark-group role-scope child__column_precipitation_group" role="graphics-object" aria-roledescription="group mark container"><g transform="translate(297,0)"><path class="background" aria-hidden="true" d="M0.5,0.5h240v200h-240Z" stroke="#ddd"/><g><g class="mark-group role-axis" aria-hidden="true"><g transform="translate(0.5,0.5)"><path class="background" aria-hidden="true" d="M0,0h0v0h0Z" pointer-events="none"/><g><g class="mark-rule role-axis-grid" pointer-events="none"><line transform="translate(0,200)" x2="240" y2="0" stroke="#ddd" stroke-width="1" opacity="1"/><line transform="translate(0,160)" x2="240" y2="0" stroke="#ddd" stroke-width="1" opacity="1"/><line transform="translate(0,120)" x2="240" y2="0" stroke="#ddd" stroke-width="1" opacity="1"/><line transform="translate(0,80)" x2="240" y2="0" stroke="#ddd" stroke-width="1" opacity="1"/><line transform="translate(0,40)" x2="240" y2="0" stroke="#ddd" stroke-width="1" opacity="1"/><line transform="translate(0,0)" x2="240" y2="0" stroke="#ddd" stroke-width="1" opacity="1"/></g></g><path class="foreground" aria-hidden="true" d="" pointer-events="none" display="none"/></g></g><g class="mark-group role-axis" role="graphics-symbol" aria-roledescription="axis" aria-label="X-axis titled 'date (month)' for a discrete scale with 12 values: January, February, March, April, May, ending with December"><g transform="translate(0.5,200.5)"><path class="background" aria-hidden="true" d="M0,0h0v0h0Z" pointer-events="none"/><g><g class="mark-rule role-axis-tick" pointer-events="none"><line transform="translate(10,0)" x2="0" y2="5" stroke="#888" stroke-width="1" opacity="1"/><line transform="translate(30,0)" x2="0" y2="5" stroke="#888" stroke-width="1" opacity="1"/><line transform="translate(50,0)" x2="0" y2="5" stroke="#888" stroke-width="1" opacity="1"/><line transform="translate(70,0)" x2="0" y2="5" stroke="#888" stroke-width="1" opacity="1"/><line transform="translate(90,0)" x2="0" y2="5" stroke="#888" stroke-width="1" opacity="1"/><line transform="translate(110,0)" x2="0" y2="5" stroke="#888" stroke-width="1" opacity="1"/><line transform="translate(130,0)" x2="0" y2="5" stroke="#888" stroke-width="1" opacity="1"/><line transform="translate(150,0)" x2="0" y2="5" stroke="#888" stroke-width="1" opacity="1"/><line transform="translate(170,0)" x2="0" y2="5" stroke="#888" stroke-width="1" opacity="1"/><line transform="translate(190,0)" x2="0" y2="5" stroke="#888" stroke-width="1" opacity="1"/><line transform="translate(210,0)" x2="0" y2="5" stroke="#888" stroke-width="1" opacity="1"/><line transform="translate(230,0)" x2="0" y2="5" stroke="#888" stroke-width="1" opacity="1"/></g><g class="mark-text role-axis-label" pointer-events="none"><text text-anchor="middle" transform="translate(10,15)" font-family="sans-serif" font-size="10px" fill="#000" opacity="1">Jan</text><text text-anchor="middle" transform="translate(30,15)" font-family="sans-serif" font-size="10px" fill="#000" opacity="1">Feb</text><text text-anchor="middle" transform="translate(50,15)" font-family="sans-serif" font-size="10px" fill="#000" opacity="1">Mar</text><text text-anchor="middle" transform="translate(70,15)" font-family="sans-serif" font-size="10px" fill="#000" opacity="1">Apr</text><text text-anchor="middle" transform="translate(90,15)" font-family="sans-serif" font-size="10px" fill="#000" opacity="1">May</text><text text-anchor="middle" transform="translate(110,15)" font-family="sans-serif" font-size="10px" fill="#000" opacity="1">Jun</text><text text-anchor="middle" transform="translate(130,15)" font-family="sans-serif" font-size="10px" fill="#000" opacity="1">Jul</text><text text-anchor="middle" transform="translate(150,15)" font-family="sans-serif" font-size="10px" fill="#000" opacity="1">Aug</text><text text-anchor="middle" transform="translate(170,15)" font-family="sans-serif" font-size="10px" fill="#000" opacity="1">Sep</text><text text-anchor="middle" transform="translate(190,15)" font-family="sans-serif" font-size="10px" fill="#000" opacity="1">Oct</text><text text-anchor="middle" transform="translate(210,15)" font-family="sans-serif" font-size="10px" fill="#000" opacity="1">Nov</text><text text-anchor="middle" transform="translate(230,15)" font-family="sans-serif" font-size="10px" fill="#000" opacity="1">Dec</text></g><g class="mark-rule role-axis-domain" pointer-events="none"><line transform="translate(0,0)" x2="240" y2="0" stroke="#888" stroke-width="1" opacity="1"/></g><g class="mark-text role-axis-title" pointer-events="none"><text text-anchor="middle" transform="translate(120,30)" font-family="sans-serif" font-size="11px" font-weight="bold" fill="#000" opacity="1">date (month)</text></g></g><path class="foreground" aria-hidden="true" d="" pointer-events="none" display="none"/></g></g><g class="mark-group role-axis" role="graphics-symbol" aria-roledescription="axis" aria-label="Y-axis titled 'Mean of precipitation' for a linear scale with values from 0 to 10"><g transform="translate(0.5,0.5)"><path class="background" aria-hidden="true" d="M0,0h0v0h0Z" pointer-events="none"/><g><g class="mark-rule role-axis-tick" pointer-events="none"><line transform="translate(0,200)" x2="-5" y2="0" stroke="#888" stroke-width="1" opacity="1"/><line transform="translate(0,160)" x2="-5" y2="0" stroke="#888" stroke-width="1" opacity="1"/><line transform="translate(0,120)" x2="-5" y2="0" stroke="#888" stroke-width="1" opacity="1"/><line transform="translate(0,80)" x2="-5" y2="0" stroke="#888" stroke-width="1" opacity="1"/><line transform="translate(0,40)" x2="-5" y2="0" stroke="#888" stroke-width="1" opacity="1"/><line transform="translate(0,0)" x2="-5" y2="0" stroke="#888" stroke-width="1" opacity="1"/></g><g class="mark-text role-axis-label" pointer-events="none"><text text-anchor="end" transform="translate(-7,203)" font-family="sans-serif" font-size="10px" fill="#000" opacity="1">0</text><text text-anchor="end" transform="translate(-7,163)" font-family="sans-serif" font-size="10px" fill="#000" opacity="1">2</text><text text-anchor="end" transform="translate(-7,123)" font-family="sans-serif" font-size="10px" fill="#000" opacity="1">4</text><text text-anchor="end" transform="translate(-7,83)" font-family="sans-serif" font-size="10px" fill="#000" opacity="1">6</text><text text-anchor="end" transform="translate(-7,42.99999999999999)" font-family="sans-serif" font-size="10px" fill="#000" opacity="1">8</text><text text-anchor="end" transform="translate(-7,3)" font-family="sans-serif" font-size="10px" fill="#000" opacity="1">10</text></g><g class="mark-rule role-axis-domain" pointer-events="none"><line transform="translate(0,200)" x2="0" y2="-200" stroke="#888" stroke-width="1" opacity="1"/></g><g class="mark-text role-axis-title" pointer-events="none"><text text-anchor="middle" transform="translate(-23.724609375,100) rotate(-90) translate(0,-2)" font-family="sans-serif" font-size="11px" font-weight="bold" fill="#000" opacity="1">Mean of precipitation</text></g></g><path class="foreground" aria-hidden="true" d="" pointer-events="none" display="none"/></g></g><g class="mark-group role-scope child__column_precipitation_layer_0_pathgroup" role="graphics-object" aria-roledescription="group mark container"><g transform="translate(0,0)"><path class="background" aria-hidden="true" d="M0,0h240v200h-240Z"/><g><g class="mark-line role-mark child__column_precipitation_layer_0_marks" role="graphics-object" aria-roledescription="line mark container"><path aria-label="date (month): Dec; Mean of precipitation: 0; location: Seattle; date (year): 2011" role="graphics-symbol" aria-roledescription="line mark" d="M230,200Z" stroke="#f58518" stroke-width="2" opacity="0.2"/></g></g><path class="foreground" aria-hidden="true" d="" display="none"/></g><g transform="translate(0,0)"><path class="background" aria-hidden="true" d="M0,0h240v200h-240Z"/><g><g class="mark-line role-mark child__column_precipitation_layer_0_marks" role="graphics-object" aria-roledescription="line mark container"><path aria-label="date (month): Jan; Mean of precipitation: 6.02580645161; location: Seattle; date (year): 2012" role="graphics-symbol" aria-roledescription="line mark" d="M10,79.484L30,145.655L50,80.968L70,155.267L90,162.387L110,154.333L130,183.032L150,200L170,199.4L190,83.871L210,63.4L230,90.387" stroke="#f58518" stroke-width="2" opacity="0.2"/></g></g><path class="foreground" aria-hidden="true" d="" display="none"/></g><g transform="translate(0,0)"><path class="background" aria-hidden="true" d="M0,0h240v200h-240Z"/><g><g class="mark-line role-mark child__column_precipitation_layer_0_marks" role="graphics-object" aria-roledescription="line mark container"><path aria-label="date (month): Jan; Mean of precipitation: 3.41935483871; location: Seattle; date (year): 2013" role="graphics-symbol" aria-roledescription="line mark" d="M10,131.613L30,168.5L50,157.677L70,100.267L90,160.968L110,177.933L130,200L150,177.806L170,90.2L190,178.968L210,134.667L230,174.581" stroke="#f58518" stroke-width="2" opacity="0.2"/></g></g><path class="foreground" aria-hidden="true" d="" display="none"/></g><g transform="translate(0,0)"><path class="background" aria-hidden="true" d="M0,0h240v200h-240Z"/><g><g class="mark-line role-mark child__column_precipitation_layer_0_marks" role="graphics-object" aria-roledescription="line mark container"><path aria-label="date (month): Jan; Mean of precipitation: 3.09677419355; location: Seattle; date (year): 2014" role="graphics-symbol" aria-roledescription="line mark" d="M10,138.065L30,90.214L50,45.484L70,129.267L90,148.387L110,187.467L130,187.355L150,170.323L170,162.2L190,89.355L210,117.933L230,121.419" stroke="#f58518" stroke-width="2" opacity="0.2"/></g></g><path class="foreground" aria-hidden="true" d="" display="none"/></g><g transform="translate(0,0)"><path class="background" aria-hidden="true" d="M0,0h240v200h-240Z"/><g><g class="mark-line role-mark child__column_precipitation_layer_0_marks" role="graphics-object" aria-roledescription="line mark container"><path aria-label="date (month): Jan; Mean of precipitation: 3.04838709677; location: Seattle; date (year): 2015" role="graphics-symbol" aria-roledescription="line mark" d="M10,139.032L30,105.214L50,123.484L70,169L90,187.484L110,199.133L130,198.516L150,142.516L170,189.8L190,104.129L210,67.6L230,18.467" stroke="#f58518" stroke-width="2" opacity="0.2"/></g></g><path class="foreground" aria-hidden="true" d="" display="none"/></g><g transform="translate(0,0)"><path class="background" aria-hidden="true" d="M0,0h240v200h-240Z"/><g><g class="mark-line role-mark child__column_precipitation_layer_0_marks" role="graphics-object" aria-roledescription="line mark container"><path aria-label="date (month): Dec; Mean of precipitation: 1.8; location: New York; date (year): 2011" role="graphics-symbol" aria-roledescription="line mark" d="M230,164Z" stroke="#4c78a8" stroke-width="2" opacity="0.2"/></g></g><path class="foreground" aria-hidden="true" d="" display="none"/></g><g transform="translate(0,0)"><path class="background" aria-hidden="true" d="M0,0h240v200h-240Z"/><g><g class="mark-line role-mark child__column_precipitation_layer_0_marks" role="graphics-object" aria-roledescription="line mark container"><path aria-label="date (month): Jan; Mean of precipitation: 1.76129032258; location: New York; date (year): 2012" role="graphics-symbol" aria-roledescription="line mark" d="M10,164.774L30,176.552L50,178.387L70,138.867L90,91.871L110,91.133L130,173.613L150,135.161L170,131.333L190,163.484L210,173.6L230,119.097" stroke="#4c78a8" stroke-width="2" opacity="0.2"/></g></g><path class="foreground" aria-hidden="true" d="" display="none"/></g><g transform="translate(0,0)"><path class="background" aria-hidden="true" d="M0,0h240v200h-240Z"/><g><g class="mark-line role-mark child__column_precipitation_layer_0_marks" role="graphics-object" aria-roledescription="line mark container"><path aria-label="date (month): Jan; Mean of precipitation: 1.96129032258; location: New York; date (year): 2013" role="graphics-symbol" aria-roledescription="line mark" d="M10,160.774L30,150.357L50,161.935L70,169.733L90,133.871L110,48.667L130,168.258L150,165.548L170,167.733L190,193.355L210,158.133L230,126.194" stroke="#4c78a8" stroke-width="2" opacity="0.2"/></g></g><path class="foreground" aria-hidden="true" d="" display="none"/></g><g transform="translate(0,0)"><path class="background" aria-hidden="true" d="M0,0h240v200h-240Z"/><g><g class="mark-line role-mark child__column_precipitation_layer_0_marks" role="graphics-object" aria-roledescription="line mark container"><path aria-label="date (month): Jan; Mean of precipitation: 2.46774193548; location: New York; date (year): 2014" role="graphics-symbol" aria-roledescription="line mark" d="M10,150.645L30,116.643L50,130.194L70,77.733L90,144.839L110,155.8L130,120.71L150,130.645L170,175.8L190,122.581L210,140.4L230,85.742" stroke="#4c78a8" stroke-width="2" opacity="0.2"/></g></g><path class="foreground" aria-hidden="true" d="" display="none"/></g><g transform="translate(0,0)"><path class="background" aria-hidden="true" d="M0,0h240v200h-240Z"/><g><g class="mark-line role-mark child__column_precipitation_layer_0_marks" role="graphics-object" aria-roledescription="line mark container"><path aria-label="date (month): Jan; Mean of precipitation: 4.38064516129; location: New York; date (year): 2015" role="graphics-symbol" aria-roledescription="line mark" d="M10,112.387L30,148.5L50,128.452L70,172.733L90,179.677L110,124.333L130,166.387L150,140.452L170,154.933L190,132.452L210,174.733L230,123.8" stroke="#4c78a8" stroke-width="2" opacity="0.2"/></g></g><path class="foreground" aria-hidden="true" d="" display="none"/></g></g><g class="mark-group role-scope child__column_precipitation_layer_1_pathgroup" role="graphics-object" aria-roledescription="group mark container"><g transform="translate(0,0)"><path class="background" aria-hidden="true" d="M0,0h240v200h-240Z"/><g><g class="mark-line role-mark child__column_precipitation_layer_1_marks" role="graphics-object" aria-roledescription="line mark container"><path aria-label="date (month): Jan; Mean of precipitation: 3.89758064516; location: Seattle" role="graphics-symbol" aria-roledescription="line mark" d="M10,122.048L30,127.558L50,101.903L70,138.45L90,164.806L110,179.717L130,192.226L150,172.661L170,160.4L190,114.081L210,95.9L230,102.677" stroke="#f58518" stroke-width="2"/></g></g><path class="foreground" aria-hidden="true" d="" display="none"/></g><g transform="translate(0,0)"><path class="background" aria-hidden="true" d="M0,0h240v200h-240Z"/><g><g class="mark-line role-mark child__column_precipitation_layer_1_marks" role="graphics-object" aria-roledescription="line mark container"><path aria-label="date (month): Jan; Mean of precipitation: 2.64274193548; location: New York" role="graphics-symbol" aria-roledescription="line mark" d="M10,147.145L30,148.265L50,149.742L70,139.767L90,137.565L110,104.983L130,157.242L150,142.952L170,157.45L190,152.968L210,161.717L230,114.032" stroke="#4c78a8" stroke-width="2"/></g></g><path class="foreground" aria-hidden="true" d="" display="none"/></g></g></g><path class="foreground" aria-hidden="true" d="" display="none"/></g></g><g class="mark-group role-scope child__column_wind_group" role="graphics-object" aria-roledescription="group mark container"><g transform="translate(594,0)"><path class="background" aria-hidden="true" d="M0.5,0.5h240v200h-240Z" stroke="#ddd"/><g><g class="mark-group role-axis" aria-hidden="true"><g transform="translate(0.5,0.5)"><path class="background" aria-hidden="true" d="M0,0h0v0h0Z" pointer-events="none"/><g><g class="mark-rule role-axis-grid" pointer-events="none"><line transform="translate(0,200)" x2="240" y2="0" stroke="#ddd" stroke-width="1" opacity="1"/><line transform="translate(0,169)" x2="240" y2="0" stroke="#ddd" stroke-width="1" opacity="1"/><line transform="translate(0,138)" x2="240" y2="0" stroke="#ddd" stroke-width="1" opacity="1"/><line transform="translate(0,108)" x2="240" y2="0" stroke="#ddd" stroke-width="1" opacity="1"/><line transform="translate(0,77)" x2="240" y2="0" stroke="#ddd" stroke-width="1" opacity="1"/><line transform="translate(0,46)" x2="240" y2="0" stroke="#ddd" stroke-width="1" opacity="1"/><line transform="translate(0,15)" x2="240" y2="0" stroke="#ddd" stroke-width="1" opacity="1"/></g></g><path class="foreground" aria-hidden="true" d="" pointer-events="none" display="none"/></g></g><g class="mark-group role-axis" role="graphics-symbol" aria-roledescription="axis" aria-label="X-axis titled 'date (month)' for a discrete scale with 12 values: January, February, March, April, May, ending with December"><g transform="translate(0.5,200.5)"><path class="background" aria-hidden="true" d="M0,0h0v0h0Z" pointer-events="none"/><g><g class="mark-rule role-axis-tick" pointer-events="none"><line transform="translate(10,0)" x2="0" y2="5" stroke="#888" stroke-width="1" opacity="1"/><line transform="translate(30,0)" x2="0" y2="5" stroke="#888" stroke-width="1" opacity="1"/><line transform="translate(50,0)" x2="0" y2="5" stroke="#888" stroke-width="1" opacity="1"/><line transform="translate(70,0)" x2="0" y2="5" stroke="#888" stroke-width="1" opacity="1"/><line transform="translate(90,0)" x2="0" y2="5" stroke="#888" stroke-width="1" opacity="1"/><line transform="translate(110,0)" x2="0" y2="5" stroke="#888" stroke-width="1" opacity="1"/><line transform="translate(130,0)" x2="0" y2="5" stroke="#888" stroke-width="1" opacity="1"/><line transform="translate(150,0)" x2="0" y2="5" stroke="#888" stroke-width="1" opacity="1"/><line transform="translate(170,0)" x2="0" y2="5" stroke="#888" stroke-width="1" opacity="1"/><line transform="translate(190,0)" x2="0" y2="5" stroke="#888" stroke-width="1" opacity="1"/><line transform="translate(210,0)" x2="0" y2="5" stroke="#888" stroke-width="1" opacity="1"/><line transform="translate(230,0)" x2="0" y2="5" stroke="#888" stroke-width="1" opacity="1"/></g><g class="mark-text role-axis-label" pointer-events="none"><text text-anchor="middle" transform="translate(10,15)" font-family="sans-serif" font-size="10px" fill="#000" opacity="1">Jan</text><text text-anchor="middle" transform="translate(30,15)" font-family="sans-serif" font-size="10px" fill="#000" opacity="1">Feb</text><text text-anchor="middle" transform="translate(50,15)" font-family="sans-serif" font-size="10px" fill="#000" opacity="1">Mar</text><text text-anchor="middle" transform="translate(70,15)" font-family="sans-serif" font-size="10px" fill="#000" opacity="1">Apr</text><text text-anchor="middle" transform="translate(90,15)" font-family="sans-serif" font-size="10px" fill="#000" opacity="1">May</text><text text-anchor="middle" transform="translate(110,15)" font-family="sans-serif" font-size="10px" fill="#000" opacity="1">Jun</text><text text-anchor="middle" transform="translate(130,15)" font-family="sans-serif" font-size="10px" fill="#000" opacity="1">Jul</text><text text-anchor="middle" transform="translate(150,15)" font-family="sans-serif" font-size="10px" fill="#000" opacity="1">Aug</text><text text-anchor="middle" transform="translate(170,15)" font-family="sans-serif" font-size="10px" fill="#000" opacity="1">Sep</text><text text-anchor="middle" transform="translate(190,15)" font-family="sans-serif" font-size="10px" fill="#000" opacity="1">Oct</text><text text-anchor="middle" transform="translate(210,15)" font-family="sans-serif" font-size="10px" fill="#000" opacity="1">Nov</text><text text-anchor="middle" transform="translate(230,15)" font-family="sans-serif" font-size="10px" fill="#000" opacity="1">Dec</text></g><g class="mark-rule role-axis-domain" pointer-events="none"><line transform="translate(0,0)" x2="240" y2="0" stroke="#888" stroke-width="1" opacity="1"/></g><g class="mark-text role-axis-title" pointer-events="none"><text text-anchor="middle" transform="translate(120,30)" font-family="sans-serif" font-size="11px" font-weight="bold" fill="#000" opacity="1">date (month)</text></g></g><path class="foreground" aria-hidden="true" d="" pointer-events="none" display="none"/></g></g><g class="mark-group role-axis" role="graphics-symbol" aria-roledescription="axis" aria-label="Y-axis titled 'Mean of wind' for a linear scale with values from 0 to 7"><g transform="translate(0.5,0.5)"><path class="background" aria-hidden="true" d="M0,0h0v0h0Z" pointer-events="none"/><g><g class="mark-rule role-axis-tick" pointer-events="none"><line transform="translate(0,200)" x2="-5" y2="0" stroke="#888" stroke-width="1" opacity="1"/><line transform="translate(0,169)" x2="-5" y2="0" stroke="#888" stroke-width="1" opacity="1"/><line transform="translate(0,138)" x2="-5" y2="0" stroke="#888" stroke-width="1" opacity="1"/><line transform="translate(0,108)" x2="-5" y2="0" stroke="#888" stroke-width="1" opacity="1"/><line transform="translate(0,77)" x2="-5" y2="0" stroke="#888" stroke-width="1" opacity="1"/><line transform="translate(0,46)" x2="-5" y2="0" stroke="#888" stroke-width="1" opacity="1"/><line transform="translate(0,15)" x2="-5" y2="0" stroke="#888" stroke-width="1" opacity="1"/></g><g class="mark-text role-axis-label" pointer-events="none"><text text-anchor="end" transform="translate(-7,203)" font-family="sans-serif" font-size="10px" fill="#000" opacity="1">0</text><text text-anchor="end" transform="translate(-7,172.23076923076923)" font-family="sans-serif" font-size="10px" fill="#000" opacity="1">1</text><text text-anchor="end" transform="translate(-7,141.46153846153845)" font-family="sans-serif" font-size="10px" fill="#000" opacity="1">2</text><text text-anchor="end" transform="translate(-7,110.6923076923077)" font-family="sans-serif" font-size="10px" fill="#000" opacity="1">3</text><text text-anchor="end" transform="translate(-7,79.92307692307692)" font-family="sans-serif" font-size="10px" fill="#000" opacity="1">4</text><text text-anchor="end" transform="translate(-7,49.153846153846146)" font-family="sans-serif" font-size="10px" fill="#000" opacity="1">5</text><text text-anchor="end" transform="translate(-7,18.384615384615373)" font-family="sans-serif" font-size="10px" fill="#000" opacity="1">6</text></g><g class="mark-rule role-axis-domain" pointer-events="none"><line transform="translate(0,200)" x2="0" y2="-200" stroke="#888" stroke-width="1" opacity="1"/></g><g class="mark-text role-axis-title" pointer-events="none"><text text-anchor="middle" transform="translate(-17.3623046875,100) rotate(-90) translate(0,-2)" font-family="sans-serif" font-size="11px" font-weight="bold" fill="#000" opacity="1">Mean of wind</text></g></g><path class="foreground" aria-hidden="true" d="" pointer-events="none" display="none"/></g></g><g class="mark-group role-scope child__column_wind_layer_0_pathgroup" role="graphics-object" aria-roledescription="group mark container"><g transform="translate(0,0)"><path class="background" aria-hidden="true" d="M0,0h240v200h-240Z"/><g><g class="mark-line role-mark child__column_wind_layer_0_marks" role="graphics-object" aria-roledescription="line mark container"><path aria-label="date (month): Dec; Mean of wind: 4.7; location: Seattle; date (year): 2011" role="graphics-symbol" aria-roledescription="line mark" d="M230,55.385Z" stroke="#f58518" stroke-width="2" opacity="0.2"/></g></g><path class="foreground" aria-hidden="true" d="" display="none"/></g><g transform="translate(0,0)"><path class="background" aria-hidden="true" d="M0,0h240v200h-240Z"/><g><g class="mark-line role-mark child__column_wind_layer_0_marks" role="graphics-object" aria-roledescription="line mark container"><path aria-label="date (month): Jan; Mean of wind: 3.83548387097; location: Seattle; date (year): 2012" role="graphics-symbol" aria-roledescription="line mark" d="M10,81.985L30,79.469L50,65.608L70,96.615L90,99.454L110,106.564L130,111.563L150,113.052L170,117.641L190,91.315L210,98.359L230,84.864" stroke="#f58518" stroke-width="2" opacity="0.2"/></g></g><path class="foreground" aria-hidden="true" d="" display="none"/></g><g transform="translate(0,0)"><path class="background" aria-hidden="true" d="M0,0h240v200h-240Z"/><g><g class="mark-line role-mark child__column_wind_layer_0_marks" role="graphics-object" aria-roledescription="line mark container"><path aria-label="date (month): Jan; Mean of wind: 2.88387096774; location: Seattle; date (year): 2013" role="graphics-symbol" aria-roledescription="line mark" d="M10,111.266L30,85.495L50,95.285L70,86.256L90,103.424L110,107.795L130,115.732L150,123.176L170,105.026L190,133.3L210,94.564L230,123.375" stroke="#f58518" stroke-width="2" opacity="0.2"/></g></g><path class="foreground" aria-hidden="true" d="" display="none"/></g><g transform="translate(0,0)"><path class="background" aria-hidden="true" d="M0,0h240v200h-240Z"/><g><g class="mark-line role-mark child__column_wind_layer_0_marks" role="graphics-object" aria-roledescription="line mark container"><path aria-label="date (month): Jan; Mean of wind: 3.33548387097; location: Seattle; date (year): 2014" role="graphics-symbol" aria-roledescription="line mark" d="M10,97.37L30,56.374L50,88.734L70,86.051L90,103.623L110,100.615L130,104.913L150,124.566L170,103.692L190,111.166L210,76.41L230,91.315" stroke="#f58518" stroke-width="2" opacity="0.2"/></g></g><path class="foreground" aria-hidden="true" d="" display="none"/></g><g transform="translate(0,0)"><path class="background" aria-hidden="true" d="M0,0h240v200h-240Z"/><g><g class="mark-line role-mark child__column_wind_layer_0_marks" role="graphics-object" aria-roledescription="line mark container"><path aria-label="date (month): Jan; Mean of wind: 2.47419354839; location: Seattle; date (year): 2015" role="graphics-symbol" aria-roledescription="line mark" d="M10,123.871L30,105.714L50,108.784L70,97.538L90,113.747L110,99.179L130,109.38L150,101.042L170,109.949L190,101.935L210,93.436L230,65.538" stroke="#f58518" stroke-width="2" opacity="0.2"/></g></g><path class="foreground" aria-hidden="true" d="" display="none"/></g><g transform="translate(0,0)"><path class="background" aria-hidden="true" d="M0,0h240v200h-240Z"/><g><g class="mark-line role-mark child__column_wind_layer_0_marks" role="graphics-object" aria-roledescription="line mark container"><path aria-label="date (month): Dec; Mean of wind: 5.1; location: New York; date (year): 2011" role="graphics-symbol" aria-roledescription="line mark" d="M230,43.077Z" stroke="#4c78a8" stroke-width="2" opacity="0.2"/></g></g><path class="foreground" aria-hidden="true" d="" display="none"/></g><g transform="translate(0,0)"><path class="background" aria-hidden="true" d="M0,0h240v200h-240Z"/><g><g class="mark-line role-mark child__column_wind_layer_0_marks" role="graphics-object" aria-roledescription="line mark container"><path aria-label="date (month): Jan; Mean of wind: 5.96129032258; location: New York; date (year): 2012" role="graphics-symbol" aria-roledescription="line mark" d="M10,16.576L30,34.271L50,43.474L70,25.128L90,77.221L110,64.308L130,76.328L150,77.32L170,59.077L190,49.132L210,48.308L230,36.824" stroke="#4c78a8" stroke-width="2" opacity="0.2"/></g></g><path class="foreground" aria-hidden="true" d="" display="none"/></g><g transform="translate(0,0)"><path class="background" aria-hidden="true" d="M0,0h240v200h-240Z"/><g><g class="mark-line role-mark child__column_wind_layer_0_marks" role="graphics-object" aria-roledescription="line mark container"><path aria-label="date (month): Jan; Mean of wind: 5.41935483871; location: New York; date (year): 2013" role="graphics-symbol" aria-roledescription="line mark" d="M10,33.251L30,21.209L50,8.734L70,33.846L90,54.988L110,48.308L130,63.722L150,66.998L170,66.462L190,52.605L210,28.513L230,48.734" stroke="#4c78a8" stroke-width="2" opacity="0.2"/></g></g><path class="foreground" aria-hidden="true" d="" display="none"/></g><g transform="translate(0,0)"><path class="background" aria-hidden="true" d="M0,0h240v200h-240Z"/><g><g class="mark-line role-mark child__column_wind_layer_0_marks" role="graphics-object" aria-roledescription="line mark container"><path aria-label="date (month): Jan; Mean of wind: 5.68387096774; location: New York; date (year): 2014" role="graphics-symbol" aria-roledescription="line mark" d="M10,25.112L30,40.989L50,14.888L70,17.128L90,57.37L110,67.59L130,56.377L150,78.809L170,75.077L190,31.464L210,34.154L230,31.96" stroke="#4c78a8" stroke-width="2" opacity="0.2"/></g></g><path class="foreground" aria-hidden="true" d="" display="none"/></g><g transform="translate(0,0)"><path class="background" aria-hidden="true" d="M0,0h240v200h-240Z"/><g><g class="mark-line role-mark child__column_wind_layer_0_marks" role="graphics-object" aria-roledescription="line mark container"><path aria-label="date (month): Jan; Mean of wind: 5.95806451613; location: New York; date (year): 2015" role="graphics-symbol" aria-roledescription="line mark" d="M10,16.675L30,19.56L50,34.342L70,28.923L90,62.63L110,59.077L130,71.663L150,71.166L170,69.538L190,40.397L210,62.359L230,65.231" stroke="#4c78a8" stroke-width="2" opacity="0.2"/></g></g><path class="foreground" aria-hidden="true" d="" display="none"/></g></g><g class="mark-group role-scope child__column_wind_layer_1_pathgroup" role="graphics-object" aria-roledescription="group mark container"><g transform="translate(0,0)"><path class="background" aria-hidden="true" d="M0,0h240v200h-240Z"/><g><g class="mark-line role-mark child__column_wind_layer_1_marks" role="graphics-object" aria-roledescription="line mark container"><path aria-label="date (month): Jan; Mean of wind: 3.13225806452; location: Seattle" role="graphics-symbol" aria-roledescription="line mark" d="M10,103.623L30,81.743L50,89.603L70,91.615L90,105.062L110,103.538L130,110.397L150,115.459L170,109.077L190,109.429L210,90.692L230,91.191" stroke="#f58518" stroke-width="2"/></g></g><path class="foreground" aria-hidden="true" d="" display="none"/></g><g transform="translate(0,0)"><path class="background" aria-hidden="true" d="M0,0h240v200h-240Z"/><g><g class="mark-line role-mark child__column_wind_layer_1_marks" role="graphics-object" aria-roledescription="line mark container"><path aria-label="date (month): Jan; Mean of wind: 5.75564516129; location: New York" role="graphics-symbol" aria-roledescription="line mark" d="M10,22.903L30,29.054L50,25.36L70,26.256L90,63.052L110,59.821L130,67.022L150,73.573L170,67.538L190,43.4L210,43.333L230,45.509" stroke="#4c78a8" stroke-width="2"/></g></g><path class="foreground" aria-hidden="true" d="" display="none"/></g></g></g><path class="foreground" aria-hidden="true" d="" display="none"/></g></g><g class="mark-group role-legend" role="graphics-symbol" aria-roledescription="legend" aria-label="Symbol legend titled 'location' for stroke color with 2 values: New York, Seattle"><g transform="translate(853,0)"><path class="background" aria-hidden="true" d="M0,0h62v40h-62Z" pointer-events="none"/><g><g class="mark-group role-legend-entry"><g transform="translate(0,16)"><path class="background" aria-hidden="true" d="M0,0h0v0h0Z" pointer-events="none"/><g><g class="mark-group role-scope" role="graphics-object" aria-roledescription="group mark container"><g transform="translate(0,0)"><path class="background" aria-hidden="true" d="M0,0h61.791015625v11h-61.791015625Z" pointer-events="none" opacity="1"/><g><g class="mark-symbol role-legend-symbol" pointer-events="none"><path transform="translate(6,6)" d="M-5,0L5,0" stroke="#4c78a8" stroke-width="1.5" opacity="0.2"/></g><g class="mark-text role-legend-label" pointer-events="none"><text text-anchor="start" transform="translate(16,9)" font-family="sans-serif" font-size="10px" fill="#000" opacity="1">New York</text></g></g><path class="foreground" aria-hidden="true" d="" pointer-events="none" display="none"/></g><g transform="translate(0,13)"><path class="background" aria-hidden="true" d="M0,0h61.791015625v11h-61.791015625Z" pointer-events="none" opacity="1"/><g><g class="mark-symbol role-legend-symbol" pointer-events="none"><path transform="translate(6,6)" d="M-5,0L5,0" stroke="#f58518" stroke-width="1.5" opacity="0.2"/></g><g class="mark-text role-legend-label" pointer-events="none"><text text-anchor="start" transform="translate(16,9)" font-family="sans-serif" font-size="10px" fill="#000" opacity="1">Seattle</text></g></g><path class="foreground" aria-hidden="true" d="" pointer-events="none" display="none"/></g></g></g><path class="foreground" aria-hidden="true" d="" pointer-events="none" display="none"/></g></g><g class="mark-text role-legend-title" pointer-events="none"><text text-anchor="start" transform="translate(0,9)" font-family="sans-serif" font-size="11px" font-weight="bold" fill="#000" opacity="1">location</text></g></g><path class="foreground" aria-hidden="true" d="" pointer-events="none" display="none"/></g></g></g><path class="foreground" aria-hidden="true" d="" display="none"/></g></g></g></svg>