<svg class="marks" width="325" height="250" viewBox="0 0 325 250" version="1.1" xmlns="http://www.w3.org/2000/svg" xmlns:xlink="http://www.w3.org/1999/xlink"><defs><clipPath id="clip1"><rect x="0" y="0" width="200" height="200"></rect></clipPath><clipPath id="clip2"><rect x="0" y="0" width="200" height="200"></rect></clipPath><clipPath id="clip3"><rect x="0" y="0" width="200" height="200"></rect></clipPath></defs><g transform="translate(50,11)"><g class="mark-group role-frame root"><g transform="translate(0,0)"><path class="background" d="M0.5,0.5h200v200h-200Z" style="fill: transparent; stroke: #ddd;"></path><g><g class="mark-group role-axis"><g transform="translate(0.5,200.5)"><path class="background" d="M0,0h0v0h0Z" style="pointer-events: none; fill: none;"></path><g><g class="mark-rule role-axis-grid" style="pointer-events: none;"><line transform="translate(25,-200)" x2="0" y2="200" style="fill: none; stroke: #ddd; stroke-width: 1; stroke-dasharray: ; opacity: 1;"></line><line transform="translate(75,-200)" x2="0" y2="200" style="fill: none; stroke: #ddd; stroke-width: 1; stroke-dasharray: ; opacity: 1;"></line><line transform="translate(125,-200)" x2="0" y2="200" style="fill: none; stroke: #ddd; stroke-width: 1; stroke-dasharray: ; opacity: 1;"></line><line transform="translate(175,-200)" x2="0" y2="200" style="fill: none; stroke: #ddd; stroke-width: 1; stroke-dasharray: ; opacity: 1;"></line></g></g></g></g><g class="mark-group role-axis"><g transform="translate(0.5,0.5)"><path class="background" d="M0,0h0v0h0Z" style="pointer-events: none; fill: none;"></path><g><g class="mark-rule role-axis-grid" style="pointer-events: none;"><line transform="translate(0,200)" x2="200" y2="0" style="fill: none; stroke: #ddd; stroke-width: 1; stroke-dasharray: ; opacity: 1;"></line><line transform="translate(0,150)" x2="200" y2="0" style="fill: none; stroke: #ddd; stroke-width: 1; stroke-dasharray: ; opacity: 1;"></line><line transform="translate(0,100)" x2="200" y2="0" style="fill: none; stroke: #ddd; stroke-width: 1; stroke-dasharray: ; opacity: 1;"></line><line transform="translate(0,50)" x2="200" y2="0" style="fill: none; stroke: #ddd; stroke-width: 1; stroke-dasharray: ; opacity: 1;"></line><line transform="translate(0,0)" x2="200" y2="0" style="fill: none; stroke: #ddd; stroke-width: 1; stroke-dasharray: ; opacity: 1;"></line></g></g></g></g><g class="mark-rect role-mark brush_brush_bg" clip-path="url(#clip1)"><path d="M0,0h0v0h0Z" style="fill: #333; fill-opacity: 0.125;"></path></g><g class="mark-symbol role-mark marks" clip-path="url(#clip2)"><path transform="translate(150,220)" d="M9.5,0A9.5,9.5,0,1,1,-9.5,0A9.5,9.5,0,1,1,9.5,0" style="fill: #e45756; stroke-width: 2; opacity: 0.7;"></path><path transform="translate(238,250)" d="M9.5,0A9.5,9.5,0,1,1,-9.5,0A9.5,9.5,0,1,1,9.5,0" style="fill: #e45756; stroke-width: 2; opacity: 0.7;"></path><path transform="translate(200,220)" d="M9.5,0A9.5,9.5,0,1,1,-9.5,0A9.5,9.5,0,1,1,9.5,0" style="fill: #e45756; stroke-width: 2; opacity: 0.7;"></path><path transform="translate(200,240)" d="M9.5,0A9.5,9.5,0,1,1,-9.5,0A9.5,9.5,0,1,1,9.5,0" style="fill: #e45756; stroke-width: 2; opacity: 0.7;"></path><path transform="translate(175,230)" d="M9.5,0A9.5,9.5,0,1,1,-9.5,0A9.5,9.5,0,1,1,9.5,0" style="fill: #e45756; stroke-width: 2; opacity: 0.7;"></path><path transform="translate(320,250)" d="M9.5,0A9.5,9.5,0,1,1,-9.5,0A9.5,9.5,0,1,1,9.5,0" style="fill: #e45756; stroke-width: 2; opacity: 0.7;"></path><path transform="translate(375,260)" d="M9.5,0A9.5,9.5,0,1,1,-9.5,0A9.5,9.5,0,1,1,9.5,0" style="fill: #e45756; stroke-width: 2; opacity: 0.7;"></path><path transform="translate(363,260)" d="M9.5,0A9.5,9.5,0,1,1,-9.5,0A9.5,9.5,0,1,1,9.5,0" style="fill: #e45756; stroke-width: 2; opacity: 0.7;"></path><path transform="translate(388,260)" d="M9.5,0A9.5,9.5,0,1,1,-9.5,0A9.5,9.5,0,1,1,9.5,0" style="fill: #e45756; stroke-width: 2; opacity: 0.7;"></path><path transform="translate(300,250)" d="M9.5,0A9.5,9.5,0,1,1,-9.5,0A9.5,9.5,0,1,1,9.5,0" style="fill: #e45756; stroke-width: 2; opacity: 0.7;"></path><path transform="translate(250,250)" d="M9.5,0A9.5,9.5,0,1,1,-9.5,0A9.5,9.5,0,1,1,9.5,0" style="fill: #e45756; stroke-width: 2; opacity: 0.7;"></path><path transform="translate(225,260)" d="M9.5,0A9.5,9.5,0,1,1,-9.5,0A9.5,9.5,0,1,1,9.5,0" style="fill: #e45756; stroke-width: 2; opacity: 0.7;"></path><path transform="translate(200,250)" d="M9.5,0A9.5,9.5,0,1,1,-9.5,0A9.5,9.5,0,1,1,9.5,0" style="fill: #e45756; stroke-width: 2; opacity: 0.7;"></path><path transform="translate(388,260)" d="M9.5,0A9.5,9.5,0,1,1,-9.5,0A9.5,9.5,0,1,1,9.5,0" style="fill: #e45756; stroke-width: 2; opacity: 0.7;"></path><path transform="translate(63,160)" d="M6.7175144212722016,0A6.7175144212722016,6.7175144212722016,0,1,1,-6.7175144212722016,0A6.7175144212722016,6.7175144212722016,0,1,1,6.7175144212722016,0" style="fill: #f58518; stroke-width: 2; opacity: 0.7;"></path><path transform="translate(63,180)" d="M8.227241335952167,0A8.227241335952167,8.227241335952167,0,1,1,-8.227241335952167,0A8.227241335952167,8.227241335952167,0,1,1,8.227241335952167,0" style="fill: #e45756; stroke-width: 2; opacity: 0.7;"></path><path transform="translate(68,220)" d="M8.227241335952167,0A8.227241335952167,8.227241335952167,0,1,1,-8.227241335952167,0A8.227241335952167,8.227241335952167,0,1,1,8.227241335952167,0" style="fill: #e45756; stroke-width: 2; opacity: 0.7;"></path><path transform="translate(38,190)" d="M8.227241335952167,0A8.227241335952167,8.227241335952167,0,1,1,-8.227241335952167,0A8.227241335952167,8.227241335952167,0,1,1,8.227241335952167,0" style="fill: #e45756; stroke-width: 2; opacity: 0.7;"></path><path transform="translate(45,130)" d="M6.7175144212722016,0A6.7175144212722016,6.7175144212722016,0,1,1,-6.7175144212722016,0A6.7175144212722016,6.7175144212722016,0,1,1,6.7175144212722016,0" style="fill: #f58518; stroke-width: 2; opacity: 0.7;"></path><path transform="translate(-60,140)" d="M6.7175144212722016,0A6.7175144212722016,6.7175144212722016,0,1,1,-6.7175144212722016,0A6.7175144212722016,6.7175144212722016,0,1,1,6.7175144212722016,0" style="fill: #4c78a8; stroke-width: 2; opacity: 0.7;"></path><path transform="translate(43,150)" d="M6.7175144212722016,0A6.7175144212722016,6.7175144212722016,0,1,1,-6.7175144212722016,0A6.7175144212722016,6.7175144212722016,0,1,1,6.7175144212722016,0" style="fill: #4c78a8; stroke-width: 2; opacity: 0.7;"></path><path transform="translate(50,160)" d="M6.7175144212722016,0A6.7175144212722016,6.7175144212722016,0,1,1,-6.7175144212722016,0A6.7175144212722016,6.7175144212722016,0,1,1,6.7175144212722016,0" style="fill: #4c78a8; stroke-width: 2; opacity: 0.7;"></path><path transform="translate(63,150)" d="M6.7175144212722016,0A6.7175144212722016,6.7175144212722016,0,1,1,-6.7175144212722016,0A6.7175144212722016,6.7175144212722016,0,1,1,6.7175144212722016,0" style="fill: #4c78a8; stroke-width: 2; opacity: 0.7;"></path><path transform="translate(108,140)" d="M6.7175144212722016,0A6.7175144212722016,6.7175144212722016,0,1,1,-6.7175144212722016,0A6.7175144212722016,6.7175144212722016,0,1,1,6.7175144212722016,0" style="fill: #4c78a8; stroke-width: 2; opacity: 0.7;"></path><path transform="translate(50,190)" d="M8.227241335952167,0A8.227241335952167,8.227241335952167,0,1,1,-8.227241335952167,0A8.227241335952167,8.227241335952167,0,1,1,8.227241335952167,0" style="fill: #e45756; stroke-width: 2; opacity: 0.7;"></path><path transform="translate(363,300)" d="M9.5,0A9.5,9.5,0,1,1,-9.5,0A9.5,9.5,0,1,1,9.5,0" style="fill: #e45756; stroke-width: 2; opacity: 0.7;"></path><path transform="translate(325,300)" d="M9.5,0A9.5,9.5,0,1,1,-9.5,0A9.5,9.5,0,1,1,9.5,0" style="fill: #e45756; stroke-width: 2; opacity: 0.7;"></path><path transform="translate(350,290)" d="M9.5,0A9.5,9.5,0,1,1,-9.5,0A9.5,9.5,0,1,1,9.5,0" style="fill: #e45756; stroke-width: 2; opacity: 0.7;"></path><path transform="translate(308,310)" d="M9.5,0A9.5,9.5,0,1,1,-9.5,0A9.5,9.5,0,1,1,9.5,0" style="fill: #e45756; stroke-width: 2; opacity: 0.7;"></path><path transform="translate(45,130)" d="M6.7175144212722016,0A6.7175144212722016,6.7175144212722016,0,1,1,-6.7175144212722016,0A6.7175144212722016,6.7175144212722016,0,1,1,6.7175144212722016,0" style="fill: #f58518; stroke-width: 2; opacity: 0.7;"></path><path transform="translate(50,120)" d="M6.7175144212722016,0A6.7175144212722016,6.7175144212722016,0,1,1,-6.7175144212722016,0A6.7175144212722016,6.7175144212722016,0,1,1,6.7175144212722016,0" style="fill: #e45756; stroke-width: 2; opacity: 0.7;"></path><path transform="translate(63,150)" d="M6.7175144212722016,0A6.7175144212722016,6.7175144212722016,0,1,1,-6.7175144212722016,0A6.7175144212722016,6.7175144212722016,0,1,1,6.7175144212722016,0" style="fill: #f58518; stroke-width: 2; opacity: 0.7;"></path><path transform="translate(75,210)" d="M8.227241335952167,0A8.227241335952167,8.227241335952167,0,1,1,-8.227241335952167,0A8.227241335952167,8.227241335952167,0,1,1,8.227241335952167,0" style="fill: #e45756; stroke-width: 2; opacity: 0.7;"></path><path transform="translate(88,240)" d="M8.227241335952167,0A8.227241335952167,8.227241335952167,0,1,1,-8.227241335952167,0A8.227241335952167,8.227241335952167,0,1,1,8.227241335952167,0" style="fill: #e45756; stroke-width: 2; opacity: 0.7;"></path><path transform="translate(75,230)" d="M8.227241335952167,0A8.227241335952167,8.227241335952167,0,1,1,-8.227241335952167,0A8.227241335952167,8.227241335952167,0,1,1,8.227241335952167,0" style="fill: #e45756; stroke-width: 2; opacity: 0.7;"></path><path transform="translate(45,210)" d="M8.227241335952167,0A8.227241335952167,8.227241335952167,0,1,1,-8.227241335952167,0A8.227241335952167,8.227241335952167,0,1,1,8.227241335952167,0" style="fill: #e45756; stroke-width: 2; opacity: 0.7;"></path><path transform="translate(75,220)" d="M8.227241335952167,0A8.227241335952167,8.227241335952167,0,1,1,-8.227241335952167,0A8.227241335952167,8.227241335952167,0,1,1,8.227241335952167,0" style="fill: #e45756; stroke-width: 2; opacity: 0.7;"></path><path transform="translate(238,260)" d="M9.5,0A9.5,9.5,0,1,1,-9.5,0A9.5,9.5,0,1,1,9.5,0" style="fill: #e45756; stroke-width: 2; opacity: 0.7;"></path><path transform="translate(263,260)" d="M9.5,0A9.5,9.5,0,1,1,-9.5,0A9.5,9.5,0,1,1,9.5,0" style="fill: #e45756; stroke-width: 2; opacity: 0.7;"></path><path transform="translate(208,260)" d="M9.5,0A9.5,9.5,0,1,1,-9.5,0A9.5,9.5,0,1,1,9.5,0" style="fill: #e45756; stroke-width: 2; opacity: 0.7;"></path><path transform="translate(200,260)" d="M9.5,0A9.5,9.5,0,1,1,-9.5,0A9.5,9.5,0,1,1,9.5,0" style="fill: #e45756; stroke-width: 2; opacity: 0.7;"></path><path transform="translate(275,280)" d="M9.5,0A9.5,9.5,0,1,1,-9.5,0A9.5,9.5,0,1,1,9.5,0" style="fill: #e45756; stroke-width: 2; opacity: 0.7;"></path><path transform="translate(250,270)" d="M9.5,0A9.5,9.5,0,1,1,-9.5,0A9.5,9.5,0,1,1,9.5,0" style="fill: #e45756; stroke-width: 2; opacity: 0.7;"></path><path transform="translate(263,270)" d="M9.5,0A9.5,9.5,0,1,1,-9.5,0A9.5,9.5,0,1,1,9.5,0" style="fill: #e45756; stroke-width: 2; opacity: 0.7;"></path><path transform="translate(100,220)" d="M8.227241335952167,0A8.227241335952167,8.227241335952167,0,1,1,-8.227241335952167,0A8.227241335952167,8.227241335952167,0,1,1,8.227241335952167,0" style="fill: #e45756; stroke-width: 2; opacity: 0.7;"></path><path transform="translate(5,180)" d="M6.7175144212722016,0A6.7175144212722016,6.7175144212722016,0,1,1,-6.7175144212722016,0A6.7175144212722016,6.7175144212722016,0,1,1,6.7175144212722016,0" style="fill: #e45756; stroke-width: 2; opacity: 0.7;"></path><path transform="translate(75,210)" d="M8.227241335952167,0A8.227241335952167,8.227241335952167,0,1,1,-8.227241335952167,0A8.227241335952167,8.227241335952167,0,1,1,8.227241335952167,0" style="fill: #e45756; stroke-width: 2; opacity: 0.7;"></path><path transform="translate(45,220)" d="M8.227241335952167,0A8.227241335952167,8.227241335952167,0,1,1,-8.227241335952167,0A8.227241335952167,8.227241335952167,0,1,1,8.227241335952167,0" style="fill: #e45756; stroke-width: 2; opacity: 0.7;"></path><path transform="translate(40,170)" d="M6.7175144212722016,0A6.7175144212722016,6.7175144212722016,0,1,1,-6.7175144212722016,0A6.7175144212722016,6.7175144212722016,0,1,1,6.7175144212722016,0" style="fill: #e45756; stroke-width: 2; opacity: 0.7;"></path><path transform="translate(50,120)" d="M6.7175144212722016,0A6.7175144212722016,6.7175144212722016,0,1,1,-6.7175144212722016,0A6.7175144212722016,6.7175144212722016,0,1,1,6.7175144212722016,0" style="fill: #4c78a8; stroke-width: 2; opacity: 0.7;"></path><path transform="translate(0,100)" d="M6.7175144212722016,0A6.7175144212722016,6.7175144212722016,0,1,1,-6.7175144212722016,0A6.7175144212722016,6.7175144212722016,0,1,1,6.7175144212722016,0" style="fill: #4c78a8; stroke-width: 2; opacity: 0.7;"></path><path transform="translate(15,100)" d="M6.7175144212722016,0A6.7175144212722016,6.7175144212722016,0,1,1,-6.7175144212722016,0A6.7175144212722016,6.7175144212722016,0,1,1,6.7175144212722016,0" style="fill: #4c78a8; stroke-width: 2; opacity: 0.7;"></path><path transform="translate(-12,90)" d="M6.7175144212722016,0A6.7175144212722016,6.7175144212722016,0,1,1,-6.7175144212722016,0A6.7175144212722016,6.7175144212722016,0,1,1,6.7175144212722016,0" style="fill: #f58518; stroke-width: 2; opacity: 0.7;"></path><path transform="translate(-2,50)" d="M6.7175144212722016,0A6.7175144212722016,6.7175144212722016,0,1,1,-6.7175144212722016,0A6.7175144212722016,6.7175144212722016,0,1,1,6.7175144212722016,0" style="fill: #f58518; stroke-width: 2; opacity: 0.7;"></path><path transform="translate(-25,130)" d="M6.7175144212722016,0A6.7175144212722016,6.7175144212722016,0,1,1,-6.7175144212722016,0A6.7175144212722016,6.7175144212722016,0,1,1,6.7175144212722016,0" style="fill: #4c78a8; stroke-width: 2; opacity: 0.7;"></path><path transform="translate(0,140)" d="M6.7175144212722016,0A6.7175144212722016,6.7175144212722016,0,1,1,-6.7175144212722016,0A6.7175144212722016,6.7175144212722016,0,1,1,6.7175144212722016,0" style="fill: #e45756; stroke-width: 2; opacity: 0.7;"></path><path transform="translate(63,160)" d="M6.7175144212722016,0A6.7175144212722016,6.7175144212722016,0,1,1,-6.7175144212722016,0A6.7175144212722016,6.7175144212722016,0,1,1,6.7175144212722016,0" style="fill: #f58518; stroke-width: 2; opacity: 0.7;"></path><path transform="translate(25,150)" d="M6.7175144212722016,0A6.7175144212722016,6.7175144212722016,0,1,1,-6.7175144212722016,0A6.7175144212722016,6.7175144212722016,0,1,1,6.7175144212722016,0" style="fill: #e45756; stroke-width: 2; opacity: 0.7;"></path><path transform="translate(-40,170)" d="M6.7175144212722016,0A6.7175144212722016,6.7175144212722016,0,1,1,-6.7175144212722016,0A6.7175144212722016,6.7175144212722016,0,1,1,6.7175144212722016,0" style="fill: #4c78a8; stroke-width: 2; opacity: 0.7;"></path><path transform="translate(50,200)" d="M6.7175144212722016,0A6.7175144212722016,6.7175144212722016,0,1,1,-6.7175144212722016,0A6.7175144212722016,6.7175144212722016,0,1,1,6.7175144212722016,0" style="fill: #e45756; stroke-width: 2; opacity: 0.7;"></path><path transform="translate(40,190)" d="M6.7175144212722016,0A6.7175144212722016,6.7175144212722016,0,1,1,-6.7175144212722016,0A6.7175144212722016,6.7175144212722016,0,1,1,6.7175144212722016,0" style="fill: #e45756; stroke-width: 2; opacity: 0.7;"></path><path transform="translate(238,270)" d="M9.5,0A9.5,9.5,0,1,1,-9.5,0A9.5,9.5,0,1,1,9.5,0" style="fill: #e45756; stroke-width: 2; opacity: 0.7;"></path><path transform="translate(263,260)" d="M9.5,0A9.5,9.5,0,1,1,-9.5,0A9.5,9.5,0,1,1,9.5,0" style="fill: #e45756; stroke-width: 2; opacity: 0.7;"></path><path transform="translate(200,250)" d="M9.5,0A9.5,9.5,0,1,1,-9.5,0A9.5,9.5,0,1,1,9.5,0" style="fill: #e45756; stroke-width: 2; opacity: 0.7;"></path><path transform="translate(208,260)" d="M9.5,0A9.5,9.5,0,1,1,-9.5,0A9.5,9.5,0,1,1,9.5,0" style="fill: #e45756; stroke-width: 2; opacity: 0.7;"></path><path transform="translate(200,230)" d="M9.5,0A9.5,9.5,0,1,1,-9.5,0A9.5,9.5,0,1,1,9.5,0" style="fill: #e45756; stroke-width: 2; opacity: 0.7;"></path><path transform="translate(345,290)" d="M9.5,0A9.5,9.5,0,1,1,-9.5,0A9.5,9.5,0,1,1,9.5,0" style="fill: #e45756; stroke-width: 2; opacity: 0.7;"></path><path transform="translate(213,270)" d="M9.5,0A9.5,9.5,0,1,1,-9.5,0A9.5,9.5,0,1,1,9.5,0" style="fill: #e45756; stroke-width: 2; opacity: 0.7;"></path><path transform="translate(225,280)" d="M9.5,0A9.5,9.5,0,1,1,-9.5,0A9.5,9.5,0,1,1,9.5,0" style="fill: #e45756; stroke-width: 2; opacity: 0.7;"></path><path transform="translate(300,270)" d="M9.5,0A9.5,9.5,0,1,1,-9.5,0A9.5,9.5,0,1,1,9.5,0" style="fill: #e45756; stroke-width: 2; opacity: 0.7;"></path><path transform="translate(68,210)" d="M5.817538139110048,0A5.817538139110048,5.817538139110048,0,1,1,-5.817538139110048,0A5.817538139110048,5.817538139110048,0,1,1,5.817538139110048,0" style="fill: #f58518; stroke-width: 2; opacity: 0.7;"></path><path transform="translate(200,250)" d="M9.5,0A9.5,9.5,0,1,1,-9.5,0A9.5,9.5,0,1,1,9.5,0" style="fill: #e45756; stroke-width: 2; opacity: 0.7;"></path><path transform="translate(150,270)" d="M9.5,0A9.5,9.5,0,1,1,-9.5,0A9.5,9.5,0,1,1,9.5,0" style="fill: #e45756; stroke-width: 2; opacity: 0.7;"></path><path transform="translate(175,270)" d="M9.5,0A9.5,9.5,0,1,1,-9.5,0A9.5,9.5,0,1,1,9.5,0" style="fill: #e45756; stroke-width: 2; opacity: 0.7;"></path><path transform="translate(200,260)" d="M9.5,0A9.5,9.5,0,1,1,-9.5,0A9.5,9.5,0,1,1,9.5,0" style="fill: #e45756; stroke-width: 2; opacity: 0.7;"></path><path transform="translate(105,220)" d="M6.7175144212722016,0A6.7175144212722016,6.7175144212722016,0,1,1,-6.7175144212722016,0A6.7175144212722016,6.7175144212722016,0,1,1,6.7175144212722016,0" style="fill: #4c78a8; stroke-width: 2; opacity: 0.7;"></path><path transform="translate(15,180)" d="M6.7175144212722016,0A6.7175144212722016,6.7175144212722016,0,1,1,-6.7175144212722016,0A6.7175144212722016,6.7175144212722016,0,1,1,6.7175144212722016,0" style="fill: #4c78a8; stroke-width: 2; opacity: 0.7;"></path><path transform="translate(43,190)" d="M6.7175144212722016,0A6.7175144212722016,6.7175144212722016,0,1,1,-6.7175144212722016,0A6.7175144212722016,6.7175144212722016,0,1,1,6.7175144212722016,0" style="fill: #4c78a8; stroke-width: 2; opacity: 0.7;"></path><path transform="translate(-2,140)" d="M6.7175144212722016,0A6.7175144212722016,6.7175144212722016,0,1,1,-6.7175144212722016,0A6.7175144212722016,6.7175144212722016,0,1,1,6.7175144212722016,0" style="fill: #4c78a8; stroke-width: 2; opacity: 0.7;"></path><path transform="translate(40,180)" d="M6.7175144212722016,0A6.7175144212722016,6.7175144212722016,0,1,1,-6.7175144212722016,0A6.7175144212722016,6.7175144212722016,0,1,1,6.7175144212722016,0" style="fill: #e45756; stroke-width: 2; opacity: 0.7;"></path><path transform="translate(55,120)" d="M6.7175144212722016,0A6.7175144212722016,6.7175144212722016,0,1,1,-6.7175144212722016,0A6.7175144212722016,6.7175144212722016,0,1,1,6.7175144212722016,0" style="fill: #f58518; stroke-width: 2; opacity: 0.7;"></path><path transform="translate(68,170)" d="M6.7175144212722016,0A6.7175144212722016,6.7175144212722016,0,1,1,-6.7175144212722016,0A6.7175144212722016,6.7175144212722016,0,1,1,6.7175144212722016,0" style="fill: #f58518; stroke-width: 2; opacity: 0.7;"></path><path transform="translate(25,120)" d="M6.7175144212722016,0A6.7175144212722016,6.7175144212722016,0,1,1,-6.7175144212722016,0A6.7175144212722016,6.7175144212722016,0,1,1,6.7175144212722016,0" style="fill: #e45756; stroke-width: 2; opacity: 0.7;"></path><path transform="translate(45,130)" d="M6.7175144212722016,0A6.7175144212722016,6.7175144212722016,0,1,1,-6.7175144212722016,0A6.7175144212722016,6.7175144212722016,0,1,1,6.7175144212722016,0" style="fill: #f58518; stroke-width: 2; opacity: 0.7;"></path><path transform="translate(263,270)" d="M9.5,0A9.5,9.5,0,1,1,-9.5,0A9.5,9.5,0,1,1,9.5,0" style="fill: #e45756; stroke-width: 2; opacity: 0.7;"></path><path transform="translate(200,260)" d="M9.5,0A9.5,9.5,0,1,1,-9.5,0A9.5,9.5,0,1,1,9.5,0" style="fill: #e45756; stroke-width: 2; opacity: 0.7;"></path><path transform="translate(188,270)" d="M9.5,0A9.5,9.5,0,1,1,-9.5,0A9.5,9.5,0,1,1,9.5,0" style="fill: #e45756; stroke-width: 2; opacity: 0.7;"></path><path transform="translate(168,260)" d="M9.5,0A9.5,9.5,0,1,1,-9.5,0A9.5,9.5,0,1,1,9.5,0" style="fill: #e45756; stroke-width: 2; opacity: 0.7;"></path><path transform="translate(200,250)" d="M9.5,0A9.5,9.5,0,1,1,-9.5,0A9.5,9.5,0,1,1,9.5,0" style="fill: #e45756; stroke-width: 2; opacity: 0.7;"></path><path transform="translate(320,280)" d="M9.5,0A9.5,9.5,0,1,1,-9.5,0A9.5,9.5,0,1,1,9.5,0" style="fill: #e45756; stroke-width: 2; opacity: 0.7;"></path><path transform="translate(200,270)" d="M9.5,0A9.5,9.5,0,1,1,-9.5,0A9.5,9.5,0,1,1,9.5,0" style="fill: #e45756; stroke-width: 2; opacity: 0.7;"></path><path transform="translate(220,270)" d="M9.5,0A9.5,9.5,0,1,1,-9.5,0A9.5,9.5,0,1,1,9.5,0" style="fill: #e45756; stroke-width: 2; opacity: 0.7;"></path><path transform="translate(200,260)" d="M9.5,0A9.5,9.5,0,1,1,-9.5,0A9.5,9.5,0,1,1,9.5,0" style="fill: #e45756; stroke-width: 2; opacity: 0.7;"></path><path transform="translate(363,270)" d="M9.5,0A9.5,9.5,0,1,1,-9.5,0A9.5,9.5,0,1,1,9.5,0" style="fill: #e45756; stroke-width: 2; opacity: 0.7;"></path><path transform="translate(388,280)" d="M9.5,0A9.5,9.5,0,1,1,-9.5,0A9.5,9.5,0,1,1,9.5,0" style="fill: #e45756; stroke-width: 2; opacity: 0.7;"></path><path transform="translate(263,270)" d="M9.5,0A9.5,9.5,0,1,1,-9.5,0A9.5,9.5,0,1,1,9.5,0" style="fill: #e45756; stroke-width: 2; opacity: 0.7;"></path><path transform="translate(88,220)" d="M8.227241335952167,0A8.227241335952167,8.227241335952167,0,1,1,-8.227241335952167,0A8.227241335952167,8.227241335952167,0,1,1,8.227241335952167,0" style="fill: #e45756; stroke-width: 2; opacity: 0.7;"></path><path transform="translate(75,240)" d="M8.227241335952167,0A8.227241335952167,8.227241335952167,0,1,1,-8.227241335952167,0A8.227241335952167,8.227241335952167,0,1,1,8.227241335952167,0" style="fill: #e45756; stroke-width: 2; opacity: 0.7;"></path><path transform="translate(75,220)" d="M8.227241335952167,0A8.227241335952167,8.227241335952167,0,1,1,-8.227241335952167,0A8.227241335952167,8.227241335952167,0,1,1,8.227241335952167,0" style="fill: #e45756; stroke-width: 2; opacity: 0.7;"></path><path transform="translate(45,220)" d="M8.227241335952167,0A8.227241335952167,8.227241335952167,0,1,1,-8.227241335952167,0A8.227241335952167,8.227241335952167,0,1,1,8.227241335952167,0" style="fill: #e45756; stroke-width: 2; opacity: 0.7;"></path><path transform="translate(63,170)" d="M8.227241335952167,0A8.227241335952167,8.227241335952167,0,1,1,-8.227241335952167,0A8.227241335952167,8.227241335952167,0,1,1,8.227241335952167,0" style="fill: #e45756; stroke-width: 2; opacity: 0.7;"></path><path transform="translate(-60,140)" d="M6.7175144212722016,0A6.7175144212722016,6.7175144212722016,0,1,1,-6.7175144212722016,0A6.7175144212722016,6.7175144212722016,0,1,1,6.7175144212722016,0" style="fill: #4c78a8; stroke-width: 2; opacity: 0.7;"></path><path transform="translate(200,290)" d="M9.5,0A9.5,9.5,0,1,1,-9.5,0A9.5,9.5,0,1,1,9.5,0" style="fill: #e45756; stroke-width: 2; opacity: 0.7;"></path><path transform="translate(242,280)" d="M9.5,0A9.5,9.5,0,1,1,-9.5,0A9.5,9.5,0,1,1,9.5,0" style="fill: #e45756; stroke-width: 2; opacity: 0.7;"></path><path transform="translate(250,270)" d="M9.5,0A9.5,9.5,0,1,1,-9.5,0A9.5,9.5,0,1,1,9.5,0" style="fill: #e45756; stroke-width: 2; opacity: 0.7;"></path><path transform="translate(275,280)" d="M9.5,0A9.5,9.5,0,1,1,-9.5,0A9.5,9.5,0,1,1,9.5,0" style="fill: #e45756; stroke-width: 2; opacity: 0.7;"></path><path transform="translate(75,220)" d="M8.227241335952167,0A8.227241335952167,8.227241335952167,0,1,1,-8.227241335952167,0A8.227241335952167,8.227241335952167,0,1,1,8.227241335952167,0" style="fill: #e45756; stroke-width: 2; opacity: 0.7;"></path><path transform="translate(45,200)" d="M6.7175144212722016,0A6.7175144212722016,6.7175144212722016,0,1,1,-6.7175144212722016,0A6.7175144212722016,6.7175144212722016,0,1,1,6.7175144212722016,0" style="fill: #f58518; stroke-width: 2; opacity: 0.7;"></path><path transform="translate(5,190)" d="M6.7175144212722016,0A6.7175144212722016,6.7175144212722016,0,1,1,-6.7175144212722016,0A6.7175144212722016,6.7175144212722016,0,1,1,6.7175144212722016,0" style="fill: #e45756; stroke-width: 2; opacity: 0.7;"></path><path transform="translate(60,180)" d="M6.7175144212722016,0A6.7175144212722016,6.7175144212722016,0,1,1,-6.7175144212722016,0A6.7175144212722016,6.7175144212722016,0,1,1,6.7175144212722016,0" style="fill: #f58518; stroke-width: 2; opacity: 0.7;"></path><path transform="translate(50,220)" d="M5.817538139110048,0A5.817538139110048,5.817538139110048,0,1,1,-5.817538139110048,0A5.817538139110048,5.817538139110048,0,1,1,5.817538139110048,0" style="fill: #f58518; stroke-width: 2; opacity: 0.7;"></path><path transform="translate(38,210)" d="M6.7175144212722016,0A6.7175144212722016,6.7175144212722016,0,1,1,-6.7175144212722016,0A6.7175144212722016,6.7175144212722016,0,1,1,6.7175144212722016,0" style="fill: #e45756; stroke-width: 2; opacity: 0.7;"></path><path transform="translate(93,190)" d="M8.227241335952167,0A8.227241335952167,8.227241335952167,0,1,1,-8.227241335952167,0A8.227241335952167,8.227241335952167,0,1,1,8.227241335952167,0" style="fill: #e45756; stroke-width: 2; opacity: 0.7;"></path><path transform="translate(50,140)" d="M6.7175144212722016,0A6.7175144212722016,6.7175144212722016,0,1,1,-6.7175144212722016,0A6.7175144212722016,6.7175144212722016,0,1,1,6.7175144212722016,0" style="fill: #4c78a8; stroke-width: 2; opacity: 0.7;"></path><path transform="translate(188,250)" d="M9.5,0A9.5,9.5,0,1,1,-9.5,0A9.5,9.5,0,1,1,9.5,0" style="fill: #e45756; stroke-width: 2; opacity: 0.7;"></path><path transform="translate(400,240)" d="M9.5,0A9.5,9.5,0,1,1,-9.5,0A9.5,9.5,0,1,1,9.5,0" style="fill: #e45756; stroke-width: 2; opacity: 0.7;"></path><path transform="translate(-52,110)" d="M6.7175144212722016,0A6.7175144212722016,6.7175144212722016,0,1,1,-6.7175144212722016,0A6.7175144212722016,6.7175144212722016,0,1,1,6.7175144212722016,0" style="fill: #4c78a8; stroke-width: 2; opacity: 0.7;"></path><path transform="translate(13,160)" d="M6.7175144212722016,0A6.7175144212722016,6.7175144212722016,0,1,1,-6.7175144212722016,0A6.7175144212722016,6.7175144212722016,0,1,1,6.7175144212722016,0" style="fill: #4c78a8; stroke-width: 2; opacity: 0.7;"></path><path transform="translate(53,200)" d="M6.7175144212722016,0A6.7175144212722016,6.7175144212722016,0,1,1,-6.7175144212722016,0A6.7175144212722016,6.7175144212722016,0,1,1,6.7175144212722016,0" style="fill: #4c78a8; stroke-width: 2; opacity: 0.7;"></path><path transform="translate(105,210)" d="M6.7175144212722016,0A6.7175144212722016,6.7175144212722016,0,1,1,-6.7175144212722016,0A6.7175144212722016,6.7175144212722016,0,1,1,6.7175144212722016,0" style="fill: #4c78a8; stroke-width: 2; opacity: 0.7;"></path><path transform="translate(200,250)" d="M9.5,0A9.5,9.5,0,1,1,-9.5,0A9.5,9.5,0,1,1,9.5,0" style="fill: #e45756; stroke-width: 2; opacity: 0.7;"></path><path transform="translate(100,160)" d="M6.7175144212722016,0A6.7175144212722016,6.7175144212722016,0,1,1,-6.7175144212722016,0A6.7175144212722016,6.7175144212722016,0,1,1,6.7175144212722016,0" style="fill: #4c78a8; stroke-width: 2; opacity: 0.7;"></path><path transform="translate(130,200)" d="M8.227241335952167,0A8.227241335952167,8.227241335952167,0,1,1,-8.227241335952167,0A8.227241335952167,8.227241335952167,0,1,1,8.227241335952167,0" style="fill: #f58518; stroke-width: 2; opacity: 0.7;"></path><path transform="translate(275,290)" d="M9.5,0A9.5,9.5,0,1,1,-9.5,0A9.5,9.5,0,1,1,9.5,0" style="fill: #e45756; stroke-width: 2; opacity: 0.7;"></path><path transform="translate(63,200)" d="M8.227241335952167,0A8.227241335952167,8.227241335952167,0,1,1,-8.227241335952167,0A8.227241335952167,8.227241335952167,0,1,1,8.227241335952167,0" style="fill: #e45756; stroke-width: 2; opacity: 0.7;"></path><path transform="translate(75,210)" d="M8.227241335952167,0A8.227241335952167,8.227241335952167,0,1,1,-8.227241335952167,0A8.227241335952167,8.227241335952167,0,1,1,8.227241335952167,0" style="fill: #e45756; stroke-width: 2; opacity: 0.7;"></path><path transform="translate(75,250)" d="M8.227241335952167,0A8.227241335952167,8.227241335952167,0,1,1,-8.227241335952167,0A8.227241335952167,8.227241335952167,0,1,1,8.227241335952167,0" style="fill: #e45756; stroke-width: 2; opacity: 0.7;"></path><path transform="translate(-7,90)" d="M6.7175144212722016,0A6.7175144212722016,6.7175144212722016,0,1,1,-6.7175144212722016,0A6.7175144212722016,6.7175144212722016,0,1,1,6.7175144212722016,0" style="fill: #f58518; stroke-width: 2; opacity: 0.7;"></path><path transform="translate(25,140)" d="M6.7175144212722016,0A6.7175144212722016,6.7175144212722016,0,1,1,-6.7175144212722016,0A6.7175144212722016,6.7175144212722016,0,1,1,6.7175144212722016,0" style="fill: #e45756; stroke-width: 2; opacity: 0.7;"></path><path transform="translate(-12,80)" d="M6.7175144212722016,0A6.7175144212722016,6.7175144212722016,0,1,1,-6.7175144212722016,0A6.7175144212722016,6.7175144212722016,0,1,1,6.7175144212722016,0" style="fill: #f58518; stroke-width: 2; opacity: 0.7;"></path><path transform="translate(13,150)" d="M6.7175144212722016,0A6.7175144212722016,6.7175144212722016,0,1,1,-6.7175144212722016,0A6.7175144212722016,6.7175144212722016,0,1,1,6.7175144212722016,0" style="fill: #e45756; stroke-width: 2; opacity: 0.7;"></path><path transform="translate(75,240)" d="M8.227241335952167,0A8.227241335952167,8.227241335952167,0,1,1,-8.227241335952167,0A8.227241335952167,8.227241335952167,0,1,1,8.227241335952167,0" style="fill: #e45756; stroke-width: 2; opacity: 0.7;"></path><path transform="translate(100,240)" d="M8.227241335952167,0A8.227241335952167,8.227241335952167,0,1,1,-8.227241335952167,0A8.227241335952167,8.227241335952167,0,1,1,8.227241335952167,0" style="fill: #e45756; stroke-width: 2; opacity: 0.7;"></path><path transform="translate(88,220)" d="M8.227241335952167,0A8.227241335952167,8.227241335952167,0,1,1,-8.227241335952167,0A8.227241335952167,8.227241335952167,0,1,1,8.227241335952167,0" style="fill: #e45756; stroke-width: 2; opacity: 0.7;"></path><path transform="translate(175,240)" d="M9.5,0A9.5,9.5,0,1,1,-9.5,0A9.5,9.5,0,1,1,9.5,0" style="fill: #e45756; stroke-width: 2; opacity: 0.7;"></path><path transform="translate(200,270)" d="M9.5,0A9.5,9.5,0,1,1,-9.5,0A9.5,9.5,0,1,1,9.5,0" style="fill: #e45756; stroke-width: 2; opacity: 0.7;"></path><path transform="translate(200,260)" d="M9.5,0A9.5,9.5,0,1,1,-9.5,0A9.5,9.5,0,1,1,9.5,0" style="fill: #e45756; stroke-width: 2; opacity: 0.7;"></path><path transform="translate(175,260)" d="M9.5,0A9.5,9.5,0,1,1,-9.5,0A9.5,9.5,0,1,1,9.5,0" style="fill: #e45756; stroke-width: 2; opacity: 0.7;"></path><path transform="translate(200,260)" d="M9.5,0A9.5,9.5,0,1,1,-9.5,0A9.5,9.5,0,1,1,9.5,0" style="fill: #e45756; stroke-width: 2; opacity: 0.7;"></path><path transform="translate(33,110)" d="M6.7175144212722016,0A6.7175144212722016,6.7175144212722016,0,1,1,-6.7175144212722016,0A6.7175144212722016,6.7175144212722016,0,1,1,6.7175144212722016,0" style="fill: #4c78a8; stroke-width: 2; opacity: 0.7;"></path><path transform="translate(-7,140)" d="M6.7175144212722016,0A6.7175144212722016,6.7175144212722016,0,1,1,-6.7175144212722016,0A6.7175144212722016,6.7175144212722016,0,1,1,6.7175144212722016,0" style="fill: #4c78a8; stroke-width: 2; opacity: 0.7;"></path><path transform="translate(20,140)" d="M6.7175144212722016,0A6.7175144212722016,6.7175144212722016,0,1,1,-6.7175144212722016,0A6.7175144212722016,6.7175144212722016,0,1,1,6.7175144212722016,0" style="fill: #4c78a8; stroke-width: 2; opacity: 0.7;"></path><path transform="translate(-45,90)" d="M6.7175144212722016,0A6.7175144212722016,6.7175144212722016,0,1,1,-6.7175144212722016,0A6.7175144212722016,6.7175144212722016,0,1,1,6.7175144212722016,0" style="fill: #f58518; stroke-width: 2; opacity: 0.7;"></path><path transform="translate(-22,80)" d="M6.7175144212722016,0A6.7175144212722016,6.7175144212722016,0,1,1,-6.7175144212722016,0A6.7175144212722016,6.7175144212722016,0,1,1,6.7175144212722016,0" style="fill: #f58518; stroke-width: 2; opacity: 0.7;"></path><path transform="translate(13,120)" d="M6.7175144212722016,0A6.7175144212722016,6.7175144212722016,0,1,1,-6.7175144212722016,0A6.7175144212722016,6.7175144212722016,0,1,1,6.7175144212722016,0" style="fill: #e45756; stroke-width: 2; opacity: 0.7;"></path><path transform="translate(13,160)" d="M6.7175144212722016,0A6.7175144212722016,6.7175144212722016,0,1,1,-6.7175144212722016,0A6.7175144212722016,6.7175144212722016,0,1,1,6.7175144212722016,0" style="fill: #4c78a8; stroke-width: 2; opacity: 0.7;"></path><path transform="translate(13,140)" d="M6.7175144212722016,0A6.7175144212722016,6.7175144212722016,0,1,1,-6.7175144212722016,0A6.7175144212722016,6.7175144212722016,0,1,1,6.7175144212722016,0" style="fill: #4c78a8; stroke-width: 2; opacity: 0.7;"></path><path transform="translate(68,160)" d="M6.7175144212722016,0A6.7175144212722016,6.7175144212722016,0,1,1,-6.7175144212722016,0A6.7175144212722016,6.7175144212722016,0,1,1,6.7175144212722016,0" style="fill: #f58518; stroke-width: 2; opacity: 0.7;"></path><path transform="translate(57,140)" d="M6.7175144212722016,0A6.7175144212722016,6.7175144212722016,0,1,1,-6.7175144212722016,0A6.7175144212722016,6.7175144212722016,0,1,1,6.7175144212722016,0" style="fill: #f58518; stroke-width: 2; opacity: 0.7;"></path><path transform="translate(-7,90)" d="M6.7175144212722016,0A6.7175144212722016,6.7175144212722016,0,1,1,-6.7175144212722016,0A6.7175144212722016,6.7175144212722016,0,1,1,6.7175144212722016,0" style="fill: #4c78a8; stroke-width: 2; opacity: 0.7;"></path><path transform="translate(63,210)" d="M8.227241335952167,0A8.227241335952167,8.227241335952167,0,1,1,-8.227241335952167,0A8.227241335952167,8.227241335952167,0,1,1,8.227241335952167,0" style="fill: #e45756; stroke-width: 2; opacity: 0.7;"></path><path transform="translate(88,220)" d="M8.227241335952167,0A8.227241335952167,8.227241335952167,0,1,1,-8.227241335952167,0A8.227241335952167,8.227241335952167,0,1,1,8.227241335952167,0" style="fill: #e45756; stroke-width: 2; opacity: 0.7;"></path><path transform="translate(5,250)" d="M8.227241335952167,0A8.227241335952167,8.227241335952167,0,1,1,-8.227241335952167,0A8.227241335952167,8.227241335952167,0,1,1,8.227241335952167,0" style="fill: #e45756; stroke-width: 2; opacity: 0.7;"></path><path transform="translate(5,250)" d="M8.227241335952167,0A8.227241335952167,8.227241335952167,0,1,1,-8.227241335952167,0A8.227241335952167,8.227241335952167,0,1,1,8.227241335952167,0" style="fill: #e45756; stroke-width: 2; opacity: 0.7;"></path><path transform="translate(250,240)" d="M9.5,0A9.5,9.5,0,1,1,-9.5,0A9.5,9.5,0,1,1,9.5,0" style="fill: #e45756; stroke-width: 2; opacity: 0.7;"></path><path transform="translate(188,250)" d="M9.5,0A9.5,9.5,0,1,1,-9.5,0A9.5,9.5,0,1,1,9.5,0" style="fill: #e45756; stroke-width: 2; opacity: 0.7;"></path><path transform="translate(200,240)" d="M9.5,0A9.5,9.5,0,1,1,-9.5,0A9.5,9.5,0,1,1,9.5,0" style="fill: #e45756; stroke-width: 2; opacity: 0.7;"></path><path transform="translate(195,260)" d="M9.5,0A9.5,9.5,0,1,1,-9.5,0A9.5,9.5,0,1,1,9.5,0" style="fill: #e45756; stroke-width: 2; opacity: 0.7;"></path><path transform="translate(100,230)" d="M8.227241335952167,0A8.227241335952167,8.227241335952167,0,1,1,-8.227241335952167,0A8.227241335952167,8.227241335952167,0,1,1,8.227241335952167,0" style="fill: #e45756; stroke-width: 2; opacity: 0.7;"></path><path transform="translate(88,240)" d="M8.227241335952167,0A8.227241335952167,8.227241335952167,0,1,1,-8.227241335952167,0A8.227241335952167,8.227241335952167,0,1,1,8.227241335952167,0" style="fill: #e45756; stroke-width: 2; opacity: 0.7;"></path><path transform="translate(100,250)" d="M8.227241335952167,0A8.227241335952167,8.227241335952167,0,1,1,-8.227241335952167,0A8.227241335952167,8.227241335952167,0,1,1,8.227241335952167,0" style="fill: #e45756; stroke-width: 2; opacity: 0.7;"></path><path transform="translate(63,220)" d="M8.227241335952167,0A8.227241335952167,8.227241335952167,0,1,1,-8.227241335952167,0A8.227241335952167,8.227241335952167,0,1,1,8.227241335952167,0" style="fill: #e45756; stroke-width: 2; opacity: 0.7;"></path><path transform="translate(100,190)" d="M8.227241335952167,0A8.227241335952167,8.227241335952167,0,1,1,-8.227241335952167,0A8.227241335952167,8.227241335952167,0,1,1,8.227241335952167,0" style="fill: #e45756; stroke-width: 2; opacity: 0.7;"></path><path transform="translate(100,200)" d="M9.5,0A9.5,9.5,0,1,1,-9.5,0A9.5,9.5,0,1,1,9.5,0" style="fill: #e45756; stroke-width: 2; opacity: 0.7;"></path><path transform="translate(148,270)" d="M9.5,0A9.5,9.5,0,1,1,-9.5,0A9.5,9.5,0,1,1,9.5,0" style="fill: #e45756; stroke-width: 2; opacity: 0.7;"></path><path transform="translate(13,110)" d="M6.7175144212722016,0A6.7175144212722016,6.7175144212722016,0,1,1,-6.7175144212722016,0A6.7175144212722016,6.7175144212722016,0,1,1,6.7175144212722016,0" style="fill: #f58518; stroke-width: 2; opacity: 0.7;"></path><path transform="translate(33,170)" d="M6.7175144212722016,0A6.7175144212722016,6.7175144212722016,0,1,1,-6.7175144212722016,0A6.7175144212722016,6.7175144212722016,0,1,1,6.7175144212722016,0" style="fill: #e45756; stroke-width: 2; opacity: 0.7;"></path><path transform="translate(75,200)" d="M8.227241335952167,0A8.227241335952167,8.227241335952167,0,1,1,-8.227241335952167,0A8.227241335952167,8.227241335952167,0,1,1,8.227241335952167,0" style="fill: #e45756; stroke-width: 2; opacity: 0.7;"></path><path transform="translate(20,170)" d="M6.7175144212722016,0A6.7175144212722016,6.7175144212722016,0,1,1,-6.7175144212722016,0A6.7175144212722016,6.7175144212722016,0,1,1,6.7175144212722016,0" style="fill: #e45756; stroke-width: 2; opacity: 0.7;"></path><path transform="translate(65,160)" d="M6.7175144212722016,0A6.7175144212722016,6.7175144212722016,0,1,1,-6.7175144212722016,0A6.7175144212722016,6.7175144212722016,0,1,1,6.7175144212722016,0" style="fill: #f58518; stroke-width: 2; opacity: 0.7;"></path><path transform="translate(3,150)" d="M6.7175144212722016,0A6.7175144212722016,6.7175144212722016,0,1,1,-6.7175144212722016,0A6.7175144212722016,6.7175144212722016,0,1,1,6.7175144212722016,0" style="fill: #4c78a8; stroke-width: 2; opacity: 0.7;"></path><path transform="translate(68,160)" d="M6.7175144212722016,0A6.7175144212722016,6.7175144212722016,0,1,1,-6.7175144212722016,0A6.7175144212722016,6.7175144212722016,0,1,1,6.7175144212722016,0" style="fill: #f58518; stroke-width: 2; opacity: 0.7;"></path><path transform="translate(68,220)" d="M8.227241335952167,0A8.227241335952167,8.227241335952167,0,1,1,-8.227241335952167,0A8.227241335952167,8.227241335952167,0,1,1,8.227241335952167,0" style="fill: #e45756; stroke-width: 2; opacity: 0.7;"></path><path transform="translate(0,110)" d="M6.7175144212722016,0A6.7175144212722016,6.7175144212722016,0,1,1,-6.7175144212722016,0A6.7175144212722016,6.7175144212722016,0,1,1,6.7175144212722016,0" style="fill: #4c78a8; stroke-width: 2; opacity: 0.7;"></path><path transform="translate(50,210)" d="M8.227241335952167,0A8.227241335952167,8.227241335952167,0,1,1,-8.227241335952167,0A8.227241335952167,8.227241335952167,0,1,1,8.227241335952167,0" style="fill: #e45756; stroke-width: 2; opacity: 0.7;"></path><path transform="translate(63,170)" d="M6.7175144212722016,0A6.7175144212722016,6.7175144212722016,0,1,1,-6.7175144212722016,0A6.7175144212722016,6.7175144212722016,0,1,1,6.7175144212722016,0" style="fill: #4c78a8; stroke-width: 2; opacity: 0.7;"></path><path transform="translate(45,170)" d="M6.7175144212722016,0A6.7175144212722016,6.7175144212722016,0,1,1,-6.7175144212722016,0A6.7175144212722016,6.7175144212722016,0,1,1,6.7175144212722016,0" style="fill: #4c78a8; stroke-width: 2; opacity: 0.7;"></path><path transform="translate(70,180)" d="M6.7175144212722016,0A6.7175144212722016,6.7175144212722016,0,1,1,-6.7175144212722016,0A6.7175144212722016,6.7175144212722016,0,1,1,6.7175144212722016,0" style="fill: #4c78a8; stroke-width: 2; opacity: 0.7;"></path><path transform="translate(113,150)" d="M6.7175144212722016,0A6.7175144212722016,6.7175144212722016,0,1,1,-6.7175144212722016,0A6.7175144212722016,6.7175144212722016,0,1,1,6.7175144212722016,0" style="fill: #4c78a8; stroke-width: 2; opacity: 0.7;"></path><path transform="translate(-42,70)" d="M6.7175144212722016,0A6.7175144212722016,6.7175144212722016,0,1,1,-6.7175144212722016,0A6.7175144212722016,6.7175144212722016,0,1,1,6.7175144212722016,0" style="fill: #f58518; stroke-width: 2; opacity: 0.7;"></path><path transform="translate(40,120)" d="M6.7175144212722016,0A6.7175144212722016,6.7175144212722016,0,1,1,-6.7175144212722016,0A6.7175144212722016,6.7175144212722016,0,1,1,6.7175144212722016,0" style="fill: #4c78a8; stroke-width: 2; opacity: 0.7;"></path><path transform="translate(28,150)" d="M6.7175144212722016,0A6.7175144212722016,6.7175144212722016,0,1,1,-6.7175144212722016,0A6.7175144212722016,6.7175144212722016,0,1,1,6.7175144212722016,0" style="fill: #4c78a8; stroke-width: 2; opacity: 0.7;"></path><path transform="translate(55,150)" d="M6.7175144212722016,0A6.7175144212722016,6.7175144212722016,0,1,1,-6.7175144212722016,0A6.7175144212722016,6.7175144212722016,0,1,1,6.7175144212722016,0" style="fill: #e45756; stroke-width: 2; opacity: 0.7;"></path><path transform="translate(23,140)" d="M6.7175144212722016,0A6.7175144212722016,6.7175144212722016,0,1,1,-6.7175144212722016,0A6.7175144212722016,6.7175144212722016,0,1,1,6.7175144212722016,0" style="fill: #e45756; stroke-width: 2; opacity: 0.7;"></path><path transform="translate(33,130)" d="M6.7175144212722016,0A6.7175144212722016,6.7175144212722016,0,1,1,-6.7175144212722016,0A6.7175144212722016,6.7175144212722016,0,1,1,6.7175144212722016,0" style="fill: #4c78a8; stroke-width: 2; opacity: 0.7;"></path><path transform="translate(175,225)" d="M9.5,0A9.5,9.5,0,1,1,-9.5,0A9.5,9.5,0,1,1,9.5,0" style="fill: #e45756; stroke-width: 2; opacity: 0.7;"></path><path transform="translate(200,240)" d="M9.5,0A9.5,9.5,0,1,1,-9.5,0A9.5,9.5,0,1,1,9.5,0" style="fill: #e45756; stroke-width: 2; opacity: 0.7;"></path><path transform="translate(125,245)" d="M9.5,0A9.5,9.5,0,1,1,-9.5,0A9.5,9.5,0,1,1,9.5,0" style="fill: #e45756; stroke-width: 2; opacity: 0.7;"></path><path transform="translate(205,255)" d="M9.5,0A9.5,9.5,0,1,1,-9.5,0A9.5,9.5,0,1,1,9.5,0" style="fill: #e45756; stroke-width: 2; opacity: 0.7;"></path><path transform="translate(75,180)" d="M8.227241335952167,0A8.227241335952167,8.227241335952167,0,1,1,-8.227241335952167,0A8.227241335952167,8.227241335952167,0,1,1,8.227241335952167,0" style="fill: #e45756; stroke-width: 2; opacity: 0.7;"></path><path transform="translate(88,180)" d="M8.227241335952167,0A8.227241335952167,8.227241335952167,0,1,1,-8.227241335952167,0A8.227241335952167,8.227241335952167,0,1,1,8.227241335952167,0" style="fill: #e45756; stroke-width: 2; opacity: 0.7;"></path><path transform="translate(28,160)" d="M8.227241335952167,0A8.227241335952167,8.227241335952167,0,1,1,-8.227241335952167,0A8.227241335952167,8.227241335952167,0,1,1,8.227241335952167,0" style="fill: #e45756; stroke-width: 2; opacity: 0.7;"></path><path transform="translate(50,175)" d="M8.227241335952167,0A8.227241335952167,8.227241335952167,0,1,1,-8.227241335952167,0A8.227241335952167,8.227241335952167,0,1,1,8.227241335952167,0" style="fill: #e45756; stroke-width: 2; opacity: 0.7;"></path><path transform="translate(-45,110)" d="M6.7175144212722016,0A6.7175144212722016,6.7175144212722016,0,1,1,-6.7175144212722016,0A6.7175144212722016,6.7175144212722016,0,1,1,6.7175144212722016,0" style="fill: #e45756; stroke-width: 2; opacity: 0.7;"></path><path transform="translate(-25,155)" d="M6.7175144212722016,0A6.7175144212722016,6.7175144212722016,0,1,1,-6.7175144212722016,0A6.7175144212722016,6.7175144212722016,0,1,1,6.7175144212722016,0" style="fill: #e45756; stroke-width: 2; opacity: 0.7;"></path><path transform="translate(0,110)" d="M6.7175144212722016,0A6.7175144212722016,6.7175144212722016,0,1,1,-6.7175144212722016,0A6.7175144212722016,6.7175144212722016,0,1,1,6.7175144212722016,0" style="fill: #4c78a8; stroke-width: 2; opacity: 0.7;"></path><path transform="translate(-42,70)" d="M6.7175144212722016,0A6.7175144212722016,6.7175144212722016,0,1,1,-6.7175144212722016,0A6.7175144212722016,6.7175144212722016,0,1,1,6.7175144212722016,0" style="fill: #f58518; stroke-width: 2; opacity: 0.7;"></path><path transform="translate(75,200)" d="M8.227241335952167,0A8.227241335952167,8.227241335952167,0,1,1,-8.227241335952167,0A8.227241335952167,8.227241335952167,0,1,1,8.227241335952167,0" style="fill: #e45756; stroke-width: 2; opacity: 0.7;"></path><path transform="translate(20,220)" d="M8.227241335952167,0A8.227241335952167,8.227241335952167,0,1,1,-8.227241335952167,0A8.227241335952167,8.227241335952167,0,1,1,8.227241335952167,0" style="fill: #e45756; stroke-width: 2; opacity: 0.7;"></path><path transform="translate(100,215)" d="M8.227241335952167,0A8.227241335952167,8.227241335952167,0,1,1,-8.227241335952167,0A8.227241335952167,8.227241335952167,0,1,1,8.227241335952167,0" style="fill: #e45756; stroke-width: 2; opacity: 0.7;"></path><path transform="translate(63,225)" d="M8.227241335952167,0A8.227241335952167,8.227241335952167,0,1,1,-8.227241335952167,0A8.227241335952167,8.227241335952167,0,1,1,8.227241335952167,0" style="fill: #e45756; stroke-width: 2; opacity: 0.7;"></path><path transform="translate(3,105)" d="M6.7175144212722016,0A6.7175144212722016,6.7175144212722016,0,1,1,-6.7175144212722016,0A6.7175144212722016,6.7175144212722016,0,1,1,6.7175144212722016,0" style="fill: #4c78a8; stroke-width: 2; opacity: 0.7;"></path><path transform="translate(0,80)" d="M6.7175144212722016,0A6.7175144212722016,6.7175144212722016,0,1,1,-6.7175144212722016,0A6.7175144212722016,6.7175144212722016,0,1,1,6.7175144212722016,0" style="fill: #f58518; stroke-width: 2; opacity: 0.7;"></path><path transform="translate(13,120)" d="M6.7175144212722016,0A6.7175144212722016,6.7175144212722016,0,1,1,-6.7175144212722016,0A6.7175144212722016,6.7175144212722016,0,1,1,6.7175144212722016,0" style="fill: #f58518; stroke-width: 2; opacity: 0.7;"></path><path transform="translate(5,135)" d="M6.7175144212722016,0A6.7175144212722016,6.7175144212722016,0,1,1,-6.7175144212722016,0A6.7175144212722016,6.7175144212722016,0,1,1,6.7175144212722016,0" style="fill: #e45756; stroke-width: 2; opacity: 0.7;"></path><path transform="translate(80,200)" d="M6.7175144212722016,0A6.7175144212722016,6.7175144212722016,0,1,1,-6.7175144212722016,0A6.7175144212722016,6.7175144212722016,0,1,1,6.7175144212722016,0" style="fill: #4c78a8; stroke-width: 2; opacity: 0.7;"></path><path transform="translate(200,270)" d="M9.5,0A9.5,9.5,0,1,1,-9.5,0A9.5,9.5,0,1,1,9.5,0" style="fill: #e45756; stroke-width: 2; opacity: 0.7;"></path><path transform="translate(45,210)" d="M6.7175144212722016,0A6.7175144212722016,6.7175144212722016,0,1,1,-6.7175144212722016,0A6.7175144212722016,6.7175144212722016,0,1,1,6.7175144212722016,0" style="fill: #4c78a8; stroke-width: 2; opacity: 0.7;"></path><path transform="translate(95,210)" d="M8.227241335952167,0A8.227241335952167,8.227241335952167,0,1,1,-8.227241335952167,0A8.227241335952167,8.227241335952167,0,1,1,8.227241335952167,0" style="fill: #f58518; stroke-width: 2; opacity: 0.7;"></path><path transform="translate(125,235)" d="M8.227241335952167,0A8.227241335952167,8.227241335952167,0,1,1,-8.227241335952167,0A8.227241335952167,8.227241335952167,0,1,1,8.227241335952167,0" style="fill: #4c78a8; stroke-width: 2; opacity: 0.7;"></path><path transform="translate(275,235)" d="M9.5,0A9.5,9.5,0,1,1,-9.5,0A9.5,9.5,0,1,1,9.5,0" style="fill: #e45756; stroke-width: 2; opacity: 0.7;"></path><path transform="translate(188,270)" d="M9.5,0A9.5,9.5,0,1,1,-9.5,0A9.5,9.5,0,1,1,9.5,0" style="fill: #e45756; stroke-width: 2; opacity: 0.7;"></path><path transform="translate(150,270)" d="M9.5,0A9.5,9.5,0,1,1,-9.5,0A9.5,9.5,0,1,1,9.5,0" style="fill: #e45756; stroke-width: 2; opacity: 0.7;"></path><path transform="translate(200,270)" d="M9.5,0A9.5,9.5,0,1,1,-9.5,0A9.5,9.5,0,1,1,9.5,0" style="fill: #e45756; stroke-width: 2; opacity: 0.7;"></path><path transform="translate(-5,85)" d="M6.7175144212722016,0A6.7175144212722016,6.7175144212722016,0,1,1,-6.7175144212722016,0A6.7175144212722016,6.7175144212722016,0,1,1,6.7175144212722016,0" style="fill: #f58518; stroke-width: 2; opacity: 0.7;"></path><path transform="translate(25,100)" d="M6.7175144212722016,0A6.7175144212722016,6.7175144212722016,0,1,1,-6.7175144212722016,0A6.7175144212722016,6.7175144212722016,0,1,1,6.7175144212722016,0" style="fill: #e45756; stroke-width: 2; opacity: 0.7;"></path><path transform="translate(-30,40)" d="M6.7175144212722016,0A6.7175144212722016,6.7175144212722016,0,1,1,-6.7175144212722016,0A6.7175144212722016,6.7175144212722016,0,1,1,6.7175144212722016,0" style="fill: #4c78a8; stroke-width: 2; opacity: 0.7;"></path><path transform="translate(65,145)" d="M6.7175144212722016,0A6.7175144212722016,6.7175144212722016,0,1,1,-6.7175144212722016,0A6.7175144212722016,6.7175144212722016,0,1,1,6.7175144212722016,0" style="fill: #e45756; stroke-width: 2; opacity: 0.7;"></path><path transform="translate(0,65)" d="M6.7175144212722016,0A6.7175144212722016,6.7175144212722016,0,1,1,-6.7175144212722016,0A6.7175144212722016,6.7175144212722016,0,1,1,6.7175144212722016,0" style="fill: #f58518; stroke-width: 2; opacity: 0.7;"></path><path transform="translate(188,225)" d="M9.5,0A9.5,9.5,0,1,1,-9.5,0A9.5,9.5,0,1,1,9.5,0" style="fill: #e45756; stroke-width: 2; opacity: 0.7;"></path><path transform="translate(100,230)" d="M9.5,0A9.5,9.5,0,1,1,-9.5,0A9.5,9.5,0,1,1,9.5,0" style="fill: #e45756; stroke-width: 2; opacity: 0.7;"></path><path transform="translate(188,245)" d="M9.5,0A9.5,9.5,0,1,1,-9.5,0A9.5,9.5,0,1,1,9.5,0" style="fill: #e45756; stroke-width: 2; opacity: 0.7;"></path><path transform="translate(150,250)" d="M9.5,0A9.5,9.5,0,1,1,-9.5,0A9.5,9.5,0,1,1,9.5,0" style="fill: #e45756; stroke-width: 2; opacity: 0.7;"></path><path transform="translate(100,225)" d="M8.227241335952167,0A8.227241335952167,8.227241335952167,0,1,1,-8.227241335952167,0A8.227241335952167,8.227241335952167,0,1,1,8.227241335952167,0" style="fill: #e45756; stroke-width: 2; opacity: 0.7;"></path><path transform="translate(88,195)" d="M8.227241335952167,0A8.227241335952167,8.227241335952167,0,1,1,-8.227241335952167,0A8.227241335952167,8.227241335952167,0,1,1,8.227241335952167,0" style="fill: #e45756; stroke-width: 2; opacity: 0.7;"></path><path transform="translate(75,210)" d="M8.227241335952167,0A8.227241335952167,8.227241335952167,0,1,1,-8.227241335952167,0A8.227241335952167,8.227241335952167,0,1,1,8.227241335952167,0" style="fill: #e45756; stroke-width: 2; opacity: 0.7;"></path><path transform="translate(70,215)" d="M8.227241335952167,0A8.227241335952167,8.227241335952167,0,1,1,-8.227241335952167,0A8.227241335952167,8.227241335952167,0,1,1,8.227241335952167,0" style="fill: #e45756; stroke-width: 2; opacity: 0.7;"></path><path transform="translate(275,240)" d="M9.5,0A9.5,9.5,0,1,1,-9.5,0A9.5,9.5,0,1,1,9.5,0" style="fill: #e45756; stroke-width: 2; opacity: 0.7;"></path><path transform="translate(250,245)" d="M9.5,0A9.5,9.5,0,1,1,-9.5,0A9.5,9.5,0,1,1,9.5,0" style="fill: #e45756; stroke-width: 2; opacity: 0.7;"></path><path transform="translate(300,245)" d="M9.5,0A9.5,9.5,0,1,1,-9.5,0A9.5,9.5,0,1,1,9.5,0" style="fill: #e45756; stroke-width: 2; opacity: 0.7;"></path><path transform="translate(198,240)" d="M9.5,0A9.5,9.5,0,1,1,-9.5,0A9.5,9.5,0,1,1,9.5,0" style="fill: #e45756; stroke-width: 2; opacity: 0.7;"></path><path transform="translate(20,110)" d="M6.7175144212722016,0A6.7175144212722016,6.7175144212722016,0,1,1,-6.7175144212722016,0A6.7175144212722016,6.7175144212722016,0,1,1,6.7175144212722016,0" style="fill: #4c78a8; stroke-width: 2; opacity: 0.7;"></path><path transform="translate(45,155)" d="M6.7175144212722016,0A6.7175144212722016,6.7175144212722016,0,1,1,-6.7175144212722016,0A6.7175144212722016,6.7175144212722016,0,1,1,6.7175144212722016,0" style="fill: #e45756; stroke-width: 2; opacity: 0.7;"></path><path transform="translate(13,140)" d="M6.7175144212722016,0A6.7175144212722016,6.7175144212722016,0,1,1,-6.7175144212722016,0A6.7175144212722016,6.7175144212722016,0,1,1,6.7175144212722016,0" style="fill: #f58518; stroke-width: 2; opacity: 0.7;"></path><path transform="translate(48,145)" d="M6.7175144212722016,0A6.7175144212722016,6.7175144212722016,0,1,1,-6.7175144212722016,0A6.7175144212722016,6.7175144212722016,0,1,1,6.7175144212722016,0" style="fill: #e45756; stroke-width: 2; opacity: 0.7;"></path><path transform="translate(-17,95)" d="M6.7175144212722016,0A6.7175144212722016,6.7175144212722016,0,1,1,-6.7175144212722016,0A6.7175144212722016,6.7175144212722016,0,1,1,6.7175144212722016,0" style="fill: #e45756; stroke-width: 2; opacity: 0.7;"></path><path transform="translate(33,65)" d="M6.7175144212722016,0A6.7175144212722016,6.7175144212722016,0,1,1,-6.7175144212722016,0A6.7175144212722016,6.7175144212722016,0,1,1,6.7175144212722016,0" style="fill: #e45756; stroke-width: 2; opacity: 0.7;"></path><path transform="translate(-7,100)" d="M6.7175144212722016,0A6.7175144212722016,6.7175144212722016,0,1,1,-6.7175144212722016,0A6.7175144212722016,6.7175144212722016,0,1,1,6.7175144212722016,0" style="fill: #f58518; stroke-width: 2; opacity: 0.7;"></path><path transform="translate(20,95)" d="M6.7175144212722016,0A6.7175144212722016,6.7175144212722016,0,1,1,-6.7175144212722016,0A6.7175144212722016,6.7175144212722016,0,1,1,6.7175144212722016,0" style="fill: #4c78a8; stroke-width: 2; opacity: 0.7;"></path><path transform="translate(68,180)" d="M8.227241335952167,0A8.227241335952167,8.227241335952167,0,1,1,-8.227241335952167,0A8.227241335952167,8.227241335952167,0,1,1,8.227241335952167,0" style="fill: #f58518; stroke-width: 2; opacity: 0.7;"></path><path transform="translate(100,185)" d="M6.7175144212722016,0A6.7175144212722016,6.7175144212722016,0,1,1,-6.7175144212722016,0A6.7175144212722016,6.7175144212722016,0,1,1,6.7175144212722016,0" style="fill: #4c78a8; stroke-width: 2; opacity: 0.7;"></path><path transform="translate(100,185)" d="M5.817538139110048,0A5.817538139110048,5.817538139110048,0,1,1,-5.817538139110048,0A5.817538139110048,5.817538139110048,0,1,1,5.817538139110048,0" style="fill: #f58518; stroke-width: 2; opacity: 0.7;"></path><path transform="translate(-55,-31)" d="M6.7175144212722016,0A6.7175144212722016,6.7175144212722016,0,1,1,-6.7175144212722016,0A6.7175144212722016,6.7175144212722016,0,1,1,6.7175144212722016,0" style="fill: #4c78a8; stroke-width: 2; opacity: 0.7;"></path><path transform="translate(-10,39)" d="M6.7175144212722016,0A6.7175144212722016,6.7175144212722016,0,1,1,-6.7175144212722016,0A6.7175144212722016,6.7175144212722016,0,1,1,6.7175144212722016,0" style="fill: #e45756; stroke-width: 2; opacity: 0.7;"></path><path transform="translate(-45,72)" d="M6.7175144212722016,0A6.7175144212722016,6.7175144212722016,0,1,1,-6.7175144212722016,0A6.7175144212722016,6.7175144212722016,0,1,1,6.7175144212722016,0" style="fill: #f58518; stroke-width: 2; opacity: 0.7;"></path><path transform="translate(0,6)" d="M6.7175144212722016,0A6.7175144212722016,6.7175144212722016,0,1,1,-6.7175144212722016,0A6.7175144212722016,6.7175144212722016,0,1,1,6.7175144212722016,0" style="fill: #f58518; stroke-width: 2; opacity: 0.7;"></path><path transform="translate(-25,39)" d="M6.7175144212722016,0A6.7175144212722016,6.7175144212722016,0,1,1,-6.7175144212722016,0A6.7175144212722016,6.7175144212722016,0,1,1,6.7175144212722016,0" style="fill: #f58518; stroke-width: 2; opacity: 0.7;"></path><path transform="translate(100,201)" d="M9.5,0A9.5,9.5,0,1,1,-9.5,0A9.5,9.5,0,1,1,9.5,0" style="fill: #e45756; stroke-width: 2; opacity: 0.7;"></path><path transform="translate(175,206)" d="M9.5,0A9.5,9.5,0,1,1,-9.5,0A9.5,9.5,0,1,1,9.5,0" style="fill: #e45756; stroke-width: 2; opacity: 0.7;"></path><path transform="translate(173,198)" d="M9.5,0A9.5,9.5,0,1,1,-9.5,0A9.5,9.5,0,1,1,9.5,0" style="fill: #e45756; stroke-width: 2; opacity: 0.7;"></path><path transform="translate(88,208)" d="M8.227241335952167,0A8.227241335952167,8.227241335952167,0,1,1,-8.227241335952167,0A8.227241335952167,8.227241335952167,0,1,1,8.227241335952167,0" style="fill: #e45756; stroke-width: 2; opacity: 0.7;"></path><path transform="translate(63,195)" d="M8.227241335952167,0A8.227241335952167,8.227241335952167,0,1,1,-8.227241335952167,0A8.227241335952167,8.227241335952167,0,1,1,8.227241335952167,0" style="fill: #e45756; stroke-width: 2; opacity: 0.7;"></path><path transform="translate(38,198)" d="M8.227241335952167,0A8.227241335952167,8.227241335952167,0,1,1,-8.227241335952167,0A8.227241335952167,8.227241335952167,0,1,1,8.227241335952167,0" style="fill: #e45756; stroke-width: 2; opacity: 0.7;"></path><path transform="translate(45,149)" d="M6.7175144212722016,0A6.7175144212722016,6.7175144212722016,0,1,1,-6.7175144212722016,0A6.7175144212722016,6.7175144212722016,0,1,1,6.7175144212722016,0" style="fill: #e45756; stroke-width: 2; opacity: 0.7;"></path><path transform="translate(75,195)" d="M8.227241335952167,0A8.227241335952167,8.227241335952167,0,1,1,-8.227241335952167,0A8.227241335952167,8.227241335952167,0,1,1,8.227241335952167,0" style="fill: #e45756; stroke-width: 2; opacity: 0.7;"></path><path transform="translate(50,206)" d="M8.227241335952167,0A8.227241335952167,8.227241335952167,0,1,1,-8.227241335952167,0A8.227241335952167,8.227241335952167,0,1,1,8.227241335952167,0" style="fill: #e45756; stroke-width: 2; opacity: 0.7;"></path><path transform="translate(88,194)" d="M8.227241335952167,0A8.227241335952167,8.227241335952167,0,1,1,-8.227241335952167,0A8.227241335952167,8.227241335952167,0,1,1,8.227241335952167,0" style="fill: #e45756; stroke-width: 2; opacity: 0.7;"></path><path transform="translate(38,192)" d="M8.227241335952167,0A8.227241335952167,8.227241335952167,0,1,1,-8.227241335952167,0A8.227241335952167,8.227241335952167,0,1,1,8.227241335952167,0" style="fill: #e45756; stroke-width: 2; opacity: 0.7;"></path><path transform="translate(100,214)" d="M8.227241335952167,0A8.227241335952167,8.227241335952167,0,1,1,-8.227241335952167,0A8.227241335952167,8.227241335952167,0,1,1,8.227241335952167,0" style="fill: #e45756; stroke-width: 2; opacity: 0.7;"></path><path transform="translate(125,219)" d="M8.227241335952167,0A8.227241335952167,8.227241335952167,0,1,1,-8.227241335952167,0A8.227241335952167,8.227241335952167,0,1,1,8.227241335952167,0" style="fill: #e45756; stroke-width: 2; opacity: 0.7;"></path><path transform="translate(188,208)" d="M9.5,0A9.5,9.5,0,1,1,-9.5,0A9.5,9.5,0,1,1,9.5,0" style="fill: #e45756; stroke-width: 2; opacity: 0.7;"></path><path transform="translate(238,223)" d="M8.227241335952167,0A8.227241335952167,8.227241335952167,0,1,1,-8.227241335952167,0A8.227241335952167,8.227241335952167,0,1,1,8.227241335952167,0" style="fill: #e45756; stroke-width: 2; opacity: 0.7;"></path><path transform="translate(173,219)" d="M9.5,0A9.5,9.5,0,1,1,-9.5,0A9.5,9.5,0,1,1,9.5,0" style="fill: #e45756; stroke-width: 2; opacity: 0.7;"></path><path transform="translate(175,225)" d="M9.5,0A9.5,9.5,0,1,1,-9.5,0A9.5,9.5,0,1,1,9.5,0" style="fill: #e45756; stroke-width: 2; opacity: 0.7;"></path><path transform="translate(-5,100)" d="M6.7175144212722016,0A6.7175144212722016,6.7175144212722016,0,1,1,-6.7175144212722016,0A6.7175144212722016,6.7175144212722016,0,1,1,6.7175144212722016,0" style="fill: #e45756; stroke-width: 2; opacity: 0.7;"></path><path transform="translate(63,125)" d="M6.7175144212722016,0A6.7175144212722016,6.7175144212722016,0,1,1,-6.7175144212722016,0A6.7175144212722016,6.7175144212722016,0,1,1,6.7175144212722016,0" style="fill: #f58518; stroke-width: 2; opacity: 0.7;"></path><path transform="translate(68,128)" d="M6.7175144212722016,0A6.7175144212722016,6.7175144212722016,0,1,1,-6.7175144212722016,0A6.7175144212722016,6.7175144212722016,0,1,1,6.7175144212722016,0" style="fill: #f58518; stroke-width: 2; opacity: 0.7;"></path><path transform="translate(13,91)" d="M6.7175144212722016,0A6.7175144212722016,6.7175144212722016,0,1,1,-6.7175144212722016,0A6.7175144212722016,6.7175144212722016,0,1,1,6.7175144212722016,0" style="fill: #e45756; stroke-width: 2; opacity: 0.7;"></path><path transform="translate(63,189)" d="M6.7175144212722016,0A6.7175144212722016,6.7175144212722016,0,1,1,-6.7175144212722016,0A6.7175144212722016,6.7175144212722016,0,1,1,6.7175144212722016,0" style="fill: #f58518; stroke-width: 2; opacity: 0.7;"></path><path transform="translate(88,168)" d="M6.7175144212722016,0A6.7175144212722016,6.7175144212722016,0,1,1,-6.7175144212722016,0A6.7175144212722016,6.7175144212722016,0,1,1,6.7175144212722016,0" style="fill: #e45756; stroke-width: 2; opacity: 0.7;"></path><path transform="translate(38,162)" d="M6.7175144212722016,0A6.7175144212722016,6.7175144212722016,0,1,1,-6.7175144212722016,0A6.7175144212722016,6.7175144212722016,0,1,1,6.7175144212722016,0" style="fill: #e45756; stroke-width: 2; opacity: 0.7;"></path><path transform="translate(68,161)" d="M6.7175144212722016,0A6.7175144212722016,6.7175144212722016,0,1,1,-6.7175144212722016,0A6.7175144212722016,6.7175144212722016,0,1,1,6.7175144212722016,0" style="fill: #f58518; stroke-width: 2; opacity: 0.7;"></path><path transform="translate(83,197)" d="M7.510409442899901,0A7.510409442899901,7.510409442899901,0,1,1,-7.510409442899901,0A7.510409442899901,7.510409442899901,0,1,1,7.510409442899901,0" style="fill: #4c78a8; stroke-width: 2; opacity: 0.7;"></path><path transform="translate(138,230)" d="M8.227241335952167,0A8.227241335952167,8.227241335952167,0,1,1,-8.227241335952167,0A8.227241335952167,8.227241335952167,0,1,1,8.227241335952167,0" style="fill: #4c78a8; stroke-width: 2; opacity: 0.7;"></path><path transform="translate(113,184)" d="M6.7175144212722016,0A6.7175144212722016,6.7175144212722016,0,1,1,-6.7175144212722016,0A6.7175144212722016,6.7175144212722016,0,1,1,6.7175144212722016,0" style="fill: #4c78a8; stroke-width: 2; opacity: 0.7;"></path><path transform="translate(158,238)" d="M8.227241335952167,0A8.227241335952167,8.227241335952167,0,1,1,-8.227241335952167,0A8.227241335952167,8.227241335952167,0,1,1,8.227241335952167,0" style="fill: #4c78a8; stroke-width: 2; opacity: 0.7;"></path><path transform="translate(3,85)" d="M6.7175144212722016,0A6.7175144212722016,6.7175144212722016,0,1,1,-6.7175144212722016,0A6.7175144212722016,6.7175144212722016,0,1,1,6.7175144212722016,0" style="fill: #4c78a8; stroke-width: 2; opacity: 0.7;"></path><path transform="translate(-5,105)" d="M6.7175144212722016,0A6.7175144212722016,6.7175144212722016,0,1,1,-6.7175144212722016,0A6.7175144212722016,6.7175144212722016,0,1,1,6.7175144212722016,0" style="fill: #f58518; stroke-width: 2; opacity: 0.7;"></path><path transform="translate(113,185)" d="M8.227241335952167,0A8.227241335952167,8.227241335952167,0,1,1,-8.227241335952167,0A8.227241335952167,8.227241335952167,0,1,1,8.227241335952167,0" style="fill: #e45756; stroke-width: 2; opacity: 0.7;"></path><path transform="translate(38,202)" d="M8.227241335952167,0A8.227241335952167,8.227241335952167,0,1,1,-8.227241335952167,0A8.227241335952167,8.227241335952167,0,1,1,8.227241335952167,0" style="fill: #e45756; stroke-width: 2; opacity: 0.7;"></path><path transform="translate(45,177)" d="M6.7175144212722016,0A6.7175144212722016,6.7175144212722016,0,1,1,-6.7175144212722016,0A6.7175144212722016,6.7175144212722016,0,1,1,6.7175144212722016,0" style="fill: #e45756; stroke-width: 2; opacity: 0.7;"></path><path transform="translate(50,198)" d="M8.227241335952167,0A8.227241335952167,8.227241335952167,0,1,1,-8.227241335952167,0A8.227241335952167,8.227241335952167,0,1,1,8.227241335952167,0" style="fill: #e45756; stroke-width: 2; opacity: 0.7;"></path><path transform="translate(100,194)" d="M8.227241335952167,0A8.227241335952167,8.227241335952167,0,1,1,-8.227241335952167,0A8.227241335952167,8.227241335952167,0,1,1,8.227241335952167,0" style="fill: #e45756; stroke-width: 2; opacity: 0.7;"></path><path transform="translate(150,230)" d="M9.5,0A9.5,9.5,0,1,1,-9.5,0A9.5,9.5,0,1,1,9.5,0" style="fill: #e45756; stroke-width: 2; opacity: 0.7;"></path><path transform="translate(148,224)" d="M9.5,0A9.5,9.5,0,1,1,-9.5,0A9.5,9.5,0,1,1,9.5,0" style="fill: #e45756; stroke-width: 2; opacity: 0.7;"></path><path transform="translate(170,235)" d="M9.5,0A9.5,9.5,0,1,1,-9.5,0A9.5,9.5,0,1,1,9.5,0" style="fill: #e45756; stroke-width: 2; opacity: 0.7;"></path><path transform="translate(163,218)" d="M9.5,0A9.5,9.5,0,1,1,-9.5,0A9.5,9.5,0,1,1,9.5,0" style="fill: #e45756; stroke-width: 2; opacity: 0.7;"></path><path transform="translate(213,231)" d="M9.5,0A9.5,9.5,0,1,1,-9.5,0A9.5,9.5,0,1,1,9.5,0" style="fill: #e45756; stroke-width: 2; opacity: 0.7;"></path><path transform="translate(180,245)" d="M9.5,0A9.5,9.5,0,1,1,-9.5,0A9.5,9.5,0,1,1,9.5,0" style="fill: #e45756; stroke-width: 2; opacity: 0.7;"></path><path transform="translate(138,208)" d="M9.5,0A9.5,9.5,0,1,1,-9.5,0A9.5,9.5,0,1,1,9.5,0" style="fill: #e45756; stroke-width: 2; opacity: 0.7;"></path><path transform="translate(200,215)" d="M9.5,0A9.5,9.5,0,1,1,-9.5,0A9.5,9.5,0,1,1,9.5,0" style="fill: #e45756; stroke-width: 2; opacity: 0.7;"></path><path transform="translate(3,81)" d="M6.7175144212722016,0A6.7175144212722016,6.7175144212722016,0,1,1,-6.7175144212722016,0A6.7175144212722016,6.7175144212722016,0,1,1,6.7175144212722016,0" style="fill: #4c78a8; stroke-width: 2; opacity: 0.7;"></path><path transform="translate(-12,59)" d="M6.7175144212722016,0A6.7175144212722016,6.7175144212722016,0,1,1,-6.7175144212722016,0A6.7175144212722016,6.7175144212722016,0,1,1,6.7175144212722016,0" style="fill: #f58518; stroke-width: 2; opacity: 0.7;"></path><path transform="translate(25,43)" d="M6.7175144212722016,0A6.7175144212722016,6.7175144212722016,0,1,1,-6.7175144212722016,0A6.7175144212722016,6.7175144212722016,0,1,1,6.7175144212722016,0" style="fill: #e45756; stroke-width: 2; opacity: 0.7;"></path><path transform="translate(25,126)" d="M6.7175144212722016,0A6.7175144212722016,6.7175144212722016,0,1,1,-6.7175144212722016,0A6.7175144212722016,6.7175144212722016,0,1,1,6.7175144212722016,0" style="fill: #e45756; stroke-width: 2; opacity: 0.7;"></path><path transform="translate(18,146)" d="M7.510409442899901,0A7.510409442899901,7.510409442899901,0,1,1,-7.510409442899901,0A7.510409442899901,7.510409442899901,0,1,1,7.510409442899901,0" style="fill: #4c78a8; stroke-width: 2; opacity: 0.7;"></path><path transform="translate(138,170)" d="M9.5,0A9.5,9.5,0,1,1,-9.5,0A9.5,9.5,0,1,1,9.5,0" style="fill: #e45756; stroke-width: 2; opacity: 0.7;"></path><path transform="translate(3,128)" d="M6.7175144212722016,0A6.7175144212722016,6.7175144212722016,0,1,1,-6.7175144212722016,0A6.7175144212722016,6.7175144212722016,0,1,1,6.7175144212722016,0" style="fill: #4c78a8; stroke-width: 2; opacity: 0.7;"></path><path transform="translate(50,161)" d="M9.5,0A9.5,9.5,0,1,1,-9.5,0A9.5,9.5,0,1,1,9.5,0" style="fill: #e45756; stroke-width: 2; opacity: 0.7;"></path><path transform="translate(0,58)" d="M6.7175144212722016,0A6.7175144212722016,6.7175144212722016,0,1,1,-6.7175144212722016,0A6.7175144212722016,6.7175144212722016,0,1,1,6.7175144212722016,0" style="fill: #e45756; stroke-width: 2; opacity: 0.7;"></path><path transform="translate(0,55)" d="M6.7175144212722016,0A6.7175144212722016,6.7175144212722016,0,1,1,-6.7175144212722016,0A6.7175144212722016,6.7175144212722016,0,1,1,6.7175144212722016,0" style="fill: #e45756; stroke-width: 2; opacity: 0.7;"></path><path transform="translate(-12,82)" d="M6.7175144212722016,0A6.7175144212722016,6.7175144212722016,0,1,1,-6.7175144212722016,0A6.7175144212722016,6.7175144212722016,0,1,1,6.7175144212722016,0" style="fill: #f58518; stroke-width: 2; opacity: 0.7;"></path><path transform="translate(-2,27)" d="M6.7175144212722016,0A6.7175144212722016,6.7175144212722016,0,1,1,-6.7175144212722016,0A6.7175144212722016,6.7175144212722016,0,1,1,6.7175144212722016,0" style="fill: #4c78a8; stroke-width: 2; opacity: 0.7;"></path><path transform="translate(50,116)" d="M6.7175144212722016,0A6.7175144212722016,6.7175144212722016,0,1,1,-6.7175144212722016,0A6.7175144212722016,6.7175144212722016,0,1,1,6.7175144212722016,0" style="fill: #e45756; stroke-width: 2; opacity: 0.7;"></path><path transform="translate(113,112)" d="M8.227241335952167,0A8.227241335952167,8.227241335952167,0,1,1,-8.227241335952167,0A8.227241335952167,8.227241335952167,0,1,1,8.227241335952167,0" style="fill: #e45756; stroke-width: 2; opacity: 0.7;"></path><path transform="translate(113,132)" d="M8.227241335952167,0A8.227241335952167,8.227241335952167,0,1,1,-8.227241335952167,0A8.227241335952167,8.227241335952167,0,1,1,8.227241335952167,0" style="fill: #e45756; stroke-width: 2; opacity: 0.7;"></path><path transform="translate(50,65)" d="M6.7175144212722016,0A6.7175144212722016,6.7175144212722016,0,1,1,-6.7175144212722016,0A6.7175144212722016,6.7175144212722016,0,1,1,6.7175144212722016,0" style="fill: #e45756; stroke-width: 2; opacity: 0.7;"></path><path transform="translate(15,-15)" d="M6.7175144212722016,0A6.7175144212722016,6.7175144212722016,0,1,1,-6.7175144212722016,0A6.7175144212722016,6.7175144212722016,0,1,1,6.7175144212722016,0" style="fill: #4c78a8; stroke-width: 2; opacity: 0.7;"></path><path transform="translate(-25,19)" d="M6.7175144212722016,0A6.7175144212722016,6.7175144212722016,0,1,1,-6.7175144212722016,0A6.7175144212722016,6.7175144212722016,0,1,1,6.7175144212722016,0" style="fill: #f58518; stroke-width: 2; opacity: 0.7;"></path><path transform="translate(0,79)" d="M6.7175144212722016,0A6.7175144212722016,6.7175144212722016,0,1,1,-6.7175144212722016,0A6.7175144212722016,6.7175144212722016,0,1,1,6.7175144212722016,0" style="fill: #e45756; stroke-width: 2; opacity: 0.7;"></path><path transform="translate(-12,28)" d="M6.7175144212722016,0A6.7175144212722016,6.7175144212722016,0,1,1,-6.7175144212722016,0A6.7175144212722016,6.7175144212722016,0,1,1,6.7175144212722016,0" style="fill: #f58518; stroke-width: 2; opacity: 0.7;"></path><path transform="translate(50,120)" d="M6.7175144212722016,0A6.7175144212722016,6.7175144212722016,0,1,1,-6.7175144212722016,0A6.7175144212722016,6.7175144212722016,0,1,1,6.7175144212722016,0" style="fill: #e45756; stroke-width: 2; opacity: 0.7;"></path><path transform="translate(45,136)" d="M6.7175144212722016,0A6.7175144212722016,6.7175144212722016,0,1,1,-6.7175144212722016,0A6.7175144212722016,6.7175144212722016,0,1,1,6.7175144212722016,0" style="fill: #e45756; stroke-width: 2; opacity: 0.7;"></path><path transform="translate(50,157)" d="M6.7175144212722016,0A6.7175144212722016,6.7175144212722016,0,1,1,-6.7175144212722016,0A6.7175144212722016,6.7175144212722016,0,1,1,6.7175144212722016,0" style="fill: #e45756; stroke-width: 2; opacity: 0.7;"></path><path transform="translate(50,209)" d="M8.227241335952167,0A8.227241335952167,8.227241335952167,0,1,1,-8.227241335952167,0A8.227241335952167,8.227241335952167,0,1,1,8.227241335952167,0" style="fill: #e45756; stroke-width: 2; opacity: 0.7;"></path><path transform="translate(20,57)" d="M6.7175144212722016,0A6.7175144212722016,6.7175144212722016,0,1,1,-6.7175144212722016,0A6.7175144212722016,6.7175144212722016,0,1,1,6.7175144212722016,0" style="fill: #4c78a8; stroke-width: 2; opacity: 0.7;"></path><path transform="translate(50,102)" d="M6.7175144212722016,0A6.7175144212722016,6.7175144212722016,0,1,1,-6.7175144212722016,0A6.7175144212722016,6.7175144212722016,0,1,1,6.7175144212722016,0" style="fill: #f58518; stroke-width: 2; opacity: 0.7;"></path><path transform="translate(13,87)" d="M6.7175144212722016,0A6.7175144212722016,6.7175144212722016,0,1,1,-6.7175144212722016,0A6.7175144212722016,6.7175144212722016,0,1,1,6.7175144212722016,0" style="fill: #f58518; stroke-width: 2; opacity: 0.7;"></path><path transform="translate(55,30)" d="M6.7175144212722016,0A6.7175144212722016,6.7175144212722016,0,1,1,-6.7175144212722016,0A6.7175144212722016,6.7175144212722016,0,1,1,6.7175144212722016,0" style="fill: #f58518; stroke-width: 2; opacity: 0.7;"></path><path transform="translate(13,78)" d="M6.7175144212722016,0A6.7175144212722016,6.7175144212722016,0,1,1,-6.7175144212722016,0A6.7175144212722016,6.7175144212722016,0,1,1,6.7175144212722016,0" style="fill: #f58518; stroke-width: 2; opacity: 0.7;"></path><path transform="translate(-12,-66)" d="M6.7175144212722016,0A6.7175144212722016,6.7175144212722016,0,1,1,-6.7175144212722016,0A6.7175144212722016,6.7175144212722016,0,1,1,6.7175144212722016,0" style="fill: #f58518; stroke-width: 2; opacity: 0.7;"></path><path transform="translate(88,121)" d="M6.7175144212722016,0A6.7175144212722016,6.7175144212722016,0,1,1,-6.7175144212722016,0A6.7175144212722016,6.7175144212722016,0,1,1,6.7175144212722016,0" style="fill: #e45756; stroke-width: 2; opacity: 0.7;"></path><path transform="translate(-12,-8)" d="M6.7175144212722016,0A6.7175144212722016,6.7175144212722016,0,1,1,-6.7175144212722016,0A6.7175144212722016,6.7175144212722016,0,1,1,6.7175144212722016,0" style="fill: #f58518; stroke-width: 2; opacity: 0.7;"></path><path transform="translate(-55,-43)" d="M6.7175144212722016,0A6.7175144212722016,6.7175144212722016,0,1,1,-6.7175144212722016,0A6.7175144212722016,6.7175144212722016,0,1,1,6.7175144212722016,0" style="fill: #4c78a8; stroke-width: 2; opacity: 0.7;"></path><path transform="translate(-55,-34)" d="M6.7175144212722016,0A6.7175144212722016,6.7175144212722016,0,1,1,-6.7175144212722016,0A6.7175144212722016,6.7175144212722016,0,1,1,6.7175144212722016,0" style="fill: #4c78a8; stroke-width: 2; opacity: 0.7;"></path><path transform="translate(-7,36)" d="M7.510409442899901,0A7.510409442899901,7.510409442899901,0,1,1,-7.510409442899901,0A7.510409442899901,7.510409442899901,0,1,1,7.510409442899901,0" style="fill: #4c78a8; stroke-width: 2; opacity: 0.7;"></path><path transform="translate(-7,100)" d="M6.7175144212722016,0A6.7175144212722016,6.7175144212722016,0,1,1,-6.7175144212722016,0A6.7175144212722016,6.7175144212722016,0,1,1,6.7175144212722016,0" style="fill: #4c78a8; stroke-width: 2; opacity: 0.7;"></path><path transform="translate(-7,-46)" d="M6.7175144212722016,0A6.7175144212722016,6.7175144212722016,0,1,1,-6.7175144212722016,0A6.7175144212722016,6.7175144212722016,0,1,1,6.7175144212722016,0" style="fill: #f58518; stroke-width: 2; opacity: 0.7;"></path><path transform="translate(-7,62)" d="M6.7175144212722016,0A6.7175144212722016,6.7175144212722016,0,1,1,-6.7175144212722016,0A6.7175144212722016,6.7175144212722016,0,1,1,6.7175144212722016,0" style="fill: #f58518; stroke-width: 2; opacity: 0.7;"></path><path transform="translate(-20,102)" d="M6.7175144212722016,0A6.7175144212722016,6.7175144212722016,0,1,1,-6.7175144212722016,0A6.7175144212722016,6.7175144212722016,0,1,1,6.7175144212722016,0" style="fill: #4c78a8; stroke-width: 2; opacity: 0.7;"></path><path transform="translate(155,73)" d="M8.227241335952167,0A8.227241335952167,8.227241335952167,0,1,1,-8.227241335952167,0A8.227241335952167,8.227241335952167,0,1,1,8.227241335952167,0" style="fill: #f58518; stroke-width: 2; opacity: 0.7;"></path><path transform="translate(75,163)" d="M5.817538139110048,0A5.817538139110048,5.817538139110048,0,1,1,-5.817538139110048,0A5.817538139110048,5.817538139110048,0,1,1,5.817538139110048,0" style="fill: #f58518; stroke-width: 2; opacity: 0.7;"></path><path transform="translate(45,50)" d="M6.7175144212722016,0A6.7175144212722016,6.7175144212722016,0,1,1,-6.7175144212722016,0A6.7175144212722016,6.7175144212722016,0,1,1,6.7175144212722016,0" style="fill: #4c78a8; stroke-width: 2; opacity: 0.7;"></path><path transform="translate(5,76)" d="M6.7175144212722016,0A6.7175144212722016,6.7175144212722016,0,1,1,-6.7175144212722016,0A6.7175144212722016,6.7175144212722016,0,1,1,6.7175144212722016,0" style="fill: #f58518; stroke-width: 2; opacity: 0.7;"></path><path transform="translate(35,128)" d="M6.7175144212722016,0A6.7175144212722016,6.7175144212722016,0,1,1,-6.7175144212722016,0A6.7175144212722016,6.7175144212722016,0,1,1,6.7175144212722016,0" style="fill: #e45756; stroke-width: 2; opacity: 0.7;"></path><path transform="translate(35,134)" d="M6.7175144212722016,0A6.7175144212722016,6.7175144212722016,0,1,1,-6.7175144212722016,0A6.7175144212722016,6.7175144212722016,0,1,1,6.7175144212722016,0" style="fill: #e45756; stroke-width: 2; opacity: 0.7;"></path><path transform="translate(55,142)" d="M6.7175144212722016,0A6.7175144212722016,6.7175144212722016,0,1,1,-6.7175144212722016,0A6.7175144212722016,6.7175144212722016,0,1,1,6.7175144212722016,0" style="fill: #e45756; stroke-width: 2; opacity: 0.7;"></path><path transform="translate(100,165)" d="M8.227241335952167,0A8.227241335952167,8.227241335952167,0,1,1,-8.227241335952167,0A8.227241335952167,8.227241335952167,0,1,1,8.227241335952167,0" style="fill: #e45756; stroke-width: 2; opacity: 0.7;"></path><path transform="translate(35,100)" d="M6.7175144212722016,0A6.7175144212722016,6.7175144212722016,0,1,1,-6.7175144212722016,0A6.7175144212722016,6.7175144212722016,0,1,1,6.7175144212722016,0" style="fill: #e45756; stroke-width: 2; opacity: 0.7;"></path><path transform="translate(-30,9)" d="M6.7175144212722016,0A6.7175144212722016,6.7175144212722016,0,1,1,-6.7175144212722016,0A6.7175144212722016,6.7175144212722016,0,1,1,6.7175144212722016,0" style="fill: #f58518; stroke-width: 2; opacity: 0.7;"></path><path transform="translate(-15,10)" d="M6.7175144212722016,0A6.7175144212722016,6.7175144212722016,0,1,1,-6.7175144212722016,0A6.7175144212722016,6.7175144212722016,0,1,1,6.7175144212722016,0" style="fill: #e45756; stroke-width: 2; opacity: 0.7;"></path><path transform="translate(-25,49)" d="M6.7175144212722016,0A6.7175144212722016,6.7175144212722016,0,1,1,-6.7175144212722016,0A6.7175144212722016,6.7175144212722016,0,1,1,6.7175144212722016,0" style="fill: #f58518; stroke-width: 2; opacity: 0.7;"></path><path transform="translate(-7,77)" d="M6.7175144212722016,0A6.7175144212722016,6.7175144212722016,0,1,1,-6.7175144212722016,0A6.7175144212722016,6.7175144212722016,0,1,1,6.7175144212722016,0" style="fill: #f58518; stroke-width: 2; opacity: 0.7;"></path><path transform="translate(-12,30)" d="M6.7175144212722016,0A6.7175144212722016,6.7175144212722016,0,1,1,-6.7175144212722016,0A6.7175144212722016,6.7175144212722016,0,1,1,6.7175144212722016,0" style="fill: #f58518; stroke-width: 2; opacity: 0.7;"></path><path transform="translate(-20,23)" d="M6.7175144212722016,0A6.7175144212722016,6.7175144212722016,0,1,1,-6.7175144212722016,0A6.7175144212722016,6.7175144212722016,0,1,1,6.7175144212722016,0" style="fill: #f58518; stroke-width: 2; opacity: 0.7;"></path><path transform="translate(-5,59)" d="M6.7175144212722016,0A6.7175144212722016,6.7175144212722016,0,1,1,-6.7175144212722016,0A6.7175144212722016,6.7175144212722016,0,1,1,6.7175144212722016,0" style="fill: #f58518; stroke-width: 2; opacity: 0.7;"></path><path transform="translate(-17,53)" d="M6.7175144212722016,0A6.7175144212722016,6.7175144212722016,0,1,1,-6.7175144212722016,0A6.7175144212722016,6.7175144212722016,0,1,1,6.7175144212722016,0" style="fill: #e45756; stroke-width: 2; opacity: 0.7;"></path><path transform="translate(-12,56)" d="M6.7175144212722016,0A6.7175144212722016,6.7175144212722016,0,1,1,-6.7175144212722016,0A6.7175144212722016,6.7175144212722016,0,1,1,6.7175144212722016,0" style="fill: #e45756; stroke-width: 2; opacity: 0.7;"></path><path transform="translate(-12,101)" d="M6.7175144212722016,0A6.7175144212722016,6.7175144212722016,0,1,1,-6.7175144212722016,0A6.7175144212722016,6.7175144212722016,0,1,1,6.7175144212722016,0" style="fill: #e45756; stroke-width: 2; opacity: 0.7;"></path><path transform="translate(10,70)" d="M6.7175144212722016,0A6.7175144212722016,6.7175144212722016,0,1,1,-6.7175144212722016,0A6.7175144212722016,6.7175144212722016,0,1,1,6.7175144212722016,0" style="fill: #4c78a8; stroke-width: 2; opacity: 0.7;"></path><path transform="translate(13,63)" d="M6.7175144212722016,0A6.7175144212722016,6.7175144212722016,0,1,1,-6.7175144212722016,0A6.7175144212722016,6.7175144212722016,0,1,1,6.7175144212722016,0" style="fill: #f58518; stroke-width: 2; opacity: 0.7;"></path><path transform="translate(13,76)" d="M6.7175144212722016,0A6.7175144212722016,6.7175144212722016,0,1,1,-6.7175144212722016,0A6.7175144212722016,6.7175144212722016,0,1,1,6.7175144212722016,0" style="fill: #f58518; stroke-width: 2; opacity: 0.7;"></path><path transform="translate(75,71)" d="M6.7175144212722016,0A6.7175144212722016,6.7175144212722016,0,1,1,-6.7175144212722016,0A6.7175144212722016,6.7175144212722016,0,1,1,6.7175144212722016,0" style="fill: #f58518; stroke-width: 2; opacity: 0.7;"></path><path transform="translate(10,84)" d="M6.7175144212722016,0A6.7175144212722016,6.7175144212722016,0,1,1,-6.7175144212722016,0A6.7175144212722016,6.7175144212722016,0,1,1,6.7175144212722016,0" style="fill: #f58518; stroke-width: 2; opacity: 0.7;"></path><path transform="translate(25,119)" d="M6.7175144212722016,0A6.7175144212722016,6.7175144212722016,0,1,1,-6.7175144212722016,0A6.7175144212722016,6.7175144212722016,0,1,1,6.7175144212722016,0" style="fill: #4c78a8; stroke-width: 2; opacity: 0.7;"></path><path transform="translate(15,93)" d="M8.227241335952167,0A8.227241335952167,8.227241335952167,0,1,1,-8.227241335952167,0A8.227241335952167,8.227241335952167,0,1,1,8.227241335952167,0" style="fill: #4c78a8; stroke-width: 2; opacity: 0.7;"></path><path transform="translate(115,146)" d="M8.227241335952167,0A8.227241335952167,8.227241335952167,0,1,1,-8.227241335952167,0A8.227241335952167,8.227241335952167,0,1,1,8.227241335952167,0" style="fill: #f58518; stroke-width: 2; opacity: 0.7;"></path><path transform="translate(125,158)" d="M8.227241335952167,0A8.227241335952167,8.227241335952167,0,1,1,-8.227241335952167,0A8.227241335952167,8.227241335952167,0,1,1,8.227241335952167,0" style="fill: #f58518; stroke-width: 2; opacity: 0.7;"></path><path transform="translate(100,176)" d="M8.227241335952167,0A8.227241335952167,8.227241335952167,0,1,1,-8.227241335952167,0A8.227241335952167,8.227241335952167,0,1,1,8.227241335952167,0" style="fill: #e45756; stroke-width: 2; opacity: 0.7;"></path><path transform="translate(88,134)" d="M9.5,0A9.5,9.5,0,1,1,-9.5,0A9.5,9.5,0,1,1,9.5,0" style="fill: #e45756; stroke-width: 2; opacity: 0.7;"></path><path transform="translate(45,198)" d="M8.227241335952167,0A8.227241335952167,8.227241335952167,0,1,1,-8.227241335952167,0A8.227241335952167,8.227241335952167,0,1,1,8.227241335952167,0" style="fill: #e45756; stroke-width: 2; opacity: 0.7;"></path><path transform="translate(38,224)" d="M8.227241335952167,0A8.227241335952167,8.227241335952167,0,1,1,-8.227241335952167,0A8.227241335952167,8.227241335952167,0,1,1,8.227241335952167,0" style="fill: #e45756; stroke-width: 2; opacity: 0.7;"></path><path transform="translate(45,120)" d="M6.7175144212722016,0A6.7175144212722016,6.7175144212722016,0,1,1,-6.7175144212722016,0A6.7175144212722016,6.7175144212722016,0,1,1,6.7175144212722016,0" style="fill: #e45756; stroke-width: 2; opacity: 0.7;"></path><path transform="translate(45,130)" d="M6.7175144212722016,0A6.7175144212722016,6.7175144212722016,0,1,1,-6.7175144212722016,0A6.7175144212722016,6.7175144212722016,0,1,1,6.7175144212722016,0" style="fill: #e45756; stroke-width: 2; opacity: 0.7;"></path><path transform="translate(45,60)" d="M6.7175144212722016,0A6.7175144212722016,6.7175144212722016,0,1,1,-6.7175144212722016,0A6.7175144212722016,6.7175144212722016,0,1,1,6.7175144212722016,0" style="fill: #e45756; stroke-width: 2; opacity: 0.7;"></path><path transform="translate(38,90)" d="M6.7175144212722016,0A6.7175144212722016,6.7175144212722016,0,1,1,-6.7175144212722016,0A6.7175144212722016,6.7175144212722016,0,1,1,6.7175144212722016,0" style="fill: #e45756; stroke-width: 2; opacity: 0.7;"></path><path transform="translate(35,110)" d="M6.7175144212722016,0A6.7175144212722016,6.7175144212722016,0,1,1,-6.7175144212722016,0A6.7175144212722016,6.7175144212722016,0,1,1,6.7175144212722016,0" style="fill: #e45756; stroke-width: 2; opacity: 0.7;"></path><path transform="translate(50,130)" d="M6.7175144212722016,0A6.7175144212722016,6.7175144212722016,0,1,1,-6.7175144212722016,0A6.7175144212722016,6.7175144212722016,0,1,1,6.7175144212722016,0" style="fill: #e45756; stroke-width: 2; opacity: 0.7;"></path><path transform="translate(55,160)" d="M6.7175144212722016,0A6.7175144212722016,6.7175144212722016,0,1,1,-6.7175144212722016,0A6.7175144212722016,6.7175144212722016,0,1,1,6.7175144212722016,0" style="fill: #e45756; stroke-width: 2; opacity: 0.7;"></path><path transform="translate(10,40)" d="M6.7175144212722016,0A6.7175144212722016,6.7175144212722016,0,1,1,-6.7175144212722016,0A6.7175144212722016,6.7175144212722016,0,1,1,6.7175144212722016,0" style="fill: #4c78a8; stroke-width: 2; opacity: 0.7;"></path><path transform="translate(-5,30)" d="M6.7175144212722016,0A6.7175144212722016,6.7175144212722016,0,1,1,-6.7175144212722016,0A6.7175144212722016,6.7175144212722016,0,1,1,6.7175144212722016,0" style="fill: #f58518; stroke-width: 2; opacity: 0.7;"></path><path transform="translate(-5,90)" d="M6.7175144212722016,0A6.7175144212722016,6.7175144212722016,0,1,1,-6.7175144212722016,0A6.7175144212722016,6.7175144212722016,0,1,1,6.7175144212722016,0" style="fill: #f58518; stroke-width: 2; opacity: 0.7;"></path><path transform="translate(-17,20)" d="M6.7175144212722016,0A6.7175144212722016,6.7175144212722016,0,1,1,-6.7175144212722016,0A6.7175144212722016,6.7175144212722016,0,1,1,6.7175144212722016,0" style="fill: #e45756; stroke-width: 2; opacity: 0.7;"></path><path transform="translate(0,40)" d="M6.7175144212722016,0A6.7175144212722016,6.7175144212722016,0,1,1,-6.7175144212722016,0A6.7175144212722016,6.7175144212722016,0,1,1,6.7175144212722016,0" style="fill: #e45756; stroke-width: 2; opacity: 0.7;"></path><path transform="translate(45,40)" d="M6.7175144212722016,0A6.7175144212722016,6.7175144212722016,0,1,1,-6.7175144212722016,0A6.7175144212722016,6.7175144212722016,0,1,1,6.7175144212722016,0" style="fill: #f58518; stroke-width: 2; opacity: 0.7;"></path><path transform="translate(13,40)" d="M6.7175144212722016,0A6.7175144212722016,6.7175144212722016,0,1,1,-6.7175144212722016,0A6.7175144212722016,6.7175144212722016,0,1,1,6.7175144212722016,0" style="fill: #f58518; stroke-width: 2; opacity: 0.7;"></path><path transform="translate(0,60)" d="M6.7175144212722016,0A6.7175144212722016,6.7175144212722016,0,1,1,-6.7175144212722016,0A6.7175144212722016,6.7175144212722016,0,1,1,6.7175144212722016,0" style="fill: #f58518; stroke-width: 2; opacity: 0.7;"></path><path transform="translate(-7,20)" d="M6.7175144212722016,0A6.7175144212722016,6.7175144212722016,0,1,1,-6.7175144212722016,0A6.7175144212722016,6.7175144212722016,0,1,1,6.7175144212722016,0" style="fill: #f58518; stroke-width: 2; opacity: 0.7;"></path><path transform="translate(-7,80)" d="M6.7175144212722016,0A6.7175144212722016,6.7175144212722016,0,1,1,-6.7175144212722016,0A6.7175144212722016,6.7175144212722016,0,1,1,6.7175144212722016,0" style="fill: #f58518; stroke-width: 2; opacity: 0.7;"></path><path transform="translate(-7,20)" d="M6.7175144212722016,0A6.7175144212722016,6.7175144212722016,0,1,1,-6.7175144212722016,0A6.7175144212722016,6.7175144212722016,0,1,1,6.7175144212722016,0" style="fill: #f58518; stroke-width: 2; opacity: 0.7;"></path><path transform="translate(100,150)" d="M8.227241335952167,0A8.227241335952167,8.227241335952167,0,1,1,-8.227241335952167,0A8.227241335952167,8.227241335952167,0,1,1,8.227241335952167,0" style="fill: #e45756; stroke-width: 2; opacity: 0.7;"></path><path transform="translate(38,20)" d="M8.227241335952167,0A8.227241335952167,8.227241335952167,0,1,1,-8.227241335952167,0A8.227241335952167,8.227241335952167,0,1,1,8.227241335952167,0" style="fill: #e45756; stroke-width: 2; opacity: 0.7;"></path><path transform="translate(55,140)" d="M6.7175144212722016,0A6.7175144212722016,6.7175144212722016,0,1,1,-6.7175144212722016,0A6.7175144212722016,6.7175144212722016,0,1,1,6.7175144212722016,0" style="fill: #e45756; stroke-width: 2; opacity: 0.7;"></path><path transform="translate(105,180)" d="M8.227241335952167,0A8.227241335952167,8.227241335952167,0,1,1,-8.227241335952167,0A8.227241335952167,8.227241335952167,0,1,1,8.227241335952167,0" style="fill: #e45756; stroke-width: 2; opacity: 0.7;"></path><path transform="translate(65,80)" d="M6.7175144212722016,0A6.7175144212722016,6.7175144212722016,0,1,1,-6.7175144212722016,0A6.7175144212722016,6.7175144212722016,0,1,1,6.7175144212722016,0" style="fill: #f58518; stroke-width: 2; opacity: 0.7;"></path><path transform="translate(35,40)" d="M6.7175144212722016,0A6.7175144212722016,6.7175144212722016,0,1,1,-6.7175144212722016,0A6.7175144212722016,6.7175144212722016,0,1,1,6.7175144212722016,0" style="fill: #e45756; stroke-width: 2; opacity: 0.7;"></path><path transform="translate(50,130)" d="M6.7175144212722016,0A6.7175144212722016,6.7175144212722016,0,1,1,-6.7175144212722016,0A6.7175144212722016,6.7175144212722016,0,1,1,6.7175144212722016,0" style="fill: #e45756; stroke-width: 2; opacity: 0.7;"></path><path transform="translate(40,130)" d="M6.7175144212722016,0A6.7175144212722016,6.7175144212722016,0,1,1,-6.7175144212722016,0A6.7175144212722016,6.7175144212722016,0,1,1,6.7175144212722016,0" style="fill: #e45756; stroke-width: 2; opacity: 0.7;"></path><path transform="translate(-45,-40)" d="M6.7175144212722016,0A6.7175144212722016,6.7175144212722016,0,1,1,-6.7175144212722016,0A6.7175144212722016,6.7175144212722016,0,1,1,6.7175144212722016,0" style="fill: #4c78a8; stroke-width: 2; opacity: 0.7;"></path><path transform="translate(35,80)" d="M6.7175144212722016,0A6.7175144212722016,6.7175144212722016,0,1,1,-6.7175144212722016,0A6.7175144212722016,6.7175144212722016,0,1,1,6.7175144212722016,0" style="fill: #e45756; stroke-width: 2; opacity: 0.7;"></path><path transform="translate(23,120)" d="M6.7175144212722016,0A6.7175144212722016,6.7175144212722016,0,1,1,-6.7175144212722016,0A6.7175144212722016,6.7175144212722016,0,1,1,6.7175144212722016,0" style="fill: #e45756; stroke-width: 2; opacity: 0.7;"></path><path transform="translate(30,90)" d="M6.7175144212722016,0A6.7175144212722016,6.7175144212722016,0,1,1,-6.7175144212722016,0A6.7175144212722016,6.7175144212722016,0,1,1,6.7175144212722016,0" style="fill: #e45756; stroke-width: 2; opacity: 0.7;"></path></g><g class="mark-rect role-mark brush_brush" clip-path="url(#clip3)"><path d="M0,0h0v0h0Z" style="fill: transparent; stroke: white;"></path></g><g class="mark-group role-legend"><g transform="translate(218,0)"><path class="background" d="M0,0h51v56h-51Z" style="pointer-events: none; fill: none;"></path><g><g class="mark-group role-legend-entry"><g transform="translate(0,16)"><path class="background" d="M0,0h0v0h0Z" style="pointer-events: none; fill: none;"></path><g><g class="mark-symbol role-legend-symbol" style="pointer-events: none;"><path transform="translate(5,5)" d="M5,0A5,5,0,1,1,-5,0A5,5,0,1,1,5,0" style="fill: #4c78a8; stroke-width: 1.5; opacity: 1;"></path><path transform="translate(5,20)" d="M5,0A5,5,0,1,1,-5,0A5,5,0,1,1,5,0" style="fill: #f58518; stroke-width: 1.5; opacity: 1;"></path><path transform="translate(5,35)" d="M5,0A5,5,0,1,1,-5,0A5,5,0,1,1,5,0" style="fill: #e45756; stroke-width: 1.5; opacity: 1;"></path></g><g class="mark-text role-legend-label" style="pointer-events: none;"><text text-anchor="start" transform="translate(18,8)" style="font: 10px sans-serif; fill: #000; opacity: 1;">Europe</text><text text-anchor="start" transform="translate(18,23)" style="font: 10px sans-serif; fill: #000; opacity: 1;">Japan</text><text text-anchor="start" transform="translate(18,38)" style="font: 10px sans-serif; fill: #000; opacity: 1;">USA</text></g></g></g></g><g class="mark-text role-legend-title" style="pointer-events: none;"><text text-anchor="start" transform="translate(0,10)" style="font: bold 11px sans-serif; fill: #000; opacity: 1;">Origin</text></g></g></g></g><g class="mark-group role-legend"><g transform="translate(218,64)"><path class="background" d="M0,0h52v92h-52Z" style="pointer-events: none; fill: none;"></path><g><g class="mark-group role-legend-entry"><g transform="translate(0,16)"><path class="background" d="M0,0h0v0h0Z" style="pointer-events: none; fill: none;"></path><g><g class="mark-symbol role-legend-symbol" style="pointer-events: none;"><path transform="translate(9.5,5)" d="M4.75,0A4.75,4.75,0,1,1,-4.75,0A4.75,4.75,0,1,1,4.75,0" style="fill: #72b7b2; stroke: #888; stroke-width: 1.5; opacity: 1;"></path><path transform="translate(9.5,22)" d="M6.7175144212722016,0A6.7175144212722016,6.7175144212722016,0,1,1,-6.7175144212722016,0A6.7175144212722016,6.7175144212722016,0,1,1,6.7175144212722016,0" style="fill: #72b7b2; stroke: #888; stroke-width: 1.5; opacity: 1;"></path><path transform="translate(9.5,42.5)" d="M8.227241335952167,0A8.227241335952167,8.227241335952167,0,1,1,-8.227241335952167,0A8.227241335952167,8.227241335952167,0,1,1,8.227241335952167,0" style="fill: #72b7b2; stroke: #888; stroke-width: 1.5; opacity: 1;"></path><path transform="translate(9.5,65.5)" d="M9.5,0A9.5,9.5,0,1,1,-9.5,0A9.5,9.5,0,1,1,9.5,0" style="fill: #72b7b2; stroke: #888; stroke-width: 1.5; opacity: 1;"></path></g><g class="mark-text role-legend-label" style="pointer-events: none;"><text text-anchor="start" transform="translate(27,8)" style="font: 10px sans-serif; fill: #000; opacity: 1;">2</text><text text-anchor="start" transform="translate(27,25)" style="font: 10px sans-serif; fill: #000; opacity: 1;">4</text><text text-anchor="start" transform="translate(27,45.5)" style="font: 10px sans-serif; fill: #000; opacity: 1;">6</text><text text-anchor="start" transform="translate(27,68.5)" style="font: 10px sans-serif; fill: #000; opacity: 1;">8</text></g></g></g></g><g class="mark-text role-legend-title" style="pointer-events: none;"><text text-anchor="start" transform="translate(0,10)" style="font: bold 11px sans-serif; fill: #000; opacity: 1;">Cylinders</text></g></g></g></g><g class="mark-group role-axis"><g transform="translate(0.5,200.5)"><path class="background" d="M0,0h0v0h0Z" style="pointer-events: none; fill: none;"></path><g><g class="mark-rule role-axis-tick" style="pointer-events: none;"><line transform="translate(25,0)" x2="0" y2="5" style="fill: none; stroke: #888; stroke-width: 1; opacity: 1;"></line><line transform="translate(75,0)" x2="0" y2="5" style="fill: none; stroke: #888; stroke-width: 1; opacity: 1;"></line><line transform="translate(125,0)" x2="0" y2="5" style="fill: none; stroke: #888; stroke-width: 1; opacity: 1;"></line><line transform="translate(175,0)" x2="0" y2="5" style="fill: none; stroke: #888; stroke-width: 1; opacity: 1;"></line></g><g class="mark-text role-axis-label" style="pointer-events: none;"><text text-anchor="middle" transform="translate(25,16)" style="font: 10px sans-serif; fill: #000; opacity: 1;">80</text><text text-anchor="middle" transform="translate(75,16)" style="font: 10px sans-serif; fill: #000; opacity: 1;">100</text><text text-anchor="middle" transform="translate(125,16)" style="font: 10px sans-serif; fill: #000; opacity: 1;">120</text><text text-anchor="middle" transform="translate(175,16)" style="font: 10px sans-serif; fill: #000; opacity: 1;">140</text></g><g class="mark-rule role-axis-domain" style="pointer-events: none;"><line transform="translate(0,0)" x2="200" y2="0" style="fill: none; stroke: #888; stroke-width: 1; opacity: 1;"></line></g><g class="mark-text role-axis-title" style="pointer-events: none;"><text text-anchor="middle" transform="translate(100,31)" style="font: bold 11px sans-serif; fill: #000; opacity: 1;">Horsepower</text></g></g></g></g><g class="mark-group role-axis"><g transform="translate(0.5,0.5)"><path class="background" d="M0,0h0v0h0Z" style="pointer-events: none; fill: none;"></path><g><g class="mark-rule role-axis-tick" style="pointer-events: none;"><line transform="translate(0,200)" x2="-5" y2="0" style="fill: none; stroke: #888; stroke-width: 1; opacity: 1;"></line><line transform="translate(0,150)" x2="-5" y2="0" style="fill: none; stroke: #888; stroke-width: 1; opacity: 1;"></line><line transform="translate(0,100)" x2="-5" y2="0" style="fill: none; stroke: #888; stroke-width: 1; opacity: 1;"></line><line transform="translate(0,50)" x2="-5" y2="0" style="fill: none; stroke: #888; stroke-width: 1; opacity: 1;"></line><line transform="translate(0,0)" x2="-5" y2="0" style="fill: none; stroke: #888; stroke-width: 1; opacity: 1;"></line></g><g class="mark-text role-axis-label" style="pointer-events: none;"><text text-anchor="end" transform="translate(-7,203)" style="font: 10px sans-serif; fill: #000; opacity: 1;">20</text><text text-anchor="end" transform="translate(-7,153)" style="font: 10px sans-serif; fill: #000; opacity: 1;">25</text><text text-anchor="end" transform="translate(-7,103)" style="font: 10px sans-serif; fill: #000; opacity: 1;">30</text><text text-anchor="end" transform="translate(-7,53)" style="font: 10px sans-serif; fill: #000; opacity: 1;">35</text><text text-anchor="end" transform="translate(-7,3)" style="font: 10px sans-serif; fill: #000; opacity: 1;">40</text></g><g class="mark-rule role-axis-domain" style="pointer-events: none;"><line transform="translate(0,200)" x2="0" y2="-200" style="fill: none; stroke: #888; stroke-width: 1; opacity: 1;"></line></g><g class="mark-text role-axis-title" style="pointer-events: none;"><text text-anchor="middle" transform="translate(-32,100) rotate(-90) translate(0,-2)" style="font: bold 11px sans-serif; fill: #000; opacity: 1;">Miles_per_Gallon</text></g></g></g></g></g></g></g></g></svg>