<svg xmlns="http://www.w3.org/2000/svg" xmlns:xlink="http://www.w3.org/1999/xlink" version="1.1" class="marks" width="476" height="475" viewBox="0 0 476 475"><rect width="476" height="475" fill="white"/><g fill="none" stroke-miterlimit="10" transform="translate(41,15)"><g class="mark-group role-frame root" role="graphics-object" aria-roledescription="group mark container"><g transform="translate(0,0)"><path class="background" aria-hidden="true" d="M0,0h420v0h-420Z"/><g><g class="mark-group role-scope concat_0_group" role="graphics-object" aria-roledescription="group mark container"><g transform="translate(0,0)"><path class="background" aria-hidden="true" d="M0,0h420v220h-420Z"/><g><g class="mark-group role-axis" aria-hidden="true"><g transform="translate(0.5,220.5)"><path class="background" aria-hidden="true" d="M0,0h0v0h0Z" pointer-events="none"/><g><g class="mark-rule role-axis-grid" pointer-events="none"><line transform="translate(0,-220)" x2="0" y2="220" stroke="#ddd" stroke-width="1" opacity="1"/><line transform="translate(140,-220)" x2="0" y2="220" stroke="#ddd" stroke-width="1" opacity="1"/><line transform="translate(280,-220)" x2="0" y2="220" stroke="#ddd" stroke-width="1" opacity="1"/><line transform="translate(420,-220)" x2="0" y2="220" stroke="#ddd" stroke-width="1" opacity="1"/></g></g><path class="foreground" aria-hidden="true" d="" pointer-events="none" display="none"/></g></g><g class="mark-group role-axis" aria-hidden="true"><g transform="translate(0.5,0.5)"><path class="background" aria-hidden="true" d="M0,0h0v0h0Z" pointer-events="none"/><g><g class="mark-rule role-axis-grid" pointer-events="none"><line transform="translate(0,220)" x2="420" y2="0" stroke="#ddd" stroke-width="1" opacity="1"/><line transform="translate(0,193)" x2="420" y2="0" stroke="#ddd" stroke-width="1" opacity="1"/><line transform="translate(0,165)" x2="420" y2="0" stroke="#ddd" stroke-width="1" opacity="1"/><line transform="translate(0,138)" x2="420" y2="0" stroke="#ddd" stroke-width="1" opacity="1"/><line transform="translate(0,110)" x2="420" y2="0" stroke="#ddd" stroke-width="1" opacity="1"/><line transform="translate(0,83)" x2="420" y2="0" stroke="#ddd" stroke-width="1" opacity="1"/><line transform="translate(0,55)" x2="420" y2="0" stroke="#ddd" stroke-width="1" opacity="1"/><line transform="translate(0,28)" x2="420" y2="0" stroke="#ddd" stroke-width="1" opacity="1"/><line transform="translate(0,0)" x2="420" y2="0" stroke="#ddd" stroke-width="1" opacity="1"/></g></g><path class="foreground" aria-hidden="true" d="" pointer-events="none" display="none"/></g></g><g class="mark-group role-axis" role="graphics-symbol" aria-roledescription="axis" aria-label="X-axis titled 'step' for a linear scale with values from 0.0 to 3.0"><g transform="translate(0.5,220.5)"><path class="background" aria-hidden="true" d="M0,0h0v0h0Z" pointer-events="none"/><g><g class="mark-rule role-axis-tick" pointer-events="none"><line transform="translate(0,0)" x2="0" y2="5" stroke="#888" stroke-width="1" opacity="1"/><line transform="translate(140,0)" x2="0" y2="5" stroke="#888" stroke-width="1" opacity="1"/><line transform="translate(280,0)" x2="0" y2="5" stroke="#888" stroke-width="1" opacity="1"/><line transform="translate(420,0)" x2="0" y2="5" stroke="#888" stroke-width="1" opacity="1"/></g><g class="mark-text role-axis-label" pointer-events="none"><text text-anchor="start" transform="translate(0,15)" font-family="sans-serif" font-size="10px" fill="#000" opacity="1">0</text><text text-anchor="middle" transform="translate(140,15)" font-family="sans-serif" font-size="10px" fill="#000" opacity="1">1</text><text text-anchor="middle" transform="translate(280,15)" font-family="sans-serif" font-size="10px" fill="#000" opacity="1">2</text><text text-anchor="end" transform="translate(420,15)" font-family="sans-serif" font-size="10px" fill="#000" opacity="1">3</text></g><g class="mark-rule role-axis-domain" pointer-events="none"><line transform="translate(0,0)" x2="420" y2="0" stroke="#888" stroke-width="1" opacity="1"/></g><g class="mark-text role-axis-title" pointer-events="none"><text text-anchor="middle" transform="translate(210,30)" font-family="sans-serif" font-size="11px" font-weight="bold" fill="#000" opacity="1">step</text></g></g><path class="foreground" aria-hidden="true" d="" pointer-events="none" display="none"/></g></g><g class="mark-group role-axis" role="graphics-symbol" aria-roledescription="axis" aria-label="Y-axis titled 'value' for a linear scale with values from 0 to 4"><g transform="translate(0.5,0.5)"><path class="background" aria-hidden="true" d="M0,0h0v0h0Z" pointer-events="none"/><g><g class="mark-rule role-axis-tick" pointer-events="none"><line transform="translate(0,220)" x2="-5" y2="0" stroke="#888" stroke-width="1" opacity="1"/><line transform="translate(0,193)" x2="-5" y2="0" stroke="#888" stroke-width="1" opacity="1"/><line transform="translate(0,165)" x2="-5" y2="0" stroke="#888" stroke-width="1" opacity="1"/><line transform="translate(0,138)" x2="-5" y2="0" stroke="#888" stroke-width="1" opacity="1"/><line transform="translate(0,110)" x2="-5" y2="0" stroke="#888" stroke-width="1" opacity="1"/><line transform="translate(0,83)" x2="-5" y2="0" stroke="#888" stroke-width="1" opacity="1"/><line transform="translate(0,55)" x2="-5" y2="0" stroke="#888" stroke-width="1" opacity="1"/><line transform="translate(0,28)" x2="-5" y2="0" stroke="#888" stroke-width="1" opacity="1"/><line transform="translate(0,0)" x2="-5" y2="0" stroke="#888" stroke-width="1" opacity="1"/></g><g class="mark-text role-axis-label" pointer-events="none"><text text-anchor="end" transform="translate(-7,223)" font-family="sans-serif" font-size="10px" fill="#000" opacity="1">0.0</text><text text-anchor="end" transform="translate(-7,195.5)" font-family="sans-serif" font-size="10px" fill="#000" opacity="1">0.5</text><text text-anchor="end" transform="translate(-7,168)" font-family="sans-serif" font-size="10px" fill="#000" opacity="1">1.0</text><text text-anchor="end" transform="translate(-7,140.5)" font-family="sans-serif" font-size="10px" fill="#000" opacity="1">1.5</text><text text-anchor="end" transform="translate(-7,113)" font-family="sans-serif" font-size="10px" fill="#000" opacity="1">2.0</text><text text-anchor="end" transform="translate(-7,85.5)" font-family="sans-serif" font-size="10px" fill="#000" opacity="1">2.5</text><text text-anchor="end" transform="translate(-7,58)" font-family="sans-serif" font-size="10px" fill="#000" opacity="1">3.0</text><text text-anchor="end" transform="translate(-7,30.5)" font-family="sans-serif" font-size="10px" fill="#000" opacity="1">3.5</text><text text-anchor="end" transform="translate(-7,3)" font-family="sans-serif" font-size="10px" fill="#000" opacity="1">4.0</text></g><g class="mark-rule role-axis-domain" pointer-events="none"><line transform="translate(0,220)" x2="0" y2="-220" stroke="#888" stroke-width="1" opacity="1"/></g><g class="mark-text role-axis-title" pointer-events="none"><text text-anchor="middle" transform="translate(-24.9013671875,110) rotate(-90) translate(0,-2)" font-family="sans-serif" font-size="11px" font-weight="bold" fill="#000" opacity="1">value</text></g></g><path class="foreground" aria-hidden="true" d="" pointer-events="none" display="none"/></g></g><g class="mark-group role-scope concat_0_layer_0_pathgroup" role="graphics-object" aria-roledescription="group mark container"><g transform="translate(0,0)"><path class="background" aria-hidden="true" d="M0,0h420v220h-420Z"/><g><g class="mark-line role-mark concat_0_layer_0_marks" role="graphics-object" aria-roledescription="line mark container"><path aria-label="step: 0; value: 1; series: Alpha; group: North" role="graphics-symbol" aria-roledescription="line mark" d="M0,165L140,55L280,110L420,0" stroke-width="10"/></g></g><path class="foreground" aria-hidden="true" d="" display="none"/></g><g transform="translate(0,0)"><path class="background" aria-hidden="true" d="M0,0h420v220h-420Z"/><g><g class="mark-line role-mark concat_0_layer_0_marks" role="graphics-object" aria-roledescription="line mark container"><path aria-label="step: 0; value: 4; series: Beta; group: North" role="graphics-symbol" aria-roledescription="line mark" d="M0,0L140,110L280,55L420,165" stroke-width="10"/></g></g><path class="foreground" aria-hidden="true" d="" display="none"/></g><g transform="translate(0,0)"><path class="background" aria-hidden="true" d="M0,0h420v220h-420Z"/><g><g class="mark-line role-mark concat_0_layer_0_marks" role="graphics-object" aria-roledescription="line mark container"><path aria-label="step: 0; value: 2; series: Gamma; group: South" role="graphics-symbol" aria-roledescription="line mark" d="M0,110L140,165L280,0L420,55" stroke-width="10"/></g></g><path class="foreground" aria-hidden="true" d="" display="none"/></g><g transform="translate(0,0)"><path class="background" aria-hidden="true" d="M0,0h420v220h-420Z"/><g><g class="mark-line role-mark concat_0_layer_0_marks" role="graphics-object" aria-roledescription="line mark container"><path aria-label="step: 0; value: 3; series: Delta; group: South" role="graphics-symbol" aria-roledescription="line mark" d="M0,55L140,0L280,165L420,110" stroke-width="10"/></g></g><path class="foreground" aria-hidden="true" d="" display="none"/></g></g><g class="mark-group role-scope concat_0_layer_1_pathgroup" role="graphics-object" aria-roledescription="group mark container"><g transform="translate(0,0)"><path class="background" aria-hidden="true" d="M0,0h420v220h-420Z"/><g><g class="mark-line role-mark concat_0_layer_1_marks" role="graphics-object" aria-roledescription="line mark container"><path aria-label="step: 0; value: 1; group: North; series: Alpha" role="graphics-symbol" aria-roledescription="line mark" d="M0,165L140,55L280,110L420,0" stroke="#4c78a8" stroke-width="2.5" opacity="1"/></g></g><path class="foreground" aria-hidden="true" d="" display="none"/></g><g transform="translate(0,0)"><path class="background" aria-hidden="true" d="M0,0h420v220h-420Z"/><g><g class="mark-line role-mark concat_0_layer_1_marks" role="graphics-object" aria-roledescription="line mark container"><path aria-label="step: 0; value: 4; group: North; series: Beta" role="graphics-symbol" aria-roledescription="line mark" d="M0,0L140,110L280,55L420,165" stroke="#4c78a8" stroke-width="2.5" opacity="1"/></g></g><path class="foreground" aria-hidden="true" d="" display="none"/></g><g transform="translate(0,0)"><path class="background" aria-hidden="true" d="M0,0h420v220h-420Z"/><g><g class="mark-line role-mark concat_0_layer_1_marks" role="graphics-object" aria-roledescription="line mark container"><path aria-label="step: 0; value: 2; group: South; series: Gamma" role="graphics-symbol" aria-roledescription="line mark" d="M0,110L140,165L280,0L420,55" stroke="#f58518" stroke-width="2.5" opacity="1"/></g></g><path class="foreground" aria-hidden="true" d="" display="none"/></g><g transform="translate(0,0)"><path class="background" aria-hidden="true" d="M0,0h420v220h-420Z"/><g><g class="mark-line role-mark concat_0_layer_1_marks" role="graphics-object" aria-roledescription="line mark container"><path aria-label="step: 0; value: 3; group: South; series: Delta" role="graphics-symbol" aria-roledescription="line mark" d="M0,55L140,0L280,165L420,110" stroke="#f58518" stroke-width="2.5" opacity="1"/></g></g><path class="foreground" aria-hidden="true" d="" display="none"/></g></g><g class="mark-rule role-mark seg_brush_segment" clip-path="url(#clip1)" role="graphics-symbol" aria-roledescription="rule mark container"><line transform="translate(0,0)" x2="0" y2="0" stroke="#b9381c" stroke-width="3"/></g></g><path class="foreground" aria-hidden="true" d="" display="none"/></g></g><g class="mark-group role-scope concat_1_group" role="graphics-object" aria-roledescription="group mark container"><g transform="translate(0,277)"><path class="background" aria-hidden="true" d="M0,0h420v120h-420Z"/><g><g class="mark-group role-axis" aria-hidden="true"><g transform="translate(0.5,0.5)"><path class="background" aria-hidden="true" d="M0,0h0v0h0Z" pointer-events="none"/><g><g class="mark-rule role-axis-grid" pointer-events="none"><line transform="translate(0,120)" x2="420" y2="0" stroke="#ddd" stroke-width="1" opacity="1"/><line transform="translate(0,90)" x2="420" y2="0" stroke="#ddd" stroke-width="1" opacity="1"/><line transform="translate(0,60)" x2="420" y2="0" stroke="#ddd" stroke-width="1" opacity="1"/><line transform="translate(0,30)" x2="420" y2="0" stroke="#ddd" stroke-width="1" opacity="1"/><line transform="translate(0,0)" x2="420" y2="0" stroke="#ddd" stroke-width="1" opacity="1"/></g></g><path class="foreground" aria-hidden="true" d="" pointer-events="none" display="none"/></g></g><g class="mark-group role-axis" role="graphics-symbol" aria-roledescription="axis" aria-label="X-axis titled 'Selected Series' for a discrete scale with 4 values: Alpha, Beta, Delta, Gamma"><g transform="translate(0.5,120.5)"><path class="background" aria-hidden="true" d="M0,0h0v0h0Z" pointer-events="none"/><g><g class="mark-rule role-axis-tick" pointer-events="none"><line transform="translate(52,0)" x2="0" y2="5" stroke="#888" stroke-width="1" opacity="1"/><line transform="translate(157,0)" x2="0" y2="5" stroke="#888" stroke-width="1" opacity="1"/><line transform="translate(262,0)" x2="0" y2="5" stroke="#888" stroke-width="1" opacity="1"/><line transform="translate(367,0)" x2="0" y2="5" stroke="#888" stroke-width="1" opacity="1"/></g><g class="mark-text role-axis-label" pointer-events="none"><text text-anchor="end" transform="translate(52,7) rotate(270) translate(0,3)" font-family="sans-serif" font-size="10px" fill="#000" opacity="1">Alpha</text><text text-anchor="end" transform="translate(157,7) rotate(270) translate(0,3)" font-family="sans-serif" font-size="10px" fill="#000" opacity="1">Beta</text><text text-anchor="end" transform="translate(262,7) rotate(270) translate(0,3)" font-family="sans-serif" font-size="10px" fill="#000" opacity="1">Delta</text><text text-anchor="end" transform="translate(367,7) rotate(270) translate(0,3)" font-family="sans-serif" font-size="10px" fill="#000" opacity="1">Gamma</text></g><g class="mark-rule role-axis-domain" pointer-events="none"><line transform="translate(0,0)" x2="420" y2="0" stroke="#888" stroke-width="1" opacity="1"/></g><g class="mark-text role-axis-title" pointer-events="none"><text text-anchor="middle" transform="translate(210,55.5615234375)" font-family="sans-serif" font-size="11px" font-weight="bold" fill="#000" opacity="1">Selected Series</text></g></g><path class="foreground" aria-hidden="true" d="" pointer-events="none" display="none"/></g></g><g class="mark-group role-axis" role="graphics-symbol" aria-roledescription="axis" aria-label="Y-axis titled 'Peak Value' for a linear scale with values from 0 to 4"><g transform="translate(0.5,0.5)"><path class="background" aria-hidden="true" d="M0,0h0v0h0Z" pointer-events="none"/><g><g class="mark-rule role-axis-tick" pointer-events="none"><line transform="translate(0,120)" x2="-5" y2="0" stroke="#888" stroke-width="1" opacity="1"/><line transform="translate(0,90)" x2="-5" y2="0" stroke="#888" stroke-width="1" opacity="1"/><line transform="translate(0,60)" x2="-5" y2="0" stroke="#888" stroke-width="1" opacity="1"/><line transform="translate(0,30)" x2="-5" y2="0" stroke="#888" stroke-width="1" opacity="1"/><line transform="translate(0,0)" x2="-5" y2="0" stroke="#888" stroke-width="1" opacity="1"/></g><g class="mark-text role-axis-label" pointer-events="none"><text text-anchor="end" transform="translate(-7,123)" font-family="sans-serif" font-size="10px" fill="#000" opacity="1">0</text><text text-anchor="end" transform="translate(-7,93)" font-family="sans-serif" font-size="10px" fill="#000" opacity="1">1</text><text text-anchor="end" transform="translate(-7,63)" font-family="sans-serif" font-size="10px" fill="#000" opacity="1">2</text><text text-anchor="end" transform="translate(-7,33)" font-family="sans-serif" font-size="10px" fill="#000" opacity="1">3</text><text text-anchor="end" transform="translate(-7,3)" font-family="sans-serif" font-size="10px" fill="#000" opacity="1">4</text></g><g class="mark-rule role-axis-domain" pointer-events="none"><line transform="translate(0,120)" x2="0" y2="-120" stroke="#888" stroke-width="1" opacity="1"/></g><g class="mark-text role-axis-title" pointer-events="none"><text text-anchor="middle" transform="translate(-16.5615234375,60) rotate(-90) translate(0,-2)" font-family="sans-serif" font-size="11px" font-weight="bold" fill="#000" opacity="1">Peak Value</text></g></g><path class="foreground" aria-hidden="true" d="" pointer-events="none" display="none"/></g></g><g class="mark-rect role-mark concat_1_marks" role="graphics-object" aria-roledescription="rect mark container" pointer-events="none"><path aria-label="Selected Series: Alpha; Peak Value: 4; group: North" role="graphics-symbol" aria-roledescription="bar" d="M5.25,0h94.5v120h-94.5Z" fill="#4c78a8"/><path aria-label="Selected Series: Beta; Peak Value: 4; group: North" role="graphics-symbol" aria-roledescription="bar" d="M110.25,0h94.5v120h-94.5Z" fill="#4c78a8"/><path aria-label="Selected Series: Gamma; Peak Value: 4; group: South" role="graphics-symbol" aria-roledescription="bar" d="M320.25,0h94.5v120h-94.5Z" fill="#f58518"/><path aria-label="Selected Series: Delta; Peak Value: 4; group: South" role="graphics-symbol" aria-roledescription="bar" d="M215.25,0h94.5v120h-94.5Z" fill="#f58518"/></g></g><path class="foreground" aria-hidden="true" d="" display="none"/></g></g></g><path class="foreground" aria-hidden="true" d="" display="none"/></g></g></g><defs><clipPath id="clip1"><rect x="0" y="0" width="420" height="220"/></clipPath></defs></svg>