<svg xmlns="http://www.w3.org/2000/svg" xmlns:xlink="http://www.w3.org/1999/xlink" version="1.1" class="marks" width="550" height="347" viewBox="0 0 550 347"><rect width="550" height="347" fill="white"/><g fill="none" stroke-miterlimit="10" transform="translate(69,10)"><g class="mark-group role-frame root" role="graphics-object" aria-roledescription="group mark container"><g transform="translate(0,0)"><path class="background" aria-hidden="true" d="M0.5,0.5h400v300h-400Z" stroke="#ddd"/><g><g class="mark-group role-axis" aria-hidden="true"><g transform="translate(0.5,300.5)"><path class="background" aria-hidden="true" d="M0,0h0v0h0Z" pointer-events="none"/><g><g class="mark-rule role-axis-grid" pointer-events="none"><line transform="translate(0,-300)" x2="0" y2="300" stroke="#ddd" stroke-width="1" opacity="1"/><line transform="translate(33,-300)" x2="0" y2="300" stroke="#ddd" stroke-width="1" opacity="1"/><line transform="translate(67,-300)" x2="0" y2="300" stroke="#ddd" stroke-width="1" opacity="1"/><line transform="translate(100,-300)" x2="0" y2="300" stroke="#ddd" stroke-width="1" opacity="1"/><line transform="translate(133,-300)" x2="0" y2="300" stroke="#ddd" stroke-width="1" opacity="1"/><line transform="translate(167,-300)" x2="0" y2="300" stroke="#ddd" stroke-width="1" opacity="1"/><line transform="translate(200,-300)" x2="0" y2="300" stroke="#ddd" stroke-width="1" opacity="1"/><line transform="translate(233,-300)" x2="0" y2="300" stroke="#ddd" stroke-width="1" opacity="1"/><line transform="translate(267,-300)" x2="0" y2="300" stroke="#ddd" stroke-width="1" opacity="1"/><line transform="translate(300,-300)" x2="0" y2="300" stroke="#ddd" stroke-width="1" opacity="1"/><line transform="translate(333,-300)" x2="0" y2="300" stroke="#ddd" stroke-width="1" opacity="1"/><line transform="translate(367,-300)" x2="0" y2="300" stroke="#ddd" stroke-width="1" opacity="1"/><line transform="translate(400,-300)" x2="0" y2="300" stroke="#ddd" stroke-width="1" opacity="1"/></g></g><path class="foreground" aria-hidden="true" d="" pointer-events="none" display="none"/></g></g><g class="mark-group role-axis" aria-hidden="true"><g transform="translate(0.5,0.5)"><path class="background" aria-hidden="true" d="M0,0h0v0h0Z" pointer-events="none"/><g><g class="mark-rule role-axis-grid" pointer-events="none"><line transform="translate(0,300)" x2="400" y2="0" stroke="#ddd" stroke-width="1" opacity="1"/><line transform="translate(0,263)" x2="400" y2="0" stroke="#ddd" stroke-width="1" opacity="1"/><line transform="translate(0,225)" x2="400" y2="0" stroke="#ddd" stroke-width="1" opacity="1"/><line transform="translate(0,188)" x2="400" y2="0" stroke="#ddd" stroke-width="1" opacity="1"/><line transform="translate(0,150)" x2="400" y2="0" stroke="#ddd" stroke-width="1" opacity="1"/><line transform="translate(0,113)" x2="400" y2="0" stroke="#ddd" stroke-width="1" opacity="1"/><line transform="translate(0,75)" x2="400" y2="0" stroke="#ddd" stroke-width="1" opacity="1"/><line transform="translate(0,38)" x2="400" y2="0" stroke="#ddd" stroke-width="1" opacity="1"/><line transform="translate(0,0)" x2="400" y2="0" stroke="#ddd" stroke-width="1" opacity="1"/></g></g><path class="foreground" aria-hidden="true" d="" pointer-events="none" display="none"/></g></g><g class="mark-group role-axis" role="graphics-symbol" aria-roledescription="axis" aria-label="X-axis titled 'Year (year)' for a time scale with values from 1969 to 1981"><g transform="translate(0.5,300.5)"><path class="background" aria-hidden="true" d="M0,0h0v0h0Z" pointer-events="none"/><g><g class="mark-rule role-axis-tick" pointer-events="none"><line transform="translate(0,0)" x2="0" y2="5" stroke="#888" stroke-width="1" opacity="1"/><line transform="translate(33,0)" x2="0" y2="5" stroke="#888" stroke-width="1" opacity="1"/><line transform="translate(67,0)" x2="0" y2="5" stroke="#888" stroke-width="1" opacity="1"/><line transform="translate(100,0)" x2="0" y2="5" stroke="#888" stroke-width="1" opacity="1"/><line transform="translate(133,0)" x2="0" y2="5" stroke="#888" stroke-width="1" opacity="1"/><line transform="translate(167,0)" x2="0" y2="5" stroke="#888" stroke-width="1" opacity="1"/><line transform="translate(200,0)" x2="0" y2="5" stroke="#888" stroke-width="1" opacity="1"/><line transform="translate(233,0)" x2="0" y2="5" stroke="#888" stroke-width="1" opacity="1"/><line transform="translate(267,0)" x2="0" y2="5" stroke="#888" stroke-width="1" opacity="1"/><line transform="translate(300,0)" x2="0" y2="5" stroke="#888" stroke-width="1" opacity="1"/><line transform="translate(333,0)" x2="0" y2="5" stroke="#888" stroke-width="1" opacity="1"/><line transform="translate(367,0)" x2="0" y2="5" stroke="#888" stroke-width="1" opacity="1"/><line transform="translate(400,0)" x2="0" y2="5" stroke="#888" stroke-width="1" opacity="1"/></g><g class="mark-text role-axis-label" pointer-events="none"><text text-anchor="start" transform="translate(0,15)" font-family="sans-serif" font-size="10px" fill="#000" opacity="1">1969</text><text text-anchor="middle" transform="translate(33.31051791010724,15)" font-family="sans-serif" font-size="10px" fill="#000" opacity="0">1970</text><text text-anchor="middle" transform="translate(66.62103582021447,15)" font-family="sans-serif" font-size="10px" fill="#000" opacity="1">1971</text><text text-anchor="middle" transform="translate(99.9315537303217,15)" font-family="sans-serif" font-size="10px" fill="#000" opacity="0">1972</text><text text-anchor="middle" transform="translate(133.33333333333331,15)" font-family="sans-serif" font-size="10px" fill="#000" opacity="1">1973</text><text text-anchor="middle" transform="translate(166.64385124344057,15)" font-family="sans-serif" font-size="10px" fill="#000" opacity="0">1974</text><text text-anchor="middle" transform="translate(199.95436915354782,15)" font-family="sans-serif" font-size="10px" fill="#000" opacity="1">1975</text><text text-anchor="middle" transform="translate(233.264887063655,15)" font-family="sans-serif" font-size="10px" fill="#000" opacity="0">1976</text><text text-anchor="middle" transform="translate(266.66666666666663,15)" font-family="sans-serif" font-size="10px" fill="#000" opacity="1">1977</text><text text-anchor="middle" transform="translate(299.9771845767739,15)" font-family="sans-serif" font-size="10px" fill="#000" opacity="0">1978</text><text text-anchor="middle" transform="translate(333.28770248688113,15)" font-family="sans-serif" font-size="10px" fill="#000" opacity="1">1979</text><text text-anchor="middle" transform="translate(366.5982203969884,15)" font-family="sans-serif" font-size="10px" fill="#000" opacity="0">1980</text><text text-anchor="end" transform="translate(400,15)" font-family="sans-serif" font-size="10px" fill="#000" opacity="1">1981</text></g><g class="mark-rule role-axis-domain" pointer-events="none"><line transform="translate(0,0)" x2="400" y2="0" stroke="#888" stroke-width="1" opacity="1"/></g><g class="mark-text role-axis-title" pointer-events="none"><text text-anchor="middle" transform="translate(200,30)" font-family="sans-serif" font-size="11px" font-weight="bold" fill="#000" opacity="1">Year (year)</text></g></g><path class="foreground" aria-hidden="true" d="" pointer-events="none" display="none"/></g></g><g class="mark-group role-axis" role="graphics-symbol" aria-roledescription="axis" aria-label="Y-axis titled 'Sum of Weight_in_lbs' for a linear scale with values from 0 to 160,000"><g transform="translate(0.5,0.5)"><path class="background" aria-hidden="true" d="M0,0h0v0h0Z" pointer-events="none"/><g><g class="mark-rule role-axis-tick" pointer-events="none"><line transform="translate(0,300)" x2="-5" y2="0" stroke="#888" stroke-width="1" opacity="1"/><line transform="translate(0,263)" x2="-5" y2="0" stroke="#888" stroke-width="1" opacity="1"/><line transform="translate(0,225)" x2="-5" y2="0" stroke="#888" stroke-width="1" opacity="1"/><line transform="translate(0,188)" x2="-5" y2="0" stroke="#888" stroke-width="1" opacity="1"/><line transform="translate(0,150)" x2="-5" y2="0" stroke="#888" stroke-width="1" opacity="1"/><line transform="translate(0,113)" x2="-5" y2="0" stroke="#888" stroke-width="1" opacity="1"/><line transform="translate(0,75)" x2="-5" y2="0" stroke="#888" stroke-width="1" opacity="1"/><line transform="translate(0,38)" x2="-5" y2="0" stroke="#888" stroke-width="1" opacity="1"/><line transform="translate(0,0)" x2="-5" y2="0" stroke="#888" stroke-width="1" opacity="1"/></g><g class="mark-text role-axis-label" pointer-events="none"><text text-anchor="end" transform="translate(-7,303)" font-family="sans-serif" font-size="10px" fill="#000" opacity="1">0</text><text text-anchor="end" transform="translate(-7,265.5)" font-family="sans-serif" font-size="10px" fill="#000" opacity="1">20,000</text><text text-anchor="end" transform="translate(-7,228)" font-family="sans-serif" font-size="10px" fill="#000" opacity="1">40,000</text><text text-anchor="end" transform="translate(-7,190.5)" font-family="sans-serif" font-size="10px" fill="#000" opacity="1">60,000</text><text text-anchor="end" transform="translate(-7,153)" font-family="sans-serif" font-size="10px" fill="#000" opacity="1">80,000</text><text text-anchor="end" transform="translate(-7,115.5)" font-family="sans-serif" font-size="10px" fill="#000" opacity="1">100,000</text><text text-anchor="end" transform="translate(-7,78)" font-family="sans-serif" font-size="10px" fill="#000" opacity="1">120,000</text><text text-anchor="end" transform="translate(-7,40.5)" font-family="sans-serif" font-size="10px" fill="#000" opacity="1">140,000</text><text text-anchor="end" transform="translate(-7,3)" font-family="sans-serif" font-size="10px" fill="#000" opacity="1">160,000</text></g><g class="mark-rule role-axis-domain" pointer-events="none"><line transform="translate(0,300)" x2="0" y2="-300" stroke="#888" stroke-width="1" opacity="1"/></g><g class="mark-text role-axis-title" pointer-events="none"><text text-anchor="middle" transform="translate(-52.3525390625,150) rotate(-90) translate(0,-2)" font-family="sans-serif" font-size="11px" font-weight="bold" fill="#000" opacity="1">Sum of Weight_in_lbs</text></g></g><path class="foreground" aria-hidden="true" d="" pointer-events="none" display="none"/></g></g><g class="mark-group role-scope pathgroup" role="graphics-object" aria-roledescription="group mark container"><g transform="translate(0,0)"><path class="background" aria-hidden="true" d="M0,0h400v300h-400Z"/><g><g class="mark-area role-mark marks" role="graphics-object" aria-roledescription="area mark container"><path aria-label="Year (year): 1969; Sum of Weight_in_lbs: 90466; Cylinders: 8" role="graphics-symbol" aria-roledescription="area mark" d="M0,130.376C11.104,185.409,22.207,240.443,33.311,240.443C44.414,240.443,55.518,213.751,66.621,196.933C77.725,180.115,88.828,139.536,99.932,139.536C111.065,139.536,122.199,258.39,133.333,258.39C144.437,258.39,155.54,256.852,166.644,253.776C177.747,250.699,188.851,231.409,199.954,231.409C211.058,231.409,222.161,233.385,233.265,237.337C244.399,241.301,255.533,259.913,266.667,259.913C277.77,259.913,288.874,227.571,299.977,227.571C311.081,227.571,322.184,300,333.288,300C355.525,300,377.763,296.508,400,293.016L400,300C377.763,300,355.525,300,333.288,300C322.184,300,311.081,300,299.977,300C288.874,300,277.77,300,266.667,300C255.533,300,244.399,300,233.265,300C222.161,300,211.058,300,199.954,300C188.851,300,177.747,300,166.644,300C155.54,300,144.437,300,133.333,300C122.199,300,111.065,300,99.932,300C88.828,300,77.725,300,66.621,300C55.518,300,44.414,300,33.311,300C22.207,300,11.104,300,0,300Z" fill="rgb(27, 105, 173)"/></g></g><path class="foreground" aria-hidden="true" d="" display="none"/></g><g transform="translate(0,0)"><path class="background" aria-hidden="true" d="M0,0h400v300h-400Z"/><g><g class="mark-area role-mark marks" role="graphics-object" aria-roledescription="area mark container"><path aria-label="Year (year): 1969; Sum of Weight_in_lbs: 19138; Cylinders: 4" role="graphics-symbol" aria-roledescription="area mark" d="M0,74.164C11.104,106.597,22.207,139.031,33.311,139.031C44.414,139.031,55.518,137.484,66.621,134.389C77.725,131.294,88.828,47.556,99.932,47.556C111.065,47.556,122.199,154.305,133.333,154.305C144.437,154.305,155.54,129.734,166.644,121.305C177.747,112.876,188.851,103.731,199.954,103.731C211.058,103.731,222.161,147.739,233.265,147.739C244.399,147.739,255.533,106.828,266.667,106.828C277.77,106.828,288.874,122.996,299.977,133.866C311.081,144.735,322.184,172.044,333.288,172.044C355.525,172.044,377.763,93.499,400,14.953L400,235.922C377.763,259.298,355.525,282.673,333.288,282.673C322.184,282.673,311.081,191.494,299.977,186.911C288.874,182.329,277.77,180.038,266.667,180.038C255.533,180.038,244.399,205.622,233.265,205.622C222.161,205.622,211.058,168.604,199.954,168.604C188.851,168.604,177.747,171.507,166.644,177.313C155.54,183.119,144.437,214.815,133.333,214.815C122.199,214.815,111.065,95.779,99.932,95.779C88.828,95.779,77.725,196.933,66.621,196.933C55.518,196.933,44.414,195.577,33.311,192.864C22.207,190.152,11.104,150.1,0,110.047Z" fill="rgb(134, 188, 220)"/></g></g><path class="foreground" aria-hidden="true" d="" display="none"/></g><g transform="translate(0,0)"><path class="background" aria-hidden="true" d="M0,0h400v300h-400Z"/><g><g class="mark-area role-mark marks" role="graphics-object" aria-roledescription="area mark container"><path aria-label="Year (year): 1969; Sum of Weight_in_lbs: 10842; Cylinders: 6" role="graphics-symbol" aria-roledescription="area mark" d="M0,110.047C11.104,150.1,22.207,190.152,33.311,192.864C44.414,195.577,55.518,196.933,66.621,196.933C77.725,196.933,88.828,95.779,99.932,95.779C111.065,95.779,122.199,214.815,133.333,214.815C144.437,214.815,155.54,183.119,166.644,177.313C177.747,171.507,188.851,168.604,199.954,168.604C211.058,168.604,222.161,205.622,233.265,205.622C244.399,205.622,255.533,185.344,266.667,185.344C277.77,185.344,288.874,188.073,299.977,193.53C311.081,198.988,322.184,288.204,333.288,288.204C355.525,288.204,377.763,262.063,400,235.922L400,293.016C377.763,296.508,355.525,300,333.288,300C322.184,300,311.081,227.571,299.977,227.571C288.874,227.571,277.77,259.913,266.667,259.913C255.533,259.913,244.399,241.301,233.265,237.337C222.161,233.385,211.058,231.409,199.954,231.409C188.851,231.409,177.747,250.699,166.644,253.776C155.54,256.852,144.437,258.39,133.333,258.39C122.199,258.39,111.065,139.536,99.932,139.536C88.828,139.536,77.725,180.115,66.621,196.933C55.518,213.751,44.414,240.443,33.311,240.443C22.207,240.443,11.104,185.409,0,130.376Z" fill="rgb(56, 135, 192)"/></g></g><path class="foreground" aria-hidden="true" d="" display="none"/></g><g transform="translate(0,0)"><path class="background" aria-hidden="true" d="M0,0h400v300h-400Z"/><g><g class="mark-area role-mark marks" role="graphics-object" aria-roledescription="area mark container"><path aria-label="Year (year): 1969; Sum of Weight_in_lbs: 0; Cylinders: 3" role="graphics-symbol" aria-roledescription="area mark" d="M0,74.164C11.104,106.597,22.207,139.031,33.311,139.031C44.414,139.031,55.518,136.027,66.621,130.02C77.725,124.013,88.828,43.573,99.932,43.573C111.065,43.573,122.199,154.305,133.333,154.305C144.437,154.305,155.54,129.734,166.644,121.305C177.747,112.876,188.851,103.731,199.954,103.731C211.058,103.731,222.161,142.639,233.265,142.639C244.399,142.639,255.533,106.828,266.667,106.828C277.77,106.828,288.874,123.753,299.977,133.866C311.081,143.979,322.184,167.507,333.288,167.507C355.525,167.507,377.763,91.23,400,14.953L400,14.953C377.763,93.499,355.525,172.044,333.288,172.044C322.184,172.044,311.081,144.735,299.977,133.866C288.874,122.996,277.77,106.828,266.667,106.828C255.533,106.828,244.399,147.739,233.265,147.739C222.161,147.739,211.058,103.731,199.954,103.731C188.851,103.731,177.747,112.876,166.644,121.305C155.54,129.734,144.437,154.305,133.333,154.305C122.199,154.305,111.065,47.556,99.932,47.556C88.828,47.556,77.725,131.294,66.621,134.389C55.518,137.484,44.414,139.031,33.311,139.031C22.207,139.031,11.104,106.597,0,74.164Z" fill="rgb(175, 209, 231)"/></g></g><path class="foreground" aria-hidden="true" d="" display="none"/></g><g transform="translate(0,0)"><path class="background" aria-hidden="true" d="M0,0h400v300h-400Z"/><g><g class="mark-area role-mark marks" role="graphics-object" aria-roledescription="area mark container"><path aria-label="Year (year): 1969; Sum of Weight_in_lbs: 0; Cylinders: 5" role="graphics-symbol" aria-roledescription="area mark" d="M0,110.047C11.104,150.1,22.207,190.152,33.311,192.864C44.414,195.577,55.518,196.933,66.621,196.933C77.725,196.933,88.828,95.779,99.932,95.779C111.065,95.779,122.199,214.815,133.333,214.815C144.437,214.815,155.54,183.119,166.644,177.313C177.747,171.507,188.851,168.604,199.954,168.604C211.058,168.604,222.161,205.622,233.265,205.622C244.399,205.622,255.533,180.038,266.667,180.038C277.77,180.038,288.874,182.329,299.977,186.911C311.081,191.494,322.184,282.673,333.288,282.673C355.525,282.673,377.763,259.298,400,235.922L400,235.922C377.763,262.063,355.525,288.204,333.288,288.204C322.184,288.204,311.081,198.988,299.977,193.53C288.874,188.073,277.77,185.344,266.667,185.344C255.533,185.344,244.399,205.622,233.265,205.622C222.161,205.622,211.058,168.604,199.954,168.604C188.851,168.604,177.747,171.507,166.644,177.313C155.54,183.119,144.437,214.815,133.333,214.815C122.199,214.815,111.065,95.779,99.932,95.779C88.828,95.779,77.725,196.933,66.621,196.933C55.518,196.933,44.414,195.577,33.311,192.864C22.207,190.152,11.104,150.1,0,110.047Z" fill="rgb(91, 163, 207)"/></g></g><path class="foreground" aria-hidden="true" d="" display="none"/></g></g><g class="mark-group role-legend" role="graphics-symbol" aria-roledescription="legend" aria-label="Symbol legend titled 'Cylinders' for fill color with 5 values: 3, 4, 5, 6, 8"><g transform="translate(418,0)"><path class="background" aria-hidden="true" d="M0,0h58v79h-58Z" pointer-events="none"/><g><g class="mark-group role-legend-entry"><g transform="translate(0,16)"><path class="background" aria-hidden="true" d="M0,0h0v0h0Z" pointer-events="none"/><g><g class="mark-group role-scope" role="graphics-object" aria-roledescription="group mark container"><g transform="translate(0,0)"><path class="background" aria-hidden="true" d="M0,0h22.3623046875v11h-22.3623046875Z" pointer-events="none" opacity="1"/><g><g class="mark-symbol role-legend-symbol" pointer-events="none"><path transform="translate(6,6)" d="M5,0A5,5,0,1,1,-5,0A5,5,0,1,1,5,0" fill="rgb(175, 209, 231)" stroke-width="1.5" opacity="1"/></g><g class="mark-text role-legend-label" pointer-events="none"><text text-anchor="start" transform="translate(16,9)" font-family="sans-serif" font-size="10px" fill="#000" opacity="1">3</text></g></g><path class="foreground" aria-hidden="true" d="" pointer-events="none" display="none"/></g><g transform="translate(0,13)"><path class="background" aria-hidden="true" d="M0,0h22.3623046875v11h-22.3623046875Z" pointer-events="none" opacity="1"/><g><g class="mark-symbol role-legend-symbol" pointer-events="none"><path transform="translate(6,6)" d="M5,0A5,5,0,1,1,-5,0A5,5,0,1,1,5,0" fill="rgb(134, 188, 220)" stroke-width="1.5" opacity="1"/></g><g class="mark-text role-legend-label" pointer-events="none"><text text-anchor="start" transform="translate(16,9)" font-family="sans-serif" font-size="10px" fill="#000" opacity="1">4</text></g></g><path class="foreground" aria-hidden="true" d="" pointer-events="none" display="none"/></g><g transform="translate(0,26)"><path class="background" aria-hidden="true" d="M0,0h22.3623046875v11h-22.3623046875Z" pointer-events="none" opacity="1"/><g><g class="mark-symbol role-legend-symbol" pointer-events="none"><path transform="translate(6,6)" d="M5,0A5,5,0,1,1,-5,0A5,5,0,1,1,5,0" fill="rgb(91, 163, 207)" stroke-width="1.5" opacity="1"/></g><g class="mark-text role-legend-label" pointer-events="none"><text text-anchor="start" transform="translate(16,9)" font-family="sans-serif" font-size="10px" fill="#000" opacity="1">5</text></g></g><path class="foreground" aria-hidden="true" d="" pointer-events="none" display="none"/></g><g transform="translate(0,39)"><path class="background" aria-hidden="true" d="M0,0h22.3623046875v11h-22.3623046875Z" pointer-events="none" opacity="1"/><g><g class="mark-symbol role-legend-symbol" pointer-events="none"><path transform="translate(6,6)" d="M5,0A5,5,0,1,1,-5,0A5,5,0,1,1,5,0" fill="rgb(56, 135, 192)" stroke-width="1.5" opacity="1"/></g><g class="mark-text role-legend-label" pointer-events="none"><text text-anchor="start" transform="translate(16,9)" font-family="sans-serif" font-size="10px" fill="#000" opacity="1">6</text></g></g><path class="foreground" aria-hidden="true" d="" pointer-events="none" display="none"/></g><g transform="translate(0,52)"><path class="background" aria-hidden="true" d="M0,0h22.3623046875v11h-22.3623046875Z" pointer-events="none" opacity="1"/><g><g class="mark-symbol role-legend-symbol" pointer-events="none"><path transform="translate(6,6)" d="M5,0A5,5,0,1,1,-5,0A5,5,0,1,1,5,0" fill="rgb(27, 105, 173)" stroke-width="1.5" opacity="1"/></g><g class="mark-text role-legend-label" pointer-events="none"><text text-anchor="start" transform="translate(16,9)" font-family="sans-serif" font-size="10px" fill="#000" opacity="1">8</text></g></g><path class="foreground" aria-hidden="true" d="" pointer-events="none" display="none"/></g></g></g><path class="foreground" aria-hidden="true" d="" pointer-events="none" display="none"/></g></g><g class="mark-text role-legend-title" pointer-events="none"><text text-anchor="start" transform="translate(0,9)" font-family="sans-serif" font-size="11px" font-weight="bold" fill="#000" opacity="1">Cylinders</text></g></g><path class="foreground" aria-hidden="true" d="" pointer-events="none" display="none"/></g></g></g><path class="foreground" aria-hidden="true" d="" display="none"/></g></g></g></svg>