<svg class="marks" width="389" height="245" viewBox="0 0 389 245" version="1.1" xmlns="http://www.w3.org/2000/svg" xmlns:xlink="http://www.w3.org/1999/xlink"><g transform="translate(86,5)"><g class="mark-group role-frame root"><g transform="translate(0,0)"><path class="background" d="M0.5,0.5h200v200h-200Z" style="fill: none; stroke: #ddd;"></path><g><g class="mark-group role-axis"><g transform="translate(0.5,200.5)"><path class="background" d="M0,0h0v0h0Z" style="pointer-events: none; fill: none;"></path><g><g class="mark-rule role-axis-grid" style="pointer-events: none;"><line transform="translate(21,-200)" x2="0" y2="200" style="fill: none; stroke: #ddd; stroke-width: 1; opacity: 1;"></line><line transform="translate(52,-200)" x2="0" y2="200" style="fill: none; stroke: #ddd; stroke-width: 1; opacity: 1;"></line><line transform="translate(84,-200)" x2="0" y2="200" style="fill: none; stroke: #ddd; stroke-width: 1; opacity: 1;"></line><line transform="translate(116,-200)" x2="0" y2="200" style="fill: none; stroke: #ddd; stroke-width: 1; opacity: 1;"></line><line transform="translate(147,-200)" x2="0" y2="200" style="fill: none; stroke: #ddd; stroke-width: 1; opacity: 1;"></line><line transform="translate(179,-200)" x2="0" y2="200" style="fill: none; stroke: #ddd; stroke-width: 1; opacity: 1;"></line></g></g></g></g><g class="mark-group role-axis"><g transform="translate(0.5,0.5)"><path class="background" d="M0,0h0v0h0Z" style="pointer-events: none; fill: none;"></path><g><g class="mark-rule role-axis-grid" style="pointer-events: none;"><line transform="translate(0,178)" x2="200" y2="0" style="fill: none; stroke: #ddd; stroke-width: 1; opacity: 1;"></line><line transform="translate(0,122)" x2="200" y2="0" style="fill: none; stroke: #ddd; stroke-width: 1; opacity: 1;"></line><line transform="translate(0,67)" x2="200" y2="0" style="fill: none; stroke: #ddd; stroke-width: 1; opacity: 1;"></line><line transform="translate(0,11)" x2="200" y2="0" style="fill: none; stroke: #ddd; stroke-width: 1; opacity: 1;"></line></g></g></g></g><g class="mark-group role-scope pathgroup"><g transform="translate(0,0)"><path class="background" d="M0,0h200v200h-200Z" style="fill: none;"></path><g><g class="mark-area role-mark marks"><path d="M195.0000000003512,173.63888888888889C184.437219560735,175.70833333333331,173.8744391211188,177.77777777777777,163.3116586815026,177.77777777777777C158.03749334571611,177.77777777777777,152.76332800992964,134.85666666666668,147.48916267414316,134.85666666666668C142.21499733835668,134.85666666666668,136.9408320025702,154.0222222222222,131.66666666678373,154.0222222222222C126.378051562954,154.0222222222222,121.08943645912427,142.99308371385084,115.80082135529454,140.64444444444445C110.52665601950807,138.30222222222224,105.2524906837216,137.13111111111112,99.97832534793513,137.13111111111112C94.70416001214865,137.13111111111112,89.42999467636217,148.56259259259258,84.15582934057569,150.38555555555556C78.88166400478922,152.20851851851853,73.60749866900274,153.12,68.33333333321626,153.12C63.04471822938653,153.12,57.75610312555681,82.68777777777778,52.467488021727085,82.68777777777778C47.19332268594061,82.68777777777778,41.91915735015413,106.73500000000001,36.64499201436765,116.70111111111112C31.370826678581174,126.66722222222222,26.096661342794697,142.48444444444445,20.82249600700822,142.48444444444445C15.548330671221741,142.48444444444445,10.274165335435267,109.87222222222222,4.99999999964879,77.25999999999999L4.99999999964879,177.77777777777777C10.274165335435267,177.77777777777777,15.548330671221741,177.77777777777777,20.82249600700822,177.77777777777777C26.096661342794697,177.77777777777777,31.370826678581174,177.77777777777777,36.64499201436765,177.77777777777777C41.91915735015413,177.77777777777777,47.19332268594061,177.77777777777777,52.467488021727085,177.77777777777777C57.75610312555681,177.77777777777777,63.04471822938653,177.77777777777777,68.33333333321626,177.77777777777777C73.60749866900274,177.77777777777777,78.88166400478922,177.77777777777777,84.15582934057569,177.77777777777777C89.42999467636217,177.77777777777777,94.70416001214865,177.77777777777777,99.97832534793513,177.77777777777777C105.2524906837216,177.77777777777777,110.52665601950807,177.77777777777777,115.80082135529454,177.77777777777777C121.08943645912427,177.77777777777777,126.378051562954,177.77777777777777,131.66666666678373,177.77777777777777C136.9408320025702,177.77777777777777,142.21499733835668,177.77777777777777,147.48916267414316,177.77777777777777C152.76332800992964,177.77777777777777,158.03749334571611,177.77777777777777,163.3116586815026,177.77777777777777C173.8744391211188,177.77777777777777,184.437219560735,177.77777777777777,195.0000000003512,177.77777777777777Z" style="fill: rgb(13, 83, 154);"></path></g></g></g><g transform="translate(0,0)"><path class="background" d="M0,0h200v200h-200Z" style="fill: none;"></path><g><g class="mark-area role-mark marks"><path d="M195.0000000003512,8.861111111111114C184.437219560735,55.406666666666666,173.8744391211188,101.95222222222222,163.3116586815026,101.95222222222222C158.03749334571611,101.95222222222222,152.76332800992964,85.76888888888888,147.48916267414316,79.32777777777777C142.21499733835668,72.88666666666666,136.9408320025702,63.30555555555554,131.66666666678373,63.30555555555554C126.378051562954,63.30555555555554,121.08943645912427,87.5488888888889,115.80082135529454,87.5488888888889C110.52665601950807,87.5488888888889,105.2524906837216,61.47,99.97832534793513,61.47C94.70416001214865,61.47,89.42999467636217,66.88944444444442,84.15582934057569,71.88444444444443C78.88166400478922,76.87944444444443,73.60749866900274,91.44000000000001,68.33333333321626,91.44000000000001C63.04471822938653,91.44000000000001,57.75610312555681,28.181111111111107,52.467488021727085,28.181111111111107C47.19332268594061,28.181111111111107,41.91915735015413,77.80370370370372,36.64499201436765,79.63777777777779C31.370826678581174,81.47185185185185,26.096661342794697,82.38888888888889,20.82249600700822,82.38888888888889C15.548330671221741,82.38888888888889,10.274165335435267,63.16888888888889,4.99999999964879,43.94888888888889L4.99999999964879,65.21333333333331C10.274165335435267,88.94796296296295,15.548330671221741,112.6825925925926,20.82249600700822,114.29C26.096661342794697,115.89740740740741,31.370826678581174,116.70111111111112,36.64499201436765,116.70111111111112C41.91915735015413,116.70111111111112,47.19332268594061,56.75777777777776,52.467488021727085,56.75777777777776C57.75610312555681,56.75777777777776,63.04471822938653,127.29777777777778,68.33333333321626,127.29777777777778C73.60749866900274,127.29777777777778,78.88166400478922,108.51518518518519,84.15582934057569,105.07444444444445C89.42999467636217,101.63370370370372,94.70416001214865,99.91333333333334,99.97832534793513,99.91333333333334C105.2524906837216,99.91333333333334,110.52665601950807,121.85000000000001,115.80082135529454,121.85000000000001C121.08943645912427,121.85000000000001,126.378051562954,106.68888888888888,131.66666666678373,106.68888888888888C136.9408320025702,106.68888888888888,142.21499733835668,108.04666666666667,147.48916267414316,110.76222222222222C152.76332800992964,113.47777777777777,158.03749334571611,167.51,163.3116586815026,167.51C173.8744391211188,167.51,184.437219560735,153.65777777777777,195.0000000003512,139.80555555555554Z" style="fill: rgb(121, 181, 217);"></path></g></g></g><g transform="translate(0,0)"><path class="background" d="M0,0h200v200h-200Z" style="fill: none;"></path><g><g class="mark-area role-mark marks"><path d="M195.0000000003512,139.80555555555554C184.437219560735,155.29666666666665,173.8744391211188,170.78777777777776,163.3116586815026,170.78777777777776C158.03749334571611,170.78777777777776,152.76332800992964,117.9185185185185,147.48916267414316,114.68444444444444C142.21499733835668,111.45037037037038,136.9408320025702,109.83333333333334,131.66666666678373,109.83333333333334C126.378051562954,109.83333333333334,121.08943645912427,121.85000000000001,115.80082135529454,121.85000000000001C110.52665601950807,121.85000000000001,105.2524906837216,99.91333333333334,99.97832534793513,99.91333333333334C94.70416001214865,99.91333333333334,89.42999467636217,101.63370370370372,84.15582934057569,105.07444444444445C78.88166400478922,108.51518518518519,73.60749866900274,127.29777777777778,68.33333333321626,127.29777777777778C63.04471822938653,127.29777777777778,57.75610312555681,56.75777777777776,52.467488021727085,56.75777777777776C47.19332268594061,56.75777777777776,41.91915735015413,116.70111111111112,36.64499201436765,116.70111111111112C31.370826678581174,116.70111111111112,26.096661342794697,115.89740740740741,20.82249600700822,114.29C15.548330671221741,112.6825925925926,10.274165335435267,88.94796296296295,4.99999999964879,65.21333333333331L4.99999999964879,77.25999999999999C10.274165335435267,109.87222222222222,15.548330671221741,142.48444444444445,20.82249600700822,142.48444444444445C26.096661342794697,142.48444444444445,31.370826678581174,126.66722222222222,36.64499201436765,116.70111111111112C41.91915735015413,106.73500000000001,47.19332268594061,82.68777777777778,52.467488021727085,82.68777777777778C57.75610312555681,82.68777777777778,63.04471822938653,153.12,68.33333333321626,153.12C73.60749866900274,153.12,78.88166400478922,152.20851851851853,84.15582934057569,150.38555555555556C89.42999467636217,148.56259259259258,94.70416001214865,137.13111111111112,99.97832534793513,137.13111111111112C105.2524906837216,137.13111111111112,110.52665601950807,138.30222222222224,115.80082135529454,140.64444444444445C121.08943645912427,142.99308371385084,126.378051562954,154.0222222222222,131.66666666678373,154.0222222222222C136.9408320025702,154.0222222222222,142.21499733835668,134.85666666666668,147.48916267414316,134.85666666666668C152.76332800992964,134.85666666666668,158.03749334571611,177.77777777777777,163.3116586815026,177.77777777777777C173.8744391211188,177.77777777777777,184.437219560735,175.70833333333331,195.0000000003512,173.63888888888889Z" style="fill: rgb(38, 118, 182);"></path></g></g></g><g transform="translate(0,0)"><path class="background" d="M0,0h200v200h-200Z" style="fill: none;"></path><g><g class="mark-area role-mark marks"><path d="M195.0000000003512,8.861111111111114C184.437219560735,54.06222222222221,173.8744391211188,99.26333333333332,163.3116586815026,99.26333333333332C158.03749334571611,99.26333333333332,152.76332800992964,85.32074074074073,147.48916267414316,79.32777777777777C142.21499733835668,73.3348148148148,136.9408320025702,63.30555555555554,131.66666666678373,63.30555555555554C126.378051562954,63.30555555555554,121.08943645912427,84.52666666666666,115.80082135529454,84.52666666666666C110.52665601950807,84.52666666666666,105.2524906837216,61.47,99.97832534793513,61.47C94.70416001214865,61.47,89.42999467636217,66.88944444444442,84.15582934057569,71.88444444444443C78.88166400478922,76.87944444444443,73.60749866900274,91.44000000000001,68.33333333321626,91.44000000000001C63.04471822938653,91.44000000000001,57.75610312555681,25.821111111111122,52.467488021727085,25.821111111111122C47.19332268594061,25.821111111111122,41.91915735015413,73.48888888888888,36.64499201436765,77.04888888888888C31.370826678581174,80.60888888888888,26.096661342794697,82.38888888888889,20.82249600700822,82.38888888888889C15.548330671221741,82.38888888888889,10.274165335435267,63.16888888888889,4.99999999964879,43.94888888888889L4.99999999964879,43.94888888888889C10.274165335435267,63.16888888888889,15.548330671221741,82.38888888888889,20.82249600700822,82.38888888888889C26.096661342794697,82.38888888888889,31.370826678581174,81.47185185185185,36.64499201436765,79.63777777777779C41.91915735015413,77.80370370370372,47.19332268594061,28.181111111111107,52.467488021727085,28.181111111111107C57.75610312555681,28.181111111111107,63.04471822938653,91.44000000000001,68.33333333321626,91.44000000000001C73.60749866900274,91.44000000000001,78.88166400478922,76.87944444444443,84.15582934057569,71.88444444444443C89.42999467636217,66.88944444444442,94.70416001214865,61.47,99.97832534793513,61.47C105.2524906837216,61.47,110.52665601950807,87.5488888888889,115.80082135529454,87.5488888888889C121.08943645912427,87.5488888888889,126.378051562954,63.30555555555554,131.66666666678373,63.30555555555554C136.9408320025702,63.30555555555554,142.21499733835668,72.88666666666666,147.48916267414316,79.32777777777777C152.76332800992964,85.76888888888888,158.03749334571611,101.95222222222222,163.3116586815026,101.95222222222222C173.8744391211188,101.95222222222222,184.437219560735,55.406666666666666,195.0000000003512,8.861111111111114Z" style="fill: rgb(171, 207, 230);"></path></g></g></g><g transform="translate(0,0)"><path class="background" d="M0,0h200v200h-200Z" style="fill: none;"></path><g><g class="mark-area role-mark marks"><path d="M195.0000000003512,139.80555555555554C184.437219560735,153.65777777777777,173.8744391211188,167.51,163.3116586815026,167.51C158.03749334571611,167.51,152.76332800992964,113.47777777777777,147.48916267414316,110.76222222222222C142.21499733835668,108.04666666666667,136.9408320025702,106.68888888888888,131.66666666678373,106.68888888888888C126.378051562954,106.68888888888888,121.08943645912427,121.85000000000001,115.80082135529454,121.85000000000001C110.52665601950807,121.85000000000001,105.2524906837216,99.91333333333334,99.97832534793513,99.91333333333334C94.70416001214865,99.91333333333334,89.42999467636217,101.63370370370372,84.15582934057569,105.07444444444445C78.88166400478922,108.51518518518519,73.60749866900274,127.29777777777778,68.33333333321626,127.29777777777778C63.04471822938653,127.29777777777778,57.75610312555681,56.75777777777776,52.467488021727085,56.75777777777776C47.19332268594061,56.75777777777776,41.91915735015413,116.70111111111112,36.64499201436765,116.70111111111112C31.370826678581174,116.70111111111112,26.096661342794697,115.89740740740741,20.82249600700822,114.29C15.548330671221741,112.6825925925926,10.274165335435267,88.94796296296295,4.99999999964879,65.21333333333331L4.99999999964879,65.21333333333331C10.274165335435267,88.94796296296295,15.548330671221741,112.6825925925926,20.82249600700822,114.29C26.096661342794697,115.89740740740741,31.370826678581174,116.70111111111112,36.64499201436765,116.70111111111112C41.91915735015413,116.70111111111112,47.19332268594061,56.75777777777776,52.467488021727085,56.75777777777776C57.75610312555681,56.75777777777776,63.04471822938653,127.29777777777778,68.33333333321626,127.29777777777778C73.60749866900274,127.29777777777778,78.88166400478922,108.51518518518519,84.15582934057569,105.07444444444445C89.42999467636217,101.63370370370372,94.70416001214865,99.91333333333334,99.97832534793513,99.91333333333334C105.2524906837216,99.91333333333334,110.52665601950807,121.85000000000001,115.80082135529454,121.85000000000001C121.08943645912427,121.85000000000001,126.378051562954,109.83333333333334,131.66666666678373,109.83333333333334C136.9408320025702,109.83333333333334,142.21499733835668,111.45037037037038,147.48916267414316,114.68444444444444C152.76332800992964,117.9185185185185,158.03749334571611,170.78777777777776,163.3116586815026,170.78777777777776C173.8744391211188,170.78777777777776,184.437219560735,155.29666666666665,195.0000000003512,139.80555555555554Z" style="fill: rgb(75, 151, 201);"></path></g></g></g></g><g class="mark-group role-legend"><g transform="translate(218,0)"><path class="background" d="M0,0h80v84h-80Z" style="pointer-events: none; fill: none;"></path><g><g class="mark-group role-legend-entry"><g transform="translate(0,16)"><path class="background" d="M0,0h0v0h0Z" style="pointer-events: none; fill: none;"></path><g><g class="mark-group role-scope"><g transform="translate(0,0)"><path class="background" d="M0,0h25v12h-25Z" style="pointer-events: none; fill: none; opacity: 1;"></path><g><g class="mark-symbol role-legend-symbol" style="pointer-events: none;"><path transform="translate(6,6)" d="M5,0A5,5,0,1,1,-5,0A5,5,0,1,1,5,0" style="fill: rgb(171, 207, 230); stroke-width: 1.5; opacity: 1;"></path></g><g class="mark-text role-legend-label" style="pointer-events: none;"><text text-anchor="start" transform="translate(16,9)" style="font-family: sans-serif; font-size: 10px; fill: #000; opacity: 1;">3</text></g></g></g><g transform="translate(0,14)"><path class="background" d="M0,0h25v12h-25Z" style="pointer-events: none; fill: none; opacity: 1;"></path><g><g class="mark-symbol role-legend-symbol" style="pointer-events: none;"><path transform="translate(6,6)" d="M5,0A5,5,0,1,1,-5,0A5,5,0,1,1,5,0" style="fill: rgb(121, 181, 217); stroke-width: 1.5; opacity: 1;"></path></g><g class="mark-text role-legend-label" style="pointer-events: none;"><text text-anchor="start" transform="translate(16,9)" style="font-family: sans-serif; font-size: 10px; fill: #000; opacity: 1;">4</text></g></g></g><g transform="translate(0,28)"><path class="background" d="M0,0h25v12h-25Z" style="pointer-events: none; fill: none; opacity: 1;"></path><g><g class="mark-symbol role-legend-symbol" style="pointer-events: none;"><path transform="translate(6,6)" d="M5,0A5,5,0,1,1,-5,0A5,5,0,1,1,5,0" style="fill: rgb(75, 151, 201); stroke-width: 1.5; opacity: 1;"></path></g><g class="mark-text role-legend-label" style="pointer-events: none;"><text text-anchor="start" transform="translate(16,9)" style="font-family: sans-serif; font-size: 10px; fill: #000; opacity: 1;">5</text></g></g></g><g transform="translate(0,42)"><path class="background" d="M0,0h25v12h-25Z" style="pointer-events: none; fill: none; opacity: 1;"></path><g><g class="mark-symbol role-legend-symbol" style="pointer-events: none;"><path transform="translate(6,6)" d="M5,0A5,5,0,1,1,-5,0A5,5,0,1,1,5,0" style="fill: rgb(38, 118, 182); stroke-width: 1.5; opacity: 1;"></path></g><g class="mark-text role-legend-label" style="pointer-events: none;"><text text-anchor="start" transform="translate(16,9)" style="font-family: sans-serif; font-size: 10px; fill: #000; opacity: 1;">6</text></g></g></g><g transform="translate(0,56)"><path class="background" d="M0,0h25v12h-25Z" style="pointer-events: none; fill: none; opacity: 1;"></path><g><g class="mark-symbol role-legend-symbol" style="pointer-events: none;"><path transform="translate(6,6)" d="M5,0A5,5,0,1,1,-5,0A5,5,0,1,1,5,0" style="fill: rgb(13, 83, 154); stroke-width: 1.5; opacity: 1;"></path></g><g class="mark-text role-legend-label" style="pointer-events: none;"><text text-anchor="start" transform="translate(16,9)" style="font-family: sans-serif; font-size: 10px; fill: #000; opacity: 1;">8</text></g></g></g></g></g></g></g><g class="mark-text role-legend-title" style="pointer-events: none;"><text text-anchor="start" transform="translate(0,9)" style="font-family: sans-serif; font-size: 11px; font-weight: bold; fill: #000; opacity: 1;">Cylinders</text></g></g></g></g><g class="mark-group role-axis"><g transform="translate(0.5,200.5)"><path class="background" d="M0,0h0v0h0Z" style="pointer-events: none; fill: none;"></path><g><g class="mark-rule role-axis-tick" style="pointer-events: none;"><line transform="translate(21,0)" x2="0" y2="5" style="fill: none; stroke: #888; stroke-width: 1; opacity: 1;"></line><line transform="translate(52,0)" x2="0" y2="5" style="fill: none; stroke: #888; stroke-width: 1; opacity: 1;"></line><line transform="translate(84,0)" x2="0" y2="5" style="fill: none; stroke: #888; stroke-width: 1; opacity: 1;"></line><line transform="translate(116,0)" x2="0" y2="5" style="fill: none; stroke: #888; stroke-width: 1; opacity: 1;"></line><line transform="translate(147,0)" x2="0" y2="5" style="fill: none; stroke: #888; stroke-width: 1; opacity: 1;"></line><line transform="translate(179,0)" x2="0" y2="5" style="fill: none; stroke: #888; stroke-width: 1; opacity: 1;"></line></g><g class="mark-text role-axis-label" style="pointer-events: none;"><text text-anchor="middle" transform="translate(20.82249600700822,15)" style="font-family: sans-serif; font-size: 10px; fill: #000; opacity: 1;">1970</text><text text-anchor="middle" transform="translate(52.467488021727085,15)" style="font-family: sans-serif; font-size: 10px; fill: #000; opacity: 0;">1972</text><text text-anchor="middle" transform="translate(84.15582934057569,15)" style="font-family: sans-serif; font-size: 10px; fill: #000; opacity: 1;">1974</text><text text-anchor="middle" transform="translate(115.80082135529454,15)" style="font-family: sans-serif; font-size: 10px; fill: #000; opacity: 0;">1976</text><text text-anchor="middle" transform="translate(147.48916267414316,15)" style="font-family: sans-serif; font-size: 10px; fill: #000; opacity: 1;">1978</text><text text-anchor="middle" transform="translate(179.13415468886203,15)" style="font-family: sans-serif; font-size: 10px; fill: #000; opacity: 0;">1980</text></g><g class="mark-rule role-axis-domain" style="pointer-events: none;"><line transform="translate(0,0)" x2="200" y2="0" style="fill: none; stroke: #888; stroke-width: 1; opacity: 1;"></line></g><g class="mark-text role-axis-title" style="pointer-events: none;"><text text-anchor="middle" transform="translate(100,31)" style="font-family: sans-serif; font-size: 11px; font-weight: bold; fill: #000; opacity: 1;">Year (year)</text></g></g></g></g><g class="mark-group role-axis"><g transform="translate(0.5,0.5)"><path class="background" d="M0,0h0v0h0Z" style="pointer-events: none; fill: none;"></path><g><g class="mark-rule role-axis-tick" style="pointer-events: none;"><line transform="translate(0,178)" x2="-5" y2="0" style="fill: none; stroke: #888; stroke-width: 1; opacity: 1;"></line><line transform="translate(0,122)" x2="-5" y2="0" style="fill: none; stroke: #888; stroke-width: 1; opacity: 1;"></line><line transform="translate(0,67)" x2="-5" y2="0" style="fill: none; stroke: #888; stroke-width: 1; opacity: 1;"></line><line transform="translate(0,11)" x2="-5" y2="0" style="fill: none; stroke: #888; stroke-width: 1; opacity: 1;"></line></g><g class="mark-text role-axis-label" style="pointer-events: none;"><text text-anchor="end" transform="translate(-7,180.77777777777777)" style="font-family: sans-serif; font-size: 10px; fill: #000; opacity: 1;">0</text><text text-anchor="end" transform="translate(-7,125.22222222222221)" style="font-family: sans-serif; font-size: 10px; fill: #000; opacity: 1;">50,000</text><text text-anchor="end" transform="translate(-7,69.66666666666669)" style="font-family: sans-serif; font-size: 10px; fill: #000; opacity: 1;">100,000</text><text text-anchor="end" transform="translate(-7,14.111111111111114)" style="font-family: sans-serif; font-size: 10px; fill: #000; opacity: 1;">150,000</text></g><g class="mark-rule role-axis-domain" style="pointer-events: none;"><line transform="translate(0,200)" x2="0" y2="-200" style="fill: none; stroke: #888; stroke-width: 1; opacity: 1;"></line></g><g class="mark-text role-axis-title" style="pointer-events: none;"><text text-anchor="middle" transform="translate(-68,100) rotate(-90) translate(0,-2)" style="font-family: sans-serif; font-size: 11px; font-weight: bold; fill: #000; opacity: 1;">Sum of Weight_in_lbs</text></g></g></g></g></g></g></g></g></svg>