<svg xmlns="http://www.w3.org/2000/svg" xmlns:xlink="http://www.w3.org/1999/xlink" version="1.1" class="marks" width="523" height="282" viewBox="0 0 523 282"><rect width="523" height="282" fill="white"/><g fill="none" stroke-miterlimit="10" transform="translate(48,5)"><g class="mark-group role-frame root" role="graphics-object" aria-roledescription="group mark container"><g transform="translate(0,0)"><path class="background" aria-hidden="true" d="M0.5,0.5h400v240h-400Z" stroke="#ddd"/><g><g class="mark-group role-axis" aria-hidden="true"><g transform="translate(0.5,240.5)"><path class="background" aria-hidden="true" d="M0,0h0v0h0Z" pointer-events="none"/><g><g class="mark-rule role-axis-grid" pointer-events="none"><line transform="translate(0,0)" x2="0" y2="-240" stroke="#ddd" stroke-width="1" opacity="1"/><line transform="translate(31,0)" x2="0" y2="-240" stroke="#ddd" stroke-width="1" opacity="1"/><line transform="translate(62,0)" x2="0" y2="-240" stroke="#ddd" stroke-width="1" opacity="1"/><line transform="translate(92,0)" x2="0" y2="-240" stroke="#ddd" stroke-width="1" opacity="1"/><line transform="translate(123,0)" x2="0" y2="-240" stroke="#ddd" stroke-width="1" opacity="1"/><line transform="translate(154,0)" x2="0" y2="-240" stroke="#ddd" stroke-width="1" opacity="1"/><line transform="translate(185,0)" x2="0" y2="-240" stroke="#ddd" stroke-width="1" opacity="1"/><line transform="translate(215,0)" x2="0" y2="-240" stroke="#ddd" stroke-width="1" opacity="1"/><line transform="translate(246,0)" x2="0" y2="-240" stroke="#ddd" stroke-width="1" opacity="1"/><line transform="translate(277,0)" x2="0" y2="-240" stroke="#ddd" stroke-width="1" opacity="1"/><line transform="translate(308,0)" x2="0" y2="-240" stroke="#ddd" stroke-width="1" opacity="1"/><line transform="translate(338,0)" x2="0" y2="-240" stroke="#ddd" stroke-width="1" opacity="1"/><line transform="translate(369,0)" x2="0" y2="-240" stroke="#ddd" stroke-width="1" opacity="1"/><line transform="translate(400,0)" x2="0" y2="-240" stroke="#ddd" stroke-width="1" opacity="1"/></g></g><path class="foreground" aria-hidden="true" d="" pointer-events="none" display="none"/></g></g><g class="mark-group role-axis" role="graphics-symbol" aria-roledescription="axis" aria-label="X-axis titled 'Count of Records' for a linear scale with values from 0 to 130"><g transform="translate(0.5,240.5)"><path class="background" aria-hidden="true" d="M0,0h0v0h0Z" pointer-events="none"/><g><g class="mark-rule role-axis-tick" pointer-events="none"><line transform="translate(0,0)" x2="0" y2="5" stroke="#888" stroke-width="1" opacity="1"/><line transform="translate(31,0)" x2="0" y2="5" stroke="#888" stroke-width="1" opacity="1"/><line transform="translate(62,0)" x2="0" y2="5" stroke="#888" stroke-width="1" opacity="1"/><line transform="translate(92,0)" x2="0" y2="5" stroke="#888" stroke-width="1" opacity="1"/><line transform="translate(123,0)" x2="0" y2="5" stroke="#888" stroke-width="1" opacity="1"/><line transform="translate(154,0)" x2="0" y2="5" stroke="#888" stroke-width="1" opacity="1"/><line transform="translate(185,0)" x2="0" y2="5" stroke="#888" stroke-width="1" opacity="1"/><line transform="translate(215,0)" x2="0" y2="5" stroke="#888" stroke-width="1" opacity="1"/><line transform="translate(246,0)" x2="0" y2="5" stroke="#888" stroke-width="1" opacity="1"/><line transform="translate(277,0)" x2="0" y2="5" stroke="#888" stroke-width="1" opacity="1"/><line transform="translate(308,0)" x2="0" y2="5" stroke="#888" stroke-width="1" opacity="1"/><line transform="translate(338,0)" x2="0" y2="5" stroke="#888" stroke-width="1" opacity="1"/><line transform="translate(369,0)" x2="0" y2="5" stroke="#888" stroke-width="1" opacity="1"/><line transform="translate(400,0)" x2="0" y2="5" stroke="#888" stroke-width="1" opacity="1"/></g><g class="mark-text role-axis-label" pointer-events="none"><text text-anchor="start" transform="translate(0,15)" font-family="sans-serif" font-size="10px" fill="#000" opacity="1">0</text><text text-anchor="middle" transform="translate(30.76923076923077,15)" font-family="sans-serif" font-size="10px" fill="#000" opacity="1">10</text><text text-anchor="middle" transform="translate(61.53846153846154,15)" font-family="sans-serif" font-size="10px" fill="#000" opacity="1">20</text><text text-anchor="middle" transform="translate(92.3076923076923,15)" font-family="sans-serif" font-size="10px" fill="#000" opacity="1">30</text><text text-anchor="middle" transform="translate(123.07692307692308,15)" font-family="sans-serif" font-size="10px" fill="#000" opacity="1">40</text><text text-anchor="middle" transform="translate(153.84615384615387,15)" font-family="sans-serif" font-size="10px" fill="#000" opacity="1">50</text><text text-anchor="middle" transform="translate(184.6153846153846,15)" font-family="sans-serif" font-size="10px" fill="#000" opacity="1">60</text><text text-anchor="middle" transform="translate(215.3846153846154,15)" font-family="sans-serif" font-size="10px" fill="#000" opacity="1">70</text><text text-anchor="middle" transform="translate(246.15384615384616,15)" font-family="sans-serif" font-size="10px" fill="#000" opacity="1">80</text><text text-anchor="middle" transform="translate(276.9230769230769,15)" font-family="sans-serif" font-size="10px" fill="#000" opacity="1">90</text><text text-anchor="middle" transform="translate(307.69230769230774,15)" font-family="sans-serif" font-size="10px" fill="#000" opacity="1">100</text><text text-anchor="middle" transform="translate(338.46153846153845,15)" font-family="sans-serif" font-size="10px" fill="#000" opacity="1">110</text><text text-anchor="middle" transform="translate(369.2307692307692,15)" font-family="sans-serif" font-size="10px" fill="#000" opacity="1">120</text><text text-anchor="end" transform="translate(400,15)" font-family="sans-serif" font-size="10px" fill="#000" opacity="1">130</text></g><g class="mark-rule role-axis-domain" pointer-events="none"><line transform="translate(0,0)" x2="400" y2="0" stroke="#888" stroke-width="1" opacity="1"/></g><g class="mark-text role-axis-title" pointer-events="none"><text text-anchor="middle" transform="translate(200,30)" font-family="sans-serif" font-size="11px" font-weight="bold" fill="#000" opacity="1">Count of Records</text></g></g><path class="foreground" aria-hidden="true" d="" pointer-events="none" display="none"/></g></g><g class="mark-group role-axis" role="graphics-symbol" aria-roledescription="axis" aria-label="Y-axis titled 'date (month)' for a discrete scale with 12 values: January, February, March, April, May, ending with December"><g transform="translate(0.5,0.5)"><path class="background" aria-hidden="true" d="M0,0h0v0h0Z" pointer-events="none"/><g><g class="mark-rule role-axis-tick" pointer-events="none"><line transform="translate(0,10)" x2="-5" y2="0" stroke="#888" stroke-width="1" opacity="1"/><line transform="translate(0,30)" x2="-5" y2="0" stroke="#888" stroke-width="1" opacity="1"/><line transform="translate(0,50)" x2="-5" y2="0" stroke="#888" stroke-width="1" opacity="1"/><line transform="translate(0,70)" x2="-5" y2="0" stroke="#888" stroke-width="1" opacity="1"/><line transform="translate(0,90)" x2="-5" y2="0" stroke="#888" stroke-width="1" opacity="1"/><line transform="translate(0,110)" x2="-5" y2="0" stroke="#888" stroke-width="1" opacity="1"/><line transform="translate(0,130)" x2="-5" y2="0" stroke="#888" stroke-width="1" opacity="1"/><line transform="translate(0,150)" x2="-5" y2="0" stroke="#888" stroke-width="1" opacity="1"/><line transform="translate(0,170)" x2="-5" y2="0" stroke="#888" stroke-width="1" opacity="1"/><line transform="translate(0,190)" x2="-5" y2="0" stroke="#888" stroke-width="1" opacity="1"/><line transform="translate(0,210)" x2="-5" y2="0" stroke="#888" stroke-width="1" opacity="1"/><line transform="translate(0,230)" x2="-5" y2="0" stroke="#888" stroke-width="1" opacity="1"/></g><g class="mark-text role-axis-label" pointer-events="none"><text text-anchor="end" transform="translate(-7,12.5)" font-family="sans-serif" font-size="10px" fill="#000" opacity="1">Jan</text><text text-anchor="end" transform="translate(-7,32.5)" font-family="sans-serif" font-size="10px" fill="#000" opacity="1">Feb</text><text text-anchor="end" transform="translate(-7,52.5)" font-family="sans-serif" font-size="10px" fill="#000" opacity="1">Mar</text><text text-anchor="end" transform="translate(-7,72.5)" font-family="sans-serif" font-size="10px" fill="#000" opacity="1">Apr</text><text text-anchor="end" transform="translate(-7,92.5)" font-family="sans-serif" font-size="10px" fill="#000" opacity="1">May</text><text text-anchor="end" transform="translate(-7,112.5)" font-family="sans-serif" font-size="10px" fill="#000" opacity="1">Jun</text><text text-anchor="end" transform="translate(-7,132.5)" font-family="sans-serif" font-size="10px" fill="#000" opacity="1">Jul</text><text text-anchor="end" transform="translate(-7,152.5)" font-family="sans-serif" font-size="10px" fill="#000" opacity="1">Aug</text><text text-anchor="end" transform="translate(-7,172.5)" font-family="sans-serif" font-size="10px" fill="#000" opacity="1">Sep</text><text text-anchor="end" transform="translate(-7,192.5)" font-family="sans-serif" font-size="10px" fill="#000" opacity="1">Oct</text><text text-anchor="end" transform="translate(-7,212.5)" font-family="sans-serif" font-size="10px" fill="#000" opacity="1">Nov</text><text text-anchor="end" transform="translate(-7,232.5)" font-family="sans-serif" font-size="10px" fill="#000" opacity="1">Dec</text></g><g class="mark-rule role-axis-domain" pointer-events="none"><line transform="translate(0,0)" x2="0" y2="240" stroke="#888" stroke-width="1" opacity="1"/></g><g class="mark-text role-axis-title" pointer-events="none"><text text-anchor="middle" transform="translate(-31.673828125,120) rotate(-90) translate(0,-2)" font-family="sans-serif" font-size="11px" font-weight="bold" fill="#000" opacity="1">date (month)</text></g></g><path class="foreground" aria-hidden="true" d="" pointer-events="none" display="none"/></g></g><g class="mark-group role-scope" role="graphics-object" aria-roledescription="group mark container"><g transform="translate(0,221)"><path class="background" aria-hidden="true" d="M0,0L373.53846153846155,0C377.95378173441355,0,381.53846153846155,3.584679804048,381.53846153846155,8L381.53846153846155,10C381.53846153846155,14.415320195951999,377.95378173441355,18,373.53846153846155,18L0,18C0,18,0,18,0,18L0,0C0,0,0,0,0,0Z"/><g clip-path="url(#clip1)"><g class="mark-group role-scope" role="graphics-object" aria-roledescription="group mark container"><g transform="translate(0,0)"><path class="background" aria-hidden="true" d="M0,0h0v18h0Z"/><g><g class="mark-rect role-mark marks" role="graphics-object" aria-roledescription="rect mark container"><path aria-label="Count of Records: 3; date (month): Dec; weather: drizzle" role="graphics-symbol" aria-roledescription="bar" d="M0,0h9.230769230769232v18h-9.230769230769232Z" fill="#4c78a8"/><path aria-label="Count of Records: 73; date (month): Dec; weather: rain" role="graphics-symbol" aria-roledescription="bar" d="M33.84615384615385,0h224.6153846153846v18h-224.6153846153846Z" fill="#e45756"/><path aria-label="Count of Records: 34; date (month): Dec; weather: sun" role="graphics-symbol" aria-roledescription="bar" d="M276.9230769230769,0h104.61538461538464v18h-104.61538461538464Z" fill="#54a24b"/><path aria-label="Count of Records: 6; date (month): Dec; weather: snow" role="graphics-symbol" aria-roledescription="bar" d="M258.46153846153845,0h18.461538461538453v18h-18.461538461538453Z" fill="#72b7b2"/><path aria-label="Count of Records: 8; date (month): Dec; weather: fog" role="graphics-symbol" aria-roledescription="bar" d="M9.230769230769232,0h24.615384615384613v18h-24.615384615384613Z" fill="#f58518"/></g></g><path class="foreground" aria-hidden="true" d="" display="none"/></g></g></g><path class="foreground" aria-hidden="true" d="" display="none"/></g><g transform="translate(0,1)"><path class="background" aria-hidden="true" d="M0,0L373.53846153846155,0C377.95378173441355,0,381.53846153846155,3.584679804048,381.53846153846155,8L381.53846153846155,10C381.53846153846155,14.415320195951999,377.95378173441355,18,373.53846153846155,18L0,18C0,18,0,18,0,18L0,0C0,0,0,0,0,0Z"/><g clip-path="url(#clip2)"><g class="mark-group role-scope" role="graphics-object" aria-roledescription="group mark container"><g transform="translate(0,0)"><path class="background" aria-hidden="true" d="M0,0h0v18h0Z"/><g><g class="mark-rect role-mark marks" role="graphics-object" aria-roledescription="rect mark container"><path aria-label="Count of Records: 65; date (month): Jan; weather: rain" role="graphics-symbol" aria-roledescription="bar" d="M80,0h200v18h-200Z" fill="#e45756"/><path aria-label="Count of Records: 25; date (month): Jan; weather: sun" role="graphics-symbol" aria-roledescription="bar" d="M304.6153846153846,0h76.92307692307696v18h-76.92307692307696Z" fill="#54a24b"/><path aria-label="Count of Records: 8; date (month): Jan; weather: snow" role="graphics-symbol" aria-roledescription="bar" d="M280,0h24.615384615384585v18h-24.615384615384585Z" fill="#72b7b2"/><path aria-label="Count of Records: 9; date (month): Jan; weather: drizzle" role="graphics-symbol" aria-roledescription="bar" d="M0,0h27.692307692307693v18h-27.692307692307693Z" fill="#4c78a8"/><path aria-label="Count of Records: 17; date (month): Jan; weather: fog" role="graphics-symbol" aria-roledescription="bar" d="M27.692307692307693,0h52.30769230769231v18h-52.30769230769231Z" fill="#f58518"/></g></g><path class="foreground" aria-hidden="true" d="" display="none"/></g></g></g><path class="foreground" aria-hidden="true" d="" display="none"/></g><g transform="translate(0,21)"><path class="background" aria-hidden="true" d="M0,0L339.6923076923077,0C344.1076278882597,0,347.6923076923077,3.584679804048,347.6923076923077,8L347.6923076923077,10C347.6923076923077,14.415320195951999,344.1076278882597,18,339.6923076923077,18L0,18C0,18,0,18,0,18L0,0C0,0,0,0,0,0Z"/><g clip-path="url(#clip3)"><g class="mark-group role-scope" role="graphics-object" aria-roledescription="group mark container"><g transform="translate(0,0)"><path class="background" aria-hidden="true" d="M0,0h0v18h0Z"/><g><g class="mark-rect role-mark marks" role="graphics-object" aria-roledescription="rect mark container"><path aria-label="Count of Records: 29; date (month): Feb; weather: sun" role="graphics-symbol" aria-roledescription="bar" d="M258.46153846153845,0h89.23076923076923v18h-89.23076923076923Z" fill="#54a24b"/><path aria-label="Count of Records: 73; date (month): Feb; weather: rain" role="graphics-symbol" aria-roledescription="bar" d="M21.53846153846154,0h224.6153846153846v18h-224.6153846153846Z" fill="#e45756"/><path aria-label="Count of Records: 4; date (month): Feb; weather: drizzle" role="graphics-symbol" aria-roledescription="bar" d="M0,0h12.307692307692308v18h-12.307692307692308Z" fill="#4c78a8"/><path aria-label="Count of Records: 4; date (month): Feb; weather: snow" role="graphics-symbol" aria-roledescription="bar" d="M246.15384615384616,0h12.307692307692292v18h-12.307692307692292Z" fill="#72b7b2"/><path aria-label="Count of Records: 3; date (month): Feb; weather: fog" role="graphics-symbol" aria-roledescription="bar" d="M12.307692307692308,0h9.230769230769232v18h-9.230769230769232Z" fill="#f58518"/></g></g><path class="foreground" aria-hidden="true" d="" display="none"/></g></g></g><path class="foreground" aria-hidden="true" d="" display="none"/></g><g transform="translate(0,41)"><path class="background" aria-hidden="true" d="M0,0L373.53846153846155,0C377.95378173441355,0,381.53846153846155,3.584679804048,381.53846153846155,8L381.53846153846155,10C381.53846153846155,14.415320195951999,377.95378173441355,18,373.53846153846155,18L0,18C0,18,0,18,0,18L0,0C0,0,0,0,0,0Z"/><g clip-path="url(#clip4)"><g class="mark-group role-scope" role="graphics-object" aria-roledescription="group mark container"><g transform="translate(0,0)"><path class="background" aria-hidden="true" d="M0,0h0v18h0Z"/><g><g class="mark-rect role-mark marks" role="graphics-object" aria-roledescription="rect mark container"><path aria-label="Count of Records: 73; date (month): Mar; weather: rain" role="graphics-symbol" aria-roledescription="bar" d="M27.692307692307693,0h224.61538461538458v18h-224.61538461538458Z" fill="#e45756"/><path aria-label="Count of Records: 36; date (month): Mar; weather: sun" role="graphics-symbol" aria-roledescription="bar" d="M270.7692307692308,0h110.76923076923077v18h-110.76923076923077Z" fill="#54a24b"/><path aria-label="Count of Records: 6; date (month): Mar; weather: snow" role="graphics-symbol" aria-roledescription="bar" d="M252.3076923076923,0h18.46153846153848v18h-18.46153846153848Z" fill="#72b7b2"/><path aria-label="Count of Records: 3; date (month): Mar; weather: drizzle" role="graphics-symbol" aria-roledescription="bar" d="M0,0h9.230769230769232v18h-9.230769230769232Z" fill="#4c78a8"/><path aria-label="Count of Records: 6; date (month): Mar; weather: fog" role="graphics-symbol" aria-roledescription="bar" d="M9.230769230769232,0h18.46153846153846v18h-18.46153846153846Z" fill="#f58518"/></g></g><path class="foreground" aria-hidden="true" d="" display="none"/></g></g></g><path class="foreground" aria-hidden="true" d="" display="none"/></g><g transform="translate(0,61)"><path class="background" aria-hidden="true" d="M0,0L361.2307692307692,0C365.64608942672123,0,369.2307692307692,3.584679804048,369.2307692307692,8L369.2307692307692,10C369.2307692307692,14.415320195951999,365.64608942672123,18,361.2307692307692,18L0,18C0,18,0,18,0,18L0,0C0,0,0,0,0,0Z"/><g clip-path="url(#clip5)"><g class="mark-group role-scope" role="graphics-object" aria-roledescription="group mark container"><g transform="translate(0,0)"><path class="background" aria-hidden="true" d="M0,0h0v18h0Z"/><g><g class="mark-rect role-mark marks" role="graphics-object" aria-roledescription="rect mark container"><path aria-label="Count of Records: 53; date (month): Apr; weather: sun" role="graphics-symbol" aria-roledescription="bar" d="M206.15384615384613,0h163.0769230769231v18h-163.0769230769231Z" fill="#54a24b"/><path aria-label="Count of Records: 60; date (month): Apr; weather: rain" role="graphics-symbol" aria-roledescription="bar" d="M18.461538461538463,0h184.6153846153846v18h-184.6153846153846Z" fill="#e45756"/><path aria-label="Count of Records: 1; date (month): Apr; weather: snow" role="graphics-symbol" aria-roledescription="bar" d="M203.07692307692307,0h3.076923076923066v18h-3.076923076923066Z" fill="#72b7b2"/><path aria-label="Count of Records: 3; date (month): Apr; weather: drizzle" role="graphics-symbol" aria-roledescription="bar" d="M0,0h9.230769230769232v18h-9.230769230769232Z" fill="#4c78a8"/><path aria-label="Count of Records: 3; date (month): Apr; weather: fog" role="graphics-symbol" aria-roledescription="bar" d="M9.230769230769232,0h9.230769230769232v18h-9.230769230769232Z" fill="#f58518"/></g></g><path class="foreground" aria-hidden="true" d="" display="none"/></g></g></g><path class="foreground" aria-hidden="true" d="" display="none"/></g><g transform="translate(0,81)"><path class="background" aria-hidden="true" d="M0,0L373.53846153846155,0C377.95378173441355,0,381.53846153846155,3.584679804048,381.53846153846155,8L381.53846153846155,10C381.53846153846155,14.415320195951999,377.95378173441355,18,373.53846153846155,18L0,18C0,18,0,18,0,18L0,0C0,0,0,0,0,0Z"/><g clip-path="url(#clip6)"><g class="mark-group role-scope" role="graphics-object" aria-roledescription="group mark container"><g transform="translate(0,0)"><path class="background" aria-hidden="true" d="M0,0h0v18h0Z"/><g><g class="mark-rect role-mark marks" role="graphics-object" aria-roledescription="rect mark container"><path aria-label="Count of Records: 41; date (month): May; weather: rain" role="graphics-symbol" aria-roledescription="bar" d="M18.461538461538463,0h126.15384615384615v18h-126.15384615384615Z" fill="#e45756"/><path aria-label="Count of Records: 77; date (month): May; weather: sun" role="graphics-symbol" aria-roledescription="bar" d="M144.6153846153846,0h236.92307692307693v18h-236.92307692307693Z" fill="#54a24b"/><path aria-label="Count of Records: 1; date (month): May; weather: drizzle" role="graphics-symbol" aria-roledescription="bar" d="M0,0h3.076923076923077v18h-3.076923076923077Z" fill="#4c78a8"/><path aria-label="Count of Records: 5; date (month): May; weather: fog" role="graphics-symbol" aria-roledescription="bar" d="M3.076923076923077,0h15.384615384615387v18h-15.384615384615387Z" fill="#f58518"/></g></g><path class="foreground" aria-hidden="true" d="" display="none"/></g></g></g><path class="foreground" aria-hidden="true" d="" display="none"/></g><g transform="translate(0,101)"><path class="background" aria-hidden="true" d="M0,0L361.2307692307692,0C365.64608942672123,0,369.2307692307692,3.584679804048,369.2307692307692,8L369.2307692307692,10C369.2307692307692,14.415320195951999,365.64608942672123,18,361.2307692307692,18L0,18C0,18,0,18,0,18L0,0C0,0,0,0,0,0Z"/><g clip-path="url(#clip7)"><g class="mark-group role-scope" role="graphics-object" aria-roledescription="group mark container"><g transform="translate(0,0)"><path class="background" aria-hidden="true" d="M0,0h0v18h0Z"/><g><g class="mark-rect role-mark marks" role="graphics-object" aria-roledescription="rect mark container"><path aria-label="Count of Records: 41; date (month): Jun; weather: rain" role="graphics-symbol" aria-roledescription="bar" d="M9.230769230769232,0h126.15384615384616v18h-126.15384615384616Z" fill="#e45756"/><path aria-label="Count of Records: 76; date (month): Jun; weather: sun" role="graphics-symbol" aria-roledescription="bar" d="M135.3846153846154,0h233.84615384615384v18h-233.84615384615384Z" fill="#54a24b"/><path aria-label="Count of Records: 2; date (month): Jun; weather: drizzle" role="graphics-symbol" aria-roledescription="bar" d="M0,0h6.153846153846154v18h-6.153846153846154Z" fill="#4c78a8"/><path aria-label="Count of Records: 1; date (month): Jun; weather: fog" role="graphics-symbol" aria-roledescription="bar" d="M6.153846153846154,0h3.0769230769230775v18h-3.0769230769230775Z" fill="#f58518"/></g></g><path class="foreground" aria-hidden="true" d="" display="none"/></g></g></g><path class="foreground" aria-hidden="true" d="" display="none"/></g><g transform="translate(0,121)"><path class="background" aria-hidden="true" d="M0,0L373.53846153846155,0C377.95378173441355,0,381.53846153846155,3.584679804048,381.53846153846155,8L381.53846153846155,10C381.53846153846155,14.415320195951999,377.95378173441355,18,373.53846153846155,18L0,18C0,18,0,18,0,18L0,0C0,0,0,0,0,0Z"/><g clip-path="url(#clip8)"><g class="mark-group role-scope" role="graphics-object" aria-roledescription="group mark container"><g transform="translate(0,0)"><path class="background" aria-hidden="true" d="M0,0h0v18h0Z"/><g><g class="mark-rect role-mark marks" role="graphics-object" aria-roledescription="rect mark container"><path aria-label="Count of Records: 15; date (month): Jul; weather: rain" role="graphics-symbol" aria-roledescription="bar" d="M58.46153846153847,0h46.15384615384616v18h-46.15384615384616Z" fill="#e45756"/><path aria-label="Count of Records: 90; date (month): Jul; weather: sun" role="graphics-symbol" aria-roledescription="bar" d="M104.61538461538463,0h276.9230769230769v18h-276.9230769230769Z" fill="#54a24b"/><path aria-label="Count of Records: 9; date (month): Jul; weather: drizzle" role="graphics-symbol" aria-roledescription="bar" d="M0,0h27.692307692307693v18h-27.692307692307693Z" fill="#4c78a8"/><path aria-label="Count of Records: 10; date (month): Jul; weather: fog" role="graphics-symbol" aria-roledescription="bar" d="M27.692307692307693,0h30.769230769230774v18h-30.769230769230774Z" fill="#f58518"/></g></g><path class="foreground" aria-hidden="true" d="" display="none"/></g></g></g><path class="foreground" aria-hidden="true" d="" display="none"/></g><g transform="translate(0,141)"><path class="background" aria-hidden="true" d="M0,0L373.53846153846155,0C377.95378173441355,0,381.53846153846155,3.584679804048,381.53846153846155,8L381.53846153846155,10C381.53846153846155,14.415320195951999,377.95378173441355,18,373.53846153846155,18L0,18C0,18,0,18,0,18L0,0C0,0,0,0,0,0Z"/><g clip-path="url(#clip9)"><g class="mark-group role-scope" role="graphics-object" aria-roledescription="group mark container"><g transform="translate(0,0)"><path class="background" aria-hidden="true" d="M0,0h0v18h0Z"/><g><g class="mark-rect role-mark marks" role="graphics-object" aria-roledescription="rect mark container"><path aria-label="Count of Records: 86; date (month): Aug; weather: sun" role="graphics-symbol" aria-roledescription="bar" d="M116.92307692307693,0h264.61538461538464v18h-264.61538461538464Z" fill="#54a24b"/><path aria-label="Count of Records: 25; date (month): Aug; weather: rain" role="graphics-symbol" aria-roledescription="bar" d="M40,0h76.92307692307693v18h-76.92307692307693Z" fill="#e45756"/><path aria-label="Count of Records: 7; date (month): Aug; weather: drizzle" role="graphics-symbol" aria-roledescription="bar" d="M0,0h21.53846153846154v18h-21.53846153846154Z" fill="#4c78a8"/><path aria-label="Count of Records: 6; date (month): Aug; weather: fog" role="graphics-symbol" aria-roledescription="bar" d="M21.53846153846154,0h18.46153846153846v18h-18.46153846153846Z" fill="#f58518"/></g></g><path class="foreground" aria-hidden="true" d="" display="none"/></g></g></g><path class="foreground" aria-hidden="true" d="" display="none"/></g><g transform="translate(0,161)"><path class="background" aria-hidden="true" d="M0,0L361.2307692307692,0C365.64608942672123,0,369.2307692307692,3.584679804048,369.2307692307692,8L369.2307692307692,10C369.2307692307692,14.415320195951999,365.64608942672123,18,361.2307692307692,18L0,18C0,18,0,18,0,18L0,0C0,0,0,0,0,0Z"/><g clip-path="url(#clip10)"><g class="mark-group role-scope" role="graphics-object" aria-roledescription="group mark container"><g transform="translate(0,0)"><path class="background" aria-hidden="true" d="M0,0h0v18h0Z"/><g><g class="mark-rect role-mark marks" role="graphics-object" aria-roledescription="rect mark container"><path aria-label="Count of Records: 64; date (month): Sep; weather: sun" role="graphics-symbol" aria-roledescription="bar" d="M172.30769230769232,0h196.9230769230769v18h-196.9230769230769Z" fill="#54a24b"/><path aria-label="Count of Records: 36; date (month): Sep; weather: rain" role="graphics-symbol" aria-roledescription="bar" d="M61.53846153846154,0h110.76923076923077v18h-110.76923076923077Z" fill="#e45756"/><path aria-label="Count of Records: 15; date (month): Sep; weather: fog" role="graphics-symbol" aria-roledescription="bar" d="M15.384615384615385,0h46.15384615384615v18h-46.15384615384615Z" fill="#f58518"/><path aria-label="Count of Records: 5; date (month): Sep; weather: drizzle" role="graphics-symbol" aria-roledescription="bar" d="M0,0h15.384615384615385v18h-15.384615384615385Z" fill="#4c78a8"/></g></g><path class="foreground" aria-hidden="true" d="" display="none"/></g></g></g><path class="foreground" aria-hidden="true" d="" display="none"/></g><g transform="translate(0,181)"><path class="background" aria-hidden="true" d="M0,0L373.53846153846155,0C377.95378173441355,0,381.53846153846155,3.584679804048,381.53846153846155,8L381.53846153846155,10C381.53846153846155,14.415320195951999,377.95378173441355,18,373.53846153846155,18L0,18C0,18,0,18,0,18L0,0C0,0,0,0,0,0Z"/><g clip-path="url(#clip11)"><g class="mark-group role-scope" role="graphics-object" aria-roledescription="group mark container"><g transform="translate(0,0)"><path class="background" aria-hidden="true" d="M0,0h0v18h0Z"/><g><g class="mark-rect role-mark marks" role="graphics-object" aria-roledescription="rect mark container"><path aria-label="Count of Records: 37; date (month): Oct; weather: sun" role="graphics-symbol" aria-roledescription="bar" d="M267.6923076923077,0h113.84615384615387v18h-113.84615384615387Z" fill="#54a24b"/><path aria-label="Count of Records: 4; date (month): Oct; weather: drizzle" role="graphics-symbol" aria-roledescription="bar" d="M0,0h12.307692307692308v18h-12.307692307692308Z" fill="#4c78a8"/><path aria-label="Count of Records: 64; date (month): Oct; weather: rain" role="graphics-symbol" aria-roledescription="bar" d="M70.76923076923077,0h196.9230769230769v18h-196.9230769230769Z" fill="#e45756"/><path aria-label="Count of Records: 19; date (month): Oct; weather: fog" role="graphics-symbol" aria-roledescription="bar" d="M12.307692307692308,0h58.46153846153847v18h-58.46153846153847Z" fill="#f58518"/></g></g><path class="foreground" aria-hidden="true" d="" display="none"/></g></g></g><path class="foreground" aria-hidden="true" d="" display="none"/></g><g transform="translate(0,201)"><path class="background" aria-hidden="true" d="M0,0L361.2307692307692,0C365.64608942672123,0,369.2307692307692,3.584679804048,369.2307692307692,8L369.2307692307692,10C369.2307692307692,14.415320195951999,365.64608942672123,18,361.2307692307692,18L0,18C0,18,0,18,0,18L0,0C0,0,0,0,0,0Z"/><g clip-path="url(#clip12)"><g class="mark-group role-scope" role="graphics-object" aria-roledescription="group mark container"><g transform="translate(0,0)"><path class="background" aria-hidden="true" d="M0,0h0v18h0Z"/><g><g class="mark-rect role-mark marks" role="graphics-object" aria-roledescription="rect mark container"><path aria-label="Count of Records: 75; date (month): Nov; weather: rain" role="graphics-symbol" aria-roledescription="bar" d="M33.84615384615385,0h230.76923076923075v18h-230.76923076923075Z" fill="#e45756"/><path aria-label="Count of Records: 33; date (month): Nov; weather: sun" role="graphics-symbol" aria-roledescription="bar" d="M267.6923076923077,0h101.53846153846155v18h-101.53846153846155Z" fill="#54a24b"/><path aria-label="Count of Records: 3; date (month): Nov; weather: drizzle" role="graphics-symbol" aria-roledescription="bar" d="M0,0h9.230769230769232v18h-9.230769230769232Z" fill="#4c78a8"/><path aria-label="Count of Records: 8; date (month): Nov; weather: fog" role="graphics-symbol" aria-roledescription="bar" d="M9.230769230769232,0h24.615384615384613v18h-24.615384615384613Z" fill="#f58518"/><path aria-label="Count of Records: 1; date (month): Nov; weather: snow" role="graphics-symbol" aria-roledescription="bar" d="M264.6153846153846,0h3.0769230769230944v18h-3.0769230769230944Z" fill="#72b7b2"/></g></g><path class="foreground" aria-hidden="true" d="" display="none"/></g></g></g><path class="foreground" aria-hidden="true" d="" display="none"/></g></g><g class="mark-group role-legend" role="graphics-symbol" aria-roledescription="legend" aria-label="Symbol legend titled 'weather' for fill color with 5 values: drizzle, fog, rain, snow, sun"><g transform="translate(418,0)"><path class="background" aria-hidden="true" d="M0,0h52v79h-52Z" pointer-events="none"/><g><g class="mark-group role-legend-entry"><g transform="translate(0,16)"><path class="background" aria-hidden="true" d="M0,0h0v0h0Z" pointer-events="none"/><g><g class="mark-group role-scope" role="graphics-object" aria-roledescription="group mark container"><g transform="translate(0,0)"><path class="background" aria-hidden="true" d="M0,0h48.666015625v11h-48.666015625Z" pointer-events="none" opacity="1"/><g><g class="mark-symbol role-legend-symbol" pointer-events="none"><path transform="translate(6,6)" d="M-5,-5h10v10h-10Z" fill="#4c78a8" stroke-width="1.5" opacity="1"/></g><g class="mark-text role-legend-label" pointer-events="none"><text text-anchor="start" transform="translate(16,9)" font-family="sans-serif" font-size="10px" fill="#000" opacity="1">drizzle</text></g></g><path class="foreground" aria-hidden="true" d="" pointer-events="none" display="none"/></g><g transform="translate(0,13)"><path class="background" aria-hidden="true" d="M0,0h48.666015625v11h-48.666015625Z" pointer-events="none" opacity="1"/><g><g class="mark-symbol role-legend-symbol" pointer-events="none"><path transform="translate(6,6)" d="M-5,-5h10v10h-10Z" fill="#f58518" stroke-width="1.5" opacity="1"/></g><g class="mark-text role-legend-label" pointer-events="none"><text text-anchor="start" transform="translate(16,9)" font-family="sans-serif" font-size="10px" fill="#000" opacity="1">fog</text></g></g><path class="foreground" aria-hidden="true" d="" pointer-events="none" display="none"/></g><g transform="translate(0,26)"><path class="background" aria-hidden="true" d="M0,0h48.666015625v11h-48.666015625Z" pointer-events="none" opacity="1"/><g><g class="mark-symbol role-legend-symbol" pointer-events="none"><path transform="translate(6,6)" d="M-5,-5h10v10h-10Z" fill="#e45756" stroke-width="1.5" opacity="1"/></g><g class="mark-text role-legend-label" pointer-events="none"><text text-anchor="start" transform="translate(16,9)" font-family="sans-serif" font-size="10px" fill="#000" opacity="1">rain</text></g></g><path class="foreground" aria-hidden="true" d="" pointer-events="none" display="none"/></g><g transform="translate(0,39)"><path class="background" aria-hidden="true" d="M0,0h48.666015625v11h-48.666015625Z" pointer-events="none" opacity="1"/><g><g class="mark-symbol role-legend-symbol" pointer-events="none"><path transform="translate(6,6)" d="M-5,-5h10v10h-10Z" fill="#72b7b2" stroke-width="1.5" opacity="1"/></g><g class="mark-text role-legend-label" pointer-events="none"><text text-anchor="start" transform="translate(16,9)" font-family="sans-serif" font-size="10px" fill="#000" opacity="1">snow</text></g></g><path class="foreground" aria-hidden="true" d="" pointer-events="none" display="none"/></g><g transform="translate(0,52)"><path class="background" aria-hidden="true" d="M0,0h48.666015625v11h-48.666015625Z" pointer-events="none" opacity="1"/><g><g class="mark-symbol role-legend-symbol" pointer-events="none"><path transform="translate(6,6)" d="M-5,-5h10v10h-10Z" fill="#54a24b" stroke-width="1.5" opacity="1"/></g><g class="mark-text role-legend-label" pointer-events="none"><text text-anchor="start" transform="translate(16,9)" font-family="sans-serif" font-size="10px" fill="#000" opacity="1">sun</text></g></g><path class="foreground" aria-hidden="true" d="" pointer-events="none" display="none"/></g></g></g><path class="foreground" aria-hidden="true" d="" pointer-events="none" display="none"/></g></g><g class="mark-text role-legend-title" pointer-events="none"><text text-anchor="start" transform="translate(0,9)" font-family="sans-serif" font-size="11px" font-weight="bold" fill="#000" opacity="1">weather</text></g></g><path class="foreground" aria-hidden="true" d="" pointer-events="none" display="none"/></g></g></g><path class="foreground" aria-hidden="true" d="" display="none"/></g></g></g><defs><clipPath id="clip1"><path d="M0,0L373.53846153846155,0C377.95378173441355,0,381.53846153846155,3.584679804048,381.53846153846155,8L381.53846153846155,10C381.53846153846155,14.415320195951999,377.95378173441355,18,373.53846153846155,18L0,18C0,18,0,18,0,18L0,0C0,0,0,0,0,0Z"/></clipPath><clipPath id="clip2"><path d="M0,0L373.53846153846155,0C377.95378173441355,0,381.53846153846155,3.584679804048,381.53846153846155,8L381.53846153846155,10C381.53846153846155,14.415320195951999,377.95378173441355,18,373.53846153846155,18L0,18C0,18,0,18,0,18L0,0C0,0,0,0,0,0Z"/></clipPath><clipPath id="clip3"><path d="M0,0L339.6923076923077,0C344.1076278882597,0,347.6923076923077,3.584679804048,347.6923076923077,8L347.6923076923077,10C347.6923076923077,14.415320195951999,344.1076278882597,18,339.6923076923077,18L0,18C0,18,0,18,0,18L0,0C0,0,0,0,0,0Z"/></clipPath><clipPath id="clip4"><path d="M0,0L373.53846153846155,0C377.95378173441355,0,381.53846153846155,3.584679804048,381.53846153846155,8L381.53846153846155,10C381.53846153846155,14.415320195951999,377.95378173441355,18,373.53846153846155,18L0,18C0,18,0,18,0,18L0,0C0,0,0,0,0,0Z"/></clipPath><clipPath id="clip5"><path d="M0,0L361.2307692307692,0C365.64608942672123,0,369.2307692307692,3.584679804048,369.2307692307692,8L369.2307692307692,10C369.2307692307692,14.415320195951999,365.64608942672123,18,361.2307692307692,18L0,18C0,18,0,18,0,18L0,0C0,0,0,0,0,0Z"/></clipPath><clipPath id="clip6"><path d="M0,0L373.53846153846155,0C377.95378173441355,0,381.53846153846155,3.584679804048,381.53846153846155,8L381.53846153846155,10C381.53846153846155,14.415320195951999,377.95378173441355,18,373.53846153846155,18L0,18C0,18,0,18,0,18L0,0C0,0,0,0,0,0Z"/></clipPath><clipPath id="clip7"><path d="M0,0L361.2307692307692,0C365.64608942672123,0,369.2307692307692,3.584679804048,369.2307692307692,8L369.2307692307692,10C369.2307692307692,14.415320195951999,365.64608942672123,18,361.2307692307692,18L0,18C0,18,0,18,0,18L0,0C0,0,0,0,0,0Z"/></clipPath><clipPath id="clip8"><path d="M0,0L373.53846153846155,0C377.95378173441355,0,381.53846153846155,3.584679804048,381.53846153846155,8L381.53846153846155,10C381.53846153846155,14.415320195951999,377.95378173441355,18,373.53846153846155,18L0,18C0,18,0,18,0,18L0,0C0,0,0,0,0,0Z"/></clipPath><clipPath id="clip9"><path d="M0,0L373.53846153846155,0C377.95378173441355,0,381.53846153846155,3.584679804048,381.53846153846155,8L381.53846153846155,10C381.53846153846155,14.415320195951999,377.95378173441355,18,373.53846153846155,18L0,18C0,18,0,18,0,18L0,0C0,0,0,0,0,0Z"/></clipPath><clipPath id="clip10"><path d="M0,0L361.2307692307692,0C365.64608942672123,0,369.2307692307692,3.584679804048,369.2307692307692,8L369.2307692307692,10C369.2307692307692,14.415320195951999,365.64608942672123,18,361.2307692307692,18L0,18C0,18,0,18,0,18L0,0C0,0,0,0,0,0Z"/></clipPath><clipPath id="clip11"><path d="M0,0L373.53846153846155,0C377.95378173441355,0,381.53846153846155,3.584679804048,381.53846153846155,8L381.53846153846155,10C381.53846153846155,14.415320195951999,377.95378173441355,18,373.53846153846155,18L0,18C0,18,0,18,0,18L0,0C0,0,0,0,0,0Z"/></clipPath><clipPath id="clip12"><path d="M0,0L361.2307692307692,0C365.64608942672123,0,369.2307692307692,3.584679804048,369.2307692307692,8L369.2307692307692,10C369.2307692307692,14.415320195951999,365.64608942672123,18,361.2307692307692,18L0,18C0,18,0,18,0,18L0,0C0,0,0,0,0,0Z"/></clipPath></defs></svg>