<svg class="marks" width="497" height="247" viewBox="0 0 497 247" version="1.1" xmlns="http://www.w3.org/2000/svg" xmlns:xlink="http://www.w3.org/1999/xlink"><g transform="translate(81,5)"><g class="mark-group role-frame root"><g transform="translate(0,0)"><path class="background" d="M0.5,0.5h323v200h-323Z" style="fill: transparent; stroke: #ddd;"></path><g><g class="mark-group role-axis"><g transform="translate(0.5,0.5)"><path class="background" d="M0,0h0v0h0Z" style="pointer-events: none; fill: none;"></path><g><g class="mark-rule role-axis-grid" style="pointer-events: none;"><line transform="translate(0,200)" x2="323" y2="0" style="fill: none; stroke: #ddd; stroke-width: 1; stroke-dasharray: ; opacity: 1;"></line><line transform="translate(0,158)" x2="323" y2="0" style="fill: none; stroke: #ddd; stroke-width: 1; stroke-dasharray: ; opacity: 1;"></line><line transform="translate(0,117)" x2="323" y2="0" style="fill: none; stroke: #ddd; stroke-width: 1; stroke-dasharray: ; opacity: 1;"></line><line transform="translate(0,75)" x2="323" y2="0" style="fill: none; stroke: #ddd; stroke-width: 1; stroke-dasharray: ; opacity: 1;"></line><line transform="translate(0,33)" x2="323" y2="0" style="fill: none; stroke: #ddd; stroke-width: 1; stroke-dasharray: ; opacity: 1;"></line></g></g></g></g><g class="mark-rect role-mark marks"><path d="M0.8500000000000227,118.87183333333333h15.3v81.12816666666667h-15.3Z" style="fill: #4c78a8; opacity: 0.7159125078411632;"></path><path d="M0.8500000000000227,41.282550000000015h15.3v77.58928333333331h-15.3Z" style="fill: #4c78a8; opacity: 0.6971208859558573;"></path><path d="M17.850000000000023,112.06545h15.3v87.93455h-15.3Z" style="fill: #4c78a8; opacity: 0.752054694502619;"></path><path d="M17.850000000000023,28.152416666666653h15.3v83.91303333333335h-15.3Z" style="fill: #4c78a8; opacity: 0.7307002689713669;"></path><path d="M34.85000000000002,111.97305833333333h15.3v88.02694166666667h-15.3Z" style="fill: #4c78a8; opacity: 0.7525452982049223;"></path><path d="M34.85000000000002,28.452024999999992h15.3v83.52103333333334h-15.3Z" style="fill: #4c78a8; opacity: 0.7286187322025066;"></path><path d="M51.85000000000002,114.688175h15.3v85.311825h-15.3Z" style="fill: #4c78a8; opacity: 0.7381279125584636;"></path><path d="M51.85000000000002,33.91593333333333h15.3v80.77224166666667h-15.3Z" style="fill: #4c78a8; opacity: 0.7140225308655086;"></path><path d="M68.85000000000002,118.90570833333334h15.3v81.09429166666666h-15.3Z" style="fill: #4c78a8; opacity: 0.7157326301420683;"></path><path d="M68.85000000000002,41.203675000000004h15.3v77.70203333333333h-15.3Z" style="fill: #4c78a8; opacity: 0.6977195932790434;"></path><path d="M85.85000000000002,119.50422499999999h15.3v80.49577500000001h-15.3Z" style="fill: #4c78a8; opacity: 0.7125544810388993;"></path><path d="M85.85000000000002,40.18333333333334h15.3v79.32089166666665h-15.3Z" style="fill: #4c78a8; opacity: 0.7063158002800871;"></path><path d="M102.85000000000002,114.95100833333333h15.3v85.04899166666667h-15.3Z" style="fill: #4c78a8; opacity: 0.7367322563150569;"></path><path d="M102.85000000000002,30.623541666666682h15.3v84.32746666666665h-15.3Z" style="fill: #4c78a8; opacity: 0.7329009276998735;"></path><path d="M119.85000000000002,7.409758333333315h15.3v95.62651666666669h-15.3Z" style="fill: #4c78a8; opacity: 0.7928993665472969;"></path><path d="M119.85000000000002,103.036275h15.3v96.963725h-15.3Z" style="fill: #4c78a8; opacity: 0.8;"></path><path d="M136.85000000000002,9.926416666666682h15.3v94.33543333333331h-15.3Z" style="fill: #4c78a8; opacity: 0.7860436588177154;"></path><path d="M136.85000000000002,104.26185h15.3v95.73815h-15.3Z" style="fill: #4c78a8; opacity: 0.7934921443227146;"></path><path d="M153.85000000000002,31.78117499999999h15.3v82.70838333333334h-15.3Z" style="fill: #4c78a8; opacity: 0.724303525939205;"></path><path d="M153.85000000000002,114.48955833333333h15.3v85.51044166666667h-15.3Z" style="fill: #4c78a8; opacity: 0.7391825755548287;"></path><path d="M170.85000000000002,54.841108333333324h15.3v70.89945h-15.3Z" style="fill: #4c78a8; opacity: 0.661597584780143;"></path><path d="M170.85000000000002,125.74055833333333h15.3v74.25944166666667h-15.3Z" style="fill: #4c78a8; opacity: 0.679439284262874;"></path><path d="M187.85000000000002,88.49708333333332h15.3v53.825683333333345h-15.3Z" style="fill: #4c78a8; opacity: 0.5709351534035958;"></path><path d="M187.85000000000002,142.32276666666667h15.3v57.677233333333334h-15.3Z" style="fill: #4c78a8; opacity: 0.591387048664064;"></path><path d="M204.85000000000002,110.06366666666668h15.3v42.69499166666665h-15.3Z" style="fill: #4c78a8; opacity: 0.5118307045081555;"></path><path d="M204.85000000000002,152.75865833333333h15.3v47.24134166666667h-15.3Z" style="fill: #4c78a8; opacity: 0.5359720174905729;"></path><path d="M221.85000000000002,122.84660833333334h15.3v37.11352499999998h-15.3Z" style="fill: #4c78a8; opacity: 0.4821928777458231;"></path><path d="M221.85000000000002,159.96013333333332h15.3v40.03986666666668h-15.3Z" style="fill: #4c78a8; opacity: 0.49773187717800255;"></path><path d="M238.85000000000002,125.19166666666666h15.3v31.601208333333318h-15.3Z" style="fill: #4c78a8; opacity: 0.452922240441569;"></path><path d="M238.85000000000002,156.79287499999998h15.3v43.20712500000002h-15.3Z" style="fill: #4c78a8; opacity: 0.514550154416044;"></path><path d="M255.85000000000002,139.43084166666668h15.3v24.27212499999999h-15.3Z" style="fill: #4c78a8; opacity: 0.41400449442020704;"></path><path d="M255.85000000000002,163.70296666666667h15.3v36.29703333333333h-15.3Z" style="fill: #4c78a8; opacity: 0.47785727206818374;"></path><path d="M272.85,157.29553333333334h15.3v15.855316666666653h-15.3Z" style="fill: #4c78a8; opacity: 0.36931088211846635;"></path><path d="M272.85,173.15085h15.3v26.84915000000001h-15.3Z" style="fill: #4c78a8; opacity: 0.4276886074094213;"></path><path d="M289.85,175.40405833333332h15.3v8.086308333333335h-15.3Z" style="fill: #4c78a8; opacity: 0.32805711552812267;"></path><path d="M289.85,183.49036666666666h15.3v16.50963333333334h-15.3Z" style="fill: #4c78a8; opacity: 0.3727853316086314;"></path><path d="M306.85,188.32596666666666h15.3v2.802525000000003h-15.3Z" style="fill: #4c78a8; opacity: 0.3;"></path><path d="M306.85,191.12849166666666h15.3v8.871508333333338h-15.3Z" style="fill: #4c78a8; opacity: 0.33222656111717636;"></path></g><g class="mark-group role-legend"><g transform="translate(341,0)"><path class="background" d="M0,0h70v88h-70Z" style="pointer-events: none; fill: none;"></path><g><g class="mark-group role-legend-entry"><g transform="translate(0,16)"><path class="background" d="M0,0h0v0h0Z" style="pointer-events: none; fill: none;"></path><g><g class="mark-symbol role-legend-symbol" style="pointer-events: none;"><path transform="translate(5,5)" d="M-5,-5h10v10h-10Z" style="fill: #4c78a8; stroke: #888; stroke-width: 1.5; opacity: 0.373619185326157;"></path><path transform="translate(5,20)" d="M-5,-5h10v10h-10Z" style="fill: #4c78a8; stroke: #888; stroke-width: 1.5; opacity: 0.46211989828790057;"></path><path transform="translate(5,35)" d="M-5,-5h10v10h-10Z" style="fill: #4c78a8; stroke: #888; stroke-width: 1.5; opacity: 0.5506206112496442;"></path><path transform="translate(5,50)" d="M-5,-5h10v10h-10Z" style="fill: #4c78a8; stroke: #888; stroke-width: 1.5; opacity: 0.6391213242113878;"></path><path transform="translate(5,65)" d="M-5,-5h10v10h-10Z" style="fill: #4c78a8; stroke: #888; stroke-width: 1.5; opacity: 0.7276220371731315;"></path></g><g class="mark-text role-legend-label" style="pointer-events: none;"><text text-anchor="start" transform="translate(18,8)" style="font: 10px sans-serif; fill: #000; opacity: 1;">2,000,000</text><text text-anchor="start" transform="translate(18,23)" style="font: 10px sans-serif; fill: #000; opacity: 1;">4,000,000</text><text text-anchor="start" transform="translate(18,38)" style="font: 10px sans-serif; fill: #000; opacity: 1;">6,000,000</text><text text-anchor="start" transform="translate(18,53)" style="font: 10px sans-serif; fill: #000; opacity: 1;">8,000,000</text><text text-anchor="start" transform="translate(18,68)" style="font: 10px sans-serif; fill: #000; opacity: 1;">10,000,000</text></g></g></g></g><g class="mark-text role-legend-title" style="pointer-events: none;"><text text-anchor="start" transform="translate(0,9)" style="font: bold 11px sans-serif; fill: #000; opacity: 1;">people</text></g></g></g></g><g class="mark-group role-axis"><g transform="translate(0.5,200.5)"><path class="background" d="M0,0h0v0h0Z" style="pointer-events: none; fill: none;"></path><g><g class="mark-rule role-axis-tick" style="pointer-events: none;"><line transform="translate(8,0)" x2="0" y2="5" style="fill: none; stroke: #888; stroke-width: 1; opacity: 1;"></line><line transform="translate(25,0)" x2="0" y2="5" style="fill: none; stroke: #888; stroke-width: 1; opacity: 1;"></line><line transform="translate(42,0)" x2="0" y2="5" style="fill: none; stroke: #888; stroke-width: 1; opacity: 1;"></line><line transform="translate(59,0)" x2="0" y2="5" style="fill: none; stroke: #888; stroke-width: 1; opacity: 1;"></line><line transform="translate(76,0)" x2="0" y2="5" style="fill: none; stroke: #888; stroke-width: 1; opacity: 1;"></line><line transform="translate(93,0)" x2="0" y2="5" style="fill: none; stroke: #888; stroke-width: 1; opacity: 1;"></line><line transform="translate(110,0)" x2="0" y2="5" style="fill: none; stroke: #888; stroke-width: 1; opacity: 1;"></line><line transform="translate(127,0)" x2="0" y2="5" style="fill: none; stroke: #888; stroke-width: 1; opacity: 1;"></line><line transform="translate(144,0)" x2="0" y2="5" style="fill: none; stroke: #888; stroke-width: 1; opacity: 1;"></line><line transform="translate(161,0)" x2="0" y2="5" style="fill: none; stroke: #888; stroke-width: 1; opacity: 1;"></line><line transform="translate(178,0)" x2="0" y2="5" style="fill: none; stroke: #888; stroke-width: 1; opacity: 1;"></line><line transform="translate(195,0)" x2="0" y2="5" style="fill: none; stroke: #888; stroke-width: 1; opacity: 1;"></line><line transform="translate(212,0)" x2="0" y2="5" style="fill: none; stroke: #888; stroke-width: 1; opacity: 1;"></line><line transform="translate(229,0)" x2="0" y2="5" style="fill: none; stroke: #888; stroke-width: 1; opacity: 1;"></line><line transform="translate(246,0)" x2="0" y2="5" style="fill: none; stroke: #888; stroke-width: 1; opacity: 1;"></line><line transform="translate(263,0)" x2="0" y2="5" style="fill: none; stroke: #888; stroke-width: 1; opacity: 1;"></line><line transform="translate(280,0)" x2="0" y2="5" style="fill: none; stroke: #888; stroke-width: 1; opacity: 1;"></line><line transform="translate(297,0)" x2="0" y2="5" style="fill: none; stroke: #888; stroke-width: 1; opacity: 1;"></line><line transform="translate(314,0)" x2="0" y2="5" style="fill: none; stroke: #888; stroke-width: 1; opacity: 1;"></line></g><g class="mark-text role-axis-label" style="pointer-events: none;"><text text-anchor="end" transform="translate(7.500000000000023,7) rotate(270) translate(0,3)" style="font: 10px sans-serif; fill: #000; opacity: 1;">0</text><text text-anchor="end" transform="translate(24.50000000000002,7) rotate(270) translate(0,3)" style="font: 10px sans-serif; fill: #000; opacity: 1;">5</text><text text-anchor="end" transform="translate(41.50000000000002,7) rotate(270) translate(0,3)" style="font: 10px sans-serif; fill: #000; opacity: 1;">10</text><text text-anchor="end" transform="translate(58.50000000000002,7) rotate(270) translate(0,3)" style="font: 10px sans-serif; fill: #000; opacity: 1;">15</text><text text-anchor="end" transform="translate(75.50000000000003,7) rotate(270) translate(0,3)" style="font: 10px sans-serif; fill: #000; opacity: 1;">20</text><text text-anchor="end" transform="translate(92.50000000000003,7) rotate(270) translate(0,3)" style="font: 10px sans-serif; fill: #000; opacity: 1;">25</text><text text-anchor="end" transform="translate(109.50000000000003,7) rotate(270) translate(0,3)" style="font: 10px sans-serif; fill: #000; opacity: 1;">30</text><text text-anchor="end" transform="translate(126.50000000000003,7) rotate(270) translate(0,3)" style="font: 10px sans-serif; fill: #000; opacity: 1;">35</text><text text-anchor="end" transform="translate(143.50000000000003,7) rotate(270) translate(0,3)" style="font: 10px sans-serif; fill: #000; opacity: 1;">40</text><text text-anchor="end" transform="translate(160.50000000000003,7) rotate(270) translate(0,3)" style="font: 10px sans-serif; fill: #000; opacity: 1;">45</text><text text-anchor="end" transform="translate(177.50000000000003,7) rotate(270) translate(0,3)" style="font: 10px sans-serif; fill: #000; opacity: 1;">50</text><text text-anchor="end" transform="translate(194.50000000000003,7) rotate(270) translate(0,3)" style="font: 10px sans-serif; fill: #000; opacity: 1;">55</text><text text-anchor="end" transform="translate(211.50000000000003,7) rotate(270) translate(0,3)" style="font: 10px sans-serif; fill: #000; opacity: 1;">60</text><text text-anchor="end" transform="translate(228.50000000000003,7) rotate(270) translate(0,3)" style="font: 10px sans-serif; fill: #000; opacity: 1;">65</text><text text-anchor="end" transform="translate(245.50000000000003,7) rotate(270) translate(0,3)" style="font: 10px sans-serif; fill: #000; opacity: 1;">70</text><text text-anchor="end" transform="translate(262.5,7) rotate(270) translate(0,3)" style="font: 10px sans-serif; fill: #000; opacity: 1;">75</text><text text-anchor="end" transform="translate(279.5,7) rotate(270) translate(0,3)" style="font: 10px sans-serif; fill: #000; opacity: 1;">80</text><text text-anchor="end" transform="translate(296.5,7) rotate(270) translate(0,3)" style="font: 10px sans-serif; fill: #000; opacity: 1;">85</text><text text-anchor="end" transform="translate(313.5,7) rotate(270) translate(0,3)" style="font: 10px sans-serif; fill: #000; opacity: 1;">90</text></g><g class="mark-rule role-axis-domain" style="pointer-events: none;"><line transform="translate(0,0)" x2="323" y2="0" style="fill: none; stroke: #888; stroke-width: 1; opacity: 1;"></line></g><g class="mark-text role-axis-title" style="pointer-events: none;"><text text-anchor="middle" transform="translate(161.5,32.12304687500001)" style="font: bold 11px sans-serif; fill: #000; opacity: 1;">age</text></g></g></g></g><g class="mark-group role-axis"><g transform="translate(0.5,0.5)"><path class="background" d="M0,0h0v0h0Z" style="pointer-events: none; fill: none;"></path><g><g class="mark-rule role-axis-tick" style="pointer-events: none;"><line transform="translate(0,200)" x2="-5" y2="0" style="fill: none; stroke: #888; stroke-width: 1; opacity: 1;"></line><line transform="translate(0,158)" x2="-5" y2="0" style="fill: none; stroke: #888; stroke-width: 1; opacity: 1;"></line><line transform="translate(0,117)" x2="-5" y2="0" style="fill: none; stroke: #888; stroke-width: 1; opacity: 1;"></line><line transform="translate(0,75)" x2="-5" y2="0" style="fill: none; stroke: #888; stroke-width: 1; opacity: 1;"></line><line transform="translate(0,33)" x2="-5" y2="0" style="fill: none; stroke: #888; stroke-width: 1; opacity: 1;"></line></g><g class="mark-text role-axis-label" style="pointer-events: none;"><text text-anchor="end" transform="translate(-7,203)" style="font: 10px sans-serif; fill: #000; opacity: 1;">0</text><text text-anchor="end" transform="translate(-7,161.33333333333331)" style="font: 10px sans-serif; fill: #000; opacity: 1;">5,000,000</text><text text-anchor="end" transform="translate(-7,119.66666666666666)" style="font: 10px sans-serif; fill: #000; opacity: 1;">10,000,000</text><text text-anchor="end" transform="translate(-7,78)" style="font: 10px sans-serif; fill: #000; opacity: 1;">15,000,000</text><text text-anchor="end" transform="translate(-7,36.333333333333314)" style="font: 10px sans-serif; fill: #000; opacity: 1;">20,000,000</text></g><g class="mark-rule role-axis-domain" style="pointer-events: none;"><line transform="translate(0,200)" x2="0" y2="-200" style="fill: none; stroke: #888; stroke-width: 1; opacity: 1;"></line></g><g class="mark-text role-axis-title" style="pointer-events: none;"><text text-anchor="middle" transform="translate(-62.048828125,100) rotate(-90) translate(0,-2)" style="font: bold 11px sans-serif; fill: #000; opacity: 1;">population</text></g></g></g></g></g></g></g></g></svg>