<svg xmlns="http://www.w3.org/2000/svg" xmlns:xlink="http://www.w3.org/1999/xlink" version="1.1" class="marks" width="537" height="242" viewBox="0 0 537 242"><rect width="537" height="242" fill="white"/><g fill="none" stroke-miterlimit="10" transform="translate(62,5)"><g class="mark-group role-frame root" role="graphics-object" aria-roledescription="group mark container"><g transform="translate(0,0)"><path class="background" aria-hidden="true" d="M0.5,0.5h300v200h-300Z" stroke="#ddd"/><g><g class="mark-group role-axis" aria-hidden="true"><g transform="translate(0.5,200.5)"><path class="background" aria-hidden="true" d="M0,0h0v0h0Z" pointer-events="none"/><g><g class="mark-rule role-axis-grid" pointer-events="none"><line transform="translate(0,-200)" x2="0" y2="200" stroke="#ddd" stroke-width="1" opacity="1"/><line transform="translate(30,-200)" x2="0" y2="200" stroke="#ddd" stroke-width="1" opacity="1"/><line transform="translate(60,-200)" x2="0" y2="200" stroke="#ddd" stroke-width="1" opacity="1"/><line transform="translate(89,-200)" x2="0" y2="200" stroke="#ddd" stroke-width="1" opacity="1"/><line transform="translate(119,-200)" x2="0" y2="200" stroke="#ddd" stroke-width="1" opacity="1"/><line transform="translate(149,-200)" x2="0" y2="200" stroke="#ddd" stroke-width="1" opacity="1"/><line transform="translate(179,-200)" x2="0" y2="200" stroke="#ddd" stroke-width="1" opacity="1"/><line transform="translate(208,-200)" x2="0" y2="200" stroke="#ddd" stroke-width="1" opacity="1"/><line transform="translate(238,-200)" x2="0" y2="200" stroke="#ddd" stroke-width="1" opacity="1"/><line transform="translate(268,-200)" x2="0" y2="200" stroke="#ddd" stroke-width="1" opacity="1"/><line transform="translate(297,-200)" x2="0" y2="200" stroke="#ddd" stroke-width="1" opacity="1"/></g></g><path class="foreground" aria-hidden="true" d="" pointer-events="none" display="none"/></g></g><g class="mark-group role-axis" aria-hidden="true"><g transform="translate(0.5,0.5)"><path class="background" aria-hidden="true" d="M0,0h0v0h0Z" pointer-events="none"/><g><g class="mark-rule role-axis-grid" pointer-events="none"><line transform="translate(0,200)" x2="300" y2="0" stroke="#ddd" stroke-width="1" opacity="1"/><line transform="translate(0,138)" x2="300" y2="0" stroke="#ddd" stroke-width="1" opacity="1"/><line transform="translate(0,75)" x2="300" y2="0" stroke="#ddd" stroke-width="1" opacity="1"/><line transform="translate(0,13)" x2="300" y2="0" stroke="#ddd" stroke-width="1" opacity="1"/></g></g><path class="foreground" aria-hidden="true" d="" pointer-events="none" display="none"/></g></g><g class="mark-group role-axis" role="graphics-symbol" aria-roledescription="axis" aria-label="X-axis titled 'date (year-month)' for a time scale with values from 2000 to 2010"><g transform="translate(0.5,200.5)"><path class="background" aria-hidden="true" d="M0,0h0v0h0Z" pointer-events="none"/><g><g class="mark-rule role-axis-tick" pointer-events="none"><line transform="translate(0,0)" x2="0" y2="5" stroke="#888" stroke-width="1" opacity="1"/><line transform="translate(30,0)" x2="0" y2="5" stroke="#888" stroke-width="1" opacity="1"/><line transform="translate(60,0)" x2="0" y2="5" stroke="#888" stroke-width="1" opacity="1"/><line transform="translate(89,0)" x2="0" y2="5" stroke="#888" stroke-width="1" opacity="1"/><line transform="translate(119,0)" x2="0" y2="5" stroke="#888" stroke-width="1" opacity="1"/><line transform="translate(149,0)" x2="0" y2="5" stroke="#888" stroke-width="1" opacity="1"/><line transform="translate(179,0)" x2="0" y2="5" stroke="#888" stroke-width="1" opacity="1"/><line transform="translate(208,0)" x2="0" y2="5" stroke="#888" stroke-width="1" opacity="1"/><line transform="translate(238,0)" x2="0" y2="5" stroke="#888" stroke-width="1" opacity="1"/><line transform="translate(268,0)" x2="0" y2="5" stroke="#888" stroke-width="1" opacity="1"/><line transform="translate(297,0)" x2="0" y2="5" stroke="#888" stroke-width="1" opacity="1"/></g><g class="mark-text role-axis-label" pointer-events="none"><text text-anchor="start" transform="translate(0,15)" font-family="sans-serif" font-size="10px" fill="#000" opacity="1">2000</text><text text-anchor="middle" transform="translate(29.80456026058632,15)" font-family="sans-serif" font-size="10px" fill="#000" opacity="0">2001</text><text text-anchor="middle" transform="translate(59.52768729641694,15)" font-family="sans-serif" font-size="10px" fill="#000" opacity="1">2002</text><text text-anchor="middle" transform="translate(89.25081433224756,15)" font-family="sans-serif" font-size="10px" fill="#000" opacity="0">2003</text><text text-anchor="middle" transform="translate(118.97394136807817,15)" font-family="sans-serif" font-size="10px" fill="#000" opacity="1">2004</text><text text-anchor="middle" transform="translate(148.7785016286645,15)" font-family="sans-serif" font-size="10px" fill="#000" opacity="0">2005</text><text text-anchor="middle" transform="translate(178.50162866449512,15)" font-family="sans-serif" font-size="10px" fill="#000" opacity="1">2006</text><text text-anchor="middle" transform="translate(208.22475570032572,15)" font-family="sans-serif" font-size="10px" fill="#000" opacity="0">2007</text><text text-anchor="middle" transform="translate(237.94788273615634,15)" font-family="sans-serif" font-size="10px" fill="#000" opacity="1">2008</text><text text-anchor="middle" transform="translate(267.7524429967427,15)" font-family="sans-serif" font-size="10px" fill="#000" opacity="0">2009</text><text text-anchor="middle" transform="translate(297.4755700325733,15)" font-family="sans-serif" font-size="10px" fill="#000" opacity="1">2010</text></g><g class="mark-rule role-axis-domain" pointer-events="none"><line transform="translate(0,0)" x2="300" y2="0" stroke="#888" stroke-width="1" opacity="1"/></g><g class="mark-text role-axis-title" pointer-events="none"><text text-anchor="middle" transform="translate(150,30)" font-family="sans-serif" font-size="11px" font-weight="bold" fill="#000" opacity="1">date (year-month)</text></g></g><path class="foreground" aria-hidden="true" d="" pointer-events="none" display="none"/></g></g><g class="mark-group role-axis" role="graphics-symbol" aria-roledescription="axis" aria-label="Y-axis titled 'Sum of count' for a linear scale with values from 0 to 16,000"><g transform="translate(0.5,0.5)"><path class="background" aria-hidden="true" d="M0,0h0v0h0Z" pointer-events="none"/><g><g class="mark-rule role-axis-tick" pointer-events="none"><line transform="translate(0,200)" x2="-5" y2="0" stroke="#888" stroke-width="1" opacity="1"/><line transform="translate(0,138)" x2="-5" y2="0" stroke="#888" stroke-width="1" opacity="1"/><line transform="translate(0,75)" x2="-5" y2="0" stroke="#888" stroke-width="1" opacity="1"/><line transform="translate(0,13)" x2="-5" y2="0" stroke="#888" stroke-width="1" opacity="1"/></g><g class="mark-text role-axis-label" pointer-events="none"><text text-anchor="end" transform="translate(-7,203)" font-family="sans-serif" font-size="10px" fill="#000" opacity="1">0</text><text text-anchor="end" transform="translate(-7,140.5)" font-family="sans-serif" font-size="10px" fill="#000" opacity="1">5,000</text><text text-anchor="end" transform="translate(-7,78)" font-family="sans-serif" font-size="10px" fill="#000" opacity="1">10,000</text><text text-anchor="end" transform="translate(-7,15.5)" font-family="sans-serif" font-size="10px" fill="#000" opacity="1">15,000</text></g><g class="mark-rule role-axis-domain" pointer-events="none"><line transform="translate(0,200)" x2="0" y2="-200" stroke="#888" stroke-width="1" opacity="1"/></g><g class="mark-text role-axis-title" pointer-events="none"><text text-anchor="middle" transform="translate(-45.990234375,100) rotate(-90) translate(0,-2)" font-family="sans-serif" font-size="11px" font-weight="bold" fill="#000" opacity="1">Sum of count</text></g></g><path class="foreground" aria-hidden="true" d="" pointer-events="none" display="none"/></g></g><g class="mark-group role-scope pathgroup" role="graphics-object" aria-roledescription="group mark container"><g transform="translate(0,0)"><path class="background" aria-hidden="true" d="M0,0h300v200h-300Z"/><g><g class="mark-area role-mark marks" role="graphics-object" aria-roledescription="area mark container"><path aria-label="date (year-month): 2000; Sum of count: 430; series: Government" role="graphics-symbol" aria-roledescription="area mark" d="M0,152.013L2.524,153.013L4.886,154.613L7.41,159.75L9.85,158.013L12.374,154.938L14.817,154.462L17.342,155.838L19.866,158.488L22.309,160.138L24.837,160.025L27.28,161.8L29.805,151.938L32.329,152.65L34.609,151.263L37.134,154.65L39.573,154.7L42.098,148.487L44.541,148.425L47.065,147.55L49.589,147.413L52.032,144.875L54.56,142.975L57.003,140.738L59.528,134.338L62.052,134.063L64.332,134.663L66.857,137.038L69.296,138.65L71.821,135.413L74.264,136.013L76.788,138.688L79.313,141.038L81.756,140.388L84.283,139.138L86.726,139.788L89.251,131L91.775,132.4L94.055,134.463L96.58,137.65L99.019,137.613L101.544,129.413L103.987,130.25L106.511,133.55L109.036,136.362L111.479,139.35L114.007,138.088L116.45,142.413L118.974,134.488L121.498,136.563L123.86,135.175L126.384,142L128.824,142.088L131.348,137.925L133.791,138.025L136.316,141.163L138.84,144.275L141.283,144.3L143.811,144.362L146.254,146.388L148.779,139.4L151.303,139.6L153.583,142.713L156.107,146.038L158.547,146.475L161.072,142.975L163.515,142.113L166.039,146.062L168.563,147.463L171.006,148.288L173.534,146.2L175.977,150.038L178.502,144.813L181.026,143.863L183.306,148.925L185.831,149.575L188.27,151.45L190.795,148.5L193.238,146.175L195.762,148.313L198.287,152.225L200.73,153.888L203.257,151.737L205.7,154.538L208.225,145.225L210.749,148.963L213.029,152.288L215.55,155.038L217.993,155.363L220.518,149.7L222.961,145.563L225.485,148.4L228.01,149.363L230.453,151.175L232.977,148.7L235.423,148.588L237.948,141.575L240.472,144.925L242.834,146.612L245.355,150.413L247.798,142.863L250.322,137.125L252.765,132.638L255.29,132.138L257.814,135.263L260.257,134.663L262.782,128.35L265.228,122.713L267.752,105.663L270.277,105.025L272.557,102.963L275.078,105.313L277.521,99.263L280.045,93.413L282.488,92.6L285.013,93.637L287.537,98.05L289.98,97.9L292.505,100.65L294.951,99.688L297.476,84.988L300,92.313L300,103.313L297.476,96.838L294.951,109.65L292.505,110L289.98,107.713L287.537,109.65L285.013,107.613L282.488,106.712L280.045,105.8L277.521,108.038L275.078,112.5L272.557,110.438L270.277,112.063L267.752,113.813L265.228,129.1L262.782,134.938L260.257,141.563L257.814,142.425L255.29,141.15L252.765,142.263L250.322,145.3L247.798,148.625L245.355,155.075L242.834,151.925L240.472,149.575L237.948,147.463L235.423,154.225L232.977,154.725L230.453,157.325L228.01,155.925L225.485,157.088L222.961,154.363L220.518,156.85L217.993,160.712L215.55,160.138L213.029,157.525L210.749,154.025L208.225,151.175L205.7,159.475L203.257,156.737L200.73,159.188L198.287,157.175L195.762,155.75L193.238,154.413L190.795,155.725L188.27,156.813L185.831,154.75L183.306,154.688L181.026,149.763L178.502,150.525L175.977,154.95L173.534,152.375L171.006,154.563L168.563,154.563L166.039,154.363L163.515,150.65L161.072,151.488L158.547,152.138L156.107,152.013L153.583,148.563L151.303,145.5L148.779,146.338L146.254,152.625L143.811,150.788L141.283,151.313L138.84,151.375L136.316,149.613L133.791,147.288L131.348,145.175L128.824,147.938L126.384,147.413L123.86,141.8L121.498,142.688L118.974,140.875L116.45,148.862L114.007,144.863L111.479,145.6L109.036,143.313L106.511,142.863L103.987,139.613L101.544,138.213L99.019,143.588L96.58,143.15L94.055,141.038L91.775,138.438L89.251,138.138L86.726,145.362L84.283,144.988L81.756,146.625L79.313,147.663L76.788,146.138L74.264,144.075L71.821,142.425L69.296,144.7L66.857,142.625L64.332,140.625L62.052,140.413L59.528,140.413L57.003,145.975L54.56,148.225L52.032,150.238L49.589,152.888L47.065,154.3L44.541,155.275L42.098,155.05L39.573,159.213L37.134,159.263L34.609,155.7L32.329,156.375L29.805,157.725L27.28,166.363L24.837,164.825L22.309,165.025L19.866,163.588L17.342,163.125L14.817,161.275L12.374,162.475L9.85,162.638L7.41,163.112L4.886,158.5L2.524,158.125L0,157.388Z" fill="#8ca252"/></g></g><path class="foreground" aria-hidden="true" d="" display="none"/></g><g transform="translate(0,0)"><path class="background" aria-hidden="true" d="M0,0h300v200h-300Z"/><g><g class="mark-area role-mark marks" role="graphics-object" aria-roledescription="area mark container"><path aria-label="date (year-month): 2000; Sum of count: 19; series: Mining and Extraction" role="graphics-symbol" aria-roledescription="area mark" d="M0,177.9L2.524,177.938L4.886,179.35L7.41,181.725L9.85,181.275L12.374,181.925L14.817,181.75L17.342,181.913L19.866,181.5L22.309,183.525L24.837,183.363L27.28,184.4L29.805,181.2L32.329,179.275L34.609,179.688L37.134,181.1L39.573,181.688L42.098,179.3L44.541,181.188L47.065,179.3L49.589,179.325L52.032,177.75L54.56,176.775L57.003,175.788L59.528,172.75L62.052,172.263L64.332,173.238L66.857,174.275L69.296,175.65L71.821,173.375L74.264,174.675L76.788,174.413L79.313,175.063L81.756,174.288L84.283,173.9L86.726,174.925L89.251,170.563L91.775,172.125L94.055,172.588L96.58,173.813L99.019,173.038L101.544,169.7L103.987,170.075L106.511,173.612L109.036,173.325L111.479,172.55L114.007,173.375L116.45,175.538L118.974,171.413L121.498,171.125L123.86,171.025L126.384,173.625L128.824,174.6L131.348,174.15L133.791,174.263L136.316,175.125L138.84,174.925L141.283,175.337L143.811,175.888L146.254,176.313L148.779,171.963L151.303,171.763L153.583,173.85L156.107,175.175L158.547,175.038L161.072,174.65L163.515,175.075L166.039,176.45L168.563,176.875L171.006,176.538L173.534,176.888L175.977,177.638L178.502,172.938L181.026,174.513L183.306,176.363L185.831,176.737L188.27,177.663L190.795,176.863L193.238,175.737L195.762,176.588L198.287,177.325L200.73,178.3L203.257,177.675L205.7,177.838L208.225,173.75L210.749,176.425L213.029,178.725L215.55,180.737L217.993,180.613L220.518,177.9L222.961,175.025L225.485,177.25L228.01,177.038L230.453,179.325L232.977,178.225L235.423,177.45L237.948,174.737L240.472,175.438L242.834,176.05L245.355,177.737L247.798,175.163L250.322,172.463L252.765,170.025L255.29,168.975L257.814,169.663L260.257,170.325L262.782,167.438L265.228,163.4L267.752,156.688L270.277,156.1L272.557,156.038L275.078,157.625L277.521,156.938L280.045,156.363L282.488,156.225L285.013,155.862L287.537,155.987L289.98,154.575L292.505,155.613L294.951,154.988L297.476,147.275L300,149.7L300,150.688L297.476,148.125L294.951,156.1L292.505,156.813L289.98,155.625L287.537,156.938L285.013,157.025L282.488,157.413L280.045,157.613L277.521,158.163L275.078,159.188L272.557,157.35L270.277,156.888L267.752,157.425L265.228,163.975L262.782,167.838L260.257,170.513L257.814,169.975L255.29,169.188L252.765,170.188L250.322,172.813L247.798,175.513L245.355,178.088L242.834,176.4L240.472,175.638L237.948,175.088L235.423,177.75L232.977,178.425L230.453,179.438L228.01,177.35L225.485,177.663L222.961,175.438L220.518,178.313L217.993,180.888L215.55,180.95L213.029,179.025L210.749,176.838L208.225,174.188L205.7,178.15L203.257,177.95L200.73,178.488L198.287,177.5L195.762,176.988L193.238,176.05L190.795,177.25L188.27,177.913L185.831,176.95L183.306,176.538L181.026,174.825L178.502,173.263L175.977,177.925L173.534,177.113L171.006,176.563L168.563,177.025L166.039,176.6L163.515,175.35L161.072,174.963L158.547,175.238L156.107,175.413L153.583,174.25L151.303,172.075L148.779,172.325L146.254,176.513L143.811,176.138L141.283,175.525L138.84,175.025L136.316,175.25L133.791,174.612L131.348,174.487L128.824,174.875L126.384,174.05L123.86,171.3L121.498,171.425L118.974,171.8L116.45,175.938L114.007,173.8L111.479,172.938L109.036,173.638L106.511,173.862L103.987,170.613L101.544,170.15L99.019,173.538L96.58,174.325L94.055,173.163L91.775,172.638L89.251,171.238L86.726,175.487L84.283,174.3L81.756,174.737L79.313,175.588L76.788,174.813L74.264,174.913L71.821,173.813L69.296,175.963L66.857,174.688L64.332,173.588L62.052,172.7L59.528,173.163L57.003,176.125L54.56,177.025L52.032,178.15L49.589,179.613L47.065,179.525L44.541,181.4L42.098,179.625L39.573,182.112L37.134,181.4L34.609,179.862L32.329,179.613L29.805,181.338L27.28,184.65L24.837,183.5L22.309,184.013L19.866,181.813L17.342,182.2L14.817,181.95L12.374,182.088L9.85,181.613L7.41,181.975L4.886,179.563L2.524,178.25L0,178.138Z" fill="#bd9e39"/></g></g><path class="foreground" aria-hidden="true" d="" display="none"/></g><g transform="translate(0,0)"><path class="background" aria-hidden="true" d="M0,0h300v200h-300Z"/><g><g class="mark-area role-mark marks" role="graphics-object" aria-roledescription="area mark container"><path aria-label="date (year-month): 2000; Sum of count: 745; series: Construction" role="graphics-symbol" aria-roledescription="area mark" d="M0,135.438L2.524,135.5L4.886,138.663L7.41,147.588L9.85,145.325L12.374,141.725L14.817,141.313L17.342,141.975L19.866,146.35L22.309,147.888L24.837,147.313L27.28,148.388L29.805,133.237L32.329,134.1L34.609,134.388L37.134,140.038L39.573,141.463L42.098,133.888L44.541,132.813L47.065,130.388L49.589,132.263L52.032,128.6L54.56,124.15L57.003,121.663L59.528,108.538L62.052,109.462L64.332,111.713L66.857,116.538L69.296,119.913L71.821,115.362L74.264,115.888L76.788,117.975L79.313,122.588L81.756,121.525L84.283,119.288L86.726,117.025L89.251,104.975L91.775,106.663L94.055,111.188L96.58,116.325L99.019,116.95L101.544,106.45L103.987,109.525L106.511,111.65L109.036,115.925L111.479,119.438L114.007,117.3L116.45,120.962L118.974,108.75L121.498,111.437L123.86,110.95L126.384,120.125L128.824,122.875L131.348,115.775L133.791,117.5L136.316,122.138L138.84,124.325L141.283,125.313L143.811,124.925L146.254,124.863L148.779,115.1L151.303,113.725L153.583,119.762L156.107,126.8L158.547,127.688L161.072,123.813L163.515,123.95L166.039,127.25L168.563,128.838L171.006,130.763L173.534,127.338L175.977,130.713L178.502,123.638L181.026,123.462L183.306,127.913L185.831,130.512L188.27,132.963L190.795,129.938L193.238,125.913L195.762,129.663L198.287,134.763L200.73,138.913L203.257,134.45L205.7,136.362L208.225,123.75L210.749,125.588L213.029,131.4L215.55,134.55L217.993,135.625L220.518,130.25L222.961,125.7L225.485,128.688L228.01,130.088L230.453,132.65L232.977,130.8L235.423,126.038L237.948,117.075L240.472,119.888L242.834,120.337L245.355,126.262L247.798,120.5L250.322,114.738L252.765,108.775L255.29,106.3L257.814,107.95L260.257,105.8L262.782,97.363L265.228,88.1L267.752,66.825L270.277,61.163L272.557,58.6L275.078,64.538L277.521,57.9L280.045,51.15L282.488,48.525L285.013,51.8L287.537,54.2L289.98,52.025L292.505,56.062L294.951,51.038L297.476,35.088L300,37.963L300,68.463L297.476,62.512L294.951,76.588L292.505,78.313L289.98,73.825L287.537,74.125L285.013,71.075L282.488,69.613L280.045,71.163L277.521,80L275.078,86.25L272.557,83.337L270.277,86.475L267.752,88.625L265.228,106.075L262.782,112.825L260.257,119.275L257.814,120.075L255.29,116.475L252.765,118.563L250.322,124.55L247.798,130.613L245.355,139.475L242.834,134.963L240.472,133.862L237.948,130.813L235.423,138.138L232.977,138.863L230.453,140.663L228.01,137.538L225.485,135.663L222.961,133.413L220.518,137.75L217.993,144.075L215.55,145.213L213.029,142.95L210.749,139.163L208.225,135.275L205.7,145.425L203.257,142.175L200.73,144.612L198.287,142.088L195.762,137.388L193.238,133.825L190.795,137.05L188.27,141.05L185.831,138.938L183.306,138.163L181.026,133.913L178.502,134.488L175.977,140.875L173.534,134.388L171.006,137.25L168.563,135.987L166.039,134.263L163.515,130.313L161.072,130.8L158.547,134.775L156.107,135.463L153.583,131.775L151.303,128.1L148.779,128.587L146.254,135.738L143.811,133.613L141.283,133.25L138.84,132.188L136.316,129.175L133.791,125.125L131.348,124.125L128.824,131.188L126.384,130.737L123.86,123.588L121.498,124.425L118.974,121.175L116.45,131.125L114.007,125.925L111.479,127.575L109.036,124.438L106.511,119.775L103.987,117.988L101.544,115.325L99.019,125.888L96.58,125.975L94.055,123.525L91.775,121.325L89.251,119.925L86.726,128.788L84.283,128.762L81.756,130.025L79.313,130.275L76.788,126.15L74.264,123.313L71.821,122.775L69.296,127.738L66.857,127.225L64.332,124.325L62.052,122.713L59.528,123.675L57.003,131.475L54.56,132.525L52.032,135.288L49.589,138.375L47.065,136.913L44.541,138.4L42.098,139.425L39.573,147.438L37.134,147.487L34.609,142.925L32.329,144.425L29.805,143.688L27.28,155.638L24.837,153.338L22.309,153.1L19.866,151.175L17.342,147.55L14.817,146.113L12.374,146.588L9.85,150.288L7.41,153.175L4.886,147.025L2.524,145.65L0,144.75Z" fill="#6b6ecf"/></g></g><path class="foreground" aria-hidden="true" d="" display="none"/></g><g transform="translate(0,0)"><path class="background" aria-hidden="true" d="M0,0h300v200h-300Z"/><g><g class="mark-area role-mark marks" role="graphics-object" aria-roledescription="area mark container"><path aria-label="date (year-month): 2000; Sum of count: 734; series: Manufacturing" role="graphics-symbol" aria-roledescription="area mark" d="M0,168.725L2.524,169.263L4.886,170.113L7.41,172.525L9.85,172.713L12.374,174.163L14.817,172.9L17.342,173.35L19.866,173.163L22.309,174.863L24.837,174.963L27.28,176.238L29.805,169.813L32.329,168L34.609,167.763L37.134,170.413L39.573,170.4L42.098,167.35L44.541,168.013L47.065,166.513L49.589,166.875L52.032,164.438L54.56,162.925L57.003,161.138L59.528,155.538L62.052,156.063L64.332,156.15L66.857,157.75L69.296,160.725L71.821,158.538L74.264,159.862L76.788,160.563L79.313,161.613L81.756,161.213L84.283,159.963L86.726,160.075L89.251,154.288L91.775,156.763L94.055,157.313L96.58,158.825L99.019,158.663L101.544,154.3L103.987,155.163L106.511,158.788L109.036,158.638L111.479,159.538L114.007,160.45L116.45,162.725L118.974,157.538L121.498,157.45L123.86,157.488L126.384,161.075L128.824,162.525L131.348,162.188L133.791,161.525L136.316,164.625L138.84,164.275L141.283,164.288L143.811,164.575L146.254,165.413L148.779,160.85L151.303,160.65L153.583,162.863L156.107,165.263L158.547,165.75L161.072,165.362L163.515,164.038L166.039,166.863L168.563,167.188L171.006,166.538L173.534,166.6L175.977,168.175L178.502,163.213L181.026,164.25L183.306,167.6L185.831,167.425L188.27,169.163L190.795,168.925L193.238,166.538L195.762,168.087L198.287,169.425L200.73,170.575L203.257,168.9L205.7,169.588L208.225,164.35L210.749,166.75L213.029,169.45L215.55,171.375L217.993,172.475L220.518,169.738L222.961,167.263L225.485,169.8L228.01,168.625L230.453,170.213L232.977,168.7L235.423,167.8L237.948,164.275L240.472,165.188L242.834,165.663L245.355,167.788L247.798,164.175L250.322,161.688L252.765,158.675L255.29,156.975L257.814,157.363L260.257,157.738L262.782,153.138L265.228,146.963L267.752,135.3L270.277,133.325L272.557,132.138L275.078,133.025L277.521,131.813L280.045,131.237L282.488,131.375L285.013,132.538L287.537,132.538L289.98,131.025L292.505,132.088L294.951,133.15L297.476,123.3L300,127.025L300,149.7L297.476,147.275L294.951,154.988L292.505,155.613L289.98,154.575L287.537,155.987L285.013,155.862L282.488,156.225L280.045,156.363L277.521,156.938L275.078,157.625L272.557,156.038L270.277,156.1L267.752,156.688L265.228,163.4L262.782,167.438L260.257,170.325L257.814,169.663L255.29,168.975L252.765,170.025L250.322,172.463L247.798,175.163L245.355,177.737L242.834,176.05L240.472,175.438L237.948,174.737L235.423,177.45L232.977,178.225L230.453,179.325L228.01,177.038L225.485,177.25L222.961,175.025L220.518,177.9L217.993,180.613L215.55,180.737L213.029,178.725L210.749,176.425L208.225,173.75L205.7,177.838L203.257,177.675L200.73,178.3L198.287,177.325L195.762,176.588L193.238,175.737L190.795,176.863L188.27,177.663L185.831,176.737L183.306,176.363L181.026,174.513L178.502,172.938L175.977,177.638L173.534,176.888L171.006,176.538L168.563,176.875L166.039,176.45L163.515,175.075L161.072,174.65L158.547,175.038L156.107,175.175L153.583,173.85L151.303,171.763L148.779,171.963L146.254,176.313L143.811,175.888L141.283,175.337L138.84,174.925L136.316,175.125L133.791,174.263L131.348,174.15L128.824,174.6L126.384,173.625L123.86,171.025L121.498,171.125L118.974,171.413L116.45,175.538L114.007,173.375L111.479,172.55L109.036,173.325L106.511,173.612L103.987,170.075L101.544,169.7L99.019,173.038L96.58,173.813L94.055,172.588L91.775,172.125L89.251,170.563L86.726,174.925L84.283,173.9L81.756,174.288L79.313,175.063L76.788,174.413L74.264,174.675L71.821,173.375L69.296,175.65L66.857,174.275L64.332,173.238L62.052,172.263L59.528,172.75L57.003,175.788L54.56,176.775L52.032,177.75L49.589,179.325L47.065,179.3L44.541,181.188L42.098,179.3L39.573,181.688L37.134,181.1L34.609,179.688L32.329,179.275L29.805,181.2L27.28,184.4L24.837,183.363L22.309,183.525L19.866,181.5L17.342,181.913L14.817,181.75L12.374,181.925L9.85,181.275L7.41,181.725L4.886,179.35L2.524,177.938L0,177.9Z" fill="#8c6d31"/></g></g><path class="foreground" aria-hidden="true" d="" display="none"/></g><g transform="translate(0,0)"><path class="background" aria-hidden="true" d="M0,0h300v200h-300Z"/><g><g class="mark-area role-mark marks" role="graphics-object" aria-roledescription="area mark container"><path aria-label="date (year-month): 2000; Sum of count: 1000; series: Wholesale and Retail Trade" role="graphics-symbol" aria-roledescription="area mark" d="M0,187.5L2.524,187.213L4.886,187.713L7.41,190.088L9.85,189.738L12.374,189.538L14.817,190.1L17.342,189.338L19.866,190.112L22.309,190.763L24.837,191.237L27.28,191.063L29.805,188.65L32.329,187.625L34.609,187.038L37.134,189.75L39.573,189.063L42.098,188.063L44.541,189.588L47.065,188.4L49.589,188.3L52.032,188.237L54.56,186.925L57.003,186.575L59.528,184.85L62.052,184.2L64.332,184.138L66.857,184.725L69.296,185.775L71.821,184.5L74.264,185.85L76.788,185.375L79.313,185.363L81.756,184.85L84.283,184.475L86.726,185.625L89.251,183.225L91.775,184.525L94.055,185.263L96.58,184.987L99.019,184.413L101.544,182.075L103.987,182.663L106.511,185.488L109.036,184.638L111.479,185.138L114.007,185.55L116.45,186.488L118.974,182.638L121.498,182.888L123.86,182.675L126.384,184.4L128.824,185.213L131.348,185.225L133.791,185.463L136.316,186.513L138.84,185.913L141.283,185.775L143.811,186.938L146.254,186.775L148.779,183.725L151.303,183.738L153.583,185.338L156.107,185.863L158.547,185.688L161.072,185.038L163.515,185.075L166.039,185.875L168.563,187.025L171.006,186.875L173.534,187.338L175.977,187.9L178.502,184.963L181.026,185.738L183.306,187.225L185.831,187.85L188.27,187.188L190.795,186.438L193.238,186.463L195.762,187.788L198.287,187.4L200.73,187.85L203.257,187.275L205.7,187.938L208.225,185.425L210.749,186.938L213.029,188.8L215.55,189.1L217.993,190.063L220.518,187.763L222.961,186.388L225.485,187.15L228.01,187.163L230.453,188.663L232.977,188.837L235.423,187.388L237.948,186L240.472,187.413L242.834,187.6L245.355,188.513L247.798,186.888L250.322,185.5L252.765,183.388L255.29,182.925L257.814,184.038L260.257,183.588L262.782,182.538L265.228,180.813L267.752,177.575L270.277,176.913L272.557,176.85L275.078,177.088L277.521,177.063L280.045,176.713L282.488,176.825L285.013,177.575L287.537,177.388L289.98,176.013L292.505,176.513L294.951,176.863L297.476,173.075L300,174.113L300,200L297.476,200L294.951,200L292.505,200L289.98,200L287.537,200L285.013,200L282.488,200L280.045,200L277.521,200L275.078,200L272.557,200L270.277,200L267.752,200L265.228,200L262.782,200L260.257,200L257.814,200L255.29,200L252.765,200L250.322,200L247.798,200L245.355,200L242.834,200L240.472,200L237.948,200L235.423,200L232.977,200L230.453,200L228.01,200L225.485,200L222.961,200L220.518,200L217.993,200L215.55,200L213.029,200L210.749,200L208.225,200L205.7,200L203.257,200L200.73,200L198.287,200L195.762,200L193.238,200L190.795,200L188.27,200L185.831,200L183.306,200L181.026,200L178.502,200L175.977,200L173.534,200L171.006,200L168.563,200L166.039,200L163.515,200L161.072,200L158.547,200L156.107,200L153.583,200L151.303,200L148.779,200L146.254,200L143.811,200L141.283,200L138.84,200L136.316,200L133.791,200L131.348,200L128.824,200L126.384,200L123.86,200L121.498,200L118.974,200L116.45,200L114.007,200L111.479,200L109.036,200L106.511,200L103.987,200L101.544,200L99.019,200L96.58,200L94.055,200L91.775,200L89.251,200L86.726,200L84.283,200L81.756,200L79.313,200L76.788,200L74.264,200L71.821,200L69.296,200L66.857,200L64.332,200L62.052,200L59.528,200L57.003,200L54.56,200L52.032,200L49.589,200L47.065,200L44.541,200L42.098,200L39.573,200L37.134,200L34.609,200L32.329,200L29.805,200L27.28,200L24.837,200L22.309,200L19.866,200L17.342,200L14.817,200L12.374,200L9.85,200L7.41,200L4.886,200L2.524,200L0,200Z" fill="#ad494a"/></g></g><path class="foreground" aria-hidden="true" d="" display="none"/></g><g transform="translate(0,0)"><path class="background" aria-hidden="true" d="M0,0h300v200h-300Z"/><g><g class="mark-area role-mark marks" role="graphics-object" aria-roledescription="area mark container"><path aria-label="date (year-month): 2000; Sum of count: 236; series: Transportation and Utilities" role="graphics-symbol" aria-roledescription="area mark" d="M0,184.55L2.524,184.425L4.886,185.313L7.41,187.7L9.85,187.363L12.374,187.25L14.817,187.25L17.342,186.863L19.866,187.225L22.309,188.85L24.837,189.625L27.28,188.963L29.805,186.225L32.329,185.263L34.609,184.625L37.134,186.85L39.573,186.837L42.098,185.038L44.541,186.638L47.065,185.575L49.589,185.625L52.032,184.225L54.56,183.15L57.003,182.7L59.528,180.25L62.052,180.063L64.332,180.225L66.857,181.225L69.296,182.563L71.821,181.075L74.264,182.475L76.788,182.613L79.313,182.425L81.756,181.575L84.283,181.563L86.726,182.587L89.251,179.088L91.775,180.575L94.055,181.275L96.58,181.563L99.019,181.163L101.544,178.325L103.987,179.05L106.511,182.3L109.036,181.45L111.479,181.888L114.007,182.112L116.45,183.15L118.974,179.6L121.498,179.25L123.86,179.125L126.384,181.413L128.824,182.338L131.348,182.388L133.791,182.575L136.316,183.563L138.84,183.313L141.283,183.038L143.811,184.225L146.254,184.225L148.779,180.275L151.303,180.675L153.583,182L156.107,182.65L158.547,182.9L161.072,181.95L163.515,182.3L166.039,183.538L168.563,184.388L171.006,183.738L173.534,184.85L175.977,185.375L178.502,181.375L181.026,182.488L183.306,183.938L185.831,184.45L188.27,184.363L190.795,183.625L193.238,183.5L195.762,185.075L198.287,185.112L200.73,185.275L203.257,184.987L205.7,185.563L208.225,182.325L210.749,183.8L213.029,185.688L215.55,186.75L217.993,187.363L220.518,184.738L222.961,182.525L225.485,184.588L228.01,184.363L230.453,185.938L232.977,185.813L235.423,184.763L237.948,182.613L240.472,183.8L242.834,184.263L245.355,185.45L247.798,183.525L250.322,181.388L252.765,178.9L255.29,179.063L257.814,179.825L260.257,179.638L262.782,178.4L265.228,175.55L267.752,171.05L270.277,169.875L272.557,169.875L275.078,170.325L277.521,170.737L280.045,170.475L282.488,170.438L285.013,170.737L287.537,170.663L289.98,170.013L292.505,170.35L294.951,170.125L297.476,164.863L300,166.725L300,174.113L297.476,173.075L294.951,176.863L292.505,176.513L289.98,176.013L287.537,177.388L285.013,177.575L282.488,176.825L280.045,176.713L277.521,177.063L275.078,177.088L272.557,176.85L270.277,176.913L267.752,177.575L265.228,180.813L262.782,182.538L260.257,183.588L257.814,184.038L255.29,182.925L252.765,183.388L250.322,185.5L247.798,186.888L245.355,188.513L242.834,187.6L240.472,187.413L237.948,186L235.423,187.388L232.977,188.837L230.453,188.663L228.01,187.163L225.485,187.15L222.961,186.388L220.518,187.763L217.993,190.063L215.55,189.1L213.029,188.8L210.749,186.938L208.225,185.425L205.7,187.938L203.257,187.275L200.73,187.85L198.287,187.4L195.762,187.788L193.238,186.463L190.795,186.438L188.27,187.188L185.831,187.85L183.306,187.225L181.026,185.738L178.502,184.963L175.977,187.9L173.534,187.338L171.006,186.875L168.563,187.025L166.039,185.875L163.515,185.075L161.072,185.038L158.547,185.688L156.107,185.863L153.583,185.338L151.303,183.738L148.779,183.725L146.254,186.775L143.811,186.938L141.283,185.775L138.84,185.913L136.316,186.513L133.791,185.463L131.348,185.225L128.824,185.213L126.384,184.4L123.86,182.675L121.498,182.888L118.974,182.638L116.45,186.488L114.007,185.55L111.479,185.138L109.036,184.638L106.511,185.488L103.987,182.663L101.544,182.075L99.019,184.413L96.58,184.987L94.055,185.263L91.775,184.525L89.251,183.225L86.726,185.625L84.283,184.475L81.756,184.85L79.313,185.363L76.788,185.375L74.264,185.85L71.821,184.5L69.296,185.775L66.857,184.725L64.332,184.138L62.052,184.2L59.528,184.85L57.003,186.575L54.56,186.925L52.032,188.237L49.589,188.3L47.065,188.4L44.541,189.588L42.098,188.063L39.573,189.063L37.134,189.75L34.609,187.038L32.329,187.625L29.805,188.65L27.28,191.063L24.837,191.237L22.309,190.763L19.866,190.112L17.342,189.338L14.817,190.1L12.374,189.538L9.85,189.738L7.41,190.088L4.886,187.713L2.524,187.213L0,187.5Z" fill="#843c39"/></g></g><path class="foreground" aria-hidden="true" d="" display="none"/></g><g transform="translate(0,0)"><path class="background" aria-hidden="true" d="M0,0h300v200h-300Z"/><g><g class="mark-area role-mark marks" role="graphics-object" aria-roledescription="area mark container"><path aria-label="date (year-month): 2000; Sum of count: 125; series: Information" role="graphics-symbol" aria-roledescription="area mark" d="M0,157.388L2.524,158.125L4.886,158.5L7.41,163.112L9.85,162.638L12.374,162.475L14.817,161.275L17.342,163.125L19.866,163.588L22.309,165.025L24.837,164.825L27.28,166.363L29.805,157.725L32.329,156.375L34.609,155.7L37.134,159.263L39.573,159.213L42.098,155.05L44.541,155.275L47.065,154.3L49.589,152.888L52.032,150.238L54.56,148.225L57.003,145.975L59.528,140.413L62.052,140.413L64.332,140.625L66.857,142.625L69.296,144.7L71.821,142.425L74.264,144.075L76.788,146.138L79.313,147.663L81.756,146.625L84.283,144.988L86.726,145.362L89.251,138.138L91.775,138.438L94.055,141.038L96.58,143.15L99.019,143.588L101.544,138.213L103.987,139.613L106.511,142.863L109.036,143.313L111.479,145.6L114.007,144.863L116.45,148.862L118.974,140.875L121.498,142.688L123.86,141.8L126.384,147.413L128.824,147.938L131.348,145.175L133.791,147.288L136.316,149.613L138.84,151.375L141.283,151.313L143.811,150.788L146.254,152.625L148.779,146.338L151.303,145.5L153.583,148.563L156.107,152.013L158.547,152.138L161.072,151.488L163.515,150.65L166.039,154.363L168.563,154.563L171.006,154.563L173.534,152.375L175.977,154.95L178.502,150.525L181.026,149.763L183.306,154.688L185.831,154.75L188.27,156.813L190.795,155.725L193.238,154.413L195.762,155.75L198.287,157.175L200.73,159.188L203.257,156.737L205.7,159.475L208.225,151.175L210.749,154.025L213.029,157.525L215.55,160.138L217.993,160.712L220.518,156.85L222.961,154.363L225.485,157.088L228.01,155.925L230.453,157.325L232.977,154.725L235.423,154.225L237.948,147.463L240.472,149.575L242.834,151.925L245.355,155.075L247.798,148.625L250.322,145.3L252.765,142.263L255.29,141.15L257.814,142.425L260.257,141.563L262.782,134.938L265.228,129.1L267.752,113.813L270.277,112.063L272.557,110.438L275.078,112.5L277.521,108.038L280.045,105.8L282.488,106.712L285.013,107.613L287.537,109.65L289.98,107.713L292.505,110L294.951,109.65L297.476,96.838L300,103.313L300,107.063L297.476,100.75L294.951,112.85L292.505,113.038L289.98,110.975L287.537,114.175L285.013,112.087L282.488,111.375L280.045,110.138L277.521,111.825L275.078,116.5L272.557,113.587L270.277,114.863L267.752,116.712L265.228,131.838L262.782,137.1L260.257,143.663L257.814,144.5L255.29,142.95L252.765,144.025L250.322,147.263L247.798,150.75L245.355,156.862L242.834,153.863L240.472,151.987L237.948,149.575L235.423,155.788L232.977,156.375L230.453,158.825L228.01,157.475L225.485,158.838L222.961,155.763L220.518,158.275L217.993,162.088L215.55,161.1L213.029,158.888L210.749,155.763L208.225,152.963L205.7,160.825L203.257,158.45L200.73,160.638L198.287,159.3L195.762,157.4L193.238,155.7L190.795,157.15L188.27,158.788L185.831,156.4L183.306,156.138L181.026,151.25L178.502,151.838L175.977,156.55L173.534,154.525L171.006,156.588L168.563,156.663L166.039,156.313L163.515,152.425L161.072,153.488L158.547,153.95L156.107,154.238L153.583,150.775L151.303,148.05L148.779,148.438L146.254,154.788L143.811,153.125L141.283,153.625L138.84,153.6L136.316,152L133.791,149.463L131.348,147.325L128.824,150.313L126.384,149.513L123.86,144.5L121.498,145.113L118.974,143.825L116.45,151.663L114.007,148.075L111.479,147.875L109.036,146.413L106.511,145.663L103.987,142.413L101.544,141.2L99.019,146.725L96.58,146.5L94.055,144.375L91.775,142.45L89.251,141.175L86.726,148.55L84.283,147.737L81.756,149.263L79.313,150.55L76.788,149.513L74.264,147.375L71.821,145.613L69.296,147.95L66.857,145.838L64.332,143.95L62.052,143.9L59.528,143.7L57.003,149.413L54.56,151.238L52.032,153.15L49.589,155.625L47.065,156.925L44.541,157.85L42.098,157.088L39.573,161.263L37.134,161.112L34.609,157.55L32.329,157.738L29.805,159.738L27.28,168.25L24.837,166.288L22.309,166.225L19.866,165.213L17.342,164.913L14.817,163.075L12.374,163.75L9.85,164.275L7.41,164.3L4.886,160.25L2.524,159.525L0,158.95Z" fill="#b5cf6b"/></g></g><path class="foreground" aria-hidden="true" d="" display="none"/></g><g transform="translate(0,0)"><path class="background" aria-hidden="true" d="M0,0h300v200h-300Z"/><g><g class="mark-area role-mark marks" role="graphics-object" aria-roledescription="area mark container"><path aria-label="date (year-month): 2000; Sum of count: 228; series: Finance" role="graphics-symbol" aria-roledescription="area mark" d="M0,149.163L2.524,150.013L4.886,151.788L7.41,157.288L9.85,155.575L12.374,152.238L14.817,152.088L17.342,153.175L19.866,156.15L22.309,157.338L24.837,157.725L27.28,159.3L29.805,149.038L32.329,149.713L34.609,148.625L37.134,151.75L39.573,152.313L42.098,145.375L44.541,144.813L47.065,144.35L49.589,144.063L52.032,141.363L54.56,138.975L57.003,137.513L59.528,131L62.052,130.088L64.332,131.075L66.857,133.388L69.296,134.4L71.821,130.75L74.264,131.7L76.788,134.4L79.313,137.3L81.756,136.488L84.283,134.925L86.726,135.763L89.251,126.912L91.775,128.525L94.055,130L96.58,133.613L99.019,133.613L101.544,124.938L103.987,126.7L106.511,129.275L109.036,132.55L111.479,135.563L114.007,134.2L116.45,138.875L118.974,129.45L121.498,132.025L123.86,130.887L126.384,138.1L128.824,138.313L131.348,133.738L133.791,134.188L136.316,137.263L138.84,139.6L141.283,139.825L143.811,140.738L146.254,142.763L148.779,136.25L151.303,135.838L153.583,139.45L156.107,142.85L158.547,142.875L161.072,139.138L163.515,138.25L166.039,142.313L168.563,144.212L171.006,145.1L173.534,142.85L175.977,147.487L178.502,141.9L181.026,140.513L183.306,145.2L185.831,145.913L188.27,147.838L190.795,144.763L193.238,142.063L195.762,145.025L198.287,149.288L200.73,151.25L203.257,148.875L205.7,151.7L208.225,142.313L210.749,145.275L213.029,149.138L215.55,152.15L217.993,151.85L220.518,145.913L222.961,141.725L225.485,143.763L228.01,145.413L230.453,147.337L232.977,145.438L235.423,144.65L237.948,138.013L240.472,140.888L242.834,142.575L245.355,146.362L247.798,138.35L250.322,132.913L252.765,128.262L255.29,127.025L257.814,130.512L260.257,129.238L262.782,122.175L265.228,115.963L267.752,98.525L270.277,97.063L272.557,94.975L275.078,98.3L277.521,92.562L280.045,87L282.488,85.475L285.013,86.563L287.537,89.837L289.98,89.825L292.505,92.913L294.951,91.375L297.476,77.2L300,83.462L300,92.313L297.476,84.988L294.951,99.688L292.505,100.65L289.98,97.9L287.537,98.05L285.013,93.637L282.488,92.6L280.045,93.413L277.521,99.263L275.078,105.313L272.557,102.963L270.277,105.025L267.752,105.663L265.228,122.713L262.782,128.35L260.257,134.663L257.814,135.263L255.29,132.138L252.765,132.638L250.322,137.125L247.798,142.863L245.355,150.413L242.834,146.612L240.472,144.925L237.948,141.575L235.423,148.588L232.977,148.7L230.453,151.175L228.01,149.363L225.485,148.4L222.961,145.563L220.518,149.7L217.993,155.363L215.55,155.038L213.029,152.288L210.749,148.963L208.225,145.225L205.7,154.538L203.257,151.737L200.73,153.888L198.287,152.225L195.762,148.313L193.238,146.175L190.795,148.5L188.27,151.45L185.831,149.575L183.306,148.925L181.026,143.863L178.502,144.813L175.977,150.038L173.534,146.2L171.006,148.288L168.563,147.463L166.039,146.062L163.515,142.113L161.072,142.975L158.547,146.475L156.107,146.038L153.583,142.713L151.303,139.6L148.779,139.4L146.254,146.388L143.811,144.362L141.283,144.3L138.84,144.275L136.316,141.163L133.791,138.025L131.348,137.925L128.824,142.088L126.384,142L123.86,135.175L121.498,136.563L118.974,134.488L116.45,142.413L114.007,138.088L111.479,139.35L109.036,136.362L106.511,133.55L103.987,130.25L101.544,129.413L99.019,137.613L96.58,137.65L94.055,134.463L91.775,132.4L89.251,131L86.726,139.788L84.283,139.138L81.756,140.388L79.313,141.038L76.788,138.688L74.264,136.013L71.821,135.413L69.296,138.65L66.857,137.038L64.332,134.663L62.052,134.063L59.528,134.338L57.003,140.738L54.56,142.975L52.032,144.875L49.589,147.413L47.065,147.55L44.541,148.425L42.098,148.487L39.573,154.7L37.134,154.65L34.609,151.263L32.329,152.65L29.805,151.938L27.28,161.8L24.837,160.025L22.309,160.138L19.866,158.488L17.342,155.838L14.817,154.462L12.374,154.938L9.85,158.013L7.41,159.75L4.886,154.613L2.524,153.013L0,152.013Z" fill="#637939"/></g></g><path class="foreground" aria-hidden="true" d="" display="none"/></g><g transform="translate(0,0)"><path class="background" aria-hidden="true" d="M0,0h300v200h-300Z"/><g><g class="mark-area role-mark marks" role="graphics-object" aria-roledescription="area mark container"><path aria-label="date (year-month): 2000; Sum of count: 655; series: Business services" role="graphics-symbol" aria-roledescription="area mark" d="M0,127.25L2.524,128.163L4.886,130.875L7.41,141.125L9.85,138.313L12.374,134.913L14.817,133.363L17.342,134.675L19.866,139.363L22.309,141.588L24.837,140.475L27.28,141.338L29.805,124.063L32.329,125.05L34.609,126.238L37.134,131.85L39.573,133.313L42.098,125.212L44.541,123.675L47.065,120.513L49.589,122.138L52.032,117.225L54.56,112.325L57.003,110.15L59.528,94.538L62.052,97.3L64.332,99.663L66.857,104.65L69.296,107.625L71.821,101.875L74.264,102.45L76.788,106.4L79.313,110L81.756,109.5L84.283,106.425L86.726,104.05L89.251,91.075L91.775,92.413L94.055,96.313L96.58,102.875L99.019,103.138L101.544,92.8L103.987,96.762L106.511,100.638L109.036,103.738L111.479,106.763L114.007,105.45L116.45,109.112L118.974,95.375L121.498,99.388L123.86,98.463L126.384,110.725L128.824,112.637L131.348,105.6L133.791,107.625L136.316,111.575L138.84,114.95L141.283,115.55L143.811,114.025L146.254,113.925L148.779,103.125L151.303,102.275L153.583,109.675L156.107,117.875L158.547,118.563L161.072,114.525L163.515,113.9L166.039,118.15L168.563,118.063L171.006,121.413L173.534,118.45L175.977,120.863L178.502,113.325L181.026,112.95L183.306,117.612L185.831,122.463L188.27,124.275L190.795,120.525L193.238,116.725L195.762,121.15L198.287,125.563L200.73,129.313L203.257,126.225L205.7,126.475L208.225,112.688L210.749,115.275L213.029,121.713L215.55,125.937L217.993,126.337L220.518,121.225L222.961,116.412L225.485,120.15L228.01,121.9L230.453,124.213L232.977,122.313L235.423,116L237.948,105.913L240.472,109.063L242.834,109.388L245.355,117.063L247.798,110.138L250.322,103.613L252.765,97.95L255.29,94.288L257.814,96.063L260.257,92.65L262.782,84.963L265.228,73.763L267.752,48.762L270.277,42.263L272.557,38.637L275.078,46.438L277.521,38.975L280.045,31.4L282.488,29.388L285.013,32.3L287.537,34.25L289.98,33.425L292.505,37.138L294.951,32.462L297.476,14.912L300,16.213L300,37.963L297.476,35.088L294.951,51.038L292.505,56.062L289.98,52.025L287.537,54.2L285.013,51.8L282.488,48.525L280.045,51.15L277.521,57.9L275.078,64.538L272.557,58.6L270.277,61.163L267.752,66.825L265.228,88.1L262.782,97.363L260.257,105.8L257.814,107.95L255.29,106.3L252.765,108.775L250.322,114.738L247.798,120.5L245.355,126.262L242.834,120.337L240.472,119.888L237.948,117.075L235.423,126.038L232.977,130.8L230.453,132.65L228.01,130.088L225.485,128.688L222.961,125.7L220.518,130.25L217.993,135.625L215.55,134.55L213.029,131.4L210.749,125.588L208.225,123.75L205.7,136.362L203.257,134.45L200.73,138.913L198.287,134.763L195.762,129.663L193.238,125.913L190.795,129.938L188.27,132.963L185.831,130.512L183.306,127.913L181.026,123.462L178.502,123.638L175.977,130.713L173.534,127.338L171.006,130.763L168.563,128.838L166.039,127.25L163.515,123.95L161.072,123.813L158.547,127.688L156.107,126.8L153.583,119.762L151.303,113.725L148.779,115.1L146.254,124.863L143.811,124.925L141.283,125.313L138.84,124.325L136.316,122.138L133.791,117.5L131.348,115.775L128.824,122.875L126.384,120.125L123.86,110.95L121.498,111.437L118.974,108.75L116.45,120.962L114.007,117.3L111.479,119.438L109.036,115.925L106.511,111.65L103.987,109.525L101.544,106.45L99.019,116.95L96.58,116.325L94.055,111.188L91.775,106.663L89.251,104.975L86.726,117.025L84.283,119.288L81.756,121.525L79.313,122.588L76.788,117.975L74.264,115.888L71.821,115.362L69.296,119.913L66.857,116.538L64.332,111.713L62.052,109.462L59.528,108.538L57.003,121.663L54.56,124.15L52.032,128.6L49.589,132.263L47.065,130.388L44.541,132.813L42.098,133.888L39.573,141.463L37.134,140.038L34.609,134.388L32.329,134.1L29.805,133.237L27.28,148.388L24.837,147.313L22.309,147.888L19.866,146.35L17.342,141.975L14.817,141.313L12.374,141.725L9.85,145.325L7.41,147.588L4.886,138.663L2.524,135.5L0,135.438Z" fill="#5254a3"/></g></g><path class="foreground" aria-hidden="true" d="" display="none"/></g><g transform="translate(0,0)"><path class="background" aria-hidden="true" d="M0,0h300v200h-300Z"/><g><g class="mark-area role-mark marks" role="graphics-object" aria-roledescription="area mark container"><path aria-label="date (year-month): 2000; Sum of count: 353; series: Education and Health" role="graphics-symbol" aria-roledescription="area mark" d="M0,144.75L2.524,145.65L4.886,147.025L7.41,153.175L9.85,150.288L12.374,146.588L14.817,146.113L17.342,147.55L19.866,151.175L22.309,153.1L24.837,153.338L27.28,155.638L29.805,143.688L32.329,144.425L34.609,142.925L37.134,147.487L39.573,147.438L42.098,139.425L44.541,138.4L47.065,136.913L49.589,138.375L52.032,135.288L54.56,132.525L57.003,131.475L59.528,123.675L62.052,122.713L64.332,124.325L66.857,127.225L69.296,127.738L71.821,122.775L74.264,123.313L76.788,126.15L79.313,130.275L81.756,130.025L84.283,128.762L86.726,128.788L89.251,119.925L91.775,121.325L94.055,123.525L96.58,125.975L99.019,125.888L101.544,115.325L103.987,117.988L106.511,119.775L109.036,124.438L111.479,127.575L114.007,125.925L116.45,131.125L118.974,121.175L121.498,124.425L123.86,123.588L126.384,130.737L128.824,131.188L131.348,124.125L133.791,125.125L136.316,129.175L138.84,132.188L141.283,133.25L143.811,133.613L146.254,135.738L148.779,128.587L151.303,128.1L153.583,131.775L156.107,135.463L158.547,134.775L161.072,130.8L163.515,130.313L166.039,134.263L168.563,135.987L171.006,137.25L173.534,134.388L175.977,140.875L178.502,134.488L181.026,133.913L183.306,138.163L185.831,138.938L188.27,141.05L190.795,137.05L193.238,133.825L195.762,137.388L198.287,142.088L200.73,144.612L203.257,142.175L205.7,145.425L208.225,135.275L210.749,139.163L213.029,142.95L215.55,145.213L217.993,144.075L220.518,137.75L222.961,133.413L225.485,135.663L228.01,137.538L230.453,140.663L232.977,138.863L235.423,138.138L237.948,130.813L240.472,133.862L242.834,134.963L245.355,139.475L247.798,130.613L250.322,124.55L252.765,118.563L255.29,116.475L257.814,120.075L260.257,119.275L262.782,112.825L265.228,106.075L267.752,88.625L270.277,86.475L272.557,83.337L275.078,86.25L277.521,80L280.045,71.163L282.488,69.613L285.013,71.075L287.537,74.125L289.98,73.825L292.505,78.313L294.951,76.588L297.476,62.512L300,68.463L300,83.462L297.476,77.2L294.951,91.375L292.505,92.913L289.98,89.825L287.537,89.837L285.013,86.563L282.488,85.475L280.045,87L277.521,92.562L275.078,98.3L272.557,94.975L270.277,97.063L267.752,98.525L265.228,115.963L262.782,122.175L260.257,129.238L257.814,130.512L255.29,127.025L252.765,128.262L250.322,132.913L247.798,138.35L245.355,146.362L242.834,142.575L240.472,140.888L237.948,138.013L235.423,144.65L232.977,145.438L230.453,147.337L228.01,145.413L225.485,143.763L222.961,141.725L220.518,145.913L217.993,151.85L215.55,152.15L213.029,149.138L210.749,145.275L208.225,142.313L205.7,151.7L203.257,148.875L200.73,151.25L198.287,149.288L195.762,145.025L193.238,142.063L190.795,144.763L188.27,147.838L185.831,145.913L183.306,145.2L181.026,140.513L178.502,141.9L175.977,147.487L173.534,142.85L171.006,145.1L168.563,144.212L166.039,142.313L163.515,138.25L161.072,139.138L158.547,142.875L156.107,142.85L153.583,139.45L151.303,135.838L148.779,136.25L146.254,142.763L143.811,140.738L141.283,139.825L138.84,139.6L136.316,137.263L133.791,134.188L131.348,133.738L128.824,138.313L126.384,138.1L123.86,130.887L121.498,132.025L118.974,129.45L116.45,138.875L114.007,134.2L111.479,135.563L109.036,132.55L106.511,129.275L103.987,126.7L101.544,124.938L99.019,133.613L96.58,133.613L94.055,130L91.775,128.525L89.251,126.912L86.726,135.763L84.283,134.925L81.756,136.488L79.313,137.3L76.788,134.4L74.264,131.7L71.821,130.75L69.296,134.4L66.857,133.388L64.332,131.075L62.052,130.088L59.528,131L57.003,137.513L54.56,138.975L52.032,141.363L49.589,144.063L47.065,144.35L44.541,144.813L42.098,145.375L39.573,152.313L37.134,151.75L34.609,148.625L32.329,149.713L29.805,149.038L27.28,159.3L24.837,157.725L22.309,157.338L19.866,156.15L17.342,153.175L14.817,152.088L12.374,152.238L9.85,155.575L7.41,157.288L4.886,151.788L2.524,150.013L0,149.163Z" fill="#9c9ede"/></g></g><path class="foreground" aria-hidden="true" d="" display="none"/></g><g transform="translate(0,0)"><path class="background" aria-hidden="true" d="M0,0h300v200h-300Z"/><g><g class="mark-area role-mark marks" role="graphics-object" aria-roledescription="area mark container"><path aria-label="date (year-month): 2000; Sum of count: 782; series: Leisure and hospitality" role="graphics-symbol" aria-roledescription="area mark" d="M0,158.95L2.524,159.525L4.886,160.25L7.41,164.3L9.85,164.275L12.374,163.75L14.817,163.075L17.342,164.913L19.866,165.213L22.309,166.225L24.837,166.288L27.28,168.25L29.805,159.738L32.329,157.738L34.609,157.55L37.134,161.112L39.573,161.263L42.098,157.088L44.541,157.85L47.065,156.925L49.589,155.625L52.032,153.15L54.56,151.238L57.003,149.413L59.528,143.7L62.052,143.9L64.332,143.95L66.857,145.838L69.296,147.95L71.821,145.613L74.264,147.375L76.788,149.513L79.313,150.55L81.756,149.263L84.283,147.737L86.726,148.55L89.251,141.175L91.775,142.45L94.055,144.375L96.58,146.5L99.019,146.725L101.544,141.2L103.987,142.413L106.511,145.663L109.036,146.413L111.479,147.875L114.007,148.075L116.45,151.663L118.974,143.825L121.498,145.113L123.86,144.5L126.384,149.513L128.824,150.313L131.348,147.325L133.791,149.463L136.316,152L138.84,153.6L141.283,153.625L143.811,153.125L146.254,154.788L148.779,148.438L151.303,148.05L153.583,150.775L156.107,154.238L158.547,153.95L161.072,153.488L163.515,152.425L166.039,156.313L168.563,156.663L171.006,156.588L173.534,154.525L175.977,156.55L178.502,151.838L181.026,151.25L183.306,156.138L185.831,156.4L188.27,158.788L190.795,157.15L193.238,155.7L195.762,157.4L198.287,159.3L200.73,160.638L203.257,158.45L205.7,160.825L208.225,152.963L210.749,155.763L213.029,158.888L215.55,161.1L217.993,162.088L220.518,158.275L222.961,155.763L225.485,158.838L228.01,157.475L230.453,158.825L232.977,156.375L235.423,155.788L237.948,149.575L240.472,151.987L242.834,153.863L245.355,156.862L247.798,150.75L250.322,147.263L252.765,144.025L255.29,142.95L257.814,144.5L260.257,143.663L262.782,137.1L265.228,131.838L267.752,116.712L270.277,114.863L272.557,113.587L275.078,116.5L277.521,111.825L280.045,110.138L282.488,111.375L285.013,112.087L287.537,114.175L289.98,110.975L292.505,113.038L294.951,112.85L297.476,100.75L300,107.063L300,127.025L297.476,123.3L294.951,133.15L292.505,132.088L289.98,131.025L287.537,132.538L285.013,132.538L282.488,131.375L280.045,131.237L277.521,131.813L275.078,133.025L272.557,132.138L270.277,133.325L267.752,135.3L265.228,146.963L262.782,153.138L260.257,157.738L257.814,157.363L255.29,156.975L252.765,158.675L250.322,161.688L247.798,164.175L245.355,167.788L242.834,165.663L240.472,165.188L237.948,164.275L235.423,167.8L232.977,168.7L230.453,170.213L228.01,168.625L225.485,169.8L222.961,167.263L220.518,169.738L217.993,172.475L215.55,171.375L213.029,169.45L210.749,166.75L208.225,164.35L205.7,169.588L203.257,168.9L200.73,170.575L198.287,169.425L195.762,168.087L193.238,166.538L190.795,168.925L188.27,169.163L185.831,167.425L183.306,167.6L181.026,164.25L178.502,163.213L175.977,168.175L173.534,166.6L171.006,166.538L168.563,167.188L166.039,166.863L163.515,164.038L161.072,165.362L158.547,165.75L156.107,165.263L153.583,162.863L151.303,160.65L148.779,160.85L146.254,165.413L143.811,164.575L141.283,164.288L138.84,164.275L136.316,164.625L133.791,161.525L131.348,162.188L128.824,162.525L126.384,161.075L123.86,157.488L121.498,157.45L118.974,157.538L116.45,162.725L114.007,160.45L111.479,159.538L109.036,158.638L106.511,158.788L103.987,155.163L101.544,154.3L99.019,158.663L96.58,158.825L94.055,157.313L91.775,156.763L89.251,154.288L86.726,160.075L84.283,159.963L81.756,161.213L79.313,161.613L76.788,160.563L74.264,159.862L71.821,158.538L69.296,160.725L66.857,157.75L64.332,156.15L62.052,156.063L59.528,155.538L57.003,161.138L54.56,162.925L52.032,164.438L49.589,166.875L47.065,166.513L44.541,168.013L42.098,167.35L39.573,170.4L37.134,170.413L34.609,167.763L32.329,168L29.805,169.813L27.28,176.238L24.837,174.963L22.309,174.863L19.866,173.163L17.342,173.35L14.817,172.9L12.374,174.163L9.85,172.713L7.41,172.525L4.886,170.113L2.524,169.263L0,168.725Z" fill="#cedb9c"/></g></g><path class="foreground" aria-hidden="true" d="" display="none"/></g><g transform="translate(0,0)"><path class="background" aria-hidden="true" d="M0,0h300v200h-300Z"/><g><g class="mark-area role-mark marks" role="graphics-object" aria-roledescription="area mark container"><path aria-label="date (year-month): 2000; Sum of count: 274; series: Other" role="graphics-symbol" aria-roledescription="area mark" d="M0,178.138L2.524,178.25L4.886,179.563L7.41,181.975L9.85,181.613L12.374,182.088L14.817,181.95L17.342,182.2L19.866,181.813L22.309,184.013L24.837,183.5L27.28,184.65L29.805,181.338L32.329,179.613L34.609,179.862L37.134,181.4L39.573,182.112L42.098,179.625L44.541,181.4L47.065,179.525L49.589,179.613L52.032,178.15L54.56,177.025L57.003,176.125L59.528,173.163L62.052,172.7L64.332,173.588L66.857,174.688L69.296,175.963L71.821,173.813L74.264,174.913L76.788,174.813L79.313,175.588L81.756,174.737L84.283,174.3L86.726,175.487L89.251,171.238L91.775,172.638L94.055,173.163L96.58,174.325L99.019,173.538L101.544,170.15L103.987,170.613L106.511,173.862L109.036,173.638L111.479,172.938L114.007,173.8L116.45,175.938L118.974,171.8L121.498,171.425L123.86,171.3L126.384,174.05L128.824,174.875L131.348,174.487L133.791,174.612L136.316,175.25L138.84,175.025L141.283,175.525L143.811,176.138L146.254,176.513L148.779,172.325L151.303,172.075L153.583,174.25L156.107,175.413L158.547,175.238L161.072,174.963L163.515,175.35L166.039,176.6L168.563,177.025L171.006,176.563L173.534,177.113L175.977,177.925L178.502,173.263L181.026,174.825L183.306,176.538L185.831,176.95L188.27,177.913L190.795,177.25L193.238,176.05L195.762,176.988L198.287,177.5L200.73,178.488L203.257,177.95L205.7,178.15L208.225,174.188L210.749,176.838L213.029,179.025L215.55,180.95L217.993,180.888L220.518,178.313L222.961,175.438L225.485,177.663L228.01,177.35L230.453,179.438L232.977,178.425L235.423,177.75L237.948,175.088L240.472,175.638L242.834,176.4L245.355,178.088L247.798,175.513L250.322,172.813L252.765,170.188L255.29,169.188L257.814,169.975L260.257,170.513L262.782,167.838L265.228,163.975L267.752,157.425L270.277,156.888L272.557,157.35L275.078,159.188L277.521,158.163L280.045,157.613L282.488,157.413L285.013,157.025L287.537,156.938L289.98,155.625L292.505,156.813L294.951,156.1L297.476,148.125L300,150.688L300,158.225L297.476,155.737L294.951,162.513L292.505,162.95L289.98,162.388L287.537,162.713L285.013,163.625L282.488,163.538L280.045,164.575L277.521,164.112L275.078,164.225L272.557,162.063L270.277,162.55L267.752,162.813L265.228,168.563L262.782,173.263L260.257,174.688L257.814,174.65L255.29,174.337L252.765,174.588L250.322,176.838L247.798,178.95L245.355,181.225L242.834,179.938L240.472,179.55L237.948,178.388L235.423,180.688L232.977,181.613L230.453,181.712L228.01,180.563L225.485,180.65L222.961,178.475L220.518,181.513L217.993,183.913L215.55,183.75L213.029,181.8L210.749,180.05L208.225,177.625L205.7,181.975L203.257,181.775L200.73,181.838L198.287,181.375L195.762,181.25L193.238,179.862L190.795,180.563L188.27,181.225L185.831,180.275L183.306,180.188L181.026,178.338L178.502,177.113L175.977,181.288L173.534,180.862L171.006,180.55L168.563,180.862L166.039,180.425L163.515,178.775L161.072,178.6L158.547,179.163L156.107,179.238L153.583,178.1L151.303,176.138L148.779,175.95L146.254,179.963L143.811,179.813L141.283,179.275L138.84,178.788L136.316,179.513L133.791,178.938L131.348,178.563L128.824,178.75L126.384,178.388L123.86,175.875L121.498,176L118.974,175.825L116.45,179.413L114.007,178.263L111.479,177.663L109.036,177.862L106.511,178.525L103.987,175.675L101.544,174.638L99.019,177.775L96.58,178.462L94.055,177.788L91.775,176.775L89.251,175.038L86.726,178.5L84.283,177.85L81.756,178.138L79.313,179.1L76.788,179.225L74.264,179.363L71.821,178L69.296,179.263L66.857,178.038L64.332,177.513L62.052,176.938L59.528,176.963L57.003,179.588L54.56,180.225L52.032,181.138L49.589,182.425L47.065,182.538L44.541,184.25L42.098,182.7L39.573,184.263L37.134,184.15L34.609,182.363L32.329,182.65L29.805,183.8L27.28,186.738L24.837,186.213L22.309,186.025L19.866,184.563L17.342,184.538L14.817,184.475L12.374,184.9L9.85,184.788L7.41,184.975L4.886,182.65L2.524,181.15L0,181.563Z" fill="#e7ba52"/></g></g><path class="foreground" aria-hidden="true" d="" display="none"/></g><g transform="translate(0,0)"><path class="background" aria-hidden="true" d="M0,0h300v200h-300Z"/><g><g class="mark-area role-mark marks" role="graphics-object" aria-roledescription="area mark container"><path aria-label="date (year-month): 2000; Sum of count: 154; series: Agriculture" role="graphics-symbol" aria-roledescription="area mark" d="M0,125.325L2.524,126L4.886,128.975L7.41,139.438L9.85,137.4L12.374,133.55L14.817,132.4L17.342,133.3L19.866,137.813L22.309,140.175L24.837,138.075L27.28,138.888L29.805,121.713L32.329,122.638L34.609,122.9L37.134,130.1L39.573,131.95L42.098,123.588L44.541,122.262L47.065,118.75L49.589,120.875L52.032,115.75L54.56,110.513L57.003,107.75L59.528,92.1L62.052,94.962L64.332,96.3L66.857,102.763L69.296,106.513L71.821,100.763L74.264,101.025L76.788,104.838L79.313,108.85L81.756,108.288L84.283,104.712L86.726,102.55L89.251,89.088L91.775,90.263L94.055,94.3L96.58,100.95L99.019,101.475L101.544,91.625L103.987,95.35L106.511,98.475L109.036,102.513L111.479,105.063L114.007,103.6L116.45,107.4L118.974,93.075L121.498,97.288L123.86,96.55L126.384,109.388L128.824,111.4L131.348,104.275L133.791,105.875L136.316,110.288L138.84,113.85L141.283,114.275L143.811,112.387L146.254,111.863L148.779,101.213L151.303,100.937L153.583,107.938L156.107,116.825L158.547,117.738L161.072,113.575L163.515,113.038L166.039,116.9L168.563,116.475L171.006,120.35L173.534,116.975L175.977,119.275L178.502,111.575L181.026,111.213L183.306,116.15L185.831,121.45L188.27,123.288L190.795,120.087L193.238,116.038L195.762,120.2L198.287,124.587L200.73,128.35L203.257,124.663L205.7,124.737L208.225,111.088L210.749,113.687L213.029,120.175L215.55,125.1L217.993,125.538L220.518,120.488L222.961,115.913L225.485,119.475L228.01,121.238L230.453,123.625L232.977,121.313L235.423,114.8L237.948,104.5L240.472,107.375L242.834,107.2L245.355,115.712L247.798,108.962L250.322,102.538L252.765,96.388L255.29,92.9L257.814,95.013L260.257,91.438L262.782,83.475L265.228,70.9L267.752,45.7L270.277,39.125L272.557,35.625L275.078,44.238L277.521,37.275L280.045,29.125L282.488,27.137L285.013,29.862L287.537,32.375L289.98,31.35L292.505,34.888L294.951,28.812L297.476,10.938L300,12.65L300,16.213L297.476,14.912L294.951,32.462L292.505,37.138L289.98,33.425L287.537,34.25L285.013,32.3L282.488,29.388L280.045,31.4L277.521,38.975L275.078,46.438L272.557,38.637L270.277,42.263L267.752,48.762L265.228,73.763L262.782,84.963L260.257,92.65L257.814,96.063L255.29,94.288L252.765,97.95L250.322,103.613L247.798,110.138L245.355,117.063L242.834,109.388L240.472,109.063L237.948,105.913L235.423,116L232.977,122.313L230.453,124.213L228.01,121.9L225.485,120.15L222.961,116.412L220.518,121.225L217.993,126.337L215.55,125.937L213.029,121.713L210.749,115.275L208.225,112.688L205.7,126.475L203.257,126.225L200.73,129.313L198.287,125.563L195.762,121.15L193.238,116.725L190.795,120.525L188.27,124.275L185.831,122.463L183.306,117.612L181.026,112.95L178.502,113.325L175.977,120.863L173.534,118.45L171.006,121.413L168.563,118.063L166.039,118.15L163.515,113.9L161.072,114.525L158.547,118.563L156.107,117.875L153.583,109.675L151.303,102.275L148.779,103.125L146.254,113.925L143.811,114.025L141.283,115.55L138.84,114.95L136.316,111.575L133.791,107.625L131.348,105.6L128.824,112.637L126.384,110.725L123.86,98.463L121.498,99.388L118.974,95.375L116.45,109.112L114.007,105.45L111.479,106.763L109.036,103.738L106.511,100.638L103.987,96.762L101.544,92.8L99.019,103.138L96.58,102.875L94.055,96.313L91.775,92.413L89.251,91.075L86.726,104.05L84.283,106.425L81.756,109.5L79.313,110L76.788,106.4L74.264,102.45L71.821,101.875L69.296,107.625L66.857,104.65L64.332,99.663L62.052,97.3L59.528,94.538L57.003,110.15L54.56,112.325L52.032,117.225L49.589,122.138L47.065,120.513L44.541,123.675L42.098,125.212L39.573,133.313L37.134,131.85L34.609,126.238L32.329,125.05L29.805,124.063L27.28,141.338L24.837,140.475L22.309,141.588L19.866,139.363L17.342,134.675L14.817,133.363L12.374,134.913L9.85,138.313L7.41,141.125L4.886,130.875L2.524,128.163L0,127.25Z" fill="#393b79"/></g></g><path class="foreground" aria-hidden="true" d="" display="none"/></g><g transform="translate(0,0)"><path class="background" aria-hidden="true" d="M0,0h300v200h-300Z"/><g><g class="mark-area role-mark marks" role="graphics-object" aria-roledescription="area mark container"><path aria-label="date (year-month): 2000; Sum of count: 239; series: Self-employed" role="graphics-symbol" aria-roledescription="area mark" d="M0,181.563L2.524,181.15L4.886,182.65L7.41,184.975L9.85,184.788L12.374,184.9L14.817,184.475L17.342,184.538L19.866,184.563L22.309,186.025L24.837,186.213L27.28,186.738L29.805,183.8L32.329,182.65L34.609,182.363L37.134,184.15L39.573,184.263L42.098,182.7L44.541,184.25L47.065,182.538L49.589,182.425L52.032,181.138L54.56,180.225L57.003,179.588L59.528,176.963L62.052,176.938L64.332,177.513L66.857,178.038L69.296,179.263L71.821,178L74.264,179.363L76.788,179.225L79.313,179.1L81.756,178.138L84.283,177.85L86.726,178.5L89.251,175.038L91.775,176.775L94.055,177.788L96.58,178.462L99.019,177.775L101.544,174.638L103.987,175.675L106.511,178.525L109.036,177.862L111.479,177.663L114.007,178.263L116.45,179.413L118.974,175.825L121.498,176L123.86,175.875L126.384,178.388L128.824,178.75L131.348,178.563L133.791,178.938L136.316,179.513L138.84,178.788L141.283,179.275L143.811,179.813L146.254,179.963L148.779,175.95L151.303,176.138L153.583,178.1L156.107,179.238L158.547,179.163L161.072,178.6L163.515,178.775L166.039,180.425L168.563,180.862L171.006,180.55L173.534,180.862L175.977,181.288L178.502,177.113L181.026,178.338L183.306,180.188L185.831,180.275L188.27,181.225L190.795,180.563L193.238,179.862L195.762,181.25L198.287,181.375L200.73,181.838L203.257,181.775L205.7,181.975L208.225,177.625L210.749,180.05L213.029,181.8L215.55,183.75L217.993,183.913L220.518,181.513L222.961,178.475L225.485,180.65L228.01,180.563L230.453,181.712L232.977,181.613L235.423,180.688L237.948,178.388L240.472,179.55L242.834,179.938L245.355,181.225L247.798,178.95L250.322,176.838L252.765,174.588L255.29,174.337L257.814,174.65L260.257,174.688L262.782,173.263L265.228,168.563L267.752,162.813L270.277,162.55L272.557,162.063L275.078,164.225L277.521,164.112L280.045,164.575L282.488,163.538L285.013,163.625L287.537,162.713L289.98,162.388L292.505,162.95L294.951,162.513L297.476,155.737L300,158.225L300,166.725L297.476,164.863L294.951,170.125L292.505,170.35L289.98,170.013L287.537,170.663L285.013,170.737L282.488,170.438L280.045,170.475L277.521,170.737L275.078,170.325L272.557,169.875L270.277,169.875L267.752,171.05L265.228,175.55L262.782,178.4L260.257,179.638L257.814,179.825L255.29,179.063L252.765,178.9L250.322,181.388L247.798,183.525L245.355,185.45L242.834,184.263L240.472,183.8L237.948,182.613L235.423,184.763L232.977,185.813L230.453,185.938L228.01,184.363L225.485,184.588L222.961,182.525L220.518,184.738L217.993,187.363L215.55,186.75L213.029,185.688L210.749,183.8L208.225,182.325L205.7,185.563L203.257,184.987L200.73,185.275L198.287,185.112L195.762,185.075L193.238,183.5L190.795,183.625L188.27,184.363L185.831,184.45L183.306,183.938L181.026,182.488L178.502,181.375L175.977,185.375L173.534,184.85L171.006,183.738L168.563,184.388L166.039,183.538L163.515,182.3L161.072,181.95L158.547,182.9L156.107,182.65L153.583,182L151.303,180.675L148.779,180.275L146.254,184.225L143.811,184.225L141.283,183.038L138.84,183.313L136.316,183.563L133.791,182.575L131.348,182.388L128.824,182.338L126.384,181.413L123.86,179.125L121.498,179.25L118.974,179.6L116.45,183.15L114.007,182.112L111.479,181.888L109.036,181.45L106.511,182.3L103.987,179.05L101.544,178.325L99.019,181.163L96.58,181.563L94.055,181.275L91.775,180.575L89.251,179.088L86.726,182.587L84.283,181.563L81.756,181.575L79.313,182.425L76.788,182.613L74.264,182.475L71.821,181.075L69.296,182.563L66.857,181.225L64.332,180.225L62.052,180.063L59.528,180.25L57.003,182.7L54.56,183.15L52.032,184.225L49.589,185.625L47.065,185.575L44.541,186.638L42.098,185.038L39.573,186.837L37.134,186.85L34.609,184.625L32.329,185.263L29.805,186.225L27.28,188.963L24.837,189.625L22.309,188.85L19.866,187.225L17.342,186.863L14.817,187.25L12.374,187.25L9.85,187.363L7.41,187.7L4.886,185.313L2.524,184.425L0,184.55Z" fill="#e7cb94"/></g></g><path class="foreground" aria-hidden="true" d="" display="none"/></g></g><g class="mark-group role-legend" role="graphics-symbol" aria-roledescription="legend" aria-label="Symbol legend titled 'series' for fill color with 14 values: Agriculture, Business services, Construction, Education and Health, Finance, ending with Wholesale and Retail Trade"><g transform="translate(318,0)"><path class="background" aria-hidden="true" d="M0,0h152v196h-152Z" pointer-events="none"/><g><g class="mark-group role-legend-entry"><g transform="translate(0,16)"><path class="background" aria-hidden="true" d="M0,0h0v0h0Z" pointer-events="none"/><g><g class="mark-group role-scope" role="graphics-object" aria-roledescription="group mark container"><g transform="translate(0,0)"><path class="background" aria-hidden="true" d="M0,0h151.52734375v11h-151.52734375Z" pointer-events="none" opacity="1"/><g><g class="mark-symbol role-legend-symbol" pointer-events="none"><path transform="translate(6,6)" d="M5,0A5,5,0,1,1,-5,0A5,5,0,1,1,5,0" fill="#393b79" stroke-width="1.5" opacity="1"/></g><g class="mark-text role-legend-label" pointer-events="none"><text text-anchor="start" transform="translate(16,9)" font-family="sans-serif" font-size="10px" fill="#000" opacity="1">Agriculture</text></g></g><path class="foreground" aria-hidden="true" d="" pointer-events="none" display="none"/></g><g transform="translate(0,13)"><path class="background" aria-hidden="true" d="M0,0h151.52734375v11h-151.52734375Z" pointer-events="none" opacity="1"/><g><g class="mark-symbol role-legend-symbol" pointer-events="none"><path transform="translate(6,6)" d="M5,0A5,5,0,1,1,-5,0A5,5,0,1,1,5,0" fill="#5254a3" stroke-width="1.5" opacity="1"/></g><g class="mark-text role-legend-label" pointer-events="none"><text text-anchor="start" transform="translate(16,9)" font-family="sans-serif" font-size="10px" fill="#000" opacity="1">Business services</text></g></g><path class="foreground" aria-hidden="true" d="" pointer-events="none" display="none"/></g><g transform="translate(0,26)"><path class="background" aria-hidden="true" d="M0,0h151.52734375v11h-151.52734375Z" pointer-events="none" opacity="1"/><g><g class="mark-symbol role-legend-symbol" pointer-events="none"><path transform="translate(6,6)" d="M5,0A5,5,0,1,1,-5,0A5,5,0,1,1,5,0" fill="#6b6ecf" stroke-width="1.5" opacity="1"/></g><g class="mark-text role-legend-label" pointer-events="none"><text text-anchor="start" transform="translate(16,9)" font-family="sans-serif" font-size="10px" fill="#000" opacity="1">Construction</text></g></g><path class="foreground" aria-hidden="true" d="" pointer-events="none" display="none"/></g><g transform="translate(0,39)"><path class="background" aria-hidden="true" d="M0,0h151.52734375v11h-151.52734375Z" pointer-events="none" opacity="1"/><g><g class="mark-symbol role-legend-symbol" pointer-events="none"><path transform="translate(6,6)" d="M5,0A5,5,0,1,1,-5,0A5,5,0,1,1,5,0" fill="#9c9ede" stroke-width="1.5" opacity="1"/></g><g class="mark-text role-legend-label" pointer-events="none"><text text-anchor="start" transform="translate(16,9)" font-family="sans-serif" font-size="10px" fill="#000" opacity="1">Education and Health</text></g></g><path class="foreground" aria-hidden="true" d="" pointer-events="none" display="none"/></g><g transform="translate(0,52)"><path class="background" aria-hidden="true" d="M0,0h151.52734375v11h-151.52734375Z" pointer-events="none" opacity="1"/><g><g class="mark-symbol role-legend-symbol" pointer-events="none"><path transform="translate(6,6)" d="M5,0A5,5,0,1,1,-5,0A5,5,0,1,1,5,0" fill="#637939" stroke-width="1.5" opacity="1"/></g><g class="mark-text role-legend-label" pointer-events="none"><text text-anchor="start" transform="translate(16,9)" font-family="sans-serif" font-size="10px" fill="#000" opacity="1">Finance</text></g></g><path class="foreground" aria-hidden="true" d="" pointer-events="none" display="none"/></g><g transform="translate(0,65)"><path class="background" aria-hidden="true" d="M0,0h151.52734375v11h-151.52734375Z" pointer-events="none" opacity="1"/><g><g class="mark-symbol role-legend-symbol" pointer-events="none"><path transform="translate(6,6)" d="M5,0A5,5,0,1,1,-5,0A5,5,0,1,1,5,0" fill="#8ca252" stroke-width="1.5" opacity="1"/></g><g class="mark-text role-legend-label" pointer-events="none"><text text-anchor="start" transform="translate(16,9)" font-family="sans-serif" font-size="10px" fill="#000" opacity="1">Government</text></g></g><path class="foreground" aria-hidden="true" d="" pointer-events="none" display="none"/></g><g transform="translate(0,78)"><path class="background" aria-hidden="true" d="M0,0h151.52734375v11h-151.52734375Z" pointer-events="none" opacity="1"/><g><g class="mark-symbol role-legend-symbol" pointer-events="none"><path transform="translate(6,6)" d="M5,0A5,5,0,1,1,-5,0A5,5,0,1,1,5,0" fill="#b5cf6b" stroke-width="1.5" opacity="1"/></g><g class="mark-text role-legend-label" pointer-events="none"><text text-anchor="start" transform="translate(16,9)" font-family="sans-serif" font-size="10px" fill="#000" opacity="1">Information</text></g></g><path class="foreground" aria-hidden="true" d="" pointer-events="none" display="none"/></g><g transform="translate(0,91)"><path class="background" aria-hidden="true" d="M0,0h151.52734375v11h-151.52734375Z" pointer-events="none" opacity="1"/><g><g class="mark-symbol role-legend-symbol" pointer-events="none"><path transform="translate(6,6)" d="M5,0A5,5,0,1,1,-5,0A5,5,0,1,1,5,0" fill="#cedb9c" stroke-width="1.5" opacity="1"/></g><g class="mark-text role-legend-label" pointer-events="none"><text text-anchor="start" transform="translate(16,9)" font-family="sans-serif" font-size="10px" fill="#000" opacity="1">Leisure and hospitality</text></g></g><path class="foreground" aria-hidden="true" d="" pointer-events="none" display="none"/></g><g transform="translate(0,104)"><path class="background" aria-hidden="true" d="M0,0h151.52734375v11h-151.52734375Z" pointer-events="none" opacity="1"/><g><g class="mark-symbol role-legend-symbol" pointer-events="none"><path transform="translate(6,6)" d="M5,0A5,5,0,1,1,-5,0A5,5,0,1,1,5,0" fill="#8c6d31" stroke-width="1.5" opacity="1"/></g><g class="mark-text role-legend-label" pointer-events="none"><text text-anchor="start" transform="translate(16,9)" font-family="sans-serif" font-size="10px" fill="#000" opacity="1">Manufacturing</text></g></g><path class="foreground" aria-hidden="true" d="" pointer-events="none" display="none"/></g><g transform="translate(0,117)"><path class="background" aria-hidden="true" d="M0,0h151.52734375v11h-151.52734375Z" pointer-events="none" opacity="1"/><g><g class="mark-symbol role-legend-symbol" pointer-events="none"><path transform="translate(6,6)" d="M5,0A5,5,0,1,1,-5,0A5,5,0,1,1,5,0" fill="#bd9e39" stroke-width="1.5" opacity="1"/></g><g class="mark-text role-legend-label" pointer-events="none"><text text-anchor="start" transform="translate(16,9)" font-family="sans-serif" font-size="10px" fill="#000" opacity="1">Mining and Extraction</text></g></g><path class="foreground" aria-hidden="true" d="" pointer-events="none" display="none"/></g><g transform="translate(0,130)"><path class="background" aria-hidden="true" d="M0,0h151.52734375v11h-151.52734375Z" pointer-events="none" opacity="1"/><g><g class="mark-symbol role-legend-symbol" pointer-events="none"><path transform="translate(6,6)" d="M5,0A5,5,0,1,1,-5,0A5,5,0,1,1,5,0" fill="#e7ba52" stroke-width="1.5" opacity="1"/></g><g class="mark-text role-legend-label" pointer-events="none"><text text-anchor="start" transform="translate(16,9)" font-family="sans-serif" font-size="10px" fill="#000" opacity="1">Other</text></g></g><path class="foreground" aria-hidden="true" d="" pointer-events="none" display="none"/></g><g transform="translate(0,143)"><path class="background" aria-hidden="true" d="M0,0h151.52734375v11h-151.52734375Z" pointer-events="none" opacity="1"/><g><g class="mark-symbol role-legend-symbol" pointer-events="none"><path transform="translate(6,6)" d="M5,0A5,5,0,1,1,-5,0A5,5,0,1,1,5,0" fill="#e7cb94" stroke-width="1.5" opacity="1"/></g><g class="mark-text role-legend-label" pointer-events="none"><text text-anchor="start" transform="translate(16,9)" font-family="sans-serif" font-size="10px" fill="#000" opacity="1">Self-employed</text></g></g><path class="foreground" aria-hidden="true" d="" pointer-events="none" display="none"/></g><g transform="translate(0,156)"><path class="background" aria-hidden="true" d="M0,0h151.52734375v11h-151.52734375Z" pointer-events="none" opacity="1"/><g><g class="mark-symbol role-legend-symbol" pointer-events="none"><path transform="translate(6,6)" d="M5,0A5,5,0,1,1,-5,0A5,5,0,1,1,5,0" fill="#843c39" stroke-width="1.5" opacity="1"/></g><g class="mark-text role-legend-label" pointer-events="none"><text text-anchor="start" transform="translate(16,9)" font-family="sans-serif" font-size="10px" fill="#000" opacity="1">Transportation and Utilities</text></g></g><path class="foreground" aria-hidden="true" d="" pointer-events="none" display="none"/></g><g transform="translate(0,169)"><path class="background" aria-hidden="true" d="M0,0h151.52734375v11h-151.52734375Z" pointer-events="none" opacity="1"/><g><g class="mark-symbol role-legend-symbol" pointer-events="none"><path transform="translate(6,6)" d="M5,0A5,5,0,1,1,-5,0A5,5,0,1,1,5,0" fill="#ad494a" stroke-width="1.5" opacity="1"/></g><g class="mark-text role-legend-label" pointer-events="none"><text text-anchor="start" transform="translate(16,9)" font-family="sans-serif" font-size="10px" fill="#000" opacity="1">Wholesale and Retail Trade</text></g></g><path class="foreground" aria-hidden="true" d="" pointer-events="none" display="none"/></g></g></g><path class="foreground" aria-hidden="true" d="" pointer-events="none" display="none"/></g></g><g class="mark-text role-legend-title" pointer-events="none"><text text-anchor="start" transform="translate(0,9)" font-family="sans-serif" font-size="11px" font-weight="bold" fill="#000" opacity="1">series</text></g></g><path class="foreground" aria-hidden="true" d="" pointer-events="none" display="none"/></g></g></g><path class="foreground" aria-hidden="true" d="" display="none"/></g></g></g></svg>