<svg class="marks" width="483" height="239" viewBox="0 0 483 239" version="1.1" xmlns="http://www.w3.org/2000/svg" xmlns:xlink="http://www.w3.org/1999/xlink"><g transform="translate(18,5)"><g class="mark-group role-frame root"><g transform="translate(0,0)"><path class="background" d="M0.5,0.5h300v200h-300Z" style="fill: transparent; stroke: #ccc;"></path><g><g class="mark-group role-axis"><g transform="translate(0.5,200.5)"><path class="background" d="M0,0h0v0h0Z" style="pointer-events: none; fill: none;"></path><g><g class="mark-rule role-axis-grid" style="pointer-events: none;"><line transform="translate(0,-200)" x2="0" y2="200" style="fill: none; stroke: #ddd; stroke-width: 1; stroke-dasharray: ; opacity: 1;"></line><line transform="translate(27,-200)" x2="0" y2="200" style="fill: none; stroke: #ddd; stroke-width: 1; stroke-dasharray: ; opacity: 1;"></line><line transform="translate(55,-200)" x2="0" y2="200" style="fill: none; stroke: #ddd; stroke-width: 1; stroke-dasharray: ; opacity: 1;"></line><line transform="translate(82,-200)" x2="0" y2="200" style="fill: none; stroke: #ddd; stroke-width: 1; stroke-dasharray: ; opacity: 1;"></line><line transform="translate(109,-200)" x2="0" y2="200" style="fill: none; stroke: #ddd; stroke-width: 1; stroke-dasharray: ; opacity: 1;"></line><line transform="translate(136,-200)" x2="0" y2="200" style="fill: none; stroke: #ddd; stroke-width: 1; stroke-dasharray: ; opacity: 1;"></line><line transform="translate(164,-200)" x2="0" y2="200" style="fill: none; stroke: #ddd; stroke-width: 1; stroke-dasharray: ; opacity: 1;"></line><line transform="translate(191,-200)" x2="0" y2="200" style="fill: none; stroke: #ddd; stroke-width: 1; stroke-dasharray: ; opacity: 1;"></line><line transform="translate(218,-200)" x2="0" y2="200" style="fill: none; stroke: #ddd; stroke-width: 1; stroke-dasharray: ; opacity: 1;"></line><line transform="translate(245,-200)" x2="0" y2="200" style="fill: none; stroke: #ddd; stroke-width: 1; stroke-dasharray: ; opacity: 1;"></line><line transform="translate(273,-200)" x2="0" y2="200" style="fill: none; stroke: #ddd; stroke-width: 1; stroke-dasharray: ; opacity: 1;"></line><line transform="translate(300,-200)" x2="0" y2="200" style="fill: none; stroke: #ddd; stroke-width: 1; stroke-dasharray: ; opacity: 1;"></line></g></g></g></g><g class="mark-group role-scope pathgroup"><g transform="translate(0,0)"><path class="background" d="M0,0h300v200h-300Z" style="fill: none;"></path><g><g class="mark-area role-mark marks"><path d="M275,91L273,85L270,91L268,89L266,88L264,87L261,84L259,85L257,84L254,86L252,89L250,91L248,91L245,88L243,93L241,92L239,94L236,93L234,91L232,90L230,91L227,94L225,98L223,98L220,97L218,95L216,97L214,94L211,95L209,94L207,94L204,93L202,95L200,98L198,98L195,98L193,98L191,95L189,98L186,95L184,95L182,95L179,94L177,94L175,94L173,95L170,94L168,96L166,94L164,94L161,96L159,93L157,94L155,95L152,93L150,91L148,92L145,93L143,93L141,94L139,95L136,94L134,96L132,94L130,93L127,93L125,91L123,91L120,91L118,92L116,93L114,92L111,93L109,93L107,94L105,92L102,92L100,91L98,90L95,88L93,89L91,92L89,93L86,93L84,93L82,92L80,94L77,92L75,92L73,92L70,92L68,91L66,91L64,91L61,91L59,92L57,92L55,94L52,92L50,93L48,92L45,92L43,94L41,93L39,92L36,94L34,95L32,95L30,97L27,97L25,98L23,96L20,96L18,95L16,95L14,94L11,94L9,95L7,96L4,96L2,95L0,95L0,100L2,101L4,99L7,99L9,99L11,101L14,101L16,102L18,100L20,100L23,101L25,102L27,102L30,101L32,100L34,100L36,99L39,99L41,100L43,100L45,98L48,98L50,98L52,98L55,100L57,98L59,98L61,97L64,97L66,98L68,99L70,99L73,99L75,98L77,98L80,100L82,99L84,99L86,99L89,98L91,98L93,98L95,97L98,99L100,98L102,99L105,99L107,101L109,100L111,100L114,99L116,98L118,98L120,99L123,100L125,100L127,100L130,100L132,100L134,102L136,101L139,101L141,100L143,99L145,99L148,100L150,100L152,101L155,102L157,100L159,99L161,101L164,100L166,100L168,102L170,99L173,101L175,101L177,102L179,101L182,100L184,100L186,100L189,103L191,101L193,103L195,103L198,103L200,103L202,102L204,102L207,103L209,101L211,101L214,100L216,102L218,101L220,101L223,104L225,103L227,100L230,100L232,100L234,100L236,100L239,101L241,99L243,99L245,96L248,98L250,98L252,96L254,95L257,97L259,99L261,98L264,99L266,98L268,98L270,101L273,97L275,102Z" style="fill: #8ca252;"></path></g></g></g><g transform="translate(0,0)"><path class="background" d="M0,0h300v200h-300Z" style="fill: none;"></path><g><g class="mark-area role-mark marks"><path d="M275,149L273,147L270,146L268,144L266,144L264,145L261,146L259,148L257,147L254,144L252,141L250,144L248,142L245,139L243,133L241,131L239,130L236,128L234,128L232,127L230,127L227,126L225,125L223,128L220,127L218,128L216,126L214,123L211,123L209,122L207,123L204,123L202,123L200,123L198,124L195,124L193,125L191,124L189,121L186,121L184,120L182,121L179,122L177,123L175,122L173,121L170,121L168,124L166,124L164,123L161,123L159,124L157,122L155,124L152,123L150,124L148,123L145,122L143,122L141,125L139,127L136,127L134,126L132,125L130,124L127,123L125,125L123,127L120,127L118,124L116,124L114,128L111,128L109,130L107,127L105,127L102,125L100,128L98,130L95,128L93,129L91,128L89,129L86,131L84,132L82,131L80,129L77,127L75,126L73,126L70,127L68,130L66,128L64,128L61,128L59,131L57,130L55,132L52,127L50,127L48,125L45,124L43,125L41,126L39,123L36,121L34,122L32,124L30,123L27,126L25,120L23,120L20,119L18,118L16,121L14,121L11,121L9,118L7,117L4,120L2,120L0,121L0,121L2,121L4,121L7,118L9,118L11,121L14,121L16,121L18,118L20,119L23,120L25,121L27,126L30,124L32,124L34,122L36,122L39,123L41,126L43,126L45,125L48,126L50,127L52,128L55,133L57,131L59,131L61,129L64,128L66,129L68,130L70,128L73,127L75,126L77,127L80,130L82,132L84,133L86,131L89,129L91,128L93,130L95,128L98,130L100,128L102,126L105,127L107,128L109,131L111,128L114,128L116,125L118,125L120,128L123,127L125,126L127,124L130,124L132,125L134,126L136,127L139,127L141,126L143,122L145,122L148,124L150,124L152,124L155,124L157,122L159,124L161,124L164,123L166,125L168,124L170,122L173,122L175,123L177,124L179,122L182,121L184,120L186,121L189,121L191,124L193,125L195,124L198,124L200,124L202,124L204,123L207,123L209,122L211,123L214,123L216,126L218,128L220,127L223,128L225,126L227,127L230,127L232,127L234,128L236,128L239,130L241,132L243,134L245,140L248,143L250,145L252,143L254,145L257,149L259,149L261,148L264,146L266,145L268,145L270,147L273,148L275,150Z" style="fill: #bd9e39;"></path></g></g></g><g transform="translate(0,0)"><path class="background" d="M0,0h300v200h-300Z" style="fill: none;"></path><g><g class="mark-area role-mark marks"><path d="M275,37L273,35L270,42L268,44L266,42L264,43L261,42L259,40L257,42L254,45L252,48L250,46L248,47L245,49L243,58L241,61L239,66L236,66L234,65L232,66L230,69L227,71L225,74L223,72L220,72L218,70L216,74L214,76L211,76L209,75L207,74L204,73L202,75L200,78L198,77L195,77L193,74L191,74L189,79L186,78L184,80L182,78L179,75L177,73L175,75L173,77L170,75L168,75L166,73L164,73L161,77L159,74L157,76L155,76L152,74L150,73L148,72L145,74L143,74L141,71L139,69L136,70L134,74L132,74L130,74L127,73L125,72L123,70L120,69L118,73L116,71L114,68L111,68L109,68L107,73L105,71L102,72L100,70L98,68L95,67L93,66L91,72L89,71L86,70L84,67L82,66L80,71L77,72L75,73L73,74L70,71L68,71L66,70L64,72L61,71L59,69L57,67L55,68L52,73L50,74L48,76L45,77L43,76L41,77L39,78L36,81L34,80L32,78L30,78L27,78L25,84L23,84L20,83L18,83L16,81L14,81L11,80L9,82L7,83L4,80L2,78L0,78L0,88L2,88L4,88L7,89L9,87L11,85L14,85L16,86L18,88L20,88L23,90L25,92L27,88L30,89L32,87L34,88L36,87L39,83L41,83L43,83L45,83L48,83L50,83L52,83L55,83L57,81L59,82L61,81L64,80L66,78L68,78L70,79L73,81L75,81L77,82L80,83L82,81L84,82L86,82L89,81L91,81L93,75L95,76L98,76L100,79L102,81L105,80L107,83L109,80L111,81L114,81L116,82L118,81L120,77L123,78L125,80L127,81L130,82L132,83L134,85L136,83L139,83L141,83L143,83L145,81L148,79L150,79L152,81L155,83L157,83L159,81L161,87L164,84L166,84L168,86L170,84L173,85L175,82L177,81L179,83L182,85L184,86L186,85L189,89L191,85L193,88L195,88L198,88L200,87L202,83L204,81L207,81L209,82L211,84L214,84L216,86L218,84L220,86L223,87L225,87L227,82L230,79L232,76L234,75L236,78L239,79L241,77L243,76L245,71L248,72L250,71L252,70L254,67L257,62L259,62L261,62L264,63L266,64L268,66L270,68L273,63L275,68Z" style="fill: #6b6ecf;"></path></g></g></g><g transform="translate(0,0)"><path class="background" d="M0,0h300v200h-300Z" style="fill: none;"></path><g><g class="mark-area role-mark marks"><path d="M275,126L273,123L270,124L268,120L266,121L264,122L261,123L259,123L257,122L254,119L252,116L250,120L248,119L245,118L243,117L241,117L239,117L236,115L234,116L232,116L230,116L227,115L225,115L223,118L220,117L218,117L216,116L214,114L211,114L209,113L207,116L204,115L202,115L200,115L198,114L195,115L193,115L191,114L189,113L186,112L184,112L182,113L179,113L177,114L175,114L173,113L170,112L168,115L166,114L164,113L161,114L159,114L157,112L155,114L152,114L150,113L148,114L145,112L143,112L141,114L139,116L136,116L134,115L132,114L130,113L127,113L125,115L123,114L120,116L118,112L116,112L114,115L111,114L109,116L107,114L105,114L102,112L100,113L98,115L95,113L93,114L91,113L89,114L86,116L84,117L82,115L80,114L77,113L75,113L73,113L70,114L68,115L66,114L64,113L61,112L59,113L57,114L55,115L52,113L50,113L48,112L45,112L43,113L41,112L39,111L36,110L34,111L32,112L30,112L27,114L25,112L23,111L20,110L18,110L16,112L14,112L11,113L9,109L7,108L4,111L2,112L0,112L0,121L2,120L4,120L7,117L9,118L11,121L14,121L16,121L18,118L20,119L23,120L25,120L27,126L30,123L32,124L34,122L36,121L39,123L41,126L43,125L45,124L48,125L50,127L52,127L55,132L57,130L59,131L61,128L64,128L66,128L68,130L70,127L73,126L75,126L77,127L80,129L82,131L84,132L86,131L89,129L91,128L93,129L95,128L98,130L100,128L102,125L105,127L107,127L109,130L111,128L114,128L116,124L118,124L120,127L123,127L125,125L127,123L130,124L132,125L134,126L136,127L139,127L141,125L143,122L145,122L148,123L150,124L152,123L155,124L157,122L159,124L161,123L164,123L166,124L168,124L170,121L173,121L175,122L177,123L179,122L182,121L184,120L186,121L189,121L191,124L193,125L195,124L198,124L200,123L202,123L204,123L207,123L209,122L211,123L214,123L216,126L218,128L220,127L223,128L225,125L227,126L230,127L232,127L234,128L236,128L239,130L241,131L243,133L245,139L248,142L250,144L252,141L254,144L257,147L259,148L261,146L264,145L266,144L268,144L270,146L273,147L275,149Z" style="fill: #8c6d31;"></path></g></g></g><g transform="translate(0,0)"><path class="background" d="M0,0h300v200h-300Z" style="fill: none;"></path><g><g class="mark-area role-mark marks"><path d="M275,173L273,173L270,168L268,165L266,166L264,167L261,168L259,169L257,168L254,164L252,160L250,165L248,163L245,160L243,151L241,146L239,143L236,142L234,142L232,141L230,140L227,138L225,136L223,139L220,139L218,139L216,135L214,134L211,132L209,132L207,133L204,134L202,133L200,133L198,132L195,134L193,136L191,135L189,131L186,130L184,129L182,131L179,133L177,134L175,132L173,131L170,133L168,135L166,136L164,135L161,134L159,134L157,132L155,134L152,133L150,134L148,134L145,132L143,133L141,137L139,139L136,139L134,136L132,136L130,134L127,134L125,137L123,138L120,139L118,135L116,135L114,140L111,140L109,142L107,138L105,139L102,138L100,139L98,142L95,140L93,142L91,139L89,140L86,144L84,145L82,144L80,140L77,138L75,136L73,136L70,138L68,141L66,140L64,138L61,139L59,141L57,142L55,144L52,138L50,137L48,136L45,133L43,134L41,134L39,132L36,129L34,130L32,131L30,132L27,133L25,127L23,128L20,126L18,127L16,128L14,129L11,128L9,127L7,126L4,129L2,130L0,130L0,143L2,142L4,141L7,136L9,137L11,139L14,139L16,139L18,137L20,135L23,136L25,136L27,145L30,144L32,144L34,140L36,139L39,144L41,144L43,146L45,145L48,148L50,150L52,152L55,159L57,158L59,157L61,154L64,152L66,155L68,155L70,153L73,151L75,151L77,153L80,154L82,161L84,160L86,158L89,155L91,155L93,160L95,158L98,156L100,154L102,153L105,154L107,152L109,159L111,157L114,157L116,151L118,150L120,153L123,153L125,150L127,149L130,148L132,149L134,150L136,155L139,155L141,152L143,147L145,147L148,149L150,149L152,147L155,147L157,145L159,147L161,146L164,150L166,150L168,147L170,145L173,144L175,145L177,147L179,145L182,143L184,141L186,143L189,143L191,150L193,149L195,145L198,143L200,143L202,145L204,148L207,146L209,145L211,144L214,145L216,148L218,153L220,152L223,152L225,148L227,151L230,154L232,157L234,159L236,158L239,160L241,164L243,170L245,183L248,186L250,188L252,183L254,187L257,191L259,192L261,191L264,189L266,190L268,188L270,191L273,200L275,199Z" style="fill: #ad494a;"></path></g></g></g><g transform="translate(0,0)"><path class="background" d="M0,0h300v200h-300Z" style="fill: none;"></path><g><g class="mark-area role-mark marks"><path d="M275,166L273,165L270,161L268,158L266,160L264,160L261,161L259,162L257,161L254,158L252,154L250,158L248,156L245,154L243,146L241,142L239,139L236,138L234,138L232,136L230,136L227,135L225,133L223,136L220,136L218,136L216,133L214,131L211,130L209,129L207,130L204,130L202,130L200,130L198,130L195,131L193,132L191,132L189,129L186,128L184,127L182,128L179,130L177,131L175,129L173,128L170,129L168,131L166,132L164,131L161,131L159,132L157,129L155,132L152,131L150,131L148,131L145,130L143,130L141,134L139,136L136,135L134,134L132,134L130,131L127,132L125,134L123,135L120,136L118,132L116,132L114,136L111,136L109,139L107,135L105,136L102,135L100,136L98,139L95,137L93,138L91,136L89,137L86,140L84,141L82,140L80,137L77,135L75,133L73,133L70,136L68,137L66,136L64,135L61,135L59,138L57,138L55,140L52,134L50,133L48,132L45,131L43,132L41,131L39,129L36,126L34,127L32,129L30,129L27,131L25,125L23,126L20,124L18,124L16,126L14,127L11,126L9,124L7,123L4,126L2,127L0,127L0,130L2,130L4,129L7,126L9,127L11,128L14,129L16,128L18,127L20,126L23,128L25,127L27,133L30,132L32,131L34,130L36,129L39,132L41,134L43,134L45,133L48,136L50,137L52,138L55,144L57,142L59,141L61,139L64,138L66,140L68,141L70,138L73,136L75,136L77,138L80,140L82,144L84,145L86,144L89,140L91,139L93,142L95,140L98,142L100,139L102,138L105,139L107,138L109,142L111,140L114,140L116,135L118,135L120,139L123,138L125,137L127,134L130,134L132,136L134,136L136,139L139,139L141,137L143,133L145,132L148,134L150,134L152,133L155,134L157,132L159,134L161,134L164,135L166,136L168,135L170,133L173,131L175,132L177,134L179,133L182,131L184,129L186,130L189,131L191,135L193,136L195,134L198,132L200,133L202,133L204,134L207,133L209,132L211,132L214,134L216,135L218,139L220,139L223,139L225,136L227,138L230,140L232,141L234,142L236,142L239,143L241,146L243,151L245,160L248,163L250,165L252,160L254,164L257,168L259,169L261,168L264,167L266,166L268,165L270,168L273,173L275,173Z" style="fill: #843c39;"></path></g></g></g><g transform="translate(0,0)"><path class="background" d="M0,0h300v200h-300Z" style="fill: none;"></path><g><g class="mark-area role-mark marks"><path d="M275,102L273,97L270,101L268,98L266,98L264,99L261,98L259,99L257,97L254,95L252,96L250,98L248,98L245,96L243,99L241,99L239,101L236,100L234,100L232,100L230,100L227,100L225,103L223,104L220,101L218,101L216,102L214,100L211,101L209,101L207,103L204,102L202,102L200,103L198,103L195,103L193,103L191,101L189,103L186,100L184,100L182,100L179,101L177,102L175,101L173,101L170,99L168,102L166,100L164,100L161,101L159,99L157,100L155,102L152,101L150,100L148,100L145,99L143,99L141,100L139,101L136,101L134,102L132,100L130,100L127,100L125,100L123,100L120,99L118,98L116,98L114,99L111,100L109,100L107,101L105,99L102,99L100,98L98,99L95,97L93,98L91,98L89,98L86,99L84,99L82,99L80,100L77,98L75,98L73,99L70,99L68,99L66,98L64,97L61,97L59,98L57,98L55,100L52,98L50,98L48,98L45,98L43,100L41,100L39,99L36,99L34,100L32,100L30,101L27,102L25,102L23,101L20,100L18,100L16,102L14,101L11,101L9,99L7,99L4,99L2,101L0,100L0,102L2,102L4,101L7,100L9,101L11,102L14,102L16,104L18,102L20,102L23,103L25,104L27,104L30,102L32,102L34,102L36,101L39,101L41,102L43,103L45,101L48,101L50,101L52,101L55,103L57,102L59,101L61,100L64,100L66,101L68,102L70,103L73,102L75,101L77,101L80,103L82,102L84,103L86,103L89,101L91,101L93,101L95,100L98,102L100,101L102,101L105,102L107,103L109,103L111,102L114,102L116,100L118,100L120,101L123,102L125,102L127,102L130,102L132,102L134,104L136,103L139,103L141,102L143,101L145,101L148,102L150,101L152,103L155,104L157,102L159,102L161,102L164,102L166,101L168,104L170,101L173,103L175,103L177,103L179,103L182,102L184,102L186,102L189,104L191,103L193,104L195,104L198,104L200,105L202,104L204,103L207,105L209,102L211,102L214,101L216,104L218,103L220,104L223,106L225,104L227,102L230,101L232,101L234,102L236,102L239,103L241,101L243,102L245,99L248,101L250,101L252,100L254,99L257,101L259,103L261,103L264,103L266,101L268,101L270,104L273,101L275,106Z" style="fill: #b5cf6b;"></path></g></g></g><g transform="translate(0,0)"><path class="background" d="M0,0h300v200h-300Z" style="fill: none;"></path><g><g class="mark-area role-mark marks"><path d="M275,83L273,77L270,82L268,81L266,80L264,79L261,77L259,77L257,78L254,79L252,82L250,83L248,83L245,81L243,86L241,86L239,89L236,88L234,86L232,86L230,87L227,89L225,94L223,94L220,93L218,91L216,93L214,90L211,91L209,90L207,89L204,89L202,91L200,95L198,95L195,95L193,94L191,92L189,95L186,92L184,93L182,92L179,90L177,90L175,90L173,92L170,91L168,93L166,90L164,92L161,93L159,90L157,90L155,91L152,89L150,87L148,88L145,89L143,90L141,91L139,91L136,91L134,92L132,90L130,88L127,88L125,88L123,87L120,87L118,88L116,89L114,88L111,89L109,88L107,91L105,88L102,89L100,87L98,86L95,84L93,85L91,88L89,89L86,88L84,89L82,88L80,90L77,88L75,88L73,88L70,87L68,87L66,86L64,87L61,87L59,88L57,88L55,90L52,89L50,89L48,89L45,89L43,90L41,89L39,89L36,92L34,92L32,93L30,94L27,94L25,95L23,94L20,93L18,93L16,92L14,91L11,91L9,92L7,93L4,93L2,92L0,92L0,95L2,95L4,96L7,96L9,95L11,94L14,94L16,95L18,95L20,96L23,96L25,98L27,97L30,97L32,95L34,95L36,94L39,92L41,93L43,94L45,92L48,92L50,93L52,92L55,94L57,92L59,92L61,91L64,91L66,91L68,91L70,92L73,92L75,92L77,92L80,94L82,92L84,93L86,93L89,93L91,92L93,89L95,88L98,90L100,91L102,92L105,92L107,94L109,93L111,93L114,92L116,93L118,92L120,91L123,91L125,91L127,93L130,93L132,94L134,96L136,94L139,95L141,94L143,93L145,93L148,92L150,91L152,93L155,95L157,94L159,93L161,96L164,94L166,94L168,96L170,94L173,95L175,94L177,94L179,94L182,95L184,95L186,95L189,98L191,95L193,98L195,98L198,98L200,98L202,95L204,93L207,94L209,94L211,95L214,94L216,97L218,95L220,97L223,98L225,98L227,94L230,91L232,90L234,91L236,93L239,94L241,92L243,93L245,88L248,91L250,91L252,89L254,86L257,84L259,85L261,84L264,87L266,88L268,89L270,91L273,85L275,91Z" style="fill: #637939;"></path></g></g></g><g transform="translate(0,0)"><path class="background" d="M0,0h300v200h-300Z" style="fill: none;"></path><g><g class="mark-area role-mark marks"><path d="M275,15L273,15L270,24L268,25L266,23L264,24L261,23L259,21L257,22L254,26L252,30L250,26L248,28L245,31L243,44L241,49L239,52L236,54L234,53L232,55L230,58L227,61L225,65L223,61L220,61L218,59L216,64L214,67L211,68L209,67L207,66L204,64L202,66L200,69L198,69L195,67L193,64L191,63L189,70L186,69L184,71L182,69L179,67L177,64L175,66L173,68L170,67L168,65L166,63L164,63L161,67L159,65L157,67L155,65L152,65L150,63L148,63L145,65L143,65L141,61L139,57L136,58L134,63L132,63L130,64L127,63L125,62L123,60L120,59L118,62L116,62L114,56L111,56L109,54L107,61L105,59L102,60L100,58L98,57L95,55L93,52L91,58L89,58L86,55L84,53L82,52L80,58L77,60L75,61L73,61L70,59L68,57L66,57L64,60L61,59L59,57L57,55L55,54L52,62L50,63L48,65L45,67L43,67L41,68L39,69L36,73L34,72L32,70L30,69L27,69L25,77L23,77L20,77L18,76L16,73L14,73L11,74L9,75L7,77L4,72L2,71L0,70L0,78L2,78L4,80L7,83L9,82L11,80L14,81L16,81L18,83L20,83L23,84L25,84L27,78L30,78L32,78L34,80L36,81L39,78L41,77L43,76L45,77L48,76L50,74L52,73L55,68L57,67L59,69L61,71L64,72L66,70L68,71L70,71L73,74L75,73L77,72L80,71L82,66L84,67L86,70L89,71L91,72L93,66L95,67L98,68L100,70L102,72L105,71L107,73L109,68L111,68L114,68L116,71L118,73L120,69L123,70L125,72L127,73L130,74L132,74L134,74L136,70L139,69L141,71L143,74L145,74L148,72L150,73L152,74L155,76L157,76L159,74L161,77L164,73L166,73L168,75L170,75L173,77L175,75L177,73L179,75L182,78L184,80L186,78L189,79L191,74L193,74L195,77L198,77L200,78L202,75L204,73L207,74L209,75L211,76L214,76L216,74L218,70L220,72L223,72L225,74L227,71L230,69L232,66L234,65L236,66L239,66L241,61L243,58L245,49L248,47L250,46L252,48L254,45L257,42L259,40L261,42L264,43L266,42L268,44L270,42L273,35L275,37Z" style="fill: #5254a3;"></path></g></g></g><g transform="translate(0,0)"><path class="background" d="M0,0h300v200h-300Z" style="fill: none;"></path><g><g class="mark-area role-mark marks"><path d="M275,68L273,63L270,68L268,66L266,64L264,63L261,62L259,62L257,62L254,67L252,70L250,71L248,72L245,71L243,76L241,77L239,79L236,78L234,75L232,76L230,79L227,82L225,87L223,87L220,86L218,84L216,86L214,84L211,84L209,82L207,81L204,81L202,83L200,87L198,88L195,88L193,88L191,85L189,89L186,85L184,86L182,85L179,83L177,81L175,82L173,85L170,84L168,86L166,84L164,84L161,87L159,81L157,83L155,83L152,81L150,79L148,79L145,81L143,83L141,83L139,83L136,83L134,85L132,83L130,82L127,81L125,80L123,78L120,77L118,81L116,82L114,81L111,81L109,80L107,83L105,80L102,81L100,79L98,76L95,76L93,75L91,81L89,81L86,82L84,82L82,81L80,83L77,82L75,81L73,81L70,79L68,78L66,78L64,80L61,81L59,82L57,81L55,83L52,83L50,83L48,83L45,83L43,83L41,83L39,83L36,87L34,88L32,87L30,89L27,88L25,92L23,90L20,88L18,88L16,86L14,85L11,85L9,87L7,89L4,88L2,88L0,88L0,92L2,92L4,93L7,93L9,92L11,91L14,91L16,92L18,93L20,93L23,94L25,95L27,94L30,94L32,93L34,92L36,92L39,89L41,89L43,90L45,89L48,89L50,89L52,89L55,90L57,88L59,88L61,87L64,87L66,86L68,87L70,87L73,88L75,88L77,88L80,90L82,88L84,89L86,88L89,89L91,88L93,85L95,84L98,86L100,87L102,89L105,88L107,91L109,88L111,89L114,88L116,89L118,88L120,87L123,87L125,88L127,88L130,88L132,90L134,92L136,91L139,91L141,91L143,90L145,89L148,88L150,87L152,89L155,91L157,90L159,90L161,93L164,92L166,90L168,93L170,91L173,92L175,90L177,90L179,90L182,92L184,93L186,92L189,95L191,92L193,94L195,95L198,95L200,95L202,91L204,89L207,89L209,90L211,91L214,90L216,93L218,91L220,93L223,94L225,94L227,89L230,87L232,86L234,86L236,88L239,89L241,86L243,86L245,81L248,83L250,83L252,82L254,79L257,78L259,77L261,77L264,79L266,80L268,81L270,82L273,77L275,83Z" style="fill: #9c9ede;"></path></g></g></g><g transform="translate(0,0)"><path class="background" d="M0,0h300v200h-300Z" style="fill: none;"></path><g><g class="mark-area role-mark marks"><path d="M275,106L273,101L270,104L268,101L266,101L264,103L261,103L259,103L257,101L254,99L252,100L250,101L248,101L245,99L243,102L241,101L239,103L236,102L234,102L232,101L230,101L227,102L225,104L223,106L220,104L218,103L216,104L214,101L211,102L209,102L207,105L204,103L202,104L200,105L198,104L195,104L193,104L191,103L189,104L186,102L184,102L182,102L179,103L177,103L175,103L173,103L170,101L168,104L166,101L164,102L161,102L159,102L157,102L155,104L152,103L150,101L148,102L145,101L143,101L141,102L139,103L136,103L134,104L132,102L130,102L127,102L125,102L123,102L120,101L118,100L116,100L114,102L111,102L109,103L107,103L105,102L102,101L100,101L98,102L95,100L93,101L91,101L89,101L86,103L84,103L82,102L80,103L77,101L75,101L73,102L70,103L68,102L66,101L64,100L61,100L59,101L57,102L55,103L52,101L50,101L48,101L45,101L43,103L41,102L39,101L36,101L34,102L32,102L30,102L27,104L25,104L23,103L20,102L18,102L16,104L14,102L11,102L9,101L7,100L4,101L2,102L0,102L0,112L2,112L4,111L7,108L9,109L11,113L14,112L16,112L18,110L20,110L23,111L25,112L27,114L30,112L32,112L34,111L36,110L39,111L41,112L43,113L45,112L48,112L50,113L52,113L55,115L57,114L59,113L61,112L64,113L66,114L68,115L70,114L73,113L75,113L77,113L80,114L82,115L84,117L86,116L89,114L91,113L93,114L95,113L98,115L100,113L102,112L105,114L107,114L109,116L111,114L114,115L116,112L118,112L120,116L123,114L125,115L127,113L130,113L132,114L134,115L136,116L139,116L141,114L143,112L145,112L148,114L150,113L152,114L155,114L157,112L159,114L161,114L164,113L166,114L168,115L170,112L173,113L175,114L177,114L179,113L182,113L184,112L186,112L189,113L191,114L193,115L195,115L198,114L200,115L202,115L204,115L207,116L209,113L211,114L214,114L216,116L218,117L220,117L223,118L225,115L227,115L230,116L232,116L234,116L236,115L239,117L241,117L243,117L245,118L248,119L250,120L252,116L254,119L257,122L259,123L261,123L264,122L266,121L268,120L270,124L273,123L275,126Z" style="fill: #cedb9c;"></path></g></g></g><g transform="translate(0,0)"><path class="background" d="M0,0h300v200h-300Z" style="fill: none;"></path><g><g class="mark-area role-mark marks"><path d="M275,150L273,148L270,147L268,145L266,145L264,146L261,148L259,149L257,149L254,145L252,143L250,145L248,143L245,140L243,134L241,132L239,130L236,128L234,128L232,127L230,127L227,127L225,126L223,128L220,127L218,128L216,126L214,123L211,123L209,122L207,123L204,123L202,124L200,124L198,124L195,124L193,125L191,124L189,121L186,121L184,120L182,121L179,122L177,124L175,123L173,122L170,122L168,124L166,125L164,123L161,124L159,124L157,122L155,124L152,124L150,124L148,124L145,122L143,122L141,126L139,127L136,127L134,126L132,125L130,124L127,124L125,126L123,127L120,128L118,125L116,125L114,128L111,128L109,131L107,128L105,127L102,126L100,128L98,130L95,128L93,130L91,128L89,129L86,131L84,133L82,132L80,130L77,127L75,126L73,127L70,128L68,130L66,129L64,128L61,129L59,131L57,131L55,133L52,128L50,127L48,126L45,125L43,126L41,126L39,123L36,122L34,122L32,124L30,124L27,126L25,121L23,120L20,119L18,118L16,121L14,121L11,121L9,118L7,118L4,121L2,121L0,121L0,124L2,124L4,124L7,121L9,122L11,124L14,124L16,123L18,121L20,121L23,123L25,123L27,128L30,127L32,126L34,125L36,124L39,126L41,129L43,129L45,127L48,129L50,130L52,131L55,136L57,135L59,135L61,132L64,131L66,133L68,134L70,132L73,130L75,129L77,131L80,133L82,136L84,137L86,136L89,133L91,133L93,134L95,133L98,135L100,132L102,131L105,132L107,131L109,135L111,133L114,133L116,129L118,129L120,132L123,131L125,130L127,127L130,128L132,129L134,130L136,131L139,131L141,130L143,126L145,126L148,127L150,128L152,127L155,128L157,126L159,128L161,127L164,127L166,128L168,128L170,125L173,125L175,126L177,127L179,127L182,125L184,123L186,125L189,125L191,128L193,129L195,127L198,127L200,127L202,127L204,126L207,126L209,125L211,125L214,126L216,129L218,132L220,131L223,132L225,129L227,130L230,131L232,132L234,133L236,133L239,134L241,137L243,139L245,145L248,148L250,150L252,148L254,151L257,155L259,155L261,154L264,152L266,152L268,151L270,154L273,156L275,157Z" style="fill: #e7ba52;"></path></g></g></g><g transform="translate(0,0)"><path class="background" d="M0,0h300v200h-300Z" style="fill: none;"></path><g><g class="mark-area role-mark marks"><path d="M275,12L273,11L270,20L268,23L266,21L264,22L261,20L259,19L257,20L254,24L252,28L250,23L248,25L245,28L243,41L241,47L239,51L236,53L234,52L232,54L230,57L227,60L225,63L223,59L220,59L218,58L216,63L214,66L211,67L209,66L207,65L204,63L202,66L200,68L198,68L195,66L193,62L191,61L189,68L186,68L184,70L182,68L179,66L177,63L175,66L173,67L170,66L168,64L166,61L164,61L161,65L159,64L157,66L155,64L152,64L150,62L148,62L145,64L143,64L141,59L139,56L136,56L134,61L132,62L130,63L127,62L125,61L123,58L120,58L118,61L116,60L114,54L111,54L109,52L107,59L105,57L102,58L100,57L98,55L95,53L93,51L91,56L89,56L86,53L84,51L82,50L80,57L77,58L75,60L73,60L70,58L68,56L66,56L64,59L61,57L59,54L57,53L55,52L52,59L50,61L48,63L45,66L43,65L41,67L39,67L36,71L34,71L32,67L30,67L27,66L25,75L23,75L20,76L18,74L16,72L14,72L11,72L9,74L7,75L4,70L2,68L0,68L0,70L2,71L4,72L7,77L9,75L11,74L14,73L16,73L18,76L20,77L23,77L25,77L27,69L30,69L32,70L34,72L36,73L39,69L41,68L43,67L45,67L48,65L50,63L52,62L55,54L57,55L59,57L61,59L64,60L66,57L68,57L70,59L73,61L75,61L77,60L80,58L82,52L84,53L86,55L89,58L91,58L93,52L95,55L98,57L100,58L102,60L105,59L107,61L109,54L111,56L114,56L116,62L118,62L120,59L123,60L125,62L127,63L130,64L132,63L134,63L136,58L139,57L141,61L143,65L145,65L148,63L150,63L152,65L155,65L157,67L159,65L161,67L164,63L166,63L168,65L170,67L173,68L175,66L177,64L179,67L182,69L184,71L186,69L189,70L191,63L193,64L195,67L198,69L200,69L202,66L204,64L207,66L209,67L211,68L214,67L216,64L218,59L220,61L223,61L225,65L227,61L230,58L232,55L234,53L236,54L239,52L241,49L243,44L245,31L248,28L250,26L252,30L254,26L257,22L259,21L261,23L264,24L266,23L268,25L270,24L273,15L275,15Z" style="fill: #393b79;"></path></g></g></g><g transform="translate(0,0)"><path class="background" d="M0,0h300v200h-300Z" style="fill: none;"></path><g><g class="mark-area role-mark marks"><path d="M275,157L273,156L270,154L268,151L266,152L264,152L261,154L259,155L257,155L254,151L252,148L250,150L248,148L245,145L243,139L241,137L239,134L236,133L234,133L232,132L230,131L227,130L225,129L223,132L220,131L218,132L216,129L214,126L211,125L209,125L207,126L204,126L202,127L200,127L198,127L195,127L193,129L191,128L189,125L186,125L184,123L182,125L179,127L177,127L175,126L173,125L170,125L168,128L166,128L164,127L161,127L159,128L157,126L155,128L152,127L150,128L148,127L145,126L143,126L141,130L139,131L136,131L134,130L132,129L130,128L127,127L125,130L123,131L120,132L118,129L116,129L114,133L111,133L109,135L107,131L105,132L102,131L100,132L98,135L95,133L93,134L91,133L89,133L86,136L84,137L82,136L80,133L77,131L75,129L73,130L70,132L68,134L66,133L64,131L61,132L59,135L57,135L55,136L52,131L50,130L48,129L45,127L43,129L41,129L39,126L36,124L34,125L32,126L30,127L27,128L25,123L23,123L20,121L18,121L16,123L14,124L11,124L9,122L7,121L4,124L2,124L0,124L0,127L2,127L4,126L7,123L9,124L11,126L14,127L16,126L18,124L20,124L23,126L25,125L27,131L30,129L32,129L34,127L36,126L39,129L41,131L43,132L45,131L48,132L50,133L52,134L55,140L57,138L59,138L61,135L64,135L66,136L68,137L70,136L73,133L75,133L77,135L80,137L82,140L84,141L86,140L89,137L91,136L93,138L95,137L98,139L100,136L102,135L105,136L107,135L109,139L111,136L114,136L116,132L118,132L120,136L123,135L125,134L127,132L130,131L132,134L134,134L136,135L139,136L141,134L143,130L145,130L148,131L150,131L152,131L155,132L157,129L159,132L161,131L164,131L166,132L168,131L170,129L173,128L175,129L177,131L179,130L182,128L184,127L186,128L189,129L191,132L193,132L195,131L198,130L200,130L202,130L204,130L207,130L209,129L211,130L214,131L216,133L218,136L220,136L223,136L225,133L227,135L230,136L232,136L234,138L236,138L239,139L241,142L243,146L245,154L248,156L250,158L252,154L254,158L257,161L259,162L261,161L264,160L266,160L268,158L270,161L273,165L275,166Z" style="fill: #e7cb94;"></path></g></g></g></g><g class="mark-group role-legend"><g transform="translate(318,0)"><path class="background" d="M0,0h142v221h-142Z" style="pointer-events: none; fill: none;"></path><g><g class="mark-group role-legend-entry"><g transform="translate(0,16)"><path class="background" d="M0,0h0v0h0Z" style="pointer-events: none; fill: none;"></path><g><g class="mark-symbol role-legend-symbol" style="pointer-events: none;"><path transform="translate(5,5)" d="M5,0A5,5,0,1,1,-5,0A5,5,0,1,1,5,0" style="fill: #393b79; stroke-width: 1.5; opacity: 1;"></path><path transform="translate(5,20)" d="M5,0A5,5,0,1,1,-5,0A5,5,0,1,1,5,0" style="fill: #5254a3; stroke-width: 1.5; opacity: 1;"></path><path transform="translate(5,35)" d="M5,0A5,5,0,1,1,-5,0A5,5,0,1,1,5,0" style="fill: #6b6ecf; stroke-width: 1.5; opacity: 1;"></path><path transform="translate(5,50)" d="M5,0A5,5,0,1,1,-5,0A5,5,0,1,1,5,0" style="fill: #9c9ede; stroke-width: 1.5; opacity: 1;"></path><path transform="translate(5,65)" d="M5,0A5,5,0,1,1,-5,0A5,5,0,1,1,5,0" style="fill: #637939; stroke-width: 1.5; opacity: 1;"></path><path transform="translate(5,80)" d="M5,0A5,5,0,1,1,-5,0A5,5,0,1,1,5,0" style="fill: #8ca252; stroke-width: 1.5; opacity: 1;"></path><path transform="translate(5,95)" d="M5,0A5,5,0,1,1,-5,0A5,5,0,1,1,5,0" style="fill: #b5cf6b; stroke-width: 1.5; opacity: 1;"></path><path transform="translate(5,110)" d="M5,0A5,5,0,1,1,-5,0A5,5,0,1,1,5,0" style="fill: #cedb9c; stroke-width: 1.5; opacity: 1;"></path><path transform="translate(5,125)" d="M5,0A5,5,0,1,1,-5,0A5,5,0,1,1,5,0" style="fill: #8c6d31; stroke-width: 1.5; opacity: 1;"></path><path transform="translate(5,140)" d="M5,0A5,5,0,1,1,-5,0A5,5,0,1,1,5,0" style="fill: #bd9e39; stroke-width: 1.5; opacity: 1;"></path><path transform="translate(5,155)" d="M5,0A5,5,0,1,1,-5,0A5,5,0,1,1,5,0" style="fill: #e7ba52; stroke-width: 1.5; opacity: 1;"></path><path transform="translate(5,170)" d="M5,0A5,5,0,1,1,-5,0A5,5,0,1,1,5,0" style="fill: #e7cb94; stroke-width: 1.5; opacity: 1;"></path><path transform="translate(5,185)" d="M5,0A5,5,0,1,1,-5,0A5,5,0,1,1,5,0" style="fill: #843c39; stroke-width: 1.5; opacity: 1;"></path><path transform="translate(5,200)" d="M5,0A5,5,0,1,1,-5,0A5,5,0,1,1,5,0" style="fill: #ad494a; stroke-width: 1.5; opacity: 1;"></path></g><g class="mark-text role-legend-label" style="pointer-events: none;"><text text-anchor="start" transform="translate(18,8)" style="font: 10px sans-serif; fill: #000; opacity: 1;">Agriculture</text><text text-anchor="start" transform="translate(18,23)" style="font: 10px sans-serif; fill: #000; opacity: 1;">Business services</text><text text-anchor="start" transform="translate(18,38)" style="font: 10px sans-serif; fill: #000; opacity: 1;">Construction</text><text text-anchor="start" transform="translate(18,53)" style="font: 10px sans-serif; fill: #000; opacity: 1;">Education and Health</text><text text-anchor="start" transform="translate(18,68)" style="font: 10px sans-serif; fill: #000; opacity: 1;">Finance</text><text text-anchor="start" transform="translate(18,83)" style="font: 10px sans-serif; fill: #000; opacity: 1;">Government</text><text text-anchor="start" transform="translate(18,98)" style="font: 10px sans-serif; fill: #000; opacity: 1;">Information</text><text text-anchor="start" transform="translate(18,113)" style="font: 10px sans-serif; fill: #000; opacity: 1;">Leisure and hospitality</text><text text-anchor="start" transform="translate(18,128)" style="font: 10px sans-serif; fill: #000; opacity: 1;">Manufacturing</text><text text-anchor="start" transform="translate(18,143)" style="font: 10px sans-serif; fill: #000; opacity: 1;">Mining and Extraction</text><text text-anchor="start" transform="translate(18,158)" style="font: 10px sans-serif; fill: #000; opacity: 1;">Other</text><text text-anchor="start" transform="translate(18,173)" style="font: 10px sans-serif; fill: #000; opacity: 1;">Self-employed</text><text text-anchor="start" transform="translate(18,188)" style="font: 10px sans-serif; fill: #000; opacity: 1;">Transportation and Utilities</text><text text-anchor="start" transform="translate(18,203)" style="font: 10px sans-serif; fill: #000; opacity: 1;">Wholesale and Retail Trade</text></g></g></g></g><g class="mark-text role-legend-title" style="pointer-events: none;"><text text-anchor="start" transform="translate(0,10)" style="font: bold 11px sans-serif; fill: #000; opacity: 1;">series</text></g></g></g></g><g class="mark-group role-axis"><g transform="translate(0.5,200.5)"><path class="background" d="M0,0h0v0h0Z" style="pointer-events: none; fill: none;"></path><g><g class="mark-rule role-axis-tick" style="pointer-events: none;"><line transform="translate(0,0)" x2="0" y2="0" style="fill: none; stroke: #888; stroke-width: 1; opacity: 1;"></line><line transform="translate(27,0)" x2="0" y2="0" style="fill: none; stroke: #888; stroke-width: 1; opacity: 1;"></line><line transform="translate(55,0)" x2="0" y2="0" style="fill: none; stroke: #888; stroke-width: 1; opacity: 1;"></line><line transform="translate(82,0)" x2="0" y2="0" style="fill: none; stroke: #888; stroke-width: 1; opacity: 1;"></line><line transform="translate(109,0)" x2="0" y2="0" style="fill: none; stroke: #888; stroke-width: 1; opacity: 1;"></line><line transform="translate(136,0)" x2="0" y2="0" style="fill: none; stroke: #888; stroke-width: 1; opacity: 1;"></line><line transform="translate(164,0)" x2="0" y2="0" style="fill: none; stroke: #888; stroke-width: 1; opacity: 1;"></line><line transform="translate(191,0)" x2="0" y2="0" style="fill: none; stroke: #888; stroke-width: 1; opacity: 1;"></line><line transform="translate(218,0)" x2="0" y2="0" style="fill: none; stroke: #888; stroke-width: 1; opacity: 1;"></line><line transform="translate(245,0)" x2="0" y2="0" style="fill: none; stroke: #888; stroke-width: 1; opacity: 1;"></line><line transform="translate(273,0)" x2="0" y2="0" style="fill: none; stroke: #888; stroke-width: 1; opacity: 1;"></line><line transform="translate(300,0)" x2="0" y2="0" style="fill: none; stroke: #888; stroke-width: 1; opacity: 1;"></line></g><g class="mark-text role-axis-label" style="pointer-events: none;"><text text-anchor="middle" transform="translate(0,11)" style="font: 10px sans-serif; fill: #000; opacity: 1;">2000</text><text text-anchor="middle" transform="translate(27,11)" style="font: 10px sans-serif; fill: #000; opacity: 1;">2001</text><text text-anchor="middle" transform="translate(55,11)" style="font: 10px sans-serif; fill: #000; opacity: 1;">2002</text><text text-anchor="middle" transform="translate(82,11)" style="font: 10px sans-serif; fill: #000; opacity: 1;">2003</text><text text-anchor="middle" transform="translate(109,11)" style="font: 10px sans-serif; fill: #000; opacity: 1;">2004</text><text text-anchor="middle" transform="translate(136,11)" style="font: 10px sans-serif; fill: #000; opacity: 1;">2005</text><text text-anchor="middle" transform="translate(164,11)" style="font: 10px sans-serif; fill: #000; opacity: 1;">2006</text><text text-anchor="middle" transform="translate(191,11)" style="font: 10px sans-serif; fill: #000; opacity: 1;">2007</text><text text-anchor="middle" transform="translate(218,11)" style="font: 10px sans-serif; fill: #000; opacity: 1;">2008</text><text text-anchor="middle" transform="translate(245,11)" style="font: 10px sans-serif; fill: #000; opacity: 1;">2009</text><text text-anchor="middle" transform="translate(273,11)" style="font: 10px sans-serif; fill: #000; opacity: 1;">2010</text><text text-anchor="middle" transform="translate(300,11)" style="font: 10px sans-serif; fill: #000; opacity: 1;">2011</text></g><g class="mark-text role-axis-title" style="pointer-events: none;"><text text-anchor="middle" transform="translate(150,26)" style="font: bold 11px sans-serif; fill: #000; opacity: 1;">YEARMONTH(date)</text></g></g></g></g></g></g></g></g></svg>