<svg class="marks" width="372" height="317" viewBox="0 0 372 317" version="1.1" xmlns="http://www.w3.org/2000/svg" xmlns:xlink="http://www.w3.org/1999/xlink"><g transform="translate(50,11)"><g class="mark-group role-frame root"><g transform="translate(0,0)"><path class="background" d="M0.5,0.5h210v200h-210Z" style="fill: transparent; stroke: #ddd;"></path><g><g class="mark-group role-axis"><g transform="translate(0.5,0.5)"><path class="background" d="M0,0h0v0h0Z" style="pointer-events: none; fill: none;"></path><g><g class="mark-rule role-axis-grid" style="pointer-events: none;"><line transform="translate(0,200)" x2="210" y2="0" style="fill: none; stroke: #ddd; stroke-width: 1; stroke-dasharray: ; opacity: 1;"></line><line transform="translate(0,160)" x2="210" y2="0" style="fill: none; stroke: #ddd; stroke-width: 1; stroke-dasharray: ; opacity: 1;"></line><line transform="translate(0,120)" x2="210" y2="0" style="fill: none; stroke: #ddd; stroke-width: 1; stroke-dasharray: ; opacity: 1;"></line><line transform="translate(0,80)" x2="210" y2="0" style="fill: none; stroke: #ddd; stroke-width: 1; stroke-dasharray: ; opacity: 1;"></line><line transform="translate(0,40)" x2="210" y2="0" style="fill: none; stroke: #ddd; stroke-width: 1; stroke-dasharray: ; opacity: 1;"></line><line transform="translate(0,0)" x2="210" y2="0" style="fill: none; stroke: #ddd; stroke-width: 1; stroke-dasharray: ; opacity: 1;"></line></g></g></g></g><g class="mark-rect role-mark marks"><path d="M22,146h19v21h-19Z" style="fill: #54a24b;"></path><path d="M22,167h19v33h-19Z" style="fill: #eeca3b;"></path><path d="M22,121h19v25h-19Z" style="fill: #72b7b2;"></path><path d="M22,49h19v29h-19Z" style="fill: #4c78a8;"></path><path d="M22,99h19v22h-19Z" style="fill: #e45756;"></path><path d="M22,78h19v21h-19Z" style="fill: #f58518;"></path><path d="M1,131h19v32h-19Z" style="fill: #54a24b;"></path><path d="M1,163h19v37h-19Z" style="fill: #eeca3b;"></path><path d="M1,105h19v26h-19Z" style="fill: #72b7b2;"></path><path d="M1,40h19v26h-19Z" style="fill: #4c78a8;"></path><path d="M1,88h19v17h-19Z" style="fill: #e45756;"></path><path d="M1,66h19v22h-19Z" style="fill: #f58518;"></path><path d="M127,141h19v25h-19Z" style="fill: #54a24b;"></path><path d="M127,166h19v34h-19Z" style="fill: #eeca3b;"></path><path d="M127,116h19v25h-19Z" style="fill: #72b7b2;"></path><path d="M127,54h19v25h-19Z" style="fill: #4c78a8;"></path><path d="M127,98h19v18h-19Z" style="fill: #e45756;"></path><path d="M127,79h19v19h-19Z" style="fill: #f58518;"></path><path d="M169,138h19v27h-19Z" style="fill: #54a24b;"></path><path d="M169,165h19v35h-19Z" style="fill: #eeca3b;"></path><path d="M169,112h19v26h-19Z" style="fill: #72b7b2;"></path><path d="M169,41h19v30h-19Z" style="fill: #4c78a8;"></path><path d="M169,90h19v22h-19Z" style="fill: #e45756;"></path><path d="M169,71h19v19h-19Z" style="fill: #f58518;"></path><path d="M148,129h19v26h-19Z" style="fill: #54a24b;"></path><path d="M148,155h19v45h-19Z" style="fill: #eeca3b;"></path><path d="M148,92h19v37h-19Z" style="fill: #72b7b2;"></path><path d="M148,11h19v35h-19Z" style="fill: #4c78a8;"></path><path d="M148,72h19v20h-19Z" style="fill: #e45756;"></path><path d="M148,46h19v26h-19Z" style="fill: #f58518;"></path><path d="M43,132h19v28h-19Z" style="fill: #54a24b;"></path><path d="M43,160h19v40h-19Z" style="fill: #eeca3b;"></path><path d="M43,103h19v29h-19Z" style="fill: #72b7b2;"></path><path d="M43,28h19v32h-19Z" style="fill: #4c78a8;"></path><path d="M43,82h19v21h-19Z" style="fill: #e45756;"></path><path d="M43,60h19v22h-19Z" style="fill: #f58518;"></path><path d="M64,131h19v25h-19Z" style="fill: #54a24b;"></path><path d="M64,156h19v44h-19Z" style="fill: #eeca3b;"></path><path d="M64,100h19v31h-19Z" style="fill: #72b7b2;"></path><path d="M64,30h19v32h-19Z" style="fill: #4c78a8;"></path><path d="M64,82h19v18h-19Z" style="fill: #e45756;"></path><path d="M64,62h19v20h-19Z" style="fill: #f58518;"></path><path d="M106,142h19v24h-19Z" style="fill: #54a24b;"></path><path d="M106,166h19v34h-19Z" style="fill: #eeca3b;"></path><path d="M106,113h19v29h-19Z" style="fill: #72b7b2;"></path><path d="M106,36h19v27h-19Z" style="fill: #4c78a8;"></path><path d="M106,88h19v25h-19Z" style="fill: #e45756;"></path><path d="M106,63h19v25h-19Z" style="fill: #f58518;"></path><path d="M85,143h19v22h-19Z" style="fill: #54a24b;"></path><path d="M85,165h19v35h-19Z" style="fill: #eeca3b;"></path><path d="M85,116h19v27h-19Z" style="fill: #72b7b2;"></path><path d="M85,48h19v30h-19Z" style="fill: #4c78a8;"></path><path d="M85,102h19v14h-19Z" style="fill: #e45756;"></path><path d="M85,78h19v24h-19Z" style="fill: #f58518;"></path><path d="M190,122h19v31h-19Z" style="fill: #54a24b;"></path><path d="M190,153h19v47h-19Z" style="fill: #eeca3b;"></path><path d="M190,92h19v30h-19Z" style="fill: #72b7b2;"></path><path d="M190,11h19v34h-19Z" style="fill: #4c78a8;"></path><path d="M190,70h19v22h-19Z" style="fill: #e45756;"></path><path d="M190,45h19v25h-19Z" style="fill: #f58518;"></path></g><g class="mark-group role-legend"><g transform="translate(228,0)"><path class="background" d="M0,0h89v101h-89Z" style="pointer-events: none; fill: none;"></path><g><g class="mark-group role-legend-entry"><g transform="translate(0,16)"><path class="background" d="M0,0h0v0h0Z" style="pointer-events: none; fill: none;"></path><g><g class="mark-symbol role-legend-symbol" style="pointer-events: none;"><path transform="translate(5,5)" d="M-5,-5h10v10h-10Z" style="fill: #4c78a8; stroke-width: 1.5; opacity: 1;"></path><path transform="translate(5,20)" d="M-5,-5h10v10h-10Z" style="fill: #f58518; stroke-width: 1.5; opacity: 1;"></path><path transform="translate(5,35)" d="M-5,-5h10v10h-10Z" style="fill: #e45756; stroke-width: 1.5; opacity: 1;"></path><path transform="translate(5,50)" d="M-5,-5h10v10h-10Z" style="fill: #72b7b2; stroke-width: 1.5; opacity: 1;"></path><path transform="translate(5,65)" d="M-5,-5h10v10h-10Z" style="fill: #54a24b; stroke-width: 1.5; opacity: 1;"></path><path transform="translate(5,80)" d="M-5,-5h10v10h-10Z" style="fill: #eeca3b; stroke-width: 1.5; opacity: 1;"></path></g><g class="mark-text role-legend-label" style="pointer-events: none;"><text text-anchor="start" transform="translate(18,8)" style="font: 10px sans-serif; fill: #000; opacity: 1;">Crookston</text><text text-anchor="start" transform="translate(18,23)" style="font: 10px sans-serif; fill: #000; opacity: 1;">Duluth</text><text text-anchor="start" transform="translate(18,38)" style="font: 10px sans-serif; fill: #000; opacity: 1;">Grand Rapids</text><text text-anchor="start" transform="translate(18,53)" style="font: 10px sans-serif; fill: #000; opacity: 1;">Morris</text><text text-anchor="start" transform="translate(18,68)" style="font: 10px sans-serif; fill: #000; opacity: 1;">University Farm</text><text text-anchor="start" transform="translate(18,83)" style="font: 10px sans-serif; fill: #000; opacity: 1;">Waseca</text></g></g></g></g><g class="mark-text role-legend-title" style="pointer-events: none;"><text text-anchor="start" transform="translate(0,10)" style="font: bold 11px sans-serif; fill: #000; opacity: 1;">site</text></g></g></g></g><g class="mark-group role-axis"><g transform="translate(0.5,200.5)"><path class="background" d="M0,0h0v0h0Z" style="pointer-events: none; fill: none;"></path><g><g class="mark-rule role-axis-tick" style="pointer-events: none;"><line transform="translate(10,0)" x2="0" y2="5" style="fill: none; stroke: #888; stroke-width: 1; opacity: 1;"></line><line transform="translate(31,0)" x2="0" y2="5" style="fill: none; stroke: #888; stroke-width: 1; opacity: 1;"></line><line transform="translate(52,0)" x2="0" y2="5" style="fill: none; stroke: #888; stroke-width: 1; opacity: 1;"></line><line transform="translate(73,0)" x2="0" y2="5" style="fill: none; stroke: #888; stroke-width: 1; opacity: 1;"></line><line transform="translate(94,0)" x2="0" y2="5" style="fill: none; stroke: #888; stroke-width: 1; opacity: 1;"></line><line transform="translate(115,0)" x2="0" y2="5" style="fill: none; stroke: #888; stroke-width: 1; opacity: 1;"></line><line transform="translate(136,0)" x2="0" y2="5" style="fill: none; stroke: #888; stroke-width: 1; opacity: 1;"></line><line transform="translate(157,0)" x2="0" y2="5" style="fill: none; stroke: #888; stroke-width: 1; opacity: 1;"></line><line transform="translate(178,0)" x2="0" y2="5" style="fill: none; stroke: #888; stroke-width: 1; opacity: 1;"></line><line transform="translate(199,0)" x2="0" y2="5" style="fill: none; stroke: #888; stroke-width: 1; opacity: 1;"></line></g><g class="mark-text role-axis-label" style="pointer-events: none;"><text text-anchor="end" transform="translate(9.5,7) rotate(270) translate(0,3)" style="font: 10px sans-serif; fill: #000; opacity: 1;">Glabron</text><text text-anchor="end" transform="translate(30.5,7) rotate(270) translate(0,3)" style="font: 10px sans-serif; fill: #000; opacity: 1;">Manchuria</text><text text-anchor="end" transform="translate(51.5,7) rotate(270) translate(0,3)" style="font: 10px sans-serif; fill: #000; opacity: 1;">No. 457</text><text text-anchor="end" transform="translate(72.5,7) rotate(270) translate(0,3)" style="font: 10px sans-serif; fill: #000; opacity: 1;">No. 462</text><text text-anchor="end" transform="translate(93.5,7) rotate(270) translate(0,3)" style="font: 10px sans-serif; fill: #000; opacity: 1;">No. 475</text><text text-anchor="end" transform="translate(114.5,7) rotate(270) translate(0,3)" style="font: 10px sans-serif; fill: #000; opacity: 1;">Peatland</text><text text-anchor="end" transform="translate(135.5,7) rotate(270) translate(0,3)" style="font: 10px sans-serif; fill: #000; opacity: 1;">Svansota</text><text text-anchor="end" transform="translate(156.5,7) rotate(270) translate(0,3)" style="font: 10px sans-serif; fill: #000; opacity: 1;">Trebi</text><text text-anchor="end" transform="translate(177.5,7) rotate(270) translate(0,3)" style="font: 10px sans-serif; fill: #000; opacity: 1;">Velvet</text><text text-anchor="end" transform="translate(198.5,7) rotate(270) translate(0,3)" style="font: 10px sans-serif; fill: #000; opacity: 1;">Wisconsin No. 38</text></g><g class="mark-rule role-axis-domain" style="pointer-events: none;"><line transform="translate(0,0)" x2="210" y2="0" style="fill: none; stroke: #888; stroke-width: 1; opacity: 1;"></line></g><g class="mark-text role-axis-title" style="pointer-events: none;"><text text-anchor="middle" transform="translate(105,97.8076171875)" style="font: bold 11px sans-serif; fill: #000; opacity: 1;">variety</text></g></g></g></g><g class="mark-group role-axis"><g transform="translate(0.5,0.5)"><path class="background" d="M0,0h0v0h0Z" style="pointer-events: none; fill: none;"></path><g><g class="mark-rule role-axis-tick" style="pointer-events: none;"><line transform="translate(0,200)" x2="-5" y2="0" style="fill: none; stroke: #888; stroke-width: 1; opacity: 1;"></line><line transform="translate(0,160)" x2="-5" y2="0" style="fill: none; stroke: #888; stroke-width: 1; opacity: 1;"></line><line transform="translate(0,120)" x2="-5" y2="0" style="fill: none; stroke: #888; stroke-width: 1; opacity: 1;"></line><line transform="translate(0,80)" x2="-5" y2="0" style="fill: none; stroke: #888; stroke-width: 1; opacity: 1;"></line><line transform="translate(0,40)" x2="-5" y2="0" style="fill: none; stroke: #888; stroke-width: 1; opacity: 1;"></line><line transform="translate(0,0)" x2="-5" y2="0" style="fill: none; stroke: #888; stroke-width: 1; opacity: 1;"></line></g><g class="mark-text role-axis-label" style="pointer-events: none;"><text text-anchor="end" transform="translate(-7,203)" style="font: 10px sans-serif; fill: #000; opacity: 1;">0</text><text text-anchor="end" transform="translate(-7,163)" style="font: 10px sans-serif; fill: #000; opacity: 1;">100</text><text text-anchor="end" transform="translate(-7,123)" style="font: 10px sans-serif; fill: #000; opacity: 1;">200</text><text text-anchor="end" transform="translate(-7,83)" style="font: 10px sans-serif; fill: #000; opacity: 1;">300</text><text text-anchor="end" transform="translate(-7,43)" style="font: 10px sans-serif; fill: #000; opacity: 1;">400</text><text text-anchor="end" transform="translate(-7,3)" style="font: 10px sans-serif; fill: #000; opacity: 1;">500</text></g><g class="mark-rule role-axis-domain" style="pointer-events: none;"><line transform="translate(0,200)" x2="0" y2="-200" style="fill: none; stroke: #888; stroke-width: 1; opacity: 1;"></line></g><g class="mark-text role-axis-title" style="pointer-events: none;"><text text-anchor="middle" transform="translate(-32,100) rotate(-90) translate(0,-2)" style="font: bold 11px sans-serif; fill: #000; opacity: 1;">SUM(yield)</text></g></g></g></g></g></g></g></g></svg>