<svg class="marks" width="362" height="253" viewBox="0 0 362 253" version="1.1" xmlns="http://www.w3.org/2000/svg" xmlns:xlink="http://www.w3.org/1999/xlink"><g transform="translate(50,5)"><g class="mark-group role-frame root"><g transform="translate(0,0)"><path class="background" d="M0.5,0.5h240v200h-240Z" style="fill: none; stroke: #ddd;"></path><g><g class="mark-group role-axis"><g transform="translate(0.5,0.5)"><path class="background" d="M0,0h0v0h0Z" style="pointer-events: none; fill: none;"></path><g><g class="mark-rule role-axis-grid" style="pointer-events: none;"><line transform="translate(0,200)" x2="240" y2="0" style="fill: none; stroke: #ddd; stroke-width: 1; opacity: 1;"></line><line transform="translate(0,169)" x2="240" y2="0" style="fill: none; stroke: #ddd; stroke-width: 1; opacity: 1;"></line><line transform="translate(0,138)" x2="240" y2="0" style="fill: none; stroke: #ddd; stroke-width: 1; opacity: 1;"></line><line transform="translate(0,108)" x2="240" y2="0" style="fill: none; stroke: #ddd; stroke-width: 1; opacity: 1;"></line><line transform="translate(0,77)" x2="240" y2="0" style="fill: none; stroke: #ddd; stroke-width: 1; opacity: 1;"></line><line transform="translate(0,46)" x2="240" y2="0" style="fill: none; stroke: #ddd; stroke-width: 1; opacity: 1;"></line><line transform="translate(0,15)" x2="240" y2="0" style="fill: none; stroke: #ddd; stroke-width: 1; opacity: 1;"></line></g></g></g></g><g class="mark-rect role-mark marks"><path d="M1,9.230769230769226h18v15.384615384615387h-18Z" style="fill: #4c78a8;"></path><path d="M1,83.07692307692307h18v53.84615384615387h-18Z" style="fill: #e45756;"></path><path d="M1,149.23076923076923h18v50.769230769230774h-18Z" style="fill: #54a24b;"></path><path d="M1,136.92307692307693h18v12.307692307692292h-18Z" style="fill: #72b7b2;"></path><path d="M21,87.6923076923077h18v61.53846153846153h-18Z" style="fill: #e45756;"></path><path d="M21,153.84615384615384h18v46.15384615384616h-18Z" style="fill: #54a24b;"></path><path d="M21,26.15384615384616h18v6.153846153846132h-18Z" style="fill: #4c78a8;"></path><path d="M21,149.23076923076923h18v4.615384615384613h-18Z" style="fill: #72b7b2;"></path><path d="M41,135.3846153846154h18v64.61538461538461h-18Z" style="fill: #54a24b;"></path><path d="M41,69.23076923076923h18v56.92307692307692h-18Z" style="fill: #e45756;"></path><path d="M41,126.15384615384615h18v9.23076923076924h-18Z" style="fill: #72b7b2;"></path><path d="M41,9.230769230769226h18v4.615384615384613h-18Z" style="fill: #4c78a8;"></path><path d="M61,73.84615384615385h18v30.76923076923076h-18Z" style="fill: #e45756;"></path><path d="M61,106.15384615384616h18v93.84615384615384h-18Z" style="fill: #54a24b;"></path><path d="M61,104.61538461538461h18v1.5384615384615472h-18Z" style="fill: #72b7b2;"></path><path d="M61,15.384615384615387h18v6.153846153846132h-18Z" style="fill: #4c78a8;"></path><path d="M81,49.230769230769226h18v24.615384615384627h-18Z" style="fill: #e45756;"></path><path d="M81,73.84615384615385h18v126.15384615384615h-18Z" style="fill: #54a24b;"></path><path d="M81,9.230769230769226h18v1.5384615384615472h-18Z" style="fill: #4c78a8;"></path><path d="M101,40h18v29.230769230769226h-18Z" style="fill: #e45756;"></path><path d="M101,69.23076923076923h18v130.76923076923077h-18Z" style="fill: #54a24b;"></path><path d="M101,15.384615384615387h18v3.076923076923066h-18Z" style="fill: #4c78a8;"></path><path d="M121,41.53846153846155h18v21.53846153846152h-18Z" style="fill: #e45756;"></path><path d="M121,63.076923076923066h18v136.92307692307693h-18Z" style="fill: #54a24b;"></path><path d="M121,9.230769230769226h18v12.307692307692292h-18Z" style="fill: #4c78a8;"></path><path d="M121,21.53846153846152h18v20.00000000000003h-18Z" style="fill: #f58518;"></path><path d="M141,9.230769230769226h18v12.307692307692292h-18Z" style="fill: #4c78a8;"></path><path d="M141,55.38461538461539h18v144.6153846153846h-18Z" style="fill: #54a24b;"></path><path d="M141,46.15384615384613h18v9.230769230769255h-18Z" style="fill: #e45756;"></path><path d="M161,90.76923076923077h18v109.23076923076923h-18Z" style="fill: #54a24b;"></path><path d="M161,84.61538461538463h18v6.153846153846146h-18Z" style="fill: #e45756;"></path><path d="M161,23.076923076923094h18v61.53846153846153h-18Z" style="fill: #f58518;"></path><path d="M161,15.384615384615387h18v7.692307692307708h-18Z" style="fill: #4c78a8;"></path><path d="M181,130.76923076923077h18v69.23076923076923h-18Z" style="fill: #54a24b;"></path><path d="M181,9.230769230769226h18v6.15384615384616h-18Z" style="fill: #4c78a8;"></path><path d="M181,100h18v30.769230769230774h-18Z" style="fill: #e45756;"></path><path d="M201,96.92307692307693h18v38.46153846153845h-18Z" style="fill: #e45756;"></path><path d="M201,135.3846153846154h18v64.61538461538461h-18Z" style="fill: #54a24b;"></path><path d="M201,15.384615384615387h18v4.615384615384613h-18Z" style="fill: #4c78a8;"></path><path d="M201,20h18v76.92307692307693h-18Z" style="fill: #f58518;"></path><path d="M221,95.38461538461537h18v35.3846153846154h-18Z" style="fill: #e45756;"></path><path d="M221,138.46153846153845h18v61.53846153846155h-18Z" style="fill: #54a24b;"></path><path d="M221,130.76923076923077h18v7.692307692307679h-18Z" style="fill: #72b7b2;"></path><path d="M221,9.230769230769226h18v3.0769230769230944h-18Z" style="fill: #4c78a8;"></path><path d="M41,13.84615384615384h18v55.38461538461539h-18Z" style="fill: #f58518;"></path><path d="M61,21.53846153846152h18v52.307692307692335h-18Z" style="fill: #f58518;"></path><path d="M81,10.769230769230774h18v38.46153846153845h-18Z" style="fill: #f58518;"></path><path d="M101,18.461538461538453h18v21.538461538461547h-18Z" style="fill: #f58518;"></path><path d="M141,21.53846153846152h18v24.615384615384613h-18Z" style="fill: #f58518;"></path><path d="M181,15.384615384615387h18v84.61538461538461h-18Z" style="fill: #f58518;"></path><path d="M221,12.30769230769232h18v83.07692307692305h-18Z" style="fill: #f58518;"></path><path d="M1,24.615384615384613h18v58.46153846153845h-18Z" style="fill: #f58518;"></path><path d="M21,32.30769230769229h18v55.3846153846154h-18Z" style="fill: #f58518;"></path></g><g class="mark-group role-legend"><g transform="translate(258,0)"><path class="background" d="M0,0h49v79h-49Z" style="pointer-events: none; fill: none;"></path><g><g class="mark-group role-legend-entry"><g transform="translate(0,16)"><path class="background" d="M0,0h0v0h0Z" style="pointer-events: none; fill: none;"></path><g><g class="mark-group role-scope"><g transform="translate(0,0)"><path class="background" d="M0,0h48v11h-48Z" style="pointer-events: none; fill: none; opacity: 1;"></path><g><g class="mark-symbol role-legend-symbol" style="pointer-events: none;"><path transform="translate(6,6)" d="M-5,-5h10v10h-10Z" style="fill: #4c78a8; stroke-width: 1.5; opacity: 1;"></path></g><g class="mark-text role-legend-label" style="pointer-events: none;"><text text-anchor="start" transform="translate(16,9)" style="font-family: sans-serif; font-size: 10px; fill: #000; opacity: 1;">drizzle</text></g></g></g><g transform="translate(0,13)"><path class="background" d="M0,0h48v11h-48Z" style="pointer-events: none; fill: none; opacity: 1;"></path><g><g class="mark-symbol role-legend-symbol" style="pointer-events: none;"><path transform="translate(6,6)" d="M-5,-5h10v10h-10Z" style="fill: #f58518; stroke-width: 1.5; opacity: 1;"></path></g><g class="mark-text role-legend-label" style="pointer-events: none;"><text text-anchor="start" transform="translate(16,9)" style="font-family: sans-serif; font-size: 10px; fill: #000; opacity: 1;">fog</text></g></g></g><g transform="translate(0,26)"><path class="background" d="M0,0h48v11h-48Z" style="pointer-events: none; fill: none; opacity: 1;"></path><g><g class="mark-symbol role-legend-symbol" style="pointer-events: none;"><path transform="translate(6,6)" d="M-5,-5h10v10h-10Z" style="fill: #e45756; stroke-width: 1.5; opacity: 1;"></path></g><g class="mark-text role-legend-label" style="pointer-events: none;"><text text-anchor="start" transform="translate(16,9)" style="font-family: sans-serif; font-size: 10px; fill: #000; opacity: 1;">rain</text></g></g></g><g transform="translate(0,39)"><path class="background" d="M0,0h48v11h-48Z" style="pointer-events: none; fill: none; opacity: 1;"></path><g><g class="mark-symbol role-legend-symbol" style="pointer-events: none;"><path transform="translate(6,6)" d="M-5,-5h10v10h-10Z" style="fill: #72b7b2; stroke-width: 1.5; opacity: 1;"></path></g><g class="mark-text role-legend-label" style="pointer-events: none;"><text text-anchor="start" transform="translate(16,9)" style="font-family: sans-serif; font-size: 10px; fill: #000; opacity: 1;">snow</text></g></g></g><g transform="translate(0,52)"><path class="background" d="M0,0h48v11h-48Z" style="pointer-events: none; fill: none; opacity: 1;"></path><g><g class="mark-symbol role-legend-symbol" style="pointer-events: none;"><path transform="translate(6,6)" d="M-5,-5h10v10h-10Z" style="fill: #54a24b; stroke-width: 1.5; opacity: 1;"></path></g><g class="mark-text role-legend-label" style="pointer-events: none;"><text text-anchor="start" transform="translate(16,9)" style="font-family: sans-serif; font-size: 10px; fill: #000; opacity: 1;">sun</text></g></g></g></g></g></g></g><g class="mark-text role-legend-title" style="pointer-events: none;"><text text-anchor="start" transform="translate(0,9)" style="font-family: sans-serif; font-size: 11px; font-weight: bold; fill: #000; opacity: 1;">weather</text></g></g></g></g><g class="mark-group role-axis"><g transform="translate(0.5,200.5)"><path class="background" d="M0,0h0v0h0Z" style="pointer-events: none; fill: none;"></path><g><g class="mark-rule role-axis-tick" style="pointer-events: none;"><line transform="translate(9,0)" x2="0" y2="5" style="fill: none; stroke: #888; stroke-width: 1; opacity: 1;"></line><line transform="translate(29,0)" x2="0" y2="5" style="fill: none; stroke: #888; stroke-width: 1; opacity: 1;"></line><line transform="translate(49,0)" x2="0" y2="5" style="fill: none; stroke: #888; stroke-width: 1; opacity: 1;"></line><line transform="translate(69,0)" x2="0" y2="5" style="fill: none; stroke: #888; stroke-width: 1; opacity: 1;"></line><line transform="translate(89,0)" x2="0" y2="5" style="fill: none; stroke: #888; stroke-width: 1; opacity: 1;"></line><line transform="translate(109,0)" x2="0" y2="5" style="fill: none; stroke: #888; stroke-width: 1; opacity: 1;"></line><line transform="translate(129,0)" x2="0" y2="5" style="fill: none; stroke: #888; stroke-width: 1; opacity: 1;"></line><line transform="translate(149,0)" x2="0" y2="5" style="fill: none; stroke: #888; stroke-width: 1; opacity: 1;"></line><line transform="translate(169,0)" x2="0" y2="5" style="fill: none; stroke: #888; stroke-width: 1; opacity: 1;"></line><line transform="translate(189,0)" x2="0" y2="5" style="fill: none; stroke: #888; stroke-width: 1; opacity: 1;"></line><line transform="translate(209,0)" x2="0" y2="5" style="fill: none; stroke: #888; stroke-width: 1; opacity: 1;"></line><line transform="translate(229,0)" x2="0" y2="5" style="fill: none; stroke: #888; stroke-width: 1; opacity: 1;"></line></g><g class="mark-text role-axis-label" style="pointer-events: none;"><text text-anchor="end" transform="translate(9,7) rotate(270) translate(0,3)" style="font-family: sans-serif; font-size: 10px; fill: #000; opacity: 1;">Jan</text><text text-anchor="end" transform="translate(29,7) rotate(270) translate(0,3)" style="font-family: sans-serif; font-size: 10px; fill: #000; opacity: 1;">Feb</text><text text-anchor="end" transform="translate(49,7) rotate(270) translate(0,3)" style="font-family: sans-serif; font-size: 10px; fill: #000; opacity: 1;">Mar</text><text text-anchor="end" transform="translate(69,7) rotate(270) translate(0,3)" style="font-family: sans-serif; font-size: 10px; fill: #000; opacity: 1;">Apr</text><text text-anchor="end" transform="translate(89,7) rotate(270) translate(0,3)" style="font-family: sans-serif; font-size: 10px; fill: #000; opacity: 1;">May</text><text text-anchor="end" transform="translate(109,7) rotate(270) translate(0,3)" style="font-family: sans-serif; font-size: 10px; fill: #000; opacity: 1;">Jun</text><text text-anchor="end" transform="translate(129,7) rotate(270) translate(0,3)" style="font-family: sans-serif; font-size: 10px; fill: #000; opacity: 1;">Jul</text><text text-anchor="end" transform="translate(149,7) rotate(270) translate(0,3)" style="font-family: sans-serif; font-size: 10px; fill: #000; opacity: 1;">Aug</text><text text-anchor="end" transform="translate(169,7) rotate(270) translate(0,3)" style="font-family: sans-serif; font-size: 10px; fill: #000; opacity: 1;">Sep</text><text text-anchor="end" transform="translate(189,7) rotate(270) translate(0,3)" style="font-family: sans-serif; font-size: 10px; fill: #000; opacity: 1;">Oct</text><text text-anchor="end" transform="translate(209,7) rotate(270) translate(0,3)" style="font-family: sans-serif; font-size: 10px; fill: #000; opacity: 1;">Nov</text><text text-anchor="end" transform="translate(229,7) rotate(270) translate(0,3)" style="font-family: sans-serif; font-size: 10px; fill: #000; opacity: 1;">Dec</text></g><g class="mark-rule role-axis-domain" style="pointer-events: none;"><line transform="translate(0,0)" x2="240" y2="0" style="fill: none; stroke: #888; stroke-width: 1; opacity: 1;"></line></g><g class="mark-text role-axis-title" style="pointer-events: none;"><text text-anchor="middle" transform="translate(120,41)" style="font-family: sans-serif; font-size: 11px; font-weight: bold; fill: #000; opacity: 1;">date (month)</text></g></g></g></g><g class="mark-group role-axis"><g transform="translate(0.5,0.5)"><path class="background" d="M0,0h0v0h0Z" style="pointer-events: none; fill: none;"></path><g><g class="mark-rule role-axis-tick" style="pointer-events: none;"><line transform="translate(0,200)" x2="-5" y2="0" style="fill: none; stroke: #888; stroke-width: 1; opacity: 1;"></line><line transform="translate(0,169)" x2="-5" y2="0" style="fill: none; stroke: #888; stroke-width: 1; opacity: 1;"></line><line transform="translate(0,138)" x2="-5" y2="0" style="fill: none; stroke: #888; stroke-width: 1; opacity: 1;"></line><line transform="translate(0,108)" x2="-5" y2="0" style="fill: none; stroke: #888; stroke-width: 1; opacity: 1;"></line><line transform="translate(0,77)" x2="-5" y2="0" style="fill: none; stroke: #888; stroke-width: 1; opacity: 1;"></line><line transform="translate(0,46)" x2="-5" y2="0" style="fill: none; stroke: #888; stroke-width: 1; opacity: 1;"></line><line transform="translate(0,15)" x2="-5" y2="0" style="fill: none; stroke: #888; stroke-width: 1; opacity: 1;"></line></g><g class="mark-text role-axis-label" style="pointer-events: none;"><text text-anchor="end" transform="translate(-7,203)" style="font-family: sans-serif; font-size: 10px; fill: #000; opacity: 1;">0</text><text text-anchor="end" transform="translate(-7,172.23076923076923)" style="font-family: sans-serif; font-size: 10px; fill: #000; opacity: 1;">20</text><text text-anchor="end" transform="translate(-7,141.46153846153845)" style="font-family: sans-serif; font-size: 10px; fill: #000; opacity: 1;">40</text><text text-anchor="end" transform="translate(-7,110.6923076923077)" style="font-family: sans-serif; font-size: 10px; fill: #000; opacity: 1;">60</text><text text-anchor="end" transform="translate(-7,79.92307692307692)" style="font-family: sans-serif; font-size: 10px; fill: #000; opacity: 1;">80</text><text text-anchor="end" transform="translate(-7,49.15384615384613)" style="font-family: sans-serif; font-size: 10px; fill: #000; opacity: 1;">100</text><text text-anchor="end" transform="translate(-7,18.384615384615387)" style="font-family: sans-serif; font-size: 10px; fill: #000; opacity: 1;">120</text></g><g class="mark-rule role-axis-domain" style="pointer-events: none;"><line transform="translate(0,200)" x2="0" y2="-200" style="fill: none; stroke: #888; stroke-width: 1; opacity: 1;"></line></g><g class="mark-text role-axis-title" style="pointer-events: none;"><text text-anchor="middle" transform="translate(-34,100) rotate(-90) translate(0,-2)" style="font-family: sans-serif; font-size: 11px; font-weight: bold; fill: #000; opacity: 1;">Count of Records</text></g></g></g></g></g></g></g></g></svg>