<svg xmlns="http://www.w3.org/2000/svg" xmlns:xlink="http://www.w3.org/1999/xlink" version="1.1" class="marks" width="484" height="245" viewBox="0 0 484 245"><rect width="484" height="245" fill="white"/><g fill="none" stroke-miterlimit="10" transform="translate(85,5)"><g class="mark-group role-frame root" role="graphics-object" aria-roledescription="group mark container"><g transform="translate(0,0)"><path class="background" aria-hidden="true" d="M0.5,0.5h323v200h-323Z" stroke="#ddd"/><g><g class="mark-group role-axis" aria-hidden="true"><g transform="translate(0.5,0.5)"><path class="background" aria-hidden="true" d="M0,0h0v0h0Z" pointer-events="none"/><g><g class="mark-rule role-axis-grid" pointer-events="none"><line transform="translate(0,200)" x2="323" y2="0" stroke="#ddd" stroke-width="1" opacity="1"/><line transform="translate(0,158)" x2="323" y2="0" stroke="#ddd" stroke-width="1" opacity="1"/><line transform="translate(0,117)" x2="323" y2="0" stroke="#ddd" stroke-width="1" opacity="1"/><line transform="translate(0,75)" x2="323" y2="0" stroke="#ddd" stroke-width="1" opacity="1"/><line transform="translate(0,33)" x2="323" y2="0" stroke="#ddd" stroke-width="1" opacity="1"/></g></g><path class="foreground" aria-hidden="true" d="" pointer-events="none" display="none"/></g></g><g class="mark-group role-axis" role="graphics-symbol" aria-roledescription="axis" aria-label="X-axis titled 'age' for a discrete scale with 19 values: 0, 5, 10, 15, 20, ending with 90"><g transform="translate(0.5,200.5)"><path class="background" aria-hidden="true" d="M0,0h0v0h0Z" pointer-events="none"/><g><g class="mark-rule role-axis-tick" pointer-events="none"><line transform="translate(8,0)" x2="0" y2="5" stroke="#888" stroke-width="1" opacity="1"/><line transform="translate(25,0)" x2="0" y2="5" stroke="#888" stroke-width="1" opacity="1"/><line transform="translate(42,0)" x2="0" y2="5" stroke="#888" stroke-width="1" opacity="1"/><line transform="translate(59,0)" x2="0" y2="5" stroke="#888" stroke-width="1" opacity="1"/><line transform="translate(76,0)" x2="0" y2="5" stroke="#888" stroke-width="1" opacity="1"/><line transform="translate(93,0)" x2="0" y2="5" stroke="#888" stroke-width="1" opacity="1"/><line transform="translate(110,0)" x2="0" y2="5" stroke="#888" stroke-width="1" opacity="1"/><line transform="translate(127,0)" x2="0" y2="5" stroke="#888" stroke-width="1" opacity="1"/><line transform="translate(144,0)" x2="0" y2="5" stroke="#888" stroke-width="1" opacity="1"/><line transform="translate(161,0)" x2="0" y2="5" stroke="#888" stroke-width="1" opacity="1"/><line transform="translate(178,0)" x2="0" y2="5" stroke="#888" stroke-width="1" opacity="1"/><line transform="translate(195,0)" x2="0" y2="5" stroke="#888" stroke-width="1" opacity="1"/><line transform="translate(212,0)" x2="0" y2="5" stroke="#888" stroke-width="1" opacity="1"/><line transform="translate(229,0)" x2="0" y2="5" stroke="#888" stroke-width="1" opacity="1"/><line transform="translate(246,0)" x2="0" y2="5" stroke="#888" stroke-width="1" opacity="1"/><line transform="translate(263,0)" x2="0" y2="5" stroke="#888" stroke-width="1" opacity="1"/><line transform="translate(280,0)" x2="0" y2="5" stroke="#888" stroke-width="1" opacity="1"/><line transform="translate(297,0)" x2="0" y2="5" stroke="#888" stroke-width="1" opacity="1"/><line transform="translate(314,0)" x2="0" y2="5" stroke="#888" stroke-width="1" opacity="1"/></g><g class="mark-text role-axis-label" pointer-events="none"><text text-anchor="end" transform="translate(8.000000000000023,7) rotate(270) translate(0,3)" font-family="sans-serif" font-size="10px" fill="#000" opacity="1">0</text><text text-anchor="end" transform="translate(25.00000000000002,7) rotate(270) translate(0,3)" font-family="sans-serif" font-size="10px" fill="#000" opacity="1">5</text><text text-anchor="end" transform="translate(42.00000000000002,7) rotate(270) translate(0,3)" font-family="sans-serif" font-size="10px" fill="#000" opacity="1">10</text><text text-anchor="end" transform="translate(59.00000000000002,7) rotate(270) translate(0,3)" font-family="sans-serif" font-size="10px" fill="#000" opacity="1">15</text><text text-anchor="end" transform="translate(76.00000000000003,7) rotate(270) translate(0,3)" font-family="sans-serif" font-size="10px" fill="#000" opacity="1">20</text><text text-anchor="end" transform="translate(93.00000000000003,7) rotate(270) translate(0,3)" font-family="sans-serif" font-size="10px" fill="#000" opacity="1">25</text><text text-anchor="end" transform="translate(110.00000000000003,7) rotate(270) translate(0,3)" font-family="sans-serif" font-size="10px" fill="#000" opacity="1">30</text><text text-anchor="end" transform="translate(127.00000000000003,7) rotate(270) translate(0,3)" font-family="sans-serif" font-size="10px" fill="#000" opacity="1">35</text><text text-anchor="end" transform="translate(144.00000000000003,7) rotate(270) translate(0,3)" font-family="sans-serif" font-size="10px" fill="#000" opacity="1">40</text><text text-anchor="end" transform="translate(161.00000000000003,7) rotate(270) translate(0,3)" font-family="sans-serif" font-size="10px" fill="#000" opacity="1">45</text><text text-anchor="end" transform="translate(178.00000000000003,7) rotate(270) translate(0,3)" font-family="sans-serif" font-size="10px" fill="#000" opacity="1">50</text><text text-anchor="end" transform="translate(195.00000000000003,7) rotate(270) translate(0,3)" font-family="sans-serif" font-size="10px" fill="#000" opacity="1">55</text><text text-anchor="end" transform="translate(212.00000000000003,7) rotate(270) translate(0,3)" font-family="sans-serif" font-size="10px" fill="#000" opacity="1">60</text><text text-anchor="end" transform="translate(229.00000000000003,7) rotate(270) translate(0,3)" font-family="sans-serif" font-size="10px" fill="#000" opacity="1">65</text><text text-anchor="end" transform="translate(246.00000000000003,7) rotate(270) translate(0,3)" font-family="sans-serif" font-size="10px" fill="#000" opacity="1">70</text><text text-anchor="end" transform="translate(263,7) rotate(270) translate(0,3)" font-family="sans-serif" font-size="10px" fill="#000" opacity="1">75</text><text text-anchor="end" transform="translate(280,7) rotate(270) translate(0,3)" font-family="sans-serif" font-size="10px" fill="#000" opacity="1">80</text><text text-anchor="end" transform="translate(297,7) rotate(270) translate(0,3)" font-family="sans-serif" font-size="10px" fill="#000" opacity="1">85</text><text text-anchor="end" transform="translate(314,7) rotate(270) translate(0,3)" font-family="sans-serif" font-size="10px" fill="#000" opacity="1">90</text></g><g class="mark-rule role-axis-domain" pointer-events="none"><line transform="translate(0,0)" x2="323" y2="0" stroke="#888" stroke-width="1" opacity="1"/></g><g class="mark-text role-axis-title" pointer-events="none"><text text-anchor="middle" transform="translate(161.5,32.72460937500001)" font-family="sans-serif" font-size="11px" font-weight="bold" fill="#000" opacity="1">age</text></g></g><path class="foreground" aria-hidden="true" d="" pointer-events="none" display="none"/></g></g><g class="mark-group role-axis" role="graphics-symbol" aria-roledescription="axis" aria-label="Y-axis titled 'population' for a linear scale with values from 0 to 24,000,000"><g transform="translate(0.5,0.5)"><path class="background" aria-hidden="true" d="M0,0h0v0h0Z" pointer-events="none"/><g><g class="mark-rule role-axis-tick" pointer-events="none"><line transform="translate(0,200)" x2="-5" y2="0" stroke="#888" stroke-width="1" opacity="1"/><line transform="translate(0,158)" x2="-5" y2="0" stroke="#888" stroke-width="1" opacity="1"/><line transform="translate(0,117)" x2="-5" y2="0" stroke="#888" stroke-width="1" opacity="1"/><line transform="translate(0,75)" x2="-5" y2="0" stroke="#888" stroke-width="1" opacity="1"/><line transform="translate(0,33)" x2="-5" y2="0" stroke="#888" stroke-width="1" opacity="1"/></g><g class="mark-text role-axis-label" pointer-events="none"><text text-anchor="end" transform="translate(-7,203)" font-family="sans-serif" font-size="10px" fill="#000" opacity="1">0</text><text text-anchor="end" transform="translate(-7,161.33333333333331)" font-family="sans-serif" font-size="10px" fill="#000" opacity="1">5,000,000</text><text text-anchor="end" transform="translate(-7,119.66666666666666)" font-family="sans-serif" font-size="10px" fill="#000" opacity="1">10,000,000</text><text text-anchor="end" transform="translate(-7,78)" font-family="sans-serif" font-size="10px" fill="#000" opacity="1">15,000,000</text><text text-anchor="end" transform="translate(-7,36.33333333333333)" font-family="sans-serif" font-size="10px" fill="#000" opacity="1">20,000,000</text></g><g class="mark-rule role-axis-domain" pointer-events="none"><line transform="translate(0,200)" x2="0" y2="-200" stroke="#888" stroke-width="1" opacity="1"/></g><g class="mark-text role-axis-title" pointer-events="none"><text text-anchor="middle" transform="translate(-68.255859375,100) rotate(-90) translate(0,-2)" font-family="sans-serif" font-size="11px" font-weight="bold" fill="#000" opacity="1">population</text></g></g><path class="foreground" aria-hidden="true" d="" pointer-events="none" display="none"/></g></g><g class="mark-rect role-mark marks" role="graphics-object" aria-roledescription="rect mark container"><path aria-label="age: 0; population: 9735380; gender: Male" role="graphics-symbol" aria-roledescription="bar" d="M0.8500000000000227,118.87183333333333h15.3v81.12816666666667h-15.3Z" fill="#ca8861"/><path aria-label="age: 0; population: 9310714; gender: Female" role="graphics-symbol" aria-roledescription="bar" d="M0.8500000000000227,41.28255000000001h15.3v77.58928333333333h-15.3Z" fill="#675193"/><path aria-label="age: 5; population: 10552146; gender: Male" role="graphics-symbol" aria-roledescription="bar" d="M17.850000000000023,112.06545000000001h15.3v87.93454999999999h-15.3Z" fill="#ca8861"/><path aria-label="age: 5; population: 10069564; gender: Female" role="graphics-symbol" aria-roledescription="bar" d="M17.850000000000023,28.152416666666657h15.3v83.91303333333336h-15.3Z" fill="#675193"/><path aria-label="age: 10; population: 10563233; gender: Male" role="graphics-symbol" aria-roledescription="bar" d="M34.85000000000002,111.97305833333333h15.3v88.02694166666667h-15.3Z" fill="#ca8861"/><path aria-label="age: 10; population: 10022524; gender: Female" role="graphics-symbol" aria-roledescription="bar" d="M34.85000000000002,28.452024999999992h15.3v83.52103333333334h-15.3Z" fill="#675193"/><path aria-label="age: 15; population: 10237419; gender: Male" role="graphics-symbol" aria-roledescription="bar" d="M51.85000000000002,114.68817499999999h15.3v85.31182500000001h-15.3Z" fill="#ca8861"/><path aria-label="age: 15; population: 9692669; gender: Female" role="graphics-symbol" aria-roledescription="bar" d="M51.85000000000002,33.915933333333335h15.3v80.77224166666664h-15.3Z" fill="#675193"/><path aria-label="age: 20; population: 9731315; gender: Male" role="graphics-symbol" aria-roledescription="bar" d="M68.85000000000002,118.90570833333334h15.3v81.09429166666666h-15.3Z" fill="#ca8861"/><path aria-label="age: 20; population: 9324244; gender: Female" role="graphics-symbol" aria-roledescription="bar" d="M68.85000000000002,41.203675h15.3v77.70203333333333h-15.3Z" fill="#675193"/><path aria-label="age: 25; population: 9659493; gender: Male" role="graphics-symbol" aria-roledescription="bar" d="M85.85000000000002,119.50422499999999h15.3v80.49577500000001h-15.3Z" fill="#ca8861"/><path aria-label="age: 25; population: 9518507; gender: Female" role="graphics-symbol" aria-roledescription="bar" d="M85.85000000000002,40.18333333333332h15.3v79.32089166666667h-15.3Z" fill="#675193"/><path aria-label="age: 30; population: 10205879; gender: Male" role="graphics-symbol" aria-roledescription="bar" d="M102.85000000000002,114.95100833333333h15.3v85.04899166666667h-15.3Z" fill="#ca8861"/><path aria-label="age: 30; population: 10119296; gender: Female" role="graphics-symbol" aria-roledescription="bar" d="M102.85000000000002,30.623541666666675h15.3v84.32746666666665h-15.3Z" fill="#675193"/><path aria-label="age: 35; population: 11475182; gender: Male" role="graphics-symbol" aria-roledescription="bar" d="M119.85000000000002,104.37348333333331h15.3v95.62651666666669h-15.3Z" fill="#ca8861"/><path aria-label="age: 35; population: 11635647; gender: Female" role="graphics-symbol" aria-roledescription="bar" d="M119.85000000000002,7.409758333333327h15.3v96.96372499999998h-15.3Z" fill="#675193"/><path aria-label="age: 40; population: 11320252; gender: Male" role="graphics-symbol" aria-roledescription="bar" d="M136.85000000000002,105.66456666666669h15.3v94.33543333333331h-15.3Z" fill="#ca8861"/><path aria-label="age: 40; population: 11488578; gender: Female" role="graphics-symbol" aria-roledescription="bar" d="M136.85000000000002,9.926416666666672h15.3v95.73815000000002h-15.3Z" fill="#675193"/><path aria-label="age: 45; population: 9925006; gender: Male" role="graphics-symbol" aria-roledescription="bar" d="M153.85000000000002,117.29161666666666h15.3v82.70838333333334h-15.3Z" fill="#ca8861"/><path aria-label="age: 45; population: 10261253; gender: Female" role="graphics-symbol" aria-roledescription="bar" d="M153.85000000000002,31.781174999999994h15.3v85.51044166666667h-15.3Z" fill="#675193"/><path aria-label="age: 50; population: 8507934; gender: Male" role="graphics-symbol" aria-roledescription="bar" d="M170.85000000000002,129.10055h15.3v70.89945h-15.3Z" fill="#ca8861"/><path aria-label="age: 50; population: 8911133; gender: Female" role="graphics-symbol" aria-roledescription="bar" d="M170.85000000000002,54.84110833333333h15.3v74.25944166666667h-15.3Z" fill="#675193"/><path aria-label="age: 55; population: 6459082; gender: Male" role="graphics-symbol" aria-roledescription="bar" d="M187.85000000000002,146.17431666666667h15.3v53.82568333333333h-15.3Z" fill="#ca8861"/><path aria-label="age: 55; population: 6921268; gender: Female" role="graphics-symbol" aria-roledescription="bar" d="M187.85000000000002,88.49708333333332h15.3v57.67723333333335h-15.3Z" fill="#675193"/><path aria-label="age: 60; population: 5123399; gender: Male" role="graphics-symbol" aria-roledescription="bar" d="M204.85000000000002,157.30500833333335h15.3v42.69499166666665h-15.3Z" fill="#ca8861"/><path aria-label="age: 60; population: 5668961; gender: Female" role="graphics-symbol" aria-roledescription="bar" d="M204.85000000000002,110.06366666666668h15.3v47.24134166666667h-15.3Z" fill="#675193"/><path aria-label="age: 65; population: 4453623; gender: Male" role="graphics-symbol" aria-roledescription="bar" d="M221.85000000000002,162.886475h15.3v37.11352500000001h-15.3Z" fill="#ca8861"/><path aria-label="age: 65; population: 4804784; gender: Female" role="graphics-symbol" aria-roledescription="bar" d="M221.85000000000002,122.84660833333332h15.3v40.03986666666667h-15.3Z" fill="#675193"/><path aria-label="age: 70; population: 3792145; gender: Male" role="graphics-symbol" aria-roledescription="bar" d="M238.85000000000002,168.39879166666668h15.3v31.601208333333318h-15.3Z" fill="#ca8861"/><path aria-label="age: 70; population: 5184855; gender: Female" role="graphics-symbol" aria-roledescription="bar" d="M238.85000000000002,125.19166666666668h15.3v43.207125000000005h-15.3Z" fill="#675193"/><path aria-label="age: 75; population: 2912655; gender: Male" role="graphics-symbol" aria-roledescription="bar" d="M255.85000000000002,175.727875h15.3v24.27212499999999h-15.3Z" fill="#ca8861"/><path aria-label="age: 75; population: 4355644; gender: Female" role="graphics-symbol" aria-roledescription="bar" d="M255.85000000000002,139.43084166666665h15.3v36.29703333333336h-15.3Z" fill="#675193"/><path aria-label="age: 80; population: 1902638; gender: Male" role="graphics-symbol" aria-roledescription="bar" d="M272.85,184.14468333333335h15.3v15.855316666666653h-15.3Z" fill="#ca8861"/><path aria-label="age: 80; population: 3221898; gender: Female" role="graphics-symbol" aria-roledescription="bar" d="M272.85,157.29553333333334h15.3v26.84915000000001h-15.3Z" fill="#675193"/><path aria-label="age: 85; population: 970357; gender: Male" role="graphics-symbol" aria-roledescription="bar" d="M289.85,191.91369166666667h15.3v8.086308333333335h-15.3Z" fill="#ca8861"/><path aria-label="age: 85; population: 1981156; gender: Female" role="graphics-symbol" aria-roledescription="bar" d="M289.85,175.40405833333332h15.3v16.50963333333334h-15.3Z" fill="#675193"/><path aria-label="age: 90; population: 336303; gender: Male" role="graphics-symbol" aria-roledescription="bar" d="M306.85,197.197475h15.3v2.802525000000003h-15.3Z" fill="#ca8861"/><path aria-label="age: 90; population: 1064581; gender: Female" role="graphics-symbol" aria-roledescription="bar" d="M306.85,188.32596666666666h15.3v8.871508333333338h-15.3Z" fill="#675193"/></g><g class="mark-group role-legend" role="graphics-symbol" aria-roledescription="legend" aria-label="Symbol legend titled 'gender' for fill color with 2 values: Female, Male"><g transform="translate(341,0)"><path class="background" aria-hidden="true" d="M0,0h53v40h-53Z" pointer-events="none"/><g><g class="mark-group role-legend-entry"><g transform="translate(0,16)"><path class="background" aria-hidden="true" d="M0,0h0v0h0Z" pointer-events="none"/><g><g class="mark-group role-scope" role="graphics-object" aria-roledescription="group mark container"><g transform="translate(0,0)"><path class="background" aria-hidden="true" d="M0,0h52.1572265625v11h-52.1572265625Z" pointer-events="none" opacity="1"/><g><g class="mark-symbol role-legend-symbol" pointer-events="none"><path transform="translate(6,6)" d="M-5,-5h10v10h-10Z" fill="#675193" stroke-width="1.5" opacity="1"/></g><g class="mark-text role-legend-label" pointer-events="none"><text text-anchor="start" transform="translate(16,9)" font-family="sans-serif" font-size="10px" fill="#000" opacity="1">Female</text></g></g><path class="foreground" aria-hidden="true" d="" pointer-events="none" display="none"/></g><g transform="translate(0,13)"><path class="background" aria-hidden="true" d="M0,0h52.1572265625v11h-52.1572265625Z" pointer-events="none" opacity="1"/><g><g class="mark-symbol role-legend-symbol" pointer-events="none"><path transform="translate(6,6)" d="M-5,-5h10v10h-10Z" fill="#ca8861" stroke-width="1.5" opacity="1"/></g><g class="mark-text role-legend-label" pointer-events="none"><text text-anchor="start" transform="translate(16,9)" font-family="sans-serif" font-size="10px" fill="#000" opacity="1">Male</text></g></g><path class="foreground" aria-hidden="true" d="" pointer-events="none" display="none"/></g></g></g><path class="foreground" aria-hidden="true" d="" pointer-events="none" display="none"/></g></g><g class="mark-text role-legend-title" pointer-events="none"><text text-anchor="start" transform="translate(0,9)" font-family="sans-serif" font-size="11px" font-weight="bold" fill="#000" opacity="1">gender</text></g></g><path class="foreground" aria-hidden="true" d="" pointer-events="none" display="none"/></g></g></g><path class="foreground" aria-hidden="true" d="" display="none"/></g></g></g></svg>