<svg class="marks" width="414" height="369" viewBox="0 0 414 369" version="1.1" xmlns="http://www.w3.org/2000/svg" xmlns:xlink="http://www.w3.org/1999/xlink"><g transform="translate(54,11)"><g class="mark-group role-frame root"><g transform="translate(0,0)"><path class="background" d="M0.5,0.5h200v200h-200Z" style="fill: none; stroke: #ddd;"></path><g><g class="mark-group role-axis"><g transform="translate(0.5,0.5)"><path class="background" d="M0,0h0v0h0Z" style="pointer-events: none; fill: none;"></path><g><g class="mark-rule role-axis-grid" style="pointer-events: none;"><line transform="translate(0,182)" x2="200" y2="0" style="fill: none; stroke: #ddd; stroke-width: 1; opacity: 1;"></line><line transform="translate(0,145)" x2="200" y2="0" style="fill: none; stroke: #ddd; stroke-width: 1; opacity: 1;"></line><line transform="translate(0,109)" x2="200" y2="0" style="fill: none; stroke: #ddd; stroke-width: 1; opacity: 1;"></line><line transform="translate(0,73)" x2="200" y2="0" style="fill: none; stroke: #ddd; stroke-width: 1; opacity: 1;"></line><line transform="translate(0,36)" x2="200" y2="0" style="fill: none; stroke: #ddd; stroke-width: 1; opacity: 1;"></line><line transform="translate(0,0)" x2="200" y2="0" style="fill: none; stroke: #ddd; stroke-width: 1; opacity: 1;"></line></g></g></g></g><g class="mark-rect role-mark marks"><path d="M21,132.27878545454547h18v19.599999999999994h-18Z" style="fill: #54a24b;"></path><path d="M21,151.87878545454546h18v29.939396363636348h-18Z" style="fill: #eeca3b;"></path><path d="M21,109.80605818181817h18v22.472727272727298h-18Z" style="fill: #72b7b2;"></path><path d="M21,44.52120727272725h18v26.50909090909093h-18Z" style="fill: #4c78a8;"></path><path d="M21,89.76969454545456h18v20.036363636363618h-18Z" style="fill: #e45756;"></path><path d="M21,71.03029818181818h18v18.739396363636374h-18Z" style="fill: #f58518;"></path><path d="M1,118.98182181818181h18v29.042421818181808h-18Z" style="fill: #54a24b;"></path><path d="M1,148.02424363636362h18v33.79393818181819h-18Z" style="fill: #eeca3b;"></path><path d="M1,95.74545818181817h18v23.23636363636365h-18Z" style="fill: #72b7b2;"></path><path d="M1,36.327276363636344h18v23.381818181818176h-18Z" style="fill: #4c78a8;"></path><path d="M1,79.90303636363636h18v15.842421818181805h-18Z" style="fill: #e45756;"></path><path d="M1,59.70909454545452h18v20.19394181818184h-18Z" style="fill: #f58518;"></path><path d="M121,127.85454545454546h18v22.751516363636355h-18Z" style="fill: #54a24b;"></path><path d="M121,150.60606181818181h18v31.21212h-18Z" style="fill: #eeca3b;"></path><path d="M121,105.74545454545455h18v22.10909090909091h-18Z" style="fill: #72b7b2;"></path><path d="M121,49.26060727272724h18v22.218181818181847h-18Z" style="fill: #4c78a8;"></path><path d="M121,88.90909090909092h18v16.83636363636363h-18Z" style="fill: #e45756;"></path><path d="M121,71.47878909090909h18v17.43030181818183h-18Z" style="fill: #f58518;"></path><path d="M161,125.69697090909091h18v24.25454545454545h-18Z" style="fill: #54a24b;"></path><path d="M161,149.95151636363636h18v31.866665454545455h-18Z" style="fill: #eeca3b;"></path><path d="M161,102.07273090909091h18v23.62424h-18Z" style="fill: #72b7b2;"></path><path d="M161,37.55152363636364h18v26.690905454545486h-18Z" style="fill: #4c78a8;"></path><path d="M161,81.97576363636365h18v20.096967272727255h-18Z" style="fill: #e45756;"></path><path d="M161,64.24242909090913h18v17.733334545454525h-18Z" style="fill: #f58518;"></path><path d="M141,116.8363890909091h18v23.86666545454544h-18Z" style="fill: #54a24b;"></path><path d="M141,140.70305454545453h18v41.11512727272728h-18Z" style="fill: #eeca3b;"></path><path d="M141,83.96366181818182h18v32.872727272727275h-18Z" style="fill: #72b7b2;"></path><path d="M141,9.8909381818182h18v32.27878545454547h-18Z" style="fill: #4c78a8;"></path><path d="M141,65.63638909090912h18v18.3272727272727h-18Z" style="fill: #e45756;"></path><path d="M141,42.16972363636367h18v23.46666545454545h-18Z" style="fill: #f58518;"></path><path d="M41,119.99999636363637h18v25.345458181818174h-18Z" style="fill: #54a24b;"></path><path d="M41,145.34545454545454h18v36.47272727272727h-18Z" style="fill: #eeca3b;"></path><path d="M41,93.73332727272728h18v26.26666909090909h-18Z" style="fill: #72b7b2;"></path><path d="M41,25.393930909090898h18v29.090909090909093h-18Z" style="fill: #4c78a8;"></path><path d="M41,74.95756727272726h18v18.77576000000002h-18Z" style="fill: #e45756;"></path><path d="M41,54.48483999999999h18v20.47272727272727h-18Z" style="fill: #f58518;"></path><path d="M61,119.0424109090909h18v22.606061818181814h-18Z" style="fill: #54a24b;"></path><path d="M61,141.64847272727272h18v40.169709090909095h-18Z" style="fill: #eeca3b;"></path><path d="M61,90.90907636363636h18v28.133334545454545h-18Z" style="fill: #72b7b2;"></path><path d="M61,27.44241090909091h18v28.763632727272693h-18Z" style="fill: #4c78a8;"></path><path d="M61,74.60604363636362h18v16.303032727272736h-18Z" style="fill: #e45756;"></path><path d="M61,56.2060436363636h18v18.40000000000002h-18Z" style="fill: #f58518;"></path><path d="M101,128.93333454545456h18v22.121214545454535h-18Z" style="fill: #54a24b;"></path><path d="M101,151.0545490909091h18v30.76363272727272h-18Z" style="fill: #eeca3b;"></path><path d="M101,102.36363636363637h18v26.569698181818183h-18Z" style="fill: #72b7b2;"></path><path d="M101,32.66666545454544h18v24.303029090909092h-18Z" style="fill: #4c78a8;"></path><path d="M101,80.01212h18v22.351516363636378h-18Z" style="fill: #e45756;"></path><path d="M101,56.96969454545453h18v23.042425454545466h-18Z" style="fill: #f58518;"></path><path d="M81,129.92726909090908h18v19.878789090909095h-18Z" style="fill: #54a24b;"></path><path d="M81,149.80605818181817h18v32.01212363636364h-18Z" style="fill: #eeca3b;"></path><path d="M81,105.62423999999999h18v24.303029090909092h-18Z" style="fill: #72b7b2;"></path><path d="M81,43.22424363636364h18v27.7212109090909h-18Z" style="fill: #4c78a8;"></path><path d="M81,92.92121090909092h18v12.70302909090907h-18Z" style="fill: #e45756;"></path><path d="M81,70.94545454545454h18v21.97575636363638h-18Z" style="fill: #f58518;"></path><path d="M181,111.17575636363637h18v28.109090909090924h-18Z" style="fill: #54a24b;"></path><path d="M181,139.2848472727273h18v42.53333454545452h-18Z" style="fill: #eeca3b;"></path><path d="M181,83.3090872727273h18v27.86666909090907h-18Z" style="fill: #72b7b2;"></path><path d="M181,9.915145454545467h18v31.187880000000007h-18Z" style="fill: #4c78a8;"></path><path d="M181,63.26060000000001h18v20.048487272727286h-18Z" style="fill: #e45756;"></path><path d="M181,41.103025454545474h18v22.157574545454537h-18Z" style="fill: #f58518;"></path></g><g class="mark-group role-legend"><g transform="translate(218,0)"><path class="background" d="M0,0h137v98h-137Z" style="pointer-events: none; fill: none;"></path><g><g class="mark-group role-legend-entry"><g transform="translate(0,16)"><path class="background" d="M0,0h0v0h0Z" style="pointer-events: none; fill: none;"></path><g><g class="mark-group role-scope"><g transform="translate(0,0)"><path class="background" d="M0,0h137v12h-137Z" style="pointer-events: none; fill: none; opacity: 1;"></path><g><g class="mark-symbol role-legend-symbol" style="pointer-events: none;"><path transform="translate(6,6)" d="M-5,-5h10v10h-10Z" style="fill: #4c78a8; stroke-width: 1.5; opacity: 1;"></path></g><g class="mark-text role-legend-label" style="pointer-events: none;"><text text-anchor="start" transform="translate(16,9)" style="font-family: sans-serif; font-size: 10px; fill: #000; opacity: 1;">Crookston</text></g></g></g><g transform="translate(0,14)"><path class="background" d="M0,0h137v12h-137Z" style="pointer-events: none; fill: none; opacity: 1;"></path><g><g class="mark-symbol role-legend-symbol" style="pointer-events: none;"><path transform="translate(6,6)" d="M-5,-5h10v10h-10Z" style="fill: #f58518; stroke-width: 1.5; opacity: 1;"></path></g><g class="mark-text role-legend-label" style="pointer-events: none;"><text text-anchor="start" transform="translate(16,9)" style="font-family: sans-serif; font-size: 10px; fill: #000; opacity: 1;">Duluth</text></g></g></g><g transform="translate(0,28)"><path class="background" d="M0,0h137v12h-137Z" style="pointer-events: none; fill: none; opacity: 1;"></path><g><g class="mark-symbol role-legend-symbol" style="pointer-events: none;"><path transform="translate(6,6)" d="M-5,-5h10v10h-10Z" style="fill: #e45756; stroke-width: 1.5; opacity: 1;"></path></g><g class="mark-text role-legend-label" style="pointer-events: none;"><text text-anchor="start" transform="translate(16,9)" style="font-family: sans-serif; font-size: 10px; fill: #000; opacity: 1;">Grand Rapids</text></g></g></g><g transform="translate(0,42)"><path class="background" d="M0,0h137v12h-137Z" style="pointer-events: none; fill: none; opacity: 1;"></path><g><g class="mark-symbol role-legend-symbol" style="pointer-events: none;"><path transform="translate(6,6)" d="M-5,-5h10v10h-10Z" style="fill: #72b7b2; stroke-width: 1.5; opacity: 1;"></path></g><g class="mark-text role-legend-label" style="pointer-events: none;"><text text-anchor="start" transform="translate(16,9)" style="font-family: sans-serif; font-size: 10px; fill: #000; opacity: 1;">Morris</text></g></g></g><g transform="translate(0,56)"><path class="background" d="M0,0h137v12h-137Z" style="pointer-events: none; fill: none; opacity: 1;"></path><g><g class="mark-symbol role-legend-symbol" style="pointer-events: none;"><path transform="translate(6,6)" d="M-5,-5h10v10h-10Z" style="fill: #54a24b; stroke-width: 1.5; opacity: 1;"></path></g><g class="mark-text role-legend-label" style="pointer-events: none;"><text text-anchor="start" transform="translate(16,9)" style="font-family: sans-serif; font-size: 10px; fill: #000; opacity: 1;">University Farm</text></g></g></g><g transform="translate(0,70)"><path class="background" d="M0,0h137v12h-137Z" style="pointer-events: none; fill: none; opacity: 1;"></path><g><g class="mark-symbol role-legend-symbol" style="pointer-events: none;"><path transform="translate(6,6)" d="M-5,-5h10v10h-10Z" style="fill: #eeca3b; stroke-width: 1.5; opacity: 1;"></path></g><g class="mark-text role-legend-label" style="pointer-events: none;"><text text-anchor="start" transform="translate(16,9)" style="font-family: sans-serif; font-size: 10px; fill: #000; opacity: 1;">Waseca</text></g></g></g></g></g></g></g><g class="mark-text role-legend-title" style="pointer-events: none;"><text text-anchor="start" transform="translate(0,9)" style="font-family: sans-serif; font-size: 11px; font-weight: bold; fill: #000; opacity: 1;">site</text></g></g></g></g><g class="mark-group role-axis"><g transform="translate(0.5,200.5)"><path class="background" d="M0,0h0v0h0Z" style="pointer-events: none; fill: none;"></path><g><g class="mark-rule role-axis-tick" style="pointer-events: none;"><line transform="translate(9,0)" x2="0" y2="5" style="fill: none; stroke: #888; stroke-width: 1; opacity: 1;"></line><line transform="translate(29,0)" x2="0" y2="5" style="fill: none; stroke: #888; stroke-width: 1; opacity: 1;"></line><line transform="translate(49,0)" x2="0" y2="5" style="fill: none; stroke: #888; stroke-width: 1; opacity: 1;"></line><line transform="translate(69,0)" x2="0" y2="5" style="fill: none; stroke: #888; stroke-width: 1; opacity: 1;"></line><line transform="translate(89,0)" x2="0" y2="5" style="fill: none; stroke: #888; stroke-width: 1; opacity: 1;"></line><line transform="translate(109,0)" x2="0" y2="5" style="fill: none; stroke: #888; stroke-width: 1; opacity: 1;"></line><line transform="translate(129,0)" x2="0" y2="5" style="fill: none; stroke: #888; stroke-width: 1; opacity: 1;"></line><line transform="translate(149,0)" x2="0" y2="5" style="fill: none; stroke: #888; stroke-width: 1; opacity: 1;"></line><line transform="translate(169,0)" x2="0" y2="5" style="fill: none; stroke: #888; stroke-width: 1; opacity: 1;"></line><line transform="translate(189,0)" x2="0" y2="5" style="fill: none; stroke: #888; stroke-width: 1; opacity: 1;"></line></g><g class="mark-text role-axis-label" style="pointer-events: none;"><text text-anchor="end" transform="translate(9,7) rotate(270) translate(0,3)" style="font-family: sans-serif; font-size: 10px; fill: #000; opacity: 1;">Glabron</text><text text-anchor="end" transform="translate(29,7) rotate(270) translate(0,3)" style="font-family: sans-serif; font-size: 10px; fill: #000; opacity: 1;">Manchuria</text><text text-anchor="end" transform="translate(49,7) rotate(270) translate(0,3)" style="font-family: sans-serif; font-size: 10px; fill: #000; opacity: 1;">No. 457</text><text text-anchor="end" transform="translate(69,7) rotate(270) translate(0,3)" style="font-family: sans-serif; font-size: 10px; fill: #000; opacity: 1;">No. 462</text><text text-anchor="end" transform="translate(89,7) rotate(270) translate(0,3)" style="font-family: sans-serif; font-size: 10px; fill: #000; opacity: 1;">No. 475</text><text text-anchor="end" transform="translate(109,7) rotate(270) translate(0,3)" style="font-family: sans-serif; font-size: 10px; fill: #000; opacity: 1;">Peatland</text><text text-anchor="end" transform="translate(129,7) rotate(270) translate(0,3)" style="font-family: sans-serif; font-size: 10px; fill: #000; opacity: 1;">Svansota</text><text text-anchor="end" transform="translate(149,7) rotate(270) translate(0,3)" style="font-family: sans-serif; font-size: 10px; fill: #000; opacity: 1;">Trebi</text><text text-anchor="end" transform="translate(169,7) rotate(270) translate(0,3)" style="font-family: sans-serif; font-size: 10px; fill: #000; opacity: 1;">Velvet</text><text text-anchor="end" transform="translate(189,7) rotate(270) translate(0,3)" style="font-family: sans-serif; font-size: 10px; fill: #000; opacity: 1;">Wisconsin No. 38</text></g><g class="mark-rule role-axis-domain" style="pointer-events: none;"><line transform="translate(0,0)" x2="200" y2="0" style="fill: none; stroke: #888; stroke-width: 1; opacity: 1;"></line></g><g class="mark-text role-axis-title" style="pointer-events: none;"><text text-anchor="middle" transform="translate(100,149)" style="font-family: sans-serif; font-size: 11px; font-weight: bold; fill: #000; opacity: 1;">variety</text></g></g></g></g><g class="mark-group role-axis"><g transform="translate(0.5,0.5)"><path class="background" d="M0,0h0v0h0Z" style="pointer-events: none; fill: none;"></path><g><g class="mark-rule role-axis-tick" style="pointer-events: none;"><line transform="translate(0,182)" x2="-5" y2="0" style="fill: none; stroke: #888; stroke-width: 1; opacity: 1;"></line><line transform="translate(0,145)" x2="-5" y2="0" style="fill: none; stroke: #888; stroke-width: 1; opacity: 1;"></line><line transform="translate(0,109)" x2="-5" y2="0" style="fill: none; stroke: #888; stroke-width: 1; opacity: 1;"></line><line transform="translate(0,73)" x2="-5" y2="0" style="fill: none; stroke: #888; stroke-width: 1; opacity: 1;"></line><line transform="translate(0,36)" x2="-5" y2="0" style="fill: none; stroke: #888; stroke-width: 1; opacity: 1;"></line><line transform="translate(0,0)" x2="-5" y2="0" style="fill: none; stroke: #888; stroke-width: 1; opacity: 1;"></line></g><g class="mark-text role-axis-label" style="pointer-events: none;"><text text-anchor="end" transform="translate(-7,184.8181818181818)" style="font-family: sans-serif; font-size: 10px; fill: #000; opacity: 1;">0</text><text text-anchor="end" transform="translate(-7,148.45454545454547)" style="font-family: sans-serif; font-size: 10px; fill: #000; opacity: 1;">100</text><text text-anchor="end" transform="translate(-7,112.0909090909091)" style="font-family: sans-serif; font-size: 10px; fill: #000; opacity: 1;">200</text><text text-anchor="end" transform="translate(-7,75.72727272727273)" style="font-family: sans-serif; font-size: 10px; fill: #000; opacity: 1;">300</text><text text-anchor="end" transform="translate(-7,39.363636363636346)" style="font-family: sans-serif; font-size: 10px; fill: #000; opacity: 1;">400</text><text text-anchor="end" transform="translate(-7,3)" style="font-family: sans-serif; font-size: 10px; fill: #000; opacity: 1;">500</text></g><g class="mark-rule role-axis-domain" style="pointer-events: none;"><line transform="translate(0,200)" x2="0" y2="-200" style="fill: none; stroke: #888; stroke-width: 1; opacity: 1;"></line></g><g class="mark-text role-axis-title" style="pointer-events: none;"><text text-anchor="middle" transform="translate(-36,100) rotate(-90) translate(0,-2)" style="font-family: sans-serif; font-size: 11px; font-weight: bold; fill: #000; opacity: 1;">Sum of yield</text></g></g></g></g></g></g></g></g></svg>