<svg class="marks" width="450" height="253" viewBox="0 0 450 253" version="1.1" xmlns="http://www.w3.org/2000/svg" xmlns:xlink="http://www.w3.org/1999/xlink"><g transform="translate(52,11)"><g class="mark-group role-frame root"><g transform="translate(0,0)"><path class="background" d="M0.5,0.5h323v200h-323Z" style="fill: transparent; stroke: #ddd;"></path><g><g class="mark-group role-axis"><g transform="translate(0.5,0.5)"><path class="background" d="M0,0h0v0h0Z" style="pointer-events: none; fill: none;"></path><g><g class="mark-rule role-axis-grid" style="pointer-events: none;"><line transform="translate(0,200)" x2="323" y2="0" style="fill: none; stroke: #ddd; stroke-width: 1; stroke-dasharray: ; opacity: 1;"></line><line transform="translate(0,160)" x2="323" y2="0" style="fill: none; stroke: #ddd; stroke-width: 1; stroke-dasharray: ; opacity: 1;"></line><line transform="translate(0,120)" x2="323" y2="0" style="fill: none; stroke: #ddd; stroke-width: 1; stroke-dasharray: ; opacity: 1;"></line><line transform="translate(0,80)" x2="323" y2="0" style="fill: none; stroke: #ddd; stroke-width: 1; stroke-dasharray: ; opacity: 1;"></line><line transform="translate(0,40)" x2="323" y2="0" style="fill: none; stroke: #ddd; stroke-width: 1; stroke-dasharray: ; opacity: 1;"></line><line transform="translate(0,0)" x2="323" y2="0" style="fill: none; stroke: #ddd; stroke-width: 1; stroke-dasharray: ; opacity: 1;"></line></g></g></g></g><g class="mark-rect role-mark marks"><path d="M0.8500000000000227,97.7703249810696h15.3v102.2296750189304h-15.3Z" style="fill: #659CCA;"></path><path d="M0.8500000000000227,0h15.3v97.7703249810696h-15.3Z" style="fill: #EA98D2;"></path><path d="M17.850000000000023,97.65983519310473h15.3v102.34016480689527h-15.3Z" style="fill: #659CCA;"></path><path d="M17.850000000000023,0h15.3v97.65983519310473h-15.3Z" style="fill: #EA98D2;"></path><path d="M34.85000000000002,97.3733829657078h15.3v102.6266170342922h-15.3Z" style="fill: #659CCA;"></path><path d="M34.85000000000002,2.842170943040401e-14h15.3v97.37338296570778h-15.3Z" style="fill: #EA98D2;"></path><path d="M51.85000000000002,97.26669546065226h15.3v102.73330453934774h-15.3Z" style="fill: #659CCA;"></path><path d="M51.85000000000002,0h15.3v97.26669546065226h-15.3Z" style="fill: #EA98D2;"></path><path d="M68.85000000000002,97.86376773307988h15.3v102.13623226692012h-15.3Z" style="fill: #659CCA;"></path><path d="M68.85000000000002,0h15.3v97.86376773307988h-15.3Z" style="fill: #EA98D2;"></path><path d="M85.85000000000002,99.26485556366671h15.3v100.73514443633329h-15.3Z" style="fill: #659CCA;"></path><path d="M85.85000000000002,2.842170943040401e-14h15.3v99.26485556366669h-15.3Z" style="fill: #EA98D2;"></path><path d="M102.85000000000002,99.57401104787536h15.3v100.42598895212464h-15.3Z" style="fill: #659CCA;"></path><path d="M102.85000000000002,0h15.3v99.57401104787536h-15.3Z" style="fill: #EA98D2;"></path><path d="M119.85000000000002,100.6943281870157h15.3v99.3056718129843h-15.3Z" style="fill: #659CCA;"></path><path d="M119.85000000000002,0h15.3v100.6943281870157h-15.3Z" style="fill: #EA98D2;"></path><path d="M136.85000000000002,100.73798612204133h15.3v99.26201387795867h-15.3Z" style="fill: #659CCA;"></path><path d="M136.85000000000002,0h15.3v100.73798612204133h-15.3Z" style="fill: #EA98D2;"></path><path d="M153.85000000000002,101.66572221232275h15.3v98.33427778767725h-15.3Z" style="fill: #659CCA;"></path><path d="M153.85000000000002,0h15.3v101.66572221232275h-15.3Z" style="fill: #EA98D2;"></path><path d="M170.85000000000002,102.31469917418654h15.3v97.68530082581346h-15.3Z" style="fill: #659CCA;"></path><path d="M170.85000000000002,0h15.3v102.31469917418654h-15.3Z" style="fill: #EA98D2;"></path><path d="M187.85000000000002,103.45421457585189h15.3v96.54578542414811h-15.3Z" style="fill: #659CCA;"></path><path d="M187.85000000000002,0h15.3v103.45421457585189h-15.3Z" style="fill: #EA98D2;"></path><path d="M204.85000000000002,105.05507599820614h15.3v94.94492400179386h-15.3Z" style="fill: #659CCA;"></path><path d="M204.85000000000002,0h15.3v105.05507599820614h-15.3Z" style="fill: #EA98D2;"></path><path d="M221.85000000000002,103.79288791257503h15.3v96.20711208742497h-15.3Z" style="fill: #659CCA;"></path><path d="M221.85000000000002,0h15.3v103.79288791257503h-15.3Z" style="fill: #EA98D2;"></path><path d="M238.85000000000002,115.514202963128h15.3v84.485797036872h-15.3Z" style="fill: #659CCA;"></path><path d="M238.85000000000002,0h15.3v115.514202963128h-15.3Z" style="fill: #EA98D2;"></path><path d="M255.85000000000002,119.8531871074649h15.3v80.1468128925351h-15.3Z" style="fill: #659CCA;"></path><path d="M255.85000000000002,2.842170943040401e-14h15.3v119.85318710746488h-15.3Z" style="fill: #EA98D2;"></path><path d="M272.85,125.74398930947113h15.3v74.25601069052887h-15.3Z" style="fill: #659CCA;"></path><path d="M272.85,0h15.3v125.74398930947113h-15.3Z" style="fill: #EA98D2;"></path><path d="M289.85,134.24680833186233h15.3v65.75319166813767h-15.3Z" style="fill: #659CCA;"></path><path d="M289.85,0h15.3v134.24680833186233h-15.3Z" style="fill: #EA98D2;"></path><path d="M306.85,151.98703104611087h15.3v48.01296895388913h-15.3Z" style="fill: #659CCA;"></path><path d="M306.85,2.842170943040401e-14h15.3v151.98703104611084h-15.3Z" style="fill: #EA98D2;"></path></g><g class="mark-group role-legend"><g transform="translate(341,0)"><path class="background" d="M0,0h52v42h-52Z" style="pointer-events: none; fill: none;"></path><g><g class="mark-group role-legend-entry"><g transform="translate(0,16)"><path class="background" d="M0,0h0v0h0Z" style="pointer-events: none; fill: none;"></path><g><g class="mark-symbol role-legend-symbol" style="pointer-events: none;"><path transform="translate(5,5)" d="M-5,-5h10v10h-10Z" style="fill: #EA98D2; stroke-width: 1.5; opacity: 1;"></path><path transform="translate(5,20)" d="M-5,-5h10v10h-10Z" style="fill: #659CCA; stroke-width: 1.5; opacity: 1;"></path></g><g class="mark-text role-legend-label" style="pointer-events: none;"><text text-anchor="start" transform="translate(18,8)" style="font: 10px sans-serif; fill: #000; opacity: 1;">Female</text><text text-anchor="start" transform="translate(18,23)" style="font: 10px sans-serif; fill: #000; opacity: 1;">Male</text></g></g></g></g><g class="mark-text role-legend-title" style="pointer-events: none;"><text text-anchor="start" transform="translate(0,9)" style="font: bold 11px sans-serif; fill: #000; opacity: 1;">gender</text></g></g></g></g><g class="mark-group role-axis"><g transform="translate(0.5,200.5)"><path class="background" d="M0,0h0v0h0Z" style="pointer-events: none; fill: none;"></path><g><g class="mark-rule role-axis-tick" style="pointer-events: none;"><line transform="translate(8,0)" x2="0" y2="5" style="fill: none; stroke: #888; stroke-width: 1; opacity: 1;"></line><line transform="translate(25,0)" x2="0" y2="5" style="fill: none; stroke: #888; stroke-width: 1; opacity: 1;"></line><line transform="translate(42,0)" x2="0" y2="5" style="fill: none; stroke: #888; stroke-width: 1; opacity: 1;"></line><line transform="translate(59,0)" x2="0" y2="5" style="fill: none; stroke: #888; stroke-width: 1; opacity: 1;"></line><line transform="translate(76,0)" x2="0" y2="5" style="fill: none; stroke: #888; stroke-width: 1; opacity: 1;"></line><line transform="translate(93,0)" x2="0" y2="5" style="fill: none; stroke: #888; stroke-width: 1; opacity: 1;"></line><line transform="translate(110,0)" x2="0" y2="5" style="fill: none; stroke: #888; stroke-width: 1; opacity: 1;"></line><line transform="translate(127,0)" x2="0" y2="5" style="fill: none; stroke: #888; stroke-width: 1; opacity: 1;"></line><line transform="translate(144,0)" x2="0" y2="5" style="fill: none; stroke: #888; stroke-width: 1; opacity: 1;"></line><line transform="translate(161,0)" x2="0" y2="5" style="fill: none; stroke: #888; stroke-width: 1; opacity: 1;"></line><line transform="translate(178,0)" x2="0" y2="5" style="fill: none; stroke: #888; stroke-width: 1; opacity: 1;"></line><line transform="translate(195,0)" x2="0" y2="5" style="fill: none; stroke: #888; stroke-width: 1; opacity: 1;"></line><line transform="translate(212,0)" x2="0" y2="5" style="fill: none; stroke: #888; stroke-width: 1; opacity: 1;"></line><line transform="translate(229,0)" x2="0" y2="5" style="fill: none; stroke: #888; stroke-width: 1; opacity: 1;"></line><line transform="translate(246,0)" x2="0" y2="5" style="fill: none; stroke: #888; stroke-width: 1; opacity: 1;"></line><line transform="translate(263,0)" x2="0" y2="5" style="fill: none; stroke: #888; stroke-width: 1; opacity: 1;"></line><line transform="translate(280,0)" x2="0" y2="5" style="fill: none; stroke: #888; stroke-width: 1; opacity: 1;"></line><line transform="translate(297,0)" x2="0" y2="5" style="fill: none; stroke: #888; stroke-width: 1; opacity: 1;"></line><line transform="translate(314,0)" x2="0" y2="5" style="fill: none; stroke: #888; stroke-width: 1; opacity: 1;"></line></g><g class="mark-text role-axis-label" style="pointer-events: none;"><text text-anchor="end" transform="translate(7.500000000000023,7) rotate(270) translate(0,3)" style="font: 10px sans-serif; fill: #000; opacity: 1;">0</text><text text-anchor="end" transform="translate(24.50000000000002,7) rotate(270) translate(0,3)" style="font: 10px sans-serif; fill: #000; opacity: 1;">5</text><text text-anchor="end" transform="translate(41.50000000000002,7) rotate(270) translate(0,3)" style="font: 10px sans-serif; fill: #000; opacity: 1;">10</text><text text-anchor="end" transform="translate(58.50000000000002,7) rotate(270) translate(0,3)" style="font: 10px sans-serif; fill: #000; opacity: 1;">15</text><text text-anchor="end" transform="translate(75.50000000000003,7) rotate(270) translate(0,3)" style="font: 10px sans-serif; fill: #000; opacity: 1;">20</text><text text-anchor="end" transform="translate(92.50000000000003,7) rotate(270) translate(0,3)" style="font: 10px sans-serif; fill: #000; opacity: 1;">25</text><text text-anchor="end" transform="translate(109.50000000000003,7) rotate(270) translate(0,3)" style="font: 10px sans-serif; fill: #000; opacity: 1;">30</text><text text-anchor="end" transform="translate(126.50000000000003,7) rotate(270) translate(0,3)" style="font: 10px sans-serif; fill: #000; opacity: 1;">35</text><text text-anchor="end" transform="translate(143.50000000000003,7) rotate(270) translate(0,3)" style="font: 10px sans-serif; fill: #000; opacity: 1;">40</text><text text-anchor="end" transform="translate(160.50000000000003,7) rotate(270) translate(0,3)" style="font: 10px sans-serif; fill: #000; opacity: 1;">45</text><text text-anchor="end" transform="translate(177.50000000000003,7) rotate(270) translate(0,3)" style="font: 10px sans-serif; fill: #000; opacity: 1;">50</text><text text-anchor="end" transform="translate(194.50000000000003,7) rotate(270) translate(0,3)" style="font: 10px sans-serif; fill: #000; opacity: 1;">55</text><text text-anchor="end" transform="translate(211.50000000000003,7) rotate(270) translate(0,3)" style="font: 10px sans-serif; fill: #000; opacity: 1;">60</text><text text-anchor="end" transform="translate(228.50000000000003,7) rotate(270) translate(0,3)" style="font: 10px sans-serif; fill: #000; opacity: 1;">65</text><text text-anchor="end" transform="translate(245.50000000000003,7) rotate(270) translate(0,3)" style="font: 10px sans-serif; fill: #000; opacity: 1;">70</text><text text-anchor="end" transform="translate(262.5,7) rotate(270) translate(0,3)" style="font: 10px sans-serif; fill: #000; opacity: 1;">75</text><text text-anchor="end" transform="translate(279.5,7) rotate(270) translate(0,3)" style="font: 10px sans-serif; fill: #000; opacity: 1;">80</text><text text-anchor="end" transform="translate(296.5,7) rotate(270) translate(0,3)" style="font: 10px sans-serif; fill: #000; opacity: 1;">85</text><text text-anchor="end" transform="translate(313.5,7) rotate(270) translate(0,3)" style="font: 10px sans-serif; fill: #000; opacity: 1;">90</text></g><g class="mark-rule role-axis-domain" style="pointer-events: none;"><line transform="translate(0,0)" x2="323" y2="0" style="fill: none; stroke: #888; stroke-width: 1; opacity: 1;"></line></g><g class="mark-text role-axis-title" style="pointer-events: none;"><text text-anchor="middle" transform="translate(161.5,32.12304687500001)" style="font: bold 11px sans-serif; fill: #000; opacity: 1;">age</text></g></g></g></g><g class="mark-group role-axis"><g transform="translate(0.5,0.5)"><path class="background" d="M0,0h0v0h0Z" style="pointer-events: none; fill: none;"></path><g><g class="mark-rule role-axis-tick" style="pointer-events: none;"><line transform="translate(0,200)" x2="-5" y2="0" style="fill: none; stroke: #888; stroke-width: 1; opacity: 1;"></line><line transform="translate(0,160)" x2="-5" y2="0" style="fill: none; stroke: #888; stroke-width: 1; opacity: 1;"></line><line transform="translate(0,120)" x2="-5" y2="0" style="fill: none; stroke: #888; stroke-width: 1; opacity: 1;"></line><line transform="translate(0,80)" x2="-5" y2="0" style="fill: none; stroke: #888; stroke-width: 1; opacity: 1;"></line><line transform="translate(0,40)" x2="-5" y2="0" style="fill: none; stroke: #888; stroke-width: 1; opacity: 1;"></line><line transform="translate(0,0)" x2="-5" y2="0" style="fill: none; stroke: #888; stroke-width: 1; opacity: 1;"></line></g><g class="mark-text role-axis-label" style="pointer-events: none;"><text text-anchor="end" transform="translate(-7,203)" style="font: 10px sans-serif; fill: #000; opacity: 1;">0.0</text><text text-anchor="end" transform="translate(-7,163)" style="font: 10px sans-serif; fill: #000; opacity: 1;">0.2</text><text text-anchor="end" transform="translate(-7,123)" style="font: 10px sans-serif; fill: #000; opacity: 1;">0.4</text><text text-anchor="end" transform="translate(-7,83)" style="font: 10px sans-serif; fill: #000; opacity: 1;">0.6</text><text text-anchor="end" transform="translate(-7,43)" style="font: 10px sans-serif; fill: #000; opacity: 1;">0.8</text><text text-anchor="end" transform="translate(-7,3)" style="font: 10px sans-serif; fill: #000; opacity: 1;">1.0</text></g><g class="mark-rule role-axis-domain" style="pointer-events: none;"><line transform="translate(0,200)" x2="0" y2="-200" style="fill: none; stroke: #888; stroke-width: 1; opacity: 1;"></line></g><g class="mark-text role-axis-title" style="pointer-events: none;"><text text-anchor="middle" transform="translate(-34,100) rotate(-90) translate(0,-2)" style="font: bold 11px sans-serif; fill: #000; opacity: 1;">population</text></g></g></g></g></g></g></g></g></svg>