<svg class="marks" width="339" height="256" viewBox="0 0 339 256" version="1.1" xmlns="http://www.w3.org/2000/svg" xmlns:xlink="http://www.w3.org/1999/xlink"><g transform="translate(65,5)"><g class="mark-group role-frame root"><g transform="translate(0,0)"><path class="background" d="M0.5,0.5h200v200h-200Z" style="fill: transparent; stroke: #ddd;"></path><g><g class="mark-group role-axis"><g transform="translate(0.5,200.5)"><path class="background" d="M0,0h0v0h0Z" style="pointer-events: none; fill: none;"></path><g><g class="mark-rule role-axis-grid" style="pointer-events: none;"><line transform="translate(17,-200)" x2="0" y2="200" style="fill: none; stroke: #ddd; stroke-width: 1; stroke-dasharray: ; opacity: 1;"></line><line transform="translate(50,-200)" x2="0" y2="200" style="fill: none; stroke: #ddd; stroke-width: 1; stroke-dasharray: ; opacity: 1;"></line><line transform="translate(83,-200)" x2="0" y2="200" style="fill: none; stroke: #ddd; stroke-width: 1; stroke-dasharray: ; opacity: 1;"></line><line transform="translate(117,-200)" x2="0" y2="200" style="fill: none; stroke: #ddd; stroke-width: 1; stroke-dasharray: ; opacity: 1;"></line><line transform="translate(150,-200)" x2="0" y2="200" style="fill: none; stroke: #ddd; stroke-width: 1; stroke-dasharray: ; opacity: 1;"></line><line transform="translate(183,-200)" x2="0" y2="200" style="fill: none; stroke: #ddd; stroke-width: 1; stroke-dasharray: ; opacity: 1;"></line></g></g></g></g><g class="mark-group role-axis"><g transform="translate(0.5,0.5)"><path class="background" d="M0,0h0v0h0Z" style="pointer-events: none; fill: none;"></path><g><g class="mark-rule role-axis-grid" style="pointer-events: none;"><line transform="translate(0,200)" x2="200" y2="0" style="fill: none; stroke: #ddd; stroke-width: 1; stroke-dasharray: ; opacity: 1;"></line><line transform="translate(0,138)" x2="200" y2="0" style="fill: none; stroke: #ddd; stroke-width: 1; stroke-dasharray: ; opacity: 1;"></line><line transform="translate(0,75)" x2="200" y2="0" style="fill: none; stroke: #ddd; stroke-width: 1; stroke-dasharray: ; opacity: 1;"></line><line transform="translate(0,13)" x2="200" y2="0" style="fill: none; stroke: #ddd; stroke-width: 1; stroke-dasharray: ; opacity: 1;"></line></g></g></g></g><g class="mark-group role-scope pathgroup"><g transform="translate(0,0)"><path class="background" d="M0,0h200v200h-200Z" style="fill: none;"></path><g><g class="mark-area role-mark marks"><path d="M200,195C189,197.5,178,200,167,200C161.33333333333334,200,155.66666666666666,152,150,152C144.33333333333334,152,138.66666666666666,173,133,173C127.66666666666667,173,122.33333333333333,160.50980392156862,117,158C111.33333333333333,155.33333333333334,105.66666666666667,154,100,154C94.33333333333333,154,88.66666666666667,166.875,83,169C77.66666666666667,171,72.33333333333333,172,67,172C61.333333333333336,172,55.666666666666664,93,50,93C44.333333333333336,93,38.666666666666664,119.5675505050505,33,131C27.666666666666668,141.75995246583483,22.333333333333332,160,17,160C11.333333333333332,160,5.666666666666667,123.5,0,87L0,200C5.666666666666667,200,11.333333333333332,200,17,200C22.333333333333332,200,27.666666666666668,200,33,200C38.666666666666664,200,44.333333333333336,200,50,200C55.666666666666664,200,61.333333333333336,200,67,200C72.33333333333333,200,77.66666666666667,200,83,200C88.66666666666667,200,94.33333333333333,200,100,200C105.66666666666667,200,111.33333333333333,200,117,200C122.33333333333333,200,127.66666666666667,200,133,200C138.66666666666666,200,144.33333333333334,200,150,200C155.66666666666666,200,161.33333333333334,200,167,200C178,200,189,200,200,200Z" style="fill: rgb(8, 48, 107);"></path></g></g></g><g transform="translate(0,0)"><path class="background" d="M0,0h200v200h-200Z" style="fill: none;"></path><g><g class="mark-area role-mark marks"><path d="M200,10C189,62.5,178,115,167,115C161.33333333333334,115,155.66666666666666,96.33333333333333,150,89C144.33333333333334,81.66666666666667,138.66666666666666,71,133,71C127.66666666666667,71,122.33333333333333,98,117,98C111.33333333333333,98,105.66666666666667,69,100,69C94.33333333333333,69,88.66666666666667,75.04671717171718,83,81C77.66666666666667,86.60308972073678,72.33333333333333,103,67,103C61.333333333333336,103,55.666666666666664,32,50,32C44.333333333333336,32,38.666666666666664,87.875,33,90C27.666666666666668,92,22.333333333333332,93,17,93C11.333333333333332,93,5.666666666666667,71,0,49L0,73C5.666666666666667,100.29166666666667,11.333333333333332,127.58333333333333,17,129C22.333333333333332,130.33333333333334,27.666666666666668,131,33,131C38.666666666666664,131,44.333333333333336,64,50,64C55.666666666666664,64,61.333333333333336,143,67,143C72.33333333333333,143,77.66666666666667,121.76470588235294,83,118C88.66666666666667,114,94.33333333333333,112,100,112C105.66666666666667,112,111.33333333333333,137,117,137C122.33333333333333,137,127.66666666666667,120,133,120C138.66666666666666,120,144.33333333333334,121.66666666666667,150,125C155.66666666666666,128.33333333333334,161.33333333333334,188,167,188C178,188,189,172.5,200,157Z" style="fill: rgb(147, 195, 223);"></path></g></g></g><g transform="translate(0,0)"><path class="background" d="M0,0h200v200h-200Z" style="fill: none;"></path><g><g class="mark-area role-mark marks"><path d="M200,157C189,174.5,178,192,167,192C161.33333333333334,192,155.66666666666666,132.33333333333334,150,129C144.33333333333334,125.66666666666667,138.66666666666666,124,133,124C127.66666666666667,124,122.33333333333333,137,117,137C111.33333333333333,137,105.66666666666667,112,100,112C94.33333333333333,112,88.66666666666667,114,83,118C77.66666666666667,121.76470588235294,72.33333333333333,143,67,143C61.333333333333336,143,55.666666666666664,64,50,64C44.333333333333336,64,38.666666666666664,131,33,131C27.666666666666668,131,22.333333333333332,130.33333333333334,17,129C11.333333333333332,127.58333333333333,5.666666666666667,100.29166666666667,0,73L0,87C5.666666666666667,123.5,11.333333333333332,160,17,160C22.333333333333332,160,27.666666666666668,141.75995246583483,33,131C38.666666666666664,119.5675505050505,44.333333333333336,93,50,93C55.666666666666664,93,61.333333333333336,172,67,172C72.33333333333333,172,77.66666666666667,171,83,169C88.66666666666667,166.875,94.33333333333333,154,100,154C105.66666666666667,154,111.33333333333333,155.33333333333334,117,158C122.33333333333333,160.50980392156862,127.66666666666667,173,133,173C138.66666666666666,173,144.33333333333334,152,150,152C155.66666666666666,152,161.33333333333334,200,167,200C178,200,189,197.5,200,195Z" style="fill: rgb(24, 100, 170);"></path></g></g></g><g transform="translate(0,0)"><path class="background" d="M0,0h200v200h-200Z" style="fill: none;"></path><g><g class="mark-area role-mark marks"><path d="M200,10C189,61,178,112,167,112C161.33333333333334,112,155.66666666666666,95.83333333333333,150,89C144.33333333333334,82.16666666666667,138.66666666666666,71,133,71C127.66666666666667,71,122.33333333333333,95,117,95C111.33333333333333,95,105.66666666666667,69,100,69C94.33333333333333,69,88.66666666666667,75.04671717171718,83,81C77.66666666666667,86.60308972073678,72.33333333333333,103,67,103C61.333333333333336,103,55.666666666666664,29,50,29C44.333333333333336,29,38.666666666666664,82.75,33,87C27.666666666666668,91,22.333333333333332,93,17,93C11.333333333333332,93,5.666666666666667,71,0,49L0,49C5.666666666666667,71,11.333333333333332,93,17,93C22.333333333333332,93,27.666666666666668,92,33,90C38.666666666666664,87.875,44.333333333333336,32,50,32C55.666666666666664,32,61.333333333333336,103,67,103C72.33333333333333,103,77.66666666666667,86.60308972073678,83,81C88.66666666666667,75.04671717171718,94.33333333333333,69,100,69C105.66666666666667,69,111.33333333333333,98,117,98C122.33333333333333,98,127.66666666666667,71,133,71C138.66666666666666,71,144.33333333333334,81.66666666666667,150,89C155.66666666666666,96.33333333333333,161.33333333333334,115,167,115C178,115,189,62.5,200,10Z" style="fill: rgb(207, 225, 242);"></path></g></g></g><g transform="translate(0,0)"><path class="background" d="M0,0h200v200h-200Z" style="fill: none;"></path><g><g class="mark-area role-mark marks"><path d="M200,157C189,172.5,178,188,167,188C161.33333333333334,188,155.66666666666666,128.33333333333334,150,125C144.33333333333334,121.66666666666667,138.66666666666666,120,133,120C127.66666666666667,120,122.33333333333333,137,117,137C111.33333333333333,137,105.66666666666667,112,100,112C94.33333333333333,112,88.66666666666667,114,83,118C77.66666666666667,121.76470588235294,72.33333333333333,143,67,143C61.333333333333336,143,55.666666666666664,64,50,64C44.333333333333336,64,38.666666666666664,131,33,131C27.666666666666668,131,22.333333333333332,130.33333333333334,17,129C11.333333333333332,127.58333333333333,5.666666666666667,100.29166666666667,0,73L0,73C5.666666666666667,100.29166666666667,11.333333333333332,127.58333333333333,17,129C22.333333333333332,130.33333333333334,27.666666666666668,131,33,131C38.666666666666664,131,44.333333333333336,64,50,64C55.666666666666664,64,61.333333333333336,143,67,143C72.33333333333333,143,77.66666666666667,121.76470588235294,83,118C88.66666666666667,114,94.33333333333333,112,100,112C105.66666666666667,112,111.33333333333333,137,117,137C122.33333333333333,137,127.66666666666667,124,133,124C138.66666666666666,124,144.33333333333334,125.66666666666667,150,129C155.66666666666666,132.33333333333334,161.33333333333334,192,167,192C178,192,189,174.5,200,157Z" style="fill: rgb(75, 151, 201);"></path></g></g></g></g><g class="mark-group role-legend"><g transform="translate(218,0)"><path class="background" d="M0,0h51v86h-51Z" style="pointer-events: none; fill: none;"></path><g><g class="mark-group role-legend-entry"><g transform="translate(0,16)"><path class="background" d="M0,0h0v0h0Z" style="pointer-events: none; fill: none;"></path><g><g class="mark-symbol role-legend-symbol" style="pointer-events: none;"><path transform="translate(5,5)" d="M5,0A5,5,0,1,1,-5,0A5,5,0,1,1,5,0" style="fill: rgb(207, 225, 242); stroke-width: 1.5; opacity: 1;"></path><path transform="translate(5,20)" d="M5,0A5,5,0,1,1,-5,0A5,5,0,1,1,5,0" style="fill: rgb(147, 195, 223); stroke-width: 1.5; opacity: 1;"></path><path transform="translate(5,35)" d="M5,0A5,5,0,1,1,-5,0A5,5,0,1,1,5,0" style="fill: rgb(75, 151, 201); stroke-width: 1.5; opacity: 1;"></path><path transform="translate(5,50)" d="M5,0A5,5,0,1,1,-5,0A5,5,0,1,1,5,0" style="fill: rgb(24, 100, 170); stroke-width: 1.5; opacity: 1;"></path><path transform="translate(5,65)" d="M5,0A5,5,0,1,1,-5,0A5,5,0,1,1,5,0" style="fill: rgb(8, 48, 107); stroke-width: 1.5; opacity: 1;"></path></g><g class="mark-text role-legend-label" style="pointer-events: none;"><text text-anchor="start" transform="translate(18,8)" style="font: 10px sans-serif; fill: #000; opacity: 1;">3</text><text text-anchor="start" transform="translate(18,23)" style="font: 10px sans-serif; fill: #000; opacity: 1;">4</text><text text-anchor="start" transform="translate(18,38)" style="font: 10px sans-serif; fill: #000; opacity: 1;">5</text><text text-anchor="start" transform="translate(18,53)" style="font: 10px sans-serif; fill: #000; opacity: 1;">6</text><text text-anchor="start" transform="translate(18,68)" style="font: 10px sans-serif; fill: #000; opacity: 1;">8</text></g></g></g></g><g class="mark-text role-legend-title" style="pointer-events: none;"><text text-anchor="start" transform="translate(0,10)" style="font: bold 11px sans-serif; fill: #000; opacity: 1;">Cylinders</text></g></g></g></g><g class="mark-group role-axis"><g transform="translate(0.5,200.5)"><path class="background" d="M0,0h0v0h0Z" style="pointer-events: none; fill: none;"></path><g><g class="mark-rule role-axis-tick" style="pointer-events: none;"><line transform="translate(17,0)" x2="0" y2="5" style="fill: none; stroke: #888; stroke-width: 1; opacity: 1;"></line><line transform="translate(50,0)" x2="0" y2="5" style="fill: none; stroke: #888; stroke-width: 1; opacity: 1;"></line><line transform="translate(83,0)" x2="0" y2="5" style="fill: none; stroke: #888; stroke-width: 1; opacity: 1;"></line><line transform="translate(117,0)" x2="0" y2="5" style="fill: none; stroke: #888; stroke-width: 1; opacity: 1;"></line><line transform="translate(150,0)" x2="0" y2="5" style="fill: none; stroke: #888; stroke-width: 1; opacity: 1;"></line><line transform="translate(183,0)" x2="0" y2="5" style="fill: none; stroke: #888; stroke-width: 1; opacity: 1;"></line></g><g class="mark-text role-axis-label" style="pointer-events: none;"><text text-anchor="end" transform="translate(17,7) rotate(270) translate(0,3)" style="font: 10px sans-serif; fill: #000; opacity: 1;">1970</text><text text-anchor="end" transform="translate(50,7) rotate(270) translate(0,3)" style="font: 10px sans-serif; fill: #000; opacity: 1;">1972</text><text text-anchor="end" transform="translate(83,7) rotate(270) translate(0,3)" style="font: 10px sans-serif; fill: #000; opacity: 1;">1974</text><text text-anchor="end" transform="translate(117,7) rotate(270) translate(0,3)" style="font: 10px sans-serif; fill: #000; opacity: 1;">1976</text><text text-anchor="end" transform="translate(150,7) rotate(270) translate(0,3)" style="font: 10px sans-serif; fill: #000; opacity: 1;">1978</text><text text-anchor="end" transform="translate(183,7) rotate(270) translate(0,3)" style="font: 10px sans-serif; fill: #000; opacity: 1;">1980</text></g><g class="mark-rule role-axis-domain" style="pointer-events: none;"><line transform="translate(0,0)" x2="200" y2="0" style="fill: none; stroke: #888; stroke-width: 1; opacity: 1;"></line></g><g class="mark-text role-axis-title" style="pointer-events: none;"><text text-anchor="middle" transform="translate(100,42.24609375)" style="font: bold 11px sans-serif; fill: #000; opacity: 1;">YEAR(Year)</text></g></g></g></g><g class="mark-group role-axis"><g transform="translate(0.5,0.5)"><path class="background" d="M0,0h0v0h0Z" style="pointer-events: none; fill: none;"></path><g><g class="mark-rule role-axis-tick" style="pointer-events: none;"><line transform="translate(0,200)" x2="-5" y2="0" style="fill: none; stroke: #888; stroke-width: 1; opacity: 1;"></line><line transform="translate(0,138)" x2="-5" y2="0" style="fill: none; stroke: #888; stroke-width: 1; opacity: 1;"></line><line transform="translate(0,75)" x2="-5" y2="0" style="fill: none; stroke: #888; stroke-width: 1; opacity: 1;"></line><line transform="translate(0,13)" x2="-5" y2="0" style="fill: none; stroke: #888; stroke-width: 1; opacity: 1;"></line></g><g class="mark-text role-axis-label" style="pointer-events: none;"><text text-anchor="end" transform="translate(-7,203)" style="font: 10px sans-serif; fill: #000; opacity: 1;">0</text><text text-anchor="end" transform="translate(-7,141)" style="font: 10px sans-serif; fill: #000; opacity: 1;">50,000</text><text text-anchor="end" transform="translate(-7,78)" style="font: 10px sans-serif; fill: #000; opacity: 1;">100,000</text><text text-anchor="end" transform="translate(-7,16)" style="font: 10px sans-serif; fill: #000; opacity: 1;">150,000</text></g><g class="mark-rule role-axis-domain" style="pointer-events: none;"><line transform="translate(0,200)" x2="0" y2="-200" style="fill: none; stroke: #888; stroke-width: 1; opacity: 1;"></line></g><g class="mark-text role-axis-title" style="pointer-events: none;"><text text-anchor="middle" transform="translate(-46.1474609375,100) rotate(-90) translate(0,-2)" style="font: bold 11px sans-serif; fill: #000; opacity: 1;">SUM(Weight_in_lbs)</text></g></g></g></g></g></g></g></g></svg>