<svg xmlns="http://www.w3.org/2000/svg" xmlns:xlink="http://www.w3.org/1999/xlink" version="1.1" class="marks" width="323" height="282" viewBox="0 0 323 282"><rect width="323" height="282" fill="white"/><g fill="none" stroke-miterlimit="10" transform="translate(48,5)"><g class="mark-group role-frame root" role="graphics-object" aria-roledescription="group mark container"><g transform="translate(0,0)"><path class="background" aria-hidden="true" d="M0.5,0.5h200v240h-200Z" stroke="#ddd"/><g><g class="mark-group role-axis" aria-hidden="true"><g transform="translate(0.5,240.5)"><path class="background" aria-hidden="true" d="M0,0h0v0h0Z" pointer-events="none"/><g><g class="mark-rule role-axis-grid" pointer-events="none"><line transform="translate(0,0)" x2="0" y2="-240" stroke="#ddd" stroke-width="1" opacity="1"/><line transform="translate(31,0)" x2="0" y2="-240" stroke="#ddd" stroke-width="1" opacity="1"/><line transform="translate(62,0)" x2="0" y2="-240" stroke="#ddd" stroke-width="1" opacity="1"/><line transform="translate(92,0)" x2="0" y2="-240" stroke="#ddd" stroke-width="1" opacity="1"/><line transform="translate(123,0)" x2="0" y2="-240" stroke="#ddd" stroke-width="1" opacity="1"/><line transform="translate(154,0)" x2="0" y2="-240" stroke="#ddd" stroke-width="1" opacity="1"/><line transform="translate(185,0)" x2="0" y2="-240" stroke="#ddd" stroke-width="1" opacity="1"/></g></g><path class="foreground" aria-hidden="true" d="" pointer-events="none" display="none"/></g></g><g class="mark-group role-axis" role="graphics-symbol" aria-roledescription="axis" aria-label="X-axis titled 'Count of Records' for a linear scale with values from 0 to 130"><g transform="translate(0.5,240.5)"><path class="background" aria-hidden="true" d="M0,0h0v0h0Z" pointer-events="none"/><g><g class="mark-rule role-axis-tick" pointer-events="none"><line transform="translate(0,0)" x2="0" y2="5" stroke="#888" stroke-width="1" opacity="1"/><line transform="translate(31,0)" x2="0" y2="5" stroke="#888" stroke-width="1" opacity="1"/><line transform="translate(62,0)" x2="0" y2="5" stroke="#888" stroke-width="1" opacity="1"/><line transform="translate(92,0)" x2="0" y2="5" stroke="#888" stroke-width="1" opacity="1"/><line transform="translate(123,0)" x2="0" y2="5" stroke="#888" stroke-width="1" opacity="1"/><line transform="translate(154,0)" x2="0" y2="5" stroke="#888" stroke-width="1" opacity="1"/><line transform="translate(185,0)" x2="0" y2="5" stroke="#888" stroke-width="1" opacity="1"/></g><g class="mark-text role-axis-label" pointer-events="none"><text text-anchor="start" transform="translate(0,15)" font-family="sans-serif" font-size="10px" fill="#000" opacity="1">0</text><text text-anchor="middle" transform="translate(30.76923076923077,15)" font-family="sans-serif" font-size="10px" fill="#000" opacity="1">20</text><text text-anchor="middle" transform="translate(61.53846153846154,15)" font-family="sans-serif" font-size="10px" fill="#000" opacity="1">40</text><text text-anchor="middle" transform="translate(92.3076923076923,15)" font-family="sans-serif" font-size="10px" fill="#000" opacity="1">60</text><text text-anchor="middle" transform="translate(123.07692307692308,15)" font-family="sans-serif" font-size="10px" fill="#000" opacity="1">80</text><text text-anchor="middle" transform="translate(153.84615384615387,15)" font-family="sans-serif" font-size="10px" fill="#000" opacity="1">100</text><text text-anchor="middle" transform="translate(184.6153846153846,15)" font-family="sans-serif" font-size="10px" fill="#000" opacity="1">120</text></g><g class="mark-rule role-axis-domain" pointer-events="none"><line transform="translate(0,0)" x2="200" y2="0" stroke="#888" stroke-width="1" opacity="1"/></g><g class="mark-text role-axis-title" pointer-events="none"><text text-anchor="middle" transform="translate(100,30)" font-family="sans-serif" font-size="11px" font-weight="bold" fill="#000" opacity="1">Count of Records</text></g></g><path class="foreground" aria-hidden="true" d="" pointer-events="none" display="none"/></g></g><g class="mark-group role-axis" role="graphics-symbol" aria-roledescription="axis" aria-label="Y-axis titled 'date (month)' for a discrete scale with 12 values: January, February, March, April, May, ending with December"><g transform="translate(0.5,0.5)"><path class="background" aria-hidden="true" d="M0,0h0v0h0Z" pointer-events="none"/><g><g class="mark-rule role-axis-tick" pointer-events="none"><line transform="translate(0,10)" x2="-5" y2="0" stroke="#888" stroke-width="1" opacity="1"/><line transform="translate(0,30)" x2="-5" y2="0" stroke="#888" stroke-width="1" opacity="1"/><line transform="translate(0,50)" x2="-5" y2="0" stroke="#888" stroke-width="1" opacity="1"/><line transform="translate(0,70)" x2="-5" y2="0" stroke="#888" stroke-width="1" opacity="1"/><line transform="translate(0,90)" x2="-5" y2="0" stroke="#888" stroke-width="1" opacity="1"/><line transform="translate(0,110)" x2="-5" y2="0" stroke="#888" stroke-width="1" opacity="1"/><line transform="translate(0,130)" x2="-5" y2="0" stroke="#888" stroke-width="1" opacity="1"/><line transform="translate(0,150)" x2="-5" y2="0" stroke="#888" stroke-width="1" opacity="1"/><line transform="translate(0,170)" x2="-5" y2="0" stroke="#888" stroke-width="1" opacity="1"/><line transform="translate(0,190)" x2="-5" y2="0" stroke="#888" stroke-width="1" opacity="1"/><line transform="translate(0,210)" x2="-5" y2="0" stroke="#888" stroke-width="1" opacity="1"/><line transform="translate(0,230)" x2="-5" y2="0" stroke="#888" stroke-width="1" opacity="1"/></g><g class="mark-text role-axis-label" pointer-events="none"><text text-anchor="end" transform="translate(-7,12.5)" font-family="sans-serif" font-size="10px" fill="#000" opacity="1">Jan</text><text text-anchor="end" transform="translate(-7,32.5)" font-family="sans-serif" font-size="10px" fill="#000" opacity="1">Feb</text><text text-anchor="end" transform="translate(-7,52.5)" font-family="sans-serif" font-size="10px" fill="#000" opacity="1">Mar</text><text text-anchor="end" transform="translate(-7,72.5)" font-family="sans-serif" font-size="10px" fill="#000" opacity="1">Apr</text><text text-anchor="end" transform="translate(-7,92.5)" font-family="sans-serif" font-size="10px" fill="#000" opacity="1">May</text><text text-anchor="end" transform="translate(-7,112.5)" font-family="sans-serif" font-size="10px" fill="#000" opacity="1">Jun</text><text text-anchor="end" transform="translate(-7,132.5)" font-family="sans-serif" font-size="10px" fill="#000" opacity="1">Jul</text><text text-anchor="end" transform="translate(-7,152.5)" font-family="sans-serif" font-size="10px" fill="#000" opacity="1">Aug</text><text text-anchor="end" transform="translate(-7,172.5)" font-family="sans-serif" font-size="10px" fill="#000" opacity="1">Sep</text><text text-anchor="end" transform="translate(-7,192.5)" font-family="sans-serif" font-size="10px" fill="#000" opacity="1">Oct</text><text text-anchor="end" transform="translate(-7,212.5)" font-family="sans-serif" font-size="10px" fill="#000" opacity="1">Nov</text><text text-anchor="end" transform="translate(-7,232.5)" font-family="sans-serif" font-size="10px" fill="#000" opacity="1">Dec</text></g><g class="mark-rule role-axis-domain" pointer-events="none"><line transform="translate(0,0)" x2="0" y2="240" stroke="#888" stroke-width="1" opacity="1"/></g><g class="mark-text role-axis-title" pointer-events="none"><text text-anchor="middle" transform="translate(-31.673828125,120) rotate(-90) translate(0,-2)" font-family="sans-serif" font-size="11px" font-weight="bold" fill="#000" opacity="1">date (month)</text></g></g><path class="foreground" aria-hidden="true" d="" pointer-events="none" display="none"/></g></g><g class="mark-group role-scope" role="graphics-object" aria-roledescription="group mark container"><g transform="translate(0,221)"><path class="background" aria-hidden="true" d="M0,0L182.76923076923077,0C187.18455096518278,0,190.76923076923077,3.584679804048,190.76923076923077,8L190.76923076923077,10C190.76923076923077,14.415320195951999,187.18455096518278,18,182.76923076923077,18L0,18C0,18,0,18,0,18L0,0C0,0,0,0,0,0Z"/><g clip-path="url(#clip1)"><g class="mark-group role-scope" role="graphics-object" aria-roledescription="group mark container"><g transform="translate(0,0)"><path class="background" aria-hidden="true" d="M0,0h0v18h0Z"/><g><g class="mark-rect role-mark marks" role="graphics-object" aria-roledescription="rect mark container"><path aria-label="Count of Records: 3; date (month): Dec; weather: drizzle" role="graphics-symbol" aria-roledescription="bar" d="M0,0h4.615384615384616v18h-4.615384615384616Z" fill="#4c78a8"/><path aria-label="Count of Records: 73; date (month): Dec; weather: rain" role="graphics-symbol" aria-roledescription="bar" d="M16.923076923076923,0h112.3076923076923v18h-112.3076923076923Z" fill="#e45756"/><path aria-label="Count of Records: 34; date (month): Dec; weather: sun" role="graphics-symbol" aria-roledescription="bar" d="M138.46153846153845,0h52.30769230769232v18h-52.30769230769232Z" fill="#54a24b"/><path aria-label="Count of Records: 6; date (month): Dec; weather: snow" role="graphics-symbol" aria-roledescription="bar" d="M129.23076923076923,0h9.230769230769226v18h-9.230769230769226Z" fill="#72b7b2"/><path aria-label="Count of Records: 8; date (month): Dec; weather: fog" role="graphics-symbol" aria-roledescription="bar" d="M4.615384615384616,0h12.307692307692307v18h-12.307692307692307Z" fill="#f58518"/></g></g><path class="foreground" aria-hidden="true" d="" display="none"/></g></g></g><path class="foreground" aria-hidden="true" d="" display="none"/></g><g transform="translate(0,1)"><path class="background" aria-hidden="true" d="M0,0L182.76923076923077,0C187.18455096518278,0,190.76923076923077,3.584679804048,190.76923076923077,8L190.76923076923077,10C190.76923076923077,14.415320195951999,187.18455096518278,18,182.76923076923077,18L0,18C0,18,0,18,0,18L0,0C0,0,0,0,0,0Z"/><g clip-path="url(#clip2)"><g class="mark-group role-scope" role="graphics-object" aria-roledescription="group mark container"><g transform="translate(0,0)"><path class="background" aria-hidden="true" d="M0,0h0v18h0Z"/><g><g class="mark-rect role-mark marks" role="graphics-object" aria-roledescription="rect mark container"><path aria-label="Count of Records: 65; date (month): Jan; weather: rain" role="graphics-symbol" aria-roledescription="bar" d="M40,0h100v18h-100Z" fill="#e45756"/><path aria-label="Count of Records: 25; date (month): Jan; weather: sun" role="graphics-symbol" aria-roledescription="bar" d="M152.3076923076923,0h38.46153846153848v18h-38.46153846153848Z" fill="#54a24b"/><path aria-label="Count of Records: 8; date (month): Jan; weather: snow" role="graphics-symbol" aria-roledescription="bar" d="M140,0h12.307692307692292v18h-12.307692307692292Z" fill="#72b7b2"/><path aria-label="Count of Records: 9; date (month): Jan; weather: drizzle" role="graphics-symbol" aria-roledescription="bar" d="M0,0h13.846153846153847v18h-13.846153846153847Z" fill="#4c78a8"/><path aria-label="Count of Records: 17; date (month): Jan; weather: fog" role="graphics-symbol" aria-roledescription="bar" d="M13.846153846153847,0h26.153846153846153v18h-26.153846153846153Z" fill="#f58518"/></g></g><path class="foreground" aria-hidden="true" d="" display="none"/></g></g></g><path class="foreground" aria-hidden="true" d="" display="none"/></g><g transform="translate(0,21)"><path class="background" aria-hidden="true" d="M0,0L165.84615384615384,0C170.26147404210585,0,173.84615384615384,3.584679804048,173.84615384615384,8L173.84615384615384,10C173.84615384615384,14.415320195951999,170.26147404210585,18,165.84615384615384,18L0,18C0,18,0,18,0,18L0,0C0,0,0,0,0,0Z"/><g clip-path="url(#clip3)"><g class="mark-group role-scope" role="graphics-object" aria-roledescription="group mark container"><g transform="translate(0,0)"><path class="background" aria-hidden="true" d="M0,0h0v18h0Z"/><g><g class="mark-rect role-mark marks" role="graphics-object" aria-roledescription="rect mark container"><path aria-label="Count of Records: 29; date (month): Feb; weather: sun" role="graphics-symbol" aria-roledescription="bar" d="M129.23076923076923,0h44.61538461538461v18h-44.61538461538461Z" fill="#54a24b"/><path aria-label="Count of Records: 73; date (month): Feb; weather: rain" role="graphics-symbol" aria-roledescription="bar" d="M10.76923076923077,0h112.3076923076923v18h-112.3076923076923Z" fill="#e45756"/><path aria-label="Count of Records: 4; date (month): Feb; weather: drizzle" role="graphics-symbol" aria-roledescription="bar" d="M0,0h6.153846153846154v18h-6.153846153846154Z" fill="#4c78a8"/><path aria-label="Count of Records: 4; date (month): Feb; weather: snow" role="graphics-symbol" aria-roledescription="bar" d="M123.07692307692308,0h6.153846153846146v18h-6.153846153846146Z" fill="#72b7b2"/><path aria-label="Count of Records: 3; date (month): Feb; weather: fog" role="graphics-symbol" aria-roledescription="bar" d="M6.153846153846154,0h4.615384615384616v18h-4.615384615384616Z" fill="#f58518"/></g></g><path class="foreground" aria-hidden="true" d="" display="none"/></g></g></g><path class="foreground" aria-hidden="true" d="" display="none"/></g><g transform="translate(0,41)"><path class="background" aria-hidden="true" d="M0,0L182.76923076923077,0C187.18455096518278,0,190.76923076923077,3.584679804048,190.76923076923077,8L190.76923076923077,10C190.76923076923077,14.415320195951999,187.18455096518278,18,182.76923076923077,18L0,18C0,18,0,18,0,18L0,0C0,0,0,0,0,0Z"/><g clip-path="url(#clip4)"><g class="mark-group role-scope" role="graphics-object" aria-roledescription="group mark container"><g transform="translate(0,0)"><path class="background" aria-hidden="true" d="M0,0h0v18h0Z"/><g><g class="mark-rect role-mark marks" role="graphics-object" aria-roledescription="rect mark container"><path aria-label="Count of Records: 73; date (month): Mar; weather: rain" role="graphics-symbol" aria-roledescription="bar" d="M13.846153846153847,0h112.30769230769229v18h-112.30769230769229Z" fill="#e45756"/><path aria-label="Count of Records: 36; date (month): Mar; weather: sun" role="graphics-symbol" aria-roledescription="bar" d="M135.3846153846154,0h55.38461538461539v18h-55.38461538461539Z" fill="#54a24b"/><path aria-label="Count of Records: 6; date (month): Mar; weather: snow" role="graphics-symbol" aria-roledescription="bar" d="M126.15384615384615,0h9.23076923076924v18h-9.23076923076924Z" fill="#72b7b2"/><path aria-label="Count of Records: 3; date (month): Mar; weather: drizzle" role="graphics-symbol" aria-roledescription="bar" d="M0,0h4.615384615384616v18h-4.615384615384616Z" fill="#4c78a8"/><path aria-label="Count of Records: 6; date (month): Mar; weather: fog" role="graphics-symbol" aria-roledescription="bar" d="M4.615384615384616,0h9.23076923076923v18h-9.23076923076923Z" fill="#f58518"/></g></g><path class="foreground" aria-hidden="true" d="" display="none"/></g></g></g><path class="foreground" aria-hidden="true" d="" display="none"/></g><g transform="translate(0,61)"><path class="background" aria-hidden="true" d="M0,0L176.6153846153846,0C181.03070481133662,0,184.6153846153846,3.584679804048,184.6153846153846,8L184.6153846153846,10C184.6153846153846,14.415320195951999,181.03070481133662,18,176.6153846153846,18L0,18C0,18,0,18,0,18L0,0C0,0,0,0,0,0Z"/><g clip-path="url(#clip5)"><g class="mark-group role-scope" role="graphics-object" aria-roledescription="group mark container"><g transform="translate(0,0)"><path class="background" aria-hidden="true" d="M0,0h0v18h0Z"/><g><g class="mark-rect role-mark marks" role="graphics-object" aria-roledescription="rect mark container"><path aria-label="Count of Records: 53; date (month): Apr; weather: sun" role="graphics-symbol" aria-roledescription="bar" d="M103.07692307692307,0h81.53846153846155v18h-81.53846153846155Z" fill="#54a24b"/><path aria-label="Count of Records: 60; date (month): Apr; weather: rain" role="graphics-symbol" aria-roledescription="bar" d="M9.230769230769232,0h92.3076923076923v18h-92.3076923076923Z" fill="#e45756"/><path aria-label="Count of Records: 1; date (month): Apr; weather: snow" role="graphics-symbol" aria-roledescription="bar" d="M101.53846153846153,0h1.538461538461533v18h-1.538461538461533Z" fill="#72b7b2"/><path aria-label="Count of Records: 3; date (month): Apr; weather: drizzle" role="graphics-symbol" aria-roledescription="bar" d="M0,0h4.615384615384616v18h-4.615384615384616Z" fill="#4c78a8"/><path aria-label="Count of Records: 3; date (month): Apr; weather: fog" role="graphics-symbol" aria-roledescription="bar" d="M4.615384615384616,0h4.615384615384616v18h-4.615384615384616Z" fill="#f58518"/></g></g><path class="foreground" aria-hidden="true" d="" display="none"/></g></g></g><path class="foreground" aria-hidden="true" d="" display="none"/></g><g transform="translate(0,81)"><path class="background" aria-hidden="true" d="M0,0L182.76923076923077,0C187.18455096518278,0,190.76923076923077,3.584679804048,190.76923076923077,8L190.76923076923077,10C190.76923076923077,14.415320195951999,187.18455096518278,18,182.76923076923077,18L0,18C0,18,0,18,0,18L0,0C0,0,0,0,0,0Z"/><g clip-path="url(#clip6)"><g class="mark-group role-scope" role="graphics-object" aria-roledescription="group mark container"><g transform="translate(0,0)"><path class="background" aria-hidden="true" d="M0,0h0v18h0Z"/><g><g class="mark-rect role-mark marks" role="graphics-object" aria-roledescription="rect mark container"><path aria-label="Count of Records: 41; date (month): May; weather: rain" role="graphics-symbol" aria-roledescription="bar" d="M9.230769230769232,0h63.07692307692307v18h-63.07692307692307Z" fill="#e45756"/><path aria-label="Count of Records: 77; date (month): May; weather: sun" role="graphics-symbol" aria-roledescription="bar" d="M72.3076923076923,0h118.46153846153847v18h-118.46153846153847Z" fill="#54a24b"/><path aria-label="Count of Records: 1; date (month): May; weather: drizzle" role="graphics-symbol" aria-roledescription="bar" d="M0,0h1.5384615384615385v18h-1.5384615384615385Z" fill="#4c78a8"/><path aria-label="Count of Records: 5; date (month): May; weather: fog" role="graphics-symbol" aria-roledescription="bar" d="M1.5384615384615385,0h7.692307692307693v18h-7.692307692307693Z" fill="#f58518"/></g></g><path class="foreground" aria-hidden="true" d="" display="none"/></g></g></g><path class="foreground" aria-hidden="true" d="" display="none"/></g><g transform="translate(0,101)"><path class="background" aria-hidden="true" d="M0,0L176.6153846153846,0C181.03070481133662,0,184.6153846153846,3.584679804048,184.6153846153846,8L184.6153846153846,10C184.6153846153846,14.415320195951999,181.03070481133662,18,176.6153846153846,18L0,18C0,18,0,18,0,18L0,0C0,0,0,0,0,0Z"/><g clip-path="url(#clip7)"><g class="mark-group role-scope" role="graphics-object" aria-roledescription="group mark container"><g transform="translate(0,0)"><path class="background" aria-hidden="true" d="M0,0h0v18h0Z"/><g><g class="mark-rect role-mark marks" role="graphics-object" aria-roledescription="rect mark container"><path aria-label="Count of Records: 41; date (month): Jun; weather: rain" role="graphics-symbol" aria-roledescription="bar" d="M4.615384615384616,0h63.07692307692308v18h-63.07692307692308Z" fill="#e45756"/><path aria-label="Count of Records: 76; date (month): Jun; weather: sun" role="graphics-symbol" aria-roledescription="bar" d="M67.6923076923077,0h116.92307692307692v18h-116.92307692307692Z" fill="#54a24b"/><path aria-label="Count of Records: 2; date (month): Jun; weather: drizzle" role="graphics-symbol" aria-roledescription="bar" d="M0,0h3.076923076923077v18h-3.076923076923077Z" fill="#4c78a8"/><path aria-label="Count of Records: 1; date (month): Jun; weather: fog" role="graphics-symbol" aria-roledescription="bar" d="M3.076923076923077,0h1.5384615384615388v18h-1.5384615384615388Z" fill="#f58518"/></g></g><path class="foreground" aria-hidden="true" d="" display="none"/></g></g></g><path class="foreground" aria-hidden="true" d="" display="none"/></g><g transform="translate(0,121)"><path class="background" aria-hidden="true" d="M0,0L182.76923076923077,0C187.18455096518278,0,190.76923076923077,3.584679804048,190.76923076923077,8L190.76923076923077,10C190.76923076923077,14.415320195951999,187.18455096518278,18,182.76923076923077,18L0,18C0,18,0,18,0,18L0,0C0,0,0,0,0,0Z"/><g clip-path="url(#clip8)"><g class="mark-group role-scope" role="graphics-object" aria-roledescription="group mark container"><g transform="translate(0,0)"><path class="background" aria-hidden="true" d="M0,0h0v18h0Z"/><g><g class="mark-rect role-mark marks" role="graphics-object" aria-roledescription="rect mark container"><path aria-label="Count of Records: 15; date (month): Jul; weather: rain" role="graphics-symbol" aria-roledescription="bar" d="M29.230769230769234,0h23.07692307692308v18h-23.07692307692308Z" fill="#e45756"/><path aria-label="Count of Records: 90; date (month): Jul; weather: sun" role="graphics-symbol" aria-roledescription="bar" d="M52.307692307692314,0h138.46153846153845v18h-138.46153846153845Z" fill="#54a24b"/><path aria-label="Count of Records: 9; date (month): Jul; weather: drizzle" role="graphics-symbol" aria-roledescription="bar" d="M0,0h13.846153846153847v18h-13.846153846153847Z" fill="#4c78a8"/><path aria-label="Count of Records: 10; date (month): Jul; weather: fog" role="graphics-symbol" aria-roledescription="bar" d="M13.846153846153847,0h15.384615384615387v18h-15.384615384615387Z" fill="#f58518"/></g></g><path class="foreground" aria-hidden="true" d="" display="none"/></g></g></g><path class="foreground" aria-hidden="true" d="" display="none"/></g><g transform="translate(0,141)"><path class="background" aria-hidden="true" d="M0,0L182.76923076923077,0C187.18455096518278,0,190.76923076923077,3.584679804048,190.76923076923077,8L190.76923076923077,10C190.76923076923077,14.415320195951999,187.18455096518278,18,182.76923076923077,18L0,18C0,18,0,18,0,18L0,0C0,0,0,0,0,0Z"/><g clip-path="url(#clip9)"><g class="mark-group role-scope" role="graphics-object" aria-roledescription="group mark container"><g transform="translate(0,0)"><path class="background" aria-hidden="true" d="M0,0h0v18h0Z"/><g><g class="mark-rect role-mark marks" role="graphics-object" aria-roledescription="rect mark container"><path aria-label="Count of Records: 86; date (month): Aug; weather: sun" role="graphics-symbol" aria-roledescription="bar" d="M58.46153846153847,0h132.30769230769232v18h-132.30769230769232Z" fill="#54a24b"/><path aria-label="Count of Records: 25; date (month): Aug; weather: rain" role="graphics-symbol" aria-roledescription="bar" d="M20,0h38.46153846153847v18h-38.46153846153847Z" fill="#e45756"/><path aria-label="Count of Records: 7; date (month): Aug; weather: drizzle" role="graphics-symbol" aria-roledescription="bar" d="M0,0h10.76923076923077v18h-10.76923076923077Z" fill="#4c78a8"/><path aria-label="Count of Records: 6; date (month): Aug; weather: fog" role="graphics-symbol" aria-roledescription="bar" d="M10.76923076923077,0h9.23076923076923v18h-9.23076923076923Z" fill="#f58518"/></g></g><path class="foreground" aria-hidden="true" d="" display="none"/></g></g></g><path class="foreground" aria-hidden="true" d="" display="none"/></g><g transform="translate(0,161)"><path class="background" aria-hidden="true" d="M0,0L176.6153846153846,0C181.03070481133662,0,184.6153846153846,3.584679804048,184.6153846153846,8L184.6153846153846,10C184.6153846153846,14.415320195951999,181.03070481133662,18,176.6153846153846,18L0,18C0,18,0,18,0,18L0,0C0,0,0,0,0,0Z"/><g clip-path="url(#clip10)"><g class="mark-group role-scope" role="graphics-object" aria-roledescription="group mark container"><g transform="translate(0,0)"><path class="background" aria-hidden="true" d="M0,0h0v18h0Z"/><g><g class="mark-rect role-mark marks" role="graphics-object" aria-roledescription="rect mark container"><path aria-label="Count of Records: 64; date (month): Sep; weather: sun" role="graphics-symbol" aria-roledescription="bar" d="M86.15384615384616,0h98.46153846153845v18h-98.46153846153845Z" fill="#54a24b"/><path aria-label="Count of Records: 36; date (month): Sep; weather: rain" role="graphics-symbol" aria-roledescription="bar" d="M30.76923076923077,0h55.38461538461539v18h-55.38461538461539Z" fill="#e45756"/><path aria-label="Count of Records: 15; date (month): Sep; weather: fog" role="graphics-symbol" aria-roledescription="bar" d="M7.6923076923076925,0h23.076923076923077v18h-23.076923076923077Z" fill="#f58518"/><path aria-label="Count of Records: 5; date (month): Sep; weather: drizzle" role="graphics-symbol" aria-roledescription="bar" d="M0,0h7.6923076923076925v18h-7.6923076923076925Z" fill="#4c78a8"/></g></g><path class="foreground" aria-hidden="true" d="" display="none"/></g></g></g><path class="foreground" aria-hidden="true" d="" display="none"/></g><g transform="translate(0,181)"><path class="background" aria-hidden="true" d="M0,0L182.76923076923077,0C187.18455096518278,0,190.76923076923077,3.584679804048,190.76923076923077,8L190.76923076923077,10C190.76923076923077,14.415320195951999,187.18455096518278,18,182.76923076923077,18L0,18C0,18,0,18,0,18L0,0C0,0,0,0,0,0Z"/><g clip-path="url(#clip11)"><g class="mark-group role-scope" role="graphics-object" aria-roledescription="group mark container"><g transform="translate(0,0)"><path class="background" aria-hidden="true" d="M0,0h0v18h0Z"/><g><g class="mark-rect role-mark marks" role="graphics-object" aria-roledescription="rect mark container"><path aria-label="Count of Records: 37; date (month): Oct; weather: sun" role="graphics-symbol" aria-roledescription="bar" d="M133.84615384615384,0h56.923076923076934v18h-56.923076923076934Z" fill="#54a24b"/><path aria-label="Count of Records: 4; date (month): Oct; weather: drizzle" role="graphics-symbol" aria-roledescription="bar" d="M0,0h6.153846153846154v18h-6.153846153846154Z" fill="#4c78a8"/><path aria-label="Count of Records: 64; date (month): Oct; weather: rain" role="graphics-symbol" aria-roledescription="bar" d="M35.38461538461539,0h98.46153846153845v18h-98.46153846153845Z" fill="#e45756"/><path aria-label="Count of Records: 19; date (month): Oct; weather: fog" role="graphics-symbol" aria-roledescription="bar" d="M6.153846153846154,0h29.230769230769234v18h-29.230769230769234Z" fill="#f58518"/></g></g><path class="foreground" aria-hidden="true" d="" display="none"/></g></g></g><path class="foreground" aria-hidden="true" d="" display="none"/></g><g transform="translate(0,201)"><path class="background" aria-hidden="true" d="M0,0L176.6153846153846,0C181.03070481133662,0,184.6153846153846,3.584679804048,184.6153846153846,8L184.6153846153846,10C184.6153846153846,14.415320195951999,181.03070481133662,18,176.6153846153846,18L0,18C0,18,0,18,0,18L0,0C0,0,0,0,0,0Z"/><g clip-path="url(#clip12)"><g class="mark-group role-scope" role="graphics-object" aria-roledescription="group mark container"><g transform="translate(0,0)"><path class="background" aria-hidden="true" d="M0,0h0v18h0Z"/><g><g class="mark-rect role-mark marks" role="graphics-object" aria-roledescription="rect mark container"><path aria-label="Count of Records: 75; date (month): Nov; weather: rain" role="graphics-symbol" aria-roledescription="bar" d="M16.923076923076923,0h115.38461538461537v18h-115.38461538461537Z" fill="#e45756"/><path aria-label="Count of Records: 33; date (month): Nov; weather: sun" role="graphics-symbol" aria-roledescription="bar" d="M133.84615384615384,0h50.769230769230774v18h-50.769230769230774Z" fill="#54a24b"/><path aria-label="Count of Records: 3; date (month): Nov; weather: drizzle" role="graphics-symbol" aria-roledescription="bar" d="M0,0h4.615384615384616v18h-4.615384615384616Z" fill="#4c78a8"/><path aria-label="Count of Records: 8; date (month): Nov; weather: fog" role="graphics-symbol" aria-roledescription="bar" d="M4.615384615384616,0h12.307692307692307v18h-12.307692307692307Z" fill="#f58518"/><path aria-label="Count of Records: 1; date (month): Nov; weather: snow" role="graphics-symbol" aria-roledescription="bar" d="M132.3076923076923,0h1.5384615384615472v18h-1.5384615384615472Z" fill="#72b7b2"/></g></g><path class="foreground" aria-hidden="true" d="" display="none"/></g></g></g><path class="foreground" aria-hidden="true" d="" display="none"/></g></g><g class="mark-group role-legend" role="graphics-symbol" aria-roledescription="legend" aria-label="Symbol legend titled 'weather' for fill color with 5 values: drizzle, fog, rain, snow, sun"><g transform="translate(218,0)"><path class="background" aria-hidden="true" d="M0,0h52v79h-52Z" pointer-events="none"/><g><g class="mark-group role-legend-entry"><g transform="translate(0,16)"><path class="background" aria-hidden="true" d="M0,0h0v0h0Z" pointer-events="none"/><g><g class="mark-group role-scope" role="graphics-object" aria-roledescription="group mark container"><g transform="translate(0,0)"><path class="background" aria-hidden="true" d="M0,0h48.666015625v11h-48.666015625Z" pointer-events="none" opacity="1"/><g><g class="mark-symbol role-legend-symbol" pointer-events="none"><path transform="translate(6,6)" d="M-5,-5h10v10h-10Z" fill="#4c78a8" stroke-width="1.5" opacity="1"/></g><g class="mark-text role-legend-label" pointer-events="none"><text text-anchor="start" transform="translate(16,9)" font-family="sans-serif" font-size="10px" fill="#000" opacity="1">drizzle</text></g></g><path class="foreground" aria-hidden="true" d="" pointer-events="none" display="none"/></g><g transform="translate(0,13)"><path class="background" aria-hidden="true" d="M0,0h48.666015625v11h-48.666015625Z" pointer-events="none" opacity="1"/><g><g class="mark-symbol role-legend-symbol" pointer-events="none"><path transform="translate(6,6)" d="M-5,-5h10v10h-10Z" fill="#f58518" stroke-width="1.5" opacity="1"/></g><g class="mark-text role-legend-label" pointer-events="none"><text text-anchor="start" transform="translate(16,9)" font-family="sans-serif" font-size="10px" fill="#000" opacity="1">fog</text></g></g><path class="foreground" aria-hidden="true" d="" pointer-events="none" display="none"/></g><g transform="translate(0,26)"><path class="background" aria-hidden="true" d="M0,0h48.666015625v11h-48.666015625Z" pointer-events="none" opacity="1"/><g><g class="mark-symbol role-legend-symbol" pointer-events="none"><path transform="translate(6,6)" d="M-5,-5h10v10h-10Z" fill="#e45756" stroke-width="1.5" opacity="1"/></g><g class="mark-text role-legend-label" pointer-events="none"><text text-anchor="start" transform="translate(16,9)" font-family="sans-serif" font-size="10px" fill="#000" opacity="1">rain</text></g></g><path class="foreground" aria-hidden="true" d="" pointer-events="none" display="none"/></g><g transform="translate(0,39)"><path class="background" aria-hidden="true" d="M0,0h48.666015625v11h-48.666015625Z" pointer-events="none" opacity="1"/><g><g class="mark-symbol role-legend-symbol" pointer-events="none"><path transform="translate(6,6)" d="M-5,-5h10v10h-10Z" fill="#72b7b2" stroke-width="1.5" opacity="1"/></g><g class="mark-text role-legend-label" pointer-events="none"><text text-anchor="start" transform="translate(16,9)" font-family="sans-serif" font-size="10px" fill="#000" opacity="1">snow</text></g></g><path class="foreground" aria-hidden="true" d="" pointer-events="none" display="none"/></g><g transform="translate(0,52)"><path class="background" aria-hidden="true" d="M0,0h48.666015625v11h-48.666015625Z" pointer-events="none" opacity="1"/><g><g class="mark-symbol role-legend-symbol" pointer-events="none"><path transform="translate(6,6)" d="M-5,-5h10v10h-10Z" fill="#54a24b" stroke-width="1.5" opacity="1"/></g><g class="mark-text role-legend-label" pointer-events="none"><text text-anchor="start" transform="translate(16,9)" font-family="sans-serif" font-size="10px" fill="#000" opacity="1">sun</text></g></g><path class="foreground" aria-hidden="true" d="" pointer-events="none" display="none"/></g></g></g><path class="foreground" aria-hidden="true" d="" pointer-events="none" display="none"/></g></g><g class="mark-text role-legend-title" pointer-events="none"><text text-anchor="start" transform="translate(0,9)" font-family="sans-serif" font-size="11px" font-weight="bold" fill="#000" opacity="1">weather</text></g></g><path class="foreground" aria-hidden="true" d="" pointer-events="none" display="none"/></g></g></g><path class="foreground" aria-hidden="true" d="" display="none"/></g></g></g><defs><clipPath id="clip1"><path d="M0,0L182.76923076923077,0C187.18455096518278,0,190.76923076923077,3.584679804048,190.76923076923077,8L190.76923076923077,10C190.76923076923077,14.415320195951999,187.18455096518278,18,182.76923076923077,18L0,18C0,18,0,18,0,18L0,0C0,0,0,0,0,0Z"/></clipPath><clipPath id="clip2"><path d="M0,0L182.76923076923077,0C187.18455096518278,0,190.76923076923077,3.584679804048,190.76923076923077,8L190.76923076923077,10C190.76923076923077,14.415320195951999,187.18455096518278,18,182.76923076923077,18L0,18C0,18,0,18,0,18L0,0C0,0,0,0,0,0Z"/></clipPath><clipPath id="clip3"><path d="M0,0L165.84615384615384,0C170.26147404210585,0,173.84615384615384,3.584679804048,173.84615384615384,8L173.84615384615384,10C173.84615384615384,14.415320195951999,170.26147404210585,18,165.84615384615384,18L0,18C0,18,0,18,0,18L0,0C0,0,0,0,0,0Z"/></clipPath><clipPath id="clip4"><path d="M0,0L182.76923076923077,0C187.18455096518278,0,190.76923076923077,3.584679804048,190.76923076923077,8L190.76923076923077,10C190.76923076923077,14.415320195951999,187.18455096518278,18,182.76923076923077,18L0,18C0,18,0,18,0,18L0,0C0,0,0,0,0,0Z"/></clipPath><clipPath id="clip5"><path d="M0,0L176.6153846153846,0C181.03070481133662,0,184.6153846153846,3.584679804048,184.6153846153846,8L184.6153846153846,10C184.6153846153846,14.415320195951999,181.03070481133662,18,176.6153846153846,18L0,18C0,18,0,18,0,18L0,0C0,0,0,0,0,0Z"/></clipPath><clipPath id="clip6"><path d="M0,0L182.76923076923077,0C187.18455096518278,0,190.76923076923077,3.584679804048,190.76923076923077,8L190.76923076923077,10C190.76923076923077,14.415320195951999,187.18455096518278,18,182.76923076923077,18L0,18C0,18,0,18,0,18L0,0C0,0,0,0,0,0Z"/></clipPath><clipPath id="clip7"><path d="M0,0L176.6153846153846,0C181.03070481133662,0,184.6153846153846,3.584679804048,184.6153846153846,8L184.6153846153846,10C184.6153846153846,14.415320195951999,181.03070481133662,18,176.6153846153846,18L0,18C0,18,0,18,0,18L0,0C0,0,0,0,0,0Z"/></clipPath><clipPath id="clip8"><path d="M0,0L182.76923076923077,0C187.18455096518278,0,190.76923076923077,3.584679804048,190.76923076923077,8L190.76923076923077,10C190.76923076923077,14.415320195951999,187.18455096518278,18,182.76923076923077,18L0,18C0,18,0,18,0,18L0,0C0,0,0,0,0,0Z"/></clipPath><clipPath id="clip9"><path d="M0,0L182.76923076923077,0C187.18455096518278,0,190.76923076923077,3.584679804048,190.76923076923077,8L190.76923076923077,10C190.76923076923077,14.415320195951999,187.18455096518278,18,182.76923076923077,18L0,18C0,18,0,18,0,18L0,0C0,0,0,0,0,0Z"/></clipPath><clipPath id="clip10"><path d="M0,0L176.6153846153846,0C181.03070481133662,0,184.6153846153846,3.584679804048,184.6153846153846,8L184.6153846153846,10C184.6153846153846,14.415320195951999,181.03070481133662,18,176.6153846153846,18L0,18C0,18,0,18,0,18L0,0C0,0,0,0,0,0Z"/></clipPath><clipPath id="clip11"><path d="M0,0L182.76923076923077,0C187.18455096518278,0,190.76923076923077,3.584679804048,190.76923076923077,8L190.76923076923077,10C190.76923076923077,14.415320195951999,187.18455096518278,18,182.76923076923077,18L0,18C0,18,0,18,0,18L0,0C0,0,0,0,0,0Z"/></clipPath><clipPath id="clip12"><path d="M0,0L176.6153846153846,0C181.03070481133662,0,184.6153846153846,3.584679804048,184.6153846153846,8L184.6153846153846,10C184.6153846153846,14.415320195951999,181.03070481133662,18,176.6153846153846,18L0,18C0,18,0,18,0,18L0,0C0,0,0,0,0,0Z"/></clipPath></defs></svg>