<svg class="marks" width="521" height="251" viewBox="0 0 521 251" version="1.1" xmlns="http://www.w3.org/2000/svg" xmlns:xlink="http://www.w3.org/1999/xlink"><g transform="translate(110,5)"><g class="mark-group role-frame root"><g transform="translate(0,0)"><path class="background" d="M0.5,0.5h323v200h-323Z" style="fill: none; stroke: #ddd;"></path><g><g class="mark-group role-axis"><g transform="translate(0.5,0.5)"><path class="background" d="M0,0h0v0h0Z" style="pointer-events: none; fill: none;"></path><g><g class="mark-rule role-axis-grid" style="pointer-events: none;"><line transform="translate(0,185)" x2="323" y2="0" style="fill: none; stroke: #ddd; stroke-width: 1; opacity: 1;"></line><line transform="translate(0,146)" x2="323" y2="0" style="fill: none; stroke: #ddd; stroke-width: 1; opacity: 1;"></line><line transform="translate(0,108)" x2="323" y2="0" style="fill: none; stroke: #ddd; stroke-width: 1; opacity: 1;"></line><line transform="translate(0,69)" x2="323" y2="0" style="fill: none; stroke: #ddd; stroke-width: 1; opacity: 1;"></line><line transform="translate(0,31)" x2="323" y2="0" style="fill: none; stroke: #ddd; stroke-width: 1; opacity: 1;"></line></g></g></g></g><g class="mark-rect role-mark marks"><path d="M0.8500000000000227,109.72784615384616h15.3v74.88753846153845h-15.3Z" style="fill: #659CCA;"></path><path d="M0.8500000000000227,38.10696923076924h15.3v71.62087692307692h-15.3Z" style="fill: #EA98D2;"></path><path d="M17.850000000000023,103.44503076923077h15.3v81.17035384615384h-15.3Z" style="fill: #659CCA;"></path><path d="M17.850000000000023,25.98684615384613h15.3v77.45818461538464h-15.3Z" style="fill: #EA98D2;"></path><path d="M34.85000000000002,103.35974615384616h15.3v81.25563846153845h-15.3Z" style="fill: #659CCA;"></path><path d="M34.85000000000002,26.26340769230768h15.3v77.09633846153848h-15.3Z" style="fill: #EA98D2;"></path><path d="M51.85000000000002,105.86600769230769h15.3v78.74937692307692h-15.3Z" style="fill: #659CCA;"></path><path d="M51.85000000000002,31.30701538461537h15.3v74.55899230769232h-15.3Z" style="fill: #EA98D2;"></path><path d="M68.85000000000002,109.75911538461538h15.3v74.85626923076923h-15.3Z" style="fill: #659CCA;"></path><path d="M68.85000000000002,38.03416153846152h15.3v71.72495384615387h-15.3Z" style="fill: #EA98D2;"></path><path d="M85.85000000000002,110.31159230769231h15.3v74.3037923076923h-15.3Z" style="fill: #659CCA;"></path><path d="M85.85000000000002,37.092307692307685h15.3v73.21928461538462h-15.3Z" style="fill: #EA98D2;"></path><path d="M102.85000000000002,106.10862307692308h15.3v78.50676153846153h-15.3Z" style="fill: #659CCA;"></path><path d="M102.85000000000002,28.267884615384617h15.3v77.84073846153846h-15.3Z" style="fill: #EA98D2;"></path><path d="M119.85000000000002,96.34475384615384h15.3v88.27063076923078h-15.3Z" style="fill: #659CCA;"></path><path d="M119.85000000000002,6.839776923076926h15.3v89.50497692307691h-15.3Z" style="fill: #EA98D2;"></path><path d="M136.85000000000002,97.53652307692309h15.3v87.07886153846152h-15.3Z" style="fill: #659CCA;"></path><path d="M136.85000000000002,9.162846153846147h15.3v88.37367692307694h-15.3Z" style="fill: #EA98D2;"></path><path d="M153.85000000000002,108.26918461538462h15.3v76.3462h-15.3Z" style="fill: #659CCA;"></path><path d="M153.85000000000002,29.33646923076921h15.3v78.9327153846154h-15.3Z" style="fill: #EA98D2;"></path><path d="M170.85000000000002,119.16973846153847h15.3v65.44564615384614h-15.3Z" style="fill: #659CCA;"></path><path d="M170.85000000000002,50.622561538461554h15.3v68.54717692307692h-15.3Z" style="fill: #EA98D2;"></path><path d="M187.85000000000002,134.93013846153846h15.3v49.68524615384615h-15.3Z" style="fill: #659CCA;"></path><path d="M187.85000000000002,81.6896153846154h15.3v53.24052307692307h-15.3Z" style="fill: #EA98D2;"></path><path d="M204.85000000000002,145.20462307692307h15.3v39.41076153846154h-15.3Z" style="fill: #659CCA;"></path><path d="M204.85000000000002,101.59723076923078h15.3v43.607392307692294h-15.3Z" style="fill: #EA98D2;"></path><path d="M221.85000000000002,150.35674615384616h15.3v34.25863846153845h-15.3Z" style="fill: #659CCA;"></path><path d="M221.85000000000002,113.39686923076923h15.3v36.95987692307693h-15.3Z" style="fill: #EA98D2;"></path><path d="M238.85000000000002,155.44503846153845h15.3v29.170346153846168h-15.3Z" style="fill: #659CCA;"></path><path d="M238.85000000000002,115.56153846153846h15.3v39.883499999999984h-15.3Z" style="fill: #EA98D2;"></path><path d="M255.85000000000002,162.21034615384616h15.3v22.405038461538453h-15.3Z" style="fill: #659CCA;"></path><path d="M255.85000000000002,128.7053923076923h15.3v33.50495384615385h-15.3Z" style="fill: #EA98D2;"></path><path d="M272.85,169.9797076923077h15.3v14.635676923076915h-15.3Z" style="fill: #659CCA;"></path><path d="M272.85,145.19587692307692h15.3v24.783830769230775h-15.3Z" style="fill: #EA98D2;"></path><path d="M289.85,177.15109999999999h15.3v7.464284615384628h-15.3Z" style="fill: #659CCA;"></path><path d="M289.85,161.91143846153847h15.3v15.239661538461519h-15.3Z" style="fill: #EA98D2;"></path><path d="M306.85,182.02843846153846h15.3v2.5869461538461564h-15.3Z" style="fill: #659CCA;"></path><path d="M306.85,173.83935384615384h15.3v8.189084615384616h-15.3Z" style="fill: #EA98D2;"></path></g><g class="mark-group role-legend"><g transform="translate(341,0)"><path class="background" d="M0,0h65v42h-65Z" style="pointer-events: none; fill: none;"></path><g><g class="mark-group role-legend-entry"><g transform="translate(0,16)"><path class="background" d="M0,0h0v0h0Z" style="pointer-events: none; fill: none;"></path><g><g class="mark-group role-scope"><g transform="translate(0,0)"><path class="background" d="M0,0h65v12h-65Z" style="pointer-events: none; fill: none; opacity: 1;"></path><g><g class="mark-symbol role-legend-symbol" style="pointer-events: none;"><path transform="translate(6,6)" d="M-5,-5h10v10h-10Z" style="fill: #EA98D2; stroke-width: 1.5; opacity: 1;"></path></g><g class="mark-text role-legend-label" style="pointer-events: none;"><text text-anchor="start" transform="translate(16,9)" style="font-family: sans-serif; font-size: 10px; fill: #000; opacity: 1;">Female</text></g></g></g><g transform="translate(0,14)"><path class="background" d="M0,0h65v12h-65Z" style="pointer-events: none; fill: none; opacity: 1;"></path><g><g class="mark-symbol role-legend-symbol" style="pointer-events: none;"><path transform="translate(6,6)" d="M-5,-5h10v10h-10Z" style="fill: #659CCA; stroke-width: 1.5; opacity: 1;"></path></g><g class="mark-text role-legend-label" style="pointer-events: none;"><text text-anchor="start" transform="translate(16,9)" style="font-family: sans-serif; font-size: 10px; fill: #000; opacity: 1;">Male</text></g></g></g></g></g></g></g><g class="mark-text role-legend-title" style="pointer-events: none;"><text text-anchor="start" transform="translate(0,9)" style="font-family: sans-serif; font-size: 11px; font-weight: bold; fill: #000; opacity: 1;">gender</text></g></g></g></g><g class="mark-group role-axis"><g transform="translate(0.5,200.5)"><path class="background" d="M0,0h0v0h0Z" style="pointer-events: none; fill: none;"></path><g><g class="mark-rule role-axis-tick" style="pointer-events: none;"><line transform="translate(8,0)" x2="0" y2="5" style="fill: none; stroke: #888; stroke-width: 1; opacity: 1;"></line><line transform="translate(25,0)" x2="0" y2="5" style="fill: none; stroke: #888; stroke-width: 1; opacity: 1;"></line><line transform="translate(42,0)" x2="0" y2="5" style="fill: none; stroke: #888; stroke-width: 1; opacity: 1;"></line><line transform="translate(59,0)" x2="0" y2="5" style="fill: none; stroke: #888; stroke-width: 1; opacity: 1;"></line><line transform="translate(76,0)" x2="0" y2="5" style="fill: none; stroke: #888; stroke-width: 1; opacity: 1;"></line><line transform="translate(93,0)" x2="0" y2="5" style="fill: none; stroke: #888; stroke-width: 1; opacity: 1;"></line><line transform="translate(110,0)" x2="0" y2="5" style="fill: none; stroke: #888; stroke-width: 1; opacity: 1;"></line><line transform="translate(127,0)" x2="0" y2="5" style="fill: none; stroke: #888; stroke-width: 1; opacity: 1;"></line><line transform="translate(144,0)" x2="0" y2="5" style="fill: none; stroke: #888; stroke-width: 1; opacity: 1;"></line><line transform="translate(161,0)" x2="0" y2="5" style="fill: none; stroke: #888; stroke-width: 1; opacity: 1;"></line><line transform="translate(178,0)" x2="0" y2="5" style="fill: none; stroke: #888; stroke-width: 1; opacity: 1;"></line><line transform="translate(195,0)" x2="0" y2="5" style="fill: none; stroke: #888; stroke-width: 1; opacity: 1;"></line><line transform="translate(212,0)" x2="0" y2="5" style="fill: none; stroke: #888; stroke-width: 1; opacity: 1;"></line><line transform="translate(229,0)" x2="0" y2="5" style="fill: none; stroke: #888; stroke-width: 1; opacity: 1;"></line><line transform="translate(246,0)" x2="0" y2="5" style="fill: none; stroke: #888; stroke-width: 1; opacity: 1;"></line><line transform="translate(263,0)" x2="0" y2="5" style="fill: none; stroke: #888; stroke-width: 1; opacity: 1;"></line><line transform="translate(280,0)" x2="0" y2="5" style="fill: none; stroke: #888; stroke-width: 1; opacity: 1;"></line><line transform="translate(297,0)" x2="0" y2="5" style="fill: none; stroke: #888; stroke-width: 1; opacity: 1;"></line><line transform="translate(314,0)" x2="0" y2="5" style="fill: none; stroke: #888; stroke-width: 1; opacity: 1;"></line></g><g class="mark-text role-axis-label" style="pointer-events: none;"><text text-anchor="end" transform="translate(7.500000000000023,7) rotate(270) translate(0,3)" style="font-family: sans-serif; font-size: 10px; fill: #000; opacity: 1;">0</text><text text-anchor="end" transform="translate(24.50000000000002,7) rotate(270) translate(0,3)" style="font-family: sans-serif; font-size: 10px; fill: #000; opacity: 1;">5</text><text text-anchor="end" transform="translate(41.50000000000002,7) rotate(270) translate(0,3)" style="font-family: sans-serif; font-size: 10px; fill: #000; opacity: 1;">10</text><text text-anchor="end" transform="translate(58.50000000000002,7) rotate(270) translate(0,3)" style="font-family: sans-serif; font-size: 10px; fill: #000; opacity: 1;">15</text><text text-anchor="end" transform="translate(75.50000000000003,7) rotate(270) translate(0,3)" style="font-family: sans-serif; font-size: 10px; fill: #000; opacity: 1;">20</text><text text-anchor="end" transform="translate(92.50000000000003,7) rotate(270) translate(0,3)" style="font-family: sans-serif; font-size: 10px; fill: #000; opacity: 1;">25</text><text text-anchor="end" transform="translate(109.50000000000003,7) rotate(270) translate(0,3)" style="font-family: sans-serif; font-size: 10px; fill: #000; opacity: 1;">30</text><text text-anchor="end" transform="translate(126.50000000000003,7) rotate(270) translate(0,3)" style="font-family: sans-serif; font-size: 10px; fill: #000; opacity: 1;">35</text><text text-anchor="end" transform="translate(143.50000000000003,7) rotate(270) translate(0,3)" style="font-family: sans-serif; font-size: 10px; fill: #000; opacity: 1;">40</text><text text-anchor="end" transform="translate(160.50000000000003,7) rotate(270) translate(0,3)" style="font-family: sans-serif; font-size: 10px; fill: #000; opacity: 1;">45</text><text text-anchor="end" transform="translate(177.50000000000003,7) rotate(270) translate(0,3)" style="font-family: sans-serif; font-size: 10px; fill: #000; opacity: 1;">50</text><text text-anchor="end" transform="translate(194.50000000000003,7) rotate(270) translate(0,3)" style="font-family: sans-serif; font-size: 10px; fill: #000; opacity: 1;">55</text><text text-anchor="end" transform="translate(211.50000000000003,7) rotate(270) translate(0,3)" style="font-family: sans-serif; font-size: 10px; fill: #000; opacity: 1;">60</text><text text-anchor="end" transform="translate(228.50000000000003,7) rotate(270) translate(0,3)" style="font-family: sans-serif; font-size: 10px; fill: #000; opacity: 1;">65</text><text text-anchor="end" transform="translate(245.50000000000003,7) rotate(270) translate(0,3)" style="font-family: sans-serif; font-size: 10px; fill: #000; opacity: 1;">70</text><text text-anchor="end" transform="translate(262.5,7) rotate(270) translate(0,3)" style="font-family: sans-serif; font-size: 10px; fill: #000; opacity: 1;">75</text><text text-anchor="end" transform="translate(279.5,7) rotate(270) translate(0,3)" style="font-family: sans-serif; font-size: 10px; fill: #000; opacity: 1;">80</text><text text-anchor="end" transform="translate(296.5,7) rotate(270) translate(0,3)" style="font-family: sans-serif; font-size: 10px; fill: #000; opacity: 1;">85</text><text text-anchor="end" transform="translate(313.5,7) rotate(270) translate(0,3)" style="font-family: sans-serif; font-size: 10px; fill: #000; opacity: 1;">90</text></g><g class="mark-rule role-axis-domain" style="pointer-events: none;"><line transform="translate(0,0)" x2="323" y2="0" style="fill: none; stroke: #888; stroke-width: 1; opacity: 1;"></line></g><g class="mark-text role-axis-title" style="pointer-events: none;"><text text-anchor="middle" transform="translate(161.5,37.00000000000001)" style="font-family: sans-serif; font-size: 11px; font-weight: bold; fill: #000; opacity: 1;">age</text></g></g></g></g><g class="mark-group role-axis"><g transform="translate(0.5,0.5)"><path class="background" d="M0,0h0v0h0Z" style="pointer-events: none; fill: none;"></path><g><g class="mark-rule role-axis-tick" style="pointer-events: none;"><line transform="translate(0,185)" x2="-5" y2="0" style="fill: none; stroke: #888; stroke-width: 1; opacity: 1;"></line><line transform="translate(0,146)" x2="-5" y2="0" style="fill: none; stroke: #888; stroke-width: 1; opacity: 1;"></line><line transform="translate(0,108)" x2="-5" y2="0" style="fill: none; stroke: #888; stroke-width: 1; opacity: 1;"></line><line transform="translate(0,69)" x2="-5" y2="0" style="fill: none; stroke: #888; stroke-width: 1; opacity: 1;"></line><line transform="translate(0,31)" x2="-5" y2="0" style="fill: none; stroke: #888; stroke-width: 1; opacity: 1;"></line></g><g class="mark-text role-axis-label" style="pointer-events: none;"><text text-anchor="end" transform="translate(-7,187.6153846153846)" style="font-family: sans-serif; font-size: 10px; fill: #000; opacity: 1;">0</text><text text-anchor="end" transform="translate(-7,149.15384615384616)" style="font-family: sans-serif; font-size: 10px; fill: #000; opacity: 1;">5,000,000</text><text text-anchor="end" transform="translate(-7,110.6923076923077)" style="font-family: sans-serif; font-size: 10px; fill: #000; opacity: 1;">10,000,000</text><text text-anchor="end" transform="translate(-7,72.23076923076923)" style="font-family: sans-serif; font-size: 10px; fill: #000; opacity: 1;">15,000,000</text><text text-anchor="end" transform="translate(-7,33.769230769230774)" style="font-family: sans-serif; font-size: 10px; fill: #000; opacity: 1;">20,000,000</text></g><g class="mark-rule role-axis-domain" style="pointer-events: none;"><line transform="translate(0,200)" x2="0" y2="-200" style="fill: none; stroke: #888; stroke-width: 1; opacity: 1;"></line></g><g class="mark-text role-axis-title" style="pointer-events: none;"><text text-anchor="middle" transform="translate(-92,100) rotate(-90) translate(0,-2)" style="font-family: sans-serif; font-size: 11px; font-weight: bold; fill: #000; opacity: 1;">population</text></g></g></g></g></g></g></g></g></svg>