<svg class="marks" width="418" height="255" viewBox="0 0 418 255" version="1.1" xmlns="http://www.w3.org/2000/svg" xmlns:xlink="http://www.w3.org/1999/xlink"><g transform="translate(108,5)"><g class="mark-group role-frame root"><g transform="translate(0,0)"><path class="background" d="M0.5,0.5h200v210h-200Z" style="fill: none; stroke: #ddd;"></path><g><g class="mark-group role-axis"><g transform="translate(0.5,210.5)"><path class="background" d="M0,0h0v0h0Z" style="pointer-events: none; fill: none;"></path><g><g class="mark-rule role-axis-grid" style="pointer-events: none;"><line transform="translate(0,0)" x2="0" y2="-210" style="fill: none; stroke: #ddd; stroke-width: 1; opacity: 1;"></line><line transform="translate(40,0)" x2="0" y2="-210" style="fill: none; stroke: #ddd; stroke-width: 1; opacity: 1;"></line><line transform="translate(80,0)" x2="0" y2="-210" style="fill: none; stroke: #ddd; stroke-width: 1; opacity: 1;"></line><line transform="translate(120,0)" x2="0" y2="-210" style="fill: none; stroke: #ddd; stroke-width: 1; opacity: 1;"></line><line transform="translate(160,0)" x2="0" y2="-210" style="fill: none; stroke: #ddd; stroke-width: 1; opacity: 1;"></line><line transform="translate(200,0)" x2="0" y2="-210" style="fill: none; stroke: #ddd; stroke-width: 1; opacity: 1;"></line></g></g></g></g><g class="mark-rect role-mark marks"><path d="M20.613336,22.049999999999997h21.55999999999999v18.900000000000002h-21.55999999999999Z" style="fill: #54a24b;"></path><path d="M118.09333600000001,22.049999999999997h32.93333600000001v18.900000000000002h-32.93333600000001Z" style="fill: #eeca3b;"></path><path d="M64.21333599999998,22.049999999999997h24.720000000000013v18.900000000000002h-24.720000000000013Z" style="fill: #72b7b2;"></path><path d="M88.933336,22.049999999999997h29.16000000000001v18.900000000000002h-29.16000000000001Z" style="fill: #4c78a8;"></path><path d="M42.17333599999999,22.049999999999997h22.039999999999992v18.900000000000002h-22.039999999999992Z" style="fill: #e45756;"></path><path d="M0,22.049999999999997h20.613336v18.900000000000002h-20.613336Z" style="fill: #f58518;"></path><path d="M90.92,1.0499999999999972h31.946663999999984v18.900000000000002h-31.946663999999984Z" style="fill: #54a24b;"></path><path d="M122.86666399999999,1.0499999999999972h37.173332000000016v18.900000000000002h-37.173332000000016Z" style="fill: #eeca3b;"></path><path d="M39.64,1.0499999999999972h25.560000000000002v18.900000000000002h-25.560000000000002Z" style="fill: #72b7b2;"></path><path d="M65.2,1.0499999999999972h25.72v18.900000000000002h-25.72Z" style="fill: #4c78a8;"></path><path d="M0,1.0499999999999972h17.426664v18.900000000000002h-17.426664Z" style="fill: #e45756;"></path><path d="M17.426664,1.0499999999999972h22.213336v18.900000000000002h-22.213336Z" style="fill: #f58518;"></path><path d="M86.45333199999999,127.05h25.026668000000015v18.900000000000002h-25.026668000000015Z" style="fill: #54a24b;"></path><path d="M111.48,127.05h34.333332v18.900000000000002h-34.333332Z" style="fill: #eeca3b;"></path><path d="M37.693332,127.05h24.319999999999993v18.900000000000002h-24.319999999999993Z" style="fill: #72b7b2;"></path><path d="M62.01333199999999,127.05h24.439999999999998v18.900000000000002h-24.439999999999998Z" style="fill: #4c78a8;"></path><path d="M0,127.05h18.519999999999996v18.900000000000002h-18.519999999999996Z" style="fill: #e45756;"></path><path d="M18.519999999999996,127.05h19.173332000000002v18.900000000000002h-19.173332000000002Z" style="fill: #f58518;"></path><path d="M67.59999599999999,169.05h26.68000000000002v18.900000000000002h-26.68000000000002Z" style="fill: #54a24b;"></path><path d="M123.63999199999999,169.05h35.053332v18.900000000000002h-35.053332Z" style="fill: #eeca3b;"></path><path d="M41.613332,169.05h25.98666399999999v18.900000000000002h-25.98666399999999Z" style="fill: #72b7b2;"></path><path d="M94.27999600000001,169.05h29.35999599999998v18.900000000000002h-29.35999599999998Z" style="fill: #4c78a8;"></path><path d="M19.506668,169.05h22.106664v18.900000000000002h-22.106664Z" style="fill: #e45756;"></path><path d="M0,169.05h19.506668v18.900000000000002h-19.506668Z" style="fill: #f58518;"></path><path d="M45.973332000000006,148.05h26.253332000000007v18.900000000000002h-26.253332000000007Z" style="fill: #54a24b;"></path><path d="M143.893328,148.05h45.22664000000003v18.900000000000002h-45.22664000000003Z" style="fill: #eeca3b;"></path><path d="M107.733328,148.05h36.16v18.900000000000002h-36.16Z" style="fill: #72b7b2;"></path><path d="M72.22666400000001,148.05h35.50666399999999v18.900000000000002h-35.50666399999999Z" style="fill: #4c78a8;"></path><path d="M0,148.05h20.160000000000004v18.900000000000002h-20.160000000000004Z" style="fill: #e45756;"></path><path d="M20.160000000000004,148.05h25.813332000000003v18.900000000000002h-25.813332000000003Z" style="fill: #f58518;"></path><path d="M43.173336,43.05h27.880003999999992v18.900000000000002h-27.880003999999992Z" style="fill: #54a24b;"></path><path d="M131.946676,43.05h40.120000000000005v18.900000000000002h-40.120000000000005Z" style="fill: #eeca3b;"></path><path d="M71.05333999999999,43.05h28.893336000000005v18.900000000000002h-28.893336000000005Z" style="fill: #72b7b2;"></path><path d="M99.946676,43.05h32v18.900000000000002h-32Z" style="fill: #4c78a8;"></path><path d="M0,43.05h20.653336000000003v18.900000000000002h-20.653336000000003Z" style="fill: #e45756;"></path><path d="M20.653336000000003,43.05h22.519999999999996v18.900000000000002h-22.519999999999996Z" style="fill: #f58518;"></path><path d="M38.173336,64.05h24.866667999999997v18.900000000000002h-24.866667999999997Z" style="fill: #54a24b;"></path><path d="M125.626668,64.05h44.186679999999996v18.900000000000002h-44.186679999999996Z" style="fill: #eeca3b;"></path><path d="M63.040003999999996,64.05h30.946668000000003v18.900000000000002h-30.946668000000003Z" style="fill: #72b7b2;"></path><path d="M93.986672,64.05h31.639995999999996v18.900000000000002h-31.639995999999996Z" style="fill: #4c78a8;"></path><path d="M0,64.05h17.933336v18.900000000000002h-17.933336Z" style="fill: #e45756;"></path><path d="M17.933336,64.05h20.24v18.900000000000002h-20.24Z" style="fill: #f58518;"></path><path d="M0,106.05h24.333335999999996v18.900000000000002h-24.333335999999996Z" style="fill: #54a24b;"></path><path d="M130.22667199999998,106.05h33.83999600000001v18.900000000000002h-33.83999600000001Z" style="fill: #eeca3b;"></path><path d="M101.000004,106.05h29.226667999999975v18.900000000000002h-29.226667999999975Z" style="fill: #72b7b2;"></path><path d="M74.26667199999999,106.05h26.73333200000002v18.900000000000002h-26.73333200000002Z" style="fill: #4c78a8;"></path><path d="M24.333335999999996,106.05h24.586668000000003v18.900000000000002h-24.586668000000003Z" style="fill: #e45756;"></path><path d="M48.920004,106.05h25.346667999999987v18.900000000000002h-25.346667999999987Z" style="fill: #f58518;"></path><path d="M13.973332,85.05h21.866667999999997v18.900000000000002h-21.866667999999997Z" style="fill: #54a24b;"></path><path d="M117.23999599999996,85.05h35.21333600000003v18.900000000000002h-35.21333600000003Z" style="fill: #eeca3b;"></path><path d="M60.013331999999984,85.05h26.733331999999997v18.900000000000002h-26.733331999999997Z" style="fill: #72b7b2;"></path><path d="M86.74666399999998,85.05h30.49333199999998v18.900000000000002h-30.49333199999998Z" style="fill: #4c78a8;"></path><path d="M0,85.05h13.973332v18.900000000000002h-13.973332Z" style="fill: #e45756;"></path><path d="M35.839999999999996,85.05h24.173331999999988v18.900000000000002h-24.173331999999988Z" style="fill: #f58518;"></path><path d="M77.08000400000002,190.05h30.919999999999987v18.900000000000002h-30.919999999999987Z" style="fill: #54a24b;"></path><path d="M142.30667200000002,190.05h46.78666800000002v18.900000000000002h-46.78666800000002Z" style="fill: #eeca3b;"></path><path d="M46.426668,190.05h30.653336000000017v18.900000000000002h-30.653336000000017Z" style="fill: #72b7b2;"></path><path d="M108.000004,190.05h34.306668000000016v18.900000000000002h-34.306668000000016Z" style="fill: #4c78a8;"></path><path d="M0,190.05h22.053336v18.900000000000002h-22.053336Z" style="fill: #e45756;"></path><path d="M22.053336,190.05h24.373331999999998v18.900000000000002h-24.373331999999998Z" style="fill: #f58518;"></path></g><g class="mark-group role-legend"><g transform="translate(218,0)"><path class="background" d="M0,0h87v98h-87Z" style="pointer-events: none; fill: none;"></path><g><g class="mark-group role-legend-entry"><g transform="translate(0,16)"><path class="background" d="M0,0h0v0h0Z" style="pointer-events: none; fill: none;"></path><g><g class="mark-group role-scope"><g transform="translate(0,0)"><path class="background" d="M0,0h87.0048828125v12h-87.0048828125Z" style="pointer-events: none; fill: none; opacity: 1;"></path><g><g class="mark-symbol role-legend-symbol" style="pointer-events: none;"><path transform="translate(6,6)" d="M-5,-5h10v10h-10Z" style="fill: #4c78a8; stroke-width: 1.5; opacity: 1;"></path></g><g class="mark-text role-legend-label" style="pointer-events: none;"><text text-anchor="start" transform="translate(16,9)" style="font: 10px sans-serif; fill: #000; opacity: 1;">Crookston</text></g></g></g><g transform="translate(0,14)"><path class="background" d="M0,0h87.0048828125v12h-87.0048828125Z" style="pointer-events: none; fill: none; opacity: 1;"></path><g><g class="mark-symbol role-legend-symbol" style="pointer-events: none;"><path transform="translate(6,6)" d="M-5,-5h10v10h-10Z" style="fill: #f58518; stroke-width: 1.5; opacity: 1;"></path></g><g class="mark-text role-legend-label" style="pointer-events: none;"><text text-anchor="start" transform="translate(16,9)" style="font: 10px sans-serif; fill: #000; opacity: 1;">Duluth</text></g></g></g><g transform="translate(0,28)"><path class="background" d="M0,0h87.0048828125v12h-87.0048828125Z" style="pointer-events: none; fill: none; opacity: 1;"></path><g><g class="mark-symbol role-legend-symbol" style="pointer-events: none;"><path transform="translate(6,6)" d="M-5,-5h10v10h-10Z" style="fill: #e45756; stroke-width: 1.5; opacity: 1;"></path></g><g class="mark-text role-legend-label" style="pointer-events: none;"><text text-anchor="start" transform="translate(16,9)" style="font: 10px sans-serif; fill: #000; opacity: 1;">Grand Rapids</text></g></g></g><g transform="translate(0,42)"><path class="background" d="M0,0h87.0048828125v12h-87.0048828125Z" style="pointer-events: none; fill: none; opacity: 1;"></path><g><g class="mark-symbol role-legend-symbol" style="pointer-events: none;"><path transform="translate(6,6)" d="M-5,-5h10v10h-10Z" style="fill: #72b7b2; stroke-width: 1.5; opacity: 1;"></path></g><g class="mark-text role-legend-label" style="pointer-events: none;"><text text-anchor="start" transform="translate(16,9)" style="font: 10px sans-serif; fill: #000; opacity: 1;">Morris</text></g></g></g><g transform="translate(0,56)"><path class="background" d="M0,0h87.0048828125v12h-87.0048828125Z" style="pointer-events: none; fill: none; opacity: 1;"></path><g><g class="mark-symbol role-legend-symbol" style="pointer-events: none;"><path transform="translate(6,6)" d="M-5,-5h10v10h-10Z" style="fill: #54a24b; stroke-width: 1.5; opacity: 1;"></path></g><g class="mark-text role-legend-label" style="pointer-events: none;"><text text-anchor="start" transform="translate(16,9)" style="font: 10px sans-serif; fill: #000; opacity: 1;">University Farm</text></g></g></g><g transform="translate(0,70)"><path class="background" d="M0,0h87.0048828125v12h-87.0048828125Z" style="pointer-events: none; fill: none; opacity: 1;"></path><g><g class="mark-symbol role-legend-symbol" style="pointer-events: none;"><path transform="translate(6,6)" d="M-5,-5h10v10h-10Z" style="fill: #eeca3b; stroke-width: 1.5; opacity: 1;"></path></g><g class="mark-text role-legend-label" style="pointer-events: none;"><text text-anchor="start" transform="translate(16,9)" style="font: 10px sans-serif; fill: #000; opacity: 1;">Waseca</text></g></g></g></g></g></g></g><g class="mark-text role-legend-title" style="pointer-events: none;"><text text-anchor="start" transform="translate(0,9)" style="font: bold 11px sans-serif; fill: #000; opacity: 1;">site</text></g></g></g></g><g class="mark-group role-axis"><g transform="translate(0.5,210.5)"><path class="background" d="M0,0h0v0h0Z" style="pointer-events: none; fill: none;"></path><g><g class="mark-rule role-axis-tick" style="pointer-events: none;"><line transform="translate(0,0)" x2="0" y2="5" style="fill: none; stroke: #888; stroke-width: 1; opacity: 1;"></line><line transform="translate(40,0)" x2="0" y2="5" style="fill: none; stroke: #888; stroke-width: 1; opacity: 1;"></line><line transform="translate(80,0)" x2="0" y2="5" style="fill: none; stroke: #888; stroke-width: 1; opacity: 1;"></line><line transform="translate(120,0)" x2="0" y2="5" style="fill: none; stroke: #888; stroke-width: 1; opacity: 1;"></line><line transform="translate(160,0)" x2="0" y2="5" style="fill: none; stroke: #888; stroke-width: 1; opacity: 1;"></line><line transform="translate(200,0)" x2="0" y2="5" style="fill: none; stroke: #888; stroke-width: 1; opacity: 1;"></line></g><g class="mark-text role-axis-label" style="pointer-events: none;"><text text-anchor="start" transform="translate(0,15)" style="font: 10px sans-serif; fill: #000; opacity: 1;">0</text><text text-anchor="middle" transform="translate(40,15)" style="font: 10px sans-serif; fill: #000; opacity: 1;">100</text><text text-anchor="middle" transform="translate(80,15)" style="font: 10px sans-serif; fill: #000; opacity: 1;">200</text><text text-anchor="middle" transform="translate(120,15)" style="font: 10px sans-serif; fill: #000; opacity: 1;">300</text><text text-anchor="middle" transform="translate(160,15)" style="font: 10px sans-serif; fill: #000; opacity: 1;">400</text><text text-anchor="end" transform="translate(200,15)" style="font: 10px sans-serif; fill: #000; opacity: 1;">500</text></g><g class="mark-rule role-axis-domain" style="pointer-events: none;"><line transform="translate(0,0)" x2="200" y2="0" style="fill: none; stroke: #888; stroke-width: 1; opacity: 1;"></line></g><g class="mark-text role-axis-title" style="pointer-events: none;"><text text-anchor="middle" transform="translate(100,31)" style="font: bold 11px sans-serif; fill: #000; opacity: 1;">Sum of yield</text></g></g></g></g><g class="mark-group role-axis"><g transform="translate(0.5,0.5)"><path class="background" d="M0,0h0v0h0Z" style="pointer-events: none; fill: none;"></path><g><g class="mark-rule role-axis-tick" style="pointer-events: none;"><line transform="translate(0,9)" x2="-5" y2="0" style="fill: none; stroke: #888; stroke-width: 1; opacity: 1;"></line><line transform="translate(0,31)" x2="-5" y2="0" style="fill: none; stroke: #888; stroke-width: 1; opacity: 1;"></line><line transform="translate(0,52)" x2="-5" y2="0" style="fill: none; stroke: #888; stroke-width: 1; opacity: 1;"></line><line transform="translate(0,73)" x2="-5" y2="0" style="fill: none; stroke: #888; stroke-width: 1; opacity: 1;"></line><line transform="translate(0,94)" x2="-5" y2="0" style="fill: none; stroke: #888; stroke-width: 1; opacity: 1;"></line><line transform="translate(0,115)" x2="-5" y2="0" style="fill: none; stroke: #888; stroke-width: 1; opacity: 1;"></line><line transform="translate(0,136)" x2="-5" y2="0" style="fill: none; stroke: #888; stroke-width: 1; opacity: 1;"></line><line transform="translate(0,157)" x2="-5" y2="0" style="fill: none; stroke: #888; stroke-width: 1; opacity: 1;"></line><line transform="translate(0,178)" x2="-5" y2="0" style="fill: none; stroke: #888; stroke-width: 1; opacity: 1;"></line><line transform="translate(0,199)" x2="-5" y2="0" style="fill: none; stroke: #888; stroke-width: 1; opacity: 1;"></line></g><g class="mark-text role-axis-label" style="pointer-events: none;"><text text-anchor="end" transform="translate(-7,12.499999999999998)" style="font: 10px sans-serif; fill: #000; opacity: 1;">Glabron</text><text text-anchor="end" transform="translate(-7,33.5)" style="font: 10px sans-serif; fill: #000; opacity: 1;">Manchuria</text><text text-anchor="end" transform="translate(-7,54.5)" style="font: 10px sans-serif; fill: #000; opacity: 1;">No. 457</text><text text-anchor="end" transform="translate(-7,75.5)" style="font: 10px sans-serif; fill: #000; opacity: 1;">No. 462</text><text text-anchor="end" transform="translate(-7,96.5)" style="font: 10px sans-serif; fill: #000; opacity: 1;">No. 475</text><text text-anchor="end" transform="translate(-7,117.5)" style="font: 10px sans-serif; fill: #000; opacity: 1;">Peatland</text><text text-anchor="end" transform="translate(-7,138.5)" style="font: 10px sans-serif; fill: #000; opacity: 1;">Svansota</text><text text-anchor="end" transform="translate(-7,159.5)" style="font: 10px sans-serif; fill: #000; opacity: 1;">Trebi</text><text text-anchor="end" transform="translate(-7,180.5)" style="font: 10px sans-serif; fill: #000; opacity: 1;">Velvet</text><text text-anchor="end" transform="translate(-7,201.5)" style="font: 10px sans-serif; fill: #000; opacity: 1;">Wisconsin No. 38</text></g><g class="mark-rule role-axis-domain" style="pointer-events: none;"><line transform="translate(0,0)" x2="0" y2="210" style="fill: none; stroke: #888; stroke-width: 1; opacity: 1;"></line></g><g class="mark-text role-axis-title" style="pointer-events: none;"><text text-anchor="middle" transform="translate(-89.8076171875,105) rotate(-90) translate(0,-2)" style="font: bold 11px sans-serif; fill: #000; opacity: 1;">variety</text></g></g></g></g></g></g></g></g></svg>