<svg class="marks" width="518" height="245" viewBox="0 0 518 245" version="1.1" xmlns="http://www.w3.org/2000/svg" xmlns:xlink="http://www.w3.org/1999/xlink"><g transform="translate(158,5)"><g class="mark-group role-frame root"><g transform="translate(0,0)"><path class="background" d="M0.5,0.5h200v200h-200Z" style="fill: none; stroke: #ddd;"></path><g><g class="mark-group role-axis"><g transform="translate(0.5,200.5)"><path class="background" d="M0,0h0v0h0Z" style="pointer-events: none; fill: none;"></path><g><g class="mark-rule role-axis-grid" style="pointer-events: none;"><line transform="translate(18,0)" x2="0" y2="-200" style="fill: none; stroke: #ddd; stroke-width: 1; opacity: 1;"></line><line transform="translate(55,0)" x2="0" y2="-200" style="fill: none; stroke: #ddd; stroke-width: 1; opacity: 1;"></line><line transform="translate(91,0)" x2="0" y2="-200" style="fill: none; stroke: #ddd; stroke-width: 1; opacity: 1;"></line><line transform="translate(127,0)" x2="0" y2="-200" style="fill: none; stroke: #ddd; stroke-width: 1; opacity: 1;"></line><line transform="translate(164,0)" x2="0" y2="-200" style="fill: none; stroke: #ddd; stroke-width: 1; opacity: 1;"></line><line transform="translate(200,0)" x2="0" y2="-200" style="fill: none; stroke: #ddd; stroke-width: 1; opacity: 1;"></line></g></g></g></g><g class="mark-rect role-mark marks"><path d="M18.181818181818183,21h19.599999999999998v18h-19.599999999999998Z" style="fill: #54a24b;"></path><path d="M57.81818181818181,21h29.939396363636362v18h-29.939396363636362Z" style="fill: #eeca3b;"></path><path d="M87.75757818181818,21h22.47272727272727v18h-22.47272727272727Z" style="fill: #72b7b2;"></path><path d="M110.23030545454544,21h26.509090909090915v18h-26.509090909090915Z" style="fill: #4c78a8;"></path><path d="M37.78181818181818,21h20.03636363636363v18h-20.03636363636363Z" style="fill: #e45756;"></path><path d="M136.73939636363636,21h18.739396363636388v18h-18.739396363636388Z" style="fill: #f58518;"></path><path d="M18.181818181818183,1h29.04242181818182v18h-29.04242181818182Z" style="fill: #54a24b;"></path><path d="M63.066661818181814,1h33.79393818181818v18h-33.79393818181818Z" style="fill: #eeca3b;"></path><path d="M96.86059999999999,1h23.23636363636365v18h-23.23636363636365Z" style="fill: #72b7b2;"></path><path d="M120.09696363636364,1h23.38181818181819v18h-23.38181818181819Z" style="fill: #4c78a8;"></path><path d="M47.22424,1h15.842421818181812v18h-15.842421818181812Z" style="fill: #e45756;"></path><path d="M143.47878181818183,1h20.193941818181827v18h-20.193941818181827Z" style="fill: #f58518;"></path><path d="M18.181818181818183,121h22.751516363636366v18h-22.751516363636366Z" style="fill: #54a24b;"></path><path d="M57.769698181818185,121h31.212119999999985v18h-31.212119999999985Z" style="fill: #eeca3b;"></path><path d="M88.98181818181817,121h22.10909090909091v18h-22.10909090909091Z" style="fill: #72b7b2;"></path><path d="M111.09090909090908,121h22.218181818181833v18h-22.218181818181833Z" style="fill: #4c78a8;"></path><path d="M40.93333454545455,121h16.836363636363636v18h-16.836363636363636Z" style="fill: #e45756;"></path><path d="M133.3090909090909,121h17.430301818181846v18h-17.430301818181846Z" style="fill: #f58518;"></path><path d="M18.181818181818183,161h24.254545454545454v18h-24.254545454545454Z" style="fill: #54a24b;"></path><path d="M62.5333309090909,161h31.866665454545462v18h-31.866665454545462Z" style="fill: #eeca3b;"></path><path d="M94.39999636363636,161h23.624239999999986v18h-23.624239999999986Z" style="fill: #72b7b2;"></path><path d="M118.02423636363635,161h26.690905454545472v18h-26.690905454545472Z" style="fill: #4c78a8;"></path><path d="M42.43636363636364,161h20.096967272727262v18h-20.096967272727262Z" style="fill: #e45756;"></path><path d="M144.71514181818182,161h17.73333454545454v18h-17.73333454545454Z" style="fill: #f58518;"></path><path d="M18.181818181818183,141h23.86666545454545v18h-23.86666545454545Z" style="fill: #54a24b;"></path><path d="M60.37575636363637,141h41.115127272727264v18h-41.115127272727264Z" style="fill: #eeca3b;"></path><path d="M101.49088363636363,141h32.872727272727275v18h-32.872727272727275Z" style="fill: #72b7b2;"></path><path d="M134.3636109090909,141h32.27878545454544v18h-32.27878545454544Z" style="fill: #4c78a8;"></path><path d="M42.048483636363635,141h18.327272727272735v18h-18.327272727272735Z" style="fill: #e45756;"></path><path d="M166.64239636363635,141h23.466665454545478v18h-23.466665454545478Z" style="fill: #f58518;"></path><path d="M18.181818181818183,41h25.345458181818177v18h-25.345458181818177Z" style="fill: #54a24b;"></path><path d="M62.303036363636366,41h36.47272727272727v18h-36.47272727272727Z" style="fill: #eeca3b;"></path><path d="M98.77576363636364,41h26.266669090909105v18h-26.266669090909105Z" style="fill: #72b7b2;"></path><path d="M125.04243272727274,41h29.090909090909065v18h-29.090909090909065Z" style="fill: #4c78a8;"></path><path d="M43.52727636363636,41h18.775760000000005v18h-18.775760000000005Z" style="fill: #e45756;"></path><path d="M154.1333418181818,41h20.472727272727298v18h-20.472727272727298Z" style="fill: #f58518;"></path><path d="M18.181818181818183,61h22.606061818181818v18h-22.606061818181818Z" style="fill: #54a24b;"></path><path d="M57.09091272727272,61h40.16970909090911v18h-40.16970909090911Z" style="fill: #eeca3b;"></path><path d="M97.26062181818183,61h28.133334545454545v18h-28.133334545454545Z" style="fill: #72b7b2;"></path><path d="M125.39395636363638,61h28.763632727272736v18h-28.763632727272736Z" style="fill: #4c78a8;"></path><path d="M40.78788,61h16.303032727272722v18h-16.303032727272722Z" style="fill: #e45756;"></path><path d="M154.1575890909091,61h18.399999999999977v18h-18.399999999999977Z" style="fill: #f58518;"></path><path d="M18.181818181818183,101h22.12121454545454v18h-22.12121454545454Z" style="fill: #54a24b;"></path><path d="M62.654549090909086,101h30.76363272727272v18h-30.76363272727272Z" style="fill: #eeca3b;"></path><path d="M93.41818181818181,101h26.56969818181817v18h-26.56969818181817Z" style="fill: #72b7b2;"></path><path d="M119.98787999999998,101h24.303029090909106v18h-24.303029090909106Z" style="fill: #4c78a8;"></path><path d="M40.30303272727272,101h22.351516363636364v18h-22.351516363636364Z" style="fill: #e45756;"></path><path d="M144.29090909090908,101h23.04242545454545v18h-23.04242545454545Z" style="fill: #f58518;"></path><path d="M18.181818181818183,81h19.878789090909084v18h-19.878789090909084Z" style="fill: #54a24b;"></path><path d="M50.763636363636365,81h32.012123636363626v18h-32.012123636363626Z" style="fill: #eeca3b;"></path><path d="M82.77575999999999,81h24.303029090909092v18h-24.303029090909092Z" style="fill: #72b7b2;"></path><path d="M107.07878909090908,81h27.72121090909087v18h-27.72121090909087Z" style="fill: #4c78a8;"></path><path d="M38.06060727272727,81h12.703029090909098v18h-12.703029090909098Z" style="fill: #e45756;"></path><path d="M134.79999999999995,81h21.97575636363638v18h-21.97575636363638Z" style="fill: #f58518;"></path><path d="M18.181818181818183,181h28.109090909090906v18h-28.109090909090906Z" style="fill: #54a24b;"></path><path d="M66.33939636363635,181h42.53333454545454v18h-42.53333454545454Z" style="fill: #eeca3b;"></path><path d="M108.87273090909089,181h27.8666690909091v18h-27.8666690909091Z" style="fill: #72b7b2;"></path><path d="M136.7394,181h31.187880000000035v18h-31.187880000000035Z" style="fill: #4c78a8;"></path><path d="M46.29090909090909,181h20.048487272727264v18h-20.048487272727264Z" style="fill: #e45756;"></path><path d="M167.92728000000002,181h22.15757454545451v18h-22.15757454545451Z" style="fill: #f58518;"></path></g><g class="mark-group role-legend"><g transform="translate(218,0)"><path class="background" d="M0,0h137v98h-137Z" style="pointer-events: none; fill: none;"></path><g><g class="mark-group role-legend-entry"><g transform="translate(0,16)"><path class="background" d="M0,0h0v0h0Z" style="pointer-events: none; fill: none;"></path><g><g class="mark-group role-scope"><g transform="translate(0,0)"><path class="background" d="M0,0h137v12h-137Z" style="pointer-events: none; fill: none; opacity: 1;"></path><g><g class="mark-symbol role-legend-symbol" style="pointer-events: none;"><path transform="translate(6,6)" d="M-5,-5h10v10h-10Z" style="fill: #4c78a8; stroke-width: 1.5; opacity: 1;"></path></g><g class="mark-text role-legend-label" style="pointer-events: none;"><text text-anchor="start" transform="translate(16,9)" style="font-family: sans-serif; font-size: 10px; fill: #000; opacity: 1;">Crookston</text></g></g></g><g transform="translate(0,14)"><path class="background" d="M0,0h137v12h-137Z" style="pointer-events: none; fill: none; opacity: 1;"></path><g><g class="mark-symbol role-legend-symbol" style="pointer-events: none;"><path transform="translate(6,6)" d="M-5,-5h10v10h-10Z" style="fill: #f58518; stroke-width: 1.5; opacity: 1;"></path></g><g class="mark-text role-legend-label" style="pointer-events: none;"><text text-anchor="start" transform="translate(16,9)" style="font-family: sans-serif; font-size: 10px; fill: #000; opacity: 1;">Duluth</text></g></g></g><g transform="translate(0,28)"><path class="background" d="M0,0h137v12h-137Z" style="pointer-events: none; fill: none; opacity: 1;"></path><g><g class="mark-symbol role-legend-symbol" style="pointer-events: none;"><path transform="translate(6,6)" d="M-5,-5h10v10h-10Z" style="fill: #e45756; stroke-width: 1.5; opacity: 1;"></path></g><g class="mark-text role-legend-label" style="pointer-events: none;"><text text-anchor="start" transform="translate(16,9)" style="font-family: sans-serif; font-size: 10px; fill: #000; opacity: 1;">Grand Rapids</text></g></g></g><g transform="translate(0,42)"><path class="background" d="M0,0h137v12h-137Z" style="pointer-events: none; fill: none; opacity: 1;"></path><g><g class="mark-symbol role-legend-symbol" style="pointer-events: none;"><path transform="translate(6,6)" d="M-5,-5h10v10h-10Z" style="fill: #72b7b2; stroke-width: 1.5; opacity: 1;"></path></g><g class="mark-text role-legend-label" style="pointer-events: none;"><text text-anchor="start" transform="translate(16,9)" style="font-family: sans-serif; font-size: 10px; fill: #000; opacity: 1;">Morris</text></g></g></g><g transform="translate(0,56)"><path class="background" d="M0,0h137v12h-137Z" style="pointer-events: none; fill: none; opacity: 1;"></path><g><g class="mark-symbol role-legend-symbol" style="pointer-events: none;"><path transform="translate(6,6)" d="M-5,-5h10v10h-10Z" style="fill: #54a24b; stroke-width: 1.5; opacity: 1;"></path></g><g class="mark-text role-legend-label" style="pointer-events: none;"><text text-anchor="start" transform="translate(16,9)" style="font-family: sans-serif; font-size: 10px; fill: #000; opacity: 1;">University Farm</text></g></g></g><g transform="translate(0,70)"><path class="background" d="M0,0h137v12h-137Z" style="pointer-events: none; fill: none; opacity: 1;"></path><g><g class="mark-symbol role-legend-symbol" style="pointer-events: none;"><path transform="translate(6,6)" d="M-5,-5h10v10h-10Z" style="fill: #eeca3b; stroke-width: 1.5; opacity: 1;"></path></g><g class="mark-text role-legend-label" style="pointer-events: none;"><text text-anchor="start" transform="translate(16,9)" style="font-family: sans-serif; font-size: 10px; fill: #000; opacity: 1;">Waseca</text></g></g></g></g></g></g></g><g class="mark-text role-legend-title" style="pointer-events: none;"><text text-anchor="start" transform="translate(0,9)" style="font-family: sans-serif; font-size: 11px; font-weight: bold; fill: #000; opacity: 1;">site</text></g></g></g></g><g class="mark-group role-axis"><g transform="translate(0.5,200.5)"><path class="background" d="M0,0h0v0h0Z" style="pointer-events: none; fill: none;"></path><g><g class="mark-rule role-axis-tick" style="pointer-events: none;"><line transform="translate(18,0)" x2="0" y2="5" style="fill: none; stroke: #888; stroke-width: 1; opacity: 1;"></line><line transform="translate(55,0)" x2="0" y2="5" style="fill: none; stroke: #888; stroke-width: 1; opacity: 1;"></line><line transform="translate(91,0)" x2="0" y2="5" style="fill: none; stroke: #888; stroke-width: 1; opacity: 1;"></line><line transform="translate(127,0)" x2="0" y2="5" style="fill: none; stroke: #888; stroke-width: 1; opacity: 1;"></line><line transform="translate(164,0)" x2="0" y2="5" style="fill: none; stroke: #888; stroke-width: 1; opacity: 1;"></line><line transform="translate(200,0)" x2="0" y2="5" style="fill: none; stroke: #888; stroke-width: 1; opacity: 1;"></line></g><g class="mark-text role-axis-label" style="pointer-events: none;"><text text-anchor="middle" transform="translate(18.181818181818183,15)" style="font-family: sans-serif; font-size: 10px; fill: #000; opacity: 1;">0</text><text text-anchor="middle" transform="translate(54.54545454545454,15)" style="font-family: sans-serif; font-size: 10px; fill: #000; opacity: 0;">100</text><text text-anchor="middle" transform="translate(90.9090909090909,15)" style="font-family: sans-serif; font-size: 10px; fill: #000; opacity: 1;">200</text><text text-anchor="middle" transform="translate(127.27272727272727,15)" style="font-family: sans-serif; font-size: 10px; fill: #000; opacity: 0;">300</text><text text-anchor="middle" transform="translate(163.63636363636365,15)" style="font-family: sans-serif; font-size: 10px; fill: #000; opacity: 1;">400</text><text text-anchor="end" transform="translate(200,15)" style="font-family: sans-serif; font-size: 10px; fill: #000; opacity: 0;">500</text></g><g class="mark-rule role-axis-domain" style="pointer-events: none;"><line transform="translate(0,0)" x2="200" y2="0" style="fill: none; stroke: #888; stroke-width: 1; opacity: 1;"></line></g><g class="mark-text role-axis-title" style="pointer-events: none;"><text text-anchor="middle" transform="translate(100,31)" style="font-family: sans-serif; font-size: 11px; font-weight: bold; fill: #000; opacity: 1;">Sum of yield</text></g></g></g></g><g class="mark-group role-axis"><g transform="translate(0.5,0.5)"><path class="background" d="M0,0h0v0h0Z" style="pointer-events: none; fill: none;"></path><g><g class="mark-rule role-axis-tick" style="pointer-events: none;"><line transform="translate(0,9)" x2="-5" y2="0" style="fill: none; stroke: #888; stroke-width: 1; opacity: 1;"></line><line transform="translate(0,29)" x2="-5" y2="0" style="fill: none; stroke: #888; stroke-width: 1; opacity: 1;"></line><line transform="translate(0,49)" x2="-5" y2="0" style="fill: none; stroke: #888; stroke-width: 1; opacity: 1;"></line><line transform="translate(0,69)" x2="-5" y2="0" style="fill: none; stroke: #888; stroke-width: 1; opacity: 1;"></line><line transform="translate(0,89)" x2="-5" y2="0" style="fill: none; stroke: #888; stroke-width: 1; opacity: 1;"></line><line transform="translate(0,109)" x2="-5" y2="0" style="fill: none; stroke: #888; stroke-width: 1; opacity: 1;"></line><line transform="translate(0,129)" x2="-5" y2="0" style="fill: none; stroke: #888; stroke-width: 1; opacity: 1;"></line><line transform="translate(0,149)" x2="-5" y2="0" style="fill: none; stroke: #888; stroke-width: 1; opacity: 1;"></line><line transform="translate(0,169)" x2="-5" y2="0" style="fill: none; stroke: #888; stroke-width: 1; opacity: 1;"></line><line transform="translate(0,189)" x2="-5" y2="0" style="fill: none; stroke: #888; stroke-width: 1; opacity: 1;"></line></g><g class="mark-text role-axis-label" style="pointer-events: none;"><text text-anchor="end" transform="translate(-7,12)" style="font-family: sans-serif; font-size: 10px; fill: #000; opacity: 1;">Glabron</text><text text-anchor="end" transform="translate(-7,32)" style="font-family: sans-serif; font-size: 10px; fill: #000; opacity: 1;">Manchuria</text><text text-anchor="end" transform="translate(-7,52)" style="font-family: sans-serif; font-size: 10px; fill: #000; opacity: 1;">No. 457</text><text text-anchor="end" transform="translate(-7,72)" style="font-family: sans-serif; font-size: 10px; fill: #000; opacity: 1;">No. 462</text><text text-anchor="end" transform="translate(-7,92)" style="font-family: sans-serif; font-size: 10px; fill: #000; opacity: 1;">No. 475</text><text text-anchor="end" transform="translate(-7,112)" style="font-family: sans-serif; font-size: 10px; fill: #000; opacity: 1;">Peatland</text><text text-anchor="end" transform="translate(-7,132)" style="font-family: sans-serif; font-size: 10px; fill: #000; opacity: 1;">Svansota</text><text text-anchor="end" transform="translate(-7,152)" style="font-family: sans-serif; font-size: 10px; fill: #000; opacity: 1;">Trebi</text><text text-anchor="end" transform="translate(-7,172)" style="font-family: sans-serif; font-size: 10px; fill: #000; opacity: 1;">Velvet</text><text text-anchor="end" transform="translate(-7,192)" style="font-family: sans-serif; font-size: 10px; fill: #000; opacity: 1;">Wisconsin No. 38</text></g><g class="mark-rule role-axis-domain" style="pointer-events: none;"><line transform="translate(0,0)" x2="0" y2="200" style="fill: none; stroke: #888; stroke-width: 1; opacity: 1;"></line></g><g class="mark-text role-axis-title" style="pointer-events: none;"><text text-anchor="middle" transform="translate(-140,100) rotate(-90) translate(0,-2)" style="font-family: sans-serif; font-size: 11px; font-weight: bold; fill: #000; opacity: 1;">variety</text></g></g></g></g></g></g></g></g></svg>