<svg xmlns="http://www.w3.org/2000/svg" xmlns:xlink="http://www.w3.org/1999/xlink" version="1.1" class="marks" width="453" height="347" viewBox="0 0 453 347"><rect width="453" height="347" fill="white"/><g fill="none" stroke-miterlimit="10" transform="translate(43,10)"><g class="mark-group role-frame root" role="graphics-object" aria-roledescription="group mark container"><g transform="translate(0,0)"><path class="background" aria-hidden="true" d="M0.5,0.5h400v300h-400Z" stroke="#ddd"/><g><g class="mark-group role-axis" aria-hidden="true"><g transform="translate(0.5,300.5)"><path class="background" aria-hidden="true" d="M0,0h0v0h0Z" pointer-events="none"/><g><g class="mark-rule role-axis-grid" pointer-events="none"><line transform="translate(0,-300)" x2="0" y2="300" stroke="#ddd" stroke-width="1" opacity="1"/><line transform="translate(27,-300)" x2="0" y2="300" stroke="#ddd" stroke-width="1" opacity="1"/><line transform="translate(53,-300)" x2="0" y2="300" stroke="#ddd" stroke-width="1" opacity="1"/><line transform="translate(80,-300)" x2="0" y2="300" stroke="#ddd" stroke-width="1" opacity="1"/><line transform="translate(107,-300)" x2="0" y2="300" stroke="#ddd" stroke-width="1" opacity="1"/><line transform="translate(133,-300)" x2="0" y2="300" stroke="#ddd" stroke-width="1" opacity="1"/><line transform="translate(160,-300)" x2="0" y2="300" stroke="#ddd" stroke-width="1" opacity="1"/><line transform="translate(187,-300)" x2="0" y2="300" stroke="#ddd" stroke-width="1" opacity="1"/><line transform="translate(213,-300)" x2="0" y2="300" stroke="#ddd" stroke-width="1" opacity="1"/><line transform="translate(240,-300)" x2="0" y2="300" stroke="#ddd" stroke-width="1" opacity="1"/><line transform="translate(267,-300)" x2="0" y2="300" stroke="#ddd" stroke-width="1" opacity="1"/><line transform="translate(293,-300)" x2="0" y2="300" stroke="#ddd" stroke-width="1" opacity="1"/><line transform="translate(320,-300)" x2="0" y2="300" stroke="#ddd" stroke-width="1" opacity="1"/><line transform="translate(347,-300)" x2="0" y2="300" stroke="#ddd" stroke-width="1" opacity="1"/><line transform="translate(373,-300)" x2="0" y2="300" stroke="#ddd" stroke-width="1" opacity="1"/><line transform="translate(400,-300)" x2="0" y2="300" stroke="#ddd" stroke-width="1" opacity="1"/></g></g><path class="foreground" aria-hidden="true" d="" pointer-events="none" display="none"/></g></g><g class="mark-group role-axis" aria-hidden="true"><g transform="translate(0.5,0.5)"><path class="background" aria-hidden="true" d="M0,0h0v0h0Z" pointer-events="none"/><g><g class="mark-rule role-axis-grid" pointer-events="none"><line transform="translate(0,300)" x2="400" y2="0" stroke="#ddd" stroke-width="1" opacity="1"/><line transform="translate(0,263)" x2="400" y2="0" stroke="#ddd" stroke-width="1" opacity="1"/><line transform="translate(0,225)" x2="400" y2="0" stroke="#ddd" stroke-width="1" opacity="1"/><line transform="translate(0,188)" x2="400" y2="0" stroke="#ddd" stroke-width="1" opacity="1"/><line transform="translate(0,150)" x2="400" y2="0" stroke="#ddd" stroke-width="1" opacity="1"/><line transform="translate(0,113)" x2="400" y2="0" stroke="#ddd" stroke-width="1" opacity="1"/><line transform="translate(0,75)" x2="400" y2="0" stroke="#ddd" stroke-width="1" opacity="1"/><line transform="translate(0,38)" x2="400" y2="0" stroke="#ddd" stroke-width="1" opacity="1"/><line transform="translate(0,0)" x2="400" y2="0" stroke="#ddd" stroke-width="1" opacity="1"/></g></g><path class="foreground" aria-hidden="true" d="" pointer-events="none" display="none"/></g></g><g class="mark-group role-axis" role="graphics-symbol" aria-roledescription="axis" aria-label="X-axis titled 'source.reco' for a linear scale with values from 0.0 to 3.0"><g transform="translate(0.5,300.5)"><path class="background" aria-hidden="true" d="M0,0h0v0h0Z" pointer-events="none"/><g><g class="mark-rule role-axis-tick" pointer-events="none"><line transform="translate(0,0)" x2="0" y2="5" stroke="#888" stroke-width="1" opacity="1"/><line transform="translate(27,0)" x2="0" y2="5" stroke="#888" stroke-width="1" opacity="1"/><line transform="translate(53,0)" x2="0" y2="5" stroke="#888" stroke-width="1" opacity="1"/><line transform="translate(80,0)" x2="0" y2="5" stroke="#888" stroke-width="1" opacity="1"/><line transform="translate(107,0)" x2="0" y2="5" stroke="#888" stroke-width="1" opacity="1"/><line transform="translate(133,0)" x2="0" y2="5" stroke="#888" stroke-width="1" opacity="1"/><line transform="translate(160,0)" x2="0" y2="5" stroke="#888" stroke-width="1" opacity="1"/><line transform="translate(187,0)" x2="0" y2="5" stroke="#888" stroke-width="1" opacity="1"/><line transform="translate(213,0)" x2="0" y2="5" stroke="#888" stroke-width="1" opacity="1"/><line transform="translate(240,0)" x2="0" y2="5" stroke="#888" stroke-width="1" opacity="1"/><line transform="translate(267,0)" x2="0" y2="5" stroke="#888" stroke-width="1" opacity="1"/><line transform="translate(293,0)" x2="0" y2="5" stroke="#888" stroke-width="1" opacity="1"/><line transform="translate(320,0)" x2="0" y2="5" stroke="#888" stroke-width="1" opacity="1"/><line transform="translate(347,0)" x2="0" y2="5" stroke="#888" stroke-width="1" opacity="1"/><line transform="translate(373,0)" x2="0" y2="5" stroke="#888" stroke-width="1" opacity="1"/><line transform="translate(400,0)" x2="0" y2="5" stroke="#888" stroke-width="1" opacity="1"/></g><g class="mark-text role-axis-label" pointer-events="none"><text text-anchor="start" transform="translate(0,15)" font-family="sans-serif" font-size="10px" fill="#000" opacity="1">0.0</text><text text-anchor="middle" transform="translate(26.666666666666668,15)" font-family="sans-serif" font-size="10px" fill="#000" opacity="1">0.2</text><text text-anchor="middle" transform="translate(53.333333333333336,15)" font-family="sans-serif" font-size="10px" fill="#000" opacity="1">0.4</text><text text-anchor="middle" transform="translate(80,15)" font-family="sans-serif" font-size="10px" fill="#000" opacity="1">0.6</text><text text-anchor="middle" transform="translate(106.66666666666667,15)" font-family="sans-serif" font-size="10px" fill="#000" opacity="1">0.8</text><text text-anchor="middle" transform="translate(133.33333333333331,15)" font-family="sans-serif" font-size="10px" fill="#000" opacity="1">1.0</text><text text-anchor="middle" transform="translate(160,15)" font-family="sans-serif" font-size="10px" fill="#000" opacity="1">1.2</text><text text-anchor="middle" transform="translate(186.66666666666666,15)" font-family="sans-serif" font-size="10px" fill="#000" opacity="1">1.4</text><text text-anchor="middle" transform="translate(213.33333333333334,15)" font-family="sans-serif" font-size="10px" fill="#000" opacity="1">1.6</text><text text-anchor="middle" transform="translate(240,15)" font-family="sans-serif" font-size="10px" fill="#000" opacity="1">1.8</text><text text-anchor="middle" transform="translate(266.66666666666663,15)" font-family="sans-serif" font-size="10px" fill="#000" opacity="1">2.0</text><text text-anchor="middle" transform="translate(293.33333333333337,15)" font-family="sans-serif" font-size="10px" fill="#000" opacity="1">2.2</text><text text-anchor="middle" transform="translate(320,15)" font-family="sans-serif" font-size="10px" fill="#000" opacity="1">2.4</text><text text-anchor="middle" transform="translate(346.6666666666667,15)" font-family="sans-serif" font-size="10px" fill="#000" opacity="1">2.6</text><text text-anchor="middle" transform="translate(373.3333333333333,15)" font-family="sans-serif" font-size="10px" fill="#000" opacity="1">2.8</text><text text-anchor="end" transform="translate(400,15)" font-family="sans-serif" font-size="10px" fill="#000" opacity="1">3.0</text></g><g class="mark-rule role-axis-domain" pointer-events="none"><line transform="translate(0,0)" x2="400" y2="0" stroke="#888" stroke-width="1" opacity="1"/></g><g class="mark-text role-axis-title" pointer-events="none"><text text-anchor="middle" transform="translate(200,30)" font-family="sans-serif" font-size="11px" font-weight="bold" fill="#000" opacity="1">source.reco</text></g></g><path class="foreground" aria-hidden="true" d="" pointer-events="none" display="none"/></g></g><g class="mark-group role-axis" role="graphics-symbol" aria-roledescription="axis" aria-label="Y-axis titled 'source.yes' for a linear scale with values from 0 to 4"><g transform="translate(0.5,0.5)"><path class="background" aria-hidden="true" d="M0,0h0v0h0Z" pointer-events="none"/><g><g class="mark-rule role-axis-tick" pointer-events="none"><line transform="translate(0,300)" x2="-5" y2="0" stroke="#888" stroke-width="1" opacity="1"/><line transform="translate(0,263)" x2="-5" y2="0" stroke="#888" stroke-width="1" opacity="1"/><line transform="translate(0,225)" x2="-5" y2="0" stroke="#888" stroke-width="1" opacity="1"/><line transform="translate(0,188)" x2="-5" y2="0" stroke="#888" stroke-width="1" opacity="1"/><line transform="translate(0,150)" x2="-5" y2="0" stroke="#888" stroke-width="1" opacity="1"/><line transform="translate(0,113)" x2="-5" y2="0" stroke="#888" stroke-width="1" opacity="1"/><line transform="translate(0,75)" x2="-5" y2="0" stroke="#888" stroke-width="1" opacity="1"/><line transform="translate(0,38)" x2="-5" y2="0" stroke="#888" stroke-width="1" opacity="1"/><line transform="translate(0,0)" x2="-5" y2="0" stroke="#888" stroke-width="1" opacity="1"/></g><g class="mark-text role-axis-label" pointer-events="none"><text text-anchor="end" transform="translate(-7,303)" font-family="sans-serif" font-size="10px" fill="#000" opacity="1">0.0</text><text text-anchor="end" transform="translate(-7,265.5)" font-family="sans-serif" font-size="10px" fill="#000" opacity="1">0.5</text><text text-anchor="end" transform="translate(-7,228)" font-family="sans-serif" font-size="10px" fill="#000" opacity="1">1.0</text><text text-anchor="end" transform="translate(-7,190.5)" font-family="sans-serif" font-size="10px" fill="#000" opacity="1">1.5</text><text text-anchor="end" transform="translate(-7,153)" font-family="sans-serif" font-size="10px" fill="#000" opacity="1">2.0</text><text text-anchor="end" transform="translate(-7,115.5)" font-family="sans-serif" font-size="10px" fill="#000" opacity="1">2.5</text><text text-anchor="end" transform="translate(-7,78)" font-family="sans-serif" font-size="10px" fill="#000" opacity="1">3.0</text><text text-anchor="end" transform="translate(-7,40.5)" font-family="sans-serif" font-size="10px" fill="#000" opacity="1">3.5</text><text text-anchor="end" transform="translate(-7,3)" font-family="sans-serif" font-size="10px" fill="#000" opacity="1">4.0</text></g><g class="mark-rule role-axis-domain" pointer-events="none"><line transform="translate(0,300)" x2="0" y2="-300" stroke="#888" stroke-width="1" opacity="1"/></g><g class="mark-text role-axis-title" pointer-events="none"><text text-anchor="middle" transform="translate(-26.9033203125,150) rotate(-90) translate(0,-2)" font-family="sans-serif" font-size="11px" font-weight="bold" fill="#000" opacity="1">source.yes</text></g></g><path class="foreground" aria-hidden="true" d="" pointer-events="none" display="none"/></g></g><g class="mark-symbol role-mark marks" role="graphics-object" aria-roledescription="symbol mark container"><path aria-label="source.reco: 2; source.yes: 1" role="graphics-symbol" aria-roledescription="point" transform="translate(266.66666666666663,225)" d="M2.739,0A2.739,2.739,0,1,1,-2.739,0A2.739,2.739,0,1,1,2.739,0" stroke="#4c78a8" stroke-width="2" opacity="0.7"/><path aria-label="source.reco: 3; source.yes: 4" role="graphics-symbol" aria-roledescription="point" transform="translate(400,0)" d="M2.739,0A2.739,2.739,0,1,1,-2.739,0A2.739,2.739,0,1,1,2.739,0" stroke="#4c78a8" stroke-width="2" opacity="0.7"/><path aria-label="source.reco: 2; source.yes: 0" role="graphics-symbol" aria-roledescription="point" transform="translate(266.66666666666663,300)" d="M2.739,0A2.739,2.739,0,1,1,-2.739,0A2.739,2.739,0,1,1,2.739,0" stroke="#4c78a8" stroke-width="2" opacity="0.7"/><path aria-label="source.reco: 1; source.yes: 3" role="graphics-symbol" aria-roledescription="point" transform="translate(133.33333333333331,75)" d="M2.739,0A2.739,2.739,0,1,1,-2.739,0A2.739,2.739,0,1,1,2.739,0" stroke="#4c78a8" stroke-width="2" opacity="0.7"/><path aria-label="source.reco: 3; source.yes: 4" role="graphics-symbol" aria-roledescription="point" transform="translate(400,0)" d="M2.739,0A2.739,2.739,0,1,1,-2.739,0A2.739,2.739,0,1,1,2.739,0" stroke="#4c78a8" stroke-width="2" opacity="0.7"/><path aria-label="source.reco: 1; source.yes: 1" role="graphics-symbol" aria-roledescription="point" transform="translate(133.33333333333331,225)" d="M2.739,0A2.739,2.739,0,1,1,-2.739,0A2.739,2.739,0,1,1,2.739,0" stroke="#4c78a8" stroke-width="2" opacity="0.7"/><path aria-label="source.reco: 1; source.yes: 1" role="graphics-symbol" aria-roledescription="point" transform="translate(133.33333333333331,225)" d="M2.739,0A2.739,2.739,0,1,1,-2.739,0A2.739,2.739,0,1,1,2.739,0" stroke="#4c78a8" stroke-width="2" opacity="0.7"/><path aria-label="source.reco: 1; source.yes: 1" role="graphics-symbol" aria-roledescription="point" transform="translate(133.33333333333331,225)" d="M2.739,0A2.739,2.739,0,1,1,-2.739,0A2.739,2.739,0,1,1,2.739,0" stroke="#4c78a8" stroke-width="2" opacity="0.7"/><path aria-label="source.reco: 1; source.yes: 0" role="graphics-symbol" aria-roledescription="point" transform="translate(133.33333333333331,300)" d="M2.739,0A2.739,2.739,0,1,1,-2.739,0A2.739,2.739,0,1,1,2.739,0" stroke="#4c78a8" stroke-width="2" opacity="0.7"/><path aria-label="source.reco: 1; source.yes: 1" role="graphics-symbol" aria-roledescription="point" transform="translate(133.33333333333331,225)" d="M2.739,0A2.739,2.739,0,1,1,-2.739,0A2.739,2.739,0,1,1,2.739,0" stroke="#4c78a8" stroke-width="2" opacity="0.7"/></g></g><path class="foreground" aria-hidden="true" d="" display="none"/></g></g></g></svg>