<svg xmlns="http://www.w3.org/2000/svg" xmlns:xlink="http://www.w3.org/1999/xlink" version="1.1" class="marks" width="412" height="270" viewBox="0 0 412 270"><rect width="412" height="270" fill="white"/><g fill="none" stroke-miterlimit="10" transform="translate(99,6)"><g class="mark-group role-frame root" role="graphics-object" aria-roledescription="group mark container"><g transform="translate(0,0)"><path class="background" aria-hidden="true" d="M0,0h0v0h0Z"/><g><g class="mark-group role-row-title row-title" role="graphics-object" aria-roledescription="group mark container"><g transform="translate(-73,113)"><path class="background" aria-hidden="true" d="M0,0h0v0h0Z"/><g><g class="mark-group role-title"><g transform="translate(-21.000000000000004,0)"><path class="background" aria-hidden="true" d="M0,0h0v0h0Z" pointer-events="none"/><g><g class="mark-text role-title-text" role="graphics-symbol" aria-roledescription="title" aria-label="Title text 'Symbol'" pointer-events="none"><text text-anchor="middle" transform="translate(0,0) rotate(-90) translate(0,9)" font-family="sans-serif" font-size="11px" font-weight="bold" fill="#000" opacity="1">Symbol</text></g></g><path class="foreground" aria-hidden="true" d="" pointer-events="none" display="none"/></g></g></g><path class="foreground" aria-hidden="true" d="" display="none"/></g></g><g class="mark-group role-row-header row_header" role="graphics-object" aria-roledescription="group mark container"><g transform="translate(-1,0)"><path class="background" aria-hidden="true" d="M0,0h0v40h0Z"/><g><g class="mark-group role-axis" role="graphics-symbol" aria-roledescription="axis" aria-label="Y-axis titled 'Price' for a linear scale with values from 0 to 240"><g transform="translate(0.5,0.5)"><path class="background" aria-hidden="true" d="M0,0h0v0h0Z" pointer-events="none"/><g><g class="mark-rule role-axis-tick" pointer-events="none"><line transform="translate(0,40)" x2="-5" y2="0" stroke="#888" stroke-width="1" opacity="1"/><line transform="translate(0,7)" x2="-5" y2="0" stroke="#888" stroke-width="1" opacity="1"/></g><g class="mark-text role-axis-label" pointer-events="none"><text text-anchor="end" transform="translate(-7,43)" font-family="sans-serif" font-size="10px" fill="#000" opacity="1">0</text><text text-anchor="end" transform="translate(-7,9.666666666666664)" font-family="sans-serif" font-size="10px" fill="#000" opacity="1">200</text></g><g class="mark-rule role-axis-domain" pointer-events="none"><line transform="translate(0,40)" x2="0" y2="-40" stroke="#888" stroke-width="1" opacity="1"/></g><g class="mark-text role-axis-title" pointer-events="none"><text text-anchor="middle" transform="translate(-30.0869140625,20) rotate(-90) translate(0,-2)" font-family="sans-serif" font-size="11px" font-weight="bold" fill="#000" opacity="1">Price</text></g></g><path class="foreground" aria-hidden="true" d="" pointer-events="none" display="none"/></g></g><g class="mark-group role-title"><g transform="translate(-61.0869140625,20)"><path class="background" aria-hidden="true" d="M0,0h0v0h0Z" pointer-events="none"/><g><g class="mark-text role-title-text" role="graphics-symbol" aria-roledescription="title" aria-label="Title text 'AAPL'" pointer-events="none"><text text-anchor="middle" transform="translate(0,0) rotate(-90) translate(0,8)" font-family="sans-serif" font-size="10px" fill="#000" opacity="1">AAPL</text></g></g><path class="foreground" aria-hidden="true" d="" pointer-events="none" display="none"/></g></g></g><path class="foreground" aria-hidden="true" d="" display="none"/></g><g transform="translate(-1,62)"><path class="background" aria-hidden="true" d="M0,0h0v40h0Z"/><g><g class="mark-group role-axis" role="graphics-symbol" aria-roledescription="axis" aria-label="Y-axis titled 'Price' for a linear scale with values from 0 to 240"><g transform="translate(0.5,0.5)"><path class="background" aria-hidden="true" d="M0,0h0v0h0Z" pointer-events="none"/><g><g class="mark-rule role-axis-tick" pointer-events="none"><line transform="translate(0,40)" x2="-5" y2="0" stroke="#888" stroke-width="1" opacity="1"/><line transform="translate(0,7)" x2="-5" y2="0" stroke="#888" stroke-width="1" opacity="1"/></g><g class="mark-text role-axis-label" pointer-events="none"><text text-anchor="end" transform="translate(-7,43)" font-family="sans-serif" font-size="10px" fill="#000" opacity="1">0</text><text text-anchor="end" transform="translate(-7,9.666666666666664)" font-family="sans-serif" font-size="10px" fill="#000" opacity="1">200</text></g><g class="mark-rule role-axis-domain" pointer-events="none"><line transform="translate(0,40)" x2="0" y2="-40" stroke="#888" stroke-width="1" opacity="1"/></g><g class="mark-text role-axis-title" pointer-events="none"><text text-anchor="middle" transform="translate(-30.0869140625,20) rotate(-90) translate(0,-2)" font-family="sans-serif" font-size="11px" font-weight="bold" fill="#000" opacity="1">Price</text></g></g><path class="foreground" aria-hidden="true" d="" pointer-events="none" display="none"/></g></g><g class="mark-group role-title"><g transform="translate(-61.0869140625,20)"><path class="background" aria-hidden="true" d="M0,0h0v0h0Z" pointer-events="none"/><g><g class="mark-text role-title-text" role="graphics-symbol" aria-roledescription="title" aria-label="Title text 'AMZN'" pointer-events="none"><text text-anchor="middle" transform="translate(0,0) rotate(-90) translate(0,8)" font-family="sans-serif" font-size="10px" fill="#000" opacity="1">AMZN</text></g></g><path class="foreground" aria-hidden="true" d="" pointer-events="none" display="none"/></g></g></g><path class="foreground" aria-hidden="true" d="" display="none"/></g><g transform="translate(-1,124)"><path class="background" aria-hidden="true" d="M0,0h0v40h0Z"/><g><g class="mark-group role-axis" role="graphics-symbol" aria-roledescription="axis" aria-label="Y-axis titled 'Price' for a linear scale with values from 0 to 240"><g transform="translate(0.5,0.5)"><path class="background" aria-hidden="true" d="M0,0h0v0h0Z" pointer-events="none"/><g><g class="mark-rule role-axis-tick" pointer-events="none"><line transform="translate(0,40)" x2="-5" y2="0" stroke="#888" stroke-width="1" opacity="1"/><line transform="translate(0,7)" x2="-5" y2="0" stroke="#888" stroke-width="1" opacity="1"/></g><g class="mark-text role-axis-label" pointer-events="none"><text text-anchor="end" transform="translate(-7,43)" font-family="sans-serif" font-size="10px" fill="#000" opacity="1">0</text><text text-anchor="end" transform="translate(-7,9.666666666666664)" font-family="sans-serif" font-size="10px" fill="#000" opacity="1">200</text></g><g class="mark-rule role-axis-domain" pointer-events="none"><line transform="translate(0,40)" x2="0" y2="-40" stroke="#888" stroke-width="1" opacity="1"/></g><g class="mark-text role-axis-title" pointer-events="none"><text text-anchor="middle" transform="translate(-30.0869140625,20) rotate(-90) translate(0,-2)" font-family="sans-serif" font-size="11px" font-weight="bold" fill="#000" opacity="1">Price</text></g></g><path class="foreground" aria-hidden="true" d="" pointer-events="none" display="none"/></g></g><g class="mark-group role-title"><g transform="translate(-61.0869140625,20)"><path class="background" aria-hidden="true" d="M0,0h0v0h0Z" pointer-events="none"/><g><g class="mark-text role-title-text" role="graphics-symbol" aria-roledescription="title" aria-label="Title text 'IBM'" pointer-events="none"><text text-anchor="middle" transform="translate(0,0) rotate(-90) translate(0,8)" font-family="sans-serif" font-size="10px" fill="#000" opacity="1">IBM</text></g></g><path class="foreground" aria-hidden="true" d="" pointer-events="none" display="none"/></g></g></g><path class="foreground" aria-hidden="true" d="" display="none"/></g><g transform="translate(-1,186)"><path class="background" aria-hidden="true" d="M0,0h0v40h0Z"/><g><g class="mark-group role-axis" role="graphics-symbol" aria-roledescription="axis" aria-label="Y-axis titled 'Price' for a linear scale with values from 0 to 240"><g transform="translate(0.5,0.5)"><path class="background" aria-hidden="true" d="M0,0h0v0h0Z" pointer-events="none"/><g><g class="mark-rule role-axis-tick" pointer-events="none"><line transform="translate(0,40)" x2="-5" y2="0" stroke="#888" stroke-width="1" opacity="1"/><line transform="translate(0,7)" x2="-5" y2="0" stroke="#888" stroke-width="1" opacity="1"/></g><g class="mark-text role-axis-label" pointer-events="none"><text text-anchor="end" transform="translate(-7,43)" font-family="sans-serif" font-size="10px" fill="#000" opacity="1">0</text><text text-anchor="end" transform="translate(-7,9.666666666666664)" font-family="sans-serif" font-size="10px" fill="#000" opacity="1">200</text></g><g class="mark-rule role-axis-domain" pointer-events="none"><line transform="translate(0,40)" x2="0" y2="-40" stroke="#888" stroke-width="1" opacity="1"/></g><g class="mark-text role-axis-title" pointer-events="none"><text text-anchor="middle" transform="translate(-30.0869140625,20) rotate(-90) translate(0,-2)" font-family="sans-serif" font-size="11px" font-weight="bold" fill="#000" opacity="1">Price</text></g></g><path class="foreground" aria-hidden="true" d="" pointer-events="none" display="none"/></g></g><g class="mark-group role-title"><g transform="translate(-61.0869140625,20)"><path class="background" aria-hidden="true" d="M0,0h0v0h0Z" pointer-events="none"/><g><g class="mark-text role-title-text" role="graphics-symbol" aria-roledescription="title" aria-label="Title text 'MSFT'" pointer-events="none"><text text-anchor="middle" transform="translate(0,0) rotate(-90) translate(0,8)" font-family="sans-serif" font-size="10px" fill="#000" opacity="1">MSFT</text></g></g><path class="foreground" aria-hidden="true" d="" pointer-events="none" display="none"/></g></g></g><path class="foreground" aria-hidden="true" d="" display="none"/></g></g><g class="mark-group role-column-footer column_footer" role="graphics-object" aria-roledescription="group mark container"><g transform="translate(0,227)"><path class="background" aria-hidden="true" d="M0,0h300v0h-300Z"/><g><g class="mark-group role-axis" role="graphics-symbol" aria-roledescription="axis" aria-label="X-axis titled 'Time' for a time scale with values from Saturday, 01 January 2000, 12:00:00 AM to Monday, 01 March 2010, 12:00:00 AM"><g transform="translate(0.5,0.5)"><path class="background" aria-hidden="true" d="M0,0h0v0h0Z" pointer-events="none"/><g><g class="mark-rule role-axis-tick" pointer-events="none"><line transform="translate(0,0)" x2="0" y2="5" stroke="#888" stroke-width="1" opacity="1"/><line transform="translate(30,0)" x2="0" y2="5" stroke="#888" stroke-width="1" opacity="1"/><line transform="translate(59,0)" x2="0" y2="5" stroke="#888" stroke-width="1" opacity="1"/><line transform="translate(89,0)" x2="0" y2="5" stroke="#888" stroke-width="1" opacity="1"/><line transform="translate(118,0)" x2="0" y2="5" stroke="#888" stroke-width="1" opacity="1"/><line transform="translate(148,0)" x2="0" y2="5" stroke="#888" stroke-width="1" opacity="1"/><line transform="translate(177,0)" x2="0" y2="5" stroke="#888" stroke-width="1" opacity="1"/><line transform="translate(207,0)" x2="0" y2="5" stroke="#888" stroke-width="1" opacity="1"/><line transform="translate(236,0)" x2="0" y2="5" stroke="#888" stroke-width="1" opacity="1"/><line transform="translate(266,0)" x2="0" y2="5" stroke="#888" stroke-width="1" opacity="1"/><line transform="translate(295,0)" x2="0" y2="5" stroke="#888" stroke-width="1" opacity="1"/></g><g class="mark-text role-axis-label" pointer-events="none"><text text-anchor="start" transform="translate(0,15)" font-family="sans-serif" font-size="10px" fill="#000" opacity="1">2000</text><text text-anchor="middle" transform="translate(29.579741379310345,15)" font-family="sans-serif" font-size="10px" fill="#000" opacity="0">2001</text><text text-anchor="middle" transform="translate(59.07866379310345,15)" font-family="sans-serif" font-size="10px" fill="#000" opacity="1">2002</text><text text-anchor="middle" transform="translate(88.57758620689656,15)" font-family="sans-serif" font-size="10px" fill="#000" opacity="0">2003</text><text text-anchor="middle" transform="translate(118.07650862068965,15)" font-family="sans-serif" font-size="10px" fill="#000" opacity="1">2004</text><text text-anchor="middle" transform="translate(147.65625,15)" font-family="sans-serif" font-size="10px" fill="#000" opacity="0">2005</text><text text-anchor="middle" transform="translate(177.1551724137931,15)" font-family="sans-serif" font-size="10px" fill="#000" opacity="1">2006</text><text text-anchor="middle" transform="translate(206.6540948275862,15)" font-family="sans-serif" font-size="10px" fill="#000" opacity="0">2007</text><text text-anchor="middle" transform="translate(236.1530172413793,15)" font-family="sans-serif" font-size="10px" fill="#000" opacity="1">2008</text><text text-anchor="middle" transform="translate(265.73275862068965,15)" font-family="sans-serif" font-size="10px" fill="#000" opacity="0">2009</text><text text-anchor="middle" transform="translate(295.2316810344828,15)" font-family="sans-serif" font-size="10px" fill="#000" opacity="1">2010</text></g><g class="mark-rule role-axis-domain" pointer-events="none"><line transform="translate(0,0)" x2="300" y2="0" stroke="#888" stroke-width="1" opacity="1"/></g><g class="mark-text role-axis-title" pointer-events="none"><text text-anchor="middle" transform="translate(150,30)" font-family="sans-serif" font-size="11px" font-weight="bold" fill="#000" opacity="1">Time</text></g></g><path class="foreground" aria-hidden="true" d="" pointer-events="none" display="none"/></g></g></g><path class="foreground" aria-hidden="true" d="" display="none"/></g></g><g class="mark-group role-scope cell" role="graphics-object" aria-roledescription="group mark container"><g transform="translate(0,0)"><path class="background" aria-hidden="true" d="M0.5,0.5h300v40h-300Z" stroke="#ddd"/><g><g class="mark-group role-scope child_pathgroup" role="graphics-object" aria-roledescription="group mark container"><g transform="translate(0,0)"><path class="background" aria-hidden="true" d="M0,0h300v40h-300Z"/><g><g class="mark-area role-mark child_marks" role="graphics-object" aria-roledescription="area mark container"><path aria-label="Time: Jan 01, 2000; Price: 25.94; symbol: AAPL" role="graphics-symbol" aria-roledescription="area mark" d="M0,35.677L2.505,35.223L4.849,34.342L7.355,34.832L9.776,36.5L12.281,35.635L14.706,35.765L17.211,34.922L19.716,37.853L22.141,38.37L24.65,38.625L27.074,38.76L29.58,38.198L32.085,38.48L34.348,38.162L36.853,37.877L39.275,38.337L41.78,38.063L44.205,38.433L46.71,38.455L49.215,38.707L51.64,38.537L54.149,38.225L56.573,38.175L59.079,37.94L61.584,38.192L63.847,38.027L66.352,37.977L68.774,38.058L71.279,38.523L73.704,38.728L76.209,38.77L78.714,38.792L81.139,38.662L83.648,38.708L86.072,38.807L88.578,38.803L91.083,38.748L93.346,38.822L95.851,38.815L98.272,38.503L100.778,38.412L103.202,38.243L105.708,38.115L108.213,38.273L110.638,38.093L113.147,38.258L115.571,38.218L118.077,38.12L120.582,38.007L122.926,37.747L125.431,37.852L127.852,37.662L130.358,37.288L132.782,37.305L135.288,37.125L137.793,36.77L140.218,35.633L142.726,34.412L145.151,34.633L147.656,33.592L150.162,32.523L152.425,33.055L154.93,33.99L157.351,33.373L159.857,33.865L162.281,32.892L164.787,32.185L167.292,31.065L169.716,30.402L172.225,28.697L174.65,28.018L177.155,27.415L179.661,28.585L181.923,29.547L184.429,28.268L186.85,30.038L189.355,30.455L191.78,28.673L194.285,28.692L196.791,27.17L199.215,26.487L201.724,24.723L204.149,25.86L206.654,25.712L209.159,25.898L211.422,24.515L213.924,23.367L216.349,19.802L218.854,19.66L221.279,18.04L223.784,16.92L226.29,14.422L228.714,8.342L231.22,9.63L233.648,6.987L236.153,17.44L238.658,19.163L241.002,16.083L243.504,11.008L245.929,8.542L248.434,12.093L250.859,13.508L253.364,11.745L255.869,21.057L258.294,22.068L260.799,24.555L263.227,25.775L265.733,24.978L268.238,25.115L270.501,22.48L273.003,19.028L275.428,17.365L277.933,16.262L280.358,12.768L282.863,11.965L285.368,9.108L287.793,8.583L290.298,6.682L292.726,4.878L295.232,7.99L297.737,5.897L300,2.83L300,40L297.737,40L295.232,40L292.726,40L290.298,40L287.793,40L285.368,40L282.863,40L280.358,40L277.933,40L275.428,40L273.003,40L270.501,40L268.238,40L265.733,40L263.227,40L260.799,40L258.294,40L255.869,40L253.364,40L250.859,40L248.434,40L245.929,40L243.504,40L241.002,40L238.658,40L236.153,40L233.648,40L231.22,40L228.714,40L226.29,40L223.784,40L221.279,40L218.854,40L216.349,40L213.924,40L211.422,40L209.159,40L206.654,40L204.149,40L201.724,40L199.215,40L196.791,40L194.285,40L191.78,40L189.355,40L186.85,40L184.429,40L181.923,40L179.661,40L177.155,40L174.65,40L172.225,40L169.716,40L167.292,40L164.787,40L162.281,40L159.857,40L157.351,40L154.93,40L152.425,40L150.162,40L147.656,40L145.151,40L142.726,40L140.218,40L137.793,40L135.288,40L132.782,40L130.358,40L127.852,40L125.431,40L122.926,40L120.582,40L118.077,40L115.571,40L113.147,40L110.638,40L108.213,40L105.708,40L103.202,40L100.778,40L98.272,40L95.851,40L93.346,40L91.083,40L88.578,40L86.072,40L83.648,40L81.139,40L78.714,40L76.209,40L73.704,40L71.279,40L68.774,40L66.352,40L63.847,40L61.584,40L59.079,40L56.573,40L54.149,40L51.64,40L49.215,40L46.71,40L44.205,40L41.78,40L39.275,40L36.853,40L34.348,40L32.085,40L29.58,40L27.074,40L24.65,40L22.141,40L19.716,40L17.211,40L14.706,40L12.281,40L9.776,40L7.355,40L4.849,40L2.505,40L0,40Z" fill="#4c78a8"/></g></g><path class="foreground" aria-hidden="true" d="" display="none"/></g></g></g><path class="foreground" aria-hidden="true" d="" display="none"/></g><g transform="translate(0,62)"><path class="background" aria-hidden="true" d="M0.5,0.5h300v40h-300Z" stroke="#ddd"/><g><g class="mark-group role-scope child_pathgroup" role="graphics-object" aria-roledescription="group mark container"><g transform="translate(0,0)"><path class="background" aria-hidden="true" d="M0,0h300v40h-300Z"/><g><g class="mark-area role-mark child_marks" role="graphics-object" aria-roledescription="area mark container"><path aria-label="Time: Jan 01, 2000; Price: 64.56; symbol: AMZN" role="graphics-symbol" aria-roledescription="area mark" d="M0,29.24L2.505,28.522L4.849,28.833L7.355,30.802L9.776,31.948L12.281,33.948L14.706,34.98L17.211,33.083L19.716,33.593L22.141,33.897L24.65,35.885L27.074,37.407L29.58,37.115L32.085,38.302L34.348,38.295L36.853,37.37L39.275,37.218L41.78,37.642L44.205,37.918L46.71,38.51L49.215,39.005L51.64,38.837L54.149,38.113L56.573,38.197L59.079,37.635L61.584,37.65L63.847,37.617L66.352,37.218L68.774,36.962L71.279,37.292L73.704,37.592L76.209,37.51L78.714,37.345L81.139,36.773L83.648,36.108L86.072,36.852L88.578,36.358L91.083,36.332L93.346,35.662L95.851,35.218L98.272,34.018L100.778,33.947L103.202,33.06L105.708,32.28L108.213,31.928L110.638,30.928L113.147,31.005L115.571,31.23L118.077,31.6L120.582,32.832L122.926,32.787L125.431,32.733L127.852,31.917L130.358,30.933L132.782,33.513L135.288,33.643L137.793,33.19L140.218,34.312L142.726,33.387L145.151,32.618L147.656,32.797L150.162,34.137L152.425,34.288L154.93,34.607L157.351,34.082L159.857,34.485L162.281,32.475L164.787,32.883L167.292,32.45L169.716,33.357L172.225,31.923L174.65,32.142L177.155,32.53L179.661,33.76L181.923,33.912L184.429,34.132L186.85,34.232L189.355,33.553L191.78,35.518L194.285,34.862L196.791,34.647L199.215,33.652L201.724,33.277L204.149,33.423L206.654,33.722L209.159,33.477L211.422,33.368L213.924,29.778L216.349,28.477L218.854,28.598L221.279,26.91L223.784,26.682L226.29,24.475L228.714,25.142L231.22,24.907L233.648,24.56L236.153,27.05L238.658,29.255L241.002,28.117L243.504,26.895L245.929,26.397L248.434,27.778L250.859,27.277L253.364,26.532L255.869,27.873L258.294,30.46L260.799,32.883L263.227,31.453L265.733,30.197L268.238,29.202L270.501,27.76L273.003,26.58L275.428,27.002L277.933,26.057L280.358,25.707L282.863,26.468L285.368,24.44L287.793,20.198L290.298,17.348L292.726,17.58L295.232,19.098L297.737,20.267L300,18.53L300,40L297.737,40L295.232,40L292.726,40L290.298,40L287.793,40L285.368,40L282.863,40L280.358,40L277.933,40L275.428,40L273.003,40L270.501,40L268.238,40L265.733,40L263.227,40L260.799,40L258.294,40L255.869,40L253.364,40L250.859,40L248.434,40L245.929,40L243.504,40L241.002,40L238.658,40L236.153,40L233.648,40L231.22,40L228.714,40L226.29,40L223.784,40L221.279,40L218.854,40L216.349,40L213.924,40L211.422,40L209.159,40L206.654,40L204.149,40L201.724,40L199.215,40L196.791,40L194.285,40L191.78,40L189.355,40L186.85,40L184.429,40L181.923,40L179.661,40L177.155,40L174.65,40L172.225,40L169.716,40L167.292,40L164.787,40L162.281,40L159.857,40L157.351,40L154.93,40L152.425,40L150.162,40L147.656,40L145.151,40L142.726,40L140.218,40L137.793,40L135.288,40L132.782,40L130.358,40L127.852,40L125.431,40L122.926,40L120.582,40L118.077,40L115.571,40L113.147,40L110.638,40L108.213,40L105.708,40L103.202,40L100.778,40L98.272,40L95.851,40L93.346,40L91.083,40L88.578,40L86.072,40L83.648,40L81.139,40L78.714,40L76.209,40L73.704,40L71.279,40L68.774,40L66.352,40L63.847,40L61.584,40L59.079,40L56.573,40L54.149,40L51.64,40L49.215,40L46.71,40L44.205,40L41.78,40L39.275,40L36.853,40L34.348,40L32.085,40L29.58,40L27.074,40L24.65,40L22.141,40L19.716,40L17.211,40L14.706,40L12.281,40L9.776,40L7.355,40L4.849,40L2.505,40L0,40Z" fill="#f58518"/></g></g><path class="foreground" aria-hidden="true" d="" display="none"/></g></g></g><path class="foreground" aria-hidden="true" d="" display="none"/></g><g transform="translate(0,124)"><path class="background" aria-hidden="true" d="M0.5,0.5h300v40h-300Z" stroke="#ddd"/><g><g class="mark-group role-scope child_pathgroup" role="graphics-object" aria-roledescription="group mark container"><g transform="translate(0,0)"><path class="background" aria-hidden="true" d="M0,0h300v40h-300Z"/><g><g class="mark-area role-mark child_marks" role="graphics-object" aria-roledescription="area mark container"><path aria-label="Time: Jan 01, 2000; Price: 100.52; symbol: IBM" role="graphics-symbol" aria-roledescription="area mark" d="M0,23.247L2.505,24.648L4.849,22.315L7.355,23.342L9.776,23.948L12.281,23.612L14.706,23.21L17.211,20.23L19.716,23.135L22.141,25.25L24.65,25.98L27.074,27.255L29.58,23.207L32.085,25.003L34.348,25.562L36.853,22.717L39.275,23.197L41.78,22.942L44.205,24.188L46.71,24.958L49.215,26.197L51.64,23.737L54.149,22.583L56.573,21.773L59.079,23.743L61.584,25.197L63.847,24.308L66.352,27.363L68.774,27.838L71.279,29.115L73.704,29.357L76.209,28.58L78.714,31.165L81.139,28.04L83.648,26.807L86.072,28.237L88.578,28.13L91.083,28.145L93.346,28.072L95.851,27.088L98.272,26.587L100.778,27.43L103.202,27.62L105.708,27.48L108.213,26.515L110.638,26.34L113.147,26.153L115.571,25.825L118.077,24.823L120.582,25.217L122.926,25.932L125.431,26.493L127.852,26.402L130.358,26.468L132.782,26.635L135.288,26.972L137.793,26.812L140.218,26.193L142.726,25.475L145.151,24.807L147.656,25.602L150.162,25.703L152.425,25.89L154.93,28.205L157.351,28.303L159.857,28.512L162.281,27.078L164.787,27.488L167.292,27.55L169.716,27.292L172.225,26.17L174.65,27.212L177.155,27.352L179.661,27.485L181.923,27.138L184.429,27.158L186.85,27.493L189.355,27.975L191.78,27.883L194.285,27.275L196.791,27.123L199.215,25.49L201.724,25.508L204.149,24.683L206.654,24.368L209.159,25.303L211.422,25.093L213.924,23.837L216.349,23.077L218.854,23.292L221.279,22.433L223.784,21.41L226.29,21.233L228.714,21.5L231.22,23.183L233.648,22.717L236.153,22.875L238.658,21.727L241.002,21.522L243.504,20.628L245.929,19.143L248.434,20.9L250.859,19.377L253.364,20.307L255.869,21.078L258.294,24.96L260.799,26.725L263.227,26.308L265.733,25.09L268.238,24.947L270.501,24.152L273.003,23.118L275.428,22.525L277.933,22.832L280.358,20.61L282.863,20.5L285.368,20.242L287.793,20.077L290.298,19.035L292.726,18.28L295.232,19.692L297.737,18.807L300,19.075L300,40L297.737,40L295.232,40L292.726,40L290.298,40L287.793,40L285.368,40L282.863,40L280.358,40L277.933,40L275.428,40L273.003,40L270.501,40L268.238,40L265.733,40L263.227,40L260.799,40L258.294,40L255.869,40L253.364,40L250.859,40L248.434,40L245.929,40L243.504,40L241.002,40L238.658,40L236.153,40L233.648,40L231.22,40L228.714,40L226.29,40L223.784,40L221.279,40L218.854,40L216.349,40L213.924,40L211.422,40L209.159,40L206.654,40L204.149,40L201.724,40L199.215,40L196.791,40L194.285,40L191.78,40L189.355,40L186.85,40L184.429,40L181.923,40L179.661,40L177.155,40L174.65,40L172.225,40L169.716,40L167.292,40L164.787,40L162.281,40L159.857,40L157.351,40L154.93,40L152.425,40L150.162,40L147.656,40L145.151,40L142.726,40L140.218,40L137.793,40L135.288,40L132.782,40L130.358,40L127.852,40L125.431,40L122.926,40L120.582,40L118.077,40L115.571,40L113.147,40L110.638,40L108.213,40L105.708,40L103.202,40L100.778,40L98.272,40L95.851,40L93.346,40L91.083,40L88.578,40L86.072,40L83.648,40L81.139,40L78.714,40L76.209,40L73.704,40L71.279,40L68.774,40L66.352,40L63.847,40L61.584,40L59.079,40L56.573,40L54.149,40L51.64,40L49.215,40L46.71,40L44.205,40L41.78,40L39.275,40L36.853,40L34.348,40L32.085,40L29.58,40L27.074,40L24.65,40L22.141,40L19.716,40L17.211,40L14.706,40L12.281,40L9.776,40L7.355,40L4.849,40L2.505,40L0,40Z" fill="#e45756"/></g></g><path class="foreground" aria-hidden="true" d="" display="none"/></g></g></g><path class="foreground" aria-hidden="true" d="" display="none"/></g><g transform="translate(0,186)"><path class="background" aria-hidden="true" d="M0.5,0.5h300v40h-300Z" stroke="#ddd"/><g><g class="mark-group role-scope child_pathgroup" role="graphics-object" aria-roledescription="group mark container"><g transform="translate(0,0)"><path class="background" aria-hidden="true" d="M0,0h300v40h-300Z"/><g><g class="mark-area role-mark child_marks" role="graphics-object" aria-roledescription="area mark container"><path aria-label="Time: Jan 01, 2000; Price: 39.81; symbol: MSFT" role="graphics-symbol" aria-roledescription="area mark" d="M0,33.365L2.505,33.942L4.849,32.797L7.355,35.272L9.776,35.758L12.281,34.577L14.706,35.267L17.211,35.267L19.716,35.912L22.141,35.33L24.65,36.11L27.074,37.058L29.58,35.86L32.085,36L34.348,36.292L36.853,35.407L39.275,35.31L41.78,35.05L44.205,35.512L46.71,36.132L49.215,36.53L51.64,36.058L54.149,35.647L56.573,35.508L59.079,35.68L61.584,36.045L63.847,35.912L66.352,36.457L68.774,36.548L71.279,36.292L73.704,36.747L76.209,36.672L78.714,37.035L81.139,36.375L83.648,36.09L86.072,36.495L88.578,36.782L91.083,36.777L93.346,36.707L95.851,36.522L98.272,36.652L100.778,36.512L103.202,36.407L105.708,36.392L108.213,36.218L110.638,36.425L113.147,36.483L115.571,36.257L118.077,36.218L120.582,36.372L122.926,36.59L125.431,36.425L127.852,36.412L130.358,36.093L132.782,36.103L135.288,36.255L137.793,36.207L140.218,36.163L142.726,35.9L145.151,35.913L147.656,35.982L150.162,36.142L152.425,36.293L154.93,36.12L157.351,36.03L159.857,36.178L162.281,36.06L164.787,35.775L167.292,36.028L169.716,36.033L172.225,35.715L174.65,35.952L177.155,35.643L179.661,35.827L181.923,35.773L184.429,36.25L186.85,36.468L189.355,36.367L191.78,36.248L194.285,35.978L196.791,35.72L199.215,35.507L201.724,35.39L204.149,35.312L206.654,35.155L209.159,35.562L211.422,35.608L213.924,35.283L216.349,35.148L218.854,35.342L221.279,35.417L223.784,35.443L226.29,35.327L228.714,34.162L231.22,34.652L233.648,34.333L236.153,34.812L238.658,35.655L241.002,35.465L243.504,35.443L245.929,35.458L248.434,35.588L250.859,35.875L253.364,35.607L255.869,35.703L258.294,36.405L260.799,36.723L263.227,36.848L265.733,37.228L268.238,37.365L270.501,37.002L273.003,36.693L275.428,36.568L277.933,36.097L280.358,36.137L282.863,35.928L285.368,35.752L287.793,35.42L290.298,35.122L292.726,34.943L295.232,35.325L297.737,35.222L300,35.2L300,40L297.737,40L295.232,40L292.726,40L290.298,40L287.793,40L285.368,40L282.863,40L280.358,40L277.933,40L275.428,40L273.003,40L270.501,40L268.238,40L265.733,40L263.227,40L260.799,40L258.294,40L255.869,40L253.364,40L250.859,40L248.434,40L245.929,40L243.504,40L241.002,40L238.658,40L236.153,40L233.648,40L231.22,40L228.714,40L226.29,40L223.784,40L221.279,40L218.854,40L216.349,40L213.924,40L211.422,40L209.159,40L206.654,40L204.149,40L201.724,40L199.215,40L196.791,40L194.285,40L191.78,40L189.355,40L186.85,40L184.429,40L181.923,40L179.661,40L177.155,40L174.65,40L172.225,40L169.716,40L167.292,40L164.787,40L162.281,40L159.857,40L157.351,40L154.93,40L152.425,40L150.162,40L147.656,40L145.151,40L142.726,40L140.218,40L137.793,40L135.288,40L132.782,40L130.358,40L127.852,40L125.431,40L122.926,40L120.582,40L118.077,40L115.571,40L113.147,40L110.638,40L108.213,40L105.708,40L103.202,40L100.778,40L98.272,40L95.851,40L93.346,40L91.083,40L88.578,40L86.072,40L83.648,40L81.139,40L78.714,40L76.209,40L73.704,40L71.279,40L68.774,40L66.352,40L63.847,40L61.584,40L59.079,40L56.573,40L54.149,40L51.64,40L49.215,40L46.71,40L44.205,40L41.78,40L39.275,40L36.853,40L34.348,40L32.085,40L29.58,40L27.074,40L24.65,40L22.141,40L19.716,40L17.211,40L14.706,40L12.281,40L9.776,40L7.355,40L4.849,40L2.505,40L0,40Z" fill="#72b7b2"/></g></g><path class="foreground" aria-hidden="true" d="" display="none"/></g></g></g><path class="foreground" aria-hidden="true" d="" display="none"/></g></g></g><path class="foreground" aria-hidden="true" d="" display="none"/></g></g></g></svg>