<svg class="marks" width="643" height="317" viewBox="0 0 643 317" version="1.1" xmlns="http://www.w3.org/2000/svg" xmlns:xlink="http://www.w3.org/1999/xlink"><g transform="translate(117,57)"><g class="mark-group role-frame root"><g transform="translate(0,0)"><path class="background" d="M0,0h0v0h0Z" style="fill: none;"></path><g><g class="mark-group role-column-title column_title"><g transform="translate(206,-42)"><path class="background" d="M0,0h0v0h0Z" style="fill: none;"></path><g><g class="mark-text role-column-title-text"><text text-anchor="middle" transform="translate(0,0)" style="font: bold 11px sans-serif; fill: #000;">year</text></g></g></g></g><g class="mark-group role-row-header row_header"><g transform="translate(-11,0)"><path class="background" d="M0,0h0v210h0Z" style="fill: none;"></path><g><g class="mark-group role-axis"><g transform="translate(0.5,0.5)"><path class="background" d="M0,0h0v0h0Z" style="pointer-events: none; fill: none;"></path><g><g class="mark-rule role-axis-tick" style="pointer-events: none;"><line transform="translate(0,10)" x2="-5" y2="0" style="fill: none; stroke: #888; stroke-width: 1; opacity: 1;"></line><line transform="translate(0,31)" x2="-5" y2="0" style="fill: none; stroke: #888; stroke-width: 1; opacity: 1;"></line><line transform="translate(0,52)" x2="-5" y2="0" style="fill: none; stroke: #888; stroke-width: 1; opacity: 1;"></line><line transform="translate(0,73)" x2="-5" y2="0" style="fill: none; stroke: #888; stroke-width: 1; opacity: 1;"></line><line transform="translate(0,94)" x2="-5" y2="0" style="fill: none; stroke: #888; stroke-width: 1; opacity: 1;"></line><line transform="translate(0,115)" x2="-5" y2="0" style="fill: none; stroke: #888; stroke-width: 1; opacity: 1;"></line><line transform="translate(0,136)" x2="-5" y2="0" style="fill: none; stroke: #888; stroke-width: 1; opacity: 1;"></line><line transform="translate(0,157)" x2="-5" y2="0" style="fill: none; stroke: #888; stroke-width: 1; opacity: 1;"></line><line transform="translate(0,178)" x2="-5" y2="0" style="fill: none; stroke: #888; stroke-width: 1; opacity: 1;"></line><line transform="translate(0,199)" x2="-5" y2="0" style="fill: none; stroke: #888; stroke-width: 1; opacity: 1;"></line></g><g class="mark-text role-axis-label" style="pointer-events: none;"><text text-anchor="end" transform="translate(-7,12.5)" style="font: 10px sans-serif; fill: #000; opacity: 1;">Glabron</text><text text-anchor="end" transform="translate(-7,33.5)" style="font: 10px sans-serif; fill: #000; opacity: 1;">Manchuria</text><text text-anchor="end" transform="translate(-7,54.5)" style="font: 10px sans-serif; fill: #000; opacity: 1;">No. 457</text><text text-anchor="end" transform="translate(-7,75.5)" style="font: 10px sans-serif; fill: #000; opacity: 1;">No. 462</text><text text-anchor="end" transform="translate(-7,96.5)" style="font: 10px sans-serif; fill: #000; opacity: 1;">No. 475</text><text text-anchor="end" transform="translate(-7,117.5)" style="font: 10px sans-serif; fill: #000; opacity: 1;">Peatland</text><text text-anchor="end" transform="translate(-7,138.5)" style="font: 10px sans-serif; fill: #000; opacity: 1;">Svansota</text><text text-anchor="end" transform="translate(-7,159.5)" style="font: 10px sans-serif; fill: #000; opacity: 1;">Trebi</text><text text-anchor="end" transform="translate(-7,180.5)" style="font: 10px sans-serif; fill: #000; opacity: 1;">Velvet</text><text text-anchor="end" transform="translate(-7,201.5)" style="font: 10px sans-serif; fill: #000; opacity: 1;">Wisconsin No. 38</text></g><g class="mark-rule role-axis-domain" style="pointer-events: none;"><line transform="translate(0,0)" x2="0" y2="210" style="fill: none; stroke: #888; stroke-width: 1; opacity: 1;"></line></g><g class="mark-text role-axis-title" style="pointer-events: none;"><text text-anchor="middle" transform="translate(-87.8076171875,105) rotate(-90) translate(0,-2)" style="font: bold 11px sans-serif; fill: #000; opacity: 1;">variety</text></g></g></g></g></g></g></g><g class="mark-group role-column-header column_header"><g transform="translate(0,-11)"><path class="background" d="M0,0h200v0h-200Z" style="fill: none;"></path><g><g class="mark-text role-title" style="pointer-events: none;"><text text-anchor="middle" transform="translate(100,-12)" style="font: normal 10px sans-serif; fill: #000; opacity: 1;">1931</text></g></g></g><g transform="translate(212,-11)"><path class="background" d="M0,0h200v0h-200Z" style="fill: none;"></path><g><g class="mark-text role-title" style="pointer-events: none;"><text text-anchor="middle" transform="translate(100,-12)" style="font: normal 10px sans-serif; fill: #000; opacity: 1;">1932</text></g></g></g></g><g class="mark-group role-column-footer column_footer"><g transform="translate(0,221)"><path class="background" d="M0,0h200v0h-200Z" style="fill: none;"></path><g><g class="mark-group role-axis"><g transform="translate(0.5,0.5)"><path class="background" d="M0,0h0v0h0Z" style="pointer-events: none; fill: none;"></path><g><g class="mark-rule role-axis-tick" style="pointer-events: none;"><line transform="translate(0,0)" x2="0" y2="5" style="fill: none; stroke: #888; stroke-width: 1; opacity: 1;"></line><line transform="translate(38,0)" x2="0" y2="5" style="fill: none; stroke: #888; stroke-width: 1; opacity: 1;"></line><line transform="translate(77,0)" x2="0" y2="5" style="fill: none; stroke: #888; stroke-width: 1; opacity: 1;"></line><line transform="translate(115,0)" x2="0" y2="5" style="fill: none; stroke: #888; stroke-width: 1; opacity: 1;"></line><line transform="translate(154,0)" x2="0" y2="5" style="fill: none; stroke: #888; stroke-width: 1; opacity: 1;"></line><line transform="translate(192,0)" x2="0" y2="5" style="fill: none; stroke: #888; stroke-width: 1; opacity: 1;"></line></g><g class="mark-text role-axis-label" style="pointer-events: none;"><text text-anchor="middle" transform="translate(0,16)" style="font: 10px sans-serif; fill: #000; opacity: 1;">0</text><text text-anchor="middle" transform="translate(38,16)" style="font: 10px sans-serif; fill: #000; opacity: 1;">50</text><text text-anchor="middle" transform="translate(77,16)" style="font: 10px sans-serif; fill: #000; opacity: 1;">100</text><text text-anchor="middle" transform="translate(115,16)" style="font: 10px sans-serif; fill: #000; opacity: 1;">150</text><text text-anchor="middle" transform="translate(154,16)" style="font: 10px sans-serif; fill: #000; opacity: 1;">200</text><text text-anchor="middle" transform="translate(192,16)" style="font: 10px sans-serif; fill: #000; opacity: 1;">250</text></g><g class="mark-rule role-axis-domain" style="pointer-events: none;"><line transform="translate(0,0)" x2="200" y2="0" style="fill: none; stroke: #888; stroke-width: 1; opacity: 1;"></line></g><g class="mark-text role-axis-title" style="pointer-events: none;"><text text-anchor="middle" transform="translate(100,31)" style="font: bold 11px sans-serif; fill: #000; opacity: 1;">SUM(yield)</text></g></g></g></g></g></g><g transform="translate(212,221)"><path class="background" d="M0,0h200v0h-200Z" style="fill: none;"></path><g><g class="mark-group role-axis"><g transform="translate(0.5,0.5)"><path class="background" d="M0,0h0v0h0Z" style="pointer-events: none; fill: none;"></path><g><g class="mark-rule role-axis-tick" style="pointer-events: none;"><line transform="translate(0,0)" x2="0" y2="5" style="fill: none; stroke: #888; stroke-width: 1; opacity: 1;"></line><line transform="translate(38,0)" x2="0" y2="5" style="fill: none; stroke: #888; stroke-width: 1; opacity: 1;"></line><line transform="translate(77,0)" x2="0" y2="5" style="fill: none; stroke: #888; stroke-width: 1; opacity: 1;"></line><line transform="translate(115,0)" x2="0" y2="5" style="fill: none; stroke: #888; stroke-width: 1; opacity: 1;"></line><line transform="translate(154,0)" x2="0" y2="5" style="fill: none; stroke: #888; stroke-width: 1; opacity: 1;"></line><line transform="translate(192,0)" x2="0" y2="5" style="fill: none; stroke: #888; stroke-width: 1; opacity: 1;"></line></g><g class="mark-text role-axis-label" style="pointer-events: none;"><text text-anchor="middle" transform="translate(0,16)" style="font: 10px sans-serif; fill: #000; opacity: 1;">0</text><text text-anchor="middle" transform="translate(38,16)" style="font: 10px sans-serif; fill: #000; opacity: 1;">50</text><text text-anchor="middle" transform="translate(77,16)" style="font: 10px sans-serif; fill: #000; opacity: 1;">100</text><text text-anchor="middle" transform="translate(115,16)" style="font: 10px sans-serif; fill: #000; opacity: 1;">150</text><text text-anchor="middle" transform="translate(154,16)" style="font: 10px sans-serif; fill: #000; opacity: 1;">200</text><text text-anchor="middle" transform="translate(192,16)" style="font: 10px sans-serif; fill: #000; opacity: 1;">250</text></g><g class="mark-rule role-axis-domain" style="pointer-events: none;"><line transform="translate(0,0)" x2="200" y2="0" style="fill: none; stroke: #888; stroke-width: 1; opacity: 1;"></line></g><g class="mark-text role-axis-title" style="pointer-events: none;"><text text-anchor="middle" transform="translate(100,31)" style="font: bold 11px sans-serif; fill: #000; opacity: 1;">SUM(yield)</text></g></g></g></g></g></g></g><g class="mark-group role-scope cell"><g transform="translate(0,0)"><path class="background" d="M0.5,0.5h200v210h-200Z" style="fill: transparent; stroke: #ddd;"></path><g><g class="mark-group role-axis"><g transform="translate(0.5,210.5)"><path class="background" d="M0,0h0v0h0Z" style="pointer-events: none; fill: none;"></path><g><g class="mark-rule role-axis-grid" style="pointer-events: none;"><line transform="translate(0,0)" x2="0" y2="-210" style="fill: none; stroke: #ddd; stroke-width: 1; stroke-dasharray: ; opacity: 1;"></line><line transform="translate(38,0)" x2="0" y2="-210" style="fill: none; stroke: #ddd; stroke-width: 1; stroke-dasharray: ; opacity: 1;"></line><line transform="translate(77,0)" x2="0" y2="-210" style="fill: none; stroke: #ddd; stroke-width: 1; stroke-dasharray: ; opacity: 1;"></line><line transform="translate(115,0)" x2="0" y2="-210" style="fill: none; stroke: #ddd; stroke-width: 1; stroke-dasharray: ; opacity: 1;"></line><line transform="translate(154,0)" x2="0" y2="-210" style="fill: none; stroke: #ddd; stroke-width: 1; stroke-dasharray: ; opacity: 1;"></line><line transform="translate(192,0)" x2="0" y2="-210" style="fill: none; stroke: #ddd; stroke-width: 1; stroke-dasharray: ; opacity: 1;"></line></g></g></g></g><g class="mark-rect role-mark child_marks"><path d="M38,22h20v19h-20Z" style="fill: #54a24b;"></path><path d="M0,22h38v19h-38Z" style="fill: #eeca3b;"></path><path d="M58,22h21v19h-21Z" style="fill: #72b7b2;"></path><path d="M127,22h31v19h-31Z" style="fill: #4c78a8;"></path><path d="M79,22h26v19h-26Z" style="fill: #e45756;"></path><path d="M105,22h22v19h-22Z" style="fill: #f58518;"></path><path d="M42,1h34v19h-34Z" style="fill: #54a24b;"></path><path d="M0,1h42v19h-42Z" style="fill: #eeca3b;"></path><path d="M76,1h22v19h-22Z" style="fill: #72b7b2;"></path><path d="M143,1h29v19h-29Z" style="fill: #4c78a8;"></path><path d="M98,1h22v19h-22Z" style="fill: #e45756;"></path><path d="M120,1h23v19h-23Z" style="fill: #f58518;"></path><path d="M36,127h27v19h-27Z" style="fill: #54a24b;"></path><path d="M0,127h36v19h-36Z" style="fill: #eeca3b;"></path><path d="M63,127h20v19h-20Z" style="fill: #72b7b2;"></path><path d="M126,127h31v19h-31Z" style="fill: #4c78a8;"></path><path d="M83,127h23v19h-23Z" style="fill: #e45756;"></path><path d="M106,127h20v19h-20Z" style="fill: #f58518;"></path><path d="M39,169h30v19h-30Z" style="fill: #54a24b;"></path><path d="M0,169h39v19h-39Z" style="fill: #eeca3b;"></path><path d="M69,169h20v19h-20Z" style="fill: #72b7b2;"></path><path d="M127,169h32v19h-32Z" style="fill: #4c78a8;"></path><path d="M89,169h18v19h-18Z" style="fill: #e45756;"></path><path d="M107,169h20v19h-20Z" style="fill: #f58518;"></path><path d="M49,148h28v19h-28Z" style="fill: #54a24b;"></path><path d="M0,148h49v19h-49Z" style="fill: #eeca3b;"></path><path d="M77,148h34v19h-34Z" style="fill: #72b7b2;"></path><path d="M160,148h36v19h-36Z" style="fill: #4c78a8;"></path><path d="M111,148h23v19h-23Z" style="fill: #e45756;"></path><path d="M134,148h26v19h-26Z" style="fill: #f58518;"></path><path d="M45,43h33v19h-33Z" style="fill: #54a24b;"></path><path d="M0,43h45v19h-45Z" style="fill: #eeca3b;"></path><path d="M78,43h22v19h-22Z" style="fill: #72b7b2;"></path><path d="M151,43h35v19h-35Z" style="fill: #4c78a8;"></path><path d="M100,43h25v19h-25Z" style="fill: #e45756;"></path><path d="M125,43h26v19h-26Z" style="fill: #f58518;"></path><path d="M51,64h28v19h-28Z" style="fill: #54a24b;"></path><path d="M0,64h51v19h-51Z" style="fill: #eeca3b;"></path><path d="M79,64h23v19h-23Z" style="fill: #72b7b2;"></path><path d="M143,64h37v19h-37Z" style="fill: #4c78a8;"></path><path d="M102,64h19v19h-19Z" style="fill: #e45756;"></path><path d="M121,64h22v19h-22Z" style="fill: #f58518;"></path><path d="M37,106h26v19h-26Z" style="fill: #54a24b;"></path><path d="M0,106h37v19h-37Z" style="fill: #eeca3b;"></path><path d="M63,106h23v19h-23Z" style="fill: #72b7b2;"></path><path d="M137,106h32v19h-32Z" style="fill: #4c78a8;"></path><path d="M86,106h26v19h-26Z" style="fill: #e45756;"></path><path d="M112,106h25v19h-25Z" style="fill: #f58518;"></path><path d="M36,85h19v19h-19Z" style="fill: #54a24b;"></path><path d="M0,85h36v19h-36Z" style="fill: #eeca3b;"></path><path d="M55,85h17v19h-17Z" style="fill: #72b7b2;"></path><path d="M113,85h34v19h-34Z" style="fill: #4c78a8;"></path><path d="M72,85h15v19h-15Z" style="fill: #e45756;"></path><path d="M87,85h26v19h-26Z" style="fill: #f58518;"></path><path d="M45,190h30v19h-30Z" style="fill: #54a24b;"></path><path d="M0,190h45v19h-45Z" style="fill: #eeca3b;"></path><path d="M75,190h23v19h-23Z" style="fill: #72b7b2;"></path><path d="M149,190h38v19h-38Z" style="fill: #4c78a8;"></path><path d="M98,190h27v19h-27Z" style="fill: #e45756;"></path><path d="M125,190h24v19h-24Z" style="fill: #f58518;"></path></g></g></g><g transform="translate(212,0)"><path class="background" d="M0.5,0.5h200v210h-200Z" style="fill: transparent; stroke: #ddd;"></path><g><g class="mark-group role-axis"><g transform="translate(0.5,210.5)"><path class="background" d="M0,0h0v0h0Z" style="pointer-events: none; fill: none;"></path><g><g class="mark-rule role-axis-grid" style="pointer-events: none;"><line transform="translate(0,0)" x2="0" y2="-210" style="fill: none; stroke: #ddd; stroke-width: 1; stroke-dasharray: ; opacity: 1;"></line><line transform="translate(38,0)" x2="0" y2="-210" style="fill: none; stroke: #ddd; stroke-width: 1; stroke-dasharray: ; opacity: 1;"></line><line transform="translate(77,0)" x2="0" y2="-210" style="fill: none; stroke: #ddd; stroke-width: 1; stroke-dasharray: ; opacity: 1;"></line><line transform="translate(115,0)" x2="0" y2="-210" style="fill: none; stroke: #ddd; stroke-width: 1; stroke-dasharray: ; opacity: 1;"></line><line transform="translate(154,0)" x2="0" y2="-210" style="fill: none; stroke: #ddd; stroke-width: 1; stroke-dasharray: ; opacity: 1;"></line><line transform="translate(192,0)" x2="0" y2="-210" style="fill: none; stroke: #ddd; stroke-width: 1; stroke-dasharray: ; opacity: 1;"></line></g></g></g></g><g class="mark-rect role-mark child_marks"><path d="M26,22h20v19h-20Z" style="fill: #54a24b;"></path><path d="M0,22h26v19h-26Z" style="fill: #eeca3b;"></path><path d="M46,22h27v19h-27Z" style="fill: #72b7b2;"></path><path d="M107,22h26v19h-26Z" style="fill: #4c78a8;"></path><path d="M73,22h17v19h-17Z" style="fill: #e45756;"></path><path d="M90,22h17v19h-17Z" style="fill: #f58518;"></path><path d="M29,1h28v19h-28Z" style="fill: #54a24b;"></path><path d="M0,1h29v19h-29Z" style="fill: #eeca3b;"></path><path d="M57,1h27v19h-27Z" style="fill: #72b7b2;"></path><path d="M115,1h20v19h-20Z" style="fill: #4c78a8;"></path><path d="M84,1h11v19h-11Z" style="fill: #e45756;"></path><path d="M95,1h20v19h-20Z" style="fill: #f58518;"></path><path d="M30,127h21v19h-21Z" style="fill: #54a24b;"></path><path d="M0,127h30v19h-30Z" style="fill: #eeca3b;"></path><path d="M51,127h27v19h-27Z" style="fill: #72b7b2;"></path><path d="M108,127h15v19h-15Z" style="fill: #4c78a8;"></path><path d="M78,127h12v19h-12Z" style="fill: #e45756;"></path><path d="M90,127h18v19h-18Z" style="fill: #f58518;"></path><path d="M29,169h20v19h-20Z" style="fill: #54a24b;"></path><path d="M0,169h29v19h-29Z" style="fill: #eeca3b;"></path><path d="M49,169h30v19h-30Z" style="fill: #72b7b2;"></path><path d="M121,169h25v19h-25Z" style="fill: #4c78a8;"></path><path d="M79,169h25v19h-25Z" style="fill: #e45756;"></path><path d="M104,169h17v19h-17Z" style="fill: #f58518;"></path><path d="M38,148h22v19h-22Z" style="fill: #54a24b;"></path><path d="M0,148h38v19h-38Z" style="fill: #eeca3b;"></path><path d="M60,148h36v19h-36Z" style="fill: #72b7b2;"></path><path d="M136,148h32v19h-32Z" style="fill: #4c78a8;"></path><path d="M96,148h16v19h-16Z" style="fill: #e45756;"></path><path d="M112,148h24v19h-24Z" style="fill: #f58518;"></path><path d="M32,43h21v19h-21Z" style="fill: #54a24b;"></path><path d="M0,43h32v19h-32Z" style="fill: #eeca3b;"></path><path d="M53,43h33v19h-33Z" style="fill: #72b7b2;"></path><path d="M119,43h26v19h-26Z" style="fill: #4c78a8;"></path><path d="M86,43h15v19h-15Z" style="fill: #e45756;"></path><path d="M101,43h18v19h-18Z" style="fill: #f58518;"></path><path d="M34,64h20v19h-20Z" style="fill: #54a24b;"></path><path d="M0,64h34v19h-34Z" style="fill: #eeca3b;"></path><path d="M54,64h36v19h-36Z" style="fill: #72b7b2;"></path><path d="M123,64h23v19h-23Z" style="fill: #4c78a8;"></path><path d="M90,64h16v19h-16Z" style="fill: #e45756;"></path><path d="M106,64h17v19h-17Z" style="fill: #f58518;"></path><path d="M28,106h21v19h-21Z" style="fill: #54a24b;"></path><path d="M0,106h28v19h-28Z" style="fill: #eeca3b;"></path><path d="M49,106h34v19h-34Z" style="fill: #72b7b2;"></path><path d="M127,106h20v19h-20Z" style="fill: #4c78a8;"></path><path d="M83,106h20v19h-20Z" style="fill: #e45756;"></path><path d="M103,106h24v19h-24Z" style="fill: #f58518;"></path><path d="M32,85h23v19h-23Z" style="fill: #54a24b;"></path><path d="M0,85h32v19h-32Z" style="fill: #eeca3b;"></path><path d="M55,85h34v19h-34Z" style="fill: #72b7b2;"></path><path d="M122,85h24v19h-24Z" style="fill: #4c78a8;"></path><path d="M89,85h12v19h-12Z" style="fill: #e45756;"></path><path d="M101,85h21v19h-21Z" style="fill: #f58518;"></path><path d="M45,190h29v19h-29Z" style="fill: #54a24b;"></path><path d="M0,190h45v19h-45Z" style="fill: #eeca3b;"></path><path d="M74,190h36v19h-36Z" style="fill: #72b7b2;"></path><path d="M149,190h27v19h-27Z" style="fill: #4c78a8;"></path><path d="M110,190h16v19h-16Z" style="fill: #e45756;"></path><path d="M126,190h23v19h-23Z" style="fill: #f58518;"></path></g></g></g></g><g class="mark-group role-legend"><g transform="translate(432,0)"><path class="background" d="M0,0h89v101h-89Z" style="pointer-events: none; fill: none;"></path><g><g class="mark-group role-legend-entry"><g transform="translate(0,16)"><path class="background" d="M0,0h0v0h0Z" style="pointer-events: none; fill: none;"></path><g><g class="mark-symbol role-legend-symbol" style="pointer-events: none;"><path transform="translate(5,5)" d="M-5,-5h10v10h-10Z" style="fill: #4c78a8; stroke-width: 1.5; opacity: 1;"></path><path transform="translate(5,20)" d="M-5,-5h10v10h-10Z" style="fill: #f58518; stroke-width: 1.5; opacity: 1;"></path><path transform="translate(5,35)" d="M-5,-5h10v10h-10Z" style="fill: #e45756; stroke-width: 1.5; opacity: 1;"></path><path transform="translate(5,50)" d="M-5,-5h10v10h-10Z" style="fill: #72b7b2; stroke-width: 1.5; opacity: 1;"></path><path transform="translate(5,65)" d="M-5,-5h10v10h-10Z" style="fill: #54a24b; stroke-width: 1.5; opacity: 1;"></path><path transform="translate(5,80)" d="M-5,-5h10v10h-10Z" style="fill: #eeca3b; stroke-width: 1.5; opacity: 1;"></path></g><g class="mark-text role-legend-label" style="pointer-events: none;"><text text-anchor="start" transform="translate(18,8)" style="font: 10px sans-serif; fill: #000; opacity: 1;">Crookston</text><text text-anchor="start" transform="translate(18,23)" style="font: 10px sans-serif; fill: #000; opacity: 1;">Duluth</text><text text-anchor="start" transform="translate(18,38)" style="font: 10px sans-serif; fill: #000; opacity: 1;">Grand Rapids</text><text text-anchor="start" transform="translate(18,53)" style="font: 10px sans-serif; fill: #000; opacity: 1;">Morris</text><text text-anchor="start" transform="translate(18,68)" style="font: 10px sans-serif; fill: #000; opacity: 1;">University Farm</text><text text-anchor="start" transform="translate(18,83)" style="font: 10px sans-serif; fill: #000; opacity: 1;">Waseca</text></g></g></g></g><g class="mark-text role-legend-title" style="pointer-events: none;"><text text-anchor="start" transform="translate(0,10)" style="font: bold 11px sans-serif; fill: #000; opacity: 1;">site</text></g></g></g></g></g></g></g></g></svg>