<svg class="marks" width="920" height="297" viewBox="0 0 920 297" version="1.1" xmlns="http://www.w3.org/2000/svg" xmlns:xlink="http://www.w3.org/1999/xlink"><defs><clipPath id="clip1"><rect x="0" y="0" width="200" height="200"></rect></clipPath><clipPath id="clip2"><rect x="0" y="0" width="200" height="200"></rect></clipPath><clipPath id="clip3"><rect x="0" y="0" width="200" height="200"></rect></clipPath><clipPath id="clip4"><rect x="0" y="0" width="200" height="200"></rect></clipPath><clipPath id="clip5"><rect x="0" y="0" width="200" height="200"></rect></clipPath><clipPath id="clip6"><rect x="0" y="0" width="200" height="200"></rect></clipPath><clipPath id="clip7"><rect x="0" y="0" width="200" height="200"></rect></clipPath><clipPath id="clip8"><rect x="0" y="0" width="200" height="200"></rect></clipPath><clipPath id="clip9"><rect x="0" y="0" width="200" height="200"></rect></clipPath><clipPath id="clip10"><rect x="0" y="0" width="200" height="200"></rect></clipPath><clipPath id="clip11"><rect x="0" y="0" width="200" height="200"></rect></clipPath><clipPath id="clip12"><rect x="0" y="0" width="200" height="200"></rect></clipPath></defs><g transform="translate(41,58)"><g class="mark-group role-frame root"><g transform="translate(0,0)"><path class="background" d="M0,0h0v0h0Z" style="fill: none;"></path><g><g class="mark-group role-column-title column-title"><g transform="translate(436,-32)"><path class="background" d="M0,0h0v0h0Z" style="fill: none;"></path><g><g class="mark-text role-title" style="pointer-events: none;"><text text-anchor="middle" transform="translate(0,-12)" style="font-family: sans-serif; font-size: 11px; font-weight: bold; fill: #000; opacity: 1;">Series</text></g></g></g></g><g class="mark-group role-row-header row_header"><g transform="translate(-2,0)"><path class="background" d="M0,0h0v200h0Z" style="fill: none;"></path><g><g class="mark-group role-axis"><g transform="translate(0.5,0.5)"><path class="background" d="M0,0h0v0h0Z" style="pointer-events: none; fill: none;"></path><g><g class="mark-rule role-axis-tick" style="pointer-events: none;"><line transform="translate(0,180)" x2="-5" y2="0" style="fill: none; stroke: #888; stroke-width: 1; opacity: 1;"></line><line transform="translate(0,140)" x2="-5" y2="0" style="fill: none; stroke: #888; stroke-width: 1; opacity: 1;"></line><line transform="translate(0,100)" x2="-5" y2="0" style="fill: none; stroke: #888; stroke-width: 1; opacity: 1;"></line><line transform="translate(0,60)" x2="-5" y2="0" style="fill: none; stroke: #888; stroke-width: 1; opacity: 1;"></line><line transform="translate(0,20)" x2="-5" y2="0" style="fill: none; stroke: #888; stroke-width: 1; opacity: 1;"></line></g><g class="mark-text role-axis-label" style="pointer-events: none;"><text text-anchor="end" transform="translate(-7,183)" style="font-family: sans-serif; font-size: 10px; fill: #000; opacity: 1;">4</text><text text-anchor="end" transform="translate(-7,143)" style="font-family: sans-serif; font-size: 10px; fill: #000; opacity: 1;">6</text><text text-anchor="end" transform="translate(-7,103)" style="font-family: sans-serif; font-size: 10px; fill: #000; opacity: 1;">8</text><text text-anchor="end" transform="translate(-7,63)" style="font-family: sans-serif; font-size: 10px; fill: #000; opacity: 1;">10</text><text text-anchor="end" transform="translate(-7,23)" style="font-family: sans-serif; font-size: 10px; fill: #000; opacity: 1;">12</text></g><g class="mark-rule role-axis-domain" style="pointer-events: none;"><line transform="translate(0,200)" x2="0" y2="-200" style="fill: none; stroke: #888; stroke-width: 1; opacity: 1;"></line></g><g class="mark-text role-axis-title" style="pointer-events: none;"><text text-anchor="middle" transform="translate(-23,100) rotate(-90) translate(0,-2)" style="font-family: sans-serif; font-size: 11px; font-weight: bold; fill: #000; opacity: 1;">Y</text></g></g></g></g></g></g></g><g class="mark-group role-column-header column_header"><g transform="translate(0,-2)"><path class="background" d="M0,0h200v0h-200Z" style="fill: none;"></path><g><g class="mark-text role-title" style="pointer-events: none;"><text text-anchor="middle" transform="translate(100,-12)" style="font-family: sans-serif; font-size: 10px; fill: #000; opacity: 1;">I</text></g></g></g><g transform="translate(224,-2)"><path class="background" d="M0,0h200v0h-200Z" style="fill: none;"></path><g><g class="mark-text role-title" style="pointer-events: none;"><text text-anchor="middle" transform="translate(100,-12)" style="font-family: sans-serif; font-size: 10px; fill: #000; opacity: 1;">II</text></g></g></g><g transform="translate(448,-2)"><path class="background" d="M0,0h200v0h-200Z" style="fill: none;"></path><g><g class="mark-text role-title" style="pointer-events: none;"><text text-anchor="middle" transform="translate(100,-12)" style="font-family: sans-serif; font-size: 10px; fill: #000; opacity: 1;">III</text></g></g></g><g transform="translate(672,-2)"><path class="background" d="M0,0h200v0h-200Z" style="fill: none;"></path><g><g class="mark-text role-title" style="pointer-events: none;"><text text-anchor="middle" transform="translate(100,-12)" style="font-family: sans-serif; font-size: 10px; fill: #000; opacity: 1;">IV</text></g></g></g></g><g class="mark-group role-column-footer column_footer"><g transform="translate(0,202)"><path class="background" d="M0,0h200v0h-200Z" style="fill: none;"></path><g><g class="mark-group role-axis"><g transform="translate(0.5,0.5)"><path class="background" d="M0,0h0v0h0Z" style="pointer-events: none; fill: none;"></path><g><g class="mark-rule role-axis-tick" style="pointer-events: none;"><line transform="translate(13,0)" x2="0" y2="5" style="fill: none; stroke: #888; stroke-width: 1; opacity: 1;"></line><line transform="translate(75,0)" x2="0" y2="5" style="fill: none; stroke: #888; stroke-width: 1; opacity: 1;"></line><line transform="translate(138,0)" x2="0" y2="5" style="fill: none; stroke: #888; stroke-width: 1; opacity: 1;"></line><line transform="translate(200,0)" x2="0" y2="5" style="fill: none; stroke: #888; stroke-width: 1; opacity: 1;"></line></g><g class="mark-text role-axis-label" style="pointer-events: none;"><text text-anchor="middle" transform="translate(12.5,15)" style="font-family: sans-serif; font-size: 10px; fill: #000; opacity: 1;">5</text><text text-anchor="middle" transform="translate(75,15)" style="font-family: sans-serif; font-size: 10px; fill: #000; opacity: 1;">10</text><text text-anchor="middle" transform="translate(137.5,15)" style="font-family: sans-serif; font-size: 10px; fill: #000; opacity: 1;">15</text><text text-anchor="end" transform="translate(200,15)" style="font-family: sans-serif; font-size: 10px; fill: #000; opacity: 1;">20</text></g><g class="mark-rule role-axis-domain" style="pointer-events: none;"><line transform="translate(0,0)" x2="200" y2="0" style="fill: none; stroke: #888; stroke-width: 1; opacity: 1;"></line></g><g class="mark-text role-axis-title" style="pointer-events: none;"><text text-anchor="middle" transform="translate(100,30)" style="font-family: sans-serif; font-size: 11px; font-weight: bold; fill: #000; opacity: 1;">X</text></g></g></g></g></g></g><g transform="translate(224,202)"><path class="background" d="M0,0h200v0h-200Z" style="fill: none;"></path><g><g class="mark-group role-axis"><g transform="translate(0.5,0.5)"><path class="background" d="M0,0h0v0h0Z" style="pointer-events: none; fill: none;"></path><g><g class="mark-rule role-axis-tick" style="pointer-events: none;"><line transform="translate(13,0)" x2="0" y2="5" style="fill: none; stroke: #888; stroke-width: 1; opacity: 1;"></line><line transform="translate(75,0)" x2="0" y2="5" style="fill: none; stroke: #888; stroke-width: 1; opacity: 1;"></line><line transform="translate(138,0)" x2="0" y2="5" style="fill: none; stroke: #888; stroke-width: 1; opacity: 1;"></line><line transform="translate(200,0)" x2="0" y2="5" style="fill: none; stroke: #888; stroke-width: 1; opacity: 1;"></line></g><g class="mark-text role-axis-label" style="pointer-events: none;"><text text-anchor="middle" transform="translate(12.5,15)" style="font-family: sans-serif; font-size: 10px; fill: #000; opacity: 1;">5</text><text text-anchor="middle" transform="translate(75,15)" style="font-family: sans-serif; font-size: 10px; fill: #000; opacity: 1;">10</text><text text-anchor="middle" transform="translate(137.5,15)" style="font-family: sans-serif; font-size: 10px; fill: #000; opacity: 1;">15</text><text text-anchor="end" transform="translate(200,15)" style="font-family: sans-serif; font-size: 10px; fill: #000; opacity: 1;">20</text></g><g class="mark-rule role-axis-domain" style="pointer-events: none;"><line transform="translate(0,0)" x2="200" y2="0" style="fill: none; stroke: #888; stroke-width: 1; opacity: 1;"></line></g><g class="mark-text role-axis-title" style="pointer-events: none;"><text text-anchor="middle" transform="translate(100,30)" style="font-family: sans-serif; font-size: 11px; font-weight: bold; fill: #000; opacity: 1;">X</text></g></g></g></g></g></g><g transform="translate(448,202)"><path class="background" d="M0,0h200v0h-200Z" style="fill: none;"></path><g><g class="mark-group role-axis"><g transform="translate(0.5,0.5)"><path class="background" d="M0,0h0v0h0Z" style="pointer-events: none; fill: none;"></path><g><g class="mark-rule role-axis-tick" style="pointer-events: none;"><line transform="translate(13,0)" x2="0" y2="5" style="fill: none; stroke: #888; stroke-width: 1; opacity: 1;"></line><line transform="translate(75,0)" x2="0" y2="5" style="fill: none; stroke: #888; stroke-width: 1; opacity: 1;"></line><line transform="translate(138,0)" x2="0" y2="5" style="fill: none; stroke: #888; stroke-width: 1; opacity: 1;"></line><line transform="translate(200,0)" x2="0" y2="5" style="fill: none; stroke: #888; stroke-width: 1; opacity: 1;"></line></g><g class="mark-text role-axis-label" style="pointer-events: none;"><text text-anchor="middle" transform="translate(12.5,15)" style="font-family: sans-serif; font-size: 10px; fill: #000; opacity: 1;">5</text><text text-anchor="middle" transform="translate(75,15)" style="font-family: sans-serif; font-size: 10px; fill: #000; opacity: 1;">10</text><text text-anchor="middle" transform="translate(137.5,15)" style="font-family: sans-serif; font-size: 10px; fill: #000; opacity: 1;">15</text><text text-anchor="end" transform="translate(200,15)" style="font-family: sans-serif; font-size: 10px; fill: #000; opacity: 1;">20</text></g><g class="mark-rule role-axis-domain" style="pointer-events: none;"><line transform="translate(0,0)" x2="200" y2="0" style="fill: none; stroke: #888; stroke-width: 1; opacity: 1;"></line></g><g class="mark-text role-axis-title" style="pointer-events: none;"><text text-anchor="middle" transform="translate(100,30)" style="font-family: sans-serif; font-size: 11px; font-weight: bold; fill: #000; opacity: 1;">X</text></g></g></g></g></g></g><g transform="translate(672,202)"><path class="background" d="M0,0h200v0h-200Z" style="fill: none;"></path><g><g class="mark-group role-axis"><g transform="translate(0.5,0.5)"><path class="background" d="M0,0h0v0h0Z" style="pointer-events: none; fill: none;"></path><g><g class="mark-rule role-axis-tick" style="pointer-events: none;"><line transform="translate(13,0)" x2="0" y2="5" style="fill: none; stroke: #888; stroke-width: 1; opacity: 1;"></line><line transform="translate(75,0)" x2="0" y2="5" style="fill: none; stroke: #888; stroke-width: 1; opacity: 1;"></line><line transform="translate(138,0)" x2="0" y2="5" style="fill: none; stroke: #888; stroke-width: 1; opacity: 1;"></line><line transform="translate(200,0)" x2="0" y2="5" style="fill: none; stroke: #888; stroke-width: 1; opacity: 1;"></line></g><g class="mark-text role-axis-label" style="pointer-events: none;"><text text-anchor="middle" transform="translate(12.5,15)" style="font-family: sans-serif; font-size: 10px; fill: #000; opacity: 1;">5</text><text text-anchor="middle" transform="translate(75,15)" style="font-family: sans-serif; font-size: 10px; fill: #000; opacity: 1;">10</text><text text-anchor="middle" transform="translate(137.5,15)" style="font-family: sans-serif; font-size: 10px; fill: #000; opacity: 1;">15</text><text text-anchor="end" transform="translate(200,15)" style="font-family: sans-serif; font-size: 10px; fill: #000; opacity: 1;">20</text></g><g class="mark-rule role-axis-domain" style="pointer-events: none;"><line transform="translate(0,0)" x2="200" y2="0" style="fill: none; stroke: #888; stroke-width: 1; opacity: 1;"></line></g><g class="mark-text role-axis-title" style="pointer-events: none;"><text text-anchor="middle" transform="translate(100,30)" style="font-family: sans-serif; font-size: 11px; font-weight: bold; fill: #000; opacity: 1;">X</text></g></g></g></g></g></g></g><g class="mark-group role-scope cell"><g transform="translate(0,0)"><path class="background" d="M0.5,0.5h200v200h-200Z" style="fill: none; stroke: #ddd;"></path><g><g class="mark-group role-axis"><g transform="translate(0.5,200.5)"><path class="background" d="M0,0h0v0h0Z" style="pointer-events: none; fill: none;"></path><g><g class="mark-rule role-axis-grid" style="pointer-events: none;"><line transform="translate(13,-200)" x2="0" y2="200" style="fill: none; stroke: #ddd; stroke-width: 1; opacity: 1;"></line><line transform="translate(75,-200)" x2="0" y2="200" style="fill: none; stroke: #ddd; stroke-width: 1; opacity: 1;"></line><line transform="translate(138,-200)" x2="0" y2="200" style="fill: none; stroke: #ddd; stroke-width: 1; opacity: 1;"></line><line transform="translate(200,-200)" x2="0" y2="200" style="fill: none; stroke: #ddd; stroke-width: 1; opacity: 1;"></line></g></g></g></g><g class="mark-group role-axis"><g transform="translate(0.5,0.5)"><path class="background" d="M0,0h0v0h0Z" style="pointer-events: none; fill: none;"></path><g><g class="mark-rule role-axis-grid" style="pointer-events: none;"><line transform="translate(0,180)" x2="200" y2="0" style="fill: none; stroke: #ddd; stroke-width: 1; opacity: 1;"></line><line transform="translate(0,140)" x2="200" y2="0" style="fill: none; stroke: #ddd; stroke-width: 1; opacity: 1;"></line><line transform="translate(0,100)" x2="200" y2="0" style="fill: none; stroke: #ddd; stroke-width: 1; opacity: 1;"></line><line transform="translate(0,60)" x2="200" y2="0" style="fill: none; stroke: #ddd; stroke-width: 1; opacity: 1;"></line><line transform="translate(0,20)" x2="200" y2="0" style="fill: none; stroke: #ddd; stroke-width: 1; opacity: 1;"></line></g></g></g></g><g class="mark-rect role-mark brush_brush_bg" clip-path="url(#clip1)"><path d="M0,0h0v200h0Z" style="fill: #333; fill-opacity: 0.125;"></path></g><g class="mark-symbol role-mark child_marks" clip-path="url(#clip2)"><path transform="translate(75,99.20000000000002)" d="M7.905694150420948,0A7.905694150420948,7.905694150420948,0,1,1,-7.905694150420948,0A7.905694150420948,7.905694150420948,0,1,1,7.905694150420948,0" style="fill: red; stroke-width: 2; opacity: 1;"></path><path transform="translate(50,121)" d="M7.905694150420948,0A7.905694150420948,7.905694150420948,0,1,1,-7.905694150420948,0A7.905694150420948,7.905694150420948,0,1,1,7.905694150420948,0" style="fill: red; stroke-width: 2; opacity: 1;"></path><path transform="translate(112.5,108.39999999999999)" d="M7.905694150420948,0A7.905694150420948,7.905694150420948,0,1,1,-7.905694150420948,0A7.905694150420948,7.905694150420948,0,1,1,7.905694150420948,0" style="fill: red; stroke-width: 2; opacity: 1;"></path><path transform="translate(62.5,83.79999999999998)" d="M7.905694150420948,0A7.905694150420948,7.905694150420948,0,1,1,-7.905694150420948,0A7.905694150420948,7.905694150420948,0,1,1,7.905694150420948,0" style="fill: red; stroke-width: 2; opacity: 1;"></path><path transform="translate(87.5,93.39999999999999)" d="M7.905694150420948,0A7.905694150420948,7.905694150420948,0,1,1,-7.905694150420948,0A7.905694150420948,7.905694150420948,0,1,1,7.905694150420948,0" style="fill: red; stroke-width: 2; opacity: 1;"></path><path transform="translate(125,60.79999999999998)" d="M7.905694150420948,0A7.905694150420948,7.905694150420948,0,1,1,-7.905694150420948,0A7.905694150420948,7.905694150420948,0,1,1,7.905694150420948,0" style="fill: red; stroke-width: 2; opacity: 1;"></path><path transform="translate(25,115.19999999999999)" d="M7.905694150420948,0A7.905694150420948,7.905694150420948,0,1,1,-7.905694150420948,0A7.905694150420948,7.905694150420948,0,1,1,7.905694150420948,0" style="fill: red; stroke-width: 2; opacity: 1;"></path><path transform="translate(0,174.8)" d="M7.905694150420948,0A7.905694150420948,7.905694150420948,0,1,1,-7.905694150420948,0A7.905694150420948,7.905694150420948,0,1,1,7.905694150420948,0" style="fill: red; stroke-width: 2; opacity: 1;"></path><path transform="translate(100,43.19999999999999)" d="M7.905694150420948,0A7.905694150420948,7.905694150420948,0,1,1,-7.905694150420948,0A7.905694150420948,7.905694150420948,0,1,1,7.905694150420948,0" style="fill: red; stroke-width: 2; opacity: 1;"></path><path transform="translate(37.5,163.8)" d="M7.905694150420948,0A7.905694150420948,7.905694150420948,0,1,1,-7.905694150420948,0A7.905694150420948,7.905694150420948,0,1,1,7.905694150420948,0" style="fill: red; stroke-width: 2; opacity: 1;"></path><path transform="translate(12.5,146.4)" d="M7.905694150420948,0A7.905694150420948,7.905694150420948,0,1,1,-7.905694150420948,0A7.905694150420948,7.905694150420948,0,1,1,7.905694150420948,0" style="fill: red; stroke-width: 2; opacity: 1;"></path></g><g class="mark-path role-mark child_voronoi"><path transform="translate(0,0)" d="M76.21231698113206,85.44292452830192L90.63030075187972,116.51616541353378L85.68219284009548,136.6850835322196L55.5931300380228,102.17927756653991Z" style="fill: none; stroke: none; stroke-width: 0.35;"></path><path transform="translate(0,0)" d="M55.5931300380228,102.17927756653991L85.68219284009548,136.6850835322196L89.52976405163852,155.77025819265145L35.513451650485436,139.99446601941747L33.20959882697946,136.59310850439883L42.23496957605986,97.69064837905236Z" style="fill: none; stroke: none; stroke-width: 0.35;"></path><path transform="translate(0,0)" d="M200,200L122.20079999999999,200L89.52976405163852,155.77025819265145L85.68219284009548,136.6850835322196L90.63030075187972,116.51616541353378L111.00096188747732,82.56506352087113L200,105.93665966386553Z" style="fill: none; stroke: none; stroke-width: 0.35;"></path><path transform="translate(0,0)" d="M76.21231698113206,85.44292452830192L55.5931300380228,102.17927756653991L42.23496957605986,97.69064837905236L0,47.250796178343954L0,0L12.500666666666689,0L83.75125527272728,65.81027272727272Z" style="fill: none; stroke: none; stroke-width: 0.35;"></path><path transform="translate(0,0)" d="M76.21231698113206,85.44292452830192L83.75125527272728,65.81027272727272L99.93974508474577,69.84127118644066L111.00096188747732,82.56506352087113L90.63030075187972,116.51616541353378Z" style="fill: none; stroke: none; stroke-width: 0.35;"></path><path transform="translate(0,0)" d="M200,0L200,105.93665966386553L111.00096188747732,82.56506352087113L99.93974508474577,69.84127118644066L149.10799999999998,0Z" style="fill: none; stroke: none; stroke-width: 0.35;"></path><path transform="translate(0,0)" d="M0,47.250796178343954L42.23496957605986,97.69064837905236L33.20959882697946,136.59310850439883L0,123.28798076923078Z" style="fill: none; stroke: none; stroke-width: 0.35;"></path><path transform="translate(0,0)" d="M0,200L0,186.86336905294735L0,157.84911971830988L17.67277088948787,165.62762803234503L27.75533333333333,200Z" style="fill: none; stroke: none; stroke-width: 0.35;"></path><path transform="translate(0,0)" d="M149.10799999999998,0L99.93974508474577,69.84127118644066L83.75125527272728,65.81027272727272L12.500666666666689,0Z" style="fill: none; stroke: none; stroke-width: 0.35;"></path><path transform="translate(0,0)" d="M27.75533333333333,200L17.67277088948787,165.62762803234503L35.513451650485436,139.99446601941747L89.52976405163852,155.77025819265145L122.20079999999999,200Z" style="fill: none; stroke: none; stroke-width: 0.35;"></path><path transform="translate(0,0)" d="M35.513451650485436,139.99446601941747L17.67277088948787,165.62762803234503L0,157.84911971830988L0,123.28798076923078L33.20959882697946,136.59310850439883Z" style="fill: none; stroke: none; stroke-width: 0.35;"></path></g><g class="mark-rect role-mark brush_brush" clip-path="url(#clip3)"><path d="M0,0h0v200h0Z" style="fill: none;"></path></g></g></g><g transform="translate(224,0)"><path class="background" d="M0.5,0.5h200v200h-200Z" style="fill: none; stroke: #ddd;"></path><g><g class="mark-group role-axis"><g transform="translate(0.5,200.5)"><path class="background" d="M0,0h0v0h0Z" style="pointer-events: none; fill: none;"></path><g><g class="mark-rule role-axis-grid" style="pointer-events: none;"><line transform="translate(13,-200)" x2="0" y2="200" style="fill: none; stroke: #ddd; stroke-width: 1; opacity: 1;"></line><line transform="translate(75,-200)" x2="0" y2="200" style="fill: none; stroke: #ddd; stroke-width: 1; opacity: 1;"></line><line transform="translate(138,-200)" x2="0" y2="200" style="fill: none; stroke: #ddd; stroke-width: 1; opacity: 1;"></line><line transform="translate(200,-200)" x2="0" y2="200" style="fill: none; stroke: #ddd; stroke-width: 1; opacity: 1;"></line></g></g></g></g><g class="mark-group role-axis"><g transform="translate(0.5,0.5)"><path class="background" d="M0,0h0v0h0Z" style="pointer-events: none; fill: none;"></path><g><g class="mark-rule role-axis-grid" style="pointer-events: none;"><line transform="translate(0,180)" x2="200" y2="0" style="fill: none; stroke: #ddd; stroke-width: 1; opacity: 1;"></line><line transform="translate(0,140)" x2="200" y2="0" style="fill: none; stroke: #ddd; stroke-width: 1; opacity: 1;"></line><line transform="translate(0,100)" x2="200" y2="0" style="fill: none; stroke: #ddd; stroke-width: 1; opacity: 1;"></line><line transform="translate(0,60)" x2="200" y2="0" style="fill: none; stroke: #ddd; stroke-width: 1; opacity: 1;"></line><line transform="translate(0,20)" x2="200" y2="0" style="fill: none; stroke: #ddd; stroke-width: 1; opacity: 1;"></line></g></g></g></g><g class="mark-rect role-mark brush_brush_bg" clip-path="url(#clip4)"><path d="M0,0h0v200h0Z" style="fill: #333; fill-opacity: 0.125;"></path></g><g class="mark-symbol role-mark child_marks" clip-path="url(#clip5)"><path transform="translate(75,77.19999999999997)" d="M7.905694150420948,0A7.905694150420948,7.905694150420948,0,1,1,-7.905694150420948,0A7.905694150420948,7.905694150420948,0,1,1,7.905694150420948,0" style="fill: red; stroke-width: 2; opacity: 1;"></path><path transform="translate(50,97.2)" d="M7.905694150420948,0A7.905694150420948,7.905694150420948,0,1,1,-7.905694150420948,0A7.905694150420948,7.905694150420948,0,1,1,7.905694150420948,0" style="fill: red; stroke-width: 2; opacity: 1;"></path><path transform="translate(112.5,85.19999999999999)" d="M7.905694150420948,0A7.905694150420948,7.905694150420948,0,1,1,-7.905694150420948,0A7.905694150420948,7.905694150420948,0,1,1,7.905694150420948,0" style="fill: red; stroke-width: 2; opacity: 1;"></path><path transform="translate(62.5,84.60000000000001)" d="M7.905694150420948,0A7.905694150420948,7.905694150420948,0,1,1,-7.905694150420948,0A7.905694150420948,7.905694150420948,0,1,1,7.905694150420948,0" style="fill: red; stroke-width: 2; opacity: 1;"></path><path transform="translate(87.5,74.8)" d="M7.905694150420948,0A7.905694150420948,7.905694150420948,0,1,1,-7.905694150420948,0A7.905694150420948,7.905694150420948,0,1,1,7.905694150420948,0" style="fill: red; stroke-width: 2; opacity: 1;"></path><path transform="translate(125,98)" d="M7.905694150420948,0A7.905694150420948,7.905694150420948,0,1,1,-7.905694150420948,0A7.905694150420948,7.905694150420948,0,1,1,7.905694150420948,0" style="fill: red; stroke-width: 2; opacity: 1;"></path><path transform="translate(25,137.4)" d="M7.905694150420948,0A7.905694150420948,7.905694150420948,0,1,1,-7.905694150420948,0A7.905694150420948,7.905694150420948,0,1,1,7.905694150420948,0" style="fill: red; stroke-width: 2; opacity: 1;"></path><path transform="translate(0,198)" d="M7.905694150420948,0A7.905694150420948,7.905694150420948,0,1,1,-7.905694150420948,0A7.905694150420948,7.905694150420948,0,1,1,7.905694150420948,0" style="fill: red; stroke-width: 2; opacity: 1;"></path><path transform="translate(100,77.39999999999998)" d="M7.905694150420948,0A7.905694150420948,7.905694150420948,0,1,1,-7.905694150420948,0A7.905694150420948,7.905694150420948,0,1,1,7.905694150420948,0" style="fill: red; stroke-width: 2; opacity: 1;"></path><path transform="translate(37.5,114.8)" d="M7.905694150420948,0A7.905694150420948,7.905694150420948,0,1,1,-7.905694150420948,0A7.905694150420948,7.905694150420948,0,1,1,7.905694150420948,0" style="fill: red; stroke-width: 2; opacity: 1;"></path><path transform="translate(12.5,165.2)" d="M7.905694150420948,0A7.905694150420948,7.905694150420948,0,1,1,-7.905694150420948,0A7.905694150420948,7.905694150420948,0,1,1,7.905694150420948,0" style="fill: red; stroke-width: 2; opacity: 1;"></path></g><g class="mark-path role-mark child_voronoi"><path transform="translate(0,0)" d="M66.65800000000016,0L87.259984,107.30200000000025L87.22407792207792,111.79025974025967L87.17452980132451,112.02251655629127L20.857199999999764,0Z" style="fill: none; stroke: none; stroke-width: 0.35;"></path><path transform="translate(0,0)" d="M0,35.09642857142856L87.06120000000001,121.46666666666671L87.23572631578948,122.3756578947368L87.08212631578948,136.77565789473687L0,74.92755681818181Z" style="fill: none; stroke: none; stroke-width: 0.35;"></path><path transform="translate(0,0)" d="M200,0L200,12.25429687500008L87.23572631578948,122.3756578947368L87.06120000000001,121.46666666666671L87.17452980132451,112.02251655629127L87.22407792207792,111.79025974025967L156.98120000000006,0Z" style="fill: none; stroke: none; stroke-width: 0.35;"></path><path transform="translate(0,0)" d="M0,0L20.857199999999764,0L87.17452980132451,112.02251655629127L87.06120000000001,121.46666666666671L0,35.09642857142856Z" style="fill: none; stroke: none; stroke-width: 0.35;"></path><path transform="translate(0,0)" d="M109.57879999999989,0L87.259984,107.30200000000025L66.65800000000016,0Z" style="fill: none; stroke: none; stroke-width: 0.35;"></path><path transform="translate(0,0)" d="M200,200L135.2175955700213,200L109.6076,200L103.1992904918033,189.27180327868854L91.42238811881188,159.38118811881188L87.08212631578948,136.77565789473687L87.23572631578948,122.3756578947368L200,12.25429687500008Z" style="fill: none; stroke: none; stroke-width: 0.35;"></path><path transform="translate(0,0)" d="M0,108.81570796460178L91.42238811881188,159.38118811881188L103.1992904918033,189.27180327868854L0,142.86924460431652Z" style="fill: none; stroke: none; stroke-width: 0.35;"></path><path transform="translate(0,0)" d="M54.53160000000008,200L0,200L0,179.2181402439024Z" style="fill: none; stroke: none; stroke-width: 0.35;"></path><path transform="translate(0,0)" d="M156.98120000000006,0L87.22407792207792,111.79025974025967L87.259984,107.30200000000025L109.57879999999989,0Z" style="fill: none; stroke: none; stroke-width: 0.35;"></path><path transform="translate(0,0)" d="M0,74.92755681818181L87.08212631578948,136.77565789473687L91.42238811881188,159.38118811881188L0,108.81570796460178Z" style="fill: none; stroke: none; stroke-width: 0.35;"></path><path transform="translate(0,0)" d="M0,142.86924460431652L103.1992904918033,189.27180327868854L109.6076,200L54.53160000000008,200L0,179.2181402439024Z" style="fill: none; stroke: none; stroke-width: 0.35;"></path></g><g class="mark-rect role-mark brush_brush" clip-path="url(#clip6)"><path d="M0,0h0v200h0Z" style="fill: none;"></path></g></g></g><g transform="translate(448,0)"><path class="background" d="M0.5,0.5h200v200h-200Z" style="fill: none; stroke: #ddd;"></path><g><g class="mark-group role-axis"><g transform="translate(0.5,200.5)"><path class="background" d="M0,0h0v0h0Z" style="pointer-events: none; fill: none;"></path><g><g class="mark-rule role-axis-grid" style="pointer-events: none;"><line transform="translate(13,-200)" x2="0" y2="200" style="fill: none; stroke: #ddd; stroke-width: 1; opacity: 1;"></line><line transform="translate(75,-200)" x2="0" y2="200" style="fill: none; stroke: #ddd; stroke-width: 1; opacity: 1;"></line><line transform="translate(138,-200)" x2="0" y2="200" style="fill: none; stroke: #ddd; stroke-width: 1; opacity: 1;"></line><line transform="translate(200,-200)" x2="0" y2="200" style="fill: none; stroke: #ddd; stroke-width: 1; opacity: 1;"></line></g></g></g></g><g class="mark-group role-axis"><g transform="translate(0.5,0.5)"><path class="background" d="M0,0h0v0h0Z" style="pointer-events: none; fill: none;"></path><g><g class="mark-rule role-axis-grid" style="pointer-events: none;"><line transform="translate(0,180)" x2="200" y2="0" style="fill: none; stroke: #ddd; stroke-width: 1; opacity: 1;"></line><line transform="translate(0,140)" x2="200" y2="0" style="fill: none; stroke: #ddd; stroke-width: 1; opacity: 1;"></line><line transform="translate(0,100)" x2="200" y2="0" style="fill: none; stroke: #ddd; stroke-width: 1; opacity: 1;"></line><line transform="translate(0,60)" x2="200" y2="0" style="fill: none; stroke: #ddd; stroke-width: 1; opacity: 1;"></line><line transform="translate(0,20)" x2="200" y2="0" style="fill: none; stroke: #ddd; stroke-width: 1; opacity: 1;"></line></g></g></g></g><g class="mark-rect role-mark brush_brush_bg" clip-path="url(#clip7)"><path d="M0,0h0v200h0Z" style="fill: #333; fill-opacity: 0.125;"></path></g><g class="mark-symbol role-mark child_marks" clip-path="url(#clip8)"><path transform="translate(75,110.8)" d="M7.905694150420948,0A7.905694150420948,7.905694150420948,0,1,1,-7.905694150420948,0A7.905694150420948,7.905694150420948,0,1,1,7.905694150420948,0" style="fill: red; stroke-width: 2; opacity: 1;"></path><path transform="translate(50,124.60000000000001)" d="M7.905694150420948,0A7.905694150420948,7.905694150420948,0,1,1,-7.905694150420948,0A7.905694150420948,7.905694150420948,0,1,1,7.905694150420948,0" style="fill: red; stroke-width: 2; opacity: 1;"></path><path transform="translate(112.5,5.200000000000017)" d="M7.905694150420948,0A7.905694150420948,7.905694150420948,0,1,1,-7.905694150420948,0A7.905694150420948,7.905694150420948,0,1,1,7.905694150420948,0" style="fill: red; stroke-width: 2; opacity: 1;"></path><path transform="translate(62.5,117.8)" d="M7.905694150420948,0A7.905694150420948,7.905694150420948,0,1,1,-7.905694150420948,0A7.905694150420948,7.905694150420948,0,1,1,7.905694150420948,0" style="fill: red; stroke-width: 2; opacity: 1;"></path><path transform="translate(87.5,103.8)" d="M7.905694150420948,0A7.905694150420948,7.905694150420948,0,1,1,-7.905694150420948,0A7.905694150420948,7.905694150420948,0,1,1,7.905694150420948,0" style="fill: red; stroke-width: 2; opacity: 1;"></path><path transform="translate(125,83.2)" d="M7.905694150420948,0A7.905694150420948,7.905694150420948,0,1,1,-7.905694150420948,0A7.905694150420948,7.905694150420948,0,1,1,7.905694150420948,0" style="fill: red; stroke-width: 2; opacity: 1;"></path><path transform="translate(25,138.4)" d="M7.905694150420948,0A7.905694150420948,7.905694150420948,0,1,1,-7.905694150420948,0A7.905694150420948,7.905694150420948,0,1,1,7.905694150420948,0" style="fill: red; stroke-width: 2; opacity: 1;"></path><path transform="translate(0,152.20000000000002)" d="M7.905694150420948,0A7.905694150420948,7.905694150420948,0,1,1,-7.905694150420948,0A7.905694150420948,7.905694150420948,0,1,1,7.905694150420948,0" style="fill: red; stroke-width: 2; opacity: 1;"></path><path transform="translate(100,97)" d="M7.905694150420948,0A7.905694150420948,7.905694150420948,0,1,1,-7.905694150420948,0A7.905694150420948,7.905694150420948,0,1,1,7.905694150420948,0" style="fill: red; stroke-width: 2; opacity: 1;"></path><path transform="translate(37.5,131.60000000000002)" d="M7.905694150420948,0A7.905694150420948,7.905694150420948,0,1,1,-7.905694150420948,0A7.905694150420948,7.905694150420948,0,1,1,7.905694150420948,0" style="fill: red; stroke-width: 2; opacity: 1;"></path><path transform="translate(12.5,145.4)" d="M7.905694150420948,0A7.905694150420948,7.905694150420948,0,1,1,-7.905694150420948,0A7.905694150420948,7.905694150420948,0,1,1,7.905694150420948,0" style="fill: red; stroke-width: 2; opacity: 1;"></path></g><g class="mark-path role-mark child_voronoi"><path transform="translate(0,0)" d="M116.74199999999996,200L23.19022695035462,32.94326241134753L43.686113475177315,40.22163120567377L133.162,200Z" style="fill: none; stroke: none; stroke-width: 0.35;"></path><path transform="translate(0,0)" d="M0,22.36963986599667L3.47613957845401,24.189227166276215L99.11719999999994,200L84.01400000000032,200L0,49.97499999999967Z" style="fill: none; stroke: none; stroke-width: 0.35;"></path><path transform="translate(0,0)" d="M64.9317623561488,0L200,0L200,31.179166666666678L89.73032508833923,48.85058892815078L63.785264000000026,45.31776470588236L43.686113475177315,40.22163120567377L23.19022695035462,32.94326241134753L3.47613957845401,24.189227166276215L0,22.36963986599667L0,0Z" style="fill: none; stroke: none; stroke-width: 0.35;"></path><path transform="translate(0,0)" d="M99.11719999999994,200L3.47613957845401,24.189227166276215L23.19022695035462,32.94326241134753L116.74199999999996,200Z" style="fill: none; stroke: none; stroke-width: 0.35;"></path><path transform="translate(0,0)" d="M133.162,200L43.686113475177315,40.22163120567377L63.785264000000026,45.31776470588236L147.93240000000003,200Z" style="fill: none; stroke: none; stroke-width: 0.35;"></path><path transform="translate(0,0)" d="M200,31.179166666666678L200,200L173.16479999999999,200L89.73032508833923,48.85058892815078Z" style="fill: none; stroke: none; stroke-width: 0.35;"></path><path transform="translate(0,0)" d="M0,77.55514705882399L66.60999999999967,200L51.28599999999991,200L0,108.41785714285733Z" style="fill: none; stroke: none; stroke-width: 0.35;"></path><path transform="translate(0,0)" d="M0,137.31102941176476L34.10280000000003,200L0,200Z" style="fill: none; stroke: none; stroke-width: 0.35;"></path><path transform="translate(0,0)" d="M147.93240000000003,200L63.785264000000026,45.31776470588236L89.73032508833923,48.85058892815078L173.16479999999999,200Z" style="fill: none; stroke: none; stroke-width: 0.35;"></path><path transform="translate(0,0)" d="M66.6099999999996,200L0,77.55514705882405L0,49.974999999999596L84.01400000000046,200Z" style="fill: none; stroke: none; stroke-width: 0.35;"></path><path transform="translate(0,0)" d="M34.10280000000003,200L0,137.31102941176476L0,108.41785714285729L51.285999999999945,200Z" style="fill: none; stroke: none; stroke-width: 0.35;"></path></g><g class="mark-rect role-mark brush_brush" clip-path="url(#clip9)"><path d="M0,0h0v200h0Z" style="fill: none;"></path></g></g></g><g transform="translate(672,0)"><path class="background" d="M0.5,0.5h200v200h-200Z" style="fill: none; stroke: #ddd;"></path><g><g class="mark-group role-axis"><g transform="translate(0.5,200.5)"><path class="background" d="M0,0h0v0h0Z" style="pointer-events: none; fill: none;"></path><g><g class="mark-rule role-axis-grid" style="pointer-events: none;"><line transform="translate(13,-200)" x2="0" y2="200" style="fill: none; stroke: #ddd; stroke-width: 1; opacity: 1;"></line><line transform="translate(75,-200)" x2="0" y2="200" style="fill: none; stroke: #ddd; stroke-width: 1; opacity: 1;"></line><line transform="translate(138,-200)" x2="0" y2="200" style="fill: none; stroke: #ddd; stroke-width: 1; opacity: 1;"></line><line transform="translate(200,-200)" x2="0" y2="200" style="fill: none; stroke: #ddd; stroke-width: 1; opacity: 1;"></line></g></g></g></g><g class="mark-group role-axis"><g transform="translate(0.5,0.5)"><path class="background" d="M0,0h0v0h0Z" style="pointer-events: none; fill: none;"></path><g><g class="mark-rule role-axis-grid" style="pointer-events: none;"><line transform="translate(0,180)" x2="200" y2="0" style="fill: none; stroke: #ddd; stroke-width: 1; opacity: 1;"></line><line transform="translate(0,140)" x2="200" y2="0" style="fill: none; stroke: #ddd; stroke-width: 1; opacity: 1;"></line><line transform="translate(0,100)" x2="200" y2="0" style="fill: none; stroke: #ddd; stroke-width: 1; opacity: 1;"></line><line transform="translate(0,60)" x2="200" y2="0" style="fill: none; stroke: #ddd; stroke-width: 1; opacity: 1;"></line><line transform="translate(0,20)" x2="200" y2="0" style="fill: none; stroke: #ddd; stroke-width: 1; opacity: 1;"></line></g></g></g></g><g class="mark-rect role-mark brush_brush_bg" clip-path="url(#clip10)"><path d="M0,0h0v200h0Z" style="fill: #333; fill-opacity: 0.125;"></path></g><g class="mark-symbol role-mark child_marks" clip-path="url(#clip11)"><path transform="translate(50,128.4)" d="M7.905694150420948,0A7.905694150420948,7.905694150420948,0,1,1,-7.905694150420948,0A7.905694150420948,7.905694150420948,0,1,1,7.905694150420948,0" style="fill: red; stroke-width: 2; opacity: 1;"></path><path transform="translate(50,144.8)" d="M7.905694150420948,0A7.905694150420948,7.905694150420948,0,1,1,-7.905694150420948,0A7.905694150420948,7.905694150420948,0,1,1,7.905694150420948,0" style="fill: red; stroke-width: 2; opacity: 1;"></path><path transform="translate(50,105.80000000000001)" d="M7.905694150420948,0A7.905694150420948,7.905694150420948,0,1,1,-7.905694150420948,0A7.905694150420948,7.905694150420948,0,1,1,7.905694150420948,0" style="fill: red; stroke-width: 2; opacity: 1;"></path><path transform="translate(50,83.2)" d="M7.905694150420948,0A7.905694150420948,7.905694150420948,0,1,1,-7.905694150420948,0A7.905694150420948,7.905694150420948,0,1,1,7.905694150420948,0" style="fill: red; stroke-width: 2; opacity: 1;"></path><path transform="translate(50,90.6)" d="M7.905694150420948,0A7.905694150420948,7.905694150420948,0,1,1,-7.905694150420948,0A7.905694150420948,7.905694150420948,0,1,1,7.905694150420948,0" style="fill: red; stroke-width: 2; opacity: 1;"></path><path transform="translate(50,119.19999999999999)" d="M7.905694150420948,0A7.905694150420948,7.905694150420948,0,1,1,-7.905694150420948,0A7.905694150420948,7.905694150420948,0,1,1,7.905694150420948,0" style="fill: red; stroke-width: 2; opacity: 1;"></path><path transform="translate(50,155)" d="M7.905694150420948,0A7.905694150420948,7.905694150420948,0,1,1,-7.905694150420948,0A7.905694150420948,7.905694150420948,0,1,1,7.905694150420948,0" style="fill: red; stroke-width: 2; opacity: 1;"></path><path transform="translate(187.5,10)" d="M7.905694150420948,0A7.905694150420948,7.905694150420948,0,1,1,-7.905694150420948,0A7.905694150420948,7.905694150420948,0,1,1,7.905694150420948,0" style="fill: red; stroke-width: 2; opacity: 1;"></path><path transform="translate(50,148.8)" d="M7.905694150420948,0A7.905694150420948,7.905694150420948,0,1,1,-7.905694150420948,0A7.905694150420948,7.905694150420948,0,1,1,7.905694150420948,0" style="fill: red; stroke-width: 2; opacity: 1;"></path><path transform="translate(50,101.8)" d="M7.905694150420948,0A7.905694150420948,7.905694150420948,0,1,1,-7.905694150420948,0A7.905694150420948,7.905694150420948,0,1,1,7.905694150420948,0" style="fill: red; stroke-width: 2; opacity: 1;"></path><path transform="translate(50,122.2)" d="M7.905694150420948,0A7.905694150420948,7.905694150420948,0,1,1,-7.905694150420948,0A7.905694150420948,7.905694150420948,0,1,1,7.905694150420948,0" style="fill: red; stroke-width: 2; opacity: 1;"></path></g><g class="mark-path role-mark child_voronoi"><path transform="translate(0,0)" d="M0,125.30000000000001L167.0572,125.30000000000001L176.7875272727273,136.60000000000002L0,136.60000000000002Z" style="fill: none; stroke: none; stroke-width: 0.35;"></path><path transform="translate(0,0)" d="M0,136.60000000000002L176.7875272727273,136.60000000000002L186.7872363636364,146.8L0,146.8Z" style="fill: none; stroke: none; stroke-width: 0.35;"></path><path transform="translate(0,0)" d="M0,103.80000000000001L150.72978181818183,103.80000000000001L156.7913090909091,112.5L0,112.5Z" style="fill: none; stroke: none; stroke-width: 0.35;"></path><path transform="translate(0,0)" d="M0,0L93.94185454545456,0L140.20425454545455,86.89999999999999L0,86.89999999999999Z" style="fill: none; stroke: none; stroke-width: 0.35;"></path><path transform="translate(0,0)" d="M0,86.89999999999999L140.20425454545455,86.89999999999999L145.65574545454544,96.19999999999999L0,96.19999999999999Z" style="fill: none; stroke: none; stroke-width: 0.35;"></path><path transform="translate(0,0)" d="M0,112.5L156.7913090909091,112.5L163.30360000000002,120.7L0,120.7Z" style="fill: none; stroke: none; stroke-width: 0.35;"></path><path transform="translate(0,0)" d="M200,200L0,200L0,151.9L191.93545454545455,151.9L200,159.54741379310346Z" style="fill: none; stroke: none; stroke-width: 0.35;"></path><path transform="translate(0,0)" d="M200,0L200,159.54741379310346L191.93545454545455,151.9L186.7872363636364,146.8L176.7875272727273,136.60000000000002L167.0572,125.30000000000001L163.30360000000002,120.7L156.7913090909091,112.5L150.72978181818183,103.80000000000001L145.65574545454544,96.19999999999999L140.20425454545455,86.89999999999999L93.94185454545456,0Z" style="fill: none; stroke: none; stroke-width: 0.35;"></path><path transform="translate(0,0)" d="M0,146.8L186.7872363636364,146.8L191.93545454545455,151.9L0,151.9Z" style="fill: none; stroke: none; stroke-width: 0.35;"></path><path transform="translate(0,0)" d="M0,96.19999999999999L145.65574545454544,96.19999999999999L150.72978181818183,103.80000000000001L0,103.80000000000001Z" style="fill: none; stroke: none; stroke-width: 0.35;"></path><path transform="translate(0,0)" d="M0,120.7L163.30360000000002,120.7L167.0572,125.30000000000001L0,125.30000000000001Z" style="fill: none; stroke: none; stroke-width: 0.35;"></path></g><g class="mark-rect role-mark brush_brush" clip-path="url(#clip12)"><path d="M0,0h0v200h0Z" style="fill: none;"></path></g></g></g></g></g></g></g></g></svg>