<svg class="marks" width="299" height="283" viewBox="0 0 299 283" version="1.1" xmlns="http://www.w3.org/2000/svg" xmlns:xlink="http://www.w3.org/1999/xlink"><g transform="translate(102,55)"><g class="mark-group role-frame root"><g transform="translate(0,0)"><path class="background" d="M0,0h0v0h0Z" style="fill: none;"></path><g><g class="mark-group role-row-title row-title"><g transform="translate(-75,93)"><path class="background" d="M0,0h0v0h0Z" style="fill: none;"></path><g><g class="mark-text role-title" style="pointer-events: none;"><text text-anchor="middle" transform="translate(-10,0) rotate(-90) translate(0,-2)" style="font-family: sans-serif; font-size: 11px; font-weight: bold; fill: #000; opacity: 1;">b</text></g></g></g></g><g class="mark-group role-column-title column-title"><g transform="translate(95,-28)"><path class="background" d="M0,0h0v0h0Z" style="fill: none;"></path><g><g class="mark-text role-title" style="pointer-events: none;"><text text-anchor="middle" transform="translate(0,-12)" style="font-family: sans-serif; font-size: 11px; font-weight: bold; fill: #000; opacity: 1;">a</text></g></g></g></g><g class="mark-group role-row-header row_header"><g transform="translate(-2,0)"><path class="background" d="M0,0h0v50h0Z" style="fill: none;"></path><g><g class="mark-text role-title" style="pointer-events: none;"><text text-anchor="middle" transform="translate(-57,28) rotate(-90) translate(0,3)" style="font-family: sans-serif; font-size: 10px; fill: #000; opacity: 1;">X</text></g><g class="mark-group role-axis"><g transform="translate(0.5,0.5)"><path class="background" d="M0,0h0v0h0Z" style="pointer-events: none; fill: none;"></path><g><g class="mark-rule role-axis-tick" style="pointer-events: none;"><line transform="translate(0,50)" x2="-5" y2="0" style="fill: none; stroke: #888; stroke-width: 1; opacity: 1;"></line><line transform="translate(0,22)" x2="-5" y2="0" style="fill: none; stroke: #888; stroke-width: 1; opacity: 1;"></line></g><g class="mark-text role-axis-label" style="pointer-events: none;"><text text-anchor="end" transform="translate(-7,53)" style="font-family: sans-serif; font-size: 10px; fill: #000; opacity: 1;">0</text><text text-anchor="end" transform="translate(-7,25.22222222222222)" style="font-family: sans-serif; font-size: 10px; fill: #000; opacity: 1;">5</text></g><g class="mark-rule role-axis-domain" style="pointer-events: none;"><line transform="translate(0,50)" x2="0" y2="-50" style="fill: none; stroke: #888; stroke-width: 1; opacity: 1;"></line></g><g class="mark-text role-axis-title" style="pointer-events: none;"><text text-anchor="middle" transform="translate(-34,25) rotate(-90) translate(0,-2)" style="font-family: sans-serif; font-size: 11px; font-weight: bold; fill: #000; opacity: 1;">y</text></g></g></g></g></g></g><g transform="translate(-2,68)"><path class="background" d="M0,0h0v50h0Z" style="fill: none;"></path><g><g class="mark-text role-title" style="pointer-events: none;"><text text-anchor="middle" transform="translate(-57,28) rotate(-90) translate(0,3)" style="font-family: sans-serif; font-size: 10px; fill: #000; opacity: 1;">Y</text></g><g class="mark-group role-axis"><g transform="translate(0.5,0.5)"><path class="background" d="M0,0h0v0h0Z" style="pointer-events: none; fill: none;"></path><g><g class="mark-rule role-axis-tick" style="pointer-events: none;"><line transform="translate(0,50)" x2="-5" y2="0" style="fill: none; stroke: #888; stroke-width: 1; opacity: 1;"></line><line transform="translate(0,22)" x2="-5" y2="0" style="fill: none; stroke: #888; stroke-width: 1; opacity: 1;"></line></g><g class="mark-text role-axis-label" style="pointer-events: none;"><text text-anchor="end" transform="translate(-7,53)" style="font-family: sans-serif; font-size: 10px; fill: #000; opacity: 1;">0</text><text text-anchor="end" transform="translate(-7,25.22222222222222)" style="font-family: sans-serif; font-size: 10px; fill: #000; opacity: 1;">5</text></g><g class="mark-rule role-axis-domain" style="pointer-events: none;"><line transform="translate(0,50)" x2="0" y2="-50" style="fill: none; stroke: #888; stroke-width: 1; opacity: 1;"></line></g><g class="mark-text role-axis-title" style="pointer-events: none;"><text text-anchor="middle" transform="translate(-34,25) rotate(-90) translate(0,-2)" style="font-family: sans-serif; font-size: 11px; font-weight: bold; fill: #000; opacity: 1;">y</text></g></g></g></g></g></g><g transform="translate(-2,136)"><path class="background" d="M0,0h0v50h0Z" style="fill: none;"></path><g><g class="mark-text role-title" style="pointer-events: none;"><text text-anchor="middle" transform="translate(-57,28) rotate(-90) translate(0,3)" style="font-family: sans-serif; font-size: 10px; fill: #000; opacity: 1;">Z</text></g><g class="mark-group role-axis"><g transform="translate(0.5,0.5)"><path class="background" d="M0,0h0v0h0Z" style="pointer-events: none; fill: none;"></path><g><g class="mark-rule role-axis-tick" style="pointer-events: none;"><line transform="translate(0,50)" x2="-5" y2="0" style="fill: none; stroke: #888; stroke-width: 1; opacity: 1;"></line><line transform="translate(0,22)" x2="-5" y2="0" style="fill: none; stroke: #888; stroke-width: 1; opacity: 1;"></line></g><g class="mark-text role-axis-label" style="pointer-events: none;"><text text-anchor="end" transform="translate(-7,53)" style="font-family: sans-serif; font-size: 10px; fill: #000; opacity: 1;">0</text><text text-anchor="end" transform="translate(-7,25.22222222222222)" style="font-family: sans-serif; font-size: 10px; fill: #000; opacity: 1;">5</text></g><g class="mark-rule role-axis-domain" style="pointer-events: none;"><line transform="translate(0,50)" x2="0" y2="-50" style="fill: none; stroke: #888; stroke-width: 1; opacity: 1;"></line></g><g class="mark-text role-axis-title" style="pointer-events: none;"><text text-anchor="middle" transform="translate(-34,25) rotate(-90) translate(0,-2)" style="font-family: sans-serif; font-size: 11px; font-weight: bold; fill: #000; opacity: 1;">y</text></g></g></g></g></g></g></g><g class="mark-group role-column-header column_header"><g transform="translate(0,-2)"><path class="background" d="M0,0h50v0h-50Z" style="fill: none;"></path><g><g class="mark-text role-title" style="pointer-events: none;"><text text-anchor="middle" transform="translate(25,-7)" style="font-family: sans-serif; font-size: 10px; fill: #000; opacity: 1;">A</text></g></g></g><g transform="translate(68,-2)"><path class="background" d="M0,0h50v0h-50Z" style="fill: none;"></path><g><g class="mark-text role-title" style="pointer-events: none;"><text text-anchor="middle" transform="translate(25,-7)" style="font-family: sans-serif; font-size: 10px; fill: #000; opacity: 1;">C</text></g></g></g><g transform="translate(136,-2)"><path class="background" d="M0,0h50v0h-50Z" style="fill: none;"></path><g><g class="mark-text role-title" style="pointer-events: none;"><text text-anchor="middle" transform="translate(25,-7)" style="font-family: sans-serif; font-size: 10px; fill: #000; opacity: 1;">B</text></g></g></g></g><g class="mark-group role-column-footer column_footer"><g transform="translate(0,188)"><path class="background" d="M0,0h50v0h-50Z" style="fill: none;"></path><g><g class="mark-group role-axis"><g transform="translate(0.5,0.5)"><path class="background" d="M0,0h0v0h0Z" style="pointer-events: none; fill: none;"></path><g><g class="mark-rule role-axis-tick" style="pointer-events: none;"><line transform="translate(0,0)" x2="0" y2="5" style="fill: none; stroke: #888; stroke-width: 1; opacity: 1;"></line><line transform="translate(28,0)" x2="0" y2="5" style="fill: none; stroke: #888; stroke-width: 1; opacity: 1;"></line></g><g class="mark-text role-axis-label" style="pointer-events: none;"><text text-anchor="start" transform="translate(0,15)" style="font-family: sans-serif; font-size: 10px; fill: #000; opacity: 1;">0</text><text text-anchor="middle" transform="translate(27.77777777777778,15)" style="font-family: sans-serif; font-size: 10px; fill: #000; opacity: 1;">5</text></g><g class="mark-rule role-axis-domain" style="pointer-events: none;"><line transform="translate(0,0)" x2="50" y2="0" style="fill: none; stroke: #888; stroke-width: 1; opacity: 1;"></line></g><g class="mark-text role-axis-title" style="pointer-events: none;"><text text-anchor="middle" transform="translate(25,31)" style="font-family: sans-serif; font-size: 11px; font-weight: bold; fill: #000; opacity: 1;">x</text></g></g></g></g></g></g><g transform="translate(68,188)"><path class="background" d="M0,0h50v0h-50Z" style="fill: none;"></path><g><g class="mark-group role-axis"><g transform="translate(0.5,0.5)"><path class="background" d="M0,0h0v0h0Z" style="pointer-events: none; fill: none;"></path><g><g class="mark-rule role-axis-tick" style="pointer-events: none;"><line transform="translate(0,0)" x2="0" y2="5" style="fill: none; stroke: #888; stroke-width: 1; opacity: 1;"></line><line transform="translate(28,0)" x2="0" y2="5" style="fill: none; stroke: #888; stroke-width: 1; opacity: 1;"></line></g><g class="mark-text role-axis-label" style="pointer-events: none;"><text text-anchor="start" transform="translate(0,15)" style="font-family: sans-serif; font-size: 10px; fill: #000; opacity: 1;">0</text><text text-anchor="middle" transform="translate(27.77777777777778,15)" style="font-family: sans-serif; font-size: 10px; fill: #000; opacity: 1;">5</text></g><g class="mark-rule role-axis-domain" style="pointer-events: none;"><line transform="translate(0,0)" x2="50" y2="0" style="fill: none; stroke: #888; stroke-width: 1; opacity: 1;"></line></g><g class="mark-text role-axis-title" style="pointer-events: none;"><text text-anchor="middle" transform="translate(25,31)" style="font-family: sans-serif; font-size: 11px; font-weight: bold; fill: #000; opacity: 1;">x</text></g></g></g></g></g></g><g transform="translate(136,188)"><path class="background" d="M0,0h50v0h-50Z" style="fill: none;"></path><g><g class="mark-group role-axis"><g transform="translate(0.5,0.5)"><path class="background" d="M0,0h0v0h0Z" style="pointer-events: none; fill: none;"></path><g><g class="mark-rule role-axis-tick" style="pointer-events: none;"><line transform="translate(0,0)" x2="0" y2="5" style="fill: none; stroke: #888; stroke-width: 1; opacity: 1;"></line><line transform="translate(28,0)" x2="0" y2="5" style="fill: none; stroke: #888; stroke-width: 1; opacity: 1;"></line></g><g class="mark-text role-axis-label" style="pointer-events: none;"><text text-anchor="start" transform="translate(0,15)" style="font-family: sans-serif; font-size: 10px; fill: #000; opacity: 1;">0</text><text text-anchor="middle" transform="translate(27.77777777777778,15)" style="font-family: sans-serif; font-size: 10px; fill: #000; opacity: 1;">5</text></g><g class="mark-rule role-axis-domain" style="pointer-events: none;"><line transform="translate(0,0)" x2="50" y2="0" style="fill: none; stroke: #888; stroke-width: 1; opacity: 1;"></line></g><g class="mark-text role-axis-title" style="pointer-events: none;"><text text-anchor="middle" transform="translate(25,31)" style="font-family: sans-serif; font-size: 11px; font-weight: bold; fill: #000; opacity: 1;">x</text></g></g></g></g></g></g></g><g class="mark-group role-scope cell"><g transform="translate(0,0)"><path class="background" d="M0.5,0.5h50v50h-50Z" style="fill: none; stroke: #ddd;"></path><g><g class="mark-group role-axis"><g transform="translate(0.5,50.5)"><path class="background" d="M0,0h0v0h0Z" style="pointer-events: none; fill: none;"></path><g><g class="mark-rule role-axis-grid" style="pointer-events: none;"><line transform="translate(0,-50)" x2="0" y2="50" style="fill: none; stroke: #ddd; stroke-width: 1; opacity: 1;"></line><line transform="translate(28,-50)" x2="0" y2="50" style="fill: none; stroke: #ddd; stroke-width: 1; opacity: 1;"></line></g></g></g></g><g class="mark-group role-axis"><g transform="translate(0.5,0.5)"><path class="background" d="M0,0h0v0h0Z" style="pointer-events: none; fill: none;"></path><g><g class="mark-rule role-axis-grid" style="pointer-events: none;"><line transform="translate(0,50)" x2="50" y2="0" style="fill: none; stroke: #ddd; stroke-width: 1; opacity: 1;"></line><line transform="translate(0,22)" x2="50" y2="0" style="fill: none; stroke: #ddd; stroke-width: 1; opacity: 1;"></line></g></g></g></g><g class="mark-symbol role-mark child_layer_0_marks"><path transform="translate(5.555555555555555,27.77777777777778)" d="M2.7386127875258306,0A2.7386127875258306,2.7386127875258306,0,1,1,-2.7386127875258306,0A2.7386127875258306,2.7386127875258306,0,1,1,2.7386127875258306,0" style="fill: none; stroke: #4c78a8; stroke-width: 2; opacity: 0.7;"></path></g><g class="mark-rule role-mark child_layer_1_marks"><line transform="translate(16.666666666666664,50)" x2="0" y2="-50" style="fill: none; stroke: black;"></line></g><g class="mark-rule role-mark child_layer_2_marks"><line transform="translate(0,27.77777777777778)" x2="50" y2="0" style="fill: none; stroke: black;"></line></g></g></g><g transform="translate(68,0)"><path class="background" d="M0.5,0.5h50v50h-50Z" style="fill: none; stroke: #ddd;"></path><g><g class="mark-group role-axis"><g transform="translate(0.5,50.5)"><path class="background" d="M0,0h0v0h0Z" style="pointer-events: none; fill: none;"></path><g><g class="mark-rule role-axis-grid" style="pointer-events: none;"><line transform="translate(0,-50)" x2="0" y2="50" style="fill: none; stroke: #ddd; stroke-width: 1; opacity: 1;"></line><line transform="translate(28,-50)" x2="0" y2="50" style="fill: none; stroke: #ddd; stroke-width: 1; opacity: 1;"></line></g></g></g></g><g class="mark-group role-axis"><g transform="translate(0.5,0.5)"><path class="background" d="M0,0h0v0h0Z" style="pointer-events: none; fill: none;"></path><g><g class="mark-rule role-axis-grid" style="pointer-events: none;"><line transform="translate(0,50)" x2="50" y2="0" style="fill: none; stroke: #ddd; stroke-width: 1; opacity: 1;"></line><line transform="translate(0,22)" x2="50" y2="0" style="fill: none; stroke: #ddd; stroke-width: 1; opacity: 1;"></line></g></g></g></g><g class="mark-symbol role-mark child_layer_0_marks"><path transform="translate(38.88888888888889,44.44444444444444)" d="M2.7386127875258306,0A2.7386127875258306,2.7386127875258306,0,1,1,-2.7386127875258306,0A2.7386127875258306,2.7386127875258306,0,1,1,2.7386127875258306,0" style="fill: none; stroke: #4c78a8; stroke-width: 2; opacity: 0.7;"></path></g><g class="mark-rule role-mark child_layer_1_marks"><line transform="translate(33.33333333333333,50)" x2="0" y2="-50" style="fill: none; stroke: black;"></line></g><g class="mark-rule role-mark child_layer_2_marks"><line transform="translate(0,27.77777777777778)" x2="50" y2="0" style="fill: none; stroke: black;"></line></g></g></g><g transform="translate(136,0)"><path class="background" d="M0.5,0.5h50v50h-50Z" style="fill: none; stroke: #ddd;"></path><g><g class="mark-group role-axis"><g transform="translate(0.5,50.5)"><path class="background" d="M0,0h0v0h0Z" style="pointer-events: none; fill: none;"></path><g><g class="mark-rule role-axis-grid" style="pointer-events: none;"><line transform="translate(0,-50)" x2="0" y2="50" style="fill: none; stroke: #ddd; stroke-width: 1; opacity: 1;"></line><line transform="translate(28,-50)" x2="0" y2="50" style="fill: none; stroke: #ddd; stroke-width: 1; opacity: 1;"></line></g></g></g></g><g class="mark-group role-axis"><g transform="translate(0.5,0.5)"><path class="background" d="M0,0h0v0h0Z" style="pointer-events: none; fill: none;"></path><g><g class="mark-rule role-axis-grid" style="pointer-events: none;"><line transform="translate(0,50)" x2="50" y2="0" style="fill: none; stroke: #ddd; stroke-width: 1; opacity: 1;"></line><line transform="translate(0,22)" x2="50" y2="0" style="fill: none; stroke: #ddd; stroke-width: 1; opacity: 1;"></line></g></g></g></g><g class="mark-symbol role-mark child_layer_0_marks"><path transform="translate(11.11111111111111,11.111111111111107)" d="M2.7386127875258306,0A2.7386127875258306,2.7386127875258306,0,1,1,-2.7386127875258306,0A2.7386127875258306,2.7386127875258306,0,1,1,2.7386127875258306,0" style="fill: none; stroke: #4c78a8; stroke-width: 2; opacity: 0.7;"></path></g><g class="mark-rule role-mark child_layer_1_marks"><line transform="translate(44.44444444444444,50)" x2="0" y2="-50" style="fill: none; stroke: black;"></line></g><g class="mark-rule role-mark child_layer_2_marks"><line transform="translate(0,27.77777777777778)" x2="50" y2="0" style="fill: none; stroke: black;"></line></g></g></g><g transform="translate(0,68)"><path class="background" d="M0.5,0.5h50v50h-50Z" style="fill: none; stroke: #ddd;"></path><g><g class="mark-group role-axis"><g transform="translate(0.5,50.5)"><path class="background" d="M0,0h0v0h0Z" style="pointer-events: none; fill: none;"></path><g><g class="mark-rule role-axis-grid" style="pointer-events: none;"><line transform="translate(0,-50)" x2="0" y2="50" style="fill: none; stroke: #ddd; stroke-width: 1; opacity: 1;"></line><line transform="translate(28,-50)" x2="0" y2="50" style="fill: none; stroke: #ddd; stroke-width: 1; opacity: 1;"></line></g></g></g></g><g class="mark-group role-axis"><g transform="translate(0.5,0.5)"><path class="background" d="M0,0h0v0h0Z" style="pointer-events: none; fill: none;"></path><g><g class="mark-rule role-axis-grid" style="pointer-events: none;"><line transform="translate(0,50)" x2="50" y2="0" style="fill: none; stroke: #ddd; stroke-width: 1; opacity: 1;"></line><line transform="translate(0,22)" x2="50" y2="0" style="fill: none; stroke: #ddd; stroke-width: 1; opacity: 1;"></line></g></g></g></g><g class="mark-symbol role-mark child_layer_0_marks"><path transform="translate(16.666666666666664,22.22222222222222)" d="M2.7386127875258306,0A2.7386127875258306,2.7386127875258306,0,1,1,-2.7386127875258306,0A2.7386127875258306,2.7386127875258306,0,1,1,2.7386127875258306,0" style="fill: none; stroke: #4c78a8; stroke-width: 2; opacity: 0.7;"></path></g><g class="mark-rule role-mark child_layer_1_marks"><line transform="translate(16.666666666666664,50)" x2="0" y2="-50" style="fill: none; stroke: black;"></line></g><g class="mark-rule role-mark child_layer_2_marks"><line transform="translate(0,22.22222222222222)" x2="50" y2="0" style="fill: none; stroke: black;"></line></g></g></g><g transform="translate(68,68)"><path class="background" d="M0.5,0.5h50v50h-50Z" style="fill: none; stroke: #ddd;"></path><g><g class="mark-group role-axis"><g transform="translate(0.5,50.5)"><path class="background" d="M0,0h0v0h0Z" style="pointer-events: none; fill: none;"></path><g><g class="mark-rule role-axis-grid" style="pointer-events: none;"><line transform="translate(0,-50)" x2="0" y2="50" style="fill: none; stroke: #ddd; stroke-width: 1; opacity: 1;"></line><line transform="translate(28,-50)" x2="0" y2="50" style="fill: none; stroke: #ddd; stroke-width: 1; opacity: 1;"></line></g></g></g></g><g class="mark-group role-axis"><g transform="translate(0.5,0.5)"><path class="background" d="M0,0h0v0h0Z" style="pointer-events: none; fill: none;"></path><g><g class="mark-rule role-axis-grid" style="pointer-events: none;"><line transform="translate(0,50)" x2="50" y2="0" style="fill: none; stroke: #ddd; stroke-width: 1; opacity: 1;"></line><line transform="translate(0,22)" x2="50" y2="0" style="fill: none; stroke: #ddd; stroke-width: 1; opacity: 1;"></line></g></g></g></g><g class="mark-symbol role-mark child_layer_0_marks"><path transform="translate(33.33333333333333,38.888888888888886)" d="M2.7386127875258306,0A2.7386127875258306,2.7386127875258306,0,1,1,-2.7386127875258306,0A2.7386127875258306,2.7386127875258306,0,1,1,2.7386127875258306,0" style="fill: none; stroke: #4c78a8; stroke-width: 2; opacity: 0.7;"></path></g><g class="mark-rule role-mark child_layer_1_marks"><line transform="translate(33.33333333333333,50)" x2="0" y2="-50" style="fill: none; stroke: black;"></line></g><g class="mark-rule role-mark child_layer_2_marks"><line transform="translate(0,22.22222222222222)" x2="50" y2="0" style="fill: none; stroke: black;"></line></g></g></g><g transform="translate(136,68)"><path class="background" d="M0.5,0.5h50v50h-50Z" style="fill: none; stroke: #ddd;"></path><g><g class="mark-group role-axis"><g transform="translate(0.5,50.5)"><path class="background" d="M0,0h0v0h0Z" style="pointer-events: none; fill: none;"></path><g><g class="mark-rule role-axis-grid" style="pointer-events: none;"><line transform="translate(0,-50)" x2="0" y2="50" style="fill: none; stroke: #ddd; stroke-width: 1; opacity: 1;"></line><line transform="translate(28,-50)" x2="0" y2="50" style="fill: none; stroke: #ddd; stroke-width: 1; opacity: 1;"></line></g></g></g></g><g class="mark-group role-axis"><g transform="translate(0.5,0.5)"><path class="background" d="M0,0h0v0h0Z" style="pointer-events: none; fill: none;"></path><g><g class="mark-rule role-axis-grid" style="pointer-events: none;"><line transform="translate(0,50)" x2="50" y2="0" style="fill: none; stroke: #ddd; stroke-width: 1; opacity: 1;"></line><line transform="translate(0,22)" x2="50" y2="0" style="fill: none; stroke: #ddd; stroke-width: 1; opacity: 1;"></line></g></g></g></g><g class="mark-symbol role-mark child_layer_0_marks"><path transform="translate(50,5.555555555555557)" d="M2.7386127875258306,0A2.7386127875258306,2.7386127875258306,0,1,1,-2.7386127875258306,0A2.7386127875258306,2.7386127875258306,0,1,1,2.7386127875258306,0" style="fill: none; stroke: #4c78a8; stroke-width: 2; opacity: 0.7;"></path></g><g class="mark-rule role-mark child_layer_1_marks"><line transform="translate(44.44444444444444,50)" x2="0" y2="-50" style="fill: none; stroke: black;"></line></g><g class="mark-rule role-mark child_layer_2_marks"><line transform="translate(0,22.22222222222222)" x2="50" y2="0" style="fill: none; stroke: black;"></line></g></g></g><g transform="translate(0,136)"><path class="background" d="M0.5,0.5h50v50h-50Z" style="fill: none; stroke: #ddd;"></path><g><g class="mark-group role-axis"><g transform="translate(0.5,50.5)"><path class="background" d="M0,0h0v0h0Z" style="pointer-events: none; fill: none;"></path><g><g class="mark-rule role-axis-grid" style="pointer-events: none;"><line transform="translate(0,-50)" x2="0" y2="50" style="fill: none; stroke: #ddd; stroke-width: 1; opacity: 1;"></line><line transform="translate(28,-50)" x2="0" y2="50" style="fill: none; stroke: #ddd; stroke-width: 1; opacity: 1;"></line></g></g></g></g><g class="mark-group role-axis"><g transform="translate(0.5,0.5)"><path class="background" d="M0,0h0v0h0Z" style="pointer-events: none; fill: none;"></path><g><g class="mark-rule role-axis-grid" style="pointer-events: none;"><line transform="translate(0,50)" x2="50" y2="0" style="fill: none; stroke: #ddd; stroke-width: 1; opacity: 1;"></line><line transform="translate(0,22)" x2="50" y2="0" style="fill: none; stroke: #ddd; stroke-width: 1; opacity: 1;"></line></g></g></g></g><g class="mark-symbol role-mark child_layer_0_marks"><path transform="translate(27.77777777777778,16.66666666666667)" d="M2.7386127875258306,0A2.7386127875258306,2.7386127875258306,0,1,1,-2.7386127875258306,0A2.7386127875258306,2.7386127875258306,0,1,1,2.7386127875258306,0" style="fill: none; stroke: #4c78a8; stroke-width: 2; opacity: 0.7;"></path></g><g class="mark-rule role-mark child_layer_1_marks"><line transform="translate(16.666666666666664,50)" x2="0" y2="-50" style="fill: none; stroke: black;"></line></g><g class="mark-rule role-mark child_layer_2_marks"><line transform="translate(0,16.66666666666667)" x2="50" y2="0" style="fill: none; stroke: black;"></line></g></g></g><g transform="translate(68,136)"><path class="background" d="M0.5,0.5h50v50h-50Z" style="fill: none; stroke: #ddd;"></path><g><g class="mark-group role-axis"><g transform="translate(0.5,50.5)"><path class="background" d="M0,0h0v0h0Z" style="pointer-events: none; fill: none;"></path><g><g class="mark-rule role-axis-grid" style="pointer-events: none;"><line transform="translate(0,-50)" x2="0" y2="50" style="fill: none; stroke: #ddd; stroke-width: 1; opacity: 1;"></line><line transform="translate(28,-50)" x2="0" y2="50" style="fill: none; stroke: #ddd; stroke-width: 1; opacity: 1;"></line></g></g></g></g><g class="mark-group role-axis"><g transform="translate(0.5,0.5)"><path class="background" d="M0,0h0v0h0Z" style="pointer-events: none; fill: none;"></path><g><g class="mark-rule role-axis-grid" style="pointer-events: none;"><line transform="translate(0,50)" x2="50" y2="0" style="fill: none; stroke: #ddd; stroke-width: 1; opacity: 1;"></line><line transform="translate(0,22)" x2="50" y2="0" style="fill: none; stroke: #ddd; stroke-width: 1; opacity: 1;"></line></g></g></g></g><g class="mark-symbol role-mark child_layer_0_marks"><path transform="translate(22.22222222222222,33.333333333333336)" d="M2.7386127875258306,0A2.7386127875258306,2.7386127875258306,0,1,1,-2.7386127875258306,0A2.7386127875258306,2.7386127875258306,0,1,1,2.7386127875258306,0" style="fill: none; stroke: #4c78a8; stroke-width: 2; opacity: 0.7;"></path></g><g class="mark-rule role-mark child_layer_1_marks"><line transform="translate(33.33333333333333,50)" x2="0" y2="-50" style="fill: none; stroke: black;"></line></g><g class="mark-rule role-mark child_layer_2_marks"><line transform="translate(0,16.66666666666667)" x2="50" y2="0" style="fill: none; stroke: black;"></line></g></g></g><g transform="translate(136,136)"><path class="background" d="M0.5,0.5h50v50h-50Z" style="fill: none; stroke: #ddd;"></path><g><g class="mark-group role-axis"><g transform="translate(0.5,50.5)"><path class="background" d="M0,0h0v0h0Z" style="pointer-events: none; fill: none;"></path><g><g class="mark-rule role-axis-grid" style="pointer-events: none;"><line transform="translate(0,-50)" x2="0" y2="50" style="fill: none; stroke: #ddd; stroke-width: 1; opacity: 1;"></line><line transform="translate(28,-50)" x2="0" y2="50" style="fill: none; stroke: #ddd; stroke-width: 1; opacity: 1;"></line></g></g></g></g><g class="mark-group role-axis"><g transform="translate(0.5,0.5)"><path class="background" d="M0,0h0v0h0Z" style="pointer-events: none; fill: none;"></path><g><g class="mark-rule role-axis-grid" style="pointer-events: none;"><line transform="translate(0,50)" x2="50" y2="0" style="fill: none; stroke: #ddd; stroke-width: 1; opacity: 1;"></line><line transform="translate(0,22)" x2="50" y2="0" style="fill: none; stroke: #ddd; stroke-width: 1; opacity: 1;"></line></g></g></g></g><g class="mark-symbol role-mark child_layer_0_marks"><path transform="translate(44.44444444444444,0)" d="M2.7386127875258306,0A2.7386127875258306,2.7386127875258306,0,1,1,-2.7386127875258306,0A2.7386127875258306,2.7386127875258306,0,1,1,2.7386127875258306,0" style="fill: none; stroke: #4c78a8; stroke-width: 2; opacity: 0.7;"></path></g><g class="mark-rule role-mark child_layer_1_marks"><line transform="translate(44.44444444444444,50)" x2="0" y2="-50" style="fill: none; stroke: black;"></line></g><g class="mark-rule role-mark child_layer_2_marks"><line transform="translate(0,16.66666666666667)" x2="50" y2="0" style="fill: none; stroke: black;"></line></g></g></g></g></g></g></g></g></svg>