<svg class="marks" width="479" height="514" viewBox="0 0 479 514" version="1.1" xmlns="http://www.w3.org/2000/svg" xmlns:xlink="http://www.w3.org/1999/xlink"><g transform="translate(53,6)"><g class="mark-group role-frame root"><g transform="translate(0,0)"><path class="background" d="M0,0h0v0h0Z" style="fill: none;"></path><g><g class="mark-group role-scope concat_0_group"><g transform="translate(0,0)"><path class="background" d="M0.5,0.5h252v200h-252Z" style="fill: none; stroke: #ddd;"></path><g><g class="mark-group role-axis"><g transform="translate(0.5,0.5)"><path class="background" d="M0,0h0v0h0Z" style="pointer-events: none; fill: none;"></path><g><g class="mark-rule role-axis-grid" style="pointer-events: none;"><line transform="translate(0,200)" x2="252" y2="0" style="fill: none; stroke: #ddd; stroke-width: 1; opacity: 1;"></line><line transform="translate(0,164)" x2="252" y2="0" style="fill: none; stroke: #ddd; stroke-width: 1; opacity: 1;"></line><line transform="translate(0,127)" x2="252" y2="0" style="fill: none; stroke: #ddd; stroke-width: 1; opacity: 1;"></line><line transform="translate(0,91)" x2="252" y2="0" style="fill: none; stroke: #ddd; stroke-width: 1; opacity: 1;"></line><line transform="translate(0,55)" x2="252" y2="0" style="fill: none; stroke: #ddd; stroke-width: 1; opacity: 1;"></line><line transform="translate(0,18)" x2="252" y2="0" style="fill: none; stroke: #ddd; stroke-width: 1; opacity: 1;"></line></g></g></g></g><g class="mark-rect role-mark concat_0_marks"><path d="M232.05,23.04985337243403h18.900000000000002v176.95014662756597h-18.900000000000002Z" style="fill: #4c78a8;"></path><path d="M1.0499999999999972,58.26979472140758h18.900000000000002v141.73020527859242h-18.900000000000002Z" style="fill: #4c78a8;"></path><path d="M22.049999999999997,68.2864038616251h18.900000000000002v131.7135961383749h-18.900000000000002Z" style="fill: #4c78a8;"></path><path d="M43.05,21.642228739002945h18.900000000000002v178.35777126099705h-18.900000000000002Z" style="fill: #4c78a8;"></path><path d="M64.05,88.0909090909091h18.900000000000002v111.9090909090909h-18.900000000000002Z" style="fill: #4c78a8;"></path><path d="M85.05,136.0117302052786h18.900000000000002v63.98826979472139h-18.900000000000002Z" style="fill: #4c78a8;"></path><path d="M106.05,163.1212121212121h18.900000000000002v36.878787878787904h-18.900000000000002Z" style="fill: #4c78a8;"></path><path d="M127.05,185.8651026392962h18.900000000000002v14.134897360703803h-18.900000000000002Z" style="fill: #4c78a8;"></path><path d="M148.05,150.2932551319648h18.900000000000002v49.7067448680352h-18.900000000000002Z" style="fill: #4c78a8;"></path><path d="M169.05,127.99999999999999h18.900000000000002v72.00000000000001h-18.900000000000002Z" style="fill: #4c78a8;"></path><path d="M190.05,43.78299120234607h18.900000000000002v156.21700879765393h-18.900000000000002Z" style="fill: #4c78a8;"></path><path d="M211.05,10.727272727272776h18.900000000000002v189.27272727272722h-18.900000000000002Z" style="fill: #4c78a8;"></path></g><g class="mark-group role-axis"><g transform="translate(0.5,200.5)"><path class="background" d="M0,0h0v0h0Z" style="pointer-events: none; fill: none;"></path><g><g class="mark-rule role-axis-tick" style="pointer-events: none;"><line transform="translate(9,0)" x2="0" y2="5" style="fill: none; stroke: #888; stroke-width: 1; opacity: 1;"></line><line transform="translate(31,0)" x2="0" y2="5" style="fill: none; stroke: #888; stroke-width: 1; opacity: 1;"></line><line transform="translate(52,0)" x2="0" y2="5" style="fill: none; stroke: #888; stroke-width: 1; opacity: 1;"></line><line transform="translate(73,0)" x2="0" y2="5" style="fill: none; stroke: #888; stroke-width: 1; opacity: 1;"></line><line transform="translate(94,0)" x2="0" y2="5" style="fill: none; stroke: #888; stroke-width: 1; opacity: 1;"></line><line transform="translate(115,0)" x2="0" y2="5" style="fill: none; stroke: #888; stroke-width: 1; opacity: 1;"></line><line transform="translate(136,0)" x2="0" y2="5" style="fill: none; stroke: #888; stroke-width: 1; opacity: 1;"></line><line transform="translate(157,0)" x2="0" y2="5" style="fill: none; stroke: #888; stroke-width: 1; opacity: 1;"></line><line transform="translate(178,0)" x2="0" y2="5" style="fill: none; stroke: #888; stroke-width: 1; opacity: 1;"></line><line transform="translate(199,0)" x2="0" y2="5" style="fill: none; stroke: #888; stroke-width: 1; opacity: 1;"></line><line transform="translate(220,0)" x2="0" y2="5" style="fill: none; stroke: #888; stroke-width: 1; opacity: 1;"></line><line transform="translate(241,0)" x2="0" y2="5" style="fill: none; stroke: #888; stroke-width: 1; opacity: 1;"></line></g><g class="mark-text role-axis-label" style="pointer-events: none;"><text text-anchor="end" transform="translate(9.499999999999998,7) rotate(270) translate(0,3)" style="font-family: sans-serif; font-size: 10px; fill: #000; opacity: 1;">Jan</text><text text-anchor="end" transform="translate(30.5,7) rotate(270) translate(0,3)" style="font-family: sans-serif; font-size: 10px; fill: #000; opacity: 1;">Feb</text><text text-anchor="end" transform="translate(51.5,7) rotate(270) translate(0,3)" style="font-family: sans-serif; font-size: 10px; fill: #000; opacity: 1;">Mar</text><text text-anchor="end" transform="translate(72.5,7) rotate(270) translate(0,3)" style="font-family: sans-serif; font-size: 10px; fill: #000; opacity: 1;">Apr</text><text text-anchor="end" transform="translate(93.5,7) rotate(270) translate(0,3)" style="font-family: sans-serif; font-size: 10px; fill: #000; opacity: 1;">May</text><text text-anchor="end" transform="translate(114.5,7) rotate(270) translate(0,3)" style="font-family: sans-serif; font-size: 10px; fill: #000; opacity: 1;">Jun</text><text text-anchor="end" transform="translate(135.5,7) rotate(270) translate(0,3)" style="font-family: sans-serif; font-size: 10px; fill: #000; opacity: 1;">Jul</text><text text-anchor="end" transform="translate(156.5,7) rotate(270) translate(0,3)" style="font-family: sans-serif; font-size: 10px; fill: #000; opacity: 1;">Aug</text><text text-anchor="end" transform="translate(177.5,7) rotate(270) translate(0,3)" style="font-family: sans-serif; font-size: 10px; fill: #000; opacity: 1;">Sep</text><text text-anchor="end" transform="translate(198.5,7) rotate(270) translate(0,3)" style="font-family: sans-serif; font-size: 10px; fill: #000; opacity: 1;">Oct</text><text text-anchor="end" transform="translate(219.5,7) rotate(270) translate(0,3)" style="font-family: sans-serif; font-size: 10px; fill: #000; opacity: 1;">Nov</text><text text-anchor="end" transform="translate(240.5,7) rotate(270) translate(0,3)" style="font-family: sans-serif; font-size: 10px; fill: #000; opacity: 1;">Dec</text></g><g class="mark-rule role-axis-domain" style="pointer-events: none;"><line transform="translate(0,0)" x2="252" y2="0" style="fill: none; stroke: #888; stroke-width: 1; opacity: 1;"></line></g><g class="mark-text role-axis-title" style="pointer-events: none;"><text text-anchor="middle" transform="translate(126,45)" style="font-family: sans-serif; font-size: 11px; font-weight: bold; fill: #000; opacity: 1;">date (month)</text></g></g></g></g><g class="mark-group role-axis"><g transform="translate(0.5,0.5)"><path class="background" d="M0,0h0v0h0Z" style="pointer-events: none; fill: none;"></path><g><g class="mark-rule role-axis-tick" style="pointer-events: none;"><line transform="translate(0,200)" x2="-5" y2="0" style="fill: none; stroke: #888; stroke-width: 1; opacity: 1;"></line><line transform="translate(0,164)" x2="-5" y2="0" style="fill: none; stroke: #888; stroke-width: 1; opacity: 1;"></line><line transform="translate(0,127)" x2="-5" y2="0" style="fill: none; stroke: #888; stroke-width: 1; opacity: 1;"></line><line transform="translate(0,91)" x2="-5" y2="0" style="fill: none; stroke: #888; stroke-width: 1; opacity: 1;"></line><line transform="translate(0,55)" x2="-5" y2="0" style="fill: none; stroke: #888; stroke-width: 1; opacity: 1;"></line><line transform="translate(0,18)" x2="-5" y2="0" style="fill: none; stroke: #888; stroke-width: 1; opacity: 1;"></line></g><g class="mark-text role-axis-label" style="pointer-events: none;"><text text-anchor="end" transform="translate(-7,203)" style="font-family: sans-serif; font-size: 10px; fill: #000; opacity: 1;">0</text><text text-anchor="end" transform="translate(-7,166.63636363636363)" style="font-family: sans-serif; font-size: 10px; fill: #000; opacity: 1;">1</text><text text-anchor="end" transform="translate(-7,130.27272727272725)" style="font-family: sans-serif; font-size: 10px; fill: #000; opacity: 1;">2</text><text text-anchor="end" transform="translate(-7,93.90909090909092)" style="font-family: sans-serif; font-size: 10px; fill: #000; opacity: 1;">3</text><text text-anchor="end" transform="translate(-7,57.54545454545453)" style="font-family: sans-serif; font-size: 10px; fill: #000; opacity: 1;">4</text><text text-anchor="end" transform="translate(-7,21.181818181818187)" style="font-family: sans-serif; font-size: 10px; fill: #000; opacity: 1;">5</text></g><g class="mark-rule role-axis-domain" style="pointer-events: none;"><line transform="translate(0,200)" x2="0" y2="-200" style="fill: none; stroke: #888; stroke-width: 1; opacity: 1;"></line></g><g class="mark-text role-axis-title" style="pointer-events: none;"><text text-anchor="middle" transform="translate(-34,100) rotate(-90) translate(0,-2)" style="font-family: sans-serif; font-size: 11px; font-weight: bold; fill: #000; opacity: 1;">Mean of precipitation</text></g></g></g></g></g></g></g><g class="mark-group role-scope concat_1_group"><g transform="translate(0,267)"><path class="background" d="M0.5,0.5h200v200h-200Z" style="fill: none; stroke: #ddd;"></path><g><g class="mark-symbol role-mark concat_1_marks"><path transform="translate(116.66666666666666,122.22222222222223)" d="M9.5,0A9.5,9.5,0,1,1,-9.5,0A9.5,9.5,0,1,1,9.5,0" style="fill: none; stroke: #4c78a8; stroke-width: 2;"></path><path transform="translate(83.33333333333333,122.22222222222223)" d="M6.251771402513958,0A6.251771402513958,6.251771402513958,0,1,1,-6.251771402513958,0A6.251771402513958,6.251771402513958,0,1,1,6.251771402513958,0" style="fill: none; stroke: #4c78a8; stroke-width: 2;"></path><path transform="translate(83.33333333333333,144.44444444444446)" d="M7.726118908341158,0A7.726118908341158,7.726118908341158,0,1,1,-7.726118908341158,0A7.726118908341158,7.726118908341158,0,1,1,7.726118908341158,0" style="fill: none; stroke: #4c78a8; stroke-width: 2;"></path><path transform="translate(83.33333333333333,166.66666666666666)" d="M1.7882490446437518,0A1.7882490446437518,1.7882490446437518,0,1,1,-1.7882490446437518,0A1.7882490446437518,1.7882490446437518,0,1,1,1.7882490446437518,0" style="fill: none; stroke: #4c78a8; stroke-width: 2;"></path><path transform="translate(116.66666666666666,144.44444444444446)" d="M3.953967408529885,0A3.953967408529885,3.953967408529885,0,1,1,-3.953967408529885,0A3.953967408529885,3.953967408529885,0,1,1,3.953967408529885,0" style="fill: none; stroke: #4c78a8; stroke-width: 2;"></path><path transform="translate(49.99999999999999,144.44444444444446)" d="M3.6745024838659464,0A3.6745024838659464,3.6745024838659464,0,1,1,-3.6745024838659464,0A3.6745024838659464,3.6745024838659464,0,1,1,3.6745024838659464,0" style="fill: none; stroke: #4c78a8; stroke-width: 2;"></path><path transform="translate(49.99999999999999,166.66666666666666)" d="M3.097338201909484,0A3.097338201909484,3.097338201909484,0,1,1,-3.097338201909484,0A3.097338201909484,3.097338201909484,0,1,1,3.097338201909484,0" style="fill: none; stroke: #4c78a8; stroke-width: 2;"></path><path transform="translate(49.99999999999999,188.88888888888889)" d="M0.5960830148812506,0A0.5960830148812506,0.5960830148812506,0,1,1,-0.5960830148812506,0A0.5960830148812506,0.5960830148812506,0,1,1,0.5960830148812506,0" style="fill: none; stroke: #4c78a8; stroke-width: 2;"></path><path transform="translate(116.66666666666666,100)" d="M6.3364493646821725,0A6.3364493646821725,6.3364493646821725,0,1,1,-6.3364493646821725,0A6.3364493646821725,6.3364493646821725,0,1,1,6.3364493646821725,0" style="fill: none; stroke: #4c78a8; stroke-width: 2;"></path><path transform="translate(83.33333333333333,100)" d="M2.980415074406253,0A2.980415074406253,2.980415074406253,0,1,1,-2.980415074406253,0A2.980415074406253,2.980415074406253,0,1,1,2.980415074406253,0" style="fill: none; stroke: #4c78a8; stroke-width: 2;"></path><path transform="translate(116.66666666666666,77.77777777777779)" d="M4.2149434197265405,0A4.2149434197265405,4.2149434197265405,0,1,1,-4.2149434197265405,0A4.2149434197265405,4.2149434197265405,0,1,1,4.2149434197265405,0" style="fill: none; stroke: #4c78a8; stroke-width: 2;"></path><path transform="translate(83.33333333333333,77.77777777777779)" d="M0.5960830148812506,0A0.5960830148812506,0.5960830148812506,0,1,1,-0.5960830148812506,0A0.5960830148812506,0.5960830148812506,0,1,1,0.5960830148812506,0" style="fill: none; stroke: #4c78a8; stroke-width: 2;"></path><path transform="translate(150,122.22222222222223)" d="M3.097338201909484,0A3.097338201909484,3.097338201909484,0,1,1,-3.097338201909484,0A3.097338201909484,3.097338201909484,0,1,1,3.097338201909484,0" style="fill: none; stroke: #4c78a8; stroke-width: 2;"></path><path transform="translate(116.66666666666666,55.55555555555556)" d="M1.3328821415074952,0A1.3328821415074952,1.3328821415074952,0,1,1,-1.3328821415074952,0A1.3328821415074952,1.3328821415074952,0,1,1,1.3328821415074952,0" style="fill: none; stroke: #4c78a8; stroke-width: 2;"></path><path transform="translate(150,55.55555555555556)" d="M6.2801242527454235,0A6.2801242527454235,6.2801242527454235,0,1,1,-6.2801242527454235,0A6.2801242527454235,6.2801242527454235,0,1,1,6.2801242527454235,0" style="fill: none; stroke: #4c78a8; stroke-width: 2;"></path><path transform="translate(150,100)" d="M7.078093630972884,0A7.078093630972884,7.078093630972884,0,1,1,-7.078093630972884,0A7.078093630972884,7.078093630972884,0,1,1,7.078093630972884,0" style="fill: none; stroke: #4c78a8; stroke-width: 2;"></path><path transform="translate(150,77.77777777777779)" d="M7.749079193456258,0A7.749079193456258,7.749079193456258,0,1,1,-7.749079193456258,0A7.749079193456258,7.749079193456258,0,1,1,7.749079193456258,0" style="fill: none; stroke: #4c78a8; stroke-width: 2;"></path><path transform="translate(183.33333333333334,77.77777777777779)" d="M3.318849767544105,0A3.318849767544105,3.318849767544105,0,1,1,-3.318849767544105,0A3.318849767544105,3.318849767544105,0,1,1,3.318849767544105,0" style="fill: none; stroke: #4c78a8; stroke-width: 2;"></path><path transform="translate(183.33333333333334,55.55555555555556)" d="M4.693562352739667,0A4.693562352739667,4.693562352739667,0,1,1,-4.693562352739667,0A4.693562352739667,4.693562352739667,0,1,1,4.693562352739667,0" style="fill: none; stroke: #4c78a8; stroke-width: 2;"></path><path transform="translate(183.33333333333334,33.33333333333333)" d="M3.953967408529885,0A3.953967408529885,3.953967408529885,0,1,1,-3.953967408529885,0A3.953967408529885,3.953967408529885,0,1,1,3.953967408529885,0" style="fill: none; stroke: #4c78a8; stroke-width: 2;"></path><path transform="translate(150,33.33333333333333)" d="M2.4577132319920203,0A2.4577132319920203,2.4577132319920203,0,1,1,-2.4577132319920203,0A2.4577132319920203,2.4577132319920203,0,1,1,2.4577132319920203,0" style="fill: none; stroke: #4c78a8; stroke-width: 2;"></path><path transform="translate(183.33333333333334,100)" d="M1.4600992307988958,0A1.4600992307988958,1.4600992307988958,0,1,1,-1.4600992307988958,0A1.4600992307988958,1.4600992307988958,0,1,1,1.4600992307988958,0" style="fill: none; stroke: #4c78a8; stroke-width: 2;"></path><path transform="translate(16.666666666666664,166.66666666666666)" d="M0.842988683945308,0A0.842988683945308,0.842988683945308,0,1,1,-0.842988683945308,0A0.842988683945308,0.842988683945308,0,1,1,0.842988683945308,0" style="fill: none; stroke: #4c78a8; stroke-width: 2;"></path><path transform="translate(16.666666666666664,188.88888888888889)" d="M0.842988683945308,0A0.842988683945308,0.842988683945308,0,1,1,-0.842988683945308,0A0.842988683945308,0.842988683945308,0,1,1,0.842988683945308,0" style="fill: none; stroke: #4c78a8; stroke-width: 2;"></path><path transform="translate(183.33333333333334,11.111111111111114)" d="M0.842988683945308,0A0.842988683945308,0.842988683945308,0,1,1,-0.842988683945308,0A0.842988683945308,0.842988683945308,0,1,1,0.842988683945308,0" style="fill: none; stroke: #4c78a8; stroke-width: 2;"></path><path transform="translate(49.99999999999999,122.22222222222223)" d="M0.842988683945308,0A0.842988683945308,0.842988683945308,0,1,1,-0.842988683945308,0A0.842988683945308,0.842988683945308,0,1,1,0.842988683945308,0" style="fill: none; stroke: #4c78a8; stroke-width: 2;"></path></g><g class="mark-group role-axis"><g transform="translate(0.5,200.5)"><path class="background" d="M0,0h0v0h0Z" style="pointer-events: none; fill: none;"></path><g><g class="mark-rule role-axis-tick" style="pointer-events: none;"><line transform="translate(0,0)" x2="0" y2="5" style="fill: none; stroke: #888; stroke-width: 1; opacity: 1;"></line><line transform="translate(33,0)" x2="0" y2="5" style="fill: none; stroke: #888; stroke-width: 1; opacity: 1;"></line><line transform="translate(67,0)" x2="0" y2="5" style="fill: none; stroke: #888; stroke-width: 1; opacity: 1;"></line><line transform="translate(100,0)" x2="0" y2="5" style="fill: none; stroke: #888; stroke-width: 1; opacity: 1;"></line><line transform="translate(133,0)" x2="0" y2="5" style="fill: none; stroke: #888; stroke-width: 1; opacity: 1;"></line><line transform="translate(167,0)" x2="0" y2="5" style="fill: none; stroke: #888; stroke-width: 1; opacity: 1;"></line><line transform="translate(200,0)" x2="0" y2="5" style="fill: none; stroke: #888; stroke-width: 1; opacity: 1;"></line></g><g class="mark-text role-axis-label" style="pointer-events: none;"><text text-anchor="start" transform="translate(0,15)" style="font-family: sans-serif; font-size: 10px; fill: #000; opacity: 1;">-10</text><text text-anchor="middle" transform="translate(33.33333333333333,15)" style="font-family: sans-serif; font-size: 10px; fill: #000; opacity: 1;">-5</text><text text-anchor="middle" transform="translate(66.66666666666666,15)" style="font-family: sans-serif; font-size: 10px; fill: #000; opacity: 1;">0</text><text text-anchor="middle" transform="translate(100,15)" style="font-family: sans-serif; font-size: 10px; fill: #000; opacity: 1;">5</text><text text-anchor="middle" transform="translate(133.33333333333331,15)" style="font-family: sans-serif; font-size: 10px; fill: #000; opacity: 1;">10</text><text text-anchor="middle" transform="translate(166.66666666666669,15)" style="font-family: sans-serif; font-size: 10px; fill: #000; opacity: 1;">15</text><text text-anchor="end" transform="translate(200,15)" style="font-family: sans-serif; font-size: 10px; fill: #000; opacity: 1;">20</text></g><g class="mark-rule role-axis-domain" style="pointer-events: none;"><line transform="translate(0,0)" x2="200" y2="0" style="fill: none; stroke: #888; stroke-width: 1; opacity: 1;"></line></g><g class="mark-text role-axis-title" style="pointer-events: none;"><text text-anchor="middle" transform="translate(100,31)" style="font-family: sans-serif; font-size: 11px; font-weight: bold; fill: #000; opacity: 1;">temp_min (binned)</text></g></g></g></g><g class="mark-group role-axis"><g transform="translate(0.5,0.5)"><path class="background" d="M0,0h0v0h0Z" style="pointer-events: none; fill: none;"></path><g><g class="mark-rule role-axis-tick" style="pointer-events: none;"><line transform="translate(0,200)" x2="-5" y2="0" style="fill: none; stroke: #888; stroke-width: 1; opacity: 1;"></line><line transform="translate(0,178)" x2="-5" y2="0" style="fill: none; stroke: #888; stroke-width: 1; opacity: 1;"></line><line transform="translate(0,156)" x2="-5" y2="0" style="fill: none; stroke: #888; stroke-width: 1; opacity: 1;"></line><line transform="translate(0,133)" x2="-5" y2="0" style="fill: none; stroke: #888; stroke-width: 1; opacity: 1;"></line><line transform="translate(0,111)" x2="-5" y2="0" style="fill: none; stroke: #888; stroke-width: 1; opacity: 1;"></line><line transform="translate(0,89)" x2="-5" y2="0" style="fill: none; stroke: #888; stroke-width: 1; opacity: 1;"></line><line transform="translate(0,67)" x2="-5" y2="0" style="fill: none; stroke: #888; stroke-width: 1; opacity: 1;"></line><line transform="translate(0,44)" x2="-5" y2="0" style="fill: none; stroke: #888; stroke-width: 1; opacity: 1;"></line><line transform="translate(0,22)" x2="-5" y2="0" style="fill: none; stroke: #888; stroke-width: 1; opacity: 1;"></line><line transform="translate(0,0)" x2="-5" y2="0" style="fill: none; stroke: #888; stroke-width: 1; opacity: 1;"></line></g><g class="mark-text role-axis-label" style="pointer-events: none;"><text text-anchor="end" transform="translate(-7,203)" style="font-family: sans-serif; font-size: 10px; fill: #000; opacity: 1;">-5</text><text text-anchor="end" transform="translate(-7,180.77777777777777)" style="font-family: sans-serif; font-size: 10px; fill: #000; opacity: 1;">0</text><text text-anchor="end" transform="translate(-7,158.55555555555554)" style="font-family: sans-serif; font-size: 10px; fill: #000; opacity: 1;">5</text><text text-anchor="end" transform="translate(-7,136.33333333333334)" style="font-family: sans-serif; font-size: 10px; fill: #000; opacity: 1;">10</text><text text-anchor="end" transform="translate(-7,114.11111111111111)" style="font-family: sans-serif; font-size: 10px; fill: #000; opacity: 1;">15</text><text text-anchor="end" transform="translate(-7,91.88888888888889)" style="font-family: sans-serif; font-size: 10px; fill: #000; opacity: 1;">20</text><text text-anchor="end" transform="translate(-7,69.66666666666669)" style="font-family: sans-serif; font-size: 10px; fill: #000; opacity: 1;">25</text><text text-anchor="end" transform="translate(-7,47.44444444444443)" style="font-family: sans-serif; font-size: 10px; fill: #000; opacity: 1;">30</text><text text-anchor="end" transform="translate(-7,25.22222222222223)" style="font-family: sans-serif; font-size: 10px; fill: #000; opacity: 1;">35</text><text text-anchor="end" transform="translate(-7,3)" style="font-family: sans-serif; font-size: 10px; fill: #000; opacity: 1;">40</text></g><g class="mark-rule role-axis-domain" style="pointer-events: none;"><line transform="translate(0,200)" x2="0" y2="-200" style="fill: none; stroke: #888; stroke-width: 1; opacity: 1;"></line></g><g class="mark-text role-axis-title" style="pointer-events: none;"><text text-anchor="middle" transform="translate(-34,100) rotate(-90) translate(0,-2)" style="font-family: sans-serif; font-size: 11px; font-weight: bold; fill: #000; opacity: 1;">temp_max (binned)</text></g></g></g></g></g></g></g><g class="mark-group role-legend"><g transform="translate(271,0)"><path class="background" d="M0,0h150v114h-150Z" style="pointer-events: none; fill: none;"></path><g><g class="mark-group role-legend-entry"><g transform="translate(0,16)"><path class="background" d="M0,0h0v0h0Z" style="pointer-events: none; fill: none;"></path><g><g class="mark-group role-scope"><g transform="translate(0,0)"><path class="background" d="M0,0h50v11h-50Z" style="pointer-events: none; fill: none; opacity: 1;"></path><g><g class="mark-symbol role-legend-symbol" style="pointer-events: none;"><path transform="translate(10.5,5)" d="M4.2149434197265405,0A4.2149434197265405,4.2149434197265405,0,1,1,-4.2149434197265405,0A4.2149434197265405,4.2149434197265405,0,1,1,4.2149434197265405,0" style="fill: none; stroke: #4c78a8; stroke-width: 1.5; opacity: 1;"></path></g><g class="mark-text role-legend-label" style="pointer-events: none;"><text text-anchor="start" transform="translate(25,8)" style="font-family: sans-serif; font-size: 10px; fill: #000; opacity: 1;">50</text></g></g></g><g transform="translate(0,14)"><path class="background" d="M0,0h50v14.460830148812505h-50Z" style="pointer-events: none; fill: none; opacity: 1;"></path><g><g class="mark-symbol role-legend-symbol" style="pointer-events: none;"><path transform="translate(10.5,7)" d="M5.960830148812506,0A5.960830148812506,5.960830148812506,0,1,1,-5.960830148812506,0A5.960830148812506,5.960830148812506,0,1,1,5.960830148812506,0" style="fill: none; stroke: #4c78a8; stroke-width: 1.5; opacity: 1;"></path></g><g class="mark-text role-legend-label" style="pointer-events: none;"><text text-anchor="start" transform="translate(25,10)" style="font-family: sans-serif; font-size: 10px; fill: #000; opacity: 1;">100</text></g></g></g><g transform="translate(0,32)"><path class="background" d="M0,0h50v17.30049615399448h-50Z" style="pointer-events: none; fill: none; opacity: 1;"></path><g><g class="mark-symbol role-legend-symbol" style="pointer-events: none;"><path transform="translate(10.5,8.5)" d="M7.300496153994479,0A7.300496153994479,7.300496153994479,0,1,1,-7.300496153994479,0A7.300496153994479,7.300496153994479,0,1,1,7.300496153994479,0" style="fill: none; stroke: #4c78a8; stroke-width: 1.5; opacity: 1;"></path></g><g class="mark-text role-legend-label" style="pointer-events: none;"><text text-anchor="start" transform="translate(25,11.5)" style="font-family: sans-serif; font-size: 10px; fill: #000; opacity: 1;">150</text></g></g></g><g transform="translate(0,53)"><path class="background" d="M0,0h50v19.429886839453076h-50Z" style="pointer-events: none; fill: none; opacity: 1;"></path><g><g class="mark-symbol role-legend-symbol" style="pointer-events: none;"><path transform="translate(10.5,9.5)" d="M8.429886839453081,0A8.429886839453081,8.429886839453081,0,1,1,-8.429886839453081,0A8.429886839453081,8.429886839453081,0,1,1,8.429886839453081,0" style="fill: none; stroke: #4c78a8; stroke-width: 1.5; opacity: 1;"></path></g><g class="mark-text role-legend-label" style="pointer-events: none;"><text text-anchor="start" transform="translate(25,12.5)" style="font-family: sans-serif; font-size: 10px; fill: #000; opacity: 1;">200</text></g></g></g><g transform="translate(0,76)"><path class="background" d="M0,0h50v21.424900007823965h-50Z" style="pointer-events: none; fill: none; opacity: 1;"></path><g><g class="mark-symbol role-legend-symbol" style="pointer-events: none;"><path transform="translate(10.5,10.5)" d="M9.424900007823972,0A9.424900007823972,9.424900007823972,0,1,1,-9.424900007823972,0A9.424900007823972,9.424900007823972,0,1,1,9.424900007823972,0" style="fill: none; stroke: #4c78a8; stroke-width: 1.5; opacity: 1;"></path></g><g class="mark-text role-legend-label" style="pointer-events: none;"><text text-anchor="start" transform="translate(25,13.5)" style="font-family: sans-serif; font-size: 10px; fill: #000; opacity: 1;">250</text></g></g></g></g></g></g></g><g class="mark-text role-legend-title" style="pointer-events: none;"><text text-anchor="start" transform="translate(0,9)" style="font-family: sans-serif; font-size: 11px; font-weight: bold; fill: #000; opacity: 1;">Number of Records</text></g></g></g></g></g></g></g></g></svg>