<svg class="marks" width="458" height="514" viewBox="0 0 458 514" version="1.1" xmlns="http://www.w3.org/2000/svg" xmlns:xlink="http://www.w3.org/1999/xlink"><g transform="translate(53,6)"><g class="mark-group role-frame root"><g transform="translate(0,0)"><path class="background" d="M0,0h0v0h0Z" style="fill: none;"></path><g><g class="mark-group role-scope concat_0_group"><g transform="translate(0,0)"><path class="background" d="M0.5,0.5h240v200h-240Z" style="fill: none; stroke: #ddd;"></path><g><g class="mark-group role-axis"><g transform="translate(0.5,0.5)"><path class="background" d="M0,0h0v0h0Z" style="pointer-events: none; fill: none;"></path><g><g class="mark-rule role-axis-grid" style="pointer-events: none;"><line transform="translate(0,200)" x2="240" y2="0" style="fill: none; stroke: #ddd; stroke-width: 1; opacity: 1;"></line><line transform="translate(0,164)" x2="240" y2="0" style="fill: none; stroke: #ddd; stroke-width: 1; opacity: 1;"></line><line transform="translate(0,127)" x2="240" y2="0" style="fill: none; stroke: #ddd; stroke-width: 1; opacity: 1;"></line><line transform="translate(0,91)" x2="240" y2="0" style="fill: none; stroke: #ddd; stroke-width: 1; opacity: 1;"></line><line transform="translate(0,55)" x2="240" y2="0" style="fill: none; stroke: #ddd; stroke-width: 1; opacity: 1;"></line><line transform="translate(0,18)" x2="240" y2="0" style="fill: none; stroke: #ddd; stroke-width: 1; opacity: 1;"></line></g></g></g></g><g class="mark-rect role-mark concat_0_marks"><path d="M221,23.04985337243403h18v176.95014662756597h-18Z" style="fill: #4c78a8;"></path><path d="M1,58.26979472140758h18v141.73020527859242h-18Z" style="fill: #4c78a8;"></path><path d="M21,68.2864038616251h18v131.7135961383749h-18Z" style="fill: #4c78a8;"></path><path d="M41,21.642228739002945h18v178.35777126099705h-18Z" style="fill: #4c78a8;"></path><path d="M61,88.0909090909091h18v111.9090909090909h-18Z" style="fill: #4c78a8;"></path><path d="M81,136.0117302052786h18v63.98826979472139h-18Z" style="fill: #4c78a8;"></path><path d="M101,163.1212121212121h18v36.878787878787904h-18Z" style="fill: #4c78a8;"></path><path d="M121,185.8651026392962h18v14.134897360703803h-18Z" style="fill: #4c78a8;"></path><path d="M141,150.2932551319648h18v49.7067448680352h-18Z" style="fill: #4c78a8;"></path><path d="M161,127.99999999999999h18v72.00000000000001h-18Z" style="fill: #4c78a8;"></path><path d="M181,43.78299120234607h18v156.21700879765393h-18Z" style="fill: #4c78a8;"></path><path d="M201,10.727272727272776h18v189.27272727272722h-18Z" style="fill: #4c78a8;"></path></g><g class="mark-group role-axis"><g transform="translate(0.5,200.5)"><path class="background" d="M0,0h0v0h0Z" style="pointer-events: none; fill: none;"></path><g><g class="mark-rule role-axis-tick" style="pointer-events: none;"><line transform="translate(9,0)" x2="0" y2="5" style="fill: none; stroke: #888; stroke-width: 1; opacity: 1;"></line><line transform="translate(29,0)" x2="0" y2="5" style="fill: none; stroke: #888; stroke-width: 1; opacity: 1;"></line><line transform="translate(49,0)" x2="0" y2="5" style="fill: none; stroke: #888; stroke-width: 1; opacity: 1;"></line><line transform="translate(69,0)" x2="0" y2="5" style="fill: none; stroke: #888; stroke-width: 1; opacity: 1;"></line><line transform="translate(89,0)" x2="0" y2="5" style="fill: none; stroke: #888; stroke-width: 1; opacity: 1;"></line><line transform="translate(109,0)" x2="0" y2="5" style="fill: none; stroke: #888; stroke-width: 1; opacity: 1;"></line><line transform="translate(129,0)" x2="0" y2="5" style="fill: none; stroke: #888; stroke-width: 1; opacity: 1;"></line><line transform="translate(149,0)" x2="0" y2="5" style="fill: none; stroke: #888; stroke-width: 1; opacity: 1;"></line><line transform="translate(169,0)" x2="0" y2="5" style="fill: none; stroke: #888; stroke-width: 1; opacity: 1;"></line><line transform="translate(189,0)" x2="0" y2="5" style="fill: none; stroke: #888; stroke-width: 1; opacity: 1;"></line><line transform="translate(209,0)" x2="0" y2="5" style="fill: none; stroke: #888; stroke-width: 1; opacity: 1;"></line><line transform="translate(229,0)" x2="0" y2="5" style="fill: none; stroke: #888; stroke-width: 1; opacity: 1;"></line></g><g class="mark-text role-axis-label" style="pointer-events: none;"><text text-anchor="end" transform="translate(9,7) rotate(270) translate(0,3)" style="font-family: sans-serif; font-size: 10px; fill: #000; opacity: 1;">Jan</text><text text-anchor="end" transform="translate(29,7) rotate(270) translate(0,3)" style="font-family: sans-serif; font-size: 10px; fill: #000; opacity: 1;">Feb</text><text text-anchor="end" transform="translate(49,7) rotate(270) translate(0,3)" style="font-family: sans-serif; font-size: 10px; fill: #000; opacity: 1;">Mar</text><text text-anchor="end" transform="translate(69,7) rotate(270) translate(0,3)" style="font-family: sans-serif; font-size: 10px; fill: #000; opacity: 1;">Apr</text><text text-anchor="end" transform="translate(89,7) rotate(270) translate(0,3)" style="font-family: sans-serif; font-size: 10px; fill: #000; opacity: 1;">May</text><text text-anchor="end" transform="translate(109,7) rotate(270) translate(0,3)" style="font-family: sans-serif; font-size: 10px; fill: #000; opacity: 1;">Jun</text><text text-anchor="end" transform="translate(129,7) rotate(270) translate(0,3)" style="font-family: sans-serif; font-size: 10px; fill: #000; opacity: 1;">Jul</text><text text-anchor="end" transform="translate(149,7) rotate(270) translate(0,3)" style="font-family: sans-serif; font-size: 10px; fill: #000; opacity: 1;">Aug</text><text text-anchor="end" transform="translate(169,7) rotate(270) translate(0,3)" style="font-family: sans-serif; font-size: 10px; fill: #000; opacity: 1;">Sep</text><text text-anchor="end" transform="translate(189,7) rotate(270) translate(0,3)" style="font-family: sans-serif; font-size: 10px; fill: #000; opacity: 1;">Oct</text><text text-anchor="end" transform="translate(209,7) rotate(270) translate(0,3)" style="font-family: sans-serif; font-size: 10px; fill: #000; opacity: 1;">Nov</text><text text-anchor="end" transform="translate(229,7) rotate(270) translate(0,3)" style="font-family: sans-serif; font-size: 10px; fill: #000; opacity: 1;">Dec</text></g><g class="mark-rule role-axis-domain" style="pointer-events: none;"><line transform="translate(0,0)" x2="240" y2="0" style="fill: none; stroke: #888; stroke-width: 1; opacity: 1;"></line></g><g class="mark-text role-axis-title" style="pointer-events: none;"><text text-anchor="middle" transform="translate(120,45)" style="font-family: sans-serif; font-size: 11px; font-weight: bold; fill: #000; opacity: 1;">date (month)</text></g></g></g></g><g class="mark-group role-axis"><g transform="translate(0.5,0.5)"><path class="background" d="M0,0h0v0h0Z" style="pointer-events: none; fill: none;"></path><g><g class="mark-rule role-axis-tick" style="pointer-events: none;"><line transform="translate(0,200)" x2="-5" y2="0" style="fill: none; stroke: #888; stroke-width: 1; opacity: 1;"></line><line transform="translate(0,164)" x2="-5" y2="0" style="fill: none; stroke: #888; stroke-width: 1; opacity: 1;"></line><line transform="translate(0,127)" x2="-5" y2="0" style="fill: none; stroke: #888; stroke-width: 1; opacity: 1;"></line><line transform="translate(0,91)" x2="-5" y2="0" style="fill: none; stroke: #888; stroke-width: 1; opacity: 1;"></line><line transform="translate(0,55)" x2="-5" y2="0" style="fill: none; stroke: #888; stroke-width: 1; opacity: 1;"></line><line transform="translate(0,18)" x2="-5" y2="0" style="fill: none; stroke: #888; stroke-width: 1; opacity: 1;"></line></g><g class="mark-text role-axis-label" style="pointer-events: none;"><text text-anchor="end" transform="translate(-7,203)" style="font-family: sans-serif; font-size: 10px; fill: #000; opacity: 1;">0</text><text text-anchor="end" transform="translate(-7,166.63636363636363)" style="font-family: sans-serif; font-size: 10px; fill: #000; opacity: 1;">1</text><text text-anchor="end" transform="translate(-7,130.27272727272725)" style="font-family: sans-serif; font-size: 10px; fill: #000; opacity: 1;">2</text><text text-anchor="end" transform="translate(-7,93.90909090909092)" style="font-family: sans-serif; font-size: 10px; fill: #000; opacity: 1;">3</text><text text-anchor="end" transform="translate(-7,57.54545454545453)" style="font-family: sans-serif; font-size: 10px; fill: #000; opacity: 1;">4</text><text text-anchor="end" transform="translate(-7,21.181818181818187)" style="font-family: sans-serif; font-size: 10px; fill: #000; opacity: 1;">5</text></g><g class="mark-rule role-axis-domain" style="pointer-events: none;"><line transform="translate(0,200)" x2="0" y2="-200" style="fill: none; stroke: #888; stroke-width: 1; opacity: 1;"></line></g><g class="mark-text role-axis-title" style="pointer-events: none;"><text text-anchor="middle" transform="translate(-34,100) rotate(-90) translate(0,-2)" style="font-family: sans-serif; font-size: 11px; font-weight: bold; fill: #000; opacity: 1;">Mean of precipitation</text></g></g></g></g></g></g></g><g class="mark-group role-scope concat_1_group"><g transform="translate(0,267)"><path class="background" d="M0.5,0.5h200v200h-200Z" style="fill: none; stroke: #ddd;"></path><g><g class="mark-symbol role-mark concat_1_marks"><path transform="translate(116.66666666666667,122.22222222222221)" d="M9,0A9,9,0,1,1,-9,0A9,9,0,1,1,9,0" style="fill: none; stroke: #4c78a8; stroke-width: 2;"></path><path transform="translate(83.33333333333334,122.22222222222221)" d="M5.922730802381644,0A5.922730802381644,5.922730802381644,0,1,1,-5.922730802381644,0A5.922730802381644,5.922730802381644,0,1,1,5.922730802381644,0" style="fill: none; stroke: #4c78a8; stroke-width: 2;"></path><path transform="translate(83.33333333333334,144.44444444444446)" d="M7.319481071060045,0A7.319481071060045,7.319481071060045,0,1,1,-7.319481071060045,0A7.319481071060045,7.319481071060045,0,1,1,7.319481071060045,0" style="fill: none; stroke: #4c78a8; stroke-width: 2;"></path><path transform="translate(83.33333333333334,166.66666666666669)" d="M1.694130673873028,0A1.694130673873028,1.694130673873028,0,1,1,-1.694130673873028,0A1.694130673873028,1.694130673873028,0,1,1,1.694130673873028,0" style="fill: none; stroke: #4c78a8; stroke-width: 2;"></path><path transform="translate(116.66666666666667,144.44444444444446)" d="M3.7458638607125225,0A3.7458638607125225,3.7458638607125225,0,1,1,-3.7458638607125225,0A3.7458638607125225,3.7458638607125225,0,1,1,3.7458638607125225,0" style="fill: none; stroke: #4c78a8; stroke-width: 2;"></path><path transform="translate(50,144.44444444444446)" d="M3.4811076162940546,0A3.4811076162940546,3.4811076162940546,0,1,1,-3.4811076162940546,0A3.4811076162940546,3.4811076162940546,0,1,1,3.4811076162940546,0" style="fill: none; stroke: #4c78a8; stroke-width: 2;"></path><path transform="translate(50,166.66666666666669)" d="M2.934320401808985,0A2.934320401808985,2.934320401808985,0,1,1,-2.934320401808985,0A2.934320401808985,2.934320401808985,0,1,1,2.934320401808985,0" style="fill: none; stroke: #4c78a8; stroke-width: 2;"></path><path transform="translate(50,188.88888888888889)" d="M0.5647102246243427,0A0.5647102246243427,0.5647102246243427,0,1,1,-0.5647102246243427,0A0.5647102246243427,0.5647102246243427,0,1,1,0.5647102246243427,0" style="fill: none; stroke: #4c78a8; stroke-width: 2;"></path><path transform="translate(116.66666666666667,100)" d="M6.0029520296989,0A6.0029520296989,6.0029520296989,0,1,1,-6.0029520296989,0A6.0029520296989,6.0029520296989,0,1,1,6.0029520296989,0" style="fill: none; stroke: #4c78a8; stroke-width: 2;"></path><path transform="translate(83.33333333333334,100)" d="M2.8235511231217134,0A2.8235511231217134,2.8235511231217134,0,1,1,-2.8235511231217134,0A2.8235511231217134,2.8235511231217134,0,1,1,2.8235511231217134,0" style="fill: none; stroke: #4c78a8; stroke-width: 2;"></path><path transform="translate(116.66666666666667,77.77777777777777)" d="M3.993104292372512,0A3.993104292372512,3.993104292372512,0,1,1,-3.993104292372512,0A3.993104292372512,3.993104292372512,0,1,1,3.993104292372512,0" style="fill: none; stroke: #4c78a8; stroke-width: 2;"></path><path transform="translate(83.33333333333334,77.77777777777777)" d="M0.5647102246243427,0A0.5647102246243427,0.5647102246243427,0,1,1,-0.5647102246243427,0A0.5647102246243427,0.5647102246243427,0,1,1,0.5647102246243427,0" style="fill: none; stroke: #4c78a8; stroke-width: 2;"></path><path transform="translate(150,122.22222222222221)" d="M2.934320401808985,0A2.934320401808985,2.934320401808985,0,1,1,-2.934320401808985,0A2.934320401808985,2.934320401808985,0,1,1,2.934320401808985,0" style="fill: none; stroke: #4c78a8; stroke-width: 2;"></path><path transform="translate(116.66666666666667,55.55555555555557)" d="M1.262730449849206,0A1.262730449849206,1.262730449849206,0,1,1,-1.262730449849206,0A1.262730449849206,1.262730449849206,0,1,1,1.262730449849206,0" style="fill: none; stroke: #4c78a8; stroke-width: 2;"></path><path transform="translate(150,55.55555555555557)" d="M5.94959139733777,0A5.94959139733777,5.94959139733777,0,1,1,-5.94959139733777,0A5.94959139733777,5.94959139733777,0,1,1,5.94959139733777,0" style="fill: none; stroke: #4c78a8; stroke-width: 2;"></path><path transform="translate(150,100)" d="M6.705562387237468,0A6.705562387237468,6.705562387237468,0,1,1,-6.705562387237468,0A6.705562387237468,6.705562387237468,0,1,1,6.705562387237468,0" style="fill: none; stroke: #4c78a8; stroke-width: 2;"></path><path transform="translate(150,77.77777777777777)" d="M7.341232920116456,0A7.341232920116456,7.341232920116456,0,1,1,-7.341232920116456,0A7.341232920116456,7.341232920116456,0,1,1,7.341232920116456,0" style="fill: none; stroke: #4c78a8; stroke-width: 2;"></path><path transform="translate(183.33333333333331,77.77777777777777)" d="M3.1441734639891523,0A3.1441734639891523,3.1441734639891523,0,1,1,-3.1441734639891523,0A3.1441734639891523,3.1441734639891523,0,1,1,3.1441734639891523,0" style="fill: none; stroke: #4c78a8; stroke-width: 2;"></path><path transform="translate(183.33333333333331,55.55555555555557)" d="M4.446532755227053,0A4.446532755227053,4.446532755227053,0,1,1,-4.446532755227053,0A4.446532755227053,4.446532755227053,0,1,1,4.446532755227053,0" style="fill: none; stroke: #4c78a8; stroke-width: 2;"></path><path transform="translate(183.33333333333331,33.333333333333314)" d="M3.7458638607125225,0A3.7458638607125225,3.7458638607125225,0,1,1,-3.7458638607125225,0A3.7458638607125225,3.7458638607125225,0,1,1,3.7458638607125225,0" style="fill: none; stroke: #4c78a8; stroke-width: 2;"></path><path transform="translate(150,33.333333333333314)" d="M2.3283599039924403,0A2.3283599039924403,2.3283599039924403,0,1,1,-2.3283599039924403,0A2.3283599039924403,2.3283599039924403,0,1,1,2.3283599039924403,0" style="fill: none; stroke: #4c78a8; stroke-width: 2;"></path><path transform="translate(183.33333333333331,100)" d="M1.383251902862112,0A1.383251902862112,1.383251902862112,0,1,1,-1.383251902862112,0A1.383251902862112,1.383251902862112,0,1,1,1.383251902862112,0" style="fill: none; stroke: #4c78a8; stroke-width: 2;"></path><path transform="translate(16.666666666666664,166.66666666666669)" d="M0.7986208584745024,0A0.7986208584745024,0.7986208584745024,0,1,1,-0.7986208584745024,0A0.7986208584745024,0.7986208584745024,0,1,1,0.7986208584745024,0" style="fill: none; stroke: #4c78a8; stroke-width: 2;"></path><path transform="translate(16.666666666666664,188.88888888888889)" d="M0.7986208584745024,0A0.7986208584745024,0.7986208584745024,0,1,1,-0.7986208584745024,0A0.7986208584745024,0.7986208584745024,0,1,1,0.7986208584745024,0" style="fill: none; stroke: #4c78a8; stroke-width: 2;"></path><path transform="translate(183.33333333333331,11.111111111111114)" d="M0.7986208584745024,0A0.7986208584745024,0.7986208584745024,0,1,1,-0.7986208584745024,0A0.7986208584745024,0.7986208584745024,0,1,1,0.7986208584745024,0" style="fill: none; stroke: #4c78a8; stroke-width: 2;"></path><path transform="translate(50,122.22222222222221)" d="M0.7986208584745024,0A0.7986208584745024,0.7986208584745024,0,1,1,-0.7986208584745024,0A0.7986208584745024,0.7986208584745024,0,1,1,0.7986208584745024,0" style="fill: none; stroke: #4c78a8; stroke-width: 2;"></path></g><g class="mark-group role-axis"><g transform="translate(0.5,200.5)"><path class="background" d="M0,0h0v0h0Z" style="pointer-events: none; fill: none;"></path><g><g class="mark-rule role-axis-tick" style="pointer-events: none;"><line transform="translate(0,0)" x2="0" y2="5" style="fill: none; stroke: #888; stroke-width: 1; opacity: 1;"></line><line transform="translate(33,0)" x2="0" y2="5" style="fill: none; stroke: #888; stroke-width: 1; opacity: 1;"></line><line transform="translate(67,0)" x2="0" y2="5" style="fill: none; stroke: #888; stroke-width: 1; opacity: 1;"></line><line transform="translate(100,0)" x2="0" y2="5" style="fill: none; stroke: #888; stroke-width: 1; opacity: 1;"></line><line transform="translate(133,0)" x2="0" y2="5" style="fill: none; stroke: #888; stroke-width: 1; opacity: 1;"></line><line transform="translate(167,0)" x2="0" y2="5" style="fill: none; stroke: #888; stroke-width: 1; opacity: 1;"></line><line transform="translate(200,0)" x2="0" y2="5" style="fill: none; stroke: #888; stroke-width: 1; opacity: 1;"></line></g><g class="mark-text role-axis-label" style="pointer-events: none;"><text text-anchor="start" transform="translate(0,15)" style="font-family: sans-serif; font-size: 10px; fill: #000; opacity: 1;">-10</text><text text-anchor="middle" transform="translate(33.33333333333333,15)" style="font-family: sans-serif; font-size: 10px; fill: #000; opacity: 1;">-5</text><text text-anchor="middle" transform="translate(66.66666666666666,15)" style="font-family: sans-serif; font-size: 10px; fill: #000; opacity: 1;">0</text><text text-anchor="middle" transform="translate(100,15)" style="font-family: sans-serif; font-size: 10px; fill: #000; opacity: 1;">5</text><text text-anchor="middle" transform="translate(133.33333333333331,15)" style="font-family: sans-serif; font-size: 10px; fill: #000; opacity: 1;">10</text><text text-anchor="middle" transform="translate(166.66666666666669,15)" style="font-family: sans-serif; font-size: 10px; fill: #000; opacity: 1;">15</text><text text-anchor="end" transform="translate(200,15)" style="font-family: sans-serif; font-size: 10px; fill: #000; opacity: 1;">20</text></g><g class="mark-rule role-axis-domain" style="pointer-events: none;"><line transform="translate(0,0)" x2="200" y2="0" style="fill: none; stroke: #888; stroke-width: 1; opacity: 1;"></line></g><g class="mark-text role-axis-title" style="pointer-events: none;"><text text-anchor="middle" transform="translate(100,31)" style="font-family: sans-serif; font-size: 11px; font-weight: bold; fill: #000; opacity: 1;">temp_min (binned)</text></g></g></g></g><g class="mark-group role-axis"><g transform="translate(0.5,0.5)"><path class="background" d="M0,0h0v0h0Z" style="pointer-events: none; fill: none;"></path><g><g class="mark-rule role-axis-tick" style="pointer-events: none;"><line transform="translate(0,200)" x2="-5" y2="0" style="fill: none; stroke: #888; stroke-width: 1; opacity: 1;"></line><line transform="translate(0,178)" x2="-5" y2="0" style="fill: none; stroke: #888; stroke-width: 1; opacity: 1;"></line><line transform="translate(0,156)" x2="-5" y2="0" style="fill: none; stroke: #888; stroke-width: 1; opacity: 1;"></line><line transform="translate(0,133)" x2="-5" y2="0" style="fill: none; stroke: #888; stroke-width: 1; opacity: 1;"></line><line transform="translate(0,111)" x2="-5" y2="0" style="fill: none; stroke: #888; stroke-width: 1; opacity: 1;"></line><line transform="translate(0,89)" x2="-5" y2="0" style="fill: none; stroke: #888; stroke-width: 1; opacity: 1;"></line><line transform="translate(0,67)" x2="-5" y2="0" style="fill: none; stroke: #888; stroke-width: 1; opacity: 1;"></line><line transform="translate(0,44)" x2="-5" y2="0" style="fill: none; stroke: #888; stroke-width: 1; opacity: 1;"></line><line transform="translate(0,22)" x2="-5" y2="0" style="fill: none; stroke: #888; stroke-width: 1; opacity: 1;"></line><line transform="translate(0,0)" x2="-5" y2="0" style="fill: none; stroke: #888; stroke-width: 1; opacity: 1;"></line></g><g class="mark-text role-axis-label" style="pointer-events: none;"><text text-anchor="end" transform="translate(-7,203)" style="font-family: sans-serif; font-size: 10px; fill: #000; opacity: 1;">-5</text><text text-anchor="end" transform="translate(-7,180.77777777777777)" style="font-family: sans-serif; font-size: 10px; fill: #000; opacity: 1;">0</text><text text-anchor="end" transform="translate(-7,158.55555555555554)" style="font-family: sans-serif; font-size: 10px; fill: #000; opacity: 1;">5</text><text text-anchor="end" transform="translate(-7,136.33333333333334)" style="font-family: sans-serif; font-size: 10px; fill: #000; opacity: 1;">10</text><text text-anchor="end" transform="translate(-7,114.11111111111111)" style="font-family: sans-serif; font-size: 10px; fill: #000; opacity: 1;">15</text><text text-anchor="end" transform="translate(-7,91.88888888888889)" style="font-family: sans-serif; font-size: 10px; fill: #000; opacity: 1;">20</text><text text-anchor="end" transform="translate(-7,69.66666666666669)" style="font-family: sans-serif; font-size: 10px; fill: #000; opacity: 1;">25</text><text text-anchor="end" transform="translate(-7,47.44444444444443)" style="font-family: sans-serif; font-size: 10px; fill: #000; opacity: 1;">30</text><text text-anchor="end" transform="translate(-7,25.22222222222223)" style="font-family: sans-serif; font-size: 10px; fill: #000; opacity: 1;">35</text><text text-anchor="end" transform="translate(-7,3)" style="font-family: sans-serif; font-size: 10px; fill: #000; opacity: 1;">40</text></g><g class="mark-rule role-axis-domain" style="pointer-events: none;"><line transform="translate(0,200)" x2="0" y2="-200" style="fill: none; stroke: #888; stroke-width: 1; opacity: 1;"></line></g><g class="mark-text role-axis-title" style="pointer-events: none;"><text text-anchor="middle" transform="translate(-34,100) rotate(-90) translate(0,-2)" style="font-family: sans-serif; font-size: 11px; font-weight: bold; fill: #000; opacity: 1;">temp_max (binned)</text></g></g></g></g></g></g></g><g class="mark-group role-legend"><g transform="translate(259,0)"><path class="background" d="M0,0h141v110h-141Z" style="pointer-events: none; fill: none;"></path><g><g class="mark-group role-legend-entry"><g transform="translate(0,16)"><path class="background" d="M0,0h0v0h0Z" style="pointer-events: none; fill: none;"></path><g><g class="mark-group role-scope"><g transform="translate(0,0)"><path class="background" d="M0,0h49v11h-49Z" style="pointer-events: none; fill: none; opacity: 1;"></path><g><g class="mark-symbol role-legend-symbol" style="pointer-events: none;"><path transform="translate(10,5)" d="M3.993104292372512,0A3.993104292372512,3.993104292372512,0,1,1,-3.993104292372512,0A3.993104292372512,3.993104292372512,0,1,1,3.993104292372512,0" style="fill: none; stroke: #4c78a8; stroke-width: 1.5; opacity: 1;"></path></g><g class="mark-text role-legend-label" style="pointer-events: none;"><text text-anchor="start" transform="translate(24,8)" style="font-family: sans-serif; font-size: 10px; fill: #000; opacity: 1;">50</text></g></g></g><g transform="translate(0,14)"><path class="background" d="M0,0h49v13.647102246243428h-49Z" style="pointer-events: none; fill: none; opacity: 1;"></path><g><g class="mark-symbol role-legend-symbol" style="pointer-events: none;"><path transform="translate(10,6.5)" d="M5.647102246243427,0A5.647102246243427,5.647102246243427,0,1,1,-5.647102246243427,0A5.647102246243427,5.647102246243427,0,1,1,5.647102246243427,0" style="fill: none; stroke: #4c78a8; stroke-width: 1.5; opacity: 1;"></path></g><g class="mark-text role-legend-label" style="pointer-events: none;"><text text-anchor="start" transform="translate(24,9.5)" style="font-family: sans-serif; font-size: 10px; fill: #000; opacity: 1;">100</text></g></g></g><g transform="translate(0,31)"><path class="background" d="M0,0h49v16.41625951431056h-49Z" style="pointer-events: none; fill: none; opacity: 1;"></path><g><g class="mark-symbol role-legend-symbol" style="pointer-events: none;"><path transform="translate(10,8)" d="M6.91625951431056,0A6.91625951431056,6.91625951431056,0,1,1,-6.91625951431056,0A6.91625951431056,6.91625951431056,0,1,1,6.91625951431056,0" style="fill: none; stroke: #4c78a8; stroke-width: 1.5; opacity: 1;"></path></g><g class="mark-text role-legend-label" style="pointer-events: none;"><text text-anchor="start" transform="translate(24,11)" style="font-family: sans-serif; font-size: 10px; fill: #000; opacity: 1;">150</text></g></g></g><g transform="translate(0,51)"><path class="background" d="M0,0h49v18.48620858474503h-49Z" style="pointer-events: none; fill: none; opacity: 1;"></path><g><g class="mark-symbol role-legend-symbol" style="pointer-events: none;"><path transform="translate(10,9)" d="M7.986208584745024,0A7.986208584745024,7.986208584745024,0,1,1,-7.986208584745024,0A7.986208584745024,7.986208584745024,0,1,1,7.986208584745024,0" style="fill: none; stroke: #4c78a8; stroke-width: 1.5; opacity: 1;"></path></g><g class="mark-text role-legend-label" style="pointer-events: none;"><text text-anchor="start" transform="translate(24,12)" style="font-family: sans-serif; font-size: 10px; fill: #000; opacity: 1;">200</text></g></g></g><g transform="translate(0,73)"><path class="background" d="M0,0h49v20.42885263899113h-49Z" style="pointer-events: none; fill: none; opacity: 1;"></path><g><g class="mark-symbol role-legend-symbol" style="pointer-events: none;"><path transform="translate(10,10)" d="M8.928852638991133,0A8.928852638991133,8.928852638991133,0,1,1,-8.928852638991133,0A8.928852638991133,8.928852638991133,0,1,1,8.928852638991133,0" style="fill: none; stroke: #4c78a8; stroke-width: 1.5; opacity: 1;"></path></g><g class="mark-text role-legend-label" style="pointer-events: none;"><text text-anchor="start" transform="translate(24,13)" style="font-family: sans-serif; font-size: 10px; fill: #000; opacity: 1;">250</text></g></g></g></g></g></g></g><g class="mark-text role-legend-title" style="pointer-events: none;"><text text-anchor="start" transform="translate(0,9)" style="font-family: sans-serif; font-size: 11px; font-weight: bold; fill: #000; opacity: 1;">Count of Records</text></g></g></g></g></g></g></g></g></svg>