<svg class="marks" width="935" height="432" viewBox="0 0 935 432" version="1.1" xmlns="http://www.w3.org/2000/svg" xmlns:xlink="http://www.w3.org/1999/xlink"><rect width="935" height="432" style="fill: white;"></rect><g transform="translate(30,10)"><g class="mark-group role-frame root" role="graphics-object" aria-roledescription="group mark container"><g transform="translate(0,0)"><path class="background" aria-hidden="true" d="M0.5,0.5h900v400h-900Z" style="fill: none; stroke: none;"></path><g><g class="mark-group role-axis" role="graphics-symbol" aria-roledescription="axis" aria-label="X-axis for a linear scale with values from 1,560 to 1,840"><g transform="translate(0.5,400.5)"><path class="background" aria-hidden="true" d="M0,0h0v0h0Z" style="pointer-events: none; fill: none;"></path><g><g class="mark-rule role-axis-grid" style="pointer-events: none;"><line transform="translate(129,-400)" x2="0" y2="400" style="fill: none; stroke: white; stroke-opacity: 0.25; stroke-width: 1; opacity: 1;"></line><line transform="translate(289,-400)" x2="0" y2="400" style="fill: none; stroke: white; stroke-opacity: 0.25; stroke-width: 1; opacity: 1;"></line><line transform="translate(450,-400)" x2="0" y2="400" style="fill: none; stroke: white; stroke-opacity: 0.25; stroke-width: 1; opacity: 1;"></line><line transform="translate(611,-400)" x2="0" y2="400" style="fill: none; stroke: white; stroke-opacity: 0.25; stroke-width: 1; opacity: 1;"></line><line transform="translate(771,-400)" x2="0" y2="400" style="fill: none; stroke: white; stroke-opacity: 0.25; stroke-width: 1; opacity: 1;"></line></g></g><path class="foreground" aria-hidden="true" d="" style="pointer-events: none; display: none; fill: none;"></path></g></g><g class="mark-group role-axis" role="graphics-symbol" aria-roledescription="axis" aria-label="X-axis for a linear scale with values from 1560 to 1840"><g transform="translate(0.5,400.5)"><path class="background" aria-hidden="true" d="M0,0h0v0h0Z" style="pointer-events: none; fill: none;"></path><g><g class="mark-rule role-axis-tick" style="pointer-events: none;"><line transform="translate(129,0)" x2="0" y2="5" style="fill: none; stroke: #888; stroke-width: 1; opacity: 1;"></line><line transform="translate(289,0)" x2="0" y2="5" style="fill: none; stroke: #888; stroke-width: 1; opacity: 1;"></line><line transform="translate(450,0)" x2="0" y2="5" style="fill: none; stroke: #888; stroke-width: 1; opacity: 1;"></line><line transform="translate(611,0)" x2="0" y2="5" style="fill: none; stroke: #888; stroke-width: 1; opacity: 1;"></line><line transform="translate(771,0)" x2="0" y2="5" style="fill: none; stroke: #888; stroke-width: 1; opacity: 1;"></line></g><g class="mark-text role-axis-label" style="pointer-events: none;"><text text-anchor="middle" transform="translate(128.57142857142856,15)" style="font-family: sans-serif; font-size: 10px; fill: #000; opacity: 1;">1600</text><text text-anchor="middle" transform="translate(289.28571428571433,15)" style="font-family: sans-serif; font-size: 10px; fill: #000; opacity: 1;">1650</text><text text-anchor="middle" transform="translate(450,15)" style="font-family: sans-serif; font-size: 10px; fill: #000; opacity: 1;">1700</text><text text-anchor="middle" transform="translate(610.7142857142858,15)" style="font-family: sans-serif; font-size: 10px; fill: #000; opacity: 1;">1750</text><text text-anchor="middle" transform="translate(771.4285714285713,15)" style="font-family: sans-serif; font-size: 10px; fill: #000; opacity: 1;">1800</text></g></g><path class="foreground" aria-hidden="true" d="" style="pointer-events: none; display: none; fill: none;"></path></g></g><g class="mark-rect role-mark layer_0_marks" role="graphics-symbol" aria-roledescription="rect mark container"><path d="M16.07142857142857,236.00000000000003h16.07142857142857v163.99999999999997h-16.07142857142857Z" style="fill: #aaa; stroke: #999;"></path><path d="M32.14285714285714,220.00000000000003h16.07142857142857v179.99999999999997h-16.07142857142857Z" style="fill: #aaa; stroke: #999;"></path><path d="M48.21428571428571,232.00000000000003h16.07142857142857v167.99999999999997h-16.07142857142857Z" style="fill: #aaa; stroke: #999;"></path><path d="M64.28571428571428,204h16.071428571428584v196h-16.071428571428584Z" style="fill: #aaa; stroke: #999;"></path><path d="M80.35714285714286,234h16.071428571428555v166h-16.071428571428555Z" style="fill: #aaa; stroke: #999;"></path><path d="M96.42857142857142,212h16.071428571428584v188h-16.071428571428584Z" style="fill: #aaa; stroke: #999;"></path><path d="M112.5,144h16.071428571428555v256h-16.071428571428555Z" style="fill: #aaa; stroke: #999;"></path><path d="M128.57142857142856,292h16.071428571428612v108h-16.071428571428612Z" style="fill: #aaa; stroke: #999;"></path><path d="M144.64285714285717,268h16.071428571428555v132h-16.071428571428555Z" style="fill: #aaa; stroke: #999;"></path><path d="M160.71428571428572,272h16.071428571428555v128h-16.071428571428555Z" style="fill: #aaa; stroke: #999;"></path><path d="M176.78571428571428,268h16.071428571428555v132h-16.071428571428555Z" style="fill: #aaa; stroke: #999;"></path><path d="M192.85714285714283,260h16.071428571428612v140h-16.071428571428612Z" style="fill: #aaa; stroke: #999;"></path><path d="M208.92857142857144,268h16.071428571428555v132h-16.071428571428555Z" style="fill: #aaa; stroke: #999;"></path><path d="M225,220.00000000000003h16.071428571428555v179.99999999999997h-16.071428571428555Z" style="fill: #aaa; stroke: #999;"></path><path d="M241.07142857142856,268h16.071428571428555v132h-16.071428571428555Z" style="fill: #aaa; stroke: #999;"></path><path d="M257.1428571428571,244h16.071428571428555v156h-16.071428571428555Z" style="fill: #aaa; stroke: #999;"></path><path d="M273.21428571428567,188h16.07142857142867v212h-16.07142857142867Z" style="fill: #aaa; stroke: #999;"></path><path d="M289.28571428571433,232.00000000000003h16.071428571428555v167.99999999999997h-16.071428571428555Z" style="fill: #aaa; stroke: #999;"></path><path d="M305.3571428571429,238h16.071428571428555v162h-16.071428571428555Z" style="fill: #aaa; stroke: #999;"></path><path d="M321.42857142857144,213.99999999999997h16.071428571428555v186.00000000000003h-16.071428571428555Z" style="fill: #aaa; stroke: #999;"></path><path d="M337.5,272h16.071428571428555v128h-16.071428571428555Z" style="fill: #aaa; stroke: #999;"></path><path d="M353.57142857142856,252h16.071428571428555v148h-16.071428571428555Z" style="fill: #aaa; stroke: #999;"></path><path d="M369.6428571428571,228.00000000000003h16.071428571428555v171.99999999999997h-16.071428571428555Z" style="fill: #aaa; stroke: #999;"></path><path d="M385.71428571428567,260h16.07142857142867v140h-16.07142857142867Z" style="fill: #aaa; stroke: #999;"></path><path d="M401.78571428571433,292h16.071428571428555v108h-16.071428571428555Z" style="fill: #aaa; stroke: #999;"></path><path d="M417.8571428571429,240h16.071428571428555v160h-16.071428571428555Z" style="fill: #aaa; stroke: #999;"></path><path d="M433.92857142857144,200h16.071428571428555v200h-16.071428571428555Z" style="fill: #aaa; stroke: #999;"></path><path d="M450,280h16.071428571428612v120h-16.071428571428612Z" style="fill: #aaa; stroke: #999;"></path><path d="M466.0714285714286,272h16.0714285714285v128h-16.0714285714285Z" style="fill: #aaa; stroke: #999;"></path><path d="M482.1428571428571,224.00000000000003h16.071428571428612v175.99999999999997h-16.071428571428612Z" style="fill: #aaa; stroke: #999;"></path><path d="M498.2142857142857,268h16.0714285714285v132h-16.0714285714285Z" style="fill: #aaa; stroke: #999;"></path><path d="M514.2857142857142,284h16.07142857142867v116h-16.07142857142867Z" style="fill: #aaa; stroke: #999;"></path><path d="M530.3571428571429,244h16.07142857142844v156h-16.07142857142844Z" style="fill: #aaa; stroke: #999;"></path><path d="M546.4285714285713,296h16.07142857142867v104h-16.07142857142867Z" style="fill: #aaa; stroke: #999;"></path><path d="M562.5,272h16.07142857142867v128h-16.07142857142867Z" style="fill: #aaa; stroke: #999;"></path><path d="M578.5714285714287,292h16.07142857142844v108h-16.07142857142844Z" style="fill: #aaa; stroke: #999;"></path><path d="M594.6428571428571,290h16.07142857142867v110h-16.07142857142867Z" style="fill: #aaa; stroke: #999;"></path><path d="M610.7142857142858,276h16.07142857142844v124h-16.07142857142844Z" style="fill: #aaa; stroke: #999;"></path><path d="M626.7857142857142,258h16.07142857142867v142h-16.07142857142867Z" style="fill: #aaa; stroke: #999;"></path><path d="M642.8571428571429,276h16.07142857142844v124h-16.07142857142844Z" style="fill: #aaa; stroke: #999;"></path><path d="M658.9285714285713,228.00000000000003h16.07142857142867v171.99999999999997h-16.07142857142867Z" style="fill: #aaa; stroke: #999;"></path><path d="M675,212h16.07142857142867v188h-16.07142857142867Z" style="fill: #aaa; stroke: #999;"></path><path d="M691.0714285714287,224.00000000000003h16.07142857142844v175.99999999999997h-16.07142857142844Z" style="fill: #aaa; stroke: #999;"></path><path d="M707.1428571428571,216h16.07142857142867v184h-16.07142857142867Z" style="fill: #aaa; stroke: #999;"></path><path d="M723.2142857142858,232.00000000000003h16.07142857142844v167.99999999999997h-16.07142857142844Z" style="fill: #aaa; stroke: #999;"></path><path d="M739.2857142857142,210h16.07142857142867v190h-16.07142857142867Z" style="fill: #aaa; stroke: #999;"></path><path d="M755.3571428571429,96h16.07142857142844v304h-16.07142857142844Z" style="fill: #aaa; stroke: #999;"></path><path d="M771.4285714285713,83.99999999999999h16.07142857142867v316h-16.07142857142867Z" style="fill: #aaa; stroke: #999;"></path><path d="M787.5,75.99999999999997h16.07142857142867v324h-16.07142857142867Z" style="fill: #aaa; stroke: #999;"></path><path d="M803.5714285714287,4.0000000000000036h16.07142857142844v396h-16.07142857142844Z" style="fill: #aaa; stroke: #999;"></path><path d="M819.6428571428571,87.99999999999999h16.07142857142867v312h-16.07142857142867Z" style="fill: #aaa; stroke: #999;"></path><path d="M835.7142857142858,184h16.07142857142844v216h-16.07142857142844Z" style="fill: #aaa; stroke: #999;"></path></g><g class="mark-rule role-mark layer_1_marks" role="graphics-symbol" aria-roledescription="rule mark container"><line transform="translate(128.57142857142856,0)" x2="0" y2="400" style="fill: none; stroke: #000; stroke-width: 0.6; opacity: 0.5;"></line><line transform="translate(289.28571428571433,0)" x2="0" y2="400" style="fill: none; stroke: #000; stroke-width: 0.6; opacity: 0.5;"></line><line transform="translate(450,0)" x2="0" y2="400" style="fill: none; stroke: #000; stroke-width: 0.6; opacity: 0.5;"></line><line transform="translate(610.7142857142858,0)" x2="0" y2="400" style="fill: none; stroke: #000; stroke-width: 0.6; opacity: 0.5;"></line><line transform="translate(771.4285714285713,0)" x2="0" y2="400" style="fill: none; stroke: #000; stroke-width: 0.6; opacity: 0.5;"></line></g><g class="mark-area role-mark layer_2_marks" role="graphics-symbol" aria-roledescription="area mark container"><path d="M16.07142857142857,380L32.14285714285714,379.8L48.21428571428571,379.68L64.28571428571428,379.52L80.35714285714286,379.4L96.42857142857142,379L112.5,377.84L128.57142857142856,377.56L144.64285714285717,377.24L160.71428571428572,376.88L176.78571428571428,376.24L192.85714285714283,375.96L208.92857142857144,375.52L225,375.12L241.07142857142856,374.8L257.1428571428571,374.52L273.21428571428567,374.2L289.28571428571433,374L305.3571428571429,373.59999999999997L321.42857142857144,373L337.5,372.79999999999995L353.57142857142856,372.40000000000003L369.6428571428571,372L385.71428571428567,370.8L401.78571428571433,369.6L417.8571428571429,368L433.92857142857144,366L450,364L466.0714285714286,360L482.1428571428571,356L498.2142857142857,353L514.2857142857142,350L530.3571428571429,348L546.4285714285713,346.8L562.5,345.6L578.5714285714287,344L594.6428571428571,342L610.7142857142858,340L626.7857142857142,337.2L642.8571428571429,334L658.9285714285713,329.59999999999997L675,326L691.0714285714287,322L707.1428571428571,316L723.2142857142858,308L739.2857142857142,298L755.3571428571429,290L771.4285714285713,286.00000000000006L787.5,282L803.5714285714287,280L803.5714285714287,400L787.5,400L771.4285714285713,400L755.3571428571429,400L739.2857142857142,400L723.2142857142858,400L707.1428571428571,400L691.0714285714287,400L675,400L658.9285714285713,400L642.8571428571429,400L626.7857142857142,400L610.7142857142858,400L594.6428571428571,400L578.5714285714287,400L562.5,400L546.4285714285713,400L530.3571428571429,400L514.2857142857142,400L498.2142857142857,400L482.1428571428571,400L466.0714285714286,400L450,400L433.92857142857144,400L417.8571428571429,400L401.78571428571433,400L385.71428571428567,400L369.6428571428571,400L353.57142857142856,400L337.5,400L321.42857142857144,400L305.3571428571429,400L289.28571428571433,400L273.21428571428567,400L257.1428571428571,400L241.07142857142856,400L225,400L208.92857142857144,400L192.85714285714283,400L176.78571428571428,400L160.71428571428572,400L144.64285714285717,400L128.57142857142856,400L112.5,400L96.42857142857142,400L80.35714285714286,400L64.28571428571428,400L48.21428571428571,400L32.14285714285714,400L16.07142857142857,400Z" style="fill: #a4cedb; opacity: 0.7;"></path></g><g class="mark-line role-mark layer_3_marks" role="graphics-symbol" aria-roledescription="line mark container"><path d="M16.07142857142857,380L32.14285714285714,379.8L48.21428571428571,379.68L64.28571428571428,379.52L80.35714285714286,379.4L96.42857142857142,379L112.5,377.84L128.57142857142856,377.56L144.64285714285717,377.24L160.71428571428572,376.88L176.78571428571428,376.24L192.85714285714283,375.96L208.92857142857144,375.52L225,375.12L241.07142857142856,374.8L257.1428571428571,374.52L273.21428571428567,374.2L289.28571428571433,374L305.3571428571429,373.59999999999997L321.42857142857144,373L337.5,372.79999999999995L353.57142857142856,372.40000000000003L369.6428571428571,372L385.71428571428567,370.8L401.78571428571433,369.6L417.8571428571429,368L433.92857142857144,366L450,364L466.0714285714286,360L482.1428571428571,356L498.2142857142857,353L514.2857142857142,350L530.3571428571429,348L546.4285714285713,346.8L562.5,345.6L578.5714285714287,344L594.6428571428571,342L610.7142857142858,340L626.7857142857142,337.2L642.8571428571429,334L658.9285714285713,329.59999999999997L675,326L691.0714285714287,322L707.1428571428571,316L723.2142857142858,308L739.2857142857142,298L755.3571428571429,290L771.4285714285713,286.00000000000006L787.5,282L803.5714285714287,280" style="fill: none; stroke: #000; stroke-width: 2; opacity: 0.7;"></path></g><g class="mark-line role-mark layer_4_marks" role="graphics-symbol" aria-roledescription="line mark container"><path d="M16.07142857142857,378L32.14285714285714,377.8L48.21428571428571,377.68L64.28571428571428,377.52L80.35714285714286,377.4L96.42857142857142,377L112.5,375.84L128.57142857142856,375.56L144.64285714285717,375.24L160.71428571428572,374.88L176.78571428571428,374.24L192.85714285714283,373.96L208.92857142857144,373.52L225,373.12L241.07142857142856,372.8L257.1428571428571,372.52L273.21428571428567,372.2L289.28571428571433,372L305.3571428571429,371.59999999999997L321.42857142857144,371L337.5,370.79999999999995L353.57142857142856,370.40000000000003L369.6428571428571,370L385.71428571428567,368.8L401.78571428571433,367.6L417.8571428571429,366L433.92857142857144,364L450,362L466.0714285714286,358L482.1428571428571,354L498.2142857142857,351L514.2857142857142,348L530.3571428571429,346L546.4285714285713,344.8L562.5,343.6L578.5714285714287,342L594.6428571428571,340L610.7142857142858,338L626.7857142857142,335.2L642.8571428571429,332L658.9285714285713,327.59999999999997L675,324L691.0714285714287,320L707.1428571428571,314L723.2142857142858,306L739.2857142857142,296L755.3571428571429,288L771.4285714285713,284.00000000000006L787.5,280L803.5714285714287,278" style="fill: none; stroke: #EE8182; stroke-width: 2;"></path></g><g class="mark-rect role-mark layer_5_marks" role="graphics-symbol" aria-roledescription="rect mark container"><path d="M16.07142857142857,12.00000000000001h122.14285714285715v8.000000000000007h-122.14285714285715Z" style="fill: black; stroke: #000;"></path><path d="M138.21428571428572,20.000000000000018h70.71428571428572v7.999999999999961h-70.71428571428572Z" style="fill: black; stroke: #000;"></path><path d="M208.92857142857144,12.00000000000001h77.14285714285711v8.000000000000007h-77.14285714285711Z" style="fill: black; stroke: #000;"></path><path d="M286.07142857142856,12.00000000000001h35.35714285714289v8.000000000000007h-35.35714285714289Z" style="fill: white; stroke: #000;"></path><path d="M321.42857142857144,12.00000000000001h80.35714285714289v8.000000000000007h-80.35714285714289Z" style="fill: black; stroke: #000;"></path><path d="M401.78571428571433,20.000000000000018h12.857142857142776v7.999999999999961h-12.857142857142776Z" style="fill: black; stroke: #000;"></path><path d="M414.6428571428571,12.00000000000001h41.78571428571428v8.000000000000007h-41.78571428571428Z" style="fill: black; stroke: #000;"></path><path d="M456.4285714285714,20.000000000000018h38.57142857142867v7.999999999999961h-38.57142857142867Z" style="fill: black; stroke: #000;"></path><path d="M495.00000000000006,12.00000000000001h41.785714285714164v8.000000000000007h-41.785714285714164Z" style="fill: black; stroke: #000;"></path><path d="M536.7857142857142,20.000000000000018h106.07142857142867v7.999999999999961h-106.07142857142867Z" style="fill: black; stroke: #000;"></path><path d="M642.8571428571429,12.00000000000001h192.8571428571429v8.000000000000007h-192.8571428571429Z" style="fill: black; stroke: #000;"></path><path d="M835.7142857142858,20.000000000000018h0v7.999999999999961h0Z" style="fill: black; stroke: #000;"></path></g><g class="mark-text role-mark layer_6_marks" role="graphics-object" aria-roledescription="text mark container"><text text-anchor="middle" transform="translate(77.14285714285714,30.000000000000014)" style="font-family: sans-serif; font-size: 9px; font-style: italic; fill: black;">Elizabeth</text><text text-anchor="middle" transform="translate(173.57142857142858,38.00000000000002)" style="font-family: sans-serif; font-size: 9px; font-style: italic; fill: black;">James I</text><text text-anchor="middle" transform="translate(247.50000000000003,30.000000000000014)" style="font-family: sans-serif; font-size: 9px; font-style: italic; fill: black;">Charles I</text><text text-anchor="middle" transform="translate(303.75,30.000000000000014)" style="font-family: sans-serif; font-size: 9px; font-style: italic; fill: black;">Cromwell</text><text text-anchor="middle" transform="translate(361.6071428571429,30.000000000000014)" style="font-family: sans-serif; font-size: 9px; font-style: italic; fill: black;">Charles II</text><text text-anchor="middle" transform="translate(408.2142857142857,38.00000000000002)" style="font-family: sans-serif; font-size: 9px; font-style: italic; fill: black;">James II</text><text text-anchor="middle" transform="translate(435.5357142857143,30.000000000000014)" style="font-family: sans-serif; font-size: 9px; font-style: italic; fill: black;">W&amp;M</text><text text-anchor="middle" transform="translate(475.7142857142857,38.00000000000002)" style="font-family: sans-serif; font-size: 9px; font-style: italic; fill: black;">Anne</text><text text-anchor="middle" transform="translate(515.8928571428571,30.000000000000014)" style="font-family: sans-serif; font-size: 9px; font-style: italic; fill: black;">George I</text><text text-anchor="middle" transform="translate(589.8214285714286,38.00000000000002)" style="font-family: sans-serif; font-size: 9px; font-style: italic; fill: black;">George II</text><text text-anchor="middle" transform="translate(739.2857142857142,30.000000000000014)" style="font-family: sans-serif; font-size: 9px; font-style: italic; fill: black;">George III</text><text text-anchor="middle" transform="translate(835.7142857142858,38.00000000000002)" style="font-family: sans-serif; font-size: 9px; font-style: italic; fill: black;">George IV</text></g><g class="mark-group role-axis" role="graphics-symbol" aria-roledescription="axis" aria-label="Y-axis for a linear scale with values from 0 to 100"><g transform="translate(0.5,0.5)"><path class="background" aria-hidden="true" d="M0,0h0v0h0Z" style="pointer-events: none; fill: none;"></path><g><g class="mark-rule role-axis-grid" style="pointer-events: none;"><line transform="translate(0,400)" x2="900" y2="0" style="fill: none; stroke: white; stroke-opacity: 0.25; stroke-width: 1; opacity: 1;"></line><line transform="translate(0,360)" x2="900" y2="0" style="fill: none; stroke: white; stroke-opacity: 0.25; stroke-width: 1; opacity: 1;"></line><line transform="translate(0,320)" x2="900" y2="0" style="fill: none; stroke: white; stroke-opacity: 0.25; stroke-width: 1; opacity: 1;"></line><line transform="translate(0,280)" x2="900" y2="0" style="fill: none; stroke: white; stroke-opacity: 0.25; stroke-width: 1; opacity: 1;"></line><line transform="translate(0,240)" x2="900" y2="0" style="fill: none; stroke: white; stroke-opacity: 0.25; stroke-width: 1; opacity: 1;"></line><line transform="translate(0,200)" x2="900" y2="0" style="fill: none; stroke: white; stroke-opacity: 0.25; stroke-width: 1; opacity: 1;"></line><line transform="translate(0,160)" x2="900" y2="0" style="fill: none; stroke: white; stroke-opacity: 0.25; stroke-width: 1; opacity: 1;"></line><line transform="translate(0,120)" x2="900" y2="0" style="fill: none; stroke: white; stroke-opacity: 0.25; stroke-width: 1; opacity: 1;"></line><line transform="translate(0,80)" x2="900" y2="0" style="fill: none; stroke: white; stroke-opacity: 0.25; stroke-width: 1; opacity: 1;"></line><line transform="translate(0,40)" x2="900" y2="0" style="fill: none; stroke: white; stroke-opacity: 0.25; stroke-width: 1; opacity: 1;"></line><line transform="translate(0,0)" x2="900" y2="0" style="fill: none; stroke: white; stroke-opacity: 0.25; stroke-width: 1; opacity: 1;"></line></g></g><path class="foreground" aria-hidden="true" d="" style="pointer-events: none; display: none; fill: none;"></path></g></g><g class="mark-group role-axis" role="graphics-symbol" aria-roledescription="axis" aria-label="Y-axis for a linear scale with values from 0 to 100"><g transform="translate(0.5,0.5)"><path class="background" aria-hidden="true" d="M0,0h0v0h0Z" style="pointer-events: none; fill: none;"></path><g><g class="mark-rule role-axis-tick" style="pointer-events: none;"><line transform="translate(0,400)" x2="-5" y2="0" style="fill: none; stroke: #888; stroke-width: 1; opacity: 1;"></line><line transform="translate(0,360)" x2="-5" y2="0" style="fill: none; stroke: #888; stroke-width: 1; opacity: 1;"></line><line transform="translate(0,320)" x2="-5" y2="0" style="fill: none; stroke: #888; stroke-width: 1; opacity: 1;"></line><line transform="translate(0,280)" x2="-5" y2="0" style="fill: none; stroke: #888; stroke-width: 1; opacity: 1;"></line><line transform="translate(0,240)" x2="-5" y2="0" style="fill: none; stroke: #888; stroke-width: 1; opacity: 1;"></line><line transform="translate(0,200)" x2="-5" y2="0" style="fill: none; stroke: #888; stroke-width: 1; opacity: 1;"></line><line transform="translate(0,160)" x2="-5" y2="0" style="fill: none; stroke: #888; stroke-width: 1; opacity: 1;"></line><line transform="translate(0,120)" x2="-5" y2="0" style="fill: none; stroke: #888; stroke-width: 1; opacity: 1;"></line><line transform="translate(0,80)" x2="-5" y2="0" style="fill: none; stroke: #888; stroke-width: 1; opacity: 1;"></line><line transform="translate(0,40)" x2="-5" y2="0" style="fill: none; stroke: #888; stroke-width: 1; opacity: 1;"></line><line transform="translate(0,0)" x2="-5" y2="0" style="fill: none; stroke: #888; stroke-width: 1; opacity: 1;"></line></g><g class="mark-text role-axis-label" style="pointer-events: none;"><text text-anchor="end" transform="translate(-7,403)" style="font-family: sans-serif; font-size: 10px; fill: #000; opacity: 1;">0</text><text text-anchor="end" transform="translate(-7,363)" style="font-family: sans-serif; font-size: 10px; fill: #000; opacity: 1;">10</text><text text-anchor="end" transform="translate(-7,323)" style="font-family: sans-serif; font-size: 10px; fill: #000; opacity: 1;">20</text><text text-anchor="end" transform="translate(-7,283)" style="font-family: sans-serif; font-size: 10px; fill: #000; opacity: 1;">30</text><text text-anchor="end" transform="translate(-7,243)" style="font-family: sans-serif; font-size: 10px; fill: #000; opacity: 1;">40</text><text text-anchor="end" transform="translate(-7,203)" style="font-family: sans-serif; font-size: 10px; fill: #000; opacity: 1;">50</text><text text-anchor="end" transform="translate(-7,163)" style="font-family: sans-serif; font-size: 10px; fill: #000; opacity: 1;">60</text><text text-anchor="end" transform="translate(-7,123.00000000000001)" style="font-family: sans-serif; font-size: 10px; fill: #000; opacity: 1;">70</text><text text-anchor="end" transform="translate(-7,82.99999999999999)" style="font-family: sans-serif; font-size: 10px; fill: #000; opacity: 1;">80</text><text text-anchor="end" transform="translate(-7,42.99999999999999)" style="font-family: sans-serif; font-size: 10px; fill: #000; opacity: 1;">90</text><text text-anchor="end" transform="translate(-7,3)" style="font-family: sans-serif; font-size: 10px; fill: #000; opacity: 1;">100</text></g></g><path class="foreground" aria-hidden="true" d="" style="pointer-events: none; display: none; fill: none;"></path></g></g></g><path class="foreground" aria-hidden="true" d="" style="display: none; fill: none;"></path></g></g></g></svg>