<svg class="marks" width="861" height="517" viewBox="0 0 861 517" version="1.1" xmlns="http://www.w3.org/2000/svg" xmlns:xlink="http://www.w3.org/1999/xlink"><g transform="translate(56,11)"><g class="mark-group role-frame root"><g transform="translate(0,0)"><path class="background" d="M0.5,0.5h800v450h-800Z" style="fill: none; stroke: #ddd;"></path><g><g class="mark-group role-axis"><g transform="translate(0.5,0.5)"><path class="background" d="M0,0h0v0h0Z" style="pointer-events: none; fill: none;"></path><g><g class="mark-rule role-axis-grid" style="pointer-events: none;"><line transform="translate(0,450)" x2="800" y2="0" style="fill: none; stroke: #ddd; stroke-width: 1; opacity: 1;"></line><line transform="translate(0,422)" x2="800" y2="0" style="fill: none; stroke: #ddd; stroke-width: 1; opacity: 1;"></line><line transform="translate(0,394)" x2="800" y2="0" style="fill: none; stroke: #ddd; stroke-width: 1; opacity: 1;"></line><line transform="translate(0,366)" x2="800" y2="0" style="fill: none; stroke: #ddd; stroke-width: 1; opacity: 1;"></line><line transform="translate(0,338)" x2="800" y2="0" style="fill: none; stroke: #ddd; stroke-width: 1; opacity: 1;"></line><line transform="translate(0,309)" x2="800" y2="0" style="fill: none; stroke: #ddd; stroke-width: 1; opacity: 1;"></line><line transform="translate(0,281)" x2="800" y2="0" style="fill: none; stroke: #ddd; stroke-width: 1; opacity: 1;"></line><line transform="translate(0,253)" x2="800" y2="0" style="fill: none; stroke: #ddd; stroke-width: 1; opacity: 1;"></line><line transform="translate(0,225)" x2="800" y2="0" style="fill: none; stroke: #ddd; stroke-width: 1; opacity: 1;"></line><line transform="translate(0,197)" x2="800" y2="0" style="fill: none; stroke: #ddd; stroke-width: 1; opacity: 1;"></line><line transform="translate(0,169)" x2="800" y2="0" style="fill: none; stroke: #ddd; stroke-width: 1; opacity: 1;"></line><line transform="translate(0,141)" x2="800" y2="0" style="fill: none; stroke: #ddd; stroke-width: 1; opacity: 1;"></line><line transform="translate(0,113)" x2="800" y2="0" style="fill: none; stroke: #ddd; stroke-width: 1; opacity: 1;"></line><line transform="translate(0,84)" x2="800" y2="0" style="fill: none; stroke: #ddd; stroke-width: 1; opacity: 1;"></line><line transform="translate(0,56)" x2="800" y2="0" style="fill: none; stroke: #ddd; stroke-width: 1; opacity: 1;"></line><line transform="translate(0,28)" x2="800" y2="0" style="fill: none; stroke: #ddd; stroke-width: 1; opacity: 1;"></line><line transform="translate(0,0)" x2="800" y2="0" style="fill: none; stroke: #ddd; stroke-width: 1; opacity: 1;"></line></g></g></g></g><g class="mark-rect role-mark layer_0_marks"><path d="M6.071428571428548,225h45v225h-45Z" style="fill: #f7e0b6;"></path><path d="M63.214285714285694,128.98125h45v96.01875000000001h-45Z" style="fill: #93c4aa;"></path><path d="M120.35714285714283,128.98125h45v80.15625h-45Z" style="fill: #f78a64;"></path><path d="M177.5,209.1375h45v57.93750000000006h-45Z" style="fill: #f78a64;"></path><path d="M234.6428571428571,165.14999999999998h45v101.92500000000007h-45Z" style="fill: #93c4aa;"></path><path d="M291.7857142857143,165.14999999999998h45v60.01875000000004h-45Z" style="fill: #f78a64;"></path><path d="M348.92857142857144,225.16875000000002h45v83.30625h-45Z" style="fill: #f78a64;"></path><path d="M406.07142857142856,239.39999999999998h45v69.07500000000005h-45Z" style="fill: #93c4aa;"></path><path d="M463.2142857142857,173.25h45v66.14999999999998h-45Z" style="fill: #93c4aa;"></path><path d="M520.3571428571428,108.78750000000002h45v64.46249999999998h-45Z" style="fill: #93c4aa;"></path><path d="M577.4999999999999,41.00625000000002h45v67.78125h-45Z" style="fill: #93c4aa;"></path><path d="M634.642857142857,41.00625000000002h45v78.07499999999999h-45Z" style="fill: #f78a64;"></path><path d="M691.7857142857143,35.15625h45v83.92500000000001h-45Z" style="fill: #93c4aa;"></path><path d="M748.9285714285714,35.15625h45v414.84375h-45Z" style="fill: #f7e0b6;"></path></g><g class="mark-rect role-mark layer_1_marks"><path d="M5.071428571428548,224.25h104v1.5h-104Z" style="fill: #404040; opacity: 1;"></path><path d="M62.214285714285694,128.23125h104v1.5h-104Z" style="fill: #404040; opacity: 1;"></path><path d="M119.35714285714283,208.3875h104v1.5h-104Z" style="fill: #404040; opacity: 1;"></path><path d="M176.5,266.32500000000005h104v1.5h-104Z" style="fill: #404040; opacity: 1;"></path><path d="M233.6428571428571,164.39999999999998h104v1.5h-104Z" style="fill: #404040; opacity: 1;"></path><path d="M290.7857142857143,224.41875000000002h104v1.5h-104Z" style="fill: #404040; opacity: 1;"></path><path d="M347.92857142857144,307.725h104v1.5h-104Z" style="fill: #404040; opacity: 1;"></path><path d="M405.07142857142856,238.64999999999998h104v1.5h-104Z" style="fill: #404040; opacity: 1;"></path><path d="M462.2142857142858,172.5h104v1.5h-104Z" style="fill: #404040; opacity: 1;"></path><path d="M519.3571428571428,108.03750000000002h104v1.5h-104Z" style="fill: #404040; opacity: 1;"></path><path d="M576.4999999999999,40.25625000000002h104v1.5h-104Z" style="fill: #404040; opacity: 1;"></path><path d="M633.642857142857,118.33125000000001h104v1.5h-104Z" style="fill: #404040; opacity: 1;"></path><path d="M690.7857142857143,34.40625h104v1.5h-104Z" style="fill: #404040; opacity: 1;"></path><path d="M799.9285714285714,34.40625h0v1.5h0Z" style="fill: #404040; opacity: 1;"></path></g><g class="mark-text role-mark layer_2_marks"><text text-anchor="middle" transform="translate(28.571428571428548,217)" style="font: bold 11px sans-serif; fill: #404040;">4000</text><text text-anchor="middle" transform="translate(85.7142857142857,120.98124999999999)" style="font: bold 11px sans-serif; fill: #404040;">5707</text><text text-anchor="middle" transform="translate(142.85714285714283,442)" style="font: bold 11px sans-serif; fill: #404040;"></text><text text-anchor="middle" transform="translate(200,442)" style="font: bold 11px sans-serif; fill: #404040;"></text><text text-anchor="middle" transform="translate(257.1428571428571,157.14999999999998)" style="font: bold 11px sans-serif; fill: #404040;">5064</text><text text-anchor="middle" transform="translate(314.2857142857143,442)" style="font: bold 11px sans-serif; fill: #404040;"></text><text text-anchor="middle" transform="translate(371.42857142857144,442)" style="font: bold 11px sans-serif; fill: #404040;"></text><text text-anchor="middle" transform="translate(428.57142857142856,231.39999999999998)" style="font: bold 11px sans-serif; fill: #404040;">3744</text><text text-anchor="middle" transform="translate(485.7142857142857,165.25)" style="font: bold 11px sans-serif; fill: #404040;">4920</text><text text-anchor="middle" transform="translate(542.8571428571428,100.78750000000002)" style="font: bold 11px sans-serif; fill: #404040;">6066</text><text text-anchor="middle" transform="translate(599.9999999999999,33.00625000000002)" style="font: bold 11px sans-serif; fill: #404040;">7271</text><text text-anchor="middle" transform="translate(657.142857142857,442)" style="font: bold 11px sans-serif; fill: #404040;"></text><text text-anchor="middle" transform="translate(714.2857142857143,27.15625)" style="font: bold 11px sans-serif; fill: #404040;">7375</text><text text-anchor="middle" transform="translate(771.4285714285714,27.15625)" style="font: bold 11px sans-serif; fill: #404040;">7375</text></g><g class="mark-text role-mark layer_3_marks"><text text-anchor="middle" transform="translate(28.571428571428548,467)" style="font: bold 11px sans-serif; fill: #404040;"></text><text text-anchor="middle" transform="translate(85.7142857142857,467)" style="font: bold 11px sans-serif; fill: #404040;"></text><text text-anchor="middle" transform="translate(142.85714285714283,226.1375)" style="font: bold 11px sans-serif; fill: #404040;">4282</text><text text-anchor="middle" transform="translate(200,284.07500000000005)" style="font: bold 11px sans-serif; fill: #404040;">3252</text><text text-anchor="middle" transform="translate(257.1428571428571,467)" style="font: bold 11px sans-serif; fill: #404040;"></text><text text-anchor="middle" transform="translate(314.2857142857143,242.16875000000002)" style="font: bold 11px sans-serif; fill: #404040;">3997</text><text text-anchor="middle" transform="translate(371.42857142857144,325.475)" style="font: bold 11px sans-serif; fill: #404040;">2516</text><text text-anchor="middle" transform="translate(428.57142857142856,467)" style="font: bold 11px sans-serif; fill: #404040;"></text><text text-anchor="middle" transform="translate(485.7142857142857,467)" style="font: bold 11px sans-serif; fill: #404040;"></text><text text-anchor="middle" transform="translate(542.8571428571428,467)" style="font: bold 11px sans-serif; fill: #404040;"></text><text text-anchor="middle" transform="translate(599.9999999999999,467)" style="font: bold 11px sans-serif; fill: #404040;"></text><text text-anchor="middle" transform="translate(657.142857142857,136.08125)" style="font: bold 11px sans-serif; fill: #404040;">5883</text><text text-anchor="middle" transform="translate(714.2857142857143,467)" style="font: bold 11px sans-serif; fill: #404040;"></text><text text-anchor="middle" transform="translate(771.4285714285714,467)" style="font: bold 11px sans-serif; fill: #404040;"></text></g><g class="mark-text role-mark layer_4_marks"><text text-anchor="middle" transform="translate(28.571428571428548,340.5)" style="font: bold 11px sans-serif; fill: #725a30;">4000</text><text text-anchor="middle" transform="translate(85.7142857142857,179.99062499999997)" style="font: bold 11px sans-serif; fill: white;">+1707</text><text text-anchor="middle" transform="translate(142.85714285714283,172.059375)" style="font: bold 11px sans-serif; fill: white;">-1425</text><text text-anchor="middle" transform="translate(200,241.10625000000002)" style="font: bold 11px sans-serif; fill: white;">-1030</text><text text-anchor="middle" transform="translate(257.1428571428571,219.11249999999998)" style="font: bold 11px sans-serif; fill: white;">+1812</text><text text-anchor="middle" transform="translate(314.2857142857143,198.159375)" style="font: bold 11px sans-serif; fill: white;">-1067</text><text text-anchor="middle" transform="translate(371.42857142857144,269.821875)" style="font: bold 11px sans-serif; fill: white;">-1481</text><text text-anchor="middle" transform="translate(428.57142857142856,276.9375)" style="font: bold 11px sans-serif; fill: white;">+1228</text><text text-anchor="middle" transform="translate(485.7142857142857,209.32500000000002)" style="font: bold 11px sans-serif; fill: white;">+1176</text><text text-anchor="middle" transform="translate(542.8571428571428,144.01874999999995)" style="font: bold 11px sans-serif; fill: white;">+1146</text><text text-anchor="middle" transform="translate(599.9999999999999,77.89687500000002)" style="font: bold 11px sans-serif; fill: white;">+1205</text><text text-anchor="middle" transform="translate(657.142857142857,83.04374999999999)" style="font: bold 11px sans-serif; fill: white;">-1388</text><text text-anchor="middle" transform="translate(714.2857142857143,80.11875000000003)" style="font: bold 11px sans-serif; fill: white;">+1492</text><text text-anchor="middle" transform="translate(771.4285714285714,245.578125)" style="font: bold 11px sans-serif; fill: #725a30;">7375</text></g><g class="mark-group role-axis"><g transform="translate(0.5,450.5)"><path class="background" d="M0,0h0v0h0Z" style="pointer-events: none; fill: none;"></path><g><g class="mark-rule role-axis-tick" style="pointer-events: none;"><line transform="translate(28,0)" x2="0" y2="5" style="fill: none; stroke: #888; stroke-width: 1; opacity: 1;"></line><line transform="translate(85,0)" x2="0" y2="5" style="fill: none; stroke: #888; stroke-width: 1; opacity: 1;"></line><line transform="translate(142,0)" x2="0" y2="5" style="fill: none; stroke: #888; stroke-width: 1; opacity: 1;"></line><line transform="translate(199,0)" x2="0" y2="5" style="fill: none; stroke: #888; stroke-width: 1; opacity: 1;"></line><line transform="translate(256,0)" x2="0" y2="5" style="fill: none; stroke: #888; stroke-width: 1; opacity: 1;"></line><line transform="translate(313,0)" x2="0" y2="5" style="fill: none; stroke: #888; stroke-width: 1; opacity: 1;"></line><line transform="translate(370,0)" x2="0" y2="5" style="fill: none; stroke: #888; stroke-width: 1; opacity: 1;"></line><line transform="translate(428,0)" x2="0" y2="5" style="fill: none; stroke: #888; stroke-width: 1; opacity: 1;"></line><line transform="translate(485,0)" x2="0" y2="5" style="fill: none; stroke: #888; stroke-width: 1; opacity: 1;"></line><line transform="translate(542,0)" x2="0" y2="5" style="fill: none; stroke: #888; stroke-width: 1; opacity: 1;"></line><line transform="translate(599,0)" x2="0" y2="5" style="fill: none; stroke: #888; stroke-width: 1; opacity: 1;"></line><line transform="translate(656,0)" x2="0" y2="5" style="fill: none; stroke: #888; stroke-width: 1; opacity: 1;"></line><line transform="translate(713,0)" x2="0" y2="5" style="fill: none; stroke: #888; stroke-width: 1; opacity: 1;"></line><line transform="translate(770,0)" x2="0" y2="5" style="fill: none; stroke: #888; stroke-width: 1; opacity: 1;"></line></g><g class="mark-text role-axis-label" style="pointer-events: none;"><text text-anchor="end" transform="translate(27.571428571428548,7) rotate(270) translate(0,3)" style="font: 10px sans-serif; fill: #000; opacity: 1;">Begin</text><text text-anchor="end" transform="translate(84.7142857142857,7) rotate(270) translate(0,3)" style="font: 10px sans-serif; fill: #000; opacity: 1;">Jan</text><text text-anchor="end" transform="translate(141.85714285714283,7) rotate(270) translate(0,3)" style="font: 10px sans-serif; fill: #000; opacity: 1;">Feb</text><text text-anchor="end" transform="translate(199,7) rotate(270) translate(0,3)" style="font: 10px sans-serif; fill: #000; opacity: 1;">Mar</text><text text-anchor="end" transform="translate(256.1428571428571,7) rotate(270) translate(0,3)" style="font: 10px sans-serif; fill: #000; opacity: 1;">Apr</text><text text-anchor="end" transform="translate(313.2857142857143,7) rotate(270) translate(0,3)" style="font: 10px sans-serif; fill: #000; opacity: 1;">May</text><text text-anchor="end" transform="translate(370.42857142857144,7) rotate(270) translate(0,3)" style="font: 10px sans-serif; fill: #000; opacity: 1;">Jun</text><text text-anchor="end" transform="translate(427.57142857142856,7) rotate(270) translate(0,3)" style="font: 10px sans-serif; fill: #000; opacity: 1;">Jul</text><text text-anchor="end" transform="translate(484.7142857142857,7) rotate(270) translate(0,3)" style="font: 10px sans-serif; fill: #000; opacity: 1;">Aug</text><text text-anchor="end" transform="translate(541.8571428571428,7) rotate(270) translate(0,3)" style="font: 10px sans-serif; fill: #000; opacity: 1;">Sep</text><text text-anchor="end" transform="translate(598.9999999999999,7) rotate(270) translate(0,3)" style="font: 10px sans-serif; fill: #000; opacity: 1;">Oct</text><text text-anchor="end" transform="translate(656.142857142857,7) rotate(270) translate(0,3)" style="font: 10px sans-serif; fill: #000; opacity: 1;">Nov</text><text text-anchor="end" transform="translate(713.2857142857143,7) rotate(270) translate(0,3)" style="font: 10px sans-serif; fill: #000; opacity: 1;">Dec</text><text text-anchor="end" transform="translate(770.4285714285714,7) rotate(270) translate(0,3)" style="font: 10px sans-serif; fill: #000; opacity: 1;">End</text></g><g class="mark-rule role-axis-domain" style="pointer-events: none;"><line transform="translate(0,0)" x2="800" y2="0" style="fill: none; stroke: #888; stroke-width: 1; opacity: 1;"></line></g><g class="mark-text role-axis-title" style="pointer-events: none;"><text text-anchor="middle" transform="translate(400,47)" style="font: bold 11px sans-serif; fill: #000; opacity: 1;">Months</text></g></g></g></g><g class="mark-group role-axis"><g transform="translate(0.5,0.5)"><path class="background" d="M0,0h0v0h0Z" style="pointer-events: none; fill: none;"></path><g><g class="mark-rule role-axis-tick" style="pointer-events: none;"><line transform="translate(0,450)" x2="-5" y2="0" style="fill: none; stroke: #888; stroke-width: 1; opacity: 1;"></line><line transform="translate(0,422)" x2="-5" y2="0" style="fill: none; stroke: #888; stroke-width: 1; opacity: 1;"></line><line transform="translate(0,394)" x2="-5" y2="0" style="fill: none; stroke: #888; stroke-width: 1; opacity: 1;"></line><line transform="translate(0,366)" x2="-5" y2="0" style="fill: none; stroke: #888; stroke-width: 1; opacity: 1;"></line><line transform="translate(0,338)" x2="-5" y2="0" style="fill: none; stroke: #888; stroke-width: 1; opacity: 1;"></line><line transform="translate(0,309)" x2="-5" y2="0" style="fill: none; stroke: #888; stroke-width: 1; opacity: 1;"></line><line transform="translate(0,281)" x2="-5" y2="0" style="fill: none; stroke: #888; stroke-width: 1; opacity: 1;"></line><line transform="translate(0,253)" x2="-5" y2="0" style="fill: none; stroke: #888; stroke-width: 1; opacity: 1;"></line><line transform="translate(0,225)" x2="-5" y2="0" style="fill: none; stroke: #888; stroke-width: 1; opacity: 1;"></line><line transform="translate(0,197)" x2="-5" y2="0" style="fill: none; stroke: #888; stroke-width: 1; opacity: 1;"></line><line transform="translate(0,169)" x2="-5" y2="0" style="fill: none; stroke: #888; stroke-width: 1; opacity: 1;"></line><line transform="translate(0,141)" x2="-5" y2="0" style="fill: none; stroke: #888; stroke-width: 1; opacity: 1;"></line><line transform="translate(0,113)" x2="-5" y2="0" style="fill: none; stroke: #888; stroke-width: 1; opacity: 1;"></line><line transform="translate(0,84)" x2="-5" y2="0" style="fill: none; stroke: #888; stroke-width: 1; opacity: 1;"></line><line transform="translate(0,56)" x2="-5" y2="0" style="fill: none; stroke: #888; stroke-width: 1; opacity: 1;"></line><line transform="translate(0,28)" x2="-5" y2="0" style="fill: none; stroke: #888; stroke-width: 1; opacity: 1;"></line><line transform="translate(0,0)" x2="-5" y2="0" style="fill: none; stroke: #888; stroke-width: 1; opacity: 1;"></line></g><g class="mark-text role-axis-label" style="pointer-events: none;"><text text-anchor="end" transform="translate(-7,453)" style="font: 10px sans-serif; fill: #000; opacity: 1;">0</text><text text-anchor="end" transform="translate(-7,424.875)" style="font: 10px sans-serif; fill: #000; opacity: 1;">500</text><text text-anchor="end" transform="translate(-7,396.75)" style="font: 10px sans-serif; fill: #000; opacity: 1;">1,000</text><text text-anchor="end" transform="translate(-7,368.625)" style="font: 10px sans-serif; fill: #000; opacity: 1;">1,500</text><text text-anchor="end" transform="translate(-7,340.5)" style="font: 10px sans-serif; fill: #000; opacity: 1;">2,000</text><text text-anchor="end" transform="translate(-7,312.375)" style="font: 10px sans-serif; fill: #000; opacity: 1;">2,500</text><text text-anchor="end" transform="translate(-7,284.25)" style="font: 10px sans-serif; fill: #000; opacity: 1;">3,000</text><text text-anchor="end" transform="translate(-7,256.125)" style="font: 10px sans-serif; fill: #000; opacity: 1;">3,500</text><text text-anchor="end" transform="translate(-7,228)" style="font: 10px sans-serif; fill: #000; opacity: 1;">4,000</text><text text-anchor="end" transform="translate(-7,199.875)" style="font: 10px sans-serif; fill: #000; opacity: 1;">4,500</text><text text-anchor="end" transform="translate(-7,171.75)" style="font: 10px sans-serif; fill: #000; opacity: 1;">5,000</text><text text-anchor="end" transform="translate(-7,143.625)" style="font: 10px sans-serif; fill: #000; opacity: 1;">5,500</text><text text-anchor="end" transform="translate(-7,115.5)" style="font: 10px sans-serif; fill: #000; opacity: 1;">6,000</text><text text-anchor="end" transform="translate(-7,87.375)" style="font: 10px sans-serif; fill: #000; opacity: 1;">6,500</text><text text-anchor="end" transform="translate(-7,59.25)" style="font: 10px sans-serif; fill: #000; opacity: 1;">7,000</text><text text-anchor="end" transform="translate(-7,31.125)" style="font: 10px sans-serif; fill: #000; opacity: 1;">7,500</text><text text-anchor="end" transform="translate(-7,3)" style="font: 10px sans-serif; fill: #000; opacity: 1;">8,000</text></g><g class="mark-rule role-axis-domain" style="pointer-events: none;"><line transform="translate(0,450)" x2="0" y2="-450" style="fill: none; stroke: #888; stroke-width: 1; opacity: 1;"></line></g><g class="mark-text role-axis-title" style="pointer-events: none;"><text text-anchor="middle" transform="translate(-38,225) rotate(-90) translate(0,-2)" style="font: bold 11px sans-serif; fill: #000; opacity: 1;">Amount</text></g></g></g></g></g></g></g></g></svg>