<svg class="marks" width="358" height="273" viewBox="0 0 358 273" version="1.1" xmlns="http://www.w3.org/2000/svg" xmlns:xlink="http://www.w3.org/1999/xlink"><defs><clipPath id="clip1"><rect x="0" y="0" width="300" height="50"></rect></clipPath></defs><g transform="translate(53,14)"><g class="mark-group role-frame root"><g transform="translate(0,0)"><path class="background" d="M0.5,0.5h300v50h-300Z" style="fill: none; stroke: #ddd;"></path><g><g class="mark-group role-axis"><g transform="translate(0.5,0.5)"><path class="background" d="M0,0h0v0h0Z" style="pointer-events: none; fill: none;"></path><g><g class="mark-rule role-axis-grid" style="pointer-events: none;"><line transform="translate(0,50)" x2="300" y2="0" style="fill: none; stroke: #ddd; stroke-width: 1; opacity: 1;"></line><line transform="translate(0,17)" x2="300" y2="0" style="fill: none; stroke: #ddd; stroke-width: 1; opacity: 1;"></line></g></g></g></g><g class="mark-rect role-mark marks" clip-path="url(#clip1)"><path d="M89.11764705882354,5.653594771241828h15.882352941176473v44.34640522875817h-15.882352941176473Z" style="fill: #4c78a8;"></path><path d="M106.76470588235294,7.816091954023001h15.882352941176473v42.183908045977h-15.882352941176473Z" style="fill: #4c78a8;"></path><path d="M142.05882352941177,8.153153153153127h15.882352941176473v41.84684684684687h-15.882352941176473Z" style="fill: #4c78a8;"></path><path d="M265.5882352941177,0.653594771241842h15.882352941176473v49.34640522875816h-15.882352941176473Z" style="fill: #4c78a8;"></path><path d="M283.2352941176471,7.528735632183931h15.882352941176473v42.47126436781607h-15.882352941176473Z" style="fill: #4c78a8;"></path><path d="M159.7058823529412,5h15.882352941176473v45h-15.882352941176473Z" style="fill: #4c78a8;"></path><path d="M0.8823529411764639,8.082706766917298h15.882352941176473v41.9172932330827h-15.882352941176473Z" style="fill: #4c78a8;"></path><path d="M177.3529411764706,7.178571428571416h15.882352941176473v42.821428571428584h-15.882352941176473Z" style="fill: #4c78a8;"></path><path d="M18.529411764705877,6.366279069767408h15.882352941176473v43.63372093023259h-15.882352941176473Z" style="fill: #4c78a8;"></path><path d="M36.17647058823529,5.361445783132552h15.882352941176473v44.63855421686745h-15.882352941176473Z" style="fill: #4c78a8;"></path><path d="M53.8235294117647,7.854166666666643h15.882352941176473v42.14583333333336h-15.882352941176473Z" style="fill: #4c78a8;"></path><path d="M230.29411764705884,5.73402417962005h15.882352941176473v44.26597582037995h-15.882352941176473Z" style="fill: #4c78a8;"></path><path d="M212.64705882352942,6.366279069767408h15.882352941176473v43.63372093023259h-15.882352941176473Z" style="fill: #4c78a8;"></path><path d="M195,4.106425702811272h15.882352941176473v45.89357429718873h-15.882352941176473Z" style="fill: #4c78a8;"></path><path d="M247.94117647058823,7.028112449799238h15.882352941176473v42.97188755020076h-15.882352941176473Z" style="fill: #4c78a8;"></path><path d="M71.47058823529412,5.773092369477965h15.882352941176473v44.226907630522035h-15.882352941176473Z" style="fill: #4c78a8;"></path><path d="M124.41176470588235,7.212643678160944h15.882352941176473v42.787356321839056h-15.882352941176473Z" style="fill: #4c78a8;"></path></g><g class="mark-group role-axis"><g transform="translate(0.5,50.5)"><path class="background" d="M0,0h0v0h0Z" style="pointer-events: none; fill: none;"></path><g><g class="mark-rule role-axis-tick" style="pointer-events: none;"><line transform="translate(8,0)" x2="0" y2="5" style="fill: none; stroke: #888; stroke-width: 1; opacity: 1;"></line><line transform="translate(25,0)" x2="0" y2="5" style="fill: none; stroke: #888; stroke-width: 1; opacity: 1;"></line><line transform="translate(43,0)" x2="0" y2="5" style="fill: none; stroke: #888; stroke-width: 1; opacity: 1;"></line><line transform="translate(61,0)" x2="0" y2="5" style="fill: none; stroke: #888; stroke-width: 1; opacity: 1;"></line><line transform="translate(78,0)" x2="0" y2="5" style="fill: none; stroke: #888; stroke-width: 1; opacity: 1;"></line><line transform="translate(96,0)" x2="0" y2="5" style="fill: none; stroke: #888; stroke-width: 1; opacity: 1;"></line><line transform="translate(114,0)" x2="0" y2="5" style="fill: none; stroke: #888; stroke-width: 1; opacity: 1;"></line><line transform="translate(131,0)" x2="0" y2="5" style="fill: none; stroke: #888; stroke-width: 1; opacity: 1;"></line><line transform="translate(149,0)" x2="0" y2="5" style="fill: none; stroke: #888; stroke-width: 1; opacity: 1;"></line><line transform="translate(167,0)" x2="0" y2="5" style="fill: none; stroke: #888; stroke-width: 1; opacity: 1;"></line><line transform="translate(184,0)" x2="0" y2="5" style="fill: none; stroke: #888; stroke-width: 1; opacity: 1;"></line><line transform="translate(202,0)" x2="0" y2="5" style="fill: none; stroke: #888; stroke-width: 1; opacity: 1;"></line><line transform="translate(220,0)" x2="0" y2="5" style="fill: none; stroke: #888; stroke-width: 1; opacity: 1;"></line><line transform="translate(237,0)" x2="0" y2="5" style="fill: none; stroke: #888; stroke-width: 1; opacity: 1;"></line><line transform="translate(255,0)" x2="0" y2="5" style="fill: none; stroke: #888; stroke-width: 1; opacity: 1;"></line><line transform="translate(273,0)" x2="0" y2="5" style="fill: none; stroke: #888; stroke-width: 1; opacity: 1;"></line><line transform="translate(290,0)" x2="0" y2="5" style="fill: none; stroke: #888; stroke-width: 1; opacity: 1;"></line></g><g class="mark-text role-axis-label" style="pointer-events: none;"><text text-anchor="end" transform="translate(7.823529411764699,7) rotate(270) translate(0,3)" style="font: 10px sans-serif; fill: #000; opacity: 1;">American History X</text><text text-anchor="end" transform="translate(25.470588235294112,7) rotate(270) translate(0,3)" style="font: 10px sans-serif; fill: #000; opacity: 1;">Cidade de Deus</text><text text-anchor="end" transform="translate(43.11764705882353,7) rotate(270) translate(0,3)" style="font: 10px sans-serif; fill: #000; opacity: 1;">Fight Club</text><text text-anchor="end" transform="translate(60.76470588235294,7) rotate(270) translate(0,3)" style="font: 10px sans-serif; fill: #000; opacity: 1;">Inception</text><text text-anchor="end" transform="translate(78.41176470588235,7) rotate(270) translate(0,3)" style="font: 10px sans-serif; fill: #000; opacity: 1;">Memento</text><text text-anchor="end" transform="translate(96.05882352941177,7) rotate(270) translate(0,3)" style="font: 10px sans-serif; fill: #000; opacity: 1;">Pulp Fiction</text><text text-anchor="end" transform="translate(113.70588235294117,7) rotate(270) translate(0,3)" style="font: 10px sans-serif; fill: #000; opacity: 1;">Raiders of the Lost Ark</text><text text-anchor="end" transform="translate(131.35294117647058,7) rotate(270) translate(0,3)" style="font: 10px sans-serif; fill: #000; opacity: 1;">Requiem for a Dream</text><text text-anchor="end" transform="translate(149,7) rotate(270) translate(0,3)" style="font: 10px sans-serif; fill: #000; opacity: 1;">Schindler's List</text><text text-anchor="end" transform="translate(166.64705882352942,7) rotate(270) translate(0,3)" style="font: 10px sans-serif; fill: #000; opacity: 1;">Shichinin no samurai</text><text text-anchor="end" transform="translate(184.29411764705884,7) rotate(270) translate(0,3)" style="font: 10px sans-serif; fill: #000; opacity: 1;">The Dark Knight</text><text text-anchor="end" transform="translate(201.94117647058823,7) rotate(270) translate(0,3)" style="font: 10px sans-serif; fill: #000; opacity: 1;">The Lord of the Rings: The Fellowship…</text><text text-anchor="end" transform="translate(219.58823529411765,7) rotate(270) translate(0,3)" style="font: 10px sans-serif; fill: #000; opacity: 1;">The Lord of the Rings: The Return of t…</text><text text-anchor="end" transform="translate(237.23529411764707,7) rotate(270) translate(0,3)" style="font: 10px sans-serif; fill: #000; opacity: 1;">The Lord of the Rings: The Two Towers</text><text text-anchor="end" transform="translate(254.88235294117646,7) rotate(270) translate(0,3)" style="font: 10px sans-serif; fill: #000; opacity: 1;">The Matrix</text><text text-anchor="end" transform="translate(272.5294117647059,7) rotate(270) translate(0,3)" style="font: 10px sans-serif; fill: #000; opacity: 1;">The Shawshank Redemption</text><text text-anchor="end" transform="translate(290.1764705882353,7) rotate(270) translate(0,3)" style="font: 10px sans-serif; fill: #000; opacity: 1;">The Silence of the Lambs</text></g><g class="mark-rule role-axis-domain" style="pointer-events: none;"><line transform="translate(0,0)" x2="300" y2="0" style="fill: none; stroke: #888; stroke-width: 1; opacity: 1;"></line></g><g class="mark-text role-axis-title" style="pointer-events: none;"><text text-anchor="middle" transform="translate(150,199.974609375)" style="font: bold 11px sans-serif; fill: #000; opacity: 1;">Title</text></g></g></g></g><g class="mark-group role-axis"><g transform="translate(0.5,0.5)"><path class="background" d="M0,0h0v0h0Z" style="pointer-events: none; fill: none;"></path><g><g class="mark-rule role-axis-tick" style="pointer-events: none;"><line transform="translate(0,50)" x2="-5" y2="0" style="fill: none; stroke: #888; stroke-width: 1; opacity: 1;"></line><line transform="translate(0,17)" x2="-5" y2="0" style="fill: none; stroke: #888; stroke-width: 1; opacity: 1;"></line></g><g class="mark-text role-axis-label" style="pointer-events: none;"><text text-anchor="end" transform="translate(-7,53)" style="font: 10px sans-serif; fill: #000; opacity: 1;">0</text><text text-anchor="end" transform="translate(-7,19.66666666666667)" style="font: 10px sans-serif; fill: #000; opacity: 1;">2</text></g><g class="mark-rule role-axis-domain" style="pointer-events: none;"><line transform="translate(0,50)" x2="0" y2="-50" style="fill: none; stroke: #888; stroke-width: 1; opacity: 1;"></line></g><g class="mark-text role-axis-title" style="pointer-events: none;"><text text-anchor="middle" transform="translate(-34,25) rotate(-90) translate(0,-2)" style="font: bold 11px sans-serif; fill: #000; opacity: 1;">Rating Delta</text></g></g></g></g></g></g></g></g></svg>