<svg class="marks" width="417" height="163" viewBox="0 0 417 163" version="1.1" xmlns="http://www.w3.org/2000/svg" xmlns:xlink="http://www.w3.org/1999/xlink"><defs><clipPath id="clip1"><rect x="0" y="0" width="300" height="50"></rect></clipPath></defs><g transform="translate(53,51)"><g class="mark-group role-frame root"><g transform="translate(0,0)"><path class="background" d="M0.5,0.5h300v50h-300Z" style="fill: none; stroke: none;"></path><g><g class="mark-rect role-mark layer_0_marks" clip-path="url(#clip1)"><path d="M153.75,30.769230769230766h67.5v6.923076923076927h-67.5Z" style="fill: #4c78a8;"></path><path d="M228.75,33.07692307692308h67.5v16.92307692307692h-67.5Z" style="fill: #4c78a8;"></path><path d="M78.75,9.230769230769234h67.5v16.92307692307692h-67.5Z" style="fill: #4c78a8;"></path><path d="M3.75,2.3076923076923066h67.5v23.846153846153847h-67.5Z" style="fill: #4c78a8;"></path><path d="M153.75,37.69230769230769h67.5v12.307692307692307h-67.5Z" style="fill: #f58518;"></path><path d="M78.75,26.153846153846153h67.5v23.846153846153847h-67.5Z" style="fill: #f58518;"></path><path d="M3.75,26.153846153846153h67.5v23.846153846153847h-67.5Z" style="fill: #f58518;"></path></g><g class="mark-group role-legend"><g transform="translate(318,0)"><path class="background" d="M0,0h41v42h-41Z" style="pointer-events: none; fill: none;"></path><g><g class="mark-group role-legend-entry"><g transform="translate(0,16)"><path class="background" d="M0,0h0v0h0Z" style="pointer-events: none; fill: none;"></path><g><g class="mark-symbol role-legend-symbol" style="pointer-events: none;"><path transform="translate(5,5)" d="M-5,-5h10v10h-10Z" style="fill: #4c78a8; stroke-width: 1.5; opacity: 1;"></path><path transform="translate(5,20)" d="M-5,-5h10v10h-10Z" style="fill: #f58518; stroke-width: 1.5; opacity: 1;"></path></g><g class="mark-text role-legend-label" style="pointer-events: none;"><text text-anchor="start" transform="translate(18,8)" style="font: 10px sans-serif; fill: #000; opacity: 1;">A</text><text text-anchor="start" transform="translate(18,23)" style="font: 10px sans-serif; fill: #000; opacity: 1;">B</text></g></g></g></g><g class="mark-text role-legend-title" style="pointer-events: none;"><text text-anchor="start" transform="translate(0,9)" style="font: bold 11px sans-serif; fill: #000; opacity: 1;">student</text></g></g></g></g><g class="mark-group role-axis"><g transform="translate(0.5,50.5)"><path class="background" d="M0,0h0v0h0Z" style="pointer-events: none; fill: none;"></path><g><g class="mark-rule role-axis-tick" style="pointer-events: none;"><line transform="translate(37,0)" x2="0" y2="5" style="fill: none; stroke: #888; stroke-width: 1; opacity: 1;"></line><line transform="translate(112,0)" x2="0" y2="5" style="fill: none; stroke: #888; stroke-width: 1; opacity: 1;"></line><line transform="translate(187,0)" x2="0" y2="5" style="fill: none; stroke: #888; stroke-width: 1; opacity: 1;"></line><line transform="translate(262,0)" x2="0" y2="5" style="fill: none; stroke: #888; stroke-width: 1; opacity: 1;"></line></g><g class="mark-text role-axis-label" style="pointer-events: none;"><text text-anchor="end" transform="translate(36.5,7) rotate(270) translate(0,3)" style="font: 10px sans-serif; fill: #000; opacity: 1;">BIO 101</text><text text-anchor="end" transform="translate(111.5,7) rotate(270) translate(0,3)" style="font: 10px sans-serif; fill: #000; opacity: 1;">CHEM 101</text><text text-anchor="end" transform="translate(186.5,7) rotate(270) translate(0,3)" style="font: 10px sans-serif; fill: #000; opacity: 1;">CSE 101</text><text text-anchor="end" transform="translate(261.5,7) rotate(270) translate(0,3)" style="font: 10px sans-serif; fill: #000; opacity: 1;">PHIL 101</text></g><g class="mark-rule role-axis-domain" style="pointer-events: none;"><line transform="translate(0,0)" x2="300" y2="0" style="fill: none; stroke: #888; stroke-width: 1; opacity: 1;"></line></g></g></g></g><g class="mark-group role-axis"><g transform="translate(0.5,0.5)"><path class="background" d="M0,0h0v0h0Z" style="pointer-events: none; fill: none;"></path><g><g class="mark-rule role-axis-tick" style="pointer-events: none;"><line transform="translate(0,50)" x2="-5" y2="0" style="fill: none; stroke: #888; stroke-width: 1; opacity: 1;"></line><line transform="translate(0,12)" x2="-5" y2="0" style="fill: none; stroke: #888; stroke-width: 1; opacity: 1;"></line></g><g class="mark-text role-axis-label" style="pointer-events: none;"><text text-anchor="end" transform="translate(-7,53)" style="font: 10px sans-serif; fill: #000; opacity: 1;">0</text><text text-anchor="end" transform="translate(-7,14.538461538461533)" style="font: 10px sans-serif; fill: #000; opacity: 1;">500</text></g><g class="mark-rule role-axis-domain" style="pointer-events: none;"><line transform="translate(0,50)" x2="0" y2="-50" style="fill: none; stroke: #888; stroke-width: 1; opacity: 1;"></line></g><g class="mark-text role-axis-title" style="pointer-events: none;"><text text-anchor="middle" transform="translate(-34,25) rotate(-90) translate(0,-2)" style="font: bold 11px sans-serif; fill: #000; opacity: 1;">Time spent in school (min)</text></g></g></g></g></g></g></g></g></svg>