<svg class="marks" width="358" height="271" viewBox="0 0 358 271" version="1.1" xmlns="http://www.w3.org/2000/svg" xmlns:xlink="http://www.w3.org/1999/xlink"><defs><clipPath id="clip1"><rect x="0" y="0" width="300" height="50"></rect></clipPath></defs><g transform="translate(53,12)"><g class="mark-group role-frame root"><g transform="translate(0,0)"><path class="background" d="M0.5,0.5h300v50h-300Z" style="fill: none; stroke: #ddd;"></path><g><g class="mark-group role-axis"><g transform="translate(0.5,0.5)"><path class="background" d="M0,0h0v0h0Z" style="pointer-events: none; fill: none;"></path><g><g class="mark-rule role-axis-grid" style="pointer-events: none;"><line transform="translate(0,33)" x2="300" y2="0" style="fill: none; stroke: #ddd; stroke-width: 1; opacity: 1;"></line><line transform="translate(0,0)" x2="300" y2="0" style="fill: none; stroke: #ddd; stroke-width: 1; opacity: 1;"></line></g></g></g></g><g class="mark-rect role-mark layer_0_marks" clip-path="url(#clip1)"><path d="M0.8333333333333428,18.33333333333333h15.000000000000002v31.66666666666667h-15.000000000000002Z" style="fill: #4c78a8;"></path><path d="M34.16666666666668,19.99999999999999h15.000000000000002v30.00000000000001h-15.000000000000002Z" style="fill: #4c78a8;"></path><path d="M17.50000000000001,19.99999999999999h15.000000000000002v30.00000000000001h-15.000000000000002Z" style="fill: #4c78a8;"></path><path d="M217.50000000000003,16.66666666666667h15.000000000000002v33.33333333333333h-15.000000000000002Z" style="fill: #4c78a8;"></path><path d="M84.16666666666669,19.99999999999999h15.000000000000002v30.00000000000001h-15.000000000000002Z" style="fill: #4c78a8;"></path><path d="M200.83333333333334,13.33333333333335h15.000000000000002v36.66666666666665h-15.000000000000002Z" style="fill: #4c78a8;"></path><path d="M117.50000000000001,18.33333333333333h15.000000000000002v31.66666666666667h-15.000000000000002Z" style="fill: #4c78a8;"></path><path d="M134.16666666666669,18.33333333333333h15.000000000000002v31.66666666666667h-15.000000000000002Z" style="fill: #4c78a8;"></path><path d="M150.83333333333334,18.33333333333333h15.000000000000002v31.66666666666667h-15.000000000000002Z" style="fill: #4c78a8;"></path><path d="M267.5,13.33333333333335h15.000000000000002v36.66666666666665h-15.000000000000002Z" style="fill: #4c78a8;"></path><path d="M167.50000000000003,19.99999999999999h15.000000000000002v30.00000000000001h-15.000000000000002Z" style="fill: #4c78a8;"></path><path d="M184.16666666666669,18.33333333333333h15.000000000000002v31.66666666666667h-15.000000000000002Z" style="fill: #4c78a8;"></path><path d="M50.83333333333334,19.99999999999999h15.000000000000002v30.00000000000001h-15.000000000000002Z" style="fill: #4c78a8;"></path><path d="M67.50000000000001,19.99999999999999h15.000000000000002v30.00000000000001h-15.000000000000002Z" style="fill: #4c78a8;"></path><path d="M100.83333333333334,15.000000000000007h15.000000000000002v34.99999999999999h-15.000000000000002Z" style="fill: #4c78a8;"></path><path d="M250.83333333333337,19.99999999999999h15.000000000000002v30.00000000000001h-15.000000000000002Z" style="fill: #4c78a8;"></path><path d="M234.16666666666669,19.99999999999999h15.000000000000002v30.00000000000001h-15.000000000000002Z" style="fill: #4c78a8;"></path><path d="M284.16666666666674,18.33333333333333h15.000000000000002v31.66666666666667h-15.000000000000002Z" style="fill: #4c78a8;"></path></g><g class="mark-group role-axis"><g transform="translate(0.5,50.5)"><path class="background" d="M0,0h0v0h0Z" style="pointer-events: none; fill: none;"></path><g><g class="mark-rule role-axis-tick" style="pointer-events: none;"><line transform="translate(7,0)" x2="0" y2="5" style="fill: none; stroke: #888; stroke-width: 1; opacity: 1;"></line><line transform="translate(24,0)" x2="0" y2="5" style="fill: none; stroke: #888; stroke-width: 1; opacity: 1;"></line><line transform="translate(41,0)" x2="0" y2="5" style="fill: none; stroke: #888; stroke-width: 1; opacity: 1;"></line><line transform="translate(57,0)" x2="0" y2="5" style="fill: none; stroke: #888; stroke-width: 1; opacity: 1;"></line><line transform="translate(74,0)" x2="0" y2="5" style="fill: none; stroke: #888; stroke-width: 1; opacity: 1;"></line><line transform="translate(91,0)" x2="0" y2="5" style="fill: none; stroke: #888; stroke-width: 1; opacity: 1;"></line><line transform="translate(107,0)" x2="0" y2="5" style="fill: none; stroke: #888; stroke-width: 1; opacity: 1;"></line><line transform="translate(124,0)" x2="0" y2="5" style="fill: none; stroke: #888; stroke-width: 1; opacity: 1;"></line><line transform="translate(141,0)" x2="0" y2="5" style="fill: none; stroke: #888; stroke-width: 1; opacity: 1;"></line><line transform="translate(157,0)" x2="0" y2="5" style="fill: none; stroke: #888; stroke-width: 1; opacity: 1;"></line><line transform="translate(174,0)" x2="0" y2="5" style="fill: none; stroke: #888; stroke-width: 1; opacity: 1;"></line><line transform="translate(191,0)" x2="0" y2="5" style="fill: none; stroke: #888; stroke-width: 1; opacity: 1;"></line><line transform="translate(207,0)" x2="0" y2="5" style="fill: none; stroke: #888; stroke-width: 1; opacity: 1;"></line><line transform="translate(224,0)" x2="0" y2="5" style="fill: none; stroke: #888; stroke-width: 1; opacity: 1;"></line><line transform="translate(241,0)" x2="0" y2="5" style="fill: none; stroke: #888; stroke-width: 1; opacity: 1;"></line><line transform="translate(257,0)" x2="0" y2="5" style="fill: none; stroke: #888; stroke-width: 1; opacity: 1;"></line><line transform="translate(274,0)" x2="0" y2="5" style="fill: none; stroke: #888; stroke-width: 1; opacity: 1;"></line><line transform="translate(291,0)" x2="0" y2="5" style="fill: none; stroke: #888; stroke-width: 1; opacity: 1;"></line></g><g class="mark-text role-axis-label" style="pointer-events: none;"><text text-anchor="end" transform="translate(7.333333333333343,7) rotate(270) translate(0,3)" style="font: 10px sans-serif; fill: #000; opacity: 1;">12 Angry Men</text><text text-anchor="end" transform="translate(24.00000000000001,7) rotate(270) translate(0,3)" style="font: 10px sans-serif; fill: #000; opacity: 1;">C'era una volta il West</text><text text-anchor="end" transform="translate(40.66666666666668,7) rotate(270) translate(0,3)" style="font: 10px sans-serif; fill: #000; opacity: 1;">Casablanca</text><text text-anchor="end" transform="translate(57.33333333333334,7) rotate(270) translate(0,3)" style="font: 10px sans-serif; fill: #000; opacity: 1;">Cidade de Deus</text><text text-anchor="end" transform="translate(74.00000000000001,7) rotate(270) translate(0,3)" style="font: 10px sans-serif; fill: #000; opacity: 1;">Fight Club</text><text text-anchor="end" transform="translate(90.66666666666669,7) rotate(270) translate(0,3)" style="font: 10px sans-serif; fill: #000; opacity: 1;">Goodfellas</text><text text-anchor="end" transform="translate(107.33333333333334,7) rotate(270) translate(0,3)" style="font: 10px sans-serif; fill: #000; opacity: 1;">Inception</text><text text-anchor="end" transform="translate(124.00000000000001,7) rotate(270) translate(0,3)" style="font: 10px sans-serif; fill: #000; opacity: 1;">One Flew Over the Cuckoo's Nest</text><text text-anchor="end" transform="translate(140.66666666666669,7) rotate(270) translate(0,3)" style="font: 10px sans-serif; fill: #000; opacity: 1;">Pulp Fiction</text><text text-anchor="end" transform="translate(157.33333333333334,7) rotate(270) translate(0,3)" style="font: 10px sans-serif; fill: #000; opacity: 1;">Schindler's List</text><text text-anchor="end" transform="translate(174.00000000000003,7) rotate(270) translate(0,3)" style="font: 10px sans-serif; fill: #000; opacity: 1;">Shichinin no samurai</text><text text-anchor="end" transform="translate(190.66666666666669,7) rotate(270) translate(0,3)" style="font: 10px sans-serif; fill: #000; opacity: 1;">The Dark Knight</text><text text-anchor="end" transform="translate(207.33333333333334,7) rotate(270) translate(0,3)" style="font: 10px sans-serif; fill: #000; opacity: 1;">The Godfather</text><text text-anchor="end" transform="translate(224.00000000000003,7) rotate(270) translate(0,3)" style="font: 10px sans-serif; fill: #000; opacity: 1;">The Godfather: Part II</text><text text-anchor="end" transform="translate(240.66666666666669,7) rotate(270) translate(0,3)" style="font: 10px sans-serif; fill: #000; opacity: 1;">The Lord of the Rings: The Fellowship…</text><text text-anchor="end" transform="translate(257.33333333333337,7) rotate(270) translate(0,3)" style="font: 10px sans-serif; fill: #000; opacity: 1;">The Lord of the Rings: The Return of t…</text><text text-anchor="end" transform="translate(274,7) rotate(270) translate(0,3)" style="font: 10px sans-serif; fill: #000; opacity: 1;">The Shawshank Redemption</text><text text-anchor="end" transform="translate(290.66666666666674,7) rotate(270) translate(0,3)" style="font: 10px sans-serif; fill: #000; opacity: 1;">Toy Story 3</text></g><g class="mark-rule role-axis-domain" style="pointer-events: none;"><line transform="translate(0,0)" x2="300" y2="0" style="fill: none; stroke: #888; stroke-width: 1; opacity: 1;"></line></g><g class="mark-text role-axis-title" style="pointer-events: none;"><text text-anchor="middle" transform="translate(150,199.974609375)" style="font: bold 11px sans-serif; fill: #000; opacity: 1;">Title</text></g></g></g></g><g class="mark-group role-axis"><g transform="translate(0.5,0.5)"><path class="background" d="M0,0h0v0h0Z" style="pointer-events: none; fill: none;"></path><g><g class="mark-rule role-axis-tick" style="pointer-events: none;"><line transform="translate(0,33)" x2="-5" y2="0" style="fill: none; stroke: #888; stroke-width: 1; opacity: 1;"></line><line transform="translate(0,0)" x2="-5" y2="0" style="fill: none; stroke: #888; stroke-width: 1; opacity: 1;"></line></g><g class="mark-text role-axis-label" style="pointer-events: none;"><text text-anchor="end" transform="translate(-7,36.333333333333336)" style="font: 10px sans-serif; fill: #000; opacity: 1;">8</text><text text-anchor="end" transform="translate(-7,3)" style="font: 10px sans-serif; fill: #000; opacity: 1;">10</text></g><g class="mark-rule role-axis-domain" style="pointer-events: none;"><line transform="translate(0,50)" x2="0" y2="-50" style="fill: none; stroke: #888; stroke-width: 1; opacity: 1;"></line></g><g class="mark-text role-axis-title" style="pointer-events: none;"><text text-anchor="middle" transform="translate(-34,25) rotate(-90) translate(0,-2)" style="font: bold 11px sans-serif; fill: #000; opacity: 1;">IMDB rating</text></g></g></g></g></g></g></g></g></svg>