<svg class="marks" width="375" height="97" viewBox="0 0 375 97" version="1.1" xmlns="http://www.w3.org/2000/svg" xmlns:xlink="http://www.w3.org/1999/xlink"><defs><clipPath id="clip1"><rect x="0" y="0" width="300" height="50"></rect></clipPath></defs><g transform="translate(69,7)"><g class="mark-group role-frame root"><g transform="translate(0,0)"><path class="background" d="M0.5,0.5h300v50h-300Z" style="fill: none; stroke: none;"></path><g><g class="mark-rect role-mark marks" clip-path="url(#clip1)"><path d="M0,0.5h285.71428571428567v9h-285.71428571428567Z" style="fill: #4c78a8;"></path><path d="M0,10.5h71.42857142857142v9h-71.42857142857142Z" style="fill: #4c78a8;"></path><path d="M0,20.5h142.85714285714283v9h-142.85714285714283Z" style="fill: #4c78a8;"></path><path d="M0,30.5h285.71428571428567v9h-285.71428571428567Z" style="fill: #4c78a8;"></path><path d="M0,40.5h71.42857142857142v9h-71.42857142857142Z" style="fill: #4c78a8;"></path></g><g class="mark-group role-axis"><g transform="translate(0.5,50.5)"><path class="background" d="M0,0h0v0h0Z" style="pointer-events: none; fill: none;"></path><g><g class="mark-rule role-axis-tick" style="pointer-events: none;"><line transform="translate(0,0)" x2="0" y2="5" style="fill: none; stroke: #888; stroke-width: 1; opacity: 1;"></line><line transform="translate(43,0)" x2="0" y2="5" style="fill: none; stroke: #888; stroke-width: 1; opacity: 1;"></line><line transform="translate(86,0)" x2="0" y2="5" style="fill: none; stroke: #888; stroke-width: 1; opacity: 1;"></line><line transform="translate(129,0)" x2="0" y2="5" style="fill: none; stroke: #888; stroke-width: 1; opacity: 1;"></line><line transform="translate(171,0)" x2="0" y2="5" style="fill: none; stroke: #888; stroke-width: 1; opacity: 1;"></line><line transform="translate(214,0)" x2="0" y2="5" style="fill: none; stroke: #888; stroke-width: 1; opacity: 1;"></line><line transform="translate(257,0)" x2="0" y2="5" style="fill: none; stroke: #888; stroke-width: 1; opacity: 1;"></line><line transform="translate(300,0)" x2="0" y2="5" style="fill: none; stroke: #888; stroke-width: 1; opacity: 1;"></line></g><g class="mark-text role-axis-label" style="pointer-events: none;"><text text-anchor="start" transform="translate(0,15)" style="font: 10px sans-serif; fill: #000; opacity: 1;">0</text><text text-anchor="middle" transform="translate(42.857142857142854,15)" style="font: 10px sans-serif; fill: #000; opacity: 1;">5</text><text text-anchor="middle" transform="translate(85.71428571428571,15)" style="font: 10px sans-serif; fill: #000; opacity: 1;">10</text><text text-anchor="middle" transform="translate(128.57142857142856,15)" style="font: 10px sans-serif; fill: #000; opacity: 1;">15</text><text text-anchor="middle" transform="translate(171.42857142857142,15)" style="font: 10px sans-serif; fill: #000; opacity: 1;">20</text><text text-anchor="middle" transform="translate(214.28571428571428,15)" style="font: 10px sans-serif; fill: #000; opacity: 1;">25</text><text text-anchor="middle" transform="translate(257.1428571428571,15)" style="font: 10px sans-serif; fill: #000; opacity: 1;">30</text><text text-anchor="end" transform="translate(300,15)" style="font: 10px sans-serif; fill: #000; opacity: 1;">35</text></g><g class="mark-rule role-axis-domain" style="pointer-events: none;"><line transform="translate(0,0)" x2="300" y2="0" style="fill: none; stroke: #888; stroke-width: 1; opacity: 1;"></line></g><g class="mark-text role-axis-title" style="pointer-events: none;"><text text-anchor="middle" transform="translate(150,31)" style="font: bold 11px sans-serif; fill: #000; opacity: 1;">% of total Time</text></g></g></g></g><g class="mark-group role-axis"><g transform="translate(0.5,0.5)"><path class="background" d="M0,0h0v0h0Z" style="pointer-events: none; fill: none;"></path><g><g class="mark-rule role-axis-tick" style="pointer-events: none;"><line transform="translate(0,4)" x2="-5" y2="0" style="fill: none; stroke: #888; stroke-width: 1; opacity: 1;"></line><line transform="translate(0,14)" x2="-5" y2="0" style="fill: none; stroke: #888; stroke-width: 1; opacity: 1;"></line><line transform="translate(0,24)" x2="-5" y2="0" style="fill: none; stroke: #888; stroke-width: 1; opacity: 1;"></line><line transform="translate(0,34)" x2="-5" y2="0" style="fill: none; stroke: #888; stroke-width: 1; opacity: 1;"></line><line transform="translate(0,44)" x2="-5" y2="0" style="fill: none; stroke: #888; stroke-width: 1; opacity: 1;"></line></g><g class="mark-text role-axis-label" style="pointer-events: none;"><text text-anchor="end" transform="translate(-7,7)" style="font: 10px sans-serif; fill: #000; opacity: 1;">Sleeping</text><text text-anchor="end" transform="translate(-7,17)" style="font: 10px sans-serif; fill: #000; opacity: 1;">Eating</text><text text-anchor="end" transform="translate(-7,27)" style="font: 10px sans-serif; fill: #000; opacity: 1;">TV</text><text text-anchor="end" transform="translate(-7,37)" style="font: 10px sans-serif; fill: #000; opacity: 1;">Work</text><text text-anchor="end" transform="translate(-7,47)" style="font: 10px sans-serif; fill: #000; opacity: 1;">Exercise</text></g><g class="mark-rule role-axis-domain" style="pointer-events: none;"><line transform="translate(0,0)" x2="0" y2="50" style="fill: none; stroke: #888; stroke-width: 1; opacity: 1;"></line></g><g class="mark-text role-axis-title" style="pointer-events: none;"><text text-anchor="middle" transform="translate(-50.9208984375,25) rotate(-90) translate(0,-2)" style="font: bold 11px sans-serif; fill: #000; opacity: 1;">Activity</text></g></g></g></g></g></g></g></g></svg>