<svg class="marks" width="400" height="314" viewBox="0 0 400 314" version="1.1" xmlns="http://www.w3.org/2000/svg" xmlns:xlink="http://www.w3.org/1999/xlink"><g transform="translate(94,10)"><g class="mark-group role-frame root"><g transform="translate(0,0)"><path class="background" d="M0,0h0v0h0Z" style="fill: none;"></path><g><g class="mark-group role-row-title row-title"><g transform="translate(-68,133)"><path class="background" d="M0,0h0v0h0Z" style="fill: none;"></path><g><g class="mark-text role-title" style="pointer-events: none;"><text text-anchor="middle" transform="translate(-10,0) rotate(-90) translate(0,-2)" style="font-family: sans-serif; font-size: 11px; font-weight: bold; fill: #000; opacity: 1;">organ</text></g></g></g></g><g class="mark-group role-row-header row_header"><g transform="translate(-1,0)"><path class="background" d="M0,0h0v50h0Z" style="fill: none;"></path><g><g class="mark-group role-axis"><g transform="translate(0.5,0.5)"><path class="background" d="M0,0h0v0h0Z" style="pointer-events: none; fill: none;"></path><g><g class="mark-rule role-axis-tick" style="pointer-events: none;"><line transform="translate(0,50)" x2="-5" y2="0" style="fill: none; stroke: #888; stroke-width: 1; opacity: 1;"></line><line transform="translate(0,19)" x2="-5" y2="0" style="fill: none; stroke: #888; stroke-width: 1; opacity: 1;"></line></g><g class="mark-text role-axis-label" style="pointer-events: none;"><text text-anchor="end" transform="translate(-7,53)" style="font-family: sans-serif; font-size: 10px; fill: #000; opacity: 1;">0.0</text><text text-anchor="end" transform="translate(-7,21.75)" style="font-family: sans-serif; font-size: 10px; fill: #000; opacity: 1;">0.5</text></g><g class="mark-rule role-axis-domain" style="pointer-events: none;"><line transform="translate(0,50)" x2="0" y2="-50" style="fill: none; stroke: #888; stroke-width: 1; opacity: 1;"></line></g><g class="mark-text role-axis-title" style="pointer-events: none;"><text text-anchor="middle" transform="translate(-26,25) rotate(-90) translate(0,-2)" style="font-family: sans-serif; font-size: 11px; font-weight: bold; fill: #000; opacity: 1;">density</text></g></g></g></g><g class="mark-text role-title" style="pointer-events: none;"><text text-anchor="middle" transform="translate(-47,25) rotate(-90) translate(0,-2)" style="font-family: sans-serif; font-size: 10px; fill: #000; opacity: 1;">petalLength</text></g></g></g><g transform="translate(-1,72)"><path class="background" d="M0,0h0v50h0Z" style="fill: none;"></path><g><g class="mark-group role-axis"><g transform="translate(0.5,0.5)"><path class="background" d="M0,0h0v0h0Z" style="pointer-events: none; fill: none;"></path><g><g class="mark-rule role-axis-tick" style="pointer-events: none;"><line transform="translate(0,50)" x2="-5" y2="0" style="fill: none; stroke: #888; stroke-width: 1; opacity: 1;"></line><line transform="translate(0,19)" x2="-5" y2="0" style="fill: none; stroke: #888; stroke-width: 1; opacity: 1;"></line></g><g class="mark-text role-axis-label" style="pointer-events: none;"><text text-anchor="end" transform="translate(-7,53)" style="font-family: sans-serif; font-size: 10px; fill: #000; opacity: 1;">0.0</text><text text-anchor="end" transform="translate(-7,21.75)" style="font-family: sans-serif; font-size: 10px; fill: #000; opacity: 1;">0.5</text></g><g class="mark-rule role-axis-domain" style="pointer-events: none;"><line transform="translate(0,50)" x2="0" y2="-50" style="fill: none; stroke: #888; stroke-width: 1; opacity: 1;"></line></g><g class="mark-text role-axis-title" style="pointer-events: none;"><text text-anchor="middle" transform="translate(-26,25) rotate(-90) translate(0,-2)" style="font-family: sans-serif; font-size: 11px; font-weight: bold; fill: #000; opacity: 1;">density</text></g></g></g></g><g class="mark-text role-title" style="pointer-events: none;"><text text-anchor="middle" transform="translate(-47,25) rotate(-90) translate(0,-2)" style="font-family: sans-serif; font-size: 10px; fill: #000; opacity: 1;">petalWidth</text></g></g></g><g transform="translate(-1,144)"><path class="background" d="M0,0h0v50h0Z" style="fill: none;"></path><g><g class="mark-group role-axis"><g transform="translate(0.5,0.5)"><path class="background" d="M0,0h0v0h0Z" style="pointer-events: none; fill: none;"></path><g><g class="mark-rule role-axis-tick" style="pointer-events: none;"><line transform="translate(0,50)" x2="-5" y2="0" style="fill: none; stroke: #888; stroke-width: 1; opacity: 1;"></line><line transform="translate(0,19)" x2="-5" y2="0" style="fill: none; stroke: #888; stroke-width: 1; opacity: 1;"></line></g><g class="mark-text role-axis-label" style="pointer-events: none;"><text text-anchor="end" transform="translate(-7,53)" style="font-family: sans-serif; font-size: 10px; fill: #000; opacity: 1;">0.0</text><text text-anchor="end" transform="translate(-7,21.75)" style="font-family: sans-serif; font-size: 10px; fill: #000; opacity: 1;">0.5</text></g><g class="mark-rule role-axis-domain" style="pointer-events: none;"><line transform="translate(0,50)" x2="0" y2="-50" style="fill: none; stroke: #888; stroke-width: 1; opacity: 1;"></line></g><g class="mark-text role-axis-title" style="pointer-events: none;"><text text-anchor="middle" transform="translate(-26,25) rotate(-90) translate(0,-2)" style="font-family: sans-serif; font-size: 11px; font-weight: bold; fill: #000; opacity: 1;">density</text></g></g></g></g><g class="mark-text role-title" style="pointer-events: none;"><text text-anchor="middle" transform="translate(-47,25) rotate(-90) translate(0,-2)" style="font-family: sans-serif; font-size: 10px; fill: #000; opacity: 1;">sepalLength</text></g></g></g><g transform="translate(-1,216)"><path class="background" d="M0,0h0v50h0Z" style="fill: none;"></path><g><g class="mark-group role-axis"><g transform="translate(0.5,0.5)"><path class="background" d="M0,0h0v0h0Z" style="pointer-events: none; fill: none;"></path><g><g class="mark-rule role-axis-tick" style="pointer-events: none;"><line transform="translate(0,50)" x2="-5" y2="0" style="fill: none; stroke: #888; stroke-width: 1; opacity: 1;"></line><line transform="translate(0,19)" x2="-5" y2="0" style="fill: none; stroke: #888; stroke-width: 1; opacity: 1;"></line></g><g class="mark-text role-axis-label" style="pointer-events: none;"><text text-anchor="end" transform="translate(-7,53)" style="font-family: sans-serif; font-size: 10px; fill: #000; opacity: 1;">0.0</text><text text-anchor="end" transform="translate(-7,21.75)" style="font-family: sans-serif; font-size: 10px; fill: #000; opacity: 1;">0.5</text></g><g class="mark-rule role-axis-domain" style="pointer-events: none;"><line transform="translate(0,50)" x2="0" y2="-50" style="fill: none; stroke: #888; stroke-width: 1; opacity: 1;"></line></g><g class="mark-text role-axis-title" style="pointer-events: none;"><text text-anchor="middle" transform="translate(-26,25) rotate(-90) translate(0,-2)" style="font-family: sans-serif; font-size: 11px; font-weight: bold; fill: #000; opacity: 1;">density</text></g></g></g></g><g class="mark-text role-title" style="pointer-events: none;"><text text-anchor="middle" transform="translate(-47,25) rotate(-90) translate(0,-2)" style="font-family: sans-serif; font-size: 10px; fill: #000; opacity: 1;">sepalWidth</text></g></g></g></g><g class="mark-group role-column-footer column_footer"><g transform="translate(0,267)"><path class="background" d="M0,0h300v0h-300Z" style="fill: none;"></path><g><g class="mark-group role-axis"><g transform="translate(0.5,0.5)"><path class="background" d="M0,0h0v0h0Z" style="pointer-events: none; fill: none;"></path><g><g class="mark-rule role-axis-tick" style="pointer-events: none;"><line transform="translate(0,0)" x2="0" y2="5" style="fill: none; stroke: #888; stroke-width: 1; opacity: 1;"></line><line transform="translate(38,0)" x2="0" y2="5" style="fill: none; stroke: #888; stroke-width: 1; opacity: 1;"></line><line transform="translate(75,0)" x2="0" y2="5" style="fill: none; stroke: #888; stroke-width: 1; opacity: 1;"></line><line transform="translate(113,0)" x2="0" y2="5" style="fill: none; stroke: #888; stroke-width: 1; opacity: 1;"></line><line transform="translate(150,0)" x2="0" y2="5" style="fill: none; stroke: #888; stroke-width: 1; opacity: 1;"></line><line transform="translate(188,0)" x2="0" y2="5" style="fill: none; stroke: #888; stroke-width: 1; opacity: 1;"></line><line transform="translate(225,0)" x2="0" y2="5" style="fill: none; stroke: #888; stroke-width: 1; opacity: 1;"></line><line transform="translate(263,0)" x2="0" y2="5" style="fill: none; stroke: #888; stroke-width: 1; opacity: 1;"></line><line transform="translate(300,0)" x2="0" y2="5" style="fill: none; stroke: #888; stroke-width: 1; opacity: 1;"></line></g><g class="mark-text role-axis-label" style="pointer-events: none;"><text text-anchor="start" transform="translate(0,15)" style="font-family: sans-serif; font-size: 10px; fill: #000; opacity: 1;">0</text><text text-anchor="middle" transform="translate(37.5,15)" style="font-family: sans-serif; font-size: 10px; fill: #000; opacity: 1;">1</text><text text-anchor="middle" transform="translate(75,15)" style="font-family: sans-serif; font-size: 10px; fill: #000; opacity: 1;">2</text><text text-anchor="middle" transform="translate(112.5,15)" style="font-family: sans-serif; font-size: 10px; fill: #000; opacity: 1;">3</text><text text-anchor="middle" transform="translate(150,15)" style="font-family: sans-serif; font-size: 10px; fill: #000; opacity: 1;">4</text><text text-anchor="middle" transform="translate(187.5,15)" style="font-family: sans-serif; font-size: 10px; fill: #000; opacity: 1;">5</text><text text-anchor="middle" transform="translate(225,15)" style="font-family: sans-serif; font-size: 10px; fill: #000; opacity: 1;">6</text><text text-anchor="middle" transform="translate(262.5,15)" style="font-family: sans-serif; font-size: 10px; fill: #000; opacity: 1;">7</text><text text-anchor="end" transform="translate(300,15)" style="font-family: sans-serif; font-size: 10px; fill: #000; opacity: 1;">8</text></g><g class="mark-rule role-axis-domain" style="pointer-events: none;"><line transform="translate(0,0)" x2="300" y2="0" style="fill: none; stroke: #888; stroke-width: 1; opacity: 1;"></line></g><g class="mark-text role-axis-title" style="pointer-events: none;"><text text-anchor="middle" transform="translate(150,30)" style="font-family: sans-serif; font-size: 11px; font-weight: bold; fill: #000; opacity: 1;">value</text></g></g></g></g></g></g></g><g class="mark-group role-scope cell"><g transform="translate(0,0)"><path class="background" d="M0.5,0.5h300v50h-300Z" style="fill: none; stroke: #ddd;"></path><g><g class="mark-group role-axis"><g transform="translate(0.5,50.5)"><path class="background" d="M0,0h0v0h0Z" style="pointer-events: none; fill: none;"></path><g><g class="mark-rule role-axis-grid" style="pointer-events: none;"><line transform="translate(0,-50)" x2="0" y2="50" style="fill: none; stroke: #ddd; stroke-width: 1; opacity: 1;"></line><line transform="translate(38,-50)" x2="0" y2="50" style="fill: none; stroke: #ddd; stroke-width: 1; opacity: 1;"></line><line transform="translate(75,-50)" x2="0" y2="50" style="fill: none; stroke: #ddd; stroke-width: 1; opacity: 1;"></line><line transform="translate(113,-50)" x2="0" y2="50" style="fill: none; stroke: #ddd; stroke-width: 1; opacity: 1;"></line><line transform="translate(150,-50)" x2="0" y2="50" style="fill: none; stroke: #ddd; stroke-width: 1; opacity: 1;"></line><line transform="translate(188,-50)" x2="0" y2="50" style="fill: none; stroke: #ddd; stroke-width: 1; opacity: 1;"></line><line transform="translate(225,-50)" x2="0" y2="50" style="fill: none; stroke: #ddd; stroke-width: 1; opacity: 1;"></line><line transform="translate(263,-50)" x2="0" y2="50" style="fill: none; stroke: #ddd; stroke-width: 1; opacity: 1;"></line><line transform="translate(300,-50)" x2="0" y2="50" style="fill: none; stroke: #ddd; stroke-width: 1; opacity: 1;"></line></g></g></g></g><g class="mark-group role-axis"><g transform="translate(0.5,0.5)"><path class="background" d="M0,0h0v0h0Z" style="pointer-events: none; fill: none;"></path><g><g class="mark-rule role-axis-grid" style="pointer-events: none;"><line transform="translate(0,50)" x2="300" y2="0" style="fill: none; stroke: #ddd; stroke-width: 1; opacity: 1;"></line><line transform="translate(0,19)" x2="300" y2="0" style="fill: none; stroke: #ddd; stroke-width: 1; opacity: 1;"></line></g></g></g></g><g class="mark-area role-mark child_marks"><path d="M37.5,40.241613354517966L46.35,30.484220471070547L48.5625,28.449903974513095L49.66875,27.608480448859584L50.775000000000006,26.908932163499664L51.88125000000001,26.36659120569919L52.987500000000004,25.993517492853357L55.199999999999996,25.784435664949036L56.306250000000006,25.952773597203986L57.412499999999994,26.298916438956052L59.62499999999999,27.488235519480117L60.731249999999996,28.304425354808306L61.8375,29.245488671583423L62.94375,30.29164281624777L64.05,31.42179976809262L66.2625,33.84749008940662L68.47500000000001,36.35397097891456L69.58125000000001,37.58983858079334L70.6875,38.792446660942375L72.89999999999999,41.046718276998526L74.00625,42.07895347943471L75.11250000000001,43.03901974553801L76.21875000000001,43.92309264548156L77.32500000000002,44.72939003858847L78.43125000000002,45.45792057865307L79.53750000000002,46.11020726309832L81.75,47.19800258221535L82.85625,47.64158942491124L83.96249999999999,48.02457967907213L85.06875,48.35201497467956L86.175,48.62897957108435L87.28125,48.86045209678446L88.3875,49.051189901429886L90.6,49.327901884277814L91.70625,49.421654115991295L92.81249999999999,49.490181900812736L93.91874999999999,49.53636084173888L95.02499999999999,49.56267777312222L96.13125,49.57125705939957L97.2375,49.563893317637124L98.34375,49.542087897509916L99.45,49.50708687879869L100.55625,49.45991877563391L101.66250000000001,49.40143055111877L103.875,49.25317034356768L104.98125,49.16446711058611L106.08749999999999,49.06662971588835L107.19375,48.960025159600924L108.3,48.8449834707735L109.40625,48.72180848681314L110.5125,48.59078498278271L111.61875,48.452182185283704L112.72500000000001,48.30625365620657L113.83125000000001,48.153233509411635L114.93750000000001,47.99332895490413L117.15,47.65349149946446L118.25625000000001,47.473723428341565L119.3625,47.28736478793277L120.46875,47.09426795014026L121.575,46.89415981273696L122.68125,46.6866268584828L123.78750000000001,46.47110557884658L124.89375000000001,46.246880477396516L126.00000000000001,46.01309167825645L127.10625000000002,45.76875373529778L128.2125,45.512786567414246L130.425,44.961440848429895L131.53125,44.66387063300191L132.6375,44.350420399956974L133.74375,44.02036885283128L134.85,43.67326878951334L135.95625,43.30900679176674L137.0625,42.927849729421524L139.275,42.117971839580754L140.38125,41.691839716584695L141.48749999999998,41.25393710794418L142.59375,40.806428901102514L143.7,40.35170805525793L148.125,38.51140503421111L149.23125000000002,38.058075611782776L150.3375,37.61161993880947L151.44375000000002,37.17364923704053L152.55,36.74547459204402L154.76250000000002,35.922385442078806L156.975,35.14799163342014L158.08125,34.78021422480682L159.1875,34.42592862519811L161.4,33.759775234473594L162.50625000000002,33.449127631666904L163.6125,33.15443690976695L165.82500000000002,32.6165481087375L168.0375,32.153938942985214L169.14375,31.95338389871388L170.25,31.774598804225956L172.4625,31.485705303562657L174.67499999999998,31.293118332891062L175.78125,31.234401821551856L176.8875,31.201365080664992L179.1,31.213765073505282L180.20625,31.25968148622363L181.3125,31.3321734576748L183.525,31.555967706937587L184.63125000000002,31.706095245296225L185.7375,31.880323851454317L187.95000000000002,32.294336405379795L189.05625000000003,32.529582861576316L190.16250000000002,32.779882319068896L192.37500000000003,33.31211519004191L196.8,34.400987927312634L199.01250000000002,34.90580959205903L201.225,35.36370361328331L202.33125,35.574606189590185L203.4375,35.77493552889416L205.65,36.15276480973344L207.8625,36.52044896032409L210.07500000000002,36.90611201834692L211.18125000000003,37.11433818157521L212.28750000000002,37.3368146941935L214.50000000000003,37.83326962604441L215.60625000000005,38.10997534259365L216.71250000000003,38.406306632017284L218.92500000000004,39.05558029670321L221.13750000000002,39.77037302155834L222.24375000000003,40.146701588594624L223.35000000000002,40.53189641993796L227.775,42.09799070677102L228.88125000000002,42.47993112236273L229.9875,42.852098690326244L232.20000000000002,43.557189955664086L233.30625000000003,43.88600906740966L234.41250000000002,44.196929126706806L236.62500000000003,44.76143273847501L237.73125000000005,45.01433606998024L238.83750000000003,45.247978961266426L241.05000000000004,45.660976647574664L243.26250000000002,46.01108361181011L244.36875000000003,46.167182871520836L245.47500000000002,46.31348264110462L247.68750000000003,46.585505148594166L249.89999999999998,46.843969910268676L254.325,47.37072848869884L258.75,47.94238633063144L258.75,50L254.325,50L249.89999999999998,50L247.68750000000003,50L245.47500000000002,50L244.36875000000003,50L243.26250000000002,50L241.05000000000004,50L238.83750000000003,50L237.73125000000005,50L236.62500000000003,50L234.41250000000002,50L233.30625000000003,50L232.20000000000002,50L229.9875,50L228.88125000000002,50L227.775,50L223.35000000000002,50L222.24375000000003,50L221.13750000000002,50L218.92500000000004,50L216.71250000000003,50L215.60625000000005,50L214.50000000000003,50L212.28750000000002,50L211.18125000000003,50L210.07500000000002,50L207.8625,50L205.65,50L203.4375,50L202.33125,50L201.225,50L199.01250000000002,50L196.8,50L192.37500000000003,50L190.16250000000002,50L189.05625000000003,50L187.95000000000002,50L185.7375,50L184.63125000000002,50L183.525,50L181.3125,50L180.20625,50L179.1,50L176.8875,50L175.78125,50L174.67499999999998,50L172.4625,50L170.25,50L169.14375,50L168.0375,50L165.82500000000002,50L163.6125,50L162.50625000000002,50L161.4,50L159.1875,50L158.08125,50L156.975,50L154.76250000000002,50L152.55,50L151.44375000000002,50L150.3375,50L149.23125000000002,50L148.125,50L143.7,50L142.59375,50L141.48749999999998,50L140.38125,50L139.275,50L137.0625,50L135.95625,50L134.85,50L133.74375,50L132.6375,50L131.53125,50L130.425,50L128.2125,50L127.10625000000002,50L126.00000000000001,50L124.89375000000001,50L123.78750000000001,50L122.68125,50L121.575,50L120.46875,50L119.3625,50L118.25625000000001,50L117.15,50L114.93750000000001,50L113.83125000000001,50L112.72500000000001,50L111.61875,50L110.5125,50L109.40625,50L108.3,50L107.19375,50L106.08749999999999,50L104.98125,50L103.875,50L101.66250000000001,50L100.55625,50L99.45,50L98.34375,50L97.2375,50L96.13125,50L95.02499999999999,50L93.91874999999999,50L92.81249999999999,50L91.70625,50L90.6,50L88.3875,50L87.28125,50L86.175,50L85.06875,50L83.96249999999999,50L82.85625,50L81.75,50L79.53750000000002,50L78.43125000000002,50L77.32500000000002,50L76.21875000000001,50L75.11250000000001,50L74.00625,50L72.89999999999999,50L70.6875,50L69.58125000000001,50L68.47500000000001,50L66.2625,50L64.05,50L62.94375,50L61.8375,50L60.731249999999996,50L59.62499999999999,50L57.412499999999994,50L56.306250000000006,50L55.199999999999996,50L52.987500000000004,50L51.88125000000001,50L50.775000000000006,50L49.66875,50L48.5625,50L46.35,50L37.5,50Z" style="fill: #4c78a8;"></path></g></g></g><g transform="translate(0,72)"><path class="background" d="M0.5,0.5h300v50h-300Z" style="fill: none; stroke: #ddd;"></path><g><g class="mark-group role-axis"><g transform="translate(0.5,50.5)"><path class="background" d="M0,0h0v0h0Z" style="pointer-events: none; fill: none;"></path><g><g class="mark-rule role-axis-grid" style="pointer-events: none;"><line transform="translate(0,-50)" x2="0" y2="50" style="fill: none; stroke: #ddd; stroke-width: 1; opacity: 1;"></line><line transform="translate(38,-50)" x2="0" y2="50" style="fill: none; stroke: #ddd; stroke-width: 1; opacity: 1;"></line><line transform="translate(75,-50)" x2="0" y2="50" style="fill: none; stroke: #ddd; stroke-width: 1; opacity: 1;"></line><line transform="translate(113,-50)" x2="0" y2="50" style="fill: none; stroke: #ddd; stroke-width: 1; opacity: 1;"></line><line transform="translate(150,-50)" x2="0" y2="50" style="fill: none; stroke: #ddd; stroke-width: 1; opacity: 1;"></line><line transform="translate(188,-50)" x2="0" y2="50" style="fill: none; stroke: #ddd; stroke-width: 1; opacity: 1;"></line><line transform="translate(225,-50)" x2="0" y2="50" style="fill: none; stroke: #ddd; stroke-width: 1; opacity: 1;"></line><line transform="translate(263,-50)" x2="0" y2="50" style="fill: none; stroke: #ddd; stroke-width: 1; opacity: 1;"></line><line transform="translate(300,-50)" x2="0" y2="50" style="fill: none; stroke: #ddd; stroke-width: 1; opacity: 1;"></line></g></g></g></g><g class="mark-group role-axis"><g transform="translate(0.5,0.5)"><path class="background" d="M0,0h0v0h0Z" style="pointer-events: none; fill: none;"></path><g><g class="mark-rule role-axis-grid" style="pointer-events: none;"><line transform="translate(0,50)" x2="300" y2="0" style="fill: none; stroke: #ddd; stroke-width: 1; opacity: 1;"></line><line transform="translate(0,19)" x2="300" y2="0" style="fill: none; stroke: #ddd; stroke-width: 1; opacity: 1;"></line></g></g></g></g><g class="mark-area role-mark child_marks"><path d="M3.75,26.149447786446093L4.2,25.755426658157365L4.65,25.390204793215926L5.550000000000001,24.751434912045262L6.000000000000001,24.480196807773414L6.45,24.242359885272265L7.3500000000000005,23.86988281939336L7.800000000000001,23.736335224972834L8.250000000000002,23.6383642283858L8.700000000000001,23.576092306863465L9.15,23.549467868334755L10.05,23.602082274684555L10.500000000000002,23.680348252233856L10.950000000000001,23.792320914322L11.400000000000002,23.937093742741673L11.850000000000001,24.113600753175778L12.300000000000002,24.320622979185664L12.750000000000002,24.556795978846413L13.65,25.110460763917438L14.1,25.424576658603844L14.55,25.761112450242287L15,26.11811921267624L15.450000000000001,26.49356449447597L15.900000000000002,26.88534457932099L16.35,27.291297026259205L17.25,28.136851983392972L17.7,28.571950684250957L18.15,29.012239516949347L19.950000000000003,30.780308289321905L20.400000000000002,31.213073289980898L20.85,31.637913123032106L21.3,32.05282788140722L21.75,32.455896390636795L22.649999999999995,33.219251217320675L23.099999999999994,33.57615757391903L23.549999999999997,33.91447003017508L23.999999999999996,34.23276659445308L24.449999999999996,34.5297407513624L24.9,34.80420484386634L25.349999999999998,35.05509269071385L25.799999999999997,35.28146145982185L26.25,35.48249282313612L26.7,35.657493422771594L27.15,35.80589468184917L27.599999999999998,35.92725199642061L28.05,36.0212433471919L28.5,36.08766737145383L28.95,36.126440936714275L29.400000000000002,36.1375962580439L29.85,36.12127760112608L30.3,36.07773761249156L30.750000000000004,36.00733331747039L31.200000000000003,35.91052182505203L31.650000000000002,35.78785577717968L32.1,35.63997857805987L32.55,35.467619436914305L33.449999999999996,35.05277038761995L33.9,34.81212130132653L34.349999999999994,34.55066116021579L34.8,34.26946935265957L35.25,33.96967898368373L35.699999999999996,33.65247134800583L36.15,33.319070399103296L36.6,32.9707372276617L37.05,32.608764561254134L37.5,32.23447129585702L37.95,31.849197068829007L38.4,31.45429688226665L38.85,31.051135785212104L39.300000000000004,30.641083623003016L39.75,30.22550986212392L41.550000000000004,28.535092497946764L42.45,27.691493992140263L42.900000000000006,27.274538847359526L43.35000000000001,26.86241552916687L43.800000000000004,26.456274481788533L44.25000000000001,26.057220427419374L44.7,25.66630876004041L45.150000000000006,25.284542171531037L45.60000000000001,24.91286752788271L46.050000000000004,24.55217301337138L46.50000000000001,24.203285560320055L46.95,23.866968581565935L47.4,23.54392002192096L47.85,23.234770743767136L48.300000000000004,22.94008326047079L48.75,22.660350829515867L49.2,22.395996915176504L49.650000000000006,22.147375028182775L50.1,21.914768947201107L50.550000000000004,21.69839332409738L51.00000000000001,21.49839467189476L51.45,21.314852731137616L51.900000000000006,21.147782207063642L52.35,20.9971348666203L52.800000000000004,20.86280198099571L53.25000000000001,20.74461709601012L53.7,20.64235910950561L54.150000000000006,20.555755631805738L55.05,20.428188134017155L55.5,20.386456550849374L55.95,20.358852589985627L56.4,20.3449057282513L56.85,20.344118599740014L57.300000000000004,20.355971466480387L57.75,20.37992670501247L58.2,20.415433271749006L58.650000000000006,20.461931110626967L59.1,20.51885546762449L59.550000000000004,20.585641078219286L60,20.661726195761744L60.45,20.746556431008408L60.900000000000006,20.839588375664942L61.35,20.940292985681573L61.800000000000004,21.048158703181656L62.25000000000001,21.162694299230022L62.7,21.283431423112887L63.150000000000006,21.409926847344924L63.60000000000001,21.541764401187542L64.05000000000001,21.678556589000497L64.50000000000001,21.81994589319858L64.95,21.96560576490118L65.4,22.115241308490962L65.85000000000001,22.2685896692016L66.30000000000001,22.425420135491148L66.75000000000001,22.585533970299437L67.2,22.748763987307985L67.65,22.914973890002077L68.10000000000001,23.084057392666246L68.55,23.25593714342154L69.44999999999999,23.60791296956603L70.35,23.97080983371913L70.8,24.156427275656146L71.25,24.344904460414106L71.7,24.53632415145426L72.14999999999999,24.73078477623355L72.6,24.92839847382362L73.05,25.129289131800732L73.5,25.333590424980546L73.95,25.541443867059392L74.4,25.752996884736028L74.85,25.968400922460585L75.3,26.187809584620418L75.75,26.411376820752533L76.2,26.639255158290098L76.65,26.87159398642586L77.10000000000001,27.108537893916417L77.55,27.350225063068745L78,27.596785721741433L78.45,27.848340654958175L78.9,28.10499977765789L79.35000000000001,28.366860770184662L79.80000000000001,28.634007778331732L80.25,28.906510180078598L80.7,29.18442142157578L81.15,29.467777925409774L81.60000000000001,29.75659807469981L82.05000000000001,30.050881277104672L82.5,30.350607113329918L82.95,30.655734575193243L83.4,30.966201398705426L83.85000000000001,31.281923497931764L84.30000000000001,31.60279450559429L84.75000000000001,31.92868542644107L85.2,32.2594444093306L85.65,32.59489664374771L86.10000000000001,32.934844386075355L86.55000000000001,33.279067120392895L87.00000000000001,33.62732185785684L87.44999999999999,33.97934357785259L88.35,34.69352137969982L89.25,35.419065580752715L90.14999999999999,36.153141176300934L93.75,39.10996972674145L93.75,50L90.14999999999999,50L89.25,50L88.35,50L87.44999999999999,50L87.00000000000001,50L86.55000000000001,50L86.10000000000001,50L85.65,50L85.2,50L84.75000000000001,50L84.30000000000001,50L83.85000000000001,50L83.4,50L82.95,50L82.5,50L82.05000000000001,50L81.60000000000001,50L81.15,50L80.7,50L80.25,50L79.80000000000001,50L79.35000000000001,50L78.9,50L78.45,50L78,50L77.55,50L77.10000000000001,50L76.65,50L76.2,50L75.75,50L75.3,50L74.85,50L74.4,50L73.95,50L73.5,50L73.05,50L72.6,50L72.14999999999999,50L71.7,50L71.25,50L70.8,50L70.35,50L69.44999999999999,50L68.55,50L68.10000000000001,50L67.65,50L67.2,50L66.75000000000001,50L66.30000000000001,50L65.85000000000001,50L65.4,50L64.95,50L64.50000000000001,50L64.05000000000001,50L63.60000000000001,50L63.150000000000006,50L62.7,50L62.25000000000001,50L61.800000000000004,50L61.35,50L60.900000000000006,50L60.45,50L60,50L59.550000000000004,50L59.1,50L58.650000000000006,50L58.2,50L57.75,50L57.300000000000004,50L56.85,50L56.4,50L55.95,50L55.5,50L55.05,50L54.150000000000006,50L53.7,50L53.25000000000001,50L52.800000000000004,50L52.35,50L51.900000000000006,50L51.45,50L51.00000000000001,50L50.550000000000004,50L50.1,50L49.650000000000006,50L49.2,50L48.75,50L48.300000000000004,50L47.85,50L47.4,50L46.95,50L46.50000000000001,50L46.050000000000004,50L45.60000000000001,50L45.150000000000006,50L44.7,50L44.25000000000001,50L43.800000000000004,50L43.35000000000001,50L42.900000000000006,50L42.45,50L41.550000000000004,50L39.75,50L39.300000000000004,50L38.85,50L38.4,50L37.95,50L37.5,50L37.05,50L36.6,50L36.15,50L35.699999999999996,50L35.25,50L34.8,50L34.349999999999994,50L33.9,50L33.449999999999996,50L32.55,50L32.1,50L31.650000000000002,50L31.200000000000003,50L30.750000000000004,50L30.3,50L29.85,50L29.400000000000002,50L28.95,50L28.5,50L28.05,50L27.599999999999998,50L27.15,50L26.7,50L26.25,50L25.799999999999997,50L25.349999999999998,50L24.9,50L24.449999999999996,50L23.999999999999996,50L23.549999999999997,50L23.099999999999994,50L22.649999999999995,50L21.75,50L21.3,50L20.85,50L20.400000000000002,50L19.950000000000003,50L18.15,50L17.7,50L17.25,50L16.35,50L15.900000000000002,50L15.450000000000001,50L15,50L14.55,50L14.1,50L13.65,50L12.750000000000002,50L12.300000000000002,50L11.850000000000001,50L11.400000000000002,50L10.950000000000001,50L10.500000000000002,50L10.05,50L9.15,50L8.700000000000001,50L8.250000000000002,50L7.800000000000001,50L7.3500000000000005,50L6.45,50L6.000000000000001,50L5.550000000000001,50L4.65,50L4.2,50L3.75,50Z" style="fill: #4c78a8;"></path></g></g></g><g transform="translate(0,144)"><path class="background" d="M0.5,0.5h300v50h-300Z" style="fill: none; stroke: #ddd;"></path><g><g class="mark-group role-axis"><g transform="translate(0.5,50.5)"><path class="background" d="M0,0h0v0h0Z" style="pointer-events: none; fill: none;"></path><g><g class="mark-rule role-axis-grid" style="pointer-events: none;"><line transform="translate(0,-50)" x2="0" y2="50" style="fill: none; stroke: #ddd; stroke-width: 1; opacity: 1;"></line><line transform="translate(38,-50)" x2="0" y2="50" style="fill: none; stroke: #ddd; stroke-width: 1; opacity: 1;"></line><line transform="translate(75,-50)" x2="0" y2="50" style="fill: none; stroke: #ddd; stroke-width: 1; opacity: 1;"></line><line transform="translate(113,-50)" x2="0" y2="50" style="fill: none; stroke: #ddd; stroke-width: 1; opacity: 1;"></line><line transform="translate(150,-50)" x2="0" y2="50" style="fill: none; stroke: #ddd; stroke-width: 1; opacity: 1;"></line><line transform="translate(188,-50)" x2="0" y2="50" style="fill: none; stroke: #ddd; stroke-width: 1; opacity: 1;"></line><line transform="translate(225,-50)" x2="0" y2="50" style="fill: none; stroke: #ddd; stroke-width: 1; opacity: 1;"></line><line transform="translate(263,-50)" x2="0" y2="50" style="fill: none; stroke: #ddd; stroke-width: 1; opacity: 1;"></line><line transform="translate(300,-50)" x2="0" y2="50" style="fill: none; stroke: #ddd; stroke-width: 1; opacity: 1;"></line></g></g></g></g><g class="mark-group role-axis"><g transform="translate(0.5,0.5)"><path class="background" d="M0,0h0v0h0Z" style="pointer-events: none; fill: none;"></path><g><g class="mark-rule role-axis-grid" style="pointer-events: none;"><line transform="translate(0,50)" x2="300" y2="0" style="fill: none; stroke: #ddd; stroke-width: 1; opacity: 1;"></line><line transform="translate(0,19)" x2="300" y2="0" style="fill: none; stroke: #ddd; stroke-width: 1; opacity: 1;"></line></g></g></g></g><g class="mark-area role-mark child_marks"><path d="M161.25,43.95011572850223L162.60000000000002,43.18639116428995L163.95,42.373471605185166L165.29999999999998,41.5133866297491L165.975,41.06649369091984L166.65,40.6089244993319L168.00000000000003,39.6638270765087L169.35,38.68300738350832L170.7,37.67276159104977L172.05,36.64093985526637L174.75,34.5521638947434L176.1,33.51887284418998L176.775,33.010805743267426L177.45000000000002,32.51081227160386L178.8,31.54221689410753L180.15,30.627249287932816L181.5,29.779235150085164L182.84999999999997,29.009851784653158L184.19999999999996,28.328343163500186L184.875,28.02259473663329L185.54999999999998,27.740840958304588L186.9,27.249867779467845L188.24999999999997,26.85408601600298L189.59999999999997,26.548334009636847L190.275,26.426637456042045L190.95,26.32396298766057L192.3,26.169456474673005L193.64999999999998,26.071282718747113L194.99999999999997,26.01490403665232L195.675,25.997833865789698L196.35,25.98584847014738L199.04999999999998,25.958198067873248L200.39999999999998,25.9394958720446L201.75,25.90896529627564L203.10000000000002,25.864075789793223L204.45,25.80522163834693L209.85,25.509030343971695L211.2,25.44684104062079L211.875,25.420924712263783L212.55,25.398997647515863L213.90000000000003,25.36809570268995L215.25,25.355023068320985L216.6,25.35902004608759L217.95000000000002,25.37794789804356L219.30000000000004,25.40872201354592L220.65,25.447850638539414L226.05,25.63488518936318L228.75000000000003,25.74412769401115L230.10000000000005,25.81293470658867L231.45000000000002,25.89882321345119L232.8,26.00852639998243L233.47500000000002,26.074495776318244L234.15000000000003,26.149033271631865L235.50000000000006,26.327112090617348L236.85000000000002,26.548873961703098L238.20000000000002,26.81941212088875L239.54999999999998,27.142540215084182L240.89999999999998,27.520639088949174L241.57500000000002,27.730640930430543L242.25,27.954608283895443L243.60000000000002,28.443907393922625L244.95,28.9866649605675L246.29999999999998,29.579829431733646L246.97500000000002,29.894079447224076L247.65,30.219337833039976L249.00000000000003,30.900282487557128L250.35,31.617063116082637L251.7,32.363519416702275L252.37500000000003,32.74582631226137L253.05,33.133046233194406L258.45,36.300105294933076L259.8,37.07786026852845L261.15000000000003,37.835940577041356L262.5,38.5679540552842L263.175,38.9223545128412L263.85,39.26813209282868L265.20000000000005,39.931477785016185L266.55,40.55389385711626L267.9,41.13228445291883L268.57500000000005,41.40429504378032L269.25,41.66462771751557L270.6,42.15001858071776L271.95000000000005,42.588682651813585L273.3,42.981962391423906L274.65,43.332275852947L276,43.643046764475756L276.675,43.784924444593855L277.35,43.918603261895846L278.7,44.164041937184905L280.05,44.38505462715317L281.4,44.587717809237596L282.75,44.77824845220159L285.45,45.146858417822564L286.8,45.33561848131871L288.15000000000003,45.533090948173545L289.5,45.74223126595312L290.85,45.96474575426223L292.2,46.20104196742972L293.55,46.45026395781024L294.90000000000003,46.71040994351371L296.25,46.97852196558648L296.25,50L294.90000000000003,50L293.55,50L292.2,50L290.85,50L289.5,50L288.15000000000003,50L286.8,50L285.45,50L282.75,50L281.4,50L280.05,50L278.7,50L277.35,50L276.675,50L276,50L274.65,50L273.3,50L271.95000000000005,50L270.6,50L269.25,50L268.57500000000005,50L267.9,50L266.55,50L265.20000000000005,50L263.85,50L263.175,50L262.5,50L261.15000000000003,50L259.8,50L258.45,50L253.05,50L252.37500000000003,50L251.7,50L250.35,50L249.00000000000003,50L247.65,50L246.97500000000002,50L246.29999999999998,50L244.95,50L243.60000000000002,50L242.25,50L241.57500000000002,50L240.89999999999998,50L239.54999999999998,50L238.20000000000002,50L236.85000000000002,50L235.50000000000006,50L234.15000000000003,50L233.47500000000002,50L232.8,50L231.45000000000002,50L230.10000000000005,50L228.75000000000003,50L226.05,50L220.65,50L219.30000000000004,50L217.95000000000002,50L216.6,50L215.25,50L213.90000000000003,50L212.55,50L211.875,50L211.2,50L209.85,50L204.45,50L203.10000000000002,50L201.75,50L200.39999999999998,50L199.04999999999998,50L196.35,50L195.675,50L194.99999999999997,50L193.64999999999998,50L192.3,50L190.95,50L190.275,50L189.59999999999997,50L188.24999999999997,50L186.9,50L185.54999999999998,50L184.875,50L184.19999999999996,50L182.84999999999997,50L181.5,50L180.15,50L178.8,50L177.45000000000002,50L176.775,50L176.1,50L174.75,50L172.05,50L170.7,50L169.35,50L168.00000000000003,50L166.65,50L165.975,50L165.29999999999998,50L163.95,50L162.60000000000002,50L161.25,50Z" style="fill: #4c78a8;"></path></g></g></g><g transform="translate(0,216)"><path class="background" d="M0.5,0.5h300v50h-300Z" style="fill: none; stroke: #ddd;"></path><g><g class="mark-group role-axis"><g transform="translate(0.5,50.5)"><path class="background" d="M0,0h0v0h0Z" style="pointer-events: none; fill: none;"></path><g><g class="mark-rule role-axis-grid" style="pointer-events: none;"><line transform="translate(0,-50)" x2="0" y2="50" style="fill: none; stroke: #ddd; stroke-width: 1; opacity: 1;"></line><line transform="translate(38,-50)" x2="0" y2="50" style="fill: none; stroke: #ddd; stroke-width: 1; opacity: 1;"></line><line transform="translate(75,-50)" x2="0" y2="50" style="fill: none; stroke: #ddd; stroke-width: 1; opacity: 1;"></line><line transform="translate(113,-50)" x2="0" y2="50" style="fill: none; stroke: #ddd; stroke-width: 1; opacity: 1;"></line><line transform="translate(150,-50)" x2="0" y2="50" style="fill: none; stroke: #ddd; stroke-width: 1; opacity: 1;"></line><line transform="translate(188,-50)" x2="0" y2="50" style="fill: none; stroke: #ddd; stroke-width: 1; opacity: 1;"></line><line transform="translate(225,-50)" x2="0" y2="50" style="fill: none; stroke: #ddd; stroke-width: 1; opacity: 1;"></line><line transform="translate(263,-50)" x2="0" y2="50" style="fill: none; stroke: #ddd; stroke-width: 1; opacity: 1;"></line><line transform="translate(300,-50)" x2="0" y2="50" style="fill: none; stroke: #ddd; stroke-width: 1; opacity: 1;"></line></g></g></g></g><g class="mark-group role-axis"><g transform="translate(0.5,0.5)"><path class="background" d="M0,0h0v0h0Z" style="pointer-events: none; fill: none;"></path><g><g class="mark-rule role-axis-grid" style="pointer-events: none;"><line transform="translate(0,50)" x2="300" y2="0" style="fill: none; stroke: #ddd; stroke-width: 1; opacity: 1;"></line><line transform="translate(0,19)" x2="300" y2="0" style="fill: none; stroke: #ddd; stroke-width: 1; opacity: 1;"></line></g></g></g></g><g class="mark-area role-mark child_marks"><path d="M75,43.930204996718544L75.45,43.625152848470535L75.9,43.30987395547637L76.35,42.98427599841138L76.8,42.648274195334494L77.25,42.30179120386939L77.7,41.94475701152016L78.15,41.57710882111174L78.60000000000001,41.19879093896846L79.05,40.80975467399481L79.5,40.4099582562926L79.95,39.999366784319825L80.4,39.5779522098619L80.85000000000001,39.14569337023042L81.30000000000001,38.70257607711885L81.75,38.248593271420944L82.2,37.783745253044906L82.65,37.30803999433169L83.10000000000001,36.821493545101745L83.55000000000001,36.324130536610305L84.00000000000001,35.81598479078554L84.45,35.297100040058034L84.9,34.76753076186898L85.35000000000001,34.22734313057352L85.80000000000001,33.67661608794456L86.25000000000001,33.11544253184263L86.70000000000002,32.543930620861616L87.15,31.96220519090714L87.60000000000001,31.37040927773044L88.05000000000001,30.768705737448716L88.50000000000001,30.157278955054732L89.39999999999999,28.906111616962143L89.85,28.2668638292588L90.3,27.618882147809508L90.75,26.96248635506834L91.2,26.298029049026198L91.64999999999999,25.625897522208234L92.1,24.94651558033218L92.55,24.260345275324845L93,23.567888526557688L93.45,22.869688603598014L93.9,22.166331443508824L94.8,20.7467090283597L96.60000000000001,17.876309553591128L98.4,15.010035408107356L98.85000000000001,14.301438535774103L99.30000000000001,13.598186926146496L99.75,12.901421294388783L100.2,12.21231324837467L100.65,11.532061739336918L101.10000000000001,10.861889150915601L101.55000000000001,10.203037043255947L102.00000000000001,9.55676157299628L102.45,8.924328614093284L102.9,8.307008608380052L103.35000000000001,7.706071178508026L103.80000000000001,7.122779539406572L104.25000000000001,6.558384747576277L104.69999999999999,6.014119830339887L105.14999999999999,5.491193839580923L105.6,4.990785876448825L106.05,4.51403913497122L106.5,4.062055013458782L106.94999999999999,3.6358873429864715L107.39999999999999,3.236536782080364L107.85,2.8649454260120137L108.3,2.5219916778147535L108.75,2.208485426284078L109.2,1.9251635738349435L109.64999999999999,1.6726859541801318L110.1,1.4516316763984989L110.55,1.2624959281268247L111,1.105687266371497L111.45,0.9815254198568795L111.9,0.8902396219619746L112.35,0.8319674882082637L112.8,0.8067544470174965L113.25,0.8145537271277732L113.7,0.85522689970675L114.15,0.9285449679060491L114.60000000000001,1.0341899914293577L115.05,1.1717572287033065L115.5,1.340757774506038L115.95,1.5406216664947223L116.4,1.7707014300136237L116.85000000000001,2.0302760269256837L117.30000000000001,2.3185551710210888L117.75,2.6346839698526665L118.2,2.9777478506549997L118.65,3.34677772634069L119.10000000000001,3.7407553564352085L119.55000000000001,4.158618857216943L120,4.59926831526419L120.45,5.061571459050114L120.9,5.5443693441627815L121.35000000000001,6.046482009112019L121.80000000000001,6.566714060501141L122.25000000000001,7.103860148531318L122.7,7.6567102963373515L123.15,8.224055049475027L123.60000000000001,8.804690414930711L124.05000000000001,9.397422562274997L124.50000000000001,10.001072262956114L124.95000000000002,10.614479047194948L125.4,11.236505061441399L125.85000000000001,11.866038612839787L126.30000000000001,12.501997390582837L127.20000000000002,13.789025307386908L129.00000000000003,16.396431223265644L130.8,19.002665988598384L131.70000000000002,20.29080330592685L132.15,20.928999963220264L132.60000000000002,21.56258489014616L133.05,22.1910864361282L133.50000000000003,22.81407248589733L133.95000000000002,23.431149134720453L134.4,24.041959236537902L134.85000000000002,24.646180843444814L135.3,25.243525554601103L135.75000000000003,25.833736792207667L136.20000000000002,26.41658802165053L136.65000000000003,26.991880932307534L137.10000000000002,27.559443594835777L137.55,28.119128610030025L138.00000000000003,28.670811263559838L138.45000000000002,29.214387700071878L138.90000000000003,29.749773129281763L139.8,30.79571668337509L140.25,31.306185083749128L140.70000000000002,31.80827983840385L141.15,32.30198646163749L141.60000000000002,32.78730003145384L142.05,33.26422389416808L142.5,33.73276846744431L142.95000000000002,34.19295014543194L143.4,34.644790308597635L143.85000000000002,35.08831443978728L144.3,35.52355134699073L144.75,35.95053249224823L145.20000000000002,36.36929142512032L145.65,36.77986331816565L146.10000000000002,37.18228460093632L146.55,37.576592688116904L147,37.962825796615846L147.45000000000002,38.3410228456688L147.9,38.711223433348L148.35,39.073467882291645L148.8,39.42779734698476L149.25,39.77425397454124L149.7,40.11288111066L150.6,40.7668277682536L151.05,41.08224228993265L151.5,41.39001791268071L152.4,41.982869028464386L152.85000000000002,42.26806036750207L153.3,42.54584505873031L154.20000000000002,43.07946524910015L154.65000000000003,43.3354461317269L155.1,43.584311458187905L156,44.06103329698366L156.45000000000002,44.28906978682264L156.9,44.51035065572633L157.8,44.93305338411587L158.25000000000003,45.13468949000958L158.70000000000002,45.32999809584226L159.60000000000002,45.70210225908075L160.05,45.879140483892385L160.5,46.05033590006739L161.4,46.3757113786429L161.85000000000002,46.53015240868291L162.3,46.67927178702088L163.20000000000002,46.962078573275996L163.65000000000003,47.0960329872111L164.10000000000002,47.22519899942654L165,47.469694013531935L165,50L164.10000000000002,50L163.65000000000003,50L163.20000000000002,50L162.3,50L161.85000000000002,50L161.4,50L160.5,50L160.05,50L159.60000000000002,50L158.70000000000002,50L158.25000000000003,50L157.8,50L156.9,50L156.45000000000002,50L156,50L155.1,50L154.65000000000003,50L154.20000000000002,50L153.3,50L152.85000000000002,50L152.4,50L151.5,50L151.05,50L150.6,50L149.7,50L149.25,50L148.8,50L148.35,50L147.9,50L147.45000000000002,50L147,50L146.55,50L146.10000000000002,50L145.65,50L145.20000000000002,50L144.75,50L144.3,50L143.85000000000002,50L143.4,50L142.95000000000002,50L142.5,50L142.05,50L141.60000000000002,50L141.15,50L140.70000000000002,50L140.25,50L139.8,50L138.90000000000003,50L138.45000000000002,50L138.00000000000003,50L137.55,50L137.10000000000002,50L136.65000000000003,50L136.20000000000002,50L135.75000000000003,50L135.3,50L134.85000000000002,50L134.4,50L133.95000000000002,50L133.50000000000003,50L133.05,50L132.60000000000002,50L132.15,50L131.70000000000002,50L130.8,50L129.00000000000003,50L127.20000000000002,50L126.30000000000001,50L125.85000000000001,50L125.4,50L124.95000000000002,50L124.50000000000001,50L124.05000000000001,50L123.60000000000001,50L123.15,50L122.7,50L122.25000000000001,50L121.80000000000001,50L121.35000000000001,50L120.9,50L120.45,50L120,50L119.55000000000001,50L119.10000000000001,50L118.65,50L118.2,50L117.75,50L117.30000000000001,50L116.85000000000001,50L116.4,50L115.95,50L115.5,50L115.05,50L114.60000000000001,50L114.15,50L113.7,50L113.25,50L112.8,50L112.35,50L111.9,50L111.45,50L111,50L110.55,50L110.1,50L109.64999999999999,50L109.2,50L108.75,50L108.3,50L107.85,50L107.39999999999999,50L106.94999999999999,50L106.5,50L106.05,50L105.6,50L105.14999999999999,50L104.69999999999999,50L104.25000000000001,50L103.80000000000001,50L103.35000000000001,50L102.9,50L102.45,50L102.00000000000001,50L101.55000000000001,50L101.10000000000001,50L100.65,50L100.2,50L99.75,50L99.30000000000001,50L98.85000000000001,50L98.4,50L96.60000000000001,50L94.8,50L93.9,50L93.45,50L93,50L92.55,50L92.1,50L91.64999999999999,50L91.2,50L90.75,50L90.3,50L89.85,50L89.39999999999999,50L88.50000000000001,50L88.05000000000001,50L87.60000000000001,50L87.15,50L86.70000000000002,50L86.25000000000001,50L85.80000000000001,50L85.35000000000001,50L84.9,50L84.45,50L84.00000000000001,50L83.55000000000001,50L83.10000000000001,50L82.65,50L82.2,50L81.75,50L81.30000000000001,50L80.85000000000001,50L80.4,50L79.95,50L79.5,50L79.05,50L78.60000000000001,50L78.15,50L77.7,50L77.25,50L76.8,50L76.35,50L75.9,50L75.45,50L75,50Z" style="fill: #4c78a8;"></path></g></g></g></g></g></g></g></g></svg>