<svg class="marks" width="213" height="208" viewBox="0 0 213 208" version="1.1" xmlns="http://www.w3.org/2000/svg" xmlns:xlink="http://www.w3.org/1999/xlink"><rect width="213" height="208" style="fill: white;"></rect><g transform="translate(6,21)"><g class="mark-group role-frame root" role="graphics-object" aria-roledescription="group mark container"><g transform="translate(0,0)"><path class="background" aria-hidden="true" d="M0.5,0.5h200v150h-200Z" style="fill: none; stroke: #ddd;"></path><g><g class="mark-group role-axis" aria-hidden="true"><g transform="translate(0.5,0.5)"><path class="background" aria-hidden="true" d="M0,0h0v0h0Z" style="pointer-events: none; fill: none;"></path><g><g class="mark-rule role-axis-grid" style="pointer-events: none;"><line transform="translate(0,0)" x2="200" y2="0" style="fill: none; stroke: #ddd; stroke-width: 1; opacity: 1;"></line><line transform="translate(0,50)" x2="200" y2="0" style="fill: none; stroke: #ddd; stroke-width: 1; opacity: 1;"></line><line transform="translate(0,100)" x2="200" y2="0" style="fill: none; stroke: #ddd; stroke-width: 1; opacity: 1;"></line></g></g><path class="foreground" aria-hidden="true" d="" style="pointer-events: none; display: none; fill: none;"></path></g></g><g class="mark-group role-axis" role="graphics-symbol" aria-roledescription="axis" aria-label="X-axis titled 'Count of Records' for a linear scale with values from 0 to 260"><g transform="translate(0.5,150.5)"><path class="background" aria-hidden="true" d="M0,0h0v0h0Z" style="pointer-events: none; fill: none;"></path><g><g class="mark-rule role-axis-tick" style="pointer-events: none;"><line transform="translate(0,0)" x2="0" y2="5" style="fill: none; stroke: #888; stroke-width: 1; opacity: 1;"></line><line transform="translate(38,0)" x2="0" y2="5" style="fill: none; stroke: #888; stroke-width: 1; opacity: 1;"></line><line transform="translate(77,0)" x2="0" y2="5" style="fill: none; stroke: #888; stroke-width: 1; opacity: 1;"></line><line transform="translate(115,0)" x2="0" y2="5" style="fill: none; stroke: #888; stroke-width: 1; opacity: 1;"></line><line transform="translate(154,0)" x2="0" y2="5" style="fill: none; stroke: #888; stroke-width: 1; opacity: 1;"></line><line transform="translate(192,0)" x2="0" y2="5" style="fill: none; stroke: #888; stroke-width: 1; opacity: 1;"></line></g><g class="mark-text role-axis-label" style="pointer-events: none;"><text text-anchor="start" transform="translate(0,15)" style="font-family: sans-serif; font-size: 10px; fill: #000; opacity: 1;">0</text><text text-anchor="middle" transform="translate(38.46153846153847,15)" style="font-family: sans-serif; font-size: 10px; fill: #000; opacity: 1;">50</text><text text-anchor="middle" transform="translate(76.92307692307693,15)" style="font-family: sans-serif; font-size: 10px; fill: #000; opacity: 1;">100</text><text text-anchor="middle" transform="translate(115.38461538461537,15)" style="font-family: sans-serif; font-size: 10px; fill: #000; opacity: 1;">150</text><text text-anchor="middle" transform="translate(153.84615384615387,15)" style="font-family: sans-serif; font-size: 10px; fill: #000; opacity: 1;">200</text><text text-anchor="middle" transform="translate(192.30769230769232,15)" style="font-family: sans-serif; font-size: 10px; fill: #000; opacity: 1;">250</text></g><g class="mark-rule role-axis-domain" style="pointer-events: none;"><line transform="translate(0,0)" x2="200" y2="0" style="fill: none; stroke: #888; stroke-width: 1; opacity: 1;"></line></g><g class="mark-text role-axis-title" style="pointer-events: none;"><text text-anchor="middle" transform="translate(100,30)" style="font-family: sans-serif; font-size: 11px; font-weight: bold; fill: #000; opacity: 1;">Count of Records</text></g></g><path class="foreground" aria-hidden="true" d="" style="pointer-events: none; display: none; fill: none;"></path></g></g><g class="mark-group role-axis" role="graphics-symbol" aria-roledescription="axis" aria-label="Y-axis titled 'Origin' for a discrete scale with 3 values: Europe, Japan, USA"><g transform="translate(0.5,0.5)"><path class="background" aria-hidden="true" d="M0,0h0v0h0Z" style="pointer-events: none; fill: none;"></path><g><g class="mark-text role-axis-label" style="pointer-events: none;"><text text-anchor="start" transform="translate(5,12.5)" style="font-family: sans-serif; font-size: 10px; fill: #000; opacity: 1;">Europe</text><text text-anchor="start" transform="translate(5,62.5)" style="font-family: sans-serif; font-size: 10px; fill: #000; opacity: 1;">Japan</text><text text-anchor="start" transform="translate(5,112.5)" style="font-family: sans-serif; font-size: 10px; fill: #000; opacity: 1;">USA</text></g><g class="mark-text role-axis-title" style="pointer-events: none;"><text text-anchor="start" transform="translate(5,-7)" style="font-family: sans-serif; font-size: 11px; font-weight: bold; fill: #000; opacity: 1;">Origin</text></g></g><path class="foreground" aria-hidden="true" d="" style="pointer-events: none; display: none; fill: none;"></path></g></g><g class="mark-rect role-mark marks" role="graphics-object" aria-roledescription="rect mark container"><path aria-label="Origin: USA; Count of Records: 254" role="graphics-symbol" aria-roledescription="bar" d="M0,117.5L193.3846153846154,117.5C194.48844543360337,117.5,195.3846153846154,118.396169951012,195.3846153846154,119.5L195.3846153846154,140.5C195.3846153846154,141.603830048988,194.48844543360337,142.5,193.3846153846154,142.5L0,142.5C0,142.5,0,142.5,0,142.5L0,117.5C0,117.5,0,117.5,0,117.5Z" style="fill: #4c78a8;"></path><path aria-label="Origin: Europe; Count of Records: 73" role="graphics-symbol" aria-roledescription="bar" d="M0,17.5L54.15384615384615,17.5C55.257676202834155,17.5,56.15384615384615,18.396169951012,56.15384615384615,19.5L56.15384615384615,40.5C56.15384615384615,41.603830048988,55.257676202834155,42.5,54.15384615384615,42.5L0,42.5C0,42.5,0,42.5,0,42.5L0,17.5C0,17.5,0,17.5,0,17.5Z" style="fill: #4c78a8;"></path><path aria-label="Origin: Japan; Count of Records: 79" role="graphics-symbol" aria-roledescription="bar" d="M0,67.5L58.76923076923077,67.5C59.87306081821877,67.5,60.76923076923077,68.396169951012,60.76923076923077,69.5L60.76923076923077,90.5C60.76923076923077,91.603830048988,59.87306081821877,92.5,58.76923076923077,92.5L0,92.5C0,92.5,0,92.5,0,92.5L0,67.5C0,67.5,0,67.5,0,67.5Z" style="fill: #4c78a8;"></path></g></g><path class="foreground" aria-hidden="true" d="" style="display: none; fill: none;"></path></g></g></g></svg>