<svg class="marks" width="330" height="467" version="1.1" xmlns="http://www.w3.org/2000/svg" xmlns:xlink="http://www.w3.org/1999/xlink"><g transform="translate(34,6)"><g class="mark-group"><g transform="translate(0,0)"><rect class="background" width="1" height="1" style="fill: none;"></rect><g class="mark-group root"><g transform="translate(0,0)"><rect class="background" width="216" height="418" style="fill: none;"></rect><g class="mark-group"><g transform="translate(8,0)"><rect class="background" width="0" height="0" style="pointer-events: none; fill: none;"></rect><g class="mark-rule" style="pointer-events: none;"></g><g class="mark-rule" style="pointer-events: none;"><line transform="translate(0,11.5)" x2="0" y2="0" style="fill: none; stroke: #000; stroke-width: 1; opacity: 1;"></line><line transform="translate(0,33.5)" x2="0" y2="0" style="fill: none; stroke: #000; stroke-width: 1; opacity: 1;"></line><line transform="translate(0,55.5)" x2="0" y2="0" style="fill: none; stroke: #000; stroke-width: 1; opacity: 1;"></line><line transform="translate(0,77.5)" x2="0" y2="0" style="fill: none; stroke: #000; stroke-width: 1; opacity: 1;"></line><line transform="translate(0,99.5)" x2="0" y2="0" style="fill: none; stroke: #000; stroke-width: 1; opacity: 1;"></line><line transform="translate(0,121.5)" x2="0" y2="0" style="fill: none; stroke: #000; stroke-width: 1; opacity: 1;"></line><line transform="translate(0,143.5)" x2="0" y2="0" style="fill: none; stroke: #000; stroke-width: 1; opacity: 1;"></line><line transform="translate(0,165.5)" x2="0" y2="0" style="fill: none; stroke: #000; stroke-width: 1; opacity: 1;"></line><line transform="translate(0,187.5)" x2="0" y2="0" style="fill: none; stroke: #000; stroke-width: 1; opacity: 1;"></line><line transform="translate(0,209.5)" x2="0" y2="0" style="fill: none; stroke: #000; stroke-width: 1; opacity: 1;"></line><line transform="translate(0,231.5)" x2="0" y2="0" style="fill: none; stroke: #000; stroke-width: 1; opacity: 1;"></line><line transform="translate(0,253.5)" x2="0" y2="0" style="fill: none; stroke: #000; stroke-width: 1; opacity: 1;"></line><line transform="translate(0,275.5)" x2="0" y2="0" style="fill: none; stroke: #000; stroke-width: 1; opacity: 1;"></line><line transform="translate(0,297.5)" x2="0" y2="0" style="fill: none; stroke: #000; stroke-width: 1; opacity: 1;"></line><line transform="translate(0,319.5)" x2="0" y2="0" style="fill: none; stroke: #000; stroke-width: 1; opacity: 1;"></line><line transform="translate(0,341.5)" x2="0" y2="0" style="fill: none; stroke: #000; stroke-width: 1; opacity: 1;"></line><line transform="translate(0,363.5)" x2="0" y2="0" style="fill: none; stroke: #000; stroke-width: 1; opacity: 1;"></line><line transform="translate(0,385.5)" x2="0" y2="0" style="fill: none; stroke: #000; stroke-width: 1; opacity: 1;"></line><line transform="translate(0,407.5)" x2="0" y2="0" style="fill: none; stroke: #000; stroke-width: 1; opacity: 1;"></line></g><g class="mark-rule" style="pointer-events: none;"></g><g class="mark-text"><text text-anchor="middle" transform="translate(-3,11.5) rotate(270) translate(0,-2)" style="font: 11px sans-serif; fill: #000; opacity: 1;">0</text><text text-anchor="middle" transform="translate(-3,33.5) rotate(270) translate(0,-2)" style="font: 11px sans-serif; fill: #000; opacity: 1;">5</text><text text-anchor="middle" transform="translate(-3,55.5) rotate(270) translate(0,-2)" style="font: 11px sans-serif; fill: #000; opacity: 1;">10</text><text text-anchor="middle" transform="translate(-3,77.5) rotate(270) translate(0,-2)" style="font: 11px sans-serif; fill: #000; opacity: 1;">15</text><text text-anchor="middle" transform="translate(-3,99.5) rotate(270) translate(0,-2)" style="font: 11px sans-serif; fill: #000; opacity: 1;">20</text><text text-anchor="middle" transform="translate(-3,121.5) rotate(270) translate(0,-2)" style="font: 11px sans-serif; fill: #000; opacity: 1;">25</text><text text-anchor="middle" transform="translate(-3,143.5) rotate(270) translate(0,-2)" style="font: 11px sans-serif; fill: #000; opacity: 1;">30</text><text text-anchor="middle" transform="translate(-3,165.5) rotate(270) translate(0,-2)" style="font: 11px sans-serif; fill: #000; opacity: 1;">35</text><text text-anchor="middle" transform="translate(-3,187.5) rotate(270) translate(0,-2)" style="font: 11px sans-serif; fill: #000; opacity: 1;">40</text><text text-anchor="middle" transform="translate(-3,209.5) rotate(270) translate(0,-2)" style="font: 11px sans-serif; fill: #000; opacity: 1;">45</text><text text-anchor="middle" transform="translate(-3,231.5) rotate(270) translate(0,-2)" style="font: 11px sans-serif; fill: #000; opacity: 1;">50</text><text text-anchor="middle" transform="translate(-3,253.5) rotate(270) translate(0,-2)" style="font: 11px sans-serif; fill: #000; opacity: 1;">55</text><text text-anchor="middle" transform="translate(-3,275.5) rotate(270) translate(0,-2)" style="font: 11px sans-serif; fill: #000; opacity: 1;">60</text><text text-anchor="middle" transform="translate(-3,297.5) rotate(270) translate(0,-2)" style="font: 11px sans-serif; fill: #000; opacity: 1;">65</text><text text-anchor="middle" transform="translate(-3,319.5) rotate(270) translate(0,-2)" style="font: 11px sans-serif; fill: #000; opacity: 1;">70</text><text text-anchor="middle" transform="translate(-3,341.5) rotate(270) translate(0,-2)" style="font: 11px sans-serif; fill: #000; opacity: 1;">75</text><text text-anchor="middle" transform="translate(-3,363.5) rotate(270) translate(0,-2)" style="font: 11px sans-serif; fill: #000; opacity: 1;">80</text><text text-anchor="middle" transform="translate(-3,385.5) rotate(270) translate(0,-2)" style="font: 11px sans-serif; fill: #000; opacity: 1;">85</text><text text-anchor="middle" transform="translate(-3,407.5) rotate(270) translate(0,-2)" style="font: 11px sans-serif; fill: #000; opacity: 1;">90</text></g><g class="mark-path" style="pointer-events: none;"><path transform="translate(0.5,0.5)" d="M0,0H0V418H0" style="fill: none; stroke: #000; stroke-width: 1;"></path></g><g class="mark-text"><text text-anchor="middle" transform="translate(-30,209) rotate(-90) translate(0,3)" style="font: bold 11px sans-serif; fill: #000;">age</text></g></g></g><g class="mark-group x-axes"><g transform="translate(8,0)"><rect class="background" width="200" height="418" style="fill: none;"></rect><g class="mark-group"><g transform="translate(0,418)"><rect class="background" width="0" height="0" style="pointer-events: none; fill: none;"></rect><g class="mark-rule" style="pointer-events: none;"></g><g class="mark-rule" style="pointer-events: none;"><line transform="translate(0.5,0)" x2="0" y2="6" style="fill: none; stroke: #000; stroke-width: 1; opacity: 1;"></line><line transform="translate(33.5,0)" x2="0" y2="6" style="fill: none; stroke: #000; stroke-width: 1; opacity: 1;"></line><line transform="translate(67.5,0)" x2="0" y2="6" style="fill: none; stroke: #000; stroke-width: 1; opacity: 1;"></line><line transform="translate(100.5,0)" x2="0" y2="6" style="fill: none; stroke: #000; stroke-width: 1; opacity: 1;"></line><line transform="translate(133.5,0)" x2="0" y2="6" style="fill: none; stroke: #000; stroke-width: 1; opacity: 1;"></line><line transform="translate(167.5,0)" x2="0" y2="6" style="fill: none; stroke: #000; stroke-width: 1; opacity: 1;"></line><line transform="translate(200.5,0)" x2="0" y2="6" style="fill: none; stroke: #000; stroke-width: 1; opacity: 1;"></line></g><g class="mark-rule" style="pointer-events: none;"></g><g class="mark-text"><text text-anchor="middle" transform="translate(0.5,19)" style="font: 11px sans-serif; fill: #000; opacity: 1;">0M</text><text text-anchor="middle" transform="translate(33.5,19)" style="font: 11px sans-serif; fill: #000; opacity: 1;">2M</text><text text-anchor="middle" transform="translate(67.5,19)" style="font: 11px sans-serif; fill: #000; opacity: 1;">4M</text><text text-anchor="middle" transform="translate(100.5,19)" style="font: 11px sans-serif; fill: #000; opacity: 1;">6M</text><text text-anchor="middle" transform="translate(133.5,19)" style="font: 11px sans-serif; fill: #000; opacity: 1;">8M</text><text text-anchor="middle" transform="translate(167.5,19)" style="font: 11px sans-serif; fill: #000; opacity: 1;">10M</text><text text-anchor="middle" transform="translate(200.5,19)" style="font: 11px sans-serif; fill: #000; opacity: 1;">12M</text></g><g class="mark-path" style="pointer-events: none;"><path transform="translate(0.5,0.5)" d="M0,6V0H200V6" style="fill: none; stroke: #000; stroke-width: 1;"></path></g><g class="mark-text"><text text-anchor="middle" transform="translate(100,35)" style="font: bold 11px sans-serif; fill: #000;">population</text></g></g></g></g></g><g class="mark-group cell"><g transform="translate(8,2)"><rect class="background" width="200" height="18" style="fill: none; stroke: #ccc; stroke-width: 0;"></rect><g class="mark-rect child_marks"><rect transform="translate(0,11.5)" width="162" height="5" style="fill: #659CCA;"></rect><rect transform="translate(0,2.5)" width="155" height="5" style="fill: #EA98D2;"></rect></g></g><g transform="translate(8,24)"><rect class="background" width="200" height="18" style="fill: none; stroke: #ccc; stroke-width: 0;"></rect><g class="mark-rect child_marks"><rect transform="translate(0,11.5)" width="176" height="5" style="fill: #659CCA;"></rect><rect transform="translate(0,2.5)" width="168" height="5" style="fill: #EA98D2;"></rect></g></g><g transform="translate(8,46)"><rect class="background" width="200" height="18" style="fill: none; stroke: #ccc; stroke-width: 0;"></rect><g class="mark-rect child_marks"><rect transform="translate(0,11.5)" width="176" height="5" style="fill: #659CCA;"></rect><rect transform="translate(0,2.5)" width="167" height="5" style="fill: #EA98D2;"></rect></g></g><g transform="translate(8,68)"><rect class="background" width="200" height="18" style="fill: none; stroke: #ccc; stroke-width: 0;"></rect><g class="mark-rect child_marks"><rect transform="translate(0,11.5)" width="171" height="5" style="fill: #659CCA;"></rect><rect transform="translate(0,2.5)" width="162" height="5" style="fill: #EA98D2;"></rect></g></g><g transform="translate(8,90)"><rect class="background" width="200" height="18" style="fill: none; stroke: #ccc; stroke-width: 0;"></rect><g class="mark-rect child_marks"><rect transform="translate(0,11.5)" width="162" height="5" style="fill: #659CCA;"></rect><rect transform="translate(0,2.5)" width="155" height="5" style="fill: #EA98D2;"></rect></g></g><g transform="translate(8,112)"><rect class="background" width="200" height="18" style="fill: none; stroke: #ccc; stroke-width: 0;"></rect><g class="mark-rect child_marks"><rect transform="translate(0,11.5)" width="161" height="5" style="fill: #659CCA;"></rect><rect transform="translate(0,2.5)" width="159" height="5" style="fill: #EA98D2;"></rect></g></g><g transform="translate(8,134)"><rect class="background" width="200" height="18" style="fill: none; stroke: #ccc; stroke-width: 0;"></rect><g class="mark-rect child_marks"><rect transform="translate(0,11.5)" width="170" height="5" style="fill: #659CCA;"></rect><rect transform="translate(0,2.5)" width="169" height="5" style="fill: #EA98D2;"></rect></g></g><g transform="translate(8,156)"><rect class="background" width="200" height="18" style="fill: none; stroke: #ccc; stroke-width: 0;"></rect><g class="mark-rect child_marks"><rect transform="translate(0,11.5)" width="191" height="5" style="fill: #659CCA;"></rect><rect transform="translate(0,2.5)" width="194" height="5" style="fill: #EA98D2;"></rect></g></g><g transform="translate(8,178)"><rect class="background" width="200" height="18" style="fill: none; stroke: #ccc; stroke-width: 0;"></rect><g class="mark-rect child_marks"><rect transform="translate(0,11.5)" width="189" height="5" style="fill: #659CCA;"></rect><rect transform="translate(0,2.5)" width="191" height="5" style="fill: #EA98D2;"></rect></g></g><g transform="translate(8,200)"><rect class="background" width="200" height="18" style="fill: none; stroke: #ccc; stroke-width: 0;"></rect><g class="mark-rect child_marks"><rect transform="translate(0,11.5)" width="165" height="5" style="fill: #659CCA;"></rect><rect transform="translate(0,2.5)" width="171" height="5" style="fill: #EA98D2;"></rect></g></g><g transform="translate(8,222)"><rect class="background" width="200" height="18" style="fill: none; stroke: #ccc; stroke-width: 0;"></rect><g class="mark-rect child_marks"><rect transform="translate(0,11.5)" width="142" height="5" style="fill: #659CCA;"></rect><rect transform="translate(0,2.5)" width="149" height="5" style="fill: #EA98D2;"></rect></g></g><g transform="translate(8,244)"><rect class="background" width="200" height="18" style="fill: none; stroke: #ccc; stroke-width: 0;"></rect><g class="mark-rect child_marks"><rect transform="translate(0,11.5)" width="108" height="5" style="fill: #659CCA;"></rect><rect transform="translate(0,2.5)" width="115" height="5" style="fill: #EA98D2;"></rect></g></g><g transform="translate(8,266)"><rect class="background" width="200" height="18" style="fill: none; stroke: #ccc; stroke-width: 0;"></rect><g class="mark-rect child_marks"><rect transform="translate(0,11.5)" width="85" height="5" style="fill: #659CCA;"></rect><rect transform="translate(0,2.5)" width="94" height="5" style="fill: #EA98D2;"></rect></g></g><g transform="translate(8,288)"><rect class="background" width="200" height="18" style="fill: none; stroke: #ccc; stroke-width: 0;"></rect><g class="mark-rect child_marks"><rect transform="translate(0,11.5)" width="74" height="5" style="fill: #659CCA;"></rect><rect transform="translate(0,2.5)" width="80" height="5" style="fill: #EA98D2;"></rect></g></g><g transform="translate(8,310)"><rect class="background" width="200" height="18" style="fill: none; stroke: #ccc; stroke-width: 0;"></rect><g class="mark-rect child_marks"><rect transform="translate(0,11.5)" width="63" height="5" style="fill: #659CCA;"></rect><rect transform="translate(0,2.5)" width="86" height="5" style="fill: #EA98D2;"></rect></g></g><g transform="translate(8,332)"><rect class="background" width="200" height="18" style="fill: none; stroke: #ccc; stroke-width: 0;"></rect><g class="mark-rect child_marks"><rect transform="translate(0,11.5)" width="49" height="5" style="fill: #659CCA;"></rect><rect transform="translate(0,2.5)" width="73" height="5" style="fill: #EA98D2;"></rect></g></g><g transform="translate(8,354)"><rect class="background" width="200" height="18" style="fill: none; stroke: #ccc; stroke-width: 0;"></rect><g class="mark-rect child_marks"><rect transform="translate(0,11.5)" width="32" height="5" style="fill: #659CCA;"></rect><rect transform="translate(0,2.5)" width="54" height="5" style="fill: #EA98D2;"></rect></g></g><g transform="translate(8,376)"><rect class="background" width="200" height="18" style="fill: none; stroke: #ccc; stroke-width: 0;"></rect><g class="mark-rect child_marks"><rect transform="translate(0,11.5)" width="16" height="5" style="fill: #659CCA;"></rect><rect transform="translate(0,2.5)" width="33" height="5" style="fill: #EA98D2;"></rect></g></g><g transform="translate(8,398)"><rect class="background" width="200" height="18" style="fill: none; stroke: #ccc; stroke-width: 0;"></rect><g class="mark-rect child_marks"><rect transform="translate(0,11.5)" width="6" height="5" style="fill: #659CCA;"></rect><rect transform="translate(0,2.5)" width="18" height="5" style="fill: #EA98D2;"></rect></g></g></g><g class="mark-group"><g transform="translate(236.5,0.5)"><rect class="background" width="54" height="47" style="pointer-events: none; fill: none;"></rect><g class="mark-text" style="pointer-events: none;"><text text-anchor="start" transform="translate(3,13)" style="font: bold 11px sans-serif; fill: #000; opacity: 1;">gender</text></g><g class="mark-symbol" style="pointer-events: none;"><path transform="translate(7.5,23)" d="M0,3.989422804014327A3.989422804014327,3.989422804014327 0 1,1 0,-3.989422804014327A3.989422804014327,3.989422804014327 0 1,1 0,3.989422804014327Z" style="fill: #EA98D2; stroke: #888; stroke-width: 0; opacity: 1;"></path><path transform="translate(7.5,38)" d="M0,3.989422804014327A3.989422804014327,3.989422804014327 0 1,1 0,-3.989422804014327A3.989422804014327,3.989422804014327 0 1,1 0,3.989422804014327Z" style="fill: #659CCA; stroke: #888; stroke-width: 0; opacity: 1;"></path></g><g class="mark-text" style="pointer-events: none;"><text text-anchor="start" transform="translate(16,26)" style="font: 10px sans-serif; fill: #000; opacity: 1;">Female</text><text text-anchor="start" transform="translate(16,41)" style="font: 10px sans-serif; fill: #000; opacity: 1;">Male</text></g></g></g></g></g></g></g></g></svg>