<svg class="marks" width="258" height="299" version="1.1" xmlns="http://www.w3.org/2000/svg" xmlns:xlink="http://www.w3.org/1999/xlink"><g transform="translate(51,12)"><g class="mark-group"><g transform="translate(0,0)"><rect class="background" width="1" height="1" style="fill: none;"></rect><g class="mark-group root"><g transform="translate(0,0)"><rect class="background" width="200" height="200" style="fill: none;"></rect><g class="mark-group"><g transform="translate(0,200)"><rect class="background" width="0" height="0" style="pointer-events: none; fill: none;"></rect><g class="mark-rule" style="pointer-events: none;"><line transform="translate(15.5,-200)" x2="0" y2="200" style="fill: none; stroke: #000; stroke-width: 1; stroke-opacity: 0.15; opacity: 1;"></line><line transform="translate(51.5,-200)" x2="0" y2="200" style="fill: none; stroke: #000; stroke-width: 1; stroke-opacity: 0.15; opacity: 1;"></line><line transform="translate(87.5,-200)" x2="0" y2="200" style="fill: none; stroke: #000; stroke-width: 1; stroke-opacity: 0.15; opacity: 1;"></line><line transform="translate(122.5,-200)" x2="0" y2="200" style="fill: none; stroke: #000; stroke-width: 1; stroke-opacity: 0.15; opacity: 1;"></line><line transform="translate(158.5,-200)" x2="0" y2="200" style="fill: none; stroke: #000; stroke-width: 1; stroke-opacity: 0.15; opacity: 1;"></line><line transform="translate(194.5,-200)" x2="0" y2="200" style="fill: none; stroke: #000; stroke-width: 1; stroke-opacity: 0.15; opacity: 1;"></line></g><g class="mark-rule" style="pointer-events: none;"><line transform="translate(15.5,0)" x2="0" y2="6" style="fill: none; stroke: #000; stroke-width: 1; opacity: 1;"></line><line transform="translate(51.5,0)" x2="0" y2="6" style="fill: none; stroke: #000; stroke-width: 1; opacity: 1;"></line><line transform="translate(87.5,0)" x2="0" y2="6" style="fill: none; stroke: #000; stroke-width: 1; opacity: 1;"></line><line transform="translate(122.5,0)" x2="0" y2="6" style="fill: none; stroke: #000; stroke-width: 1; opacity: 1;"></line><line transform="translate(158.5,0)" x2="0" y2="6" style="fill: none; stroke: #000; stroke-width: 1; opacity: 1;"></line><line transform="translate(194.5,0)" x2="0" y2="6" style="fill: none; stroke: #000; stroke-width: 1; opacity: 1;"></line></g><g class="mark-rule" style="pointer-events: none;"></g><g class="mark-text"><text text-anchor="end" transform="translate(15.5,9) rotate(270) translate(0,3)" style="font: 11px sans-serif; fill: #000; opacity: 1;">2005-01-01</text><text text-anchor="end" transform="translate(51.5,9) rotate(270) translate(0,3)" style="font: 11px sans-serif; fill: #000; opacity: 1;">2006-01-01</text><text text-anchor="end" transform="translate(87.5,9) rotate(270) translate(0,3)" style="font: 11px sans-serif; fill: #000; opacity: 1;">2007-01-01</text><text text-anchor="end" transform="translate(122.5,9) rotate(270) translate(0,3)" style="font: 11px sans-serif; fill: #000; opacity: 1;">2008-01-01</text><text text-anchor="end" transform="translate(158.5,9) rotate(270) translate(0,3)" style="font: 11px sans-serif; fill: #000; opacity: 1;">2009-01-01</text><text text-anchor="end" transform="translate(194.5,9) rotate(270) translate(0,3)" style="font: 11px sans-serif; fill: #000; opacity: 1;">2010-01-01</text></g><g class="mark-path" style="pointer-events: none;"><path transform="translate(0.5,0.5)" d="M0,6V0H200V6" style="fill: none; stroke: #000; stroke-width: 1;"></path></g><g class="mark-text"><text text-anchor="middle" transform="translate(100,79)" style="font: bold 11px sans-serif; fill: #000;">date</text></g></g></g><g class="mark-group"><g transform="translate(0,0)"><rect class="background" width="0" height="0" style="pointer-events: none; fill: none;"></rect><g class="mark-rule" style="pointer-events: none;"><line transform="translate(0,200.5)" x2="200" y2="0" style="fill: none; stroke: #000; stroke-width: 1; stroke-opacity: 0.15; opacity: 1;"></line><line transform="translate(0,175.5)" x2="200" y2="0" style="fill: none; stroke: #000; stroke-width: 1; stroke-opacity: 0.15; opacity: 1;"></line><line transform="translate(0,150.5)" x2="200" y2="0" style="fill: none; stroke: #000; stroke-width: 1; stroke-opacity: 0.15; opacity: 1;"></line><line transform="translate(0,125.5)" x2="200" y2="0" style="fill: none; stroke: #000; stroke-width: 1; stroke-opacity: 0.15; opacity: 1;"></line><line transform="translate(0,100.5)" x2="200" y2="0" style="fill: none; stroke: #000; stroke-width: 1; stroke-opacity: 0.15; opacity: 1;"></line><line transform="translate(0,75.5)" x2="200" y2="0" style="fill: none; stroke: #000; stroke-width: 1; stroke-opacity: 0.15; opacity: 1;"></line><line transform="translate(0,50.5)" x2="200" y2="0" style="fill: none; stroke: #000; stroke-width: 1; stroke-opacity: 0.15; opacity: 1;"></line><line transform="translate(0,25.5)" x2="200" y2="0" style="fill: none; stroke: #000; stroke-width: 1; stroke-opacity: 0.15; opacity: 1;"></line><line transform="translate(0,0.5)" x2="200" y2="0" style="fill: none; stroke: #000; stroke-width: 1; stroke-opacity: 0.15; opacity: 1;"></line></g><g class="mark-rule" style="pointer-events: none;"><line transform="translate(-6,200.5)" x2="6" y2="0" style="fill: none; stroke: #000; stroke-width: 1; opacity: 1;"></line><line transform="translate(-6,175.5)" x2="6" y2="0" style="fill: none; stroke: #000; stroke-width: 1; opacity: 1;"></line><line transform="translate(-6,150.5)" x2="6" y2="0" style="fill: none; stroke: #000; stroke-width: 1; opacity: 1;"></line><line transform="translate(-6,125.5)" x2="6" y2="0" style="fill: none; stroke: #000; stroke-width: 1; opacity: 1;"></line><line transform="translate(-6,100.5)" x2="6" y2="0" style="fill: none; stroke: #000; stroke-width: 1; opacity: 1;"></line><line transform="translate(-6,75.5)" x2="6" y2="0" style="fill: none; stroke: #000; stroke-width: 1; opacity: 1;"></line><line transform="translate(-6,50.5)" x2="6" y2="0" style="fill: none; stroke: #000; stroke-width: 1; opacity: 1;"></line><line transform="translate(-6,25.5)" x2="6" y2="0" style="fill: none; stroke: #000; stroke-width: 1; opacity: 1;"></line><line transform="translate(-6,0.5)" x2="6" y2="0" style="fill: none; stroke: #000; stroke-width: 1; opacity: 1;"></line></g><g class="mark-rule" style="pointer-events: none;"></g><g class="mark-text"><text text-anchor="end" transform="translate(-9,203.5)" style="font: 11px sans-serif; fill: #000; opacity: 1;">0</text><text text-anchor="end" transform="translate(-9,178.5)" style="font: 11px sans-serif; fill: #000; opacity: 1;">100</text><text text-anchor="end" transform="translate(-9,153.5)" style="font: 11px sans-serif; fill: #000; opacity: 1;">200</text><text text-anchor="end" transform="translate(-9,128.5)" style="font: 11px sans-serif; fill: #000; opacity: 1;">300</text><text text-anchor="end" transform="translate(-9,103.5)" style="font: 11px sans-serif; fill: #000; opacity: 1;">400</text><text text-anchor="end" transform="translate(-9,78.5)" style="font: 11px sans-serif; fill: #000; opacity: 1;">500</text><text text-anchor="end" transform="translate(-9,53.5)" style="font: 11px sans-serif; fill: #000; opacity: 1;">600</text><text text-anchor="end" transform="translate(-9,28.5)" style="font: 11px sans-serif; fill: #000; opacity: 1;">700</text><text text-anchor="end" transform="translate(-9,3.5)" style="font: 11px sans-serif; fill: #000; opacity: 1;">800</text></g><g class="mark-path" style="pointer-events: none;"><path transform="translate(0.5,0.5)" d="M-6,0H0V200H-6" style="fill: none; stroke: #000; stroke-width: 1;"></path></g><g class="mark-text"><text text-anchor="middle" transform="translate(-39,100) rotate(-90) translate(0,3)" style="font: bold 11px sans-serif; fill: #000;">price</text></g></g></g><g class="mark-line marks"><path d="M200,60L197,68L194,68L191,45L188,54L185,66L182,76L179,85L176,89L173,95L170,96L167,101L164,113L161,116L158,115L155,123L152,127L149,110L146,100L143,84L140,82L137,68L134,54L131,56L128,90L126,82L122,59L119,27L116,27L113,23L110,58L107,71L104,73L101,69L98,76L95,82L92,85L90,88L87,75L84,85L81,79L78,81L75,100L72,105L69,103L66,95L63,107L60,96L57,103L54,109L51,92L48,96L45,99L42,107L39,121L36,129L33,128L30,126L27,131L24,145L21,155L18,153L15,151L12,152L9,155L6,152L3,168L0,174" style="fill: none; stroke: #4682b4; stroke-width: 2;"></path></g></g></g></g></g></g></svg>