<svg class="marks" width="258" height="299" version="1.1" xmlns="http://www.w3.org/2000/svg" xmlns:xlink="http://www.w3.org/1999/xlink"><g transform="translate(51,12)"><g class="mark-group"><g transform="translate(0,0)"><rect class="background" width="1" height="1" style="fill: none;"></rect><g class="mark-group root"><g transform="translate(0,0)"><rect class="background" width="200" height="200" style="fill: none;"></rect><g class="mark-group"><g transform="translate(0,200)"><rect class="background" width="0" height="0" style="pointer-events: none; fill: none;"></rect><g class="mark-rule" style="pointer-events: none;"><line transform="translate(15.5,-200)" x2="0" y2="200" style="fill: none; stroke: #000; stroke-opacity: 0.15; opacity: 1;"></line><line transform="translate(51.5,-200)" x2="0" y2="200" style="fill: none; stroke: #000; stroke-opacity: 0.15; opacity: 1;"></line><line transform="translate(87.5,-200)" x2="0" y2="200" style="fill: none; stroke: #000; stroke-opacity: 0.15; opacity: 1;"></line><line transform="translate(122.5,-200)" x2="0" y2="200" style="fill: none; stroke: #000; stroke-opacity: 0.15; opacity: 1;"></line><line transform="translate(158.5,-200)" x2="0" y2="200" style="fill: none; stroke: #000; stroke-opacity: 0.15; opacity: 1;"></line><line transform="translate(194.5,-200)" x2="0" y2="200" style="fill: none; stroke: #000; stroke-opacity: 0.15; opacity: 1;"></line></g><g class="mark-rule" style="pointer-events: none;"><line transform="translate(15.5,0)" x2="0" y2="6" style="fill: none; stroke: #000; stroke-width: 1; opacity: 1;"></line><line transform="translate(51.5,0)" x2="0" y2="6" style="fill: none; stroke: #000; stroke-width: 1; opacity: 1;"></line><line transform="translate(87.5,0)" x2="0" y2="6" style="fill: none; stroke: #000; stroke-width: 1; opacity: 1;"></line><line transform="translate(122.5,0)" x2="0" y2="6" style="fill: none; stroke: #000; stroke-width: 1; opacity: 1;"></line><line transform="translate(158.5,0)" x2="0" y2="6" style="fill: none; stroke: #000; stroke-width: 1; opacity: 1;"></line><line transform="translate(194.5,0)" x2="0" y2="6" style="fill: none; stroke: #000; stroke-width: 1; opacity: 1;"></line></g><g class="mark-rule" style="pointer-events: none;"></g><g class="mark-text"><text text-anchor="end" transform="translate(15.5,9) rotate(270) translate(0,3)" style="font: 11px sans-serif; fill: #000; opacity: 1;">2005-01-01</text><text text-anchor="end" transform="translate(51.5,9) rotate(270) translate(0,3)" style="font: 11px sans-serif; fill: #000; opacity: 1;">2006-01-01</text><text text-anchor="end" transform="translate(87.5,9) rotate(270) translate(0,3)" style="font: 11px sans-serif; fill: #000; opacity: 1;">2007-01-01</text><text text-anchor="end" transform="translate(122.5,9) rotate(270) translate(0,3)" style="font: 11px sans-serif; fill: #000; opacity: 1;">2008-01-01</text><text text-anchor="end" transform="translate(158.5,9) rotate(270) translate(0,3)" style="font: 11px sans-serif; fill: #000; opacity: 1;">2009-01-01</text><text text-anchor="end" transform="translate(194.5,9) rotate(270) translate(0,3)" style="font: 11px sans-serif; fill: #000; opacity: 1;">2010-01-01</text></g><g class="mark-path" style="pointer-events: none;"><path transform="translate(0.5,0.5)" d="M0,6V0H200V6" style="fill: none; stroke: #000; stroke-width: 1;"></path></g><g class="mark-text"><text text-anchor="middle" transform="translate(100,79)" style="font: bold 11px sans-serif; fill: #000;">date</text></g></g></g><g class="mark-group"><g transform="translate(0,0)"><rect class="background" width="0" height="0" style="pointer-events: none; fill: none;"></rect><g class="mark-rule" style="pointer-events: none;"><line transform="translate(0,200.5)" x2="200" y2="0" style="fill: none; stroke: #000; stroke-opacity: 0.15; opacity: 1;"></line><line transform="translate(0,175.5)" x2="200" y2="0" style="fill: none; stroke: #000; stroke-opacity: 0.15; opacity: 1;"></line><line transform="translate(0,150.5)" x2="200" y2="0" style="fill: none; stroke: #000; stroke-opacity: 0.15; opacity: 1;"></line><line transform="translate(0,125.5)" x2="200" y2="0" style="fill: none; stroke: #000; stroke-opacity: 0.15; opacity: 1;"></line><line transform="translate(0,100.5)" x2="200" y2="0" style="fill: none; stroke: #000; stroke-opacity: 0.15; opacity: 1;"></line><line transform="translate(0,75.5)" x2="200" y2="0" style="fill: none; stroke: #000; stroke-opacity: 0.15; opacity: 1;"></line><line transform="translate(0,50.5)" x2="200" y2="0" style="fill: none; stroke: #000; stroke-opacity: 0.15; opacity: 1;"></line><line transform="translate(0,25.5)" x2="200" y2="0" style="fill: none; stroke: #000; stroke-opacity: 0.15; opacity: 1;"></line><line transform="translate(0,0.5)" x2="200" y2="0" style="fill: none; stroke: #000; stroke-opacity: 0.15; opacity: 1;"></line></g><g class="mark-rule" style="pointer-events: none;"><line transform="translate(-6,200.5)" x2="6" y2="0" style="fill: none; stroke: #000; stroke-width: 1; opacity: 1;"></line><line transform="translate(-6,175.5)" x2="6" y2="0" style="fill: none; stroke: #000; stroke-width: 1; opacity: 1;"></line><line transform="translate(-6,150.5)" x2="6" y2="0" style="fill: none; stroke: #000; stroke-width: 1; opacity: 1;"></line><line transform="translate(-6,125.5)" x2="6" y2="0" style="fill: none; stroke: #000; stroke-width: 1; opacity: 1;"></line><line transform="translate(-6,100.5)" x2="6" y2="0" style="fill: none; stroke: #000; stroke-width: 1; opacity: 1;"></line><line transform="translate(-6,75.5)" x2="6" y2="0" style="fill: none; stroke: #000; stroke-width: 1; opacity: 1;"></line><line transform="translate(-6,50.5)" x2="6" y2="0" style="fill: none; stroke: #000; stroke-width: 1; opacity: 1;"></line><line transform="translate(-6,25.5)" x2="6" y2="0" style="fill: none; stroke: #000; stroke-width: 1; opacity: 1;"></line><line transform="translate(-6,0.5)" x2="6" y2="0" style="fill: none; stroke: #000; stroke-width: 1; opacity: 1;"></line></g><g class="mark-rule" style="pointer-events: none;"></g><g class="mark-text"><text text-anchor="end" transform="translate(-9,203.5)" style="font: 11px sans-serif; fill: #000; opacity: 1;">0</text><text text-anchor="end" transform="translate(-9,178.5)" style="font: 11px sans-serif; fill: #000; opacity: 1;">100</text><text text-anchor="end" transform="translate(-9,153.5)" style="font: 11px sans-serif; fill: #000; opacity: 1;">200</text><text text-anchor="end" transform="translate(-9,128.5)" style="font: 11px sans-serif; fill: #000; opacity: 1;">300</text><text text-anchor="end" transform="translate(-9,103.5)" style="font: 11px sans-serif; fill: #000; opacity: 1;">400</text><text text-anchor="end" transform="translate(-9,78.5)" style="font: 11px sans-serif; fill: #000; opacity: 1;">500</text><text text-anchor="end" transform="translate(-9,53.5)" style="font: 11px sans-serif; fill: #000; opacity: 1;">600</text><text text-anchor="end" transform="translate(-9,28.5)" style="font: 11px sans-serif; fill: #000; opacity: 1;">700</text><text text-anchor="end" transform="translate(-9,3.5)" style="font: 11px sans-serif; fill: #000; opacity: 1;">800</text></g><g class="mark-path" style="pointer-events: none;"><path transform="translate(0.5,0.5)" d="M-6,0H0V200H-6" style="fill: none; stroke: #000; stroke-width: 1;"></path></g><g class="mark-text"><text text-anchor="middle" transform="translate(-39,100) rotate(-90) translate(0,3)" style="font: bold 11px sans-serif; fill: #000;">price</text></g></g></g><g class="mark-line marks"><path d="M200,60C199.93835616438355,60.16438356164384,198,68,197,68S195,68,194,68S191.1551724137931,45.36206896551724,191,45S188.0754716981132,53.735849056603776,188,54S185.06923076923076,65.74615384615385,185,66S182.09068010075566,75.71284634760706,182,76S179.17560975609757,84.61951219512196,179,85S176.26470588235293,88.55882352941177,176,89S173.63432835820896,94.51838200596231,173,95S170.70247933884298,95.54283250624994,170,96S167.11076923076922,100.68615384615384,167,101S164.13793103448276,112.65517241379311,164,113S161.9298245614035,115.74455754774455,161,116S158.51960784313727,114.50038461544153,158,115S155.2,122.6,155,123S152.17560975609757,127.38048780487804,152,127S149.04705882352943,110.21176470588236,149,110S146.0505617977528,100.21910112359551,146,100S143.30916844349682,84.46215075142486,143,84S140.36159600997507,82.48046262658522,140,82S137.04390243902438,68.20487804878049,137,68S134.71428571428572,54.45175395145262,134,54S131.2173913043478,55.5875290008476,131,56S128.05769230769232,89.78846153846153,128,90S126.0403785488959,82.19684542586751,126,82S122.01706233337565,59.1400533197918,122,59S120,27,119,27S117,27,116,27S113.05882352941177,22.764705882352942,113,23S110.01538461538462,57.87692307692308,110,58S107.2028343666962,70.59788983302688,107,71S104.93469387755103,73.24706524000688,104,73S101.8,68.6,101,69S98.17560975609756,75.61951219512196,98,76S95.3076923076923,81.53846153846153,95,82S92.32520325203252,84.59349593495935,92,85S90.2771362586605,88.39260969976905,90,88S87.8,75.4,87,75S84.6923076923077,84.53846153846153,84,85S81.87715930902111,79.32825425453254,81,79S78.20576316974336,80.59574180562353,78,81S75.05882352941177,99.76470588235294,75,100S72.8,104.6,72,105S69.26470588235294,103.44117647058823,69,103S66.6923076923077,94.53846153846153,66,95S63.972972972972975,106.83783783783784,63,107S60.69230769230769,96.46153846153847,60,96S57.17560975609756,102.61951219512196,57,103S54.22929936305732,109.42038216560509,54,109S51.17560975609756,92.38048780487804,51,92S48.423529411764704,95.50588235294117,48,96S45.22929936305732,98.57961783439491,45,99S42.06923076923077,106.74615384615385,42,107S39.06923076923077,120.74615384615385,39,121S36.54205607476636,128.5017718528874,36,129S33.865671641791046,128.3410047659342,33,128S30.8,125.6,30,126S27.090680100755666,130.71284634760704,27,131S24.058823529411764,144.76470588235293,24,145S21.36,154.52,21,155S18.692307692307693,153.46153846153845,18,153S15.972972972972974,151.16216216216216,15,151S12.692307692307692,151.53846153846155,12,152S10,155,9,155S6.175609756097561,151.61951219512196,6,152S3.0692307692307694,167.74615384615385,3,168S0.1,173.8,0,174" style="fill: none; stroke: #4682b4; stroke-width: 2;"></path></g></g></g></g></g></g></svg>