<svg class="marks" width="381" height="261" version="1.1" xmlns="http://www.w3.org/2000/svg" xmlns:xlink="http://www.w3.org/1999/xlink"><g transform="translate(44,12)"><g class="mark-group"><g transform="translate(0,0)"><rect class="background" width="1" height="1" style="fill: none;"></rect><g class="mark-group root"><g transform="translate(0,0)"><rect class="background" width="200" height="200" style="fill: none;"></rect><g class="mark-symbol"><path transform="translate(122,144)" d="M0,8.866935315394846A8.866935315394846,8.866935315394846 0 1,1 0,-8.866935315394846A8.866935315394846,8.866935315394846 0 1,1 0,8.866935315394846Z" style="fill: none; stroke: #4682b4; stroke-width: 2;"></path><path transform="translate(144,144)" d="M0,6.257165172872317A6.257165172872317,6.257165172872317 0 1,1 0,-6.257165172872317A6.257165172872317,6.257165172872317 0 1,1 0,6.257165172872317Z" style="fill: none; stroke: #4682b4; stroke-width: 2;"></path><path transform="translate(167,144)" d="M0,4.406461512053774A4.406461512053774,4.406461512053774 0 1,1 0,-4.406461512053774A4.406461512053774,4.406461512053774 0 1,1 0,4.406461512053774Z" style="fill: none; stroke: #4682b4; stroke-width: 2;"></path><path transform="translate(189,167)" d="M0,3.5682482323055424A3.5682482323055424,3.5682482323055424 0 1,1 0,-3.5682482323055424A3.5682482323055424,3.5682482323055424 0 1,1 0,3.5682482323055424Z" style="fill: none; stroke: #4682b4; stroke-width: 2;"></path><path transform="translate(167,167)" d="M0,6.257165172872317A6.257165172872317,6.257165172872317 0 1,1 0,-6.257165172872317A6.257165172872317,6.257165172872317 0 1,1 0,6.257165172872317Z" style="fill: none; stroke: #4682b4; stroke-width: 2;"></path><path transform="translate(122,167)" d="M0,7.463526651802308A7.463526651802308,7.463526651802308 0 1,1 0,-7.463526651802308A7.463526651802308,7.463526651802308 0 1,1 0,7.463526651802308Z" style="fill: none; stroke: #4682b4; stroke-width: 2;"></path><path transform="translate(33,122)" d="M0,10.71960208740737A10.71960208740737,10.71960208740737 0 1,1 0,-10.71960208740737A10.71960208740737,10.71960208740737 0 1,1 0,10.71960208740737Z" style="fill: none; stroke: #4682b4; stroke-width: 2;"></path><path transform="translate(56,122)" d="M0,6.257165172872317A6.257165172872317,6.257165172872317 0 1,1 0,-6.257165172872317A6.257165172872317,6.257165172872317 0 1,1 0,6.257165172872317Z" style="fill: none; stroke: #4682b4; stroke-width: 2;"></path><path transform="translate(56,144)" d="M0,4.406461512053774A4.406461512053774,4.406461512053774 0 1,1 0,-4.406461512053774A4.406461512053774,4.406461512053774 0 1,1 0,4.406461512053774Z" style="fill: none; stroke: #4682b4; stroke-width: 2;"></path><path transform="translate(78,122)" d="M0,8.097643889049511A8.097643889049511,8.097643889049511 0 1,1 0,-8.097643889049511A8.097643889049511,8.097643889049511 0 1,1 0,8.097643889049511Z" style="fill: none; stroke: #4682b4; stroke-width: 2;"></path><path transform="translate(11,100)" d="M0,10.092530088080641A10.092530088080641,10.092530088080641 0 1,1 0,-10.092530088080641A10.092530088080641,10.092530088080641 0 1,1 0,10.092530088080641Z" style="fill: none; stroke: #4682b4; stroke-width: 2;"></path><path transform="translate(33,100)" d="M0,10.249012754438885A10.249012754438885,10.249012754438885 0 1,1 0,-10.249012754438885A10.249012754438885,10.249012754438885 0 1,1 0,10.249012754438885Z" style="fill: none; stroke: #4682b4; stroke-width: 2;"></path><path transform="translate(144,167)" d="M0,7.878478774854901A7.878478774854901,7.878478774854901 0 1,1 0,-7.878478774854901A7.878478774854901,7.878478774854901 0 1,1 0,7.878478774854901Z" style="fill: none; stroke: #4682b4; stroke-width: 2;"></path><path transform="translate(122,189)" d="M0,1.692568750643269A1.692568750643269,1.692568750643269 0 1,1 0,-1.692568750643269A1.692568750643269,1.692568750643269 0 1,1 0,1.692568750643269Z" style="fill: none; stroke: #4682b4; stroke-width: 2;"></path><path transform="translate(78,144)" d="M0,8.097643889049511A8.097643889049511,8.097643889049511 0 1,1 0,-8.097643889049511A8.097643889049511,8.097643889049511 0 1,1 0,8.097643889049511Z" style="fill: none; stroke: #4682b4; stroke-width: 2;"></path><path transform="translate(100,144)" d="M0,8.866935315394846A8.866935315394846,8.866935315394846 0 1,1 0,-8.866935315394846A8.866935315394846,8.866935315394846 0 1,1 0,8.866935315394846Z" style="fill: none; stroke: #4682b4; stroke-width: 2;"></path><path transform="translate(11,78)" d="M0,10.092530088080641A10.092530088080641,10.092530088080641 0 1,1 0,-10.092530088080641A10.092530088080641,10.092530088080641 0 1,1 0,10.092530088080641Z" style="fill: none; stroke: #4682b4; stroke-width: 2;"></path><path transform="translate(11,56)" d="M0,7.673807981960539A7.673807981960539,7.673807981960539 0 1,1 0,-7.673807981960539A7.673807981960539,7.673807981960539 0 1,1 0,7.673807981960539Z" style="fill: none; stroke: #4682b4; stroke-width: 2;"></path><path transform="translate(11,122)" d="M0,4.406461512053774A4.406461512053774,4.406461512053774 0 1,1 0,-4.406461512053774A4.406461512053774,4.406461512053774 0 1,1 0,4.406461512053774Z" style="fill: none; stroke: #4682b4; stroke-width: 2;"></path><path transform="translate(11,144)" d="M0,2.4592453796829674A2.4592453796829674,2.4592453796829674 0 1,1 0,-2.4592453796829674A2.4592453796829674,2.4592453796829674 0 1,1 0,2.4592453796829674Z" style="fill: none; stroke: #4682b4; stroke-width: 2;"></path><path transform="translate(33,144)" d="M0,3.5682482323055424A3.5682482323055424,3.5682482323055424 0 1,1 0,-3.5682482323055424A3.5682482323055424,3.5682482323055424 0 1,1 0,3.5682482323055424Z" style="fill: none; stroke: #4682b4; stroke-width: 2;"></path><path transform="translate(100,122)" d="M0,3.0901936161855166A3.0901936161855166,3.0901936161855166 0 1,1 0,-3.0901936161855166A3.0901936161855166,3.0901936161855166 0 1,1 0,3.0901936161855166Z" style="fill: none; stroke: #4682b4; stroke-width: 2;"></path><path transform="translate(33,78)" d="M0,8.685588237163813A8.685588237163813,8.685588237163813 0 1,1 0,-8.685588237163813A8.685588237163813,8.685588237163813 0 1,1 0,8.685588237163813Z" style="fill: none; stroke: #4682b4; stroke-width: 2;"></path><path transform="translate(11,33)" d="M0,5.077706251929807A5.077706251929807,5.077706251929807 0 1,1 0,-5.077706251929807A5.077706251929807,5.077706251929807 0 1,1 0,5.077706251929807Z" style="fill: none; stroke: #4682b4; stroke-width: 2;"></path><path transform="translate(122,122)" d="M0,1.692568750643269A1.692568750643269,1.692568750643269 0 1,1 0,-1.692568750643269A1.692568750643269,1.692568750643269 0 1,1 0,1.692568750643269Z" style="fill: none; stroke: #4682b4; stroke-width: 2;"></path><path transform="translate(56,100)" d="M0,6.506551687525748A6.506551687525748,6.506551687525748 0 1,1 0,-6.506551687525748A6.506551687525748,6.506551687525748 0 1,1 0,6.506551687525748Z" style="fill: none; stroke: #4682b4; stroke-width: 2;"></path><path transform="translate(144,122)" d="M0,1.692568750643269A1.692568750643269,1.692568750643269 0 1,1 0,-1.692568750643269A1.692568750643269,1.692568750643269 0 1,1 0,1.692568750643269Z" style="fill: none; stroke: #4682b4; stroke-width: 2;"></path><path transform="translate(56,78)" d="M0,2.4592453796829674A2.4592453796829674,2.4592453796829674 0 1,1 0,-2.4592453796829674A2.4592453796829674,2.4592453796829674 0 1,1 0,2.4592453796829674Z" style="fill: none; stroke: #4682b4; stroke-width: 2;"></path><path transform="translate(33,56)" d="M0,5.077706251929807A5.077706251929807,5.077706251929807 0 1,1 0,-5.077706251929807A5.077706251929807,5.077706251929807 0 1,1 0,5.077706251929807Z" style="fill: none; stroke: #4682b4; stroke-width: 2;"></path><path transform="translate(11,11)" d="M0,1.692568750643269A1.692568750643269,1.692568750643269 0 1,1 0,-1.692568750643269A1.692568750643269,1.692568750643269 0 1,1 0,1.692568750643269Z" style="fill: none; stroke: #4682b4; stroke-width: 2;"></path><path transform="translate(144,100)" d="M0,1.692568750643269A1.692568750643269,1.692568750643269 0 1,1 0,-1.692568750643269A1.692568750643269,1.692568750643269 0 1,1 0,1.692568750643269Z" style="fill: none; stroke: #4682b4; stroke-width: 2;"></path><path transform="translate(100,56)" d="M0,1.692568750643269A1.692568750643269,1.692568750643269 0 1,1 0,-1.692568750643269A1.692568750643269,1.692568750643269 0 1,1 0,1.692568750643269Z" style="fill: none; stroke: #4682b4; stroke-width: 2;"></path></g><g class="mark-group"><g transform="translate(0,200)"><rect class="background" width="0" height="0" style="pointer-events: none; fill: none;"></rect><g class="mark-rule" style="pointer-events: none;"></g><g class="mark-rule" style="pointer-events: none;"><line transform="translate(0,0)" x2="0" y2="6" style="fill: none; stroke: #000; stroke-width: 1; opacity: 1;"></line><line transform="translate(22,0)" x2="0" y2="6" style="fill: none; stroke: #000; stroke-width: 1; opacity: 1;"></line><line transform="translate(44,0)" x2="0" y2="6" style="fill: none; stroke: #000; stroke-width: 1; opacity: 1;"></line><line transform="translate(67,0)" x2="0" y2="6" style="fill: none; stroke: #000; stroke-width: 1; opacity: 1;"></line><line transform="translate(89,0)" x2="0" y2="6" style="fill: none; stroke: #000; stroke-width: 1; opacity: 1;"></line><line transform="translate(111,0)" x2="0" y2="6" style="fill: none; stroke: #000; stroke-width: 1; opacity: 1;"></line><line transform="translate(133,0)" x2="0" y2="6" style="fill: none; stroke: #000; stroke-width: 1; opacity: 1;"></line><line transform="translate(156,0)" x2="0" y2="6" style="fill: none; stroke: #000; stroke-width: 1; opacity: 1;"></line><line transform="translate(178,0)" x2="0" y2="6" style="fill: none; stroke: #000; stroke-width: 1; opacity: 1;"></line><line transform="translate(200,0)" x2="0" y2="6" style="fill: none; stroke: #000; stroke-width: 1; opacity: 1;"></line></g><g class="mark-rule" style="pointer-events: none;"></g><g class="mark-text"><text text-anchor="end" transform="translate(0,9) rotate(270) translate(0,3)" style="font: 11px sans-serif; fill: #000; opacity: 1;">50</text><text text-anchor="end" transform="translate(22,9) rotate(270) translate(0,3)" style="font: 11px sans-serif; fill: #000; opacity: 1;">100</text><text text-anchor="end" transform="translate(44,9) rotate(270) translate(0,3)" style="font: 11px sans-serif; fill: #000; opacity: 1;">150</text><text text-anchor="end" transform="translate(67,9) rotate(270) translate(0,3)" style="font: 11px sans-serif; fill: #000; opacity: 1;">200</text><text text-anchor="end" transform="translate(89,9) rotate(270) translate(0,3)" style="font: 11px sans-serif; fill: #000; opacity: 1;">250</text><text text-anchor="end" transform="translate(111,9) rotate(270) translate(0,3)" style="font: 11px sans-serif; fill: #000; opacity: 1;">300</text><text text-anchor="end" transform="translate(133,9) rotate(270) translate(0,3)" style="font: 11px sans-serif; fill: #000; opacity: 1;">350</text><text text-anchor="end" transform="translate(156,9) rotate(270) translate(0,3)" style="font: 11px sans-serif; fill: #000; opacity: 1;">400</text><text text-anchor="end" transform="translate(178,9) rotate(270) translate(0,3)" style="font: 11px sans-serif; fill: #000; opacity: 1;">450</text><text text-anchor="end" transform="translate(200,9) rotate(270) translate(0,3)" style="font: 11px sans-serif; fill: #000; opacity: 1;">500</text></g><g class="mark-path" style="pointer-events: none;"><path transform="translate(0,0)" d="M0,6V0H200V6" style="fill: none; stroke: #000; stroke-width: 1;"></path></g><g class="mark-text"><text text-anchor="middle" transform="translate(100,41)" style="font: bold 11px sans-serif; fill: #000;">BIN(Displacement)</text></g></g></g><g class="mark-group"><g transform="translate(0,0)"><rect class="background" width="0" height="0" style="pointer-events: none; fill: none;"></rect><g class="mark-rule" style="pointer-events: none;"></g><g class="mark-rule" style="pointer-events: none;"><line transform="translate(-6,200)" x2="6" y2="0" style="fill: none; stroke: #000; stroke-width: 1; opacity: 1;"></line><line transform="translate(-6,178)" x2="6" y2="0" style="fill: none; stroke: #000; stroke-width: 1; opacity: 1;"></line><line transform="translate(-6,156)" x2="6" y2="0" style="fill: none; stroke: #000; stroke-width: 1; opacity: 1;"></line><line transform="translate(-6,133)" x2="6" y2="0" style="fill: none; stroke: #000; stroke-width: 1; opacity: 1;"></line><line transform="translate(-6,111)" x2="6" y2="0" style="fill: none; stroke: #000; stroke-width: 1; opacity: 1;"></line><line transform="translate(-6,89)" x2="6" y2="0" style="fill: none; stroke: #000; stroke-width: 1; opacity: 1;"></line><line transform="translate(-6,67)" x2="6" y2="0" style="fill: none; stroke: #000; stroke-width: 1; opacity: 1;"></line><line transform="translate(-6,44)" x2="6" y2="0" style="fill: none; stroke: #000; stroke-width: 1; opacity: 1;"></line><line transform="translate(-6,22)" x2="6" y2="0" style="fill: none; stroke: #000; stroke-width: 1; opacity: 1;"></line><line transform="translate(-6,0)" x2="6" y2="0" style="fill: none; stroke: #000; stroke-width: 1; opacity: 1;"></line></g><g class="mark-rule" style="pointer-events: none;"></g><g class="mark-text"><text text-anchor="end" transform="translate(-9,203)" style="font: 11px sans-serif; fill: #000; opacity: 1;">5</text><text text-anchor="end" transform="translate(-9,181)" style="font: 11px sans-serif; fill: #000; opacity: 1;">10</text><text text-anchor="end" transform="translate(-9,159)" style="font: 11px sans-serif; fill: #000; opacity: 1;">15</text><text text-anchor="end" transform="translate(-9,136)" style="font: 11px sans-serif; fill: #000; opacity: 1;">20</text><text text-anchor="end" transform="translate(-9,114)" style="font: 11px sans-serif; fill: #000; opacity: 1;">25</text><text text-anchor="end" transform="translate(-9,92)" style="font: 11px sans-serif; fill: #000; opacity: 1;">30</text><text text-anchor="end" transform="translate(-9,70)" style="font: 11px sans-serif; fill: #000; opacity: 1;">35</text><text text-anchor="end" transform="translate(-9,47)" style="font: 11px sans-serif; fill: #000; opacity: 1;">40</text><text text-anchor="end" transform="translate(-9,25)" style="font: 11px sans-serif; fill: #000; opacity: 1;">45</text><text text-anchor="end" transform="translate(-9,3)" style="font: 11px sans-serif; fill: #000; opacity: 1;">50</text></g><g class="mark-path" style="pointer-events: none;"><path transform="translate(0,0)" d="M-6,0H0V200H-6" style="fill: none; stroke: #000; stroke-width: 1;"></path></g><g class="mark-text"><text text-anchor="middle" transform="translate(-32,100) rotate(-90) translate(0,3)" style="font: bold 11px sans-serif; fill: #000;">BIN(Miles_per_Gallon)</text></g></g></g><g class="mark-group"><g transform="translate(220.5,0.5)"><rect class="background" width="111" height="76" style="pointer-events: none; fill: none;"></rect><g class="mark-text" style="pointer-events: none;"><text text-anchor="start" transform="translate(3,13)" style="font: bold 11px sans-serif; fill: #000; opacity: 1;">Number of Records</text></g><g class="mark-symbol" style="pointer-events: none;"><path transform="translate(12.789197915623474,24)" d="M0,5.698035485213008A5.698035485213008,5.698035485213008 0 1,1 0,-5.698035485213008A5.698035485213008,5.698035485213008 0 1,1 0,5.698035485213008Z" style="fill: none; stroke: #4682b4; stroke-width: 2; opacity: 1;"></path><path transform="translate(12.789197915623474,41)" d="M0,8.097643889049511A8.097643889049511,8.097643889049511 0 1,1 0,-8.097643889049511A8.097643889049511,8.097643889049511 0 1,1 0,8.097643889049511Z" style="fill: none; stroke: #4682b4; stroke-width: 2; opacity: 1;"></path><path transform="translate(12.789197915623474,62)" d="M0,9.91754782346883A9.91754782346883,9.91754782346883 0 1,1 0,-9.91754782346883A9.91754782346883,9.91754782346883 0 1,1 0,9.91754782346883Z" style="fill: none; stroke: #4682b4; stroke-width: 2; opacity: 1;"></path></g><g class="mark-text" style="pointer-events: none;"><text text-anchor="start" transform="translate(26.578395831246947,27)" style="font: 10px sans-serif; fill: #000; opacity: 1;">10</text><text text-anchor="start" transform="translate(26.578395831246947,44)" style="font: 10px sans-serif; fill: #000; opacity: 1;">20</text><text text-anchor="start" transform="translate(26.578395831246947,65)" style="font: 10px sans-serif; fill: #000; opacity: 1;">30</text></g></g></g></g></g></g></g></g></svg>