<svg class="marks" width="310" height="331" version="1.1" xmlns="http://www.w3.org/2000/svg" xmlns:xlink="http://www.w3.org/1999/xlink"><g transform="translate(51,12)"><g class="mark-group"><g transform="translate(0,0)"><rect class="background" width="1" height="1" style="fill: none;"></rect><g class="mark-group root"><g transform="translate(0,0)"><rect class="background" width="252" height="200" style="fill: none;"></rect><g class="mark-group"><g transform="translate(0,0)"><rect class="background" width="0" height="0" style="pointer-events: none; fill: none;"></rect><g class="mark-rule" style="pointer-events: none;"><line transform="translate(0,200.5)" x2="252" y2="0" style="fill: none; stroke: #000; stroke-width: 1; stroke-opacity: 0.15; opacity: 1;"></line><line transform="translate(0,180.5)" x2="252" y2="0" style="fill: none; stroke: #000; stroke-width: 1; stroke-opacity: 0.15; opacity: 1;"></line><line transform="translate(0,168.5)" x2="252" y2="0" style="fill: none; stroke: #000; stroke-width: 1; stroke-opacity: 0.15; opacity: 1;"></line><line transform="translate(0,160.5)" x2="252" y2="0" style="fill: none; stroke: #000; stroke-width: 1; stroke-opacity: 0.15; opacity: 1;"></line><line transform="translate(0,153.5)" x2="252" y2="0" style="fill: none; stroke: #000; stroke-width: 1; stroke-opacity: 0.15; opacity: 1;"></line><line transform="translate(0,148.5)" x2="252" y2="0" style="fill: none; stroke: #000; stroke-width: 1; stroke-opacity: 0.15; opacity: 1;"></line><line transform="translate(0,144.5)" x2="252" y2="0" style="fill: none; stroke: #000; stroke-width: 1; stroke-opacity: 0.15; opacity: 1;"></line><line transform="translate(0,140.5)" x2="252" y2="0" style="fill: none; stroke: #000; stroke-width: 1; stroke-opacity: 0.15; opacity: 1;"></line><line transform="translate(0,136.5)" x2="252" y2="0" style="fill: none; stroke: #000; stroke-width: 1; stroke-opacity: 0.15; opacity: 1;"></line><line transform="translate(0,133.5)" x2="252" y2="0" style="fill: none; stroke: #000; stroke-width: 1; stroke-opacity: 0.15; opacity: 1;"></line><line transform="translate(0,113.5)" x2="252" y2="0" style="fill: none; stroke: #000; stroke-width: 1; stroke-opacity: 0.15; opacity: 1;"></line><line transform="translate(0,102.5)" x2="252" y2="0" style="fill: none; stroke: #000; stroke-width: 1; stroke-opacity: 0.15; opacity: 1;"></line><line transform="translate(0,93.5)" x2="252" y2="0" style="fill: none; stroke: #000; stroke-width: 1; stroke-opacity: 0.15; opacity: 1;"></line><line transform="translate(0,87.5)" x2="252" y2="0" style="fill: none; stroke: #000; stroke-width: 1; stroke-opacity: 0.15; opacity: 1;"></line><line transform="translate(0,81.5)" x2="252" y2="0" style="fill: none; stroke: #000; stroke-width: 1; stroke-opacity: 0.15; opacity: 1;"></line><line transform="translate(0,77.5)" x2="252" y2="0" style="fill: none; stroke: #000; stroke-width: 1; stroke-opacity: 0.15; opacity: 1;"></line><line transform="translate(0,73.5)" x2="252" y2="0" style="fill: none; stroke: #000; stroke-width: 1; stroke-opacity: 0.15; opacity: 1;"></line><line transform="translate(0,70.5)" x2="252" y2="0" style="fill: none; stroke: #000; stroke-width: 1; stroke-opacity: 0.15; opacity: 1;"></line><line transform="translate(0,67.5)" x2="252" y2="0" style="fill: none; stroke: #000; stroke-width: 1; stroke-opacity: 0.15; opacity: 1;"></line><line transform="translate(0,47.5)" x2="252" y2="0" style="fill: none; stroke: #000; stroke-width: 1; stroke-opacity: 0.15; opacity: 1;"></line><line transform="translate(0,35.5)" x2="252" y2="0" style="fill: none; stroke: #000; stroke-width: 1; stroke-opacity: 0.15; opacity: 1;"></line><line transform="translate(0,27.5)" x2="252" y2="0" style="fill: none; stroke: #000; stroke-width: 1; stroke-opacity: 0.15; opacity: 1;"></line><line transform="translate(0,20.5)" x2="252" y2="0" style="fill: none; stroke: #000; stroke-width: 1; stroke-opacity: 0.15; opacity: 1;"></line><line transform="translate(0,15.5)" x2="252" y2="0" style="fill: none; stroke: #000; stroke-width: 1; stroke-opacity: 0.15; opacity: 1;"></line><line transform="translate(0,10.5)" x2="252" y2="0" style="fill: none; stroke: #000; stroke-width: 1; stroke-opacity: 0.15; opacity: 1;"></line><line transform="translate(0,6.5)" x2="252" y2="0" style="fill: none; stroke: #000; stroke-width: 1; stroke-opacity: 0.15; opacity: 1;"></line><line transform="translate(0,3.5)" x2="252" y2="0" style="fill: none; stroke: #000; stroke-width: 1; stroke-opacity: 0.15; opacity: 1;"></line><line transform="translate(0,0.5)" x2="252" y2="0" style="fill: none; stroke: #000; stroke-width: 1; stroke-opacity: 0.15; opacity: 1;"></line></g><g class="mark-rule" style="pointer-events: none;"><line transform="translate(-6,200.5)" x2="6" y2="0" style="fill: none; stroke: #000; stroke-width: 1; opacity: 1;"></line><line transform="translate(-6,180.5)" x2="6" y2="0" style="fill: none; stroke: #000; stroke-width: 1; opacity: 1;"></line><line transform="translate(-6,168.5)" x2="6" y2="0" style="fill: none; stroke: #000; stroke-width: 1; opacity: 1;"></line><line transform="translate(-6,160.5)" x2="6" y2="0" style="fill: none; stroke: #000; stroke-width: 1; opacity: 1;"></line><line transform="translate(-6,153.5)" x2="6" y2="0" style="fill: none; stroke: #000; stroke-width: 1; opacity: 1;"></line><line transform="translate(-6,148.5)" x2="6" y2="0" style="fill: none; stroke: #000; stroke-width: 1; opacity: 1;"></line><line transform="translate(-6,144.5)" x2="6" y2="0" style="fill: none; stroke: #000; stroke-width: 1; opacity: 1;"></line><line transform="translate(-6,140.5)" x2="6" y2="0" style="fill: none; stroke: #000; stroke-width: 1; opacity: 1;"></line><line transform="translate(-6,136.5)" x2="6" y2="0" style="fill: none; stroke: #000; stroke-width: 1; opacity: 1;"></line><line transform="translate(-6,133.5)" x2="6" y2="0" style="fill: none; stroke: #000; stroke-width: 1; opacity: 1;"></line><line transform="translate(-6,113.5)" x2="6" y2="0" style="fill: none; stroke: #000; stroke-width: 1; opacity: 1;"></line><line transform="translate(-6,102.5)" x2="6" y2="0" style="fill: none; stroke: #000; stroke-width: 1; opacity: 1;"></line><line transform="translate(-6,93.5)" x2="6" y2="0" style="fill: none; stroke: #000; stroke-width: 1; opacity: 1;"></line><line transform="translate(-6,87.5)" x2="6" y2="0" style="fill: none; stroke: #000; stroke-width: 1; opacity: 1;"></line><line transform="translate(-6,81.5)" x2="6" y2="0" style="fill: none; stroke: #000; stroke-width: 1; opacity: 1;"></line><line transform="translate(-6,77.5)" x2="6" y2="0" style="fill: none; stroke: #000; stroke-width: 1; opacity: 1;"></line><line transform="translate(-6,73.5)" x2="6" y2="0" style="fill: none; stroke: #000; stroke-width: 1; opacity: 1;"></line><line transform="translate(-6,70.5)" x2="6" y2="0" style="fill: none; stroke: #000; stroke-width: 1; opacity: 1;"></line><line transform="translate(-6,67.5)" x2="6" y2="0" style="fill: none; stroke: #000; stroke-width: 1; opacity: 1;"></line><line transform="translate(-6,47.5)" x2="6" y2="0" style="fill: none; stroke: #000; stroke-width: 1; opacity: 1;"></line><line transform="translate(-6,35.5)" x2="6" y2="0" style="fill: none; stroke: #000; stroke-width: 1; opacity: 1;"></line><line transform="translate(-6,27.5)" x2="6" y2="0" style="fill: none; stroke: #000; stroke-width: 1; opacity: 1;"></line><line transform="translate(-6,20.5)" x2="6" y2="0" style="fill: none; stroke: #000; stroke-width: 1; opacity: 1;"></line><line transform="translate(-6,15.5)" x2="6" y2="0" style="fill: none; stroke: #000; stroke-width: 1; opacity: 1;"></line><line transform="translate(-6,10.5)" x2="6" y2="0" style="fill: none; stroke: #000; stroke-width: 1; opacity: 1;"></line><line transform="translate(-6,6.5)" x2="6" y2="0" style="fill: none; stroke: #000; stroke-width: 1; opacity: 1;"></line><line transform="translate(-6,3.5)" x2="6" y2="0" style="fill: none; stroke: #000; stroke-width: 1; opacity: 1;"></line><line transform="translate(-6,0.5)" x2="6" y2="0" style="fill: none; stroke: #000; stroke-width: 1; opacity: 1;"></line></g><g class="mark-rule" style="pointer-events: none;"></g><g class="mark-text"><text text-anchor="end" transform="translate(-9,203.5)" style="font: 11px sans-serif; fill: #000; opacity: 1;">10</text><text text-anchor="end" transform="translate(-9,183.5)" style="font: 11px sans-serif; fill: #000; opacity: 1;">20</text><text text-anchor="end" transform="translate(-9,171.5)" style="font: 11px sans-serif; fill: #000; opacity: 1;">30</text><text text-anchor="end" transform="translate(-9,163.5)" style="font: 11px sans-serif; fill: #000; opacity: 1;"></text><text text-anchor="end" transform="translate(-9,156.5)" style="font: 11px sans-serif; fill: #000; opacity: 1;"></text><text text-anchor="end" transform="translate(-9,151.5)" style="font: 11px sans-serif; fill: #000; opacity: 1;"></text><text text-anchor="end" transform="translate(-9,147.5)" style="font: 11px sans-serif; fill: #000; opacity: 1;"></text><text text-anchor="end" transform="translate(-9,143.5)" style="font: 11px sans-serif; fill: #000; opacity: 1;"></text><text text-anchor="end" transform="translate(-9,139.5)" style="font: 11px sans-serif; fill: #000; opacity: 1;"></text><text text-anchor="end" transform="translate(-9,136.5)" style="font: 11px sans-serif; fill: #000; opacity: 1;">100</text><text text-anchor="end" transform="translate(-9,116.5)" style="font: 11px sans-serif; fill: #000; opacity: 1;">200</text><text text-anchor="end" transform="translate(-9,105.5)" style="font: 11px sans-serif; fill: #000; opacity: 1;">300</text><text text-anchor="end" transform="translate(-9,96.5)" style="font: 11px sans-serif; fill: #000; opacity: 1;"></text><text text-anchor="end" transform="translate(-9,90.5)" style="font: 11px sans-serif; fill: #000; opacity: 1;"></text><text text-anchor="end" transform="translate(-9,84.5)" style="font: 11px sans-serif; fill: #000; opacity: 1;"></text><text text-anchor="end" transform="translate(-9,80.5)" style="font: 11px sans-serif; fill: #000; opacity: 1;"></text><text text-anchor="end" transform="translate(-9,76.5)" style="font: 11px sans-serif; fill: #000; opacity: 1;"></text><text text-anchor="end" transform="translate(-9,73.5)" style="font: 11px sans-serif; fill: #000; opacity: 1;"></text><text text-anchor="end" transform="translate(-9,70.5)" style="font: 11px sans-serif; fill: #000; opacity: 1;">1k</text><text text-anchor="end" transform="translate(-9,50.5)" style="font: 11px sans-serif; fill: #000; opacity: 1;">2k</text><text text-anchor="end" transform="translate(-9,38.5)" style="font: 11px sans-serif; fill: #000; opacity: 1;">3k</text><text text-anchor="end" transform="translate(-9,30.5)" style="font: 11px sans-serif; fill: #000; opacity: 1;"></text><text text-anchor="end" transform="translate(-9,23.5)" style="font: 11px sans-serif; fill: #000; opacity: 1;"></text><text text-anchor="end" transform="translate(-9,18.5)" style="font: 11px sans-serif; fill: #000; opacity: 1;"></text><text text-anchor="end" transform="translate(-9,13.5)" style="font: 11px sans-serif; fill: #000; opacity: 1;"></text><text text-anchor="end" transform="translate(-9,9.5)" style="font: 11px sans-serif; fill: #000; opacity: 1;"></text><text text-anchor="end" transform="translate(-9,6.5)" style="font: 11px sans-serif; fill: #000; opacity: 1;"></text><text text-anchor="end" transform="translate(-9,3.5)" style="font: 11px sans-serif; fill: #000; opacity: 1;">10k</text></g><g class="mark-path" style="pointer-events: none;"><path transform="translate(0.5,0.5)" d="M-6,0H0V200H-6" style="fill: none; stroke: #000; stroke-width: 1;"></path></g><g class="mark-text"><text text-anchor="middle" transform="translate(-39,100) rotate(-90) translate(0,3)" style="font: bold 11px sans-serif; fill: #000;">MTEPS</text></g></g></g><g class="mark-symbol"><path transform="translate(16,165)" d="M0,3.0901936161855166A3.0901936161855166,3.0901936161855166 0 1,1 0,-3.0901936161855166A3.0901936161855166,3.0901936161855166 0 1,1 0,3.0901936161855166Z" style="fill: none; stroke: #4682b4; stroke-width: 2; opacity: 0.7;"></path><path transform="translate(38,178)" d="M0,3.0901936161855166A3.0901936161855166,3.0901936161855166 0 1,1 0,-3.0901936161855166A3.0901936161855166,3.0901936161855166 0 1,1 0,3.0901936161855166Z" style="fill: none; stroke: #4682b4; stroke-width: 2; opacity: 0.7;"></path><path transform="translate(60,66)" d="M0,3.0901936161855166A3.0901936161855166,3.0901936161855166 0 1,1 0,-3.0901936161855166A3.0901936161855166,3.0901936161855166 0 1,1 0,3.0901936161855166Z" style="fill: none; stroke: #4682b4; stroke-width: 2; opacity: 0.7;"></path><path transform="translate(82,87)" d="M0,3.0901936161855166A3.0901936161855166,3.0901936161855166 0 1,1 0,-3.0901936161855166A3.0901936161855166,3.0901936161855166 0 1,1 0,3.0901936161855166Z" style="fill: none; stroke: #4682b4; stroke-width: 2; opacity: 0.7;"></path><path transform="translate(104,199)" d="M0,3.0901936161855166A3.0901936161855166,3.0901936161855166 0 1,1 0,-3.0901936161855166A3.0901936161855166,3.0901936161855166 0 1,1 0,3.0901936161855166Z" style="fill: none; stroke: #4682b4; stroke-width: 2; opacity: 0.7;"></path><path transform="translate(126,115)" d="M0,3.0901936161855166A3.0901936161855166,3.0901936161855166 0 1,1 0,-3.0901936161855166A3.0901936161855166,3.0901936161855166 0 1,1 0,3.0901936161855166Z" style="fill: none; stroke: #4682b4; stroke-width: 2; opacity: 0.7;"></path><path transform="translate(148,90)" d="M0,3.0901936161855166A3.0901936161855166,3.0901936161855166 0 1,1 0,-3.0901936161855166A3.0901936161855166,3.0901936161855166 0 1,1 0,3.0901936161855166Z" style="fill: none; stroke: #4682b4; stroke-width: 2; opacity: 0.7;"></path><path transform="translate(170,151)" d="M0,3.0901936161855166A3.0901936161855166,3.0901936161855166 0 1,1 0,-3.0901936161855166A3.0901936161855166,3.0901936161855166 0 1,1 0,3.0901936161855166Z" style="fill: none; stroke: #4682b4; stroke-width: 2; opacity: 0.7;"></path><path transform="translate(192,30)" d="M0,3.0901936161855166A3.0901936161855166,3.0901936161855166 0 1,1 0,-3.0901936161855166A3.0901936161855166,3.0901936161855166 0 1,1 0,3.0901936161855166Z" style="fill: none; stroke: #4682b4; stroke-width: 2; opacity: 0.7;"></path><path transform="translate(214,140)" d="M0,3.0901936161855166A3.0901936161855166,3.0901936161855166 0 1,1 0,-3.0901936161855166A3.0901936161855166,3.0901936161855166 0 1,1 0,3.0901936161855166Z" style="fill: none; stroke: #4682b4; stroke-width: 2; opacity: 0.7;"></path><path transform="translate(236,46)" d="M0,3.0901936161855166A3.0901936161855166,3.0901936161855166 0 1,1 0,-3.0901936161855166A3.0901936161855166,3.0901936161855166 0 1,1 0,3.0901936161855166Z" style="fill: none; stroke: #4682b4; stroke-width: 2; opacity: 0.7;"></path></g><g class="mark-group"><g transform="translate(0,200)"><rect class="background" width="0" height="0" style="pointer-events: none; fill: none;"></rect><g class="mark-rule" style="pointer-events: none;"></g><g class="mark-rule" style="pointer-events: none;"><line transform="translate(16.5,0)" x2="0" y2="6" style="fill: none; stroke: #000; stroke-width: 1; opacity: 1;"></line><line transform="translate(38.5,0)" x2="0" y2="6" style="fill: none; stroke: #000; stroke-width: 1; opacity: 1;"></line><line transform="translate(60.5,0)" x2="0" y2="6" style="fill: none; stroke: #000; stroke-width: 1; opacity: 1;"></line><line transform="translate(82.5,0)" x2="0" y2="6" style="fill: none; stroke: #000; stroke-width: 1; opacity: 1;"></line><line transform="translate(104.5,0)" x2="0" y2="6" style="fill: none; stroke: #000; stroke-width: 1; opacity: 1;"></line><line transform="translate(126.5,0)" x2="0" y2="6" style="fill: none; stroke: #000; stroke-width: 1; opacity: 1;"></line><line transform="translate(148.5,0)" x2="0" y2="6" style="fill: none; stroke: #000; stroke-width: 1; opacity: 1;"></line><line transform="translate(170.5,0)" x2="0" y2="6" style="fill: none; stroke: #000; stroke-width: 1; opacity: 1;"></line><line transform="translate(192.5,0)" x2="0" y2="6" style="fill: none; stroke: #000; stroke-width: 1; opacity: 1;"></line><line transform="translate(214.5,0)" x2="0" y2="6" style="fill: none; stroke: #000; stroke-width: 1; opacity: 1;"></line><line transform="translate(236.5,0)" x2="0" y2="6" style="fill: none; stroke: #000; stroke-width: 1; opacity: 1;"></line></g><g class="mark-rule" style="pointer-events: none;"></g><g class="mark-text"><text text-anchor="end" transform="translate(16.5,9) rotate(270) translate(0,3)" style="font: 11px sans-serif; fill: #000; opacity: 1;">ak2010</text><text text-anchor="end" transform="translate(38.5,9) rotate(270) translate(0,3)" style="font: 11px sans-serif; fill: #000; opacity: 1;">belgium_osm</text><text text-anchor="end" transform="translate(60.5,9) rotate(270) translate(0,3)" style="font: 11px sans-serif; fill: #000; opacity: 1;">cit-Patents</text><text text-anchor="end" transform="translate(82.5,9) rotate(270) translate(0,3)" style="font: 11px sans-serif; fill: #000; opacity: 1;">coAuthorsDBLP</text><text text-anchor="end" transform="translate(104.5,9) rotate(270) translate(0,3)" style="font: 11px sans-serif; fill: #000; opacity: 1;">delaunay_n13</text><text text-anchor="end" transform="translate(126.5,9) rotate(270) translate(0,3)" style="font: 11px sans-serif; fill: #000; opacity: 1;">delaunay_n21</text><text text-anchor="end" transform="translate(148.5,9) rotate(270) translate(0,3)" style="font: 11px sans-serif; fill: #000; opacity: 1;">delaunay_n24</text><text text-anchor="end" transform="translate(170.5,9) rotate(270) translate(0,3)" style="font: 11px sans-serif; fill: #000; opacity: 1;">europe_osm</text><text text-anchor="end" transform="translate(192.5,9) rotate(270) translate(0,3)" style="font: 11px sans-serif; fill: #000; opacity: 1;">kron_g500-logn21</text><text text-anchor="end" transform="translate(214.5,9) rotate(270) translate(0,3)" style="font: 11px sans-serif; fill: #000; opacity: 1;">road_usa</text><text text-anchor="end" transform="translate(236.5,9) rotate(270) translate(0,3)" style="font: 11px sans-serif; fill: #000; opacity: 1;">soc-LiveJournal1</text></g><g class="mark-path" style="pointer-events: none;"><path transform="translate(0.5,0.5)" d="M0,6V0H252V6" style="fill: none; stroke: #000; stroke-width: 1;"></path></g><g class="mark-text"><text text-anchor="middle" transform="translate(126,111)" style="font: bold 11px sans-serif; fill: #000;">dataset</text></g></g></g></g></g></g></g></g></svg>