<svg class="marks" width="488" height="247" version="1.1" xmlns="http://www.w3.org/2000/svg" xmlns:xlink="http://www.w3.org/1999/xlink"><g transform="translate(18,6)"><g class="mark-group"><g transform="translate(0,0)"><rect class="background" width="1" height="1" style="fill: none;"></rect><g class="mark-group root"><g transform="translate(0,0)"><rect class="background" width="300" height="200" style="fill: none;"></rect><g class="mark-group"><g transform="translate(0,200)"><rect class="background" width="0" height="0" style="pointer-events: none; fill: none;"></rect><g class="mark-rule" style="pointer-events: none;"><line transform="translate(0.5,-200)" x2="0" y2="200" style="fill: none; stroke: #000; stroke-opacity: 0.15; opacity: 1;"></line><line transform="translate(60.5,-200)" x2="0" y2="200" style="fill: none; stroke: #000; stroke-opacity: 0.15; opacity: 1;"></line><line transform="translate(119.5,-200)" x2="0" y2="200" style="fill: none; stroke: #000; stroke-opacity: 0.15; opacity: 1;"></line><line transform="translate(179.5,-200)" x2="0" y2="200" style="fill: none; stroke: #000; stroke-opacity: 0.15; opacity: 1;"></line><line transform="translate(238.5,-200)" x2="0" y2="200" style="fill: none; stroke: #000; stroke-opacity: 0.15; opacity: 1;"></line><line transform="translate(297.5,-200)" x2="0" y2="200" style="fill: none; stroke: #000; stroke-opacity: 0.15; opacity: 1;"></line></g><g class="mark-rule" style="pointer-events: none;"><line transform="translate(0.5,0)" x2="0" y2="0" style="fill: none; stroke: #000; stroke-width: 1; opacity: 1;"></line><line transform="translate(60.5,0)" x2="0" y2="0" style="fill: none; stroke: #000; stroke-width: 1; opacity: 1;"></line><line transform="translate(119.5,0)" x2="0" y2="0" style="fill: none; stroke: #000; stroke-width: 1; opacity: 1;"></line><line transform="translate(179.5,0)" x2="0" y2="0" style="fill: none; stroke: #000; stroke-width: 1; opacity: 1;"></line><line transform="translate(238.5,0)" x2="0" y2="0" style="fill: none; stroke: #000; stroke-width: 1; opacity: 1;"></line><line transform="translate(297.5,0)" x2="0" y2="0" style="fill: none; stroke: #000; stroke-width: 1; opacity: 1;"></line></g><g class="mark-rule" style="pointer-events: none;"></g><g class="mark-text"><text text-anchor="middle" transform="translate(0.5,13)" style="font: 11px sans-serif; fill: #000; opacity: 1;">2000</text><text text-anchor="middle" transform="translate(60.5,13)" style="font: 11px sans-serif; fill: #000; opacity: 1;">2002</text><text text-anchor="middle" transform="translate(119.5,13)" style="font: 11px sans-serif; fill: #000; opacity: 1;">2004</text><text text-anchor="middle" transform="translate(179.5,13)" style="font: 11px sans-serif; fill: #000; opacity: 1;">2006</text><text text-anchor="middle" transform="translate(238.5,13)" style="font: 11px sans-serif; fill: #000; opacity: 1;">2008</text><text text-anchor="middle" transform="translate(297.5,13)" style="font: 11px sans-serif; fill: #000; opacity: 1;">2010</text></g><g class="mark-path" style="pointer-events: none;"><path transform="translate(0.5,0.5)" d="M0,0V0H300V0" style="fill: none; stroke: #000; stroke-width: 0;"></path></g><g class="mark-text"><text text-anchor="middle" transform="translate(150,33)" style="font: bold 11px sans-serif; fill: #000;">YEARMONTH(date)</text></g></g></g><g class="mark-group pathgroup"><g transform="translate(0,0)"><rect class="background" width="300" height="200" style="fill: none;"></rect><g class="mark-area marks"><path d="M300,91L297,85L295,91L293,89L290,88L288,87L285,84L282,85L280,84L278,86L275,89L273,91L270,91L268,88L265,93L263,92L260,94L258,93L255,91L253,90L250,91L248,94L245,98L243,98L240,97L238,95L235,97L233,94L230,95L228,94L225,94L223,93L221,95L218,98L216,98L213,98L211,98L208,95L206,98L203,95L201,95L198,95L196,94L193,94L191,94L188,95L186,94L183,96L181,94L179,94L176,96L174,93L171,94L169,95L166,93L164,91L161,92L159,93L156,93L154,94L151,95L149,94L146,96L144,94L141,93L139,93L136,91L134,91L131,91L129,92L126,93L124,92L121,93L119,93L116,94L114,92L111,92L109,91L107,90L104,88L102,89L99,92L97,93L94,93L92,93L89,92L87,94L84,92L82,92L79,92L77,92L74,91L72,91L69,91L67,91L64,92L62,92L60,94L57,92L55,93L52,92L50,92L47,94L45,93L42,92L40,94L37,95L35,95L32,97L30,97L27,98L25,96L22,96L20,95L17,95L15,94L12,94L10,95L7,96L5,96L3,95L0,95L0,100L3,101L5,99L7,99L10,99L12,101L15,101L17,102L20,100L22,100L25,101L27,102L30,102L32,101L35,100L37,100L40,99L42,99L45,100L47,100L50,98L52,98L55,98L57,98L60,100L62,98L64,98L67,97L69,97L72,98L74,99L77,99L79,99L82,98L84,98L87,100L89,99L92,99L94,99L97,98L99,98L102,98L104,97L107,99L109,98L111,99L114,99L116,101L119,100L121,100L124,99L126,98L129,98L131,99L134,100L136,100L139,100L141,100L144,100L146,102L149,101L151,101L154,100L156,99L159,99L161,100L164,100L166,101L169,102L171,100L174,99L176,101L179,100L181,100L183,102L186,99L188,101L191,101L193,102L196,101L198,100L201,100L203,100L206,103L208,101L211,103L213,103L216,103L218,103L221,102L223,102L225,103L228,101L230,101L233,100L235,102L238,101L240,101L243,104L245,103L248,100L250,100L253,100L255,100L258,100L260,101L263,99L265,99L268,96L270,98L273,98L275,96L278,95L280,97L282,99L285,98L288,99L290,98L293,98L295,101L297,97L300,102Z" style="fill: #8ca252; opacity: 0.7;"></path></g></g><g transform="translate(0,0)"><rect class="background" width="300" height="200" style="fill: none;"></rect><g class="mark-area marks"><path d="M300,149L297,147L295,146L293,144L290,144L288,145L285,146L282,148L280,147L278,144L275,141L273,144L270,142L268,139L265,133L263,131L260,130L258,128L255,128L253,127L250,127L248,126L245,125L243,128L240,127L238,128L235,126L233,123L230,123L228,122L225,123L223,123L221,123L218,123L216,124L213,124L211,125L208,124L206,121L203,121L201,120L198,121L196,122L193,123L191,122L188,121L186,121L183,124L181,124L179,123L176,123L174,124L171,122L169,124L166,123L164,124L161,123L159,122L156,122L154,125L151,127L149,127L146,126L144,125L141,124L139,123L136,125L134,127L131,127L129,124L126,124L124,128L121,128L119,130L116,127L114,127L111,125L109,128L107,130L104,128L102,129L99,128L97,129L94,131L92,132L89,131L87,129L84,127L82,126L79,126L77,127L74,130L72,128L69,128L67,128L64,131L62,130L60,132L57,127L55,127L52,125L50,124L47,125L45,126L42,123L40,121L37,122L35,124L32,123L30,126L27,120L25,120L22,119L20,118L17,121L15,121L12,121L10,118L7,117L5,120L3,120L0,121L0,121L3,121L5,121L7,118L10,118L12,121L15,121L17,121L20,118L22,119L25,120L27,121L30,126L32,124L35,124L37,122L40,122L42,123L45,126L47,126L50,125L52,126L55,127L57,128L60,133L62,131L64,131L67,129L69,128L72,129L74,130L77,128L79,127L82,126L84,127L87,130L89,132L92,133L94,131L97,129L99,128L102,130L104,128L107,130L109,128L111,126L114,127L116,128L119,131L121,128L124,128L126,125L129,125L131,128L134,127L136,126L139,124L141,124L144,125L146,126L149,127L151,127L154,126L156,122L159,122L161,124L164,124L166,124L169,124L171,122L174,124L176,124L179,123L181,125L183,124L186,122L188,122L191,123L193,124L196,122L198,121L201,120L203,121L206,121L208,124L211,125L213,124L216,124L218,124L221,124L223,123L225,123L228,122L230,123L233,123L235,126L238,128L240,127L243,128L245,126L248,127L250,127L253,127L255,128L258,128L260,130L263,132L265,134L268,140L270,143L273,145L275,143L278,145L280,149L282,149L285,148L288,146L290,145L293,145L295,147L297,148L300,150Z" style="fill: #bd9e39; opacity: 0.7;"></path></g></g><g transform="translate(0,0)"><rect class="background" width="300" height="200" style="fill: none;"></rect><g class="mark-area marks"><path d="M300,37L297,35L295,42L293,44L290,42L288,43L285,42L282,40L280,42L278,45L275,48L273,46L270,47L268,49L265,58L263,61L260,66L258,66L255,65L253,66L250,69L248,71L245,74L243,72L240,72L238,70L235,74L233,76L230,76L228,75L225,74L223,73L221,75L218,78L216,77L213,77L211,74L208,74L206,79L203,78L201,80L198,78L196,75L193,73L191,75L188,77L186,75L183,75L181,73L179,73L176,77L174,74L171,76L169,76L166,74L164,73L161,72L159,74L156,74L154,71L151,69L149,70L146,74L144,74L141,74L139,73L136,72L134,70L131,69L129,73L126,71L124,68L121,68L119,68L116,73L114,71L111,72L109,70L107,68L104,67L102,66L99,72L97,71L94,70L92,67L89,66L87,71L84,72L82,73L79,74L77,71L74,71L72,70L69,72L67,71L64,69L62,67L60,68L57,73L55,74L52,76L50,77L47,76L45,77L42,78L40,81L37,80L35,78L32,78L30,78L27,84L25,84L22,83L20,83L17,81L15,81L12,80L10,82L7,83L5,80L3,78L0,78L0,88L3,88L5,88L7,89L10,87L12,85L15,85L17,86L20,88L22,88L25,90L27,92L30,88L32,89L35,87L37,88L40,87L42,83L45,83L47,83L50,83L52,83L55,83L57,83L60,83L62,81L64,82L67,81L69,80L72,78L74,78L77,79L79,81L82,81L84,82L87,83L89,81L92,82L94,82L97,81L99,81L102,75L104,76L107,76L109,79L111,81L114,80L116,83L119,80L121,81L124,81L126,82L129,81L131,77L134,78L136,80L139,81L141,82L144,83L146,85L149,83L151,83L154,83L156,83L159,81L161,79L164,79L166,81L169,83L171,83L174,81L176,87L179,84L181,84L183,86L186,84L188,85L191,82L193,81L196,83L198,85L201,86L203,85L206,89L208,85L211,88L213,88L216,88L218,87L221,83L223,81L225,81L228,82L230,84L233,84L235,86L238,84L240,86L243,87L245,87L248,82L250,79L253,76L255,75L258,78L260,79L263,77L265,76L268,71L270,72L273,71L275,70L278,67L280,62L282,62L285,62L288,63L290,64L293,66L295,68L297,63L300,68Z" style="fill: #6b6ecf; opacity: 0.7;"></path></g></g><g transform="translate(0,0)"><rect class="background" width="300" height="200" style="fill: none;"></rect><g class="mark-area marks"><path d="M300,126L297,123L295,124L293,120L290,121L288,122L285,123L282,123L280,122L278,119L275,116L273,120L270,119L268,118L265,117L263,117L260,117L258,115L255,116L253,116L250,116L248,115L245,115L243,118L240,117L238,117L235,116L233,114L230,114L228,113L225,116L223,115L221,115L218,115L216,114L213,115L211,115L208,114L206,113L203,112L201,112L198,113L196,113L193,114L191,114L188,113L186,112L183,115L181,114L179,113L176,114L174,114L171,112L169,114L166,114L164,113L161,114L159,112L156,112L154,114L151,116L149,116L146,115L144,114L141,113L139,113L136,115L134,114L131,116L129,112L126,112L124,115L121,114L119,116L116,114L114,114L111,112L109,113L107,115L104,113L102,114L99,113L97,114L94,116L92,117L89,115L87,114L84,113L82,113L79,113L77,114L74,115L72,114L69,113L67,112L64,113L62,114L60,115L57,113L55,113L52,112L50,112L47,113L45,112L42,111L40,110L37,111L35,112L32,112L30,114L27,112L25,111L22,110L20,110L17,112L15,112L12,113L10,109L7,108L5,111L3,112L0,112L0,121L3,120L5,120L7,117L10,118L12,121L15,121L17,121L20,118L22,119L25,120L27,120L30,126L32,123L35,124L37,122L40,121L42,123L45,126L47,125L50,124L52,125L55,127L57,127L60,132L62,130L64,131L67,128L69,128L72,128L74,130L77,127L79,126L82,126L84,127L87,129L89,131L92,132L94,131L97,129L99,128L102,129L104,128L107,130L109,128L111,125L114,127L116,127L119,130L121,128L124,128L126,124L129,124L131,127L134,127L136,125L139,123L141,124L144,125L146,126L149,127L151,127L154,125L156,122L159,122L161,123L164,124L166,123L169,124L171,122L174,124L176,123L179,123L181,124L183,124L186,121L188,121L191,122L193,123L196,122L198,121L201,120L203,121L206,121L208,124L211,125L213,124L216,124L218,123L221,123L223,123L225,123L228,122L230,123L233,123L235,126L238,128L240,127L243,128L245,125L248,126L250,127L253,127L255,128L258,128L260,130L263,131L265,133L268,139L270,142L273,144L275,141L278,144L280,147L282,148L285,146L288,145L290,144L293,144L295,146L297,147L300,149Z" style="fill: #8c6d31; opacity: 0.7;"></path></g></g><g transform="translate(0,0)"><rect class="background" width="300" height="200" style="fill: none;"></rect><g class="mark-area marks"><path d="M300,173L297,173L295,168L293,165L290,166L288,167L285,168L282,169L280,168L278,164L275,160L273,165L270,163L268,160L265,151L263,146L260,143L258,142L255,142L253,141L250,140L248,138L245,136L243,139L240,139L238,139L235,135L233,134L230,132L228,132L225,133L223,134L221,133L218,133L216,132L213,134L211,136L208,135L206,131L203,130L201,129L198,131L196,133L193,134L191,132L188,131L186,133L183,135L181,136L179,135L176,134L174,134L171,132L169,134L166,133L164,134L161,134L159,132L156,133L154,137L151,139L149,139L146,136L144,136L141,134L139,134L136,137L134,138L131,139L129,135L126,135L124,140L121,140L119,142L116,138L114,139L111,138L109,139L107,142L104,140L102,142L99,139L97,140L94,144L92,145L89,144L87,140L84,138L82,136L79,136L77,138L74,141L72,140L69,138L67,139L64,141L62,142L60,144L57,138L55,137L52,136L50,133L47,134L45,134L42,132L40,129L37,130L35,131L32,132L30,133L27,127L25,128L22,126L20,127L17,128L15,129L12,128L10,127L7,126L5,129L3,130L0,130L0,143L3,142L5,141L7,136L10,137L12,139L15,139L17,139L20,137L22,135L25,136L27,136L30,145L32,144L35,144L37,140L40,139L42,144L45,144L47,146L50,145L52,148L55,150L57,152L60,159L62,158L64,157L67,154L69,152L72,155L74,155L77,153L79,151L82,151L84,153L87,154L89,161L92,160L94,158L97,155L99,155L102,160L104,158L107,156L109,154L111,153L114,154L116,152L119,159L121,157L124,157L126,151L129,150L131,153L134,153L136,150L139,149L141,148L144,149L146,150L149,155L151,155L154,152L156,147L159,147L161,149L164,149L166,147L169,147L171,145L174,147L176,146L179,150L181,150L183,147L186,145L188,144L191,145L193,147L196,145L198,143L201,141L203,143L206,143L208,150L211,149L213,145L216,143L218,143L221,145L223,148L225,146L228,145L230,144L233,145L235,148L238,153L240,152L243,152L245,148L248,151L250,154L253,157L255,159L258,158L260,160L263,164L265,170L268,183L270,186L273,188L275,183L278,187L280,191L282,192L285,191L288,189L290,190L293,188L295,191L297,200L300,199Z" style="fill: #ad494a; opacity: 0.7;"></path></g></g><g transform="translate(0,0)"><rect class="background" width="300" height="200" style="fill: none;"></rect><g class="mark-area marks"><path d="M300,166L297,165L295,161L293,158L290,160L288,160L285,161L282,162L280,161L278,158L275,154L273,158L270,156L268,154L265,146L263,142L260,139L258,138L255,138L253,136L250,136L248,135L245,133L243,136L240,136L238,136L235,133L233,131L230,130L228,129L225,130L223,130L221,130L218,130L216,130L213,131L211,132L208,132L206,129L203,128L201,127L198,128L196,130L193,131L191,129L188,128L186,129L183,131L181,132L179,131L176,131L174,132L171,129L169,132L166,131L164,131L161,131L159,130L156,130L154,134L151,136L149,135L146,134L144,134L141,131L139,132L136,134L134,135L131,136L129,132L126,132L124,136L121,136L119,139L116,135L114,136L111,135L109,136L107,139L104,137L102,138L99,136L97,137L94,140L92,141L89,140L87,137L84,135L82,133L79,133L77,136L74,137L72,136L69,135L67,135L64,138L62,138L60,140L57,134L55,133L52,132L50,131L47,132L45,131L42,129L40,126L37,127L35,129L32,129L30,131L27,125L25,126L22,124L20,124L17,126L15,127L12,126L10,124L7,123L5,126L3,127L0,127L0,130L3,130L5,129L7,126L10,127L12,128L15,129L17,128L20,127L22,126L25,128L27,127L30,133L32,132L35,131L37,130L40,129L42,132L45,134L47,134L50,133L52,136L55,137L57,138L60,144L62,142L64,141L67,139L69,138L72,140L74,141L77,138L79,136L82,136L84,138L87,140L89,144L92,145L94,144L97,140L99,139L102,142L104,140L107,142L109,139L111,138L114,139L116,138L119,142L121,140L124,140L126,135L129,135L131,139L134,138L136,137L139,134L141,134L144,136L146,136L149,139L151,139L154,137L156,133L159,132L161,134L164,134L166,133L169,134L171,132L174,134L176,134L179,135L181,136L183,135L186,133L188,131L191,132L193,134L196,133L198,131L201,129L203,130L206,131L208,135L211,136L213,134L216,132L218,133L221,133L223,134L225,133L228,132L230,132L233,134L235,135L238,139L240,139L243,139L245,136L248,138L250,140L253,141L255,142L258,142L260,143L263,146L265,151L268,160L270,163L273,165L275,160L278,164L280,168L282,169L285,168L288,167L290,166L293,165L295,168L297,173L300,173Z" style="fill: #843c39; opacity: 0.7;"></path></g></g><g transform="translate(0,0)"><rect class="background" width="300" height="200" style="fill: none;"></rect><g class="mark-area marks"><path d="M300,102L297,97L295,101L293,98L290,98L288,99L285,98L282,99L280,97L278,95L275,96L273,98L270,98L268,96L265,99L263,99L260,101L258,100L255,100L253,100L250,100L248,100L245,103L243,104L240,101L238,101L235,102L233,100L230,101L228,101L225,103L223,102L221,102L218,103L216,103L213,103L211,103L208,101L206,103L203,100L201,100L198,100L196,101L193,102L191,101L188,101L186,99L183,102L181,100L179,100L176,101L174,99L171,100L169,102L166,101L164,100L161,100L159,99L156,99L154,100L151,101L149,101L146,102L144,100L141,100L139,100L136,100L134,100L131,99L129,98L126,98L124,99L121,100L119,100L116,101L114,99L111,99L109,98L107,99L104,97L102,98L99,98L97,98L94,99L92,99L89,99L87,100L84,98L82,98L79,99L77,99L74,99L72,98L69,97L67,97L64,98L62,98L60,100L57,98L55,98L52,98L50,98L47,100L45,100L42,99L40,99L37,100L35,100L32,101L30,102L27,102L25,101L22,100L20,100L17,102L15,101L12,101L10,99L7,99L5,99L3,101L0,100L0,102L3,102L5,101L7,100L10,101L12,102L15,102L17,104L20,102L22,102L25,103L27,104L30,104L32,102L35,102L37,102L40,101L42,101L45,102L47,103L50,101L52,101L55,101L57,101L60,103L62,102L64,101L67,100L69,100L72,101L74,102L77,103L79,102L82,101L84,101L87,103L89,102L92,103L94,103L97,101L99,101L102,101L104,100L107,102L109,101L111,101L114,102L116,103L119,103L121,102L124,102L126,100L129,100L131,101L134,102L136,102L139,102L141,102L144,102L146,104L149,103L151,103L154,102L156,101L159,101L161,102L164,101L166,103L169,104L171,102L174,102L176,102L179,102L181,101L183,104L186,101L188,103L191,103L193,103L196,103L198,102L201,102L203,102L206,104L208,103L211,104L213,104L216,104L218,105L221,104L223,103L225,105L228,102L230,102L233,101L235,104L238,103L240,104L243,106L245,104L248,102L250,101L253,101L255,102L258,102L260,103L263,101L265,102L268,99L270,101L273,101L275,100L278,99L280,101L282,103L285,103L288,103L290,101L293,101L295,104L297,101L300,106Z" style="fill: #b5cf6b; opacity: 0.7;"></path></g></g><g transform="translate(0,0)"><rect class="background" width="300" height="200" style="fill: none;"></rect><g class="mark-area marks"><path d="M300,83L297,77L295,82L293,81L290,80L288,79L285,77L282,77L280,78L278,79L275,82L273,83L270,83L268,81L265,86L263,86L260,89L258,88L255,86L253,86L250,87L248,89L245,94L243,94L240,93L238,91L235,93L233,90L230,91L228,90L225,89L223,89L221,91L218,95L216,95L213,95L211,94L208,92L206,95L203,92L201,93L198,92L196,90L193,90L191,90L188,92L186,91L183,93L181,90L179,92L176,93L174,90L171,90L169,91L166,89L164,87L161,88L159,89L156,90L154,91L151,91L149,91L146,92L144,90L141,88L139,88L136,88L134,87L131,87L129,88L126,89L124,88L121,89L119,88L116,91L114,88L111,89L109,87L107,86L104,84L102,85L99,88L97,89L94,88L92,89L89,88L87,90L84,88L82,88L79,88L77,87L74,87L72,86L69,87L67,87L64,88L62,88L60,90L57,89L55,89L52,89L50,89L47,90L45,89L42,89L40,92L37,92L35,93L32,94L30,94L27,95L25,94L22,93L20,93L17,92L15,91L12,91L10,92L7,93L5,93L3,92L0,92L0,95L3,95L5,96L7,96L10,95L12,94L15,94L17,95L20,95L22,96L25,96L27,98L30,97L32,97L35,95L37,95L40,94L42,92L45,93L47,94L50,92L52,92L55,93L57,92L60,94L62,92L64,92L67,91L69,91L72,91L74,91L77,92L79,92L82,92L84,92L87,94L89,92L92,93L94,93L97,93L99,92L102,89L104,88L107,90L109,91L111,92L114,92L116,94L119,93L121,93L124,92L126,93L129,92L131,91L134,91L136,91L139,93L141,93L144,94L146,96L149,94L151,95L154,94L156,93L159,93L161,92L164,91L166,93L169,95L171,94L174,93L176,96L179,94L181,94L183,96L186,94L188,95L191,94L193,94L196,94L198,95L201,95L203,95L206,98L208,95L211,98L213,98L216,98L218,98L221,95L223,93L225,94L228,94L230,95L233,94L235,97L238,95L240,97L243,98L245,98L248,94L250,91L253,90L255,91L258,93L260,94L263,92L265,93L268,88L270,91L273,91L275,89L278,86L280,84L282,85L285,84L288,87L290,88L293,89L295,91L297,85L300,91Z" style="fill: #637939; opacity: 0.7;"></path></g></g><g transform="translate(0,0)"><rect class="background" width="300" height="200" style="fill: none;"></rect><g class="mark-area marks"><path d="M300,15L297,15L295,24L293,25L290,23L288,24L285,23L282,21L280,22L278,26L275,30L273,26L270,28L268,31L265,44L263,49L260,52L258,54L255,53L253,55L250,58L248,61L245,65L243,61L240,61L238,59L235,64L233,67L230,68L228,67L225,66L223,64L221,66L218,69L216,69L213,67L211,64L208,63L206,70L203,69L201,71L198,69L196,67L193,64L191,66L188,68L186,67L183,65L181,63L179,63L176,67L174,65L171,67L169,65L166,65L164,63L161,63L159,65L156,65L154,61L151,57L149,58L146,63L144,63L141,64L139,63L136,62L134,60L131,59L129,62L126,62L124,56L121,56L119,54L116,61L114,59L111,60L109,58L107,57L104,55L102,52L99,58L97,58L94,55L92,53L89,52L87,58L84,60L82,61L79,61L77,59L74,57L72,57L69,60L67,59L64,57L62,55L60,54L57,62L55,63L52,65L50,67L47,67L45,68L42,69L40,73L37,72L35,70L32,69L30,69L27,77L25,77L22,77L20,76L17,73L15,73L12,74L10,75L7,77L5,72L3,71L0,70L0,78L3,78L5,80L7,83L10,82L12,80L15,81L17,81L20,83L22,83L25,84L27,84L30,78L32,78L35,78L37,80L40,81L42,78L45,77L47,76L50,77L52,76L55,74L57,73L60,68L62,67L64,69L67,71L69,72L72,70L74,71L77,71L79,74L82,73L84,72L87,71L89,66L92,67L94,70L97,71L99,72L102,66L104,67L107,68L109,70L111,72L114,71L116,73L119,68L121,68L124,68L126,71L129,73L131,69L134,70L136,72L139,73L141,74L144,74L146,74L149,70L151,69L154,71L156,74L159,74L161,72L164,73L166,74L169,76L171,76L174,74L176,77L179,73L181,73L183,75L186,75L188,77L191,75L193,73L196,75L198,78L201,80L203,78L206,79L208,74L211,74L213,77L216,77L218,78L221,75L223,73L225,74L228,75L230,76L233,76L235,74L238,70L240,72L243,72L245,74L248,71L250,69L253,66L255,65L258,66L260,66L263,61L265,58L268,49L270,47L273,46L275,48L278,45L280,42L282,40L285,42L288,43L290,42L293,44L295,42L297,35L300,37Z" style="fill: #5254a3; opacity: 0.7;"></path></g></g><g transform="translate(0,0)"><rect class="background" width="300" height="200" style="fill: none;"></rect><g class="mark-area marks"><path d="M300,68L297,63L295,68L293,66L290,64L288,63L285,62L282,62L280,62L278,67L275,70L273,71L270,72L268,71L265,76L263,77L260,79L258,78L255,75L253,76L250,79L248,82L245,87L243,87L240,86L238,84L235,86L233,84L230,84L228,82L225,81L223,81L221,83L218,87L216,88L213,88L211,88L208,85L206,89L203,85L201,86L198,85L196,83L193,81L191,82L188,85L186,84L183,86L181,84L179,84L176,87L174,81L171,83L169,83L166,81L164,79L161,79L159,81L156,83L154,83L151,83L149,83L146,85L144,83L141,82L139,81L136,80L134,78L131,77L129,81L126,82L124,81L121,81L119,80L116,83L114,80L111,81L109,79L107,76L104,76L102,75L99,81L97,81L94,82L92,82L89,81L87,83L84,82L82,81L79,81L77,79L74,78L72,78L69,80L67,81L64,82L62,81L60,83L57,83L55,83L52,83L50,83L47,83L45,83L42,83L40,87L37,88L35,87L32,89L30,88L27,92L25,90L22,88L20,88L17,86L15,85L12,85L10,87L7,89L5,88L3,88L0,88L0,92L3,92L5,93L7,93L10,92L12,91L15,91L17,92L20,93L22,93L25,94L27,95L30,94L32,94L35,93L37,92L40,92L42,89L45,89L47,90L50,89L52,89L55,89L57,89L60,90L62,88L64,88L67,87L69,87L72,86L74,87L77,87L79,88L82,88L84,88L87,90L89,88L92,89L94,88L97,89L99,88L102,85L104,84L107,86L109,87L111,89L114,88L116,91L119,88L121,89L124,88L126,89L129,88L131,87L134,87L136,88L139,88L141,88L144,90L146,92L149,91L151,91L154,91L156,90L159,89L161,88L164,87L166,89L169,91L171,90L174,90L176,93L179,92L181,90L183,93L186,91L188,92L191,90L193,90L196,90L198,92L201,93L203,92L206,95L208,92L211,94L213,95L216,95L218,95L221,91L223,89L225,89L228,90L230,91L233,90L235,93L238,91L240,93L243,94L245,94L248,89L250,87L253,86L255,86L258,88L260,89L263,86L265,86L268,81L270,83L273,83L275,82L278,79L280,78L282,77L285,77L288,79L290,80L293,81L295,82L297,77L300,83Z" style="fill: #9c9ede; opacity: 0.7;"></path></g></g><g transform="translate(0,0)"><rect class="background" width="300" height="200" style="fill: none;"></rect><g class="mark-area marks"><path d="M300,106L297,101L295,104L293,101L290,101L288,103L285,103L282,103L280,101L278,99L275,100L273,101L270,101L268,99L265,102L263,101L260,103L258,102L255,102L253,101L250,101L248,102L245,104L243,106L240,104L238,103L235,104L233,101L230,102L228,102L225,105L223,103L221,104L218,105L216,104L213,104L211,104L208,103L206,104L203,102L201,102L198,102L196,103L193,103L191,103L188,103L186,101L183,104L181,101L179,102L176,102L174,102L171,102L169,104L166,103L164,101L161,102L159,101L156,101L154,102L151,103L149,103L146,104L144,102L141,102L139,102L136,102L134,102L131,101L129,100L126,100L124,102L121,102L119,103L116,103L114,102L111,101L109,101L107,102L104,100L102,101L99,101L97,101L94,103L92,103L89,102L87,103L84,101L82,101L79,102L77,103L74,102L72,101L69,100L67,100L64,101L62,102L60,103L57,101L55,101L52,101L50,101L47,103L45,102L42,101L40,101L37,102L35,102L32,102L30,104L27,104L25,103L22,102L20,102L17,104L15,102L12,102L10,101L7,100L5,101L3,102L0,102L0,112L3,112L5,111L7,108L10,109L12,113L15,112L17,112L20,110L22,110L25,111L27,112L30,114L32,112L35,112L37,111L40,110L42,111L45,112L47,113L50,112L52,112L55,113L57,113L60,115L62,114L64,113L67,112L69,113L72,114L74,115L77,114L79,113L82,113L84,113L87,114L89,115L92,117L94,116L97,114L99,113L102,114L104,113L107,115L109,113L111,112L114,114L116,114L119,116L121,114L124,115L126,112L129,112L131,116L134,114L136,115L139,113L141,113L144,114L146,115L149,116L151,116L154,114L156,112L159,112L161,114L164,113L166,114L169,114L171,112L174,114L176,114L179,113L181,114L183,115L186,112L188,113L191,114L193,114L196,113L198,113L201,112L203,112L206,113L208,114L211,115L213,115L216,114L218,115L221,115L223,115L225,116L228,113L230,114L233,114L235,116L238,117L240,117L243,118L245,115L248,115L250,116L253,116L255,116L258,115L260,117L263,117L265,117L268,118L270,119L273,120L275,116L278,119L280,122L282,123L285,123L288,122L290,121L293,120L295,124L297,123L300,126Z" style="fill: #cedb9c; opacity: 0.7;"></path></g></g><g transform="translate(0,0)"><rect class="background" width="300" height="200" style="fill: none;"></rect><g class="mark-area marks"><path d="M300,150L297,148L295,147L293,145L290,145L288,146L285,148L282,149L280,149L278,145L275,143L273,145L270,143L268,140L265,134L263,132L260,130L258,128L255,128L253,127L250,127L248,127L245,126L243,128L240,127L238,128L235,126L233,123L230,123L228,122L225,123L223,123L221,124L218,124L216,124L213,124L211,125L208,124L206,121L203,121L201,120L198,121L196,122L193,124L191,123L188,122L186,122L183,124L181,125L179,123L176,124L174,124L171,122L169,124L166,124L164,124L161,124L159,122L156,122L154,126L151,127L149,127L146,126L144,125L141,124L139,124L136,126L134,127L131,128L129,125L126,125L124,128L121,128L119,131L116,128L114,127L111,126L109,128L107,130L104,128L102,130L99,128L97,129L94,131L92,133L89,132L87,130L84,127L82,126L79,127L77,128L74,130L72,129L69,128L67,129L64,131L62,131L60,133L57,128L55,127L52,126L50,125L47,126L45,126L42,123L40,122L37,122L35,124L32,124L30,126L27,121L25,120L22,119L20,118L17,121L15,121L12,121L10,118L7,118L5,121L3,121L0,121L0,124L3,124L5,124L7,121L10,122L12,124L15,124L17,123L20,121L22,121L25,123L27,123L30,128L32,127L35,126L37,125L40,124L42,126L45,129L47,129L50,127L52,129L55,130L57,131L60,136L62,135L64,135L67,132L69,131L72,133L74,134L77,132L79,130L82,129L84,131L87,133L89,136L92,137L94,136L97,133L99,133L102,134L104,133L107,135L109,132L111,131L114,132L116,131L119,135L121,133L124,133L126,129L129,129L131,132L134,131L136,130L139,127L141,128L144,129L146,130L149,131L151,131L154,130L156,126L159,126L161,127L164,128L166,127L169,128L171,126L174,128L176,127L179,127L181,128L183,128L186,125L188,125L191,126L193,127L196,127L198,125L201,123L203,125L206,125L208,128L211,129L213,127L216,127L218,127L221,127L223,126L225,126L228,125L230,125L233,126L235,129L238,132L240,131L243,132L245,129L248,130L250,131L253,132L255,133L258,133L260,134L263,137L265,139L268,145L270,148L273,150L275,148L278,151L280,155L282,155L285,154L288,152L290,152L293,151L295,154L297,156L300,157Z" style="fill: #e7ba52; opacity: 0.7;"></path></g></g><g transform="translate(0,0)"><rect class="background" width="300" height="200" style="fill: none;"></rect><g class="mark-area marks"><path d="M300,12L297,11L295,20L293,23L290,21L288,22L285,20L282,19L280,20L278,24L275,28L273,23L270,25L268,28L265,41L263,47L260,51L258,53L255,52L253,54L250,57L248,60L245,63L243,59L240,59L238,58L235,63L233,66L230,67L228,66L225,65L223,63L221,66L218,68L216,68L213,66L211,62L208,61L206,68L203,68L201,70L198,68L196,66L193,63L191,66L188,67L186,66L183,64L181,61L179,61L176,65L174,64L171,66L169,64L166,64L164,62L161,62L159,64L156,64L154,59L151,56L149,56L146,61L144,62L141,63L139,62L136,61L134,58L131,58L129,61L126,60L124,54L121,54L119,52L116,59L114,57L111,58L109,57L107,55L104,53L102,51L99,56L97,56L94,53L92,51L89,50L87,57L84,58L82,60L79,60L77,58L74,56L72,56L69,59L67,57L64,54L62,53L60,52L57,59L55,61L52,63L50,66L47,65L45,67L42,67L40,71L37,71L35,67L32,67L30,66L27,75L25,75L22,76L20,74L17,72L15,72L12,72L10,74L7,75L5,70L3,68L0,68L0,70L3,71L5,72L7,77L10,75L12,74L15,73L17,73L20,76L22,77L25,77L27,77L30,69L32,69L35,70L37,72L40,73L42,69L45,68L47,67L50,67L52,65L55,63L57,62L60,54L62,55L64,57L67,59L69,60L72,57L74,57L77,59L79,61L82,61L84,60L87,58L89,52L92,53L94,55L97,58L99,58L102,52L104,55L107,57L109,58L111,60L114,59L116,61L119,54L121,56L124,56L126,62L129,62L131,59L134,60L136,62L139,63L141,64L144,63L146,63L149,58L151,57L154,61L156,65L159,65L161,63L164,63L166,65L169,65L171,67L174,65L176,67L179,63L181,63L183,65L186,67L188,68L191,66L193,64L196,67L198,69L201,71L203,69L206,70L208,63L211,64L213,67L216,69L218,69L221,66L223,64L225,66L228,67L230,68L233,67L235,64L238,59L240,61L243,61L245,65L248,61L250,58L253,55L255,53L258,54L260,52L263,49L265,44L268,31L270,28L273,26L275,30L278,26L280,22L282,21L285,23L288,24L290,23L293,25L295,24L297,15L300,15Z" style="fill: #393b79; opacity: 0.7;"></path></g></g><g transform="translate(0,0)"><rect class="background" width="300" height="200" style="fill: none;"></rect><g class="mark-area marks"><path d="M300,157L297,156L295,154L293,151L290,152L288,152L285,154L282,155L280,155L278,151L275,148L273,150L270,148L268,145L265,139L263,137L260,134L258,133L255,133L253,132L250,131L248,130L245,129L243,132L240,131L238,132L235,129L233,126L230,125L228,125L225,126L223,126L221,127L218,127L216,127L213,127L211,129L208,128L206,125L203,125L201,123L198,125L196,127L193,127L191,126L188,125L186,125L183,128L181,128L179,127L176,127L174,128L171,126L169,128L166,127L164,128L161,127L159,126L156,126L154,130L151,131L149,131L146,130L144,129L141,128L139,127L136,130L134,131L131,132L129,129L126,129L124,133L121,133L119,135L116,131L114,132L111,131L109,132L107,135L104,133L102,134L99,133L97,133L94,136L92,137L89,136L87,133L84,131L82,129L79,130L77,132L74,134L72,133L69,131L67,132L64,135L62,135L60,136L57,131L55,130L52,129L50,127L47,129L45,129L42,126L40,124L37,125L35,126L32,127L30,128L27,123L25,123L22,121L20,121L17,123L15,124L12,124L10,122L7,121L5,124L3,124L0,124L0,127L3,127L5,126L7,123L10,124L12,126L15,127L17,126L20,124L22,124L25,126L27,125L30,131L32,129L35,129L37,127L40,126L42,129L45,131L47,132L50,131L52,132L55,133L57,134L60,140L62,138L64,138L67,135L69,135L72,136L74,137L77,136L79,133L82,133L84,135L87,137L89,140L92,141L94,140L97,137L99,136L102,138L104,137L107,139L109,136L111,135L114,136L116,135L119,139L121,136L124,136L126,132L129,132L131,136L134,135L136,134L139,132L141,131L144,134L146,134L149,135L151,136L154,134L156,130L159,130L161,131L164,131L166,131L169,132L171,129L174,132L176,131L179,131L181,132L183,131L186,129L188,128L191,129L193,131L196,130L198,128L201,127L203,128L206,129L208,132L211,132L213,131L216,130L218,130L221,130L223,130L225,130L228,129L230,130L233,131L235,133L238,136L240,136L243,136L245,133L248,135L250,136L253,136L255,138L258,138L260,139L263,142L265,146L268,154L270,156L273,158L275,154L278,158L280,161L282,162L285,161L288,160L290,160L293,158L295,161L297,165L300,166Z" style="fill: #e7cb94; opacity: 0.7;"></path></g></g></g><g class="mark-group"><g transform="translate(320.5,0.5)"><rect class="background" width="144" height="227" style="pointer-events: none; fill: none;"></rect><g class="mark-text" style="pointer-events: none;"><text text-anchor="start" transform="translate(3,13)" style="font: bold 11px sans-serif; fill: #000; opacity: 1;">series</text></g><g class="mark-symbol" style="pointer-events: none;"><path transform="translate(7.5,23)" d="M0,3.989422804014327A3.989422804014327,3.989422804014327 0 1,1 0,-3.989422804014327A3.989422804014327,3.989422804014327 0 1,1 0,3.989422804014327Z" style="fill: #393b79; stroke: #888; stroke-width: 0; opacity: 0.7;"></path><path transform="translate(7.5,38)" d="M0,3.989422804014327A3.989422804014327,3.989422804014327 0 1,1 0,-3.989422804014327A3.989422804014327,3.989422804014327 0 1,1 0,3.989422804014327Z" style="fill: #5254a3; stroke: #888; stroke-width: 0; opacity: 0.7;"></path><path transform="translate(7.5,53)" d="M0,3.989422804014327A3.989422804014327,3.989422804014327 0 1,1 0,-3.989422804014327A3.989422804014327,3.989422804014327 0 1,1 0,3.989422804014327Z" style="fill: #6b6ecf; stroke: #888; stroke-width: 0; opacity: 0.7;"></path><path transform="translate(7.5,68)" d="M0,3.989422804014327A3.989422804014327,3.989422804014327 0 1,1 0,-3.989422804014327A3.989422804014327,3.989422804014327 0 1,1 0,3.989422804014327Z" style="fill: #9c9ede; stroke: #888; stroke-width: 0; opacity: 0.7;"></path><path transform="translate(7.5,83)" d="M0,3.989422804014327A3.989422804014327,3.989422804014327 0 1,1 0,-3.989422804014327A3.989422804014327,3.989422804014327 0 1,1 0,3.989422804014327Z" style="fill: #637939; stroke: #888; stroke-width: 0; opacity: 0.7;"></path><path transform="translate(7.5,98)" d="M0,3.989422804014327A3.989422804014327,3.989422804014327 0 1,1 0,-3.989422804014327A3.989422804014327,3.989422804014327 0 1,1 0,3.989422804014327Z" style="fill: #8ca252; stroke: #888; stroke-width: 0; opacity: 0.7;"></path><path transform="translate(7.5,113)" d="M0,3.989422804014327A3.989422804014327,3.989422804014327 0 1,1 0,-3.989422804014327A3.989422804014327,3.989422804014327 0 1,1 0,3.989422804014327Z" style="fill: #b5cf6b; stroke: #888; stroke-width: 0; opacity: 0.7;"></path><path transform="translate(7.5,128)" d="M0,3.989422804014327A3.989422804014327,3.989422804014327 0 1,1 0,-3.989422804014327A3.989422804014327,3.989422804014327 0 1,1 0,3.989422804014327Z" style="fill: #cedb9c; stroke: #888; stroke-width: 0; opacity: 0.7;"></path><path transform="translate(7.5,143)" d="M0,3.989422804014327A3.989422804014327,3.989422804014327 0 1,1 0,-3.989422804014327A3.989422804014327,3.989422804014327 0 1,1 0,3.989422804014327Z" style="fill: #8c6d31; stroke: #888; stroke-width: 0; opacity: 0.7;"></path><path transform="translate(7.5,158)" d="M0,3.989422804014327A3.989422804014327,3.989422804014327 0 1,1 0,-3.989422804014327A3.989422804014327,3.989422804014327 0 1,1 0,3.989422804014327Z" style="fill: #bd9e39; stroke: #888; stroke-width: 0; opacity: 0.7;"></path><path transform="translate(7.5,173)" d="M0,3.989422804014327A3.989422804014327,3.989422804014327 0 1,1 0,-3.989422804014327A3.989422804014327,3.989422804014327 0 1,1 0,3.989422804014327Z" style="fill: #e7ba52; stroke: #888; stroke-width: 0; opacity: 0.7;"></path><path transform="translate(7.5,188)" d="M0,3.989422804014327A3.989422804014327,3.989422804014327 0 1,1 0,-3.989422804014327A3.989422804014327,3.989422804014327 0 1,1 0,3.989422804014327Z" style="fill: #e7cb94; stroke: #888; stroke-width: 0; opacity: 0.7;"></path><path transform="translate(7.5,203)" d="M0,3.989422804014327A3.989422804014327,3.989422804014327 0 1,1 0,-3.989422804014327A3.989422804014327,3.989422804014327 0 1,1 0,3.989422804014327Z" style="fill: #843c39; stroke: #888; stroke-width: 0; opacity: 0.7;"></path><path transform="translate(7.5,218)" d="M0,3.989422804014327A3.989422804014327,3.989422804014327 0 1,1 0,-3.989422804014327A3.989422804014327,3.989422804014327 0 1,1 0,3.989422804014327Z" style="fill: #ad494a; stroke: #888; stroke-width: 0; opacity: 0.7;"></path></g><g class="mark-text" style="pointer-events: none;"><text text-anchor="start" transform="translate(16,26)" style="font: 10px sans-serif; fill: #000; opacity: 1;">Agriculture</text><text text-anchor="start" transform="translate(16,41)" style="font: 10px sans-serif; fill: #000; opacity: 1;">Business services</text><text text-anchor="start" transform="translate(16,56)" style="font: 10px sans-serif; fill: #000; opacity: 1;">Construction</text><text text-anchor="start" transform="translate(16,71)" style="font: 10px sans-serif; fill: #000; opacity: 1;">Education and Health</text><text text-anchor="start" transform="translate(16,86)" style="font: 10px sans-serif; fill: #000; opacity: 1;">Finance</text><text text-anchor="start" transform="translate(16,101)" style="font: 10px sans-serif; fill: #000; opacity: 1;">Government</text><text text-anchor="start" transform="translate(16,116)" style="font: 10px sans-serif; fill: #000; opacity: 1;">Information</text><text text-anchor="start" transform="translate(16,131)" style="font: 10px sans-serif; fill: #000; opacity: 1;">Leisure and hospitality</text><text text-anchor="start" transform="translate(16,146)" style="font: 10px sans-serif; fill: #000; opacity: 1;">Manufacturing</text><text text-anchor="start" transform="translate(16,161)" style="font: 10px sans-serif; fill: #000; opacity: 1;">Mining and Extraction</text><text text-anchor="start" transform="translate(16,176)" style="font: 10px sans-serif; fill: #000; opacity: 1;">Other</text><text text-anchor="start" transform="translate(16,191)" style="font: 10px sans-serif; fill: #000; opacity: 1;">Self-employed</text><text text-anchor="start" transform="translate(16,206)" style="font: 10px sans-serif; fill: #000; opacity: 1;">Transportation and Utilities</text><text text-anchor="start" transform="translate(16,221)" style="font: 10px sans-serif; fill: #000; opacity: 1;">Wholesale and Retail Trade</text></g></g></g></g></g></g></g></g></svg>