<svg class="marks" width="399" height="328" version="1.1" xmlns="http://www.w3.org/2000/svg" xmlns:xlink="http://www.w3.org/1999/xlink"><g transform="translate(51,12)"><g class="mark-group"><g transform="translate(0,0)"><rect class="background" width="1" height="1" style="fill: none;"></rect><g class="mark-group root"><g transform="translate(0,0)"><rect class="background" width="231" height="200" style="fill: none;"></rect><g class="mark-group"><g transform="translate(0,200)"><rect class="background" width="0" height="0" style="pointer-events: none; fill: none;"></rect><g class="mark-rule" style="pointer-events: none;"></g><g class="mark-rule" style="pointer-events: none;"><line transform="translate(12.5,0)" x2="0" y2="6" style="fill: none; stroke: #000; stroke-width: 1; opacity: 1;"></line><line transform="translate(35.5,0)" x2="0" y2="6" style="fill: none; stroke: #000; stroke-width: 1; opacity: 1;"></line><line transform="translate(58.5,0)" x2="0" y2="6" style="fill: none; stroke: #000; stroke-width: 1; opacity: 1;"></line><line transform="translate(81.5,0)" x2="0" y2="6" style="fill: none; stroke: #000; stroke-width: 1; opacity: 1;"></line><line transform="translate(104.5,0)" x2="0" y2="6" style="fill: none; stroke: #000; stroke-width: 1; opacity: 1;"></line><line transform="translate(127.5,0)" x2="0" y2="6" style="fill: none; stroke: #000; stroke-width: 1; opacity: 1;"></line><line transform="translate(150.5,0)" x2="0" y2="6" style="fill: none; stroke: #000; stroke-width: 1; opacity: 1;"></line><line transform="translate(173.5,0)" x2="0" y2="6" style="fill: none; stroke: #000; stroke-width: 1; opacity: 1;"></line><line transform="translate(196.5,0)" x2="0" y2="6" style="fill: none; stroke: #000; stroke-width: 1; opacity: 1;"></line><line transform="translate(219.5,0)" x2="0" y2="6" style="fill: none; stroke: #000; stroke-width: 1; opacity: 1;"></line></g><g class="mark-rule" style="pointer-events: none;"></g><g class="mark-text"><text text-anchor="end" transform="translate(12.5,9) rotate(270) translate(0,3)" style="font: 11px sans-serif; fill: #000; opacity: 1;">Glabron</text><text text-anchor="end" transform="translate(35.5,9) rotate(270) translate(0,3)" style="font: 11px sans-serif; fill: #000; opacity: 1;">Manchuria</text><text text-anchor="end" transform="translate(58.5,9) rotate(270) translate(0,3)" style="font: 11px sans-serif; fill: #000; opacity: 1;">No. 457</text><text text-anchor="end" transform="translate(81.5,9) rotate(270) translate(0,3)" style="font: 11px sans-serif; fill: #000; opacity: 1;">No. 462</text><text text-anchor="end" transform="translate(104.5,9) rotate(270) translate(0,3)" style="font: 11px sans-serif; fill: #000; opacity: 1;">No. 475</text><text text-anchor="end" transform="translate(127.5,9) rotate(270) translate(0,3)" style="font: 11px sans-serif; fill: #000; opacity: 1;">Peatland</text><text text-anchor="end" transform="translate(150.5,9) rotate(270) translate(0,3)" style="font: 11px sans-serif; fill: #000; opacity: 1;">Svansota</text><text text-anchor="end" transform="translate(173.5,9) rotate(270) translate(0,3)" style="font: 11px sans-serif; fill: #000; opacity: 1;">Trebi</text><text text-anchor="end" transform="translate(196.5,9) rotate(270) translate(0,3)" style="font: 11px sans-serif; fill: #000; opacity: 1;">Velvet</text><text text-anchor="end" transform="translate(219.5,9) rotate(270) translate(0,3)" style="font: 11px sans-serif; fill: #000; opacity: 1;">Wisconsin No. 38</text></g><g class="mark-path" style="pointer-events: none;"><path transform="translate(0.5,0.5)" d="M0,6V0H231V6" style="fill: none; stroke: #000; stroke-width: 1;"></path></g><g class="mark-text"><text text-anchor="middle" transform="translate(115,108)" style="font: bold 11px sans-serif; fill: #000;">variety</text></g></g></g><g class="mark-group"><g transform="translate(0,0)"><rect class="background" width="0" height="0" style="pointer-events: none; fill: none;"></rect><g class="mark-rule" style="pointer-events: none;"><line transform="translate(0,200.5)" x2="231" y2="0" style="fill: none; stroke: #000; stroke-opacity: 0.15; opacity: 1;"></line><line transform="translate(0,180.5)" x2="231" y2="0" style="fill: none; stroke: #000; stroke-opacity: 0.15; opacity: 1;"></line><line transform="translate(0,160.5)" x2="231" y2="0" style="fill: none; stroke: #000; stroke-opacity: 0.15; opacity: 1;"></line><line transform="translate(0,140.5)" x2="231" y2="0" style="fill: none; stroke: #000; stroke-opacity: 0.15; opacity: 1;"></line><line transform="translate(0,120.5)" x2="231" y2="0" style="fill: none; stroke: #000; stroke-opacity: 0.15; opacity: 1;"></line><line transform="translate(0,100.5)" x2="231" y2="0" style="fill: none; stroke: #000; stroke-opacity: 0.15; opacity: 1;"></line><line transform="translate(0,80.5)" x2="231" y2="0" style="fill: none; stroke: #000; stroke-opacity: 0.15; opacity: 1;"></line><line transform="translate(0,60.5)" x2="231" y2="0" style="fill: none; stroke: #000; stroke-opacity: 0.15; opacity: 1;"></line><line transform="translate(0,40.5)" x2="231" y2="0" style="fill: none; stroke: #000; stroke-opacity: 0.15; opacity: 1;"></line><line transform="translate(0,20.5)" x2="231" y2="0" style="fill: none; stroke: #000; stroke-opacity: 0.15; opacity: 1;"></line><line transform="translate(0,0.5)" x2="231" y2="0" style="fill: none; stroke: #000; stroke-opacity: 0.15; opacity: 1;"></line></g><g class="mark-rule" style="pointer-events: none;"><line transform="translate(-6,200.5)" x2="6" y2="0" style="fill: none; stroke: #000; stroke-width: 1; opacity: 1;"></line><line transform="translate(-6,180.5)" x2="6" y2="0" style="fill: none; stroke: #000; stroke-width: 1; opacity: 1;"></line><line transform="translate(-6,160.5)" x2="6" y2="0" style="fill: none; stroke: #000; stroke-width: 1; opacity: 1;"></line><line transform="translate(-6,140.5)" x2="6" y2="0" style="fill: none; stroke: #000; stroke-width: 1; opacity: 1;"></line><line transform="translate(-6,120.5)" x2="6" y2="0" style="fill: none; stroke: #000; stroke-width: 1; opacity: 1;"></line><line transform="translate(-6,100.5)" x2="6" y2="0" style="fill: none; stroke: #000; stroke-width: 1; opacity: 1;"></line><line transform="translate(-6,80.5)" x2="6" y2="0" style="fill: none; stroke: #000; stroke-width: 1; opacity: 1;"></line><line transform="translate(-6,60.5)" x2="6" y2="0" style="fill: none; stroke: #000; stroke-width: 1; opacity: 1;"></line><line transform="translate(-6,40.5)" x2="6" y2="0" style="fill: none; stroke: #000; stroke-width: 1; opacity: 1;"></line><line transform="translate(-6,20.5)" x2="6" y2="0" style="fill: none; stroke: #000; stroke-width: 1; opacity: 1;"></line><line transform="translate(-6,0.5)" x2="6" y2="0" style="fill: none; stroke: #000; stroke-width: 1; opacity: 1;"></line></g><g class="mark-rule" style="pointer-events: none;"></g><g class="mark-text"><text text-anchor="end" transform="translate(-9,203.5)" style="font: 11px sans-serif; fill: #000; opacity: 1;">0</text><text text-anchor="end" transform="translate(-9,183.5)" style="font: 11px sans-serif; fill: #000; opacity: 1;">50</text><text text-anchor="end" transform="translate(-9,163.5)" style="font: 11px sans-serif; fill: #000; opacity: 1;">100</text><text text-anchor="end" transform="translate(-9,143.5)" style="font: 11px sans-serif; fill: #000; opacity: 1;">150</text><text text-anchor="end" transform="translate(-9,123.5)" style="font: 11px sans-serif; fill: #000; opacity: 1;">200</text><text text-anchor="end" transform="translate(-9,103.5)" style="font: 11px sans-serif; fill: #000; opacity: 1;">250</text><text text-anchor="end" transform="translate(-9,83.5)" style="font: 11px sans-serif; fill: #000; opacity: 1;">300</text><text text-anchor="end" transform="translate(-9,63.5)" style="font: 11px sans-serif; fill: #000; opacity: 1;">350</text><text text-anchor="end" transform="translate(-9,43.5)" style="font: 11px sans-serif; fill: #000; opacity: 1;">400</text><text text-anchor="end" transform="translate(-9,23.5)" style="font: 11px sans-serif; fill: #000; opacity: 1;">450</text><text text-anchor="end" transform="translate(-9,3.5)" style="font: 11px sans-serif; fill: #000; opacity: 1;">500</text></g><g class="mark-path" style="pointer-events: none;"><path transform="translate(0.5,0.5)" d="M-6,0H0V200H-6" style="fill: none; stroke: #000; stroke-width: 1;"></path></g><g class="mark-text"><text text-anchor="middle" transform="translate(-39,100) rotate(-90) translate(0,3)" style="font: bold 11px sans-serif; fill: #000;">SUM(yield)</text></g></g></g><g class="mark-rect marks"><rect transform="translate(25,146)" width="20" height="21" style="fill: #9467bd;"></rect><rect transform="translate(25,167)" width="20" height="33" style="fill: #8c564b;"></rect><rect transform="translate(25,121)" width="20" height="25" style="fill: #d62728;"></rect><rect transform="translate(25,49)" width="20" height="29" style="fill: #1f77b4;"></rect><rect transform="translate(25,99)" width="20" height="22" style="fill: #2ca02c;"></rect><rect transform="translate(25,78)" width="20" height="21" style="fill: #ff7f0e;"></rect><rect transform="translate(2,131)" width="20" height="32" style="fill: #9467bd;"></rect><rect transform="translate(2,163)" width="20" height="37" style="fill: #8c564b;"></rect><rect transform="translate(2,105)" width="20" height="26" style="fill: #d62728;"></rect><rect transform="translate(2,40)" width="20" height="26" style="fill: #1f77b4;"></rect><rect transform="translate(2,88)" width="20" height="17" style="fill: #2ca02c;"></rect><rect transform="translate(2,66)" width="20" height="22" style="fill: #ff7f0e;"></rect><rect transform="translate(140,141)" width="20" height="25" style="fill: #9467bd;"></rect><rect transform="translate(140,166)" width="20" height="34" style="fill: #8c564b;"></rect><rect transform="translate(140,116)" width="20" height="25" style="fill: #d62728;"></rect><rect transform="translate(140,54)" width="20" height="25" style="fill: #1f77b4;"></rect><rect transform="translate(140,98)" width="20" height="18" style="fill: #2ca02c;"></rect><rect transform="translate(140,79)" width="20" height="19" style="fill: #ff7f0e;"></rect><rect transform="translate(186,138)" width="20" height="27" style="fill: #9467bd;"></rect><rect transform="translate(186,165)" width="20" height="35" style="fill: #8c564b;"></rect><rect transform="translate(186,112)" width="20" height="26" style="fill: #d62728;"></rect><rect transform="translate(186,41)" width="20" height="30" style="fill: #1f77b4;"></rect><rect transform="translate(186,90)" width="20" height="22" style="fill: #2ca02c;"></rect><rect transform="translate(186,71)" width="20" height="19" style="fill: #ff7f0e;"></rect><rect transform="translate(163,129)" width="20" height="26" style="fill: #9467bd;"></rect><rect transform="translate(163,155)" width="20" height="45" style="fill: #8c564b;"></rect><rect transform="translate(163,92)" width="20" height="37" style="fill: #d62728;"></rect><rect transform="translate(163,11)" width="20" height="35" style="fill: #1f77b4;"></rect><rect transform="translate(163,72)" width="20" height="20" style="fill: #2ca02c;"></rect><rect transform="translate(163,46)" width="20" height="26" style="fill: #ff7f0e;"></rect><rect transform="translate(48,132)" width="20" height="28" style="fill: #9467bd;"></rect><rect transform="translate(48,160)" width="20" height="40" style="fill: #8c564b;"></rect><rect transform="translate(48,103)" width="20" height="29" style="fill: #d62728;"></rect><rect transform="translate(48,28)" width="20" height="32" style="fill: #1f77b4;"></rect><rect transform="translate(48,82)" width="20" height="21" style="fill: #2ca02c;"></rect><rect transform="translate(48,60)" width="20" height="22" style="fill: #ff7f0e;"></rect><rect transform="translate(71,131)" width="20" height="25" style="fill: #9467bd;"></rect><rect transform="translate(71,156)" width="20" height="44" style="fill: #8c564b;"></rect><rect transform="translate(71,100)" width="20" height="31" style="fill: #d62728;"></rect><rect transform="translate(71,30)" width="20" height="32" style="fill: #1f77b4;"></rect><rect transform="translate(71,82)" width="20" height="18" style="fill: #2ca02c;"></rect><rect transform="translate(71,62)" width="20" height="20" style="fill: #ff7f0e;"></rect><rect transform="translate(117,142)" width="20" height="24" style="fill: #9467bd;"></rect><rect transform="translate(117,166)" width="20" height="34" style="fill: #8c564b;"></rect><rect transform="translate(117,113)" width="20" height="29" style="fill: #d62728;"></rect><rect transform="translate(117,36)" width="20" height="27" style="fill: #1f77b4;"></rect><rect transform="translate(117,88)" width="20" height="25" style="fill: #2ca02c;"></rect><rect transform="translate(117,63)" width="20" height="25" style="fill: #ff7f0e;"></rect><rect transform="translate(94,143)" width="20" height="22" style="fill: #9467bd;"></rect><rect transform="translate(94,165)" width="20" height="35" style="fill: #8c564b;"></rect><rect transform="translate(94,116)" width="20" height="27" style="fill: #d62728;"></rect><rect transform="translate(94,48)" width="20" height="30" style="fill: #1f77b4;"></rect><rect transform="translate(94,102)" width="20" height="14" style="fill: #2ca02c;"></rect><rect transform="translate(94,78)" width="20" height="24" style="fill: #ff7f0e;"></rect><rect transform="translate(209,122)" width="20" height="31" style="fill: #9467bd;"></rect><rect transform="translate(209,153)" width="20" height="47" style="fill: #8c564b;"></rect><rect transform="translate(209,92)" width="20" height="30" style="fill: #d62728;"></rect><rect transform="translate(209,11)" width="20" height="34" style="fill: #1f77b4;"></rect><rect transform="translate(209,70)" width="20" height="22" style="fill: #2ca02c;"></rect><rect transform="translate(209,45)" width="20" height="25" style="fill: #ff7f0e;"></rect></g><g class="mark-group"><g transform="translate(251.5,0.5)"><rect class="background" width="91" height="107" style="pointer-events: none; fill: none;"></rect><g class="mark-text" style="pointer-events: none;"><text text-anchor="start" transform="translate(3,13)" style="font: bold 11px sans-serif; fill: #000; opacity: 1;">site</text></g><g class="mark-symbol" style="pointer-events: none;"><path transform="translate(7.5,23)" d="M0,3.989422804014327A3.989422804014327,3.989422804014327 0 1,1 0,-3.989422804014327A3.989422804014327,3.989422804014327 0 1,1 0,3.989422804014327Z" style="fill: #1f77b4; stroke: #888; stroke-width: 0; opacity: 1;"></path><path transform="translate(7.5,38)" d="M0,3.989422804014327A3.989422804014327,3.989422804014327 0 1,1 0,-3.989422804014327A3.989422804014327,3.989422804014327 0 1,1 0,3.989422804014327Z" style="fill: #ff7f0e; stroke: #888; stroke-width: 0; opacity: 1;"></path><path transform="translate(7.5,53)" d="M0,3.989422804014327A3.989422804014327,3.989422804014327 0 1,1 0,-3.989422804014327A3.989422804014327,3.989422804014327 0 1,1 0,3.989422804014327Z" style="fill: #2ca02c; stroke: #888; stroke-width: 0; opacity: 1;"></path><path transform="translate(7.5,68)" d="M0,3.989422804014327A3.989422804014327,3.989422804014327 0 1,1 0,-3.989422804014327A3.989422804014327,3.989422804014327 0 1,1 0,3.989422804014327Z" style="fill: #d62728; stroke: #888; stroke-width: 0; opacity: 1;"></path><path transform="translate(7.5,83)" d="M0,3.989422804014327A3.989422804014327,3.989422804014327 0 1,1 0,-3.989422804014327A3.989422804014327,3.989422804014327 0 1,1 0,3.989422804014327Z" style="fill: #9467bd; stroke: #888; stroke-width: 0; opacity: 1;"></path><path transform="translate(7.5,98)" d="M0,3.989422804014327A3.989422804014327,3.989422804014327 0 1,1 0,-3.989422804014327A3.989422804014327,3.989422804014327 0 1,1 0,3.989422804014327Z" style="fill: #8c564b; stroke: #888; stroke-width: 0; opacity: 1;"></path></g><g class="mark-text" style="pointer-events: none;"><text text-anchor="start" transform="translate(16,26)" style="font: 10px sans-serif; fill: #000; opacity: 1;">Crookston</text><text text-anchor="start" transform="translate(16,41)" style="font: 10px sans-serif; fill: #000; opacity: 1;">Duluth</text><text text-anchor="start" transform="translate(16,56)" style="font: 10px sans-serif; fill: #000; opacity: 1;">Grand Rapids</text><text text-anchor="start" transform="translate(16,71)" style="font: 10px sans-serif; fill: #000; opacity: 1;">Morris</text><text text-anchor="start" transform="translate(16,86)" style="font: 10px sans-serif; fill: #000; opacity: 1;">University Farm</text><text text-anchor="start" transform="translate(16,101)" style="font: 10px sans-serif; fill: #000; opacity: 1;">Waseca</text></g></g></g></g></g></g></g></g></svg>