<svg class="marks" width="249" height="175" version="1.1" xmlns="http://www.w3.org/2000/svg" xmlns:xlink="http://www.w3.org/1999/xlink"><g transform="translate(42,6)"><g class="mark-group"><g transform="translate(0,0)"><rect class="background" width="1" height="1" style="fill: none;"></rect><g class="mark-group root"><g transform="translate(0,0)"><rect class="background" width="200" height="126" style="fill: none;"></rect><g class="mark-group"><g transform="translate(0,126)"><rect class="background" width="0" height="0" style="pointer-events: none; fill: none;"></rect><g class="mark-rule" style="pointer-events: none;"><line transform="translate(0.5,-126)" x2="0" y2="126" style="fill: none; stroke: #000; stroke-opacity: 0.15; opacity: 1;"></line><line transform="translate(42.5,-126)" x2="0" y2="126" style="fill: none; stroke: #000; stroke-opacity: 0.15; opacity: 1;"></line><line transform="translate(83.5,-126)" x2="0" y2="126" style="fill: none; stroke: #000; stroke-opacity: 0.15; opacity: 1;"></line><line transform="translate(125.5,-126)" x2="0" y2="126" style="fill: none; stroke: #000; stroke-opacity: 0.15; opacity: 1;"></line><line transform="translate(167.5,-126)" x2="0" y2="126" style="fill: none; stroke: #000; stroke-opacity: 0.15; opacity: 1;"></line></g><g class="mark-rule" style="pointer-events: none;"><line transform="translate(0.5,0)" x2="0" y2="6" style="fill: none; stroke: #000; stroke-width: 1; opacity: 1;"></line><line transform="translate(42.5,0)" x2="0" y2="6" style="fill: none; stroke: #000; stroke-width: 1; opacity: 1;"></line><line transform="translate(83.5,0)" x2="0" y2="6" style="fill: none; stroke: #000; stroke-width: 1; opacity: 1;"></line><line transform="translate(125.5,0)" x2="0" y2="6" style="fill: none; stroke: #000; stroke-width: 1; opacity: 1;"></line><line transform="translate(167.5,0)" x2="0" y2="6" style="fill: none; stroke: #000; stroke-width: 1; opacity: 1;"></line></g><g class="mark-rule" style="pointer-events: none;"></g><g class="mark-text"><text text-anchor="middle" transform="translate(0.5,19)" style="font: 11px sans-serif; fill: #000; opacity: 1;">0</text><text text-anchor="middle" transform="translate(42.5,19)" style="font: 11px sans-serif; fill: #000; opacity: 1;">50</text><text text-anchor="middle" transform="translate(83.5,19)" style="font: 11px sans-serif; fill: #000; opacity: 1;">100</text><text text-anchor="middle" transform="translate(125.5,19)" style="font: 11px sans-serif; fill: #000; opacity: 1;">150</text><text text-anchor="middle" transform="translate(167.5,19)" style="font: 11px sans-serif; fill: #000; opacity: 1;">200</text></g><g class="mark-path" style="pointer-events: none;"><path transform="translate(0.5,0.5)" d="M0,6V0H200V6" style="fill: none; stroke: #000; stroke-width: 1;"></path></g><g class="mark-text"><text text-anchor="middle" transform="translate(100,35)" style="font: bold 11px sans-serif; fill: #000;">Horsepower</text></g></g></g><g class="mark-group"><g transform="translate(0,0)"><rect class="background" width="0" height="0" style="pointer-events: none; fill: none;"></rect><g class="mark-rule" style="pointer-events: none;"></g><g class="mark-rule" style="pointer-events: none;"><line transform="translate(-6,13.5)" x2="6" y2="0" style="fill: none; stroke: #000; stroke-width: 1; opacity: 1;"></line><line transform="translate(-6,38.5)" x2="6" y2="0" style="fill: none; stroke: #000; stroke-width: 1; opacity: 1;"></line><line transform="translate(-6,63.5)" x2="6" y2="0" style="fill: none; stroke: #000; stroke-width: 1; opacity: 1;"></line><line transform="translate(-6,88.5)" x2="6" y2="0" style="fill: none; stroke: #000; stroke-width: 1; opacity: 1;"></line><line transform="translate(-6,113.5)" x2="6" y2="0" style="fill: none; stroke: #000; stroke-width: 1; opacity: 1;"></line></g><g class="mark-rule" style="pointer-events: none;"></g><g class="mark-text"><text text-anchor="end" transform="translate(-9,16.5)" style="font: 11px sans-serif; fill: #000; opacity: 1;">3</text><text text-anchor="end" transform="translate(-9,41.5)" style="font: 11px sans-serif; fill: #000; opacity: 1;">4</text><text text-anchor="end" transform="translate(-9,66.5)" style="font: 11px sans-serif; fill: #000; opacity: 1;">5</text><text text-anchor="end" transform="translate(-9,91.5)" style="font: 11px sans-serif; fill: #000; opacity: 1;">6</text><text text-anchor="end" transform="translate(-9,116.5)" style="font: 11px sans-serif; fill: #000; opacity: 1;">8</text></g><g class="mark-path" style="pointer-events: none;"><path transform="translate(0.5,0.5)" d="M-6,0H0V126H-6" style="fill: none; stroke: #000; stroke-width: 1;"></path></g><g class="mark-text"><text text-anchor="middle" transform="translate(-30,63) rotate(-90) translate(0,3)" style="font: bold 11px sans-serif; fill: #000;">Cylinders</text></g></g></g><g class="mark-rect marks"><rect transform="translate(107.5,106)" width="1" height="14" style="fill: #4682b4; opacity: 0.7;"></rect><rect transform="translate(137.5,106)" width="1" height="14" style="fill: #4682b4; opacity: 0.7;"></rect><rect transform="translate(124.5,106)" width="1" height="14" style="fill: #4682b4; opacity: 0.7;"></rect><rect transform="translate(124.5,106)" width="1" height="14" style="fill: #4682b4; opacity: 0.7;"></rect><rect transform="translate(116.5,106)" width="1" height="14" style="fill: #4682b4; opacity: 0.7;"></rect><rect transform="translate(164.5,106)" width="1" height="14" style="fill: #4682b4; opacity: 0.7;"></rect><rect transform="translate(182.5,106)" width="1" height="14" style="fill: #4682b4; opacity: 0.7;"></rect><rect transform="translate(178.5,106)" width="1" height="14" style="fill: #4682b4; opacity: 0.7;"></rect><rect transform="translate(187.5,106)" width="1" height="14" style="fill: #4682b4; opacity: 0.7;"></rect><rect transform="translate(157.5,106)" width="1" height="14" style="fill: #4682b4; opacity: 0.7;"></rect><rect transform="translate(95.5,31)" width="1" height="14" style="fill: #4682b4; opacity: 0.7;"></rect><rect transform="translate(137.5,106)" width="1" height="14" style="fill: #4682b4; opacity: 0.7;"></rect><rect transform="translate(126.5,106)" width="1" height="14" style="fill: #4682b4; opacity: 0.7;"></rect><rect transform="translate(145.5,106)" width="1" height="14" style="fill: #4682b4; opacity: 0.7;"></rect><rect transform="translate(145.5,106)" width="1" height="14" style="fill: #4682b4; opacity: 0.7;"></rect><rect transform="translate(141.5,106)" width="1" height="14" style="fill: #4682b4; opacity: 0.7;"></rect><rect transform="translate(132.5,106)" width="1" height="14" style="fill: #4682b4; opacity: 0.7;"></rect><rect transform="translate(116.5,106)" width="1" height="14" style="fill: #4682b4; opacity: 0.7;"></rect><rect transform="translate(124.5,106)" width="1" height="14" style="fill: #4682b4; opacity: 0.7;"></rect><rect transform="translate(187.5,106)" width="1" height="14" style="fill: #4682b4; opacity: 0.7;"></rect><rect transform="translate(78.5,31)" width="1" height="14" style="fill: #4682b4; opacity: 0.7;"></rect><rect transform="translate(78.5,81)" width="1" height="14" style="fill: #4682b4; opacity: 0.7;"></rect><rect transform="translate(80.5,81)" width="1" height="14" style="fill: #4682b4; opacity: 0.7;"></rect><rect transform="translate(70.5,81)" width="1" height="14" style="fill: #4682b4; opacity: 0.7;"></rect><rect transform="translate(72.5,31)" width="1" height="14" style="fill: #4682b4; opacity: 0.7;"></rect><rect transform="translate(37.5,31)" width="1" height="14" style="fill: #4682b4; opacity: 0.7;"></rect><rect transform="translate(72.5,31)" width="1" height="14" style="fill: #4682b4; opacity: 0.7;"></rect><rect transform="translate(74.5,31)" width="1" height="14" style="fill: #4682b4; opacity: 0.7;"></rect><rect transform="translate(78.5,31)" width="1" height="14" style="fill: #4682b4; opacity: 0.7;"></rect><rect transform="translate(93.5,31)" width="1" height="14" style="fill: #4682b4; opacity: 0.7;"></rect><rect transform="translate(74.5,81)" width="1" height="14" style="fill: #4682b4; opacity: 0.7;"></rect><rect transform="translate(178.5,106)" width="1" height="14" style="fill: #4682b4; opacity: 0.7;"></rect><rect transform="translate(166.5,106)" width="1" height="14" style="fill: #4682b4; opacity: 0.7;"></rect><rect transform="translate(174.5,106)" width="1" height="14" style="fill: #4682b4; opacity: 0.7;"></rect><rect transform="translate(160.5,106)" width="1" height="14" style="fill: #4682b4; opacity: 0.7;"></rect><rect transform="translate(72.5,31)" width="1" height="14" style="fill: #4682b4; opacity: 0.7;"></rect><rect transform="translate(74.5,31)" width="1" height="14" style="fill: #4682b4; opacity: 0.7;"></rect><rect transform="translate(78.5,31)" width="1" height="14" style="fill: #4682b4; opacity: 0.7;"></rect><rect transform="translate(39.5,31)" width="1" height="14" style="fill: #4682b4; opacity: 0.7;"></rect><rect transform="translate(82.5,81)" width="1" height="14" style="fill: #4682b4; opacity: 0.7;"></rect><rect transform="translate(87.5,81)" width="1" height="14" style="fill: #4682b4; opacity: 0.7;"></rect><rect transform="translate(82.5,81)" width="1" height="14" style="fill: #4682b4; opacity: 0.7;"></rect><rect transform="translate(72.5,81)" width="1" height="14" style="fill: #4682b4; opacity: 0.7;"></rect><rect transform="translate(82.5,81)" width="1" height="14" style="fill: #4682b4; opacity: 0.7;"></rect><rect transform="translate(137.5,106)" width="1" height="14" style="fill: #4682b4; opacity: 0.7;"></rect><rect transform="translate(145.5,106)" width="1" height="14" style="fill: #4682b4; opacity: 0.7;"></rect><rect transform="translate(126.5,106)" width="1" height="14" style="fill: #4682b4; opacity: 0.7;"></rect><rect transform="translate(124.5,106)" width="1" height="14" style="fill: #4682b4; opacity: 0.7;"></rect><rect transform="translate(149.5,106)" width="1" height="14" style="fill: #4682b4; opacity: 0.7;"></rect><rect transform="translate(141.5,106)" width="1" height="14" style="fill: #4682b4; opacity: 0.7;"></rect><rect transform="translate(145.5,106)" width="1" height="14" style="fill: #4682b4; opacity: 0.7;"></rect><rect transform="translate(91.5,81)" width="1" height="14" style="fill: #4682b4; opacity: 0.7;"></rect><rect transform="translate(59.5,31)" width="1" height="14" style="fill: #4682b4; opacity: 0.7;"></rect><rect transform="translate(82.5,81)" width="1" height="14" style="fill: #4682b4; opacity: 0.7;"></rect><rect transform="translate(72.5,81)" width="1" height="14" style="fill: #4682b4; opacity: 0.7;"></rect><rect transform="translate(71.5,31)" width="1" height="14" style="fill: #4682b4; opacity: 0.7;"></rect><rect transform="translate(74.5,31)" width="1" height="14" style="fill: #4682b4; opacity: 0.7;"></rect><rect transform="translate(57.5,31)" width="1" height="14" style="fill: #4682b4; opacity: 0.7;"></rect><rect transform="translate(62.5,31)" width="1" height="14" style="fill: #4682b4; opacity: 0.7;"></rect><rect transform="translate(53.5,31)" width="1" height="14" style="fill: #4682b4; opacity: 0.7;"></rect><rect transform="translate(56.5,31)" width="1" height="14" style="fill: #4682b4; opacity: 0.7;"></rect><rect transform="translate(49.5,31)" width="1" height="14" style="fill: #4682b4; opacity: 0.7;"></rect><rect transform="translate(57.5,31)" width="1" height="14" style="fill: #4682b4; opacity: 0.7;"></rect><rect transform="translate(78.5,31)" width="1" height="14" style="fill: #4682b4; opacity: 0.7;"></rect><rect transform="translate(66.5,31)" width="1" height="14" style="fill: #4682b4; opacity: 0.7;"></rect><rect transform="translate(44.5,31)" width="1" height="14" style="fill: #4682b4; opacity: 0.7;"></rect><rect transform="translate(74.5,31)" width="1" height="14" style="fill: #4682b4; opacity: 0.7;"></rect><rect transform="translate(71.5,31)" width="1" height="14" style="fill: #4682b4; opacity: 0.7;"></rect><rect transform="translate(137.5,106)" width="1" height="14" style="fill: #4682b4; opacity: 0.7;"></rect><rect transform="translate(145.5,106)" width="1" height="14" style="fill: #4682b4; opacity: 0.7;"></rect><rect transform="translate(124.5,106)" width="1" height="14" style="fill: #4682b4; opacity: 0.7;"></rect><rect transform="translate(126.5,106)" width="1" height="14" style="fill: #4682b4; opacity: 0.7;"></rect><rect transform="translate(124.5,106)" width="1" height="14" style="fill: #4682b4; opacity: 0.7;"></rect><rect transform="translate(172.5,106)" width="1" height="14" style="fill: #4682b4; opacity: 0.7;"></rect><rect transform="translate(128.5,106)" width="1" height="14" style="fill: #4682b4; opacity: 0.7;"></rect><rect transform="translate(132.5,106)" width="1" height="14" style="fill: #4682b4; opacity: 0.7;"></rect><rect transform="translate(157.5,106)" width="1" height="14" style="fill: #4682b4; opacity: 0.7;"></rect><rect transform="translate(80.5,6)" width="1" height="14" style="fill: #4682b4; opacity: 0.7;"></rect><rect transform="translate(124.5,106)" width="1" height="14" style="fill: #4682b4; opacity: 0.7;"></rect><rect transform="translate(107.5,106)" width="1" height="14" style="fill: #4682b4; opacity: 0.7;"></rect><rect transform="translate(116.5,106)" width="1" height="14" style="fill: #4682b4; opacity: 0.7;"></rect><rect transform="translate(124.5,106)" width="1" height="14" style="fill: #4682b4; opacity: 0.7;"></rect><rect transform="translate(92.5,31)" width="1" height="14" style="fill: #4682b4; opacity: 0.7;"></rect><rect transform="translate(62.5,31)" width="1" height="14" style="fill: #4682b4; opacity: 0.7;"></rect><rect transform="translate(72.5,31)" width="1" height="14" style="fill: #4682b4; opacity: 0.7;"></rect><rect transform="translate(56.5,31)" width="1" height="14" style="fill: #4682b4; opacity: 0.7;"></rect><rect transform="translate(71.5,31)" width="1" height="14" style="fill: #4682b4; opacity: 0.7;"></rect><rect transform="translate(76.5,31)" width="1" height="14" style="fill: #4682b4; opacity: 0.7;"></rect><rect transform="translate(80.5,31)" width="1" height="14" style="fill: #4682b4; opacity: 0.7;"></rect><rect transform="translate(66.5,31)" width="1" height="14" style="fill: #4682b4; opacity: 0.7;"></rect><rect transform="translate(72.5,31)" width="1" height="14" style="fill: #4682b4; opacity: 0.7;"></rect><rect transform="translate(145.5,106)" width="1" height="14" style="fill: #4682b4; opacity: 0.7;"></rect><rect transform="translate(124.5,106)" width="1" height="14" style="fill: #4682b4; opacity: 0.7;"></rect><rect transform="translate(120.5,106)" width="1" height="14" style="fill: #4682b4; opacity: 0.7;"></rect><rect transform="translate(113.5,106)" width="1" height="14" style="fill: #4682b4; opacity: 0.7;"></rect><rect transform="translate(124.5,106)" width="1" height="14" style="fill: #4682b4; opacity: 0.7;"></rect><rect transform="translate(164.5,106)" width="1" height="14" style="fill: #4682b4; opacity: 0.7;"></rect><rect transform="translate(124.5,106)" width="1" height="14" style="fill: #4682b4; opacity: 0.7;"></rect><rect transform="translate(131.5,106)" width="1" height="14" style="fill: #4682b4; opacity: 0.7;"></rect><rect transform="translate(124.5,106)" width="1" height="14" style="fill: #4682b4; opacity: 0.7;"></rect><rect transform="translate(178.5,106)" width="1" height="14" style="fill: #4682b4; opacity: 0.7;"></rect><rect transform="translate(187.5,106)" width="1" height="14" style="fill: #4682b4; opacity: 0.7;"></rect><rect transform="translate(145.5,106)" width="1" height="14" style="fill: #4682b4; opacity: 0.7;"></rect><rect transform="translate(87.5,81)" width="1" height="14" style="fill: #4682b4; opacity: 0.7;"></rect><rect transform="translate(82.5,81)" width="1" height="14" style="fill: #4682b4; opacity: 0.7;"></rect><rect transform="translate(82.5,81)" width="1" height="14" style="fill: #4682b4; opacity: 0.7;"></rect><rect transform="translate(72.5,81)" width="1" height="14" style="fill: #4682b4; opacity: 0.7;"></rect><rect transform="translate(78.5,81)" width="1" height="14" style="fill: #4682b4; opacity: 0.7;"></rect><rect transform="translate(37.5,31)" width="1" height="14" style="fill: #4682b4; opacity: 0.7;"></rect><rect transform="translate(124.5,106)" width="1" height="14" style="fill: #4682b4; opacity: 0.7;"></rect><rect transform="translate(138.5,106)" width="1" height="14" style="fill: #4682b4; opacity: 0.7;"></rect><rect transform="translate(141.5,106)" width="1" height="14" style="fill: #4682b4; opacity: 0.7;"></rect><rect transform="translate(149.5,106)" width="1" height="14" style="fill: #4682b4; opacity: 0.7;"></rect><rect transform="translate(82.5,81)" width="1" height="14" style="fill: #4682b4; opacity: 0.7;"></rect><rect transform="translate(72.5,31)" width="1" height="14" style="fill: #4682b4; opacity: 0.7;"></rect><rect transform="translate(59.5,31)" width="1" height="14" style="fill: #4682b4; opacity: 0.7;"></rect><rect transform="translate(77.5,31)" width="1" height="14" style="fill: #4682b4; opacity: 0.7;"></rect><rect transform="translate(74.5,6)" width="1" height="14" style="fill: #4682b4; opacity: 0.7;"></rect><rect transform="translate(70.5,31)" width="1" height="14" style="fill: #4682b4; opacity: 0.7;"></rect><rect transform="translate(88.5,81)" width="1" height="14" style="fill: #4682b4; opacity: 0.7;"></rect><rect transform="translate(74.5,31)" width="1" height="14" style="fill: #4682b4; opacity: 0.7;"></rect><rect transform="translate(120.5,106)" width="1" height="14" style="fill: #4682b4; opacity: 0.7;"></rect><rect transform="translate(191.5,106)" width="1" height="14" style="fill: #4682b4; opacity: 0.7;"></rect><rect transform="translate(40.5,31)" width="1" height="14" style="fill: #4682b4; opacity: 0.7;"></rect><rect transform="translate(62.5,31)" width="1" height="14" style="fill: #4682b4; opacity: 0.7;"></rect><rect transform="translate(75.5,31)" width="1" height="14" style="fill: #4682b4; opacity: 0.7;"></rect><rect transform="translate(92.5,31)" width="1" height="14" style="fill: #4682b4; opacity: 0.7;"></rect><rect transform="translate(124.5,106)" width="1" height="14" style="fill: #4682b4; opacity: 0.7;"></rect><rect transform="translate(91.5,31)" width="1" height="14" style="fill: #4682b4; opacity: 0.7;"></rect><rect transform="translate(101.5,81)" width="1" height="14" style="fill: #4682b4; opacity: 0.7;"></rect><rect transform="translate(149.5,106)" width="1" height="14" style="fill: #4682b4; opacity: 0.7;"></rect><rect transform="translate(78.5,81)" width="1" height="14" style="fill: #4682b4; opacity: 0.7;"></rect><rect transform="translate(82.5,81)" width="1" height="14" style="fill: #4682b4; opacity: 0.7;"></rect><rect transform="translate(82.5,81)" width="1" height="14" style="fill: #4682b4; opacity: 0.7;"></rect><rect transform="translate(55.5,31)" width="1" height="14" style="fill: #4682b4; opacity: 0.7;"></rect><rect transform="translate(66.5,31)" width="1" height="14" style="fill: #4682b4; opacity: 0.7;"></rect><rect transform="translate(53.5,31)" width="1" height="14" style="fill: #4682b4; opacity: 0.7;"></rect><rect transform="translate(62.5,31)" width="1" height="14" style="fill: #4682b4; opacity: 0.7;"></rect><rect transform="translate(82.5,81)" width="1" height="14" style="fill: #4682b4; opacity: 0.7;"></rect><rect transform="translate(91.5,81)" width="1" height="14" style="fill: #4682b4; opacity: 0.7;"></rect><rect transform="translate(87.5,81)" width="1" height="14" style="fill: #4682b4; opacity: 0.7;"></rect><rect transform="translate(116.5,106)" width="1" height="14" style="fill: #4682b4; opacity: 0.7;"></rect><rect transform="translate(124.5,106)" width="1" height="14" style="fill: #4682b4; opacity: 0.7;"></rect><rect transform="translate(124.5,106)" width="1" height="14" style="fill: #4682b4; opacity: 0.7;"></rect><rect transform="translate(116.5,106)" width="1" height="14" style="fill: #4682b4; opacity: 0.7;"></rect><rect transform="translate(124.5,106)" width="1" height="14" style="fill: #4682b4; opacity: 0.7;"></rect><rect transform="translate(68.5,31)" width="1" height="14" style="fill: #4682b4; opacity: 0.7;"></rect><rect transform="translate(55.5,31)" width="1" height="14" style="fill: #4682b4; opacity: 0.7;"></rect><rect transform="translate(64.5,31)" width="1" height="14" style="fill: #4682b4; opacity: 0.7;"></rect><rect transform="translate(42.5,31)" width="1" height="14" style="fill: #4682b4; opacity: 0.7;"></rect><rect transform="translate(50.5,31)" width="1" height="14" style="fill: #4682b4; opacity: 0.7;"></rect><rect transform="translate(62.5,31)" width="1" height="14" style="fill: #4682b4; opacity: 0.7;"></rect><rect transform="translate(62.5,31)" width="1" height="14" style="fill: #4682b4; opacity: 0.7;"></rect><rect transform="translate(62.5,31)" width="1" height="14" style="fill: #4682b4; opacity: 0.7;"></rect><rect transform="translate(80.5,31)" width="1" height="14" style="fill: #4682b4; opacity: 0.7;"></rect><rect transform="translate(77.5,31)" width="1" height="14" style="fill: #4682b4; opacity: 0.7;"></rect><rect transform="translate(55.5,31)" width="1" height="14" style="fill: #4682b4; opacity: 0.7;"></rect><rect transform="translate(78.5,81)" width="1" height="14" style="fill: #4682b4; opacity: 0.7;"></rect><rect transform="translate(87.5,81)" width="1" height="14" style="fill: #4682b4; opacity: 0.7;"></rect><rect transform="translate(59.5,81)" width="1" height="14" style="fill: #4682b4; opacity: 0.7;"></rect><rect transform="translate(59.5,81)" width="1" height="14" style="fill: #4682b4; opacity: 0.7;"></rect><rect transform="translate(141.5,106)" width="1" height="14" style="fill: #4682b4; opacity: 0.7;"></rect><rect transform="translate(120.5,106)" width="1" height="14" style="fill: #4682b4; opacity: 0.7;"></rect><rect transform="translate(124.5,106)" width="1" height="14" style="fill: #4682b4; opacity: 0.7;"></rect><rect transform="translate(122.5,106)" width="1" height="14" style="fill: #4682b4; opacity: 0.7;"></rect><rect transform="translate(91.5,81)" width="1" height="14" style="fill: #4682b4; opacity: 0.7;"></rect><rect transform="translate(87.5,81)" width="1" height="14" style="fill: #4682b4; opacity: 0.7;"></rect><rect transform="translate(91.5,81)" width="1" height="14" style="fill: #4682b4; opacity: 0.7;"></rect><rect transform="translate(78.5,81)" width="1" height="14" style="fill: #4682b4; opacity: 0.7;"></rect><rect transform="translate(91.5,81)" width="1" height="14" style="fill: #4682b4; opacity: 0.7;"></rect><rect transform="translate(91.5,106)" width="1" height="14" style="fill: #4682b4; opacity: 0.7;"></rect><rect transform="translate(107.5,106)" width="1" height="14" style="fill: #4682b4; opacity: 0.7;"></rect><rect transform="translate(62.5,31)" width="1" height="14" style="fill: #4682b4; opacity: 0.7;"></rect><rect transform="translate(68.5,31)" width="1" height="14" style="fill: #4682b4; opacity: 0.7;"></rect><rect transform="translate(82.5,81)" width="1" height="14" style="fill: #4682b4; opacity: 0.7;"></rect><rect transform="translate(64.5,31)" width="1" height="14" style="fill: #4682b4; opacity: 0.7;"></rect><rect transform="translate(79.5,31)" width="1" height="14" style="fill: #4682b4; opacity: 0.7;"></rect><rect transform="translate(58.5,31)" width="1" height="14" style="fill: #4682b4; opacity: 0.7;"></rect><rect transform="translate(80.5,31)" width="1" height="14" style="fill: #4682b4; opacity: 0.7;"></rect><rect transform="translate(80.5,81)" width="1" height="14" style="fill: #4682b4; opacity: 0.7;"></rect><rect transform="translate(57.5,31)" width="1" height="14" style="fill: #4682b4; opacity: 0.7;"></rect><rect transform="translate(74.5,81)" width="1" height="14" style="fill: #4682b4; opacity: 0.7;"></rect><rect transform="translate(78.5,31)" width="1" height="14" style="fill: #4682b4; opacity: 0.7;"></rect><rect transform="translate(72.5,31)" width="1" height="14" style="fill: #4682b4; opacity: 0.7;"></rect><rect transform="translate(81.5,31)" width="1" height="14" style="fill: #4682b4; opacity: 0.7;"></rect><rect transform="translate(95.5,31)" width="1" height="14" style="fill: #4682b4; opacity: 0.7;"></rect><rect transform="translate(43.5,31)" width="1" height="14" style="fill: #4682b4; opacity: 0.7;"></rect><rect transform="translate(71.5,31)" width="1" height="14" style="fill: #4682b4; opacity: 0.7;"></rect><rect transform="translate(67.5,31)" width="1" height="14" style="fill: #4682b4; opacity: 0.7;"></rect><rect transform="translate(76.5,31)" width="1" height="14" style="fill: #4682b4; opacity: 0.7;"></rect><rect transform="translate(65.5,31)" width="1" height="14" style="fill: #4682b4; opacity: 0.7;"></rect><rect transform="translate(68.5,31)" width="1" height="14" style="fill: #4682b4; opacity: 0.7;"></rect><rect transform="translate(116.5,106)" width="1" height="14" style="fill: #4682b4; opacity: 0.7;"></rect><rect transform="translate(124.5,106)" width="1" height="14" style="fill: #4682b4; opacity: 0.7;"></rect><rect transform="translate(99.5,106)" width="1" height="14" style="fill: #4682b4; opacity: 0.7;"></rect><rect transform="translate(126.5,106)" width="1" height="14" style="fill: #4682b4; opacity: 0.7;"></rect><rect transform="translate(82.5,81)" width="1" height="14" style="fill: #4682b4; opacity: 0.7;"></rect><rect transform="translate(87.5,81)" width="1" height="14" style="fill: #4682b4; opacity: 0.7;"></rect><rect transform="translate(67.5,81)" width="1" height="14" style="fill: #4682b4; opacity: 0.7;"></rect><rect transform="translate(74.5,81)" width="1" height="14" style="fill: #4682b4; opacity: 0.7;"></rect><rect transform="translate(42.5,31)" width="1" height="14" style="fill: #4682b4; opacity: 0.7;"></rect><rect transform="translate(49.5,31)" width="1" height="14" style="fill: #4682b4; opacity: 0.7;"></rect><rect transform="translate(57.5,31)" width="1" height="14" style="fill: #4682b4; opacity: 0.7;"></rect><rect transform="translate(43.5,31)" width="1" height="14" style="fill: #4682b4; opacity: 0.7;"></rect><rect transform="translate(82.5,81)" width="1" height="14" style="fill: #4682b4; opacity: 0.7;"></rect><rect transform="translate(64.5,81)" width="1" height="14" style="fill: #4682b4; opacity: 0.7;"></rect><rect transform="translate(91.5,81)" width="1" height="14" style="fill: #4682b4; opacity: 0.7;"></rect><rect transform="translate(78.5,81)" width="1" height="14" style="fill: #4682b4; opacity: 0.7;"></rect><rect transform="translate(58.5,31)" width="1" height="14" style="fill: #4682b4; opacity: 0.7;"></rect><rect transform="translate(57.5,31)" width="1" height="14" style="fill: #4682b4; opacity: 0.7;"></rect><rect transform="translate(62.5,31)" width="1" height="14" style="fill: #4682b4; opacity: 0.7;"></rect><rect transform="translate(59.5,31)" width="1" height="14" style="fill: #4682b4; opacity: 0.7;"></rect><rect transform="translate(84.5,31)" width="1" height="14" style="fill: #4682b4; opacity: 0.7;"></rect><rect transform="translate(124.5,106)" width="1" height="14" style="fill: #4682b4; opacity: 0.7;"></rect><rect transform="translate(72.5,31)" width="1" height="14" style="fill: #4682b4; opacity: 0.7;"></rect><rect transform="translate(89.5,81)" width="1" height="14" style="fill: #4682b4; opacity: 0.7;"></rect><rect transform="translate(99.5,81)" width="1" height="14" style="fill: #4682b4; opacity: 0.7;"></rect><rect transform="translate(149.5,106)" width="1" height="14" style="fill: #4682b4; opacity: 0.7;"></rect><rect transform="translate(120.5,106)" width="1" height="14" style="fill: #4682b4; opacity: 0.7;"></rect><rect transform="translate(107.5,106)" width="1" height="14" style="fill: #4682b4; opacity: 0.7;"></rect><rect transform="translate(124.5,106)" width="1" height="14" style="fill: #4682b4; opacity: 0.7;"></rect><rect transform="translate(56.5,31)" width="1" height="14" style="fill: #4682b4; opacity: 0.7;"></rect><rect transform="translate(66.5,31)" width="1" height="14" style="fill: #4682b4; opacity: 0.7;"></rect><rect transform="translate(47.5,31)" width="1" height="14" style="fill: #4682b4; opacity: 0.7;"></rect><rect transform="translate(79.5,31)" width="1" height="14" style="fill: #4682b4; opacity: 0.7;"></rect><rect transform="translate(57.5,31)" width="1" height="14" style="fill: #4682b4; opacity: 0.7;"></rect><rect transform="translate(120.5,106)" width="1" height="14" style="fill: #4682b4; opacity: 0.7;"></rect><rect transform="translate(91.5,106)" width="1" height="14" style="fill: #4682b4; opacity: 0.7;"></rect><rect transform="translate(120.5,106)" width="1" height="14" style="fill: #4682b4; opacity: 0.7;"></rect><rect transform="translate(107.5,106)" width="1" height="14" style="fill: #4682b4; opacity: 0.7;"></rect><rect transform="translate(91.5,81)" width="1" height="14" style="fill: #4682b4; opacity: 0.7;"></rect><rect transform="translate(87.5,81)" width="1" height="14" style="fill: #4682b4; opacity: 0.7;"></rect><rect transform="translate(82.5,81)" width="1" height="14" style="fill: #4682b4; opacity: 0.7;"></rect><rect transform="translate(81.5,81)" width="1" height="14" style="fill: #4682b4; opacity: 0.7;"></rect><rect transform="translate(149.5,106)" width="1" height="14" style="fill: #4682b4; opacity: 0.7;"></rect><rect transform="translate(141.5,106)" width="1" height="14" style="fill: #4682b4; opacity: 0.7;"></rect><rect transform="translate(157.5,106)" width="1" height="14" style="fill: #4682b4; opacity: 0.7;"></rect><rect transform="translate(123.5,106)" width="1" height="14" style="fill: #4682b4; opacity: 0.7;"></rect><rect transform="translate(64.5,31)" width="1" height="14" style="fill: #4682b4; opacity: 0.7;"></rect><rect transform="translate(72.5,31)" width="1" height="14" style="fill: #4682b4; opacity: 0.7;"></rect><rect transform="translate(62.5,31)" width="1" height="14" style="fill: #4682b4; opacity: 0.7;"></rect><rect transform="translate(73.5,31)" width="1" height="14" style="fill: #4682b4; opacity: 0.7;"></rect><rect transform="translate(52.5,31)" width="1" height="14" style="fill: #4682b4; opacity: 0.7;"></rect><rect transform="translate(68.5,31)" width="1" height="14" style="fill: #4682b4; opacity: 0.7;"></rect><rect transform="translate(55.5,31)" width="1" height="14" style="fill: #4682b4; opacity: 0.7;"></rect><rect transform="translate(64.5,31)" width="1" height="14" style="fill: #4682b4; opacity: 0.7;"></rect><rect transform="translate(80.5,81)" width="1" height="14" style="fill: #4682b4; opacity: 0.7;"></rect><rect transform="translate(91.5,31)" width="1" height="14" style="fill: #4682b4; opacity: 0.7;"></rect><rect transform="translate(91.5,6)" width="1" height="14" style="fill: #4682b4; opacity: 0.7;"></rect><rect transform="translate(39.5,31)" width="1" height="14" style="fill: #4682b4; opacity: 0.7;"></rect><rect transform="translate(54.5,31)" width="1" height="14" style="fill: #4682b4; opacity: 0.7;"></rect><rect transform="translate(42.5,31)" width="1" height="14" style="fill: #4682b4; opacity: 0.7;"></rect><rect transform="translate(57.5,31)" width="1" height="14" style="fill: #4682b4; opacity: 0.7;"></rect><rect transform="translate(49.5,31)" width="1" height="14" style="fill: #4682b4; opacity: 0.7;"></rect><rect transform="translate(91.5,106)" width="1" height="14" style="fill: #4682b4; opacity: 0.7;"></rect><rect transform="translate(116.5,106)" width="1" height="14" style="fill: #4682b4; opacity: 0.7;"></rect><rect transform="translate(115.5,106)" width="1" height="14" style="fill: #4682b4; opacity: 0.7;"></rect><rect transform="translate(87.5,81)" width="1" height="14" style="fill: #4682b4; opacity: 0.7;"></rect><rect transform="translate(78.5,81)" width="1" height="14" style="fill: #4682b4; opacity: 0.7;"></rect><rect transform="translate(70.5,81)" width="1" height="14" style="fill: #4682b4; opacity: 0.7;"></rect><rect transform="translate(72.5,31)" width="1" height="14" style="fill: #4682b4; opacity: 0.7;"></rect><rect transform="translate(82.5,81)" width="1" height="14" style="fill: #4682b4; opacity: 0.7;"></rect><rect transform="translate(74.5,81)" width="1" height="14" style="fill: #4682b4; opacity: 0.7;"></rect><rect transform="translate(87.5,81)" width="1" height="14" style="fill: #4682b4; opacity: 0.7;"></rect><rect transform="translate(70.5,81)" width="1" height="14" style="fill: #4682b4; opacity: 0.7;"></rect><rect transform="translate(91.5,81)" width="1" height="14" style="fill: #4682b4; opacity: 0.7;"></rect><rect transform="translate(99.5,81)" width="1" height="14" style="fill: #4682b4; opacity: 0.7;"></rect><rect transform="translate(120.5,106)" width="1" height="14" style="fill: #4682b4; opacity: 0.7;"></rect><rect transform="translate(137.5,81)" width="1" height="14" style="fill: #4682b4; opacity: 0.7;"></rect><rect transform="translate(115.5,106)" width="1" height="14" style="fill: #4682b4; opacity: 0.7;"></rect><rect transform="translate(116.5,106)" width="1" height="14" style="fill: #4682b4; opacity: 0.7;"></rect><rect transform="translate(56.5,31)" width="1" height="14" style="fill: #4682b4; opacity: 0.7;"></rect><rect transform="translate(78.5,31)" width="1" height="14" style="fill: #4682b4; opacity: 0.7;"></rect><rect transform="translate(80.5,31)" width="1" height="14" style="fill: #4682b4; opacity: 0.7;"></rect><rect transform="translate(62.5,31)" width="1" height="14" style="fill: #4682b4; opacity: 0.7;"></rect><rect transform="translate(78.5,31)" width="1" height="14" style="fill: #4682b4; opacity: 0.7;"></rect><rect transform="translate(87.5,31)" width="1" height="14" style="fill: #4682b4; opacity: 0.7;"></rect><rect transform="translate(70.5,31)" width="1" height="14" style="fill: #4682b4; opacity: 0.7;"></rect><rect transform="translate(80.5,31)" width="1" height="14" style="fill: #4682b4; opacity: 0.7;"></rect><rect transform="translate(85.5,56)" width="1" height="14" style="fill: #4682b4; opacity: 0.7;"></rect><rect transform="translate(103.5,81)" width="1" height="14" style="fill: #4682b4; opacity: 0.7;"></rect><rect transform="translate(95.5,31)" width="1" height="14" style="fill: #4682b4; opacity: 0.7;"></rect><rect transform="translate(110.5,81)" width="1" height="14" style="fill: #4682b4; opacity: 0.7;"></rect><rect transform="translate(58.5,31)" width="1" height="14" style="fill: #4682b4; opacity: 0.7;"></rect><rect transform="translate(56.5,31)" width="1" height="14" style="fill: #4682b4; opacity: 0.7;"></rect><rect transform="translate(95.5,81)" width="1" height="14" style="fill: #4682b4; opacity: 0.7;"></rect><rect transform="translate(70.5,81)" width="1" height="14" style="fill: #4682b4; opacity: 0.7;"></rect><rect transform="translate(72.5,31)" width="1" height="14" style="fill: #4682b4; opacity: 0.7;"></rect><rect transform="translate(74.5,81)" width="1" height="14" style="fill: #4682b4; opacity: 0.7;"></rect><rect transform="translate(91.5,81)" width="1" height="14" style="fill: #4682b4; opacity: 0.7;"></rect><rect transform="translate(107.5,106)" width="1" height="14" style="fill: #4682b4; opacity: 0.7;"></rect><rect transform="translate(107.5,106)" width="1" height="14" style="fill: #4682b4; opacity: 0.7;"></rect><rect transform="translate(114.5,106)" width="1" height="14" style="fill: #4682b4; opacity: 0.7;"></rect><rect transform="translate(112.5,106)" width="1" height="14" style="fill: #4682b4; opacity: 0.7;"></rect><rect transform="translate(128.5,106)" width="1" height="14" style="fill: #4682b4; opacity: 0.7;"></rect><rect transform="translate(117.5,106)" width="1" height="14" style="fill: #4682b4; opacity: 0.7;"></rect><rect transform="translate(103.5,106)" width="1" height="14" style="fill: #4682b4; opacity: 0.7;"></rect><rect transform="translate(124.5,106)" width="1" height="14" style="fill: #4682b4; opacity: 0.7;"></rect><rect transform="translate(58.5,31)" width="1" height="14" style="fill: #4682b4; opacity: 0.7;"></rect><rect transform="translate(53.5,31)" width="1" height="14" style="fill: #4682b4; opacity: 0.7;"></rect><rect transform="translate(66.5,31)" width="1" height="14" style="fill: #4682b4; opacity: 0.7;"></rect><rect transform="translate(66.5,31)" width="1" height="14" style="fill: #4682b4; opacity: 0.7;"></rect><rect transform="translate(63.5,56)" width="1" height="14" style="fill: #4682b4; opacity: 0.7;"></rect><rect transform="translate(103.5,106)" width="1" height="14" style="fill: #4682b4; opacity: 0.7;"></rect><rect transform="translate(58.5,31)" width="1" height="14" style="fill: #4682b4; opacity: 0.7;"></rect><rect transform="translate(74.5,106)" width="1" height="14" style="fill: #4682b4; opacity: 0.7;"></rect><rect transform="translate(57.5,31)" width="1" height="14" style="fill: #4682b4; opacity: 0.7;"></rect><rect transform="translate(57.5,31)" width="1" height="14" style="fill: #4682b4; opacity: 0.7;"></rect><rect transform="translate(53.5,31)" width="1" height="14" style="fill: #4682b4; opacity: 0.7;"></rect><rect transform="translate(56.5,31)" width="1" height="14" style="fill: #4682b4; opacity: 0.7;"></rect><rect transform="translate(74.5,31)" width="1" height="14" style="fill: #4682b4; opacity: 0.7;"></rect><rect transform="translate(95.5,81)" width="1" height="14" style="fill: #4682b4; opacity: 0.7;"></rect><rect transform="translate(95.5,81)" width="1" height="14" style="fill: #4682b4; opacity: 0.7;"></rect><rect transform="translate(74.5,31)" width="1" height="14" style="fill: #4682b4; opacity: 0.7;"></rect><rect transform="translate(62.5,31)" width="1" height="14" style="fill: #4682b4; opacity: 0.7;"></rect><rect transform="translate(49.5,31)" width="1" height="14" style="fill: #4682b4; opacity: 0.7;"></rect><rect transform="translate(57.5,31)" width="1" height="14" style="fill: #4682b4; opacity: 0.7;"></rect><rect transform="translate(53.5,31)" width="1" height="14" style="fill: #4682b4; opacity: 0.7;"></rect><rect transform="translate(74.5,31)" width="1" height="14" style="fill: #4682b4; opacity: 0.7;"></rect><rect transform="translate(72.5,31)" width="1" height="14" style="fill: #4682b4; opacity: 0.7;"></rect><rect transform="translate(74.5,31)" width="1" height="14" style="fill: #4682b4; opacity: 0.7;"></rect><rect transform="translate(74.5,81)" width="1" height="14" style="fill: #4682b4; opacity: 0.7;"></rect><rect transform="translate(64.5,31)" width="1" height="14" style="fill: #4682b4; opacity: 0.7;"></rect><rect transform="translate(74.5,31)" width="1" height="14" style="fill: #4682b4; opacity: 0.7;"></rect><rect transform="translate(62.5,31)" width="1" height="14" style="fill: #4682b4; opacity: 0.7;"></rect><rect transform="translate(76.5,31)" width="1" height="14" style="fill: #4682b4; opacity: 0.7;"></rect><rect transform="translate(62.5,31)" width="1" height="14" style="fill: #4682b4; opacity: 0.7;"></rect><rect transform="translate(53.5,31)" width="1" height="14" style="fill: #4682b4; opacity: 0.7;"></rect><rect transform="translate(87.5,31)" width="1" height="14" style="fill: #4682b4; opacity: 0.7;"></rect><rect transform="translate(53.5,31)" width="1" height="14" style="fill: #4682b4; opacity: 0.7;"></rect><rect transform="translate(39.5,31)" width="1" height="14" style="fill: #4682b4; opacity: 0.7;"></rect><rect transform="translate(39.5,31)" width="1" height="14" style="fill: #4682b4; opacity: 0.7;"></rect><rect transform="translate(55.5,56)" width="1" height="14" style="fill: #4682b4; opacity: 0.7;"></rect><rect transform="translate(55.5,31)" width="1" height="14" style="fill: #4682b4; opacity: 0.7;"></rect><rect transform="translate(55.5,31)" width="1" height="14" style="fill: #4682b4; opacity: 0.7;"></rect><rect transform="translate(55.5,31)" width="1" height="14" style="fill: #4682b4; opacity: 0.7;"></rect><rect transform="translate(51.5,31)" width="1" height="14" style="fill: #4682b4; opacity: 0.7;"></rect><rect transform="translate(109.5,81)" width="1" height="14" style="fill: #4682b4; opacity: 0.7;"></rect><rect transform="translate(82.5,6)" width="1" height="14" style="fill: #4682b4; opacity: 0.7;"></rect><rect transform="translate(72.5,31)" width="1" height="14" style="fill: #4682b4; opacity: 0.7;"></rect><rect transform="translate(59.5,31)" width="1" height="14" style="fill: #4682b4; opacity: 0.7;"></rect><rect transform="translate(69.5,31)" width="1" height="14" style="fill: #4682b4; opacity: 0.7;"></rect><rect transform="translate(69.5,31)" width="1" height="14" style="fill: #4682b4; opacity: 0.7;"></rect><rect transform="translate(76.5,31)" width="1" height="14" style="fill: #4682b4; opacity: 0.7;"></rect><rect transform="translate(91.5,81)" width="1" height="14" style="fill: #4682b4; opacity: 0.7;"></rect><rect transform="translate(69.5,31)" width="1" height="14" style="fill: #4682b4; opacity: 0.7;"></rect><rect transform="translate(47.5,31)" width="1" height="14" style="fill: #4682b4; opacity: 0.7;"></rect><rect transform="translate(52.5,31)" width="1" height="14" style="fill: #4682b4; opacity: 0.7;"></rect><rect transform="translate(49.5,31)" width="1" height="14" style="fill: #4682b4; opacity: 0.7;"></rect><rect transform="translate(55.5,31)" width="1" height="14" style="fill: #4682b4; opacity: 0.7;"></rect><rect transform="translate(53.5,31)" width="1" height="14" style="fill: #4682b4; opacity: 0.7;"></rect><rect transform="translate(51.5,31)" width="1" height="14" style="fill: #4682b4; opacity: 0.7;"></rect><rect transform="translate(56.5,31)" width="1" height="14" style="fill: #4682b4; opacity: 0.7;"></rect><rect transform="translate(52.5,31)" width="1" height="14" style="fill: #4682b4; opacity: 0.7;"></rect><rect transform="translate(53.5,31)" width="1" height="14" style="fill: #4682b4; opacity: 0.7;"></rect><rect transform="translate(53.5,31)" width="1" height="14" style="fill: #4682b4; opacity: 0.7;"></rect><rect transform="translate(61.5,31)" width="1" height="14" style="fill: #4682b4; opacity: 0.7;"></rect><rect transform="translate(62.5,31)" width="1" height="14" style="fill: #4682b4; opacity: 0.7;"></rect><rect transform="translate(62.5,31)" width="1" height="14" style="fill: #4682b4; opacity: 0.7;"></rect><rect transform="translate(82.5,31)" width="1" height="14" style="fill: #4682b4; opacity: 0.7;"></rect><rect transform="translate(61.5,31)" width="1" height="14" style="fill: #4682b4; opacity: 0.7;"></rect><rect transform="translate(66.5,31)" width="1" height="14" style="fill: #4682b4; opacity: 0.7;"></rect><rect transform="translate(91.5,31)" width="1" height="14" style="fill: #4682b4; opacity: 0.7;"></rect><rect transform="translate(62.5,81)" width="1" height="14" style="fill: #4682b4; opacity: 0.7;"></rect><rect transform="translate(96.5,81)" width="1" height="14" style="fill: #4682b4; opacity: 0.7;"></rect><rect transform="translate(99.5,81)" width="1" height="14" style="fill: #4682b4; opacity: 0.7;"></rect><rect transform="translate(91.5,81)" width="1" height="14" style="fill: #4682b4; opacity: 0.7;"></rect><rect transform="translate(87.5,106)" width="1" height="14" style="fill: #4682b4; opacity: 0.7;"></rect><rect transform="translate(72.5,81)" width="1" height="14" style="fill: #4682b4; opacity: 0.7;"></rect><rect transform="translate(70.5,81)" width="1" height="14" style="fill: #4682b4; opacity: 0.7;"></rect><rect transform="translate(72.5,31)" width="1" height="14" style="fill: #4682b4; opacity: 0.7;"></rect><rect transform="translate(72.5,31)" width="1" height="14" style="fill: #4682b4; opacity: 0.7;"></rect><rect transform="translate(72.5,31)" width="1" height="14" style="fill: #4682b4; opacity: 0.7;"></rect><rect transform="translate(70.5,31)" width="1" height="14" style="fill: #4682b4; opacity: 0.7;"></rect><rect transform="translate(69.5,31)" width="1" height="14" style="fill: #4682b4; opacity: 0.7;"></rect><rect transform="translate(74.5,31)" width="1" height="14" style="fill: #4682b4; opacity: 0.7;"></rect><rect transform="translate(76.5,31)" width="1" height="14" style="fill: #4682b4; opacity: 0.7;"></rect><rect transform="translate(61.5,31)" width="1" height="14" style="fill: #4682b4; opacity: 0.7;"></rect><rect transform="translate(56.5,31)" width="1" height="14" style="fill: #4682b4; opacity: 0.7;"></rect><rect transform="translate(56.5,31)" width="1" height="14" style="fill: #4682b4; opacity: 0.7;"></rect><rect transform="translate(52.5,31)" width="1" height="14" style="fill: #4682b4; opacity: 0.7;"></rect><rect transform="translate(57.5,31)" width="1" height="14" style="fill: #4682b4; opacity: 0.7;"></rect><rect transform="translate(72.5,31)" width="1" height="14" style="fill: #4682b4; opacity: 0.7;"></rect><rect transform="translate(62.5,31)" width="1" height="14" style="fill: #4682b4; opacity: 0.7;"></rect><rect transform="translate(57.5,31)" width="1" height="14" style="fill: #4682b4; opacity: 0.7;"></rect><rect transform="translate(55.5,31)" width="1" height="14" style="fill: #4682b4; opacity: 0.7;"></rect><rect transform="translate(55.5,31)" width="1" height="14" style="fill: #4682b4; opacity: 0.7;"></rect><rect transform="translate(55.5,31)" width="1" height="14" style="fill: #4682b4; opacity: 0.7;"></rect><rect transform="translate(91.5,81)" width="1" height="14" style="fill: #4682b4; opacity: 0.7;"></rect><rect transform="translate(70.5,81)" width="1" height="14" style="fill: #4682b4; opacity: 0.7;"></rect><rect transform="translate(76.5,31)" width="1" height="14" style="fill: #4682b4; opacity: 0.7;"></rect><rect transform="translate(92.5,81)" width="1" height="14" style="fill: #4682b4; opacity: 0.7;"></rect><rect transform="translate(79.5,31)" width="1" height="14" style="fill: #4682b4; opacity: 0.7;"></rect><rect transform="translate(69.5,31)" width="1" height="14" style="fill: #4682b4; opacity: 0.7;"></rect><rect transform="translate(74.5,31)" width="1" height="14" style="fill: #4682b4; opacity: 0.7;"></rect><rect transform="translate(71.5,31)" width="1" height="14" style="fill: #4682b4; opacity: 0.7;"></rect><rect transform="translate(42.5,31)" width="1" height="14" style="fill: #4682b4; opacity: 0.7;"></rect><rect transform="translate(69.5,31)" width="1" height="14" style="fill: #4682b4; opacity: 0.7;"></rect><rect transform="translate(65.5,31)" width="1" height="14" style="fill: #4682b4; opacity: 0.7;"></rect><rect transform="translate(67.5,31)" width="1" height="14" style="fill: #4682b4; opacity: 0.7;"></rect></g></g></g></g></g></g></svg>