<svg class="marks" width="425" height="245" viewBox="0 0 425 245" version="1.1" xmlns="http://www.w3.org/2000/svg" xmlns:xlink="http://www.w3.org/1999/xlink"><g transform="translate(46,5)"><g class="mark-group role-frame root"><g transform="translate(0,0)"><path class="background" d="M0,0h304v216h-304Z" style="fill: none;"></path><g><g class="mark-group role-scope main-group"><g transform="translate(0,0)"><path class="background" d="M0,0h304v216h-304Z" style="fill: none;"></path><g><g class="mark-group role-scope y-axes"><g transform="translate(0,8)"><path class="background" d="M0,0h304v200h-304Z" style="fill: none;"></path><g><g class="mark-group role-axis"><g transform="translate(0.5,0.5)"><path class="background" d="M0,0h0v0h0Z" style="pointer-events: none; fill: none;"></path><g><g class="mark-rule role-axis-tick" style="pointer-events: none;"><line transform="translate(0,200)" x2="-5" y2="0" style="fill: none; stroke: #000; stroke-width: 1; opacity: 1;"></line><line transform="translate(0,183)" x2="-5" y2="0" style="fill: none; stroke: #000; stroke-width: 1; opacity: 1;"></line><line transform="translate(0,167)" x2="-5" y2="0" style="fill: none; stroke: #000; stroke-width: 1; opacity: 1;"></line><line transform="translate(0,150)" x2="-5" y2="0" style="fill: none; stroke: #000; stroke-width: 1; opacity: 1;"></line><line transform="translate(0,133)" x2="-5" y2="0" style="fill: none; stroke: #000; stroke-width: 1; opacity: 1;"></line><line transform="translate(0,117)" x2="-5" y2="0" style="fill: none; stroke: #000; stroke-width: 1; opacity: 1;"></line><line transform="translate(0,100)" x2="-5" y2="0" style="fill: none; stroke: #000; stroke-width: 1; opacity: 1;"></line><line transform="translate(0,83)" x2="-5" y2="0" style="fill: none; stroke: #000; stroke-width: 1; opacity: 1;"></line><line transform="translate(0,67)" x2="-5" y2="0" style="fill: none; stroke: #000; stroke-width: 1; opacity: 1;"></line><line transform="translate(0,50)" x2="-5" y2="0" style="fill: none; stroke: #000; stroke-width: 1; opacity: 1;"></line><line transform="translate(0,33)" x2="-5" y2="0" style="fill: none; stroke: #000; stroke-width: 1; opacity: 1;"></line><line transform="translate(0,17)" x2="-5" y2="0" style="fill: none; stroke: #000; stroke-width: 1; opacity: 1;"></line><line transform="translate(0,0)" x2="-5" y2="0" style="fill: none; stroke: #000; stroke-width: 1; opacity: 1;"></line></g><g class="mark-text role-axis-label" style="pointer-events: none;"><text text-anchor="end" transform="translate(-7,203)" style="font: 10px sans-serif; fill: #000; opacity: 1;">0M</text><text text-anchor="end" transform="translate(-7,186)" style="font: 10px sans-serif; fill: #000; opacity: 1;">1M</text><text text-anchor="end" transform="translate(-7,170)" style="font: 10px sans-serif; fill: #000; opacity: 1;">2M</text><text text-anchor="end" transform="translate(-7,153)" style="font: 10px sans-serif; fill: #000; opacity: 1;">3M</text><text text-anchor="end" transform="translate(-7,136)" style="font: 10px sans-serif; fill: #000; opacity: 1;">4M</text><text text-anchor="end" transform="translate(-7,120)" style="font: 10px sans-serif; fill: #000; opacity: 1;">5M</text><text text-anchor="end" transform="translate(-7,103)" style="font: 10px sans-serif; fill: #000; opacity: 1;">6M</text><text text-anchor="end" transform="translate(-7,86)" style="font: 10px sans-serif; fill: #000; opacity: 1;">7M</text><text text-anchor="end" transform="translate(-7,70)" style="font: 10px sans-serif; fill: #000; opacity: 1;">8M</text><text text-anchor="end" transform="translate(-7,53)" style="font: 10px sans-serif; fill: #000; opacity: 1;">9M</text><text text-anchor="end" transform="translate(-7,36)" style="font: 10px sans-serif; fill: #000; opacity: 1;">10M</text><text text-anchor="end" transform="translate(-7,20)" style="font: 10px sans-serif; fill: #000; opacity: 1;">11M</text><text text-anchor="end" transform="translate(-7,3)" style="font: 10px sans-serif; fill: #000; opacity: 1;">12M</text></g><g class="mark-rule role-axis-domain" style="pointer-events: none;"><line transform="translate(0,200)" x2="0" y2="-200" style="fill: none; stroke: #000; stroke-width: 1; opacity: 1;"></line></g><g class="mark-text role-axis-title" style="pointer-events: none;"><text text-anchor="middle" transform="translate(-29.453125,100) rotate(-90) translate(0,-2)" style="font: bold 11px sans-serif; fill: #000; opacity: 1;">population</text></g></g></g></g></g></g></g><g class="mark-group role-mark cell"><g transform="translate(2,8)"><path class="background" d="M0.5,0.5h12v200h-12Z" style="fill: transparent; stroke: #ccc; stroke-width: 0;"></path><g><g class="mark-rect role-bar child_marks"><path d="M6.5,38h5v162h-5Z" style="fill: #659CCA;"></path><path d="M0.5,45h5v155h-5Z" style="fill: #EA98D2;"></path></g></g></g><g transform="translate(18,8)"><path class="background" d="M0.5,0.5h12v200h-12Z" style="fill: transparent; stroke: #ccc; stroke-width: 0;"></path><g><g class="mark-rect role-bar child_marks"><path d="M6.5,24h5v176h-5Z" style="fill: #659CCA;"></path><path d="M0.5,32h5v168h-5Z" style="fill: #EA98D2;"></path></g></g></g><g transform="translate(34,8)"><path class="background" d="M0.5,0.5h12v200h-12Z" style="fill: transparent; stroke: #ccc; stroke-width: 0;"></path><g><g class="mark-rect role-bar child_marks"><path d="M6.5,24h5v176h-5Z" style="fill: #659CCA;"></path><path d="M0.5,33h5v167h-5Z" style="fill: #EA98D2;"></path></g></g></g><g transform="translate(50,8)"><path class="background" d="M0.5,0.5h12v200h-12Z" style="fill: transparent; stroke: #ccc; stroke-width: 0;"></path><g><g class="mark-rect role-bar child_marks"><path d="M6.5,29h5v171h-5Z" style="fill: #659CCA;"></path><path d="M0.5,38h5v162h-5Z" style="fill: #EA98D2;"></path></g></g></g><g transform="translate(66,8)"><path class="background" d="M0.5,0.5h12v200h-12Z" style="fill: transparent; stroke: #ccc; stroke-width: 0;"></path><g><g class="mark-rect role-bar child_marks"><path d="M6.5,38h5v162h-5Z" style="fill: #659CCA;"></path><path d="M0.5,45h5v155h-5Z" style="fill: #EA98D2;"></path></g></g></g><g transform="translate(82,8)"><path class="background" d="M0.5,0.5h12v200h-12Z" style="fill: transparent; stroke: #ccc; stroke-width: 0;"></path><g><g class="mark-rect role-bar child_marks"><path d="M6.5,39h5v161h-5Z" style="fill: #659CCA;"></path><path d="M0.5,41h5v159h-5Z" style="fill: #EA98D2;"></path></g></g></g><g transform="translate(98,8)"><path class="background" d="M0.5,0.5h12v200h-12Z" style="fill: transparent; stroke: #ccc; stroke-width: 0;"></path><g><g class="mark-rect role-bar child_marks"><path d="M6.5,30h5v170h-5Z" style="fill: #659CCA;"></path><path d="M0.5,31h5v169h-5Z" style="fill: #EA98D2;"></path></g></g></g><g transform="translate(114,8)"><path class="background" d="M0.5,0.5h12v200h-12Z" style="fill: transparent; stroke: #ccc; stroke-width: 0;"></path><g><g class="mark-rect role-bar child_marks"><path d="M6.5,9h5v191h-5Z" style="fill: #659CCA;"></path><path d="M0.5,6h5v194h-5Z" style="fill: #EA98D2;"></path></g></g></g><g transform="translate(130,8)"><path class="background" d="M0.5,0.5h12v200h-12Z" style="fill: transparent; stroke: #ccc; stroke-width: 0;"></path><g><g class="mark-rect role-bar child_marks"><path d="M6.5,11h5v189h-5Z" style="fill: #659CCA;"></path><path d="M0.5,9h5v191h-5Z" style="fill: #EA98D2;"></path></g></g></g><g transform="translate(146,8)"><path class="background" d="M0.5,0.5h12v200h-12Z" style="fill: transparent; stroke: #ccc; stroke-width: 0;"></path><g><g class="mark-rect role-bar child_marks"><path d="M6.5,35h5v165h-5Z" style="fill: #659CCA;"></path><path d="M0.5,29h5v171h-5Z" style="fill: #EA98D2;"></path></g></g></g><g transform="translate(162,8)"><path class="background" d="M0.5,0.5h12v200h-12Z" style="fill: transparent; stroke: #ccc; stroke-width: 0;"></path><g><g class="mark-rect role-bar child_marks"><path d="M6.5,58h5v142h-5Z" style="fill: #659CCA;"></path><path d="M0.5,51h5v149h-5Z" style="fill: #EA98D2;"></path></g></g></g><g transform="translate(178,8)"><path class="background" d="M0.5,0.5h12v200h-12Z" style="fill: transparent; stroke: #ccc; stroke-width: 0;"></path><g><g class="mark-rect role-bar child_marks"><path d="M6.5,92h5v108h-5Z" style="fill: #659CCA;"></path><path d="M0.5,85h5v115h-5Z" style="fill: #EA98D2;"></path></g></g></g><g transform="translate(194,8)"><path class="background" d="M0.5,0.5h12v200h-12Z" style="fill: transparent; stroke: #ccc; stroke-width: 0;"></path><g><g class="mark-rect role-bar child_marks"><path d="M6.5,115h5v85h-5Z" style="fill: #659CCA;"></path><path d="M0.5,106h5v94h-5Z" style="fill: #EA98D2;"></path></g></g></g><g transform="translate(210,8)"><path class="background" d="M0.5,0.5h12v200h-12Z" style="fill: transparent; stroke: #ccc; stroke-width: 0;"></path><g><g class="mark-rect role-bar child_marks"><path d="M6.5,126h5v74h-5Z" style="fill: #659CCA;"></path><path d="M0.5,120h5v80h-5Z" style="fill: #EA98D2;"></path></g></g></g><g transform="translate(226,8)"><path class="background" d="M0.5,0.5h12v200h-12Z" style="fill: transparent; stroke: #ccc; stroke-width: 0;"></path><g><g class="mark-rect role-bar child_marks"><path d="M6.5,137h5v63h-5Z" style="fill: #659CCA;"></path><path d="M0.5,114h5v86h-5Z" style="fill: #EA98D2;"></path></g></g></g><g transform="translate(242,8)"><path class="background" d="M0.5,0.5h12v200h-12Z" style="fill: transparent; stroke: #ccc; stroke-width: 0;"></path><g><g class="mark-rect role-bar child_marks"><path d="M6.5,151h5v49h-5Z" style="fill: #659CCA;"></path><path d="M0.5,127h5v73h-5Z" style="fill: #EA98D2;"></path></g></g></g><g transform="translate(258,8)"><path class="background" d="M0.5,0.5h12v200h-12Z" style="fill: transparent; stroke: #ccc; stroke-width: 0;"></path><g><g class="mark-rect role-bar child_marks"><path d="M6.5,168h5v32h-5Z" style="fill: #659CCA;"></path><path d="M0.5,146h5v54h-5Z" style="fill: #EA98D2;"></path></g></g></g><g transform="translate(274,8)"><path class="background" d="M0.5,0.5h12v200h-12Z" style="fill: transparent; stroke: #ccc; stroke-width: 0;"></path><g><g class="mark-rect role-bar child_marks"><path d="M6.5,184h5v16h-5Z" style="fill: #659CCA;"></path><path d="M0.5,167h5v33h-5Z" style="fill: #EA98D2;"></path></g></g></g><g transform="translate(290,8)"><path class="background" d="M0.5,0.5h12v200h-12Z" style="fill: transparent; stroke: #ccc; stroke-width: 0;"></path><g><g class="mark-rect role-bar child_marks"><path d="M6.5,194h5v6h-5Z" style="fill: #659CCA;"></path><path d="M0.5,182h5v18h-5Z" style="fill: #EA98D2;"></path></g></g></g></g><g class="mark-group role-legend"><g transform="translate(322,0)"><path class="background" d="M0,0h52v41h-52Z" style="pointer-events: none; fill: none;"></path><g><g class="mark-group role-legend-entry"><g transform="translate(0,16)"><path class="background" d="M0,0h0v0h0Z" style="pointer-events: none; fill: none;"></path><g><g class="mark-symbol role-legend-symbol" style="pointer-events: none;"><path transform="translate(5,5)" d="M-5,-5h10v10h-10Z" style="fill: #EA98D2; stroke-width: 0; opacity: 1;"></path><path transform="translate(5,20)" d="M-5,-5h10v10h-10Z" style="fill: #659CCA; stroke-width: 0; opacity: 1;"></path></g><g class="mark-text role-legend-label" style="pointer-events: none;"><text text-anchor="start" transform="translate(18,8)" style="font: 10px sans-serif; fill: #000; opacity: 1;">Female</text><text text-anchor="start" transform="translate(18,23)" style="font: 10px sans-serif; fill: #000; opacity: 1;">Male</text></g></g></g></g><g class="mark-text role-legend-title" style="pointer-events: none;"><text text-anchor="start" transform="translate(0,10)" style="font: bold 11px sans-serif; fill: #000; opacity: 1;">gender</text></g></g></g></g><g class="mark-group role-axis"><g transform="translate(0.5,208.5)"><path class="background" d="M0,0h0v0h0Z" style="pointer-events: none; fill: none;"></path><g><g class="mark-text role-axis-label" style="pointer-events: none;"><text text-anchor="middle" transform="translate(8,11)" style="font: 10px sans-serif; fill: #000; opacity: 1;">0</text><text text-anchor="middle" transform="translate(24,11)" style="font: 10px sans-serif; fill: #000; opacity: 1;">5</text><text text-anchor="middle" transform="translate(40,11)" style="font: 10px sans-serif; fill: #000; opacity: 1;">10</text><text text-anchor="middle" transform="translate(56,11)" style="font: 10px sans-serif; fill: #000; opacity: 1;">15</text><text text-anchor="middle" transform="translate(72,11)" style="font: 10px sans-serif; fill: #000; opacity: 1;">20</text><text text-anchor="middle" transform="translate(88,11)" style="font: 10px sans-serif; fill: #000; opacity: 1;">25</text><text text-anchor="middle" transform="translate(104,11)" style="font: 10px sans-serif; fill: #000; opacity: 1;">30</text><text text-anchor="middle" transform="translate(120,11)" style="font: 10px sans-serif; fill: #000; opacity: 1;">35</text><text text-anchor="middle" transform="translate(136,11)" style="font: 10px sans-serif; fill: #000; opacity: 1;">40</text><text text-anchor="middle" transform="translate(152,11)" style="font: 10px sans-serif; fill: #000; opacity: 1;">45</text><text text-anchor="middle" transform="translate(168,11)" style="font: 10px sans-serif; fill: #000; opacity: 1;">50</text><text text-anchor="middle" transform="translate(184,11)" style="font: 10px sans-serif; fill: #000; opacity: 1;">55</text><text text-anchor="middle" transform="translate(200,11)" style="font: 10px sans-serif; fill: #000; opacity: 1;">60</text><text text-anchor="middle" transform="translate(216,11)" style="font: 10px sans-serif; fill: #000; opacity: 1;">65</text><text text-anchor="middle" transform="translate(232,11)" style="font: 10px sans-serif; fill: #000; opacity: 1;">70</text><text text-anchor="middle" transform="translate(248,11)" style="font: 10px sans-serif; fill: #000; opacity: 1;">75</text><text text-anchor="middle" transform="translate(264,11)" style="font: 10px sans-serif; fill: #000; opacity: 1;">80</text><text text-anchor="middle" transform="translate(280,11)" style="font: 10px sans-serif; fill: #000; opacity: 1;">85</text><text text-anchor="middle" transform="translate(296,11)" style="font: 10px sans-serif; fill: #000; opacity: 1;">90</text></g><g class="mark-text role-axis-title" style="pointer-events: none;"><text text-anchor="middle" transform="translate(152,26)" style="font: bold 11px sans-serif; fill: #000; opacity: 1;">age</text></g></g></g></g></g></g></g></g></g></g></g></svg>