<svg class="marks" width="256" height="443" viewBox="0 0 256 443" version="1.1" xmlns="http://www.w3.org/2000/svg" xmlns:xlink="http://www.w3.org/1999/xlink"><defs><clipPath id="clip1"><rect x="0" y="0" width="200" height="399"></rect></clipPath><clipPath id="clip2"><rect x="0" y="0" width="200" height="399"></rect></clipPath><clipPath id="clip3"><rect x="0" y="0" width="200" height="399"></rect></clipPath><clipPath id="clip4"><rect x="0" y="0" width="200" height="399"></rect></clipPath></defs><g transform="translate(40,5)"><g class="mark-group role-frame root"><g transform="translate(0,0)"><path class="background" d="M0,0h200v399h-200Z" style="fill: transparent;"></path><g><g class="mark-group role-axis"><g transform="translate(0.5,399.5)"><path class="background" d="M0,0h0v0h0Z" style="pointer-events: none; fill: none;"></path><g><g class="mark-rule role-axis-grid" style="pointer-events: none;"><line transform="translate(0,0)" x2="0" y2="-399" style="fill: none; stroke: #ddd; stroke-width: 1; stroke-dasharray: ; opacity: 1;"></line><line transform="translate(33,0)" x2="0" y2="-399" style="fill: none; stroke: #ddd; stroke-width: 1; stroke-dasharray: ; opacity: 1;"></line><line transform="translate(67,0)" x2="0" y2="-399" style="fill: none; stroke: #ddd; stroke-width: 1; stroke-dasharray: ; opacity: 1;"></line><line transform="translate(100,0)" x2="0" y2="-399" style="fill: none; stroke: #ddd; stroke-width: 1; stroke-dasharray: ; opacity: 1;"></line><line transform="translate(133,0)" x2="0" y2="-399" style="fill: none; stroke: #ddd; stroke-width: 1; stroke-dasharray: ; opacity: 1;"></line><line transform="translate(167,0)" x2="0" y2="-399" style="fill: none; stroke: #ddd; stroke-width: 1; stroke-dasharray: ; opacity: 1;"></line><line transform="translate(200,0)" x2="0" y2="-399" style="fill: none; stroke: #ddd; stroke-width: 1; stroke-dasharray: ; opacity: 1;"></line></g></g></g></g><g class="mark-rule role-boxWhisker layer_0_marks" clip-path="url(#clip1)"><line transform="translate(24,10.5)" x2="39" y2="0" style="fill: none; stroke: #4c78a8;"></line><line transform="translate(23,31.5)" x2="37" y2="0" style="fill: none; stroke: #4c78a8;"></line><line transform="translate(20,52.5)" x2="33" y2="0" style="fill: none; stroke: #4c78a8;"></line><line transform="translate(18,73.5)" x2="29" y2="0" style="fill: none; stroke: #4c78a8;"></line><line transform="translate(17,94.5)" x2="30" y2="0" style="fill: none; stroke: #4c78a8;"></line><line transform="translate(13,115.5)" x2="27" y2="0" style="fill: none; stroke: #4c78a8;"></line><line transform="translate(11,136.5)" x2="22" y2="0" style="fill: none; stroke: #4c78a8;"></line><line transform="translate(8,157.5)" x2="21" y2="0" style="fill: none; stroke: #4c78a8;"></line><line transform="translate(7,178.5)" x2="17" y2="0" style="fill: none; stroke: #4c78a8;"></line><line transform="translate(6,199.5)" x2="14" y2="0" style="fill: none; stroke: #4c78a8;"></line><line transform="translate(5,220.5)" x2="13" y2="0" style="fill: none; stroke: #4c78a8;"></line><line transform="translate(3,241.5)" x2="10" y2="0" style="fill: none; stroke: #4c78a8;"></line><line transform="translate(3,262.5)" x2="8" y2="0" style="fill: none; stroke: #4c78a8;"></line><line transform="translate(2,283.5)" x2="5" y2="0" style="fill: none; stroke: #4c78a8;"></line><line transform="translate(1,304.5)" x2="4" y2="0" style="fill: none; stroke: #4c78a8;"></line><line transform="translate(1,325.5)" x2="2" y2="0" style="fill: none; stroke: #4c78a8;"></line><line transform="translate(0,346.5)" x2="1" y2="0" style="fill: none; stroke: #4c78a8;"></line><line transform="translate(0,367.5)" x2="1" y2="0" style="fill: none; stroke: #4c78a8;"></line><line transform="translate(0,388.5)" x2="0" y2="0" style="fill: none; stroke: #4c78a8;"></line></g><g class="mark-rule role-boxWhisker layer_1_marks" clip-path="url(#clip2)"><line transform="translate(140,10.5)" x2="33" y2="0" style="fill: none; stroke: #4c78a8;"></line><line transform="translate(146,31.5)" x2="30" y2="0" style="fill: none; stroke: #4c78a8;"></line><line transform="translate(142,52.5)" x2="37" y2="0" style="fill: none; stroke: #4c78a8;"></line><line transform="translate(135,73.5)" x2="43" y2="0" style="fill: none; stroke: #4c78a8;"></line><line transform="translate(121,94.5)" x2="56" y2="0" style="fill: none; stroke: #4c78a8;"></line><line transform="translate(108,115.5)" x2="70" y2="0" style="fill: none; stroke: #4c78a8;"></line><line transform="translate(98,136.5)" x2="87" y2="0" style="fill: none; stroke: #4c78a8;"></line><line transform="translate(100,157.5)" x2="94" y2="0" style="fill: none; stroke: #4c78a8;"></line><line transform="translate(95,178.5)" x2="96" y2="0" style="fill: none; stroke: #4c78a8;"></line><line transform="translate(91,199.5)" x2="80" y2="0" style="fill: none; stroke: #4c78a8;"></line><line transform="translate(87,220.5)" x2="62" y2="0" style="fill: none; stroke: #4c78a8;"></line><line transform="translate(78,241.5)" x2="37" y2="0" style="fill: none; stroke: #4c78a8;"></line><line transform="translate(66,262.5)" x2="28" y2="0" style="fill: none; stroke: #4c78a8;"></line><line transform="translate(54,283.5)" x2="39" y2="0" style="fill: none; stroke: #4c78a8;"></line><line transform="translate(41,304.5)" x2="45" y2="0" style="fill: none; stroke: #4c78a8;"></line><line transform="translate(27,325.5)" x2="46" y2="0" style="fill: none; stroke: #4c78a8;"></line><line transform="translate(15,346.5)" x2="39" y2="0" style="fill: none; stroke: #4c78a8;"></line><line transform="translate(6,367.5)" x2="27" y2="0" style="fill: none; stroke: #4c78a8;"></line><line transform="translate(3,388.5)" x2="15" y2="0" style="fill: none; stroke: #4c78a8;"></line></g><g class="mark-rect role-box layer_2_marks" clip-path="url(#clip3)"><path d="M63,8h77v5h-77Z" style="fill: skyblue;"></path><path d="M60,29h86v5h-86Z" style="fill: skyblue;"></path><path d="M53,50h89v5h-89Z" style="fill: skyblue;"></path><path d="M47,71h88v5h-88Z" style="fill: skyblue;"></path><path d="M47,92h74v5h-74Z" style="fill: skyblue;"></path><path d="M40,113h68v5h-68Z" style="fill: skyblue;"></path><path d="M33,134h65v5h-65Z" style="fill: skyblue;"></path><path d="M29,155h71v5h-71Z" style="fill: skyblue;"></path><path d="M24,176h71v5h-71Z" style="fill: skyblue;"></path><path d="M20,197h71v5h-71Z" style="fill: skyblue;"></path><path d="M18,218h69v5h-69Z" style="fill: skyblue;"></path><path d="M13,239h65v5h-65Z" style="fill: skyblue;"></path><path d="M11,260h55v5h-55Z" style="fill: skyblue;"></path><path d="M7,281h47v5h-47Z" style="fill: skyblue;"></path><path d="M5,302h36v5h-36Z" style="fill: skyblue;"></path><path d="M3,323h24v5h-24Z" style="fill: skyblue;"></path><path d="M1,344h14v5h-14Z" style="fill: skyblue;"></path><path d="M1,365h5v5h-5Z" style="fill: skyblue;"></path><path d="M0,386h3v5h-3Z" style="fill: skyblue;"></path></g><g class="mark-rect role-boxMid layer_3_marks" clip-path="url(#clip4)"><path d="M94.5,8h1v5h-1Z" style="fill: white;"></path><path d="M95.5,29h1v5h-1Z" style="fill: white;"></path><path d="M91.5,50h1v5h-1Z" style="fill: white;"></path><path d="M87.5,71h1v5h-1Z" style="fill: white;"></path><path d="M87.5,92h1v5h-1Z" style="fill: white;"></path><path d="M82.5,113h1v5h-1Z" style="fill: white;"></path><path d="M73.5,134h1v5h-1Z" style="fill: white;"></path><path d="M75.5,155h1v5h-1Z" style="fill: white;"></path><path d="M64.5,176h1v5h-1Z" style="fill: white;"></path><path d="M58.5,197h1v5h-1Z" style="fill: white;"></path><path d="M48.5,218h1v5h-1Z" style="fill: white;"></path><path d="M38.5,239h1v5h-1Z" style="fill: white;"></path><path d="M30.5,260h1v5h-1Z" style="fill: white;"></path><path d="M22.5,281h1v5h-1Z" style="fill: white;"></path><path d="M14.5,302h1v5h-1Z" style="fill: white;"></path><path d="M8.5,323h1v5h-1Z" style="fill: white;"></path><path d="M3.5,344h1v5h-1Z" style="fill: white;"></path><path d="M1.5,365h1v5h-1Z" style="fill: white;"></path><path d="M0.5,386h1v5h-1Z" style="fill: white;"></path></g><g class="mark-group role-axis"><g transform="translate(0.5,399.5)"><path class="background" d="M0,0h0v0h0Z" style="pointer-events: none; fill: none;"></path><g><g class="mark-rule role-axis-tick" style="pointer-events: none;"><line transform="translate(0,0)" x2="0" y2="5" style="fill: none; stroke: #000; stroke-width: 1; opacity: 1;"></line><line transform="translate(33,0)" x2="0" y2="5" style="fill: none; stroke: #000; stroke-width: 1; opacity: 1;"></line><line transform="translate(67,0)" x2="0" y2="5" style="fill: none; stroke: #000; stroke-width: 1; opacity: 1;"></line><line transform="translate(100,0)" x2="0" y2="5" style="fill: none; stroke: #000; stroke-width: 1; opacity: 1;"></line><line transform="translate(133,0)" x2="0" y2="5" style="fill: none; stroke: #000; stroke-width: 1; opacity: 1;"></line><line transform="translate(167,0)" x2="0" y2="5" style="fill: none; stroke: #000; stroke-width: 1; opacity: 1;"></line><line transform="translate(200,0)" x2="0" y2="5" style="fill: none; stroke: #000; stroke-width: 1; opacity: 1;"></line></g><g class="mark-text role-axis-label" style="pointer-events: none;"><text text-anchor="middle" transform="translate(0,16)" style="font: 10px sans-serif; fill: #000; opacity: 1;">0M</text><text text-anchor="middle" transform="translate(33,16)" style="font: 10px sans-serif; fill: #000; opacity: 1;">2M</text><text text-anchor="middle" transform="translate(67,16)" style="font: 10px sans-serif; fill: #000; opacity: 1;">4M</text><text text-anchor="middle" transform="translate(100,16)" style="font: 10px sans-serif; fill: #000; opacity: 1;">6M</text><text text-anchor="middle" transform="translate(133,16)" style="font: 10px sans-serif; fill: #000; opacity: 1;">8M</text><text text-anchor="middle" transform="translate(167,16)" style="font: 10px sans-serif; fill: #000; opacity: 1;">10M</text><text text-anchor="middle" transform="translate(200,16)" style="font: 10px sans-serif; fill: #000; opacity: 1;">12M</text></g><g class="mark-rule role-axis-domain" style="pointer-events: none;"><line transform="translate(0,0)" x2="200" y2="0" style="fill: none; stroke: #000; stroke-width: 1; opacity: 1;"></line></g><g class="mark-text role-axis-title" style="pointer-events: none;"><text text-anchor="middle" transform="translate(100,31)" style="font: bold 11px sans-serif; fill: #000; opacity: 1;">population</text></g></g></g></g><g class="mark-group role-axis"><g transform="translate(0.5,0.5)"><path class="background" d="M0,0h0v0h0Z" style="pointer-events: none; fill: none;"></path><g><g class="mark-rule role-axis-tick" style="pointer-events: none;"><line transform="translate(0,11)" x2="-5" y2="0" style="fill: none; stroke: #000; stroke-width: 1; opacity: 1;"></line><line transform="translate(0,32)" x2="-5" y2="0" style="fill: none; stroke: #000; stroke-width: 1; opacity: 1;"></line><line transform="translate(0,53)" x2="-5" y2="0" style="fill: none; stroke: #000; stroke-width: 1; opacity: 1;"></line><line transform="translate(0,74)" x2="-5" y2="0" style="fill: none; stroke: #000; stroke-width: 1; opacity: 1;"></line><line transform="translate(0,95)" x2="-5" y2="0" style="fill: none; stroke: #000; stroke-width: 1; opacity: 1;"></line><line transform="translate(0,116)" x2="-5" y2="0" style="fill: none; stroke: #000; stroke-width: 1; opacity: 1;"></line><line transform="translate(0,137)" x2="-5" y2="0" style="fill: none; stroke: #000; stroke-width: 1; opacity: 1;"></line><line transform="translate(0,158)" x2="-5" y2="0" style="fill: none; stroke: #000; stroke-width: 1; opacity: 1;"></line><line transform="translate(0,179)" x2="-5" y2="0" style="fill: none; stroke: #000; stroke-width: 1; opacity: 1;"></line><line transform="translate(0,200)" x2="-5" y2="0" style="fill: none; stroke: #000; stroke-width: 1; opacity: 1;"></line><line transform="translate(0,221)" x2="-5" y2="0" style="fill: none; stroke: #000; stroke-width: 1; opacity: 1;"></line><line transform="translate(0,242)" x2="-5" y2="0" style="fill: none; stroke: #000; stroke-width: 1; opacity: 1;"></line><line transform="translate(0,263)" x2="-5" y2="0" style="fill: none; stroke: #000; stroke-width: 1; opacity: 1;"></line><line transform="translate(0,284)" x2="-5" y2="0" style="fill: none; stroke: #000; stroke-width: 1; opacity: 1;"></line><line transform="translate(0,305)" x2="-5" y2="0" style="fill: none; stroke: #000; stroke-width: 1; opacity: 1;"></line><line transform="translate(0,326)" x2="-5" y2="0" style="fill: none; stroke: #000; stroke-width: 1; opacity: 1;"></line><line transform="translate(0,347)" x2="-5" y2="0" style="fill: none; stroke: #000; stroke-width: 1; opacity: 1;"></line><line transform="translate(0,368)" x2="-5" y2="0" style="fill: none; stroke: #000; stroke-width: 1; opacity: 1;"></line><line transform="translate(0,389)" x2="-5" y2="0" style="fill: none; stroke: #000; stroke-width: 1; opacity: 1;"></line></g><g class="mark-text role-axis-label" style="pointer-events: none;"><text text-anchor="end" transform="translate(-7,13.5)" style="font: 10px sans-serif; fill: #000; opacity: 1;">0</text><text text-anchor="end" transform="translate(-7,34.5)" style="font: 10px sans-serif; fill: #000; opacity: 1;">5</text><text text-anchor="end" transform="translate(-7,55.5)" style="font: 10px sans-serif; fill: #000; opacity: 1;">10</text><text text-anchor="end" transform="translate(-7,76.5)" style="font: 10px sans-serif; fill: #000; opacity: 1;">15</text><text text-anchor="end" transform="translate(-7,97.5)" style="font: 10px sans-serif; fill: #000; opacity: 1;">20</text><text text-anchor="end" transform="translate(-7,118.5)" style="font: 10px sans-serif; fill: #000; opacity: 1;">25</text><text text-anchor="end" transform="translate(-7,139.5)" style="font: 10px sans-serif; fill: #000; opacity: 1;">30</text><text text-anchor="end" transform="translate(-7,160.5)" style="font: 10px sans-serif; fill: #000; opacity: 1;">35</text><text text-anchor="end" transform="translate(-7,181.5)" style="font: 10px sans-serif; fill: #000; opacity: 1;">40</text><text text-anchor="end" transform="translate(-7,202.5)" style="font: 10px sans-serif; fill: #000; opacity: 1;">45</text><text text-anchor="end" transform="translate(-7,223.5)" style="font: 10px sans-serif; fill: #000; opacity: 1;">50</text><text text-anchor="end" transform="translate(-7,244.5)" style="font: 10px sans-serif; fill: #000; opacity: 1;">55</text><text text-anchor="end" transform="translate(-7,265.5)" style="font: 10px sans-serif; fill: #000; opacity: 1;">60</text><text text-anchor="end" transform="translate(-7,286.5)" style="font: 10px sans-serif; fill: #000; opacity: 1;">65</text><text text-anchor="end" transform="translate(-7,307.5)" style="font: 10px sans-serif; fill: #000; opacity: 1;">70</text><text text-anchor="end" transform="translate(-7,328.5)" style="font: 10px sans-serif; fill: #000; opacity: 1;">75</text><text text-anchor="end" transform="translate(-7,349.5)" style="font: 10px sans-serif; fill: #000; opacity: 1;">80</text><text text-anchor="end" transform="translate(-7,370.5)" style="font: 10px sans-serif; fill: #000; opacity: 1;">85</text><text text-anchor="end" transform="translate(-7,391.5)" style="font: 10px sans-serif; fill: #000; opacity: 1;">90</text></g><g class="mark-rule role-axis-domain" style="pointer-events: none;"><line transform="translate(0,0)" x2="0" y2="399" style="fill: none; stroke: #000; stroke-width: 1; opacity: 1;"></line></g><g class="mark-text role-axis-title" style="pointer-events: none;"><text text-anchor="middle" transform="translate(-21.123046875,199.5) rotate(-90) translate(0,-2)" style="font: bold 11px sans-serif; fill: #000; opacity: 1;">age</text></g></g></g></g></g></g></g></g></svg>