<svg class="marks" width="229" height="63" viewBox="0 0 229 63" version="1.1" xmlns="http://www.w3.org/2000/svg" xmlns:xlink="http://www.w3.org/1999/xlink"><defs><clipPath id="clip1"><rect x="0" y="0" width="200" height="21"></rect></clipPath><clipPath id="clip2"><rect x="0" y="0" width="200" height="21"></rect></clipPath><clipPath id="clip3"><rect x="0" y="0" width="200" height="21"></rect></clipPath><clipPath id="clip4"><rect x="0" y="0" width="200" height="21"></rect></clipPath></defs><g transform="translate(13,5)"><g class="mark-group role-frame root"><g transform="translate(0,0)"><path class="background" d="M0,0h200v21h-200Z" style="fill: none;"></path><g><g class="mark-group role-axis"><g transform="translate(0.5,21.5)"><path class="background" d="M0,0h0v0h0Z" style="pointer-events: none; fill: none;"></path><g><g class="mark-rule role-axis-grid" style="pointer-events: none;"><line transform="translate(0,0)" x2="0" y2="-21" style="fill: none; stroke: #ddd; stroke-width: 1; stroke-dasharray: ; opacity: 1;"></line><line transform="translate(33,0)" x2="0" y2="-21" style="fill: none; stroke: #ddd; stroke-width: 1; stroke-dasharray: ; opacity: 1;"></line><line transform="translate(67,0)" x2="0" y2="-21" style="fill: none; stroke: #ddd; stroke-width: 1; stroke-dasharray: ; opacity: 1;"></line><line transform="translate(100,0)" x2="0" y2="-21" style="fill: none; stroke: #ddd; stroke-width: 1; stroke-dasharray: ; opacity: 1;"></line><line transform="translate(133,0)" x2="0" y2="-21" style="fill: none; stroke: #ddd; stroke-width: 1; stroke-dasharray: ; opacity: 1;"></line><line transform="translate(167,0)" x2="0" y2="-21" style="fill: none; stroke: #ddd; stroke-width: 1; stroke-dasharray: ; opacity: 1;"></line><line transform="translate(200,0)" x2="0" y2="-21" style="fill: none; stroke: #ddd; stroke-width: 1; stroke-dasharray: ; opacity: 1;"></line></g></g></g></g><g class="mark-group role-scope nested_main_group"><g transform="translate(0,0)"><path class="background" d="M0,0h200v21h-200Z" style="fill: transparent;"></path><g><g class="mark-rule role-boxWhisker layer_0_marks" clip-path="url(#clip1)"><line transform="translate(0,10.5)" x2="11" y2="0" style="fill: none; stroke: #4c78a8;"></line></g><g class="mark-rule role-boxWhisker layer_1_marks" clip-path="url(#clip2)"><line transform="translate(91,10.5)" x2="103" y2="0" style="fill: none; stroke: #4c78a8;"></line></g><g class="mark-rect role-box layer_2_marks" clip-path="url(#clip3)"><path d="M11,3.5h80v14h-80Z" style="fill: #4c78a8;"></path></g><g class="mark-rect role-boxMid layer_3_marks" clip-path="url(#clip4)"><path d="M41.5,3.5h1v14h-1Z" style="fill: white;"></path></g></g></g></g><g class="mark-group role-axis"><g transform="translate(0.5,21.5)"><path class="background" d="M0,0h0v0h0Z" style="pointer-events: none; fill: none;"></path><g><g class="mark-rule role-axis-tick" style="pointer-events: none;"><line transform="translate(0,0)" x2="0" y2="5" style="fill: none; stroke: #000; stroke-width: 1; opacity: 1;"></line><line transform="translate(33,0)" x2="0" y2="5" style="fill: none; stroke: #000; stroke-width: 1; opacity: 1;"></line><line transform="translate(67,0)" x2="0" y2="5" style="fill: none; stroke: #000; stroke-width: 1; opacity: 1;"></line><line transform="translate(100,0)" x2="0" y2="5" style="fill: none; stroke: #000; stroke-width: 1; opacity: 1;"></line><line transform="translate(133,0)" x2="0" y2="5" style="fill: none; stroke: #000; stroke-width: 1; opacity: 1;"></line><line transform="translate(167,0)" x2="0" y2="5" style="fill: none; stroke: #000; stroke-width: 1; opacity: 1;"></line><line transform="translate(200,0)" x2="0" y2="5" style="fill: none; stroke: #000; stroke-width: 1; opacity: 1;"></line></g><g class="mark-text role-axis-label" style="pointer-events: none;"><text text-anchor="middle" transform="translate(0,16)" style="font: 10px sans-serif; fill: #000; opacity: 1;">0M</text><text text-anchor="middle" transform="translate(33,16)" style="font: 10px sans-serif; fill: #000; opacity: 1;">2M</text><text text-anchor="middle" transform="translate(67,16)" style="font: 10px sans-serif; fill: #000; opacity: 1;">4M</text><text text-anchor="middle" transform="translate(100,16)" style="font: 10px sans-serif; fill: #000; opacity: 1;">6M</text><text text-anchor="middle" transform="translate(133,16)" style="font: 10px sans-serif; fill: #000; opacity: 1;">8M</text><text text-anchor="middle" transform="translate(167,16)" style="font: 10px sans-serif; fill: #000; opacity: 1;">10M</text><text text-anchor="middle" transform="translate(200,16)" style="font: 10px sans-serif; fill: #000; opacity: 1;">12M</text></g><g class="mark-rule role-axis-domain" style="pointer-events: none;"><line transform="translate(0,0)" x2="200" y2="0" style="fill: none; stroke: #000; stroke-width: 1; opacity: 1;"></line></g><g class="mark-text role-axis-title" style="pointer-events: none;"><text text-anchor="middle" transform="translate(100,31)" style="font: bold 11px sans-serif; fill: #000; opacity: 1;">population</text></g></g></g></g></g></g></g></g></svg>