<svg class="marks" width="907" height="284" viewBox="0 0 907 284" version="1.1" xmlns="http://www.w3.org/2000/svg" xmlns:xlink="http://www.w3.org/1999/xlink"><defs><clipPath id="clip1"><rect x="0" y="0" width="200" height="200"></rect></clipPath><clipPath id="clip2"><rect x="0" y="0" width="200" height="200"></rect></clipPath><clipPath id="clip3"><rect x="0" y="0" width="200" height="200"></rect></clipPath><clipPath id="clip4"><rect x="0" y="0" width="200" height="200"></rect></clipPath></defs><g transform="translate(38,31)"><g class="mark-group role-frame root"><g transform="translate(0,0)"><path class="background" d="M0,0h864v216h-864Z" style="fill: none;"></path><g><g class="mark-group role-scope main-group"><g transform="translate(0,0)"><path class="background" d="M0,0h864v216h-864Z" style="fill: none;"></path><g><g class="mark-group role-scope x-axes"><g transform="translate(8,0)"><path class="background" d="M0,0h200v216h-200Z" style="fill: none;"></path><g><g class="mark-group role-axis"><g transform="translate(0.5,216.5)"><path class="background" d="M0,0h0v0h0Z" style="pointer-events: none; fill: none;"></path><g><g class="mark-rule role-axis-tick" style="pointer-events: none;"><line transform="translate(13,0)" x2="0" y2="5" style="fill: none; stroke: #000; stroke-width: 1; opacity: 1;"></line><line transform="translate(75,0)" x2="0" y2="5" style="fill: none; stroke: #000; stroke-width: 1; opacity: 1;"></line><line transform="translate(138,0)" x2="0" y2="5" style="fill: none; stroke: #000; stroke-width: 1; opacity: 1;"></line><line transform="translate(200,0)" x2="0" y2="5" style="fill: none; stroke: #000; stroke-width: 1; opacity: 1;"></line></g><g class="mark-text role-axis-label" style="pointer-events: none;"><text text-anchor="middle" transform="translate(13,16)" style="font: 10px sans-serif; fill: #000; opacity: 1;">5</text><text text-anchor="middle" transform="translate(75,16)" style="font: 10px sans-serif; fill: #000; opacity: 1;">10</text><text text-anchor="middle" transform="translate(138,16)" style="font: 10px sans-serif; fill: #000; opacity: 1;">15</text><text text-anchor="middle" transform="translate(200,16)" style="font: 10px sans-serif; fill: #000; opacity: 1;">20</text></g><g class="mark-rule role-axis-domain" style="pointer-events: none;"><line transform="translate(0,0)" x2="200" y2="0" style="fill: none; stroke: #000; stroke-width: 1; opacity: 1;"></line></g><g class="mark-text role-axis-title" style="pointer-events: none;"><text text-anchor="middle" transform="translate(100,31)" style="font: bold 11px sans-serif; fill: #000; opacity: 1;">X</text></g></g></g></g></g></g><g transform="translate(224,0)"><path class="background" d="M0,0h200v216h-200Z" style="fill: none;"></path><g><g class="mark-group role-axis"><g transform="translate(0.5,216.5)"><path class="background" d="M0,0h0v0h0Z" style="pointer-events: none; fill: none;"></path><g><g class="mark-rule role-axis-tick" style="pointer-events: none;"><line transform="translate(13,0)" x2="0" y2="5" style="fill: none; stroke: #000; stroke-width: 1; opacity: 1;"></line><line transform="translate(75,0)" x2="0" y2="5" style="fill: none; stroke: #000; stroke-width: 1; opacity: 1;"></line><line transform="translate(138,0)" x2="0" y2="5" style="fill: none; stroke: #000; stroke-width: 1; opacity: 1;"></line><line transform="translate(200,0)" x2="0" y2="5" style="fill: none; stroke: #000; stroke-width: 1; opacity: 1;"></line></g><g class="mark-text role-axis-label" style="pointer-events: none;"><text text-anchor="middle" transform="translate(13,16)" style="font: 10px sans-serif; fill: #000; opacity: 1;">5</text><text text-anchor="middle" transform="translate(75,16)" style="font: 10px sans-serif; fill: #000; opacity: 1;">10</text><text text-anchor="middle" transform="translate(138,16)" style="font: 10px sans-serif; fill: #000; opacity: 1;">15</text><text text-anchor="middle" transform="translate(200,16)" style="font: 10px sans-serif; fill: #000; opacity: 1;">20</text></g><g class="mark-rule role-axis-domain" style="pointer-events: none;"><line transform="translate(0,0)" x2="200" y2="0" style="fill: none; stroke: #000; stroke-width: 1; opacity: 1;"></line></g><g class="mark-text role-axis-title" style="pointer-events: none;"><text text-anchor="middle" transform="translate(100,31)" style="font: bold 11px sans-serif; fill: #000; opacity: 1;">X</text></g></g></g></g></g></g><g transform="translate(440,0)"><path class="background" d="M0,0h200v216h-200Z" style="fill: none;"></path><g><g class="mark-group role-axis"><g transform="translate(0.5,216.5)"><path class="background" d="M0,0h0v0h0Z" style="pointer-events: none; fill: none;"></path><g><g class="mark-rule role-axis-tick" style="pointer-events: none;"><line transform="translate(13,0)" x2="0" y2="5" style="fill: none; stroke: #000; stroke-width: 1; opacity: 1;"></line><line transform="translate(75,0)" x2="0" y2="5" style="fill: none; stroke: #000; stroke-width: 1; opacity: 1;"></line><line transform="translate(138,0)" x2="0" y2="5" style="fill: none; stroke: #000; stroke-width: 1; opacity: 1;"></line><line transform="translate(200,0)" x2="0" y2="5" style="fill: none; stroke: #000; stroke-width: 1; opacity: 1;"></line></g><g class="mark-text role-axis-label" style="pointer-events: none;"><text text-anchor="middle" transform="translate(13,16)" style="font: 10px sans-serif; fill: #000; opacity: 1;">5</text><text text-anchor="middle" transform="translate(75,16)" style="font: 10px sans-serif; fill: #000; opacity: 1;">10</text><text text-anchor="middle" transform="translate(138,16)" style="font: 10px sans-serif; fill: #000; opacity: 1;">15</text><text text-anchor="middle" transform="translate(200,16)" style="font: 10px sans-serif; fill: #000; opacity: 1;">20</text></g><g class="mark-rule role-axis-domain" style="pointer-events: none;"><line transform="translate(0,0)" x2="200" y2="0" style="fill: none; stroke: #000; stroke-width: 1; opacity: 1;"></line></g><g class="mark-text role-axis-title" style="pointer-events: none;"><text text-anchor="middle" transform="translate(100,31)" style="font: bold 11px sans-serif; fill: #000; opacity: 1;">X</text></g></g></g></g></g></g><g transform="translate(656,0)"><path class="background" d="M0,0h200v216h-200Z" style="fill: none;"></path><g><g class="mark-group role-axis"><g transform="translate(0.5,216.5)"><path class="background" d="M0,0h0v0h0Z" style="pointer-events: none; fill: none;"></path><g><g class="mark-rule role-axis-tick" style="pointer-events: none;"><line transform="translate(13,0)" x2="0" y2="5" style="fill: none; stroke: #000; stroke-width: 1; opacity: 1;"></line><line transform="translate(75,0)" x2="0" y2="5" style="fill: none; stroke: #000; stroke-width: 1; opacity: 1;"></line><line transform="translate(138,0)" x2="0" y2="5" style="fill: none; stroke: #000; stroke-width: 1; opacity: 1;"></line><line transform="translate(200,0)" x2="0" y2="5" style="fill: none; stroke: #000; stroke-width: 1; opacity: 1;"></line></g><g class="mark-text role-axis-label" style="pointer-events: none;"><text text-anchor="middle" transform="translate(13,16)" style="font: 10px sans-serif; fill: #000; opacity: 1;">5</text><text text-anchor="middle" transform="translate(75,16)" style="font: 10px sans-serif; fill: #000; opacity: 1;">10</text><text text-anchor="middle" transform="translate(138,16)" style="font: 10px sans-serif; fill: #000; opacity: 1;">15</text><text text-anchor="middle" transform="translate(200,16)" style="font: 10px sans-serif; fill: #000; opacity: 1;">20</text></g><g class="mark-rule role-axis-domain" style="pointer-events: none;"><line transform="translate(0,0)" x2="200" y2="0" style="fill: none; stroke: #000; stroke-width: 1; opacity: 1;"></line></g><g class="mark-text role-axis-title" style="pointer-events: none;"><text text-anchor="middle" transform="translate(100,31)" style="font: bold 11px sans-serif; fill: #000; opacity: 1;">X</text></g></g></g></g></g></g></g><g class="mark-group role-scope y-axes"><g transform="translate(0,8)"><path class="background" d="M0,0h864v200h-864Z" style="fill: none;"></path><g><g class="mark-group role-axis"><g transform="translate(0.5,0.5)"><path class="background" d="M0,0h0v0h0Z" style="pointer-events: none; fill: none;"></path><g><g class="mark-rule role-axis-tick" style="pointer-events: none;"><line transform="translate(0,200)" x2="-5" y2="0" style="fill: none; stroke: #000; stroke-width: 1; opacity: 1;"></line><line transform="translate(0,180)" x2="-5" y2="0" style="fill: none; stroke: #000; stroke-width: 1; opacity: 1;"></line><line transform="translate(0,160)" x2="-5" y2="0" style="fill: none; stroke: #000; stroke-width: 1; opacity: 1;"></line><line transform="translate(0,140)" x2="-5" y2="0" style="fill: none; stroke: #000; stroke-width: 1; opacity: 1;"></line><line transform="translate(0,120)" x2="-5" y2="0" style="fill: none; stroke: #000; stroke-width: 1; opacity: 1;"></line><line transform="translate(0,100)" x2="-5" y2="0" style="fill: none; stroke: #000; stroke-width: 1; opacity: 1;"></line><line transform="translate(0,80)" x2="-5" y2="0" style="fill: none; stroke: #000; stroke-width: 1; opacity: 1;"></line><line transform="translate(0,60)" x2="-5" y2="0" style="fill: none; stroke: #000; stroke-width: 1; opacity: 1;"></line><line transform="translate(0,40)" x2="-5" y2="0" style="fill: none; stroke: #000; stroke-width: 1; opacity: 1;"></line><line transform="translate(0,20)" x2="-5" y2="0" style="fill: none; stroke: #000; stroke-width: 1; opacity: 1;"></line><line transform="translate(0,0)" x2="-5" y2="0" style="fill: none; stroke: #000; stroke-width: 1; opacity: 1;"></line></g><g class="mark-text role-axis-label" style="pointer-events: none;"><text text-anchor="end" transform="translate(-7,203)" style="font: 10px sans-serif; fill: #000; opacity: 1;">3</text><text text-anchor="end" transform="translate(-7,183)" style="font: 10px sans-serif; fill: #000; opacity: 1;">4</text><text text-anchor="end" transform="translate(-7,163)" style="font: 10px sans-serif; fill: #000; opacity: 1;">5</text><text text-anchor="end" transform="translate(-7,143)" style="font: 10px sans-serif; fill: #000; opacity: 1;">6</text><text text-anchor="end" transform="translate(-7,123)" style="font: 10px sans-serif; fill: #000; opacity: 1;">7</text><text text-anchor="end" transform="translate(-7,103)" style="font: 10px sans-serif; fill: #000; opacity: 1;">8</text><text text-anchor="end" transform="translate(-7,83)" style="font: 10px sans-serif; fill: #000; opacity: 1;">9</text><text text-anchor="end" transform="translate(-7,63)" style="font: 10px sans-serif; fill: #000; opacity: 1;">10</text><text text-anchor="end" transform="translate(-7,43)" style="font: 10px sans-serif; fill: #000; opacity: 1;">11</text><text text-anchor="end" transform="translate(-7,23)" style="font: 10px sans-serif; fill: #000; opacity: 1;">12</text><text text-anchor="end" transform="translate(-7,3)" style="font: 10px sans-serif; fill: #000; opacity: 1;">13</text></g><g class="mark-rule role-axis-domain" style="pointer-events: none;"><line transform="translate(0,200)" x2="0" y2="-200" style="fill: none; stroke: #000; stroke-width: 1; opacity: 1;"></line></g><g class="mark-text role-axis-title" style="pointer-events: none;"><text text-anchor="middle" transform="translate(-21.123046875,100) rotate(-90) translate(0,-2)" style="font: bold 11px sans-serif; fill: #000; opacity: 1;">Y</text></g></g></g></g></g></g></g><g class="mark-group role-scope cell"><g transform="translate(8,8)"><path class="background" d="M0.5,0.5h200v200h-200Z" style="fill: transparent; stroke: #ccc; stroke-width: 1;"></path><g><g class="mark-group role-axis"><g transform="translate(0.5,200.5)"><path class="background" d="M0,0h0v0h0Z" style="pointer-events: none; fill: none;"></path><g><g class="mark-rule role-axis-grid" style="pointer-events: none;"><line transform="translate(13,-200)" x2="0" y2="200" style="fill: none; stroke: #ddd; stroke-width: 1; stroke-dasharray: ; opacity: 1;"></line><line transform="translate(75,-200)" x2="0" y2="200" style="fill: none; stroke: #ddd; stroke-width: 1; stroke-dasharray: ; opacity: 1;"></line><line transform="translate(138,-200)" x2="0" y2="200" style="fill: none; stroke: #ddd; stroke-width: 1; stroke-dasharray: ; opacity: 1;"></line><line transform="translate(200,-200)" x2="0" y2="200" style="fill: none; stroke: #ddd; stroke-width: 1; stroke-dasharray: ; opacity: 1;"></line></g></g></g></g><g class="mark-group role-axis"><g transform="translate(0.5,0.5)"><path class="background" d="M0,0h0v0h0Z" style="pointer-events: none; fill: none;"></path><g><g class="mark-rule role-axis-grid" style="pointer-events: none;"><line transform="translate(0,200)" x2="200" y2="0" style="fill: none; stroke: #ddd; stroke-width: 1; stroke-dasharray: ; opacity: 1;"></line><line transform="translate(0,180)" x2="200" y2="0" style="fill: none; stroke: #ddd; stroke-width: 1; stroke-dasharray: ; opacity: 1;"></line><line transform="translate(0,160)" x2="200" y2="0" style="fill: none; stroke: #ddd; stroke-width: 1; stroke-dasharray: ; opacity: 1;"></line><line transform="translate(0,140)" x2="200" y2="0" style="fill: none; stroke: #ddd; stroke-width: 1; stroke-dasharray: ; opacity: 1;"></line><line transform="translate(0,120)" x2="200" y2="0" style="fill: none; stroke: #ddd; stroke-width: 1; stroke-dasharray: ; opacity: 1;"></line><line transform="translate(0,100)" x2="200" y2="0" style="fill: none; stroke: #ddd; stroke-width: 1; stroke-dasharray: ; opacity: 1;"></line><line transform="translate(0,80)" x2="200" y2="0" style="fill: none; stroke: #ddd; stroke-width: 1; stroke-dasharray: ; opacity: 1;"></line><line transform="translate(0,60)" x2="200" y2="0" style="fill: none; stroke: #ddd; stroke-width: 1; stroke-dasharray: ; opacity: 1;"></line><line transform="translate(0,40)" x2="200" y2="0" style="fill: none; stroke: #ddd; stroke-width: 1; stroke-dasharray: ; opacity: 1;"></line><line transform="translate(0,20)" x2="200" y2="0" style="fill: none; stroke: #ddd; stroke-width: 1; stroke-dasharray: ; opacity: 1;"></line><line transform="translate(0,0)" x2="200" y2="0" style="fill: none; stroke: #ddd; stroke-width: 1; stroke-dasharray: ; opacity: 1;"></line></g></g></g></g><g class="mark-group role-mark"><g transform="translate(0,0)"><path class="background" d="M0,0h200v200h-200Z" style="fill: transparent;"></path><g clip-path="url(#clip1)"><g class="mark-rect role-mark"><path d="M0,0h0v200h0Z" style="fill: #eee;"></path></g><g class="mark-symbol role-circle child_marks"><path transform="translate(75,99)" d="M7.905694150420948,0A7.905694150420948,7.905694150420948,0,1,1,-7.905694150420948,0A7.905694150420948,7.905694150420948,0,1,1,7.905694150420948,0" style="fill: red; stroke-width: 2;"></path><path transform="translate(50,121)" d="M7.905694150420948,0A7.905694150420948,7.905694150420948,0,1,1,-7.905694150420948,0A7.905694150420948,7.905694150420948,0,1,1,7.905694150420948,0" style="fill: red; stroke-width: 2;"></path><path transform="translate(113,108)" d="M7.905694150420948,0A7.905694150420948,7.905694150420948,0,1,1,-7.905694150420948,0A7.905694150420948,7.905694150420948,0,1,1,7.905694150420948,0" style="fill: red; stroke-width: 2;"></path><path transform="translate(63,84)" d="M7.905694150420948,0A7.905694150420948,7.905694150420948,0,1,1,-7.905694150420948,0A7.905694150420948,7.905694150420948,0,1,1,7.905694150420948,0" style="fill: red; stroke-width: 2;"></path><path transform="translate(88,93)" d="M7.905694150420948,0A7.905694150420948,7.905694150420948,0,1,1,-7.905694150420948,0A7.905694150420948,7.905694150420948,0,1,1,7.905694150420948,0" style="fill: red; stroke-width: 2;"></path><path transform="translate(125,61)" d="M7.905694150420948,0A7.905694150420948,7.905694150420948,0,1,1,-7.905694150420948,0A7.905694150420948,7.905694150420948,0,1,1,7.905694150420948,0" style="fill: red; stroke-width: 2;"></path><path transform="translate(25,115)" d="M7.905694150420948,0A7.905694150420948,7.905694150420948,0,1,1,-7.905694150420948,0A7.905694150420948,7.905694150420948,0,1,1,7.905694150420948,0" style="fill: red; stroke-width: 2;"></path><path transform="translate(0,175)" d="M7.905694150420948,0A7.905694150420948,7.905694150420948,0,1,1,-7.905694150420948,0A7.905694150420948,7.905694150420948,0,1,1,7.905694150420948,0" style="fill: red; stroke-width: 2;"></path><path transform="translate(100,43)" d="M7.905694150420948,0A7.905694150420948,7.905694150420948,0,1,1,-7.905694150420948,0A7.905694150420948,7.905694150420948,0,1,1,7.905694150420948,0" style="fill: red; stroke-width: 2;"></path><path transform="translate(38,164)" d="M7.905694150420948,0A7.905694150420948,7.905694150420948,0,1,1,-7.905694150420948,0A7.905694150420948,7.905694150420948,0,1,1,7.905694150420948,0" style="fill: red; stroke-width: 2;"></path><path transform="translate(13,146)" d="M7.905694150420948,0A7.905694150420948,7.905694150420948,0,1,1,-7.905694150420948,0A7.905694150420948,7.905694150420948,0,1,1,7.905694150420948,0" style="fill: red; stroke-width: 2;"></path></g><g class="mark-path role-mark child_voronoi"><path transform="translate(0,0)" d="M55.63145539906103,102.19483568075117L86.10697455230914,136.82610744580586L90.93478260869566,116.44202898550725L76.61235955056179,85.41011235955057Z" style="fill: transparent; stroke: transparent; stroke-width: 0.35;"></path><path transform="translate(0,0)" d="M33.18240850059032,135.98996458087368L36.089465530596435,140.29240898528272L89.92224833529181,155.31551116333725L86.10697455230914,136.82610744580586L55.63145539906103,102.19483568075117L42.40827517447657,97.54885343968095Z" style="fill: transparent; stroke: transparent; stroke-width: 0.35;"></path><path transform="translate(0,0)" d="M86.10697455230914,136.82610744580586L89.92224833529181,155.31551116333725L135.23333333333332,216L634.0416666666667,216L111.28228782287823,82.52952029520296L90.93478260869566,116.44202898550725Z" style="fill: transparent; stroke: transparent; stroke-width: 0.35;"></path><path transform="translate(0,0)" d="M0,45.564516129032256L42.40827517447657,97.54885343968095L55.63145539906103,102.19483568075117L76.61235955056179,85.41011235955057L83.76435935198822,65.54344624447717L11.13513513513513,0L0,0Z" style="fill: transparent; stroke: transparent; stroke-width: 0.35;"></path><path transform="translate(0,0)" d="M76.61235955056179,85.41011235955057L90.93478260869566,116.44202898550725L111.28228782287823,82.52952029520296L99.95156889495225,69.42837653478854L83.76435935198822,65.54344624447717Z" style="fill: transparent; stroke: transparent; stroke-width: 0.35;"></path><path transform="translate(0,0)" d="M99.95156889495225,69.42837653478854L111.28228782287823,82.52952029520296L634.0416666666667,216L864,216L864,0L149.94,0Z" style="fill: transparent; stroke: transparent; stroke-width: 0.35;"></path><path transform="translate(0,0)" d="M0,123.14516129032259L33.18240850059032,135.98996458087368L42.40827517447657,97.54885343968095L0,45.564516129032256Z" style="fill: transparent; stroke: transparent; stroke-width: 0.35;"></path><path transform="translate(0,0)" d="M32.46052631578947,216L17.870177267987486,165.59697601668404L0,157.58620689655172L0,216Z" style="fill: transparent; stroke: transparent; stroke-width: 0.35;"></path><path transform="translate(0,0)" d="M11.13513513513513,0L83.76435935198822,65.54344624447717L99.95156889495225,69.42837653478854L149.94,0Z" style="fill: transparent; stroke: transparent; stroke-width: 0.35;"></path><path transform="translate(0,0)" d="M17.870177267987486,165.59697601668404L32.46052631578947,216L135.23333333333332,216L89.92224833529181,155.31551116333725L36.089465530596435,140.29240898528272Z" style="fill: transparent; stroke: transparent; stroke-width: 0.35;"></path><path transform="translate(0,0)" d="M0,157.58620689655172L17.870177267987486,165.59697601668404L36.089465530596435,140.29240898528272L33.18240850059032,135.98996458087368L0,123.14516129032259Z" style="fill: transparent; stroke: transparent; stroke-width: 0.35;"></path></g><g class="mark-rect role-mark child_brush_brush"><path d="M0,0h0v200h0Z" style="fill: transparent;"></path></g></g></g></g></g></g><g transform="translate(224,8)"><path class="background" d="M0.5,0.5h200v200h-200Z" style="fill: transparent; stroke: #ccc; stroke-width: 1;"></path><g><g class="mark-group role-axis"><g transform="translate(0.5,200.5)"><path class="background" d="M0,0h0v0h0Z" style="pointer-events: none; fill: none;"></path><g><g class="mark-rule role-axis-grid" style="pointer-events: none;"><line transform="translate(13,-200)" x2="0" y2="200" style="fill: none; stroke: #ddd; stroke-width: 1; stroke-dasharray: ; opacity: 1;"></line><line transform="translate(75,-200)" x2="0" y2="200" style="fill: none; stroke: #ddd; stroke-width: 1; stroke-dasharray: ; opacity: 1;"></line><line transform="translate(138,-200)" x2="0" y2="200" style="fill: none; stroke: #ddd; stroke-width: 1; stroke-dasharray: ; opacity: 1;"></line><line transform="translate(200,-200)" x2="0" y2="200" style="fill: none; stroke: #ddd; stroke-width: 1; stroke-dasharray: ; opacity: 1;"></line></g></g></g></g><g class="mark-group role-axis"><g transform="translate(0.5,0.5)"><path class="background" d="M0,0h0v0h0Z" style="pointer-events: none; fill: none;"></path><g><g class="mark-rule role-axis-grid" style="pointer-events: none;"><line transform="translate(0,200)" x2="200" y2="0" style="fill: none; stroke: #ddd; stroke-width: 1; stroke-dasharray: ; opacity: 1;"></line><line transform="translate(0,180)" x2="200" y2="0" style="fill: none; stroke: #ddd; stroke-width: 1; stroke-dasharray: ; opacity: 1;"></line><line transform="translate(0,160)" x2="200" y2="0" style="fill: none; stroke: #ddd; stroke-width: 1; stroke-dasharray: ; opacity: 1;"></line><line transform="translate(0,140)" x2="200" y2="0" style="fill: none; stroke: #ddd; stroke-width: 1; stroke-dasharray: ; opacity: 1;"></line><line transform="translate(0,120)" x2="200" y2="0" style="fill: none; stroke: #ddd; stroke-width: 1; stroke-dasharray: ; opacity: 1;"></line><line transform="translate(0,100)" x2="200" y2="0" style="fill: none; stroke: #ddd; stroke-width: 1; stroke-dasharray: ; opacity: 1;"></line><line transform="translate(0,80)" x2="200" y2="0" style="fill: none; stroke: #ddd; stroke-width: 1; stroke-dasharray: ; opacity: 1;"></line><line transform="translate(0,60)" x2="200" y2="0" style="fill: none; stroke: #ddd; stroke-width: 1; stroke-dasharray: ; opacity: 1;"></line><line transform="translate(0,40)" x2="200" y2="0" style="fill: none; stroke: #ddd; stroke-width: 1; stroke-dasharray: ; opacity: 1;"></line><line transform="translate(0,20)" x2="200" y2="0" style="fill: none; stroke: #ddd; stroke-width: 1; stroke-dasharray: ; opacity: 1;"></line><line transform="translate(0,0)" x2="200" y2="0" style="fill: none; stroke: #ddd; stroke-width: 1; stroke-dasharray: ; opacity: 1;"></line></g></g></g></g><g class="mark-group role-mark"><g transform="translate(0,0)"><path class="background" d="M0,0h200v200h-200Z" style="fill: transparent;"></path><g clip-path="url(#clip2)"><g class="mark-rect role-mark"><path d="M0,0h0v200h0Z" style="fill: #eee;"></path></g><g class="mark-symbol role-circle child_marks"><path transform="translate(75,77)" d="M7.905694150420948,0A7.905694150420948,7.905694150420948,0,1,1,-7.905694150420948,0A7.905694150420948,7.905694150420948,0,1,1,7.905694150420948,0" style="fill: red; stroke-width: 2;"></path><path transform="translate(50,97)" d="M7.905694150420948,0A7.905694150420948,7.905694150420948,0,1,1,-7.905694150420948,0A7.905694150420948,7.905694150420948,0,1,1,7.905694150420948,0" style="fill: red; stroke-width: 2;"></path><path transform="translate(113,85)" d="M7.905694150420948,0A7.905694150420948,7.905694150420948,0,1,1,-7.905694150420948,0A7.905694150420948,7.905694150420948,0,1,1,7.905694150420948,0" style="fill: red; stroke-width: 2;"></path><path transform="translate(63,85)" d="M7.905694150420948,0A7.905694150420948,7.905694150420948,0,1,1,-7.905694150420948,0A7.905694150420948,7.905694150420948,0,1,1,7.905694150420948,0" style="fill: red; stroke-width: 2;"></path><path transform="translate(88,75)" d="M7.905694150420948,0A7.905694150420948,7.905694150420948,0,1,1,-7.905694150420948,0A7.905694150420948,7.905694150420948,0,1,1,7.905694150420948,0" style="fill: red; stroke-width: 2;"></path><path transform="translate(125,98)" d="M7.905694150420948,0A7.905694150420948,7.905694150420948,0,1,1,-7.905694150420948,0A7.905694150420948,7.905694150420948,0,1,1,7.905694150420948,0" style="fill: red; stroke-width: 2;"></path><path transform="translate(25,137)" d="M7.905694150420948,0A7.905694150420948,7.905694150420948,0,1,1,-7.905694150420948,0A7.905694150420948,7.905694150420948,0,1,1,7.905694150420948,0" style="fill: red; stroke-width: 2;"></path><path transform="translate(0,198)" d="M7.905694150420948,0A7.905694150420948,7.905694150420948,0,1,1,-7.905694150420948,0A7.905694150420948,7.905694150420948,0,1,1,7.905694150420948,0" style="fill: red; stroke-width: 2;"></path><path transform="translate(100,77)" d="M7.905694150420948,0A7.905694150420948,7.905694150420948,0,1,1,-7.905694150420948,0A7.905694150420948,7.905694150420948,0,1,1,7.905694150420948,0" style="fill: red; stroke-width: 2;"></path><path transform="translate(38,115)" d="M7.905694150420948,0A7.905694150420948,7.905694150420948,0,1,1,-7.905694150420948,0A7.905694150420948,7.905694150420948,0,1,1,7.905694150420948,0" style="fill: red; stroke-width: 2;"></path><path transform="translate(13,165)" d="M7.905694150420948,0A7.905694150420948,7.905694150420948,0,1,1,-7.905694150420948,0A7.905694150420948,7.905694150420948,0,1,1,7.905694150420948,0" style="fill: red; stroke-width: 2;"></path></g><g class="mark-path role-mark child_voronoi"><path transform="translate(0,0)" d="M15,0L86.25,106.875L69.8076923076923,0Z" style="fill: transparent; stroke: transparent; stroke-width: 0.35;"></path><path transform="translate(0,0)" d="M0,76.66666666666667L87.00440528634361,134.66960352422907L87.14403066812706,124.19769989047097L0,29.79166666666667Z" style="fill: transparent; stroke: transparent; stroke-width: 0.35;"></path><path transform="translate(0,0)" d="M88,111.25L88,120.11538461538461L218.125,0L156.34615384615384,0L88.21428571428571,110.71428571428572Z" style="fill: transparent; stroke: transparent; stroke-width: 0.35;"></path><path transform="translate(0,0)" d="M0,29.79166666666667L87.14403066812706,124.19769989047097L88,120.11538461538461L88,111.25L86.25,106.875L15,0L0,0Z" style="fill: transparent; stroke: transparent; stroke-width: 0.35;"></path><path transform="translate(0,0)" d="M69.8076923076923,0L86.25,106.875L88,111.25L88.21428571428571,110.71428571428572L106.66666666666667,0Z" style="fill: transparent; stroke: transparent; stroke-width: 0.35;"></path><path transform="translate(0,0)" d="M87.00440528634361,134.66960352422907L92.3346131128175,161.94772593030123L101.9253859348199,186.53945111492283L119.54910714285714,216L864,216L864,0L218.125,0L88,120.11538461538461L87.14403066812706,124.19769989047097Z" style="fill: transparent; stroke: transparent; stroke-width: 0.35;"></path><path transform="translate(0,0)" d="M0,142.85714285714286L101.9253859348199,186.53945111492283L92.3346131128175,161.94772593030123L0,107.38636363636364Z" style="fill: transparent; stroke: transparent; stroke-width: 0.35;"></path><path transform="translate(0,0)" d="M94.07692307692308,216L0,178.93939393939394L0,216Z" style="fill: transparent; stroke: transparent; stroke-width: 0.35;"></path><path transform="translate(0,0)" d="M88.21428571428571,110.71428571428572L156.34615384615384,0L106.66666666666667,0Z" style="fill: transparent; stroke: transparent; stroke-width: 0.35;"></path><path transform="translate(0,0)" d="M0,107.38636363636364L92.3346131128175,161.94772593030123L87.00440528634361,134.66960352422907L0,76.66666666666667Z" style="fill: transparent; stroke: transparent; stroke-width: 0.35;"></path><path transform="translate(0,0)" d="M0,178.93939393939394L94.07692307692308,216L119.54910714285714,216L101.9253859348199,186.53945111492283L0,142.85714285714286Z" style="fill: transparent; stroke: transparent; stroke-width: 0.35;"></path></g><g class="mark-rect role-mark child_brush_brush"><path d="M0,0h0v200h0Z" style="fill: transparent;"></path></g></g></g></g></g></g><g transform="translate(440,8)"><path class="background" d="M0.5,0.5h200v200h-200Z" style="fill: transparent; stroke: #ccc; stroke-width: 1;"></path><g><g class="mark-group role-axis"><g transform="translate(0.5,200.5)"><path class="background" d="M0,0h0v0h0Z" style="pointer-events: none; fill: none;"></path><g><g class="mark-rule role-axis-grid" style="pointer-events: none;"><line transform="translate(13,-200)" x2="0" y2="200" style="fill: none; stroke: #ddd; stroke-width: 1; stroke-dasharray: ; opacity: 1;"></line><line transform="translate(75,-200)" x2="0" y2="200" style="fill: none; stroke: #ddd; stroke-width: 1; stroke-dasharray: ; opacity: 1;"></line><line transform="translate(138,-200)" x2="0" y2="200" style="fill: none; stroke: #ddd; stroke-width: 1; stroke-dasharray: ; opacity: 1;"></line><line transform="translate(200,-200)" x2="0" y2="200" style="fill: none; stroke: #ddd; stroke-width: 1; stroke-dasharray: ; opacity: 1;"></line></g></g></g></g><g class="mark-group role-axis"><g transform="translate(0.5,0.5)"><path class="background" d="M0,0h0v0h0Z" style="pointer-events: none; fill: none;"></path><g><g class="mark-rule role-axis-grid" style="pointer-events: none;"><line transform="translate(0,200)" x2="200" y2="0" style="fill: none; stroke: #ddd; stroke-width: 1; stroke-dasharray: ; opacity: 1;"></line><line transform="translate(0,180)" x2="200" y2="0" style="fill: none; stroke: #ddd; stroke-width: 1; stroke-dasharray: ; opacity: 1;"></line><line transform="translate(0,160)" x2="200" y2="0" style="fill: none; stroke: #ddd; stroke-width: 1; stroke-dasharray: ; opacity: 1;"></line><line transform="translate(0,140)" x2="200" y2="0" style="fill: none; stroke: #ddd; stroke-width: 1; stroke-dasharray: ; opacity: 1;"></line><line transform="translate(0,120)" x2="200" y2="0" style="fill: none; stroke: #ddd; stroke-width: 1; stroke-dasharray: ; opacity: 1;"></line><line transform="translate(0,100)" x2="200" y2="0" style="fill: none; stroke: #ddd; stroke-width: 1; stroke-dasharray: ; opacity: 1;"></line><line transform="translate(0,80)" x2="200" y2="0" style="fill: none; stroke: #ddd; stroke-width: 1; stroke-dasharray: ; opacity: 1;"></line><line transform="translate(0,60)" x2="200" y2="0" style="fill: none; stroke: #ddd; stroke-width: 1; stroke-dasharray: ; opacity: 1;"></line><line transform="translate(0,40)" x2="200" y2="0" style="fill: none; stroke: #ddd; stroke-width: 1; stroke-dasharray: ; opacity: 1;"></line><line transform="translate(0,20)" x2="200" y2="0" style="fill: none; stroke: #ddd; stroke-width: 1; stroke-dasharray: ; opacity: 1;"></line><line transform="translate(0,0)" x2="200" y2="0" style="fill: none; stroke: #ddd; stroke-width: 1; stroke-dasharray: ; opacity: 1;"></line></g></g></g></g><g class="mark-group role-mark"><g transform="translate(0,0)"><path class="background" d="M0,0h200v200h-200Z" style="fill: transparent;"></path><g clip-path="url(#clip3)"><g class="mark-rect role-mark"><path d="M0,0h0v200h0Z" style="fill: #eee;"></path></g><g class="mark-symbol role-circle child_marks"><path transform="translate(75,111)" d="M7.905694150420948,0A7.905694150420948,7.905694150420948,0,1,1,-7.905694150420948,0A7.905694150420948,7.905694150420948,0,1,1,7.905694150420948,0" style="fill: red; stroke-width: 2;"></path><path transform="translate(50,125)" d="M7.905694150420948,0A7.905694150420948,7.905694150420948,0,1,1,-7.905694150420948,0A7.905694150420948,7.905694150420948,0,1,1,7.905694150420948,0" style="fill: red; stroke-width: 2;"></path><path transform="translate(113,5)" d="M7.905694150420948,0A7.905694150420948,7.905694150420948,0,1,1,-7.905694150420948,0A7.905694150420948,7.905694150420948,0,1,1,7.905694150420948,0" style="fill: red; stroke-width: 2;"></path><path transform="translate(63,118)" d="M7.905694150420948,0A7.905694150420948,7.905694150420948,0,1,1,-7.905694150420948,0A7.905694150420948,7.905694150420948,0,1,1,7.905694150420948,0" style="fill: red; stroke-width: 2;"></path><path transform="translate(88,104)" d="M7.905694150420948,0A7.905694150420948,7.905694150420948,0,1,1,-7.905694150420948,0A7.905694150420948,7.905694150420948,0,1,1,7.905694150420948,0" style="fill: red; stroke-width: 2;"></path><path transform="translate(125,83)" d="M7.905694150420948,0A7.905694150420948,7.905694150420948,0,1,1,-7.905694150420948,0A7.905694150420948,7.905694150420948,0,1,1,7.905694150420948,0" style="fill: red; stroke-width: 2;"></path><path transform="translate(25,138)" d="M7.905694150420948,0A7.905694150420948,7.905694150420948,0,1,1,-7.905694150420948,0A7.905694150420948,7.905694150420948,0,1,1,7.905694150420948,0" style="fill: red; stroke-width: 2;"></path><path transform="translate(0,152)" d="M7.905694150420948,0A7.905694150420948,7.905694150420948,0,1,1,-7.905694150420948,0A7.905694150420948,7.905694150420948,0,1,1,7.905694150420948,0" style="fill: red; stroke-width: 2;"></path><path transform="translate(100,97)" d="M7.905694150420948,0A7.905694150420948,7.905694150420948,0,1,1,-7.905694150420948,0A7.905694150420948,7.905694150420948,0,1,1,7.905694150420948,0" style="fill: red; stroke-width: 2;"></path><path transform="translate(38,132)" d="M7.905694150420948,0A7.905694150420948,7.905694150420948,0,1,1,-7.905694150420948,0A7.905694150420948,7.905694150420948,0,1,1,7.905694150420948,0" style="fill: red; stroke-width: 2;"></path><path transform="translate(13,145)" d="M7.905694150420948,0A7.905694150420948,7.905694150420948,0,1,1,-7.905694150420948,0A7.905694150420948,7.905694150420948,0,1,1,7.905694150420948,0" style="fill: red; stroke-width: 2;"></path></g><g class="mark-path role-mark child_voronoi"><path transform="translate(0,0)" d="M20.716699801192846,31.72862823061631L128.20833333333334,216L139.9230769230769,216L45.48021582733813,40.606115107913666Z" style="fill: transparent; stroke: transparent; stroke-width: 0.35;"></path><path transform="translate(0,0)" d="M0,53.07142857142857L95.04166666666667,216L107.38461538461539,216L4.234584450402146,24.43565683646112L0,22.212499999999995Z" style="fill: transparent; stroke: transparent; stroke-width: 0.35;"></path><path transform="translate(0,0)" d="M0,22.212499999999995L4.234584450402146,24.43565683646112L20.716699801192846,31.72862823061631L45.48021582733813,40.606115107913666L61.40819348469891,44.62833168805528L89.29886685552408,48.56940509915014L404.99999999999994,0L0,0Z" style="fill: transparent; stroke: transparent; stroke-width: 0.35;"></path><path transform="translate(0,0)" d="M4.234584450402146,24.43565683646112L107.38461538461539,216L128.20833333333334,216L20.716699801192846,31.72862823061631Z" style="fill: transparent; stroke: transparent; stroke-width: 0.35;"></path><path transform="translate(0,0)" d="M45.48021582733813,40.606115107913666L139.9230769230769,216L161.375,216L61.40819348469891,44.62833168805528Z" style="fill: transparent; stroke: transparent; stroke-width: 0.35;"></path><path transform="translate(0,0)" d="M89.29886685552408,48.56940509915014L183.06,216L864,216L864,0L404.99999999999994,0Z" style="fill: transparent; stroke: transparent; stroke-width: 0.35;"></path><path transform="translate(0,0)" d="M0,108.92857142857144L62.45833333333333,216L68.88461538461537,216L0,66.75Z" style="fill: transparent; stroke: transparent; stroke-width: 0.35;"></path><path transform="translate(0,0)" d="M42.84615384615387,216L0,136.42857142857142L0,216Z" style="fill: transparent; stroke: transparent; stroke-width: 0.35;"></path><path transform="translate(0,0)" d="M61.40819348469891,44.62833168805528L161.375,216L183.06,216L89.29886685552408,48.56940509915014Z" style="fill: transparent; stroke: transparent; stroke-width: 0.35;"></path><path transform="translate(0,0)" d="M0,66.75L68.88461538461537,216L95.04166666666667,216L0,53.07142857142857Z" style="fill: transparent; stroke: transparent; stroke-width: 0.35;"></path><path transform="translate(0,0)" d="M0,136.42857142857142L42.84615384615387,216L62.45833333333333,216L0,108.92857142857144Z" style="fill: transparent; stroke: transparent; stroke-width: 0.35;"></path></g><g class="mark-rect role-mark child_brush_brush"><path d="M0,0h0v200h0Z" style="fill: transparent;"></path></g></g></g></g></g></g><g transform="translate(656,8)"><path class="background" d="M0.5,0.5h200v200h-200Z" style="fill: transparent; stroke: #ccc; stroke-width: 1;"></path><g><g class="mark-group role-axis"><g transform="translate(0.5,200.5)"><path class="background" d="M0,0h0v0h0Z" style="pointer-events: none; fill: none;"></path><g><g class="mark-rule role-axis-grid" style="pointer-events: none;"><line transform="translate(13,-200)" x2="0" y2="200" style="fill: none; stroke: #ddd; stroke-width: 1; stroke-dasharray: ; opacity: 1;"></line><line transform="translate(75,-200)" x2="0" y2="200" style="fill: none; stroke: #ddd; stroke-width: 1; stroke-dasharray: ; opacity: 1;"></line><line transform="translate(138,-200)" x2="0" y2="200" style="fill: none; stroke: #ddd; stroke-width: 1; stroke-dasharray: ; opacity: 1;"></line><line transform="translate(200,-200)" x2="0" y2="200" style="fill: none; stroke: #ddd; stroke-width: 1; stroke-dasharray: ; opacity: 1;"></line></g></g></g></g><g class="mark-group role-axis"><g transform="translate(0.5,0.5)"><path class="background" d="M0,0h0v0h0Z" style="pointer-events: none; fill: none;"></path><g><g class="mark-rule role-axis-grid" style="pointer-events: none;"><line transform="translate(0,200)" x2="200" y2="0" style="fill: none; stroke: #ddd; stroke-width: 1; stroke-dasharray: ; opacity: 1;"></line><line transform="translate(0,180)" x2="200" y2="0" style="fill: none; stroke: #ddd; stroke-width: 1; stroke-dasharray: ; opacity: 1;"></line><line transform="translate(0,160)" x2="200" y2="0" style="fill: none; stroke: #ddd; stroke-width: 1; stroke-dasharray: ; opacity: 1;"></line><line transform="translate(0,140)" x2="200" y2="0" style="fill: none; stroke: #ddd; stroke-width: 1; stroke-dasharray: ; opacity: 1;"></line><line transform="translate(0,120)" x2="200" y2="0" style="fill: none; stroke: #ddd; stroke-width: 1; stroke-dasharray: ; opacity: 1;"></line><line transform="translate(0,100)" x2="200" y2="0" style="fill: none; stroke: #ddd; stroke-width: 1; stroke-dasharray: ; opacity: 1;"></line><line transform="translate(0,80)" x2="200" y2="0" style="fill: none; stroke: #ddd; stroke-width: 1; stroke-dasharray: ; opacity: 1;"></line><line transform="translate(0,60)" x2="200" y2="0" style="fill: none; stroke: #ddd; stroke-width: 1; stroke-dasharray: ; opacity: 1;"></line><line transform="translate(0,40)" x2="200" y2="0" style="fill: none; stroke: #ddd; stroke-width: 1; stroke-dasharray: ; opacity: 1;"></line><line transform="translate(0,20)" x2="200" y2="0" style="fill: none; stroke: #ddd; stroke-width: 1; stroke-dasharray: ; opacity: 1;"></line><line transform="translate(0,0)" x2="200" y2="0" style="fill: none; stroke: #ddd; stroke-width: 1; stroke-dasharray: ; opacity: 1;"></line></g></g></g></g><g class="mark-group role-mark"><g transform="translate(0,0)"><path class="background" d="M0,0h200v200h-200Z" style="fill: transparent;"></path><g clip-path="url(#clip4)"><g class="mark-rect role-mark"><path d="M0,0h0v200h0Z" style="fill: #eee;"></path></g><g class="mark-symbol role-circle child_marks"><path transform="translate(50,128)" d="M7.905694150420948,0A7.905694150420948,7.905694150420948,0,1,1,-7.905694150420948,0A7.905694150420948,7.905694150420948,0,1,1,7.905694150420948,0" style="fill: red; stroke-width: 2;"></path><path transform="translate(50,145)" d="M7.905694150420948,0A7.905694150420948,7.905694150420948,0,1,1,-7.905694150420948,0A7.905694150420948,7.905694150420948,0,1,1,7.905694150420948,0" style="fill: red; stroke-width: 2;"></path><path transform="translate(50,106)" d="M7.905694150420948,0A7.905694150420948,7.905694150420948,0,1,1,-7.905694150420948,0A7.905694150420948,7.905694150420948,0,1,1,7.905694150420948,0" style="fill: red; stroke-width: 2;"></path><path transform="translate(50,83)" d="M7.905694150420948,0A7.905694150420948,7.905694150420948,0,1,1,-7.905694150420948,0A7.905694150420948,7.905694150420948,0,1,1,7.905694150420948,0" style="fill: red; stroke-width: 2;"></path><path transform="translate(50,91)" d="M7.905694150420948,0A7.905694150420948,7.905694150420948,0,1,1,-7.905694150420948,0A7.905694150420948,7.905694150420948,0,1,1,7.905694150420948,0" style="fill: red; stroke-width: 2;"></path><path transform="translate(50,119)" d="M7.905694150420948,0A7.905694150420948,7.905694150420948,0,1,1,-7.905694150420948,0A7.905694150420948,7.905694150420948,0,1,1,7.905694150420948,0" style="fill: red; stroke-width: 2;"></path><path transform="translate(50,155)" d="M7.905694150420948,0A7.905694150420948,7.905694150420948,0,1,1,-7.905694150420948,0A7.905694150420948,7.905694150420948,0,1,1,7.905694150420948,0" style="fill: red; stroke-width: 2;"></path><path transform="translate(188,10)" d="M7.905694150420948,0A7.905694150420948,7.905694150420948,0,1,1,-7.905694150420948,0A7.905694150420948,7.905694150420948,0,1,1,7.905694150420948,0" style="fill: red; stroke-width: 2;"></path><path transform="translate(50,149)" d="M7.905694150420948,0A7.905694150420948,7.905694150420948,0,1,1,-7.905694150420948,0A7.905694150420948,7.905694150420948,0,1,1,7.905694150420948,0" style="fill: red; stroke-width: 2;"></path><path transform="translate(50,102)" d="M7.905694150420948,0A7.905694150420948,7.905694150420948,0,1,1,-7.905694150420948,0A7.905694150420948,7.905694150420948,0,1,1,7.905694150420948,0" style="fill: red; stroke-width: 2;"></path><path transform="translate(50,122)" d="M7.905694150420948,0A7.905694150420948,7.905694150420948,0,1,1,-7.905694150420948,0A7.905694150420948,7.905694150420948,0,1,1,7.905694150420948,0" style="fill: red; stroke-width: 2;"></path></g><g class="mark-path role-mark child_voronoi"><path transform="translate(0,0)" d="M0,136.5L176.7173913043478,136.5L166.8840579710145,125L0,125Z" style="fill: transparent; stroke: transparent; stroke-width: 0.35;"></path><path transform="translate(0,0)" d="M0,147L186.9891304347826,147L176.7173913043478,136.5L0,136.5Z" style="fill: transparent; stroke: transparent; stroke-width: 0.35;"></path><path transform="translate(0,0)" d="M0,112.5L156.91304347826087,112.5L151,104L0,104Z" style="fill: transparent; stroke: transparent; stroke-width: 0.35;"></path><path transform="translate(0,0)" d="M0,87L140.42391304347825,87L94.40217391304348,0L0,0Z" style="fill: transparent; stroke: transparent; stroke-width: 0.35;"></path><path transform="translate(0,0)" d="M0,96.5L146,96.5L140.42391304347825,87L0,87Z" style="fill: transparent; stroke: transparent; stroke-width: 0.35;"></path><path transform="translate(0,0)" d="M0,120.5L163.231884057971,120.5L156.91304347826087,112.5L0,112.5Z" style="fill: transparent; stroke: transparent; stroke-width: 0.35;"></path><path transform="translate(0,0)" d="M259.2717391304348,216L192.0253623188406,152L0,152L0,216Z" style="fill: transparent; stroke: transparent; stroke-width: 0.35;"></path><path transform="translate(0,0)" d="M94.40217391304348,0L140.42391304347825,87L146,96.5L151,104L156.91304347826087,112.5L163.231884057971,120.5L166.8840579710145,125L176.7173913043478,136.5L186.9891304347826,147L192.0253623188406,152L259.2717391304348,216L864,216L864,0Z" style="fill: transparent; stroke: transparent; stroke-width: 0.35;"></path><path transform="translate(0,0)" d="M0,152L192.0253623188406,152L186.9891304347826,147L0,147Z" style="fill: transparent; stroke: transparent; stroke-width: 0.35;"></path><path transform="translate(0,0)" d="M0,104L151,104L146,96.5L0,96.5Z" style="fill: transparent; stroke: transparent; stroke-width: 0.35;"></path><path transform="translate(0,0)" d="M0,125L166.8840579710145,125L163.231884057971,120.5L0,120.5Z" style="fill: transparent; stroke: transparent; stroke-width: 0.35;"></path></g><g class="mark-rect role-mark child_brush_brush"><path d="M0,0h0v200h0Z" style="fill: transparent;"></path></g></g></g></g></g></g></g><g class="mark-group role-axis"><g transform="translate(0.5,0.5)"><path class="background" d="M0,0h0v0h0Z" style="pointer-events: none; fill: none;"></path><g><g class="mark-text role-axis-label" style="pointer-events: none;"><text text-anchor="middle" transform="translate(108,-4)" style="font: 10px sans-serif; fill: #000; opacity: 1;">I</text><text text-anchor="middle" transform="translate(324,-4)" style="font: 10px sans-serif; fill: #000; opacity: 1;">II</text><text text-anchor="middle" transform="translate(540,-4)" style="font: 10px sans-serif; fill: #000; opacity: 1;">III</text><text text-anchor="middle" transform="translate(756,-4)" style="font: 10px sans-serif; fill: #000; opacity: 1;">IV</text></g><g class="mark-text role-axis-title" style="pointer-events: none;"><text text-anchor="middle" transform="translate(432,-17)" style="font: bold 11px sans-serif; fill: #000; opacity: 1;">Series</text></g></g></g></g></g></g></g></g></g></g></g></svg>