<svg class="marks" width="648" height="364" viewBox="0 0 648 364" version="1.1" xmlns="http://www.w3.org/2000/svg" xmlns:xlink="http://www.w3.org/1999/xlink"><g transform="translate(43,27)"><g class="mark-group role-frame root"><g transform="translate(0,0)"><path class="background" d="M0.5,0.5h600v300h-600Z" style="fill: none; stroke: #ddd;"></path><g><g class="mark-group role-axis"><g transform="translate(0.5,300.5)"><path class="background" d="M0,0h0v0h0Z" style="pointer-events: none; fill: none;"></path><g><g class="mark-rule role-axis-grid" style="pointer-events: none;"><line transform="translate(0,-300)" x2="0" y2="300" style="fill: none; stroke: #ddd; stroke-width: 1; opacity: 1;"></line><line transform="translate(51,-300)" x2="0" y2="300" style="fill: none; stroke: #ddd; stroke-width: 1; opacity: 1;"></line><line transform="translate(97,-300)" x2="0" y2="300" style="fill: none; stroke: #ddd; stroke-width: 1; opacity: 1;"></line><line transform="translate(148,-300)" x2="0" y2="300" style="fill: none; stroke: #ddd; stroke-width: 1; opacity: 1;"></line><line transform="translate(198,-300)" x2="0" y2="300" style="fill: none; stroke: #ddd; stroke-width: 1; opacity: 1;"></line><line transform="translate(249,-300)" x2="0" y2="300" style="fill: none; stroke: #ddd; stroke-width: 1; opacity: 1;"></line><line transform="translate(298,-300)" x2="0" y2="300" style="fill: none; stroke: #ddd; stroke-width: 1; opacity: 1;"></line><line transform="translate(349,-300)" x2="0" y2="300" style="fill: none; stroke: #ddd; stroke-width: 1; opacity: 1;"></line><line transform="translate(401,-300)" x2="0" y2="300" style="fill: none; stroke: #ddd; stroke-width: 1; opacity: 1;"></line><line transform="translate(450,-300)" x2="0" y2="300" style="fill: none; stroke: #ddd; stroke-width: 1; opacity: 1;"></line><line transform="translate(501,-300)" x2="0" y2="300" style="fill: none; stroke: #ddd; stroke-width: 1; opacity: 1;"></line><line transform="translate(551,-300)" x2="0" y2="300" style="fill: none; stroke: #ddd; stroke-width: 1; opacity: 1;"></line></g></g></g></g><g class="mark-group role-axis"><g transform="translate(0.5,0.5)"><path class="background" d="M0,0h0v0h0Z" style="pointer-events: none; fill: none;"></path><g><g class="mark-rule role-axis-grid" style="pointer-events: none;"><line transform="translate(0,300)" x2="600" y2="0" style="fill: none; stroke: #ddd; stroke-width: 1; opacity: 1;"></line><line transform="translate(0,270)" x2="600" y2="0" style="fill: none; stroke: #ddd; stroke-width: 1; opacity: 1;"></line><line transform="translate(0,240)" x2="600" y2="0" style="fill: none; stroke: #ddd; stroke-width: 1; opacity: 1;"></line><line transform="translate(0,210)" x2="600" y2="0" style="fill: none; stroke: #ddd; stroke-width: 1; opacity: 1;"></line><line transform="translate(0,180)" x2="600" y2="0" style="fill: none; stroke: #ddd; stroke-width: 1; opacity: 1;"></line><line transform="translate(0,150)" x2="600" y2="0" style="fill: none; stroke: #ddd; stroke-width: 1; opacity: 1;"></line><line transform="translate(0,120)" x2="600" y2="0" style="fill: none; stroke: #ddd; stroke-width: 1; opacity: 1;"></line><line transform="translate(0,90)" x2="600" y2="0" style="fill: none; stroke: #ddd; stroke-width: 1; opacity: 1;"></line><line transform="translate(0,60)" x2="600" y2="0" style="fill: none; stroke: #ddd; stroke-width: 1; opacity: 1;"></line><line transform="translate(0,30)" x2="600" y2="0" style="fill: none; stroke: #ddd; stroke-width: 1; opacity: 1;"></line><line transform="translate(0,0)" x2="600" y2="0" style="fill: none; stroke: #ddd; stroke-width: 1; opacity: 1;"></line></g></g></g></g><g class="mark-group role-axis"><g transform="translate(0.5,300.5)"><path class="background" d="M0,0h0v0h0Z" style="pointer-events: none; fill: none;"></path><g><g class="mark-rule role-axis-tick" style="pointer-events: none;"><line transform="translate(0,0)" x2="0" y2="5" style="fill: none; stroke: #888; stroke-width: 1; opacity: 1;"></line><line transform="translate(51,0)" x2="0" y2="5" style="fill: none; stroke: #888; stroke-width: 1; opacity: 1;"></line><line transform="translate(97,0)" x2="0" y2="5" style="fill: none; stroke: #888; stroke-width: 1; opacity: 1;"></line><line transform="translate(148,0)" x2="0" y2="5" style="fill: none; stroke: #888; stroke-width: 1; opacity: 1;"></line><line transform="translate(198,0)" x2="0" y2="5" style="fill: none; stroke: #888; stroke-width: 1; opacity: 1;"></line><line transform="translate(249,0)" x2="0" y2="5" style="fill: none; stroke: #888; stroke-width: 1; opacity: 1;"></line><line transform="translate(298,0)" x2="0" y2="5" style="fill: none; stroke: #888; stroke-width: 1; opacity: 1;"></line><line transform="translate(349,0)" x2="0" y2="5" style="fill: none; stroke: #888; stroke-width: 1; opacity: 1;"></line><line transform="translate(401,0)" x2="0" y2="5" style="fill: none; stroke: #888; stroke-width: 1; opacity: 1;"></line><line transform="translate(450,0)" x2="0" y2="5" style="fill: none; stroke: #888; stroke-width: 1; opacity: 1;"></line><line transform="translate(501,0)" x2="0" y2="5" style="fill: none; stroke: #888; stroke-width: 1; opacity: 1;"></line><line transform="translate(551,0)" x2="0" y2="5" style="fill: none; stroke: #888; stroke-width: 1; opacity: 1;"></line></g><g class="mark-text role-axis-label" style="pointer-events: none;"><text text-anchor="start" transform="translate(0,15)" style="font-family: sans-serif; font-size: 10px; fill: #000; opacity: 1;">Jan</text><text text-anchor="middle" transform="translate(51.0989010989011,15)" style="font-family: sans-serif; font-size: 10px; fill: #000; opacity: 1;">Feb</text><text text-anchor="middle" transform="translate(97.25274725274726,15)" style="font-family: sans-serif; font-size: 10px; fill: #000; opacity: 1;">Mar</text><text text-anchor="middle" transform="translate(148.35164835164835,15)" style="font-family: sans-serif; font-size: 10px; fill: #000; opacity: 1;">Apr</text><text text-anchor="middle" transform="translate(197.8021978021978,15)" style="font-family: sans-serif; font-size: 10px; fill: #000; opacity: 1;">May</text><text text-anchor="middle" transform="translate(248.90109890109892,15)" style="font-family: sans-serif; font-size: 10px; fill: #000; opacity: 1;">Jun</text><text text-anchor="middle" transform="translate(298.35164835164835,15)" style="font-family: sans-serif; font-size: 10px; fill: #000; opacity: 1;">Jul</text><text text-anchor="middle" transform="translate(349.4505494505495,15)" style="font-family: sans-serif; font-size: 10px; fill: #000; opacity: 1;">Aug</text><text text-anchor="middle" transform="translate(400.5494505494505,15)" style="font-family: sans-serif; font-size: 10px; fill: #000; opacity: 1;">Sep</text><text text-anchor="middle" transform="translate(450,15)" style="font-family: sans-serif; font-size: 10px; fill: #000; opacity: 1;">Oct</text><text text-anchor="middle" transform="translate(501.09890109890114,15)" style="font-family: sans-serif; font-size: 10px; fill: #000; opacity: 1;">Nov</text><text text-anchor="middle" transform="translate(550.5494505494505,15)" style="font-family: sans-serif; font-size: 10px; fill: #000; opacity: 1;">Dec</text></g><g class="mark-rule role-axis-domain" style="pointer-events: none;"><line transform="translate(0,0)" x2="600" y2="0" style="fill: none; stroke: #888; stroke-width: 1; opacity: 1;"></line></g><g class="mark-text role-axis-title" style="pointer-events: none;"><text text-anchor="middle" transform="translate(300,30)" style="font-family: sans-serif; font-size: 11px; font-weight: bold; fill: #000; opacity: 1;">Date</text></g></g></g></g><g class="mark-group role-axis"><g transform="translate(0.5,0.5)"><path class="background" d="M0,0h0v0h0Z" style="pointer-events: none; fill: none;"></path><g><g class="mark-rule role-axis-tick" style="pointer-events: none;"><line transform="translate(0,300)" x2="-5" y2="0" style="fill: none; stroke: #888; stroke-width: 1; opacity: 1;"></line><line transform="translate(0,270)" x2="-5" y2="0" style="fill: none; stroke: #888; stroke-width: 1; opacity: 1;"></line><line transform="translate(0,240)" x2="-5" y2="0" style="fill: none; stroke: #888; stroke-width: 1; opacity: 1;"></line><line transform="translate(0,210)" x2="-5" y2="0" style="fill: none; stroke: #888; stroke-width: 1; opacity: 1;"></line><line transform="translate(0,180)" x2="-5" y2="0" style="fill: none; stroke: #888; stroke-width: 1; opacity: 1;"></line><line transform="translate(0,150)" x2="-5" y2="0" style="fill: none; stroke: #888; stroke-width: 1; opacity: 1;"></line><line transform="translate(0,120)" x2="-5" y2="0" style="fill: none; stroke: #888; stroke-width: 1; opacity: 1;"></line><line transform="translate(0,90)" x2="-5" y2="0" style="fill: none; stroke: #888; stroke-width: 1; opacity: 1;"></line><line transform="translate(0,60)" x2="-5" y2="0" style="fill: none; stroke: #888; stroke-width: 1; opacity: 1;"></line><line transform="translate(0,30)" x2="-5" y2="0" style="fill: none; stroke: #888; stroke-width: 1; opacity: 1;"></line><line transform="translate(0,0)" x2="-5" y2="0" style="fill: none; stroke: #888; stroke-width: 1; opacity: 1;"></line></g><g class="mark-text role-axis-label" style="pointer-events: none;"><text text-anchor="end" transform="translate(-7,303)" style="font-family: sans-serif; font-size: 10px; fill: #000; opacity: 1;">-10</text><text text-anchor="end" transform="translate(-7,273)" style="font-family: sans-serif; font-size: 10px; fill: #000; opacity: 1;">-5</text><text text-anchor="end" transform="translate(-7,243)" style="font-family: sans-serif; font-size: 10px; fill: #000; opacity: 1;">0</text><text text-anchor="end" transform="translate(-7,213)" style="font-family: sans-serif; font-size: 10px; fill: #000; opacity: 1;">5</text><text text-anchor="end" transform="translate(-7,183)" style="font-family: sans-serif; font-size: 10px; fill: #000; opacity: 1;">10</text><text text-anchor="end" transform="translate(-7,153)" style="font-family: sans-serif; font-size: 10px; fill: #000; opacity: 1;">15</text><text text-anchor="end" transform="translate(-7,123)" style="font-family: sans-serif; font-size: 10px; fill: #000; opacity: 1;">20</text><text text-anchor="end" transform="translate(-7,93)" style="font-family: sans-serif; font-size: 10px; fill: #000; opacity: 1;">25</text><text text-anchor="end" transform="translate(-7,63)" style="font-family: sans-serif; font-size: 10px; fill: #000; opacity: 1;">30</text><text text-anchor="end" transform="translate(-7,33)" style="font-family: sans-serif; font-size: 10px; fill: #000; opacity: 1;">35</text><text text-anchor="end" transform="translate(-7,3)" style="font-family: sans-serif; font-size: 10px; fill: #000; opacity: 1;">40</text></g><g class="mark-rule role-axis-domain" style="pointer-events: none;"><line transform="translate(0,300)" x2="0" y2="-300" style="fill: none; stroke: #888; stroke-width: 1; opacity: 1;"></line></g><g class="mark-text role-axis-title" style="pointer-events: none;"><text text-anchor="middle" transform="translate(-27,150) rotate(-90) translate(0,-2)" style="font-family: sans-serif; font-size: 11px; font-weight: bold; fill: #000; opacity: 1;">Daily Temperature Range (C)</text></g></g></g></g><g class="mark-area role-mark marks"><path d="M0,163.2L1.6483516483516485,176.39999999999998L3.296703296703297,169.8L4.945054945054945,166.8L6.593406593406594,166.8L8.241758241758241,166.8L9.89010989010989,180L11.538461538461538,169.8L13.186813186813188,180L14.835164835164834,163.2L16.483516483516482,153.6L18.13186813186813,173.39999999999998L19.78021978021978,176.39999999999998L21.428571428571427,173.39999999999998L23.076923076923077,173.39999999999998L24.725274725274726,169.8L26.373626373626376,160.2L28.021978021978022,156.6L29.670329670329668,180L31.31868131868132,180L32.967032967032964,180L34.61538461538462,183.60000000000002L36.26373626373626,166.8L37.91208791208791,153.6L39.56043956043956,136.79999999999998L41.20879120879121,143.4L42.857142857142854,173.39999999999998L44.505494505494504,166.8L46.15384615384615,166.8L47.802197802197796,186.60000000000002L49.45054945054945,183.60000000000002L51.0989010989011,169.8L52.74725274725275,173.39999999999998L54.395604395604394,153.6L56.043956043956044,146.4L57.69230769230769,156.6L59.340659340659336,143.4L60.989010989010985,146.4L62.63736263736264,150L64.28571428571428,160.2L65.93406593406593,163.2L67.58241758241758,163.2L69.23076923076924,139.79999999999998L70.87912087912088,146.4L72.52747252747253,153.6L74.17582417582418,160.2L75.82417582417582,150L77.47252747252747,143.4L79.12087912087912,166.8L80.76923076923076,176.39999999999998L82.41758241758242,173.39999999999998L84.06593406593407,166.8L85.71428571428571,169.8L87.36263736263737,163.2L89.01098901098901,173.39999999999998L90.65934065934066,166.8L92.3076923076923,156.6L93.95604395604396,163.2L95.60439560439559,153.6L97.25274725274726,150L98.9010989010989,156.6L100.54945054945054,153.6L102.1978021978022,156.6L103.84615384615384,146.4L105.4945054945055,150L107.14285714285714,139.79999999999998L108.79120879120879,136.79999999999998L110.43956043956045,150L112.08791208791209,160.2L113.73626373626374,153.6L115.38461538461539,133.2L117.03296703296704,136.79999999999998L118.68131868131867,153.6L120.32967032967034,139.79999999999998L121.97802197802197,156.6L123.62637362637362,160.2L125.27472527472528,146.4L126.92307692307692,146.4L128.57142857142856,156.6L130.21978021978023,160.2L131.86813186813185,169.8L133.5164835164835,163.2L135.16483516483515,126.60000000000002L136.8131868131868,139.79999999999998L138.46153846153848,116.4L140.1098901098901,130.2L141.75824175824175,143.4L143.4065934065934,130.2L145.05494505494505,120L146.7032967032967,116.4L148.35164835164835,136.79999999999998L150,139.79999999999998L151.64835164835165,139.79999999999998L153.2967032967033,153.6L154.94505494505495,139.79999999999998L156.5934065934066,156.6L158.24175824175825,113.4L159.8901098901099,113.4L161.53846153846152,120L163.18681318681317,133.2L164.83516483516485,136.79999999999998L166.4835164835165,143.4L168.13186813186815,116.4L169.78021978021977,120L171.42857142857142,143.4L173.07692307692307,133.2L174.72527472527474,126.60000000000002L176.3736263736264,126.60000000000002L178.02197802197801,113.4L179.67032967032966,103.20000000000002L181.3186813186813,120L182.967032967033,100.20000000000002L184.6153846153846,109.80000000000001L186.26373626373626,113.4L187.9120879120879,109.80000000000001L189.56043956043956,116.4L191.20879120879118,90L192.85714285714286,143.4L194.5054945054945,90L196.15384615384616,73.20000000000005L197.8021978021978,63.60000000000002L199.45054945054943,116.4L201.09890109890108,109.80000000000001L202.74725274725276,90L204.3956043956044,66.6L206.04395604395606,56.39999999999998L207.69230769230768,96.60000000000002L209.34065934065933,96.60000000000002L210.989010989011,79.79999999999998L212.63736263736266,83.4L214.28571428571428,76.79999999999995L215.93406593406593,93.60000000000002L217.58241758241758,79.79999999999998L219.23076923076923,73.20000000000005L220.8791208791209,79.79999999999998L222.52747252747253,109.80000000000001L224.17582417582418,120L225.82417582417582,86.39999999999998L227.47252747252747,109.80000000000001L229.1208791208791,100.20000000000002L230.76923076923077,86.39999999999998L232.41758241758242,93.60000000000002L234.06593406593407,120L235.71428571428572,130.2L237.36263736263734,106.79999999999998L239.010989010989,106.79999999999998L240.65934065934067,93.60000000000002L242.30769230769232,73.20000000000005L243.95604395604394,83.4L245.6043956043956,103.20000000000002L247.25274725274724,90L248.90109890109892,103.20000000000002L250.54945054945057,100.20000000000002L252.1978021978022,106.79999999999998L253.84615384615384,83.4L255.4945054945055,79.79999999999998L257.1428571428571,63.60000000000002L258.7912087912088,53.39999999999998L260.43956043956047,56.39999999999998L262.0879120879121,66.6L263.7362637362637,86.39999999999998L265.38461538461536,93.60000000000002L267.032967032967,109.80000000000001L268.6813186813187,96.60000000000002L270.3296703296703,73.20000000000005L271.97802197802196,60L273.6263736263736,96.60000000000002L275.27472527472526,86.39999999999998L276.92307692307696,93.60000000000002L278.57142857142856,86.39999999999998L280.2197802197802,90L281.86813186813185,86.39999999999998L283.5164835164835,86.39999999999998L285.16483516483515,83.4L286.8131868131868,86.39999999999998L288.46153846153845,56.39999999999998L290.1098901098901,49.79999999999998L291.75824175824175,40.19999999999999L293.4065934065934,56.39999999999998L295.05494505494505,60L296.7032967032967,36.60000000000002L298.35164835164835,33.60000000000002L300,36.60000000000002L301.64835164835165,40.19999999999999L303.2967032967033,40.19999999999999L304.94505494505495,43.19999999999999L306.5934065934066,63.60000000000002L308.2417582417582,76.79999999999995L309.8901098901099,60L311.53846153846155,60L313.1868131868132,66.6L314.83516483516485,53.39999999999998L316.4835164835165,46.79999999999998L318.13186813186815,63.60000000000002L319.7802197802198,73.20000000000005L321.42857142857144,53.39999999999998L323.07692307692304,53.39999999999998L324.7252747252747,73.20000000000005L326.37362637362634,40.19999999999999L328.021978021978,30L329.6703296703297,79.79999999999998L331.31868131868134,96.60000000000002L332.967032967033,83.4L334.61538461538464,53.39999999999998L336.2637362637363,53.39999999999998L337.9120879120879,53.39999999999998L339.56043956043953,53.39999999999998L341.2087912087912,70.20000000000002L342.85714285714283,56.39999999999998L344.5054945054945,46.79999999999998L346.15384615384613,33.60000000000002L347.80219780219784,33.60000000000002L349.4505494505495,40.19999999999999L351.09890109890114,56.39999999999998L352.7472527472528,49.79999999999998L354.3956043956044,36.60000000000002L356.04395604395603,36.60000000000002L357.6923076923077,56.39999999999998L359.34065934065933,53.39999999999998L360.989010989011,70.20000000000002L362.6373626373626,70.20000000000002L364.2857142857143,56.39999999999998L365.934065934066,26.399999999999977L367.58241758241763,56.39999999999998L369.2307692307692,56.39999999999998L370.8791208791209,66.6L372.5274725274725,53.39999999999998L374.1758241758242,33.60000000000002L375.8241758241758,43.19999999999999L377.4725274725275,60L379.1208791208791,49.79999999999998L380.7692307692308,86.39999999999998L382.41758241758237,73.20000000000005L384.065934065934,66.6L385.7142857142857,73.20000000000005L387.3626373626374,90L389.010989010989,66.6L390.65934065934067,53.39999999999998L392.3076923076923,63.60000000000002L393.95604395604397,79.79999999999998L395.6043956043956,96.60000000000002L397.2527472527472,83.4L398.90109890109886,73.20000000000005L400.5494505494505,73.20000000000005L402.19780219780216,73.20000000000005L403.84615384615387,90L405.4945054945055,93.60000000000002L407.14285714285717,73.20000000000005L408.7912087912088,46.79999999999998L410.43956043956047,46.79999999999998L412.0879120879121,79.79999999999998L413.7362637362637,83.4L415.38461538461536,79.79999999999998L417.032967032967,36.60000000000002L418.68131868131866,79.79999999999998L420.3296703296703,70.20000000000002L421.978021978022,60L423.62637362637366,56.39999999999998L425.2747252747253,93.60000000000002L426.92307692307696,73.20000000000005L428.57142857142856,73.20000000000005L430.2197802197802,86.39999999999998L431.86813186813185,93.60000000000002L433.5164835164835,83.4L435.16483516483515,106.79999999999998L436.8131868131868,116.4L438.46153846153845,106.79999999999998L440.1098901098901,109.80000000000001L441.7582417582418,120L443.4065934065934,103.20000000000002L445.05494505494505,90L446.7032967032967,109.80000000000001L448.35164835164835,113.4L450,100.20000000000002L451.64835164835165,123.60000000000002L453.2967032967033,106.79999999999998L454.94505494505495,103.20000000000002L456.5934065934066,96.60000000000002L458.2417582417582,86.39999999999998L459.8901098901099,96.60000000000002L461.53846153846155,113.4L463.1868131868132,123.60000000000002L464.83516483516485,113.4L466.4835164835165,130.2L468.13186813186815,130.2L469.7802197802198,113.4L471.42857142857144,133.2L473.07692307692304,113.4L474.7252747252747,116.4L476.37362637362634,123.60000000000002L478.021978021978,123.60000000000002L479.6703296703297,106.79999999999998L481.31868131868134,133.2L482.967032967033,143.4L484.61538461538464,143.4L486.2637362637363,153.6L487.9120879120879,150L489.56043956043953,123.60000000000002L491.2087912087912,163.2L492.85714285714283,143.4L494.5054945054945,150L496.15384615384613,139.79999999999998L497.80219780219784,136.79999999999998L499.4505494505495,146.4L501.09890109890114,133.2L502.7472527472528,150L504.3956043956044,146.4L506.04395604395603,133.2L507.6923076923077,150L509.34065934065933,139.79999999999998L510.989010989011,153.6L512.6373626373626,160.2L514.2857142857142,160.2L515.934065934066,173.39999999999998L517.5824175824176,143.4L519.2307692307693,146.4L520.8791208791209,156.6L522.5274725274726,173.39999999999998L524.1758241758242,176.39999999999998L525.8241758241758,180L527.4725274725274,160.2L529.1208791208791,163.2L530.7692307692307,160.2L532.4175824175824,173.39999999999998L534.065934065934,173.39999999999998L535.7142857142858,180L537.3626373626374,163.2L539.0109890109891,169.8L540.6593406593406,156.6L542.3076923076923,150L543.9560439560439,153.6L545.6043956043956,163.2L547.2527472527472,163.2L548.9010989010989,150L550.5494505494505,160.2L552.1978021978022,176.39999999999998L553.8461538461539,146.4L555.4945054945056,169.8L557.1428571428571,163.2L558.7912087912088,163.2L560.4395604395604,153.6L562.0879120879121,146.4L563.7362637362637,143.4L565.3846153846154,126.60000000000002L567.032967032967,153.6L568.6813186813187,173.39999999999998L570.3296703296703,180L571.978021978022,163.2L573.6263736263736,166.8L575.2747252747253,180L576.9230769230769,186.60000000000002L578.5714285714286,183.60000000000002L580.2197802197802,173.39999999999998L581.8681318681319,163.2L583.5164835164835,163.2L585.1648351648352,176.39999999999998L586.8131868131868,166.8L588.4615384615385,190.2L590.1098901098901,193.2L591.7582417582418,199.8L593.4065934065934,183.60000000000002L595.054945054945,183.60000000000002L596.7032967032967,196.8L598.3516483516484,186.60000000000002L600,190.2L600,256.2L598.3516483516484,252.6L596.7032967032967,236.4L595.054945054945,229.8L593.4065934065934,240L591.7582417582418,240L590.1098901098901,229.8L588.4615384615385,226.8L586.8131868131868,223.2L585.1648351648352,223.2L583.5164835164835,250.2L581.8681318681319,236.4L580.2197802197802,240L578.5714285714286,236.4L576.9230769230769,229.8L575.2747252747253,223.2L573.6263736263736,236.4L571.978021978022,233.4L570.3296703296703,220.2L568.6813186813187,243L567.032967032967,249.6L565.3846153846154,236.4L563.7362637362637,269.4L562.0879120879121,279.6L560.4395604395604,282.6L558.7912087912088,265.8L557.1428571428571,269.4L555.4945054945056,252.6L553.8461538461539,243L552.1978021978022,259.2L550.5494505494505,259.2L548.9010989010989,269.4L547.2527472527472,265.8L545.6043956043956,256.2L543.9560439560439,249.6L542.3076923076923,246L540.6593406593406,240L539.0109890109891,236.4L537.3626373626374,240L535.7142857142858,240L534.065934065934,243L532.4175824175824,236.4L530.7692307692307,226.8L529.1208791208791,243L527.4725274725274,252.6L525.8241758241758,252.6L524.1758241758242,249.6L522.5274725274726,252.6L520.8791208791209,236.4L519.2307692307693,240L517.5824175824176,233.4L515.934065934066,243.6L514.2857142857142,233.4L512.6373626373626,233.4L510.989010989011,216.6L509.34065934065933,199.8L507.6923076923077,196.8L506.04395604395603,220.2L504.3956043956044,213.6L502.7472527472528,196.8L501.09890109890114,196.8L499.4505494505495,190.2L497.80219780219784,206.4L496.15384615384613,220.2L494.5054945054945,196.8L492.85714285714283,199.8L491.2087912087912,196.8L489.56043956043953,199.8L487.9120879120879,203.39999999999998L486.2637362637363,206.4L484.61538461538464,220.2L482.967032967033,213.6L481.31868131868134,203.39999999999998L479.6703296703297,193.2L478.021978021978,199.8L476.37362637362634,203.39999999999998L474.7252747252747,190.2L473.07692307692304,210L471.42857142857144,216.6L469.7802197802198,199.8L468.13186813186815,186.60000000000002L466.4835164835165,196.8L464.83516483516485,190.2L463.1868131868132,206.4L461.53846153846155,193.2L459.8901098901099,193.2L458.2417582417582,193.2L456.5934065934066,190.2L454.94505494505495,206.4L453.2967032967033,193.2L451.64835164835165,183.60000000000002L450,186.60000000000002L448.35164835164835,193.2L446.7032967032967,186.60000000000002L445.05494505494505,183.60000000000002L443.4065934065934,196.8L441.7582417582418,196.8L440.1098901098901,183.60000000000002L438.46153846153845,180L436.8131868131868,190.2L435.16483516483515,193.2L433.5164835164835,183.60000000000002L431.86813186813185,180L430.2197802197802,180L428.57142857142856,169.8L426.92307692307696,169.8L425.2747252747253,183.60000000000002L423.62637362637366,180L421.978021978022,176.39999999999998L420.3296703296703,180L418.68131868131866,180L417.032967032967,186.60000000000002L415.38461538461536,169.8L413.7362637362637,160.2L412.0879120879121,160.2L410.43956043956047,160.2L408.7912087912088,169.8L407.14285714285717,186.60000000000002L405.4945054945055,180L403.84615384615387,176.39999999999998L402.19780219780216,180L400.5494505494505,176.39999999999998L398.90109890109886,176.39999999999998L397.2527472527472,163.2L395.6043956043956,160.2L393.95604395604397,166.8L392.3076923076923,160.2L390.65934065934067,166.8L389.010989010989,169.8L387.3626373626374,180L385.7142857142857,156.6L384.065934065934,166.8L382.41758241758237,173.39999999999998L380.7692307692308,156.6L379.1208791208791,150L377.4725274725275,153.6L375.8241758241758,156.6L374.1758241758242,153.6L372.5274725274725,156.6L370.8791208791209,156.6L369.2307692307692,150L367.58241758241763,150L365.934065934066,160.2L364.2857142857143,166.8L362.6373626373626,153.6L360.989010989011,160.2L359.34065934065933,160.2L357.6923076923077,156.6L356.04395604395603,166.8L354.3956043956044,153.6L352.7472527472528,163.2L351.09890109890114,166.8L349.4505494505495,160.2L347.80219780219784,160.2L346.15384615384613,160.2L344.5054945054945,160.2L342.85714285714283,166.8L341.2087912087912,166.8L339.56043956043953,163.2L337.9120879120879,166.8L336.2637362637363,166.8L334.61538461538464,173.39999999999998L332.967032967033,166.8L331.31868131868134,163.2L329.6703296703297,160.2L328.021978021978,160.2L326.37362637362634,169.8L324.7252747252747,156.6L323.07692307692304,160.2L321.42857142857144,160.2L319.7802197802198,163.2L318.13186813186815,173.39999999999998L316.4835164835165,160.2L314.83516483516485,166.8L313.1868131868132,173.39999999999998L311.53846153846155,163.2L309.8901098901099,160.2L308.2417582417582,163.2L306.5934065934066,173.39999999999998L304.94505494505495,176.39999999999998L303.2967032967033,183.60000000000002L301.64835164835165,176.39999999999998L300,169.8L298.35164835164835,166.8L296.7032967032967,163.2L295.05494505494505,163.2L293.4065934065934,169.8L291.75824175824175,186.60000000000002L290.1098901098901,176.39999999999998L288.46153846153845,173.39999999999998L286.8131868131868,183.60000000000002L285.16483516483515,183.60000000000002L283.5164835164835,173.39999999999998L281.86813186813185,176.39999999999998L280.2197802197802,180L278.57142857142856,180L276.92307692307696,180L275.27472527472526,180L273.6263736263736,186.60000000000002L271.97802197802196,183.60000000000002L270.3296703296703,180L268.6813186813187,183.60000000000002L267.032967032967,169.8L265.38461538461536,180L263.7362637362637,180L262.0879120879121,190.2L260.43956043956047,190.2L258.7912087912088,186.60000000000002L257.1428571428571,203.39999999999998L255.4945054945055,190.2L253.84615384615384,186.60000000000002L252.1978021978022,183.60000000000002L250.54945054945057,176.39999999999998L248.90109890109892,176.39999999999998L247.25274725274724,180L245.6043956043956,186.60000000000002L243.95604395604394,193.2L242.30769230769232,180L240.65934065934067,180L239.010989010989,186.60000000000002L237.36263736263734,186.60000000000002L235.71428571428572,186.60000000000002L234.06593406593407,199.8L232.41758241758242,196.8L230.76923076923077,190.2L229.1208791208791,183.60000000000002L227.47252747252747,196.8L225.82417582417582,193.2L224.17582417582418,199.8L222.52747252747253,183.60000000000002L220.8791208791209,186.60000000000002L219.23076923076923,193.2L217.58241758241758,183.60000000000002L215.93406593406593,199.8L214.28571428571428,213.6L212.63736263736266,216.6L210.989010989011,199.8L209.34065934065933,190.2L207.69230769230768,203.39999999999998L206.04395604395606,210L204.3956043956044,210L202.74725274725276,203.39999999999998L201.09890109890108,196.8L199.45054945054943,206.4L197.8021978021978,220.2L196.15384615384616,213.6L194.5054945054945,199.8L192.85714285714286,213.6L191.20879120879118,203.39999999999998L189.56043956043956,213.6L187.9120879120879,206.4L186.26373626373626,203.39999999999998L184.6153846153846,216.6L182.967032967033,210L181.3186813186813,213.6L179.67032967032966,206.4L178.02197802197801,210L176.3736263736264,206.4L174.72527472527474,216.6L173.07692307692307,220.2L171.42857142857142,220.2L169.78021978021977,223.2L168.13186813186815,220.2L166.4835164835165,213.6L164.83516483516485,210L163.18681318681317,199.8L161.53846153846152,203.39999999999998L159.8901098901099,203.39999999999998L158.24175824175825,229.8L156.5934065934066,220.2L154.94505494505495,223.2L153.2967032967033,223.2L151.64835164835165,220.2L150,213.6L148.35164835164835,213.6L146.7032967032967,226.8L145.05494505494505,210L143.4065934065934,203.39999999999998L141.75824175824175,196.8L140.1098901098901,199.8L138.46153846153848,206.4L136.8131868131868,226.8L135.16483516483515,236.4L133.5164835164835,236.4L131.86813186813185,236.4L130.21978021978023,233.4L128.57142857142856,229.8L126.92307692307692,246.6L125.27472527472528,243.6L123.62637362637362,236.4L121.97802197802197,216.6L120.32967032967034,213.6L118.68131868131867,233.4L117.03296703296704,236.4L115.38461538461539,236.4L113.73626373626374,223.2L112.08791208791209,216.6L110.43956043956045,233.4L108.79120879120879,236.4L107.14285714285714,250.2L105.4945054945055,240L103.84615384615384,233.4L102.1978021978022,243L100.54945054945054,240L98.9010989010989,223.2L97.25274725274726,233.4L95.60439560439559,243.6L93.95604395604396,253.2L92.3076923076923,246.6L90.65934065934066,223.2L89.01098901098901,226.8L87.36263736263737,236.4L85.71428571428571,223.2L84.06593406593407,216.6L82.41758241758242,233.4L80.76923076923076,229.8L79.12087912087912,216.6L77.47252747252747,213.6L75.82417582417582,220.2L74.17582417582418,236.4L72.52747252747253,233.4L70.87912087912088,213.6L69.23076923076924,210L67.58241758241758,213.6L65.93406593406593,229.8L64.28571428571428,240L62.63736263736264,243L60.989010989010985,269.4L59.340659340659336,276L57.69230769230769,273L56.043956043956044,252.6L54.395604395604394,240L52.74725274725275,233.4L51.0989010989011,223.2L49.45054945054945,220.2L47.802197802197796,233.4L46.15384615384615,220.2L44.505494505494504,236.4L42.857142857142854,253.2L41.20879120879121,236.4L39.56043956043956,233.4L37.91208791208791,233.4L36.26373626373626,233.4L34.61538461538462,250.2L32.967032967032964,250.2L31.31868131868132,246.6L29.670329670329668,256.8L28.021978021978022,256.8L26.373626373626376,256.8L24.725274725274726,263.4L23.076923076923077,259.8L21.428571428571427,253.2L19.78021978021978,266.4L18.13186813186813,263.4L16.483516483516482,256.8L14.835164835164834,243.6L13.186813186813188,229.8L11.538461538461538,229.8L9.89010989010989,223.2L8.241758241758241,243L6.593406593406594,243L4.945054945054945,236.4L3.296703296703297,250.2L1.6483516483516485,246.6L0,259.2Z" style="fill: #4c78a8; opacity: 0.7;"></path></g><g class="mark-text role-title" style="pointer-events: none;"><text text-anchor="middle" transform="translate(300,-12)" style="font-family: sans-serif; font-size: 13px; font-weight: bold; fill: #000; opacity: 1;">Seattle Temperature Range, 2012-2015</text></g></g></g></g></g></svg>