<svg xmlns="http://www.w3.org/2000/svg" xmlns:xlink="http://www.w3.org/1999/xlink" version="1.1" class="marks" width="315" height="242" viewBox="0 0 315 242"><rect width="315" height="242" fill="white"/><g fill="none" stroke-miterlimit="10" transform="translate(110,5)"><g class="mark-group role-frame root" role="graphics-object" aria-roledescription="group mark container"><g transform="translate(0,0)"><path class="background" aria-hidden="true" d="M0.5,0.5h200v200h-200Z" stroke="#ddd"/><g><g class="mark-group role-axis" aria-hidden="true"><g transform="translate(0.5,200.5)"><path class="background" aria-hidden="true" d="M0,0h0v0h0Z" pointer-events="none"/><g><g class="mark-rule role-axis-grid" pointer-events="none"><line transform="translate(8,0)" x2="0" y2="-200" stroke="#ddd" stroke-width="1" opacity="1"/><line transform="translate(50,0)" x2="0" y2="-200" stroke="#ddd" stroke-width="1" opacity="1"/><line transform="translate(92,0)" x2="0" y2="-200" stroke="#ddd" stroke-width="1" opacity="1"/><line transform="translate(133,0)" x2="0" y2="-200" stroke="#ddd" stroke-width="1" opacity="1"/><line transform="translate(175,0)" x2="0" y2="-200" stroke="#ddd" stroke-width="1" opacity="1"/></g></g><path class="foreground" aria-hidden="true" d="" pointer-events="none" display="none"/></g></g><g class="mark-group role-axis" role="graphics-symbol" aria-roledescription="axis" aria-label="X-axis titled 'Barley Yield' for a linear scale with values from 24 to 48"><g transform="translate(0.5,200.5)"><path class="background" aria-hidden="true" d="M0,0h0v0h0Z" pointer-events="none"/><g><g class="mark-rule role-axis-tick" pointer-events="none"><line transform="translate(8,0)" x2="0" y2="5" stroke="#888" stroke-width="1" opacity="1"/><line transform="translate(50,0)" x2="0" y2="5" stroke="#888" stroke-width="1" opacity="1"/><line transform="translate(92,0)" x2="0" y2="5" stroke="#888" stroke-width="1" opacity="1"/><line transform="translate(133,0)" x2="0" y2="5" stroke="#888" stroke-width="1" opacity="1"/><line transform="translate(175,0)" x2="0" y2="5" stroke="#888" stroke-width="1" opacity="1"/></g><g class="mark-text role-axis-label" pointer-events="none"><text text-anchor="middle" transform="translate(8.333333333333332,15)" font-family="sans-serif" font-size="10px" fill="#000" opacity="1">25</text><text text-anchor="middle" transform="translate(50,15)" font-family="sans-serif" font-size="10px" fill="#000" opacity="1">30</text><text text-anchor="middle" transform="translate(91.66666666666666,15)" font-family="sans-serif" font-size="10px" fill="#000" opacity="1">35</text><text text-anchor="middle" transform="translate(133.33333333333331,15)" font-family="sans-serif" font-size="10px" fill="#000" opacity="1">40</text><text text-anchor="middle" transform="translate(175,15)" font-family="sans-serif" font-size="10px" fill="#000" opacity="1">45</text></g><g class="mark-rule role-axis-domain" pointer-events="none"><line transform="translate(0,0)" x2="200" y2="0" stroke="#888" stroke-width="1" opacity="1"/></g><g class="mark-text role-axis-title" pointer-events="none"><text text-anchor="middle" transform="translate(100,30)" font-family="sans-serif" font-size="11px" font-weight="bold" fill="#000" opacity="1">Barley Yield</text></g></g><path class="foreground" aria-hidden="true" d="" pointer-events="none" display="none"/></g></g><g class="mark-group role-axis" role="graphics-symbol" aria-roledescription="axis" aria-label="Y-axis titled 'variety' for a discrete scale with 10 values: Glabron, Manchuria, No. 457, No. 462, No. 475, ending with Wisconsin No. 38"><g transform="translate(0.5,0.5)"><path class="background" aria-hidden="true" d="M0,0h0v0h0Z" pointer-events="none"/><g><g class="mark-rule role-axis-tick" pointer-events="none"><line transform="translate(0,10)" x2="-5" y2="0" stroke="#888" stroke-width="1" opacity="1"/><line transform="translate(0,30)" x2="-5" y2="0" stroke="#888" stroke-width="1" opacity="1"/><line transform="translate(0,50)" x2="-5" y2="0" stroke="#888" stroke-width="1" opacity="1"/><line transform="translate(0,70)" x2="-5" y2="0" stroke="#888" stroke-width="1" opacity="1"/><line transform="translate(0,90)" x2="-5" y2="0" stroke="#888" stroke-width="1" opacity="1"/><line transform="translate(0,110)" x2="-5" y2="0" stroke="#888" stroke-width="1" opacity="1"/><line transform="translate(0,130)" x2="-5" y2="0" stroke="#888" stroke-width="1" opacity="1"/><line transform="translate(0,150)" x2="-5" y2="0" stroke="#888" stroke-width="1" opacity="1"/><line transform="translate(0,170)" x2="-5" y2="0" stroke="#888" stroke-width="1" opacity="1"/><line transform="translate(0,190)" x2="-5" y2="0" stroke="#888" stroke-width="1" opacity="1"/></g><g class="mark-text role-axis-label" pointer-events="none"><text text-anchor="end" transform="translate(-7,12.5)" font-family="sans-serif" font-size="10px" fill="#000" opacity="1">Glabron</text><text text-anchor="end" transform="translate(-7,32.5)" font-family="sans-serif" font-size="10px" fill="#000" opacity="1">Manchuria</text><text text-anchor="end" transform="translate(-7,52.5)" font-family="sans-serif" font-size="10px" fill="#000" opacity="1">No. 457</text><text text-anchor="end" transform="translate(-7,72.5)" font-family="sans-serif" font-size="10px" fill="#000" opacity="1">No. 462</text><text text-anchor="end" transform="translate(-7,92.5)" font-family="sans-serif" font-size="10px" fill="#000" opacity="1">No. 475</text><text text-anchor="end" transform="translate(-7,112.5)" font-family="sans-serif" font-size="10px" fill="#000" opacity="1">Peatland</text><text text-anchor="end" transform="translate(-7,132.5)" font-family="sans-serif" font-size="10px" fill="#000" opacity="1">Svansota</text><text text-anchor="end" transform="translate(-7,152.5)" font-family="sans-serif" font-size="10px" fill="#000" opacity="1">Trebi</text><text text-anchor="end" transform="translate(-7,172.5)" font-family="sans-serif" font-size="10px" fill="#000" opacity="1">Velvet</text><text text-anchor="end" transform="translate(-7,192.5)" font-family="sans-serif" font-size="10px" fill="#000" opacity="1">Wisconsin No. 38</text></g><g class="mark-rule role-axis-domain" pointer-events="none"><line transform="translate(0,0)" x2="0" y2="200" stroke="#888" stroke-width="1" opacity="1"/></g><g class="mark-text role-axis-title" pointer-events="none"><text text-anchor="middle" transform="translate(-94,100) rotate(-90) translate(0,-2)" font-family="sans-serif" font-size="11px" font-weight="bold" fill="#000" opacity="1">variety</text></g></g><path class="foreground" aria-hidden="true" d="" pointer-events="none" display="none"/></g></g><g class="mark-symbol role-mark layer_0_marks" role="graphics-object" aria-roledescription="symbol mark container"><path aria-label="Barley Yield: 31.46389; variety: Manchuria" role="graphics-symbol" aria-roledescription="point" transform="translate(62.19908333333333,30)" d="M2.7386127875258306,0A2.7386127875258306,2.7386127875258306,0,1,1,-2.7386127875258306,0A2.7386127875258306,2.7386127875258306,0,1,1,2.7386127875258306,0" fill="black" stroke-width="2"/><path aria-label="Barley Yield: 33.3416658333; variety: Glabron" role="graphics-symbol" aria-roledescription="point" transform="translate(77.84721527777782,10)" d="M2.7386127875258306,0A2.7386127875258306,2.7386127875258306,0,1,1,-2.7386127875258306,0A2.7386127875258306,2.7386127875258306,0,1,1,2.7386127875258306,0" fill="black" stroke-width="2"/><path aria-label="Barley Yield: 30.3777775; variety: Svansota" role="graphics-symbol" aria-roledescription="point" transform="translate(53.1481458333333,130)" d="M2.7386127875258306,0A2.7386127875258306,2.7386127875258306,0,1,1,-2.7386127875258306,0A2.7386127875258306,2.7386127875258306,0,1,1,2.7386127875258306,0" fill="black" stroke-width="2"/><path aria-label="Barley Yield: 33.0611091667; variety: Velvet" role="graphics-symbol" aria-roledescription="point" transform="translate(75.50924305555556,170)" d="M2.7386127875258306,0A2.7386127875258306,2.7386127875258306,0,1,1,-2.7386127875258306,0A2.7386127875258306,2.7386127875258306,0,1,1,2.7386127875258306,0" fill="black" stroke-width="2"/><path aria-label="Barley Yield: 39.3999933333; variety: Trebi" role="graphics-symbol" aria-roledescription="point" transform="translate(128.3332777777778,150)" d="M2.7386127875258306,0A2.7386127875258306,2.7386127875258306,0,1,1,-2.7386127875258306,0A2.7386127875258306,2.7386127875258306,0,1,1,2.7386127875258306,0" fill="black" stroke-width="2"/><path aria-label="Barley Yield: 35.8472241667; variety: No. 457" role="graphics-symbol" aria-roledescription="point" transform="translate(98.72686805555558,50)" d="M2.7386127875258306,0A2.7386127875258306,2.7386127875258306,0,1,1,-2.7386127875258306,0A2.7386127875258306,2.7386127875258306,0,1,1,2.7386127875258306,0" fill="black" stroke-width="2"/><path aria-label="Barley Yield: 35.3777808333; variety: No. 462" role="graphics-symbol" aria-roledescription="point" transform="translate(94.81484027777783,70)" d="M2.7386127875258306,0A2.7386127875258306,2.7386127875258306,0,1,1,-2.7386127875258306,0A2.7386127875258306,2.7386127875258306,0,1,1,2.7386127875258306,0" fill="black" stroke-width="2"/><path aria-label="Barley Yield: 34.1805558333; variety: Peatland" role="graphics-symbol" aria-roledescription="point" transform="translate(84.83796527777785,110)" d="M2.7386127875258306,0A2.7386127875258306,2.7386127875258306,0,1,1,-2.7386127875258306,0A2.7386127875258306,2.7386127875258306,0,1,1,2.7386127875258306,0" fill="black" stroke-width="2"/><path aria-label="Barley Yield: 31.7611108333; variety: No. 475" role="graphics-symbol" aria-roledescription="point" transform="translate(64.6759236111111,90)" d="M2.7386127875258306,0A2.7386127875258306,2.7386127875258306,0,1,1,-2.7386127875258306,0A2.7386127875258306,2.7386127875258306,0,1,1,2.7386127875258306,0" fill="black" stroke-width="2"/><path aria-label="Barley Yield: 39.3944458333; variety: Wisconsin No. 38" role="graphics-symbol" aria-roledescription="point" transform="translate(128.28704861111112,190)" d="M2.7386127875258306,0A2.7386127875258306,2.7386127875258306,0,1,1,-2.7386127875258306,0A2.7386127875258306,2.7386127875258306,0,1,1,2.7386127875258306,0" fill="black" stroke-width="2"/></g><g class="mark-rule role-mark layer_1_marks" role="graphics-object" aria-roledescription="rule mark container"><line aria-label="Barley Yield: 27.7054880417; variety: Manchuria; upper_yield: 35.5793061042; Ci1 of yield: 35.5793061042; Ci0 of yield: 27.7054880417; Mean of yield: 31.46389" role="graphics-symbol" aria-roledescription="errorbar" transform="translate(30.87906701388891,30)" x2="65.61515052083332" y2="0" stroke="black"/><line aria-label="Barley Yield: 27.4482644375; variety: Glabron; upper_yield: 38.6830557917; Ci1 of yield: 38.6830557917; Ci0 of yield: 27.4482644375; Mean of yield: 33.3416658333" role="graphics-symbol" aria-roledescription="errorbar" transform="translate(28.735536979166703,10)" x2="93.62326128472219" y2="0" stroke="black"/><line aria-label="Barley Yield: 25.8190258333; variety: Svansota; upper_yield: 35.2545831042; Ci1 of yield: 35.2545831042; Ci0 of yield: 25.8190258333; Mean of yield: 30.3777775" role="graphics-symbol" aria-roledescription="errorbar" transform="translate(15.158548611111152,130)" x2="78.62964392361103" y2="0" stroke="black"/><line aria-label="Barley Yield: 29.0601369583; variety: Velvet; upper_yield: 37.7113869167; Ci1 of yield: 37.7113869167; Ci0 of yield: 29.0601369583; Mean of yield: 33.0611091667" role="graphics-symbol" aria-roledescription="errorbar" transform="translate(42.16780798611115,170)" x2="72.09374965277772" y2="0" stroke="black"/><line aria-label="Barley Yield: 33.9051374792; variety: Trebi; upper_yield: 45.6031148333; Ci1 of yield: 45.6031148333; Ci0 of yield: 33.9051374792; Mean of yield: 39.3999933333" role="graphics-symbol" aria-roledescription="errorbar" transform="translate(82.5428123263889,150)" x2="97.4831446180555" y2="0" stroke="black"/><line aria-label="Barley Yield: 30.4125019167; variety: No. 457; upper_yield: 42.0003480625; Ci1 of yield: 42.0003480625; Ci0 of yield: 30.4125019167; Mean of yield: 35.8472241667" role="graphics-symbol" aria-roledescription="errorbar" transform="translate(53.43751597222225,50)" x2="96.56538454861109" y2="0" stroke="black"/><line aria-label="Barley Yield: 27.9707649792; variety: No. 462; upper_yield: 43.9223688958; Ci1 of yield: 43.9223688958; Ci0 of yield: 27.9707649792; Mean of yield: 35.3777808333" role="graphics-symbol" aria-roledescription="errorbar" transform="translate(33.08970815972223,70)" x2="132.93003263888892" y2="0" stroke="black"/><line aria-label="Barley Yield: 30.7232639167; variety: Peatland; upper_yield: 38.0947218958; Ci1 of yield: 38.0947218958; Ci0 of yield: 30.7232639167; Mean of yield: 34.1805558333" role="graphics-symbol" aria-roledescription="errorbar" transform="translate(56.027199305555584,110)" x2="61.42881649305558" y2="0" stroke="black"/><line aria-label="Barley Yield: 26.16694175; variety: No. 475; upper_yield: 37.2769455625; Ci1 of yield: 37.2769455625; Ci0 of yield: 26.16694175; Mean of yield: 31.7611108333" role="graphics-symbol" aria-roledescription="errorbar" transform="translate(18.05784791666669,90)" x2="92.5833651041666" y2="0" stroke="black"/><line aria-label="Barley Yield: 33.821251125; variety: Wisconsin No. 38; upper_yield: 46.0422925208; Ci1 of yield: 46.0422925208; Ci0 of yield: 33.821251125; Mean of yield: 39.3944458333" role="graphics-symbol" aria-roledescription="errorbar" transform="translate(81.84375937500002,190)" x2="101.8420116319445" y2="0" stroke="black"/></g></g><path class="foreground" aria-hidden="true" d="" display="none"/></g></g></g></svg>