<svg xmlns="http://www.w3.org/2000/svg" xmlns:xlink="http://www.w3.org/1999/xlink" version="1.1" class="marks" width="245" height="247" viewBox="0 0 245 247"><rect width="245" height="247" fill="white"/><g fill="none" stroke-miterlimit="10" transform="translate(40,10)"><g class="mark-group role-frame root" role="graphics-object" aria-roledescription="group mark container"><g transform="translate(0,0)"><path class="background" aria-hidden="true" d="M0.5,0.5h200v200h-200Z" stroke="#ddd"/><g><g class="mark-group role-axis" aria-hidden="true"><g transform="translate(0.5,200.5)"><path class="background" aria-hidden="true" d="M0,0h0v0h0Z" pointer-events="none"/><g><g class="mark-rule role-axis-grid" pointer-events="none"><line transform="translate(17,-200)" x2="0" y2="200" stroke="#ddd" stroke-width="1" opacity="1"/><line transform="translate(50,-200)" x2="0" y2="200" stroke="#ddd" stroke-width="1" opacity="1"/><line transform="translate(83,-200)" x2="0" y2="200" stroke="#ddd" stroke-width="1" opacity="1"/><line transform="translate(117,-200)" x2="0" y2="200" stroke="#ddd" stroke-width="1" opacity="1"/><line transform="translate(150,-200)" x2="0" y2="200" stroke="#ddd" stroke-width="1" opacity="1"/><line transform="translate(183,-200)" x2="0" y2="200" stroke="#ddd" stroke-width="1" opacity="1"/></g></g><path class="foreground" aria-hidden="true" d="" pointer-events="none" display="none"/></g></g><g class="mark-group role-axis" aria-hidden="true"><g transform="translate(0.5,0.5)"><path class="background" aria-hidden="true" d="M0,0h0v0h0Z" pointer-events="none"/><g><g class="mark-rule role-axis-grid" pointer-events="none"><line transform="translate(0,200)" x2="200" y2="0" stroke="#ddd" stroke-width="1" opacity="1"/><line transform="translate(0,150)" x2="200" y2="0" stroke="#ddd" stroke-width="1" opacity="1"/><line transform="translate(0,100)" x2="200" y2="0" stroke="#ddd" stroke-width="1" opacity="1"/><line transform="translate(0,50)" x2="200" y2="0" stroke="#ddd" stroke-width="1" opacity="1"/><line transform="translate(0,0)" x2="200" y2="0" stroke="#ddd" stroke-width="1" opacity="1"/></g></g><path class="foreground" aria-hidden="true" d="" pointer-events="none" display="none"/></g></g><g class="mark-group role-axis" role="graphics-symbol" aria-roledescription="axis" aria-label="X-axis titled 'Year (year)' for a time scale with values from Wednesday, 01 January 1969, 12:00:00 AM to Thursday, 01 January 1981, 12:00:00 AM"><g transform="translate(0.5,200.5)"><path class="background" aria-hidden="true" d="M0,0h0v0h0Z" pointer-events="none"/><g><g class="mark-rule role-axis-tick" pointer-events="none"><line transform="translate(17,0)" x2="0" y2="5" stroke="#888" stroke-width="1" opacity="1"/><line transform="translate(50,0)" x2="0" y2="5" stroke="#888" stroke-width="1" opacity="1"/><line transform="translate(83,0)" x2="0" y2="5" stroke="#888" stroke-width="1" opacity="1"/><line transform="translate(117,0)" x2="0" y2="5" stroke="#888" stroke-width="1" opacity="1"/><line transform="translate(150,0)" x2="0" y2="5" stroke="#888" stroke-width="1" opacity="1"/><line transform="translate(183,0)" x2="0" y2="5" stroke="#888" stroke-width="1" opacity="1"/></g><g class="mark-text role-axis-label" pointer-events="none"><text text-anchor="middle" transform="translate(16.65525895505362,15)" font-family="sans-serif" font-size="10px" fill="#000" opacity="1">1970</text><text text-anchor="middle" transform="translate(49.96577686516085,15)" font-family="sans-serif" font-size="10px" fill="#000" opacity="1">1972</text><text text-anchor="middle" transform="translate(83.32192562172028,15)" font-family="sans-serif" font-size="10px" fill="#000" opacity="1">1974</text><text text-anchor="middle" transform="translate(116.6324435318275,15)" font-family="sans-serif" font-size="10px" fill="#000" opacity="1">1976</text><text text-anchor="middle" transform="translate(149.98859228838694,15)" font-family="sans-serif" font-size="10px" fill="#000" opacity="1">1978</text><text text-anchor="middle" transform="translate(183.2991101984942,15)" font-family="sans-serif" font-size="10px" fill="#000" opacity="1">1980</text></g><g class="mark-rule role-axis-domain" pointer-events="none"><line transform="translate(0,0)" x2="200" y2="0" stroke="#888" stroke-width="1" opacity="1"/></g><g class="mark-text role-axis-title" pointer-events="none"><text text-anchor="middle" transform="translate(100,30)" font-family="sans-serif" font-size="11px" font-weight="bold" fill="#000" opacity="1">Year (year)</text></g></g><path class="foreground" aria-hidden="true" d="" pointer-events="none" display="none"/></g></g><g class="mark-group role-axis" role="graphics-symbol" aria-roledescription="axis" aria-label="Y-axis titled 'Miles_per_Gallon' for a linear scale with values from 0 to 40"><g transform="translate(0.5,0.5)"><path class="background" aria-hidden="true" d="M0,0h0v0h0Z" pointer-events="none"/><g><g class="mark-rule role-axis-tick" pointer-events="none"><line transform="translate(0,200)" x2="-5" y2="0" stroke="#888" stroke-width="1" opacity="1"/><line transform="translate(0,150)" x2="-5" y2="0" stroke="#888" stroke-width="1" opacity="1"/><line transform="translate(0,100)" x2="-5" y2="0" stroke="#888" stroke-width="1" opacity="1"/><line transform="translate(0,50)" x2="-5" y2="0" stroke="#888" stroke-width="1" opacity="1"/><line transform="translate(0,0)" x2="-5" y2="0" stroke="#888" stroke-width="1" opacity="1"/></g><g class="mark-text role-axis-label" pointer-events="none"><text text-anchor="end" transform="translate(-7,203)" font-family="sans-serif" font-size="10px" fill="#000" opacity="1">0</text><text text-anchor="end" transform="translate(-7,153)" font-family="sans-serif" font-size="10px" fill="#000" opacity="1">10</text><text text-anchor="end" transform="translate(-7,103)" font-family="sans-serif" font-size="10px" fill="#000" opacity="1">20</text><text text-anchor="end" transform="translate(-7,53)" font-family="sans-serif" font-size="10px" fill="#000" opacity="1">30</text><text text-anchor="end" transform="translate(-7,3)" font-family="sans-serif" font-size="10px" fill="#000" opacity="1">40</text></g><g class="mark-rule role-axis-domain" pointer-events="none"><line transform="translate(0,200)" x2="0" y2="-200" stroke="#888" stroke-width="1" opacity="1"/></g><g class="mark-text role-axis-title" pointer-events="none"><text text-anchor="middle" transform="translate(-23.724609375,100) rotate(-90) translate(0,-2)" font-family="sans-serif" font-size="11px" font-weight="bold" fill="#000" opacity="1">Miles_per_Gallon</text></g></g><path class="foreground" aria-hidden="true" d="" pointer-events="none" display="none"/></g></g><g class="mark-area role-mark layer_0_marks" role="graphics-object" aria-roledescription="area mark container"><path aria-label="Year (year): Jan 01, 1969; Miles_per_Gallon: 18; upper_Miles_per_Gallon: 18" role="graphics-symbol" aria-roledescription="errorband" d="M0,110L0,125L0,125L0,110ZM0,130L0,130ZM0,80L0,80ZM0,95L0,95ZM0,70L0,75L0,150L0,150L0,75L0,70ZM16.655,65L16.655,60L16.655,75L16.655,75L16.655,60L16.655,65ZM16.655,105L16.655,105ZM16.655,110L16.655,130L16.655,130L16.655,110ZM16.655,135L16.655,135ZM16.655,50L16.655,50ZM33.311,85L33.311,85ZM33.311,95L33.311,135L33.311,130L33.311,125L33.311,125L33.311,130L33.311,135L33.311,95ZM33.311,90L33.311,90ZM33.311,60L33.311,60ZM49.966,135L49.966,130L49.966,125L49.966,140L49.966,110L49.966,120L49.966,120L49.966,110L49.966,140L49.966,125L49.966,130L49.966,135ZM49.966,70L49.966,145L49.966,100L49.966,95L49.966,95L49.966,100L49.966,145L49.966,70ZM49.966,105L49.966,105ZM49.966,80L49.966,80ZM66.667,45L66.667,70L66.667,40L66.667,40L66.667,70L66.667,45ZM66.667,120L66.667,120ZM66.667,130L66.667,130ZM66.667,80L83.322,105L83.322,110L83.322,125L83.322,120L83.322,120L83.322,125L83.322,110L83.322,105L66.667,80ZM83.322,100L83.322,100ZM83.322,55L83.322,85L83.322,80L83.322,75L83.322,75L83.322,80L83.322,85L83.322,55ZM99.977,60L99.977,75L99.977,75L99.977,60ZM99.977,112.5L99.977,112.5ZM99.977,90L99.977,90ZM99.977,55L99.977,55ZM99.977,100L99.977,100ZM99.977,135L99.977,105L99.977,117.5L99.977,117.5L99.977,105L99.977,135ZM116.632,50L116.632,50ZM116.632,72.5L116.632,32.5L116.632,112.5L116.632,112.5L116.632,32.5L116.632,72.5ZM116.632,122.5L116.632,122.5ZM116.632,120L116.632,120ZM116.632,47.5L116.632,47.5ZM116.632,92.5L116.632,92.5ZM133.333,19.5L133.333,19.5ZM133.333,103L133.333,99L133.333,104L133.333,97.5L133.333,97.5L133.333,104L133.333,99L133.333,103ZM133.333,109.5L133.333,109.5ZM166.644,51L166.644,51ZM200,67L200,67ZM200,15L200,15ZM200,60L200,65L200,30L200,45L200,45L200,30L200,65L200,60ZM200,20L200,10L200,40L200,40L200,10L200,20Z" fill="#4c78a8" opacity="0.3"/></g></g><path class="foreground" aria-hidden="true" d="" display="none"/></g></g></g></svg>